<svg xmlns="http://www.w3.org/2000/svg" xmlns:xlink="http://www.w3.org/1999/xlink" xmlns:s="https://github.com/nturley/netlistsvg" width="1128" height="870.5"><style>svg {
  stroke:#000;
  fill:none;
}
text {
  fill:#000;
  stroke:none;
  font-size:10px;
  font-weight: bold;
  font-family: "Courier New", monospace;
}
.nodelabel {
  text-anchor: middle;
}
.inputPortLabel {
  text-anchor: end;
}
.splitjoinBody {
  fill:#000;
}</style><g s:type="add" transform="translate(699,142.5)" s:width="25" s:height="25" id="cell_$add$../vga_driver/vga_controller.v:56$14"><s:alias val="$add"/><circle r="12.5" cx="12.5" cy="12.5" class="cell_$add$../vga_driver/vga_controller.v:56$14"/><line x1="7.5" x2="17.5" y1="12.5" y2="12.5" class="cell_$add$../vga_driver/vga_controller.v:56$14"/><line x1="12.5" x2="12.5" y1="7.5" y2="17.5" class="cell_$add$../vga_driver/vga_controller.v:56$14"/><g s:x="3" s:y="5" s:pid="A"/><g s:x="3" s:y="20" s:pid="B"/><g s:x="25" s:y="12.5" s:pid="Y"/></g><g s:type="add" transform="translate(479.6666666666667,367.5)" s:width="25" s:height="25" id="cell_$add$../vga_driver/vga_controller.v:64$16"><s:alias val="$add"/><circle r="12.5" cx="12.5" cy="12.5" class="cell_$add$../vga_driver/vga_controller.v:64$16"/><line x1="7.5" x2="17.5" y1="12.5" y2="12.5" class="cell_$add$../vga_driver/vga_controller.v:64$16"/><line x1="12.5" x2="12.5" y1="7.5" y2="17.5" class="cell_$add$../vga_driver/vga_controller.v:64$16"/><g s:x="3" s:y="5" s:pid="A"/><g s:x="3" s:y="20" s:pid="B"/><g s:x="25" s:y="12.5" s:pid="Y"/></g><g s:type="eq" transform="translate(925,251.5)" s:width="25" s:height="25" id="cell_$eq$../vga_driver/vga_controller.v:35$1"><s:alias val="$eq"/><circle r="12.5" cx="12.5" cy="12.5" class="cell_$eq$../vga_driver/vga_controller.v:35$1"/><line x1="7.5" x2="17.5" y1="10" y2="10" class="cell_$eq$../vga_driver/vga_controller.v:35$1"/><line x1="7.5" x2="17.5" y1="15" y2="15" class="cell_$eq$../vga_driver/vga_controller.v:35$1"/><g s:x="3" s:y="5" s:pid="A"/><g s:x="3" s:y="20" s:pid="B"/><g s:x="25" s:y="12.5" s:pid="Y"/></g><g s:type="eq" transform="translate(548.6666666666666,444.5)" s:width="25" s:height="25" id="cell_$eq$../vga_driver/vga_controller.v:36$2"><s:alias val="$eq"/><circle r="12.5" cx="12.5" cy="12.5" class="cell_$eq$../vga_driver/vga_controller.v:36$2"/><line x1="7.5" x2="17.5" y1="10" y2="10" class="cell_$eq$../vga_driver/vga_controller.v:36$2"/><line x1="7.5" x2="17.5" y1="15" y2="15" class="cell_$eq$../vga_driver/vga_controller.v:36$2"/><g s:x="3" s:y="5" s:pid="A"/><g s:x="3" s:y="20" s:pid="B"/><g s:x="25" s:y="12.5" s:pid="Y"/></g><g s:type="ge" transform="translate(347.6666666666667,621.5)" s:width="25" s:height="25" id="cell_$ge$../vga_driver/vga_controller.v:37$3"><s:alias val="$ge"/><circle r="12.5" cx="12.5" cy="12.5" class="cell_$ge$../vga_driver/vga_controller.v:37$3"/><line x1="7.5" x2="17.5" y1="7.5" y2="12.5" class="cell_$ge$../vga_driver/vga_controller.v:37$3"/><line x1="7.5" x2="17.5" y1="17.5" y2="12.5" class="cell_$ge$../vga_driver/vga_controller.v:37$3"/><line x1="7.5" x2="17.5" y1="20" y2="15" class="cell_$ge$../vga_driver/vga_controller.v:37$3"/><g s:x="3" s:y="5" s:pid="A"/><g s:x="3" s:y="20" s:pid="B"/><g s:x="25" s:y="12.5" s:pid="Y"/></g><g s:type="ge" transform="translate(412.6666666666667,747.5)" s:width="25" s:height="25" id="cell_$ge$../vga_driver/vga_controller.v:38$6"><s:alias val="$ge"/><circle r="12.5" cx="12.5" cy="12.5" class="cell_$ge$../vga_driver/vga_controller.v:38$6"/><line x1="7.5" x2="17.5" y1="7.5" y2="12.5" class="cell_$ge$../vga_driver/vga_controller.v:38$6"/><line x1="7.5" x2="17.5" y1="17.5" y2="12.5" class="cell_$ge$../vga_driver/vga_controller.v:38$6"/><line x1="7.5" x2="17.5" y1="20" y2="15" class="cell_$ge$../vga_driver/vga_controller.v:38$6"/><g s:x="3" s:y="5" s:pid="A"/><g s:x="3" s:y="20" s:pid="B"/><g s:x="25" s:y="12.5" s:pid="Y"/></g><g s:type="gt" transform="translate(925,524.5)" s:width="25" s:height="25" id="cell_$gt$../vga_driver/vga_controller.v:43$10"><s:alias val="$gt"/><circle r="12.5" cx="12.5" cy="12.5" class="cell_$gt$../vga_driver/vga_controller.v:43$10"/><line x1="7.5" x2="17.5" y1="7.5" y2="12.5" class="cell_$gt$../vga_driver/vga_controller.v:43$10"/><line x1="7.5" x2="17.5" y1="17.5" y2="12.5" class="cell_$gt$../vga_driver/vga_controller.v:43$10"/><g s:x="3" s:y="5" s:pid="A"/><g s:x="3" s:y="20" s:pid="B"/><g s:x="25" s:y="12.5" s:pid="Y"/></g><g s:type="gt" transform="translate(925,69.5)" s:width="25" s:height="25" id="cell_$gt$../vga_driver/vga_controller.v:44$11"><s:alias val="$gt"/><circle r="12.5" cx="12.5" cy="12.5" class="cell_$gt$../vga_driver/vga_controller.v:44$11"/><line x1="7.5" x2="17.5" y1="7.5" y2="12.5" class="cell_$gt$../vga_driver/vga_controller.v:44$11"/><line x1="7.5" x2="17.5" y1="17.5" y2="12.5" class="cell_$gt$../vga_driver/vga_controller.v:44$11"/><g s:x="3" s:y="5" s:pid="A"/><g s:x="3" s:y="20" s:pid="B"/><g s:x="25" s:y="12.5" s:pid="Y"/></g><g s:type="and" transform="translate(411,679)" s:width="30" s:height="25" id="cell_$logic_and$../vga_driver/vga_controller.v:37$5"><s:alias val="$and"/><s:alias val="$reduce_and"/><s:alias val="$logic_and"/><s:alias val="$_AND_"/><path d="M0,0 L0,25 L15,25 A15 12.5 0 0 0 15,0 Z" class="cell_$logic_and$../vga_driver/vga_controller.v:37$5"/><text x="13" y="15" class="nodelabel" style="font-size:7px">AND</text><g s:x="0" s:y="5" s:pid="A"/><g s:x="0" s:y="20" s:pid="B"/><g s:x="30" s:y="12.5" s:pid="Y"/></g><g s:type="and" transform="translate(478,740)" s:width="30" s:height="25" id="cell_$logic_and$../vga_driver/vga_controller.v:37$7"><s:alias val="$and"/><s:alias val="$reduce_and"/><s:alias val="$logic_and"/><s:alias val="$_AND_"/><path d="M0,0 L0,25 L15,25 A15 12.5 0 0 0 15,0 Z" class="cell_$logic_and$../vga_driver/vga_controller.v:37$7"/><text x="13" y="15" class="nodelabel" style="font-size:7px">AND</text><g s:x="0" s:y="5" s:pid="A"/><g s:x="0" s:y="20" s:pid="B"/><g s:x="30" s:y="12.5" s:pid="Y"/></g><g s:type="and" transform="translate(547,821)" s:width="30" s:height="25" id="cell_$logic_and$../vga_driver/vga_controller.v:37$9"><s:alias val="$and"/><s:alias val="$reduce_and"/><s:alias val="$logic_and"/><s:alias val="$_AND_"/><path d="M0,0 L0,25 L15,25 A15 12.5 0 0 0 15,0 Z" class="cell_$logic_and$../vga_driver/vga_controller.v:37$9"/><text x="13" y="15" class="nodelabel" style="font-size:7px">AND</text><g s:x="0" s:y="5" s:pid="A"/><g s:x="0" s:y="20" s:pid="B"/><g s:x="30" s:y="12.5" s:pid="Y"/></g><g s:type="lt" transform="translate(347.6666666666667,686.5)" s:width="25" s:height="25" id="cell_$lt$../vga_driver/vga_controller.v:37$4"><s:alias val="$lt"/><circle r="12.5" cx="12.5" cy="12.5" class="cell_$lt$../vga_driver/vga_controller.v:37$4"/><line x1="7.5" x2="17.5" y1="12.5" y2="7.5" class="cell_$lt$../vga_driver/vga_controller.v:37$4"/><line x1="7.5" x2="17.5" y1="12.5" y2="17.5" class="cell_$lt$../vga_driver/vga_controller.v:37$4"/><g s:x="3" s:y="5" s:pid="A"/><g s:x="3" s:y="20" s:pid="B"/><g s:x="25" s:y="12.5" s:pid="Y"/></g><g s:type="lt" transform="translate(479.6666666666667,828.5)" s:width="25" s:height="25" id="cell_$lt$../vga_driver/vga_controller.v:38$8"><s:alias val="$lt"/><circle r="12.5" cx="12.5" cy="12.5" class="cell_$lt$../vga_driver/vga_controller.v:38$8"/><line x1="7.5" x2="17.5" y1="12.5" y2="7.5" class="cell_$lt$../vga_driver/vga_controller.v:38$8"/><line x1="7.5" x2="17.5" y1="12.5" y2="17.5" class="cell_$lt$../vga_driver/vga_controller.v:38$8"/><g s:x="3" s:y="5" s:pid="A"/><g s:x="3" s:y="20" s:pid="B"/><g s:x="25" s:y="12.5" s:pid="Y"/></g><g s:type="generic" transform="translate(228,362)" s:width="30" s:height="40" id="cell_$procdff$6190"><text x="15" y="-4" class="nodelabel cell_$procdff$6190" s:attribute="ref">$dff-bus</text><rect width="30" height="40" s:generic="body" class="cell_$procdff$6190"/><g transform="translate(0,10)" s:x="0" s:y="10" s:pid="in0" id="port_$procdff$6190~CLK"><text x="-3" y="-4" class="inputPortLabel cell_$procdff$6190">CLK</text></g><g transform="translate(0,30)" s:x="0" s:y="10" s:pid="in0" id="port_$procdff$6190~D"><text x="-3" y="-4" class="inputPortLabel cell_$procdff$6190">D</text></g><g transform="translate(30,10)" s:x="30" s:y="10" s:pid="out0" id="port_$procdff$6190~Q"><text x="5" y="-4" style="fill:#000; stroke:none" class="cell_$procdff$6190">Q</text></g></g><g s:type="generic" transform="translate(96,503)" s:width="30" s:height="40" id="cell_$procdff$6191"><text x="15" y="-4" class="nodelabel cell_$procdff$6191" s:attribute="ref">$dff-bus</text><rect width="30" height="40" s:generic="body" class="cell_$procdff$6191"/><g transform="translate(0,10)" s:x="0" s:y="10" s:pid="in0" id="port_$procdff$6191~CLK"><text x="-3" y="-4" class="inputPortLabel cell_$procdff$6191">CLK</text></g><g transform="translate(0,30)" s:x="0" s:y="10" s:pid="in0" id="port_$procdff$6191~D"><text x="-3" y="-4" class="inputPortLabel cell_$procdff$6191">D</text></g><g transform="translate(30,10)" s:x="30" s:y="10" s:pid="out0" id="port_$procdff$6191~Q"><text x="5" y="-4" style="fill:#000; stroke:none" class="cell_$procdff$6191">Q</text></g></g><g s:type="generic" transform="translate(678,406.5)" s:width="30" s:height="40" id="cell_$procmux$6183"><text x="15" y="-4" class="nodelabel cell_$procmux$6183" s:attribute="ref">$mux-bus</text><rect width="30" height="60" s:generic="body" class="cell_$procmux$6183"/><g transform="translate(0,10)" s:x="0" s:y="10" s:pid="in0" id="port_$procmux$6183~A"><text x="-3" y="-4" class="inputPortLabel cell_$procmux$6183">A</text></g><g transform="translate(0,30)" s:x="0" s:y="10" s:pid="in0" id="port_$procmux$6183~B"><text x="-3" y="-4" class="inputPortLabel cell_$procmux$6183">B</text></g><g transform="translate(0,50)" s:x="0" s:y="10" s:pid="in0" id="port_$procmux$6183~S"><text x="-3" y="-4" class="inputPortLabel cell_$procmux$6183">S</text></g><g transform="translate(30,10)" s:x="30" s:y="10" s:pid="out0" id="port_$procmux$6183~Y"><text x="5" y="-4" style="fill:#000; stroke:none" class="cell_$procmux$6183">Y</text></g></g><g s:type="generic" transform="translate(1018,386.5)" s:width="30" s:height="40" id="cell_$procmux$6185"><text x="15" y="-4" class="nodelabel cell_$procmux$6185" s:attribute="ref">$mux-bus</text><rect width="30" height="60" s:generic="body" class="cell_$procmux$6185"/><g transform="translate(0,10)" s:x="0" s:y="10" s:pid="in0" id="port_$procmux$6185~A"><text x="-3" y="-4" class="inputPortLabel cell_$procmux$6185">A</text></g><g transform="translate(0,30)" s:x="0" s:y="10" s:pid="in0" id="port_$procmux$6185~B"><text x="-3" y="-4" class="inputPortLabel cell_$procmux$6185">B</text></g><g transform="translate(0,50)" s:x="0" s:y="10" s:pid="in0" id="port_$procmux$6185~S"><text x="-3" y="-4" class="inputPortLabel cell_$procmux$6185">S</text></g><g transform="translate(30,10)" s:x="30" s:y="10" s:pid="out0" id="port_$procmux$6185~Y"><text x="5" y="-4" style="fill:#000; stroke:none" class="cell_$procmux$6185">Y</text></g></g><g s:type="generic" transform="translate(1018,213.5)" s:width="30" s:height="40" id="cell_$procmux$6188"><text x="15" y="-4" class="nodelabel cell_$procmux$6188" s:attribute="ref">$mux-bus</text><rect width="30" height="60" s:generic="body" class="cell_$procmux$6188"/><g transform="translate(0,10)" s:x="0" s:y="10" s:pid="in0" id="port_$procmux$6188~A"><text x="-3" y="-4" class="inputPortLabel cell_$procmux$6188">A</text></g><g transform="translate(0,30)" s:x="0" s:y="10" s:pid="in0" id="port_$procmux$6188~B"><text x="-3" y="-4" class="inputPortLabel cell_$procmux$6188">B</text></g><g transform="translate(0,50)" s:x="0" s:y="10" s:pid="in0" id="port_$procmux$6188~S"><text x="-3" y="-4" class="inputPortLabel cell_$procmux$6188">S</text></g><g transform="translate(30,10)" s:x="30" s:y="10" s:pid="out0" id="port_$procmux$6188~Y"><text x="5" y="-4" style="fill:#000; stroke:none" class="cell_$procmux$6188">Y</text></g></g><g s:type="generic" transform="translate(620,783)" s:width="30" s:height="40" id="cell_$ternary$../vga_driver/vga_controller.v:45$12"><text x="15" y="-4" class="nodelabel cell_$ternary$../vga_driver/vga_controller.v:45$12" s:attribute="ref">$mux-bus</text><rect width="30" height="60" s:generic="body" class="cell_$ternary$../vga_driver/vga_controller.v:45$12"/><g transform="translate(0,10)" s:x="0" s:y="10" s:pid="in0" id="port_$ternary$../vga_driver/vga_controller.v:45$12~A"><text x="-3" y="-4" class="inputPortLabel cell_$ternary$../vga_driver/vga_controller.v:45$12">A</text></g><g transform="translate(0,30)" s:x="0" s:y="10" s:pid="in0" id="port_$ternary$../vga_driver/vga_controller.v:45$12~B"><text x="-3" y="-4" class="inputPortLabel cell_$ternary$../vga_driver/vga_controller.v:45$12">B</text></g><g transform="translate(0,50)" s:x="0" s:y="10" s:pid="in0" id="port_$ternary$../vga_driver/vga_controller.v:45$12~S"><text x="-3" y="-4" class="inputPortLabel cell_$ternary$../vga_driver/vga_controller.v:45$12">S</text></g><g transform="translate(30,10)" s:x="30" s:y="10" s:pid="out0" id="port_$ternary$../vga_driver/vga_controller.v:45$12~Y"><text x="5" y="-4" style="fill:#000; stroke:none" class="cell_$ternary$../vga_driver/vga_controller.v:45$12">Y</text></g></g><g s:type="inputExt" transform="translate(12,503.5)" s:width="30" s:height="20" id="cell_clk"><text x="15" y="-4" class="nodelabel cell_clk" s:attribute="ref">clk</text><s:alias val="$_inputExt_"/><path d="M0,0 L0,20 L15,20 L30,10 L15,0 Z" class="cell_clk"/><g s:x="28" s:y="10" s:pid="Y"/></g><g s:type="inputExt" transform="translate(476,685)" s:width="30" s:height="20" id="cell_rgb_in"><text x="15" y="-4" class="nodelabel cell_rgb_in" s:attribute="ref">rgb_in</text><s:alias val="$_inputExt_"/><path d="M0,0 L0,20 L15,20 L30,10 L15,0 Z" class="cell_rgb_in"/><g s:x="28" s:y="10" s:pid="Y"/></g><g s:type="outputExt" transform="translate(1018,783.5)" s:width="30" s:height="20" id="cell_rgb_out"><text x="15" y="-4" class="nodelabel cell_rgb_out" s:attribute="ref">rgb_out</text><s:alias val="$_outputExt_"/><path d="M30,0 L30,20 L15,20 L0,10 L15,0 Z" class="cell_rgb_out"/><g s:x="0" s:y="10" s:pid="A"/></g><g s:type="outputExt" transform="translate(1018,527)" s:width="30" s:height="20" id="cell_hsync"><text x="15" y="-4" class="nodelabel cell_hsync" s:attribute="ref">hsync</text><s:alias val="$_outputExt_"/><path d="M30,0 L30,20 L15,20 L0,10 L15,0 Z" class="cell_hsync"/><g s:x="0" s:y="10" s:pid="A"/></g><g s:type="outputExt" transform="translate(1018,72)" s:width="30" s:height="20" id="cell_vsync"><text x="15" y="-4" class="nodelabel cell_vsync" s:attribute="ref">vsync</text><s:alias val="$_outputExt_"/><path d="M30,0 L30,20 L15,20 L0,10 L15,0 Z" class="cell_vsync"/><g s:x="0" s:y="10" s:pid="A"/></g><g s:type="outputExt" transform="translate(1018,22)" s:width="30" s:height="20" id="cell_hpos"><text x="15" y="-4" class="nodelabel cell_hpos" s:attribute="ref">hpos</text><s:alias val="$_outputExt_"/><path d="M30,0 L30,20 L15,20 L0,10 L15,0 Z" class="cell_hpos"/><g s:x="0" s:y="10" s:pid="A"/></g><g s:type="outputExt" transform="translate(1018,321.5)" s:width="30" s:height="20" id="cell_vpos"><text x="15" y="-4" class="nodelabel cell_vpos" s:attribute="ref">vpos</text><s:alias val="$_outputExt_"/><path d="M30,0 L30,20 L15,20 L0,10 L15,0 Z" class="cell_vpos"/><g s:x="0" s:y="10" s:pid="A"/></g><g s:type="constant" transform="translate(411,152.5)" s:width="30" s:height="20" id="cell_1"><text x="15" y="-4" class="nodelabel cell_1" s:attribute="ref">1</text><s:alias val="$_constant_"/><rect width="30" height="20" class="cell_1"/><g s:x="30" s:y="10" s:pid="Y"/></g><g s:type="constant" transform="translate(547,261.5)" s:width="30" s:height="20" id="cell_1100011111"><text x="15" y="-4" class="nodelabel cell_1100011111" s:attribute="ref">0x31f</text><s:alias val="$_constant_"/><rect width="30" height="20" class="cell_1100011111"/><g s:x="30" s:y="10" s:pid="Y"/></g><g s:type="constant" transform="translate(411,454.5)" s:width="30" s:height="20" id="cell_1000001100"><text x="15" y="-4" class="nodelabel cell_1000001100" s:attribute="ref">0x20c</text><s:alias val="$_constant_"/><rect width="30" height="20" class="cell_1000001100"/><g s:x="30" s:y="10" s:pid="Y"/></g><g s:type="constant" transform="translate(96,631.5)" s:width="30" s:height="20" id="cell_10001111"><text x="15" y="-4" class="nodelabel cell_10001111" s:attribute="ref">0x8f</text><s:alias val="$_constant_"/><rect width="30" height="20" class="cell_10001111"/><g s:x="30" s:y="10" s:pid="Y"/></g><g s:type="constant" transform="translate(228,757.5)" s:width="30" s:height="20" id="cell_100010"><text x="15" y="-4" class="nodelabel cell_100010" s:attribute="ref">0x22</text><s:alias val="$_constant_"/><rect width="30" height="20" class="cell_100010"/><g s:x="30" s:y="10" s:pid="Y"/></g><g s:type="constant" transform="translate(547,534.5)" s:width="30" s:height="20" id="cell_1011111"><text x="15" y="-4" class="nodelabel cell_1011111" s:attribute="ref">0x5f</text><s:alias val="$_constant_"/><rect width="30" height="20" class="cell_1011111"/><g s:x="30" s:y="10" s:pid="Y"/></g><g s:type="constant" transform="translate(96,696.5)" s:width="30" s:height="20" id="cell_1100001111"><text x="15" y="-4" class="nodelabel cell_1100001111" s:attribute="ref">0x30f</text><s:alias val="$_constant_"/><rect width="30" height="20" class="cell_1100001111"/><g s:x="30" s:y="10" s:pid="Y"/></g><g s:type="constant" transform="translate(346,838.5)" s:width="30" s:height="20" id="cell_1000000010"><text x="15" y="-4" class="nodelabel cell_1000000010" s:attribute="ref">0x202</text><s:alias val="$_constant_"/><rect width="30" height="20" class="cell_1000000010"/><g s:x="30" s:y="10" s:pid="Y"/></g><g s:type="constant" transform="translate(476,267.5)" s:width="30" s:height="20" id="cell_00000000000"><text x="15" y="-4" class="nodelabel cell_00000000000" s:attribute="ref">0x0</text><s:alias val="$_constant_"/><rect width="30" height="20" class="cell_00000000000"/><g s:x="30" s:y="10" s:pid="Y"/></g><g s:type="constant" transform="translate(476,620)" s:width="30" s:height="20" id="cell_000"><text x="15" y="-4" class="nodelabel cell_000" s:attribute="ref">000</text><s:alias val="$_constant_"/><rect width="30" height="20" class="cell_000"/><g s:x="30" s:y="10" s:pid="Y"/></g><line x1="127" x2="184" y1="513.5" y2="513.5" class="net_11,12,13,14,15,16,17,18,19,20,21 width_11" style="stroke-width: 2"/><line x1="184" x2="184" y1="513.5" y2="240.5" class="net_11,12,13,14,15,16,17,18,19,20,21 width_11" style="stroke-width: 2"/><line x1="184" x2="336" y1="240.5" y2="240.5" class="net_11,12,13,14,15,16,17,18,19,20,21 width_11" style="stroke-width: 2"/><line x1="336" x2="336" y1="240.5" y2="101.5" class="net_11,12,13,14,15,16,17,18,19,20,21 width_11" style="stroke-width: 2"/><line x1="336" x2="587" y1="101.5" y2="101.5" class="net_11,12,13,14,15,16,17,18,19,20,21 width_11" style="stroke-width: 2"/><line x1="587" x2="587" y1="101.5" y2="147.5" class="net_11,12,13,14,15,16,17,18,19,20,21 width_11" style="stroke-width: 2"/><circle cx="184" cy="513.5" r="3" style="fill:#000" class="net_11,12,13,14,15,16,17,18,19,20,21 width_11"/><circle cx="184" cy="240.5" r="3" style="fill:#000" class="net_11,12,13,14,15,16,17,18,19,20,21 width_11"/><circle cx="336" cy="240.5" r="3" style="fill:#000" class="net_11,12,13,14,15,16,17,18,19,20,21 width_11"/><line x1="587" x2="702" y1="147.5" y2="147.5" class="net_11,12,13,14,15,16,17,18,19,20,21 width_11" style="stroke-width: 2"/><line x1="127" x2="184" y1="513.5" y2="513.5" class="net_11,12,13,14,15,16,17,18,19,20,21 width_11" style="stroke-width: 2"/><line x1="184" x2="184" y1="513.5" y2="240.5" class="net_11,12,13,14,15,16,17,18,19,20,21 width_11" style="stroke-width: 2"/><line x1="184" x2="900" y1="240.5" y2="240.5" class="net_11,12,13,14,15,16,17,18,19,20,21 width_11" style="stroke-width: 2"/><line x1="900" x2="900" y1="240.5" y2="256.5" class="net_11,12,13,14,15,16,17,18,19,20,21 width_11" style="stroke-width: 2"/><line x1="900" x2="928" y1="256.5" y2="256.5" class="net_11,12,13,14,15,16,17,18,19,20,21 width_11" style="stroke-width: 2"/><line x1="127" x2="184" y1="513.5" y2="513.5" class="net_11,12,13,14,15,16,17,18,19,20,21 width_11" style="stroke-width: 2"/><line x1="184" x2="184" y1="513.5" y2="621.5" class="net_11,12,13,14,15,16,17,18,19,20,21 width_11" style="stroke-width: 2"/><line x1="184" x2="316" y1="621.5" y2="621.5" class="net_11,12,13,14,15,16,17,18,19,20,21 width_11" style="stroke-width: 2"/><line x1="316" x2="316" y1="621.5" y2="626.5" class="net_11,12,13,14,15,16,17,18,19,20,21 width_11" style="stroke-width: 2"/><circle cx="184" cy="621.5" r="3" style="fill:#000" class="net_11,12,13,14,15,16,17,18,19,20,21 width_11"/><line x1="316" x2="350.6666666666667" y1="626.5" y2="626.5" class="net_11,12,13,14,15,16,17,18,19,20,21 width_11" style="stroke-width: 2"/><line x1="127" x2="900" y1="513.5" y2="513.5" class="net_11,12,13,14,15,16,17,18,19,20,21 width_11" style="stroke-width: 2"/><line x1="900" x2="900" y1="513.5" y2="529.5" class="net_11,12,13,14,15,16,17,18,19,20,21 width_11" style="stroke-width: 2"/><line x1="900" x2="928" y1="529.5" y2="529.5" class="net_11,12,13,14,15,16,17,18,19,20,21 width_11" style="stroke-width: 2"/><line x1="127" x2="184" y1="513.5" y2="513.5" class="net_11,12,13,14,15,16,17,18,19,20,21 width_11" style="stroke-width: 2"/><line x1="184" x2="184" y1="513.5" y2="686.5" class="net_11,12,13,14,15,16,17,18,19,20,21 width_11" style="stroke-width: 2"/><line x1="184" x2="316" y1="686.5" y2="686.5" class="net_11,12,13,14,15,16,17,18,19,20,21 width_11" style="stroke-width: 2"/><line x1="316" x2="316" y1="686.5" y2="691.5" class="net_11,12,13,14,15,16,17,18,19,20,21 width_11" style="stroke-width: 2"/><line x1="316" x2="350.6666666666667" y1="691.5" y2="691.5" class="net_11,12,13,14,15,16,17,18,19,20,21 width_11" style="stroke-width: 2"/><line x1="127" x2="184" y1="513.5" y2="513.5" class="net_11,12,13,14,15,16,17,18,19,20,21 width_11" style="stroke-width: 2"/><line x1="184" x2="184" y1="513.5" y2="32" class="net_11,12,13,14,15,16,17,18,19,20,21 width_11" style="stroke-width: 2"/><line x1="184" x2="1018" y1="32" y2="32" class="net_11,12,13,14,15,16,17,18,19,20,21 width_11" style="stroke-width: 2"/><line x1="441" x2="702" y1="162.5" y2="162.5" class="net_97 width_1" style="stroke-width: 1"/><line x1="441" x2="451" y1="162.5" y2="162.5" class="net_97 width_1" style="stroke-width: 1"/><line x1="451" x2="451" y1="162.5" y2="387.5" class="net_97 width_1" style="stroke-width: 1"/><circle cx="451" cy="162.5" r="2" style="fill:#000" class="net_97 width_1"/><line x1="451" x2="482.6666666666667" y1="387.5" y2="387.5" class="net_97 width_1" style="stroke-width: 1"/><line x1="441" x2="451" y1="162.5" y2="162.5" class="net_97 width_1" style="stroke-width: 1"/><line x1="451" x2="451" y1="162.5" y2="89.5" class="net_97 width_1" style="stroke-width: 1"/><line x1="451" x2="928" y1="89.5" y2="89.5" class="net_97 width_1" style="stroke-width: 1"/><line x1="259" x2="482.6666666666667" y1="372.5" y2="372.5" class="net_22,23,24,25,26,27,28,29,30,31,32 width_11" style="stroke-width: 2"/><line x1="259" x2="326" y1="372.5" y2="372.5" class="net_22,23,24,25,26,27,28,29,30,31,32 width_11" style="stroke-width: 2"/><line x1="326" x2="326" y1="372.5" y2="403.5" class="net_22,23,24,25,26,27,28,29,30,31,32 width_11" style="stroke-width: 2"/><line x1="326" x2="522" y1="403.5" y2="403.5" class="net_22,23,24,25,26,27,28,29,30,31,32 width_11" style="stroke-width: 2"/><line x1="522" x2="522" y1="403.5" y2="449.5" class="net_22,23,24,25,26,27,28,29,30,31,32 width_11" style="stroke-width: 2"/><circle cx="326" cy="372.5" r="3" style="fill:#000" class="net_22,23,24,25,26,27,28,29,30,31,32 width_11"/><circle cx="326" cy="403.5" r="3" style="fill:#000" class="net_22,23,24,25,26,27,28,29,30,31,32 width_11"/><line x1="522" x2="551.6666666666666" y1="449.5" y2="449.5" class="net_22,23,24,25,26,27,28,29,30,31,32 width_11" style="stroke-width: 2"/><line x1="259" x2="326" y1="372.5" y2="372.5" class="net_22,23,24,25,26,27,28,29,30,31,32 width_11" style="stroke-width: 2"/><line x1="326" x2="326" y1="372.5" y2="580.5" class="net_22,23,24,25,26,27,28,29,30,31,32 width_11" style="stroke-width: 2"/><line x1="326" x2="396" y1="580.5" y2="580.5" class="net_22,23,24,25,26,27,28,29,30,31,32 width_11" style="stroke-width: 2"/><line x1="396" x2="396" y1="580.5" y2="752.5" class="net_22,23,24,25,26,27,28,29,30,31,32 width_11" style="stroke-width: 2"/><circle cx="326" cy="580.5" r="3" style="fill:#000" class="net_22,23,24,25,26,27,28,29,30,31,32 width_11"/><line x1="396" x2="415.6666666666667" y1="752.5" y2="752.5" class="net_22,23,24,25,26,27,28,29,30,31,32 width_11" style="stroke-width: 2"/><line x1="259" x2="326" y1="372.5" y2="372.5" class="net_22,23,24,25,26,27,28,29,30,31,32 width_11" style="stroke-width: 2"/><line x1="326" x2="326" y1="372.5" y2="73.5" class="net_22,23,24,25,26,27,28,29,30,31,32 width_11" style="stroke-width: 2"/><line x1="326" x2="900" y1="73.5" y2="73.5" class="net_22,23,24,25,26,27,28,29,30,31,32 width_11" style="stroke-width: 2"/><line x1="900" x2="900" y1="73.5" y2="74.5" class="net_22,23,24,25,26,27,28,29,30,31,32 width_11" style="stroke-width: 2"/><line x1="900" x2="928" y1="74.5" y2="74.5" class="net_22,23,24,25,26,27,28,29,30,31,32 width_11" style="stroke-width: 2"/><line x1="259" x2="326" y1="372.5" y2="372.5" class="net_22,23,24,25,26,27,28,29,30,31,32 width_11" style="stroke-width: 2"/><line x1="326" x2="326" y1="372.5" y2="787.5" class="net_22,23,24,25,26,27,28,29,30,31,32 width_11" style="stroke-width: 2"/><line x1="326" x2="451" y1="787.5" y2="787.5" class="net_22,23,24,25,26,27,28,29,30,31,32 width_11" style="stroke-width: 2"/><line x1="451" x2="451" y1="787.5" y2="833.5" class="net_22,23,24,25,26,27,28,29,30,31,32 width_11" style="stroke-width: 2"/><line x1="451" x2="482.6666666666667" y1="833.5" y2="833.5" class="net_22,23,24,25,26,27,28,29,30,31,32 width_11" style="stroke-width: 2"/><line x1="259" x2="326" y1="372.5" y2="372.5" class="net_22,23,24,25,26,27,28,29,30,31,32 width_11" style="stroke-width: 2"/><line x1="326" x2="326" y1="372.5" y2="326.5" class="net_22,23,24,25,26,27,28,29,30,31,32 width_11" style="stroke-width: 2"/><line x1="326" x2="970" y1="326.5" y2="326.5" class="net_22,23,24,25,26,27,28,29,30,31,32 width_11" style="stroke-width: 2"/><line x1="970" x2="970" y1="326.5" y2="397" class="net_22,23,24,25,26,27,28,29,30,31,32 width_11" style="stroke-width: 2"/><circle cx="326" cy="326.5" r="3" style="fill:#000" class="net_22,23,24,25,26,27,28,29,30,31,32 width_11"/><line x1="970" x2="1018" y1="397" y2="397" class="net_22,23,24,25,26,27,28,29,30,31,32 width_11" style="stroke-width: 2"/><line x1="259" x2="326" y1="372.5" y2="372.5" class="net_22,23,24,25,26,27,28,29,30,31,32 width_11" style="stroke-width: 2"/><line x1="326" x2="326" y1="372.5" y2="223.5" class="net_22,23,24,25,26,27,28,29,30,31,32 width_11" style="stroke-width: 2"/><line x1="326" x2="980" y1="223.5" y2="223.5" class="net_22,23,24,25,26,27,28,29,30,31,32 width_11" style="stroke-width: 2"/><line x1="980" x2="980" y1="223.5" y2="331.5" class="net_22,23,24,25,26,27,28,29,30,31,32 width_11" style="stroke-width: 2"/><circle cx="326" cy="223.5" r="3" style="fill:#000" class="net_22,23,24,25,26,27,28,29,30,31,32 width_11"/><line x1="980" x2="1018" y1="331.5" y2="331.5" class="net_22,23,24,25,26,27,28,29,30,31,32 width_11" style="stroke-width: 2"/><line x1="577" x2="928" y1="271.5" y2="271.5" class="net_99,100,101,102,103,104,105,106,107,108 width_10" style="stroke-width: 2"/><line x1="441" x2="551.6666666666666" y1="464.5" y2="464.5" class="net_109,110,111,112,113,114,115,116,117,118 width_10" style="stroke-width: 2"/><line x1="126" x2="350.6666666666667" y1="641.5" y2="641.5" class="net_119,120,121,122,123,124,125,126 width_8" style="stroke-width: 2"/><line x1="258" x2="415.6666666666667" y1="767.5" y2="767.5" class="net_127,128,129,130,131,132 width_6" style="stroke-width: 2"/><line x1="577" x2="928" y1="544.5" y2="544.5" class="net_133,134,135,136,137,138,139 width_7" style="stroke-width: 2"/><line x1="372.6666666666667" x2="386" y1="634" y2="634" class="net_57 width_1" style="stroke-width: 1"/><line x1="386" x2="386" y1="634" y2="684" class="net_57 width_1" style="stroke-width: 1"/><line x1="386" x2="411" y1="684" y2="684" class="net_57 width_1" style="stroke-width: 1"/><line x1="372.6666666666667" x2="411" y1="699" y2="699" class="net_59 width_1" style="stroke-width: 1"/><line x1="441" x2="451" y1="691.5" y2="691.5" class="net_60 width_1" style="stroke-width: 1"/><line x1="451" x2="451" y1="691.5" y2="745" class="net_60 width_1" style="stroke-width: 1"/><line x1="451" x2="478" y1="745" y2="745" class="net_60 width_1" style="stroke-width: 1"/><line x1="437.6666666666667" x2="478" y1="760" y2="760" class="net_58 width_1" style="stroke-width: 1"/><line x1="508" x2="522" y1="752.5" y2="752.5" class="net_61 width_1" style="stroke-width: 1"/><line x1="522" x2="522" y1="752.5" y2="826" class="net_61 width_1" style="stroke-width: 1"/><line x1="522" x2="547" y1="826" y2="826" class="net_61 width_1" style="stroke-width: 1"/><line x1="504.6666666666667" x2="547" y1="841" y2="841" class="net_62 width_1" style="stroke-width: 1"/><line x1="126" x2="350.6666666666667" y1="706.5" y2="706.5" class="net_141,142,143,144,145,146,147,148,149,150 width_10" style="stroke-width: 2"/><line x1="376" x2="482.6666666666667" y1="848.5" y2="848.5" class="net_151,152,153,154,155,156,157,158,159,160 width_10" style="stroke-width: 2"/><line x1="40" x2="52" y1="513.5" y2="513.5" class="net_2 width_1" style="stroke-width: 1"/><line x1="52" x2="52" y1="513.5" y2="372.5" class="net_2 width_1" style="stroke-width: 1"/><circle cx="52" cy="513.5" r="2" style="fill:#000" class="net_2 width_1"/><line x1="52" x2="228" y1="372.5" y2="372.5" class="net_2 width_1" style="stroke-width: 1"/><line x1="40" x2="96" y1="513.5" y2="513.5" class="net_2 width_1" style="stroke-width: 1"/><line x1="1049" x2="1116" y1="397" y2="397" class="net_64,65,66,67,68,69,70,71,72,73,74 width_11" style="stroke-width: 2"/><line x1="1116" x2="1116" y1="397" y2="52" class="net_64,65,66,67,68,69,70,71,72,73,74 width_11" style="stroke-width: 2"/><line x1="1116" x2="194" y1="52" y2="52" class="net_64,65,66,67,68,69,70,71,72,73,74 width_11" style="stroke-width: 2"/><line x1="194" x2="194" y1="52" y2="392.5" class="net_64,65,66,67,68,69,70,71,72,73,74 width_11" style="stroke-width: 2"/><line x1="194" x2="227" y1="392.5" y2="392.5" class="net_64,65,66,67,68,69,70,71,72,73,74 width_11" style="stroke-width: 2"/><line x1="1049" x2="1106" y1="224" y2="224" class="net_75,76,77,78,79,80,81,82,83,84,85 width_11" style="stroke-width: 2"/><line x1="1106" x2="1106" y1="224" y2="565.5" class="net_75,76,77,78,79,80,81,82,83,84,85 width_11" style="stroke-width: 2"/><line x1="1106" x2="52" y1="565.5" y2="565.5" class="net_75,76,77,78,79,80,81,82,83,84,85 width_11" style="stroke-width: 2"/><line x1="52" x2="52" y1="565.5" y2="533.5" class="net_75,76,77,78,79,80,81,82,83,84,85 width_11" style="stroke-width: 2"/><line x1="52" x2="95" y1="533.5" y2="533.5" class="net_75,76,77,78,79,80,81,82,83,84,85 width_11" style="stroke-width: 2"/><line x1="504.6666666666667" x2="597" y1="380" y2="380" class="net_44,45,46,47,48,49,50,51,52,53,54 width_11" style="stroke-width: 2"/><line x1="597" x2="597" y1="380" y2="417" class="net_44,45,46,47,48,49,50,51,52,53,54 width_11" style="stroke-width: 2"/><line x1="597" x2="678" y1="417" y2="417" class="net_44,45,46,47,48,49,50,51,52,53,54 width_11" style="stroke-width: 2"/><line x1="506" x2="532" y1="277.5" y2="277.5" class="net_161,162,163,164,165,166,167,168,169,170,171 width_11" style="stroke-width: 2"/><line x1="532" x2="532" y1="277.5" y2="403.5" class="net_161,162,163,164,165,166,167,168,169,170,171 width_11" style="stroke-width: 2"/><line x1="532" x2="587" y1="403.5" y2="403.5" class="net_161,162,163,164,165,166,167,168,169,170,171 width_11" style="stroke-width: 2"/><line x1="587" x2="587" y1="403.5" y2="437" class="net_161,162,163,164,165,166,167,168,169,170,171 width_11" style="stroke-width: 2"/><circle cx="532" cy="277.5" r="3" style="fill:#000" class="net_161,162,163,164,165,166,167,168,169,170,171 width_11"/><line x1="587" x2="677" y1="437" y2="437" class="net_161,162,163,164,165,166,167,168,169,170,171 width_11" style="stroke-width: 2"/><line x1="506" x2="532" y1="277.5" y2="277.5" class="net_161,162,163,164,165,166,167,168,169,170,171 width_11" style="stroke-width: 2"/><line x1="532" x2="532" y1="277.5" y2="206.5" class="net_161,162,163,164,165,166,167,168,169,170,171 width_11" style="stroke-width: 2"/><line x1="532" x2="990" y1="206.5" y2="206.5" class="net_161,162,163,164,165,166,167,168,169,170,171 width_11" style="stroke-width: 2"/><line x1="990" x2="990" y1="206.5" y2="244" class="net_161,162,163,164,165,166,167,168,169,170,171 width_11" style="stroke-width: 2"/><line x1="990" x2="1017" y1="244" y2="244" class="net_161,162,163,164,165,166,167,168,169,170,171 width_11" style="stroke-width: 2"/><line x1="573.6666666666666" x2="677" y1="457" y2="457" class="net_56 width_1" style="stroke-width: 1"/><line x1="709" x2="1017" y1="417" y2="417" class="net_86,87,88,89,90,91,92,93,94,95,96 width_11" style="stroke-width: 2"/><line x1="950" x2="960" y1="264" y2="264" class="net_55 width_1" style="stroke-width: 1"/><line x1="960" x2="960" y1="264" y2="437" class="net_55 width_1" style="stroke-width: 1"/><circle cx="960" cy="264" r="2" style="fill:#000" class="net_55 width_1"/><line x1="960" x2="1017" y1="437" y2="437" class="net_55 width_1" style="stroke-width: 1"/><line x1="950" x2="1017" y1="264" y2="264" class="net_55 width_1" style="stroke-width: 1"/><line x1="724" x2="1000" y1="155" y2="155" class="net_33,34,35,36,37,38,39,40,41,42,43 width_11" style="stroke-width: 2"/><line x1="1000" x2="1000" y1="155" y2="224" class="net_33,34,35,36,37,38,39,40,41,42,43 width_11" style="stroke-width: 2"/><line x1="1000" x2="1018" y1="224" y2="224" class="net_33,34,35,36,37,38,39,40,41,42,43 width_11" style="stroke-width: 2"/><line x1="506" x2="597" y1="630" y2="630" class="net_183,184,185 width_3" style="stroke-width: 2"/><line x1="597" x2="597" y1="630" y2="793.5" class="net_183,184,185 width_3" style="stroke-width: 2"/><line x1="597" x2="620" y1="793.5" y2="793.5" class="net_183,184,185 width_3" style="stroke-width: 2"/><line x1="504" x2="587" y1="695" y2="695" class="net_3,4,5 width_3" style="stroke-width: 2"/><line x1="587" x2="587" y1="695" y2="813.5" class="net_3,4,5 width_3" style="stroke-width: 2"/><line x1="587" x2="619" y1="813.5" y2="813.5" class="net_3,4,5 width_3" style="stroke-width: 2"/><line x1="577" x2="619" y1="833.5" y2="833.5" class="net_63 width_1" style="stroke-width: 1"/><line x1="651" x2="1018" y1="793.5" y2="793.5" class="net_6,7,8 width_3" style="stroke-width: 2"/><line x1="950" x2="1018" y1="537" y2="537" class="net_9 width_1" style="stroke-width: 1"/><line x1="950" x2="1018" y1="82" y2="82" class="net_10 width_1" style="stroke-width: 1"/><rect x="493" y="27" width="22" height="9" class="net_11,12,13,14,15,16,17,18,19,20,21 width_11 busLabel_11" style="fill: white; stroke: none"/><text x="492" y="35" class="net_11,12,13,14,15,16,17,18,19,20,21 width_11 busLabel_11">/11/</text><rect x="493" y="27" width="22" height="9" class="net_11,12,13,14,15,16,17,18,19,20,21 width_11 busLabel_11" style="fill: white; stroke: none"/><text x="492" y="35" class="net_11,12,13,14,15,16,17,18,19,20,21 width_11 busLabel_11">/11/</text><rect x="493" y="27" width="22" height="9" class="net_11,12,13,14,15,16,17,18,19,20,21 width_11 busLabel_11" style="fill: white; stroke: none"/><text x="492" y="35" class="net_11,12,13,14,15,16,17,18,19,20,21 width_11 busLabel_11">/11/</text><rect x="493" y="27" width="22" height="9" class="net_11,12,13,14,15,16,17,18,19,20,21 width_11 busLabel_11" style="fill: white; stroke: none"/><text x="492" y="35" class="net_11,12,13,14,15,16,17,18,19,20,21 width_11 busLabel_11">/11/</text><rect x="493" y="27" width="22" height="9" class="net_11,12,13,14,15,16,17,18,19,20,21 width_11 busLabel_11" style="fill: white; stroke: none"/><text x="492" y="35" class="net_11,12,13,14,15,16,17,18,19,20,21 width_11 busLabel_11">/11/</text><rect x="493" y="27" width="22" height="9" class="net_11,12,13,14,15,16,17,18,19,20,21 width_11 busLabel_11" style="fill: white; stroke: none"/><text x="492" y="35" class="net_11,12,13,14,15,16,17,18,19,20,21 width_11 busLabel_11">/11/</text><rect x="493" y="218.5" width="22" height="9" class="net_22,23,24,25,26,27,28,29,30,31,32 width_11 busLabel_11" style="fill: white; stroke: none"/><text x="492" y="226.5" class="net_22,23,24,25,26,27,28,29,30,31,32 width_11 busLabel_11">/11/</text><rect x="493" y="218.5" width="22" height="9" class="net_22,23,24,25,26,27,28,29,30,31,32 width_11 busLabel_11" style="fill: white; stroke: none"/><text x="492" y="226.5" class="net_22,23,24,25,26,27,28,29,30,31,32 width_11 busLabel_11">/11/</text><rect x="493" y="218.5" width="22" height="9" class="net_22,23,24,25,26,27,28,29,30,31,32 width_11 busLabel_11" style="fill: white; stroke: none"/><text x="492" y="226.5" class="net_22,23,24,25,26,27,28,29,30,31,32 width_11 busLabel_11">/11/</text><rect x="493" y="218.5" width="22" height="9" class="net_22,23,24,25,26,27,28,29,30,31,32 width_11 busLabel_11" style="fill: white; stroke: none"/><text x="492" y="226.5" class="net_22,23,24,25,26,27,28,29,30,31,32 width_11 busLabel_11">/11/</text><rect x="493" y="218.5" width="22" height="9" class="net_22,23,24,25,26,27,28,29,30,31,32 width_11 busLabel_11" style="fill: white; stroke: none"/><text x="492" y="226.5" class="net_22,23,24,25,26,27,28,29,30,31,32 width_11 busLabel_11">/11/</text><rect x="493" y="218.5" width="22" height="9" class="net_22,23,24,25,26,27,28,29,30,31,32 width_11 busLabel_11" style="fill: white; stroke: none"/><text x="492" y="226.5" class="net_22,23,24,25,26,27,28,29,30,31,32 width_11 busLabel_11">/11/</text><rect x="493" y="218.5" width="22" height="9" class="net_22,23,24,25,26,27,28,29,30,31,32 width_11 busLabel_11" style="fill: white; stroke: none"/><text x="492" y="226.5" class="net_22,23,24,25,26,27,28,29,30,31,32 width_11 busLabel_11">/11/</text><rect x="750" y="266.5" width="22" height="9" class="net_99,100,101,102,103,104,105,106,107,108 width_10 busLabel_10" style="fill: white; stroke: none"/><text x="749" y="274.5" class="net_99,100,101,102,103,104,105,106,107,108 width_10 busLabel_10">/10/</text><rect x="493" y="459.5" width="22" height="9" class="net_109,110,111,112,113,114,115,116,117,118 width_10 busLabel_10" style="fill: white; stroke: none"/><text x="492" y="467.5" class="net_109,110,111,112,113,114,115,116,117,118 width_10 busLabel_10">/10/</text><rect x="256.5" y="636.5" width="16" height="9" class="net_119,120,121,122,123,124,125,126 width_8 busLabel_8" style="fill: white; stroke: none"/><text x="255.5" y="644.5" class="net_119,120,121,122,123,124,125,126 width_8 busLabel_8">/8/</text><rect x="360" y="762.5" width="16" height="9" class="net_127,128,129,130,131,132 width_6 busLabel_6" style="fill: white; stroke: none"/><text x="359" y="770.5" class="net_127,128,129,130,131,132 width_6 busLabel_6">/6/</text><rect x="750" y="539.5" width="16" height="9" class="net_133,134,135,136,137,138,139 width_7 busLabel_7" style="fill: white; stroke: none"/><text x="749" y="547.5" class="net_133,134,135,136,137,138,139 width_7 busLabel_7">/7/</text><rect x="256.5" y="701.5" width="22" height="9" class="net_141,142,143,144,145,146,147,148,149,150 width_10 busLabel_10" style="fill: white; stroke: none"/><text x="255.5" y="709.5" class="net_141,142,143,144,145,146,147,148,149,150 width_10 busLabel_10">/10/</text><rect x="425" y="843.5" width="22" height="9" class="net_151,152,153,154,155,156,157,158,159,160 width_10 busLabel_10" style="fill: white; stroke: none"/><text x="424" y="851.5" class="net_151,152,153,154,155,156,157,158,159,160 width_10 busLabel_10">/10/</text><rect x="493" y="47" width="22" height="9" class="net_64,65,66,67,68,69,70,71,72,73,74 width_11 busLabel_11" style="fill: white; stroke: none"/><text x="492" y="55" class="net_64,65,66,67,68,69,70,71,72,73,74 width_11 busLabel_11">/11/</text><rect x="493" y="560.5" width="22" height="9" class="net_75,76,77,78,79,80,81,82,83,84,85 width_11 busLabel_11" style="fill: white; stroke: none"/><text x="492" y="568.5" class="net_75,76,77,78,79,80,81,82,83,84,85 width_11 busLabel_11">/11/</text><rect x="561" y="375" width="22" height="9" class="net_44,45,46,47,48,49,50,51,52,53,54 width_11 busLabel_11" style="fill: white; stroke: none"/><text x="560" y="383" class="net_44,45,46,47,48,49,50,51,52,53,54 width_11 busLabel_11">/11/</text><rect x="750" y="201.5" width="22" height="9" class="net_161,162,163,164,165,166,167,168,169,170,171 width_11 busLabel_11" style="fill: white; stroke: none"/><text x="749" y="209.5" class="net_161,162,163,164,165,166,167,168,169,170,171 width_11 busLabel_11">/11/</text><rect x="750" y="201.5" width="22" height="9" class="net_161,162,163,164,165,166,167,168,169,170,171 width_11 busLabel_11" style="fill: white; stroke: none"/><text x="749" y="209.5" class="net_161,162,163,164,165,166,167,168,169,170,171 width_11 busLabel_11">/11/</text><rect x="936.5" y="412" width="22" height="9" class="net_86,87,88,89,90,91,92,93,94,95,96 width_11 busLabel_11" style="fill: white; stroke: none"/><text x="935.5" y="420" class="net_86,87,88,89,90,91,92,93,94,95,96 width_11 busLabel_11">/11/</text><rect x="936.5" y="150" width="22" height="9" class="net_33,34,35,36,37,38,39,40,41,42,43 width_11 busLabel_11" style="fill: white; stroke: none"/><text x="935.5" y="158" class="net_33,34,35,36,37,38,39,40,41,42,43 width_11 busLabel_11">/11/</text><rect x="561" y="625" width="16" height="9" class="net_183,184,185 width_3 busLabel_3" style="fill: white; stroke: none"/><text x="560" y="633" class="net_183,184,185 width_3 busLabel_3">/3/</text><rect x="561" y="690" width="16" height="9" class="net_3,4,5 width_3 busLabel_3" style="fill: white; stroke: none"/><text x="560" y="698" class="net_3,4,5 width_3 busLabel_3">/3/</text><rect x="936.5" y="788.5" width="16" height="9" class="net_6,7,8 width_3 busLabel_3" style="fill: white; stroke: none"/><text x="935.5" y="796.5" class="net_6,7,8 width_3 busLabel_3">/3/</text></svg>