<svg xmlns="http://www.w3.org/2000/svg" xmlns:xlink="http://www.w3.org/1999/xlink" xmlns:s="https://github.com/nturley/netlistsvg" width="736" height="1218"><style>svg {
  stroke:#000;
  fill:none;
}
text {
  fill:#000;
  stroke:none;
  font-size:10px;
  font-weight: bold;
  font-family: "Courier New", monospace;
}
.nodelabel {
  text-anchor: middle;
}
.inputPortLabel {
  text-anchor: end;
}
.splitjoinBody {
  fill:#000;
}</style><g s:type="eq" transform="translate(608,623)" s:width="25" s:height="25" id="cell_:12"><s:alias val="$eq"/><circle r="12.5" cx="12.5" cy="12.5" class="cell_:12"/><line x1="7.5" x2="17.5" y1="10" y2="10" class="cell_:12"/><line x1="7.5" x2="17.5" y1="15" y2="15" class="cell_:12"/><g s:x="3" s:y="5" s:pid="A"/><g s:x="3" s:y="20" s:pid="B"/><g s:x="25" s:y="12.5" s:pid="Y"/></g><g s:type="ge" transform="translate(262.66666666666663,1176)" s:width="25" s:height="25" id="cell_:15"><s:alias val="$ge"/><circle r="12.5" cx="12.5" cy="12.5" class="cell_:15"/><line x1="7.5" x2="17.5" y1="7.5" y2="12.5" class="cell_:15"/><line x1="7.5" x2="17.5" y1="17.5" y2="12.5" class="cell_:15"/><line x1="7.5" x2="17.5" y1="20" y2="15" class="cell_:15"/><g s:x="3" s:y="5" s:pid="A"/><g s:x="3" s:y="20" s:pid="B"/><g s:x="25" s:y="12.5" s:pid="Y"/></g><g s:type="lt" transform="translate(262.66666666666663,1111)" s:width="25" s:height="25" id="cell_:18"><s:alias val="$lt"/><circle r="12.5" cx="12.5" cy="12.5" class="cell_:18"/><line x1="7.5" x2="17.5" y1="12.5" y2="7.5" class="cell_:18"/><line x1="7.5" x2="17.5" y1="12.5" y2="17.5" class="cell_:18"/><g s:x="3" s:y="5" s:pid="A"/><g s:x="3" s:y="20" s:pid="B"/><g s:x="25" s:y="12.5" s:pid="Y"/></g><g s:type="and" transform="translate(326,1168.5)" s:width="30" s:height="25" id="cell_:19"><s:alias val="$and"/><s:alias val="$reduce_and"/><s:alias val="$logic_and"/><s:alias val="$_AND_"/><path d="M0,0 L0,25 L15,25 A15 12.5 0 0 0 15,0 Z" class="cell_:19"/><text x="13" y="15" class="nodelabel" style="font-size:7px">AND</text><g s:x="0" s:y="5" s:pid="A"/><g s:x="0" s:y="20" s:pid="B"/><g s:x="30" s:y="12.5" s:pid="Y"/></g><g s:type="ge" transform="translate(327.6666666666667,1042)" s:width="25" s:height="25" id="cell_:22"><s:alias val="$ge"/><circle r="12.5" cx="12.5" cy="12.5" class="cell_:22"/><line x1="7.5" x2="17.5" y1="7.5" y2="12.5" class="cell_:22"/><line x1="7.5" x2="17.5" y1="17.5" y2="12.5" class="cell_:22"/><line x1="7.5" x2="17.5" y1="20" y2="15" class="cell_:22"/><g s:x="3" s:y="5" s:pid="A"/><g s:x="3" s:y="20" s:pid="B"/><g s:x="25" s:y="12.5" s:pid="Y"/></g><g s:type="and" transform="translate(393,1161)" s:width="30" s:height="25" id="cell_:23"><s:alias val="$and"/><s:alias val="$reduce_and"/><s:alias val="$logic_and"/><s:alias val="$_AND_"/><path d="M0,0 L0,25 L15,25 A15 12.5 0 0 0 15,0 Z" class="cell_:23"/><text x="13" y="15" class="nodelabel" style="font-size:7px">AND</text><g s:x="0" s:y="5" s:pid="A"/><g s:x="0" s:y="20" s:pid="B"/><g s:x="30" s:y="12.5" s:pid="Y"/></g><g s:type="lt" transform="translate(394.6666666666667,973)" s:width="25" s:height="25" id="cell_:26"><s:alias val="$lt"/><circle r="12.5" cx="12.5" cy="12.5" class="cell_:26"/><line x1="7.5" x2="17.5" y1="12.5" y2="7.5" class="cell_:26"/><line x1="7.5" x2="17.5" y1="12.5" y2="17.5" class="cell_:26"/><g s:x="3" s:y="5" s:pid="A"/><g s:x="3" s:y="20" s:pid="B"/><g s:x="25" s:y="12.5" s:pid="Y"/></g><g s:type="and" transform="translate(462,1153.5)" s:width="30" s:height="25" id="cell_:27"><s:alias val="$and"/><s:alias val="$reduce_and"/><s:alias val="$logic_and"/><s:alias val="$_AND_"/><path d="M0,0 L0,25 L15,25 A15 12.5 0 0 0 15,0 Z" class="cell_:27"/><text x="13" y="15" class="nodelabel" style="font-size:7px">AND</text><g s:x="0" s:y="5" s:pid="A"/><g s:x="0" s:y="20" s:pid="B"/><g s:x="30" s:y="12.5" s:pid="Y"/></g><g s:type="gt" transform="translate(540.3333333333334,283.5)" s:width="25" s:height="25" id="cell_:31"><s:alias val="$gt"/><circle r="12.5" cx="12.5" cy="12.5" class="cell_:31"/><line x1="7.5" x2="17.5" y1="7.5" y2="12.5" class="cell_:31"/><line x1="7.5" x2="17.5" y1="17.5" y2="12.5" class="cell_:31"/><g s:x="3" s:y="5" s:pid="A"/><g s:x="3" s:y="20" s:pid="B"/><g s:x="25" s:y="12.5" s:pid="Y"/></g><g s:type="mux" transform="translate(609.6666666666666,79.5)" s:width="20" s:height="40" id="cell_:32"><s:alias val="$pmux"/><s:alias val="$mux"/><s:alias val="$_MUX_"/><path d="M0,0 L20,10 L20,30 L0,40 Z" class="cell_:32"/><g s:x="0" s:y="10" s:pid="A"/><g s:x="0" s:y="30" s:pid="B"/><g s:x="10" s:y="35" s:pid="S"/><g s:x="20" s:y="20" s:pid="Y"/></g><g s:type="gt" transform="translate(540.3333333333334,494)" s:width="25" s:height="25" id="cell_:37"><s:alias val="$gt"/><circle r="12.5" cx="12.5" cy="12.5" class="cell_:37"/><line x1="7.5" x2="17.5" y1="7.5" y2="12.5" class="cell_:37"/><line x1="7.5" x2="17.5" y1="17.5" y2="12.5" class="cell_:37"/><g s:x="3" s:y="5" s:pid="A"/><g s:x="3" s:y="20" s:pid="B"/><g s:x="25" s:y="12.5" s:pid="Y"/></g><g s:type="mux" transform="translate(609.6666666666666,306)" s:width="20" s:height="40" id="cell_:38"><s:alias val="$pmux"/><s:alias val="$mux"/><s:alias val="$_MUX_"/><path d="M0,0 L20,10 L20,30 L0,40 Z" class="cell_:38"/><g s:x="0" s:y="10" s:pid="A"/><g s:x="0" s:y="30" s:pid="B"/><g s:x="10" s:y="35" s:pid="S"/><g s:x="20" s:y="20" s:pid="Y"/></g><g s:type="generic" transform="translate(535,1115.5)" s:width="30" s:height="40" id="cell_:40"><text x="15" y="-4" class="nodelabel cell_:40" s:attribute="ref">$mux-bus</text><rect width="30" height="60" s:generic="body" class="cell_:40"/><g transform="translate(0,10)" s:x="0" s:y="10" s:pid="in0" id="port_:40~A"><text x="-3" y="-4" class="inputPortLabel cell_:40">A</text></g><g transform="translate(0,30)" s:x="0" s:y="10" s:pid="in0" id="port_:40~B"><text x="-3" y="-4" class="inputPortLabel cell_:40">B</text></g><g transform="translate(0,50)" s:x="0" s:y="10" s:pid="in0" id="port_:40~S"><text x="-3" y="-4" class="inputPortLabel cell_:40">S</text></g><g transform="translate(30,10)" s:x="30" s:y="10" s:pid="out0" id="port_:40~Y"><text x="5" y="-4" style="fill:#000; stroke:none" class="cell_:40">Y</text></g></g><g s:type="add" transform="translate(540.3333333333334,389)" s:width="25" s:height="25" id="cell_:49"><s:alias val="$add"/><circle r="12.5" cx="12.5" cy="12.5" class="cell_:49"/><line x1="7.5" x2="17.5" y1="12.5" y2="12.5" class="cell_:49"/><line x1="12.5" x2="12.5" y1="7.5" y2="17.5" class="cell_:49"/><g s:x="3" s:y="5" s:pid="A"/><g s:x="3" s:y="20" s:pid="B"/><g s:x="25" s:y="12.5" s:pid="Y"/></g><g s:type="generic" transform="translate(676,422.5)" s:width="30" s:height="40" id="cell_:52"><text x="15" y="-4" class="nodelabel cell_:52" s:attribute="ref">$mux-bus</text><rect width="30" height="60" s:generic="body" class="cell_:52"/><g transform="translate(0,10)" s:x="0" s:y="10" s:pid="in0" id="port_:52~A"><text x="-3" y="-4" class="inputPortLabel cell_:52">A</text></g><g transform="translate(0,30)" s:x="0" s:y="10" s:pid="in0" id="port_:52~B"><text x="-3" y="-4" class="inputPortLabel cell_:52">B</text></g><g transform="translate(0,50)" s:x="0" s:y="10" s:pid="in0" id="port_:52~S"><text x="-3" y="-4" class="inputPortLabel cell_:52">S</text></g><g transform="translate(30,10)" s:x="30" s:y="10" s:pid="out0" id="port_:52~Y"><text x="5" y="-4" style="fill:#000; stroke:none" class="cell_:52">Y</text></g></g><g s:type="add" transform="translate(394.6666666666667,705)" s:width="25" s:height="25" id="cell_:61"><s:alias val="$add"/><circle r="12.5" cx="12.5" cy="12.5" class="cell_:61"/><line x1="7.5" x2="17.5" y1="12.5" y2="12.5" class="cell_:61"/><line x1="12.5" x2="12.5" y1="7.5" y2="17.5" class="cell_:61"/><g s:x="3" s:y="5" s:pid="A"/><g s:x="3" s:y="20" s:pid="B"/><g s:x="25" s:y="12.5" s:pid="Y"/></g><g s:type="generic" transform="translate(535,744)" s:width="30" s:height="40" id="cell_:64"><text x="15" y="-4" class="nodelabel cell_:64" s:attribute="ref">$mux-bus</text><rect width="30" height="60" s:generic="body" class="cell_:64"/><g transform="translate(0,10)" s:x="0" s:y="10" s:pid="in0" id="port_:64~A"><text x="-3" y="-4" class="inputPortLabel cell_:64">A</text></g><g transform="translate(0,30)" s:x="0" s:y="10" s:pid="in0" id="port_:64~B"><text x="-3" y="-4" class="inputPortLabel cell_:64">B</text></g><g transform="translate(0,50)" s:x="0" s:y="10" s:pid="in0" id="port_:64~S"><text x="-3" y="-4" class="inputPortLabel cell_:64">S</text></g><g transform="translate(30,10)" s:x="30" s:y="10" s:pid="out0" id="port_:64~Y"><text x="5" y="-4" style="fill:#000; stroke:none" class="cell_:64">Y</text></g></g><g s:type="generic" transform="translate(96,601.5)" s:width="30" s:height="40" id="cell_:67"><text x="15" y="-4" class="nodelabel cell_:67" s:attribute="ref">$dff-bus</text><rect width="30" height="40" s:generic="body" class="cell_:67"/><g transform="translate(0,10)" s:x="0" s:y="10" s:pid="in0" id="port_:67~CLK"><text x="-3" y="-4" class="inputPortLabel cell_:67">CLK</text></g><g transform="translate(0,30)" s:x="0" s:y="10" s:pid="in0" id="port_:67~D"><text x="-3" y="-4" class="inputPortLabel cell_:67">D</text></g><g transform="translate(30,10)" s:x="30" s:y="10" s:pid="out0" id="port_:67~Q"><text x="5" y="-4" style="fill:#000; stroke:none" class="cell_:67">Q</text></g></g><g s:type="generic" transform="translate(676,724)" s:width="30" s:height="40" id="cell_:68"><text x="15" y="-4" class="nodelabel cell_:68" s:attribute="ref">$mux-bus</text><rect width="30" height="60" s:generic="body" class="cell_:68"/><g transform="translate(0,10)" s:x="0" s:y="10" s:pid="in0" id="port_:68~A"><text x="-3" y="-4" class="inputPortLabel cell_:68">A</text></g><g transform="translate(0,30)" s:x="0" s:y="10" s:pid="in0" id="port_:68~B"><text x="-3" y="-4" class="inputPortLabel cell_:68">B</text></g><g transform="translate(0,50)" s:x="0" s:y="10" s:pid="in0" id="port_:68~S"><text x="-3" y="-4" class="inputPortLabel cell_:68">S</text></g><g transform="translate(30,10)" s:x="30" s:y="10" s:pid="out0" id="port_:68~Y"><text x="5" y="-4" style="fill:#000; stroke:none" class="cell_:68">Y</text></g></g><g s:type="generic" transform="translate(188,699.5)" s:width="30" s:height="40" id="cell_:69"><text x="15" y="-4" class="nodelabel cell_:69" s:attribute="ref">$dff-bus</text><rect width="30" height="40" s:generic="body" class="cell_:69"/><g transform="translate(0,10)" s:x="0" s:y="10" s:pid="in0" id="port_:69~CLK"><text x="-3" y="-4" class="inputPortLabel cell_:69">CLK</text></g><g transform="translate(0,30)" s:x="0" s:y="10" s:pid="in0" id="port_:69~D"><text x="-3" y="-4" class="inputPortLabel cell_:69">D</text></g><g transform="translate(30,10)" s:x="30" s:y="10" s:pid="out0" id="port_:69~Q"><text x="5" y="-4" style="fill:#000; stroke:none" class="cell_:69">Q</text></g></g><g s:type="eq" transform="translate(463.6666666666667,782)" s:width="25" s:height="25" id="cell_:9"><s:alias val="$eq"/><circle r="12.5" cx="12.5" cy="12.5" class="cell_:9"/><line x1="7.5" x2="17.5" y1="10" y2="10" class="cell_:9"/><line x1="7.5" x2="17.5" y1="15" y2="15" class="cell_:9"/><g s:x="3" s:y="5" s:pid="A"/><g s:x="3" s:y="20" s:pid="B"/><g s:x="25" s:y="12.5" s:pid="Y"/></g><g s:type="inputExt" transform="translate(12,700)" s:width="30" s:height="20" id="cell_clk"><text x="15" y="-4" class="nodelabel cell_clk" s:attribute="ref">clk</text><s:alias val="$_inputExt_"/><path d="M0,0 L0,20 L15,20 L30,10 L15,0 Z" class="cell_clk"/><g s:x="28" s:y="10" s:pid="Y"/></g><g s:type="inputExt" transform="translate(391,918)" s:width="30" s:height="20" id="cell_rgb_in"><text x="15" y="-4" class="nodelabel cell_rgb_in" s:attribute="ref">rgb_in</text><s:alias val="$_inputExt_"/><path d="M0,0 L0,20 L15,20 L30,10 L15,0 Z" class="cell_rgb_in"/><g s:x="28" s:y="10" s:pid="Y"/></g><g s:type="outputExt" transform="translate(672,1116)" s:width="30" s:height="20" id="cell_rgb_out"><text x="15" y="-4" class="nodelabel cell_rgb_out" s:attribute="ref">rgb_out</text><s:alias val="$_outputExt_"/><path d="M30,0 L30,20 L15,20 L0,10 L15,0 Z" class="cell_rgb_out"/><g s:x="0" s:y="10" s:pid="A"/></g><g s:type="outputExt" transform="translate(676,89.5)" s:width="30" s:height="20" id="cell_hsync"><text x="15" y="-4" class="nodelabel cell_hsync" s:attribute="ref">hsync</text><s:alias val="$_outputExt_"/><path d="M30,0 L30,20 L15,20 L0,10 L15,0 Z" class="cell_hsync"/><g s:x="0" s:y="10" s:pid="A"/></g><g s:type="outputExt" transform="translate(676,316)" s:width="30" s:height="20" id="cell_vsync"><text x="15" y="-4" class="nodelabel cell_vsync" s:attribute="ref">vsync</text><s:alias val="$_outputExt_"/><path d="M30,0 L30,20 L15,20 L0,10 L15,0 Z" class="cell_vsync"/><g s:x="0" s:y="10" s:pid="A"/></g><g s:type="outputExt" transform="translate(676,24.5)" s:width="30" s:height="20" id="cell_hpos"><text x="15" y="-4" class="nodelabel cell_hpos" s:attribute="ref">hpos</text><s:alias val="$_outputExt_"/><path d="M30,0 L30,20 L15,20 L0,10 L15,0 Z" class="cell_hpos"/><g s:x="0" s:y="10" s:pid="A"/></g><g s:type="outputExt" transform="translate(676,219)" s:width="30" s:height="20" id="cell_vpos"><text x="15" y="-4" class="nodelabel cell_vpos" s:attribute="ref">vpos</text><s:alias val="$_outputExt_"/><path d="M30,0 L30,20 L15,20 L0,10 L15,0 Z" class="cell_vpos"/><g s:x="0" s:y="10" s:pid="A"/></g><g s:type="constant" transform="translate(462,633)" s:width="30" s:height="20" id="cell_1100011111"><text x="15" y="-4" class="nodelabel cell_1100011111" s:attribute="ref">0x31f</text><s:alias val="$_constant_"/><rect width="30" height="20" class="cell_1100011111"/><g s:x="30" s:y="10" s:pid="Y"/></g><g s:type="constant" transform="translate(96,1186)" s:width="30" s:height="20" id="cell_10001111"><text x="15" y="-4" class="nodelabel cell_10001111" s:attribute="ref">0x8f</text><s:alias val="$_constant_"/><rect width="30" height="20" class="cell_10001111"/><g s:x="30" s:y="10" s:pid="Y"/></g><g s:type="constant" transform="translate(96,1121)" s:width="30" s:height="20" id="cell_1100001111"><text x="15" y="-4" class="nodelabel cell_1100001111" s:attribute="ref">0x30f</text><s:alias val="$_constant_"/><rect width="30" height="20" class="cell_1100001111"/><g s:x="30" s:y="10" s:pid="Y"/></g><g s:type="constant" transform="translate(188,1052)" s:width="30" s:height="20" id="cell_100010"><text x="15" y="-4" class="nodelabel cell_100010" s:attribute="ref">0x22</text><s:alias val="$_constant_"/><rect width="30" height="20" class="cell_100010"/><g s:x="30" s:y="10" s:pid="Y"/></g><g s:type="constant" transform="translate(261,983)" s:width="30" s:height="20" id="cell_1000000010"><text x="15" y="-4" class="nodelabel cell_1000000010" s:attribute="ref">0x202</text><s:alias val="$_constant_"/><rect width="30" height="20" class="cell_1000000010"/><g s:x="30" s:y="10" s:pid="Y"/></g><g s:type="constant" transform="translate(391,293.5)" s:width="30" s:height="20" id="cell_1011111"><text x="15" y="-4" class="nodelabel cell_1011111" s:attribute="ref">0x5f</text><s:alias val="$_constant_"/><rect width="30" height="20" class="cell_1011111"/><g s:x="30" s:y="10" s:pid="Y"/></g><g s:type="constant" transform="translate(535,151.5)" s:width="30" s:height="20" id="cell_0"><text x="15" y="-4" class="nodelabel cell_0" s:attribute="ref">0</text><s:alias val="$_constant_"/><rect width="30" height="20" class="cell_0"/><g s:x="30" s:y="10" s:pid="Y"/></g><g s:type="constant" transform="translate(326,399)" s:width="30" s:height="20" id="cell_1"><text x="15" y="-4" class="nodelabel cell_1" s:attribute="ref">1</text><s:alias val="$_constant_"/><rect width="30" height="20" class="cell_1"/><g s:x="30" s:y="10" s:pid="Y"/></g><g s:type="constant" transform="translate(391,853)" s:width="30" s:height="20" id="cell_000"><text x="15" y="-4" class="nodelabel cell_000" s:attribute="ref">000</text><s:alias val="$_constant_"/><rect width="30" height="20" class="cell_000"/><g s:x="30" s:y="10" s:pid="Y"/></g><g s:type="constant" transform="translate(391,581)" s:width="30" s:height="20" id="cell_0000000000"><text x="15" y="-4" class="nodelabel cell_0000000000" s:attribute="ref">0x0</text><s:alias val="$_constant_"/><rect width="30" height="20" class="cell_0000000000"/><g s:x="30" s:y="10" s:pid="Y"/></g><g s:type="constant" transform="translate(326,792)" s:width="30" s:height="20" id="cell_1000001100"><text x="15" y="-4" class="nodelabel cell_1000001100" s:attribute="ref">0x20c</text><s:alias val="$_constant_"/><rect width="30" height="20" class="cell_1000001100"/><g s:x="30" s:y="10" s:pid="Y"/></g><g s:type="constant" transform="translate(391,188)" s:width="30" s:height="20" id="cell_0000000000000000000000"><text x="15" y="-4" class="nodelabel cell_0000000000000000000000" s:attribute="ref">0x0</text><s:alias val="$_constant_"/><rect width="30" height="20" class="cell_0000000000000000000000"/><g s:x="30" s:y="10" s:pid="Y"/></g><g s:type="join" transform="translate(547.3333333333334,14)" s:width="4" s:height="40" id="cell_$join$,11,12,13,14,15,16,17,18,19,20,183,184,185,186,187,188,189,190,191,192,193,194,195,196,197,198,199,200,201,202,203,204,"><rect width="5" height="40" class="splitjoinBody" s:generic="body"/><s:alias val="$_join_"/><g s:x="5" s:y="20" s:pid="out"/><g transform="translate(0,10)" s:x="0" s:y="10" s:pid="in0"><text x="-3" y="-4" class="inputPortLabel">0:9</text></g><g transform="translate(0,30)" s:x="0" s:y="10" s:pid="in0"><text x="-3" y="-4" class="inputPortLabel">10:31</text></g></g><g s:type="join" transform="translate(547.3333333333334,208.5)" s:width="4" s:height="40" id="cell_$join$,21,22,23,24,25,26,27,28,29,30,183,184,185,186,187,188,189,190,191,192,193,194,195,196,197,198,199,200,201,202,203,204,"><rect width="5" height="40" class="splitjoinBody" s:generic="body"/><s:alias val="$_join_"/><g s:x="5" s:y="20" s:pid="out"/><g transform="translate(0,10)" s:x="0" s:y="10" s:pid="in0"><text x="-3" y="-4" class="inputPortLabel">0:9</text></g><g transform="translate(0,30)" s:x="0" s:y="10" s:pid="in0"><text x="-3" y="-4" class="inputPortLabel">10:31</text></g></g><line x1="127" x2="583" y1="612" y2="612" class="net_11,12,13,14,15,16,17,18,19,20 width_10" style="stroke-width: 2"/><line x1="583" x2="583" y1="612" y2="628" class="net_11,12,13,14,15,16,17,18,19,20 width_10" style="stroke-width: 2"/><line x1="583" x2="611" y1="628" y2="628" class="net_11,12,13,14,15,16,17,18,19,20 width_10" style="stroke-width: 2"/><line x1="127" x2="144" y1="612" y2="612" class="net_11,12,13,14,15,16,17,18,19,20 width_10" style="stroke-width: 2"/><line x1="144" x2="144" y1="612" y2="1176" class="net_11,12,13,14,15,16,17,18,19,20 width_10" style="stroke-width: 2"/><line x1="144" x2="236" y1="1176" y2="1176" class="net_11,12,13,14,15,16,17,18,19,20 width_10" style="stroke-width: 2"/><line x1="236" x2="236" y1="1176" y2="1181" class="net_11,12,13,14,15,16,17,18,19,20 width_10" style="stroke-width: 2"/><circle cx="144" cy="612" r="3" style="fill:#000" class="net_11,12,13,14,15,16,17,18,19,20 width_10"/><line x1="236" x2="265.66666666666663" y1="1181" y2="1181" class="net_11,12,13,14,15,16,17,18,19,20 width_10" style="stroke-width: 2"/><line x1="127" x2="144" y1="612" y2="612" class="net_11,12,13,14,15,16,17,18,19,20 width_10" style="stroke-width: 2"/><line x1="144" x2="144" y1="612" y2="1111" class="net_11,12,13,14,15,16,17,18,19,20 width_10" style="stroke-width: 2"/><line x1="144" x2="236" y1="1111" y2="1111" class="net_11,12,13,14,15,16,17,18,19,20 width_10" style="stroke-width: 2"/><line x1="236" x2="236" y1="1111" y2="1116" class="net_11,12,13,14,15,16,17,18,19,20 width_10" style="stroke-width: 2"/><circle cx="144" cy="1111" r="3" style="fill:#000" class="net_11,12,13,14,15,16,17,18,19,20 width_10"/><line x1="236" x2="265.66666666666663" y1="1116" y2="1116" class="net_11,12,13,14,15,16,17,18,19,20 width_10" style="stroke-width: 2"/><line x1="127" x2="144" y1="612" y2="612" class="net_11,12,13,14,15,16,17,18,19,20 width_10" style="stroke-width: 2"/><line x1="144" x2="144" y1="612" y2="348" class="net_11,12,13,14,15,16,17,18,19,20 width_10" style="stroke-width: 2"/><line x1="144" x2="301" y1="348" y2="348" class="net_11,12,13,14,15,16,17,18,19,20 width_10" style="stroke-width: 2"/><line x1="301" x2="301" y1="348" y2="272.5" class="net_11,12,13,14,15,16,17,18,19,20 width_10" style="stroke-width: 2"/><line x1="301" x2="502" y1="272.5" y2="272.5" class="net_11,12,13,14,15,16,17,18,19,20 width_10" style="stroke-width: 2"/><line x1="502" x2="502" y1="272.5" y2="288.5" class="net_11,12,13,14,15,16,17,18,19,20 width_10" style="stroke-width: 2"/><circle cx="144" cy="348" r="3" style="fill:#000" class="net_11,12,13,14,15,16,17,18,19,20 width_10"/><circle cx="301" cy="348" r="3" style="fill:#000" class="net_11,12,13,14,15,16,17,18,19,20 width_10"/><line x1="502" x2="543.3333333333334" y1="288.5" y2="288.5" class="net_11,12,13,14,15,16,17,18,19,20 width_10" style="stroke-width: 2"/><line x1="127" x2="144" y1="612" y2="612" class="net_11,12,13,14,15,16,17,18,19,20 width_10" style="stroke-width: 2"/><line x1="144" x2="144" y1="612" y2="348" class="net_11,12,13,14,15,16,17,18,19,20 width_10" style="stroke-width: 2"/><line x1="144" x2="502" y1="348" y2="348" class="net_11,12,13,14,15,16,17,18,19,20 width_10" style="stroke-width: 2"/><line x1="502" x2="502" y1="348" y2="394" class="net_11,12,13,14,15,16,17,18,19,20 width_10" style="stroke-width: 2"/><line x1="502" x2="543.3333333333334" y1="394" y2="394" class="net_11,12,13,14,15,16,17,18,19,20 width_10" style="stroke-width: 2"/><line x1="127" x2="144" y1="612" y2="612" class="net_11,12,13,14,15,16,17,18,19,20 width_10" style="stroke-width: 2"/><line x1="144" x2="144" y1="612" y2="24.5" class="net_11,12,13,14,15,16,17,18,19,20 width_10" style="stroke-width: 2"/><line x1="144" x2="547.3333333333334" y1="24.5" y2="24.5" class="net_11,12,13,14,15,16,17,18,19,20 width_10" style="stroke-width: 2"/><line x1="492" x2="611" y1="643" y2="643" class="net_92,93,94,95,96,97,98,99,100,101 width_10" style="stroke-width: 2"/><line x1="126" x2="265.66666666666663" y1="1196" y2="1196" class="net_102,103,104,105,106,107,108,109 width_8" style="stroke-width: 2"/><line x1="126" x2="265.66666666666663" y1="1131" y2="1131" class="net_110,111,112,113,114,115,116,117,118,119 width_10" style="stroke-width: 2"/><line x1="287.66666666666663" x2="301" y1="1123.5" y2="1123.5" class="net_33 width_1" style="stroke-width: 1"/><line x1="301" x2="301" y1="1123.5" y2="1173.5" class="net_33 width_1" style="stroke-width: 1"/><line x1="301" x2="326" y1="1173.5" y2="1173.5" class="net_33 width_1" style="stroke-width: 1"/><line x1="287.66666666666663" x2="326" y1="1188.5" y2="1188.5" class="net_32 width_1" style="stroke-width: 1"/><line x1="219" x2="236" y1="710" y2="710" class="net_21,22,23,24,25,26,27,28,29,30 width_10" style="stroke-width: 2"/><line x1="236" x2="236" y1="710" y2="1042" class="net_21,22,23,24,25,26,27,28,29,30 width_10" style="stroke-width: 2"/><line x1="236" x2="301" y1="1042" y2="1042" class="net_21,22,23,24,25,26,27,28,29,30 width_10" style="stroke-width: 2"/><line x1="301" x2="301" y1="1042" y2="1047" class="net_21,22,23,24,25,26,27,28,29,30 width_10" style="stroke-width: 2"/><circle cx="236" cy="710" r="3" style="fill:#000" class="net_21,22,23,24,25,26,27,28,29,30 width_10"/><line x1="301" x2="330.6666666666667" y1="1047" y2="1047" class="net_21,22,23,24,25,26,27,28,29,30 width_10" style="stroke-width: 2"/><line x1="219" x2="236" y1="710" y2="710" class="net_21,22,23,24,25,26,27,28,29,30 width_10" style="stroke-width: 2"/><line x1="236" x2="236" y1="710" y2="932" class="net_21,22,23,24,25,26,27,28,29,30 width_10" style="stroke-width: 2"/><line x1="236" x2="366" y1="932" y2="932" class="net_21,22,23,24,25,26,27,28,29,30 width_10" style="stroke-width: 2"/><line x1="366" x2="366" y1="932" y2="978" class="net_21,22,23,24,25,26,27,28,29,30 width_10" style="stroke-width: 2"/><circle cx="236" cy="932" r="3" style="fill:#000" class="net_21,22,23,24,25,26,27,28,29,30 width_10"/><line x1="366" x2="397.6666666666667" y1="978" y2="978" class="net_21,22,23,24,25,26,27,28,29,30 width_10" style="stroke-width: 2"/><line x1="219" x2="236" y1="710" y2="710" class="net_21,22,23,24,25,26,27,28,29,30 width_10" style="stroke-width: 2"/><line x1="236" x2="236" y1="710" y2="499" class="net_21,22,23,24,25,26,27,28,29,30 width_10" style="stroke-width: 2"/><circle cx="236" cy="499" r="3" style="fill:#000" class="net_21,22,23,24,25,26,27,28,29,30 width_10"/><line x1="236" x2="543.3333333333334" y1="499" y2="499" class="net_21,22,23,24,25,26,27,28,29,30 width_10" style="stroke-width: 2"/><line x1="219" x2="397.6666666666667" y1="710" y2="710" class="net_21,22,23,24,25,26,27,28,29,30 width_10" style="stroke-width: 2"/><line x1="219" x2="236" y1="710" y2="710" class="net_21,22,23,24,25,26,27,28,29,30 width_10" style="stroke-width: 2"/><line x1="236" x2="236" y1="710" y2="664" class="net_21,22,23,24,25,26,27,28,29,30 width_10" style="stroke-width: 2"/><line x1="236" x2="643" y1="664" y2="664" class="net_21,22,23,24,25,26,27,28,29,30 width_10" style="stroke-width: 2"/><line x1="643" x2="643" y1="664" y2="734.5" class="net_21,22,23,24,25,26,27,28,29,30 width_10" style="stroke-width: 2"/><circle cx="236" cy="664" r="3" style="fill:#000" class="net_21,22,23,24,25,26,27,28,29,30 width_10"/><line x1="643" x2="676" y1="734.5" y2="734.5" class="net_21,22,23,24,25,26,27,28,29,30 width_10" style="stroke-width: 2"/><line x1="219" x2="236" y1="710" y2="710" class="net_21,22,23,24,25,26,27,28,29,30 width_10" style="stroke-width: 2"/><line x1="236" x2="236" y1="710" y2="741" class="net_21,22,23,24,25,26,27,28,29,30 width_10" style="stroke-width: 2"/><line x1="236" x2="437" y1="741" y2="741" class="net_21,22,23,24,25,26,27,28,29,30 width_10" style="stroke-width: 2"/><line x1="437" x2="437" y1="741" y2="787" class="net_21,22,23,24,25,26,27,28,29,30 width_10" style="stroke-width: 2"/><circle cx="236" cy="741" r="3" style="fill:#000" class="net_21,22,23,24,25,26,27,28,29,30 width_10"/><line x1="437" x2="466.6666666666667" y1="787" y2="787" class="net_21,22,23,24,25,26,27,28,29,30 width_10" style="stroke-width: 2"/><line x1="219" x2="236" y1="710" y2="710" class="net_21,22,23,24,25,26,27,28,29,30 width_10" style="stroke-width: 2"/><line x1="236" x2="236" y1="710" y2="219" class="net_21,22,23,24,25,26,27,28,29,30 width_10" style="stroke-width: 2"/><line x1="236" x2="547.3333333333334" y1="219" y2="219" class="net_21,22,23,24,25,26,27,28,29,30 width_10" style="stroke-width: 2"/><line x1="218" x2="330.6666666666667" y1="1062" y2="1062" class="net_120,121,122,123,124,125 width_6" style="stroke-width: 2"/><line x1="352.6666666666667" x2="366" y1="1054.5" y2="1054.5" class="net_35 width_1" style="stroke-width: 1"/><line x1="366" x2="366" y1="1054.5" y2="1166" class="net_35 width_1" style="stroke-width: 1"/><line x1="366" x2="393" y1="1166" y2="1166" class="net_35 width_1" style="stroke-width: 1"/><line x1="356" x2="393" y1="1181" y2="1181" class="net_34 width_1" style="stroke-width: 1"/><line x1="291" x2="397.6666666666667" y1="993" y2="993" class="net_126,127,128,129,130,131,132,133,134,135 width_10" style="stroke-width: 2"/><line x1="419.6666666666667" x2="437" y1="985.5" y2="985.5" class="net_37 width_1" style="stroke-width: 1"/><line x1="437" x2="437" y1="985.5" y2="1158.5" class="net_37 width_1" style="stroke-width: 1"/><line x1="437" x2="462" y1="1158.5" y2="1158.5" class="net_37 width_1" style="stroke-width: 1"/><line x1="423" x2="462" y1="1173.5" y2="1173.5" class="net_36 width_1" style="stroke-width: 1"/><line x1="421" x2="543.3333333333334" y1="303.5" y2="303.5" class="net_136,137,138,139,140,141,142 width_7" style="stroke-width: 2"/><line x1="565" x2="583" y1="161.5" y2="161.5" class="net_143 width_1" style="stroke-width: 1"/><line x1="583" x2="583" y1="161.5" y2="89.5" class="net_143 width_1" style="stroke-width: 1"/><circle cx="583" cy="161.5" r="2" style="fill:#000" class="net_143 width_1"/><line x1="583" x2="609.6666666666666" y1="89.5" y2="89.5" class="net_143 width_1" style="stroke-width: 1"/><line x1="565" x2="583" y1="161.5" y2="161.5" class="net_143 width_1" style="stroke-width: 1"/><line x1="583" x2="583" y1="161.5" y2="316" class="net_143 width_1" style="stroke-width: 1"/><line x1="583" x2="609.6666666666666" y1="316" y2="316" class="net_143 width_1" style="stroke-width: 1"/><line x1="356" x2="366" y1="409" y2="409" class="net_144 width_1" style="stroke-width: 1"/><line x1="366" x2="366" y1="409" y2="109.5" class="net_144 width_1" style="stroke-width: 1"/><circle cx="366" cy="409" r="2" style="fill:#000" class="net_144 width_1"/><line x1="366" x2="609.6666666666666" y1="109.5" y2="109.5" class="net_144 width_1" style="stroke-width: 1"/><line x1="356" x2="366" y1="409" y2="409" class="net_144 width_1" style="stroke-width: 1"/><line x1="366" x2="366" y1="409" y2="514" class="net_144 width_1" style="stroke-width: 1"/><circle cx="366" cy="514" r="2" style="fill:#000" class="net_144 width_1"/><line x1="366" x2="543.3333333333334" y1="514" y2="514" class="net_144 width_1" style="stroke-width: 1"/><line x1="356" x2="366" y1="409" y2="409" class="net_144 width_1" style="stroke-width: 1"/><line x1="366" x2="366" y1="409" y2="336" class="net_144 width_1" style="stroke-width: 1"/><circle cx="366" cy="336" r="2" style="fill:#000" class="net_144 width_1"/><line x1="366" x2="609.6666666666666" y1="336" y2="336" class="net_144 width_1" style="stroke-width: 1"/><line x1="356" x2="543.3333333333334" y1="409" y2="409" class="net_144 width_1" style="stroke-width: 1"/><line x1="356" x2="366" y1="409" y2="409" class="net_144 width_1" style="stroke-width: 1"/><line x1="366" x2="366" y1="409" y2="725" class="net_144 width_1" style="stroke-width: 1"/><line x1="366" x2="397.6666666666667" y1="725" y2="725" class="net_144 width_1" style="stroke-width: 1"/><line x1="565.3333333333334" x2="619.6666666666666" y1="296" y2="296" class="net_39 width_1" style="stroke-width: 1"/><line x1="619.6666666666666" x2="619.6666666666666" y1="296" y2="114.5" class="net_39 width_1" style="stroke-width: 1"/><line x1="565.3333333333334" x2="619.6666666666666" y1="506.5" y2="506.5" class="net_40 width_1" style="stroke-width: 1"/><line x1="619.6666666666666" x2="619.6666666666666" y1="506.5" y2="341" class="net_40 width_1" style="stroke-width: 1"/><line x1="421" x2="512" y1="863" y2="863" class="net_148,149,150 width_3" style="stroke-width: 2"/><line x1="512" x2="512" y1="863" y2="1126" class="net_148,149,150 width_3" style="stroke-width: 2"/><line x1="512" x2="535" y1="1126" y2="1126" class="net_148,149,150 width_3" style="stroke-width: 2"/><line x1="419" x2="502" y1="928" y2="928" class="net_3,4,5 width_3" style="stroke-width: 2"/><line x1="502" x2="502" y1="928" y2="1146" class="net_3,4,5 width_3" style="stroke-width: 2"/><line x1="502" x2="534" y1="1146" y2="1146" class="net_3,4,5 width_3" style="stroke-width: 2"/><line x1="492" x2="534" y1="1166" y2="1166" class="net_38 width_1" style="stroke-width: 1"/><line x1="565.3333333333334" x2="643" y1="401.5" y2="401.5" class="net_41,42,43,44,45,46,47,48,49,50 width_10" style="stroke-width: 2"/><line x1="643" x2="643" y1="401.5" y2="433" class="net_41,42,43,44,45,46,47,48,49,50 width_10" style="stroke-width: 2"/><line x1="643" x2="676" y1="433" y2="433" class="net_41,42,43,44,45,46,47,48,49,50 width_10" style="stroke-width: 2"/><line x1="421" x2="447" y1="591" y2="591" class="net_152,153,154,155,156,157,158,159,160,161 width_10" style="stroke-width: 2"/><line x1="447" x2="447" y1="591" y2="453" class="net_152,153,154,155,156,157,158,159,160,161 width_10" style="stroke-width: 2"/><circle cx="447" cy="591" r="3" style="fill:#000" class="net_152,153,154,155,156,157,158,159,160,161 width_10"/><line x1="447" x2="675" y1="453" y2="453" class="net_152,153,154,155,156,157,158,159,160,161 width_10" style="stroke-width: 2"/><line x1="421" x2="447" y1="591" y2="591" class="net_152,153,154,155,156,157,158,159,160,161 width_10" style="stroke-width: 2"/><line x1="447" x2="447" y1="591" y2="741" class="net_152,153,154,155,156,157,158,159,160,161 width_10" style="stroke-width: 2"/><line x1="447" x2="502" y1="741" y2="741" class="net_152,153,154,155,156,157,158,159,160,161 width_10" style="stroke-width: 2"/><line x1="502" x2="502" y1="741" y2="774.5" class="net_152,153,154,155,156,157,158,159,160,161 width_10" style="stroke-width: 2"/><line x1="502" x2="534" y1="774.5" y2="774.5" class="net_152,153,154,155,156,157,158,159,160,161 width_10" style="stroke-width: 2"/><line x1="633" x2="653" y1="635.5" y2="635.5" class="net_31 width_1" style="stroke-width: 1"/><line x1="653" x2="653" y1="635.5" y2="473" class="net_31 width_1" style="stroke-width: 1"/><circle cx="653" cy="635.5" r="2" style="fill:#000" class="net_31 width_1"/><line x1="653" x2="675" y1="473" y2="473" class="net_31 width_1" style="stroke-width: 1"/><line x1="633" x2="653" y1="635.5" y2="635.5" class="net_31 width_1" style="stroke-width: 1"/><line x1="653" x2="653" y1="635.5" y2="774.5" class="net_31 width_1" style="stroke-width: 1"/><line x1="653" x2="675" y1="774.5" y2="774.5" class="net_31 width_1" style="stroke-width: 1"/><line x1="419.6666666666667" x2="512" y1="717.5" y2="717.5" class="net_61,62,63,64,65,66,67,68,69,70 width_10" style="stroke-width: 2"/><line x1="512" x2="512" y1="717.5" y2="754.5" class="net_61,62,63,64,65,66,67,68,69,70 width_10" style="stroke-width: 2"/><line x1="512" x2="535" y1="754.5" y2="754.5" class="net_61,62,63,64,65,66,67,68,69,70 width_10" style="stroke-width: 2"/><line x1="488.6666666666667" x2="534" y1="794.5" y2="794.5" class="net_71 width_1" style="stroke-width: 1"/><line x1="40" x2="62" y1="710" y2="710" class="net_2 width_1" style="stroke-width: 1"/><line x1="62" x2="62" y1="710" y2="612" class="net_2 width_1" style="stroke-width: 1"/><circle cx="62" cy="710" r="2" style="fill:#000" class="net_2 width_1"/><line x1="62" x2="96" y1="612" y2="612" class="net_2 width_1" style="stroke-width: 1"/><line x1="40" x2="188" y1="710" y2="710" class="net_2 width_1" style="stroke-width: 1"/><line x1="707" x2="724" y1="433" y2="433" class="net_51,52,53,54,55,56,57,58,59,60 width_10" style="stroke-width: 2"/><line x1="724" x2="724" y1="433" y2="130.5" class="net_51,52,53,54,55,56,57,58,59,60 width_10" style="stroke-width: 2"/><line x1="724" x2="52" y1="130.5" y2="130.5" class="net_51,52,53,54,55,56,57,58,59,60 width_10" style="stroke-width: 2"/><line x1="52" x2="52" y1="130.5" y2="632" class="net_51,52,53,54,55,56,57,58,59,60 width_10" style="stroke-width: 2"/><line x1="52" x2="95" y1="632" y2="632" class="net_51,52,53,54,55,56,57,58,59,60 width_10" style="stroke-width: 2"/><line x1="566" x2="675" y1="754.5" y2="754.5" class="net_72,73,74,75,76,77,78,79,80,81 width_10" style="stroke-width: 2"/><line x1="707" x2="724" y1="734.5" y2="734.5" class="net_82,83,84,85,86,87,88,89,90,91 width_10" style="stroke-width: 2"/><line x1="724" x2="724" y1="734.5" y2="530" class="net_82,83,84,85,86,87,88,89,90,91 width_10" style="stroke-width: 2"/><line x1="724" x2="154" y1="530" y2="530" class="net_82,83,84,85,86,87,88,89,90,91 width_10" style="stroke-width: 2"/><line x1="154" x2="154" y1="530" y2="730" class="net_82,83,84,85,86,87,88,89,90,91 width_10" style="stroke-width: 2"/><line x1="154" x2="187" y1="730" y2="730" class="net_82,83,84,85,86,87,88,89,90,91 width_10" style="stroke-width: 2"/><line x1="356" x2="466.6666666666667" y1="802" y2="802" class="net_173,174,175,176,177,178,179,180,181,182 width_10" style="stroke-width: 2"/><line x1="566" x2="672" y1="1126" y2="1126" class="net_6,7,8 width_3" style="stroke-width: 2"/><line x1="629.6666666666666" x2="676" y1="99.5" y2="99.5" class="net_9 width_1" style="stroke-width: 1"/><line x1="629.6666666666666" x2="676" y1="326" y2="326" class="net_10 width_1" style="stroke-width: 1"/><line x1="553.3333333333334" x2="676" y1="34.5" y2="34.5" class="net_11,12,13,14,15,16,17,18,19,20,183,184,185,186,187,188,189,190,191,192,193,194,195,196,197,198,199,200,201,202,203,204 width_32" style="stroke-width: 2"/><line x1="553.3333333333334" x2="676" y1="229" y2="229" class="net_21,22,23,24,25,26,27,28,29,30,183,184,185,186,187,188,189,190,191,192,193,194,195,196,197,198,199,200,201,202,203,204 width_32" style="stroke-width: 2"/><line x1="421" x2="437" y1="198" y2="198" class="net_183,184,185,186,187,188,189,190,191,192,193,194,195,196,197,198,199,200,201,202,203,204 width_22" style="stroke-width: 2"/><line x1="437" x2="437" y1="198" y2="44.5" class="net_183,184,185,186,187,188,189,190,191,192,193,194,195,196,197,198,199,200,201,202,203,204 width_22" style="stroke-width: 2"/><circle cx="437" cy="198" r="3" style="fill:#000" class="net_183,184,185,186,187,188,189,190,191,192,193,194,195,196,197,198,199,200,201,202,203,204 width_22"/><line x1="437" x2="547.3333333333334" y1="44.5" y2="44.5" class="net_183,184,185,186,187,188,189,190,191,192,193,194,195,196,197,198,199,200,201,202,203,204 width_22" style="stroke-width: 2"/><line x1="421" x2="437" y1="198" y2="198" class="net_183,184,185,186,187,188,189,190,191,192,193,194,195,196,197,198,199,200,201,202,203,204 width_22" style="stroke-width: 2"/><line x1="437" x2="437" y1="198" y2="239" class="net_183,184,185,186,187,188,189,190,191,192,193,194,195,196,197,198,199,200,201,202,203,204 width_22" style="stroke-width: 2"/><line x1="437" x2="547.3333333333334" y1="239" y2="239" class="net_183,184,185,186,187,188,189,190,191,192,193,194,195,196,197,198,199,200,201,202,203,204 width_22" style="stroke-width: 2"/><rect x="340" y="19.5" width="22" height="9" class="net_11,12,13,14,15,16,17,18,19,20 width_10 busLabel_10" style="fill: white; stroke: none"/><text x="339" y="27.5" class="net_11,12,13,14,15,16,17,18,19,20 width_10 busLabel_10">/10/</text><rect x="340" y="19.5" width="22" height="9" class="net_11,12,13,14,15,16,17,18,19,20 width_10 busLabel_10" style="fill: white; stroke: none"/><text x="339" y="27.5" class="net_11,12,13,14,15,16,17,18,19,20 width_10 busLabel_10">/10/</text><rect x="340" y="19.5" width="22" height="9" class="net_11,12,13,14,15,16,17,18,19,20 width_10 busLabel_10" style="fill: white; stroke: none"/><text x="339" y="27.5" class="net_11,12,13,14,15,16,17,18,19,20 width_10 busLabel_10">/10/</text><rect x="340" y="19.5" width="22" height="9" class="net_11,12,13,14,15,16,17,18,19,20 width_10 busLabel_10" style="fill: white; stroke: none"/><text x="339" y="27.5" class="net_11,12,13,14,15,16,17,18,19,20 width_10 busLabel_10">/10/</text><rect x="340" y="19.5" width="22" height="9" class="net_11,12,13,14,15,16,17,18,19,20 width_10 busLabel_10" style="fill: white; stroke: none"/><text x="339" y="27.5" class="net_11,12,13,14,15,16,17,18,19,20 width_10 busLabel_10">/10/</text><rect x="340" y="19.5" width="22" height="9" class="net_11,12,13,14,15,16,17,18,19,20 width_10 busLabel_10" style="fill: white; stroke: none"/><text x="339" y="27.5" class="net_11,12,13,14,15,16,17,18,19,20 width_10 busLabel_10">/10/</text><rect x="549" y="638" width="22" height="9" class="net_92,93,94,95,96,97,98,99,100,101 width_10 busLabel_10" style="fill: white; stroke: none"/><text x="548" y="646" class="net_92,93,94,95,96,97,98,99,100,101 width_10 busLabel_10">/10/</text><rect x="196.5" y="1191" width="16" height="9" class="net_102,103,104,105,106,107,108,109 width_8 busLabel_8" style="fill: white; stroke: none"/><text x="195.5" y="1199" class="net_102,103,104,105,106,107,108,109 width_8 busLabel_8">/8/</text><rect x="196.5" y="1126" width="22" height="9" class="net_110,111,112,113,114,115,116,117,118,119 width_10 busLabel_10" style="fill: white; stroke: none"/><text x="195.5" y="1134" class="net_110,111,112,113,114,115,116,117,118,119 width_10 busLabel_10">/10/</text><rect x="340" y="214" width="22" height="9" class="net_21,22,23,24,25,26,27,28,29,30 width_10 busLabel_10" style="fill: white; stroke: none"/><text x="339" y="222" class="net_21,22,23,24,25,26,27,28,29,30 width_10 busLabel_10">/10/</text><rect x="340" y="214" width="22" height="9" class="net_21,22,23,24,25,26,27,28,29,30 width_10 busLabel_10" style="fill: white; stroke: none"/><text x="339" y="222" class="net_21,22,23,24,25,26,27,28,29,30 width_10 busLabel_10">/10/</text><rect x="340" y="214" width="22" height="9" class="net_21,22,23,24,25,26,27,28,29,30 width_10 busLabel_10" style="fill: white; stroke: none"/><text x="339" y="222" class="net_21,22,23,24,25,26,27,28,29,30 width_10 busLabel_10">/10/</text><rect x="340" y="214" width="22" height="9" class="net_21,22,23,24,25,26,27,28,29,30 width_10 busLabel_10" style="fill: white; stroke: none"/><text x="339" y="222" class="net_21,22,23,24,25,26,27,28,29,30 width_10 busLabel_10">/10/</text><rect x="340" y="214" width="22" height="9" class="net_21,22,23,24,25,26,27,28,29,30 width_10 busLabel_10" style="fill: white; stroke: none"/><text x="339" y="222" class="net_21,22,23,24,25,26,27,28,29,30 width_10 busLabel_10">/10/</text><rect x="340" y="214" width="22" height="9" class="net_21,22,23,24,25,26,27,28,29,30 width_10 busLabel_10" style="fill: white; stroke: none"/><text x="339" y="222" class="net_21,22,23,24,25,26,27,28,29,30 width_10 busLabel_10">/10/</text><rect x="340" y="214" width="22" height="9" class="net_21,22,23,24,25,26,27,28,29,30 width_10 busLabel_10" style="fill: white; stroke: none"/><text x="339" y="222" class="net_21,22,23,24,25,26,27,28,29,30 width_10 busLabel_10">/10/</text><rect x="275" y="1057" width="16" height="9" class="net_120,121,122,123,124,125 width_6 busLabel_6" style="fill: white; stroke: none"/><text x="274" y="1065" class="net_120,121,122,123,124,125 width_6 busLabel_6">/6/</text><rect x="340" y="988" width="22" height="9" class="net_126,127,128,129,130,131,132,133,134,135 width_10 busLabel_10" style="fill: white; stroke: none"/><text x="339" y="996" class="net_126,127,128,129,130,131,132,133,134,135 width_10 busLabel_10">/10/</text><rect x="476" y="298.5" width="16" height="9" class="net_136,137,138,139,140,141,142 width_7 busLabel_7" style="fill: white; stroke: none"/><text x="475" y="306.5" class="net_136,137,138,139,140,141,142 width_7 busLabel_7">/7/</text><rect x="476" y="858" width="16" height="9" class="net_148,149,150 width_3 busLabel_3" style="fill: white; stroke: none"/><text x="475" y="866" class="net_148,149,150 width_3 busLabel_3">/3/</text><rect x="476" y="923" width="16" height="9" class="net_3,4,5 width_3 busLabel_3" style="fill: white; stroke: none"/><text x="475" y="931" class="net_3,4,5 width_3 busLabel_3">/3/</text><rect x="619.5" y="396.5" width="22" height="9" class="net_41,42,43,44,45,46,47,48,49,50 width_10 busLabel_10" style="fill: white; stroke: none"/><text x="618.5" y="404.5" class="net_41,42,43,44,45,46,47,48,49,50 width_10 busLabel_10">/10/</text><rect x="476" y="736" width="22" height="9" class="net_152,153,154,155,156,157,158,159,160,161 width_10 busLabel_10" style="fill: white; stroke: none"/><text x="475" y="744" class="net_152,153,154,155,156,157,158,159,160,161 width_10 busLabel_10">/10/</text><rect x="476" y="736" width="22" height="9" class="net_152,153,154,155,156,157,158,159,160,161 width_10 busLabel_10" style="fill: white; stroke: none"/><text x="475" y="744" class="net_152,153,154,155,156,157,158,159,160,161 width_10 busLabel_10">/10/</text><rect x="476" y="712.5" width="22" height="9" class="net_61,62,63,64,65,66,67,68,69,70 width_10 busLabel_10" style="fill: white; stroke: none"/><text x="475" y="720.5" class="net_61,62,63,64,65,66,67,68,69,70 width_10 busLabel_10">/10/</text><rect x="408" y="125.5" width="22" height="9" class="net_51,52,53,54,55,56,57,58,59,60 width_10 busLabel_10" style="fill: white; stroke: none"/><text x="407" y="133.5" class="net_51,52,53,54,55,56,57,58,59,60 width_10 busLabel_10">/10/</text><rect x="619.5" y="749.5" width="22" height="9" class="net_72,73,74,75,76,77,78,79,80,81 width_10 busLabel_10" style="fill: white; stroke: none"/><text x="618.5" y="757.5" class="net_72,73,74,75,76,77,78,79,80,81 width_10 busLabel_10">/10/</text><rect x="408" y="525" width="22" height="9" class="net_82,83,84,85,86,87,88,89,90,91 width_10 busLabel_10" style="fill: white; stroke: none"/><text x="407" y="533" class="net_82,83,84,85,86,87,88,89,90,91 width_10 busLabel_10">/10/</text><rect x="408" y="797" width="22" height="9" class="net_173,174,175,176,177,178,179,180,181,182 width_10 busLabel_10" style="fill: white; stroke: none"/><text x="407" y="805" class="net_173,174,175,176,177,178,179,180,181,182 width_10 busLabel_10">/10/</text><rect x="619.5" y="1121" width="16" height="9" class="net_6,7,8 width_3 busLabel_3" style="fill: white; stroke: none"/><text x="618.5" y="1129" class="net_6,7,8 width_3 busLabel_3">/3/</text><rect x="619.5" y="29.5" width="22" height="9" class="net_11,12,13,14,15,16,17,18,19,20,183,184,185,186,187,188,189,190,191,192,193,194,195,196,197,198,199,200,201,202,203,204 width_32 busLabel_32" style="fill: white; stroke: none"/><text x="618.5" y="37.5" class="net_11,12,13,14,15,16,17,18,19,20,183,184,185,186,187,188,189,190,191,192,193,194,195,196,197,198,199,200,201,202,203,204 width_32 busLabel_32">/32/</text><rect x="619.5" y="224" width="22" height="9" class="net_21,22,23,24,25,26,27,28,29,30,183,184,185,186,187,188,189,190,191,192,193,194,195,196,197,198,199,200,201,202,203,204 width_32 busLabel_32" style="fill: white; stroke: none"/><text x="618.5" y="232" class="net_21,22,23,24,25,26,27,28,29,30,183,184,185,186,187,188,189,190,191,192,193,194,195,196,197,198,199,200,201,202,203,204 width_32 busLabel_32">/32/</text><rect x="476" y="234" width="22" height="9" class="net_183,184,185,186,187,188,189,190,191,192,193,194,195,196,197,198,199,200,201,202,203,204 width_22 busLabel_22" style="fill: white; stroke: none"/><text x="475" y="242" class="net_183,184,185,186,187,188,189,190,191,192,193,194,195,196,197,198,199,200,201,202,203,204 width_22 busLabel_22">/22/</text><rect x="476" y="234" width="22" height="9" class="net_183,184,185,186,187,188,189,190,191,192,193,194,195,196,197,198,199,200,201,202,203,204 width_22 busLabel_22" style="fill: white; stroke: none"/><text x="475" y="242" class="net_183,184,185,186,187,188,189,190,191,192,193,194,195,196,197,198,199,200,201,202,203,204 width_22 busLabel_22">/22/</text></svg>