<svg xmlns="http://www.w3.org/2000/svg" xmlns:xlink="http://www.w3.org/1999/xlink" xmlns:s="https://github.com/nturley/netlistsvg" width="1462" height="1267">
  <style>svg {
    stroke:#000;
    fill:none;
  }
  text {
    fill:#000;
    stroke:none;
    font-size:10px;
    font-weight: bold;
    font-family: "Courier New", monospace;
  }
  .nodelabel {
    text-anchor: middle;
  }
  .inputPortLabel {
    text-anchor: end;
  }
  .splitjoinBody {
    fill:#000;
  }</style>
  <g s:type="add" transform="translate(711.6666666666666,824.5)" s:width="25" s:height="25" id="cell_$add$random_generator.v:107$16">
    <s:alias val="$add"/>
    <circle r="12.5" cx="12.5" cy="12.5" class="cell_$add$random_generator.v:107$16"/>
    <line x1="7.5" x2="17.5" y1="12.5" y2="12.5" class="cell_$add$random_generator.v:107$16"/>
    <line x1="12.5" x2="12.5" y1="7.5" y2="17.5" class="cell_$add$random_generator.v:107$16"/>
    <g s:x="3" s:y="5" s:pid="A"/>
    <g s:x="3" s:y="20" s:pid="B"/>
    <g s:x="25" s:y="12.5" s:pid="Y"/>
  </g>
  <g s:type="add" transform="translate(408,1058)" s:width="25" s:height="25" id="cell_$add$random_generator.v:66$3">
    <s:alias val="$add"/>
    <circle r="12.5" cx="12.5" cy="12.5" class="cell_$add$random_generator.v:66$3"/>
    <line x1="7.5" x2="17.5" y1="12.5" y2="12.5" class="cell_$add$random_generator.v:66$3"/>
    <line x1="12.5" x2="12.5" y1="7.5" y2="17.5" class="cell_$add$random_generator.v:66$3"/>
    <g s:x="3" s:y="5" s:pid="A"/>
    <g s:x="3" s:y="20" s:pid="B"/>
    <g s:x="25" s:y="12.5" s:pid="Y"/>
  </g>
  <g s:type="add" transform="translate(239.33333333333334,430.5)" s:width="25" s:height="25" id="cell_$add$random_generator.v:87$11">
    <s:alias val="$add"/>
    <circle r="12.5" cx="12.5" cy="12.5" class="cell_$add$random_generator.v:87$11"/>
    <line x1="7.5" x2="17.5" y1="12.5" y2="12.5" class="cell_$add$random_generator.v:87$11"/>
    <line x1="12.5" x2="12.5" y1="7.5" y2="17.5" class="cell_$add$random_generator.v:87$11"/>
    <g s:x="3" s:y="5" s:pid="A"/>
    <g s:x="3" s:y="20" s:pid="B"/>
    <g s:x="25" s:y="12.5" s:pid="Y"/>
  </g>
  <g s:type="add" transform="translate(904,233)" s:width="25" s:height="25" id="cell_$add$random_generator.v:89$12">
    <s:alias val="$add"/>
    <circle r="12.5" cx="12.5" cy="12.5" class="cell_$add$random_generator.v:89$12"/>
    <line x1="7.5" x2="17.5" y1="12.5" y2="12.5" class="cell_$add$random_generator.v:89$12"/>
    <line x1="12.5" x2="12.5" y1="7.5" y2="17.5" class="cell_$add$random_generator.v:89$12"/>
    <g s:x="3" s:y="5" s:pid="A"/>
    <g s:x="3" s:y="20" s:pid="B"/>
    <g s:x="25" s:y="12.5" s:pid="Y"/>
  </g>
  <g s:type="generic" transform="translate(1123,857.5)" s:width="30" s:height="40" id="cell_$auto$proc_rom.cc:155:do_switch$34">
    <text x="15" y="-4" class="nodelabel cell_$auto$proc_rom.cc:155:do_switch$34" s:attribute="ref">RAM</text>
    <rect width="30" height="180" s:generic="body" class="cell_$auto$proc_rom.cc:155:do_switch$34"/>
    <g transform="translate(0,10)" s:x="0" s:y="10" s:pid="in0" id="port_$auto$proc_rom.cc:155:do_switch$34~RD_ADDR">
      <text x="-3" y="-4" class="inputPortLabel cell_$auto$proc_rom.cc:155:do_switch$34">RD_ADDR</text>
    </g>
    <g transform="translate(0,30)" s:x="0" s:y="10" s:pid="in0" id="port_$auto$proc_rom.cc:155:do_switch$34~RD_ARST">
      <text x="-3" y="-4" class="inputPortLabel cell_$auto$proc_rom.cc:155:do_switch$34">RD_ARST</text>
    </g>
    <g transform="translate(0,50)" s:x="0" s:y="10" s:pid="in0" id="port_$auto$proc_rom.cc:155:do_switch$34~RD_CLK">
      <text x="-3" y="-4" class="inputPortLabel cell_$auto$proc_rom.cc:155:do_switch$34">RD_CLK</text>
    </g>
    <g transform="translate(0,70)" s:x="0" s:y="10" s:pid="in0" id="port_$auto$proc_rom.cc:155:do_switch$34~RD_EN">
      <text x="-3" y="-4" class="inputPortLabel cell_$auto$proc_rom.cc:155:do_switch$34">RD_EN</text>
    </g>
    <g transform="translate(0,90)" s:x="0" s:y="10" s:pid="in0" id="port_$auto$proc_rom.cc:155:do_switch$34~RD_SRST">
      <text x="-3" y="-4" class="inputPortLabel cell_$auto$proc_rom.cc:155:do_switch$34">RD_SRST</text>
    </g>
    <g transform="translate(0,110)" s:x="0" s:y="10" s:pid="in0" id="port_$auto$proc_rom.cc:155:do_switch$34~WR_ADDR">
      <text x="-3" y="-4" class="inputPortLabel cell_$auto$proc_rom.cc:155:do_switch$34">WR_ADDR</text>
    </g>
    <g transform="translate(0,130)" s:x="0" s:y="10" s:pid="in0" id="port_$auto$proc_rom.cc:155:do_switch$34~WR_CLK">
      <text x="-3" y="-4" class="inputPortLabel cell_$auto$proc_rom.cc:155:do_switch$34">WR_CLK</text>
    </g>
    <g transform="translate(0,150)" s:x="0" s:y="10" s:pid="in0" id="port_$auto$proc_rom.cc:155:do_switch$34~WR_DATA">
      <text x="-3" y="-4" class="inputPortLabel cell_$auto$proc_rom.cc:155:do_switch$34">WR_DATA</text>
    </g>
    <g transform="translate(0,170)" s:x="0" s:y="10" s:pid="in0" id="port_$auto$proc_rom.cc:155:do_switch$34~WR_EN">
      <text x="-3" y="-4" class="inputPortLabel cell_$auto$proc_rom.cc:155:do_switch$34">WR_EN</text>
    </g>
    <g transform="translate(30,10)" s:x="30" s:y="10" s:pid="out0" id="port_$auto$proc_rom.cc:155:do_switch$34~RD_DATA">
      <text x="5" y="-4" style="fill:#000; stroke:none" class="cell_$auto$proc_rom.cc:155:do_switch$34">RD_DATA</text>
    </g>
  </g>
  <g s:type="eq" transform="translate(408,1169)" s:width="25" s:height="25" id="cell_$eq$random_generator.v:63$2">
    <s:alias val="$eq"/>
    <circle r="12.5" cx="12.5" cy="12.5" class="cell_$eq$random_generator.v:63$2"/>
    <line x1="7.5" x2="17.5" y1="10" y2="10" class="cell_$eq$random_generator.v:63$2"/>
    <line x1="7.5" x2="17.5" y1="15" y2="15" class="cell_$eq$random_generator.v:63$2"/>
    <g s:x="3" s:y="5" s:pid="A"/>
    <g s:x="3" s:y="20" s:pid="B"/>
    <g s:x="25" s:y="12.5" s:pid="Y"/>
  </g>
  <g s:type="eq" transform="translate(239.33333333333334,490.5)" s:width="25" s:height="25" id="cell_$eq$random_generator.v:85$10">
    <s:alias val="$eq"/>
    <circle r="12.5" cx="12.5" cy="12.5" class="cell_$eq$random_generator.v:85$10"/>
    <line x1="7.5" x2="17.5" y1="10" y2="10" class="cell_$eq$random_generator.v:85$10"/>
    <line x1="7.5" x2="17.5" y1="15" y2="15" class="cell_$eq$random_generator.v:85$10"/>
    <g s:x="3" s:y="5" s:pid="A"/>
    <g s:x="3" s:y="20" s:pid="B"/>
    <g s:x="25" s:y="12.5" s:pid="Y"/>
  </g>
  <g s:type="and" transform="translate(408,572)" s:width="30" s:height="25" id="cell_$logic_and$random_generator.v:78$7">
    <s:alias val="$and"/>
    <s:alias val="$logic_and"/>
    <s:alias val="$_AND_"/>
    <path d="M0,0 L0,25 L15,25 A15 12.5 0 0 0 15,0 Z" class="cell_$logic_and$random_generator.v:78$7"/>
    <g s:x="0" s:y="5" s:pid="A"/>
    <g s:x="0" s:y="20" s:pid="B"/>
    <g s:x="30" s:y="12.5" s:pid="Y"/>
  </g>
  <g s:type="and" transform="translate(546.6666666666666,579.5)" s:width="30" s:height="25" id="cell_$logic_and$random_generator.v:78$8">
    <s:alias val="$and"/>
    <s:alias val="$logic_and"/>
    <s:alias val="$_AND_"/>
    <path d="M0,0 L0,25 L15,25 A15 12.5 0 0 0 15,0 Z" class="cell_$logic_and$random_generator.v:78$8"/>
    <g s:x="0" s:y="5" s:pid="A"/>
    <g s:x="0" s:y="20" s:pid="B"/>
    <g s:x="30" s:y="12.5" s:pid="Y"/>
  </g>
  <g s:type="not" transform="translate(322,588)" s:width="30" s:height="20" id="cell_$logic_not$random_generator.v:78$6">
    <s:alias val="$_NOT_"/>
    <s:alias val="$not"/>
    <s:alias val="$logic_not"/>
    <path d="M0,0 L0,20 L20,10 Z" class="cell_$logic_not$random_generator.v:78$6"/>
    <circle cx="23" cy="10" r="3" class="cell_$logic_not$random_generator.v:78$6"/>
    <g s:x="0" s:y="10" s:pid="A"/>
    <g s:x="25" s:y="10" s:pid="Y"/>
  </g>
  <g s:type="lt" transform="translate(780,1075.5)" s:width="25" s:height="25" id="cell_$lt$random_generator.v:68$4">
    <s:alias val="$lt"/>
    <circle r="12.5" cx="12.5" cy="12.5" class="cell_$lt$random_generator.v:68$4"/>
    <line x1="7.5" x2="17.5" y1="12.5" y2="7.5" class="cell_$lt$random_generator.v:68$4"/>
    <line x1="7.5" x2="17.5" y1="12.5" y2="17.5" class="cell_$lt$random_generator.v:68$4"/>
    <g s:x="3" s:y="5" s:pid="A"/>
    <g s:x="3" s:y="20" s:pid="B"/>
    <g s:x="25" s:y="12.5" s:pid="Y"/>
  </g>
  <g s:type="generic" transform="translate(495,819)" s:width="30" s:height="40" id="cell_$mul$random_generator.v:107$15">
    <text x="15" y="-4" class="nodelabel cell_$mul$random_generator.v:107$15" s:attribute="ref">*</text>
    <rect width="30" height="40" s:generic="body" class="cell_$mul$random_generator.v:107$15"/>
    <g transform="translate(0,10)" s:x="0" s:y="10" s:pid="in0" id="port_$mul$random_generator.v:107$15~A">
      <text x="-3" y="-4" class="inputPortLabel cell_$mul$random_generator.v:107$15">A</text>
    </g>
    <g transform="translate(0,30)" s:x="0" s:y="10" s:pid="in0" id="port_$mul$random_generator.v:107$15~B">
      <text x="-3" y="-4" class="inputPortLabel cell_$mul$random_generator.v:107$15">B</text>
    </g>
    <g transform="translate(30,10)" s:x="30" s:y="10" s:pid="out0" id="port_$mul$random_generator.v:107$15~Y">
      <text x="5" y="-4" style="fill:#000; stroke:none" class="cell_$mul$random_generator.v:107$15">Y</text>
    </g>
  </g>
  <g s:type="dff" transform="translate(1362,127)" s:width="30" s:height="40" id="cell_$procdff$82">
    <s:alias val="$dff"/>
    <s:alias val="$_DFF_"/>
    <s:alias val="$_DFF_P_"/>
    <rect width="30" height="40" x="0" y="0" class="cell_$procdff$82"/>
    <path d="M0,35 L5,30 L0,25" class="cell_$procdff$82"/>
    <g s:x="30" s:y="10" s:pid="Q"/>
    <g s:x="0" s:y="30" s:pid="CLK"/>
    <g s:x="0" s:y="30" s:pid="C"/>
    <g s:x="0" s:y="10" s:pid="D"/>
  </g>
  <g s:type="dff" transform="translate(408,423)" s:width="30" s:height="40" id="cell_$procdff$83">
    <s:alias val="$dff"/>
    <s:alias val="$_DFF_"/>
    <s:alias val="$_DFF_P_"/>
    <rect width="30" height="40" x="0" y="0" class="cell_$procdff$83"/>
    <path d="M0,35 L5,30 L0,25" class="cell_$procdff$83"/>
    <g s:x="30" s:y="10" s:pid="Q"/>
    <g s:x="0" s:y="30" s:pid="CLK"/>
    <g s:x="0" s:y="30" s:pid="C"/>
    <g s:x="0" s:y="10" s:pid="D"/>
  </g>
  <g s:type="dff" transform="translate(775,749.5)" s:width="30" s:height="40" id="cell_$procdff$84">
    <s:alias val="$dff"/>
    <s:alias val="$_DFF_"/>
    <s:alias val="$_DFF_P_"/>
    <rect width="30" height="40" x="0" y="0" class="cell_$procdff$84"/>
    <path d="M0,35 L5,30 L0,25" class="cell_$procdff$84"/>
    <g s:x="30" s:y="10" s:pid="Q"/>
    <g s:x="0" s:y="30" s:pid="CLK"/>
    <g s:x="0" s:y="30" s:pid="C"/>
    <g s:x="0" s:y="10" s:pid="D"/>
  </g>
  <g s:type="dff" transform="translate(236,588)" s:width="30" s:height="40" id="cell_$procdff$85">
    <s:alias val="$dff"/>
    <s:alias val="$_DFF_"/>
    <s:alias val="$_DFF_P_"/>
    <rect width="30" height="40" x="0" y="0" class="cell_$procdff$85"/>
    <path d="M0,35 L5,30 L0,25" class="cell_$procdff$85"/>
    <g s:x="30" s:y="10" s:pid="Q"/>
    <g s:x="0" s:y="30" s:pid="CLK"/>
    <g s:x="0" s:y="30" s:pid="C"/>
    <g s:x="0" s:y="10" s:pid="D"/>
  </g>
  <g s:type="dff" transform="translate(710,1070.5)" s:width="30" s:height="40" id="cell_$procdff$86">
    <s:alias val="$dff"/>
    <s:alias val="$_DFF_"/>
    <s:alias val="$_DFF_P_"/>
    <rect width="30" height="40" x="0" y="0" class="cell_$procdff$86"/>
    <path d="M0,35 L5,30 L0,25" class="cell_$procdff$86"/>
    <g s:x="30" s:y="10" s:pid="Q"/>
    <g s:x="0" s:y="30" s:pid="CLK"/>
    <g s:x="0" s:y="30" s:pid="C"/>
    <g s:x="0" s:y="10" s:pid="D"/>
  </g>
  <g s:type="dff" transform="translate(887.25,1078)" s:width="30" s:height="40" id="cell_$procdff$87">
    <s:alias val="$dff"/>
    <s:alias val="$_DFF_"/>
    <s:alias val="$_DFF_P_"/>
    <rect width="30" height="40" x="0" y="0" class="cell_$procdff$87"/>
    <path d="M0,35 L5,30 L0,25" class="cell_$procdff$87"/>
    <g s:x="30" s:y="10" s:pid="Q"/>
    <g s:x="0" s:y="30" s:pid="CLK"/>
    <g s:x="0" s:y="30" s:pid="C"/>
    <g s:x="0" s:y="10" s:pid="D"/>
  </g>
  <g s:type="mux" transform="translate(1170,22)" s:width="20" s:height="40" id="cell_$procmux$63">
    <s:alias val="$pmux"/>
    <s:alias val="$mux"/>
    <s:alias val="$_MUX_"/>
    <path d="M0,0 L20,10 L20,30 L0,40 Z" class="cell_$procmux$63"/>
    <g s:x="0" s:y="10" s:pid="A"/>
    <g s:x="0" s:y="30" s:pid="B"/>
    <g s:x="10" s:y="35" s:pid="S"/>
    <g s:x="20" s:y="20" s:pid="Y"/>
  </g>
  <g s:type="eq" transform="translate(780,264)" s:width="25" s:height="25" id="cell_$procmux$64_CMP0">
    <s:alias val="$eq"/>
    <circle r="12.5" cx="12.5" cy="12.5" class="cell_$procmux$64_CMP0"/>
    <line x1="7.5" x2="17.5" y1="10" y2="10" class="cell_$procmux$64_CMP0"/>
    <line x1="7.5" x2="17.5" y1="15" y2="15" class="cell_$procmux$64_CMP0"/>
    <g s:x="3" s:y="5" s:pid="A"/>
    <g s:x="3" s:y="20" s:pid="B"/>
    <g s:x="25" s:y="12.5" s:pid="Y"/>
  </g>
  <g s:type="eq" transform="translate(780,324)" s:width="25" s:height="25" id="cell_$procmux$65_CMP0">
    <s:alias val="$eq"/>
    <circle r="12.5" cx="12.5" cy="12.5" class="cell_$procmux$65_CMP0"/>
    <line x1="7.5" x2="17.5" y1="10" y2="10" class="cell_$procmux$65_CMP0"/>
    <line x1="7.5" x2="17.5" y1="15" y2="15" class="cell_$procmux$65_CMP0"/>
    <g s:x="3" s:y="5" s:pid="A"/>
    <g s:x="3" s:y="20" s:pid="B"/>
    <g s:x="25" s:y="12.5" s:pid="Y"/>
  </g>
  <g s:type="not" transform="translate(775,604.5)" s:width="30" s:height="20" id="cell_$procmux$66_CMP0">
    <s:alias val="$_NOT_"/>
    <s:alias val="$not"/>
    <s:alias val="$logic_not"/>
    <path d="M0,0 L0,20 L20,10 Z" class="cell_$procmux$66_CMP0"/>
    <circle cx="23" cy="10" r="3" class="cell_$procmux$66_CMP0"/>
    <g s:x="0" s:y="10" s:pid="A"/>
    <g s:x="25" s:y="10" s:pid="Y"/>
  </g>
  <g s:type="mux" transform="translate(1170,391)" s:width="20" s:height="40" id="cell_$procmux$68">
    <s:alias val="$pmux"/>
    <s:alias val="$mux"/>
    <s:alias val="$_MUX_"/>
    <path d="M0,0 L20,10 L20,30 L0,40 Z" class="cell_$procmux$68"/>
    <g s:x="0" s:y="10" s:pid="A"/>
    <g s:x="0" s:y="30" s:pid="B"/>
    <g s:x="10" s:y="35" s:pid="S"/>
    <g s:x="20" s:y="20" s:pid="Y"/>
  </g>
  <g s:type="mux" transform="translate(321.6666666666667,413)" s:width="20" s:height="40" id="cell_$procmux$71">
    <s:alias val="$pmux"/>
    <s:alias val="$mux"/>
    <s:alias val="$_MUX_"/>
    <path d="M0,0 L20,10 L20,30 L0,40 Z" class="cell_$procmux$71"/>
    <g s:x="0" s:y="10" s:pid="A"/>
    <g s:x="0" s:y="30" s:pid="B"/>
    <g s:x="10" s:y="35" s:pid="S"/>
    <g s:x="20" s:y="20" s:pid="Y"/>
  </g>
  <g s:type="mux" transform="translate(716.6666666666666,351)" s:width="20" s:height="40" id="cell_$procmux$73">
    <s:alias val="$pmux"/>
    <s:alias val="$mux"/>
    <s:alias val="$_MUX_"/>
    <path d="M0,0 L20,10 L20,30 L0,40 Z" class="cell_$procmux$73"/>
    <g s:x="0" s:y="10" s:pid="A"/>
    <g s:x="0" s:y="30" s:pid="B"/>
    <g s:x="10" s:y="35" s:pid="S"/>
    <g s:x="20" s:y="20" s:pid="Y"/>
  </g>
  <g s:type="mux" transform="translate(550,1060.5)" s:width="20" s:height="40" id="cell_$procmux$76">
    <s:alias val="$pmux"/>
    <s:alias val="$mux"/>
    <s:alias val="$_MUX_"/>
    <path d="M0,0 L20,10 L20,30 L0,40 Z" class="cell_$procmux$76"/>
    <g s:x="0" s:y="10" s:pid="A"/>
    <g s:x="0" s:y="30" s:pid="B"/>
    <g s:x="10" s:y="35" s:pid="S"/>
    <g s:x="20" s:y="20" s:pid="Y"/>
  </g>
  <g s:type="generic" transform="translate(847,749)" s:width="30" s:height="40" id="cell_$shiftx$random_generator.v:107$17">
    <text x="15" y="-4" class="nodelabel cell_$shiftx$random_generator.v:107$17" s:attribute="ref">shift</text>
    <rect width="30" height="40" s:generic="body" class="cell_$shiftx$random_generator.v:107$17"/>
    <g transform="translate(0,10)" s:x="0" s:y="10" s:pid="in0" id="port_$shiftx$random_generator.v:107$17~A">
      <text x="-3" y="-4" class="inputPortLabel cell_$shiftx$random_generator.v:107$17">A</text>
    </g>
    <g transform="translate(0,30)" s:x="0" s:y="10" s:pid="in0" id="port_$shiftx$random_generator.v:107$17~B">
      <text x="-3" y="-4" class="inputPortLabel cell_$shiftx$random_generator.v:107$17">B</text>
    </g>
    <g transform="translate(30,10)" s:x="30" s:y="10" s:pid="out0" id="port_$shiftx$random_generator.v:107$17~Y">
      <text x="5" y="-4" style="fill:#000; stroke:none" class="cell_$shiftx$random_generator.v:107$17">Y</text>
    </g>
  </g>
  <g s:type="generic" transform="translate(114,546.5)" s:width="30" s:height="40" id="cell_lfsr_inst">
    <text x="15" y="-4" class="nodelabel cell_lfsr_inst" s:attribute="ref">lfsr</text>
    <rect width="30" height="40" s:generic="body" class="cell_lfsr_inst"/>
    <g transform="translate(0,10)" s:x="0" s:y="10" s:pid="in0" id="port_lfsr_inst~clk">
      <text x="-3" y="-4" class="inputPortLabel cell_lfsr_inst">clk</text>
    </g>
    <g transform="translate(0,30)" s:x="0" s:y="10" s:pid="in0" id="port_lfsr_inst~enable">
      <text x="-3" y="-4" class="inputPortLabel cell_lfsr_inst">enable</text>
    </g>
    <g transform="translate(30,10)" s:x="30" s:y="10" s:pid="out0" id="port_lfsr_inst~data">
      <text x="5" y="-4" style="fill:#000; stroke:none" class="cell_lfsr_inst">data</text>
    </g>
    <g transform="translate(30,30)" s:x="30" s:y="10" s:pid="out0" id="port_lfsr_inst~valid">
      <text x="5" y="-4" style="fill:#000; stroke:none" class="cell_lfsr_inst">valid</text>
    </g>
  </g>
  <g s:type="inputExt" transform="translate(12,147)" s:width="30" s:height="20" id="cell_clock">
    <text x="15" y="-4" class="nodelabel cell_clock" s:attribute="ref">clock</text>
    <s:alias val="$_inputExt_"/>
    <path d="M0,0 L0,20 L15,20 L30,10 L15,0 Z" class="cell_clock"/>
    <g s:x="28" s:y="10" s:pid="Y"/>
  </g>
  <g s:type="inputExt" transform="translate(301,698)" s:width="30" s:height="20" id="cell_inputButtons">
    <text x="15" y="-4" class="nodelabel cell_inputButtons" s:attribute="ref">inputButtons</text>
    <s:alias val="$_inputExt_"/>
    <path d="M0,0 L0,20 L15,20 L30,10 L15,0 Z" class="cell_inputButtons"/>
    <g s:x="28" s:y="10" s:pid="Y"/>
  </g>
  <g s:type="outputExt" transform="translate(1362,858)" s:width="30" s:height="20" id="cell_sevenSegments">
    <text x="15" y="-4" class="nodelabel cell_sevenSegments" s:attribute="ref">sevenSegments</text>
    <s:alias val="$_outputExt_"/>
    <path d="M30,0 L30,20 L15,20 L0,10 L15,0 Z" class="cell_sevenSegments"/>
    <g s:x="0" s:y="10" s:pid="A"/>
  </g>
  <g s:type="outputExt" transform="translate(1362,32)" s:width="30" s:height="20" id="cell_cableSelect">
    <text x="15" y="-4" class="nodelabel cell_cableSelect" s:attribute="ref">cableSelect</text>
    <s:alias val="$_outputExt_"/>
    <path d="M30,0 L30,20 L15,20 L0,10 L15,0 Z" class="cell_cableSelect"/>
    <g s:x="0" s:y="10" s:pid="A"/>
  </g>
  <g s:type="outputExt" transform="translate(1362,1088)" s:width="30" s:height="20" id="cell_leds">
    <text x="15" y="-4" class="nodelabel cell_leds" s:attribute="ref">leds</text>
    <s:alias val="$_outputExt_"/>
    <path d="M30,0 L30,20 L15,20 L0,10 L15,0 Z" class="cell_leds"/>
    <g s:x="0" s:y="10" s:pid="A"/>
  </g>
  <g s:type="constant" transform="translate(495,907)" s:width="30" s:height="20" id="cell_0">
    <text x="15" y="-4" class="nodelabel cell_0" s:attribute="ref">0</text>
    <s:alias val="$_constant_"/>
    <rect width="30" height="20" class="cell_0"/>
    <g s:x="30" s:y="10" s:pid="Y"/>
  </g>
  <g s:type="constant" transform="translate(114,243)" s:width="30" s:height="20" id="cell_1">
    <text x="15" y="-4" class="nodelabel cell_1" s:attribute="ref">1</text>
    <s:alias val="$_constant_"/>
    <rect width="30" height="20" class="cell_1"/>
    <g s:x="30" s:y="10" s:pid="Y"/>
  </g>
  <g s:type="constant" transform="translate(301,1179)" s:width="30" s:height="20" id="cell_11010101100111110111111">
    <text x="15" y="-4" class="nodelabel cell_11010101100111110111111" s:attribute="ref">0x6acfbf</text>
    <s:alias val="$_constant_"/>
    <rect width="30" height="20" class="cell_11010101100111110111111"/>
    <g s:x="30" s:y="10" s:pid="Y"/>
  </g>
  <g s:type="constant" transform="translate(114,178)" s:width="30" s:height="20" id="cell_11000011010011111">
    <text x="15" y="-4" class="nodelabel cell_11000011010011111" s:attribute="ref">0x1869f</text>
    <s:alias val="$_constant_"/>
    <rect width="30" height="20" class="cell_11000011010011111"/>
    <g s:x="30" s:y="10" s:pid="Y"/>
  </g>
  <g s:type="constant" transform="translate(710,1224)" s:width="30" s:height="20" id="cell_1111101000">
    <text x="15" y="-4" class="nodelabel cell_1111101000" s:attribute="ref">0x3e8</text>
    <s:alias val="$_constant_"/>
    <rect width="30" height="20" class="cell_1111101000"/>
    <g s:x="30" s:y="10" s:pid="Y"/>
  </g>
  <g s:type="constant" transform="translate(408,839.5)" s:width="30" s:height="20" id="cell_100">
    <text x="15" y="-4" class="nodelabel cell_100" s:attribute="ref">100</text>
    <s:alias val="$_constant_"/>
    <rect width="30" height="20" class="cell_100"/>
    <g s:x="30" s:y="10" s:pid="Y"/>
  </g>
  <g s:type="constant" transform="translate(847,22)" s:width="30" s:height="20" id="cell_0111">
    <text x="15" y="-4" class="nodelabel cell_0111" s:attribute="ref">0x7</text>
    <s:alias val="$_constant_"/>
    <rect width="30" height="20" class="cell_0111"/>
    <g s:x="30" s:y="10" s:pid="Y"/>
  </g>
  <g s:type="constant" transform="translate(847,87)" s:width="30" s:height="20" id="cell_111011011011">
    <text x="15" y="-4" class="nodelabel cell_111011011011" s:attribute="ref">0xedb</text>
    <s:alias val="$_constant_"/>
    <rect width="30" height="20" class="cell_111011011011"/>
    <g s:x="30" s:y="10" s:pid="Y"/>
  </g>
  <g s:type="constant" transform="translate(710,290)" s:width="30" s:height="20" id="cell_10">
    <text x="15" y="-4" class="nodelabel cell_10" s:attribute="ref">10</text>
    <s:alias val="$_constant_"/>
    <rect width="30" height="20" class="cell_10"/>
    <g s:x="30" s:y="10" s:pid="Y"/>
  </g>
  <g s:type="constant" transform="translate(847,411)" s:width="30" s:height="20" id="cell_000000000000000000">
    <text x="15" y="-4" class="nodelabel cell_000000000000000000" s:attribute="ref">0x0</text>
    <s:alias val="$_constant_"/>
    <rect width="30" height="20" class="cell_000000000000000000"/>
    <g s:x="30" s:y="10" s:pid="Y"/>
  </g>
  <g s:type="constant" transform="translate(408,1128)" s:width="30" s:height="20" id="cell_00000000000000000000000000000000">
    <text x="15" y="-4" class="nodelabel cell_00000000000000000000000000000000" s:attribute="ref">0x0</text>
    <s:alias val="$_constant_"/>
    <rect width="30" height="20" class="cell_00000000000000000000000000000000"/>
    <g s:x="30" s:y="10" s:pid="Y"/>
  </g>
  <g s:type="constant" transform="translate(847,1163)" s:width="30" s:height="20" id="cell_000">
    <text x="15" y="-4" class="nodelabel cell_000" s:attribute="ref">000</text>
    <s:alias val="$_constant_"/>
    <rect width="30" height="20" class="cell_000"/>
    <g s:x="30" s:y="10" s:pid="Y"/>
  </g>
  <g s:type="join" transform="translate(893.75,306)" s:width="4" s:height="40" id="cell_$join$,230,231,232,">
    <rect width="5" height="60" class="splitjoinBody" s:generic="body"/>
    <s:alias val="$_join_"/>
    <g s:x="5" s:y="20" s:pid="out"/>
    <g transform="translate(0,10)" s:x="0" s:y="10" s:pid="in0">
      <text x="-3" y="-4" class="inputPortLabel">0</text>
    </g>
    <g transform="translate(0,30)" s:x="0" s:y="10" s:pid="in0">
      <text x="-3" y="-4" class="inputPortLabel">1</text>
    </g>
    <g transform="translate(0,50)" s:x="0" s:y="10" s:pid="in0">
      <text x="-3" y="-4" class="inputPortLabel">2</text>
    </g>
  </g>
  <g s:type="join" transform="translate(555.3333333333334,360.5)" s:width="4" s:height="40" id="cell_$join$,190,191,192,193,194,195,196,197,233,234,235,236,237,238,239,240,">
    <rect width="5" height="40" class="splitjoinBody" s:generic="body"/>
    <s:alias val="$_join_"/>
    <g s:x="5" s:y="20" s:pid="out"/>
    <g transform="translate(0,10)" s:x="0" s:y="10" s:pid="in0">
      <text x="-3" y="-4" class="inputPortLabel">0:7</text>
    </g>
    <g transform="translate(0,30)" s:x="0" s:y="10" s:pid="in0">
      <text x="-3" y="-4" class="inputPortLabel">8:15</text>
    </g>
  </g>
  <g s:type="join" transform="translate(794,826.5)" s:width="4" s:height="40" id="cell_$join$,24,25,26,27,28,29,241,">
    <rect width="5" height="40" class="splitjoinBody" s:generic="body"/>
    <s:alias val="$_join_"/>
    <g s:x="5" s:y="20" s:pid="out"/>
    <g transform="translate(0,10)" s:x="0" s:y="10" s:pid="in0">
      <text x="-3" y="-4" class="inputPortLabel">0:5</text>
    </g>
    <g transform="translate(0,30)" s:x="0" s:y="10" s:pid="in0">
      <text x="-3" y="-4" class="inputPortLabel">6</text>
    </g>
  </g>
  <g s:type="join" transform="translate(1175.3333333333333,1077.5)" s:width="4" s:height="40" id="cell_$join$,18,371,372,373,">
    <rect width="5" height="40" class="splitjoinBody" s:generic="body"/>
    <s:alias val="$_join_"/>
    <g s:x="5" s:y="20" s:pid="out"/>
    <g transform="translate(0,10)" s:x="0" s:y="10" s:pid="in0">
      <text x="-3" y="-4" class="inputPortLabel">0</text>
    </g>
    <g transform="translate(0,30)" s:x="0" s:y="10" s:pid="in0">
      <text x="-3" y="-4" class="inputPortLabel">1:3</text>
    </g>
  </g>
  <g s:type="split" transform="translate(408,675)" s:width="5" s:height="40" id="cell_$split$,3,4,5,6,">
    <rect width="5" height="20" class="splitjoinBody" s:generic="body"/>
    <s:alias val="$_split_"/>
    <g s:x="0" s:y="20" s:pid="in"/>
    <g transform="translate(4,10)" s:x="4" s:y="10" s:pid="out0">
      <text x="5" y="-4">0</text>
    </g>
  </g>
  <g s:type="split" transform="translate(408,632)" s:width="5" s:height="40" id="cell_$split$,182,183,184,185,186,187,188,189,190,191,192,193,194,195,196,197,">
    <rect width="5" height="20" class="splitjoinBody" s:generic="body"/>
    <s:alias val="$_split_"/>
    <g s:x="0" s:y="20" s:pid="in"/>
    <g transform="translate(4,10)" s:x="4" s:y="10" s:pid="out0">
      <text x="5" y="-4">8:15</text>
    </g>
  </g>
  <line x1="526" x2="714.6666666666666" y1="829.5" y2="829.5" class="net_19,20,21,22,23"/>
  <line x1="525" x2="685" y1="917" y2="917" class="net_241"/>
  <line x1="685" x2="685" y1="917" y2="844.5" class="net_241"/>
  <circle cx="685" cy="917" r="2" style="fill:#000" class="net_241"/>
  <line x1="685" x2="714.6666666666666" y1="844.5" y2="844.5" class="net_241"/>
  <line x1="525" x2="1055" y1="917" y2="917" class="net_241"/>
  <line x1="1055" x2="1055" y1="917" y2="888" class="net_241"/>
  <line x1="1055" x2="1123" y1="888" y2="888" class="net_241"/>
  <line x1="525" x2="685" y1="917" y2="917" class="net_241"/>
  <line x1="685" x2="685" y1="917" y2="948" class="net_241"/>
  <line x1="685" x2="1123" y1="948" y2="948" class="net_241"/>
  <line x1="525" x2="750" y1="917" y2="917" class="net_241"/>
  <line x1="750" x2="750" y1="917" y2="857" class="net_241"/>
  <circle cx="750" cy="917" r="2" style="fill:#000" class="net_241"/>
  <line x1="750" x2="794" y1="857" y2="857" class="net_241"/>
  <line x1="740" x2="750" y1="1080.5" y2="1080.5" class="net_30,31,32,33,34,35,36,37,38,39,40,41,42,43,44,45,46,47,48,49,50,51,52,53,54,55,56,57,58,59,60,61"/>
  <line x1="750" x2="750" y1="1080.5" y2="1048" class="net_30,31,32,33,34,35,36,37,38,39,40,41,42,43,44,45,46,47,48,49,50,51,52,53,54,55,56,57,58,59,60,61"/>
  <line x1="750" x2="393" y1="1048" y2="1048" class="net_30,31,32,33,34,35,36,37,38,39,40,41,42,43,44,45,46,47,48,49,50,51,52,53,54,55,56,57,58,59,60,61"/>
  <line x1="393" x2="393" y1="1048" y2="1063" class="net_30,31,32,33,34,35,36,37,38,39,40,41,42,43,44,45,46,47,48,49,50,51,52,53,54,55,56,57,58,59,60,61"/>
  <circle cx="750" cy="1080.5" r="2" style="fill:#000" class="net_30,31,32,33,34,35,36,37,38,39,40,41,42,43,44,45,46,47,48,49,50,51,52,53,54,55,56,57,58,59,60,61"/>
  <line x1="393" x2="411" y1="1063" y2="1063" class="net_30,31,32,33,34,35,36,37,38,39,40,41,42,43,44,45,46,47,48,49,50,51,52,53,54,55,56,57,58,59,60,61"/>
  <line x1="740" x2="750" y1="1080.5" y2="1080.5" class="net_30,31,32,33,34,35,36,37,38,39,40,41,42,43,44,45,46,47,48,49,50,51,52,53,54,55,56,57,58,59,60,61"/>
  <line x1="750" x2="750" y1="1080.5" y2="1204" class="net_30,31,32,33,34,35,36,37,38,39,40,41,42,43,44,45,46,47,48,49,50,51,52,53,54,55,56,57,58,59,60,61"/>
  <line x1="750" x2="393" y1="1204" y2="1204" class="net_30,31,32,33,34,35,36,37,38,39,40,41,42,43,44,45,46,47,48,49,50,51,52,53,54,55,56,57,58,59,60,61"/>
  <line x1="393" x2="393" y1="1204" y2="1174" class="net_30,31,32,33,34,35,36,37,38,39,40,41,42,43,44,45,46,47,48,49,50,51,52,53,54,55,56,57,58,59,60,61"/>
  <line x1="393" x2="411" y1="1174" y2="1174" class="net_30,31,32,33,34,35,36,37,38,39,40,41,42,43,44,45,46,47,48,49,50,51,52,53,54,55,56,57,58,59,60,61"/>
  <line x1="740" x2="783" y1="1080.5" y2="1080.5" class="net_30,31,32,33,34,35,36,37,38,39,40,41,42,43,44,45,46,47,48,49,50,51,52,53,54,55,56,57,58,59,60,61"/>
  <line x1="144" x2="216" y1="253" y2="253" class="net_242"/>
  <line x1="216" x2="216" y1="253" y2="1078" class="net_242"/>
  <circle cx="216" cy="253" r="2" style="fill:#000" class="net_242"/>
  <line x1="216" x2="411" y1="1078" y2="1078" class="net_242"/>
  <line x1="144" x2="216" y1="253" y2="253" class="net_242"/>
  <line x1="216" x2="216" y1="253" y2="450.5" class="net_242"/>
  <circle cx="216" cy="450.5" r="2" style="fill:#000" class="net_242"/>
  <line x1="216" x2="242.33333333333334" y1="450.5" y2="450.5" class="net_242"/>
  <line x1="144" x2="907" y1="253" y2="253" class="net_242"/>
  <line x1="144" x2="216" y1="253" y2="253" class="net_242"/>
  <line x1="216" x2="216" y1="253" y2="937" class="net_242"/>
  <line x1="216" x2="1055" y1="937" y2="937" class="net_242"/>
  <line x1="1055" x2="1055" y1="937" y2="928" class="net_242"/>
  <circle cx="216" cy="937" r="2" style="fill:#000" class="net_242"/>
  <line x1="1055" x2="1123" y1="928" y2="928" class="net_242"/>
  <line x1="144" x2="478" y1="253" y2="253" class="net_242"/>
  <line x1="478" x2="478" y1="253" y2="340" class="net_242"/>
  <line x1="478" x2="750" y1="340" y2="340" class="net_242"/>
  <line x1="750" x2="750" y1="340" y2="344" class="net_242"/>
  <circle cx="478" cy="253" r="2" style="fill:#000" class="net_242"/>
  <line x1="750" x2="783" y1="344" y2="344" class="net_242"/>
  <line x1="438" x2="468" y1="433" y2="433" class="net_94,95"/>
  <line x1="468" x2="468" y1="433" y2="402" class="net_94,95"/>
  <line x1="468" x2="226" y1="402" y2="402" class="net_94,95"/>
  <line x1="226" x2="226" y1="402" y2="435.5" class="net_94,95"/>
  <circle cx="468" cy="402" r="2" style="fill:#000" class="net_94,95"/>
  <circle cx="468" cy="433" r="2" style="fill:#000" class="net_94,95"/>
  <line x1="226" x2="242.33333333333334" y1="435.5" y2="435.5" class="net_94,95"/>
  <line x1="438" x2="468" y1="433" y2="433" class="net_94,95"/>
  <line x1="468" x2="468" y1="433" y2="829.5" class="net_94,95"/>
  <line x1="468" x2="495" y1="829.5" y2="829.5" class="net_94,95"/>
  <line x1="438" x2="468" y1="433" y2="433" class="net_94,95"/>
  <line x1="468" x2="468" y1="433" y2="269" class="net_94,95"/>
  <line x1="468" x2="783" y1="269" y2="269" class="net_94,95"/>
  <line x1="438" x2="468" y1="433" y2="433" class="net_94,95"/>
  <line x1="468" x2="468" y1="433" y2="269" class="net_94,95"/>
  <line x1="468" x2="685" y1="269" y2="269" class="net_94,95"/>
  <line x1="685" x2="685" y1="269" y2="329" class="net_94,95"/>
  <circle cx="685" cy="269" r="2" style="fill:#000" class="net_94,95"/>
  <line x1="685" x2="783" y1="329" y2="329" class="net_94,95"/>
  <line x1="438" x2="468" y1="433" y2="433" class="net_94,95"/>
  <line x1="468" x2="468" y1="433" y2="614.5" class="net_94,95"/>
  <circle cx="468" cy="614.5" r="2" style="fill:#000" class="net_94,95"/>
  <line x1="468" x2="775" y1="614.5" y2="614.5" class="net_94,95"/>
  <line x1="438" x2="468" y1="433" y2="433" class="net_94,95"/>
  <line x1="468" x2="468" y1="433" y2="402" class="net_94,95"/>
  <line x1="468" x2="383" y1="402" y2="402" class="net_94,95"/>
  <line x1="383" x2="383" y1="402" y2="513" class="net_94,95"/>
  <line x1="383" x2="286" y1="513" y2="513" class="net_94,95"/>
  <line x1="286" x2="286" y1="513" y2="423" class="net_94,95"/>
  <circle cx="383" cy="402" r="2" style="fill:#000" class="net_94,95"/>
  <line x1="286" x2="321.6666666666667" y1="423" y2="423" class="net_94,95"/>
  <line x1="1392" x2="1450" y1="137" y2="137" class="net_98,99,100,101,102,103,104,105,106,107,108,109,110,111,112,113,114,115"/>
  <line x1="1450" x2="1450" y1="137" y2="117" class="net_98,99,100,101,102,103,104,105,106,107,108,109,110,111,112,113,114,115"/>
  <line x1="1450" x2="815" y1="117" y2="117" class="net_98,99,100,101,102,103,104,105,106,107,108,109,110,111,112,113,114,115"/>
  <line x1="815" x2="815" y1="117" y2="238" class="net_98,99,100,101,102,103,104,105,106,107,108,109,110,111,112,113,114,115"/>
  <circle cx="815" cy="117" r="2" style="fill:#000" class="net_98,99,100,101,102,103,104,105,106,107,108,109,110,111,112,113,114,115"/>
  <line x1="815" x2="907" y1="238" y2="238" class="net_98,99,100,101,102,103,104,105,106,107,108,109,110,111,112,113,114,115"/>
  <line x1="1392" x2="1450" y1="137" y2="137" class="net_98,99,100,101,102,103,104,105,106,107,108,109,110,111,112,113,114,115"/>
  <line x1="1450" x2="1450" y1="137" y2="117" class="net_98,99,100,101,102,103,104,105,106,107,108,109,110,111,112,113,114,115"/>
  <line x1="1450" x2="206" y1="117" y2="117" class="net_98,99,100,101,102,103,104,105,106,107,108,109,110,111,112,113,114,115"/>
  <line x1="206" x2="206" y1="117" y2="495.5" class="net_98,99,100,101,102,103,104,105,106,107,108,109,110,111,112,113,114,115"/>
  <line x1="206" x2="242.33333333333334" y1="495.5" y2="495.5" class="net_98,99,100,101,102,103,104,105,106,107,108,109,110,111,112,113,114,115"/>
  <line x1="878" x2="1055" y1="759.5" y2="759.5" class="net_134,135,136,137"/>
  <line x1="1055" x2="1055" y1="759.5" y2="868" class="net_134,135,136,137"/>
  <line x1="1055" x2="1123" y1="868" y2="868" class="net_134,135,136,137"/>
  <line x1="1065" x2="1123" y1="968" y2="968" class="net_"/>
  <line x1="1065" x2="1065" y1="968" y2="988" class="net_"/>
  <circle cx="1065" cy="988" r="2" style="fill:#000" class="net_"/>
  <line x1="1065" x2="1123" y1="988" y2="988" class="net_"/>
  <line x1="1065" x2="1065" y1="968" y2="1008" class="net_"/>
  <circle cx="1065" cy="1008" r="2" style="fill:#000" class="net_"/>
  <line x1="1065" x2="1123" y1="1008" y2="1008" class="net_"/>
  <line x1="1065" x2="1065" y1="968" y2="1028" class="net_"/>
  <line x1="1065" x2="1123" y1="1028" y2="1028" class="net_"/>
  <line x1="331" x2="411" y1="1189" y2="1189" class="net_248,249,250,251,252,253,254,255,256,257,258,259,260,261,262,263,264,265,266,267,268,269,270"/>
  <line x1="144" x2="186" y1="188" y2="188" class="net_271,272,273,274,275,276,277,278,279,280,281,282,283,284,285,286,287"/>
  <line x1="186" x2="186" y1="188" y2="510.5" class="net_271,272,273,274,275,276,277,278,279,280,281,282,283,284,285,286,287"/>
  <line x1="186" x2="242.33333333333334" y1="510.5" y2="510.5" class="net_271,272,273,274,275,276,277,278,279,280,281,282,283,284,285,286,287"/>
  <line x1="145" x2="408" y1="577" y2="577" class="net_140"/>
  <line x1="145" x2="226" y1="577" y2="577" class="net_140"/>
  <line x1="226" x2="226" y1="577" y2="598" class="net_140"/>
  <circle cx="226" cy="577" r="2" style="fill:#000" class="net_140"/>
  <line x1="226" x2="236" y1="598" y2="598" class="net_140"/>
  <line x1="347" x2="383" y1="598" y2="598" class="net_141"/>
  <line x1="383" x2="383" y1="598" y2="592" class="net_141"/>
  <line x1="383" x2="408" y1="592" y2="592" class="net_141"/>
  <line x1="438" x2="546.6666666666666" y1="584.5" y2="584.5" class="net_142"/>
  <line x1="413" x2="458" y1="685.5" y2="685.5" class="net_3"/>
  <line x1="458" x2="458" y1="685.5" y2="599.5" class="net_3"/>
  <line x1="458" x2="546.6666666666666" y1="599.5" y2="599.5" class="net_3"/>
  <line x1="266" x2="322" y1="598" y2="598" class="net_144"/>
  <line x1="740" x2="760" y1="1234" y2="1234" class="net_288,289,290,291,292,293,294,295,296,297"/>
  <line x1="760" x2="760" y1="1234" y2="1095.5" class="net_288,289,290,291,292,293,294,295,296,297"/>
  <line x1="760" x2="783" y1="1095.5" y2="1095.5" class="net_288,289,290,291,292,293,294,295,296,297"/>
  <line x1="438" x2="495" y1="849.5" y2="849.5" class="net_298,299,300"/>
  <line x1="40" x2="1362" y1="157" y2="157" class="net_2"/>
  <line x1="40" x2="52" y1="157" y2="157" class="net_2"/>
  <line x1="52" x2="52" y1="157" y2="525.5" class="net_2"/>
  <line x1="52" x2="393" y1="525.5" y2="525.5" class="net_2"/>
  <line x1="393" x2="393" y1="525.5" y2="453" class="net_2"/>
  <circle cx="52" cy="157" r="2" style="fill:#000" class="net_2"/>
  <circle cx="52" cy="525.5" r="2" style="fill:#000" class="net_2"/>
  <line x1="393" x2="408" y1="453" y2="453" class="net_2"/>
  <line x1="40" x2="52" y1="157" y2="157" class="net_2"/>
  <line x1="52" x2="52" y1="157" y2="618" class="net_2"/>
  <line x1="52" x2="226" y1="618" y2="618" class="net_2"/>
  <line x1="226" x2="226" y1="618" y2="779.5" class="net_2"/>
  <circle cx="52" cy="618" r="2" style="fill:#000" class="net_2"/>
  <circle cx="226" cy="618" r="2" style="fill:#000" class="net_2"/>
  <line x1="226" x2="775" y1="779.5" y2="779.5" class="net_2"/>
  <line x1="40" x2="52" y1="157" y2="157" class="net_2"/>
  <line x1="52" x2="52" y1="157" y2="618" class="net_2"/>
  <line x1="52" x2="236" y1="618" y2="618" class="net_2"/>
  <line x1="40" x2="52" y1="157" y2="157" class="net_2"/>
  <line x1="52" x2="52" y1="157" y2="1158" class="net_2"/>
  <line x1="52" x2="685" y1="1158" y2="1158" class="net_2"/>
  <line x1="685" x2="685" y1="1158" y2="1100.5" class="net_2"/>
  <line x1="685" x2="710" y1="1100.5" y2="1100.5" class="net_2"/>
  <line x1="40" x2="52" y1="157" y2="157" class="net_2"/>
  <line x1="52" x2="52" y1="157" y2="1158" class="net_2"/>
  <line x1="52" x2="276" y1="1158" y2="1158" class="net_2"/>
  <line x1="276" x2="276" y1="1158" y2="1254" class="net_2"/>
  <line x1="276" x2="815" y1="1254" y2="1254" class="net_2"/>
  <line x1="815" x2="815" y1="1254" y2="1108" class="net_2"/>
  <circle cx="276" cy="1158" r="2" style="fill:#000" class="net_2"/>
  <line x1="815" x2="887.25" y1="1108" y2="1108" class="net_2"/>
  <line x1="40" x2="52" y1="157" y2="157" class="net_2"/>
  <line x1="52" x2="52" y1="157" y2="557" class="net_2"/>
  <circle cx="52" cy="557" r="2" style="fill:#000" class="net_2"/>
  <line x1="52" x2="114" y1="557" y2="557" class="net_2"/>
  <line x1="1190" x2="1337" y1="411" y2="411" class="net_146,147,148,149,150,151,152,153,154,155,156,157,158,159,160,161,162,163"/>
  <line x1="1337" x2="1337" y1="411" y2="137" class="net_146,147,148,149,150,151,152,153,154,155,156,157,158,159,160,161,162,163"/>
  <line x1="1337" x2="1362" y1="137" y2="137" class="net_146,147,148,149,150,151,152,153,154,155,156,157,158,159,160,161,162,163"/>
  <line x1="341.6666666666667" x2="408" y1="433" y2="433" class="net_164,165"/>
  <line x1="736.6666666666666" x2="750" y1="371" y2="371" class="net_166,167,168,169,170,171,172,173,174,175,176,177,178,179,180,181"/>
  <line x1="750" x2="750" y1="371" y2="759.5" class="net_166,167,168,169,170,171,172,173,174,175,176,177,178,179,180,181"/>
  <line x1="750" x2="775" y1="759.5" y2="759.5" class="net_166,167,168,169,170,171,172,173,174,175,176,177,178,179,180,181"/>
  <line x1="570" x2="710" y1="1080.5" y2="1080.5" class="net_198,199,200,201,202,203,204,205,206,207,208,209,210,211,212,213,214,215,216,217,218,219,220,221,222,223,224,225,226,227,228,229"/>
  <line x1="805" x2="887.25" y1="1088" y2="1088" class="net_145"/>
  <line x1="877" x2="1170" y1="32" y2="32" class="net_301,302,303,304"/>
  <line x1="877" x2="1055" y1="97" y2="97" class="net_305,306,307,308,309,310,311,312,313,314,315,316"/>
  <line x1="1055" x2="1055" y1="97" y2="52" class="net_305,306,307,308,309,310,311,312,313,314,315,316"/>
  <line x1="1055" x2="1170" y1="52" y2="52" class="net_305,306,307,308,309,310,311,312,313,314,315,316"/>
  <line x1="899.75" x2="1180" y1="326.5" y2="326.5" class="net_230,231,232"/>
  <line x1="1180" x2="1180" y1="326.5" y2="57" class="net_230,231,232"/>
  <line x1="740" x2="750" y1="300" y2="300" class="net_317,318"/>
  <line x1="750" x2="750" y1="300" y2="284" class="net_317,318"/>
  <line x1="750" x2="783" y1="284" y2="284" class="net_317,318"/>
  <line x1="929" x2="1055" y1="245.5" y2="245.5" class="net_116,117,118,119,120,121,122,123,124,125,126,127,128,129,130,131,132,133"/>
  <line x1="1055" x2="1055" y1="245.5" y2="401" class="net_116,117,118,119,120,121,122,123,124,125,126,127,128,129,130,131,132,133"/>
  <line x1="1055" x2="1170" y1="401" y2="401" class="net_116,117,118,119,120,121,122,123,124,125,126,127,128,129,130,131,132,133"/>
  <line x1="877" x2="1170" y1="421" y2="421" class="net_320,321,322,323,324,325,326,327,328,329,330,331,332,333,334,335,336,337"/>
  <line x1="264.33333333333337" x2="276" y1="503" y2="503" class="net_139"/>
  <line x1="276" x2="276" y1="503" y2="728" class="net_139"/>
  <line x1="276" x2="1180" y1="728" y2="728" class="net_139"/>
  <circle cx="276" cy="503" r="2" style="fill:#000" class="net_139"/>
  <line x1="1180" x2="1180" y1="728" y2="426" class="net_139"/>
  <line x1="264.33333333333337" x2="331.6666666666667" y1="503" y2="503" class="net_139"/>
  <line x1="331.6666666666667" x2="331.6666666666667" y1="503" y2="448" class="net_139"/>
  <line x1="264.33333333333337" x2="321.6666666666667" y1="443" y2="443" class="net_96,97"/>
  <line x1="805" x2="815" y1="759.5" y2="759.5" class="net_182,183,184,185,186,187,188,189,190,191,192,193,194,195,196,197"/>
  <line x1="815" x2="815" y1="759.5" y2="739" class="net_182,183,184,185,186,187,188,189,190,191,192,193,194,195,196,197"/>
  <line x1="815" x2="685" y1="739" y2="739" class="net_182,183,184,185,186,187,188,189,190,191,192,193,194,195,196,197"/>
  <line x1="685" x2="685" y1="739" y2="361" class="net_182,183,184,185,186,187,188,189,190,191,192,193,194,195,196,197"/>
  <circle cx="685" cy="739" r="2" style="fill:#000" class="net_182,183,184,185,186,187,188,189,190,191,192,193,194,195,196,197"/>
  <circle cx="815" cy="759.5" r="2" style="fill:#000" class="net_182,183,184,185,186,187,188,189,190,191,192,193,194,195,196,197"/>
  <line x1="685" x2="716.6666666666666" y1="361" y2="361" class="net_182,183,184,185,186,187,188,189,190,191,192,193,194,195,196,197"/>
  <line x1="805" x2="847" y1="759.5" y2="759.5" class="net_182,183,184,185,186,187,188,189,190,191,192,193,194,195,196,197"/>
  <line x1="805" x2="815" y1="759.5" y2="759.5" class="net_182,183,184,185,186,187,188,189,190,191,192,193,194,195,196,197"/>
  <line x1="815" x2="815" y1="759.5" y2="739" class="net_182,183,184,185,186,187,188,189,190,191,192,193,194,195,196,197"/>
  <line x1="815" x2="478" y1="739" y2="739" class="net_182,183,184,185,186,187,188,189,190,191,192,193,194,195,196,197"/>
  <line x1="478" x2="478" y1="739" y2="665" class="net_182,183,184,185,186,187,188,189,190,191,192,193,194,195,196,197"/>
  <line x1="478" x2="408.5" y1="665" y2="665" class="net_182,183,184,185,186,187,188,189,190,191,192,193,194,195,196,197"/>
  <line x1="408.5" x2="408.5" y1="665" y2="653" class="net_182,183,184,185,186,187,188,189,190,191,192,193,194,195,196,197"/>
  <line x1="561.3333333333334" x2="716.6666666666666" y1="381" y2="381" class="net_190,191,192,193,194,195,196,197,233,234,235,236,237,238,239,240"/>
  <line x1="576.6666666666666" x2="726.6666666666666" y1="592" y2="592" class="net_143"/>
  <line x1="726.6666666666666" x2="726.6666666666666" y1="592" y2="386" class="net_143"/>
  <line x1="433" x2="550" y1="1070.5" y2="1070.5" class="net_62,63,64,65,66,67,68,69,70,71,72,73,74,75,76,77,78,79,80,81,82,83,84,85,86,87,88,89,90,91,92,93"/>
  <line x1="438" x2="448" y1="1138" y2="1138" class="net_338,339,340,341,342,343,344,345,346,347,348,349,350,351,352,353,354,355,356,357,358,359,360,361,362,363,364,365,366,367,368,369"/>
  <line x1="448" x2="448" y1="1138" y2="1090.5" class="net_338,339,340,341,342,343,344,345,346,347,348,349,350,351,352,353,354,355,356,357,358,359,360,361,362,363,364,365,366,367,368,369"/>
  <line x1="448" x2="550" y1="1090.5" y2="1090.5" class="net_338,339,340,341,342,343,344,345,346,347,348,349,350,351,352,353,354,355,356,357,358,359,360,361,362,363,364,365,366,367,368,369"/>
  <line x1="433" x2="458" y1="1181.5" y2="1181.5" class="net_138"/>
  <line x1="458" x2="458" y1="1181.5" y2="1110.5" class="net_138"/>
  <line x1="458" x2="560" y1="1110.5" y2="1110.5" class="net_138"/>
  <line x1="560" x2="560" y1="1110.5" y2="1095.5" class="net_138"/>
  <line x1="800" x2="815" y1="847" y2="847" class="net_24,25,26,27,28,29,241"/>
  <line x1="815" x2="815" y1="847" y2="779.5" class="net_24,25,26,27,28,29,241"/>
  <line x1="815" x2="847" y1="779.5" y2="779.5" class="net_24,25,26,27,28,29,241"/>
  <line x1="917.25" x2="1055" y1="1088" y2="1088" class="net_18"/>
  <line x1="1055" x2="1055" y1="1088" y2="978" class="net_18"/>
  <line x1="1055" x2="62" y1="978" y2="978" class="net_18"/>
  <line x1="62" x2="62" y1="978" y2="577" class="net_18"/>
  <circle cx="1055" cy="1088" r="2" style="fill:#000" class="net_18"/>
  <line x1="62" x2="114" y1="577" y2="577" class="net_18"/>
  <line x1="917.25" x2="1175.3333333333333" y1="1088" y2="1088" class="net_18"/>
  <line x1="1154" x2="1362" y1="868" y2="868" class="net_7,8,9,10,11,12,13"/>
  <line x1="1190" x2="1362" y1="42" y2="42" class="net_14,15,16,17"/>
  <line x1="1181.3333333333333" x2="1362" y1="1098" y2="1098" class="net_18,371,372,373"/>
  <line x1="805" x2="815" y1="276.5" y2="276.5" class="net_230"/>
  <line x1="815" x2="815" y1="276.5" y2="316.5" class="net_230"/>
  <line x1="815" x2="893.75" y1="316.5" y2="316.5" class="net_230"/>
  <line x1="805" x2="893.75" y1="336.5" y2="336.5" class="net_231"/>
  <line x1="800" x2="815" y1="614.5" y2="614.5" class="net_232"/>
  <line x1="815" x2="815" y1="614.5" y2="356.5" class="net_232"/>
  <line x1="815" x2="893.75" y1="356.5" y2="356.5" class="net_232"/>
  <line x1="413" x2="448" y1="642.5" y2="642.5" class="net_190,191,192,193,194,195,196,197"/>
  <line x1="448" x2="448" y1="642.5" y2="371" class="net_190,191,192,193,194,195,196,197"/>
  <line x1="448" x2="555.3333333333334" y1="371" y2="371" class="net_190,191,192,193,194,195,196,197"/>
  <line x1="145" x2="196" y1="557" y2="557" class="net_233,234,235,236,237,238,239,240"/>
  <line x1="196" x2="196" y1="557" y2="391" class="net_233,234,235,236,237,238,239,240"/>
  <line x1="196" x2="555.3333333333334" y1="391" y2="391" class="net_233,234,235,236,237,238,239,240"/>
  <line x1="736.6666666666666" x2="794" y1="837" y2="837" class="net_24,25,26,27,28,29"/>
  <line x1="877" x2="1055" y1="1173" y2="1173" class="net_371,372,373"/>
  <line x1="1055" x2="1055" y1="1173" y2="1108" class="net_371,372,373"/>
  <line x1="1055" x2="1175.3333333333333" y1="1108" y2="1108" class="net_371,372,373"/>
  <line x1="329" x2="408.5" y1="708" y2="708" class="net_3,4,5,6"/>
  <line x1="408.5" x2="408.5" y1="708" y2="696" class="net_3,4,5,6"/>
</svg>
