<svg xmlns="http://www.w3.org/2000/svg" xmlns:xlink="http://www.w3.org/1999/xlink" xmlns:s="https://github.com/nturley/netlistsvg" width="321" height="179"><style>svg {
  stroke:#000;
  fill:none;
}
text {
  fill:#000;
  stroke:none;
  font-size:10px;
  font-weight: bold;
  font-family: "Courier New", monospace;
}
line {
    stroke-linecap: round;
}
.nodelabel {
  text-anchor: middle;
}
.inputPortLabel {
  text-anchor: end;
}
.splitjoinBody {
  fill:#000;
}</style><g s:type="dff" transform="translate(113,77)" s:width="30" s:height="40" id="cell_:10"><s:alias val="$dff"/><s:alias val="$_DFF_"/><s:alias val="$_DFF_P_"/><s:alias val="$adff"/><s:alias val="$_DFF_"/><s:alias val="$_DFF_P_"/><s:alias val="$sdff"/><s:alias val="$_DFF_"/><s:alias val="$_DFF_P_"/><rect width="30" height="40" x="0" y="0" fill="#ffffff" class="cell_:10"/><path d="M0,35 L5,30 L0,25" fill="#ffffff" class="cell_:10"/><g s:x="31" s:y="10" s:pid="Q"/><g s:x="-1" s:y="30" s:pid="CLK"/><g s:x="-1" s:y="30" s:pid="C"/><g s:x="-1" s:y="10" s:pid="D"/><g s:x="15" s:y="40" s:pid="ARST"/><g s:x="15" s:y="40" s:pid="SRST"/></g><g s:type="not" transform="translate(23,77)" s:width="30" s:height="20" id="cell_:5"><s:alias val="$_NOT_"/><s:alias val="$not"/><s:alias val="$logic_not"/><path d="M0,0 L0,20 L20,10 Z" fill="#ffffff" class="cell_:5"/><circle cx="24" cy="10" r="3" fill="#ffffff" class="cell_:5"/><g s:x="-1" s:y="10" s:pid="A"/><g s:x="27" s:y="10" s:pid="Y"/></g><g s:type="mux" transform="translate(200,22)" s:width="20" s:height="40" id="cell_:9"><s:alias val="$pmux"/><s:alias val="$mux"/><s:alias val="$_MUX_"/><path d="M0,0 L20,10 L20,30 L0,40 Z" fill="#ffffff" class="cell_:9"/><text x="5" y="32" class="nodelabel cell_:9" s:attribute="">1</text><text x="5" y="13" class="nodelabel cell_:9" s:attribute="">0</text><g s:x="0" s:y="10" s:pid="A"/><g s:x="0" s:y="30" s:pid="B"/><g s:x="10" s:y="35" s:pid="S"/><g s:x="20" s:y="20" s:pid="Y"/></g><g s:type="inputExt" transform="translate(22,22)" s:width="30" s:height="20" id="cell_signalIn"><text x="15" y="-4" class="nodelabel cell_signalIn" s:attribute="ref">signalIn</text><s:alias val="$_inputExt_"/><path d="M0,0 L0,20 L15,20 L30,10 L15,0 Z" fill="#ffffff" class="cell_signalIn"/><g s:x="30" s:y="10" s:pid="Y"/></g><g s:type="inputExt" transform="translate(105,147)" s:width="30" s:height="20" id="cell_toggleMode"><text x="15" y="-4" class="nodelabel cell_toggleMode" s:attribute="ref">toggleMode</text><s:alias val="$_inputExt_"/><path d="M0,0 L0,20 L15,20 L30,10 L15,0 Z" fill="#ffffff" class="cell_toggleMode"/><g s:x="30" s:y="10" s:pid="Y"/></g><g s:type="outputExt" transform="translate(255,32)" s:width="30" s:height="20" id="cell_signalOut"><text x="15" y="-4" class="nodelabel cell_signalOut" s:attribute="ref">signalOut</text><s:alias val="$_outputExt_"/><path d="M30,0 L30,20 L15,20 L0,10 L15,0 Z" fill="#ffffff" class="cell_signalOut"/><g s:x="0" s:y="10" s:pid="A"/></g><line x1="52" x2="80" y1="32" y2="32" class="net_2 width_1" style="stroke-width: 1"/><line x1="80" x2="80" y1="32" y2="107" class="net_2 width_1" style="stroke-width: 1"/><circle cx="80" cy="32" r="2" style="fill:#000" class="net_2 width_1"/><line x1="80" x2="112" y1="107" y2="107" class="net_2 width_1" style="stroke-width: 1"/><line x1="52" x2="200" y1="32" y2="32" class="net_2 width_1" style="stroke-width: 1"/><line x1="50" x2="112" y1="87" y2="87" class="net_5 width_1" style="stroke-width: 1"/><line x1="144" x2="175" y1="87" y2="87" class="net_6 width_1" style="stroke-width: 1"/><line x1="175" x2="175" y1="87" y2="127" class="net_6 width_1" style="stroke-width: 1"/><line x1="175" x2="12" y1="127" y2="127" class="net_6 width_1" style="stroke-width: 1"/><line x1="12" x2="12" y1="127" y2="87" class="net_6 width_1" style="stroke-width: 1"/><line x1="12" x2="22" y1="87" y2="87" class="net_6 width_1" style="stroke-width: 1"/><line x1="144" x2="175" y1="87" y2="87" class="net_6 width_1" style="stroke-width: 1"/><line x1="175" x2="175" y1="87" y2="52" class="net_6 width_1" style="stroke-width: 1"/><circle cx="175" cy="87" r="2" style="fill:#000" class="net_6 width_1"/><line x1="175" x2="200" y1="52" y2="52" class="net_6 width_1" style="stroke-width: 1"/><line x1="135" x2="210" y1="157" y2="157" class="net_3 width_1" style="stroke-width: 1"/><line x1="210" x2="210" y1="157" y2="57" class="net_3 width_1" style="stroke-width: 1"/><line x1="220" x2="255" y1="42" y2="42" class="net_4 width_1" style="stroke-width: 1"/></svg>