<svg xmlns="http://www.w3.org/2000/svg" xmlns:xlink="http://www.w3.org/1999/xlink" xmlns:s="https://github.com/nturley/netlistsvg" width="633.5" height="216.5"><style>svg {
  stroke:#000;
  fill:none;
}
text {
  fill:#000;
  stroke:none;
  font-size:10px;
  font-weight: bold;
  font-family: "Courier New", monospace;
}
line {
    stroke-linecap: round;
}
.nodelabel {
  text-anchor: middle;
}
.inputPortLabel {
  text-anchor: end;
}
.splitjoinBody {
  fill:#000;
}</style><g s:type="dff-bus" transform="translate(381.5,42)" s:width="34" s:height="44" id="cell_:12"><s:alias val="$dff-bus"/><s:alias val="$_DFF_-bus"/><s:alias val="$_DFF_P_-bus"/><s:alias val="adff-bus"/><s:alias val="$adff-bus"/><s:alias val="$_DFF_-bus"/><s:alias val="$_DFF_P_-bus"/><s:alias val="sdff-bus"/><s:alias val="$sdff-bus"/><s:alias val="$_DFF_-bus"/><s:alias val="$_DFF_P_-bus"/><rect width="30" height="40" x="0" y="0" fill="#ffffff" class="cell_:12"/><path d="M0,35 L5,30 L0,25" fill="#ffffff" class="cell_:12"/><path d="M30,2 L32,2 L32,42 L2,42 L2,40" fill="#ffffff" class="cell_:12"/><path d="M32,4 L34,4 L34,44 L4,44 L4,42" fill="#ffffff" class="cell_:12"/><g s:x="35" s:y="10" s:pid="Q"/><g s:x="-1" s:y="30" s:pid="CLK"/><g s:x="-1" s:y="30" s:pid="C"/><g s:x="-1" s:y="10" s:pid="D"/><g s:x="17" s:y="44" s:pid="ARST"/><g s:x="17" s:y="44" s:pid="SRST"/></g><g s:type="mux-bus" transform="translate(256,32)" s:width="24" s:height="40" id="cell_:8"><s:alias val="$pmux-bus"/><s:alias val="$mux-bus"/><s:alias val="$_MUX_-bus"/><path d="M0,0 L20,10 L20,30 L0,40 Z" fill="#ffffff" class="cell_:8"/><path d="M4,2 L4,0 L22,9 L22,31 L4,40 L4,38" fill="#ffffff" class="cell_:8"/><path d="M8,2 L8,0 L24,8 L24,32 L8,40 L8,38" fill="#ffffff" class="cell_:8"/><text x="5" y="32" class="nodelabel cell_:8" s:attribute="">1</text><text x="5" y="13" class="nodelabel cell_:8" s:attribute="">0</text><g s:x="-1" s:y="10" s:pid="A"/><g s:x="-1" s:y="30" s:pid="B"/><g s:x="12" s:y="38" s:pid="S"/><g s:x="24.5" s:y="20" s:pid="Y"/></g><g s:type="inputExt" transform="translate(315.5,103)" s:width="30" s:height="20" id="cell_clk"><text x="15" y="-4" class="nodelabel cell_clk" s:attribute="ref">clk</text><s:alias val="$_inputExt_"/><path d="M0,0 L0,20 L15,20 L30,10 L15,0 Z" fill="#ffffff" class="cell_clk"/><g s:x="30" s:y="10" s:pid="Y"/></g><g s:type="inputExt" transform="translate(190,167.5)" s:width="30" s:height="20" id="cell_load"><text x="15" y="-4" class="nodelabel cell_load" s:attribute="ref">load</text><s:alias val="$_inputExt_"/><path d="M0,0 L0,20 L15,20 L30,10 L15,0 Z" fill="#ffffff" class="cell_load"/><g s:x="30" s:y="10" s:pid="Y"/></g><g s:type="inputExt" transform="translate(101,106.5)" s:width="30" s:height="20" id="cell_load_data"><text x="15" y="-4" class="nodelabel cell_load_data" s:attribute="ref">load_data</text><s:alias val="$_inputExt_"/><path d="M0,0 L0,20 L15,20 L30,10 L15,0 Z" fill="#ffffff" class="cell_load_data"/><g s:x="30" s:y="10" s:pid="Y"/></g><g s:type="inputExt" transform="translate(12,22)" s:width="30" s:height="20" id="cell_serial_in"><text x="15" y="-4" class="nodelabel cell_serial_in" s:attribute="ref">serial_in</text><s:alias val="$_inputExt_"/><path d="M0,0 L0,20 L15,20 L30,10 L15,0 Z" fill="#ffffff" class="cell_serial_in"/><g s:x="30" s:y="10" s:pid="Y"/></g><g s:type="outputExt" transform="translate(549.5,42)" s:width="30" s:height="20" id="cell_parallel_out"><text x="15" y="-4" class="nodelabel cell_parallel_out" s:attribute="ref">parallel_out</text><s:alias val="$_outputExt_"/><path d="M30,0 L30,20 L15,20 L0,10 L15,0 Z" fill="#ffffff" class="cell_parallel_out"/><g s:x="0" s:y="10" s:pid="A"/></g><g s:type="outputExt" transform="translate(549.5,107)" s:width="30" s:height="20" id="cell_serial_out"><text x="15" y="-4" class="nodelabel cell_serial_out" s:attribute="ref">serial_out</text><s:alias val="$_outputExt_"/><path d="M30,0 L30,20 L15,20 L0,10 L15,0 Z" fill="#ffffff" class="cell_serial_out"/><g s:x="0" s:y="10" s:pid="A"/></g><g s:type="join" transform="translate(126.33333333333333,21.5)" s:width="4" s:height="40" id="cell_$join$,12,13,14,15,16,17,18,19,"><rect width="5" height="40" class="splitjoinBody" s:generic="body"/><s:alias val="$_join_"/><g s:x="5" s:y="20" s:pid="out"/><g transform="translate(0,10)" s:x="0" s:y="10" s:pid="in0"><text x="-3" y="-4" class="inputPortLabel">0</text></g><g transform="translate(0,30)" s:x="0" s:y="10" s:pid="in0"><text x="-3" y="-4" class="inputPortLabel">1:7</text></g></g><g s:type="split" transform="translate(490.5,86.5)" s:width="5" s:height="40" id="cell_$split$,13,14,15,16,17,18,19,20,"><rect width="5" height="40" class="splitjoinBody" s:generic="body"/><s:alias val="$_split_"/><g s:x="0" s:y="20" s:pid="in"/><g transform="translate(4,10)" s:x="4" s:y="10" s:pid="out0"><text x="5" y="-4">0:6</text></g><g transform="translate(4,30)" s:x="4" s:y="10" s:pid="out0"><text x="5" y="-4">7</text></g></g><line x1="345.5" x2="355.5" y1="113" y2="113" class="net_2 width_1" style="stroke-width: 1"/><line x1="355.5" x2="355.5" y1="113" y2="72" class="net_2 width_1" style="stroke-width: 1"/><line x1="355.5" x2="380.5" y1="72" y2="72" class="net_2 width_1" style="stroke-width: 1"/><line x1="280.5" x2="380.5" y1="52" y2="52" class="net_21,22,23,24,25,26,27,28 width_8" style="stroke-width: 2"/><line x1="132.33333333333331" x2="255" y1="42" y2="42" class="net_12,13,14,15,16,17,18,19 width_8" style="stroke-width: 2"/><line x1="131" x2="230" y1="116.5" y2="116.5" class="net_4,5,6,7,8,9,10,11 width_8" style="stroke-width: 2"/><line x1="230" x2="230" y1="116.5" y2="62" class="net_4,5,6,7,8,9,10,11 width_8" style="stroke-width: 2"/><line x1="230" x2="255" y1="62" y2="62" class="net_4,5,6,7,8,9,10,11 width_8" style="stroke-width: 2"/><line x1="220" x2="268" y1="177.5" y2="177.5" class="net_3 width_1" style="stroke-width: 1"/><line x1="268" x2="268" y1="177.5" y2="70" class="net_3 width_1" style="stroke-width: 1"/><line x1="416.5" x2="549.5" y1="52" y2="52" class="net_13,14,15,16,17,18,19,20 width_8" style="stroke-width: 2"/><line x1="416.5" x2="426.5" y1="52" y2="52" class="net_13,14,15,16,17,18,19,20 width_8" style="stroke-width: 2"/><line x1="426.5" x2="426.5" y1="52" y2="107" class="net_13,14,15,16,17,18,19,20 width_8" style="stroke-width: 2"/><circle cx="426.5" cy="52" r="3" style="fill:#000" class="net_13,14,15,16,17,18,19,20 width_8"/><line x1="426.5" x2="490.5" y1="107" y2="107" class="net_13,14,15,16,17,18,19,20 width_8" style="stroke-width: 2"/><line x1="495.5" x2="549.5" y1="117" y2="117" class="net_20 width_1" style="stroke-width: 1"/><line x1="42" x2="126.33333333333333" y1="32" y2="32" class="net_12 width_1" style="stroke-width: 1"/><line x1="495.5" x2="524.5" y1="97" y2="97" class="net_13,14,15,16,17,18,19 width_7" style="stroke-width: 2"/><line x1="524.5" x2="524.5" y1="97" y2="198.5" class="net_13,14,15,16,17,18,19 width_7" style="stroke-width: 2"/><line x1="524.5" x2="76" y1="198.5" y2="198.5" class="net_13,14,15,16,17,18,19 width_7" style="stroke-width: 2"/><line x1="76" x2="76" y1="198.5" y2="52" class="net_13,14,15,16,17,18,19 width_7" style="stroke-width: 2"/><line x1="76" x2="126.33333333333333" y1="52" y2="52" class="net_13,14,15,16,17,18,19 width_7" style="stroke-width: 2"/><rect x="329.5" y="47" width="16" height="9" class="net_21,22,23,24,25,26,27,28 width_8 busLabel_8" style="fill: white; stroke: none"/><text x="328.5" y="55" class="net_21,22,23,24,25,26,27,28 width_8 busLabel_8">/8/</text><rect x="204" y="37" width="16" height="9" class="net_12,13,14,15,16,17,18,19 width_8 busLabel_8" style="fill: white; stroke: none"/><text x="203" y="45" class="net_12,13,14,15,16,17,18,19 width_8 busLabel_8">/8/</text><rect x="204" y="111.5" width="16" height="9" class="net_4,5,6,7,8,9,10,11 width_8 busLabel_8" style="fill: white; stroke: none"/><text x="203" y="119.5" class="net_4,5,6,7,8,9,10,11 width_8 busLabel_8">/8/</text><rect x="452.5" y="102" width="16" height="9" class="net_13,14,15,16,17,18,19,20 width_8 busLabel_8" style="fill: white; stroke: none"/><text x="451.5" y="110" class="net_13,14,15,16,17,18,19,20 width_8 busLabel_8">/8/</text><rect x="452.5" y="102" width="16" height="9" class="net_13,14,15,16,17,18,19,20 width_8 busLabel_8" style="fill: white; stroke: none"/><text x="451.5" y="110" class="net_13,14,15,16,17,18,19,20 width_8 busLabel_8">/8/</text><rect x="329.5" y="193.5" width="16" height="9" class="net_13,14,15,16,17,18,19 width_7 busLabel_7" style="fill: white; stroke: none"/><text x="328.5" y="201.5" class="net_13,14,15,16,17,18,19 width_7 busLabel_7">/7/</text></svg>