<svg xmlns="http://www.w3.org/2000/svg" xmlns:xlink="http://www.w3.org/1999/xlink" xmlns:s="https://github.com/nturley/netlistsvg" width="747.5" height="675"><style>svg {
  stroke:#000;
  fill:none;
}
text {
  fill:#000;
  stroke:none;
  font-size:10px;
  font-weight: bold;
  font-family: "Courier New", monospace;
}
line {
    stroke-linecap: round;
}
.nodelabel {
  text-anchor: middle;
}
.inputPortLabel {
  text-anchor: end;
}
.splitjoinBody {
  fill:#000;
}</style><g s:type="add" transform="translate(221,130.5)" s:width="25" s:height="25" id="cell_$add$mod_counter.v:29$3"><s:alias val="$add"/><circle r="12.5" cx="12.5" cy="12.5" fill="#ffffff" class="cell_$add$mod_counter.v:29$3"/><line x1="7.5" x2="17.5" y1="12.5" y2="12.5" fill="#ffffff" class="cell_$add$mod_counter.v:29$3"/><line x1="12.5" x2="12.5" y1="7.5" y2="17.5" fill="#ffffff" class="cell_$add$mod_counter.v:29$3"/><g s:x="2" s:y="5" s:pid="A"/><g s:x="2" s:y="20" s:pid="B"/><g s:x="26" s:y="12.5" s:pid="Y"/></g><g s:type="eq" transform="translate(287.3333333333333,531)" s:width="25" s:height="25" id="cell_$eq$mod_counter.v:25$2"><s:alias val="$eq"/><s:alias val="$eqx"/><circle r="12.5" cx="12.5" cy="12.5" fill="#ffffff" class="cell_$eq$mod_counter.v:25$2"/><line x1="7.5" x2="17.5" y1="10" y2="10" fill="#ffffff" class="cell_$eq$mod_counter.v:25$2"/><line x1="7.5" x2="17.5" y1="15" y2="15" fill="#ffffff" class="cell_$eq$mod_counter.v:25$2"/><g s:x="2" s:y="5" s:pid="A"/><g s:x="2" s:y="20" s:pid="B"/><g s:x="25" s:y="12.5" s:pid="Y"/></g><g s:type="not" transform="translate(286,408.5)" s:width="30" s:height="20" id="cell_$eq$mod_counter.v:33$4"><s:alias val="$_NOT_"/><s:alias val="$not"/><s:alias val="$logic_not"/><path d="M0,0 L0,20 L20,10 Z" fill="#ffffff" class="cell_$eq$mod_counter.v:33$4"/><circle cx="24" cy="10" r="3" fill="#ffffff" class="cell_$eq$mod_counter.v:33$4"/><g s:x="-1" s:y="10" s:pid="A"/><g s:x="27" s:y="10" s:pid="Y"/></g><g s:type="dff" transform="translate(581.5,398.5)" s:width="30" s:height="40" id="cell_$procdff$32"><s:alias val="$dff"/><s:alias val="$_DFF_"/><s:alias val="$_DFF_P_"/><s:alias val="$adff"/><s:alias val="$_DFF_"/><s:alias val="$_DFF_P_"/><s:alias val="$sdff"/><s:alias val="$_DFF_"/><s:alias val="$_DFF_P_"/><rect width="30" height="40" x="0" y="0" fill="#ffffff" class="cell_$procdff$32"/><path d="M0,35 L5,30 L0,25" fill="#ffffff" class="cell_$procdff$32"/><g s:x="31" s:y="10" s:pid="Q"/><g s:x="-1" s:y="30" s:pid="CLK"/><g s:x="-1" s:y="30" s:pid="C"/><g s:x="-1" s:y="10" s:pid="D"/><g s:x="15" s:y="40" s:pid="ARST"/><g s:x="15" s:y="40" s:pid="SRST"/></g><g s:type="dff-bus" transform="translate(78,125.5)" s:width="34" s:height="44" id="cell_$procdff$33"><s:alias val="$dff-bus"/><s:alias val="$_DFF_-bus"/><s:alias val="$_DFF_P_-bus"/><s:alias val="adff-bus"/><s:alias val="$adff-bus"/><s:alias val="$_DFF_-bus"/><s:alias val="$_DFF_P_-bus"/><s:alias val="sdff-bus"/><s:alias val="$sdff-bus"/><s:alias val="$_DFF_-bus"/><s:alias val="$_DFF_P_-bus"/><rect width="30" height="40" x="0" y="0" fill="#ffffff" class="cell_$procdff$33"/><path d="M0,35 L5,30 L0,25" fill="#ffffff" class="cell_$procdff$33"/><path d="M30,2 L32,2 L32,42 L2,42 L2,40" fill="#ffffff" class="cell_$procdff$33"/><path d="M32,4 L34,4 L34,44 L4,44 L4,42" fill="#ffffff" class="cell_$procdff$33"/><g s:x="35" s:y="10" s:pid="Q"/><g s:x="-1" s:y="30" s:pid="CLK"/><g s:x="-1" s:y="30" s:pid="C"/><g s:x="-1" s:y="10" s:pid="D"/><g s:x="17" s:y="44" s:pid="ARST"/><g s:x="17" s:y="44" s:pid="SRST"/></g><g s:type="mux-bus" transform="translate(376.3333333333333,133)" s:width="24" s:height="40" id="cell_$procmux$13"><s:alias val="$pmux-bus"/><s:alias val="$mux-bus"/><s:alias val="$_MUX_-bus"/><path d="M0,0 L20,10 L20,30 L0,40 Z" fill="#ffffff" class="cell_$procmux$13"/><path d="M4,2 L4,0 L22,9 L22,31 L4,40 L4,38" fill="#ffffff" class="cell_$procmux$13"/><path d="M8,2 L8,0 L24,8 L24,32 L8,40 L8,38" fill="#ffffff" class="cell_$procmux$13"/><text x="5" y="32" class="nodelabel cell_$procmux$13" s:attribute="">1</text><text x="5" y="13" class="nodelabel cell_$procmux$13" s:attribute="">0</text><g s:x="-1" s:y="10" s:pid="A"/><g s:x="-1" s:y="30" s:pid="B"/><g s:x="12" s:y="38" s:pid="S"/><g s:x="24.5" s:y="20" s:pid="Y"/></g><g s:type="mux-bus" transform="translate(521,83)" s:width="24" s:height="40" id="cell_$procmux$15"><s:alias val="$pmux-bus"/><s:alias val="$mux-bus"/><s:alias val="$_MUX_-bus"/><path d="M0,0 L20,10 L20,30 L0,40 Z" fill="#ffffff" class="cell_$procmux$15"/><path d="M4,2 L4,0 L22,9 L22,31 L4,40 L4,38" fill="#ffffff" class="cell_$procmux$15"/><path d="M8,2 L8,0 L24,8 L24,32 L8,40 L8,38" fill="#ffffff" class="cell_$procmux$15"/><text x="5" y="32" class="nodelabel cell_$procmux$15" s:attribute="">1</text><text x="5" y="13" class="nodelabel cell_$procmux$15" s:attribute="">0</text><g s:x="-1" s:y="10" s:pid="A"/><g s:x="-1" s:y="30" s:pid="B"/><g s:x="12" s:y="38" s:pid="S"/><g s:x="24.5" s:y="20" s:pid="Y"/></g><g s:type="mux-bus" transform="translate(648.5,93)" s:width="24" s:height="40" id="cell_$procmux$18"><s:alias val="$pmux-bus"/><s:alias val="$mux-bus"/><s:alias val="$_MUX_-bus"/><path d="M0,0 L20,10 L20,30 L0,40 Z" fill="#ffffff" class="cell_$procmux$18"/><path d="M4,2 L4,0 L22,9 L22,31 L4,40 L4,38" fill="#ffffff" class="cell_$procmux$18"/><path d="M8,2 L8,0 L24,8 L24,32 L8,40 L8,38" fill="#ffffff" class="cell_$procmux$18"/><text x="5" y="32" class="nodelabel cell_$procmux$18" s:attribute="">1</text><text x="5" y="13" class="nodelabel cell_$procmux$18" s:attribute="">0</text><g s:x="-1" s:y="10" s:pid="A"/><g s:x="-1" s:y="30" s:pid="B"/><g s:x="12" s:y="38" s:pid="S"/><g s:x="24.5" s:y="20" s:pid="Y"/></g><g s:type="mux" transform="translate(377.6666666666667,368.5)" s:width="20" s:height="40" id="cell_$procmux$21"><s:alias val="$pmux"/><s:alias val="$mux"/><s:alias val="$_MUX_"/><path d="M0,0 L20,10 L20,30 L0,40 Z" fill="#ffffff" class="cell_$procmux$21"/><text x="5" y="32" class="nodelabel cell_$procmux$21" s:attribute="">1</text><text x="5" y="13" class="nodelabel cell_$procmux$21" s:attribute="">0</text><g s:x="0" s:y="10" s:pid="A"/><g s:x="0" s:y="30" s:pid="B"/><g s:x="10" s:y="35" s:pid="S"/><g s:x="20" s:y="20" s:pid="Y"/></g><g s:type="mux" transform="translate(377.6666666666667,493.5)" s:width="20" s:height="40" id="cell_$procmux$25"><s:alias val="$pmux"/><s:alias val="$mux"/><s:alias val="$_MUX_"/><path d="M0,0 L20,10 L20,30 L0,40 Z" fill="#ffffff" class="cell_$procmux$25"/><text x="5" y="32" class="nodelabel cell_$procmux$25" s:attribute="">1</text><text x="5" y="13" class="nodelabel cell_$procmux$25" s:attribute="">0</text><g s:x="0" s:y="10" s:pid="A"/><g s:x="0" s:y="30" s:pid="B"/><g s:x="10" s:y="35" s:pid="S"/><g s:x="20" s:y="20" s:pid="Y"/></g><g s:type="mux" transform="translate(458.3333333333333,378.5)" s:width="20" s:height="40" id="cell_$procmux$27"><s:alias val="$pmux"/><s:alias val="$mux"/><s:alias val="$_MUX_"/><path d="M0,0 L20,10 L20,30 L0,40 Z" fill="#ffffff" class="cell_$procmux$27"/><text x="5" y="32" class="nodelabel cell_$procmux$27" s:attribute="">1</text><text x="5" y="13" class="nodelabel cell_$procmux$27" s:attribute="">0</text><g s:x="0" s:y="10" s:pid="A"/><g s:x="0" s:y="30" s:pid="B"/><g s:x="10" s:y="35" s:pid="S"/><g s:x="20" s:y="20" s:pid="Y"/></g><g s:type="mux" transform="translate(523.5,388.5)" s:width="20" s:height="40" id="cell_$procmux$30"><s:alias val="$pmux"/><s:alias val="$mux"/><s:alias val="$_MUX_"/><path d="M0,0 L20,10 L20,30 L0,40 Z" fill="#ffffff" class="cell_$procmux$30"/><text x="5" y="32" class="nodelabel cell_$procmux$30" s:attribute="">1</text><text x="5" y="13" class="nodelabel cell_$procmux$30" s:attribute="">0</text><g s:x="0" s:y="10" s:pid="A"/><g s:x="0" s:y="30" s:pid="B"/><g s:x="10" s:y="35" s:pid="S"/><g s:x="20" s:y="20" s:pid="Y"/></g><g s:type="mux-bus" transform="translate(376.3333333333333,73)" s:width="24" s:height="40" id="cell_$procmux$9"><s:alias val="$pmux-bus"/><s:alias val="$mux-bus"/><s:alias val="$_MUX_-bus"/><path d="M0,0 L20,10 L20,30 L0,40 Z" fill="#ffffff" class="cell_$procmux$9"/><path d="M4,2 L4,0 L22,9 L22,31 L4,40 L4,38" fill="#ffffff" class="cell_$procmux$9"/><path d="M8,2 L8,0 L24,8 L24,32 L8,40 L8,38" fill="#ffffff" class="cell_$procmux$9"/><text x="5" y="32" class="nodelabel cell_$procmux$9" s:attribute="">1</text><text x="5" y="13" class="nodelabel cell_$procmux$9" s:attribute="">0</text><g s:x="-1" s:y="10" s:pid="A"/><g s:x="-1" s:y="30" s:pid="B"/><g s:x="12" s:y="38" s:pid="S"/><g s:x="24.5" s:y="20" s:pid="Y"/></g><g s:type="sub" transform="translate(221,70.5)" s:width="25" s:height="25" id="cell_$sub$mod_counter.v:37$5"><s:alias val="$sub"/><circle r="12.5" cx="12.5" cy="12.5" fill="#ffffff" class="cell_$sub$mod_counter.v:37$5"/><line x1="7.5" x2="17.5" y1="12.5" y2="12.5" fill="#ffffff" class="cell_$sub$mod_counter.v:37$5"/><g s:x="2" s:y="5" s:pid="A"/><g s:x="2" s:y="20" s:pid="B"/><g s:x="25" s:y="12.5" s:pid="Y"/></g><g s:type="inputExt" transform="translate(12,145.5)" s:width="30" s:height="20" id="cell_clock"><text x="15" y="-4" class="nodelabel cell_clock" s:attribute="ref">clock</text><s:alias val="$_inputExt_"/><path d="M0,0 L0,20 L15,20 L30,10 L15,0 Z" fill="#ffffff" class="cell_clock"/><g s:x="30" s:y="10" s:pid="Y"/></g><g s:type="inputExt" transform="translate(455,323.5)" s:width="30" s:height="20" id="cell_reset"><text x="15" y="-4" class="nodelabel cell_reset" s:attribute="ref">reset</text><s:alias val="$_inputExt_"/><path d="M0,0 L0,20 L15,20 L30,10 L15,0 Z" fill="#ffffff" class="cell_reset"/><g s:x="30" s:y="10" s:pid="Y"/></g><g s:type="inputExt" transform="translate(366,438.5)" s:width="30" s:height="20" id="cell_direction"><text x="15" y="-4" class="nodelabel cell_direction" s:attribute="ref">direction</text><s:alias val="$_inputExt_"/><path d="M0,0 L0,20 L15,20 L30,10 L15,0 Z" fill="#ffffff" class="cell_direction"/><g s:x="30" s:y="10" s:pid="Y"/></g><g s:type="outputExt" transform="translate(647.5,22)" s:width="30" s:height="20" id="cell_currentNumber"><text x="15" y="-4" class="nodelabel cell_currentNumber" s:attribute="ref">currentNumber</text><s:alias val="$_outputExt_"/><path d="M30,0 L30,20 L15,20 L0,10 L15,0 Z" fill="#ffffff" class="cell_currentNumber"/><g s:x="0" s:y="10" s:pid="A"/></g><g s:type="outputExt" transform="translate(648.5,398.5)" s:width="30" s:height="20" id="cell_carryBit"><text x="15" y="-4" class="nodelabel cell_carryBit" s:attribute="ref">carryBit</text><s:alias val="$_outputExt_"/><path d="M30,0 L30,20 L15,20 L0,10 L15,0 Z" fill="#ffffff" class="cell_carryBit"/><g s:x="0" s:y="10" s:pid="A"/></g><g s:type="constant" transform="translate(148,428.5)" s:width="30" s:height="20" id="cell_1"><text x="15" y="-4" class="nodelabel cell_1" s:attribute="ref">1</text><s:alias val="$_constant_"/><rect width="30" height="20" fill="#ffffff" class="cell_1"/><g s:x="31" s:y="10" s:pid="Y"/></g><g s:type="constant" transform="translate(148,541)" s:width="30" s:height="20" id="cell_1001"><text x="15" y="-4" class="nodelabel cell_1001" s:attribute="ref">0x9</text><s:alias val="$_constant_"/><rect width="30" height="20" fill="#ffffff" class="cell_1001"/><g s:x="31" s:y="10" s:pid="Y"/></g><g s:type="constant" transform="translate(219,245.5)" s:width="30" s:height="20" id="cell_0000"><text x="15" y="-4" class="nodelabel cell_0000" s:attribute="ref">0x0</text><s:alias val="$_constant_"/><rect width="30" height="20" fill="#ffffff" class="cell_0000"/><g s:x="31" s:y="10" s:pid="Y"/></g><g s:type="constant" transform="translate(285,601)" s:width="30" s:height="20" id="cell_0"><text x="15" y="-4" class="nodelabel cell_0" s:attribute="ref">0</text><s:alias val="$_constant_"/><rect width="30" height="20" fill="#ffffff" class="cell_0"/><g s:x="31" s:y="10" s:pid="Y"/></g><line x1="113" x2="223" y1="135.5" y2="135.5" class="net_5,6,7,8 width_4" style="stroke-width: 2"/><line x1="113" x2="123" y1="135.5" y2="135.5" class="net_5,6,7,8 width_4" style="stroke-width: 2"/><line x1="123" x2="123" y1="135.5" y2="600" class="net_5,6,7,8 width_4" style="stroke-width: 2"/><line x1="123" x2="209" y1="600" y2="600" class="net_5,6,7,8 width_4" style="stroke-width: 2"/><line x1="209" x2="209" y1="600" y2="536" class="net_5,6,7,8 width_4" style="stroke-width: 2"/><circle cx="123" cy="135.5" r="3" style="fill:#000" class="net_5,6,7,8 width_4"/><line x1="209" x2="289.3333333333333" y1="536" y2="536" class="net_5,6,7,8 width_4" style="stroke-width: 2"/><line x1="113" x2="123" y1="135.5" y2="135.5" class="net_5,6,7,8 width_4" style="stroke-width: 2"/><line x1="123" x2="123" y1="135.5" y2="487.5" class="net_5,6,7,8 width_4" style="stroke-width: 2"/><line x1="123" x2="209" y1="487.5" y2="487.5" class="net_5,6,7,8 width_4" style="stroke-width: 2"/><line x1="209" x2="209" y1="487.5" y2="418.5" class="net_5,6,7,8 width_4" style="stroke-width: 2"/><circle cx="123" cy="487.5" r="3" style="fill:#000" class="net_5,6,7,8 width_4"/><line x1="209" x2="285" y1="418.5" y2="418.5" class="net_5,6,7,8 width_4" style="stroke-width: 2"/><line x1="113" x2="123" y1="135.5" y2="135.5" class="net_5,6,7,8 width_4" style="stroke-width: 2"/><line x1="123" x2="123" y1="135.5" y2="75.5" class="net_5,6,7,8 width_4" style="stroke-width: 2"/><circle cx="123" cy="75.5" r="3" style="fill:#000" class="net_5,6,7,8 width_4"/><line x1="123" x2="223" y1="75.5" y2="75.5" class="net_5,6,7,8 width_4" style="stroke-width: 2"/><line x1="113" x2="123" y1="135.5" y2="135.5" class="net_5,6,7,8 width_4" style="stroke-width: 2"/><line x1="123" x2="123" y1="135.5" y2="32" class="net_5,6,7,8 width_4" style="stroke-width: 2"/><line x1="123" x2="647.5" y1="32" y2="32" class="net_5,6,7,8 width_4" style="stroke-width: 2"/><line x1="179" x2="189" y1="438.5" y2="438.5" class="net_40 width_1" style="stroke-width: 1"/><line x1="189" x2="189" y1="438.5" y2="150.5" class="net_40 width_1" style="stroke-width: 1"/><circle cx="189" cy="438.5" r="2" style="fill:#000" class="net_40 width_1"/><circle cx="189" cy="150.5" r="2" style="fill:#000" class="net_40 width_1"/><line x1="189" x2="223" y1="150.5" y2="150.5" class="net_40 width_1" style="stroke-width: 1"/><line x1="179" x2="356" y1="438.5" y2="438.5" class="net_40 width_1" style="stroke-width: 1"/><line x1="356" x2="356" y1="438.5" y2="398.5" class="net_40 width_1" style="stroke-width: 1"/><line x1="356" x2="377.6666666666667" y1="398.5" y2="398.5" class="net_40 width_1" style="stroke-width: 1"/><line x1="179" x2="189" y1="438.5" y2="438.5" class="net_40 width_1" style="stroke-width: 1"/><line x1="189" x2="189" y1="438.5" y2="631" class="net_40 width_1" style="stroke-width: 1"/><line x1="189" x2="356" y1="631" y2="631" class="net_40 width_1" style="stroke-width: 1"/><line x1="356" x2="356" y1="631" y2="523.5" class="net_40 width_1" style="stroke-width: 1"/><line x1="356" x2="377.6666666666667" y1="523.5" y2="523.5" class="net_40 width_1" style="stroke-width: 1"/><line x1="179" x2="189" y1="438.5" y2="438.5" class="net_40 width_1" style="stroke-width: 1"/><line x1="189" x2="189" y1="438.5" y2="90.5" class="net_40 width_1" style="stroke-width: 1"/><line x1="189" x2="223" y1="90.5" y2="90.5" class="net_40 width_1" style="stroke-width: 1"/><line x1="179" x2="289.3333333333333" y1="551" y2="551" class="net_41,42,43,44 width_4" style="stroke-width: 2"/><line x1="179" x2="199" y1="551" y2="551" class="net_41,42,43,44 width_4" style="stroke-width: 2"/><line x1="199" x2="199" y1="551" y2="194.5" class="net_41,42,43,44 width_4" style="stroke-width: 2"/><line x1="199" x2="260" y1="194.5" y2="194.5" class="net_41,42,43,44 width_4" style="stroke-width: 2"/><line x1="260" x2="260" y1="194.5" y2="103" class="net_41,42,43,44 width_4" style="stroke-width: 2"/><circle cx="199" cy="551" r="3" style="fill:#000" class="net_41,42,43,44 width_4"/><line x1="260" x2="375.3333333333333" y1="103" y2="103" class="net_41,42,43,44 width_4" style="stroke-width: 2"/><line x1="42" x2="62" y1="155.5" y2="155.5" class="net_2 width_1" style="stroke-width: 1"/><line x1="62" x2="62" y1="155.5" y2="642" class="net_2 width_1" style="stroke-width: 1"/><line x1="62" x2="555.5" y1="642" y2="642" class="net_2 width_1" style="stroke-width: 1"/><line x1="555.5" x2="555.5" y1="642" y2="428.5" class="net_2 width_1" style="stroke-width: 1"/><circle cx="62" cy="155.5" r="2" style="fill:#000" class="net_2 width_1"/><line x1="555.5" x2="580.5" y1="428.5" y2="428.5" class="net_2 width_1" style="stroke-width: 1"/><line x1="42" x2="77" y1="155.5" y2="155.5" class="net_2 width_1" style="stroke-width: 1"/><line x1="543.5" x2="580.5" y1="408.5" y2="408.5" class="net_16 width_1" style="stroke-width: 1"/><line x1="673" x2="735.5" y1="113" y2="113" class="net_17,18,19,20 width_4" style="stroke-width: 2"/><line x1="735.5" x2="735.5" y1="113" y2="657" class="net_17,18,19,20 width_4" style="stroke-width: 2"/><line x1="735.5" x2="52" y1="657" y2="657" class="net_17,18,19,20 width_4" style="stroke-width: 2"/><line x1="52" x2="52" y1="657" y2="135.5" class="net_17,18,19,20 width_4" style="stroke-width: 2"/><line x1="52" x2="77" y1="135.5" y2="135.5" class="net_17,18,19,20 width_4" style="stroke-width: 2"/><line x1="247" x2="375.3333333333333" y1="143" y2="143" class="net_10,11,12,13 width_4" style="stroke-width: 2"/><line x1="250" x2="336" y1="255.5" y2="255.5" class="net_45,46,47,48 width_4" style="stroke-width: 2"/><line x1="336" x2="336" y1="255.5" y2="163" class="net_45,46,47,48 width_4" style="stroke-width: 2"/><line x1="336" x2="375.3333333333333" y1="163" y2="163" class="net_45,46,47,48 width_4" style="stroke-width: 2"/><line x1="250" x2="260" y1="255.5" y2="255.5" class="net_45,46,47,48 width_4" style="stroke-width: 2"/><line x1="260" x2="260" y1="255.5" y2="272.5" class="net_45,46,47,48 width_4" style="stroke-width: 2"/><line x1="260" x2="622.5" y1="272.5" y2="272.5" class="net_45,46,47,48 width_4" style="stroke-width: 2"/><line x1="622.5" x2="622.5" y1="272.5" y2="123" class="net_45,46,47,48 width_4" style="stroke-width: 2"/><circle cx="260" cy="255.5" r="3" style="fill:#000" class="net_45,46,47,48 width_4"/><line x1="622.5" x2="647.5" y1="123" y2="123" class="net_45,46,47,48 width_4" style="stroke-width: 2"/><line x1="312.3333333333333" x2="336" y1="543.5" y2="543.5" class="net_14 width_1" style="stroke-width: 1"/><line x1="336" x2="336" y1="543.5" y2="261.5" class="net_14 width_1" style="stroke-width: 1"/><line x1="336" x2="388.3333333333333" y1="261.5" y2="261.5" class="net_14 width_1" style="stroke-width: 1"/><circle cx="336" cy="543.5" r="2" style="fill:#000" class="net_14 width_1"/><line x1="388.3333333333333" x2="388.3333333333333" y1="261.5" y2="171" class="net_14 width_1" style="stroke-width: 1"/><line x1="312.3333333333333" x2="387.6666666666667" y1="543.5" y2="543.5" class="net_14 width_1" style="stroke-width: 1"/><line x1="387.6666666666667" x2="387.6666666666667" y1="543.5" y2="528.5" class="net_14 width_1" style="stroke-width: 1"/><line x1="400.8333333333333" x2="520" y1="93" y2="93" class="net_25,26,27,28 width_4" style="stroke-width: 2"/><line x1="400.8333333333333" x2="495" y1="153" y2="153" class="net_21,22,23,24 width_4" style="stroke-width: 2"/><line x1="495" x2="495" y1="153" y2="113" class="net_21,22,23,24 width_4" style="stroke-width: 2"/><line x1="495" x2="520" y1="113" y2="113" class="net_21,22,23,24 width_4" style="stroke-width: 2"/><line x1="396" x2="430" y1="448.5" y2="448.5" class="net_4 width_1" style="stroke-width: 1"/><line x1="430" x2="430" y1="448.5" y2="257.5" class="net_4 width_1" style="stroke-width: 1"/><line x1="430" x2="533" y1="257.5" y2="257.5" class="net_4 width_1" style="stroke-width: 1"/><circle cx="430" cy="448.5" r="2" style="fill:#000" class="net_4 width_1"/><line x1="533" x2="533" y1="257.5" y2="121" class="net_4 width_1" style="stroke-width: 1"/><line x1="396" x2="468.3333333333333" y1="448.5" y2="448.5" class="net_4 width_1" style="stroke-width: 1"/><line x1="468.3333333333333" x2="468.3333333333333" y1="448.5" y2="413.5" class="net_4 width_1" style="stroke-width: 1"/><line x1="545.5" x2="647.5" y1="103" y2="103" class="net_29,30,31,32 width_4" style="stroke-width: 2"/><line x1="485" x2="660.5" y1="333.5" y2="333.5" class="net_3 width_1" style="stroke-width: 1"/><line x1="660.5" x2="660.5" y1="333.5" y2="131" class="net_3 width_1" style="stroke-width: 1"/><line x1="485" x2="495" y1="333.5" y2="333.5" class="net_3 width_1" style="stroke-width: 1"/><line x1="495" x2="495" y1="333.5" y2="438.5" class="net_3 width_1" style="stroke-width: 1"/><line x1="495" x2="533.5" y1="438.5" y2="438.5" class="net_3 width_1" style="stroke-width: 1"/><circle cx="495" cy="333.5" r="2" style="fill:#000" class="net_3 width_1"/><line x1="533.5" x2="533.5" y1="438.5" y2="423.5" class="net_3 width_1" style="stroke-width: 1"/><line x1="316" x2="346" y1="611" y2="611" class="net_53 width_1" style="stroke-width: 1"/><line x1="346" x2="346" y1="611" y2="378.5" class="net_53 width_1" style="stroke-width: 1"/><line x1="346" x2="377.6666666666667" y1="378.5" y2="378.5" class="net_53 width_1" style="stroke-width: 1"/><line x1="316" x2="346" y1="611" y2="611" class="net_53 width_1" style="stroke-width: 1"/><line x1="346" x2="346" y1="611" y2="503.5" class="net_53 width_1" style="stroke-width: 1"/><circle cx="346" cy="503.5" r="2" style="fill:#000" class="net_53 width_1"/><line x1="346" x2="377.6666666666667" y1="503.5" y2="503.5" class="net_53 width_1" style="stroke-width: 1"/><line x1="313" x2="387.6666666666667" y1="418.5" y2="418.5" class="net_15 width_1" style="stroke-width: 1"/><line x1="387.6666666666667" x2="387.6666666666667" y1="418.5" y2="403.5" class="net_15 width_1" style="stroke-width: 1"/><line x1="313" x2="326" y1="418.5" y2="418.5" class="net_15 width_1" style="stroke-width: 1"/><line x1="326" x2="326" y1="418.5" y2="123" class="net_15 width_1" style="stroke-width: 1"/><line x1="326" x2="388.3333333333333" y1="123" y2="123" class="net_15 width_1" style="stroke-width: 1"/><circle cx="326" cy="418.5" r="2" style="fill:#000" class="net_15 width_1"/><line x1="388.3333333333333" x2="388.3333333333333" y1="123" y2="111" class="net_15 width_1" style="stroke-width: 1"/><line x1="397.6666666666667" x2="458.3333333333333" y1="388.5" y2="388.5" class="net_33 width_1" style="stroke-width: 1"/><line x1="397.6666666666667" x2="440" y1="513.5" y2="513.5" class="net_34 width_1" style="stroke-width: 1"/><line x1="440" x2="440" y1="513.5" y2="408.5" class="net_34 width_1" style="stroke-width: 1"/><line x1="440" x2="458.3333333333333" y1="408.5" y2="408.5" class="net_34 width_1" style="stroke-width: 1"/><line x1="478.3333333333333" x2="523.5" y1="398.5" y2="398.5" class="net_35 width_1" style="stroke-width: 1"/><line x1="612.5" x2="622.5" y1="408.5" y2="408.5" class="net_9 width_1" style="stroke-width: 1"/><line x1="622.5" x2="622.5" y1="408.5" y2="378.5" class="net_9 width_1" style="stroke-width: 1"/><line x1="622.5" x2="505" y1="378.5" y2="378.5" class="net_9 width_1" style="stroke-width: 1"/><line x1="505" x2="505" y1="378.5" y2="418.5" class="net_9 width_1" style="stroke-width: 1"/><circle cx="622.5" cy="408.5" r="2" style="fill:#000" class="net_9 width_1"/><line x1="505" x2="523.5" y1="418.5" y2="418.5" class="net_9 width_1" style="stroke-width: 1"/><line x1="612.5" x2="648.5" y1="408.5" y2="408.5" class="net_9 width_1" style="stroke-width: 1"/><line x1="246" x2="375.3333333333333" y1="83" y2="83" class="net_36,37,38,39 width_4" style="stroke-width: 2"/><rect x="392" y="27" width="16" height="9" class="net_5,6,7,8 width_4 busLabel_4" style="fill: white; stroke: none"/><text x="391" y="35" class="net_5,6,7,8 width_4 busLabel_4">/4/</text><rect x="392" y="27" width="16" height="9" class="net_5,6,7,8 width_4 busLabel_4" style="fill: white; stroke: none"/><text x="391" y="35" class="net_5,6,7,8 width_4 busLabel_4">/4/</text><rect x="392" y="27" width="16" height="9" class="net_5,6,7,8 width_4 busLabel_4" style="fill: white; stroke: none"/><text x="391" y="35" class="net_5,6,7,8 width_4 busLabel_4">/4/</text><rect x="392" y="27" width="16" height="9" class="net_5,6,7,8 width_4 busLabel_4" style="fill: white; stroke: none"/><text x="391" y="35" class="net_5,6,7,8 width_4 busLabel_4">/4/</text><rect x="392" y="27" width="16" height="9" class="net_5,6,7,8 width_4 busLabel_4" style="fill: white; stroke: none"/><text x="391" y="35" class="net_5,6,7,8 width_4 busLabel_4">/4/</text><rect x="233.5" y="189.5" width="16" height="9" class="net_41,42,43,44 width_4 busLabel_4" style="fill: white; stroke: none"/><text x="232.5" y="197.5" class="net_41,42,43,44 width_4 busLabel_4">/4/</text><rect x="233.5" y="189.5" width="16" height="9" class="net_41,42,43,44 width_4 busLabel_4" style="fill: white; stroke: none"/><text x="232.5" y="197.5" class="net_41,42,43,44 width_4 busLabel_4">/4/</text><rect x="392" y="652" width="16" height="9" class="net_17,18,19,20 width_4 busLabel_4" style="fill: white; stroke: none"/><text x="391" y="660" class="net_17,18,19,20 width_4 busLabel_4">/4/</text><rect x="299.5" y="138" width="16" height="9" class="net_10,11,12,13 width_4 busLabel_4" style="fill: white; stroke: none"/><text x="298.5" y="146" class="net_10,11,12,13 width_4 busLabel_4">/4/</text><rect x="469" y="267.5" width="16" height="9" class="net_45,46,47,48 width_4 busLabel_4" style="fill: white; stroke: none"/><text x="468" y="275.5" class="net_45,46,47,48 width_4 busLabel_4">/4/</text><rect x="469" y="267.5" width="16" height="9" class="net_45,46,47,48 width_4 busLabel_4" style="fill: white; stroke: none"/><text x="468" y="275.5" class="net_45,46,47,48 width_4 busLabel_4">/4/</text><rect x="469" y="88" width="16" height="9" class="net_25,26,27,28 width_4 busLabel_4" style="fill: white; stroke: none"/><text x="468" y="96" class="net_25,26,27,28 width_4 busLabel_4">/4/</text><rect x="469" y="148" width="16" height="9" class="net_21,22,23,24 width_4 busLabel_4" style="fill: white; stroke: none"/><text x="468" y="156" class="net_21,22,23,24 width_4 busLabel_4">/4/</text><rect x="595.5" y="98" width="16" height="9" class="net_29,30,31,32 width_4 busLabel_4" style="fill: white; stroke: none"/><text x="594.5" y="106" class="net_29,30,31,32 width_4 busLabel_4">/4/</text><rect x="299.5" y="78" width="16" height="9" class="net_36,37,38,39 width_4 busLabel_4" style="fill: white; stroke: none"/><text x="298.5" y="86" class="net_36,37,38,39 width_4 busLabel_4">/4/</text></svg>