<svg xmlns="http://www.w3.org/2000/svg" xmlns:xlink="http://www.w3.org/1999/xlink" xmlns:s="https://github.com/nturley/netlistsvg" width="656.5" height="370.5"><style>svg {
  stroke:#000;
  fill:none;
}
text {
  fill:#000;
  stroke:none;
  font-size:10px;
  font-weight: bold;
  font-family: "Courier New", monospace;
}
line {
    stroke-linecap: round;
}
.nodelabel {
  text-anchor: middle;
}
.inputPortLabel {
  text-anchor: end;
}
.splitjoinBody {
  fill:#000;
}</style><g s:type="add" transform="translate(87.33333333333333,228)" s:width="25" s:height="25" id="cell_$add$Timer.v:32$4"><s:alias val="$add"/><circle r="12.5" cx="12.5" cy="12.5" fill="#ffffff" class="cell_$add$Timer.v:32$4"/><line x1="7.5" x2="17.5" y1="12.5" y2="12.5" fill="#ffffff" class="cell_$add$Timer.v:32$4"/><line x1="12.5" x2="12.5" y1="7.5" y2="17.5" fill="#ffffff" class="cell_$add$Timer.v:32$4"/><g s:x="2" s:y="5" s:pid="A"/><g s:x="2" s:y="20" s:pid="B"/><g s:x="26" s:y="12.5" s:pid="Y"/></g><g s:type="eq" transform="translate(230.66666666666666,163)" s:width="25" s:height="25" id="cell_$eq$Timer.v:27$2"><s:alias val="$eq"/><s:alias val="$eqx"/><circle r="12.5" cx="12.5" cy="12.5" fill="#ffffff" class="cell_$eq$Timer.v:27$2"/><line x1="7.5" x2="17.5" y1="10" y2="10" fill="#ffffff" class="cell_$eq$Timer.v:27$2"/><line x1="7.5" x2="17.5" y1="15" y2="15" fill="#ffffff" class="cell_$eq$Timer.v:27$2"/><g s:x="2" s:y="5" s:pid="A"/><g s:x="2" s:y="20" s:pid="B"/><g s:x="25" s:y="12.5" s:pid="Y"/></g><g s:type="eq" transform="translate(229,103)" s:width="25" s:height="25" id="cell_$eq$Timer.v:32$5"><s:alias val="$eq"/><s:alias val="$eqx"/><circle r="12.5" cx="12.5" cy="12.5" fill="#ffffff" class="cell_$eq$Timer.v:32$5"/><line x1="7.5" x2="17.5" y1="10" y2="10" fill="#ffffff" class="cell_$eq$Timer.v:32$5"/><line x1="7.5" x2="17.5" y1="15" y2="15" fill="#ffffff" class="cell_$eq$Timer.v:32$5"/><g s:x="2" s:y="5" s:pid="A"/><g s:x="2" s:y="20" s:pid="B"/><g s:x="25" s:y="12.5" s:pid="Y"/></g><g s:type="dff" transform="translate(484.5,72)" s:width="30" s:height="40" id="cell_$procdff$22"><s:alias val="$dff"/><s:alias val="$_DFF_"/><s:alias val="$_DFF_P_"/><s:alias val="$adff"/><s:alias val="$_DFF_"/><s:alias val="$_DFF_P_"/><s:alias val="$sdff"/><s:alias val="$_DFF_"/><s:alias val="$_DFF_P_"/><rect width="30" height="40" x="0" y="0" fill="#ffffff" class="cell_$procdff$22"/><path d="M0,35 L5,30 L0,25" fill="#ffffff" class="cell_$procdff$22"/><g s:x="31" s:y="10" s:pid="Q"/><g s:x="-1" s:y="30" s:pid="CLK"/><g s:x="-1" s:y="30" s:pid="C"/><g s:x="-1" s:y="10" s:pid="D"/><g s:x="15" s:y="40" s:pid="ARST"/><g s:x="15" s:y="40" s:pid="SRST"/></g><g s:type="dff-bus" transform="translate(551.5,141)" s:width="34" s:height="44" id="cell_$procdff$23"><s:alias val="$dff-bus"/><s:alias val="$_DFF_-bus"/><s:alias val="$_DFF_P_-bus"/><s:alias val="adff-bus"/><s:alias val="$adff-bus"/><s:alias val="$_DFF_-bus"/><s:alias val="$_DFF_P_-bus"/><s:alias val="sdff-bus"/><s:alias val="$sdff-bus"/><s:alias val="$_DFF_-bus"/><s:alias val="$_DFF_P_-bus"/><rect width="30" height="40" x="0" y="0" fill="#ffffff" class="cell_$procdff$23"/><path d="M0,35 L5,30 L0,25" fill="#ffffff" class="cell_$procdff$23"/><path d="M30,2 L32,2 L32,42 L2,42 L2,40" fill="#ffffff" class="cell_$procdff$23"/><path d="M32,4 L34,4 L34,44 L4,44 L4,42" fill="#ffffff" class="cell_$procdff$23"/><g s:x="35" s:y="10" s:pid="Q"/><g s:x="-1" s:y="30" s:pid="CLK"/><g s:x="-1" s:y="30" s:pid="C"/><g s:x="-1" s:y="10" s:pid="D"/><g s:x="17" s:y="44" s:pid="ARST"/><g s:x="17" s:y="44" s:pid="SRST"/></g><g s:type="mux-bus" transform="translate(420.8333333333333,240.5)" s:width="24" s:height="40" id="cell_$procmux$12"><s:alias val="$pmux-bus"/><s:alias val="$mux-bus"/><s:alias val="$_MUX_-bus"/><path d="M0,0 L20,10 L20,30 L0,40 Z" fill="#ffffff" class="cell_$procmux$12"/><path d="M4,2 L4,0 L22,9 L22,31 L4,40 L4,38" fill="#ffffff" class="cell_$procmux$12"/><path d="M8,2 L8,0 L24,8 L24,32 L8,40 L8,38" fill="#ffffff" class="cell_$procmux$12"/><text x="5" y="32" class="nodelabel cell_$procmux$12" s:attribute="">1</text><text x="5" y="13" class="nodelabel cell_$procmux$12" s:attribute="">0</text><g s:x="-1" s:y="10" s:pid="A"/><g s:x="-1" s:y="30" s:pid="B"/><g s:x="12" s:y="38" s:pid="S"/><g s:x="24.5" s:y="20" s:pid="Y"/></g><g s:type="mux" transform="translate(296.5,42)" s:width="20" s:height="40" id="cell_$procmux$14"><s:alias val="$pmux"/><s:alias val="$mux"/><s:alias val="$_MUX_"/><path d="M0,0 L20,10 L20,30 L0,40 Z" fill="#ffffff" class="cell_$procmux$14"/><text x="5" y="32" class="nodelabel cell_$procmux$14" s:attribute="">1</text><text x="5" y="13" class="nodelabel cell_$procmux$14" s:attribute="">0</text><g s:x="0" s:y="10" s:pid="A"/><g s:x="0" s:y="30" s:pid="B"/><g s:x="10" s:y="35" s:pid="S"/><g s:x="20" s:y="20" s:pid="Y"/></g><g s:type="mux" transform="translate(356.8333333333333,52)" s:width="20" s:height="40" id="cell_$procmux$17"><s:alias val="$pmux"/><s:alias val="$mux"/><s:alias val="$_MUX_"/><path d="M0,0 L20,10 L20,30 L0,40 Z" fill="#ffffff" class="cell_$procmux$17"/><text x="5" y="32" class="nodelabel cell_$procmux$17" s:attribute="">1</text><text x="5" y="13" class="nodelabel cell_$procmux$17" s:attribute="">0</text><g s:x="0" s:y="10" s:pid="A"/><g s:x="0" s:y="30" s:pid="B"/><g s:x="10" s:y="35" s:pid="S"/><g s:x="20" s:y="20" s:pid="Y"/></g><g s:type="mux" transform="translate(425,62)" s:width="20" s:height="40" id="cell_$procmux$20"><s:alias val="$pmux"/><s:alias val="$mux"/><s:alias val="$_MUX_"/><path d="M0,0 L20,10 L20,30 L0,40 Z" fill="#ffffff" class="cell_$procmux$20"/><text x="5" y="32" class="nodelabel cell_$procmux$20" s:attribute="">1</text><text x="5" y="13" class="nodelabel cell_$procmux$20" s:attribute="">0</text><g s:x="0" s:y="10" s:pid="A"/><g s:x="0" s:y="30" s:pid="B"/><g s:x="10" s:y="35" s:pid="S"/><g s:x="20" s:y="20" s:pid="Y"/></g><g s:type="mux-bus" transform="translate(294,230.5)" s:width="24" s:height="40" id="cell_$procmux$9"><s:alias val="$pmux-bus"/><s:alias val="$mux-bus"/><s:alias val="$_MUX_-bus"/><path d="M0,0 L20,10 L20,30 L0,40 Z" fill="#ffffff" class="cell_$procmux$9"/><path d="M4,2 L4,0 L22,9 L22,31 L4,40 L4,38" fill="#ffffff" class="cell_$procmux$9"/><path d="M8,2 L8,0 L24,8 L24,32 L8,40 L8,38" fill="#ffffff" class="cell_$procmux$9"/><text x="5" y="32" class="nodelabel cell_$procmux$9" s:attribute="">1</text><text x="5" y="13" class="nodelabel cell_$procmux$9" s:attribute="">0</text><g s:x="-1" s:y="10" s:pid="A"/><g s:x="-1" s:y="30" s:pid="B"/><g s:x="12" s:y="38" s:pid="S"/><g s:x="24.5" s:y="20" s:pid="Y"/></g><g s:type="inputExt" transform="translate(418.5,161)" s:width="30" s:height="20" id="cell_clock"><text x="15" y="-4" class="nodelabel cell_clock" s:attribute="ref">clock</text><s:alias val="$_inputExt_"/><path d="M0,0 L0,20 L15,20 L30,10 L15,0 Z" fill="#ffffff" class="cell_clock"/><g s:x="30" s:y="10" s:pid="Y"/></g><g s:type="inputExt" transform="translate(353.5,301.5)" s:width="30" s:height="20" id="cell_reset"><text x="15" y="-4" class="nodelabel cell_reset" s:attribute="ref">reset</text><s:alias val="$_inputExt_"/><path d="M0,0 L0,20 L15,20 L30,10 L15,0 Z" fill="#ffffff" class="cell_reset"/><g s:x="30" s:y="10" s:pid="Y"/></g><g s:type="inputExt" transform="translate(78,173)" s:width="30" s:height="20" id="cell_maxLimit"><text x="15" y="-4" class="nodelabel cell_maxLimit" s:attribute="ref">maxLimit</text><s:alias val="$_inputExt_"/><path d="M0,0 L0,20 L15,20 L30,10 L15,0 Z" fill="#ffffff" class="cell_maxLimit"/><g s:x="30" s:y="10" s:pid="Y"/></g><g s:type="outputExt" transform="translate(550.5,72)" s:width="30" s:height="20" id="cell_timerTriggered"><text x="15" y="-4" class="nodelabel cell_timerTriggered" s:attribute="ref">timerTriggered</text><s:alias val="$_outputExt_"/><path d="M30,0 L30,20 L15,20 L0,10 L15,0 Z" fill="#ffffff" class="cell_timerTriggered"/><g s:x="0" s:y="10" s:pid="A"/></g><g s:type="constant" transform="translate(12,82)" s:width="30" s:height="20" id="cell_1"><text x="15" y="-4" class="nodelabel cell_1" s:attribute="ref">1</text><s:alias val="$_constant_"/><rect width="30" height="20" fill="#ffffff" class="cell_1"/><g s:x="31" s:y="10" s:pid="Y"/></g><g s:type="constant" transform="translate(161,291.5)" s:width="30" s:height="20" id="cell_00000000000000000000000000000000"><text x="15" y="-4" class="nodelabel cell_00000000000000000000000000000000" s:attribute="ref">0x0</text><s:alias val="$_constant_"/><rect width="30" height="20" fill="#ffffff" class="cell_00000000000000000000000000000000"/><g s:x="31" s:y="10" s:pid="Y"/></g><g s:type="constant" transform="translate(227,62)" s:width="30" s:height="20" id="cell_0"><text x="15" y="-4" class="nodelabel cell_0" s:attribute="ref">0</text><s:alias val="$_constant_"/><rect width="30" height="20" fill="#ffffff" class="cell_0"/><g s:x="31" s:y="10" s:pid="Y"/></g><line x1="586.5" x2="644.5" y1="151" y2="151" class="net_37,38,39,40,41,42,43,44,45,46,47,48,49,50,51,52,53,54,55,56,57,58,59,60,61,62,63,64,65,66,67,68 width_32" style="stroke-width: 2"/><line x1="644.5" x2="644.5" y1="151" y2="352.5" class="net_37,38,39,40,41,42,43,44,45,46,47,48,49,50,51,52,53,54,55,56,57,58,59,60,61,62,63,64,65,66,67,68 width_32" style="stroke-width: 2"/><line x1="644.5" x2="53" y1="352.5" y2="352.5" class="net_37,38,39,40,41,42,43,44,45,46,47,48,49,50,51,52,53,54,55,56,57,58,59,60,61,62,63,64,65,66,67,68 width_32" style="stroke-width: 2"/><line x1="53" x2="53" y1="352.5" y2="233" class="net_37,38,39,40,41,42,43,44,45,46,47,48,49,50,51,52,53,54,55,56,57,58,59,60,61,62,63,64,65,66,67,68 width_32" style="stroke-width: 2"/><line x1="53" x2="89.33333333333333" y1="233" y2="233" class="net_37,38,39,40,41,42,43,44,45,46,47,48,49,50,51,52,53,54,55,56,57,58,59,60,61,62,63,64,65,66,67,68 width_32" style="stroke-width: 2"/><line x1="586.5" x2="644.5" y1="151" y2="151" class="net_37,38,39,40,41,42,43,44,45,46,47,48,49,50,51,52,53,54,55,56,57,58,59,60,61,62,63,64,65,66,67,68 width_32" style="stroke-width: 2"/><line x1="644.5" x2="644.5" y1="151" y2="16" class="net_37,38,39,40,41,42,43,44,45,46,47,48,49,50,51,52,53,54,55,56,57,58,59,60,61,62,63,64,65,66,67,68 width_32" style="stroke-width: 2"/><line x1="644.5" x2="202" y1="16" y2="16" class="net_37,38,39,40,41,42,43,44,45,46,47,48,49,50,51,52,53,54,55,56,57,58,59,60,61,62,63,64,65,66,67,68 width_32" style="stroke-width: 2"/><line x1="202" x2="202" y1="16" y2="168" class="net_37,38,39,40,41,42,43,44,45,46,47,48,49,50,51,52,53,54,55,56,57,58,59,60,61,62,63,64,65,66,67,68 width_32" style="stroke-width: 2"/><circle cx="644.5" cy="151" r="3" style="fill:#000" class="net_37,38,39,40,41,42,43,44,45,46,47,48,49,50,51,52,53,54,55,56,57,58,59,60,61,62,63,64,65,66,67,68 width_32"/><line x1="202" x2="232.66666666666666" y1="168" y2="168" class="net_37,38,39,40,41,42,43,44,45,46,47,48,49,50,51,52,53,54,55,56,57,58,59,60,61,62,63,64,65,66,67,68 width_32" style="stroke-width: 2"/><line x1="43" x2="63" y1="92" y2="92" class="net_170 width_1" style="stroke-width: 1"/><line x1="63" x2="63" y1="92" y2="248" class="net_170 width_1" style="stroke-width: 1"/><circle cx="63" cy="92" r="2" style="fill:#000" class="net_170 width_1"/><line x1="63" x2="89.33333333333333" y1="248" y2="248" class="net_170 width_1" style="stroke-width: 1"/><line x1="43" x2="146" y1="92" y2="92" class="net_170 width_1" style="stroke-width: 1"/><line x1="146" x2="146" y1="92" y2="124" class="net_170 width_1" style="stroke-width: 1"/><line x1="146" x2="212" y1="124" y2="124" class="net_170 width_1" style="stroke-width: 1"/><line x1="212" x2="212" y1="124" y2="123" class="net_170 width_1" style="stroke-width: 1"/><circle cx="146" cy="92" r="2" style="fill:#000" class="net_170 width_1"/><line x1="212" x2="231" y1="123" y2="123" class="net_170 width_1" style="stroke-width: 1"/><line x1="43" x2="328.5" y1="92" y2="92" class="net_170 width_1" style="stroke-width: 1"/><line x1="328.5" x2="328.5" y1="92" y2="82" class="net_170 width_1" style="stroke-width: 1"/><line x1="328.5" x2="356.8333333333333" y1="82" y2="82" class="net_170 width_1" style="stroke-width: 1"/><line x1="108" x2="232.66666666666666" y1="183" y2="183" class="net_4,5,6,7,8,9,10,11,12,13,14,15,16,17,18,19,20,21,22,23,24,25,26,27,28,29,30,31,32,33,34,35 width_32" style="stroke-width: 2"/><line x1="113.33333333333333" x2="136" y1="240.5" y2="240.5" class="net_69,70,71,72,73,74,75,76,77,78,79,80,81,82,83,84,85,86,87,88,89,90,91,92,93,94,95,96,97,98,99,100 width_32" style="stroke-width: 2"/><line x1="136" x2="136" y1="240.5" y2="108" class="net_69,70,71,72,73,74,75,76,77,78,79,80,81,82,83,84,85,86,87,88,89,90,91,92,93,94,95,96,97,98,99,100 width_32" style="stroke-width: 2"/><circle cx="136" cy="240.5" r="3" style="fill:#000" class="net_69,70,71,72,73,74,75,76,77,78,79,80,81,82,83,84,85,86,87,88,89,90,91,92,93,94,95,96,97,98,99,100 width_32"/><line x1="136" x2="231" y1="108" y2="108" class="net_69,70,71,72,73,74,75,76,77,78,79,80,81,82,83,84,85,86,87,88,89,90,91,92,93,94,95,96,97,98,99,100 width_32" style="stroke-width: 2"/><line x1="113.33333333333333" x2="293" y1="240.5" y2="240.5" class="net_69,70,71,72,73,74,75,76,77,78,79,80,81,82,83,84,85,86,87,88,89,90,91,92,93,94,95,96,97,98,99,100 width_32" style="stroke-width: 2"/><line x1="448.5" x2="458.5" y1="171" y2="171" class="net_2 width_1" style="stroke-width: 1"/><line x1="458.5" x2="458.5" y1="171" y2="102" class="net_2 width_1" style="stroke-width: 1"/><circle cx="458.5" cy="171" r="2" style="fill:#000" class="net_2 width_1"/><line x1="458.5" x2="483.5" y1="102" y2="102" class="net_2 width_1" style="stroke-width: 1"/><line x1="448.5" x2="550.5" y1="171" y2="171" class="net_2 width_1" style="stroke-width: 1"/><line x1="445" x2="483.5" y1="82" y2="82" class="net_103 width_1" style="stroke-width: 1"/><line x1="445.3333333333333" x2="468.5" y1="260.5" y2="260.5" class="net_104,105,106,107,108,109,110,111,112,113,114,115,116,117,118,119,120,121,122,123,124,125,126,127,128,129,130,131,132,133,134,135 width_32" style="stroke-width: 2"/><line x1="468.5" x2="468.5" y1="260.5" y2="151" class="net_104,105,106,107,108,109,110,111,112,113,114,115,116,117,118,119,120,121,122,123,124,125,126,127,128,129,130,131,132,133,134,135 width_32" style="stroke-width: 2"/><line x1="468.5" x2="550.5" y1="151" y2="151" class="net_104,105,106,107,108,109,110,111,112,113,114,115,116,117,118,119,120,121,122,123,124,125,126,127,128,129,130,131,132,133,134,135 width_32" style="stroke-width: 2"/><line x1="318.5" x2="419.8333333333333" y1="250.5" y2="250.5" class="net_136,137,138,139,140,141,142,143,144,145,146,147,148,149,150,151,152,153,154,155,156,157,158,159,160,161,162,163,164,165,166,167 width_32" style="stroke-width: 2"/><line x1="192" x2="202" y1="301.5" y2="301.5" class="net_172,173,174,175,176,177,178,179,180,181,182,183,184,185,186,187,188,189,190,191,192,193,194,195,196,197,198,199,200,201,202,203 width_32" style="stroke-width: 2"/><line x1="202" x2="202" y1="301.5" y2="332.5" class="net_172,173,174,175,176,177,178,179,180,181,182,183,184,185,186,187,188,189,190,191,192,193,194,195,196,197,198,199,200,201,202,203 width_32" style="stroke-width: 2"/><line x1="202" x2="403.5" y1="332.5" y2="332.5" class="net_172,173,174,175,176,177,178,179,180,181,182,183,184,185,186,187,188,189,190,191,192,193,194,195,196,197,198,199,200,201,202,203 width_32" style="stroke-width: 2"/><line x1="403.5" x2="403.5" y1="332.5" y2="270.5" class="net_172,173,174,175,176,177,178,179,180,181,182,183,184,185,186,187,188,189,190,191,192,193,194,195,196,197,198,199,200,201,202,203 width_32" style="stroke-width: 2"/><circle cx="202" cy="301.5" r="3" style="fill:#000" class="net_172,173,174,175,176,177,178,179,180,181,182,183,184,185,186,187,188,189,190,191,192,193,194,195,196,197,198,199,200,201,202,203 width_32"/><line x1="403.5" x2="419.8333333333333" y1="270.5" y2="270.5" class="net_172,173,174,175,176,177,178,179,180,181,182,183,184,185,186,187,188,189,190,191,192,193,194,195,196,197,198,199,200,201,202,203 width_32" style="stroke-width: 2"/><line x1="192" x2="268" y1="301.5" y2="301.5" class="net_172,173,174,175,176,177,178,179,180,181,182,183,184,185,186,187,188,189,190,191,192,193,194,195,196,197,198,199,200,201,202,203 width_32" style="stroke-width: 2"/><line x1="268" x2="268" y1="301.5" y2="260.5" class="net_172,173,174,175,176,177,178,179,180,181,182,183,184,185,186,187,188,189,190,191,192,193,194,195,196,197,198,199,200,201,202,203 width_32" style="stroke-width: 2"/><line x1="268" x2="293" y1="260.5" y2="260.5" class="net_172,173,174,175,176,177,178,179,180,181,182,183,184,185,186,187,188,189,190,191,192,193,194,195,196,197,198,199,200,201,202,203 width_32" style="stroke-width: 2"/><line x1="383.5" x2="432.8333333333333" y1="311.5" y2="311.5" class="net_3 width_1" style="stroke-width: 1"/><line x1="432.8333333333333" x2="432.8333333333333" y1="311.5" y2="278.5" class="net_3 width_1" style="stroke-width: 1"/><line x1="383.5" x2="393.5" y1="311.5" y2="311.5" class="net_3 width_1" style="stroke-width: 1"/><line x1="393.5" x2="393.5" y1="311.5" y2="141" class="net_3 width_1" style="stroke-width: 1"/><line x1="393.5" x2="435" y1="141" y2="141" class="net_3 width_1" style="stroke-width: 1"/><circle cx="393.5" cy="311.5" r="2" style="fill:#000" class="net_3 width_1"/><line x1="435" x2="435" y1="141" y2="97" class="net_3 width_1" style="stroke-width: 1"/><line x1="515.5" x2="525.5" y1="82" y2="82" class="net_36 width_1" style="stroke-width: 1"/><line x1="525.5" x2="525.5" y1="82" y2="32" class="net_36 width_1" style="stroke-width: 1"/><line x1="525.5" x2="278" y1="32" y2="32" class="net_36 width_1" style="stroke-width: 1"/><line x1="278" x2="278" y1="32" y2="52" class="net_36 width_1" style="stroke-width: 1"/><circle cx="525.5" cy="82" r="2" style="fill:#000" class="net_36 width_1"/><line x1="278" x2="296.5" y1="52" y2="52" class="net_36 width_1" style="stroke-width: 1"/><line x1="515.5" x2="525.5" y1="82" y2="82" class="net_36 width_1" style="stroke-width: 1"/><line x1="525.5" x2="525.5" y1="82" y2="32" class="net_36 width_1" style="stroke-width: 1"/><line x1="525.5" x2="393.5" y1="32" y2="32" class="net_36 width_1" style="stroke-width: 1"/><line x1="393.5" x2="393.5" y1="32" y2="92" class="net_36 width_1" style="stroke-width: 1"/><circle cx="393.5" cy="32" r="2" style="fill:#000" class="net_36 width_1"/><line x1="393.5" x2="425" y1="92" y2="92" class="net_36 width_1" style="stroke-width: 1"/><line x1="515.5" x2="550.5" y1="82" y2="82" class="net_36 width_1" style="stroke-width: 1"/><line x1="258" x2="296.5" y1="72" y2="72" class="net_204 width_1" style="stroke-width: 1"/><line x1="254" x2="306.5" y1="115.5" y2="115.5" class="net_102 width_1" style="stroke-width: 1"/><line x1="306.5" x2="306.5" y1="115.5" y2="77" class="net_102 width_1" style="stroke-width: 1"/><line x1="316.5" x2="356.8333333333333" y1="62" y2="62" class="net_168 width_1" style="stroke-width: 1"/><line x1="255.66666666666666" x2="366.8333333333333" y1="175.5" y2="175.5" class="net_101 width_1" style="stroke-width: 1"/><line x1="366.8333333333333" x2="366.8333333333333" y1="175.5" y2="87" class="net_101 width_1" style="stroke-width: 1"/><line x1="255.66666666666666" x2="278" y1="175.5" y2="175.5" class="net_101 width_1" style="stroke-width: 1"/><line x1="278" x2="278" y1="175.5" y2="280.5" class="net_101 width_1" style="stroke-width: 1"/><line x1="278" x2="306" y1="280.5" y2="280.5" class="net_101 width_1" style="stroke-width: 1"/><circle cx="278" cy="175.5" r="2" style="fill:#000" class="net_101 width_1"/><line x1="306" x2="306" y1="280.5" y2="268.5" class="net_101 width_1" style="stroke-width: 1"/><line x1="376.8333333333333" x2="425" y1="72" y2="72" class="net_169 width_1" style="stroke-width: 1"/><rect x="367.5" y="11" width="22" height="9" class="net_37,38,39,40,41,42,43,44,45,46,47,48,49,50,51,52,53,54,55,56,57,58,59,60,61,62,63,64,65,66,67,68 width_32 busLabel_32" style="fill: white; stroke: none"/><text x="366.5" y="19" class="net_37,38,39,40,41,42,43,44,45,46,47,48,49,50,51,52,53,54,55,56,57,58,59,60,61,62,63,64,65,66,67,68 width_32 busLabel_32">/32/</text><rect x="367.5" y="11" width="22" height="9" class="net_37,38,39,40,41,42,43,44,45,46,47,48,49,50,51,52,53,54,55,56,57,58,59,60,61,62,63,64,65,66,67,68 width_32 busLabel_32" style="fill: white; stroke: none"/><text x="366.5" y="19" class="net_37,38,39,40,41,42,43,44,45,46,47,48,49,50,51,52,53,54,55,56,57,58,59,60,61,62,63,64,65,66,67,68 width_32 busLabel_32">/32/</text><rect x="175.5" y="178" width="22" height="9" class="net_4,5,6,7,8,9,10,11,12,13,14,15,16,17,18,19,20,21,22,23,24,25,26,27,28,29,30,31,32,33,34,35 width_32 busLabel_32" style="fill: white; stroke: none"/><text x="174.5" y="186" class="net_4,5,6,7,8,9,10,11,12,13,14,15,16,17,18,19,20,21,22,23,24,25,26,27,28,29,30,31,32,33,34,35 width_32 busLabel_32">/32/</text><rect x="175.5" y="235.5" width="22" height="9" class="net_69,70,71,72,73,74,75,76,77,78,79,80,81,82,83,84,85,86,87,88,89,90,91,92,93,94,95,96,97,98,99,100 width_32 busLabel_32" style="fill: white; stroke: none"/><text x="174.5" y="243.5" class="net_69,70,71,72,73,74,75,76,77,78,79,80,81,82,83,84,85,86,87,88,89,90,91,92,93,94,95,96,97,98,99,100 width_32 busLabel_32">/32/</text><rect x="175.5" y="235.5" width="22" height="9" class="net_69,70,71,72,73,74,75,76,77,78,79,80,81,82,83,84,85,86,87,88,89,90,91,92,93,94,95,96,97,98,99,100 width_32 busLabel_32" style="fill: white; stroke: none"/><text x="174.5" y="243.5" class="net_69,70,71,72,73,74,75,76,77,78,79,80,81,82,83,84,85,86,87,88,89,90,91,92,93,94,95,96,97,98,99,100 width_32 busLabel_32">/32/</text><rect x="498.5" y="146" width="22" height="9" class="net_104,105,106,107,108,109,110,111,112,113,114,115,116,117,118,119,120,121,122,123,124,125,126,127,128,129,130,131,132,133,134,135 width_32 busLabel_32" style="fill: white; stroke: none"/><text x="497.5" y="154" class="net_104,105,106,107,108,109,110,111,112,113,114,115,116,117,118,119,120,121,122,123,124,125,126,127,128,129,130,131,132,133,134,135 width_32 busLabel_32">/32/</text><rect x="367.5" y="245.5" width="22" height="9" class="net_136,137,138,139,140,141,142,143,144,145,146,147,148,149,150,151,152,153,154,155,156,157,158,159,160,161,162,163,164,165,166,167 width_32 busLabel_32" style="fill: white; stroke: none"/><text x="366.5" y="253.5" class="net_136,137,138,139,140,141,142,143,144,145,146,147,148,149,150,151,152,153,154,155,156,157,158,159,160,161,162,163,164,165,166,167 width_32 busLabel_32">/32/</text><rect x="241.5" y="296.5" width="22" height="9" class="net_172,173,174,175,176,177,178,179,180,181,182,183,184,185,186,187,188,189,190,191,192,193,194,195,196,197,198,199,200,201,202,203 width_32 busLabel_32" style="fill: white; stroke: none"/><text x="240.5" y="304.5" class="net_172,173,174,175,176,177,178,179,180,181,182,183,184,185,186,187,188,189,190,191,192,193,194,195,196,197,198,199,200,201,202,203 width_32 busLabel_32">/32/</text><rect x="241.5" y="296.5" width="22" height="9" class="net_172,173,174,175,176,177,178,179,180,181,182,183,184,185,186,187,188,189,190,191,192,193,194,195,196,197,198,199,200,201,202,203 width_32 busLabel_32" style="fill: white; stroke: none"/><text x="240.5" y="304.5" class="net_172,173,174,175,176,177,178,179,180,181,182,183,184,185,186,187,188,189,190,191,192,193,194,195,196,197,198,199,200,201,202,203 width_32 busLabel_32">/32/</text></svg>