<svg xmlns="http://www.w3.org/2000/svg" xmlns:xlink="http://www.w3.org/1999/xlink" xmlns:s="https://github.com/nturley/netlistsvg" width="411" height="276">
  <style>svg {
    stroke:#000;
    fill:none;
  }
  text {
    fill:#000;
    stroke:none;
    font-size:10px;
    font-weight: bold;
    font-family: "Courier New", monospace;
  }
  .nodelabel {
    text-anchor: middle;
  }
  .inputPortLabel {
    text-anchor: end;
  }
  .splitjoinBody {
    fill:#000;
  }</style>
  <g s:type="mux" transform="translate(314,151.5)" s:width="20" s:height="40" id="cell_:10">
    <s:alias val="$pmux"/>
    <s:alias val="$mux"/>
    <s:alias val="$_MUX_"/>
    <path d="M0,0 L20,10 L20,30 L0,40 Z" class="cell_:10"/>
    <g s:x="0" s:y="10" s:pid="A"/>
    <g s:x="0" s:y="30" s:pid="B"/>
    <g s:x="10" s:y="35" s:pid="S"/>
    <g s:x="20" s:y="20" s:pid="Y"/>
  </g>
  <g s:type="or" transform="translate(101,174)" s:width="30" s:height="25" id="cell_:4">
    <s:alias val="$or"/>
    <s:alias val="$reduce_or"/>
    <s:alias val="$reduce_bool"/>
    <s:alias val="$logic_or"/>
    <s:alias val="$_OR_"/>
    <path d="M0,25 L0,25 L15,25 A15 12.5 0 0 0 15,0 L0,0" class="cell_:4"/>
    <path d="M0,0 A30 25 0 0 1 0,25" class="cell_:4"/>
    <text x="17" y="15" class="nodelabel" style="font-size:7px">OR</text>
    <g s:x="3" s:y="5" s:pid="A"/>
    <g s:x="3" s:y="20" s:pid="B"/>
    <g s:x="30" s:y="12.5" s:pid="Y"/>
  </g>
  <g s:type="and" transform="translate(184,234)" s:width="30" s:height="25" id="cell_:5">
    <s:alias val="$and"/>
    <s:alias val="$reduce_and"/>
    <s:alias val="$logic_and"/>
    <s:alias val="$_AND_"/>
    <path d="M0,0 L0,25 L15,25 A15 12.5 0 0 0 15,0 Z" class="cell_:5"/>
    <text x="13" y="15" class="nodelabel" style="font-size:7px">AND</text>
    <g s:x="0" s:y="5" s:pid="A"/>
    <g s:x="0" s:y="20" s:pid="B"/>
    <g s:x="30" s:y="12.5" s:pid="Y"/>
  </g>
  <g s:type="eq" transform="translate(96.66666666666667,54)" s:width="25" s:height="25" id="cell_:6">
    <s:alias val="$eq"/>
    <circle r="12.5" cx="12.5" cy="12.5" class="cell_:6"/>
    <line x1="7.5" x2="17.5" y1="10" y2="10" class="cell_:6"/>
    <line x1="7.5" x2="17.5" y1="15" y2="15" class="cell_:6"/>
    <g s:x="3" s:y="5" s:pid="A"/>
    <g s:x="3" s:y="20" s:pid="B"/>
    <g s:x="25" s:y="12.5" s:pid="Y"/>
  </g>
  <g s:type="eq" transform="translate(96.66666666666667,114)" s:width="25" s:height="25" id="cell_:7">
    <s:alias val="$eq"/>
    <circle r="12.5" cx="12.5" cy="12.5" class="cell_:7"/>
    <line x1="7.5" x2="17.5" y1="10" y2="10" class="cell_:7"/>
    <line x1="7.5" x2="17.5" y1="15" y2="15" class="cell_:7"/>
    <g s:x="3" s:y="5" s:pid="A"/>
    <g s:x="3" s:y="20" s:pid="B"/>
    <g s:x="25" s:y="12.5" s:pid="Y"/>
  </g>
  <g s:type="or" transform="translate(184,106.5)" s:width="30" s:height="25" id="cell_:8">
    <s:alias val="$or"/>
    <s:alias val="$reduce_or"/>
    <s:alias val="$reduce_bool"/>
    <s:alias val="$logic_or"/>
    <s:alias val="$_OR_"/>
    <path d="M0,25 L0,25 L15,25 A15 12.5 0 0 0 15,0 L0,0" class="cell_:8"/>
    <path d="M0,0 A30 25 0 0 1 0,25" class="cell_:8"/>
    <text x="17" y="15" class="nodelabel" style="font-size:7px">OR</text>
    <g s:x="3" s:y="5" s:pid="A"/>
    <g s:x="3" s:y="20" s:pid="B"/>
    <g s:x="30" s:y="12.5" s:pid="Y"/>
  </g>
  <g s:type="and" transform="translate(249,226.5)" s:width="30" s:height="25" id="cell_:9">
    <s:alias val="$and"/>
    <s:alias val="$reduce_and"/>
    <s:alias val="$logic_and"/>
    <s:alias val="$_AND_"/>
    <path d="M0,0 L0,25 L15,25 A15 12.5 0 0 0 15,0 Z" class="cell_:9"/>
    <text x="13" y="15" class="nodelabel" style="font-size:7px">AND</text>
    <g s:x="0" s:y="5" s:pid="A"/>
    <g s:x="0" s:y="20" s:pid="B"/>
    <g s:x="30" s:y="12.5" s:pid="Y"/>
  </g>
  <g s:type="inputExt" transform="translate(12,64)" s:width="30" s:height="20" id="cell_id_rs1">
    <text x="15" y="-4" class="nodelabel cell_id_rs1" s:attribute="ref">id_rs1</text>
    <s:alias val="$_inputExt_"/>
    <path d="M0,0 L0,20 L15,20 L30,10 L15,0 Z" class="cell_id_rs1"/>
    <g s:x="28" s:y="10" s:pid="Y"/>
  </g>
  <g s:type="inputExt" transform="translate(12,234)" s:width="30" s:height="20" id="cell_id_rs2">
    <text x="15" y="-4" class="nodelabel cell_id_rs2" s:attribute="ref">id_rs2</text>
    <s:alias val="$_inputExt_"/>
    <path d="M0,0 L0,20 L15,20 L30,10 L15,0 Z" class="cell_id_rs2"/>
    <g s:x="28" s:y="10" s:pid="Y"/>
  </g>
  <g s:type="inputExt" transform="translate(12,169)" s:width="30" s:height="20" id="cell_ex_rd">
    <text x="15" y="-4" class="nodelabel cell_ex_rd" s:attribute="ref">ex_rd</text>
    <s:alias val="$_inputExt_"/>
    <path d="M0,0 L0,20 L15,20 L30,10 L15,0 Z" class="cell_ex_rd"/>
    <g s:x="28" s:y="10" s:pid="Y"/>
  </g>
  <g s:type="inputExt" transform="translate(83,244)" s:width="30" s:height="20" id="cell_ex_mem_read">
    <text x="15" y="-4" class="nodelabel cell_ex_mem_read" s:attribute="ref">ex_mem_read</text>
    <s:alias val="$_inputExt_"/>
    <path d="M0,0 L0,20 L15,20 L30,10 L15,0 Z" class="cell_ex_mem_read"/>
    <g s:x="28" s:y="10" s:pid="Y"/>
  </g>
  <g s:type="inputExt" transform="translate(12,22)" s:width="30" s:height="20" id="cell_branch_taken">
    <text x="15" y="-4" class="nodelabel cell_branch_taken" s:attribute="ref">branch_taken</text>
    <s:alias val="$_inputExt_"/>
    <path d="M0,0 L0,20 L15,20 L30,10 L15,0 Z" class="cell_branch_taken"/>
    <g s:x="28" s:y="10" s:pid="Y"/>
  </g>
  <g s:type="outputExt" transform="translate(369,161.5)" s:width="30" s:height="20" id="cell_stall">
    <text x="15" y="-4" class="nodelabel cell_stall" s:attribute="ref">stall</text>
    <s:alias val="$_outputExt_"/>
    <path d="M30,0 L30,20 L15,20 L0,10 L15,0 Z" class="cell_stall"/>
    <g s:x="0" s:y="10" s:pid="A"/>
  </g>
  <g s:type="outputExt" transform="translate(119,22)" s:width="30" s:height="20" id="cell_flush">
    <text x="15" y="-4" class="nodelabel cell_flush" s:attribute="ref">flush</text>
    <s:alias val="$_outputExt_"/>
    <path d="M30,0 L30,20 L15,20 L0,10 L15,0 Z" class="cell_flush"/>
    <g s:x="0" s:y="10" s:pid="A"/>
  </g>
  <g s:type="constant" transform="translate(249,106.5)" s:width="30" s:height="20" id="cell_0">
    <text x="15" y="-4" class="nodelabel cell_0" s:attribute="ref">0</text>
    <s:alias val="$_constant_"/>
    <rect width="30" height="20" class="cell_0"/>
    <g s:x="30" s:y="10" s:pid="Y"/>
  </g>
  <g s:type="constant" transform="translate(249,171.5)" s:width="30" s:height="20" id="cell_1">
    <text x="15" y="-4" class="nodelabel cell_1" s:attribute="ref">1</text>
    <s:alias val="$_constant_"/>
    <rect width="30" height="20" class="cell_1"/>
    <g s:x="30" s:y="10" s:pid="Y"/>
  </g>
  <line x1="279" x2="289" y1="116.5" y2="116.5" class="net_26"/>
  <line x1="289" x2="289" y1="116.5" y2="161.5" class="net_26"/>
  <line x1="289" x2="314" y1="161.5" y2="161.5" class="net_26"/>
  <line x1="279" x2="314" y1="181.5" y2="181.5" class="net_27"/>
  <line x1="279" x2="324" y1="239" y2="239" class="net_20"/>
  <line x1="324" x2="324" y1="239" y2="186.5" class="net_20"/>
  <line x1="40" x2="104" y1="179" y2="179" class="net_12,13,14,15,16"/>
  <line x1="40" x2="58" y1="179" y2="179" class="net_12,13,14,15,16"/>
  <line x1="58" x2="58" y1="179" y2="59" class="net_12,13,14,15,16"/>
  <circle cx="58" cy="179" r="2" style="fill:#000" class="net_12,13,14,15,16"/>
  <line x1="58" x2="99.66666666666667" y1="59" y2="59" class="net_12,13,14,15,16"/>
  <line x1="40" x2="58" y1="179" y2="179" class="net_12,13,14,15,16"/>
  <line x1="58" x2="58" y1="179" y2="119" class="net_12,13,14,15,16"/>
  <circle cx="58" cy="119" r="2" style="fill:#000" class="net_12,13,14,15,16"/>
  <line x1="58" x2="99.66666666666667" y1="119" y2="119" class="net_12,13,14,15,16"/>
  <line x1="131" x2="159" y1="186.5" y2="186.5" class="net_21"/>
  <line x1="159" x2="159" y1="186.5" y2="239" class="net_21"/>
  <line x1="159" x2="184" y1="239" y2="239" class="net_21"/>
  <line x1="111" x2="184" y1="254" y2="254" class="net_17"/>
  <line x1="40" x2="99.66666666666667" y1="74" y2="74" class="net_2,3,4,5,6"/>
  <line x1="40" x2="68" y1="244" y2="244" class="net_7,8,9,10,11"/>
  <line x1="68" x2="68" y1="244" y2="134" class="net_7,8,9,10,11"/>
  <line x1="68" x2="99.66666666666667" y1="134" y2="134" class="net_7,8,9,10,11"/>
  <line x1="121.66666666666667" x2="159" y1="66.5" y2="66.5" class="net_23"/>
  <line x1="159" x2="159" y1="66.5" y2="111.5" class="net_23"/>
  <line x1="159" x2="187" y1="111.5" y2="111.5" class="net_23"/>
  <line x1="121.66666666666667" x2="187" y1="126.5" y2="126.5" class="net_24"/>
  <line x1="214" x2="224" y1="119" y2="119" class="net_25"/>
  <line x1="224" x2="224" y1="119" y2="231.5" class="net_25"/>
  <line x1="224" x2="249" y1="231.5" y2="231.5" class="net_25"/>
  <line x1="214" x2="249" y1="246.5" y2="246.5" class="net_22"/>
  <line x1="334" x2="369" y1="171.5" y2="171.5" class="net_19"/>
  <line x1="40" x2="119" y1="32" y2="32" class="net_18"/>
</svg>
