<svg xmlns="http://www.w3.org/2000/svg" xmlns:xlink="http://www.w3.org/1999/xlink" xmlns:s="https://github.com/nturley/netlistsvg" width="881" height="1194.5">
  <style>svg {
    stroke:#000;
    fill:none;
  }
  text {
    fill:#000;
    stroke:none;
    font-size:10px;
    font-weight: bold;
    font-family: "Courier New", monospace;
  }
  .nodelabel {
    text-anchor: middle;
  }
  .inputPortLabel {
    text-anchor: end;
  }
  .splitjoinBody {
    fill:#000;
  }</style>
  <g s:type="not" transform="translate(713,319.5)" s:width="30" s:height="20" id="cell_$eq$regfile_rv32.v:31$44">
    <s:alias val="$_NOT_"/>
    <s:alias val="$not"/>
    <s:alias val="$logic_not"/>
    <path d="M0,0 L0,20 L20,10 Z" class="cell_$eq$regfile_rv32.v:31$44"/>
    <circle cx="23" cy="10" r="3" class="cell_$eq$regfile_rv32.v:31$44"/>
    <g s:x="0" s:y="10" s:pid="A"/>
    <g s:x="25" s:y="10" s:pid="Y"/>
  </g>
  <g s:type="not" transform="translate(713,439.5)" s:width="30" s:height="20" id="cell_$eq$regfile_rv32.v:32$47">
    <s:alias val="$_NOT_"/>
    <s:alias val="$not"/>
    <s:alias val="$logic_not"/>
    <path d="M0,0 L0,20 L20,10 Z" class="cell_$eq$regfile_rv32.v:32$47"/>
    <circle cx="23" cy="10" r="3" class="cell_$eq$regfile_rv32.v:32$47"/>
    <g s:x="0" s:y="10" s:pid="A"/>
    <g s:x="25" s:y="10" s:pid="Y"/>
  </g>
  <g s:type="and" transform="translate(335,307)" s:width="30" s:height="25" id="cell_$logic_and$regfile_rv32.v:28$40">
    <s:alias val="$and"/>
    <s:alias val="$logic_and"/>
    <s:alias val="$_AND_"/>
    <path d="M0,0 L0,25 L15,25 A15 12.5 0 0 0 15,0 Z" class="cell_$logic_and$regfile_rv32.v:28$40"/>
    <g s:x="0" s:y="5" s:pid="A"/>
    <g s:x="0" s:y="20" s:pid="B"/>
    <g s:x="30" s:y="12.5" s:pid="Y"/>
  </g>
  <g s:type="generic" transform="translate(156,316.5)" s:width="30" s:height="40" id="cell_$ne$regfile_rv32.v:28$39">
    <text x="15" y="-4" class="nodelabel cell_$ne$regfile_rv32.v:28$39" s:attribute="ref">≠0</text>
    <rect width="30" height="20" s:generic="body" class="cell_$ne$regfile_rv32.v:28$39"/>
    <g transform="translate(0,10)" s:x="0" s:y="10" s:pid="in0" id="port_$ne$regfile_rv32.v:28$39~A">
      <text x="-3" y="-4" class="inputPortLabel cell_$ne$regfile_rv32.v:28$39">A</text>
    </g>
    <g transform="translate(30,10)" s:x="30" s:y="10" s:pid="out0" id="port_$ne$regfile_rv32.v:28$39~Y">
      <text x="5" y="-4" style="fill:#000; stroke:none" class="cell_$ne$regfile_rv32.v:28$39">Y</text>
    </g>
  </g>
  <g s:type="mux" transform="translate(405.3333333333333,1033)" s:width="20" s:height="40" id="cell_$procmux$116">
    <s:alias val="$pmux"/>
    <s:alias val="$mux"/>
    <s:alias val="$_MUX_"/>
    <path d="M0,0 L20,10 L20,30 L0,40 Z" class="cell_$procmux$116"/>
    <g s:x="0" s:y="10" s:pid="A"/>
    <g s:x="0" s:y="30" s:pid="B"/>
    <g s:x="10" s:y="35" s:pid="S"/>
    <g s:x="20" s:y="20" s:pid="Y"/>
  </g>
  <g s:type="mux" transform="translate(476,267)" s:width="20" s:height="40" id="cell_$procmux$119">
    <s:alias val="$pmux"/>
    <s:alias val="$mux"/>
    <s:alias val="$_MUX_"/>
    <path d="M0,0 L20,10 L20,30 L0,40 Z" class="cell_$procmux$119"/>
    <g s:x="0" s:y="10" s:pid="A"/>
    <g s:x="0" s:y="30" s:pid="B"/>
    <g s:x="10" s:y="35" s:pid="S"/>
    <g s:x="20" s:y="20" s:pid="Y"/>
  </g>
  <g s:type="mux" transform="translate(476,12)" s:width="20" s:height="40" id="cell_$procmux$122">
    <s:alias val="$pmux"/>
    <s:alias val="$mux"/>
    <s:alias val="$_MUX_"/>
    <path d="M0,0 L20,10 L20,30 L0,40 Z" class="cell_$procmux$122"/>
    <g s:x="0" s:y="10" s:pid="A"/>
    <g s:x="0" s:y="30" s:pid="B"/>
    <g s:x="10" s:y="35" s:pid="S"/>
    <g s:x="20" s:y="20" s:pid="Y"/>
  </g>
  <g s:type="mux" transform="translate(778,127)" s:width="20" s:height="40" id="cell_$ternary$regfile_rv32.v:31$46">
    <s:alias val="$pmux"/>
    <s:alias val="$mux"/>
    <s:alias val="$_MUX_"/>
    <path d="M0,0 L20,10 L20,30 L0,40 Z" class="cell_$ternary$regfile_rv32.v:31$46"/>
    <g s:x="0" s:y="10" s:pid="A"/>
    <g s:x="0" s:y="30" s:pid="B"/>
    <g s:x="10" s:y="35" s:pid="S"/>
    <g s:x="20" s:y="20" s:pid="Y"/>
  </g>
  <g s:type="mux" transform="translate(778,364.5)" s:width="20" s:height="40" id="cell_$ternary$regfile_rv32.v:32$49">
    <s:alias val="$pmux"/>
    <s:alias val="$mux"/>
    <s:alias val="$_MUX_"/>
    <path d="M0,0 L20,10 L20,30 L0,40 Z" class="cell_$ternary$regfile_rv32.v:32$49"/>
    <g s:x="0" s:y="10" s:pid="A"/>
    <g s:x="0" s:y="30" s:pid="B"/>
    <g s:x="10" s:y="35" s:pid="S"/>
    <g s:x="20" s:y="20" s:pid="Y"/>
  </g>
  <g s:type="generic" transform="translate(604,136.5)" s:width="30" s:height="40" id="cell_regs">
    <text x="15" y="-4" class="nodelabel cell_regs" s:attribute="ref">RAM</text>
    <rect width="30" height="180" s:generic="body" class="cell_regs"/>
    <g transform="translate(0,10)" s:x="0" s:y="10" s:pid="in0" id="port_regs~RD_ADDR">
      <text x="-3" y="-4" class="inputPortLabel cell_regs">RD_ADDR</text>
    </g>
    <g transform="translate(0,30)" s:x="0" s:y="10" s:pid="in0" id="port_regs~RD_ARST">
      <text x="-3" y="-4" class="inputPortLabel cell_regs">RD_ARST</text>
    </g>
    <g transform="translate(0,50)" s:x="0" s:y="10" s:pid="in0" id="port_regs~RD_CLK">
      <text x="-3" y="-4" class="inputPortLabel cell_regs">RD_CLK</text>
    </g>
    <g transform="translate(0,70)" s:x="0" s:y="10" s:pid="in0" id="port_regs~RD_EN">
      <text x="-3" y="-4" class="inputPortLabel cell_regs">RD_EN</text>
    </g>
    <g transform="translate(0,90)" s:x="0" s:y="10" s:pid="in0" id="port_regs~RD_SRST">
      <text x="-3" y="-4" class="inputPortLabel cell_regs">RD_SRST</text>
    </g>
    <g transform="translate(0,110)" s:x="0" s:y="10" s:pid="in0" id="port_regs~WR_ADDR">
      <text x="-3" y="-4" class="inputPortLabel cell_regs">WR_ADDR</text>
    </g>
    <g transform="translate(0,130)" s:x="0" s:y="10" s:pid="in0" id="port_regs~WR_CLK">
      <text x="-3" y="-4" class="inputPortLabel cell_regs">WR_CLK</text>
    </g>
    <g transform="translate(0,150)" s:x="0" s:y="10" s:pid="in0" id="port_regs~WR_DATA">
      <text x="-3" y="-4" class="inputPortLabel cell_regs">WR_DATA</text>
    </g>
    <g transform="translate(0,170)" s:x="0" s:y="10" s:pid="in0" id="port_regs~WR_EN">
      <text x="-3" y="-4" class="inputPortLabel cell_regs">WR_EN</text>
    </g>
    <g transform="translate(30,10)" s:x="30" s:y="10" s:pid="out0" id="port_regs~RD_DATA">
      <text x="5" y="-4" style="fill:#000; stroke:none" class="cell_regs">RD_DATA</text>
    </g>
  </g>
  <g s:type="inputExt" transform="translate(471,212)" s:width="30" s:height="20" id="cell_clk">
    <text x="15" y="-4" class="nodelabel cell_clk" s:attribute="ref">clk</text>
    <s:alias val="$_inputExt_"/>
    <path d="M0,0 L0,20 L15,20 L30,10 L15,0 Z" class="cell_clk"/>
    <g s:x="28" s:y="10" s:pid="Y"/>
  </g>
  <g s:type="inputExt" transform="translate(156,251.5)" s:width="30" s:height="20" id="cell_we">
    <text x="15" y="-4" class="nodelabel cell_we" s:attribute="ref">we</text>
    <s:alias val="$_inputExt_"/>
    <path d="M0,0 L0,20 L15,20 L30,10 L15,0 Z" class="cell_we"/>
    <g s:x="28" s:y="10" s:pid="Y"/>
  </g>
  <g s:type="inputExt" transform="translate(84,317)" s:width="30" s:height="20" id="cell_waddr">
    <text x="15" y="-4" class="nodelabel cell_waddr" s:attribute="ref">waddr</text>
    <s:alias val="$_inputExt_"/>
    <path d="M0,0 L0,20 L15,20 L30,10 L15,0 Z" class="cell_waddr"/>
    <g s:x="28" s:y="10" s:pid="Y"/>
  </g>
  <g s:type="inputExt" transform="translate(400,287)" s:width="30" s:height="20" id="cell_wdata">
    <text x="15" y="-4" class="nodelabel cell_wdata" s:attribute="ref">wdata</text>
    <s:alias val="$_inputExt_"/>
    <path d="M0,0 L0,20 L15,20 L30,10 L15,0 Z" class="cell_wdata"/>
    <g s:x="28" s:y="10" s:pid="Y"/>
  </g>
  <g s:type="inputExt" transform="translate(400,374.5)" s:width="30" s:height="20" id="cell_raddr1">
    <text x="15" y="-4" class="nodelabel cell_raddr1" s:attribute="ref">raddr1</text>
    <s:alias val="$_inputExt_"/>
    <path d="M0,0 L0,20 L15,20 L30,10 L15,0 Z" class="cell_raddr1"/>
    <g s:x="28" s:y="10" s:pid="Y"/>
  </g>
  <g s:type="outputExt" transform="translate(833,137)" s:width="30" s:height="20" id="cell_rdata1">
    <text x="15" y="-4" class="nodelabel cell_rdata1" s:attribute="ref">rdata1</text>
    <s:alias val="$_outputExt_"/>
    <path d="M30,0 L30,20 L15,20 L0,10 L15,0 Z" class="cell_rdata1"/>
    <g s:x="0" s:y="10" s:pid="A"/>
  </g>
  <g s:type="inputExt" transform="translate(400,439.5)" s:width="30" s:height="20" id="cell_raddr2">
    <text x="15" y="-4" class="nodelabel cell_raddr2" s:attribute="ref">raddr2</text>
    <s:alias val="$_inputExt_"/>
    <path d="M0,0 L0,20 L15,20 L30,10 L15,0 Z" class="cell_raddr2"/>
    <g s:x="28" s:y="10" s:pid="Y"/>
  </g>
  <g s:type="outputExt" transform="translate(833,374.5)" s:width="30" s:height="20" id="cell_rdata2">
    <text x="15" y="-4" class="nodelabel cell_rdata2" s:attribute="ref">rdata2</text>
    <s:alias val="$_outputExt_"/>
    <path d="M30,0 L30,20 L15,20 L0,10 L15,0 Z" class="cell_rdata2"/>
    <g s:x="0" s:y="10" s:pid="A"/>
  </g>
  <g s:type="constant" transform="translate(335,988)" s:width="30" s:height="20" id="cell_0">
    <text x="15" y="-4" class="nodelabel cell_0" s:attribute="ref">0</text>
    <s:alias val="$_constant_"/>
    <rect width="30" height="20" class="cell_0"/>
    <g s:x="30" s:y="10" s:pid="Y"/>
  </g>
  <g s:type="constant" transform="translate(335,1053)" s:width="30" s:height="20" id="cell_1">
    <text x="15" y="-4" class="nodelabel cell_1" s:attribute="ref">1</text>
    <s:alias val="$_constant_"/>
    <rect width="30" height="20" class="cell_1"/>
    <g s:x="30" s:y="10" s:pid="Y"/>
  </g>
  <g s:type="constant" transform="translate(713,384.5)" s:width="30" s:height="20" id="cell_00000000000000000000000000000000">
    <text x="15" y="-4" class="nodelabel cell_00000000000000000000000000000000" s:attribute="ref">0x0</text>
    <s:alias val="$_constant_"/>
    <rect width="30" height="20" class="cell_00000000000000000000000000000000"/>
    <g s:x="30" s:y="10" s:pid="Y"/>
  </g>
  <g s:type="constant" transform="translate(471,147)" s:width="30" s:height="20" id="cell_00">
    <text x="15" y="-4" class="nodelabel cell_00" s:attribute="ref">00</text>
    <s:alias val="$_constant_"/>
    <rect width="30" height="20" class="cell_00"/>
    <g s:x="30" s:y="10" s:pid="Y"/>
  </g>
  <g s:type="constant" transform="translate(471,82)" s:width="30" s:height="20" id="cell_11">
    <text x="15" y="-4" class="nodelabel cell_11" s:attribute="ref">11</text>
    <s:alias val="$_constant_"/>
    <rect width="30" height="20" class="cell_11"/>
    <g s:x="30" s:y="10" s:pid="Y"/>
  </g>
  <g s:type="join" transform="translate(66,55)" s:width="4" s:height="40" id="cell_$join$,x,x,x,x,x,x,x,x,x,x,x,x,x,x,x,x,x,x,x,x,x,x,x,x,x,x,x,x,x,x,x,x,">
    <rect width="5" height="40" class="splitjoinBody" s:generic="body"/>
    <s:alias val="$_join_"/>
    <g s:x="5" s:y="20" s:pid="out"/>
    <g transform="translate(0,10)" s:x="0" s:y="10" s:pid="in0">
      <text x="-3" y="-4" class="inputPortLabel">0:4</text>
    </g>
  </g>
  <g s:type="join" transform="translate(490,374)" s:width="4" s:height="40" id="cell_$join$,41,42,43,44,45,78,79,80,81,82,">
    <rect width="5" height="40" class="splitjoinBody" s:generic="body"/>
    <s:alias val="$_join_"/>
    <g s:x="5" s:y="20" s:pid="out"/>
    <g transform="translate(0,10)" s:x="0" s:y="10" s:pid="in0">
      <text x="-3" y="-4" class="inputPortLabel">0:4</text>
    </g>
    <g transform="translate(0,30)" s:x="0" s:y="10" s:pid="in0">
      <text x="-3" y="-4" class="inputPortLabel">5:9</text>
    </g>
  </g>
  <g s:type="join" transform="translate(489.52,502.5)" s:width="4" s:height="40" id="cell_$join$,119,119,119,119,119,119,119,119,119,119,119,119,119,119,119,119,119,119,119,119,119,119,119,119,119,119,119,119,119,119,119,119,">
    <rect width="5" height="640" class="splitjoinBody" s:generic="body"/>
    <s:alias val="$_join_"/>
    <g s:x="5" s:y="20" s:pid="out"/>
    <g transform="translate(0,10)" s:x="0" s:y="10" s:pid="in0">
      <text x="-3" y="-4" class="inputPortLabel">0</text>
    </g>
    <g transform="translate(0,30)" s:x="0" s:y="10" s:pid="in0">
      <text x="-3" y="-4" class="inputPortLabel">1</text>
    </g>
    <g transform="translate(0,50)" s:x="0" s:y="10" s:pid="in0">
      <text x="-3" y="-4" class="inputPortLabel">2</text>
    </g>
    <g transform="translate(0,70)" s:x="0" s:y="10" s:pid="in0">
      <text x="-3" y="-4" class="inputPortLabel">3</text>
    </g>
    <g transform="translate(0,90)" s:x="0" s:y="10" s:pid="in0">
      <text x="-3" y="-4" class="inputPortLabel">4</text>
    </g>
    <g transform="translate(0,110)" s:x="0" s:y="10" s:pid="in0">
      <text x="-3" y="-4" class="inputPortLabel">5</text>
    </g>
    <g transform="translate(0,130)" s:x="0" s:y="10" s:pid="in0">
      <text x="-3" y="-4" class="inputPortLabel">6</text>
    </g>
    <g transform="translate(0,150)" s:x="0" s:y="10" s:pid="in0">
      <text x="-3" y="-4" class="inputPortLabel">7</text>
    </g>
    <g transform="translate(0,170)" s:x="0" s:y="10" s:pid="in0">
      <text x="-3" y="-4" class="inputPortLabel">8</text>
    </g>
    <g transform="translate(0,190)" s:x="0" s:y="10" s:pid="in0">
      <text x="-3" y="-4" class="inputPortLabel">9</text>
    </g>
    <g transform="translate(0,210)" s:x="0" s:y="10" s:pid="in0">
      <text x="-3" y="-4" class="inputPortLabel">10</text>
    </g>
    <g transform="translate(0,230)" s:x="0" s:y="10" s:pid="in0">
      <text x="-3" y="-4" class="inputPortLabel">11</text>
    </g>
    <g transform="translate(0,250)" s:x="0" s:y="10" s:pid="in0">
      <text x="-3" y="-4" class="inputPortLabel">12</text>
    </g>
    <g transform="translate(0,270)" s:x="0" s:y="10" s:pid="in0">
      <text x="-3" y="-4" class="inputPortLabel">13</text>
    </g>
    <g transform="translate(0,290)" s:x="0" s:y="10" s:pid="in0">
      <text x="-3" y="-4" class="inputPortLabel">14</text>
    </g>
    <g transform="translate(0,310)" s:x="0" s:y="10" s:pid="in0">
      <text x="-3" y="-4" class="inputPortLabel">15</text>
    </g>
    <g transform="translate(0,330)" s:x="0" s:y="10" s:pid="in0">
      <text x="-3" y="-4" class="inputPortLabel">16</text>
    </g>
    <g transform="translate(0,350)" s:x="0" s:y="10" s:pid="in0">
      <text x="-3" y="-4" class="inputPortLabel">17</text>
    </g>
    <g transform="translate(0,370)" s:x="0" s:y="10" s:pid="in0">
      <text x="-3" y="-4" class="inputPortLabel">18</text>
    </g>
    <g transform="translate(0,390)" s:x="0" s:y="10" s:pid="in0">
      <text x="-3" y="-4" class="inputPortLabel">19</text>
    </g>
    <g transform="translate(0,410)" s:x="0" s:y="10" s:pid="in0">
      <text x="-3" y="-4" class="inputPortLabel">20</text>
    </g>
    <g transform="translate(0,430)" s:x="0" s:y="10" s:pid="in0">
      <text x="-3" y="-4" class="inputPortLabel">21</text>
    </g>
    <g transform="translate(0,450)" s:x="0" s:y="10" s:pid="in0">
      <text x="-3" y="-4" class="inputPortLabel">22</text>
    </g>
    <g transform="translate(0,470)" s:x="0" s:y="10" s:pid="in0">
      <text x="-3" y="-4" class="inputPortLabel">23</text>
    </g>
    <g transform="translate(0,490)" s:x="0" s:y="10" s:pid="in0">
      <text x="-3" y="-4" class="inputPortLabel">24</text>
    </g>
    <g transform="translate(0,510)" s:x="0" s:y="10" s:pid="in0">
      <text x="-3" y="-4" class="inputPortLabel">25</text>
    </g>
    <g transform="translate(0,530)" s:x="0" s:y="10" s:pid="in0">
      <text x="-3" y="-4" class="inputPortLabel">26</text>
    </g>
    <g transform="translate(0,550)" s:x="0" s:y="10" s:pid="in0">
      <text x="-3" y="-4" class="inputPortLabel">27</text>
    </g>
    <g transform="translate(0,570)" s:x="0" s:y="10" s:pid="in0">
      <text x="-3" y="-4" class="inputPortLabel">28</text>
    </g>
    <g transform="translate(0,590)" s:x="0" s:y="10" s:pid="in0">
      <text x="-3" y="-4" class="inputPortLabel">29</text>
    </g>
    <g transform="translate(0,610)" s:x="0" s:y="10" s:pid="in0">
      <text x="-3" y="-4" class="inputPortLabel">30</text>
    </g>
    <g transform="translate(0,630)" s:x="0" s:y="10" s:pid="in0">
      <text x="-3" y="-4" class="inputPortLabel">31</text>
    </g>
  </g>
  <g s:type="split" transform="translate(713,126.5)" s:width="5" s:height="40" id="cell_$split$,157,158,159,160,161,162,163,164,165,166,167,168,169,170,171,172,173,174,175,176,177,178,179,180,181,182,183,184,185,186,187,188,189,190,191,192,193,194,195,196,197,198,199,200,201,202,203,204,205,206,207,208,209,210,211,212,213,214,215,216,217,218,219,220,">
    <rect width="5" height="40" class="splitjoinBody" s:generic="body"/>
    <s:alias val="$_split_"/>
    <g s:x="0" s:y="20" s:pid="in"/>
    <g transform="translate(4,10)" s:x="4" s:y="10" s:pid="out0">
      <text x="5" y="-4">0:31</text>
    </g>
    <g transform="translate(4,30)" s:x="4" s:y="10" s:pid="out0">
      <text x="5" y="-4">32:63</text>
    </g>
  </g>
  <g s:type="split" transform="translate(48,12)" s:width="5" s:height="40" id="cell_$split$,x,x,x,x,x,">
    <rect width="5" height="20" class="splitjoinBody" s:generic="body"/>
    <s:alias val="$_split_"/>
    <g s:x="0" s:y="20" s:pid="in"/>
    <g transform="translate(4,10)" s:x="4" s:y="10" s:pid="out0">
      <text x="5" y="-4">0:1</text>
    </g>
  </g>
  <line x1="428" x2="446" y1="384.5" y2="384.5" class="net_41,42,43,44,45"/>
  <line x1="446" x2="446" y1="384.5" y2="329.5" class="net_41,42,43,44,45"/>
  <circle cx="446" cy="384.5" r="2" style="fill:#000" class="net_41,42,43,44,45"/>
  <line x1="446" x2="713" y1="329.5" y2="329.5" class="net_41,42,43,44,45"/>
  <line x1="428" x2="490" y1="384.5" y2="384.5" class="net_41,42,43,44,45"/>
  <line x1="428" x2="713" y1="449.5" y2="449.5" class="net_78,79,80,81,82"/>
  <line x1="428" x2="446" y1="449.5" y2="449.5" class="net_78,79,80,81,82"/>
  <line x1="446" x2="446" y1="449.5" y2="404.5" class="net_78,79,80,81,82"/>
  <circle cx="446" cy="449.5" r="2" style="fill:#000" class="net_78,79,80,81,82"/>
  <line x1="446" x2="490" y1="404.5" y2="404.5" class="net_78,79,80,81,82"/>
  <line x1="184" x2="310" y1="261.5" y2="261.5" class="net_3"/>
  <line x1="310" x2="310" y1="261.5" y2="312" class="net_3"/>
  <line x1="310" x2="335" y1="312" y2="312" class="net_3"/>
  <line x1="187" x2="335" y1="327" y2="327" class="net_117"/>
  <line x1="112" x2="156" y1="327" y2="327" class="net_4,5,6,7,8"/>
  <line x1="112" x2="124" y1="327" y2="327" class="net_4,5,6,7,8"/>
  <line x1="124" x2="124" y1="327" y2="42" class="net_4,5,6,7,8"/>
  <circle cx="124" cy="327" r="2" style="fill:#000" class="net_4,5,6,7,8"/>
  <line x1="124" x2="476" y1="42" y2="42" class="net_4,5,6,7,8"/>
  <line x1="365" x2="375" y1="998" y2="998" class="net_221"/>
  <line x1="375" x2="375" y1="998" y2="1043" class="net_221"/>
  <line x1="375" x2="405.3333333333333" y1="1043" y2="1043" class="net_221"/>
  <line x1="365" x2="405.3333333333333" y1="1063" y2="1063" class="net_222"/>
  <line x1="365" x2="385" y1="319.5" y2="319.5" class="net_118"/>
  <line x1="385" x2="385" y1="319.5" y2="1083" class="net_118"/>
  <line x1="385" x2="415.3333333333333" y1="1083" y2="1083" class="net_118"/>
  <circle cx="385" cy="319.5" r="2" style="fill:#000" class="net_118"/>
  <line x1="415.3333333333333" x2="415.3333333333333" y1="1083" y2="1068" class="net_118"/>
  <line x1="365" x2="486" y1="319.5" y2="319.5" class="net_118"/>
  <line x1="486" x2="486" y1="319.5" y2="302" class="net_118"/>
  <line x1="365" x2="385" y1="319.5" y2="319.5" class="net_118"/>
  <line x1="385" x2="385" y1="319.5" y2="62" class="net_118"/>
  <line x1="385" x2="486" y1="62" y2="62" class="net_118"/>
  <line x1="486" x2="486" y1="62" y2="47" class="net_118"/>
  <line x1="428" x2="476" y1="297" y2="297" class="net_9,10,11,12,13,14,15,16,17,18,19,20,21,22,23,24,25,26,27,28,29,30,31,32,33,34,35,36,37,38,39,40"/>
  <line x1="718" x2="778" y1="137" y2="137" class="net_157,158,159,160,161,162,163,164,165,166,167,168,169,170,171,172,173,174,175,176,177,178,179,180,181,182,183,184,185,186,187,188"/>
  <line x1="743" x2="763" y1="394.5" y2="394.5" class="net_223,224,225,226,227,228,229,230,231,232,233,234,235,236,237,238,239,240,241,242,243,244,245,246,247,248,249,250,251,252,253,254"/>
  <line x1="763" x2="763" y1="394.5" y2="157" class="net_223,224,225,226,227,228,229,230,231,232,233,234,235,236,237,238,239,240,241,242,243,244,245,246,247,248,249,250,251,252,253,254"/>
  <circle cx="763" cy="394.5" r="2" style="fill:#000" class="net_223,224,225,226,227,228,229,230,231,232,233,234,235,236,237,238,239,240,241,242,243,244,245,246,247,248,249,250,251,252,253,254"/>
  <line x1="763" x2="778" y1="157" y2="157" class="net_223,224,225,226,227,228,229,230,231,232,233,234,235,236,237,238,239,240,241,242,243,244,245,246,247,248,249,250,251,252,253,254"/>
  <line x1="743" x2="778" y1="394.5" y2="394.5" class="net_223,224,225,226,227,228,229,230,231,232,233,234,235,236,237,238,239,240,241,242,243,244,245,246,247,248,249,250,251,252,253,254"/>
  <line x1="738" x2="788" y1="329.5" y2="329.5" class="net_115"/>
  <line x1="788" x2="788" y1="329.5" y2="162" class="net_115"/>
  <line x1="718" x2="753" y1="157" y2="157" class="net_189,190,191,192,193,194,195,196,197,198,199,200,201,202,203,204,205,206,207,208,209,210,211,212,213,214,215,216,217,218,219,220"/>
  <line x1="753" x2="753" y1="157" y2="374.5" class="net_189,190,191,192,193,194,195,196,197,198,199,200,201,202,203,204,205,206,207,208,209,210,211,212,213,214,215,216,217,218,219,220"/>
  <line x1="753" x2="778" y1="374.5" y2="374.5" class="net_189,190,191,192,193,194,195,196,197,198,199,200,201,202,203,204,205,206,207,208,209,210,211,212,213,214,215,216,217,218,219,220"/>
  <line x1="738" x2="788" y1="449.5" y2="449.5" class="net_116"/>
  <line x1="788" x2="788" y1="449.5" y2="399.5" class="net_116"/>
  <line x1="496" x2="521" y1="394.5" y2="394.5" class="net_41,42,43,44,45,78,79,80,81,82"/>
  <line x1="521" x2="521" y1="394.5" y2="147" class="net_41,42,43,44,45,78,79,80,81,82"/>
  <line x1="521" x2="604" y1="147" y2="147" class="net_41,42,43,44,45,78,79,80,81,82"/>
  <line x1="501" x2="541" y1="157" y2="157" class="net_287,288"/>
  <line x1="541" x2="541" y1="157" y2="167" class="net_287,288"/>
  <circle cx="541" cy="167" r="2" style="fill:#000" class="net_287,288"/>
  <line x1="541" x2="604" y1="167" y2="167" class="net_287,288"/>
  <line x1="501" x2="541" y1="157" y2="157" class="net_287,288"/>
  <line x1="541" x2="541" y1="157" y2="227" class="net_287,288"/>
  <line x1="541" x2="604" y1="227" y2="227" class="net_287,288"/>
  <line x1="501" x2="551" y1="92" y2="92" class="net_289,290"/>
  <line x1="551" x2="551" y1="92" y2="207" class="net_289,290"/>
  <line x1="551" x2="604" y1="207" y2="207" class="net_289,290"/>
  <line x1="496" x2="531" y1="32" y2="32" class="net_152,153,154,155,156"/>
  <line x1="531" x2="531" y1="32" y2="247" class="net_152,153,154,155,156"/>
  <line x1="531" x2="604" y1="247" y2="247" class="net_152,153,154,155,156"/>
  <line x1="499" x2="511" y1="222" y2="222" class="net_2"/>
  <line x1="511" x2="511" y1="222" y2="267" class="net_2"/>
  <line x1="511" x2="604" y1="267" y2="267" class="net_2"/>
  <line x1="496" x2="604" y1="287" y2="287" class="net_120,121,122,123,124,125,126,127,128,129,130,131,132,133,134,135,136,137,138,139,140,141,142,143,144,145,146,147,148,149,150,151"/>
  <line x1="495.52" x2="531" y1="523" y2="523" class="net_119,119,119,119,119,119,119,119,119,119,119,119,119,119,119,119,119,119,119,119,119,119,119,119,119,119,119,119,119,119,119,119"/>
  <line x1="531" x2="531" y1="523" y2="307" class="net_119,119,119,119,119,119,119,119,119,119,119,119,119,119,119,119,119,119,119,119,119,119,119,119,119,119,119,119,119,119,119,119"/>
  <line x1="531" x2="604" y1="307" y2="307" class="net_119,119,119,119,119,119,119,119,119,119,119,119,119,119,119,119,119,119,119,119,119,119,119,119,119,119,119,119,119,119,119,119"/>
  <line x1="798" x2="833" y1="147" y2="147" class="net_46,47,48,49,50,51,52,53,54,55,56,57,58,59,60,61,62,63,64,65,66,67,68,69,70,71,72,73,74,75,76,77"/>
  <line x1="798" x2="833" y1="384.5" y2="384.5" class="net_83,84,85,86,87,88,89,90,91,92,93,94,95,96,97,98,99,100,101,102,103,104,105,106,107,108,109,110,111,112,113,114"/>
  <line x1="22" x2="22" y1="45" y2="65.5" class="net_NaN,NaN,NaN,NaN,NaN"/>
  <line x1="22" x2="66" y1="65.5" y2="65.5" class="net_NaN,NaN,NaN,NaN,NaN"/>
  <line x1="22" x2="48.5" y1="45" y2="33" class="net_NaN,NaN,NaN,NaN,NaN"/>
  <line x1="425.3333333333333" x2="446" y1="1053" y2="1053" class="net_119"/>
  <line x1="446" x2="446" y1="1053" y2="490.5" class="net_119"/>
  <line x1="446" x2="490.02" y1="490.5" y2="490.5" class="net_119"/>
  <circle cx="446" cy="1053" r="2" style="fill:#000" class="net_119"/>
  <circle cx="446" cy="490.5" r="2" style="fill:#000" class="net_119"/>
  <line x1="490.02" x2="490.02" y1="490.5" y2="512.5" class="net_119"/>
  <line x1="425.3333333333333" x2="446" y1="1053" y2="1053" class="net_119"/>
  <line x1="446" x2="446" y1="1053" y2="480.5" class="net_119"/>
  <line x1="446" x2="490.02" y1="480.5" y2="480.5" class="net_119"/>
  <circle cx="446" cy="480.5" r="2" style="fill:#000" class="net_119"/>
  <line x1="490.02" x2="490.02" y1="480.5" y2="532.5" class="net_119"/>
  <line x1="425.3333333333333" x2="446" y1="1053" y2="1053" class="net_119"/>
  <line x1="446" x2="446" y1="1053" y2="470.5" class="net_119"/>
  <line x1="446" x2="490.02" y1="470.5" y2="470.5" class="net_119"/>
  <circle cx="446" cy="470.5" r="2" style="fill:#000" class="net_119"/>
  <line x1="490.02" x2="490.02" y1="470.5" y2="552.5" class="net_119"/>
  <line x1="425.3333333333333" x2="446" y1="1053" y2="1053" class="net_119"/>
  <line x1="446" x2="446" y1="1053" y2="460.5" class="net_119"/>
  <line x1="446" x2="490.02" y1="460.5" y2="460.5" class="net_119"/>
  <line x1="490.02" x2="490.02" y1="460.5" y2="572.5" class="net_119"/>
  <line x1="425.3333333333333" x2="446" y1="1053" y2="1053" class="net_119"/>
  <line x1="446" x2="446" y1="1053" y2="593" class="net_119"/>
  <circle cx="446" cy="593" r="2" style="fill:#000" class="net_119"/>
  <line x1="446" x2="489.52" y1="593" y2="593" class="net_119"/>
  <line x1="425.3333333333333" x2="446" y1="1053" y2="1053" class="net_119"/>
  <line x1="446" x2="446" y1="1053" y2="613" class="net_119"/>
  <circle cx="446" cy="613" r="2" style="fill:#000" class="net_119"/>
  <line x1="446" x2="489.52" y1="613" y2="613" class="net_119"/>
  <line x1="425.3333333333333" x2="446" y1="1053" y2="1053" class="net_119"/>
  <line x1="446" x2="446" y1="1053" y2="633" class="net_119"/>
  <circle cx="446" cy="633" r="2" style="fill:#000" class="net_119"/>
  <line x1="446" x2="489.52" y1="633" y2="633" class="net_119"/>
  <line x1="425.3333333333333" x2="446" y1="1053" y2="1053" class="net_119"/>
  <line x1="446" x2="446" y1="1053" y2="653" class="net_119"/>
  <circle cx="446" cy="653" r="2" style="fill:#000" class="net_119"/>
  <line x1="446" x2="489.52" y1="653" y2="653" class="net_119"/>
  <line x1="425.3333333333333" x2="446" y1="1053" y2="1053" class="net_119"/>
  <line x1="446" x2="446" y1="1053" y2="673" class="net_119"/>
  <circle cx="446" cy="673" r="2" style="fill:#000" class="net_119"/>
  <line x1="446" x2="489.52" y1="673" y2="673" class="net_119"/>
  <line x1="425.3333333333333" x2="446" y1="1053" y2="1053" class="net_119"/>
  <line x1="446" x2="446" y1="1053" y2="693" class="net_119"/>
  <circle cx="446" cy="693" r="2" style="fill:#000" class="net_119"/>
  <line x1="446" x2="489.52" y1="693" y2="693" class="net_119"/>
  <line x1="425.3333333333333" x2="446" y1="1053" y2="1053" class="net_119"/>
  <line x1="446" x2="446" y1="1053" y2="713" class="net_119"/>
  <circle cx="446" cy="713" r="2" style="fill:#000" class="net_119"/>
  <line x1="446" x2="489.52" y1="713" y2="713" class="net_119"/>
  <line x1="425.3333333333333" x2="446" y1="1053" y2="1053" class="net_119"/>
  <line x1="446" x2="446" y1="1053" y2="733" class="net_119"/>
  <circle cx="446" cy="733" r="2" style="fill:#000" class="net_119"/>
  <line x1="446" x2="489.52" y1="733" y2="733" class="net_119"/>
  <line x1="425.3333333333333" x2="446" y1="1053" y2="1053" class="net_119"/>
  <line x1="446" x2="446" y1="1053" y2="753" class="net_119"/>
  <circle cx="446" cy="753" r="2" style="fill:#000" class="net_119"/>
  <line x1="446" x2="489.52" y1="753" y2="753" class="net_119"/>
  <line x1="425.3333333333333" x2="446" y1="1053" y2="1053" class="net_119"/>
  <line x1="446" x2="446" y1="1053" y2="773" class="net_119"/>
  <circle cx="446" cy="773" r="2" style="fill:#000" class="net_119"/>
  <line x1="446" x2="489.52" y1="773" y2="773" class="net_119"/>
  <line x1="425.3333333333333" x2="446" y1="1053" y2="1053" class="net_119"/>
  <line x1="446" x2="446" y1="1053" y2="793" class="net_119"/>
  <circle cx="446" cy="793" r="2" style="fill:#000" class="net_119"/>
  <line x1="446" x2="489.52" y1="793" y2="793" class="net_119"/>
  <line x1="425.3333333333333" x2="446" y1="1053" y2="1053" class="net_119"/>
  <line x1="446" x2="446" y1="1053" y2="813" class="net_119"/>
  <circle cx="446" cy="813" r="2" style="fill:#000" class="net_119"/>
  <line x1="446" x2="489.52" y1="813" y2="813" class="net_119"/>
  <line x1="425.3333333333333" x2="446" y1="1053" y2="1053" class="net_119"/>
  <line x1="446" x2="446" y1="1053" y2="833" class="net_119"/>
  <circle cx="446" cy="833" r="2" style="fill:#000" class="net_119"/>
  <line x1="446" x2="489.52" y1="833" y2="833" class="net_119"/>
  <line x1="425.3333333333333" x2="446" y1="1053" y2="1053" class="net_119"/>
  <line x1="446" x2="446" y1="1053" y2="853" class="net_119"/>
  <circle cx="446" cy="853" r="2" style="fill:#000" class="net_119"/>
  <line x1="446" x2="489.52" y1="853" y2="853" class="net_119"/>
  <line x1="425.3333333333333" x2="446" y1="1053" y2="1053" class="net_119"/>
  <line x1="446" x2="446" y1="1053" y2="873" class="net_119"/>
  <circle cx="446" cy="873" r="2" style="fill:#000" class="net_119"/>
  <line x1="446" x2="489.52" y1="873" y2="873" class="net_119"/>
  <line x1="425.3333333333333" x2="446" y1="1053" y2="1053" class="net_119"/>
  <line x1="446" x2="446" y1="1053" y2="893" class="net_119"/>
  <circle cx="446" cy="893" r="2" style="fill:#000" class="net_119"/>
  <line x1="446" x2="489.52" y1="893" y2="893" class="net_119"/>
  <line x1="425.3333333333333" x2="446" y1="1053" y2="1053" class="net_119"/>
  <line x1="446" x2="446" y1="1053" y2="913" class="net_119"/>
  <circle cx="446" cy="913" r="2" style="fill:#000" class="net_119"/>
  <line x1="446" x2="489.52" y1="913" y2="913" class="net_119"/>
  <line x1="425.3333333333333" x2="446" y1="1053" y2="1053" class="net_119"/>
  <line x1="446" x2="446" y1="1053" y2="933" class="net_119"/>
  <circle cx="446" cy="933" r="2" style="fill:#000" class="net_119"/>
  <line x1="446" x2="489.52" y1="933" y2="933" class="net_119"/>
  <line x1="425.3333333333333" x2="446" y1="1053" y2="1053" class="net_119"/>
  <line x1="446" x2="446" y1="1053" y2="953" class="net_119"/>
  <circle cx="446" cy="953" r="2" style="fill:#000" class="net_119"/>
  <line x1="446" x2="489.52" y1="953" y2="953" class="net_119"/>
  <line x1="425.3333333333333" x2="446" y1="1053" y2="1053" class="net_119"/>
  <line x1="446" x2="446" y1="1053" y2="973" class="net_119"/>
  <circle cx="446" cy="973" r="2" style="fill:#000" class="net_119"/>
  <line x1="446" x2="489.52" y1="973" y2="973" class="net_119"/>
  <line x1="425.3333333333333" x2="446" y1="1053" y2="1053" class="net_119"/>
  <line x1="446" x2="446" y1="1053" y2="993" class="net_119"/>
  <circle cx="446" cy="993" r="2" style="fill:#000" class="net_119"/>
  <line x1="446" x2="489.52" y1="993" y2="993" class="net_119"/>
  <line x1="425.3333333333333" x2="446" y1="1053" y2="1053" class="net_119"/>
  <line x1="446" x2="446" y1="1053" y2="1013" class="net_119"/>
  <circle cx="446" cy="1013" r="2" style="fill:#000" class="net_119"/>
  <line x1="446" x2="489.52" y1="1013" y2="1013" class="net_119"/>
  <line x1="425.3333333333333" x2="446" y1="1053" y2="1053" class="net_119"/>
  <line x1="446" x2="446" y1="1053" y2="1033" class="net_119"/>
  <circle cx="446" cy="1033" r="2" style="fill:#000" class="net_119"/>
  <line x1="446" x2="489.52" y1="1033" y2="1033" class="net_119"/>
  <line x1="425.3333333333333" x2="489.52" y1="1053" y2="1053" class="net_119"/>
  <line x1="425.3333333333333" x2="446" y1="1053" y2="1053" class="net_119"/>
  <line x1="446" x2="446" y1="1053" y2="1182.5" class="net_119"/>
  <line x1="446" x2="490.02" y1="1182.5" y2="1182.5" class="net_119"/>
  <line x1="490.02" x2="490.02" y1="1182.5" y2="1073.5" class="net_119"/>
  <line x1="425.3333333333333" x2="446" y1="1053" y2="1053" class="net_119"/>
  <line x1="446" x2="446" y1="1053" y2="1172.5" class="net_119"/>
  <line x1="446" x2="490.02" y1="1172.5" y2="1172.5" class="net_119"/>
  <circle cx="446" cy="1172.5" r="2" style="fill:#000" class="net_119"/>
  <line x1="490.02" x2="490.02" y1="1172.5" y2="1093.5" class="net_119"/>
  <line x1="425.3333333333333" x2="446" y1="1053" y2="1053" class="net_119"/>
  <line x1="446" x2="446" y1="1053" y2="1162.5" class="net_119"/>
  <line x1="446" x2="490.02" y1="1162.5" y2="1162.5" class="net_119"/>
  <circle cx="446" cy="1162.5" r="2" style="fill:#000" class="net_119"/>
  <line x1="490.02" x2="490.02" y1="1162.5" y2="1113.5" class="net_119"/>
  <line x1="425.3333333333333" x2="446" y1="1053" y2="1053" class="net_119"/>
  <line x1="446" x2="446" y1="1053" y2="1152.5" class="net_119"/>
  <line x1="446" x2="490.02" y1="1152.5" y2="1152.5" class="net_119"/>
  <circle cx="446" cy="1152.5" r="2" style="fill:#000" class="net_119"/>
  <line x1="490.02" x2="490.02" y1="1152.5" y2="1133.5" class="net_119"/>
  <line x1="635" x2="713" y1="147" y2="147" class="net_157,158,159,160,161,162,163,164,165,166,167,168,169,170,171,172,173,174,175,176,177,178,179,180,181,182,183,184,185,186,187,188,189,190,191,192,193,194,195,196,197,198,199,200,201,202,203,204,205,206,207,208,209,210,211,212,213,214,215,216,217,218,219,220"/>
</svg>
