<svg xmlns="http://www.w3.org/2000/svg" xmlns:xlink="http://www.w3.org/1999/xlink" xmlns:s="https://github.com/nturley/netlistsvg" width="552" height="1052.5">
  <style>svg {
    stroke:#000;
    fill:none;
  }
  text {
    fill:#000;
    stroke:none;
    font-size:10px;
    font-weight: bold;
    font-family: "Courier New", monospace;
  }
  .nodelabel {
    text-anchor: middle;
  }
  .inputPortLabel {
    text-anchor: end;
  }
  .splitjoinBody {
    fill:#000;
  }</style>
  <g s:type="not" transform="translate(381,827.5)" s:width="30" s:height="20" id="cell_:19">
    <s:alias val="$_NOT_"/>
    <s:alias val="$not"/>
    <s:alias val="$logic_not"/>
    <path d="M0,0 L0,20 L20,10 Z" class="cell_:19"/>
    <circle cx="23" cy="10" r="3" class="cell_:19"/>
    <text x="8" y="12" class="nodelabel" style="font-size:6px">NOT</text>
    <g s:x="0" s:y="10" s:pid="A"/>
    <g s:x="25" s:y="10" s:pid="Y"/>
  </g>
  <g s:type="mux" transform="translate(449,14.5)" s:width="20" s:height="40" id="cell_:20">
    <s:alias val="$pmux"/>
    <s:alias val="$mux"/>
    <s:alias val="$_MUX_"/>
    <path d="M0,0 L20,10 L20,30 L0,40 Z" class="cell_:20"/>
    <g s:x="0" s:y="10" s:pid="A"/>
    <g s:x="0" s:y="30" s:pid="B"/>
    <g s:x="10" s:y="35" s:pid="S"/>
    <g s:x="20" s:y="20" s:pid="Y"/>
  </g>
  <g s:type="not" transform="translate(381,1020.5)" s:width="30" s:height="20" id="cell_:28">
    <s:alias val="$_NOT_"/>
    <s:alias val="$not"/>
    <s:alias val="$logic_not"/>
    <path d="M0,0 L0,20 L20,10 Z" class="cell_:28"/>
    <circle cx="23" cy="10" r="3" class="cell_:28"/>
    <text x="8" y="12" class="nodelabel" style="font-size:6px">NOT</text>
    <g s:x="0" s:y="10" s:pid="A"/>
    <g s:x="25" s:y="10" s:pid="Y"/>
  </g>
  <g s:type="mux" transform="translate(449,872.5)" s:width="20" s:height="40" id="cell_:29">
    <s:alias val="$pmux"/>
    <s:alias val="$mux"/>
    <s:alias val="$_MUX_"/>
    <path d="M0,0 L20,10 L20,30 L0,40 Z" class="cell_:29"/>
    <g s:x="0" s:y="10" s:pid="A"/>
    <g s:x="0" s:y="30" s:pid="B"/>
    <g s:x="10" s:y="35" s:pid="S"/>
    <g s:x="20" s:y="20" s:pid="Y"/>
  </g>
  <g s:type="or" transform="translate(77,638)" s:width="30" s:height="25" id="cell_:7">
    <s:alias val="$or"/>
    <s:alias val="$reduce_or"/>
    <s:alias val="$reduce_bool"/>
    <s:alias val="$logic_or"/>
    <s:alias val="$_OR_"/>
    <path d="M0,25 L0,25 L15,25 A15 12.5 0 0 0 15,0 L0,0" class="cell_:7"/>
    <path d="M0,0 A30 25 0 0 1 0,25" class="cell_:7"/>
    <text x="17" y="15" class="nodelabel" style="font-size:7px">OR</text>
    <g s:x="3" s:y="5" s:pid="A"/>
    <g s:x="3" s:y="20" s:pid="B"/>
    <g s:x="30" s:y="12.5" s:pid="Y"/>
  </g>
  <g s:type="and" transform="translate(144,645.5)" s:width="30" s:height="25" id="cell_:8">
    <s:alias val="$and"/>
    <s:alias val="$reduce_and"/>
    <s:alias val="$logic_and"/>
    <s:alias val="$_AND_"/>
    <path d="M0,0 L0,25 L15,25 A15 12.5 0 0 0 15,0 Z" class="cell_:8"/>
    <text x="13" y="15" class="nodelabel" style="font-size:7px">AND</text>
    <g s:x="0" s:y="5" s:pid="A"/>
    <g s:x="0" s:y="20" s:pid="B"/>
    <g s:x="30" s:y="12.5" s:pid="Y"/>
  </g>
  <g s:type="mem_v2" transform="translate(278,19.5)" s:width="60" s:height="80" id="cell_regs">
    <s:alias val="$mem_v2"/>
    <s:alias val="$mem"/>
    <rect width="60" height="80" x="0" y="0" class="cell_regs"/>
    <text x="30" y="44" class="nodelabel" style="font-size:14px">RAM</text>
    <g s:x="0" s:y="15" s:pid="WR_DATA"/>
    <g s:x="0" s:y="30" s:pid="WR_ADDR"/>
    <g s:x="0" s:y="45" s:pid="WR_EN"/>
    <g s:x="0" s:y="60" s:pid="WR_CLK"/>
    <g s:x="60" s:y="15" s:pid="RD_DATA"/>
    <g s:x="60" s:y="30" s:pid="RD_ADDR"/>
    <g s:x="60" s:y="45" s:pid="RD_EN"/>
    <g s:x="60" s:y="60" s:pid="RD_CLK"/>
    <g s:x="60" s:y="70" s:pid="RD_ARST"/>
    <g s:x="60" s:y="80" s:pid="RD_SRST"/>
  </g>
  <g s:type="inputExt" transform="translate(213,807.5)" s:width="30" s:height="20" id="cell_clk">
    <text x="15" y="-4" class="nodelabel cell_clk" s:attribute="ref">clk</text>
    <s:alias val="$_inputExt_"/>
    <path d="M0,0 L0,20 L15,20 L30,10 L15,0 Z" class="cell_clk"/>
    <g s:x="28" s:y="10" s:pid="Y"/>
  </g>
  <g s:type="inputExt" transform="translate(77,708)" s:width="30" s:height="20" id="cell_we">
    <text x="15" y="-4" class="nodelabel cell_we" s:attribute="ref">we</text>
    <s:alias val="$_inputExt_"/>
    <path d="M0,0 L0,20 L15,20 L30,10 L15,0 Z" class="cell_we"/>
    <g s:x="28" s:y="10" s:pid="Y"/>
  </g>
  <g s:type="inputExt" transform="translate(12,44.5)" s:width="30" s:height="20" id="cell_waddr">
    <text x="15" y="-4" class="nodelabel cell_waddr" s:attribute="ref">waddr</text>
    <s:alias val="$_inputExt_"/>
    <path d="M0,0 L0,20 L15,20 L30,10 L15,0 Z" class="cell_waddr"/>
    <g s:x="28" s:y="10" s:pid="Y"/>
  </g>
  <g s:type="inputExt" transform="translate(213,24.5)" s:width="30" s:height="20" id="cell_wdata">
    <text x="15" y="-4" class="nodelabel cell_wdata" s:attribute="ref">wdata</text>
    <s:alias val="$_inputExt_"/>
    <path d="M0,0 L0,20 L15,20 L30,10 L15,0 Z" class="cell_wdata"/>
    <g s:x="28" s:y="10" s:pid="Y"/>
  </g>
  <g s:type="inputExt" transform="translate(142,827.5)" s:width="30" s:height="20" id="cell_raddr1">
    <text x="15" y="-4" class="nodelabel cell_raddr1" s:attribute="ref">raddr1</text>
    <s:alias val="$_inputExt_"/>
    <path d="M0,0 L0,20 L15,20 L30,10 L15,0 Z" class="cell_raddr1"/>
    <g s:x="28" s:y="10" s:pid="Y"/>
  </g>
  <g s:type="inputExt" transform="translate(142,981)" s:width="30" s:height="20" id="cell_raddr2">
    <text x="15" y="-4" class="nodelabel cell_raddr2" s:attribute="ref">raddr2</text>
    <s:alias val="$_inputExt_"/>
    <path d="M0,0 L0,20 L15,20 L30,10 L15,0 Z" class="cell_raddr2"/>
    <g s:x="28" s:y="10" s:pid="Y"/>
  </g>
  <g s:type="outputExt" transform="translate(504,24.5)" s:width="30" s:height="20" id="cell_rdata1">
    <text x="15" y="-4" class="nodelabel cell_rdata1" s:attribute="ref">rdata1</text>
    <s:alias val="$_outputExt_"/>
    <path d="M30,0 L30,20 L15,20 L0,10 L15,0 Z" class="cell_rdata1"/>
    <g s:x="0" s:y="10" s:pid="A"/>
  </g>
  <g s:type="outputExt" transform="translate(504,882.5)" s:width="30" s:height="20" id="cell_rdata2">
    <text x="15" y="-4" class="nodelabel cell_rdata2" s:attribute="ref">rdata2</text>
    <s:alias val="$_outputExt_"/>
    <path d="M30,0 L30,20 L15,20 L0,10 L15,0 Z" class="cell_rdata2"/>
    <g s:x="0" s:y="10" s:pid="A"/>
  </g>
  <g s:type="constant" transform="translate(378,892.5)" s:width="30" s:height="20" id="cell_00000000000000000000000000000000">
    <text x="15" y="-4" class="nodelabel cell_00000000000000000000000000000000" s:attribute="ref">0x0</text>
    <s:alias val="$_constant_"/>
    <rect width="30" height="20" class="cell_00000000000000000000000000000000"/>
    <g s:x="30" s:y="10" s:pid="Y"/>
  </g>
  <g s:type="constant" transform="translate(213,858.5)" s:width="30" s:height="20" id="cell_00">
    <text x="15" y="-4" class="nodelabel cell_00" s:attribute="ref">00</text>
    <s:alias val="$_constant_"/>
    <rect width="30" height="20" class="cell_00"/>
    <g s:x="30" s:y="10" s:pid="Y"/>
  </g>
  <g s:type="constant" transform="translate(213,923.5)" s:width="30" s:height="20" id="cell_11">
    <text x="15" y="-4" class="nodelabel cell_11" s:attribute="ref">11</text>
    <s:alias val="$_constant_"/>
    <rect width="30" height="20" class="cell_11"/>
    <g s:x="30" s:y="10" s:pid="Y"/>
  </g>
  <g s:type="join" transform="translate(232,980.5)" s:width="4" s:height="40" id="cell_$join$,46,47,48,49,50,41,42,43,44,45,">
    <rect width="5" height="40" class="splitjoinBody" s:generic="body"/>
    <s:alias val="$_join_"/>
    <g s:x="5" s:y="20" s:pid="out"/>
    <g transform="translate(0,10)" s:x="0" s:y="10" s:pid="in0">
      <text x="-3" y="-4" class="inputPortLabel">0:4</text>
    </g>
    <g transform="translate(0,30)" s:x="0" s:y="10" s:pid="in0">
      <text x="-3" y="-4" class="inputPortLabel">5:9</text>
    </g>
  </g>
  <g s:type="join" transform="translate(231.52,107.5)" s:width="4" s:height="40" id="cell_$join$,182,182,182,182,182,182,182,182,182,182,182,182,182,182,182,182,182,182,182,182,182,182,182,182,182,182,182,182,182,182,182,182,">
    <rect width="5" height="640" class="splitjoinBody" s:generic="body"/>
    <s:alias val="$_join_"/>
    <g s:x="5" s:y="20" s:pid="out"/>
    <g transform="translate(0,10)" s:x="0" s:y="10" s:pid="in0">
      <text x="-3" y="-4" class="inputPortLabel">0</text>
    </g>
    <g transform="translate(0,30)" s:x="0" s:y="10" s:pid="in0">
      <text x="-3" y="-4" class="inputPortLabel">1</text>
    </g>
    <g transform="translate(0,50)" s:x="0" s:y="10" s:pid="in0">
      <text x="-3" y="-4" class="inputPortLabel">2</text>
    </g>
    <g transform="translate(0,70)" s:x="0" s:y="10" s:pid="in0">
      <text x="-3" y="-4" class="inputPortLabel">3</text>
    </g>
    <g transform="translate(0,90)" s:x="0" s:y="10" s:pid="in0">
      <text x="-3" y="-4" class="inputPortLabel">4</text>
    </g>
    <g transform="translate(0,110)" s:x="0" s:y="10" s:pid="in0">
      <text x="-3" y="-4" class="inputPortLabel">5</text>
    </g>
    <g transform="translate(0,130)" s:x="0" s:y="10" s:pid="in0">
      <text x="-3" y="-4" class="inputPortLabel">6</text>
    </g>
    <g transform="translate(0,150)" s:x="0" s:y="10" s:pid="in0">
      <text x="-3" y="-4" class="inputPortLabel">7</text>
    </g>
    <g transform="translate(0,170)" s:x="0" s:y="10" s:pid="in0">
      <text x="-3" y="-4" class="inputPortLabel">8</text>
    </g>
    <g transform="translate(0,190)" s:x="0" s:y="10" s:pid="in0">
      <text x="-3" y="-4" class="inputPortLabel">9</text>
    </g>
    <g transform="translate(0,210)" s:x="0" s:y="10" s:pid="in0">
      <text x="-3" y="-4" class="inputPortLabel">10</text>
    </g>
    <g transform="translate(0,230)" s:x="0" s:y="10" s:pid="in0">
      <text x="-3" y="-4" class="inputPortLabel">11</text>
    </g>
    <g transform="translate(0,250)" s:x="0" s:y="10" s:pid="in0">
      <text x="-3" y="-4" class="inputPortLabel">12</text>
    </g>
    <g transform="translate(0,270)" s:x="0" s:y="10" s:pid="in0">
      <text x="-3" y="-4" class="inputPortLabel">13</text>
    </g>
    <g transform="translate(0,290)" s:x="0" s:y="10" s:pid="in0">
      <text x="-3" y="-4" class="inputPortLabel">14</text>
    </g>
    <g transform="translate(0,310)" s:x="0" s:y="10" s:pid="in0">
      <text x="-3" y="-4" class="inputPortLabel">15</text>
    </g>
    <g transform="translate(0,330)" s:x="0" s:y="10" s:pid="in0">
      <text x="-3" y="-4" class="inputPortLabel">16</text>
    </g>
    <g transform="translate(0,350)" s:x="0" s:y="10" s:pid="in0">
      <text x="-3" y="-4" class="inputPortLabel">17</text>
    </g>
    <g transform="translate(0,370)" s:x="0" s:y="10" s:pid="in0">
      <text x="-3" y="-4" class="inputPortLabel">18</text>
    </g>
    <g transform="translate(0,390)" s:x="0" s:y="10" s:pid="in0">
      <text x="-3" y="-4" class="inputPortLabel">19</text>
    </g>
    <g transform="translate(0,410)" s:x="0" s:y="10" s:pid="in0">
      <text x="-3" y="-4" class="inputPortLabel">20</text>
    </g>
    <g transform="translate(0,430)" s:x="0" s:y="10" s:pid="in0">
      <text x="-3" y="-4" class="inputPortLabel">21</text>
    </g>
    <g transform="translate(0,450)" s:x="0" s:y="10" s:pid="in0">
      <text x="-3" y="-4" class="inputPortLabel">22</text>
    </g>
    <g transform="translate(0,470)" s:x="0" s:y="10" s:pid="in0">
      <text x="-3" y="-4" class="inputPortLabel">23</text>
    </g>
    <g transform="translate(0,490)" s:x="0" s:y="10" s:pid="in0">
      <text x="-3" y="-4" class="inputPortLabel">24</text>
    </g>
    <g transform="translate(0,510)" s:x="0" s:y="10" s:pid="in0">
      <text x="-3" y="-4" class="inputPortLabel">25</text>
    </g>
    <g transform="translate(0,530)" s:x="0" s:y="10" s:pid="in0">
      <text x="-3" y="-4" class="inputPortLabel">26</text>
    </g>
    <g transform="translate(0,550)" s:x="0" s:y="10" s:pid="in0">
      <text x="-3" y="-4" class="inputPortLabel">27</text>
    </g>
    <g transform="translate(0,570)" s:x="0" s:y="10" s:pid="in0">
      <text x="-3" y="-4" class="inputPortLabel">28</text>
    </g>
    <g transform="translate(0,590)" s:x="0" s:y="10" s:pid="in0">
      <text x="-3" y="-4" class="inputPortLabel">29</text>
    </g>
    <g transform="translate(0,610)" s:x="0" s:y="10" s:pid="in0">
      <text x="-3" y="-4" class="inputPortLabel">30</text>
    </g>
    <g transform="translate(0,630)" s:x="0" s:y="10" s:pid="in0">
      <text x="-3" y="-4" class="inputPortLabel">31</text>
    </g>
  </g>
  <g s:type="split" transform="translate(378,14)" s:width="5" s:height="40" id="cell_$split$,149,150,151,152,153,154,155,156,157,158,159,160,161,162,163,164,165,166,167,168,169,170,171,172,173,174,175,176,177,178,179,180,116,117,118,119,120,121,122,123,124,125,126,127,128,129,130,131,132,133,134,135,136,137,138,139,140,141,142,143,144,145,146,147,">
    <rect width="5" height="40" class="splitjoinBody" s:generic="body"/>
    <s:alias val="$_split_"/>
    <g s:x="0" s:y="20" s:pid="in"/>
    <g transform="translate(4,10)" s:x="4" s:y="10" s:pid="out0">
      <text x="5" y="-4">32:63</text>
    </g>
    <g transform="translate(4,30)" s:x="4" s:y="10" s:pid="out0">
      <text x="5" y="-4">0:31</text>
    </g>
  </g>
  <line x1="170" x2="381" y1="837.5" y2="837.5" class="net_41,42,43,44,45"/>
  <line x1="170" x2="198" y1="837.5" y2="837.5" class="net_41,42,43,44,45"/>
  <line x1="198" x2="198" y1="837.5" y2="1011" class="net_41,42,43,44,45"/>
  <circle cx="198" cy="837.5" r="2" style="fill:#000" class="net_41,42,43,44,45"/>
  <line x1="198" x2="232" y1="1011" y2="1011" class="net_41,42,43,44,45"/>
  <line x1="383" x2="449" y1="24.5" y2="24.5" class="net_116,117,118,119,120,121,122,123,124,125,126,127,128,129,130,131,132,133,134,135,136,137,138,139,140,141,142,143,144,145,146,147"/>
  <line x1="408" x2="434" y1="902.5" y2="902.5" class="net_183,184,185,186,187,188,189,190,191,192,193,194,195,196,197,198,199,200,201,202,203,204,205,206,207,208,209,210,211,212,213,214"/>
  <line x1="434" x2="434" y1="902.5" y2="44.5" class="net_183,184,185,186,187,188,189,190,191,192,193,194,195,196,197,198,199,200,201,202,203,204,205,206,207,208,209,210,211,212,213,214"/>
  <circle cx="434" cy="902.5" r="2" style="fill:#000" class="net_183,184,185,186,187,188,189,190,191,192,193,194,195,196,197,198,199,200,201,202,203,204,205,206,207,208,209,210,211,212,213,214"/>
  <line x1="434" x2="449" y1="44.5" y2="44.5" class="net_183,184,185,186,187,188,189,190,191,192,193,194,195,196,197,198,199,200,201,202,203,204,205,206,207,208,209,210,211,212,213,214"/>
  <line x1="408" x2="449" y1="902.5" y2="902.5" class="net_183,184,185,186,187,188,189,190,191,192,193,194,195,196,197,198,199,200,201,202,203,204,205,206,207,208,209,210,211,212,213,214"/>
  <line x1="406" x2="459" y1="837.5" y2="837.5" class="net_115"/>
  <line x1="459" x2="459" y1="837.5" y2="49.5" class="net_115"/>
  <line x1="170" x2="188" y1="991" y2="991" class="net_46,47,48,49,50"/>
  <line x1="188" x2="188" y1="991" y2="1030.5" class="net_46,47,48,49,50"/>
  <circle cx="188" cy="991" r="2" style="fill:#000" class="net_46,47,48,49,50"/>
  <line x1="188" x2="381" y1="1030.5" y2="1030.5" class="net_46,47,48,49,50"/>
  <line x1="170" x2="232" y1="991" y2="991" class="net_46,47,48,49,50"/>
  <line x1="383" x2="424" y1="44.5" y2="44.5" class="net_149,150,151,152,153,154,155,156,157,158,159,160,161,162,163,164,165,166,167,168,169,170,171,172,173,174,175,176,177,178,179,180"/>
  <line x1="424" x2="424" y1="44.5" y2="882.5" class="net_149,150,151,152,153,154,155,156,157,158,159,160,161,162,163,164,165,166,167,168,169,170,171,172,173,174,175,176,177,178,179,180"/>
  <line x1="424" x2="449" y1="882.5" y2="882.5" class="net_149,150,151,152,153,154,155,156,157,158,159,160,161,162,163,164,165,166,167,168,169,170,171,172,173,174,175,176,177,178,179,180"/>
  <line x1="406" x2="459" y1="1030.5" y2="1030.5" class="net_148"/>
  <line x1="459" x2="459" y1="1030.5" y2="907.5" class="net_148"/>
  <line x1="40" x2="52" y1="54.5" y2="54.5" class="net_4,5,6,7,8"/>
  <line x1="52" x2="52" y1="54.5" y2="643" class="net_4,5,6,7,8"/>
  <circle cx="52" cy="54.5" r="2" style="fill:#000" class="net_4,5,6,7,8"/>
  <line x1="52" x2="80" y1="643" y2="643" class="net_4,5,6,7,8"/>
  <line x1="40" x2="253" y1="54.5" y2="54.5" class="net_4,5,6,7,8"/>
  <line x1="253" x2="253" y1="54.5" y2="49.5" class="net_4,5,6,7,8"/>
  <line x1="253" x2="278" y1="49.5" y2="49.5" class="net_4,5,6,7,8"/>
  <line x1="107" x2="144" y1="650.5" y2="650.5" class="net_181"/>
  <line x1="105" x2="117" y1="718" y2="718" class="net_3"/>
  <line x1="117" x2="117" y1="718" y2="665.5" class="net_3"/>
  <line x1="117" x2="144" y1="665.5" y2="665.5" class="net_3"/>
  <line x1="238" x2="368" y1="1001" y2="1001" class="net_46,47,48,49,50,41,42,43,44,45"/>
  <line x1="368" x2="368" y1="1001" y2="49.5" class="net_46,47,48,49,50,41,42,43,44,45"/>
  <line x1="368" x2="338" y1="49.5" y2="49.5" class="net_46,47,48,49,50,41,42,43,44,45"/>
  <line x1="243" x2="348" y1="868.5" y2="868.5" class="net_247,248"/>
  <line x1="348" x2="348" y1="868.5" y2="89.5" class="net_247,248"/>
  <circle cx="348" cy="89.5" r="2" style="fill:#000" class="net_247,248"/>
  <line x1="348" x2="338" y1="89.5" y2="89.5" class="net_247,248"/>
  <line x1="243" x2="348" y1="868.5" y2="868.5" class="net_247,248"/>
  <line x1="348" x2="348" y1="868.5" y2="79.5" class="net_247,248"/>
  <line x1="348" x2="338" y1="79.5" y2="79.5" class="net_247,248"/>
  <line x1="243" x2="348" y1="868.5" y2="868.5" class="net_247,248"/>
  <line x1="348" x2="348" y1="868.5" y2="99.5" class="net_247,248"/>
  <circle cx="348" cy="99.5" r="2" style="fill:#000" class="net_247,248"/>
  <line x1="348" x2="338" y1="99.5" y2="99.5" class="net_247,248"/>
  <line x1="243" x2="358" y1="933.5" y2="933.5" class="net_251,252"/>
  <line x1="358" x2="358" y1="933.5" y2="64.5" class="net_251,252"/>
  <line x1="358" x2="338" y1="64.5" y2="64.5" class="net_251,252"/>
  <line x1="241" x2="263" y1="817.5" y2="817.5" class="net_2"/>
  <line x1="263" x2="263" y1="817.5" y2="79.5" class="net_2"/>
  <line x1="263" x2="278" y1="79.5" y2="79.5" class="net_2"/>
  <line x1="241" x2="278" y1="34.5" y2="34.5" class="net_9,10,11,12,13,14,15,16,17,18,19,20,21,22,23,24,25,26,27,28,29,30,31,32,33,34,35,36,37,38,39,40"/>
  <line x1="237.52" x2="253" y1="128" y2="128" class="net_182,182,182,182,182,182,182,182,182,182,182,182,182,182,182,182,182,182,182,182,182,182,182,182,182,182,182,182,182,182,182,182"/>
  <line x1="253" x2="253" y1="128" y2="64.5" class="net_182,182,182,182,182,182,182,182,182,182,182,182,182,182,182,182,182,182,182,182,182,182,182,182,182,182,182,182,182,182,182,182"/>
  <line x1="253" x2="278" y1="64.5" y2="64.5" class="net_182,182,182,182,182,182,182,182,182,182,182,182,182,182,182,182,182,182,182,182,182,182,182,182,182,182,182,182,182,182,182,182"/>
  <line x1="469" x2="504" y1="34.5" y2="34.5" class="net_51,52,53,54,55,56,57,58,59,60,61,62,63,64,65,66,67,68,69,70,71,72,73,74,75,76,77,78,79,80,81,82"/>
  <line x1="469" x2="504" y1="892.5" y2="892.5" class="net_83,84,85,86,87,88,89,90,91,92,93,94,95,96,97,98,99,100,101,102,103,104,105,106,107,108,109,110,111,112,113,114"/>
  <line x1="174" x2="188" y1="658" y2="658" class="net_182"/>
  <line x1="188" x2="188" y1="658" y2="95.5" class="net_182"/>
  <line x1="188" x2="232.02" y1="95.5" y2="95.5" class="net_182"/>
  <circle cx="188" cy="658" r="2" style="fill:#000" class="net_182"/>
  <circle cx="188" cy="95.5" r="2" style="fill:#000" class="net_182"/>
  <line x1="232.02" x2="232.02" y1="95.5" y2="117.5" class="net_182"/>
  <line x1="174" x2="188" y1="658" y2="658" class="net_182"/>
  <line x1="188" x2="188" y1="658" y2="85.5" class="net_182"/>
  <line x1="188" x2="232.02" y1="85.5" y2="85.5" class="net_182"/>
  <circle cx="188" cy="85.5" r="2" style="fill:#000" class="net_182"/>
  <line x1="232.02" x2="232.02" y1="85.5" y2="137.5" class="net_182"/>
  <line x1="174" x2="188" y1="658" y2="658" class="net_182"/>
  <line x1="188" x2="188" y1="658" y2="75.5" class="net_182"/>
  <line x1="188" x2="232.02" y1="75.5" y2="75.5" class="net_182"/>
  <circle cx="188" cy="75.5" r="2" style="fill:#000" class="net_182"/>
  <line x1="232.02" x2="232.02" y1="75.5" y2="157.5" class="net_182"/>
  <line x1="174" x2="188" y1="658" y2="658" class="net_182"/>
  <line x1="188" x2="188" y1="658" y2="65.5" class="net_182"/>
  <line x1="188" x2="232.02" y1="65.5" y2="65.5" class="net_182"/>
  <line x1="232.02" x2="232.02" y1="65.5" y2="177.5" class="net_182"/>
  <line x1="174" x2="188" y1="658" y2="658" class="net_182"/>
  <line x1="188" x2="188" y1="658" y2="198" class="net_182"/>
  <circle cx="188" cy="198" r="2" style="fill:#000" class="net_182"/>
  <line x1="188" x2="231.52" y1="198" y2="198" class="net_182"/>
  <line x1="174" x2="188" y1="658" y2="658" class="net_182"/>
  <line x1="188" x2="188" y1="658" y2="218" class="net_182"/>
  <circle cx="188" cy="218" r="2" style="fill:#000" class="net_182"/>
  <line x1="188" x2="231.52" y1="218" y2="218" class="net_182"/>
  <line x1="174" x2="188" y1="658" y2="658" class="net_182"/>
  <line x1="188" x2="188" y1="658" y2="238" class="net_182"/>
  <circle cx="188" cy="238" r="2" style="fill:#000" class="net_182"/>
  <line x1="188" x2="231.52" y1="238" y2="238" class="net_182"/>
  <line x1="174" x2="188" y1="658" y2="658" class="net_182"/>
  <line x1="188" x2="188" y1="658" y2="258" class="net_182"/>
  <circle cx="188" cy="258" r="2" style="fill:#000" class="net_182"/>
  <line x1="188" x2="231.52" y1="258" y2="258" class="net_182"/>
  <line x1="174" x2="188" y1="658" y2="658" class="net_182"/>
  <line x1="188" x2="188" y1="658" y2="278" class="net_182"/>
  <circle cx="188" cy="278" r="2" style="fill:#000" class="net_182"/>
  <line x1="188" x2="231.52" y1="278" y2="278" class="net_182"/>
  <line x1="174" x2="188" y1="658" y2="658" class="net_182"/>
  <line x1="188" x2="188" y1="658" y2="298" class="net_182"/>
  <circle cx="188" cy="298" r="2" style="fill:#000" class="net_182"/>
  <line x1="188" x2="231.52" y1="298" y2="298" class="net_182"/>
  <line x1="174" x2="188" y1="658" y2="658" class="net_182"/>
  <line x1="188" x2="188" y1="658" y2="318" class="net_182"/>
  <circle cx="188" cy="318" r="2" style="fill:#000" class="net_182"/>
  <line x1="188" x2="231.52" y1="318" y2="318" class="net_182"/>
  <line x1="174" x2="188" y1="658" y2="658" class="net_182"/>
  <line x1="188" x2="188" y1="658" y2="338" class="net_182"/>
  <circle cx="188" cy="338" r="2" style="fill:#000" class="net_182"/>
  <line x1="188" x2="231.52" y1="338" y2="338" class="net_182"/>
  <line x1="174" x2="188" y1="658" y2="658" class="net_182"/>
  <line x1="188" x2="188" y1="658" y2="358" class="net_182"/>
  <circle cx="188" cy="358" r="2" style="fill:#000" class="net_182"/>
  <line x1="188" x2="231.52" y1="358" y2="358" class="net_182"/>
  <line x1="174" x2="188" y1="658" y2="658" class="net_182"/>
  <line x1="188" x2="188" y1="658" y2="378" class="net_182"/>
  <circle cx="188" cy="378" r="2" style="fill:#000" class="net_182"/>
  <line x1="188" x2="231.52" y1="378" y2="378" class="net_182"/>
  <line x1="174" x2="188" y1="658" y2="658" class="net_182"/>
  <line x1="188" x2="188" y1="658" y2="398" class="net_182"/>
  <circle cx="188" cy="398" r="2" style="fill:#000" class="net_182"/>
  <line x1="188" x2="231.52" y1="398" y2="398" class="net_182"/>
  <line x1="174" x2="188" y1="658" y2="658" class="net_182"/>
  <line x1="188" x2="188" y1="658" y2="418" class="net_182"/>
  <circle cx="188" cy="418" r="2" style="fill:#000" class="net_182"/>
  <line x1="188" x2="231.52" y1="418" y2="418" class="net_182"/>
  <line x1="174" x2="188" y1="658" y2="658" class="net_182"/>
  <line x1="188" x2="188" y1="658" y2="438" class="net_182"/>
  <circle cx="188" cy="438" r="2" style="fill:#000" class="net_182"/>
  <line x1="188" x2="231.52" y1="438" y2="438" class="net_182"/>
  <line x1="174" x2="188" y1="658" y2="658" class="net_182"/>
  <line x1="188" x2="188" y1="658" y2="458" class="net_182"/>
  <circle cx="188" cy="458" r="2" style="fill:#000" class="net_182"/>
  <line x1="188" x2="231.52" y1="458" y2="458" class="net_182"/>
  <line x1="174" x2="188" y1="658" y2="658" class="net_182"/>
  <line x1="188" x2="188" y1="658" y2="478" class="net_182"/>
  <circle cx="188" cy="478" r="2" style="fill:#000" class="net_182"/>
  <line x1="188" x2="231.52" y1="478" y2="478" class="net_182"/>
  <line x1="174" x2="188" y1="658" y2="658" class="net_182"/>
  <line x1="188" x2="188" y1="658" y2="498" class="net_182"/>
  <circle cx="188" cy="498" r="2" style="fill:#000" class="net_182"/>
  <line x1="188" x2="231.52" y1="498" y2="498" class="net_182"/>
  <line x1="174" x2="188" y1="658" y2="658" class="net_182"/>
  <line x1="188" x2="188" y1="658" y2="518" class="net_182"/>
  <circle cx="188" cy="518" r="2" style="fill:#000" class="net_182"/>
  <line x1="188" x2="231.52" y1="518" y2="518" class="net_182"/>
  <line x1="174" x2="188" y1="658" y2="658" class="net_182"/>
  <line x1="188" x2="188" y1="658" y2="538" class="net_182"/>
  <circle cx="188" cy="538" r="2" style="fill:#000" class="net_182"/>
  <line x1="188" x2="231.52" y1="538" y2="538" class="net_182"/>
  <line x1="174" x2="188" y1="658" y2="658" class="net_182"/>
  <line x1="188" x2="188" y1="658" y2="558" class="net_182"/>
  <circle cx="188" cy="558" r="2" style="fill:#000" class="net_182"/>
  <line x1="188" x2="231.52" y1="558" y2="558" class="net_182"/>
  <line x1="174" x2="188" y1="658" y2="658" class="net_182"/>
  <line x1="188" x2="188" y1="658" y2="578" class="net_182"/>
  <circle cx="188" cy="578" r="2" style="fill:#000" class="net_182"/>
  <line x1="188" x2="231.52" y1="578" y2="578" class="net_182"/>
  <line x1="174" x2="188" y1="658" y2="658" class="net_182"/>
  <line x1="188" x2="188" y1="658" y2="598" class="net_182"/>
  <circle cx="188" cy="598" r="2" style="fill:#000" class="net_182"/>
  <line x1="188" x2="231.52" y1="598" y2="598" class="net_182"/>
  <line x1="174" x2="188" y1="658" y2="658" class="net_182"/>
  <line x1="188" x2="188" y1="658" y2="618" class="net_182"/>
  <circle cx="188" cy="618" r="2" style="fill:#000" class="net_182"/>
  <line x1="188" x2="231.52" y1="618" y2="618" class="net_182"/>
  <line x1="174" x2="188" y1="658" y2="658" class="net_182"/>
  <line x1="188" x2="188" y1="658" y2="638" class="net_182"/>
  <circle cx="188" cy="638" r="2" style="fill:#000" class="net_182"/>
  <line x1="188" x2="231.52" y1="638" y2="638" class="net_182"/>
  <line x1="174" x2="231.52" y1="658" y2="658" class="net_182"/>
  <line x1="174" x2="188" y1="658" y2="658" class="net_182"/>
  <line x1="188" x2="188" y1="658" y2="787.5" class="net_182"/>
  <line x1="188" x2="232.02" y1="787.5" y2="787.5" class="net_182"/>
  <line x1="232.02" x2="232.02" y1="787.5" y2="678.5" class="net_182"/>
  <line x1="174" x2="188" y1="658" y2="658" class="net_182"/>
  <line x1="188" x2="188" y1="658" y2="777.5" class="net_182"/>
  <line x1="188" x2="232.02" y1="777.5" y2="777.5" class="net_182"/>
  <circle cx="188" cy="777.5" r="2" style="fill:#000" class="net_182"/>
  <line x1="232.02" x2="232.02" y1="777.5" y2="698.5" class="net_182"/>
  <line x1="174" x2="188" y1="658" y2="658" class="net_182"/>
  <line x1="188" x2="188" y1="658" y2="767.5" class="net_182"/>
  <line x1="188" x2="232.02" y1="767.5" y2="767.5" class="net_182"/>
  <circle cx="188" cy="767.5" r="2" style="fill:#000" class="net_182"/>
  <line x1="232.02" x2="232.02" y1="767.5" y2="718.5" class="net_182"/>
  <line x1="174" x2="188" y1="658" y2="658" class="net_182"/>
  <line x1="188" x2="188" y1="658" y2="757.5" class="net_182"/>
  <line x1="188" x2="232.02" y1="757.5" y2="757.5" class="net_182"/>
  <circle cx="188" cy="757.5" r="2" style="fill:#000" class="net_182"/>
  <line x1="232.02" x2="232.02" y1="757.5" y2="738.5" class="net_182"/>
  <line x1="338" x2="378" y1="34.5" y2="34.5" class="net_149,150,151,152,153,154,155,156,157,158,159,160,161,162,163,164,165,166,167,168,169,170,171,172,173,174,175,176,177,178,179,180,116,117,118,119,120,121,122,123,124,125,126,127,128,129,130,131,132,133,134,135,136,137,138,139,140,141,142,143,144,145,146,147"/>
</svg>
