<svg xmlns="http://www.w3.org/2000/svg" xmlns:xlink="http://www.w3.org/1999/xlink" xmlns:s="https://github.com/nturley/netlistsvg" width="636.5" height="630.5"><style>svg {
  stroke:#000;
  fill:none;
}
text {
  fill:#000;
  stroke:none;
  font-size:10px;
  font-weight: bold;
  font-family: "Courier New", monospace;
}
line {
    stroke-linecap: round;
}
.nodelabel {
  text-anchor: middle;
}
.inputPortLabel {
  text-anchor: end;
}
.splitjoinBody {
  fill:#000;
}</style><g s:type="add" transform="translate(216.33333333333334,132)" s:width="25" s:height="25" id="cell_:12"><s:alias val="$add"/><circle r="12.5" cx="12.5" cy="12.5" fill="#ffffff" class="cell_:12"/><line x1="7.5" x2="17.5" y1="12.5" y2="12.5" fill="#ffffff" class="cell_:12"/><line x1="12.5" x2="12.5" y1="7.5" y2="17.5" fill="#ffffff" class="cell_:12"/><g s:x="2" s:y="5" s:pid="A"/><g s:x="2" s:y="20" s:pid="B"/><g s:x="26" s:y="12.5" s:pid="Y"/></g><g s:type="mux" transform="translate(316.3333333333333,375.5)" s:width="20" s:height="40" id="cell_:16"><s:alias val="$pmux"/><s:alias val="$mux"/><s:alias val="$_MUX_"/><path d="M0,0 L20,10 L20,30 L0,40 Z" fill="#ffffff" class="cell_:16"/><text x="5" y="32" class="nodelabel cell_:16" s:attribute="">1</text><text x="5" y="13" class="nodelabel cell_:16" s:attribute="">0</text><g s:x="0" s:y="10" s:pid="A"/><g s:x="0" s:y="30" s:pid="B"/><g s:x="10" s:y="35" s:pid="S"/><g s:x="20" s:y="20" s:pid="Y"/></g><g s:type="mux-bus" transform="translate(410,134.5)" s:width="24" s:height="40" id="cell_:18"><s:alias val="$pmux-bus"/><s:alias val="$mux-bus"/><s:alias val="$_MUX_-bus"/><path d="M0,0 L20,10 L20,30 L0,40 Z" fill="#ffffff" class="cell_:18"/><path d="M4,2 L4,0 L22,9 L22,31 L4,40 L4,38" fill="#ffffff" class="cell_:18"/><path d="M8,2 L8,0 L24,8 L24,32 L8,40 L8,38" fill="#ffffff" class="cell_:18"/><text x="5" y="32" class="nodelabel cell_:18" s:attribute="">1</text><text x="5" y="13" class="nodelabel cell_:18" s:attribute="">0</text><g s:x="-1" s:y="10" s:pid="A"/><g s:x="-1" s:y="30" s:pid="B"/><g s:x="12" s:y="38" s:pid="S"/><g s:x="24.5" s:y="20" s:pid="Y"/></g><g s:type="not" transform="translate(215,264.5)" s:width="30" s:height="20" id="cell_:21"><s:alias val="$_NOT_"/><s:alias val="$not"/><s:alias val="$logic_not"/><path d="M0,0 L0,20 L20,10 Z" fill="#ffffff" class="cell_:21"/><circle cx="24" cy="10" r="3" fill="#ffffff" class="cell_:21"/><g s:x="-1" s:y="10" s:pid="A"/><g s:x="27" s:y="10" s:pid="Y"/></g><g s:type="sub" transform="translate(216.33333333333334,27)" s:width="25" s:height="25" id="cell_:24"><s:alias val="$sub"/><circle r="12.5" cx="12.5" cy="12.5" fill="#ffffff" class="cell_:24"/><line x1="7.5" x2="17.5" y1="12.5" y2="12.5" fill="#ffffff" class="cell_:24"/><g s:x="2" s:y="5" s:pid="A"/><g s:x="2" s:y="20" s:pid="B"/><g s:x="25" s:y="12.5" s:pid="Y"/></g><g s:type="mux" transform="translate(316.3333333333333,195.5)" s:width="20" s:height="40" id="cell_:28"><s:alias val="$pmux"/><s:alias val="$mux"/><s:alias val="$_MUX_"/><path d="M0,0 L20,10 L20,30 L0,40 Z" fill="#ffffff" class="cell_:28"/><text x="5" y="32" class="nodelabel cell_:28" s:attribute="">1</text><text x="5" y="13" class="nodelabel cell_:28" s:attribute="">0</text><g s:x="0" s:y="10" s:pid="A"/><g s:x="0" s:y="30" s:pid="B"/><g s:x="10" s:y="35" s:pid="S"/><g s:x="20" s:y="20" s:pid="Y"/></g><g s:type="mux-bus" transform="translate(410,29.5)" s:width="24" s:height="40" id="cell_:30"><s:alias val="$pmux-bus"/><s:alias val="$mux-bus"/><s:alias val="$_MUX_-bus"/><path d="M0,0 L20,10 L20,30 L0,40 Z" fill="#ffffff" class="cell_:30"/><path d="M4,2 L4,0 L22,9 L22,31 L4,40 L4,38" fill="#ffffff" class="cell_:30"/><path d="M8,2 L8,0 L24,8 L24,32 L8,40 L8,38" fill="#ffffff" class="cell_:30"/><text x="5" y="32" class="nodelabel cell_:30" s:attribute="">1</text><text x="5" y="13" class="nodelabel cell_:30" s:attribute="">0</text><g s:x="-1" s:y="10" s:pid="A"/><g s:x="-1" s:y="30" s:pid="B"/><g s:x="12" s:y="38" s:pid="S"/><g s:x="24.5" s:y="20" s:pid="Y"/></g><g s:type="mux" transform="translate(411.1666666666667,205.5)" s:width="20" s:height="40" id="cell_:31"><s:alias val="$pmux"/><s:alias val="$mux"/><s:alias val="$_MUX_"/><path d="M0,0 L20,10 L20,30 L0,40 Z" fill="#ffffff" class="cell_:31"/><text x="5" y="32" class="nodelabel cell_:31" s:attribute="">1</text><text x="5" y="13" class="nodelabel cell_:31" s:attribute="">0</text><g s:x="0" s:y="10" s:pid="A"/><g s:x="0" s:y="30" s:pid="B"/><g s:x="10" s:y="35" s:pid="S"/><g s:x="20" s:y="20" s:pid="Y"/></g><g s:type="mux-bus" transform="translate(537.5,39.5)" s:width="24" s:height="40" id="cell_:32"><s:alias val="$pmux-bus"/><s:alias val="$mux-bus"/><s:alias val="$_MUX_-bus"/><path d="M0,0 L20,10 L20,30 L0,40 Z" fill="#ffffff" class="cell_:32"/><path d="M4,2 L4,0 L22,9 L22,31 L4,40 L4,38" fill="#ffffff" class="cell_:32"/><path d="M8,2 L8,0 L24,8 L24,32 L8,40 L8,38" fill="#ffffff" class="cell_:32"/><text x="5" y="32" class="nodelabel cell_:32" s:attribute="">1</text><text x="5" y="13" class="nodelabel cell_:32" s:attribute="">0</text><g s:x="-1" s:y="10" s:pid="A"/><g s:x="-1" s:y="30" s:pid="B"/><g s:x="12" s:y="38" s:pid="S"/><g s:x="24.5" s:y="20" s:pid="Y"/></g><g s:type="dff" transform="translate(470.5,578.5)" s:width="30" s:height="40" id="cell_:39"><s:alias val="$dff"/><s:alias val="$_DFF_"/><s:alias val="$_DFF_P_"/><s:alias val="$adff"/><s:alias val="$_DFF_"/><s:alias val="$_DFF_P_"/><s:alias val="$sdff"/><s:alias val="$_DFF_"/><s:alias val="$_DFF_P_"/><rect width="30" height="40" x="0" y="0" fill="#ffffff" class="cell_:39"/><path d="M0,35 L5,30 L0,25" fill="#ffffff" class="cell_:39"/><g s:x="31" s:y="10" s:pid="Q"/><g s:x="-1" s:y="30" s:pid="CLK"/><g s:x="-1" s:y="30" s:pid="C"/><g s:x="-1" s:y="10" s:pid="D"/><g s:x="15" s:y="40" s:pid="ARST"/><g s:x="15" s:y="40" s:pid="SRST"/></g><g s:type="dff-bus" transform="translate(78,264.5)" s:width="34" s:height="44" id="cell_:40"><s:alias val="$dff-bus"/><s:alias val="$_DFF_-bus"/><s:alias val="$_DFF_P_-bus"/><s:alias val="adff-bus"/><s:alias val="$adff-bus"/><s:alias val="$_DFF_-bus"/><s:alias val="$_DFF_P_-bus"/><s:alias val="sdff-bus"/><s:alias val="$sdff-bus"/><s:alias val="$_DFF_-bus"/><s:alias val="$_DFF_P_-bus"/><rect width="30" height="40" x="0" y="0" fill="#ffffff" class="cell_:40"/><path d="M0,35 L5,30 L0,25" fill="#ffffff" class="cell_:40"/><path d="M30,2 L32,2 L32,42 L2,42 L2,40" fill="#ffffff" class="cell_:40"/><path d="M32,4 L34,4 L34,44 L4,44 L4,42" fill="#ffffff" class="cell_:40"/><g s:x="35" s:y="10" s:pid="Q"/><g s:x="-1" s:y="30" s:pid="CLK"/><g s:x="-1" s:y="30" s:pid="C"/><g s:x="-1" s:y="10" s:pid="D"/><g s:x="17" s:y="44" s:pid="ARST"/><g s:x="17" s:y="44" s:pid="SRST"/></g><g s:type="eq" transform="translate(216.33333333333334,481.5)" s:width="25" s:height="25" id="cell_:9"><s:alias val="$eq"/><s:alias val="$eqx"/><circle r="12.5" cx="12.5" cy="12.5" fill="#ffffff" class="cell_:9"/><line x1="7.5" x2="17.5" y1="10" y2="10" fill="#ffffff" class="cell_:9"/><line x1="7.5" x2="17.5" y1="15" y2="15" fill="#ffffff" class="cell_:9"/><g s:x="2" s:y="5" s:pid="A"/><g s:x="2" s:y="20" s:pid="B"/><g s:x="25" s:y="12.5" s:pid="Y"/></g><g s:type="inputExt" transform="translate(12,598.5)" s:width="30" s:height="20" id="cell_clock"><text x="15" y="-4" class="nodelabel cell_clock" s:attribute="ref">clock</text><s:alias val="$_inputExt_"/><path d="M0,0 L0,20 L15,20 L30,10 L15,0 Z" fill="#ffffff" class="cell_clock"/><g s:x="30" s:y="10" s:pid="Y"/></g><g s:type="inputExt" transform="translate(12,308.5)" s:width="30" s:height="20" id="cell_reset"><text x="15" y="-4" class="nodelabel cell_reset" s:attribute="ref">reset</text><s:alias val="$_inputExt_"/><path d="M0,0 L0,20 L15,20 L30,10 L15,0 Z" fill="#ffffff" class="cell_reset"/><g s:x="30" s:y="10" s:pid="Y"/></g><g s:type="inputExt" transform="translate(305,320.5)" s:width="30" s:height="20" id="cell_direction"><text x="15" y="-4" class="nodelabel cell_direction" s:attribute="ref">direction</text><s:alias val="$_inputExt_"/><path d="M0,0 L0,20 L15,20 L30,10 L15,0 Z" fill="#ffffff" class="cell_direction"/><g s:x="30" s:y="10" s:pid="Y"/></g><g s:type="outputExt" transform="translate(536.5,513.5)" s:width="30" s:height="20" id="cell_currentNumber"><text x="15" y="-4" class="nodelabel cell_currentNumber" s:attribute="ref">currentNumber</text><s:alias val="$_outputExt_"/><path d="M30,0 L30,20 L15,20 L0,10 L15,0 Z" fill="#ffffff" class="cell_currentNumber"/><g s:x="0" s:y="10" s:pid="A"/></g><g s:type="outputExt" transform="translate(537.5,578.5)" s:width="30" s:height="20" id="cell_carryBit"><text x="15" y="-4" class="nodelabel cell_carryBit" s:attribute="ref">carryBit</text><s:alias val="$_outputExt_"/><path d="M30,0 L30,20 L15,20 L0,10 L15,0 Z" fill="#ffffff" class="cell_carryBit"/><g s:x="0" s:y="10" s:pid="A"/></g><g s:type="constant" transform="translate(148,215.5)" s:width="30" s:height="20" id="cell_1"><text x="15" y="-4" class="nodelabel cell_1" s:attribute="ref">1</text><s:alias val="$_constant_"/><rect width="30" height="20" fill="#ffffff" class="cell_1"/><g s:x="31" s:y="10" s:pid="Y"/></g><g s:type="constant" transform="translate(214,375.5)" s:width="30" s:height="20" id="cell_0"><text x="15" y="-4" class="nodelabel cell_0" s:attribute="ref">0</text><s:alias val="$_constant_"/><rect width="30" height="20" fill="#ffffff" class="cell_0"/><g s:x="31" s:y="10" s:pid="Y"/></g><g s:type="constant" transform="translate(214,440.5)" s:width="30" s:height="20" id="cell_0000"><text x="15" y="-4" class="nodelabel cell_0000" s:attribute="ref">0x0</text><s:alias val="$_constant_"/><rect width="30" height="20" fill="#ffffff" class="cell_0000"/><g s:x="31" s:y="10" s:pid="Y"/></g><g s:type="constant" transform="translate(82,496.5)" s:width="30" s:height="20" id="cell_1001"><text x="15" y="-4" class="nodelabel cell_1001" s:attribute="ref">0x9</text><s:alias val="$_constant_"/><rect width="30" height="20" fill="#ffffff" class="cell_1001"/><g s:x="31" s:y="10" s:pid="Y"/></g><line x1="113" x2="133" y1="274.5" y2="274.5" class="net_5,6,7,8 width_4" style="stroke-width: 2"/><line x1="133" x2="133" y1="274.5" y2="137" class="net_5,6,7,8 width_4" style="stroke-width: 2"/><circle cx="133" cy="274.5" r="3" style="fill:#000" class="net_5,6,7,8 width_4"/><circle cx="133" cy="137" r="3" style="fill:#000" class="net_5,6,7,8 width_4"/><line x1="133" x2="218.33333333333334" y1="137" y2="137" class="net_5,6,7,8 width_4" style="stroke-width: 2"/><line x1="113" x2="214" y1="274.5" y2="274.5" class="net_5,6,7,8 width_4" style="stroke-width: 2"/><line x1="113" x2="133" y1="274.5" y2="274.5" class="net_5,6,7,8 width_4" style="stroke-width: 2"/><line x1="133" x2="133" y1="274.5" y2="32" class="net_5,6,7,8 width_4" style="stroke-width: 2"/><line x1="133" x2="218.33333333333334" y1="32" y2="32" class="net_5,6,7,8 width_4" style="stroke-width: 2"/><line x1="113" x2="133" y1="274.5" y2="274.5" class="net_5,6,7,8 width_4" style="stroke-width: 2"/><line x1="133" x2="133" y1="274.5" y2="486.5" class="net_5,6,7,8 width_4" style="stroke-width: 2"/><circle cx="133" cy="486.5" r="3" style="fill:#000" class="net_5,6,7,8 width_4"/><line x1="133" x2="218.33333333333334" y1="486.5" y2="486.5" class="net_5,6,7,8 width_4" style="stroke-width: 2"/><line x1="113" x2="133" y1="274.5" y2="274.5" class="net_5,6,7,8 width_4" style="stroke-width: 2"/><line x1="133" x2="133" y1="274.5" y2="523.5" class="net_5,6,7,8 width_4" style="stroke-width: 2"/><line x1="133" x2="536.5" y1="523.5" y2="523.5" class="net_5,6,7,8 width_4" style="stroke-width: 2"/><line x1="179" x2="189" y1="225.5" y2="225.5" class="net_35 width_1" style="stroke-width: 1"/><line x1="189" x2="189" y1="225.5" y2="152" class="net_35 width_1" style="stroke-width: 1"/><circle cx="189" cy="225.5" r="2" style="fill:#000" class="net_35 width_1"/><circle cx="189" cy="152" r="2" style="fill:#000" class="net_35 width_1"/><line x1="189" x2="218.33333333333334" y1="152" y2="152" class="net_35 width_1" style="stroke-width: 1"/><line x1="179" x2="189" y1="225.5" y2="225.5" class="net_35 width_1" style="stroke-width: 1"/><line x1="189" x2="189" y1="225.5" y2="470.5" class="net_35 width_1" style="stroke-width: 1"/><line x1="189" x2="295" y1="470.5" y2="470.5" class="net_35 width_1" style="stroke-width: 1"/><line x1="295" x2="295" y1="470.5" y2="405.5" class="net_35 width_1" style="stroke-width: 1"/><line x1="295" x2="316.3333333333333" y1="405.5" y2="405.5" class="net_35 width_1" style="stroke-width: 1"/><line x1="179" x2="189" y1="225.5" y2="225.5" class="net_35 width_1" style="stroke-width: 1"/><line x1="189" x2="189" y1="225.5" y2="47" class="net_35 width_1" style="stroke-width: 1"/><line x1="189" x2="218.33333333333334" y1="47" y2="47" class="net_35 width_1" style="stroke-width: 1"/><line x1="179" x2="316.3333333333333" y1="225.5" y2="225.5" class="net_35 width_1" style="stroke-width: 1"/><line x1="245" x2="316.3333333333333" y1="385.5" y2="385.5" class="net_36 width_1" style="stroke-width: 1"/><line x1="245" x2="265" y1="385.5" y2="385.5" class="net_36 width_1" style="stroke-width: 1"/><line x1="265" x2="265" y1="385.5" y2="205.5" class="net_36 width_1" style="stroke-width: 1"/><circle cx="265" cy="385.5" r="2" style="fill:#000" class="net_36 width_1"/><line x1="265" x2="316.3333333333333" y1="205.5" y2="205.5" class="net_36 width_1" style="stroke-width: 1"/><line x1="241.33333333333334" x2="326.3333333333333" y1="494" y2="494" class="net_14 width_1" style="stroke-width: 1"/><line x1="326.3333333333333" x2="326.3333333333333" y1="494" y2="410.5" class="net_14 width_1" style="stroke-width: 1"/><line x1="241.33333333333334" x2="285" y1="494" y2="494" class="net_14 width_1" style="stroke-width: 1"/><line x1="285" x2="285" y1="494" y2="299.5" class="net_14 width_1" style="stroke-width: 1"/><line x1="285" x2="379" y1="299.5" y2="299.5" class="net_14 width_1" style="stroke-width: 1"/><line x1="379" x2="379" y1="299.5" y2="184.5" class="net_14 width_1" style="stroke-width: 1"/><line x1="379" x2="422" y1="184.5" y2="184.5" class="net_14 width_1" style="stroke-width: 1"/><circle cx="285" cy="494" r="2" style="fill:#000" class="net_14 width_1"/><line x1="422" x2="422" y1="184.5" y2="172.5" class="net_14 width_1" style="stroke-width: 1"/><line x1="242.33333333333334" x2="409" y1="144.5" y2="144.5" class="net_10,11,12,13 width_4" style="stroke-width: 2"/><line x1="245" x2="275" y1="450.5" y2="450.5" class="net_38,39,40,41 width_4" style="stroke-width: 2"/><line x1="275" x2="275" y1="450.5" y2="283.5" class="net_38,39,40,41 width_4" style="stroke-width: 2"/><line x1="275" x2="369" y1="283.5" y2="283.5" class="net_38,39,40,41 width_4" style="stroke-width: 2"/><line x1="369" x2="369" y1="283.5" y2="164.5" class="net_38,39,40,41 width_4" style="stroke-width: 2"/><line x1="369" x2="409" y1="164.5" y2="164.5" class="net_38,39,40,41 width_4" style="stroke-width: 2"/><line x1="242" x2="326.3333333333333" y1="274.5" y2="274.5" class="net_20 width_1" style="stroke-width: 1"/><line x1="326.3333333333333" x2="326.3333333333333" y1="274.5" y2="230.5" class="net_20 width_1" style="stroke-width: 1"/><line x1="242" x2="255" y1="274.5" y2="274.5" class="net_20 width_1" style="stroke-width: 1"/><line x1="255" x2="255" y1="274.5" y2="124.5" class="net_20 width_1" style="stroke-width: 1"/><line x1="255" x2="422" y1="124.5" y2="124.5" class="net_20 width_1" style="stroke-width: 1"/><circle cx="255" cy="274.5" r="2" style="fill:#000" class="net_20 width_1"/><line x1="422" x2="422" y1="124.5" y2="67.5" class="net_20 width_1" style="stroke-width: 1"/><line x1="241.33333333333334" x2="409" y1="39.5" y2="39.5" class="net_21,22,23,24 width_4" style="stroke-width: 2"/><line x1="113" x2="123" y1="506.5" y2="506.5" class="net_45,46,47,48 width_4" style="stroke-width: 2"/><line x1="123" x2="123" y1="506.5" y2="91" class="net_45,46,47,48 width_4" style="stroke-width: 2"/><line x1="123" x2="369" y1="91" y2="91" class="net_45,46,47,48 width_4" style="stroke-width: 2"/><line x1="369" x2="369" y1="91" y2="59.5" class="net_45,46,47,48 width_4" style="stroke-width: 2"/><circle cx="123" cy="506.5" r="3" style="fill:#000" class="net_45,46,47,48 width_4"/><line x1="369" x2="409" y1="59.5" y2="59.5" class="net_45,46,47,48 width_4" style="stroke-width: 2"/><line x1="113" x2="189" y1="506.5" y2="506.5" class="net_45,46,47,48 width_4" style="stroke-width: 2"/><line x1="189" x2="189" y1="506.5" y2="501.5" class="net_45,46,47,48 width_4" style="stroke-width: 2"/><line x1="189" x2="218.33333333333334" y1="501.5" y2="501.5" class="net_45,46,47,48 width_4" style="stroke-width: 2"/><line x1="336.3333333333333" x2="411.1666666666667" y1="215.5" y2="215.5" class="net_25 width_1" style="stroke-width: 1"/><line x1="336.3333333333333" x2="399" y1="395.5" y2="395.5" class="net_15 width_1" style="stroke-width: 1"/><line x1="399" x2="399" y1="395.5" y2="235.5" class="net_15 width_1" style="stroke-width: 1"/><line x1="399" x2="411.1666666666667" y1="235.5" y2="235.5" class="net_15 width_1" style="stroke-width: 1"/><line x1="335" x2="421.1666666666667" y1="330.5" y2="330.5" class="net_4 width_1" style="stroke-width: 1"/><line x1="421.1666666666667" x2="421.1666666666667" y1="330.5" y2="240.5" class="net_4 width_1" style="stroke-width: 1"/><line x1="335" x2="389" y1="330.5" y2="330.5" class="net_4 width_1" style="stroke-width: 1"/><line x1="389" x2="389" y1="330.5" y2="194.5" class="net_4 width_1" style="stroke-width: 1"/><line x1="389" x2="549.5" y1="194.5" y2="194.5" class="net_4 width_1" style="stroke-width: 1"/><circle cx="389" cy="330.5" r="2" style="fill:#000" class="net_4 width_1"/><line x1="549.5" x2="549.5" y1="194.5" y2="77.5" class="net_4 width_1" style="stroke-width: 1"/><line x1="434.5" x2="536.5" y1="49.5" y2="49.5" class="net_26,27,28,29 width_4" style="stroke-width: 2"/><line x1="434.5" x2="511.5" y1="154.5" y2="154.5" class="net_16,17,18,19 width_4" style="stroke-width: 2"/><line x1="511.5" x2="511.5" y1="154.5" y2="69.5" class="net_16,17,18,19 width_4" style="stroke-width: 2"/><line x1="511.5" x2="536.5" y1="69.5" y2="69.5" class="net_16,17,18,19 width_4" style="stroke-width: 2"/><line x1="42" x2="469.5" y1="608.5" y2="608.5" class="net_2 width_1" style="stroke-width: 1"/><line x1="42" x2="52" y1="608.5" y2="608.5" class="net_2 width_1" style="stroke-width: 1"/><line x1="52" x2="52" y1="608.5" y2="294.5" class="net_2 width_1" style="stroke-width: 1"/><circle cx="52" cy="608.5" r="2" style="fill:#000" class="net_2 width_1"/><line x1="52" x2="77" y1="294.5" y2="294.5" class="net_2 width_1" style="stroke-width: 1"/><line x1="431.1666666666667" x2="444.5" y1="225.5" y2="225.5" class="net_30 width_1" style="stroke-width: 1"/><line x1="444.5" x2="444.5" y1="225.5" y2="588.5" class="net_30 width_1" style="stroke-width: 1"/><line x1="444.5" x2="469.5" y1="588.5" y2="588.5" class="net_30 width_1" style="stroke-width: 1"/><line x1="42" x2="95" y1="318.5" y2="318.5" class="net_3 width_1" style="stroke-width: 1"/><line x1="95" x2="95" y1="318.5" y2="308.5" class="net_3 width_1" style="stroke-width: 1"/><line x1="562" x2="624.5" y1="59.5" y2="59.5" class="net_31,32,33,34 width_4" style="stroke-width: 2"/><line x1="624.5" x2="624.5" y1="59.5" y2="16" class="net_31,32,33,34 width_4" style="stroke-width: 2"/><line x1="624.5" x2="52" y1="16" y2="16" class="net_31,32,33,34 width_4" style="stroke-width: 2"/><line x1="52" x2="52" y1="16" y2="274.5" class="net_31,32,33,34 width_4" style="stroke-width: 2"/><line x1="52" x2="77" y1="274.5" y2="274.5" class="net_31,32,33,34 width_4" style="stroke-width: 2"/><line x1="501.5" x2="537.5" y1="588.5" y2="588.5" class="net_9 width_1" style="stroke-width: 1"/><rect x="331" y="518.5" width="16" height="9" class="net_5,6,7,8 width_4 busLabel_4" style="fill: white; stroke: none"/><text x="330" y="526.5" class="net_5,6,7,8 width_4 busLabel_4">/4/</text><rect x="331" y="518.5" width="16" height="9" class="net_5,6,7,8 width_4 busLabel_4" style="fill: white; stroke: none"/><text x="330" y="526.5" class="net_5,6,7,8 width_4 busLabel_4">/4/</text><rect x="331" y="518.5" width="16" height="9" class="net_5,6,7,8 width_4 busLabel_4" style="fill: white; stroke: none"/><text x="330" y="526.5" class="net_5,6,7,8 width_4 busLabel_4">/4/</text><rect x="331" y="518.5" width="16" height="9" class="net_5,6,7,8 width_4 busLabel_4" style="fill: white; stroke: none"/><text x="330" y="526.5" class="net_5,6,7,8 width_4 busLabel_4">/4/</text><rect x="331" y="518.5" width="16" height="9" class="net_5,6,7,8 width_4 busLabel_4" style="fill: white; stroke: none"/><text x="330" y="526.5" class="net_5,6,7,8 width_4 busLabel_4">/4/</text><rect x="331" y="139.5" width="16" height="9" class="net_10,11,12,13 width_4 busLabel_4" style="fill: white; stroke: none"/><text x="330" y="147.5" class="net_10,11,12,13 width_4 busLabel_4">/4/</text><rect x="331" y="278.5" width="16" height="9" class="net_38,39,40,41 width_4 busLabel_4" style="fill: white; stroke: none"/><text x="330" y="286.5" class="net_38,39,40,41 width_4 busLabel_4">/4/</text><rect x="331" y="34.5" width="16" height="9" class="net_21,22,23,24 width_4 busLabel_4" style="fill: white; stroke: none"/><text x="330" y="42.5" class="net_21,22,23,24 width_4 busLabel_4">/4/</text><rect x="162.5" y="501.5" width="16" height="9" class="net_45,46,47,48 width_4 busLabel_4" style="fill: white; stroke: none"/><text x="161.5" y="509.5" class="net_45,46,47,48 width_4 busLabel_4">/4/</text><rect x="162.5" y="501.5" width="16" height="9" class="net_45,46,47,48 width_4 busLabel_4" style="fill: white; stroke: none"/><text x="161.5" y="509.5" class="net_45,46,47,48 width_4 busLabel_4">/4/</text><rect x="484.5" y="44.5" width="16" height="9" class="net_26,27,28,29 width_4 busLabel_4" style="fill: white; stroke: none"/><text x="483.5" y="52.5" class="net_26,27,28,29 width_4 busLabel_4">/4/</text><rect x="484.5" y="149.5" width="16" height="9" class="net_16,17,18,19 width_4 busLabel_4" style="fill: white; stroke: none"/><text x="483.5" y="157.5" class="net_16,17,18,19 width_4 busLabel_4">/4/</text><rect x="331" y="11" width="16" height="9" class="net_31,32,33,34 width_4 busLabel_4" style="fill: white; stroke: none"/><text x="330" y="19" class="net_31,32,33,34 width_4 busLabel_4">/4/</text></svg>