<svg xmlns="http://www.w3.org/2000/svg" xmlns:xlink="http://www.w3.org/1999/xlink" xmlns:s="https://github.com/nturley/netlistsvg" width="890" height="939">
  <style>svg {
    stroke:#000;
    fill:none;
  }
  text {
    fill:#000;
    stroke:none;
    font-size:10px;
    font-weight: bold;
    font-family: "Courier New", monospace;
  }
  .nodelabel {
    text-anchor: middle;
  }
  .inputPortLabel {
    text-anchor: end;
  }
  .splitjoinBody {
    fill:#000;
  }</style>
  <g s:type="ne" transform="translate(84,770)" s:width="25" s:height="25" id="cell_:14">
    <s:alias val="$ne"/>
    <circle r="12.5" cx="12.5" cy="12.5" class="cell_:14"/>
    <line x1="7.5" x2="17.5" y1="10" y2="10" class="cell_:14"/>
    <line x1="7.5" x2="17.5" y1="15" y2="15" class="cell_:14"/>
    <line x1="6" x2="19" y1="20" y2="5" class="cell_:14"/>
    <g s:x="3" s:y="5" s:pid="A"/>
    <g s:x="3" s:y="20" s:pid="B"/>
    <g s:x="25" s:y="12.5" s:pid="Y"/>
  </g>
  <g s:type="eq" transform="translate(84,830)" s:width="25" s:height="25" id="cell_:17">
    <s:alias val="$eq"/>
    <circle r="12.5" cx="12.5" cy="12.5" class="cell_:17"/>
    <line x1="7.5" x2="17.5" y1="10" y2="10" class="cell_:17"/>
    <line x1="7.5" x2="17.5" y1="15" y2="15" class="cell_:17"/>
    <g s:x="3" s:y="5" s:pid="A"/>
    <g s:x="3" s:y="20" s:pid="B"/>
    <g s:x="25" s:y="12.5" s:pid="Y"/>
  </g>
  <g s:type="and" transform="translate(144,837.5)" s:width="30" s:height="25" id="cell_:18">
    <s:alias val="$and"/>
    <s:alias val="$reduce_and"/>
    <s:alias val="$logic_and"/>
    <s:alias val="$_AND_"/>
    <path d="M0,0 L0,25 L15,25 A15 12.5 0 0 0 15,0 Z" class="cell_:18"/>
    <text x="13" y="15" class="nodelabel" style="font-size:7px">AND</text>
    <g s:x="0" s:y="5" s:pid="A"/>
    <g s:x="0" s:y="20" s:pid="B"/>
    <g s:x="30" s:y="12.5" s:pid="Y"/>
  </g>
  <g s:type="mux" transform="translate(217.33333333333334,647.5)" s:width="20" s:height="40" id="cell_:19">
    <s:alias val="$pmux"/>
    <s:alias val="$mux"/>
    <s:alias val="$_MUX_"/>
    <path d="M0,0 L20,10 L20,30 L0,40 Z" class="cell_:19"/>
    <g s:x="0" s:y="10" s:pid="A"/>
    <g s:x="0" s:y="30" s:pid="B"/>
    <g s:x="10" s:y="35" s:pid="S"/>
    <g s:x="20" s:y="20" s:pid="Y"/>
  </g>
  <g s:type="not" transform="translate(279,657.5)" s:width="30" s:height="20" id="cell_:24">
    <s:alias val="$_NOT_"/>
    <s:alias val="$not"/>
    <s:alias val="$logic_not"/>
    <path d="M0,0 L0,20 L20,10 Z" class="cell_:24"/>
    <circle cx="23" cy="10" r="3" class="cell_:24"/>
    <text x="8" y="12" class="nodelabel" style="font-size:6px">NOT</text>
    <g s:x="0" s:y="10" s:pid="A"/>
    <g s:x="25" s:y="10" s:pid="Y"/>
  </g>
  <g s:type="and" transform="translate(344,712.5)" s:width="30" s:height="25" id="cell_:25">
    <s:alias val="$and"/>
    <s:alias val="$reduce_and"/>
    <s:alias val="$logic_and"/>
    <s:alias val="$_AND_"/>
    <path d="M0,0 L0,25 L15,25 A15 12.5 0 0 0 15,0 Z" class="cell_:25"/>
    <text x="13" y="15" class="nodelabel" style="font-size:7px">AND</text>
    <g s:x="0" s:y="5" s:pid="A"/>
    <g s:x="0" s:y="20" s:pid="B"/>
    <g s:x="30" s:y="12.5" s:pid="Y"/>
  </g>
  <g s:type="add" transform="translate(347.3333333333333,590.5)" s:width="25" s:height="25" id="cell_:33">
    <s:alias val="$add"/>
    <circle r="12.5" cx="12.5" cy="12.5" class="cell_:33"/>
    <line x1="7.5" x2="17.5" y1="12.5" y2="12.5" class="cell_:33"/>
    <line x1="12.5" x2="12.5" y1="7.5" y2="17.5" class="cell_:33"/>
    <g s:x="3" s:y="5" s:pid="A"/>
    <g s:x="3" s:y="20" s:pid="B"/>
    <g s:x="25" s:y="12.5" s:pid="Y"/>
  </g>
  <g s:type="mux" transform="translate(434.6666666666667,573)" s:width="20" s:height="40" id="cell_:35">
    <s:alias val="$pmux"/>
    <s:alias val="$mux"/>
    <s:alias val="$_MUX_"/>
    <path d="M0,0 L20,10 L20,30 L0,40 Z" class="cell_:35"/>
    <g s:x="0" s:y="10" s:pid="A"/>
    <g s:x="0" s:y="30" s:pid="B"/>
    <g s:x="10" s:y="35" s:pid="S"/>
    <g s:x="20" s:y="20" s:pid="Y"/>
  </g>
  <g s:type="not" transform="translate(826,416)" s:width="30" s:height="20" id="cell_:36">
    <s:alias val="$_NOT_"/>
    <s:alias val="$not"/>
    <s:alias val="$logic_not"/>
    <path d="M0,0 L0,20 L20,10 Z" class="cell_:36"/>
    <circle cx="23" cy="10" r="3" class="cell_:36"/>
    <text x="8" y="12" class="nodelabel" style="font-size:6px">NOT</text>
    <g s:x="0" s:y="10" s:pid="A"/>
    <g s:x="25" s:y="10" s:pid="Y"/>
  </g>
  <g s:type="and" transform="translate(344,522)" s:width="30" s:height="25" id="cell_:37">
    <s:alias val="$and"/>
    <s:alias val="$reduce_and"/>
    <s:alias val="$logic_and"/>
    <s:alias val="$_AND_"/>
    <path d="M0,0 L0,25 L15,25 A15 12.5 0 0 0 15,0 Z" class="cell_:37"/>
    <text x="13" y="15" class="nodelabel" style="font-size:7px">AND</text>
    <g s:x="0" s:y="5" s:pid="A"/>
    <g s:x="0" s:y="20" s:pid="B"/>
    <g s:x="30" s:y="12.5" s:pid="Y"/>
  </g>
  <g s:type="add" transform="translate(347.3333333333333,871)" s:width="25" s:height="25" id="cell_:45">
    <s:alias val="$add"/>
    <circle r="12.5" cx="12.5" cy="12.5" class="cell_:45"/>
    <line x1="7.5" x2="17.5" y1="12.5" y2="12.5" class="cell_:45"/>
    <line x1="12.5" x2="12.5" y1="7.5" y2="17.5" class="cell_:45"/>
    <g s:x="3" s:y="5" s:pid="A"/>
    <g s:x="3" s:y="20" s:pid="B"/>
    <g s:x="25" s:y="12.5" s:pid="Y"/>
  </g>
  <g s:type="mux" transform="translate(434.6666666666667,800)" s:width="20" s:height="40" id="cell_:46">
    <s:alias val="$pmux"/>
    <s:alias val="$mux"/>
    <s:alias val="$_MUX_"/>
    <path d="M0,0 L20,10 L20,30 L0,40 Z" class="cell_:46"/>
    <g s:x="0" s:y="10" s:pid="A"/>
    <g s:x="0" s:y="30" s:pid="B"/>
    <g s:x="10" s:y="35" s:pid="S"/>
    <g s:x="20" s:y="20" s:pid="Y"/>
  </g>
  <g s:type="mux" transform="translate(642.6666666666666,35)" s:width="20" s:height="40" id="cell_:47">
    <s:alias val="$pmux"/>
    <s:alias val="$mux"/>
    <s:alias val="$_MUX_"/>
    <path d="M0,0 L20,10 L20,30 L0,40 Z" class="cell_:47"/>
    <g s:x="0" s:y="10" s:pid="A"/>
    <g s:x="0" s:y="30" s:pid="B"/>
    <g s:x="10" s:y="35" s:pid="S"/>
    <g s:x="20" s:y="20" s:pid="Y"/>
  </g>
  <g s:type="mux" transform="translate(539.3333333333334,725)" s:width="20" s:height="40" id="cell_:50">
    <s:alias val="$pmux"/>
    <s:alias val="$mux"/>
    <s:alias val="$_MUX_"/>
    <path d="M0,0 L20,10 L20,30 L0,40 Z" class="cell_:50"/>
    <g s:x="0" s:y="10" s:pid="A"/>
    <g s:x="0" s:y="30" s:pid="B"/>
    <g s:x="10" s:y="35" s:pid="S"/>
    <g s:x="20" s:y="20" s:pid="Y"/>
  </g>
  <g s:type="mux" transform="translate(539.3333333333334,810)" s:width="20" s:height="40" id="cell_:52">
    <s:alias val="$pmux"/>
    <s:alias val="$mux"/>
    <s:alias val="$_MUX_"/>
    <path d="M0,0 L20,10 L20,30 L0,40 Z" class="cell_:52"/>
    <g s:x="0" s:y="10" s:pid="A"/>
    <g s:x="0" s:y="30" s:pid="B"/>
    <g s:x="10" s:y="35" s:pid="S"/>
    <g s:x="20" s:y="20" s:pid="Y"/>
  </g>
  <g s:type="mux" transform="translate(704.3333333333334,45)" s:width="20" s:height="40" id="cell_:53">
    <s:alias val="$pmux"/>
    <s:alias val="$mux"/>
    <s:alias val="$_MUX_"/>
    <path d="M0,0 L20,10 L20,30 L0,40 Z" class="cell_:53"/>
    <g s:x="0" s:y="10" s:pid="A"/>
    <g s:x="0" s:y="30" s:pid="B"/>
    <g s:x="10" s:y="35" s:pid="S"/>
    <g s:x="20" s:y="20" s:pid="Y"/>
  </g>
  <g s:type="not" transform="translate(214,318)" s:width="30" s:height="20" id="cell_:59">
    <s:alias val="$_NOT_"/>
    <s:alias val="$not"/>
    <s:alias val="$logic_not"/>
    <path d="M0,0 L0,20 L20,10 Z" class="cell_:59"/>
    <circle cx="23" cy="10" r="3" class="cell_:59"/>
    <text x="8" y="12" class="nodelabel" style="font-size:6px">NOT</text>
    <g s:x="0" s:y="10" s:pid="A"/>
    <g s:x="25" s:y="10" s:pid="Y"/>
  </g>
  <g s:type="and" transform="translate(279,323)" s:width="30" s:height="25" id="cell_:60">
    <s:alias val="$and"/>
    <s:alias val="$reduce_and"/>
    <s:alias val="$logic_and"/>
    <s:alias val="$_AND_"/>
    <path d="M0,0 L0,25 L15,25 A15 12.5 0 0 0 15,0 Z" class="cell_:60"/>
    <text x="13" y="15" class="nodelabel" style="font-size:7px">AND</text>
    <g s:x="0" s:y="5" s:pid="A"/>
    <g s:x="0" s:y="20" s:pid="B"/>
    <g s:x="30" s:y="12.5" s:pid="Y"/>
  </g>
  <g s:type="dff" transform="translate(636,735)" s:width="30" s:height="40" id="cell_:63">
    <s:alias val="$dff"/>
    <s:alias val="$_DFF_"/>
    <s:alias val="$_DFF_P_"/>
    <rect width="30" height="40" x="0" y="0" class="cell_:63"/>
    <path d="M0,35 L5,30 L0,25" class="cell_:63"/>
    <g s:x="30" s:y="10" s:pid="Q"/>
    <g s:x="0" s:y="30" s:pid="CLK"/>
    <g s:x="0" s:y="30" s:pid="C"/>
    <g s:x="0" s:y="10" s:pid="D"/>
  </g>
  <g s:type="dff" transform="translate(636,856)" s:width="30" s:height="40" id="cell_:64">
    <s:alias val="$dff"/>
    <s:alias val="$_DFF_"/>
    <s:alias val="$_DFF_P_"/>
    <rect width="30" height="40" x="0" y="0" class="cell_:64"/>
    <path d="M0,35 L5,30 L0,25" class="cell_:64"/>
    <g s:x="30" s:y="10" s:pid="Q"/>
    <g s:x="0" s:y="30" s:pid="CLK"/>
    <g s:x="0" s:y="30" s:pid="C"/>
    <g s:x="0" s:y="10" s:pid="D"/>
  </g>
  <g s:type="dff" transform="translate(761,344)" s:width="30" s:height="40" id="cell_:65">
    <s:alias val="$dff"/>
    <s:alias val="$_DFF_"/>
    <s:alias val="$_DFF_P_"/>
    <rect width="30" height="40" x="0" y="0" class="cell_:65"/>
    <path d="M0,35 L5,30 L0,25" class="cell_:65"/>
    <g s:x="30" s:y="10" s:pid="Q"/>
    <g s:x="0" s:y="30" s:pid="CLK"/>
    <g s:x="0" s:y="30" s:pid="C"/>
    <g s:x="0" s:y="10" s:pid="D"/>
  </g>
  <g s:type="eq" transform="translate(701,846)" s:width="25" s:height="25" id="cell_:8">
    <s:alias val="$eq"/>
    <circle r="12.5" cx="12.5" cy="12.5" class="cell_:8"/>
    <line x1="7.5" x2="17.5" y1="10" y2="10" class="cell_:8"/>
    <line x1="7.5" x2="17.5" y1="15" y2="15" class="cell_:8"/>
    <g s:x="3" s:y="5" s:pid="A"/>
    <g s:x="3" s:y="20" s:pid="B"/>
    <g s:x="25" s:y="12.5" s:pid="Y"/>
  </g>
  <g s:type="mux" transform="translate(764.3333333333334,471)" s:width="20" s:height="40" id="cell_:9">
    <s:alias val="$pmux"/>
    <s:alias val="$mux"/>
    <s:alias val="$_MUX_"/>
    <path d="M0,0 L20,10 L20,30 L0,40 Z" class="cell_:9"/>
    <g s:x="0" s:y="10" s:pid="A"/>
    <g s:x="0" s:y="30" s:pid="B"/>
    <g s:x="10" s:y="35" s:pid="S"/>
    <g s:x="20" s:y="20" s:pid="Y"/>
  </g>
  <g s:type="mem_v2" transform="translate(526,50)" s:width="60" s:height="80" id="cell_ram">
    <s:alias val="$mem_v2"/>
    <s:alias val="$mem"/>
    <rect width="60" height="80" x="0" y="0" class="cell_ram"/>
    <text x="30" y="44" class="nodelabel" style="font-size:14px">RAM</text>
    <g s:x="0" s:y="15" s:pid="WR_DATA"/>
    <g s:x="0" s:y="30" s:pid="WR_ADDR"/>
    <g s:x="0" s:y="45" s:pid="WR_EN"/>
    <g s:x="0" s:y="60" s:pid="WR_CLK"/>
    <g s:x="60" s:y="15" s:pid="RD_DATA"/>
    <g s:x="60" s:y="30" s:pid="RD_ADDR"/>
    <g s:x="60" s:y="45" s:pid="RD_EN"/>
    <g s:x="60" s:y="60" s:pid="RD_CLK"/>
    <g s:x="60" s:y="70" s:pid="RD_ARST"/>
    <g s:x="60" s:y="80" s:pid="RD_SRST"/>
  </g>
  <g s:type="inputExt" transform="translate(424,532)" s:width="30" s:height="20" id="cell_clk">
    <text x="15" y="-4" class="nodelabel cell_clk" s:attribute="ref">clk</text>
    <s:alias val="$_inputExt_"/>
    <path d="M0,0 L0,20 L15,20 L30,10 L15,0 Z" class="cell_clk"/>
    <g s:x="28" s:y="10" s:pid="Y"/>
  </g>
  <g s:type="inputExt" transform="translate(144,318)" s:width="30" s:height="20" id="cell_rst">
    <text x="15" y="-4" class="nodelabel cell_rst" s:attribute="ref">rst</text>
    <s:alias val="$_inputExt_"/>
    <path d="M0,0 L0,20 L15,20 L30,10 L15,0 Z" class="cell_rst"/>
    <g s:x="28" s:y="10" s:pid="Y"/>
  </g>
  <g s:type="inputExt" transform="translate(279,722.5)" s:width="30" s:height="20" id="cell_wr_en">
    <text x="15" y="-4" class="nodelabel cell_wr_en" s:attribute="ref">wr_en</text>
    <s:alias val="$_inputExt_"/>
    <path d="M0,0 L0,20 L15,20 L30,10 L15,0 Z" class="cell_wr_en"/>
    <g s:x="28" s:y="10" s:pid="Y"/>
  </g>
  <g s:type="inputExt" transform="translate(424,55)" s:width="30" s:height="20" id="cell_wr_data">
    <text x="15" y="-4" class="nodelabel cell_wr_data" s:attribute="ref">wr_data</text>
    <s:alias val="$_inputExt_"/>
    <path d="M0,0 L0,20 L15,20 L30,10 L15,0 Z" class="cell_wr_data"/>
    <g s:x="28" s:y="10" s:pid="Y"/>
  </g>
  <g s:type="inputExt" transform="translate(279,532)" s:width="30" s:height="20" id="cell_rd_en">
    <text x="15" y="-4" class="nodelabel cell_rd_en" s:attribute="ref">rd_en</text>
    <s:alias val="$_inputExt_"/>
    <path d="M0,0 L0,20 L15,20 L30,10 L15,0 Z" class="cell_rd_en"/>
    <g s:x="28" s:y="10" s:pid="Y"/>
  </g>
  <g s:type="outputExt" transform="translate(826,344)" s:width="30" s:height="20" id="cell_rd_data">
    <text x="15" y="-4" class="nodelabel cell_rd_data" s:attribute="ref">rd_data</text>
    <s:alias val="$_outputExt_"/>
    <path d="M30,0 L30,20 L15,20 L0,10 L15,0 Z" class="cell_rd_data"/>
    <g s:x="0" s:y="10" s:pid="A"/>
  </g>
  <g s:type="outputExt" transform="translate(826,481)" s:width="30" s:height="20" id="cell_empty">
    <text x="15" y="-4" class="nodelabel cell_empty" s:attribute="ref">empty</text>
    <s:alias val="$_outputExt_"/>
    <path d="M30,0 L30,20 L15,20 L0,10 L15,0 Z" class="cell_empty"/>
    <g s:x="0" s:y="10" s:pid="A"/>
  </g>
  <g s:type="outputExt" transform="translate(826,907)" s:width="30" s:height="20" id="cell_full">
    <text x="15" y="-4" class="nodelabel cell_full" s:attribute="ref">full</text>
    <s:alias val="$_outputExt_"/>
    <path d="M30,0 L30,20 L15,20 L0,10 L15,0 Z" class="cell_full"/>
    <g s:x="0" s:y="10" s:pid="A"/>
  </g>
  <g s:type="constant" transform="translate(144,172)" s:width="30" s:height="20" id="cell_0">
    <text x="15" y="-4" class="nodelabel cell_0" s:attribute="ref">0</text>
    <s:alias val="$_constant_"/>
    <rect width="30" height="20" class="cell_0"/>
    <g s:x="30" s:y="10" s:pid="Y"/>
  </g>
  <g s:type="constant" transform="translate(144,600.5)" s:width="30" s:height="20" id="cell_1">
    <text x="15" y="-4" class="nodelabel cell_1" s:attribute="ref">1</text>
    <s:alias val="$_constant_"/>
    <rect width="30" height="20" class="cell_1"/>
    <g s:x="30" s:y="10" s:pid="Y"/>
  </g>
  <g s:type="constant" transform="translate(424,745)" s:width="30" s:height="20" id="cell_00000">
    <text x="15" y="-4" class="nodelabel cell_00000" s:attribute="ref">0x0</text>
    <s:alias val="$_constant_"/>
    <rect width="30" height="20" class="cell_00000"/>
    <g s:x="30" s:y="10" s:pid="Y"/>
  </g>
  <g s:type="join" transform="translate(429.42857142857144,205)" s:width="4" s:height="40" id="cell_$join$,96,96,96,96,96,96,96,96,">
    <rect width="5" height="160" class="splitjoinBody" s:generic="body"/>
    <s:alias val="$_join_"/>
    <g s:x="5" s:y="20" s:pid="out"/>
    <g transform="translate(0,10)" s:x="0" s:y="10" s:pid="in0">
      <text x="-3" y="-4" class="inputPortLabel">0</text>
    </g>
    <g transform="translate(0,30)" s:x="0" s:y="10" s:pid="in0">
      <text x="-3" y="-4" class="inputPortLabel">1</text>
    </g>
    <g transform="translate(0,50)" s:x="0" s:y="10" s:pid="in0">
      <text x="-3" y="-4" class="inputPortLabel">2</text>
    </g>
    <g transform="translate(0,70)" s:x="0" s:y="10" s:pid="in0">
      <text x="-3" y="-4" class="inputPortLabel">3</text>
    </g>
    <g transform="translate(0,90)" s:x="0" s:y="10" s:pid="in0">
      <text x="-3" y="-4" class="inputPortLabel">4</text>
    </g>
    <g transform="translate(0,110)" s:x="0" s:y="10" s:pid="in0">
      <text x="-3" y="-4" class="inputPortLabel">5</text>
    </g>
    <g transform="translate(0,130)" s:x="0" s:y="10" s:pid="in0">
      <text x="-3" y="-4" class="inputPortLabel">6</text>
    </g>
    <g transform="translate(0,150)" s:x="0" s:y="10" s:pid="in0">
      <text x="-3" y="-4" class="inputPortLabel">7</text>
    </g>
  </g>
  <g s:type="split" transform="translate(32,702.5)" s:width="5" s:height="40" id="cell_$split$,27,28,29,30,24,">
    <rect width="5" height="40" class="splitjoinBody" s:generic="body"/>
    <s:alias val="$_split_"/>
    <g s:x="0" s:y="20" s:pid="in"/>
    <g transform="translate(4,10)" s:x="4" s:y="10" s:pid="out0">
      <text x="5" y="-4">4</text>
    </g>
    <g transform="translate(4,30)" s:x="4" s:y="10" s:pid="out0">
      <text x="5" y="-4">0:3</text>
    </g>
  </g>
  <g s:type="split" transform="translate(32,779.5)" s:width="5" s:height="40" id="cell_$split$,31,32,33,34,25,">
    <rect width="5" height="40" class="splitjoinBody" s:generic="body"/>
    <s:alias val="$_split_"/>
    <g s:x="0" s:y="20" s:pid="in"/>
    <g transform="translate(4,10)" s:x="4" s:y="10" s:pid="out0">
      <text x="5" y="-4">4</text>
    </g>
    <g transform="translate(4,30)" s:x="4" s:y="10" s:pid="out0">
      <text x="5" y="-4">0:3</text>
    </g>
  </g>
  <line x1="37" x2="74" y1="713" y2="713" class="net_24"/>
  <line x1="74" x2="74" y1="713" y2="775" class="net_24"/>
  <line x1="74" x2="87" y1="775" y2="775" class="net_24"/>
  <line x1="37" x2="87" y1="790" y2="790" class="net_25"/>
  <line x1="37" x2="64" y1="733" y2="733" class="net_27,28,29,30"/>
  <line x1="64" x2="64" y1="733" y2="835" class="net_27,28,29,30"/>
  <circle cx="64" cy="733" r="2" style="fill:#000" class="net_27,28,29,30"/>
  <line x1="64" x2="87" y1="835" y2="835" class="net_27,28,29,30"/>
  <line x1="37" x2="64" y1="733" y2="733" class="net_27,28,29,30"/>
  <line x1="64" x2="64" y1="733" y2="151" class="net_27,28,29,30"/>
  <line x1="64" x2="476" y1="151" y2="151" class="net_27,28,29,30"/>
  <line x1="476" x2="476" y1="151" y2="80" class="net_27,28,29,30"/>
  <line x1="476" x2="526" y1="80" y2="80" class="net_27,28,29,30"/>
  <line x1="37" x2="54" y1="810" y2="810" class="net_31,32,33,34"/>
  <line x1="54" x2="54" y1="810" y2="850" class="net_31,32,33,34"/>
  <circle cx="54" cy="810" r="2" style="fill:#000" class="net_31,32,33,34"/>
  <line x1="54" x2="87" y1="850" y2="850" class="net_31,32,33,34"/>
  <line x1="37" x2="54" y1="810" y2="810" class="net_31,32,33,34"/>
  <line x1="54" x2="54" y1="810" y2="23" class="net_31,32,33,34"/>
  <line x1="54" x2="596" y1="23" y2="23" class="net_31,32,33,34"/>
  <line x1="596" x2="596" y1="23" y2="80" class="net_31,32,33,34"/>
  <line x1="596" x2="586" y1="80" y2="80" class="net_31,32,33,34"/>
  <line x1="109" x2="144" y1="842.5" y2="842.5" class="net_35"/>
  <line x1="109" x2="119" y1="782.5" y2="782.5" class="net_26"/>
  <line x1="119" x2="119" y1="782.5" y2="857.5" class="net_26"/>
  <line x1="119" x2="144" y1="857.5" y2="857.5" class="net_26"/>
  <line x1="174" x2="204" y1="182" y2="182" class="net_98"/>
  <line x1="204" x2="204" y1="182" y2="657.5" class="net_98"/>
  <circle cx="204" cy="182" r="2" style="fill:#000" class="net_98"/>
  <line x1="204" x2="217.33333333333334" y1="657.5" y2="657.5" class="net_98"/>
  <line x1="174" x2="204" y1="182" y2="182" class="net_98"/>
  <line x1="204" x2="204" y1="182" y2="481" class="net_98"/>
  <circle cx="204" cy="481" r="2" style="fill:#000" class="net_98"/>
  <line x1="204" x2="764.3333333333334" y1="481" y2="481" class="net_98"/>
  <line x1="174" x2="606" y1="182" y2="182" class="net_98"/>
  <line x1="606" x2="606" y1="182" y2="120" class="net_98"/>
  <line x1="606" x2="586" y1="120" y2="120" class="net_98"/>
  <line x1="174" x2="204" y1="182" y2="182" class="net_98"/>
  <line x1="204" x2="204" y1="182" y2="140" class="net_98"/>
  <line x1="204" x2="384" y1="140" y2="140" class="net_98"/>
  <line x1="384" x2="384" y1="140" y2="34" class="net_98"/>
  <line x1="384" x2="606" y1="34" y2="34" class="net_98"/>
  <line x1="606" x2="606" y1="34" y2="110" class="net_98"/>
  <circle cx="384" cy="140" r="2" style="fill:#000" class="net_98"/>
  <line x1="606" x2="586" y1="110" y2="110" class="net_98"/>
  <line x1="174" x2="204" y1="182" y2="182" class="net_98"/>
  <line x1="204" x2="204" y1="182" y2="140" class="net_98"/>
  <line x1="204" x2="596" y1="140" y2="140" class="net_98"/>
  <line x1="596" x2="596" y1="140" y2="130" class="net_98"/>
  <line x1="596" x2="586" y1="130" y2="130" class="net_98"/>
  <line x1="174" x2="194" y1="610.5" y2="610.5" class="net_99"/>
  <line x1="194" x2="194" y1="610.5" y2="677.5" class="net_99"/>
  <circle cx="194" cy="610.5" r="2" style="fill:#000" class="net_99"/>
  <circle cx="194" cy="677.5" r="2" style="fill:#000" class="net_99"/>
  <line x1="194" x2="217.33333333333334" y1="677.5" y2="677.5" class="net_99"/>
  <line x1="174" x2="350.3333333333333" y1="610.5" y2="610.5" class="net_99"/>
  <line x1="174" x2="194" y1="610.5" y2="610.5" class="net_99"/>
  <line x1="194" x2="194" y1="610.5" y2="891" class="net_99"/>
  <line x1="194" x2="350.3333333333333" y1="891" y2="891" class="net_99"/>
  <line x1="174" x2="194" y1="610.5" y2="610.5" class="net_99"/>
  <line x1="194" x2="194" y1="610.5" y2="501" class="net_99"/>
  <circle cx="194" cy="501" r="2" style="fill:#000" class="net_99"/>
  <line x1="194" x2="764.3333333333334" y1="501" y2="501" class="net_99"/>
  <line x1="174" x2="194" y1="610.5" y2="610.5" class="net_99"/>
  <line x1="194" x2="194" y1="610.5" y2="171" class="net_99"/>
  <line x1="194" x2="616" y1="171" y2="171" class="net_99"/>
  <line x1="616" x2="616" y1="171" y2="95" class="net_99"/>
  <line x1="616" x2="586" y1="95" y2="95" class="net_99"/>
  <line x1="174" x2="227.33333333333334" y1="850" y2="850" class="net_36"/>
  <line x1="227.33333333333334" x2="227.33333333333334" y1="850" y2="682.5" class="net_36"/>
  <line x1="237.33333333333334" x2="279" y1="667.5" y2="667.5" class="net_23"/>
  <line x1="237.33333333333334" x2="254" y1="667.5" y2="667.5" class="net_23"/>
  <line x1="254" x2="254" y1="667.5" y2="917" class="net_23"/>
  <circle cx="254" cy="667.5" r="2" style="fill:#000" class="net_23"/>
  <line x1="254" x2="826" y1="917" y2="917" class="net_23"/>
  <line x1="304" x2="319" y1="667.5" y2="667.5" class="net_37"/>
  <line x1="319" x2="319" y1="667.5" y2="717.5" class="net_37"/>
  <line x1="319" x2="344" y1="717.5" y2="717.5" class="net_37"/>
  <line x1="307" x2="344" y1="732.5" y2="732.5" class="net_4"/>
  <line x1="666" x2="676" y1="745" y2="745" class="net_27,28,29,30,24"/>
  <line x1="676" x2="676" y1="745" y2="625.5" class="net_27,28,29,30,24"/>
  <line x1="676" x2="319" y1="625.5" y2="625.5" class="net_27,28,29,30,24"/>
  <line x1="319" x2="319" y1="625.5" y2="595.5" class="net_27,28,29,30,24"/>
  <line x1="319" x2="350.3333333333333" y1="595.5" y2="595.5" class="net_27,28,29,30,24"/>
  <line x1="666" x2="676" y1="745" y2="745" class="net_27,28,29,30,24"/>
  <line x1="676" x2="676" y1="745" y2="625.5" class="net_27,28,29,30,24"/>
  <line x1="676" x2="496" y1="625.5" y2="625.5" class="net_27,28,29,30,24"/>
  <line x1="496" x2="496" y1="625.5" y2="512" class="net_27,28,29,30,24"/>
  <line x1="496" x2="414" y1="512" y2="512" class="net_27,28,29,30,24"/>
  <line x1="414" x2="414" y1="512" y2="583" class="net_27,28,29,30,24"/>
  <circle cx="496" cy="625.5" r="2" style="fill:#000" class="net_27,28,29,30,24"/>
  <circle cx="676" cy="745" r="2" style="fill:#000" class="net_27,28,29,30,24"/>
  <line x1="414" x2="434.6666666666667" y1="583" y2="583" class="net_27,28,29,30,24"/>
  <line x1="666" x2="676" y1="745" y2="745" class="net_27,28,29,30,24"/>
  <line x1="676" x2="676" y1="745" y2="851" class="net_27,28,29,30,24"/>
  <line x1="676" x2="704" y1="851" y2="851" class="net_27,28,29,30,24"/>
  <line x1="666" x2="676" y1="745" y2="745" class="net_27,28,29,30,24"/>
  <line x1="676" x2="676" y1="745" y2="625.5" class="net_27,28,29,30,24"/>
  <line x1="676" x2="496" y1="625.5" y2="625.5" class="net_27,28,29,30,24"/>
  <line x1="496" x2="496" y1="625.5" y2="562" class="net_27,28,29,30,24"/>
  <line x1="496" x2="12" y1="562" y2="562" class="net_27,28,29,30,24"/>
  <line x1="12" x2="12" y1="562" y2="723" class="net_27,28,29,30,24"/>
  <circle cx="496" cy="562" r="2" style="fill:#000" class="net_27,28,29,30,24"/>
  <line x1="12" x2="32" y1="723" y2="723" class="net_27,28,29,30,24"/>
  <line x1="372.3333333333333" x2="434.6666666666667" y1="603" y2="603" class="net_39,40,41,42,43"/>
  <line x1="374" x2="444.6666666666667" y1="725" y2="725" class="net_38"/>
  <line x1="444.6666666666667" x2="444.6666666666667" y1="725" y2="608" class="net_38"/>
  <line x1="374" x2="384" y1="725" y2="725" class="net_38"/>
  <line x1="384" x2="384" y1="725" y2="752.5" class="net_38"/>
  <line x1="384" x2="264" y1="752.5" y2="752.5" class="net_38"/>
  <line x1="264" x2="264" y1="752.5" y2="343" class="net_38"/>
  <circle cx="384" cy="725" r="2" style="fill:#000" class="net_38"/>
  <line x1="264" x2="279" y1="343" y2="343" class="net_38"/>
  <line x1="784.3333333333334" x2="801" y1="491" y2="491" class="net_22"/>
  <line x1="801" x2="801" y1="491" y2="426" class="net_22"/>
  <circle cx="801" cy="491" r="2" style="fill:#000" class="net_22"/>
  <line x1="801" x2="826" y1="426" y2="426" class="net_22"/>
  <line x1="784.3333333333334" x2="826" y1="491" y2="491" class="net_22"/>
  <line x1="851" x2="878" y1="426" y2="426" class="net_49"/>
  <line x1="878" x2="878" y1="426" y2="406" class="net_49"/>
  <line x1="878" x2="319" y1="406" y2="406" class="net_49"/>
  <line x1="319" x2="319" y1="406" y2="527" class="net_49"/>
  <line x1="319" x2="344" y1="527" y2="527" class="net_49"/>
  <line x1="307" x2="344" y1="542" y2="542" class="net_13"/>
  <line x1="666" x2="676" y1="866" y2="866" class="net_31,32,33,34,25"/>
  <line x1="676" x2="676" y1="866" y2="906" class="net_31,32,33,34,25"/>
  <line x1="676" x2="319" y1="906" y2="906" class="net_31,32,33,34,25"/>
  <line x1="319" x2="319" y1="906" y2="876" class="net_31,32,33,34,25"/>
  <circle cx="319" cy="906" r="2" style="fill:#000" class="net_31,32,33,34,25"/>
  <line x1="319" x2="350.3333333333333" y1="876" y2="876" class="net_31,32,33,34,25"/>
  <line x1="666" x2="676" y1="866" y2="866" class="net_31,32,33,34,25"/>
  <line x1="676" x2="676" y1="866" y2="906" class="net_31,32,33,34,25"/>
  <line x1="676" x2="404" y1="906" y2="906" class="net_31,32,33,34,25"/>
  <line x1="404" x2="404" y1="906" y2="810" class="net_31,32,33,34,25"/>
  <circle cx="404" cy="906" r="2" style="fill:#000" class="net_31,32,33,34,25"/>
  <circle cx="676" cy="866" r="2" style="fill:#000" class="net_31,32,33,34,25"/>
  <line x1="404" x2="434.6666666666667" y1="810" y2="810" class="net_31,32,33,34,25"/>
  <line x1="666" x2="704" y1="866" y2="866" class="net_31,32,33,34,25"/>
  <line x1="666" x2="676" y1="866" y2="866" class="net_31,32,33,34,25"/>
  <line x1="676" x2="676" y1="866" y2="906" class="net_31,32,33,34,25"/>
  <line x1="676" x2="12" y1="906" y2="906" class="net_31,32,33,34,25"/>
  <line x1="12" x2="12" y1="906" y2="800" class="net_31,32,33,34,25"/>
  <line x1="12" x2="32" y1="800" y2="800" class="net_31,32,33,34,25"/>
  <line x1="372.3333333333333" x2="414" y1="883.5" y2="883.5" class="net_51,52,53,54,55"/>
  <line x1="414" x2="414" y1="883.5" y2="830" class="net_51,52,53,54,55"/>
  <line x1="414" x2="434.6666666666667" y1="830" y2="830" class="net_51,52,53,54,55"/>
  <line x1="374" x2="394" y1="534.5" y2="534.5" class="net_50"/>
  <line x1="394" x2="394" y1="534.5" y2="850" class="net_50"/>
  <line x1="394" x2="444.6666666666667" y1="850" y2="850" class="net_50"/>
  <circle cx="394" cy="534.5" r="2" style="fill:#000" class="net_50"/>
  <line x1="444.6666666666667" x2="444.6666666666667" y1="850" y2="835" class="net_50"/>
  <line x1="374" x2="394" y1="534.5" y2="534.5" class="net_50"/>
  <line x1="394" x2="394" y1="534.5" y2="385" class="net_50"/>
  <line x1="394" x2="652.6666666666666" y1="385" y2="385" class="net_50"/>
  <line x1="652.6666666666666" x2="652.6666666666666" y1="385" y2="70" class="net_50"/>
  <line x1="791" x2="801" y1="354" y2="354" class="net_14,15,16,17,18,19,20,21"/>
  <line x1="801" x2="801" y1="354" y2="395" class="net_14,15,16,17,18,19,20,21"/>
  <line x1="801" x2="626" y1="395" y2="395" class="net_14,15,16,17,18,19,20,21"/>
  <line x1="626" x2="626" y1="395" y2="45" class="net_14,15,16,17,18,19,20,21"/>
  <line x1="626" x2="642.6666666666666" y1="45" y2="45" class="net_14,15,16,17,18,19,20,21"/>
  <line x1="791" x2="801" y1="354" y2="354" class="net_14,15,16,17,18,19,20,21"/>
  <line x1="801" x2="801" y1="354" y2="35" class="net_14,15,16,17,18,19,20,21"/>
  <line x1="801" x2="686" y1="35" y2="35" class="net_14,15,16,17,18,19,20,21"/>
  <line x1="686" x2="686" y1="35" y2="75" class="net_14,15,16,17,18,19,20,21"/>
  <circle cx="801" cy="354" r="2" style="fill:#000" class="net_14,15,16,17,18,19,20,21"/>
  <line x1="686" x2="704.3333333333334" y1="75" y2="75" class="net_14,15,16,17,18,19,20,21"/>
  <line x1="791" x2="826" y1="354" y2="354" class="net_14,15,16,17,18,19,20,21"/>
  <line x1="586" x2="642.6666666666666" y1="65" y2="65" class="net_61,62,63,64,65,66,67,68"/>
  <line x1="454.6666666666667" x2="486" y1="593" y2="593" class="net_44,45,46,47,48"/>
  <line x1="486" x2="486" y1="593" y2="735" class="net_44,45,46,47,48"/>
  <line x1="486" x2="539.3333333333334" y1="735" y2="735" class="net_44,45,46,47,48"/>
  <line x1="454" x2="539.3333333333334" y1="755" y2="755" class="net_102,103,104,105,106"/>
  <line x1="454" x2="516" y1="755" y2="755" class="net_102,103,104,105,106"/>
  <line x1="516" x2="516" y1="755" y2="840" class="net_102,103,104,105,106"/>
  <circle cx="516" cy="755" r="2" style="fill:#000" class="net_102,103,104,105,106"/>
  <line x1="516" x2="539.3333333333334" y1="840" y2="840" class="net_102,103,104,105,106"/>
  <line x1="172" x2="184" y1="328" y2="328" class="net_3"/>
  <line x1="184" x2="184" y1="328" y2="636.5" class="net_3"/>
  <line x1="184" x2="476" y1="636.5" y2="636.5" class="net_3"/>
  <line x1="476" x2="476" y1="636.5" y2="800" class="net_3"/>
  <line x1="476" x2="549.3333333333334" y1="800" y2="800" class="net_3"/>
  <circle cx="184" cy="328" r="2" style="fill:#000" class="net_3"/>
  <circle cx="184" cy="636.5" r="2" style="fill:#000" class="net_3"/>
  <line x1="549.3333333333334" x2="549.3333333333334" y1="800" y2="760" class="net_3"/>
  <line x1="172" x2="184" y1="328" y2="328" class="net_3"/>
  <line x1="184" x2="184" y1="328" y2="860" class="net_3"/>
  <line x1="184" x2="549.3333333333334" y1="860" y2="860" class="net_3"/>
  <line x1="549.3333333333334" x2="549.3333333333334" y1="860" y2="845" class="net_3"/>
  <line x1="172" x2="184" y1="328" y2="328" class="net_3"/>
  <line x1="184" x2="184" y1="328" y2="12" class="net_3"/>
  <line x1="184" x2="676" y1="12" y2="12" class="net_3"/>
  <line x1="676" x2="676" y1="12" y2="364" class="net_3"/>
  <line x1="676" x2="714.3333333333334" y1="364" y2="364" class="net_3"/>
  <line x1="714.3333333333334" x2="714.3333333333334" y1="364" y2="80" class="net_3"/>
  <line x1="172" x2="214" y1="328" y2="328" class="net_3"/>
  <line x1="454.6666666666667" x2="539.3333333333334" y1="820" y2="820" class="net_56,57,58,59,60"/>
  <line x1="662.6666666666666" x2="704.3333333333334" y1="55" y2="55" class="net_69,70,71,72,73,74,75,76"/>
  <line x1="239" x2="279" y1="328" y2="328" class="net_95"/>
  <line x1="452" x2="506" y1="542" y2="542" class="net_2"/>
  <line x1="506" x2="506" y1="542" y2="886" class="net_2"/>
  <line x1="506" x2="596" y1="886" y2="886" class="net_2"/>
  <line x1="596" x2="596" y1="886" y2="765" class="net_2"/>
  <circle cx="506" cy="542" r="2" style="fill:#000" class="net_2"/>
  <circle cx="596" cy="886" r="2" style="fill:#000" class="net_2"/>
  <line x1="596" x2="636" y1="765" y2="765" class="net_2"/>
  <line x1="452" x2="506" y1="542" y2="542" class="net_2"/>
  <line x1="506" x2="506" y1="542" y2="886" class="net_2"/>
  <line x1="506" x2="636" y1="886" y2="886" class="net_2"/>
  <line x1="452" x2="506" y1="542" y2="542" class="net_2"/>
  <line x1="506" x2="506" y1="542" y2="374" class="net_2"/>
  <circle cx="506" cy="374" r="2" style="fill:#000" class="net_2"/>
  <line x1="506" x2="761" y1="374" y2="374" class="net_2"/>
  <line x1="452" x2="506" y1="542" y2="542" class="net_2"/>
  <line x1="506" x2="506" y1="542" y2="110" class="net_2"/>
  <line x1="506" x2="526" y1="110" y2="110" class="net_2"/>
  <line x1="559.3333333333334" x2="636" y1="745" y2="745" class="net_77,78,79,80,81"/>
  <line x1="559.3333333333334" x2="606" y1="830" y2="830" class="net_82,83,84,85,86"/>
  <line x1="606" x2="606" y1="830" y2="866" class="net_82,83,84,85,86"/>
  <line x1="606" x2="636" y1="866" y2="866" class="net_82,83,84,85,86"/>
  <line x1="724.3333333333334" x2="736" y1="65" y2="65" class="net_87,88,89,90,91,92,93,94"/>
  <line x1="736" x2="736" y1="65" y2="354" class="net_87,88,89,90,91,92,93,94"/>
  <line x1="736" x2="761" y1="354" y2="354" class="net_87,88,89,90,91,92,93,94"/>
  <line x1="726" x2="774.3333333333334" y1="858.5" y2="858.5" class="net_97"/>
  <line x1="774.3333333333334" x2="774.3333333333334" y1="858.5" y2="506" class="net_97"/>
  <line x1="452" x2="526" y1="65" y2="65" class="net_5,6,7,8,9,10,11,12"/>
  <line x1="435.42857142857144" x2="486" y1="225.5" y2="225.5" class="net_96,96,96,96,96,96,96,96"/>
  <line x1="486" x2="486" y1="225.5" y2="95" class="net_96,96,96,96,96,96,96,96"/>
  <line x1="486" x2="526" y1="95" y2="95" class="net_96,96,96,96,96,96,96,96"/>
  <line x1="309" x2="384" y1="335.5" y2="335.5" class="net_96"/>
  <line x1="384" x2="384" y1="335.5" y2="193" class="net_96"/>
  <line x1="384" x2="429.92857142857144" y1="193" y2="193" class="net_96"/>
  <circle cx="384" cy="335.5" r="2" style="fill:#000" class="net_96"/>
  <line x1="429.92857142857144" x2="429.92857142857144" y1="193" y2="215" class="net_96"/>
  <line x1="309" x2="384" y1="335.5" y2="335.5" class="net_96"/>
  <line x1="384" x2="384" y1="335.5" y2="235.5" class="net_96"/>
  <circle cx="384" cy="235.5" r="2" style="fill:#000" class="net_96"/>
  <line x1="384" x2="429.42857142857144" y1="235.5" y2="235.5" class="net_96"/>
  <line x1="309" x2="384" y1="335.5" y2="335.5" class="net_96"/>
  <line x1="384" x2="384" y1="335.5" y2="255.5" class="net_96"/>
  <circle cx="384" cy="255.5" r="2" style="fill:#000" class="net_96"/>
  <line x1="384" x2="429.42857142857144" y1="255.5" y2="255.5" class="net_96"/>
  <line x1="309" x2="384" y1="335.5" y2="335.5" class="net_96"/>
  <line x1="384" x2="384" y1="335.5" y2="275.5" class="net_96"/>
  <circle cx="384" cy="275.5" r="2" style="fill:#000" class="net_96"/>
  <line x1="384" x2="429.42857142857144" y1="275.5" y2="275.5" class="net_96"/>
  <line x1="309" x2="384" y1="335.5" y2="335.5" class="net_96"/>
  <line x1="384" x2="384" y1="335.5" y2="295.5" class="net_96"/>
  <circle cx="384" cy="295.5" r="2" style="fill:#000" class="net_96"/>
  <line x1="384" x2="429.42857142857144" y1="295.5" y2="295.5" class="net_96"/>
  <line x1="309" x2="384" y1="335.5" y2="335.5" class="net_96"/>
  <line x1="384" x2="384" y1="335.5" y2="315.5" class="net_96"/>
  <circle cx="384" cy="315.5" r="2" style="fill:#000" class="net_96"/>
  <line x1="384" x2="429.42857142857144" y1="315.5" y2="315.5" class="net_96"/>
  <line x1="309" x2="429.42857142857144" y1="335.5" y2="335.5" class="net_96"/>
  <line x1="309" x2="384" y1="335.5" y2="335.5" class="net_96"/>
  <line x1="384" x2="384" y1="335.5" y2="375" class="net_96"/>
  <line x1="384" x2="429.92857142857144" y1="375" y2="375" class="net_96"/>
  <line x1="429.92857142857144" x2="429.92857142857144" y1="375" y2="356" class="net_96"/>
</svg>
