<svg xmlns="http://www.w3.org/2000/svg" xmlns:xlink="http://www.w3.org/1999/xlink" xmlns:s="https://github.com/nturley/netlistsvg" width="580" height="1584">
  <style>svg {
    stroke:#000;
    fill:none;
  }
  text {
    fill:#000;
    stroke:none;
    font-size:10px;
    font-weight: bold;
    font-family: "Courier New", monospace;
  }
  .nodelabel {
    text-anchor: middle;
  }
  .inputPortLabel {
    text-anchor: end;
  }
  .splitjoinBody {
    fill:#000;
  }</style>
  <g s:type="eq" transform="translate(176,891)" s:width="25" s:height="25" id="cell_:11">
    <s:alias val="$eq"/>
    <circle r="12.5" cx="12.5" cy="12.5" class="cell_:11"/>
    <line x1="7.5" x2="17.5" y1="10" y2="10" class="cell_:11"/>
    <line x1="7.5" x2="17.5" y1="15" y2="15" class="cell_:11"/>
    <g s:x="3" s:y="5" s:pid="A"/>
    <g s:x="3" s:y="20" s:pid="B"/>
    <g s:x="25" s:y="12.5" s:pid="Y"/>
  </g>
  <g s:type="and" transform="translate(174.33333333333334,159.5)" s:width="30" s:height="25" id="cell_:12">
    <s:alias val="$and"/>
    <s:alias val="$reduce_and"/>
    <s:alias val="$logic_and"/>
    <s:alias val="$_AND_"/>
    <path d="M0,0 L0,25 L15,25 A15 12.5 0 0 0 15,0 Z" class="cell_:12"/>
    <text x="13" y="15" class="nodelabel" style="font-size:7px">AND</text>
    <g s:x="0" s:y="5" s:pid="A"/>
    <g s:x="0" s:y="20" s:pid="B"/>
    <g s:x="30" s:y="12.5" s:pid="Y"/>
  </g>
  <g s:type="eq" transform="translate(176,956)" s:width="25" s:height="25" id="cell_:14">
    <s:alias val="$eq"/>
    <circle r="12.5" cx="12.5" cy="12.5" class="cell_:14"/>
    <line x1="7.5" x2="17.5" y1="10" y2="10" class="cell_:14"/>
    <line x1="7.5" x2="17.5" y1="15" y2="15" class="cell_:14"/>
    <g s:x="3" s:y="5" s:pid="A"/>
    <g s:x="3" s:y="20" s:pid="B"/>
    <g s:x="25" s:y="12.5" s:pid="Y"/>
  </g>
  <g s:type="or" transform="translate(174.33333333333334,219.5)" s:width="30" s:height="25" id="cell_:15">
    <s:alias val="$or"/>
    <s:alias val="$reduce_or"/>
    <s:alias val="$reduce_bool"/>
    <s:alias val="$logic_or"/>
    <s:alias val="$_OR_"/>
    <path d="M0,25 L0,25 L15,25 A15 12.5 0 0 0 15,0 L0,0" class="cell_:15"/>
    <path d="M0,0 A30 25 0 0 1 0,25" class="cell_:15"/>
    <text x="17" y="15" class="nodelabel" style="font-size:7px">OR</text>
    <g s:x="3" s:y="5" s:pid="A"/>
    <g s:x="3" s:y="20" s:pid="B"/>
    <g s:x="30" s:y="12.5" s:pid="Y"/>
  </g>
  <g s:type="eq" transform="translate(176,1021)" s:width="25" s:height="25" id="cell_:17">
    <s:alias val="$eq"/>
    <circle r="12.5" cx="12.5" cy="12.5" class="cell_:17"/>
    <line x1="7.5" x2="17.5" y1="10" y2="10" class="cell_:17"/>
    <line x1="7.5" x2="17.5" y1="15" y2="15" class="cell_:17"/>
    <g s:x="3" s:y="5" s:pid="A"/>
    <g s:x="3" s:y="20" s:pid="B"/>
    <g s:x="25" s:y="12.5" s:pid="Y"/>
  </g>
  <g s:type="reduce_xor" transform="translate(173.33333333333334,284.5)" s:width="33" s:height="25" id="cell_:18">
    <s:alias val="$xor"/>
    <s:alias val="$reduce_xor"/>
    <s:alias val="$_XOR_"/>
    <path d="M3,0 A30 25 0 0 1 3,25 A30 25 0 0 0 33,12.5 A30 25 0 0 0 3,0" class="cell_:18"/>
    <path d="M0,0 A30 25 0 0 1 0,25" class="cell_:18"/>
    <text x="18" y="15" class="nodelabel" style="font-size:7px">XOR</text>
    <g s:x="3" s:y="5" s:pid="A"/>
    <g s:x="3" s:y="20" s:pid="B"/>
    <g s:x="33" s:y="12.5" s:pid="Y"/>
  </g>
  <g s:type="eq" transform="translate(176,1166)" s:width="25" s:height="25" id="cell_:20">
    <s:alias val="$eq"/>
    <circle r="12.5" cx="12.5" cy="12.5" class="cell_:20"/>
    <line x1="7.5" x2="17.5" y1="10" y2="10" class="cell_:20"/>
    <line x1="7.5" x2="17.5" y1="15" y2="15" class="cell_:20"/>
    <g s:x="3" s:y="5" s:pid="A"/>
    <g s:x="3" s:y="20" s:pid="B"/>
    <g s:x="25" s:y="12.5" s:pid="Y"/>
  </g>
  <g s:type="generic" transform="translate(174,354.5)" s:width="30" s:height="40" id="cell_:22">
    <text x="15" y="-4" class="nodelabel cell_:22" s:attribute="ref">&lt;&lt;</text>
    <rect width="30" height="40" s:generic="body" class="cell_:22"/>
    <g transform="translate(0,10)" s:x="0" s:y="10" s:pid="in0" id="port_:22~A">
      <text x="-3" y="-4" class="inputPortLabel cell_:22">A</text>
    </g>
    <g transform="translate(0,30)" s:x="0" s:y="10" s:pid="in0" id="port_:22~B">
      <text x="-3" y="-4" class="inputPortLabel cell_:22">B</text>
    </g>
    <g transform="translate(30,10)" s:x="30" s:y="10" s:pid="out0" id="port_:22~Y">
      <text x="5" y="-4" style="fill:#000; stroke:none" class="cell_:22">Y</text>
    </g>
  </g>
  <g s:type="eq" transform="translate(176,1226)" s:width="25" s:height="25" id="cell_:24">
    <s:alias val="$eq"/>
    <circle r="12.5" cx="12.5" cy="12.5" class="cell_:24"/>
    <line x1="7.5" x2="17.5" y1="10" y2="10" class="cell_:24"/>
    <line x1="7.5" x2="17.5" y1="15" y2="15" class="cell_:24"/>
    <g s:x="3" s:y="5" s:pid="A"/>
    <g s:x="3" s:y="20" s:pid="B"/>
    <g s:x="25" s:y="12.5" s:pid="Y"/>
  </g>
  <g s:type="generic" transform="translate(174,442.5)" s:width="30" s:height="40" id="cell_:26">
    <text x="15" y="-4" class="nodelabel cell_:26" s:attribute="ref">&gt;&gt;</text>
    <rect width="30" height="40" s:generic="body" class="cell_:26"/>
    <g transform="translate(0,10)" s:x="0" s:y="10" s:pid="in0" id="port_:26~A">
      <text x="-3" y="-4" class="inputPortLabel cell_:26">A</text>
    </g>
    <g transform="translate(0,30)" s:x="0" s:y="10" s:pid="in0" id="port_:26~B">
      <text x="-3" y="-4" class="inputPortLabel cell_:26">B</text>
    </g>
    <g transform="translate(30,10)" s:x="30" s:y="10" s:pid="out0" id="port_:26~Y">
      <text x="5" y="-4" style="fill:#000; stroke:none" class="cell_:26">Y</text>
    </g>
  </g>
  <g s:type="eq" transform="translate(176,1291)" s:width="25" s:height="25" id="cell_:28">
    <s:alias val="$eq"/>
    <circle r="12.5" cx="12.5" cy="12.5" class="cell_:28"/>
    <line x1="7.5" x2="17.5" y1="10" y2="10" class="cell_:28"/>
    <line x1="7.5" x2="17.5" y1="15" y2="15" class="cell_:28"/>
    <g s:x="3" s:y="5" s:pid="A"/>
    <g s:x="3" s:y="20" s:pid="B"/>
    <g s:x="25" s:y="12.5" s:pid="Y"/>
  </g>
  <g s:type="generic" transform="translate(174,530.5)" s:width="30" s:height="40" id="cell_:30">
    <text x="15" y="-4" class="nodelabel cell_:30" s:attribute="ref">&gt;&gt;&gt;</text>
    <rect width="30" height="40" s:generic="body" class="cell_:30"/>
    <g transform="translate(0,10)" s:x="0" s:y="10" s:pid="in0" id="port_:30~A">
      <text x="-3" y="-4" class="inputPortLabel cell_:30">A</text>
    </g>
    <g transform="translate(0,30)" s:x="0" s:y="10" s:pid="in0" id="port_:30~B">
      <text x="-3" y="-4" class="inputPortLabel cell_:30">B</text>
    </g>
    <g transform="translate(30,10)" s:x="30" s:y="10" s:pid="out0" id="port_:30~Y">
      <text x="5" y="-4" style="fill:#000; stroke:none" class="cell_:30">Y</text>
    </g>
  </g>
  <g s:type="eq" transform="translate(176,1356)" s:width="25" s:height="25" id="cell_:32">
    <s:alias val="$eq"/>
    <circle r="12.5" cx="12.5" cy="12.5" class="cell_:32"/>
    <line x1="7.5" x2="17.5" y1="10" y2="10" class="cell_:32"/>
    <line x1="7.5" x2="17.5" y1="15" y2="15" class="cell_:32"/>
    <g s:x="3" s:y="5" s:pid="A"/>
    <g s:x="3" s:y="20" s:pid="B"/>
    <g s:x="25" s:y="12.5" s:pid="Y"/>
  </g>
  <g s:type="lt" transform="translate(78.66666666666667,646)" s:width="25" s:height="25" id="cell_:33">
    <s:alias val="$lt"/>
    <circle r="12.5" cx="12.5" cy="12.5" class="cell_:33"/>
    <line x1="7.5" x2="17.5" y1="12.5" y2="7.5" class="cell_:33"/>
    <line x1="7.5" x2="17.5" y1="12.5" y2="17.5" class="cell_:33"/>
    <g s:x="3" s:y="5" s:pid="A"/>
    <g s:x="3" s:y="20" s:pid="B"/>
    <g s:x="25" s:y="12.5" s:pid="Y"/>
  </g>
  <g s:type="mux" transform="translate(177.66666666666666,608.5)" s:width="20" s:height="40" id="cell_:36">
    <s:alias val="$pmux"/>
    <s:alias val="$mux"/>
    <s:alias val="$_MUX_"/>
    <path d="M0,0 L20,10 L20,30 L0,40 Z" class="cell_:36"/>
    <g s:x="0" s:y="10" s:pid="A"/>
    <g s:x="0" s:y="30" s:pid="B"/>
    <g s:x="10" s:y="35" s:pid="S"/>
    <g s:x="20" s:y="20" s:pid="Y"/>
  </g>
  <g s:type="eq" transform="translate(176,1421)" s:width="25" s:height="25" id="cell_:38">
    <s:alias val="$eq"/>
    <circle r="12.5" cx="12.5" cy="12.5" class="cell_:38"/>
    <line x1="7.5" x2="17.5" y1="10" y2="10" class="cell_:38"/>
    <line x1="7.5" x2="17.5" y1="15" y2="15" class="cell_:38"/>
    <g s:x="3" s:y="5" s:pid="A"/>
    <g s:x="3" s:y="20" s:pid="B"/>
    <g s:x="25" s:y="12.5" s:pid="Y"/>
  </g>
  <g s:type="lt" transform="translate(78.66666666666667,706)" s:width="25" s:height="25" id="cell_:39">
    <s:alias val="$lt"/>
    <circle r="12.5" cx="12.5" cy="12.5" class="cell_:39"/>
    <line x1="7.5" x2="17.5" y1="12.5" y2="7.5" class="cell_:39"/>
    <line x1="7.5" x2="17.5" y1="12.5" y2="17.5" class="cell_:39"/>
    <g s:x="3" s:y="5" s:pid="A"/>
    <g s:x="3" s:y="20" s:pid="B"/>
    <g s:x="25" s:y="12.5" s:pid="Y"/>
  </g>
  <g s:type="mux" transform="translate(177.66666666666666,776)" s:width="20" s:height="40" id="cell_:42">
    <s:alias val="$pmux"/>
    <s:alias val="$mux"/>
    <s:alias val="$_MUX_"/>
    <path d="M0,0 L20,10 L20,30 L0,40 Z" class="cell_:42"/>
    <g s:x="0" s:y="10" s:pid="A"/>
    <g s:x="0" s:y="30" s:pid="B"/>
    <g s:x="10" s:y="35" s:pid="S"/>
    <g s:x="20" s:y="20" s:pid="Y"/>
  </g>
  <g s:type="eq" transform="translate(176,1486)" s:width="25" s:height="25" id="cell_:44">
    <s:alias val="$eq"/>
    <circle r="12.5" cx="12.5" cy="12.5" class="cell_:44"/>
    <line x1="7.5" x2="17.5" y1="10" y2="10" class="cell_:44"/>
    <line x1="7.5" x2="17.5" y1="15" y2="15" class="cell_:44"/>
    <g s:x="3" s:y="5" s:pid="A"/>
    <g s:x="3" s:y="20" s:pid="B"/>
    <g s:x="25" s:y="12.5" s:pid="Y"/>
  </g>
  <g s:type="mux" transform="translate(357,448.5)" s:width="20" s:height="40" id="cell_:47">
    <s:alias val="$pmux"/>
    <s:alias val="$mux"/>
    <s:alias val="$_MUX_"/>
    <path d="M0,0 L20,10 L20,30 L0,40 Z" class="cell_:47"/>
    <g s:x="0" s:y="10" s:pid="A"/>
    <g s:x="0" s:y="30" s:pid="B"/>
    <g s:x="10" s:y="35" s:pid="S"/>
    <g s:x="20" s:y="20" s:pid="Y"/>
  </g>
  <g s:type="not" transform="translate(412,1552)" s:width="30" s:height="20" id="cell_:51">
    <s:alias val="$_NOT_"/>
    <s:alias val="$not"/>
    <s:alias val="$logic_not"/>
    <path d="M0,0 L0,20 L20,10 Z" class="cell_:51"/>
    <circle cx="23" cy="10" r="3" class="cell_:51"/>
    <text x="8" y="12" class="nodelabel" style="font-size:6px">NOT</text>
    <g s:x="0" s:y="10" s:pid="A"/>
    <g s:x="25" s:y="10" s:pid="Y"/>
  </g>
  <g s:type="mux" transform="translate(477,1511)" s:width="20" s:height="40" id="cell_:52">
    <s:alias val="$pmux"/>
    <s:alias val="$mux"/>
    <s:alias val="$_MUX_"/>
    <path d="M0,0 L20,10 L20,30 L0,40 Z" class="cell_:52"/>
    <g s:x="0" s:y="10" s:pid="A"/>
    <g s:x="0" s:y="30" s:pid="B"/>
    <g s:x="10" s:y="35" s:pid="S"/>
    <g s:x="20" s:y="20" s:pid="Y"/>
  </g>
  <g s:type="add" transform="translate(176,39.5)" s:width="25" s:height="25" id="cell_:6">
    <s:alias val="$add"/>
    <circle r="12.5" cx="12.5" cy="12.5" class="cell_:6"/>
    <line x1="7.5" x2="17.5" y1="12.5" y2="12.5" class="cell_:6"/>
    <line x1="12.5" x2="12.5" y1="7.5" y2="17.5" class="cell_:6"/>
    <g s:x="3" s:y="5" s:pid="A"/>
    <g s:x="3" s:y="20" s:pid="B"/>
    <g s:x="25" s:y="12.5" s:pid="Y"/>
  </g>
  <g s:type="not" transform="translate(174.5,836)" s:width="30" s:height="20" id="cell_:8">
    <s:alias val="$_NOT_"/>
    <s:alias val="$not"/>
    <s:alias val="$logic_not"/>
    <path d="M0,0 L0,20 L20,10 Z" class="cell_:8"/>
    <circle cx="23" cy="10" r="3" class="cell_:8"/>
    <text x="8" y="12" class="nodelabel" style="font-size:6px">NOT</text>
    <g s:x="0" s:y="10" s:pid="A"/>
    <g s:x="25" s:y="10" s:pid="Y"/>
  </g>
  <g s:type="sub" transform="translate(176,99.5)" s:width="25" s:height="25" id="cell_:9">
    <s:alias val="$sub"/>
    <circle r="12.5" cx="12.5" cy="12.5" class="cell_:9"/>
    <line x1="7.5" x2="17.5" y1="12.5" y2="12.5" class="cell_:9"/>
    <g s:x="3" s:y="5" s:pid="A"/>
    <g s:x="3" s:y="20" s:pid="B"/>
    <g s:x="25" s:y="12.5" s:pid="Y"/>
  </g>
  <g s:type="inputExt" transform="translate(12,443)" s:width="30" s:height="20" id="cell_a">
    <text x="15" y="-4" class="nodelabel cell_a" s:attribute="ref">a</text>
    <s:alias val="$_inputExt_"/>
    <path d="M0,0 L0,20 L15,20 L30,10 L15,0 Z" class="cell_a"/>
    <g s:x="28" s:y="10" s:pid="Y"/>
  </g>
  <g s:type="inputExt" transform="translate(12,284.5)" s:width="30" s:height="20" id="cell_b">
    <text x="15" y="-4" class="nodelabel cell_b" s:attribute="ref">b</text>
    <s:alias val="$_inputExt_"/>
    <path d="M0,0 L0,20 L15,20 L30,10 L15,0 Z" class="cell_b"/>
    <g s:x="28" s:y="10" s:pid="Y"/>
  </g>
  <g s:type="inputExt" transform="translate(77,1161)" s:width="30" s:height="20" id="cell_op">
    <text x="15" y="-4" class="nodelabel cell_op" s:attribute="ref">op</text>
    <s:alias val="$_inputExt_"/>
    <path d="M0,0 L0,20 L15,20 L30,10 L15,0 Z" class="cell_op"/>
    <g s:x="28" s:y="10" s:pid="Y"/>
  </g>
  <g s:type="outputExt" transform="translate(532,458.5)" s:width="30" s:height="20" id="cell_result">
    <text x="15" y="-4" class="nodelabel cell_result" s:attribute="ref">result</text>
    <s:alias val="$_outputExt_"/>
    <path d="M30,0 L30,20 L15,20 L0,10 L15,0 Z" class="cell_result"/>
    <g s:x="0" s:y="10" s:pid="A"/>
  </g>
  <g s:type="outputExt" transform="translate(532,1521)" s:width="30" s:height="20" id="cell_zero">
    <text x="15" y="-4" class="nodelabel cell_zero" s:attribute="ref">zero</text>
    <s:alias val="$_outputExt_"/>
    <path d="M30,0 L30,20 L15,20 L0,10 L15,0 Z" class="cell_zero"/>
    <g s:x="0" s:y="10" s:pid="A"/>
  </g>
  <g s:type="constant" transform="translate(77,901)" s:width="30" s:height="20" id="cell_1">
    <text x="15" y="-4" class="nodelabel cell_1" s:attribute="ref">1</text>
    <s:alias val="$_constant_"/>
    <rect width="30" height="20" class="cell_1"/>
    <g s:x="30" s:y="10" s:pid="Y"/>
  </g>
  <g s:type="constant" transform="translate(77,966)" s:width="30" s:height="20" id="cell_10">
    <text x="15" y="-4" class="nodelabel cell_10" s:attribute="ref">10</text>
    <s:alias val="$_constant_"/>
    <rect width="30" height="20" class="cell_10"/>
    <g s:x="30" s:y="10" s:pid="Y"/>
  </g>
  <g s:type="constant" transform="translate(77,1031)" s:width="30" s:height="20" id="cell_11">
    <text x="15" y="-4" class="nodelabel cell_11" s:attribute="ref">11</text>
    <s:alias val="$_constant_"/>
    <rect width="30" height="20" class="cell_11"/>
    <g s:x="30" s:y="10" s:pid="Y"/>
  </g>
  <g s:type="constant" transform="translate(77,1096)" s:width="30" s:height="20" id="cell_100">
    <text x="15" y="-4" class="nodelabel cell_100" s:attribute="ref">100</text>
    <s:alias val="$_constant_"/>
    <rect width="30" height="20" class="cell_100"/>
    <g s:x="30" s:y="10" s:pid="Y"/>
  </g>
  <g s:type="constant" transform="translate(77,1236)" s:width="30" s:height="20" id="cell_101">
    <text x="15" y="-4" class="nodelabel cell_101" s:attribute="ref">101</text>
    <s:alias val="$_constant_"/>
    <rect width="30" height="20" class="cell_101"/>
    <g s:x="30" s:y="10" s:pid="Y"/>
  </g>
  <g s:type="constant" transform="translate(77,1301)" s:width="30" s:height="20" id="cell_110">
    <text x="15" y="-4" class="nodelabel cell_110" s:attribute="ref">110</text>
    <s:alias val="$_constant_"/>
    <rect width="30" height="20" class="cell_110"/>
    <g s:x="30" s:y="10" s:pid="Y"/>
  </g>
  <g s:type="constant" transform="translate(77,1366)" s:width="30" s:height="20" id="cell_111">
    <text x="15" y="-4" class="nodelabel cell_111" s:attribute="ref">111</text>
    <s:alias val="$_constant_"/>
    <rect width="30" height="20" class="cell_111"/>
    <g s:x="30" s:y="10" s:pid="Y"/>
  </g>
  <g s:type="constant" transform="translate(77,776)" s:width="30" s:height="20" id="cell_0">
    <text x="15" y="-4" class="nodelabel cell_0" s:attribute="ref">0</text>
    <s:alias val="$_constant_"/>
    <rect width="30" height="20" class="cell_0"/>
    <g s:x="30" s:y="10" s:pid="Y"/>
  </g>
  <g s:type="constant" transform="translate(77,1431)" s:width="30" s:height="20" id="cell_1000">
    <text x="15" y="-4" class="nodelabel cell_1000" s:attribute="ref">0x8</text>
    <s:alias val="$_constant_"/>
    <rect width="30" height="20" class="cell_1000"/>
    <g s:x="30" s:y="10" s:pid="Y"/>
  </g>
  <g s:type="constant" transform="translate(77,1496)" s:width="30" s:height="20" id="cell_1001">
    <text x="15" y="-4" class="nodelabel cell_1001" s:attribute="ref">0x9</text>
    <s:alias val="$_constant_"/>
    <rect width="30" height="20" class="cell_1001"/>
    <g s:x="30" s:y="10" s:pid="Y"/>
  </g>
  <g s:type="constant" transform="translate(292,22)" s:width="30" s:height="20" id="cell_00000000000000000000000000000000">
    <text x="15" y="-4" class="nodelabel cell_00000000000000000000000000000000" s:attribute="ref">0x0</text>
    <s:alias val="$_constant_"/>
    <rect width="30" height="20" class="cell_00000000000000000000000000000000"/>
    <g s:x="30" s:y="10" s:pid="Y"/>
  </g>
  <g s:type="constant" transform="translate(174,721)" s:width="30" s:height="20" id="cell_0000000000000000000000000000000">
    <text x="15" y="-4" class="nodelabel cell_0000000000000000000000000000000" s:attribute="ref">0x0</text>
    <s:alias val="$_constant_"/>
    <rect width="30" height="20" class="cell_0000000000000000000000000000000"/>
    <g s:x="30" s:y="10" s:pid="Y"/>
  </g>
  <g s:type="join" transform="translate(294.6,458)" s:width="4" s:height="40" id="cell_$join$,308,309,310,311,312,313,314,315,316,317,318,319,320,321,322,323,324,325,326,327,328,329,330,331,332,333,334,335,336,337,338,339,340,341,342,343,344,345,346,347,348,349,350,351,352,353,354,355,356,357,358,359,360,361,362,363,364,365,366,367,368,369,370,371,104,105,106,107,108,109,110,111,112,113,114,115,116,117,118,119,120,121,122,123,124,125,126,127,128,129,130,131,132,133,134,135,137,138,139,140,141,142,143,144,145,146,147,148,149,150,151,152,153,154,155,156,157,158,159,160,161,162,163,164,165,166,167,168,170,171,172,173,174,175,176,177,178,179,180,181,182,183,184,185,186,187,188,189,190,191,192,193,194,195,196,197,198,199,200,201,203,204,205,206,207,208,209,210,211,212,213,214,215,216,217,218,219,220,221,222,223,224,225,226,227,228,229,230,231,232,233,234,236,237,238,239,240,241,242,243,244,245,246,247,248,249,250,251,252,253,254,255,256,257,258,259,260,261,262,263,264,265,266,267,269,270,271,272,273,274,275,276,277,278,279,280,281,282,283,284,285,286,287,288,289,290,291,292,293,294,295,296,297,298,299,300,303,435,436,437,438,439,440,441,442,443,444,445,446,447,448,449,450,451,452,453,454,455,456,457,458,459,460,461,462,463,464,465,306,435,436,437,438,439,440,441,442,443,444,445,446,447,448,449,450,451,452,453,454,455,456,457,458,459,460,461,462,463,464,465,">
    <rect width="5" height="240" class="splitjoinBody" s:generic="body"/>
    <s:alias val="$_join_"/>
    <g s:x="5" s:y="20" s:pid="out"/>
    <g transform="translate(0,10)" s:x="0" s:y="10" s:pid="in0">
      <text x="-3" y="-4" class="inputPortLabel">0:31</text>
    </g>
    <g transform="translate(0,30)" s:x="0" s:y="10" s:pid="in0">
      <text x="-3" y="-4" class="inputPortLabel">32:63</text>
    </g>
    <g transform="translate(0,50)" s:x="0" s:y="10" s:pid="in0">
      <text x="-3" y="-4" class="inputPortLabel">64:95</text>
    </g>
    <g transform="translate(0,70)" s:x="0" s:y="10" s:pid="in0">
      <text x="-3" y="-4" class="inputPortLabel">96:127</text>
    </g>
    <g transform="translate(0,90)" s:x="0" s:y="10" s:pid="in0">
      <text x="-3" y="-4" class="inputPortLabel">128:159</text>
    </g>
    <g transform="translate(0,110)" s:x="0" s:y="10" s:pid="in0">
      <text x="-3" y="-4" class="inputPortLabel">160:191</text>
    </g>
    <g transform="translate(0,130)" s:x="0" s:y="10" s:pid="in0">
      <text x="-3" y="-4" class="inputPortLabel">192:223</text>
    </g>
    <g transform="translate(0,150)" s:x="0" s:y="10" s:pid="in0">
      <text x="-3" y="-4" class="inputPortLabel">224:255</text>
    </g>
    <g transform="translate(0,170)" s:x="0" s:y="10" s:pid="in0">
      <text x="-3" y="-4" class="inputPortLabel">256</text>
    </g>
    <g transform="translate(0,190)" s:x="0" s:y="10" s:pid="in0">
      <text x="-3" y="-4" class="inputPortLabel">257:287</text>
    </g>
    <g transform="translate(0,210)" s:x="0" s:y="10" s:pid="in0">
      <text x="-3" y="-4" class="inputPortLabel">288</text>
    </g>
    <g transform="translate(0,230)" s:x="0" s:y="10" s:pid="in0">
      <text x="-3" y="-4" class="inputPortLabel">289:319</text>
    </g>
  </g>
  <g s:type="join" transform="translate(294.8888888888889,1263)" s:width="4" s:height="40" id="cell_$join$,372,103,136,169,202,235,268,301,304,307,">
    <rect width="5" height="200" class="splitjoinBody" s:generic="body"/>
    <s:alias val="$_join_"/>
    <g s:x="5" s:y="20" s:pid="out"/>
    <g transform="translate(0,10)" s:x="0" s:y="10" s:pid="in0">
      <text x="-3" y="-4" class="inputPortLabel">0</text>
    </g>
    <g transform="translate(0,30)" s:x="0" s:y="10" s:pid="in0">
      <text x="-3" y="-4" class="inputPortLabel">1</text>
    </g>
    <g transform="translate(0,50)" s:x="0" s:y="10" s:pid="in0">
      <text x="-3" y="-4" class="inputPortLabel">2</text>
    </g>
    <g transform="translate(0,70)" s:x="0" s:y="10" s:pid="in0">
      <text x="-3" y="-4" class="inputPortLabel">3</text>
    </g>
    <g transform="translate(0,90)" s:x="0" s:y="10" s:pid="in0">
      <text x="-3" y="-4" class="inputPortLabel">4</text>
    </g>
    <g transform="translate(0,110)" s:x="0" s:y="10" s:pid="in0">
      <text x="-3" y="-4" class="inputPortLabel">5</text>
    </g>
    <g transform="translate(0,130)" s:x="0" s:y="10" s:pid="in0">
      <text x="-3" y="-4" class="inputPortLabel">6</text>
    </g>
    <g transform="translate(0,150)" s:x="0" s:y="10" s:pid="in0">
      <text x="-3" y="-4" class="inputPortLabel">7</text>
    </g>
    <g transform="translate(0,170)" s:x="0" s:y="10" s:pid="in0">
      <text x="-3" y="-4" class="inputPortLabel">8</text>
    </g>
    <g transform="translate(0,190)" s:x="0" s:y="10" s:pid="in0">
      <text x="-3" y="-4" class="inputPortLabel">9</text>
    </g>
  </g>
  <g s:type="split" transform="translate(83,261.5)" s:width="5" s:height="40" id="cell_$split$,34,35,36,37,38,39,40,41,42,43,44,45,46,47,48,49,50,51,52,53,54,55,56,57,58,59,60,61,62,63,64,65,">
    <rect width="5" height="20" class="splitjoinBody" s:generic="body"/>
    <s:alias val="$_split_"/>
    <g s:x="0" s:y="20" s:pid="in"/>
    <g transform="translate(4,10)" s:x="4" s:y="10" s:pid="out0">
      <text x="5" y="-4">0:4</text>
    </g>
  </g>
  <line x1="105" x2="147" y1="1171" y2="1171" class="net_66,67,68,69"/>
  <line x1="147" x2="147" y1="1171" y2="896" class="net_66,67,68,69"/>
  <circle cx="147" cy="1171" r="2" style="fill:#000" class="net_66,67,68,69"/>
  <circle cx="147" cy="896" r="2" style="fill:#000" class="net_66,67,68,69"/>
  <line x1="147" x2="179" y1="896" y2="896" class="net_66,67,68,69"/>
  <line x1="105" x2="147" y1="1171" y2="1171" class="net_66,67,68,69"/>
  <line x1="147" x2="147" y1="1171" y2="961" class="net_66,67,68,69"/>
  <circle cx="147" cy="961" r="2" style="fill:#000" class="net_66,67,68,69"/>
  <line x1="147" x2="179" y1="961" y2="961" class="net_66,67,68,69"/>
  <line x1="105" x2="147" y1="1171" y2="1171" class="net_66,67,68,69"/>
  <line x1="147" x2="147" y1="1171" y2="1026" class="net_66,67,68,69"/>
  <circle cx="147" cy="1026" r="2" style="fill:#000" class="net_66,67,68,69"/>
  <line x1="147" x2="179" y1="1026" y2="1026" class="net_66,67,68,69"/>
  <line x1="105" x2="179" y1="1171" y2="1171" class="net_66,67,68,69"/>
  <line x1="105" x2="147" y1="1171" y2="1171" class="net_66,67,68,69"/>
  <line x1="147" x2="147" y1="1171" y2="1231" class="net_66,67,68,69"/>
  <circle cx="147" cy="1231" r="2" style="fill:#000" class="net_66,67,68,69"/>
  <line x1="147" x2="179" y1="1231" y2="1231" class="net_66,67,68,69"/>
  <line x1="105" x2="147" y1="1171" y2="1171" class="net_66,67,68,69"/>
  <line x1="147" x2="147" y1="1171" y2="1296" class="net_66,67,68,69"/>
  <circle cx="147" cy="1296" r="2" style="fill:#000" class="net_66,67,68,69"/>
  <line x1="147" x2="179" y1="1296" y2="1296" class="net_66,67,68,69"/>
  <line x1="105" x2="147" y1="1171" y2="1171" class="net_66,67,68,69"/>
  <line x1="147" x2="147" y1="1171" y2="1361" class="net_66,67,68,69"/>
  <circle cx="147" cy="1361" r="2" style="fill:#000" class="net_66,67,68,69"/>
  <line x1="147" x2="179" y1="1361" y2="1361" class="net_66,67,68,69"/>
  <line x1="105" x2="147" y1="1171" y2="1171" class="net_66,67,68,69"/>
  <line x1="147" x2="147" y1="1171" y2="1426" class="net_66,67,68,69"/>
  <circle cx="147" cy="1426" r="2" style="fill:#000" class="net_66,67,68,69"/>
  <line x1="147" x2="179" y1="1426" y2="1426" class="net_66,67,68,69"/>
  <line x1="105" x2="147" y1="1171" y2="1171" class="net_66,67,68,69"/>
  <line x1="147" x2="147" y1="1171" y2="1491" class="net_66,67,68,69"/>
  <line x1="147" x2="179" y1="1491" y2="1491" class="net_66,67,68,69"/>
  <line x1="105" x2="147" y1="1171" y2="1171" class="net_66,67,68,69"/>
  <line x1="147" x2="147" y1="1171" y2="846" class="net_66,67,68,69"/>
  <line x1="147" x2="174.5" y1="846" y2="846" class="net_66,67,68,69"/>
  <line x1="107" x2="179" y1="911" y2="911" class="net_374"/>
  <line x1="107" x2="137" y1="911" y2="911" class="net_374"/>
  <line x1="137" x2="137" y1="911" y2="638.5" class="net_374"/>
  <circle cx="137" cy="911" r="2" style="fill:#000" class="net_374"/>
  <line x1="137" x2="177.66666666666666" y1="638.5" y2="638.5" class="net_374"/>
  <line x1="107" x2="137" y1="911" y2="911" class="net_374"/>
  <line x1="137" x2="137" y1="911" y2="806" class="net_374"/>
  <circle cx="137" cy="806" r="2" style="fill:#000" class="net_374"/>
  <line x1="137" x2="177.66666666666666" y1="806" y2="806" class="net_374"/>
  <line x1="107" x2="137" y1="911" y2="911" class="net_374"/>
  <line x1="137" x2="137" y1="911" y2="1541" class="net_374"/>
  <line x1="137" x2="477" y1="1541" y2="1541" class="net_374"/>
  <line x1="40" x2="52" y1="453" y2="453" class="net_2,3,4,5,6,7,8,9,10,11,12,13,14,15,16,17,18,19,20,21,22,23,24,25,26,27,28,29,30,31,32,33"/>
  <line x1="52" x2="52" y1="453" y2="164.5" class="net_2,3,4,5,6,7,8,9,10,11,12,13,14,15,16,17,18,19,20,21,22,23,24,25,26,27,28,29,30,31,32,33"/>
  <circle cx="52" cy="453" r="2" style="fill:#000" class="net_2,3,4,5,6,7,8,9,10,11,12,13,14,15,16,17,18,19,20,21,22,23,24,25,26,27,28,29,30,31,32,33"/>
  <circle cx="52" cy="164.5" r="2" style="fill:#000" class="net_2,3,4,5,6,7,8,9,10,11,12,13,14,15,16,17,18,19,20,21,22,23,24,25,26,27,28,29,30,31,32,33"/>
  <line x1="52" x2="174.33333333333334" y1="164.5" y2="164.5" class="net_2,3,4,5,6,7,8,9,10,11,12,13,14,15,16,17,18,19,20,21,22,23,24,25,26,27,28,29,30,31,32,33"/>
  <line x1="40" x2="52" y1="453" y2="453" class="net_2,3,4,5,6,7,8,9,10,11,12,13,14,15,16,17,18,19,20,21,22,23,24,25,26,27,28,29,30,31,32,33"/>
  <line x1="52" x2="52" y1="453" y2="224.5" class="net_2,3,4,5,6,7,8,9,10,11,12,13,14,15,16,17,18,19,20,21,22,23,24,25,26,27,28,29,30,31,32,33"/>
  <circle cx="52" cy="224.5" r="2" style="fill:#000" class="net_2,3,4,5,6,7,8,9,10,11,12,13,14,15,16,17,18,19,20,21,22,23,24,25,26,27,28,29,30,31,32,33"/>
  <line x1="52" x2="177.33333333333334" y1="224.5" y2="224.5" class="net_2,3,4,5,6,7,8,9,10,11,12,13,14,15,16,17,18,19,20,21,22,23,24,25,26,27,28,29,30,31,32,33"/>
  <line x1="40" x2="52" y1="453" y2="453" class="net_2,3,4,5,6,7,8,9,10,11,12,13,14,15,16,17,18,19,20,21,22,23,24,25,26,27,28,29,30,31,32,33"/>
  <line x1="52" x2="52" y1="453" y2="250.5" class="net_2,3,4,5,6,7,8,9,10,11,12,13,14,15,16,17,18,19,20,21,22,23,24,25,26,27,28,29,30,31,32,33"/>
  <line x1="52" x2="127" y1="250.5" y2="250.5" class="net_2,3,4,5,6,7,8,9,10,11,12,13,14,15,16,17,18,19,20,21,22,23,24,25,26,27,28,29,30,31,32,33"/>
  <line x1="127" x2="127" y1="250.5" y2="289.5" class="net_2,3,4,5,6,7,8,9,10,11,12,13,14,15,16,17,18,19,20,21,22,23,24,25,26,27,28,29,30,31,32,33"/>
  <circle cx="52" cy="250.5" r="2" style="fill:#000" class="net_2,3,4,5,6,7,8,9,10,11,12,13,14,15,16,17,18,19,20,21,22,23,24,25,26,27,28,29,30,31,32,33"/>
  <line x1="127" x2="176.33333333333334" y1="289.5" y2="289.5" class="net_2,3,4,5,6,7,8,9,10,11,12,13,14,15,16,17,18,19,20,21,22,23,24,25,26,27,28,29,30,31,32,33"/>
  <line x1="40" x2="127" y1="453" y2="453" class="net_2,3,4,5,6,7,8,9,10,11,12,13,14,15,16,17,18,19,20,21,22,23,24,25,26,27,28,29,30,31,32,33"/>
  <line x1="127" x2="127" y1="453" y2="365" class="net_2,3,4,5,6,7,8,9,10,11,12,13,14,15,16,17,18,19,20,21,22,23,24,25,26,27,28,29,30,31,32,33"/>
  <circle cx="127" cy="453" r="2" style="fill:#000" class="net_2,3,4,5,6,7,8,9,10,11,12,13,14,15,16,17,18,19,20,21,22,23,24,25,26,27,28,29,30,31,32,33"/>
  <line x1="127" x2="174" y1="365" y2="365" class="net_2,3,4,5,6,7,8,9,10,11,12,13,14,15,16,17,18,19,20,21,22,23,24,25,26,27,28,29,30,31,32,33"/>
  <line x1="40" x2="174" y1="453" y2="453" class="net_2,3,4,5,6,7,8,9,10,11,12,13,14,15,16,17,18,19,20,21,22,23,24,25,26,27,28,29,30,31,32,33"/>
  <line x1="40" x2="127" y1="453" y2="453" class="net_2,3,4,5,6,7,8,9,10,11,12,13,14,15,16,17,18,19,20,21,22,23,24,25,26,27,28,29,30,31,32,33"/>
  <line x1="127" x2="127" y1="453" y2="541" class="net_2,3,4,5,6,7,8,9,10,11,12,13,14,15,16,17,18,19,20,21,22,23,24,25,26,27,28,29,30,31,32,33"/>
  <line x1="127" x2="174" y1="541" y2="541" class="net_2,3,4,5,6,7,8,9,10,11,12,13,14,15,16,17,18,19,20,21,22,23,24,25,26,27,28,29,30,31,32,33"/>
  <line x1="40" x2="52" y1="453" y2="453" class="net_2,3,4,5,6,7,8,9,10,11,12,13,14,15,16,17,18,19,20,21,22,23,24,25,26,27,28,29,30,31,32,33"/>
  <line x1="52" x2="52" y1="453" y2="651" class="net_2,3,4,5,6,7,8,9,10,11,12,13,14,15,16,17,18,19,20,21,22,23,24,25,26,27,28,29,30,31,32,33"/>
  <circle cx="52" cy="651" r="2" style="fill:#000" class="net_2,3,4,5,6,7,8,9,10,11,12,13,14,15,16,17,18,19,20,21,22,23,24,25,26,27,28,29,30,31,32,33"/>
  <line x1="52" x2="81.66666666666667" y1="651" y2="651" class="net_2,3,4,5,6,7,8,9,10,11,12,13,14,15,16,17,18,19,20,21,22,23,24,25,26,27,28,29,30,31,32,33"/>
  <line x1="40" x2="52" y1="453" y2="453" class="net_2,3,4,5,6,7,8,9,10,11,12,13,14,15,16,17,18,19,20,21,22,23,24,25,26,27,28,29,30,31,32,33"/>
  <line x1="52" x2="52" y1="453" y2="711" class="net_2,3,4,5,6,7,8,9,10,11,12,13,14,15,16,17,18,19,20,21,22,23,24,25,26,27,28,29,30,31,32,33"/>
  <line x1="52" x2="81.66666666666667" y1="711" y2="711" class="net_2,3,4,5,6,7,8,9,10,11,12,13,14,15,16,17,18,19,20,21,22,23,24,25,26,27,28,29,30,31,32,33"/>
  <line x1="40" x2="52" y1="453" y2="453" class="net_2,3,4,5,6,7,8,9,10,11,12,13,14,15,16,17,18,19,20,21,22,23,24,25,26,27,28,29,30,31,32,33"/>
  <line x1="52" x2="52" y1="453" y2="44.5" class="net_2,3,4,5,6,7,8,9,10,11,12,13,14,15,16,17,18,19,20,21,22,23,24,25,26,27,28,29,30,31,32,33"/>
  <line x1="52" x2="179" y1="44.5" y2="44.5" class="net_2,3,4,5,6,7,8,9,10,11,12,13,14,15,16,17,18,19,20,21,22,23,24,25,26,27,28,29,30,31,32,33"/>
  <line x1="40" x2="52" y1="453" y2="453" class="net_2,3,4,5,6,7,8,9,10,11,12,13,14,15,16,17,18,19,20,21,22,23,24,25,26,27,28,29,30,31,32,33"/>
  <line x1="52" x2="52" y1="453" y2="104.5" class="net_2,3,4,5,6,7,8,9,10,11,12,13,14,15,16,17,18,19,20,21,22,23,24,25,26,27,28,29,30,31,32,33"/>
  <circle cx="52" cy="104.5" r="2" style="fill:#000" class="net_2,3,4,5,6,7,8,9,10,11,12,13,14,15,16,17,18,19,20,21,22,23,24,25,26,27,28,29,30,31,32,33"/>
  <line x1="52" x2="179" y1="104.5" y2="104.5" class="net_2,3,4,5,6,7,8,9,10,11,12,13,14,15,16,17,18,19,20,21,22,23,24,25,26,27,28,29,30,31,32,33"/>
  <line x1="40" x2="62" y1="294.5" y2="294.5" class="net_34,35,36,37,38,39,40,41,42,43,44,45,46,47,48,49,50,51,52,53,54,55,56,57,58,59,60,61,62,63,64,65"/>
  <line x1="62" x2="62" y1="294.5" y2="179.5" class="net_34,35,36,37,38,39,40,41,42,43,44,45,46,47,48,49,50,51,52,53,54,55,56,57,58,59,60,61,62,63,64,65"/>
  <circle cx="62" cy="294.5" r="2" style="fill:#000" class="net_34,35,36,37,38,39,40,41,42,43,44,45,46,47,48,49,50,51,52,53,54,55,56,57,58,59,60,61,62,63,64,65"/>
  <circle cx="62" cy="179.5" r="2" style="fill:#000" class="net_34,35,36,37,38,39,40,41,42,43,44,45,46,47,48,49,50,51,52,53,54,55,56,57,58,59,60,61,62,63,64,65"/>
  <line x1="62" x2="174.33333333333334" y1="179.5" y2="179.5" class="net_34,35,36,37,38,39,40,41,42,43,44,45,46,47,48,49,50,51,52,53,54,55,56,57,58,59,60,61,62,63,64,65"/>
  <line x1="40" x2="62" y1="294.5" y2="294.5" class="net_34,35,36,37,38,39,40,41,42,43,44,45,46,47,48,49,50,51,52,53,54,55,56,57,58,59,60,61,62,63,64,65"/>
  <line x1="62" x2="62" y1="294.5" y2="239.5" class="net_34,35,36,37,38,39,40,41,42,43,44,45,46,47,48,49,50,51,52,53,54,55,56,57,58,59,60,61,62,63,64,65"/>
  <circle cx="62" cy="239.5" r="2" style="fill:#000" class="net_34,35,36,37,38,39,40,41,42,43,44,45,46,47,48,49,50,51,52,53,54,55,56,57,58,59,60,61,62,63,64,65"/>
  <line x1="62" x2="177.33333333333334" y1="239.5" y2="239.5" class="net_34,35,36,37,38,39,40,41,42,43,44,45,46,47,48,49,50,51,52,53,54,55,56,57,58,59,60,61,62,63,64,65"/>
  <line x1="40" x2="62" y1="294.5" y2="294.5" class="net_34,35,36,37,38,39,40,41,42,43,44,45,46,47,48,49,50,51,52,53,54,55,56,57,58,59,60,61,62,63,64,65"/>
  <line x1="62" x2="62" y1="294.5" y2="304.5" class="net_34,35,36,37,38,39,40,41,42,43,44,45,46,47,48,49,50,51,52,53,54,55,56,57,58,59,60,61,62,63,64,65"/>
  <circle cx="62" cy="304.5" r="2" style="fill:#000" class="net_34,35,36,37,38,39,40,41,42,43,44,45,46,47,48,49,50,51,52,53,54,55,56,57,58,59,60,61,62,63,64,65"/>
  <line x1="62" x2="176.33333333333334" y1="304.5" y2="304.5" class="net_34,35,36,37,38,39,40,41,42,43,44,45,46,47,48,49,50,51,52,53,54,55,56,57,58,59,60,61,62,63,64,65"/>
  <line x1="40" x2="62" y1="294.5" y2="294.5" class="net_34,35,36,37,38,39,40,41,42,43,44,45,46,47,48,49,50,51,52,53,54,55,56,57,58,59,60,61,62,63,64,65"/>
  <line x1="62" x2="62" y1="294.5" y2="666" class="net_34,35,36,37,38,39,40,41,42,43,44,45,46,47,48,49,50,51,52,53,54,55,56,57,58,59,60,61,62,63,64,65"/>
  <circle cx="62" cy="666" r="2" style="fill:#000" class="net_34,35,36,37,38,39,40,41,42,43,44,45,46,47,48,49,50,51,52,53,54,55,56,57,58,59,60,61,62,63,64,65"/>
  <line x1="62" x2="81.66666666666667" y1="666" y2="666" class="net_34,35,36,37,38,39,40,41,42,43,44,45,46,47,48,49,50,51,52,53,54,55,56,57,58,59,60,61,62,63,64,65"/>
  <line x1="40" x2="62" y1="294.5" y2="294.5" class="net_34,35,36,37,38,39,40,41,42,43,44,45,46,47,48,49,50,51,52,53,54,55,56,57,58,59,60,61,62,63,64,65"/>
  <line x1="62" x2="62" y1="294.5" y2="726" class="net_34,35,36,37,38,39,40,41,42,43,44,45,46,47,48,49,50,51,52,53,54,55,56,57,58,59,60,61,62,63,64,65"/>
  <line x1="62" x2="81.66666666666667" y1="726" y2="726" class="net_34,35,36,37,38,39,40,41,42,43,44,45,46,47,48,49,50,51,52,53,54,55,56,57,58,59,60,61,62,63,64,65"/>
  <line x1="40" x2="62" y1="294.5" y2="294.5" class="net_34,35,36,37,38,39,40,41,42,43,44,45,46,47,48,49,50,51,52,53,54,55,56,57,58,59,60,61,62,63,64,65"/>
  <line x1="62" x2="62" y1="294.5" y2="59.5" class="net_34,35,36,37,38,39,40,41,42,43,44,45,46,47,48,49,50,51,52,53,54,55,56,57,58,59,60,61,62,63,64,65"/>
  <line x1="62" x2="179" y1="59.5" y2="59.5" class="net_34,35,36,37,38,39,40,41,42,43,44,45,46,47,48,49,50,51,52,53,54,55,56,57,58,59,60,61,62,63,64,65"/>
  <line x1="40" x2="62" y1="294.5" y2="294.5" class="net_34,35,36,37,38,39,40,41,42,43,44,45,46,47,48,49,50,51,52,53,54,55,56,57,58,59,60,61,62,63,64,65"/>
  <line x1="62" x2="62" y1="294.5" y2="119.5" class="net_34,35,36,37,38,39,40,41,42,43,44,45,46,47,48,49,50,51,52,53,54,55,56,57,58,59,60,61,62,63,64,65"/>
  <circle cx="62" cy="119.5" r="2" style="fill:#000" class="net_34,35,36,37,38,39,40,41,42,43,44,45,46,47,48,49,50,51,52,53,54,55,56,57,58,59,60,61,62,63,64,65"/>
  <line x1="62" x2="179" y1="119.5" y2="119.5" class="net_34,35,36,37,38,39,40,41,42,43,44,45,46,47,48,49,50,51,52,53,54,55,56,57,58,59,60,61,62,63,64,65"/>
  <line x1="40" x2="83.5" y1="294.5" y2="294.5" class="net_34,35,36,37,38,39,40,41,42,43,44,45,46,47,48,49,50,51,52,53,54,55,56,57,58,59,60,61,62,63,64,65"/>
  <line x1="83.5" x2="83.5" y1="294.5" y2="282.5" class="net_34,35,36,37,38,39,40,41,42,43,44,45,46,47,48,49,50,51,52,53,54,55,56,57,58,59,60,61,62,63,64,65"/>
  <line x1="107" x2="179" y1="976" y2="976" class="net_375,376"/>
  <line x1="107" x2="179" y1="1041" y2="1041" class="net_377,378"/>
  <line x1="107" x2="157" y1="1106" y2="1106" class="net_379,380,381"/>
  <line x1="157" x2="157" y1="1106" y2="1186" class="net_379,380,381"/>
  <line x1="157" x2="179" y1="1186" y2="1186" class="net_379,380,381"/>
  <line x1="88" x2="117" y1="272" y2="272" class="net_34,35,36,37,38"/>
  <line x1="117" x2="117" y1="272" y2="385" class="net_34,35,36,37,38"/>
  <circle cx="117" cy="385" r="2" style="fill:#000" class="net_34,35,36,37,38"/>
  <line x1="117" x2="174" y1="385" y2="385" class="net_34,35,36,37,38"/>
  <line x1="88" x2="117" y1="272" y2="272" class="net_34,35,36,37,38"/>
  <line x1="117" x2="117" y1="272" y2="473" class="net_34,35,36,37,38"/>
  <circle cx="117" cy="473" r="2" style="fill:#000" class="net_34,35,36,37,38"/>
  <line x1="117" x2="174" y1="473" y2="473" class="net_34,35,36,37,38"/>
  <line x1="88" x2="117" y1="272" y2="272" class="net_34,35,36,37,38"/>
  <line x1="117" x2="117" y1="272" y2="561" class="net_34,35,36,37,38"/>
  <line x1="117" x2="174" y1="561" y2="561" class="net_34,35,36,37,38"/>
  <line x1="107" x2="179" y1="1246" y2="1246" class="net_382,383,384"/>
  <line x1="107" x2="179" y1="1311" y2="1311" class="net_385,386,387"/>
  <line x1="107" x2="179" y1="1376" y2="1376" class="net_388,389,390"/>
  <line x1="107" x2="127" y1="786" y2="786" class="net_391"/>
  <line x1="127" x2="127" y1="786" y2="618.5" class="net_391"/>
  <circle cx="127" cy="786" r="2" style="fill:#000" class="net_391"/>
  <line x1="127" x2="177.66666666666666" y1="618.5" y2="618.5" class="net_391"/>
  <line x1="107" x2="177.66666666666666" y1="786" y2="786" class="net_391"/>
  <line x1="107" x2="127" y1="786" y2="786" class="net_391"/>
  <line x1="127" x2="127" y1="786" y2="1521" class="net_391"/>
  <line x1="127" x2="477" y1="1521" y2="1521" class="net_391"/>
  <line x1="103.66666666666667" x2="187.66666666666666" y1="658.5" y2="658.5" class="net_302"/>
  <line x1="187.66666666666666" x2="187.66666666666666" y1="658.5" y2="643.5" class="net_302"/>
  <line x1="107" x2="179" y1="1441" y2="1441" class="net_393,394,395,396"/>
  <line x1="103.66666666666667" x2="117" y1="718.5" y2="718.5" class="net_305"/>
  <line x1="117" x2="117" y1="718.5" y2="826" class="net_305"/>
  <line x1="117" x2="187.66666666666666" y1="826" y2="826" class="net_305"/>
  <line x1="187.66666666666666" x2="187.66666666666666" y1="826" y2="811" class="net_305"/>
  <line x1="107" x2="179" y1="1506" y2="1506" class="net_399,400,401,402"/>
  <line x1="322" x2="332" y1="32" y2="32" class="net_403,404,405,406,407,408,409,410,411,412,413,414,415,416,417,418,419,420,421,422,423,424,425,426,427,428,429,430,431,432,433,434"/>
  <line x1="332" x2="332" y1="32" y2="458.5" class="net_403,404,405,406,407,408,409,410,411,412,413,414,415,416,417,418,419,420,421,422,423,424,425,426,427,428,429,430,431,432,433,434"/>
  <line x1="332" x2="357" y1="458.5" y2="458.5" class="net_403,404,405,406,407,408,409,410,411,412,413,414,415,416,417,418,419,420,421,422,423,424,425,426,427,428,429,430,431,432,433,434"/>
  <line x1="300.6" x2="357" y1="478.5" y2="478.5" class="net_308,309,310,311,312,313,314,315,316,317,318,319,320,321,322,323,324,325,326,327,328,329,330,331,332,333,334,335,336,337,338,339,340,341,342,343,344,345,346,347,348,349,350,351,352,353,354,355,356,357,358,359,360,361,362,363,364,365,366,367,368,369,370,371,104,105,106,107,108,109,110,111,112,113,114,115,116,117,118,119,120,121,122,123,124,125,126,127,128,129,130,131,132,133,134,135,137,138,139,140,141,142,143,144,145,146,147,148,149,150,151,152,153,154,155,156,157,158,159,160,161,162,163,164,165,166,167,168,170,171,172,173,174,175,176,177,178,179,180,181,182,183,184,185,186,187,188,189,190,191,192,193,194,195,196,197,198,199,200,201,203,204,205,206,207,208,209,210,211,212,213,214,215,216,217,218,219,220,221,222,223,224,225,226,227,228,229,230,231,232,233,234,236,237,238,239,240,241,242,243,244,245,246,247,248,249,250,251,252,253,254,255,256,257,258,259,260,261,262,263,264,265,266,267,269,270,271,272,273,274,275,276,277,278,279,280,281,282,283,284,285,286,287,288,289,290,291,292,293,294,295,296,297,298,299,300,303,435,436,437,438,439,440,441,442,443,444,445,446,447,448,449,450,451,452,453,454,455,456,457,458,459,460,461,462,463,464,465,306,435,436,437,438,439,440,441,442,443,444,445,446,447,448,449,450,451,452,453,454,455,456,457,458,459,460,461,462,463,464,465"/>
  <line x1="300.8888888888889" x2="367" y1="1283.5" y2="1283.5" class="net_372,103,136,169,202,235,268,301,304,307"/>
  <line x1="367" x2="367" y1="1283.5" y2="483.5" class="net_372,103,136,169,202,235,268,301,304,307"/>
  <line x1="377" x2="387" y1="468.5" y2="468.5" class="net_70,71,72,73,74,75,76,77,78,79,80,81,82,83,84,85,86,87,88,89,90,91,92,93,94,95,96,97,98,99,100,101"/>
  <line x1="387" x2="387" y1="468.5" y2="1562" class="net_70,71,72,73,74,75,76,77,78,79,80,81,82,83,84,85,86,87,88,89,90,91,92,93,94,95,96,97,98,99,100,101"/>
  <circle cx="387" cy="468.5" r="2" style="fill:#000" class="net_70,71,72,73,74,75,76,77,78,79,80,81,82,83,84,85,86,87,88,89,90,91,92,93,94,95,96,97,98,99,100,101"/>
  <line x1="387" x2="412" y1="1562" y2="1562" class="net_70,71,72,73,74,75,76,77,78,79,80,81,82,83,84,85,86,87,88,89,90,91,92,93,94,95,96,97,98,99,100,101"/>
  <line x1="377" x2="532" y1="468.5" y2="468.5" class="net_70,71,72,73,74,75,76,77,78,79,80,81,82,83,84,85,86,87,88,89,90,91,92,93,94,95,96,97,98,99,100,101"/>
  <line x1="437" x2="487" y1="1562" y2="1562" class="net_373"/>
  <line x1="487" x2="487" y1="1562" y2="1546" class="net_373"/>
  <line x1="497" x2="532" y1="1531" y2="1531" class="net_102"/>
  <line x1="201" x2="295.1" y1="52" y2="52" class="net_308,309,310,311,312,313,314,315,316,317,318,319,320,321,322,323,324,325,326,327,328,329,330,331,332,333,334,335,336,337,338,339"/>
  <line x1="295.1" x2="295.1" y1="52" y2="468" class="net_308,309,310,311,312,313,314,315,316,317,318,319,320,321,322,323,324,325,326,327,328,329,330,331,332,333,334,335,336,337,338,339"/>
  <line x1="201" x2="282" y1="112" y2="112" class="net_340,341,342,343,344,345,346,347,348,349,350,351,352,353,354,355,356,357,358,359,360,361,362,363,364,365,366,367,368,369,370,371"/>
  <line x1="282" x2="282" y1="112" y2="488.5" class="net_340,341,342,343,344,345,346,347,348,349,350,351,352,353,354,355,356,357,358,359,360,361,362,363,364,365,366,367,368,369,370,371"/>
  <line x1="282" x2="294.6" y1="488.5" y2="488.5" class="net_340,341,342,343,344,345,346,347,348,349,350,351,352,353,354,355,356,357,358,359,360,361,362,363,364,365,366,367,368,369,370,371"/>
  <line x1="204.33333333333334" x2="272" y1="172" y2="172" class="net_104,105,106,107,108,109,110,111,112,113,114,115,116,117,118,119,120,121,122,123,124,125,126,127,128,129,130,131,132,133,134,135"/>
  <line x1="272" x2="272" y1="172" y2="508.5" class="net_104,105,106,107,108,109,110,111,112,113,114,115,116,117,118,119,120,121,122,123,124,125,126,127,128,129,130,131,132,133,134,135"/>
  <line x1="272" x2="294.6" y1="508.5" y2="508.5" class="net_104,105,106,107,108,109,110,111,112,113,114,115,116,117,118,119,120,121,122,123,124,125,126,127,128,129,130,131,132,133,134,135"/>
  <line x1="204.33333333333334" x2="262" y1="232" y2="232" class="net_137,138,139,140,141,142,143,144,145,146,147,148,149,150,151,152,153,154,155,156,157,158,159,160,161,162,163,164,165,166,167,168"/>
  <line x1="262" x2="262" y1="232" y2="528.5" class="net_137,138,139,140,141,142,143,144,145,146,147,148,149,150,151,152,153,154,155,156,157,158,159,160,161,162,163,164,165,166,167,168"/>
  <line x1="262" x2="294.6" y1="528.5" y2="528.5" class="net_137,138,139,140,141,142,143,144,145,146,147,148,149,150,151,152,153,154,155,156,157,158,159,160,161,162,163,164,165,166,167,168"/>
  <line x1="206.33333333333334" x2="252" y1="297" y2="297" class="net_170,171,172,173,174,175,176,177,178,179,180,181,182,183,184,185,186,187,188,189,190,191,192,193,194,195,196,197,198,199,200,201"/>
  <line x1="252" x2="252" y1="297" y2="548.5" class="net_170,171,172,173,174,175,176,177,178,179,180,181,182,183,184,185,186,187,188,189,190,191,192,193,194,195,196,197,198,199,200,201"/>
  <line x1="252" x2="294.6" y1="548.5" y2="548.5" class="net_170,171,172,173,174,175,176,177,178,179,180,181,182,183,184,185,186,187,188,189,190,191,192,193,194,195,196,197,198,199,200,201"/>
  <line x1="205" x2="242" y1="365" y2="365" class="net_203,204,205,206,207,208,209,210,211,212,213,214,215,216,217,218,219,220,221,222,223,224,225,226,227,228,229,230,231,232,233,234"/>
  <line x1="242" x2="242" y1="365" y2="568.5" class="net_203,204,205,206,207,208,209,210,211,212,213,214,215,216,217,218,219,220,221,222,223,224,225,226,227,228,229,230,231,232,233,234"/>
  <line x1="242" x2="294.6" y1="568.5" y2="568.5" class="net_203,204,205,206,207,208,209,210,211,212,213,214,215,216,217,218,219,220,221,222,223,224,225,226,227,228,229,230,231,232,233,234"/>
  <line x1="205" x2="232" y1="453" y2="453" class="net_236,237,238,239,240,241,242,243,244,245,246,247,248,249,250,251,252,253,254,255,256,257,258,259,260,261,262,263,264,265,266,267"/>
  <line x1="232" x2="232" y1="453" y2="588.5" class="net_236,237,238,239,240,241,242,243,244,245,246,247,248,249,250,251,252,253,254,255,256,257,258,259,260,261,262,263,264,265,266,267"/>
  <line x1="232" x2="294.6" y1="588.5" y2="588.5" class="net_236,237,238,239,240,241,242,243,244,245,246,247,248,249,250,251,252,253,254,255,256,257,258,259,260,261,262,263,264,265,266,267"/>
  <line x1="205" x2="222" y1="541" y2="541" class="net_269,270,271,272,273,274,275,276,277,278,279,280,281,282,283,284,285,286,287,288,289,290,291,292,293,294,295,296,297,298,299,300"/>
  <line x1="222" x2="222" y1="541" y2="608.5" class="net_269,270,271,272,273,274,275,276,277,278,279,280,281,282,283,284,285,286,287,288,289,290,291,292,293,294,295,296,297,298,299,300"/>
  <line x1="222" x2="294.6" y1="608.5" y2="608.5" class="net_269,270,271,272,273,274,275,276,277,278,279,280,281,282,283,284,285,286,287,288,289,290,291,292,293,294,295,296,297,298,299,300"/>
  <line x1="197.66666666666666" x2="294.6" y1="628.5" y2="628.5" class="net_303"/>
  <line x1="204" x2="222" y1="731" y2="731" class="net_435,436,437,438,439,440,441,442,443,444,445,446,447,448,449,450,451,452,453,454,455,456,457,458,459,460,461,462,463,464,465"/>
  <line x1="222" x2="222" y1="731" y2="648.5" class="net_435,436,437,438,439,440,441,442,443,444,445,446,447,448,449,450,451,452,453,454,455,456,457,458,459,460,461,462,463,464,465"/>
  <circle cx="222" cy="731" r="2" style="fill:#000" class="net_435,436,437,438,439,440,441,442,443,444,445,446,447,448,449,450,451,452,453,454,455,456,457,458,459,460,461,462,463,464,465"/>
  <line x1="222" x2="294.6" y1="648.5" y2="648.5" class="net_435,436,437,438,439,440,441,442,443,444,445,446,447,448,449,450,451,452,453,454,455,456,457,458,459,460,461,462,463,464,465"/>
  <line x1="204" x2="295.1" y1="731" y2="731" class="net_435,436,437,438,439,440,441,442,443,444,445,446,447,448,449,450,451,452,453,454,455,456,457,458,459,460,461,462,463,464,465"/>
  <line x1="295.1" x2="295.1" y1="731" y2="689" class="net_435,436,437,438,439,440,441,442,443,444,445,446,447,448,449,450,451,452,453,454,455,456,457,458,459,460,461,462,463,464,465"/>
  <line x1="197.66666666666666" x2="295.1" y1="796" y2="796" class="net_306"/>
  <line x1="295.1" x2="295.1" y1="796" y2="669" class="net_306"/>
  <line x1="199.5" x2="295.3888888888889" y1="846" y2="846" class="net_372"/>
  <line x1="295.3888888888889" x2="295.3888888888889" y1="846" y2="1273" class="net_372"/>
  <line x1="201" x2="282" y1="903.5" y2="903.5" class="net_103"/>
  <line x1="282" x2="282" y1="903.5" y2="1293.5" class="net_103"/>
  <line x1="282" x2="294.8888888888889" y1="1293.5" y2="1293.5" class="net_103"/>
  <line x1="201" x2="272" y1="968.5" y2="968.5" class="net_136"/>
  <line x1="272" x2="272" y1="968.5" y2="1313.5" class="net_136"/>
  <line x1="272" x2="294.8888888888889" y1="1313.5" y2="1313.5" class="net_136"/>
  <line x1="201" x2="262" y1="1033.5" y2="1033.5" class="net_169"/>
  <line x1="262" x2="262" y1="1033.5" y2="1333.5" class="net_169"/>
  <line x1="262" x2="294.8888888888889" y1="1333.5" y2="1333.5" class="net_169"/>
  <line x1="201" x2="252" y1="1178.5" y2="1178.5" class="net_202"/>
  <line x1="252" x2="252" y1="1178.5" y2="1353.5" class="net_202"/>
  <line x1="252" x2="294.8888888888889" y1="1353.5" y2="1353.5" class="net_202"/>
  <line x1="201" x2="242" y1="1238.5" y2="1238.5" class="net_235"/>
  <line x1="242" x2="242" y1="1238.5" y2="1373.5" class="net_235"/>
  <line x1="242" x2="294.8888888888889" y1="1373.5" y2="1373.5" class="net_235"/>
  <line x1="201" x2="232" y1="1303.5" y2="1303.5" class="net_268"/>
  <line x1="232" x2="232" y1="1303.5" y2="1393.5" class="net_268"/>
  <line x1="232" x2="294.8888888888889" y1="1393.5" y2="1393.5" class="net_268"/>
  <line x1="201" x2="222" y1="1368.5" y2="1368.5" class="net_301"/>
  <line x1="222" x2="222" y1="1368.5" y2="1413.5" class="net_301"/>
  <line x1="222" x2="294.8888888888889" y1="1413.5" y2="1413.5" class="net_301"/>
  <line x1="201" x2="294.8888888888889" y1="1433.5" y2="1433.5" class="net_304"/>
  <line x1="201" x2="295.3888888888889" y1="1498.5" y2="1498.5" class="net_307"/>
  <line x1="295.3888888888889" x2="295.3888888888889" y1="1498.5" y2="1454" class="net_307"/>
</svg>
