<svg xmlns="http://www.w3.org/2000/svg" xmlns:xlink="http://www.w3.org/1999/xlink" xmlns:s="https://github.com/nturley/netlistsvg" width="568" height="1048.5">
  <style>svg {
    stroke:#000;
    fill:none;
  }
  text {
    fill:#000;
    stroke:none;
    font-size:10px;
    font-weight: bold;
    font-family: "Courier New", monospace;
  }
  .nodelabel {
    text-anchor: middle;
  }
  .inputPortLabel {
    text-anchor: end;
  }
  .splitjoinBody {
    fill:#000;
  }</style>
  <g s:type="dff" transform="translate(461,22.5)" s:width="30" s:height="40" id="cell_$procdff$3093">
    <s:alias val="$dff"/>
    <s:alias val="$_DFF_"/>
    <s:alias val="$_DFF_P_"/>
    <rect width="30" height="40" x="0" y="0" class="cell_$procdff$3093"/>
    <path d="M0,35 L5,30 L0,25" class="cell_$procdff$3093"/>
    <g s:x="30" s:y="10" s:pid="Q"/>
    <g s:x="0" s:y="30" s:pid="CLK"/>
    <g s:x="0" s:y="30" s:pid="C"/>
    <g s:x="0" s:y="10" s:pid="D"/>
  </g>
  <g s:type="mux" transform="translate(157.33333333333331,887)" s:width="20" s:height="40" id="cell_$procmux$3085">
    <s:alias val="$pmux"/>
    <s:alias val="$mux"/>
    <s:alias val="$_MUX_"/>
    <path d="M0,0 L20,10 L20,30 L0,40 Z" class="cell_$procmux$3085"/>
    <g s:x="0" s:y="10" s:pid="A"/>
    <g s:x="0" s:y="30" s:pid="B"/>
    <g s:x="10" s:y="35" s:pid="S"/>
    <g s:x="20" s:y="20" s:pid="Y"/>
  </g>
  <g s:type="mux" transform="translate(224,214.5)" s:width="20" s:height="40" id="cell_$procmux$3088">
    <s:alias val="$pmux"/>
    <s:alias val="$mux"/>
    <s:alias val="$_MUX_"/>
    <path d="M0,0 L20,10 L20,30 L0,40 Z" class="cell_$procmux$3088"/>
    <g s:x="0" s:y="10" s:pid="A"/>
    <g s:x="0" s:y="30" s:pid="B"/>
    <g s:x="10" s:y="35" s:pid="S"/>
    <g s:x="20" s:y="20" s:pid="Y"/>
  </g>
  <g s:type="mux" transform="translate(224,154.5)" s:width="20" s:height="40" id="cell_$procmux$3091">
    <s:alias val="$pmux"/>
    <s:alias val="$mux"/>
    <s:alias val="$_MUX_"/>
    <path d="M0,0 L20,10 L20,30 L0,40 Z" class="cell_$procmux$3091"/>
    <g s:x="0" s:y="10" s:pid="A"/>
    <g s:x="0" s:y="30" s:pid="B"/>
    <g s:x="10" s:y="35" s:pid="S"/>
    <g s:x="20" s:y="20" s:pid="Y"/>
  </g>
  <g s:type="generic" transform="translate(352,22)" s:width="30" s:height="40" id="cell_mem">
    <text x="15" y="-4" class="nodelabel cell_mem" s:attribute="ref">RAM</text>
    <rect width="30" height="180" s:generic="body" class="cell_mem"/>
    <g transform="translate(0,10)" s:x="0" s:y="10" s:pid="in0" id="port_mem~RD_ADDR">
      <text x="-3" y="-4" class="inputPortLabel cell_mem">RD_ADDR</text>
    </g>
    <g transform="translate(0,30)" s:x="0" s:y="10" s:pid="in0" id="port_mem~RD_ARST">
      <text x="-3" y="-4" class="inputPortLabel cell_mem">RD_ARST</text>
    </g>
    <g transform="translate(0,50)" s:x="0" s:y="10" s:pid="in0" id="port_mem~RD_CLK">
      <text x="-3" y="-4" class="inputPortLabel cell_mem">RD_CLK</text>
    </g>
    <g transform="translate(0,70)" s:x="0" s:y="10" s:pid="in0" id="port_mem~RD_EN">
      <text x="-3" y="-4" class="inputPortLabel cell_mem">RD_EN</text>
    </g>
    <g transform="translate(0,90)" s:x="0" s:y="10" s:pid="in0" id="port_mem~RD_SRST">
      <text x="-3" y="-4" class="inputPortLabel cell_mem">RD_SRST</text>
    </g>
    <g transform="translate(0,110)" s:x="0" s:y="10" s:pid="in0" id="port_mem~WR_ADDR">
      <text x="-3" y="-4" class="inputPortLabel cell_mem">WR_ADDR</text>
    </g>
    <g transform="translate(0,130)" s:x="0" s:y="10" s:pid="in0" id="port_mem~WR_CLK">
      <text x="-3" y="-4" class="inputPortLabel cell_mem">WR_CLK</text>
    </g>
    <g transform="translate(0,150)" s:x="0" s:y="10" s:pid="in0" id="port_mem~WR_DATA">
      <text x="-3" y="-4" class="inputPortLabel cell_mem">WR_DATA</text>
    </g>
    <g transform="translate(0,170)" s:x="0" s:y="10" s:pid="in0" id="port_mem~WR_EN">
      <text x="-3" y="-4" class="inputPortLabel cell_mem">WR_EN</text>
    </g>
    <g transform="translate(30,10)" s:x="30" s:y="10" s:pid="out0" id="port_mem~RD_DATA">
      <text x="5" y="-4" style="fill:#000; stroke:none" class="cell_mem">RD_DATA</text>
    </g>
  </g>
  <g s:type="inputExt" transform="translate(219,284.5)" s:width="30" s:height="20" id="cell_clk">
    <text x="15" y="-4" class="nodelabel cell_clk" s:attribute="ref">clk</text>
    <s:alias val="$_inputExt_"/>
    <path d="M0,0 L0,20 L15,20 L30,10 L15,0 Z" class="cell_clk"/>
    <g s:x="28" s:y="10" s:pid="Y"/>
  </g>
  <g s:type="inputExt" transform="translate(84,972)" s:width="30" s:height="20" id="cell_we">
    <text x="15" y="-4" class="nodelabel cell_we" s:attribute="ref">we</text>
    <s:alias val="$_inputExt_"/>
    <path d="M0,0 L0,20 L15,20 L30,10 L15,0 Z" class="cell_we"/>
    <g s:x="28" s:y="10" s:pid="Y"/>
  </g>
  <g s:type="inputExt" transform="translate(154,113.5)" s:width="30" s:height="20" id="cell_addr">
    <text x="15" y="-4" class="nodelabel cell_addr" s:attribute="ref">addr</text>
    <s:alias val="$_inputExt_"/>
    <path d="M0,0 L0,20 L15,20 L30,10 L15,0 Z" class="cell_addr"/>
    <g s:x="28" s:y="10" s:pid="Y"/>
  </g>
  <g s:type="inputExt" transform="translate(154,234.5)" s:width="30" s:height="20" id="cell_wdata">
    <text x="15" y="-4" class="nodelabel cell_wdata" s:attribute="ref">wdata</text>
    <s:alias val="$_inputExt_"/>
    <path d="M0,0 L0,20 L15,20 L30,10 L15,0 Z" class="cell_wdata"/>
    <g s:x="28" s:y="10" s:pid="Y"/>
  </g>
  <g s:type="outputExt" transform="translate(526,22.5)" s:width="30" s:height="20" id="cell_rdata">
    <text x="15" y="-4" class="nodelabel cell_rdata" s:attribute="ref">rdata</text>
    <s:alias val="$_outputExt_"/>
    <path d="M30,0 L30,20 L15,20 L0,10 L15,0 Z" class="cell_rdata"/>
    <g s:x="0" s:y="10" s:pid="A"/>
  </g>
  <g s:type="constant" transform="translate(84,133.5)" s:width="30" s:height="20" id="cell_0">
    <text x="15" y="-4" class="nodelabel cell_0" s:attribute="ref">0</text>
    <s:alias val="$_constant_"/>
    <rect width="30" height="20" class="cell_0"/>
    <g s:x="30" s:y="10" s:pid="Y"/>
  </g>
  <g s:type="constant" transform="translate(84,907)" s:width="30" s:height="20" id="cell_1">
    <text x="15" y="-4" class="nodelabel cell_1" s:attribute="ref">1</text>
    <s:alias val="$_constant_"/>
    <rect width="30" height="20" class="cell_1"/>
    <g s:x="30" s:y="10" s:pid="Y"/>
  </g>
  <g s:type="join" transform="translate(66,55)" s:width="4" s:height="40" id="cell_$join$,x,x,x,x,x,x,x,x,x,x,x,x,x,x,x,x,x,x,x,x,x,x,x,x,x,x,x,x,x,x,x,x,">
    <rect width="5" height="40" class="splitjoinBody" s:generic="body"/>
    <s:alias val="$_join_"/>
    <g s:x="5" s:y="20" s:pid="out"/>
    <g transform="translate(0,10)" s:x="0" s:y="10" s:pid="in0">
      <text x="-3" y="-4" class="inputPortLabel">0:9</text>
    </g>
  </g>
  <g s:type="join" transform="translate(220.04,356.5)" s:width="4" s:height="40" id="cell_$join$,110,110,110,110,110,110,110,110,110,110,110,110,110,110,110,110,110,110,110,110,110,110,110,110,110,110,110,110,110,110,110,110,">
    <rect width="5" height="640" class="splitjoinBody" s:generic="body"/>
    <s:alias val="$_join_"/>
    <g s:x="5" s:y="20" s:pid="out"/>
    <g transform="translate(0,10)" s:x="0" s:y="10" s:pid="in0">
      <text x="-3" y="-4" class="inputPortLabel">0</text>
    </g>
    <g transform="translate(0,30)" s:x="0" s:y="10" s:pid="in0">
      <text x="-3" y="-4" class="inputPortLabel">1</text>
    </g>
    <g transform="translate(0,50)" s:x="0" s:y="10" s:pid="in0">
      <text x="-3" y="-4" class="inputPortLabel">2</text>
    </g>
    <g transform="translate(0,70)" s:x="0" s:y="10" s:pid="in0">
      <text x="-3" y="-4" class="inputPortLabel">3</text>
    </g>
    <g transform="translate(0,90)" s:x="0" s:y="10" s:pid="in0">
      <text x="-3" y="-4" class="inputPortLabel">4</text>
    </g>
    <g transform="translate(0,110)" s:x="0" s:y="10" s:pid="in0">
      <text x="-3" y="-4" class="inputPortLabel">5</text>
    </g>
    <g transform="translate(0,130)" s:x="0" s:y="10" s:pid="in0">
      <text x="-3" y="-4" class="inputPortLabel">6</text>
    </g>
    <g transform="translate(0,150)" s:x="0" s:y="10" s:pid="in0">
      <text x="-3" y="-4" class="inputPortLabel">7</text>
    </g>
    <g transform="translate(0,170)" s:x="0" s:y="10" s:pid="in0">
      <text x="-3" y="-4" class="inputPortLabel">8</text>
    </g>
    <g transform="translate(0,190)" s:x="0" s:y="10" s:pid="in0">
      <text x="-3" y="-4" class="inputPortLabel">9</text>
    </g>
    <g transform="translate(0,210)" s:x="0" s:y="10" s:pid="in0">
      <text x="-3" y="-4" class="inputPortLabel">10</text>
    </g>
    <g transform="translate(0,230)" s:x="0" s:y="10" s:pid="in0">
      <text x="-3" y="-4" class="inputPortLabel">11</text>
    </g>
    <g transform="translate(0,250)" s:x="0" s:y="10" s:pid="in0">
      <text x="-3" y="-4" class="inputPortLabel">12</text>
    </g>
    <g transform="translate(0,270)" s:x="0" s:y="10" s:pid="in0">
      <text x="-3" y="-4" class="inputPortLabel">13</text>
    </g>
    <g transform="translate(0,290)" s:x="0" s:y="10" s:pid="in0">
      <text x="-3" y="-4" class="inputPortLabel">14</text>
    </g>
    <g transform="translate(0,310)" s:x="0" s:y="10" s:pid="in0">
      <text x="-3" y="-4" class="inputPortLabel">15</text>
    </g>
    <g transform="translate(0,330)" s:x="0" s:y="10" s:pid="in0">
      <text x="-3" y="-4" class="inputPortLabel">16</text>
    </g>
    <g transform="translate(0,350)" s:x="0" s:y="10" s:pid="in0">
      <text x="-3" y="-4" class="inputPortLabel">17</text>
    </g>
    <g transform="translate(0,370)" s:x="0" s:y="10" s:pid="in0">
      <text x="-3" y="-4" class="inputPortLabel">18</text>
    </g>
    <g transform="translate(0,390)" s:x="0" s:y="10" s:pid="in0">
      <text x="-3" y="-4" class="inputPortLabel">19</text>
    </g>
    <g transform="translate(0,410)" s:x="0" s:y="10" s:pid="in0">
      <text x="-3" y="-4" class="inputPortLabel">20</text>
    </g>
    <g transform="translate(0,430)" s:x="0" s:y="10" s:pid="in0">
      <text x="-3" y="-4" class="inputPortLabel">21</text>
    </g>
    <g transform="translate(0,450)" s:x="0" s:y="10" s:pid="in0">
      <text x="-3" y="-4" class="inputPortLabel">22</text>
    </g>
    <g transform="translate(0,470)" s:x="0" s:y="10" s:pid="in0">
      <text x="-3" y="-4" class="inputPortLabel">23</text>
    </g>
    <g transform="translate(0,490)" s:x="0" s:y="10" s:pid="in0">
      <text x="-3" y="-4" class="inputPortLabel">24</text>
    </g>
    <g transform="translate(0,510)" s:x="0" s:y="10" s:pid="in0">
      <text x="-3" y="-4" class="inputPortLabel">25</text>
    </g>
    <g transform="translate(0,530)" s:x="0" s:y="10" s:pid="in0">
      <text x="-3" y="-4" class="inputPortLabel">26</text>
    </g>
    <g transform="translate(0,550)" s:x="0" s:y="10" s:pid="in0">
      <text x="-3" y="-4" class="inputPortLabel">27</text>
    </g>
    <g transform="translate(0,570)" s:x="0" s:y="10" s:pid="in0">
      <text x="-3" y="-4" class="inputPortLabel">28</text>
    </g>
    <g transform="translate(0,590)" s:x="0" s:y="10" s:pid="in0">
      <text x="-3" y="-4" class="inputPortLabel">29</text>
    </g>
    <g transform="translate(0,610)" s:x="0" s:y="10" s:pid="in0">
      <text x="-3" y="-4" class="inputPortLabel">30</text>
    </g>
    <g transform="translate(0,630)" s:x="0" s:y="10" s:pid="in0">
      <text x="-3" y="-4" class="inputPortLabel">31</text>
    </g>
  </g>
  <g s:type="split" transform="translate(57,12)" s:width="5" s:height="40" id="cell_$split$,x,x,x,x,x,x,x,x,x,x,">
    <rect width="5" height="20" class="splitjoinBody" s:generic="body"/>
    <s:alias val="$_split_"/>
    <g s:x="0" s:y="20" s:pid="in"/>
    <g transform="translate(4,10)" s:x="4" s:y="10" s:pid="out0">
      <text x="5" y="-4">0</text>
    </g>
  </g>
  <line x1="247" x2="436" y1="294.5" y2="294.5" class="net_2"/>
  <line x1="436" x2="436" y1="294.5" y2="52.5" class="net_2"/>
  <line x1="436" x2="461" y1="52.5" y2="52.5" class="net_2"/>
  <line x1="247" x2="279" y1="294.5" y2="294.5" class="net_2"/>
  <line x1="279" x2="279" y1="294.5" y2="152.5" class="net_2"/>
  <circle cx="279" cy="294.5" r="2" style="fill:#000" class="net_2"/>
  <line x1="279" x2="352" y1="152.5" y2="152.5" class="net_2"/>
  <line x1="383" x2="461" y1="32.5" y2="32.5" class="net_78,79,80,81,82,83,84,85,86,87,88,89,90,91,92,93,94,95,96,97,98,99,100,101,102,103,104,105,106,107,108,109"/>
  <line x1="114" x2="124" y1="143.5" y2="143.5" class="net_153"/>
  <line x1="124" x2="124" y1="143.5" y2="897" class="net_153"/>
  <circle cx="124" cy="143.5" r="2" style="fill:#000" class="net_153"/>
  <line x1="124" x2="157.33333333333331" y1="897" y2="897" class="net_153"/>
  <line x1="114" x2="124" y1="143.5" y2="143.5" class="net_153"/>
  <line x1="124" x2="124" y1="143.5" y2="52.5" class="net_153"/>
  <line x1="124" x2="352" y1="52.5" y2="52.5" class="net_153"/>
  <line x1="114" x2="259" y1="143.5" y2="143.5" class="net_153"/>
  <line x1="259" x2="259" y1="143.5" y2="112.5" class="net_153"/>
  <line x1="259" x2="352" y1="112.5" y2="112.5" class="net_153"/>
  <line x1="114" x2="157.33333333333331" y1="917" y2="917" class="net_154"/>
  <line x1="114" x2="134" y1="917" y2="917" class="net_154"/>
  <line x1="134" x2="134" y1="917" y2="92.5" class="net_154"/>
  <circle cx="134" cy="917" r="2" style="fill:#000" class="net_154"/>
  <line x1="134" x2="352" y1="92.5" y2="92.5" class="net_154"/>
  <line x1="112" x2="144" y1="982" y2="982" class="net_3"/>
  <line x1="144" x2="144" y1="982" y2="937" class="net_3"/>
  <line x1="144" x2="167.33333333333331" y1="937" y2="937" class="net_3"/>
  <circle cx="144" cy="937" r="2" style="fill:#000" class="net_3"/>
  <line x1="167.33333333333331" x2="167.33333333333331" y1="937" y2="922" class="net_3"/>
  <line x1="112" x2="144" y1="982" y2="982" class="net_3"/>
  <line x1="144" x2="144" y1="982" y2="264.5" class="net_3"/>
  <line x1="144" x2="234" y1="264.5" y2="264.5" class="net_3"/>
  <circle cx="144" cy="264.5" r="2" style="fill:#000" class="net_3"/>
  <line x1="234" x2="234" y1="264.5" y2="249.5" class="net_3"/>
  <line x1="112" x2="144" y1="982" y2="982" class="net_3"/>
  <line x1="144" x2="144" y1="982" y2="204.5" class="net_3"/>
  <line x1="144" x2="234" y1="204.5" y2="204.5" class="net_3"/>
  <line x1="234" x2="234" y1="204.5" y2="189.5" class="net_3"/>
  <line x1="182" x2="224" y1="244.5" y2="244.5" class="net_14,15,16,17,18,19,20,21,22,23,24,25,26,27,28,29,30,31,32,33,34,35,36,37,38,39,40,41,42,43,44,45"/>
  <line x1="182" x2="194" y1="123.5" y2="123.5" class="net_4,5,6,7,8,9,10,11,12,13"/>
  <line x1="194" x2="194" y1="123.5" y2="184.5" class="net_4,5,6,7,8,9,10,11,12,13"/>
  <circle cx="194" cy="123.5" r="2" style="fill:#000" class="net_4,5,6,7,8,9,10,11,12,13"/>
  <line x1="194" x2="224" y1="184.5" y2="184.5" class="net_4,5,6,7,8,9,10,11,12,13"/>
  <line x1="182" x2="194" y1="123.5" y2="123.5" class="net_4,5,6,7,8,9,10,11,12,13"/>
  <line x1="194" x2="194" y1="123.5" y2="32.5" class="net_4,5,6,7,8,9,10,11,12,13"/>
  <line x1="194" x2="352" y1="32.5" y2="32.5" class="net_4,5,6,7,8,9,10,11,12,13"/>
  <line x1="244" x2="269" y1="174.5" y2="174.5" class="net_143,144,145,146,147,148,149,150,151,152"/>
  <line x1="269" x2="269" y1="174.5" y2="132.5" class="net_143,144,145,146,147,148,149,150,151,152"/>
  <line x1="269" x2="352" y1="132.5" y2="132.5" class="net_143,144,145,146,147,148,149,150,151,152"/>
  <line x1="244" x2="289" y1="234.5" y2="234.5" class="net_111,112,113,114,115,116,117,118,119,120,121,122,123,124,125,126,127,128,129,130,131,132,133,134,135,136,137,138,139,140,141,142"/>
  <line x1="289" x2="289" y1="234.5" y2="172.5" class="net_111,112,113,114,115,116,117,118,119,120,121,122,123,124,125,126,127,128,129,130,131,132,133,134,135,136,137,138,139,140,141,142"/>
  <line x1="289" x2="352" y1="172.5" y2="172.5" class="net_111,112,113,114,115,116,117,118,119,120,121,122,123,124,125,126,127,128,129,130,131,132,133,134,135,136,137,138,139,140,141,142"/>
  <line x1="226.04" x2="299" y1="377" y2="377" class="net_110,110,110,110,110,110,110,110,110,110,110,110,110,110,110,110,110,110,110,110,110,110,110,110,110,110,110,110,110,110,110,110"/>
  <line x1="299" x2="299" y1="377" y2="192.5" class="net_110,110,110,110,110,110,110,110,110,110,110,110,110,110,110,110,110,110,110,110,110,110,110,110,110,110,110,110,110,110,110,110"/>
  <line x1="299" x2="352" y1="192.5" y2="192.5" class="net_110,110,110,110,110,110,110,110,110,110,110,110,110,110,110,110,110,110,110,110,110,110,110,110,110,110,110,110,110,110,110,110"/>
  <line x1="491" x2="526" y1="32.5" y2="32.5" class="net_46,47,48,49,50,51,52,53,54,55,56,57,58,59,60,61,62,63,64,65,66,67,68,69,70,71,72,73,74,75,76,77"/>
  <line x1="22" x2="22" y1="45" y2="65.5" class="net_NaN,NaN,NaN,NaN,NaN,NaN,NaN,NaN,NaN,NaN"/>
  <line x1="22" x2="66" y1="65.5" y2="65.5" class="net_NaN,NaN,NaN,NaN,NaN,NaN,NaN,NaN,NaN,NaN"/>
  <line x1="22" x2="57.5" y1="45" y2="33" class="net_NaN,NaN,NaN,NaN,NaN,NaN,NaN,NaN,NaN,NaN"/>
  <line x1="177.33333333333331" x2="194" y1="907" y2="907" class="net_110"/>
  <line x1="194" x2="194" y1="907" y2="344.5" class="net_110"/>
  <line x1="194" x2="220.54" y1="344.5" y2="344.5" class="net_110"/>
  <circle cx="194" cy="907" r="2" style="fill:#000" class="net_110"/>
  <circle cx="194" cy="344.5" r="2" style="fill:#000" class="net_110"/>
  <line x1="220.54" x2="220.54" y1="344.5" y2="366.5" class="net_110"/>
  <line x1="177.33333333333331" x2="194" y1="907" y2="907" class="net_110"/>
  <line x1="194" x2="194" y1="907" y2="334.5" class="net_110"/>
  <line x1="194" x2="220.54" y1="334.5" y2="334.5" class="net_110"/>
  <circle cx="194" cy="334.5" r="2" style="fill:#000" class="net_110"/>
  <line x1="220.54" x2="220.54" y1="334.5" y2="386.5" class="net_110"/>
  <line x1="177.33333333333331" x2="194" y1="907" y2="907" class="net_110"/>
  <line x1="194" x2="194" y1="907" y2="324.5" class="net_110"/>
  <line x1="194" x2="220.54" y1="324.5" y2="324.5" class="net_110"/>
  <circle cx="194" cy="324.5" r="2" style="fill:#000" class="net_110"/>
  <line x1="220.54" x2="220.54" y1="324.5" y2="406.5" class="net_110"/>
  <line x1="177.33333333333331" x2="194" y1="907" y2="907" class="net_110"/>
  <line x1="194" x2="194" y1="907" y2="314.5" class="net_110"/>
  <line x1="194" x2="220.54" y1="314.5" y2="314.5" class="net_110"/>
  <line x1="220.54" x2="220.54" y1="314.5" y2="426.5" class="net_110"/>
  <line x1="177.33333333333331" x2="194" y1="907" y2="907" class="net_110"/>
  <line x1="194" x2="194" y1="907" y2="447" class="net_110"/>
  <circle cx="194" cy="447" r="2" style="fill:#000" class="net_110"/>
  <line x1="194" x2="220.04" y1="447" y2="447" class="net_110"/>
  <line x1="177.33333333333331" x2="194" y1="907" y2="907" class="net_110"/>
  <line x1="194" x2="194" y1="907" y2="467" class="net_110"/>
  <circle cx="194" cy="467" r="2" style="fill:#000" class="net_110"/>
  <line x1="194" x2="220.04" y1="467" y2="467" class="net_110"/>
  <line x1="177.33333333333331" x2="194" y1="907" y2="907" class="net_110"/>
  <line x1="194" x2="194" y1="907" y2="487" class="net_110"/>
  <circle cx="194" cy="487" r="2" style="fill:#000" class="net_110"/>
  <line x1="194" x2="220.04" y1="487" y2="487" class="net_110"/>
  <line x1="177.33333333333331" x2="194" y1="907" y2="907" class="net_110"/>
  <line x1="194" x2="194" y1="907" y2="507" class="net_110"/>
  <circle cx="194" cy="507" r="2" style="fill:#000" class="net_110"/>
  <line x1="194" x2="220.04" y1="507" y2="507" class="net_110"/>
  <line x1="177.33333333333331" x2="194" y1="907" y2="907" class="net_110"/>
  <line x1="194" x2="194" y1="907" y2="527" class="net_110"/>
  <circle cx="194" cy="527" r="2" style="fill:#000" class="net_110"/>
  <line x1="194" x2="220.04" y1="527" y2="527" class="net_110"/>
  <line x1="177.33333333333331" x2="194" y1="907" y2="907" class="net_110"/>
  <line x1="194" x2="194" y1="907" y2="547" class="net_110"/>
  <circle cx="194" cy="547" r="2" style="fill:#000" class="net_110"/>
  <line x1="194" x2="220.04" y1="547" y2="547" class="net_110"/>
  <line x1="177.33333333333331" x2="194" y1="907" y2="907" class="net_110"/>
  <line x1="194" x2="194" y1="907" y2="567" class="net_110"/>
  <circle cx="194" cy="567" r="2" style="fill:#000" class="net_110"/>
  <line x1="194" x2="220.04" y1="567" y2="567" class="net_110"/>
  <line x1="177.33333333333331" x2="194" y1="907" y2="907" class="net_110"/>
  <line x1="194" x2="194" y1="907" y2="587" class="net_110"/>
  <circle cx="194" cy="587" r="2" style="fill:#000" class="net_110"/>
  <line x1="194" x2="220.04" y1="587" y2="587" class="net_110"/>
  <line x1="177.33333333333331" x2="194" y1="907" y2="907" class="net_110"/>
  <line x1="194" x2="194" y1="907" y2="607" class="net_110"/>
  <circle cx="194" cy="607" r="2" style="fill:#000" class="net_110"/>
  <line x1="194" x2="220.04" y1="607" y2="607" class="net_110"/>
  <line x1="177.33333333333331" x2="194" y1="907" y2="907" class="net_110"/>
  <line x1="194" x2="194" y1="907" y2="627" class="net_110"/>
  <circle cx="194" cy="627" r="2" style="fill:#000" class="net_110"/>
  <line x1="194" x2="220.04" y1="627" y2="627" class="net_110"/>
  <line x1="177.33333333333331" x2="194" y1="907" y2="907" class="net_110"/>
  <line x1="194" x2="194" y1="907" y2="647" class="net_110"/>
  <circle cx="194" cy="647" r="2" style="fill:#000" class="net_110"/>
  <line x1="194" x2="220.04" y1="647" y2="647" class="net_110"/>
  <line x1="177.33333333333331" x2="194" y1="907" y2="907" class="net_110"/>
  <line x1="194" x2="194" y1="907" y2="667" class="net_110"/>
  <circle cx="194" cy="667" r="2" style="fill:#000" class="net_110"/>
  <line x1="194" x2="220.04" y1="667" y2="667" class="net_110"/>
  <line x1="177.33333333333331" x2="194" y1="907" y2="907" class="net_110"/>
  <line x1="194" x2="194" y1="907" y2="687" class="net_110"/>
  <circle cx="194" cy="687" r="2" style="fill:#000" class="net_110"/>
  <line x1="194" x2="220.04" y1="687" y2="687" class="net_110"/>
  <line x1="177.33333333333331" x2="194" y1="907" y2="907" class="net_110"/>
  <line x1="194" x2="194" y1="907" y2="707" class="net_110"/>
  <circle cx="194" cy="707" r="2" style="fill:#000" class="net_110"/>
  <line x1="194" x2="220.04" y1="707" y2="707" class="net_110"/>
  <line x1="177.33333333333331" x2="194" y1="907" y2="907" class="net_110"/>
  <line x1="194" x2="194" y1="907" y2="727" class="net_110"/>
  <circle cx="194" cy="727" r="2" style="fill:#000" class="net_110"/>
  <line x1="194" x2="220.04" y1="727" y2="727" class="net_110"/>
  <line x1="177.33333333333331" x2="194" y1="907" y2="907" class="net_110"/>
  <line x1="194" x2="194" y1="907" y2="747" class="net_110"/>
  <circle cx="194" cy="747" r="2" style="fill:#000" class="net_110"/>
  <line x1="194" x2="220.04" y1="747" y2="747" class="net_110"/>
  <line x1="177.33333333333331" x2="194" y1="907" y2="907" class="net_110"/>
  <line x1="194" x2="194" y1="907" y2="767" class="net_110"/>
  <circle cx="194" cy="767" r="2" style="fill:#000" class="net_110"/>
  <line x1="194" x2="220.04" y1="767" y2="767" class="net_110"/>
  <line x1="177.33333333333331" x2="194" y1="907" y2="907" class="net_110"/>
  <line x1="194" x2="194" y1="907" y2="787" class="net_110"/>
  <circle cx="194" cy="787" r="2" style="fill:#000" class="net_110"/>
  <line x1="194" x2="220.04" y1="787" y2="787" class="net_110"/>
  <line x1="177.33333333333331" x2="194" y1="907" y2="907" class="net_110"/>
  <line x1="194" x2="194" y1="907" y2="807" class="net_110"/>
  <circle cx="194" cy="807" r="2" style="fill:#000" class="net_110"/>
  <line x1="194" x2="220.04" y1="807" y2="807" class="net_110"/>
  <line x1="177.33333333333331" x2="194" y1="907" y2="907" class="net_110"/>
  <line x1="194" x2="194" y1="907" y2="827" class="net_110"/>
  <circle cx="194" cy="827" r="2" style="fill:#000" class="net_110"/>
  <line x1="194" x2="220.04" y1="827" y2="827" class="net_110"/>
  <line x1="177.33333333333331" x2="194" y1="907" y2="907" class="net_110"/>
  <line x1="194" x2="194" y1="907" y2="847" class="net_110"/>
  <circle cx="194" cy="847" r="2" style="fill:#000" class="net_110"/>
  <line x1="194" x2="220.04" y1="847" y2="847" class="net_110"/>
  <line x1="177.33333333333331" x2="194" y1="907" y2="907" class="net_110"/>
  <line x1="194" x2="194" y1="907" y2="867" class="net_110"/>
  <circle cx="194" cy="867" r="2" style="fill:#000" class="net_110"/>
  <line x1="194" x2="220.04" y1="867" y2="867" class="net_110"/>
  <line x1="177.33333333333331" x2="194" y1="907" y2="907" class="net_110"/>
  <line x1="194" x2="194" y1="907" y2="887" class="net_110"/>
  <circle cx="194" cy="887" r="2" style="fill:#000" class="net_110"/>
  <line x1="194" x2="220.04" y1="887" y2="887" class="net_110"/>
  <line x1="177.33333333333331" x2="220.04" y1="907" y2="907" class="net_110"/>
  <line x1="177.33333333333331" x2="194" y1="907" y2="907" class="net_110"/>
  <line x1="194" x2="194" y1="907" y2="1036.5" class="net_110"/>
  <line x1="194" x2="220.54" y1="1036.5" y2="1036.5" class="net_110"/>
  <line x1="220.54" x2="220.54" y1="1036.5" y2="927.5" class="net_110"/>
  <line x1="177.33333333333331" x2="194" y1="907" y2="907" class="net_110"/>
  <line x1="194" x2="194" y1="907" y2="1026.5" class="net_110"/>
  <line x1="194" x2="220.54" y1="1026.5" y2="1026.5" class="net_110"/>
  <circle cx="194" cy="1026.5" r="2" style="fill:#000" class="net_110"/>
  <line x1="220.54" x2="220.54" y1="1026.5" y2="947.5" class="net_110"/>
  <line x1="177.33333333333331" x2="194" y1="907" y2="907" class="net_110"/>
  <line x1="194" x2="194" y1="907" y2="1016.5" class="net_110"/>
  <line x1="194" x2="220.54" y1="1016.5" y2="1016.5" class="net_110"/>
  <circle cx="194" cy="1016.5" r="2" style="fill:#000" class="net_110"/>
  <line x1="220.54" x2="220.54" y1="1016.5" y2="967.5" class="net_110"/>
  <line x1="177.33333333333331" x2="194" y1="907" y2="907" class="net_110"/>
  <line x1="194" x2="194" y1="907" y2="1006.5" class="net_110"/>
  <line x1="194" x2="220.54" y1="1006.5" y2="1006.5" class="net_110"/>
  <circle cx="194" cy="1006.5" r="2" style="fill:#000" class="net_110"/>
  <line x1="220.54" x2="220.54" y1="1006.5" y2="987.5" class="net_110"/>
</svg>
