<svg xmlns="http://www.w3.org/2000/svg" xmlns:xlink="http://www.w3.org/1999/xlink" xmlns:s="https://github.com/nturley/netlistsvg" width="284" height="1021">
  <style>svg {
    stroke:#000;
    fill:none;
  }
  text {
    fill:#000;
    stroke:none;
    font-size:10px;
    font-weight: bold;
    font-family: "Courier New", monospace;
  }
  .nodelabel {
    text-anchor: middle;
  }
  .inputPortLabel {
    text-anchor: end;
  }
  .splitjoinBody {
    fill:#000;
  }</style>
  <g s:type="mem_v2" transform="translate(142,82)" s:width="60" s:height="80" id="cell_mem">
    <s:alias val="$mem_v2"/>
    <s:alias val="$mem"/>
    <rect width="60" height="80" x="0" y="0" class="cell_mem"/>
    <text x="30" y="44" class="nodelabel" style="font-size:14px">RAM</text>
    <g s:x="0" s:y="15" s:pid="WR_DATA"/>
    <g s:x="0" s:y="30" s:pid="WR_ADDR"/>
    <g s:x="0" s:y="45" s:pid="WR_EN"/>
    <g s:x="0" s:y="60" s:pid="WR_CLK"/>
    <g s:x="60" s:y="15" s:pid="RD_DATA"/>
    <g s:x="60" s:y="30" s:pid="RD_ADDR"/>
    <g s:x="60" s:y="45" s:pid="RD_EN"/>
    <g s:x="60" s:y="60" s:pid="RD_CLK"/>
    <g s:x="60" s:y="70" s:pid="RD_ARST"/>
    <g s:x="60" s:y="80" s:pid="RD_SRST"/>
  </g>
  <g s:type="inputExt" transform="translate(77,859)" s:width="30" s:height="20" id="cell_clk">
    <text x="15" y="-4" class="nodelabel cell_clk" s:attribute="ref">clk</text>
    <s:alias val="$_inputExt_"/>
    <path d="M0,0 L0,20 L15,20 L30,10 L15,0 Z" class="cell_clk"/>
    <g s:x="28" s:y="10" s:pid="Y"/>
  </g>
  <g s:type="inputExt" transform="translate(12,107)" s:width="30" s:height="20" id="cell_we">
    <text x="15" y="-4" class="nodelabel cell_we" s:attribute="ref">we</text>
    <s:alias val="$_inputExt_"/>
    <path d="M0,0 L0,20 L15,20 L30,10 L15,0 Z" class="cell_we"/>
    <g s:x="28" s:y="10" s:pid="Y"/>
  </g>
  <g s:type="inputExt" transform="translate(77,22)" s:width="30" s:height="20" id="cell_addr">
    <text x="15" y="-4" class="nodelabel cell_addr" s:attribute="ref">addr</text>
    <s:alias val="$_inputExt_"/>
    <path d="M0,0 L0,20 L15,20 L30,10 L15,0 Z" class="cell_addr"/>
    <g s:x="28" s:y="10" s:pid="Y"/>
  </g>
  <g s:type="inputExt" transform="translate(77,87)" s:width="30" s:height="20" id="cell_wdata">
    <text x="15" y="-4" class="nodelabel cell_wdata" s:attribute="ref">wdata</text>
    <s:alias val="$_inputExt_"/>
    <path d="M0,0 L0,20 L15,20 L30,10 L15,0 Z" class="cell_wdata"/>
    <g s:x="28" s:y="10" s:pid="Y"/>
  </g>
  <g s:type="outputExt" transform="translate(242,87)" s:width="30" s:height="20" id="cell_rdata">
    <text x="15" y="-4" class="nodelabel cell_rdata" s:attribute="ref">rdata</text>
    <s:alias val="$_outputExt_"/>
    <path d="M30,0 L30,20 L15,20 L0,10 L15,0 Z" class="cell_rdata"/>
    <g s:x="0" s:y="10" s:pid="A"/>
  </g>
  <g s:type="constant" transform="translate(77,989)" s:width="30" s:height="20" id="cell_0">
    <text x="15" y="-4" class="nodelabel cell_0" s:attribute="ref">0</text>
    <s:alias val="$_constant_"/>
    <rect width="30" height="20" class="cell_0"/>
    <g s:x="30" s:y="10" s:pid="Y"/>
  </g>
  <g s:type="constant" transform="translate(77,924)" s:width="30" s:height="20" id="cell_1">
    <text x="15" y="-4" class="nodelabel cell_1" s:attribute="ref">1</text>
    <s:alias val="$_constant_"/>
    <rect width="30" height="20" class="cell_1"/>
    <g s:x="30" s:y="10" s:pid="Y"/>
  </g>
  <g s:type="join" transform="translate(78.04,159)" s:width="4" s:height="40" id="cell_$join$,3,3,3,3,3,3,3,3,3,3,3,3,3,3,3,3,3,3,3,3,3,3,3,3,3,3,3,3,3,3,3,3,">
    <rect width="5" height="640" class="splitjoinBody" s:generic="body"/>
    <s:alias val="$_join_"/>
    <g s:x="5" s:y="20" s:pid="out"/>
    <g transform="translate(0,10)" s:x="0" s:y="10" s:pid="in0">
      <text x="-3" y="-4" class="inputPortLabel">0</text>
    </g>
    <g transform="translate(0,30)" s:x="0" s:y="10" s:pid="in0">
      <text x="-3" y="-4" class="inputPortLabel">1</text>
    </g>
    <g transform="translate(0,50)" s:x="0" s:y="10" s:pid="in0">
      <text x="-3" y="-4" class="inputPortLabel">2</text>
    </g>
    <g transform="translate(0,70)" s:x="0" s:y="10" s:pid="in0">
      <text x="-3" y="-4" class="inputPortLabel">3</text>
    </g>
    <g transform="translate(0,90)" s:x="0" s:y="10" s:pid="in0">
      <text x="-3" y="-4" class="inputPortLabel">4</text>
    </g>
    <g transform="translate(0,110)" s:x="0" s:y="10" s:pid="in0">
      <text x="-3" y="-4" class="inputPortLabel">5</text>
    </g>
    <g transform="translate(0,130)" s:x="0" s:y="10" s:pid="in0">
      <text x="-3" y="-4" class="inputPortLabel">6</text>
    </g>
    <g transform="translate(0,150)" s:x="0" s:y="10" s:pid="in0">
      <text x="-3" y="-4" class="inputPortLabel">7</text>
    </g>
    <g transform="translate(0,170)" s:x="0" s:y="10" s:pid="in0">
      <text x="-3" y="-4" class="inputPortLabel">8</text>
    </g>
    <g transform="translate(0,190)" s:x="0" s:y="10" s:pid="in0">
      <text x="-3" y="-4" class="inputPortLabel">9</text>
    </g>
    <g transform="translate(0,210)" s:x="0" s:y="10" s:pid="in0">
      <text x="-3" y="-4" class="inputPortLabel">10</text>
    </g>
    <g transform="translate(0,230)" s:x="0" s:y="10" s:pid="in0">
      <text x="-3" y="-4" class="inputPortLabel">11</text>
    </g>
    <g transform="translate(0,250)" s:x="0" s:y="10" s:pid="in0">
      <text x="-3" y="-4" class="inputPortLabel">12</text>
    </g>
    <g transform="translate(0,270)" s:x="0" s:y="10" s:pid="in0">
      <text x="-3" y="-4" class="inputPortLabel">13</text>
    </g>
    <g transform="translate(0,290)" s:x="0" s:y="10" s:pid="in0">
      <text x="-3" y="-4" class="inputPortLabel">14</text>
    </g>
    <g transform="translate(0,310)" s:x="0" s:y="10" s:pid="in0">
      <text x="-3" y="-4" class="inputPortLabel">15</text>
    </g>
    <g transform="translate(0,330)" s:x="0" s:y="10" s:pid="in0">
      <text x="-3" y="-4" class="inputPortLabel">16</text>
    </g>
    <g transform="translate(0,350)" s:x="0" s:y="10" s:pid="in0">
      <text x="-3" y="-4" class="inputPortLabel">17</text>
    </g>
    <g transform="translate(0,370)" s:x="0" s:y="10" s:pid="in0">
      <text x="-3" y="-4" class="inputPortLabel">18</text>
    </g>
    <g transform="translate(0,390)" s:x="0" s:y="10" s:pid="in0">
      <text x="-3" y="-4" class="inputPortLabel">19</text>
    </g>
    <g transform="translate(0,410)" s:x="0" s:y="10" s:pid="in0">
      <text x="-3" y="-4" class="inputPortLabel">20</text>
    </g>
    <g transform="translate(0,430)" s:x="0" s:y="10" s:pid="in0">
      <text x="-3" y="-4" class="inputPortLabel">21</text>
    </g>
    <g transform="translate(0,450)" s:x="0" s:y="10" s:pid="in0">
      <text x="-3" y="-4" class="inputPortLabel">22</text>
    </g>
    <g transform="translate(0,470)" s:x="0" s:y="10" s:pid="in0">
      <text x="-3" y="-4" class="inputPortLabel">23</text>
    </g>
    <g transform="translate(0,490)" s:x="0" s:y="10" s:pid="in0">
      <text x="-3" y="-4" class="inputPortLabel">24</text>
    </g>
    <g transform="translate(0,510)" s:x="0" s:y="10" s:pid="in0">
      <text x="-3" y="-4" class="inputPortLabel">25</text>
    </g>
    <g transform="translate(0,530)" s:x="0" s:y="10" s:pid="in0">
      <text x="-3" y="-4" class="inputPortLabel">26</text>
    </g>
    <g transform="translate(0,550)" s:x="0" s:y="10" s:pid="in0">
      <text x="-3" y="-4" class="inputPortLabel">27</text>
    </g>
    <g transform="translate(0,570)" s:x="0" s:y="10" s:pid="in0">
      <text x="-3" y="-4" class="inputPortLabel">28</text>
    </g>
    <g transform="translate(0,590)" s:x="0" s:y="10" s:pid="in0">
      <text x="-3" y="-4" class="inputPortLabel">29</text>
    </g>
    <g transform="translate(0,610)" s:x="0" s:y="10" s:pid="in0">
      <text x="-3" y="-4" class="inputPortLabel">30</text>
    </g>
    <g transform="translate(0,630)" s:x="0" s:y="10" s:pid="in0">
      <text x="-3" y="-4" class="inputPortLabel">31</text>
    </g>
  </g>
  <line x1="105" x2="212" y1="32" y2="32" class="net_4,5,6,7,8,9,10,11,12,13"/>
  <line x1="212" x2="212" y1="32" y2="112" class="net_4,5,6,7,8,9,10,11,12,13"/>
  <line x1="212" x2="202" y1="112" y2="112" class="net_4,5,6,7,8,9,10,11,12,13"/>
  <line x1="105" x2="117" y1="32" y2="32" class="net_4,5,6,7,8,9,10,11,12,13"/>
  <line x1="117" x2="117" y1="32" y2="112" class="net_4,5,6,7,8,9,10,11,12,13"/>
  <circle cx="117" cy="32" r="2" style="fill:#000" class="net_4,5,6,7,8,9,10,11,12,13"/>
  <line x1="117" x2="142" y1="112" y2="112" class="net_4,5,6,7,8,9,10,11,12,13"/>
  <line x1="107" x2="212" y1="999" y2="999" class="net_78"/>
  <line x1="212" x2="212" y1="999" y2="152" class="net_78"/>
  <line x1="212" x2="202" y1="152" y2="152" class="net_78"/>
  <line x1="107" x2="212" y1="999" y2="999" class="net_78"/>
  <line x1="212" x2="212" y1="999" y2="162" class="net_78"/>
  <circle cx="212" cy="162" r="2" style="fill:#000" class="net_78"/>
  <line x1="212" x2="202" y1="162" y2="162" class="net_78"/>
  <line x1="105" x2="222" y1="869" y2="869" class="net_2"/>
  <line x1="222" x2="222" y1="869" y2="142" class="net_2"/>
  <line x1="222" x2="202" y1="142" y2="142" class="net_2"/>
  <line x1="105" x2="127" y1="869" y2="869" class="net_2"/>
  <line x1="127" x2="127" y1="869" y2="142" class="net_2"/>
  <circle cx="127" cy="869" r="2" style="fill:#000" class="net_2"/>
  <line x1="127" x2="142" y1="142" y2="142" class="net_2"/>
  <line x1="107" x2="232" y1="934" y2="934" class="net_79"/>
  <line x1="232" x2="232" y1="934" y2="127" class="net_79"/>
  <line x1="232" x2="202" y1="127" y2="127" class="net_79"/>
  <line x1="105" x2="142" y1="97" y2="97" class="net_14,15,16,17,18,19,20,21,22,23,24,25,26,27,28,29,30,31,32,33,34,35,36,37,38,39,40,41,42,43,44,45"/>
  <line x1="84.04" x2="117" y1="179.5" y2="179.5" class="net_3,3,3,3,3,3,3,3,3,3,3,3,3,3,3,3,3,3,3,3,3,3,3,3,3,3,3,3,3,3,3,3"/>
  <line x1="117" x2="117" y1="179.5" y2="127" class="net_3,3,3,3,3,3,3,3,3,3,3,3,3,3,3,3,3,3,3,3,3,3,3,3,3,3,3,3,3,3,3,3"/>
  <line x1="117" x2="142" y1="127" y2="127" class="net_3,3,3,3,3,3,3,3,3,3,3,3,3,3,3,3,3,3,3,3,3,3,3,3,3,3,3,3,3,3,3,3"/>
  <line x1="202" x2="242" y1="97" y2="97" class="net_46,47,48,49,50,51,52,53,54,55,56,57,58,59,60,61,62,63,64,65,66,67,68,69,70,71,72,73,74,75,76,77"/>
  <line x1="40" x2="52" y1="117" y2="117" class="net_3"/>
  <line x1="52" x2="52" y1="117" y2="147" class="net_3"/>
  <line x1="52" x2="78.54" y1="147" y2="147" class="net_3"/>
  <circle cx="52" cy="117" r="2" style="fill:#000" class="net_3"/>
  <circle cx="52" cy="147" r="2" style="fill:#000" class="net_3"/>
  <line x1="78.54" x2="78.54" y1="147" y2="169" class="net_3"/>
  <line x1="40" x2="52" y1="117" y2="117" class="net_3"/>
  <line x1="52" x2="52" y1="117" y2="137" class="net_3"/>
  <line x1="52" x2="78.54" y1="137" y2="137" class="net_3"/>
  <circle cx="52" cy="137" r="2" style="fill:#000" class="net_3"/>
  <line x1="78.54" x2="78.54" y1="137" y2="189" class="net_3"/>
  <line x1="40" x2="52" y1="117" y2="117" class="net_3"/>
  <line x1="52" x2="52" y1="117" y2="127" class="net_3"/>
  <line x1="52" x2="78.54" y1="127" y2="127" class="net_3"/>
  <circle cx="52" cy="127" r="2" style="fill:#000" class="net_3"/>
  <line x1="78.54" x2="78.54" y1="127" y2="209" class="net_3"/>
  <line x1="40" x2="78.54" y1="117" y2="117" class="net_3"/>
  <line x1="78.54" x2="78.54" y1="117" y2="229" class="net_3"/>
  <line x1="40" x2="52" y1="117" y2="117" class="net_3"/>
  <line x1="52" x2="52" y1="117" y2="249.5" class="net_3"/>
  <circle cx="52" cy="249.5" r="2" style="fill:#000" class="net_3"/>
  <line x1="52" x2="78.04" y1="249.5" y2="249.5" class="net_3"/>
  <line x1="40" x2="52" y1="117" y2="117" class="net_3"/>
  <line x1="52" x2="52" y1="117" y2="269.5" class="net_3"/>
  <circle cx="52" cy="269.5" r="2" style="fill:#000" class="net_3"/>
  <line x1="52" x2="78.04" y1="269.5" y2="269.5" class="net_3"/>
  <line x1="40" x2="52" y1="117" y2="117" class="net_3"/>
  <line x1="52" x2="52" y1="117" y2="289.5" class="net_3"/>
  <circle cx="52" cy="289.5" r="2" style="fill:#000" class="net_3"/>
  <line x1="52" x2="78.04" y1="289.5" y2="289.5" class="net_3"/>
  <line x1="40" x2="52" y1="117" y2="117" class="net_3"/>
  <line x1="52" x2="52" y1="117" y2="309.5" class="net_3"/>
  <circle cx="52" cy="309.5" r="2" style="fill:#000" class="net_3"/>
  <line x1="52" x2="78.04" y1="309.5" y2="309.5" class="net_3"/>
  <line x1="40" x2="52" y1="117" y2="117" class="net_3"/>
  <line x1="52" x2="52" y1="117" y2="329.5" class="net_3"/>
  <circle cx="52" cy="329.5" r="2" style="fill:#000" class="net_3"/>
  <line x1="52" x2="78.04" y1="329.5" y2="329.5" class="net_3"/>
  <line x1="40" x2="52" y1="117" y2="117" class="net_3"/>
  <line x1="52" x2="52" y1="117" y2="349.5" class="net_3"/>
  <circle cx="52" cy="349.5" r="2" style="fill:#000" class="net_3"/>
  <line x1="52" x2="78.04" y1="349.5" y2="349.5" class="net_3"/>
  <line x1="40" x2="52" y1="117" y2="117" class="net_3"/>
  <line x1="52" x2="52" y1="117" y2="369.5" class="net_3"/>
  <circle cx="52" cy="369.5" r="2" style="fill:#000" class="net_3"/>
  <line x1="52" x2="78.04" y1="369.5" y2="369.5" class="net_3"/>
  <line x1="40" x2="52" y1="117" y2="117" class="net_3"/>
  <line x1="52" x2="52" y1="117" y2="389.5" class="net_3"/>
  <circle cx="52" cy="389.5" r="2" style="fill:#000" class="net_3"/>
  <line x1="52" x2="78.04" y1="389.5" y2="389.5" class="net_3"/>
  <line x1="40" x2="52" y1="117" y2="117" class="net_3"/>
  <line x1="52" x2="52" y1="117" y2="409.5" class="net_3"/>
  <circle cx="52" cy="409.5" r="2" style="fill:#000" class="net_3"/>
  <line x1="52" x2="78.04" y1="409.5" y2="409.5" class="net_3"/>
  <line x1="40" x2="52" y1="117" y2="117" class="net_3"/>
  <line x1="52" x2="52" y1="117" y2="429.5" class="net_3"/>
  <circle cx="52" cy="429.5" r="2" style="fill:#000" class="net_3"/>
  <line x1="52" x2="78.04" y1="429.5" y2="429.5" class="net_3"/>
  <line x1="40" x2="52" y1="117" y2="117" class="net_3"/>
  <line x1="52" x2="52" y1="117" y2="449.5" class="net_3"/>
  <circle cx="52" cy="449.5" r="2" style="fill:#000" class="net_3"/>
  <line x1="52" x2="78.04" y1="449.5" y2="449.5" class="net_3"/>
  <line x1="40" x2="52" y1="117" y2="117" class="net_3"/>
  <line x1="52" x2="52" y1="117" y2="469.5" class="net_3"/>
  <circle cx="52" cy="469.5" r="2" style="fill:#000" class="net_3"/>
  <line x1="52" x2="78.04" y1="469.5" y2="469.5" class="net_3"/>
  <line x1="40" x2="52" y1="117" y2="117" class="net_3"/>
  <line x1="52" x2="52" y1="117" y2="489.5" class="net_3"/>
  <circle cx="52" cy="489.5" r="2" style="fill:#000" class="net_3"/>
  <line x1="52" x2="78.04" y1="489.5" y2="489.5" class="net_3"/>
  <line x1="40" x2="52" y1="117" y2="117" class="net_3"/>
  <line x1="52" x2="52" y1="117" y2="509.5" class="net_3"/>
  <circle cx="52" cy="509.5" r="2" style="fill:#000" class="net_3"/>
  <line x1="52" x2="78.04" y1="509.5" y2="509.5" class="net_3"/>
  <line x1="40" x2="52" y1="117" y2="117" class="net_3"/>
  <line x1="52" x2="52" y1="117" y2="529.5" class="net_3"/>
  <circle cx="52" cy="529.5" r="2" style="fill:#000" class="net_3"/>
  <line x1="52" x2="78.04" y1="529.5" y2="529.5" class="net_3"/>
  <line x1="40" x2="52" y1="117" y2="117" class="net_3"/>
  <line x1="52" x2="52" y1="117" y2="549.5" class="net_3"/>
  <circle cx="52" cy="549.5" r="2" style="fill:#000" class="net_3"/>
  <line x1="52" x2="78.04" y1="549.5" y2="549.5" class="net_3"/>
  <line x1="40" x2="52" y1="117" y2="117" class="net_3"/>
  <line x1="52" x2="52" y1="117" y2="569.5" class="net_3"/>
  <circle cx="52" cy="569.5" r="2" style="fill:#000" class="net_3"/>
  <line x1="52" x2="78.04" y1="569.5" y2="569.5" class="net_3"/>
  <line x1="40" x2="52" y1="117" y2="117" class="net_3"/>
  <line x1="52" x2="52" y1="117" y2="589.5" class="net_3"/>
  <circle cx="52" cy="589.5" r="2" style="fill:#000" class="net_3"/>
  <line x1="52" x2="78.04" y1="589.5" y2="589.5" class="net_3"/>
  <line x1="40" x2="52" y1="117" y2="117" class="net_3"/>
  <line x1="52" x2="52" y1="117" y2="609.5" class="net_3"/>
  <circle cx="52" cy="609.5" r="2" style="fill:#000" class="net_3"/>
  <line x1="52" x2="78.04" y1="609.5" y2="609.5" class="net_3"/>
  <line x1="40" x2="52" y1="117" y2="117" class="net_3"/>
  <line x1="52" x2="52" y1="117" y2="629.5" class="net_3"/>
  <circle cx="52" cy="629.5" r="2" style="fill:#000" class="net_3"/>
  <line x1="52" x2="78.04" y1="629.5" y2="629.5" class="net_3"/>
  <line x1="40" x2="52" y1="117" y2="117" class="net_3"/>
  <line x1="52" x2="52" y1="117" y2="649.5" class="net_3"/>
  <circle cx="52" cy="649.5" r="2" style="fill:#000" class="net_3"/>
  <line x1="52" x2="78.04" y1="649.5" y2="649.5" class="net_3"/>
  <line x1="40" x2="52" y1="117" y2="117" class="net_3"/>
  <line x1="52" x2="52" y1="117" y2="669.5" class="net_3"/>
  <circle cx="52" cy="669.5" r="2" style="fill:#000" class="net_3"/>
  <line x1="52" x2="78.04" y1="669.5" y2="669.5" class="net_3"/>
  <line x1="40" x2="52" y1="117" y2="117" class="net_3"/>
  <line x1="52" x2="52" y1="117" y2="689.5" class="net_3"/>
  <circle cx="52" cy="689.5" r="2" style="fill:#000" class="net_3"/>
  <line x1="52" x2="78.04" y1="689.5" y2="689.5" class="net_3"/>
  <line x1="40" x2="52" y1="117" y2="117" class="net_3"/>
  <line x1="52" x2="52" y1="117" y2="709.5" class="net_3"/>
  <circle cx="52" cy="709.5" r="2" style="fill:#000" class="net_3"/>
  <line x1="52" x2="78.04" y1="709.5" y2="709.5" class="net_3"/>
  <line x1="40" x2="52" y1="117" y2="117" class="net_3"/>
  <line x1="52" x2="52" y1="117" y2="839" class="net_3"/>
  <line x1="52" x2="78.54" y1="839" y2="839" class="net_3"/>
  <line x1="78.54" x2="78.54" y1="839" y2="730" class="net_3"/>
  <line x1="40" x2="52" y1="117" y2="117" class="net_3"/>
  <line x1="52" x2="52" y1="117" y2="829" class="net_3"/>
  <line x1="52" x2="78.54" y1="829" y2="829" class="net_3"/>
  <circle cx="52" cy="829" r="2" style="fill:#000" class="net_3"/>
  <line x1="78.54" x2="78.54" y1="829" y2="750" class="net_3"/>
  <line x1="40" x2="52" y1="117" y2="117" class="net_3"/>
  <line x1="52" x2="52" y1="117" y2="819" class="net_3"/>
  <line x1="52" x2="78.54" y1="819" y2="819" class="net_3"/>
  <circle cx="52" cy="819" r="2" style="fill:#000" class="net_3"/>
  <line x1="78.54" x2="78.54" y1="819" y2="770" class="net_3"/>
  <line x1="40" x2="52" y1="117" y2="117" class="net_3"/>
  <line x1="52" x2="52" y1="117" y2="809" class="net_3"/>
  <line x1="52" x2="78.54" y1="809" y2="809" class="net_3"/>
  <circle cx="52" cy="809" r="2" style="fill:#000" class="net_3"/>
  <line x1="78.54" x2="78.54" y1="809" y2="790" class="net_3"/>
</svg>
