<svg xmlns="http://www.w3.org/2000/svg" xmlns:xlink="http://www.w3.org/1999/xlink" xmlns:s="https://github.com/nturley/netlistsvg" width="1046" height="785.5">
  <style>svg {
    stroke:#000;
    fill:none;
  }
  text {
    fill:#000;
    stroke:none;
    font-size:10px;
    font-weight: bold;
    font-family: "Courier New", monospace;
  }
  .nodelabel {
    text-anchor: middle;
  }
  .inputPortLabel {
    text-anchor: end;
  }
  .splitjoinBody {
    fill:#000;
  }</style>
  <g s:type="add" transform="translate(314.3333333333333,451.5)" s:width="25" s:height="25" id="cell_$add$fir4tap.v:52$5">
    <s:alias val="$add"/>
    <circle r="12.5" cx="12.5" cy="12.5" class="cell_$add$fir4tap.v:52$5"/>
    <line x1="7.5" x2="17.5" y1="12.5" y2="12.5" class="cell_$add$fir4tap.v:52$5"/>
    <line x1="12.5" x2="12.5" y1="7.5" y2="17.5" class="cell_$add$fir4tap.v:52$5"/>
    <g s:x="3" s:y="5" s:pid="A"/>
    <g s:x="3" s:y="20" s:pid="B"/>
    <g s:x="25" s:y="12.5" s:pid="Y"/>
  </g>
  <g s:type="add" transform="translate(470.3333333333333,512)" s:width="25" s:height="25" id="cell_$add$fir4tap.v:52$6">
    <s:alias val="$add"/>
    <circle r="12.5" cx="12.5" cy="12.5" class="cell_$add$fir4tap.v:52$6"/>
    <line x1="7.5" x2="17.5" y1="12.5" y2="12.5" class="cell_$add$fir4tap.v:52$6"/>
    <line x1="12.5" x2="12.5" y1="7.5" y2="17.5" class="cell_$add$fir4tap.v:52$6"/>
    <g s:x="3" s:y="5" s:pid="A"/>
    <g s:x="3" s:y="20" s:pid="B"/>
    <g s:x="25" s:y="12.5" s:pid="Y"/>
  </g>
  <g s:type="add" transform="translate(598.6666666666666,572.5)" s:width="25" s:height="25" id="cell_$add$fir4tap.v:52$7">
    <s:alias val="$add"/>
    <circle r="12.5" cx="12.5" cy="12.5" class="cell_$add$fir4tap.v:52$7"/>
    <line x1="7.5" x2="17.5" y1="12.5" y2="12.5" class="cell_$add$fir4tap.v:52$7"/>
    <line x1="12.5" x2="12.5" y1="7.5" y2="17.5" class="cell_$add$fir4tap.v:52$7"/>
    <g s:x="3" s:y="5" s:pid="A"/>
    <g s:x="3" s:y="20" s:pid="B"/>
    <g s:x="25" s:y="12.5" s:pid="Y"/>
  </g>
  <g s:type="generic" transform="translate(131,373)" s:width="30" s:height="40" id="cell_$mul$fir4tap.v:46$1">
    <text x="15" y="-4" class="nodelabel cell_$mul$fir4tap.v:46$1" s:attribute="ref">*</text>
    <rect width="30" height="40" s:generic="body" class="cell_$mul$fir4tap.v:46$1"/>
    <g transform="translate(0,10)" s:x="0" s:y="10" s:pid="in0" id="port_$mul$fir4tap.v:46$1~A">
      <text x="-3" y="-4" class="inputPortLabel cell_$mul$fir4tap.v:46$1">A</text>
    </g>
    <g transform="translate(0,30)" s:x="0" s:y="10" s:pid="in0" id="port_$mul$fir4tap.v:46$1~B">
      <text x="-3" y="-4" class="inputPortLabel cell_$mul$fir4tap.v:46$1">B</text>
    </g>
    <g transform="translate(30,10)" s:x="30" s:y="10" s:pid="out0" id="port_$mul$fir4tap.v:46$1~Y">
      <text x="5" y="-4" style="fill:#000; stroke:none" class="cell_$mul$fir4tap.v:46$1">Y</text>
    </g>
  </g>
  <g s:type="generic" transform="translate(131,461)" s:width="30" s:height="40" id="cell_$mul$fir4tap.v:47$2">
    <text x="15" y="-4" class="nodelabel cell_$mul$fir4tap.v:47$2" s:attribute="ref">*</text>
    <rect width="30" height="40" s:generic="body" class="cell_$mul$fir4tap.v:47$2"/>
    <g transform="translate(0,10)" s:x="0" s:y="10" s:pid="in0" id="port_$mul$fir4tap.v:47$2~A">
      <text x="-3" y="-4" class="inputPortLabel cell_$mul$fir4tap.v:47$2">A</text>
    </g>
    <g transform="translate(0,30)" s:x="0" s:y="10" s:pid="in0" id="port_$mul$fir4tap.v:47$2~B">
      <text x="-3" y="-4" class="inputPortLabel cell_$mul$fir4tap.v:47$2">B</text>
    </g>
    <g transform="translate(30,10)" s:x="30" s:y="10" s:pid="out0" id="port_$mul$fir4tap.v:47$2~Y">
      <text x="5" y="-4" style="fill:#000; stroke:none" class="cell_$mul$fir4tap.v:47$2">Y</text>
    </g>
  </g>
  <g s:type="generic" transform="translate(287,521.5)" s:width="30" s:height="40" id="cell_$mul$fir4tap.v:48$3">
    <text x="15" y="-4" class="nodelabel cell_$mul$fir4tap.v:48$3" s:attribute="ref">*</text>
    <rect width="30" height="40" s:generic="body" class="cell_$mul$fir4tap.v:48$3"/>
    <g transform="translate(0,10)" s:x="0" s:y="10" s:pid="in0" id="port_$mul$fir4tap.v:48$3~A">
      <text x="-3" y="-4" class="inputPortLabel cell_$mul$fir4tap.v:48$3">A</text>
    </g>
    <g transform="translate(0,30)" s:x="0" s:y="10" s:pid="in0" id="port_$mul$fir4tap.v:48$3~B">
      <text x="-3" y="-4" class="inputPortLabel cell_$mul$fir4tap.v:48$3">B</text>
    </g>
    <g transform="translate(30,10)" s:x="30" s:y="10" s:pid="out0" id="port_$mul$fir4tap.v:48$3~Y">
      <text x="5" y="-4" style="fill:#000; stroke:none" class="cell_$mul$fir4tap.v:48$3">Y</text>
    </g>
  </g>
  <g s:type="generic" transform="translate(443,582)" s:width="30" s:height="40" id="cell_$mul$fir4tap.v:49$4">
    <text x="15" y="-4" class="nodelabel cell_$mul$fir4tap.v:49$4" s:attribute="ref">*</text>
    <rect width="30" height="40" s:generic="body" class="cell_$mul$fir4tap.v:49$4"/>
    <g transform="translate(0,10)" s:x="0" s:y="10" s:pid="in0" id="port_$mul$fir4tap.v:49$4~A">
      <text x="-3" y="-4" class="inputPortLabel cell_$mul$fir4tap.v:49$4">A</text>
    </g>
    <g transform="translate(0,30)" s:x="0" s:y="10" s:pid="in0" id="port_$mul$fir4tap.v:49$4~B">
      <text x="-3" y="-4" class="inputPortLabel cell_$mul$fir4tap.v:49$4">B</text>
    </g>
    <g transform="translate(30,10)" s:x="30" s:y="10" s:pid="out0" id="port_$mul$fir4tap.v:49$4~Y">
      <text x="5" y="-4" style="fill:#000; stroke:none" class="cell_$mul$fir4tap.v:49$4">Y</text>
    </g>
  </g>
  <g s:type="dff" transform="translate(887,631.5)" s:width="30" s:height="40" id="cell_$procdff$41">
    <s:alias val="$dff"/>
    <s:alias val="$_DFF_"/>
    <s:alias val="$_DFF_P_"/>
    <rect width="30" height="40" x="0" y="0" class="cell_$procdff$41"/>
    <path d="M0,35 L5,30 L0,25" class="cell_$procdff$41"/>
    <g s:x="30" s:y="10" s:pid="Q"/>
    <g s:x="0" s:y="30" s:pid="CLK"/>
    <g s:x="0" s:y="30" s:pid="C"/>
    <g s:x="0" s:y="10" s:pid="D"/>
  </g>
  <g s:type="dff" transform="translate(887,733.5)" s:width="30" s:height="40" id="cell_$procdff$42">
    <s:alias val="$dff"/>
    <s:alias val="$_DFF_"/>
    <s:alias val="$_DFF_P_"/>
    <rect width="30" height="40" x="0" y="0" class="cell_$procdff$42"/>
    <path d="M0,35 L5,30 L0,25" class="cell_$procdff$42"/>
    <g s:x="30" s:y="10" s:pid="Q"/>
    <g s:x="0" s:y="30" s:pid="CLK"/>
    <g s:x="0" s:y="30" s:pid="C"/>
    <g s:x="0" s:y="10" s:pid="D"/>
  </g>
  <g s:type="dff" transform="translate(952,546.5)" s:width="30" s:height="40" id="cell_$procdff$43">
    <s:alias val="$dff"/>
    <s:alias val="$_DFF_"/>
    <s:alias val="$_DFF_P_"/>
    <rect width="30" height="40" x="0" y="0" class="cell_$procdff$43"/>
    <path d="M0,35 L5,30 L0,25" class="cell_$procdff$43"/>
    <g s:x="30" s:y="10" s:pid="Q"/>
    <g s:x="0" s:y="30" s:pid="CLK"/>
    <g s:x="0" s:y="30" s:pid="C"/>
    <g s:x="0" s:y="10" s:pid="D"/>
  </g>
  <g s:type="dff" transform="translate(670,682.5)" s:width="30" s:height="40" id="cell_$procdff$44">
    <s:alias val="$dff"/>
    <s:alias val="$_DFF_"/>
    <s:alias val="$_DFF_P_"/>
    <rect width="30" height="40" x="0" y="0" class="cell_$procdff$44"/>
    <path d="M0,35 L5,30 L0,25" class="cell_$procdff$44"/>
    <g s:x="30" s:y="10" s:pid="Q"/>
    <g s:x="0" s:y="30" s:pid="CLK"/>
    <g s:x="0" s:y="30" s:pid="C"/>
    <g s:x="0" s:y="10" s:pid="D"/>
  </g>
  <g s:type="mux" transform="translate(754.3333333333334,322)" s:width="20" s:height="40" id="cell_$procmux$10">
    <s:alias val="$pmux"/>
    <s:alias val="$mux"/>
    <s:alias val="$_MUX_"/>
    <path d="M0,0 L20,10 L20,30 L0,40 Z" class="cell_$procmux$10"/>
    <g s:x="0" s:y="10" s:pid="A"/>
    <g s:x="0" s:y="30" s:pid="B"/>
    <g s:x="10" s:y="35" s:pid="S"/>
    <g s:x="20" s:y="20" s:pid="Y"/>
  </g>
  <g s:type="mux" transform="translate(831,332)" s:width="20" s:height="40" id="cell_$procmux$13">
    <s:alias val="$pmux"/>
    <s:alias val="$mux"/>
    <s:alias val="$_MUX_"/>
    <path d="M0,0 L20,10 L20,30 L0,40 Z" class="cell_$procmux$13"/>
    <g s:x="0" s:y="10" s:pid="A"/>
    <g s:x="0" s:y="30" s:pid="B"/>
    <g s:x="10" s:y="35" s:pid="S"/>
    <g s:x="20" s:y="20" s:pid="Y"/>
  </g>
  <g s:type="mux" transform="translate(754.3333333333334,186)" s:width="20" s:height="40" id="cell_$procmux$15">
    <s:alias val="$pmux"/>
    <s:alias val="$mux"/>
    <s:alias val="$_MUX_"/>
    <path d="M0,0 L20,10 L20,30 L0,40 Z" class="cell_$procmux$15"/>
    <g s:x="0" s:y="10" s:pid="A"/>
    <g s:x="0" s:y="30" s:pid="B"/>
    <g s:x="10" s:y="35" s:pid="S"/>
    <g s:x="20" s:y="20" s:pid="Y"/>
  </g>
  <g s:type="mux" transform="translate(831,247)" s:width="20" s:height="40" id="cell_$procmux$18">
    <s:alias val="$pmux"/>
    <s:alias val="$mux"/>
    <s:alias val="$_MUX_"/>
    <path d="M0,0 L20,10 L20,30 L0,40 Z" class="cell_$procmux$18"/>
    <g s:x="0" s:y="10" s:pid="A"/>
    <g s:x="0" s:y="30" s:pid="B"/>
    <g s:x="10" s:y="35" s:pid="S"/>
    <g s:x="20" s:y="20" s:pid="Y"/>
  </g>
  <g s:type="mux" transform="translate(754.3333333333334,105)" s:width="20" s:height="40" id="cell_$procmux$20">
    <s:alias val="$pmux"/>
    <s:alias val="$mux"/>
    <s:alias val="$_MUX_"/>
    <path d="M0,0 L20,10 L20,30 L0,40 Z" class="cell_$procmux$20"/>
    <g s:x="0" s:y="10" s:pid="A"/>
    <g s:x="0" s:y="30" s:pid="B"/>
    <g s:x="10" s:y="35" s:pid="S"/>
    <g s:x="20" s:y="20" s:pid="Y"/>
  </g>
  <g s:type="mux" transform="translate(831,115)" s:width="20" s:height="40" id="cell_$procmux$23">
    <s:alias val="$pmux"/>
    <s:alias val="$mux"/>
    <s:alias val="$_MUX_"/>
    <path d="M0,0 L20,10 L20,30 L0,40 Z" class="cell_$procmux$23"/>
    <g s:x="0" s:y="10" s:pid="A"/>
    <g s:x="0" s:y="30" s:pid="B"/>
    <g s:x="10" s:y="35" s:pid="S"/>
    <g s:x="20" s:y="20" s:pid="Y"/>
  </g>
  <g s:type="mux" transform="translate(754.3333333333334,24)" s:width="20" s:height="40" id="cell_$procmux$25">
    <s:alias val="$pmux"/>
    <s:alias val="$mux"/>
    <s:alias val="$_MUX_"/>
    <path d="M0,0 L20,10 L20,30 L0,40 Z" class="cell_$procmux$25"/>
    <g s:x="0" s:y="10" s:pid="A"/>
    <g s:x="0" s:y="30" s:pid="B"/>
    <g s:x="10" s:y="35" s:pid="S"/>
    <g s:x="20" s:y="20" s:pid="Y"/>
  </g>
  <g s:type="mux" transform="translate(831,34)" s:width="20" s:height="40" id="cell_$procmux$28">
    <s:alias val="$pmux"/>
    <s:alias val="$mux"/>
    <s:alias val="$_MUX_"/>
    <path d="M0,0 L20,10 L20,30 L0,40 Z" class="cell_$procmux$28"/>
    <g s:x="0" s:y="10" s:pid="A"/>
    <g s:x="0" s:y="30" s:pid="B"/>
    <g s:x="10" s:y="35" s:pid="S"/>
    <g s:x="20" s:y="20" s:pid="Y"/>
  </g>
  <g s:type="mux" transform="translate(600.3333333333334,632.5)" s:width="20" s:height="40" id="cell_$procmux$31">
    <s:alias val="$pmux"/>
    <s:alias val="$mux"/>
    <s:alias val="$_MUX_"/>
    <path d="M0,0 L20,10 L20,30 L0,40 Z" class="cell_$procmux$31"/>
    <g s:x="0" s:y="10" s:pid="A"/>
    <g s:x="0" s:y="30" s:pid="B"/>
    <g s:x="10" s:y="35" s:pid="S"/>
    <g s:x="20" s:y="20" s:pid="Y"/>
  </g>
  <g s:type="mux" transform="translate(831,702.5)" s:width="20" s:height="40" id="cell_$procmux$34">
    <s:alias val="$pmux"/>
    <s:alias val="$mux"/>
    <s:alias val="$_MUX_"/>
    <path d="M0,0 L20,10 L20,30 L0,40 Z" class="cell_$procmux$34"/>
    <g s:x="0" s:y="10" s:pid="A"/>
    <g s:x="0" s:y="30" s:pid="B"/>
    <g s:x="10" s:y="35" s:pid="S"/>
    <g s:x="20" s:y="20" s:pid="Y"/>
  </g>
  <g s:type="mux" transform="translate(757.6666666666666,591.5)" s:width="20" s:height="40" id="cell_$procmux$36">
    <s:alias val="$pmux"/>
    <s:alias val="$mux"/>
    <s:alias val="$_MUX_"/>
    <path d="M0,0 L20,10 L20,30 L0,40 Z" class="cell_$procmux$36"/>
    <g s:x="0" s:y="10" s:pid="A"/>
    <g s:x="0" s:y="30" s:pid="B"/>
    <g s:x="10" s:y="35" s:pid="S"/>
    <g s:x="20" s:y="20" s:pid="Y"/>
  </g>
  <g s:type="mux" transform="translate(831,601.5)" s:width="20" s:height="40" id="cell_$procmux$39">
    <s:alias val="$pmux"/>
    <s:alias val="$mux"/>
    <s:alias val="$_MUX_"/>
    <path d="M0,0 L20,10 L20,30 L0,40 Z" class="cell_$procmux$39"/>
    <g s:x="0" s:y="10" s:pid="A"/>
    <g s:x="0" s:y="30" s:pid="B"/>
    <g s:x="10" s:y="35" s:pid="S"/>
    <g s:x="20" s:y="20" s:pid="Y"/>
  </g>
  <g s:type="inputExt" transform="translate(597,702.5)" s:width="30" s:height="20" id="cell_clk">
    <text x="15" y="-4" class="nodelabel cell_clk" s:attribute="ref">clk</text>
    <s:alias val="$_inputExt_"/>
    <path d="M0,0 L0,20 L15,20 L30,10 L15,0 Z" class="cell_clk"/>
    <g s:x="28" s:y="10" s:pid="Y"/>
  </g>
  <g s:type="inputExt" transform="translate(443,457)" s:width="30" s:height="20" id="cell_rst">
    <text x="15" y="-4" class="nodelabel cell_rst" s:attribute="ref">rst</text>
    <s:alias val="$_inputExt_"/>
    <path d="M0,0 L0,20 L15,20 L30,10 L15,0 Z" class="cell_rst"/>
    <g s:x="28" s:y="10" s:pid="Y"/>
  </g>
  <g s:type="inputExt" transform="translate(32,393.5)" s:width="30" s:height="20" id="cell_coeff_0">
    <text x="15" y="-4" class="nodelabel cell_coeff_0" s:attribute="ref">coeff_0</text>
    <s:alias val="$_inputExt_"/>
    <path d="M0,0 L0,20 L15,20 L30,10 L15,0 Z" class="cell_coeff_0"/>
    <g s:x="28" s:y="10" s:pid="Y"/>
  </g>
  <g s:type="inputExt" transform="translate(32,481.5)" s:width="30" s:height="20" id="cell_coeff_1">
    <text x="15" y="-4" class="nodelabel cell_coeff_1" s:attribute="ref">coeff_1</text>
    <s:alias val="$_inputExt_"/>
    <path d="M0,0 L0,20 L15,20 L30,10 L15,0 Z" class="cell_coeff_1"/>
    <g s:x="28" s:y="10" s:pid="Y"/>
  </g>
  <g s:type="inputExt" transform="translate(131,542)" s:width="30" s:height="20" id="cell_coeff_2">
    <text x="15" y="-4" class="nodelabel cell_coeff_2" s:attribute="ref">coeff_2</text>
    <s:alias val="$_inputExt_"/>
    <path d="M0,0 L0,20 L15,20 L30,10 L15,0 Z" class="cell_coeff_2"/>
    <g s:x="28" s:y="10" s:pid="Y"/>
  </g>
  <g s:type="inputExt" transform="translate(287,602.5)" s:width="30" s:height="20" id="cell_coeff_3">
    <text x="15" y="-4" class="nodelabel cell_coeff_3" s:attribute="ref">coeff_3</text>
    <s:alias val="$_inputExt_"/>
    <path d="M0,0 L0,20 L15,20 L30,10 L15,0 Z" class="cell_coeff_3"/>
    <g s:x="28" s:y="10" s:pid="Y"/>
  </g>
  <g s:type="inputExt" transform="translate(662,44)" s:width="30" s:height="20" id="cell_sample_in">
    <text x="15" y="-4" class="nodelabel cell_sample_in" s:attribute="ref">sample_in</text>
    <s:alias val="$_inputExt_"/>
    <path d="M0,0 L0,20 L15,20 L30,10 L15,0 Z" class="cell_sample_in"/>
    <g s:x="28" s:y="10" s:pid="Y"/>
  </g>
  <g s:type="inputExt" transform="translate(443,237)" s:width="30" s:height="20" id="cell_sample_valid">
    <text x="15" y="-4" class="nodelabel cell_sample_valid" s:attribute="ref">sample_valid</text>
    <s:alias val="$_inputExt_"/>
    <path d="M0,0 L0,20 L15,20 L30,10 L15,0 Z" class="cell_sample_valid"/>
    <g s:x="28" s:y="10" s:pid="Y"/>
  </g>
  <g s:type="outputExt" transform="translate(952,631.5)" s:width="30" s:height="20" id="cell_result">
    <text x="15" y="-4" class="nodelabel cell_result" s:attribute="ref">result</text>
    <s:alias val="$_outputExt_"/>
    <path d="M30,0 L30,20 L15,20 L0,10 L15,0 Z" class="cell_result"/>
    <g s:x="0" s:y="10" s:pid="A"/>
  </g>
  <g s:type="outputExt" transform="translate(952,733.5)" s:width="30" s:height="20" id="cell_result_valid">
    <text x="15" y="-4" class="nodelabel cell_result_valid" s:attribute="ref">result_valid</text>
    <s:alias val="$_outputExt_"/>
    <path d="M30,0 L30,20 L15,20 L0,10 L15,0 Z" class="cell_result_valid"/>
    <g s:x="0" s:y="10" s:pid="A"/>
  </g>
  <g s:type="constant" transform="translate(751,267)" s:width="30" s:height="20" id="cell_0000000000000000">
    <text x="15" y="-4" class="nodelabel cell_0000000000000000" s:attribute="ref">0x0</text>
    <s:alias val="$_constant_"/>
    <rect width="30" height="20" class="cell_0000000000000000"/>
    <g s:x="30" s:y="10" s:pid="Y"/>
  </g>
  <g s:type="constant" transform="translate(443,722.5)" s:width="30" s:height="20" id="cell_0">
    <text x="15" y="-4" class="nodelabel cell_0" s:attribute="ref">0</text>
    <s:alias val="$_constant_"/>
    <rect width="30" height="20" class="cell_0"/>
    <g s:x="30" s:y="10" s:pid="Y"/>
  </g>
  <g s:type="join" transform="translate(911,216.5)" s:width="4" s:height="40" id="cell_$join$,323,324,325,326,327,328,329,330,331,332,333,334,335,336,337,338,339,340,341,342,343,344,345,346,347,348,349,350,351,352,353,354,355,356,357,358,359,360,361,362,363,364,365,366,367,368,369,370,371,372,373,374,375,376,377,378,379,380,381,382,383,384,385,386,">
    <rect width="5" height="80" class="splitjoinBody" s:generic="body"/>
    <s:alias val="$_join_"/>
    <g s:x="5" s:y="20" s:pid="out"/>
    <g transform="translate(0,10)" s:x="0" s:y="10" s:pid="in0">
      <text x="-3" y="-4" class="inputPortLabel">0:15</text>
    </g>
    <g transform="translate(0,30)" s:x="0" s:y="10" s:pid="in0">
      <text x="-3" y="-4" class="inputPortLabel">16:31</text>
    </g>
    <g transform="translate(0,50)" s:x="0" s:y="10" s:pid="in0">
      <text x="-3" y="-4" class="inputPortLabel">32:47</text>
    </g>
    <g transform="translate(0,70)" s:x="0" s:y="10" s:pid="in0">
      <text x="-3" y="-4" class="inputPortLabel">48:63</text>
    </g>
  </g>
  <g s:type="split" transform="translate(44,261.5)" s:width="5" s:height="40" id="cell_$split$,242,243,244,245,246,247,248,249,250,251,252,253,254,255,256,257,258,259,260,261,262,263,264,265,266,267,268,269,270,271,272,273,274,275,276,277,278,279,280,281,282,283,284,285,286,287,288,289,290,291,292,293,294,295,296,297,298,299,300,301,302,303,304,305,">
    <rect width="5" height="80" class="splitjoinBody" s:generic="body"/>
    <s:alias val="$_split_"/>
    <g s:x="0" s:y="20" s:pid="in"/>
    <g transform="translate(4,10)" s:x="4" s:y="10" s:pid="out0">
      <text x="5" y="-4">0:15</text>
    </g>
    <g transform="translate(4,30)" s:x="4" s:y="10" s:pid="out0">
      <text x="5" y="-4">16:31</text>
    </g>
    <g transform="translate(4,50)" s:x="4" s:y="10" s:pid="out0">
      <text x="5" y="-4">32:47</text>
    </g>
    <g transform="translate(4,70)" s:x="4" s:y="10" s:pid="out0">
      <text x="5" y="-4">48:63</text>
    </g>
  </g>
  <g s:type="split" transform="translate(686,424)" s:width="5" s:height="40" id="cell_$split$,218,219,220,221,222,223,224,225,226,227,228,229,230,231,232,233,234,235,236,237,238,239,240,241,">
    <rect width="5" height="20" class="splitjoinBody" s:generic="body"/>
    <s:alias val="$_split_"/>
    <g s:x="0" s:y="20" s:pid="in"/>
    <g transform="translate(4,10)" s:x="4" s:y="10" s:pid="out0">
      <text x="5" y="-4">8:23</text>
    </g>
  </g>
  <line x1="162" x2="255" y1="383.5" y2="383.5" class="net_74,75,76,77,78,79,80,81,82,83,84,85,86,87,88,89,90,91,92,93,94,95,96,97"/>
  <line x1="255" x2="255" y1="383.5" y2="456.5" class="net_74,75,76,77,78,79,80,81,82,83,84,85,86,87,88,89,90,91,92,93,94,95,96,97"/>
  <line x1="255" x2="317.3333333333333" y1="456.5" y2="456.5" class="net_74,75,76,77,78,79,80,81,82,83,84,85,86,87,88,89,90,91,92,93,94,95,96,97"/>
  <line x1="162" x2="317.3333333333333" y1="471.5" y2="471.5" class="net_98,99,100,101,102,103,104,105,106,107,108,109,110,111,112,113,114,115,116,117,118,119,120,121"/>
  <line x1="339.3333333333333" x2="411" y1="464" y2="464" class="net_122,123,124,125,126,127,128,129,130,131,132,133,134,135,136,137,138,139,140,141,142,143,144,145"/>
  <line x1="411" x2="411" y1="464" y2="517" class="net_122,123,124,125,126,127,128,129,130,131,132,133,134,135,136,137,138,139,140,141,142,143,144,145"/>
  <line x1="411" x2="473.3333333333333" y1="517" y2="517" class="net_122,123,124,125,126,127,128,129,130,131,132,133,134,135,136,137,138,139,140,141,142,143,144,145"/>
  <line x1="318" x2="473.3333333333333" y1="532" y2="532" class="net_146,147,148,149,150,151,152,153,154,155,156,157,158,159,160,161,162,163,164,165,166,167,168,169"/>
  <line x1="495.3333333333333" x2="567" y1="524.5" y2="524.5" class="net_170,171,172,173,174,175,176,177,178,179,180,181,182,183,184,185,186,187,188,189,190,191,192,193"/>
  <line x1="567" x2="567" y1="524.5" y2="577.5" class="net_170,171,172,173,174,175,176,177,178,179,180,181,182,183,184,185,186,187,188,189,190,191,192,193"/>
  <line x1="567" x2="601.6666666666666" y1="577.5" y2="577.5" class="net_170,171,172,173,174,175,176,177,178,179,180,181,182,183,184,185,186,187,188,189,190,191,192,193"/>
  <line x1="474" x2="601.6666666666666" y1="592.5" y2="592.5" class="net_194,195,196,197,198,199,200,201,202,203,204,205,206,207,208,209,210,211,212,213,214,215,216,217"/>
  <line x1="49" x2="94" y1="272" y2="272" class="net_242,243,244,245,246,247,248,249,250,251,252,253,254,255,256,257"/>
  <line x1="94" x2="94" y1="272" y2="383.5" class="net_242,243,244,245,246,247,248,249,250,251,252,253,254,255,256,257"/>
  <circle cx="94" cy="272" r="2" style="fill:#000" class="net_242,243,244,245,246,247,248,249,250,251,252,253,254,255,256,257"/>
  <line x1="94" x2="131" y1="383.5" y2="383.5" class="net_242,243,244,245,246,247,248,249,250,251,252,253,254,255,256,257"/>
  <line x1="49" x2="94" y1="272" y2="272" class="net_242,243,244,245,246,247,248,249,250,251,252,253,254,255,256,257"/>
  <line x1="94" x2="94" y1="272" y2="135" class="net_242,243,244,245,246,247,248,249,250,251,252,253,254,255,256,257"/>
  <circle cx="94" cy="135" r="2" style="fill:#000" class="net_242,243,244,245,246,247,248,249,250,251,252,253,254,255,256,257"/>
  <line x1="94" x2="754.3333333333334" y1="135" y2="135" class="net_242,243,244,245,246,247,248,249,250,251,252,253,254,255,256,257"/>
  <line x1="49" x2="94" y1="272" y2="272" class="net_242,243,244,245,246,247,248,249,250,251,252,253,254,255,256,257"/>
  <line x1="94" x2="94" y1="272" y2="23" class="net_242,243,244,245,246,247,248,249,250,251,252,253,254,255,256,257"/>
  <line x1="94" x2="726" y1="23" y2="23" class="net_242,243,244,245,246,247,248,249,250,251,252,253,254,255,256,257"/>
  <line x1="726" x2="726" y1="23" y2="34" class="net_242,243,244,245,246,247,248,249,250,251,252,253,254,255,256,257"/>
  <line x1="726" x2="754.3333333333334" y1="34" y2="34" class="net_242,243,244,245,246,247,248,249,250,251,252,253,254,255,256,257"/>
  <line x1="60" x2="131" y1="403.5" y2="403.5" class="net_4,5,6,7,8,9,10,11,12"/>
  <line x1="49" x2="114" y1="292" y2="292" class="net_258,259,260,261,262,263,264,265,266,267,268,269,270,271,272,273"/>
  <line x1="114" x2="114" y1="292" y2="471.5" class="net_258,259,260,261,262,263,264,265,266,267,268,269,270,271,272,273"/>
  <circle cx="114" cy="292" r="2" style="fill:#000" class="net_258,259,260,261,262,263,264,265,266,267,268,269,270,271,272,273"/>
  <line x1="114" x2="131" y1="471.5" y2="471.5" class="net_258,259,260,261,262,263,264,265,266,267,268,269,270,271,272,273"/>
  <line x1="49" x2="114" y1="292" y2="292" class="net_258,259,260,261,262,263,264,265,266,267,268,269,270,271,272,273"/>
  <line x1="114" x2="114" y1="292" y2="216" class="net_258,259,260,261,262,263,264,265,266,267,268,269,270,271,272,273"/>
  <circle cx="114" cy="216" r="2" style="fill:#000" class="net_258,259,260,261,262,263,264,265,266,267,268,269,270,271,272,273"/>
  <line x1="114" x2="754.3333333333334" y1="216" y2="216" class="net_258,259,260,261,262,263,264,265,266,267,268,269,270,271,272,273"/>
  <line x1="49" x2="114" y1="292" y2="292" class="net_258,259,260,261,262,263,264,265,266,267,268,269,270,271,272,273"/>
  <line x1="114" x2="114" y1="292" y2="115" class="net_258,259,260,261,262,263,264,265,266,267,268,269,270,271,272,273"/>
  <line x1="114" x2="754.3333333333334" y1="115" y2="115" class="net_258,259,260,261,262,263,264,265,266,267,268,269,270,271,272,273"/>
  <line x1="60" x2="131" y1="491.5" y2="491.5" class="net_13,14,15,16,17,18,19,20,21"/>
  <line x1="49" x2="104" y1="312" y2="312" class="net_274,275,276,277,278,279,280,281,282,283,284,285,286,287,288,289"/>
  <line x1="104" x2="104" y1="312" y2="521" class="net_274,275,276,277,278,279,280,281,282,283,284,285,286,287,288,289"/>
  <line x1="104" x2="255" y1="521" y2="521" class="net_274,275,276,277,278,279,280,281,282,283,284,285,286,287,288,289"/>
  <line x1="255" x2="255" y1="521" y2="532" class="net_274,275,276,277,278,279,280,281,282,283,284,285,286,287,288,289"/>
  <circle cx="104" cy="312" r="2" style="fill:#000" class="net_274,275,276,277,278,279,280,281,282,283,284,285,286,287,288,289"/>
  <line x1="255" x2="287" y1="532" y2="532" class="net_274,275,276,277,278,279,280,281,282,283,284,285,286,287,288,289"/>
  <line x1="49" x2="104" y1="312" y2="312" class="net_274,275,276,277,278,279,280,281,282,283,284,285,286,287,288,289"/>
  <line x1="104" x2="104" y1="312" y2="352" class="net_274,275,276,277,278,279,280,281,282,283,284,285,286,287,288,289"/>
  <circle cx="104" cy="352" r="2" style="fill:#000" class="net_274,275,276,277,278,279,280,281,282,283,284,285,286,287,288,289"/>
  <line x1="104" x2="754.3333333333334" y1="352" y2="352" class="net_274,275,276,277,278,279,280,281,282,283,284,285,286,287,288,289"/>
  <line x1="49" x2="104" y1="312" y2="312" class="net_274,275,276,277,278,279,280,281,282,283,284,285,286,287,288,289"/>
  <line x1="104" x2="104" y1="312" y2="196" class="net_274,275,276,277,278,279,280,281,282,283,284,285,286,287,288,289"/>
  <line x1="104" x2="754.3333333333334" y1="196" y2="196" class="net_274,275,276,277,278,279,280,281,282,283,284,285,286,287,288,289"/>
  <line x1="159" x2="287" y1="552" y2="552" class="net_22,23,24,25,26,27,28,29,30"/>
  <line x1="49" x2="84" y1="332" y2="332" class="net_290,291,292,293,294,295,296,297,298,299,300,301,302,303,304,305"/>
  <line x1="84" x2="84" y1="332" y2="581.5" class="net_290,291,292,293,294,295,296,297,298,299,300,301,302,303,304,305"/>
  <line x1="84" x2="411" y1="581.5" y2="581.5" class="net_290,291,292,293,294,295,296,297,298,299,300,301,302,303,304,305"/>
  <line x1="411" x2="411" y1="581.5" y2="592.5" class="net_290,291,292,293,294,295,296,297,298,299,300,301,302,303,304,305"/>
  <circle cx="84" cy="332" r="2" style="fill:#000" class="net_290,291,292,293,294,295,296,297,298,299,300,301,302,303,304,305"/>
  <line x1="411" x2="443" y1="592.5" y2="592.5" class="net_290,291,292,293,294,295,296,297,298,299,300,301,302,303,304,305"/>
  <line x1="49" x2="754.3333333333334" y1="332" y2="332" class="net_290,291,292,293,294,295,296,297,298,299,300,301,302,303,304,305"/>
  <line x1="315" x2="443" y1="612.5" y2="612.5" class="net_31,32,33,34,35,36,37,38,39"/>
  <line x1="625" x2="637" y1="712.5" y2="712.5" class="net_2"/>
  <line x1="637" x2="637" y1="712.5" y2="661.5" class="net_2"/>
  <circle cx="637" cy="712.5" r="2" style="fill:#000" class="net_2"/>
  <line x1="637" x2="887" y1="661.5" y2="661.5" class="net_2"/>
  <line x1="625" x2="637" y1="712.5" y2="712.5" class="net_2"/>
  <line x1="637" x2="637" y1="712.5" y2="763.5" class="net_2"/>
  <line x1="637" x2="887" y1="763.5" y2="763.5" class="net_2"/>
  <line x1="625" x2="637" y1="712.5" y2="712.5" class="net_2"/>
  <line x1="637" x2="637" y1="712.5" y2="661.5" class="net_2"/>
  <line x1="637" x2="861" y1="661.5" y2="661.5" class="net_2"/>
  <line x1="861" x2="861" y1="661.5" y2="576.5" class="net_2"/>
  <circle cx="861" cy="661.5" r="2" style="fill:#000" class="net_2"/>
  <line x1="861" x2="952" y1="576.5" y2="576.5" class="net_2"/>
  <line x1="625" x2="670" y1="712.5" y2="712.5" class="net_2"/>
  <line x1="851" x2="871" y1="621.5" y2="621.5" class="net_306,307,308,309,310,311,312,313,314,315,316,317,318,319,320,321"/>
  <line x1="871" x2="871" y1="621.5" y2="641.5" class="net_306,307,308,309,310,311,312,313,314,315,316,317,318,319,320,321"/>
  <line x1="871" x2="887" y1="641.5" y2="641.5" class="net_306,307,308,309,310,311,312,313,314,315,316,317,318,319,320,321"/>
  <line x1="851" x2="861" y1="722.5" y2="722.5" class="net_322"/>
  <line x1="861" x2="861" y1="722.5" y2="743.5" class="net_322"/>
  <line x1="861" x2="887" y1="743.5" y2="743.5" class="net_322"/>
  <line x1="917" x2="927" y1="237" y2="237" class="net_323,324,325,326,327,328,329,330,331,332,333,334,335,336,337,338,339,340,341,342,343,344,345,346,347,348,349,350,351,352,353,354,355,356,357,358,359,360,361,362,363,364,365,366,367,368,369,370,371,372,373,374,375,376,377,378,379,380,381,382,383,384,385,386"/>
  <line x1="927" x2="927" y1="237" y2="556.5" class="net_323,324,325,326,327,328,329,330,331,332,333,334,335,336,337,338,339,340,341,342,343,344,345,346,347,348,349,350,351,352,353,354,355,356,357,358,359,360,361,362,363,364,365,366,367,368,369,370,371,372,373,374,375,376,377,378,379,380,381,382,383,384,385,386"/>
  <line x1="927" x2="952" y1="556.5" y2="556.5" class="net_323,324,325,326,327,328,329,330,331,332,333,334,335,336,337,338,339,340,341,342,343,344,345,346,347,348,349,350,351,352,353,354,355,356,357,358,359,360,361,362,363,364,365,366,367,368,369,370,371,372,373,374,375,376,377,378,379,380,381,382,383,384,385,386"/>
  <line x1="620.3333333333334" x2="647" y1="652.5" y2="652.5" class="net_387"/>
  <line x1="647" x2="647" y1="652.5" y2="692.5" class="net_387"/>
  <line x1="647" x2="670" y1="692.5" y2="692.5" class="net_387"/>
  <line x1="471" x2="587" y1="247" y2="247" class="net_56"/>
  <line x1="587" x2="587" y1="247" y2="478" class="net_56"/>
  <line x1="587" x2="764.3333333333334" y1="478" y2="478" class="net_56"/>
  <circle cx="587" cy="247" r="2" style="fill:#000" class="net_56"/>
  <circle cx="587" cy="478" r="2" style="fill:#000" class="net_56"/>
  <line x1="764.3333333333334" x2="764.3333333333334" y1="478" y2="357" class="net_56"/>
  <line x1="471" x2="764.3333333333334" y1="247" y2="247" class="net_56"/>
  <line x1="764.3333333333334" x2="764.3333333333334" y1="247" y2="221" class="net_56"/>
  <line x1="471" x2="587" y1="247" y2="247" class="net_56"/>
  <line x1="587" x2="587" y1="247" y2="176" class="net_56"/>
  <line x1="587" x2="764.3333333333334" y1="176" y2="176" class="net_56"/>
  <circle cx="587" cy="176" r="2" style="fill:#000" class="net_56"/>
  <line x1="764.3333333333334" x2="764.3333333333334" y1="176" y2="140" class="net_56"/>
  <line x1="471" x2="587" y1="247" y2="247" class="net_56"/>
  <line x1="587" x2="587" y1="247" y2="95" class="net_56"/>
  <line x1="587" x2="764.3333333333334" y1="95" y2="95" class="net_56"/>
  <line x1="764.3333333333334" x2="764.3333333333334" y1="95" y2="59" class="net_56"/>
  <line x1="471" x2="587" y1="247" y2="247" class="net_56"/>
  <line x1="587" x2="587" y1="247" y2="642.5" class="net_56"/>
  <line x1="587" x2="600.3333333333334" y1="642.5" y2="642.5" class="net_56"/>
  <line x1="774.3333333333334" x2="831" y1="342" y2="342" class="net_389,390,391,392,393,394,395,396,397,398,399,400,401,402,403,404"/>
  <line x1="781" x2="801" y1="277" y2="277" class="net_469,470,471,472,473,474,475,476,477,478,479,480,481,482,483,484"/>
  <line x1="801" x2="801" y1="277" y2="362" class="net_469,470,471,472,473,474,475,476,477,478,479,480,481,482,483,484"/>
  <circle cx="801" cy="277" r="2" style="fill:#000" class="net_469,470,471,472,473,474,475,476,477,478,479,480,481,482,483,484"/>
  <circle cx="801" cy="362" r="2" style="fill:#000" class="net_469,470,471,472,473,474,475,476,477,478,479,480,481,482,483,484"/>
  <line x1="801" x2="831" y1="362" y2="362" class="net_469,470,471,472,473,474,475,476,477,478,479,480,481,482,483,484"/>
  <line x1="781" x2="831" y1="277" y2="277" class="net_469,470,471,472,473,474,475,476,477,478,479,480,481,482,483,484"/>
  <line x1="781" x2="801" y1="277" y2="277" class="net_469,470,471,472,473,474,475,476,477,478,479,480,481,482,483,484"/>
  <line x1="801" x2="801" y1="277" y2="145" class="net_469,470,471,472,473,474,475,476,477,478,479,480,481,482,483,484"/>
  <circle cx="801" cy="145" r="2" style="fill:#000" class="net_469,470,471,472,473,474,475,476,477,478,479,480,481,482,483,484"/>
  <line x1="801" x2="831" y1="145" y2="145" class="net_469,470,471,472,473,474,475,476,477,478,479,480,481,482,483,484"/>
  <line x1="781" x2="801" y1="277" y2="277" class="net_469,470,471,472,473,474,475,476,477,478,479,480,481,482,483,484"/>
  <line x1="801" x2="801" y1="277" y2="64" class="net_469,470,471,472,473,474,475,476,477,478,479,480,481,482,483,484"/>
  <line x1="801" x2="831" y1="64" y2="64" class="net_469,470,471,472,473,474,475,476,477,478,479,480,481,482,483,484"/>
  <line x1="781" x2="801" y1="277" y2="277" class="net_469,470,471,472,473,474,475,476,477,478,479,480,481,482,483,484"/>
  <line x1="801" x2="801" y1="277" y2="631.5" class="net_469,470,471,472,473,474,475,476,477,478,479,480,481,482,483,484"/>
  <line x1="801" x2="831" y1="631.5" y2="631.5" class="net_469,470,471,472,473,474,475,476,477,478,479,480,481,482,483,484"/>
  <line x1="471" x2="841" y1="467" y2="467" class="net_3"/>
  <line x1="841" x2="841" y1="467" y2="367" class="net_3"/>
  <line x1="471" x2="577" y1="467" y2="467" class="net_3"/>
  <line x1="577" x2="577" y1="467" y2="165" class="net_3"/>
  <line x1="577" x2="821" y1="165" y2="165" class="net_3"/>
  <line x1="821" x2="821" y1="165" y2="297" class="net_3"/>
  <line x1="821" x2="841" y1="297" y2="297" class="net_3"/>
  <circle cx="577" cy="467" r="2" style="fill:#000" class="net_3"/>
  <circle cx="577" cy="165" r="2" style="fill:#000" class="net_3"/>
  <circle cx="821" cy="165" r="2" style="fill:#000" class="net_3"/>
  <line x1="841" x2="841" y1="297" y2="282" class="net_3"/>
  <line x1="471" x2="577" y1="467" y2="467" class="net_3"/>
  <line x1="577" x2="577" y1="467" y2="165" class="net_3"/>
  <line x1="577" x2="841" y1="165" y2="165" class="net_3"/>
  <line x1="841" x2="841" y1="165" y2="150" class="net_3"/>
  <line x1="471" x2="577" y1="467" y2="467" class="net_3"/>
  <line x1="577" x2="577" y1="467" y2="84" class="net_3"/>
  <line x1="577" x2="841" y1="84" y2="84" class="net_3"/>
  <line x1="841" x2="841" y1="84" y2="69" class="net_3"/>
  <line x1="471" x2="577" y1="467" y2="467" class="net_3"/>
  <line x1="577" x2="577" y1="467" y2="682.5" class="net_3"/>
  <line x1="577" x2="610.3333333333334" y1="682.5" y2="682.5" class="net_3"/>
  <circle cx="577" cy="682.5" r="2" style="fill:#000" class="net_3"/>
  <line x1="610.3333333333334" x2="610.3333333333334" y1="682.5" y2="667.5" class="net_3"/>
  <line x1="471" x2="577" y1="467" y2="467" class="net_3"/>
  <line x1="577" x2="577" y1="467" y2="752.5" class="net_3"/>
  <line x1="577" x2="841" y1="752.5" y2="752.5" class="net_3"/>
  <line x1="841" x2="841" y1="752.5" y2="737.5" class="net_3"/>
  <line x1="471" x2="577" y1="467" y2="467" class="net_3"/>
  <line x1="577" x2="577" y1="467" y2="561.5" class="net_3"/>
  <line x1="577" x2="791" y1="561.5" y2="561.5" class="net_3"/>
  <line x1="791" x2="791" y1="561.5" y2="651.5" class="net_3"/>
  <line x1="791" x2="841" y1="651.5" y2="651.5" class="net_3"/>
  <circle cx="577" cy="561.5" r="2" style="fill:#000" class="net_3"/>
  <line x1="841" x2="841" y1="651.5" y2="636.5" class="net_3"/>
  <line x1="774.3333333333334" x2="811" y1="206" y2="206" class="net_405,406,407,408,409,410,411,412,413,414,415,416,417,418,419,420"/>
  <line x1="811" x2="811" y1="206" y2="257" class="net_405,406,407,408,409,410,411,412,413,414,415,416,417,418,419,420"/>
  <line x1="811" x2="831" y1="257" y2="257" class="net_405,406,407,408,409,410,411,412,413,414,415,416,417,418,419,420"/>
  <line x1="774.3333333333334" x2="831" y1="125" y2="125" class="net_421,422,423,424,425,426,427,428,429,430,431,432,433,434,435,436"/>
  <line x1="690" x2="754.3333333333334" y1="54" y2="54" class="net_40,41,42,43,44,45,46,47,48,49,50,51,52,53,54,55"/>
  <line x1="774.3333333333334" x2="831" y1="44" y2="44" class="net_437,438,439,440,441,442,443,444,445,446,447,448,449,450,451,452"/>
  <line x1="473" x2="587" y1="732.5" y2="732.5" class="net_533"/>
  <line x1="587" x2="587" y1="732.5" y2="662.5" class="net_533"/>
  <circle cx="587" cy="732.5" r="2" style="fill:#000" class="net_533"/>
  <line x1="587" x2="600.3333333333334" y1="662.5" y2="662.5" class="net_533"/>
  <line x1="473" x2="831" y1="732.5" y2="732.5" class="net_533"/>
  <line x1="700" x2="791" y1="692.5" y2="692.5" class="net_388"/>
  <line x1="791" x2="791" y1="692.5" y2="712.5" class="net_388"/>
  <line x1="791" x2="831" y1="712.5" y2="712.5" class="net_388"/>
  <line x1="700" x2="736" y1="692.5" y2="692.5" class="net_388"/>
  <line x1="736" x2="736" y1="692.5" y2="672.5" class="net_388"/>
  <line x1="736" x2="767.6666666666666" y1="672.5" y2="672.5" class="net_388"/>
  <circle cx="736" cy="692.5" r="2" style="fill:#000" class="net_388"/>
  <line x1="767.6666666666666" x2="767.6666666666666" y1="672.5" y2="626.5" class="net_388"/>
  <line x1="917" x2="927" y1="641.5" y2="641.5" class="net_57,58,59,60,61,62,63,64,65,66,67,68,69,70,71,72"/>
  <line x1="927" x2="927" y1="641.5" y2="682.5" class="net_57,58,59,60,61,62,63,64,65,66,67,68,69,70,71,72"/>
  <line x1="927" x2="726" y1="682.5" y2="682.5" class="net_57,58,59,60,61,62,63,64,65,66,67,68,69,70,71,72"/>
  <line x1="726" x2="726" y1="682.5" y2="601.5" class="net_57,58,59,60,61,62,63,64,65,66,67,68,69,70,71,72"/>
  <circle cx="927" cy="641.5" r="2" style="fill:#000" class="net_57,58,59,60,61,62,63,64,65,66,67,68,69,70,71,72"/>
  <line x1="726" x2="757.6666666666666" y1="601.5" y2="601.5" class="net_57,58,59,60,61,62,63,64,65,66,67,68,69,70,71,72"/>
  <line x1="917" x2="952" y1="641.5" y2="641.5" class="net_57,58,59,60,61,62,63,64,65,66,67,68,69,70,71,72"/>
  <line x1="691" x2="736" y1="434.5" y2="434.5" class="net_226,227,228,229,230,231,232,233,234,235,236,237,238,239,240,241"/>
  <line x1="736" x2="736" y1="434.5" y2="621.5" class="net_226,227,228,229,230,231,232,233,234,235,236,237,238,239,240,241"/>
  <line x1="736" x2="757.6666666666666" y1="621.5" y2="621.5" class="net_226,227,228,229,230,231,232,233,234,235,236,237,238,239,240,241"/>
  <line x1="777.6666666666666" x2="831" y1="611.5" y2="611.5" class="net_453,454,455,456,457,458,459,460,461,462,463,464,465,466,467,468"/>
  <line x1="917" x2="952" y1="743.5" y2="743.5" class="net_73"/>
  <line x1="851" x2="871" y1="54" y2="54" class="net_323,324,325,326,327,328,329,330,331,332,333,334,335,336,337,338"/>
  <line x1="871" x2="871" y1="54" y2="227" class="net_323,324,325,326,327,328,329,330,331,332,333,334,335,336,337,338"/>
  <line x1="871" x2="911" y1="227" y2="227" class="net_323,324,325,326,327,328,329,330,331,332,333,334,335,336,337,338"/>
  <line x1="851" x2="861" y1="135" y2="135" class="net_339,340,341,342,343,344,345,346,347,348,349,350,351,352,353,354"/>
  <line x1="861" x2="861" y1="135" y2="247" class="net_339,340,341,342,343,344,345,346,347,348,349,350,351,352,353,354"/>
  <line x1="861" x2="911" y1="247" y2="247" class="net_339,340,341,342,343,344,345,346,347,348,349,350,351,352,353,354"/>
  <line x1="851" x2="911" y1="267" y2="267" class="net_355,356,357,358,359,360,361,362,363,364,365,366,367,368,369,370"/>
  <line x1="851" x2="911.5" y1="352" y2="352" class="net_371,372,373,374,375,376,377,378,379,380,381,382,383,384,385,386"/>
  <line x1="911.5" x2="911.5" y1="352" y2="287.5" class="net_371,372,373,374,375,376,377,378,379,380,381,382,383,384,385,386"/>
  <line x1="982" x2="1034" y1="556.5" y2="556.5" class="net_242,243,244,245,246,247,248,249,250,251,252,253,254,255,256,257,258,259,260,261,262,263,264,265,266,267,268,269,270,271,272,273,274,275,276,277,278,279,280,281,282,283,284,285,286,287,288,289,290,291,292,293,294,295,296,297,298,299,300,301,302,303,304,305"/>
  <line x1="1034" x2="1034" y1="556.5" y2="12" class="net_242,243,244,245,246,247,248,249,250,251,252,253,254,255,256,257,258,259,260,261,262,263,264,265,266,267,268,269,270,271,272,273,274,275,276,277,278,279,280,281,282,283,284,285,286,287,288,289,290,291,292,293,294,295,296,297,298,299,300,301,302,303,304,305"/>
  <line x1="1034" x2="12" y1="12" y2="12" class="net_242,243,244,245,246,247,248,249,250,251,252,253,254,255,256,257,258,259,260,261,262,263,264,265,266,267,268,269,270,271,272,273,274,275,276,277,278,279,280,281,282,283,284,285,286,287,288,289,290,291,292,293,294,295,296,297,298,299,300,301,302,303,304,305"/>
  <line x1="12" x2="12" y1="12" y2="282" class="net_242,243,244,245,246,247,248,249,250,251,252,253,254,255,256,257,258,259,260,261,262,263,264,265,266,267,268,269,270,271,272,273,274,275,276,277,278,279,280,281,282,283,284,285,286,287,288,289,290,291,292,293,294,295,296,297,298,299,300,301,302,303,304,305"/>
  <line x1="12" x2="44" y1="282" y2="282" class="net_242,243,244,245,246,247,248,249,250,251,252,253,254,255,256,257,258,259,260,261,262,263,264,265,266,267,268,269,270,271,272,273,274,275,276,277,278,279,280,281,282,283,284,285,286,287,288,289,290,291,292,293,294,295,296,297,298,299,300,301,302,303,304,305"/>
  <line x1="623.6666666666666" x2="637" y1="585" y2="585" class="net_218,219,220,221,222,223,224,225,226,227,228,229,230,231,232,233,234,235,236,237,238,239,240,241"/>
  <line x1="637" x2="637" y1="585" y2="457" class="net_218,219,220,221,222,223,224,225,226,227,228,229,230,231,232,233,234,235,236,237,238,239,240,241"/>
  <line x1="637" x2="686.5" y1="457" y2="457" class="net_218,219,220,221,222,223,224,225,226,227,228,229,230,231,232,233,234,235,236,237,238,239,240,241"/>
  <line x1="686.5" x2="686.5" y1="457" y2="445" class="net_218,219,220,221,222,223,224,225,226,227,228,229,230,231,232,233,234,235,236,237,238,239,240,241"/>
</svg>
