<svg xmlns="http://www.w3.org/2000/svg" xmlns:xlink="http://www.w3.org/1999/xlink" xmlns:s="https://github.com/nturley/netlistsvg" width="659" height="1184">
  <style>svg {
    stroke:#000;
    fill:none;
  }
  text {
    fill:#000;
    stroke:none;
    font-size:10px;
    font-weight: bold;
    font-family: "Courier New", monospace;
  }
  .nodelabel {
    text-anchor: middle;
  }
  .inputPortLabel {
    text-anchor: end;
  }
  .splitjoinBody {
    fill:#000;
  }</style>
  <g s:type="not" transform="translate(488,1032)" s:width="30" s:height="20" id="cell_:19">
    <s:alias val="$_NOT_"/>
    <s:alias val="$not"/>
    <s:alias val="$logic_not"/>
    <path d="M0,0 L0,20 L20,10 Z" class="cell_:19"/>
    <circle cx="23" cy="10" r="3" class="cell_:19"/>
    <g s:x="0" s:y="10" s:pid="A"/>
    <g s:x="25" s:y="10" s:pid="Y"/>
  </g>
  <g s:type="mux" transform="translate(556,192.5)" s:width="20" s:height="40" id="cell_:20">
    <s:alias val="$pmux"/>
    <s:alias val="$mux"/>
    <s:alias val="$_MUX_"/>
    <path d="M0,0 L20,10 L20,30 L0,40 Z" class="cell_:20"/>
    <g s:x="0" s:y="10" s:pid="A"/>
    <g s:x="0" s:y="30" s:pid="B"/>
    <g s:x="10" s:y="35" s:pid="S"/>
    <g s:x="20" s:y="20" s:pid="Y"/>
  </g>
  <g s:type="not" transform="translate(488,1152)" s:width="30" s:height="20" id="cell_:28">
    <s:alias val="$_NOT_"/>
    <s:alias val="$not"/>
    <s:alias val="$logic_not"/>
    <path d="M0,0 L0,20 L20,10 Z" class="cell_:28"/>
    <circle cx="23" cy="10" r="3" class="cell_:28"/>
    <g s:x="0" s:y="10" s:pid="A"/>
    <g s:x="25" s:y="10" s:pid="Y"/>
  </g>
  <g s:type="mux" transform="translate(556,1077)" s:width="20" s:height="40" id="cell_:29">
    <s:alias val="$pmux"/>
    <s:alias val="$mux"/>
    <s:alias val="$_MUX_"/>
    <path d="M0,0 L20,10 L20,30 L0,40 Z" class="cell_:29"/>
    <g s:x="0" s:y="10" s:pid="A"/>
    <g s:x="0" s:y="30" s:pid="B"/>
    <g s:x="10" s:y="35" s:pid="S"/>
    <g s:x="20" s:y="20" s:pid="Y"/>
  </g>
  <g s:type="generic" transform="translate(84,832)" s:width="30" s:height="40" id="cell_:7">
    <text x="15" y="-4" class="nodelabel cell_:7" s:attribute="ref">≠0</text>
    <rect width="30" height="20" s:generic="body" class="cell_:7"/>
    <g transform="translate(0,10)" s:x="0" s:y="10" s:pid="in0" id="port_:7~A">
      <text x="-3" y="-4" class="inputPortLabel cell_:7">A</text>
    </g>
    <g transform="translate(30,10)" s:x="30" s:y="10" s:pid="out0" id="port_:7~Y">
      <text x="5" y="-4" style="fill:#000; stroke:none" class="cell_:7">Y</text>
    </g>
  </g>
  <g s:type="and" transform="translate(159,890)" s:width="30" s:height="25" id="cell_:8">
    <s:alias val="$and"/>
    <s:alias val="$logic_and"/>
    <s:alias val="$_AND_"/>
    <path d="M0,0 L0,25 L15,25 A15 12.5 0 0 0 15,0 Z" class="cell_:8"/>
    <g s:x="0" s:y="5" s:pid="A"/>
    <g s:x="0" s:y="20" s:pid="B"/>
    <g s:x="30" s:y="12.5" s:pid="Y"/>
  </g>
  <g s:type="generic" transform="translate(376,202)" s:width="30" s:height="40" id="cell_regs">
    <text x="15" y="-4" class="nodelabel cell_regs" s:attribute="ref">RAM</text>
    <rect width="30" height="180" s:generic="body" class="cell_regs"/>
    <g transform="translate(0,10)" s:x="0" s:y="10" s:pid="in0" id="port_regs~RD_ADDR">
      <text x="-3" y="-4" class="inputPortLabel cell_regs">RD_ADDR</text>
    </g>
    <g transform="translate(0,30)" s:x="0" s:y="10" s:pid="in0" id="port_regs~RD_ARST">
      <text x="-3" y="-4" class="inputPortLabel cell_regs">RD_ARST</text>
    </g>
    <g transform="translate(0,50)" s:x="0" s:y="10" s:pid="in0" id="port_regs~RD_CLK">
      <text x="-3" y="-4" class="inputPortLabel cell_regs">RD_CLK</text>
    </g>
    <g transform="translate(0,70)" s:x="0" s:y="10" s:pid="in0" id="port_regs~RD_EN">
      <text x="-3" y="-4" class="inputPortLabel cell_regs">RD_EN</text>
    </g>
    <g transform="translate(0,90)" s:x="0" s:y="10" s:pid="in0" id="port_regs~RD_SRST">
      <text x="-3" y="-4" class="inputPortLabel cell_regs">RD_SRST</text>
    </g>
    <g transform="translate(0,110)" s:x="0" s:y="10" s:pid="in0" id="port_regs~WR_ADDR">
      <text x="-3" y="-4" class="inputPortLabel cell_regs">WR_ADDR</text>
    </g>
    <g transform="translate(0,130)" s:x="0" s:y="10" s:pid="in0" id="port_regs~WR_CLK">
      <text x="-3" y="-4" class="inputPortLabel cell_regs">WR_CLK</text>
    </g>
    <g transform="translate(0,150)" s:x="0" s:y="10" s:pid="in0" id="port_regs~WR_DATA">
      <text x="-3" y="-4" class="inputPortLabel cell_regs">WR_DATA</text>
    </g>
    <g transform="translate(0,170)" s:x="0" s:y="10" s:pid="in0" id="port_regs~WR_EN">
      <text x="-3" y="-4" class="inputPortLabel cell_regs">WR_EN</text>
    </g>
    <g transform="translate(30,10)" s:x="30" s:y="10" s:pid="out0" id="port_regs~RD_DATA">
      <text x="5" y="-4" style="fill:#000; stroke:none" class="cell_regs">RD_DATA</text>
    </g>
  </g>
  <g s:type="inputExt" transform="translate(233,215)" s:width="30" s:height="20" id="cell_clk">
    <text x="15" y="-4" class="nodelabel cell_clk" s:attribute="ref">clk</text>
    <s:alias val="$_inputExt_"/>
    <path d="M0,0 L0,20 L15,20 L30,10 L15,0 Z" class="cell_clk"/>
    <g s:x="28" s:y="10" s:pid="Y"/>
  </g>
  <g s:type="inputExt" transform="translate(84,900)" s:width="30" s:height="20" id="cell_we">
    <text x="15" y="-4" class="nodelabel cell_we" s:attribute="ref">we</text>
    <s:alias val="$_inputExt_"/>
    <path d="M0,0 L0,20 L15,20 L30,10 L15,0 Z" class="cell_we"/>
    <g s:x="28" s:y="10" s:pid="Y"/>
  </g>
  <g s:type="inputExt" transform="translate(12,832.5)" s:width="30" s:height="20" id="cell_waddr">
    <text x="15" y="-4" class="nodelabel cell_waddr" s:attribute="ref">waddr</text>
    <s:alias val="$_inputExt_"/>
    <path d="M0,0 L0,20 L15,20 L30,10 L15,0 Z" class="cell_waddr"/>
    <g s:x="28" s:y="10" s:pid="Y"/>
  </g>
  <g s:type="inputExt" transform="translate(233,280)" s:width="30" s:height="20" id="cell_wdata">
    <text x="15" y="-4" class="nodelabel cell_wdata" s:attribute="ref">wdata</text>
    <s:alias val="$_inputExt_"/>
    <path d="M0,0 L0,20 L15,20 L30,10 L15,0 Z" class="cell_wdata"/>
    <g s:x="28" s:y="10" s:pid="Y"/>
  </g>
  <g s:type="inputExt" transform="translate(157,835)" s:width="30" s:height="20" id="cell_raddr1">
    <text x="15" y="-4" class="nodelabel cell_raddr1" s:attribute="ref">raddr1</text>
    <s:alias val="$_inputExt_"/>
    <path d="M0,0 L0,20 L15,20 L30,10 L15,0 Z" class="cell_raddr1"/>
    <g s:x="28" s:y="10" s:pid="Y"/>
  </g>
  <g s:type="inputExt" transform="translate(157,770)" s:width="30" s:height="20" id="cell_raddr2">
    <text x="15" y="-4" class="nodelabel cell_raddr2" s:attribute="ref">raddr2</text>
    <s:alias val="$_inputExt_"/>
    <path d="M0,0 L0,20 L15,20 L30,10 L15,0 Z" class="cell_raddr2"/>
    <g s:x="28" s:y="10" s:pid="Y"/>
  </g>
  <g s:type="outputExt" transform="translate(611,202.5)" s:width="30" s:height="20" id="cell_rdata1">
    <text x="15" y="-4" class="nodelabel cell_rdata1" s:attribute="ref">rdata1</text>
    <s:alias val="$_outputExt_"/>
    <path d="M30,0 L30,20 L15,20 L0,10 L15,0 Z" class="cell_rdata1"/>
    <g s:x="0" s:y="10" s:pid="A"/>
  </g>
  <g s:type="outputExt" transform="translate(611,1087)" s:width="30" s:height="20" id="cell_rdata2">
    <text x="15" y="-4" class="nodelabel cell_rdata2" s:attribute="ref">rdata2</text>
    <s:alias val="$_outputExt_"/>
    <path d="M30,0 L30,20 L15,20 L0,10 L15,0 Z" class="cell_rdata2"/>
    <g s:x="0" s:y="10" s:pid="A"/>
  </g>
  <g s:type="constant" transform="translate(485,1097)" s:width="30" s:height="20" id="cell_00000000000000000000000000000000">
    <text x="15" y="-4" class="nodelabel cell_00000000000000000000000000000000" s:attribute="ref">0x0</text>
    <s:alias val="$_constant_"/>
    <rect width="30" height="20" class="cell_00000000000000000000000000000000"/>
    <g s:x="30" s:y="10" s:pid="Y"/>
  </g>
  <g s:type="constant" transform="translate(233,99)" s:width="30" s:height="20" id="cell_00">
    <text x="15" y="-4" class="nodelabel cell_00" s:attribute="ref">00</text>
    <s:alias val="$_constant_"/>
    <rect width="30" height="20" class="cell_00"/>
    <g s:x="30" s:y="10" s:pid="Y"/>
  </g>
  <g s:type="constant" transform="translate(233,164)" s:width="30" s:height="20" id="cell_11">
    <text x="15" y="-4" class="nodelabel cell_11" s:attribute="ref">11</text>
    <s:alias val="$_constant_"/>
    <rect width="30" height="20" class="cell_11"/>
    <g s:x="30" s:y="10" s:pid="Y"/>
  </g>
  <g s:type="join" transform="translate(252,14)" s:width="4" s:height="40" id="cell_$join$,46,47,48,49,50,41,42,43,44,45,">
    <rect width="5" height="40" class="splitjoinBody" s:generic="body"/>
    <s:alias val="$_join_"/>
    <g s:x="5" s:y="20" s:pid="out"/>
    <g transform="translate(0,10)" s:x="0" s:y="10" s:pid="in0">
      <text x="-3" y="-4" class="inputPortLabel">0:4</text>
    </g>
    <g transform="translate(0,30)" s:x="0" s:y="10" s:pid="in0">
      <text x="-3" y="-4" class="inputPortLabel">5:9</text>
    </g>
  </g>
  <g s:type="join" transform="translate(251.52,352)" s:width="4" s:height="40" id="cell_$join$,182,182,182,182,182,182,182,182,182,182,182,182,182,182,182,182,182,182,182,182,182,182,182,182,182,182,182,182,182,182,182,182,">
    <rect width="5" height="640" class="splitjoinBody" s:generic="body"/>
    <s:alias val="$_join_"/>
    <g s:x="5" s:y="20" s:pid="out"/>
    <g transform="translate(0,10)" s:x="0" s:y="10" s:pid="in0">
      <text x="-3" y="-4" class="inputPortLabel">0</text>
    </g>
    <g transform="translate(0,30)" s:x="0" s:y="10" s:pid="in0">
      <text x="-3" y="-4" class="inputPortLabel">1</text>
    </g>
    <g transform="translate(0,50)" s:x="0" s:y="10" s:pid="in0">
      <text x="-3" y="-4" class="inputPortLabel">2</text>
    </g>
    <g transform="translate(0,70)" s:x="0" s:y="10" s:pid="in0">
      <text x="-3" y="-4" class="inputPortLabel">3</text>
    </g>
    <g transform="translate(0,90)" s:x="0" s:y="10" s:pid="in0">
      <text x="-3" y="-4" class="inputPortLabel">4</text>
    </g>
    <g transform="translate(0,110)" s:x="0" s:y="10" s:pid="in0">
      <text x="-3" y="-4" class="inputPortLabel">5</text>
    </g>
    <g transform="translate(0,130)" s:x="0" s:y="10" s:pid="in0">
      <text x="-3" y="-4" class="inputPortLabel">6</text>
    </g>
    <g transform="translate(0,150)" s:x="0" s:y="10" s:pid="in0">
      <text x="-3" y="-4" class="inputPortLabel">7</text>
    </g>
    <g transform="translate(0,170)" s:x="0" s:y="10" s:pid="in0">
      <text x="-3" y="-4" class="inputPortLabel">8</text>
    </g>
    <g transform="translate(0,190)" s:x="0" s:y="10" s:pid="in0">
      <text x="-3" y="-4" class="inputPortLabel">9</text>
    </g>
    <g transform="translate(0,210)" s:x="0" s:y="10" s:pid="in0">
      <text x="-3" y="-4" class="inputPortLabel">10</text>
    </g>
    <g transform="translate(0,230)" s:x="0" s:y="10" s:pid="in0">
      <text x="-3" y="-4" class="inputPortLabel">11</text>
    </g>
    <g transform="translate(0,250)" s:x="0" s:y="10" s:pid="in0">
      <text x="-3" y="-4" class="inputPortLabel">12</text>
    </g>
    <g transform="translate(0,270)" s:x="0" s:y="10" s:pid="in0">
      <text x="-3" y="-4" class="inputPortLabel">13</text>
    </g>
    <g transform="translate(0,290)" s:x="0" s:y="10" s:pid="in0">
      <text x="-3" y="-4" class="inputPortLabel">14</text>
    </g>
    <g transform="translate(0,310)" s:x="0" s:y="10" s:pid="in0">
      <text x="-3" y="-4" class="inputPortLabel">15</text>
    </g>
    <g transform="translate(0,330)" s:x="0" s:y="10" s:pid="in0">
      <text x="-3" y="-4" class="inputPortLabel">16</text>
    </g>
    <g transform="translate(0,350)" s:x="0" s:y="10" s:pid="in0">
      <text x="-3" y="-4" class="inputPortLabel">17</text>
    </g>
    <g transform="translate(0,370)" s:x="0" s:y="10" s:pid="in0">
      <text x="-3" y="-4" class="inputPortLabel">18</text>
    </g>
    <g transform="translate(0,390)" s:x="0" s:y="10" s:pid="in0">
      <text x="-3" y="-4" class="inputPortLabel">19</text>
    </g>
    <g transform="translate(0,410)" s:x="0" s:y="10" s:pid="in0">
      <text x="-3" y="-4" class="inputPortLabel">20</text>
    </g>
    <g transform="translate(0,430)" s:x="0" s:y="10" s:pid="in0">
      <text x="-3" y="-4" class="inputPortLabel">21</text>
    </g>
    <g transform="translate(0,450)" s:x="0" s:y="10" s:pid="in0">
      <text x="-3" y="-4" class="inputPortLabel">22</text>
    </g>
    <g transform="translate(0,470)" s:x="0" s:y="10" s:pid="in0">
      <text x="-3" y="-4" class="inputPortLabel">23</text>
    </g>
    <g transform="translate(0,490)" s:x="0" s:y="10" s:pid="in0">
      <text x="-3" y="-4" class="inputPortLabel">24</text>
    </g>
    <g transform="translate(0,510)" s:x="0" s:y="10" s:pid="in0">
      <text x="-3" y="-4" class="inputPortLabel">25</text>
    </g>
    <g transform="translate(0,530)" s:x="0" s:y="10" s:pid="in0">
      <text x="-3" y="-4" class="inputPortLabel">26</text>
    </g>
    <g transform="translate(0,550)" s:x="0" s:y="10" s:pid="in0">
      <text x="-3" y="-4" class="inputPortLabel">27</text>
    </g>
    <g transform="translate(0,570)" s:x="0" s:y="10" s:pid="in0">
      <text x="-3" y="-4" class="inputPortLabel">28</text>
    </g>
    <g transform="translate(0,590)" s:x="0" s:y="10" s:pid="in0">
      <text x="-3" y="-4" class="inputPortLabel">29</text>
    </g>
    <g transform="translate(0,610)" s:x="0" s:y="10" s:pid="in0">
      <text x="-3" y="-4" class="inputPortLabel">30</text>
    </g>
    <g transform="translate(0,630)" s:x="0" s:y="10" s:pid="in0">
      <text x="-3" y="-4" class="inputPortLabel">31</text>
    </g>
  </g>
  <g s:type="split" transform="translate(485,192)" s:width="5" s:height="40" id="cell_$split$,149,150,151,152,153,154,155,156,157,158,159,160,161,162,163,164,165,166,167,168,169,170,171,172,173,174,175,176,177,178,179,180,116,117,118,119,120,121,122,123,124,125,126,127,128,129,130,131,132,133,134,135,136,137,138,139,140,141,142,143,144,145,146,147,">
    <rect width="5" height="40" class="splitjoinBody" s:generic="body"/>
    <s:alias val="$_split_"/>
    <g s:x="0" s:y="20" s:pid="in"/>
    <g transform="translate(4,10)" s:x="4" s:y="10" s:pid="out0">
      <text x="5" y="-4">32:63</text>
    </g>
    <g transform="translate(4,30)" s:x="4" s:y="10" s:pid="out0">
      <text x="5" y="-4">0:31</text>
    </g>
  </g>
  <line x1="185" x2="213" y1="845" y2="845" class="net_41,42,43,44,45"/>
  <line x1="213" x2="213" y1="845" y2="1042" class="net_41,42,43,44,45"/>
  <circle cx="213" cy="845" r="2" style="fill:#000" class="net_41,42,43,44,45"/>
  <line x1="213" x2="488" y1="1042" y2="1042" class="net_41,42,43,44,45"/>
  <line x1="185" x2="213" y1="845" y2="845" class="net_41,42,43,44,45"/>
  <line x1="213" x2="213" y1="845" y2="44.5" class="net_41,42,43,44,45"/>
  <line x1="213" x2="252" y1="44.5" y2="44.5" class="net_41,42,43,44,45"/>
  <line x1="490" x2="556" y1="202.5" y2="202.5" class="net_116,117,118,119,120,121,122,123,124,125,126,127,128,129,130,131,132,133,134,135,136,137,138,139,140,141,142,143,144,145,146,147"/>
  <line x1="515" x2="541" y1="1107" y2="1107" class="net_183,184,185,186,187,188,189,190,191,192,193,194,195,196,197,198,199,200,201,202,203,204,205,206,207,208,209,210,211,212,213,214"/>
  <line x1="541" x2="541" y1="1107" y2="222.5" class="net_183,184,185,186,187,188,189,190,191,192,193,194,195,196,197,198,199,200,201,202,203,204,205,206,207,208,209,210,211,212,213,214"/>
  <circle cx="541" cy="1107" r="2" style="fill:#000" class="net_183,184,185,186,187,188,189,190,191,192,193,194,195,196,197,198,199,200,201,202,203,204,205,206,207,208,209,210,211,212,213,214"/>
  <line x1="541" x2="556" y1="222.5" y2="222.5" class="net_183,184,185,186,187,188,189,190,191,192,193,194,195,196,197,198,199,200,201,202,203,204,205,206,207,208,209,210,211,212,213,214"/>
  <line x1="515" x2="556" y1="1107" y2="1107" class="net_183,184,185,186,187,188,189,190,191,192,193,194,195,196,197,198,199,200,201,202,203,204,205,206,207,208,209,210,211,212,213,214"/>
  <line x1="513" x2="566" y1="1042" y2="1042" class="net_115"/>
  <line x1="566" x2="566" y1="1042" y2="227.5" class="net_115"/>
  <line x1="185" x2="203" y1="780" y2="780" class="net_46,47,48,49,50"/>
  <line x1="203" x2="203" y1="780" y2="1162" class="net_46,47,48,49,50"/>
  <circle cx="203" cy="780" r="2" style="fill:#000" class="net_46,47,48,49,50"/>
  <line x1="203" x2="488" y1="1162" y2="1162" class="net_46,47,48,49,50"/>
  <line x1="185" x2="203" y1="780" y2="780" class="net_46,47,48,49,50"/>
  <line x1="203" x2="203" y1="780" y2="24.5" class="net_46,47,48,49,50"/>
  <line x1="203" x2="252" y1="24.5" y2="24.5" class="net_46,47,48,49,50"/>
  <line x1="490" x2="531" y1="222.5" y2="222.5" class="net_149,150,151,152,153,154,155,156,157,158,159,160,161,162,163,164,165,166,167,168,169,170,171,172,173,174,175,176,177,178,179,180"/>
  <line x1="531" x2="531" y1="222.5" y2="1087" class="net_149,150,151,152,153,154,155,156,157,158,159,160,161,162,163,164,165,166,167,168,169,170,171,172,173,174,175,176,177,178,179,180"/>
  <line x1="531" x2="556" y1="1087" y2="1087" class="net_149,150,151,152,153,154,155,156,157,158,159,160,161,162,163,164,165,166,167,168,169,170,171,172,173,174,175,176,177,178,179,180"/>
  <line x1="513" x2="566" y1="1162" y2="1162" class="net_148"/>
  <line x1="566" x2="566" y1="1162" y2="1112" class="net_148"/>
  <line x1="40" x2="84" y1="842.5" y2="842.5" class="net_4,5,6,7,8"/>
  <line x1="40" x2="52" y1="842.5" y2="842.5" class="net_4,5,6,7,8"/>
  <line x1="52" x2="52" y1="842.5" y2="194" class="net_4,5,6,7,8"/>
  <line x1="52" x2="293" y1="194" y2="194" class="net_4,5,6,7,8"/>
  <line x1="293" x2="293" y1="194" y2="312.5" class="net_4,5,6,7,8"/>
  <circle cx="52" cy="842.5" r="2" style="fill:#000" class="net_4,5,6,7,8"/>
  <line x1="293" x2="376" y1="312.5" y2="312.5" class="net_4,5,6,7,8"/>
  <line x1="115" x2="132" y1="842.5" y2="842.5" class="net_181"/>
  <line x1="132" x2="132" y1="842.5" y2="895" class="net_181"/>
  <line x1="132" x2="159" y1="895" y2="895" class="net_181"/>
  <line x1="112" x2="159" y1="910" y2="910" class="net_3"/>
  <line x1="258" x2="323" y1="34.5" y2="34.5" class="net_46,47,48,49,50,41,42,43,44,45"/>
  <line x1="323" x2="323" y1="34.5" y2="212.5" class="net_46,47,48,49,50,41,42,43,44,45"/>
  <line x1="323" x2="376" y1="212.5" y2="212.5" class="net_46,47,48,49,50,41,42,43,44,45"/>
  <line x1="263" x2="313" y1="109" y2="109" class="net_247,248"/>
  <line x1="313" x2="313" y1="109" y2="232.5" class="net_247,248"/>
  <circle cx="313" cy="232.5" r="2" style="fill:#000" class="net_247,248"/>
  <line x1="313" x2="376" y1="232.5" y2="232.5" class="net_247,248"/>
  <line x1="263" x2="313" y1="109" y2="109" class="net_247,248"/>
  <line x1="313" x2="313" y1="109" y2="252.5" class="net_247,248"/>
  <circle cx="313" cy="252.5" r="2" style="fill:#000" class="net_247,248"/>
  <line x1="313" x2="376" y1="252.5" y2="252.5" class="net_247,248"/>
  <line x1="263" x2="313" y1="109" y2="109" class="net_247,248"/>
  <line x1="313" x2="313" y1="109" y2="292.5" class="net_247,248"/>
  <line x1="313" x2="376" y1="292.5" y2="292.5" class="net_247,248"/>
  <line x1="263" x2="303" y1="174" y2="174" class="net_251,252"/>
  <line x1="303" x2="303" y1="174" y2="272.5" class="net_251,252"/>
  <line x1="303" x2="376" y1="272.5" y2="272.5" class="net_251,252"/>
  <line x1="261" x2="283" y1="225" y2="225" class="net_2"/>
  <line x1="283" x2="283" y1="225" y2="332.5" class="net_2"/>
  <line x1="283" x2="376" y1="332.5" y2="332.5" class="net_2"/>
  <line x1="261" x2="273" y1="290" y2="290" class="net_9,10,11,12,13,14,15,16,17,18,19,20,21,22,23,24,25,26,27,28,29,30,31,32,33,34,35,36,37,38,39,40"/>
  <line x1="273" x2="273" y1="290" y2="352.5" class="net_9,10,11,12,13,14,15,16,17,18,19,20,21,22,23,24,25,26,27,28,29,30,31,32,33,34,35,36,37,38,39,40"/>
  <line x1="273" x2="376" y1="352.5" y2="352.5" class="net_9,10,11,12,13,14,15,16,17,18,19,20,21,22,23,24,25,26,27,28,29,30,31,32,33,34,35,36,37,38,39,40"/>
  <line x1="257.52" x2="376" y1="372.5" y2="372.5" class="net_182,182,182,182,182,182,182,182,182,182,182,182,182,182,182,182,182,182,182,182,182,182,182,182,182,182,182,182,182,182,182,182"/>
  <line x1="576" x2="611" y1="212.5" y2="212.5" class="net_51,52,53,54,55,56,57,58,59,60,61,62,63,64,65,66,67,68,69,70,71,72,73,74,75,76,77,78,79,80,81,82"/>
  <line x1="576" x2="611" y1="1097" y2="1097" class="net_83,84,85,86,87,88,89,90,91,92,93,94,95,96,97,98,99,100,101,102,103,104,105,106,107,108,109,110,111,112,113,114"/>
  <line x1="189" x2="223" y1="902.5" y2="902.5" class="net_182"/>
  <line x1="223" x2="223" y1="902.5" y2="340" class="net_182"/>
  <line x1="223" x2="252.02" y1="340" y2="340" class="net_182"/>
  <circle cx="223" cy="902.5" r="2" style="fill:#000" class="net_182"/>
  <circle cx="223" cy="340" r="2" style="fill:#000" class="net_182"/>
  <line x1="252.02" x2="252.02" y1="340" y2="362" class="net_182"/>
  <line x1="189" x2="223" y1="902.5" y2="902.5" class="net_182"/>
  <line x1="223" x2="223" y1="902.5" y2="330" class="net_182"/>
  <line x1="223" x2="252.02" y1="330" y2="330" class="net_182"/>
  <circle cx="223" cy="330" r="2" style="fill:#000" class="net_182"/>
  <line x1="252.02" x2="252.02" y1="330" y2="382" class="net_182"/>
  <line x1="189" x2="223" y1="902.5" y2="902.5" class="net_182"/>
  <line x1="223" x2="223" y1="902.5" y2="320" class="net_182"/>
  <line x1="223" x2="252.02" y1="320" y2="320" class="net_182"/>
  <circle cx="223" cy="320" r="2" style="fill:#000" class="net_182"/>
  <line x1="252.02" x2="252.02" y1="320" y2="402" class="net_182"/>
  <line x1="189" x2="223" y1="902.5" y2="902.5" class="net_182"/>
  <line x1="223" x2="223" y1="902.5" y2="310" class="net_182"/>
  <line x1="223" x2="252.02" y1="310" y2="310" class="net_182"/>
  <line x1="252.02" x2="252.02" y1="310" y2="422" class="net_182"/>
  <line x1="189" x2="223" y1="902.5" y2="902.5" class="net_182"/>
  <line x1="223" x2="223" y1="902.5" y2="442.5" class="net_182"/>
  <circle cx="223" cy="442.5" r="2" style="fill:#000" class="net_182"/>
  <line x1="223" x2="251.52" y1="442.5" y2="442.5" class="net_182"/>
  <line x1="189" x2="223" y1="902.5" y2="902.5" class="net_182"/>
  <line x1="223" x2="223" y1="902.5" y2="462.5" class="net_182"/>
  <circle cx="223" cy="462.5" r="2" style="fill:#000" class="net_182"/>
  <line x1="223" x2="251.52" y1="462.5" y2="462.5" class="net_182"/>
  <line x1="189" x2="223" y1="902.5" y2="902.5" class="net_182"/>
  <line x1="223" x2="223" y1="902.5" y2="482.5" class="net_182"/>
  <circle cx="223" cy="482.5" r="2" style="fill:#000" class="net_182"/>
  <line x1="223" x2="251.52" y1="482.5" y2="482.5" class="net_182"/>
  <line x1="189" x2="223" y1="902.5" y2="902.5" class="net_182"/>
  <line x1="223" x2="223" y1="902.5" y2="502.5" class="net_182"/>
  <circle cx="223" cy="502.5" r="2" style="fill:#000" class="net_182"/>
  <line x1="223" x2="251.52" y1="502.5" y2="502.5" class="net_182"/>
  <line x1="189" x2="223" y1="902.5" y2="902.5" class="net_182"/>
  <line x1="223" x2="223" y1="902.5" y2="522.5" class="net_182"/>
  <circle cx="223" cy="522.5" r="2" style="fill:#000" class="net_182"/>
  <line x1="223" x2="251.52" y1="522.5" y2="522.5" class="net_182"/>
  <line x1="189" x2="223" y1="902.5" y2="902.5" class="net_182"/>
  <line x1="223" x2="223" y1="902.5" y2="542.5" class="net_182"/>
  <circle cx="223" cy="542.5" r="2" style="fill:#000" class="net_182"/>
  <line x1="223" x2="251.52" y1="542.5" y2="542.5" class="net_182"/>
  <line x1="189" x2="223" y1="902.5" y2="902.5" class="net_182"/>
  <line x1="223" x2="223" y1="902.5" y2="562.5" class="net_182"/>
  <circle cx="223" cy="562.5" r="2" style="fill:#000" class="net_182"/>
  <line x1="223" x2="251.52" y1="562.5" y2="562.5" class="net_182"/>
  <line x1="189" x2="223" y1="902.5" y2="902.5" class="net_182"/>
  <line x1="223" x2="223" y1="902.5" y2="582.5" class="net_182"/>
  <circle cx="223" cy="582.5" r="2" style="fill:#000" class="net_182"/>
  <line x1="223" x2="251.52" y1="582.5" y2="582.5" class="net_182"/>
  <line x1="189" x2="223" y1="902.5" y2="902.5" class="net_182"/>
  <line x1="223" x2="223" y1="902.5" y2="602.5" class="net_182"/>
  <circle cx="223" cy="602.5" r="2" style="fill:#000" class="net_182"/>
  <line x1="223" x2="251.52" y1="602.5" y2="602.5" class="net_182"/>
  <line x1="189" x2="223" y1="902.5" y2="902.5" class="net_182"/>
  <line x1="223" x2="223" y1="902.5" y2="622.5" class="net_182"/>
  <circle cx="223" cy="622.5" r="2" style="fill:#000" class="net_182"/>
  <line x1="223" x2="251.52" y1="622.5" y2="622.5" class="net_182"/>
  <line x1="189" x2="223" y1="902.5" y2="902.5" class="net_182"/>
  <line x1="223" x2="223" y1="902.5" y2="642.5" class="net_182"/>
  <circle cx="223" cy="642.5" r="2" style="fill:#000" class="net_182"/>
  <line x1="223" x2="251.52" y1="642.5" y2="642.5" class="net_182"/>
  <line x1="189" x2="223" y1="902.5" y2="902.5" class="net_182"/>
  <line x1="223" x2="223" y1="902.5" y2="662.5" class="net_182"/>
  <circle cx="223" cy="662.5" r="2" style="fill:#000" class="net_182"/>
  <line x1="223" x2="251.52" y1="662.5" y2="662.5" class="net_182"/>
  <line x1="189" x2="223" y1="902.5" y2="902.5" class="net_182"/>
  <line x1="223" x2="223" y1="902.5" y2="682.5" class="net_182"/>
  <circle cx="223" cy="682.5" r="2" style="fill:#000" class="net_182"/>
  <line x1="223" x2="251.52" y1="682.5" y2="682.5" class="net_182"/>
  <line x1="189" x2="223" y1="902.5" y2="902.5" class="net_182"/>
  <line x1="223" x2="223" y1="902.5" y2="702.5" class="net_182"/>
  <circle cx="223" cy="702.5" r="2" style="fill:#000" class="net_182"/>
  <line x1="223" x2="251.52" y1="702.5" y2="702.5" class="net_182"/>
  <line x1="189" x2="223" y1="902.5" y2="902.5" class="net_182"/>
  <line x1="223" x2="223" y1="902.5" y2="722.5" class="net_182"/>
  <circle cx="223" cy="722.5" r="2" style="fill:#000" class="net_182"/>
  <line x1="223" x2="251.52" y1="722.5" y2="722.5" class="net_182"/>
  <line x1="189" x2="223" y1="902.5" y2="902.5" class="net_182"/>
  <line x1="223" x2="223" y1="902.5" y2="742.5" class="net_182"/>
  <circle cx="223" cy="742.5" r="2" style="fill:#000" class="net_182"/>
  <line x1="223" x2="251.52" y1="742.5" y2="742.5" class="net_182"/>
  <line x1="189" x2="223" y1="902.5" y2="902.5" class="net_182"/>
  <line x1="223" x2="223" y1="902.5" y2="762.5" class="net_182"/>
  <circle cx="223" cy="762.5" r="2" style="fill:#000" class="net_182"/>
  <line x1="223" x2="251.52" y1="762.5" y2="762.5" class="net_182"/>
  <line x1="189" x2="223" y1="902.5" y2="902.5" class="net_182"/>
  <line x1="223" x2="223" y1="902.5" y2="782.5" class="net_182"/>
  <circle cx="223" cy="782.5" r="2" style="fill:#000" class="net_182"/>
  <line x1="223" x2="251.52" y1="782.5" y2="782.5" class="net_182"/>
  <line x1="189" x2="223" y1="902.5" y2="902.5" class="net_182"/>
  <line x1="223" x2="223" y1="902.5" y2="802.5" class="net_182"/>
  <circle cx="223" cy="802.5" r="2" style="fill:#000" class="net_182"/>
  <line x1="223" x2="251.52" y1="802.5" y2="802.5" class="net_182"/>
  <line x1="189" x2="223" y1="902.5" y2="902.5" class="net_182"/>
  <line x1="223" x2="223" y1="902.5" y2="822.5" class="net_182"/>
  <circle cx="223" cy="822.5" r="2" style="fill:#000" class="net_182"/>
  <line x1="223" x2="251.52" y1="822.5" y2="822.5" class="net_182"/>
  <line x1="189" x2="223" y1="902.5" y2="902.5" class="net_182"/>
  <line x1="223" x2="223" y1="902.5" y2="842.5" class="net_182"/>
  <circle cx="223" cy="842.5" r="2" style="fill:#000" class="net_182"/>
  <line x1="223" x2="251.52" y1="842.5" y2="842.5" class="net_182"/>
  <line x1="189" x2="223" y1="902.5" y2="902.5" class="net_182"/>
  <line x1="223" x2="223" y1="902.5" y2="862.5" class="net_182"/>
  <circle cx="223" cy="862.5" r="2" style="fill:#000" class="net_182"/>
  <line x1="223" x2="251.52" y1="862.5" y2="862.5" class="net_182"/>
  <line x1="189" x2="223" y1="902.5" y2="902.5" class="net_182"/>
  <line x1="223" x2="223" y1="902.5" y2="882.5" class="net_182"/>
  <circle cx="223" cy="882.5" r="2" style="fill:#000" class="net_182"/>
  <line x1="223" x2="251.52" y1="882.5" y2="882.5" class="net_182"/>
  <line x1="189" x2="251.52" y1="902.5" y2="902.5" class="net_182"/>
  <line x1="189" x2="223" y1="902.5" y2="902.5" class="net_182"/>
  <line x1="223" x2="223" y1="902.5" y2="1032" class="net_182"/>
  <line x1="223" x2="252.02" y1="1032" y2="1032" class="net_182"/>
  <line x1="252.02" x2="252.02" y1="1032" y2="923" class="net_182"/>
  <line x1="189" x2="223" y1="902.5" y2="902.5" class="net_182"/>
  <line x1="223" x2="223" y1="902.5" y2="1022" class="net_182"/>
  <line x1="223" x2="252.02" y1="1022" y2="1022" class="net_182"/>
  <circle cx="223" cy="1022" r="2" style="fill:#000" class="net_182"/>
  <line x1="252.02" x2="252.02" y1="1022" y2="943" class="net_182"/>
  <line x1="189" x2="223" y1="902.5" y2="902.5" class="net_182"/>
  <line x1="223" x2="223" y1="902.5" y2="1012" class="net_182"/>
  <line x1="223" x2="252.02" y1="1012" y2="1012" class="net_182"/>
  <circle cx="223" cy="1012" r="2" style="fill:#000" class="net_182"/>
  <line x1="252.02" x2="252.02" y1="1012" y2="963" class="net_182"/>
  <line x1="189" x2="223" y1="902.5" y2="902.5" class="net_182"/>
  <line x1="223" x2="223" y1="902.5" y2="1002" class="net_182"/>
  <line x1="223" x2="252.02" y1="1002" y2="1002" class="net_182"/>
  <circle cx="223" cy="1002" r="2" style="fill:#000" class="net_182"/>
  <line x1="252.02" x2="252.02" y1="1002" y2="983" class="net_182"/>
  <line x1="407" x2="485" y1="212.5" y2="212.5" class="net_149,150,151,152,153,154,155,156,157,158,159,160,161,162,163,164,165,166,167,168,169,170,171,172,173,174,175,176,177,178,179,180,116,117,118,119,120,121,122,123,124,125,126,127,128,129,130,131,132,133,134,135,136,137,138,139,140,141,142,143,144,145,146,147"/>
</svg>
