<?xml version="1.0" encoding="UTF-8"?>
<svg xmlns="http://www.w3.org/2000/svg" xmlns:xlink="http://www.w3.org/1999/xlink" width="1200pt" height="198pt" viewBox="0 0 1200 198" version="1.1">
<defs>
<g>
<symbol overflow="visible" id="glyph0-0">
<path style="stroke:none;" d="M 0.5625 1.9375 L 0.5625 -7.75 L 6.0625 -7.75 L 6.0625 1.9375 Z M 1.171875 1.328125 L 5.453125 1.328125 L 5.453125 -7.140625 L 1.171875 -7.140625 Z M 1.171875 1.328125 "/>
</symbol>
<symbol overflow="visible" id="glyph0-1">
<path style="stroke:none;" d="M 2.59375 -4.03125 C 2.59375 -4.226562 2.660156 -4.394531 2.796875 -4.53125 C 2.941406 -4.675781 3.109375 -4.75 3.296875 -4.75 C 3.492188 -4.75 3.664062 -4.675781 3.8125 -4.53125 C 3.957031 -4.394531 4.03125 -4.226562 4.03125 -4.03125 C 4.03125 -3.832031 3.957031 -3.660156 3.8125 -3.515625 C 3.675781 -3.378906 3.503906 -3.3125 3.296875 -3.3125 C 3.097656 -3.3125 2.929688 -3.378906 2.796875 -3.515625 C 2.660156 -3.648438 2.59375 -3.820312 2.59375 -4.03125 Z M 3.3125 -7.3125 C 2.800781 -7.3125 2.421875 -7.035156 2.171875 -6.484375 C 1.929688 -5.941406 1.8125 -5.113281 1.8125 -4 C 1.8125 -2.894531 1.929688 -2.066406 2.171875 -1.515625 C 2.421875 -0.972656 2.800781 -0.703125 3.3125 -0.703125 C 3.820312 -0.703125 4.195312 -0.972656 4.4375 -1.515625 C 4.6875 -2.066406 4.8125 -2.894531 4.8125 -4 C 4.8125 -5.113281 4.6875 -5.941406 4.4375 -6.484375 C 4.195312 -7.035156 3.820312 -7.3125 3.3125 -7.3125 Z M 3.3125 -8.171875 C 4.164062 -8.171875 4.8125 -7.816406 5.25 -7.109375 C 5.6875 -6.410156 5.90625 -5.375 5.90625 -4 C 5.90625 -2.632812 5.6875 -1.597656 5.25 -0.890625 C 4.8125 -0.191406 4.164062 0.15625 3.3125 0.15625 C 2.457031 0.15625 1.8125 -0.191406 1.375 -0.890625 C 0.9375 -1.597656 0.71875 -2.632812 0.71875 -4 C 0.71875 -5.375 0.9375 -6.410156 1.375 -7.109375 C 1.8125 -7.816406 2.457031 -8.171875 3.3125 -8.171875 Z M 3.3125 -8.171875 "/>
</symbol>
<symbol overflow="visible" id="glyph0-2">
<path style="stroke:none;" d="M 1.109375 -8.015625 L 5.171875 -8.015625 L 5.171875 -7.109375 L 2.09375 -7.109375 L 2.09375 -5.140625 C 2.25 -5.191406 2.40625 -5.226562 2.5625 -5.25 C 2.71875 -5.28125 2.875 -5.296875 3.03125 -5.296875 C 3.863281 -5.296875 4.519531 -5.050781 5 -4.5625 C 5.488281 -4.070312 5.734375 -3.410156 5.734375 -2.578125 C 5.734375 -1.734375 5.476562 -1.066406 4.96875 -0.578125 C 4.46875 -0.0859375 3.773438 0.15625 2.890625 0.15625 C 2.460938 0.15625 2.070312 0.125 1.71875 0.0625 C 1.363281 0.0078125 1.046875 -0.0703125 0.765625 -0.1875 L 0.765625 -1.296875 C 1.097656 -1.109375 1.429688 -0.96875 1.765625 -0.875 C 2.097656 -0.789062 2.4375 -0.75 2.78125 -0.75 C 3.375 -0.75 3.832031 -0.90625 4.15625 -1.21875 C 4.488281 -1.539062 4.65625 -1.992188 4.65625 -2.578125 C 4.65625 -3.148438 4.484375 -3.59375 4.140625 -3.90625 C 3.804688 -4.226562 3.34375 -4.390625 2.75 -4.390625 C 2.457031 -4.390625 2.171875 -4.351562 1.890625 -4.28125 C 1.617188 -4.21875 1.359375 -4.117188 1.109375 -3.984375 Z M 1.109375 -8.015625 "/>
</symbol>
<symbol overflow="visible" id="glyph0-3">
<path style="stroke:none;" d="M 5.640625 -3.734375 L 5.640625 0 L 4.65625 0 L 4.65625 -3.734375 C 4.65625 -4.265625 4.554688 -4.65625 4.359375 -4.90625 C 4.171875 -5.164062 3.875 -5.296875 3.46875 -5.296875 C 3.007812 -5.296875 2.65625 -5.128906 2.40625 -4.796875 C 2.15625 -4.472656 2.03125 -4.007812 2.03125 -3.40625 L 2.03125 0 L 1.046875 0 L 1.046875 -6.015625 L 2.03125 -6.015625 L 2.03125 -5.109375 C 2.207031 -5.453125 2.445312 -5.710938 2.75 -5.890625 C 3.050781 -6.066406 3.40625 -6.15625 3.8125 -6.15625 C 4.425781 -6.15625 4.882812 -5.953125 5.1875 -5.546875 C 5.488281 -5.148438 5.640625 -4.546875 5.640625 -3.734375 Z M 5.640625 -3.734375 "/>
</symbol>
<symbol overflow="visible" id="glyph0-4">
<path style="stroke:none;" d="M 5.21875 -5.8125 L 5.21875 -4.84375 C 4.9375 -5.007812 4.648438 -5.128906 4.359375 -5.203125 C 4.078125 -5.285156 3.789062 -5.328125 3.5 -5.328125 C 3.050781 -5.328125 2.71875 -5.253906 2.5 -5.109375 C 2.28125 -4.972656 2.171875 -4.753906 2.171875 -4.453125 C 2.171875 -4.179688 2.25 -3.976562 2.40625 -3.84375 C 2.570312 -3.71875 2.984375 -3.59375 3.640625 -3.46875 L 4.046875 -3.390625 C 4.535156 -3.296875 4.90625 -3.109375 5.15625 -2.828125 C 5.40625 -2.546875 5.53125 -2.179688 5.53125 -1.734375 C 5.53125 -1.140625 5.316406 -0.675781 4.890625 -0.34375 C 4.472656 -0.0078125 3.890625 0.15625 3.140625 0.15625 C 2.835938 0.15625 2.523438 0.125 2.203125 0.0625 C 1.878906 0 1.523438 -0.09375 1.140625 -0.21875 L 1.140625 -1.234375 C 1.515625 -1.046875 1.867188 -0.90625 2.203125 -0.8125 C 2.535156 -0.71875 2.851562 -0.671875 3.15625 -0.671875 C 3.59375 -0.671875 3.929688 -0.757812 4.171875 -0.9375 C 4.410156 -1.113281 4.53125 -1.363281 4.53125 -1.6875 C 4.53125 -2.144531 4.09375 -2.457031 3.21875 -2.625 L 3.171875 -2.640625 L 2.796875 -2.71875 C 2.234375 -2.832031 1.820312 -3.019531 1.5625 -3.28125 C 1.300781 -3.539062 1.171875 -3.898438 1.171875 -4.359375 C 1.171875 -4.929688 1.363281 -5.375 1.75 -5.6875 C 2.144531 -6 2.703125 -6.15625 3.421875 -6.15625 C 3.742188 -6.15625 4.050781 -6.125 4.34375 -6.0625 C 4.644531 -6.007812 4.9375 -5.925781 5.21875 -5.8125 Z M 5.21875 -5.8125 "/>
</symbol>
<symbol overflow="visible" id="glyph0-5">
<path style="stroke:none;" d="M 1.453125 -0.90625 L 3.140625 -0.90625 L 3.140625 -7.046875 L 1.328125 -6.640625 L 1.328125 -7.625 L 3.125 -8.015625 L 4.21875 -8.015625 L 4.21875 -0.90625 L 5.875 -0.90625 L 5.875 0 L 1.453125 0 Z M 1.453125 -0.90625 "/>
</symbol>
<symbol overflow="visible" id="glyph0-6">
<path style="stroke:none;" d="M 2 -0.90625 L 5.6875 -0.90625 L 5.6875 0 L 0.8125 0 L 0.8125 -0.90625 C 1.488281 -1.613281 2.078125 -2.238281 2.578125 -2.78125 C 3.078125 -3.320312 3.421875 -3.703125 3.609375 -3.921875 C 3.960938 -4.359375 4.203125 -4.710938 4.328125 -4.984375 C 4.453125 -5.253906 4.515625 -5.53125 4.515625 -5.8125 C 4.515625 -6.257812 4.382812 -6.609375 4.125 -6.859375 C 3.863281 -7.117188 3.503906 -7.25 3.046875 -7.25 C 2.722656 -7.25 2.378906 -7.1875 2.015625 -7.0625 C 1.660156 -6.945312 1.28125 -6.769531 0.875 -6.53125 L 0.875 -7.625 C 1.25 -7.800781 1.613281 -7.9375 1.96875 -8.03125 C 2.320312 -8.125 2.675781 -8.171875 3.03125 -8.171875 C 3.8125 -8.171875 4.441406 -7.957031 4.921875 -7.53125 C 5.398438 -7.113281 5.640625 -6.566406 5.640625 -5.890625 C 5.640625 -5.546875 5.554688 -5.203125 5.390625 -4.859375 C 5.234375 -4.515625 4.976562 -4.140625 4.625 -3.734375 C 4.414062 -3.492188 4.117188 -3.164062 3.734375 -2.75 C 3.359375 -2.34375 2.78125 -1.726562 2 -0.90625 Z M 2 -0.90625 "/>
</symbol>
<symbol overflow="visible" id="glyph0-7">
<path style="stroke:none;" d="M 4.171875 -4.296875 C 4.691406 -4.148438 5.09375 -3.898438 5.375 -3.546875 C 5.65625 -3.191406 5.796875 -2.75 5.796875 -2.21875 C 5.796875 -1.476562 5.546875 -0.894531 5.046875 -0.46875 C 4.554688 -0.0507812 3.867188 0.15625 2.984375 0.15625 C 2.617188 0.15625 2.242188 0.117188 1.859375 0.046875 C 1.484375 -0.015625 1.109375 -0.109375 0.734375 -0.234375 L 0.734375 -1.328125 C 1.097656 -1.128906 1.457031 -0.984375 1.8125 -0.890625 C 2.164062 -0.796875 2.519531 -0.75 2.875 -0.75 C 3.46875 -0.75 3.921875 -0.882812 4.234375 -1.15625 C 4.554688 -1.425781 4.71875 -1.816406 4.71875 -2.328125 C 4.71875 -2.785156 4.554688 -3.148438 4.234375 -3.421875 C 3.921875 -3.703125 3.492188 -3.84375 2.953125 -3.84375 L 2.125 -3.84375 L 2.125 -4.734375 L 2.953125 -4.734375 C 3.453125 -4.734375 3.835938 -4.84375 4.109375 -5.0625 C 4.390625 -5.28125 4.53125 -5.582031 4.53125 -5.96875 C 4.53125 -6.382812 4.398438 -6.703125 4.140625 -6.921875 C 3.878906 -7.140625 3.507812 -7.25 3.03125 -7.25 C 2.71875 -7.25 2.390625 -7.210938 2.046875 -7.140625 C 1.703125 -7.066406 1.347656 -6.960938 0.984375 -6.828125 L 0.984375 -7.828125 C 1.410156 -7.941406 1.789062 -8.023438 2.125 -8.078125 C 2.46875 -8.140625 2.769531 -8.171875 3.03125 -8.171875 C 3.8125 -8.171875 4.4375 -7.972656 4.90625 -7.578125 C 5.375 -7.179688 5.609375 -6.660156 5.609375 -6.015625 C 5.609375 -5.578125 5.484375 -5.207031 5.234375 -4.90625 C 4.992188 -4.613281 4.640625 -4.410156 4.171875 -4.296875 Z M 4.171875 -4.296875 "/>
</symbol>
<symbol overflow="visible" id="glyph0-8">
<path style="stroke:none;" d="M 3.953125 -7.03125 L 1.421875 -2.796875 L 3.953125 -2.796875 Z M 3.765625 -8.015625 L 5.03125 -8.015625 L 5.03125 -2.796875 L 6.09375 -2.796875 L 6.09375 -1.90625 L 5.03125 -1.90625 L 5.03125 0 L 3.953125 0 L 3.953125 -1.90625 L 0.546875 -1.90625 L 0.546875 -2.9375 Z M 3.765625 -8.015625 "/>
</symbol>
<symbol overflow="visible" id="glyph0-9">
<path style="stroke:none;" d="M 1.375 -6.015625 L 3.90625 -6.015625 L 3.90625 -0.765625 L 5.859375 -0.765625 L 5.859375 0 L 0.953125 0 L 0.953125 -0.765625 L 2.921875 -0.765625 L 2.921875 -5.25 L 1.375 -5.25 Z M 2.921875 -8.359375 L 3.90625 -8.359375 L 3.90625 -7.109375 L 2.921875 -7.109375 Z M 2.921875 -8.359375 "/>
</symbol>
<symbol overflow="visible" id="glyph0-10">
<path style="stroke:none;" d="M 3.625 -5.40625 C 3.75 -5.664062 3.90625 -5.851562 4.09375 -5.96875 C 4.28125 -6.09375 4.507812 -6.15625 4.78125 -6.15625 C 5.257812 -6.15625 5.597656 -5.96875 5.796875 -5.59375 C 5.992188 -5.21875 6.09375 -4.515625 6.09375 -3.484375 L 6.09375 0 L 5.1875 0 L 5.1875 -3.4375 C 5.1875 -4.289062 5.140625 -4.816406 5.046875 -5.015625 C 4.953125 -5.222656 4.78125 -5.328125 4.53125 -5.328125 C 4.25 -5.328125 4.050781 -5.21875 3.9375 -5 C 3.832031 -4.78125 3.78125 -4.257812 3.78125 -3.4375 L 3.78125 0 L 2.890625 0 L 2.890625 -3.4375 C 2.890625 -4.300781 2.835938 -4.832031 2.734375 -5.03125 C 2.628906 -5.226562 2.445312 -5.328125 2.1875 -5.328125 C 1.914062 -5.328125 1.726562 -5.21875 1.625 -5 C 1.53125 -4.78125 1.484375 -4.257812 1.484375 -3.4375 L 1.484375 0 L 0.578125 0 L 0.578125 -6.015625 L 1.484375 -6.015625 L 1.484375 -5.5 C 1.597656 -5.71875 1.742188 -5.878906 1.921875 -5.984375 C 2.097656 -6.097656 2.300781 -6.15625 2.53125 -6.15625 C 2.800781 -6.15625 3.023438 -6.09375 3.203125 -5.96875 C 3.390625 -5.84375 3.53125 -5.65625 3.625 -5.40625 Z M 3.625 -5.40625 "/>
</symbol>
<symbol overflow="visible" id="glyph0-11">
<path style="stroke:none;" d="M 1.046875 -2.28125 L 1.046875 -6 L 2.03125 -6 L 2.03125 -2.28125 C 2.03125 -1.738281 2.125 -1.335938 2.3125 -1.078125 C 2.507812 -0.828125 2.8125 -0.703125 3.21875 -0.703125 C 3.675781 -0.703125 4.03125 -0.863281 4.28125 -1.1875 C 4.53125 -1.519531 4.65625 -1.992188 4.65625 -2.609375 L 4.65625 -6 L 5.640625 -6 L 5.640625 0 L 4.65625 0 L 4.65625 -0.90625 C 4.476562 -0.550781 4.238281 -0.285156 3.9375 -0.109375 C 3.632812 0.0664062 3.28125 0.15625 2.875 0.15625 C 2.257812 0.15625 1.800781 -0.0390625 1.5 -0.4375 C 1.195312 -0.84375 1.046875 -1.457031 1.046875 -2.28125 Z M 1.046875 -2.28125 "/>
</symbol>
<symbol overflow="visible" id="glyph0-12">
<path style="stroke:none;" d="M 3.4375 -2.1875 C 3.4375 -1.738281 3.515625 -1.398438 3.671875 -1.171875 C 3.835938 -0.953125 4.082031 -0.84375 4.40625 -0.84375 L 5.546875 -0.84375 L 5.546875 0 L 4.296875 0 C 3.710938 0 3.253906 -0.1875 2.921875 -0.5625 C 2.597656 -0.945312 2.4375 -1.488281 2.4375 -2.1875 L 2.4375 -7.640625 L 0.859375 -7.640625 L 0.859375 -8.421875 L 3.4375 -8.421875 Z M 3.4375 -2.1875 "/>
</symbol>
<symbol overflow="visible" id="glyph0-13">
<path style="stroke:none;" d="M 3.765625 -3.03125 L 3.4375 -3.03125 C 2.863281 -3.03125 2.429688 -2.925781 2.140625 -2.71875 C 1.847656 -2.519531 1.703125 -2.21875 1.703125 -1.8125 C 1.703125 -1.445312 1.8125 -1.164062 2.03125 -0.96875 C 2.25 -0.769531 2.550781 -0.671875 2.9375 -0.671875 C 3.476562 -0.671875 3.90625 -0.859375 4.21875 -1.234375 C 4.53125 -1.617188 4.6875 -2.140625 4.6875 -2.796875 L 4.6875 -3.03125 Z M 5.6875 -3.4375 L 5.6875 0 L 4.6875 0 L 4.6875 -0.890625 C 4.476562 -0.535156 4.210938 -0.269531 3.890625 -0.09375 C 3.578125 0.0703125 3.191406 0.15625 2.734375 0.15625 C 2.117188 0.15625 1.628906 -0.015625 1.265625 -0.359375 C 0.898438 -0.703125 0.71875 -1.164062 0.71875 -1.75 C 0.71875 -2.414062 0.941406 -2.921875 1.390625 -3.265625 C 1.835938 -3.617188 2.5 -3.796875 3.375 -3.796875 L 4.6875 -3.796875 L 4.6875 -3.953125 C 4.6875 -4.429688 4.566406 -4.78125 4.328125 -5 C 4.085938 -5.21875 3.707031 -5.328125 3.1875 -5.328125 C 2.84375 -5.328125 2.5 -5.273438 2.15625 -5.171875 C 1.8125 -5.078125 1.476562 -4.9375 1.15625 -4.75 L 1.15625 -5.734375 C 1.519531 -5.878906 1.867188 -5.984375 2.203125 -6.046875 C 2.535156 -6.117188 2.863281 -6.15625 3.1875 -6.15625 C 3.675781 -6.15625 4.097656 -6.082031 4.453125 -5.9375 C 4.804688 -5.789062 5.09375 -5.570312 5.3125 -5.28125 C 5.445312 -5.101562 5.539062 -4.878906 5.59375 -4.609375 C 5.65625 -4.347656 5.6875 -3.957031 5.6875 -3.4375 Z M 5.6875 -3.4375 "/>
</symbol>
<symbol overflow="visible" id="glyph0-14">
<path style="stroke:none;" d="M 3.296875 -7.71875 L 3.296875 -6.015625 L 5.546875 -6.015625 L 5.546875 -5.25 L 3.296875 -5.25 L 3.296875 -1.984375 C 3.296875 -1.535156 3.378906 -1.222656 3.546875 -1.046875 C 3.710938 -0.878906 4.007812 -0.796875 4.4375 -0.796875 L 5.546875 -0.796875 L 5.546875 0 L 4.328125 0 C 3.585938 0 3.066406 -0.144531 2.765625 -0.4375 C 2.460938 -0.738281 2.3125 -1.253906 2.3125 -1.984375 L 2.3125 -5.25 L 0.703125 -5.25 L 0.703125 -6.015625 L 2.3125 -6.015625 L 2.3125 -7.71875 Z M 3.296875 -7.71875 "/>
</symbol>
<symbol overflow="visible" id="glyph0-15">
<path style="stroke:none;" d="M 3.3125 -5.328125 C 2.8125 -5.328125 2.429688 -5.128906 2.171875 -4.734375 C 1.910156 -4.347656 1.78125 -3.769531 1.78125 -3 C 1.78125 -2.238281 1.910156 -1.660156 2.171875 -1.265625 C 2.429688 -0.878906 2.8125 -0.6875 3.3125 -0.6875 C 3.8125 -0.6875 4.191406 -0.878906 4.453125 -1.265625 C 4.710938 -1.660156 4.84375 -2.238281 4.84375 -3 C 4.84375 -3.769531 4.710938 -4.347656 4.453125 -4.734375 C 4.191406 -5.128906 3.8125 -5.328125 3.3125 -5.328125 Z M 3.3125 -6.15625 C 4.144531 -6.15625 4.78125 -5.882812 5.21875 -5.34375 C 5.664062 -4.800781 5.890625 -4.019531 5.890625 -3 C 5.890625 -1.976562 5.664062 -1.195312 5.21875 -0.65625 C 4.78125 -0.113281 4.144531 0.15625 3.3125 0.15625 C 2.476562 0.15625 1.835938 -0.113281 1.390625 -0.65625 C 0.953125 -1.195312 0.734375 -1.976562 0.734375 -3 C 0.734375 -4.019531 0.953125 -4.800781 1.390625 -5.34375 C 1.835938 -5.882812 2.476562 -6.15625 3.3125 -6.15625 Z M 3.3125 -6.15625 "/>
</symbol>
<symbol overflow="visible" id="glyph0-16">
<path style="stroke:none;" d="M 5.703125 -0.3125 C 5.429688 -0.15625 5.15625 -0.0390625 4.875 0.03125 C 4.59375 0.113281 4.304688 0.15625 4.015625 0.15625 C 3.085938 0.15625 2.359375 -0.117188 1.828125 -0.671875 C 1.304688 -1.234375 1.046875 -2.007812 1.046875 -3 C 1.046875 -3.988281 1.304688 -4.757812 1.828125 -5.3125 C 2.359375 -5.875 3.085938 -6.15625 4.015625 -6.15625 C 4.304688 -6.15625 4.585938 -6.117188 4.859375 -6.046875 C 5.140625 -5.972656 5.421875 -5.859375 5.703125 -5.703125 L 5.703125 -4.65625 C 5.441406 -4.894531 5.175781 -5.066406 4.90625 -5.171875 C 4.644531 -5.273438 4.347656 -5.328125 4.015625 -5.328125 C 3.398438 -5.328125 2.925781 -5.125 2.59375 -4.71875 C 2.257812 -4.320312 2.09375 -3.75 2.09375 -3 C 2.09375 -2.257812 2.257812 -1.6875 2.59375 -1.28125 C 2.925781 -0.882812 3.398438 -0.6875 4.015625 -0.6875 C 4.359375 -0.6875 4.664062 -0.738281 4.9375 -0.84375 C 5.207031 -0.945312 5.460938 -1.109375 5.703125 -1.328125 Z M 5.703125 -0.3125 "/>
</symbol>
<symbol overflow="visible" id="glyph0-17">
<path style="stroke:none;" d="M 0.53125 -6.015625 L 1.5625 -6.015625 L 3.3125 -0.96875 L 5.0625 -6.015625 L 6.078125 -6.015625 L 3.953125 0 L 2.671875 0 Z M 0.53125 -6.015625 "/>
</symbol>
<symbol overflow="visible" id="glyph0-18">
<path style="stroke:none;" d="M 5.96875 -3.25 L 5.96875 -2.765625 L 1.6875 -2.765625 L 1.6875 -2.734375 C 1.6875 -2.078125 1.859375 -1.570312 2.203125 -1.21875 C 2.546875 -0.863281 3.03125 -0.6875 3.65625 -0.6875 C 3.96875 -0.6875 4.296875 -0.734375 4.640625 -0.828125 C 4.984375 -0.929688 5.347656 -1.085938 5.734375 -1.296875 L 5.734375 -0.3125 C 5.359375 -0.15625 4.992188 -0.0390625 4.640625 0.03125 C 4.296875 0.113281 3.960938 0.15625 3.640625 0.15625 C 2.703125 0.15625 1.96875 -0.125 1.4375 -0.6875 C 0.914062 -1.25 0.65625 -2.019531 0.65625 -3 C 0.65625 -3.957031 0.910156 -4.722656 1.421875 -5.296875 C 1.941406 -5.867188 2.632812 -6.15625 3.5 -6.15625 C 4.257812 -6.15625 4.859375 -5.894531 5.296875 -5.375 C 5.742188 -4.863281 5.96875 -4.15625 5.96875 -3.25 Z M 4.984375 -3.546875 C 4.972656 -4.128906 4.835938 -4.570312 4.578125 -4.875 C 4.316406 -5.175781 3.941406 -5.328125 3.453125 -5.328125 C 2.972656 -5.328125 2.578125 -5.164062 2.265625 -4.84375 C 1.960938 -4.53125 1.785156 -4.097656 1.734375 -3.546875 Z M 4.984375 -3.546875 "/>
</symbol>
<symbol overflow="visible" id="glyph0-19">
<path style="stroke:none;" d="M 1.265625 -8.359375 L 2.28125 -8.359375 L 2.28125 -3.515625 L 4.875 -6.015625 L 6.078125 -6.015625 L 3.71875 -3.75 L 6.453125 0 L 5.25 0 L 3.03125 -3.109375 L 2.28125 -2.40625 L 2.28125 0 L 1.265625 0 Z M 1.265625 -8.359375 "/>
</symbol>
<symbol overflow="visible" id="glyph0-20">
<path style="stroke:none;" d="M 5.640625 -3.734375 L 5.640625 0 L 4.65625 0 L 4.65625 -3.734375 C 4.65625 -4.265625 4.554688 -4.65625 4.359375 -4.90625 C 4.171875 -5.164062 3.875 -5.296875 3.46875 -5.296875 C 3.007812 -5.296875 2.65625 -5.128906 2.40625 -4.796875 C 2.15625 -4.472656 2.03125 -4.007812 2.03125 -3.40625 L 2.03125 0 L 1.046875 0 L 1.046875 -8.359375 L 2.03125 -8.359375 L 2.03125 -5.109375 C 2.207031 -5.453125 2.445312 -5.710938 2.75 -5.890625 C 3.050781 -6.066406 3.40625 -6.15625 3.8125 -6.15625 C 4.425781 -6.15625 4.882812 -5.953125 5.1875 -5.546875 C 5.488281 -5.148438 5.640625 -4.546875 5.640625 -3.734375 Z M 5.640625 -3.734375 "/>
</symbol>
<symbol overflow="visible" id="glyph0-21">
<path style="stroke:none;" d="M 1.21875 -6.03125 L 5.59375 -6.03125 L 5.59375 -5.125 L 2.125 -0.8125 L 5.59375 -0.8125 L 5.59375 0 L 1.09375 0 L 1.09375 -0.90625 L 4.546875 -5.234375 L 1.21875 -5.234375 Z M 1.21875 -6.03125 "/>
</symbol>
<symbol overflow="visible" id="glyph0-22">
<path style="stroke:none;" d="M 4.609375 -5.25 L 4.609375 -8.359375 L 5.59375 -8.359375 L 5.59375 0 L 4.609375 0 L 4.609375 -0.75 C 4.441406 -0.457031 4.222656 -0.234375 3.953125 -0.078125 C 3.679688 0.078125 3.363281 0.15625 3 0.15625 C 2.269531 0.15625 1.695312 -0.125 1.28125 -0.6875 C 0.863281 -1.25 0.65625 -2.03125 0.65625 -3.03125 C 0.65625 -4 0.863281 -4.757812 1.28125 -5.3125 C 1.707031 -5.875 2.28125 -6.15625 3 -6.15625 C 3.363281 -6.15625 3.679688 -6.078125 3.953125 -5.921875 C 4.234375 -5.765625 4.453125 -5.539062 4.609375 -5.25 Z M 1.703125 -3 C 1.703125 -2.238281 1.820312 -1.660156 2.0625 -1.265625 C 2.3125 -0.878906 2.671875 -0.6875 3.140625 -0.6875 C 3.617188 -0.6875 3.984375 -0.878906 4.234375 -1.265625 C 4.484375 -1.660156 4.609375 -2.238281 4.609375 -3 C 4.609375 -3.757812 4.484375 -4.335938 4.234375 -4.734375 C 3.984375 -5.128906 3.617188 -5.328125 3.140625 -5.328125 C 2.671875 -5.328125 2.3125 -5.128906 2.0625 -4.734375 C 1.820312 -4.347656 1.703125 -3.769531 1.703125 -3 Z M 1.703125 -3 "/>
</symbol>
<symbol overflow="visible" id="glyph0-23">
<path style="stroke:none;" d="M 2.015625 -0.75 L 2.015625 2.28125 L 1.015625 2.28125 L 1.015625 -6.015625 L 2.015625 -6.015625 L 2.015625 -5.25 C 2.179688 -5.539062 2.398438 -5.765625 2.671875 -5.921875 C 2.941406 -6.078125 3.257812 -6.15625 3.625 -6.15625 C 4.34375 -6.15625 4.910156 -5.875 5.328125 -5.3125 C 5.742188 -4.75 5.953125 -3.972656 5.953125 -2.984375 C 5.953125 -2.003906 5.742188 -1.234375 5.328125 -0.671875 C 4.910156 -0.117188 4.34375 0.15625 3.625 0.15625 C 3.257812 0.15625 2.9375 0.078125 2.65625 -0.078125 C 2.382812 -0.234375 2.171875 -0.457031 2.015625 -0.75 Z M 4.921875 -3 C 4.921875 -3.769531 4.796875 -4.347656 4.546875 -4.734375 C 4.304688 -5.128906 3.945312 -5.328125 3.46875 -5.328125 C 2.988281 -5.328125 2.625 -5.128906 2.375 -4.734375 C 2.132812 -4.335938 2.015625 -3.757812 2.015625 -3 C 2.015625 -2.238281 2.132812 -1.660156 2.375 -1.265625 C 2.625 -0.878906 2.988281 -0.6875 3.46875 -0.6875 C 3.945312 -0.6875 4.304688 -0.878906 4.546875 -1.265625 C 4.796875 -1.660156 4.921875 -2.238281 4.921875 -3 Z M 4.921875 -3 "/>
</symbol>
<symbol overflow="visible" id="glyph1-0">
<path style="stroke:none;" d="M 1.765625 -0.515625 L -7.046875 -0.515625 L -7.046875 -5.515625 L 1.765625 -5.515625 Z M 1.21875 -1.0625 L 1.21875 -4.953125 L -6.484375 -4.953125 L -6.484375 -1.0625 Z M 1.21875 -1.0625 "/>
</symbol>
<symbol overflow="visible" id="glyph1-1">
<path style="stroke:none;" d="M -4.765625 -4.1875 L -7.59375 -4.1875 L -7.59375 -5.09375 L 0 -5.09375 L 0 -4.1875 L -0.6875 -4.1875 C -0.414062 -4.039062 -0.207031 -3.84375 -0.0625 -3.59375 C 0.0703125 -3.34375 0.140625 -3.054688 0.140625 -2.734375 C 0.140625 -2.066406 -0.113281 -1.539062 -0.625 -1.15625 C -1.132812 -0.78125 -1.84375 -0.59375 -2.75 -0.59375 C -3.632812 -0.59375 -4.328125 -0.785156 -4.828125 -1.171875 C -5.335938 -1.554688 -5.59375 -2.078125 -5.59375 -2.734375 C -5.59375 -3.054688 -5.519531 -3.34375 -5.375 -3.59375 C -5.238281 -3.84375 -5.035156 -4.039062 -4.765625 -4.1875 Z M -2.734375 -1.546875 C -2.035156 -1.546875 -1.507812 -1.65625 -1.15625 -1.875 C -0.800781 -2.101562 -0.625 -2.429688 -0.625 -2.859375 C -0.625 -3.296875 -0.800781 -3.625 -1.15625 -3.84375 C -1.507812 -4.070312 -2.035156 -4.1875 -2.734375 -4.1875 C -3.421875 -4.1875 -3.941406 -4.070312 -4.296875 -3.84375 C -4.660156 -3.625 -4.84375 -3.296875 -4.84375 -2.859375 C -4.84375 -2.429688 -4.664062 -2.101562 -4.3125 -1.875 C -3.957031 -1.65625 -3.429688 -1.546875 -2.734375 -1.546875 Z M -2.734375 -1.546875 "/>
</symbol>
<symbol overflow="visible" id="glyph1-2">
<path style="stroke:none;" d="M -2.078125 -0.953125 L -5.453125 -0.953125 L -5.453125 -1.84375 L -2.078125 -1.84375 C -1.578125 -1.84375 -1.210938 -1.929688 -0.984375 -2.109375 C -0.753906 -2.285156 -0.640625 -2.554688 -0.640625 -2.921875 C -0.640625 -3.347656 -0.785156 -3.671875 -1.078125 -3.890625 C -1.378906 -4.117188 -1.8125 -4.234375 -2.375 -4.234375 L -5.453125 -4.234375 L -5.453125 -5.125 L 0 -5.125 L 0 -4.234375 L -0.828125 -4.234375 C -0.503906 -4.066406 -0.257812 -3.847656 -0.09375 -3.578125 C 0.0625 -3.304688 0.140625 -2.984375 0.140625 -2.609375 C 0.140625 -2.046875 -0.0390625 -1.628906 -0.40625 -1.359375 C -0.769531 -1.085938 -1.328125 -0.953125 -2.078125 -0.953125 Z M -2.078125 -0.953125 "/>
</symbol>
<symbol overflow="visible" id="glyph1-3">
<path style="stroke:none;" d="M -7.015625 -3 L -5.46875 -3 L -5.46875 -5.046875 L -4.765625 -5.046875 L -4.765625 -3 L -1.796875 -3 C -1.398438 -3 -1.117188 -3.070312 -0.953125 -3.21875 C -0.796875 -3.375 -0.71875 -3.644531 -0.71875 -4.03125 L -0.71875 -5.046875 L 0 -5.046875 L 0 -3.9375 C 0 -3.269531 -0.132812 -2.796875 -0.40625 -2.515625 C -0.675781 -2.234375 -1.140625 -2.09375 -1.796875 -2.09375 L -4.765625 -2.09375 L -4.765625 -0.640625 L -5.46875 -0.640625 L -5.46875 -2.09375 L -7.015625 -2.09375 Z M -7.015625 -3 "/>
</symbol>
</g>
</defs>
<g id="surface2">
<path style="fill:none;stroke-width:1;stroke-linecap:butt;stroke-linejoin:miter;stroke:rgb(85%,85%,85%);stroke-opacity:1;stroke-miterlimit:10;" d="M 159 28 L 1190 28 "/>
<path style="fill:none;stroke-width:1;stroke-linecap:butt;stroke-linejoin:miter;stroke:rgb(5%,5%,5%);stroke-opacity:1;stroke-miterlimit:10;" d="M 159 24 L 159 28 "/>
<g style="fill:rgb(5%,5%,5%);fill-opacity:1;">
  <use xlink:href="#glyph0-1" x="156" y="18"/>
</g>
<path style="fill:none;stroke-width:1;stroke-linecap:butt;stroke-linejoin:miter;stroke:rgb(5%,5%,5%);stroke-opacity:1;stroke-miterlimit:10;" d="M 285 24 L 285 28 "/>
<g style="fill:rgb(5%,5%,5%);fill-opacity:1;">
  <use xlink:href="#glyph0-2" x="272" y="18"/>
  <use xlink:href="#glyph0-1" x="278.622559" y="18"/>
  <use xlink:href="#glyph0-3" x="285.245117" y="18"/>
  <use xlink:href="#glyph0-4" x="291.867676" y="18"/>
</g>
<path style="fill:none;stroke-width:1;stroke-linecap:butt;stroke-linejoin:miter;stroke:rgb(5%,5%,5%);stroke-opacity:1;stroke-miterlimit:10;" d="M 410 24 L 410 28 "/>
<g style="fill:rgb(5%,5%,5%);fill-opacity:1;">
  <use xlink:href="#glyph0-5" x="394" y="18"/>
  <use xlink:href="#glyph0-1" x="400.622559" y="18"/>
  <use xlink:href="#glyph0-1" x="407.245117" y="18"/>
  <use xlink:href="#glyph0-3" x="413.867676" y="18"/>
  <use xlink:href="#glyph0-4" x="420.490234" y="18"/>
</g>
<path style="fill:none;stroke-width:1;stroke-linecap:butt;stroke-linejoin:miter;stroke:rgb(5%,5%,5%);stroke-opacity:1;stroke-miterlimit:10;" d="M 536 24 L 536 28 "/>
<g style="fill:rgb(5%,5%,5%);fill-opacity:1;">
  <use xlink:href="#glyph0-5" x="520" y="18"/>
  <use xlink:href="#glyph0-2" x="526.622559" y="18"/>
  <use xlink:href="#glyph0-1" x="533.245117" y="18"/>
  <use xlink:href="#glyph0-3" x="539.867676" y="18"/>
  <use xlink:href="#glyph0-4" x="546.490234" y="18"/>
</g>
<path style="fill:none;stroke-width:1;stroke-linecap:butt;stroke-linejoin:miter;stroke:rgb(5%,5%,5%);stroke-opacity:1;stroke-miterlimit:10;" d="M 662 24 L 662 28 "/>
<g style="fill:rgb(5%,5%,5%);fill-opacity:1;">
  <use xlink:href="#glyph0-6" x="646" y="18"/>
  <use xlink:href="#glyph0-1" x="652.622559" y="18"/>
  <use xlink:href="#glyph0-1" x="659.245117" y="18"/>
  <use xlink:href="#glyph0-3" x="665.867676" y="18"/>
  <use xlink:href="#glyph0-4" x="672.490234" y="18"/>
</g>
<path style="fill:none;stroke-width:1;stroke-linecap:butt;stroke-linejoin:miter;stroke:rgb(5%,5%,5%);stroke-opacity:1;stroke-miterlimit:10;" d="M 788 24 L 788 28 "/>
<g style="fill:rgb(5%,5%,5%);fill-opacity:1;">
  <use xlink:href="#glyph0-6" x="772" y="18"/>
  <use xlink:href="#glyph0-2" x="778.622559" y="18"/>
  <use xlink:href="#glyph0-1" x="785.245117" y="18"/>
  <use xlink:href="#glyph0-3" x="791.867676" y="18"/>
  <use xlink:href="#glyph0-4" x="798.490234" y="18"/>
</g>
<path style="fill:none;stroke-width:1;stroke-linecap:butt;stroke-linejoin:miter;stroke:rgb(5%,5%,5%);stroke-opacity:1;stroke-miterlimit:10;" d="M 913 24 L 913 28 "/>
<g style="fill:rgb(5%,5%,5%);fill-opacity:1;">
  <use xlink:href="#glyph0-7" x="897" y="18"/>
  <use xlink:href="#glyph0-1" x="903.622559" y="18"/>
  <use xlink:href="#glyph0-1" x="910.245117" y="18"/>
  <use xlink:href="#glyph0-3" x="916.867676" y="18"/>
  <use xlink:href="#glyph0-4" x="923.490234" y="18"/>
</g>
<path style="fill:none;stroke-width:1;stroke-linecap:butt;stroke-linejoin:miter;stroke:rgb(5%,5%,5%);stroke-opacity:1;stroke-miterlimit:10;" d="M 1039 24 L 1039 28 "/>
<g style="fill:rgb(5%,5%,5%);fill-opacity:1;">
  <use xlink:href="#glyph0-7" x="1023" y="18"/>
  <use xlink:href="#glyph0-2" x="1029.622559" y="18"/>
  <use xlink:href="#glyph0-1" x="1036.245117" y="18"/>
  <use xlink:href="#glyph0-3" x="1042.867676" y="18"/>
  <use xlink:href="#glyph0-4" x="1049.490234" y="18"/>
</g>
<path style="fill:none;stroke-width:1;stroke-linecap:butt;stroke-linejoin:miter;stroke:rgb(5%,5%,5%);stroke-opacity:1;stroke-miterlimit:10;" d="M 1165 24 L 1165 28 "/>
<g style="fill:rgb(5%,5%,5%);fill-opacity:1;">
  <use xlink:href="#glyph0-8" x="1149" y="18"/>
  <use xlink:href="#glyph0-1" x="1155.622559" y="18"/>
  <use xlink:href="#glyph0-1" x="1162.245117" y="18"/>
  <use xlink:href="#glyph0-3" x="1168.867676" y="18"/>
  <use xlink:href="#glyph0-4" x="1175.490234" y="18"/>
</g>
<path style="fill:none;stroke-width:1.5;stroke-linecap:butt;stroke-linejoin:miter;stroke:rgb(20%,45%,85%);stroke-opacity:1;stroke-miterlimit:10;" d="M 14 104 L 14 196 "/>
<path style="fill:none;stroke-width:1.5;stroke-linecap:butt;stroke-linejoin:miter;stroke:rgb(20%,45%,85%);stroke-opacity:1;stroke-miterlimit:10;" d="M 14 104 L 20 104 "/>
<path style="fill:none;stroke-width:1.5;stroke-linecap:butt;stroke-linejoin:miter;stroke:rgb(20%,45%,85%);stroke-opacity:1;stroke-miterlimit:10;" d="M 14 196 L 20 196 "/>
<g style="fill:rgb(20%,45%,85%);fill-opacity:1;">
  <use xlink:href="#glyph1-1" x="27.5" y="159"/>
  <use xlink:href="#glyph1-2" x="27.5" y="152.979492"/>
  <use xlink:href="#glyph1-3" x="27.5" y="146.958984"/>
</g>
<g style="fill:rgb(5%,5%,5%);fill-opacity:1;">
  <use xlink:href="#glyph0-4" x="28" y="46"/>
  <use xlink:href="#glyph0-4" x="34.622559" y="46"/>
  <use xlink:href="#glyph0-9" x="41.245117" y="46"/>
  <use xlink:href="#glyph0-10" x="47.867676" y="46"/>
  <use xlink:href="#glyph0-11" x="54.490234" y="46"/>
  <use xlink:href="#glyph0-12" x="61.112793" y="46"/>
  <use xlink:href="#glyph0-13" x="67.735352" y="46"/>
  <use xlink:href="#glyph0-14" x="74.35791" y="46"/>
  <use xlink:href="#glyph0-9" x="80.980469" y="46"/>
  <use xlink:href="#glyph0-15" x="87.603027" y="46"/>
  <use xlink:href="#glyph0-3" x="94.225586" y="46"/>
  <use xlink:href="#glyph0-13" x="100.848145" y="46"/>
  <use xlink:href="#glyph0-16" x="107.470703" y="46"/>
  <use xlink:href="#glyph0-14" x="114.093262" y="46"/>
  <use xlink:href="#glyph0-9" x="120.71582" y="46"/>
  <use xlink:href="#glyph0-17" x="127.338379" y="46"/>
  <use xlink:href="#glyph0-18" x="133.960938" y="46"/>
</g>
<path style="fill:none;stroke-width:1.5;stroke-linecap:butt;stroke-linejoin:miter;stroke:rgb(0%,60%,0%);stroke-opacity:1;stroke-miterlimit:10;" d="M 159 34 L 1165 34 "/>
<path style="fill:none;stroke-width:1.5;stroke-linecap:butt;stroke-linejoin:miter;stroke:rgb(0%,60%,0%);stroke-opacity:1;stroke-miterlimit:10;" d="M 1165 34 L 1165 50 M 1165 50 L 1190 50 "/>
<g style="fill:rgb(5%,5%,5%);fill-opacity:1;">
  <use xlink:href="#glyph0-4" x="28" y="70"/>
  <use xlink:href="#glyph0-16" x="34.622559" y="70"/>
  <use xlink:href="#glyph0-12" x="41.245117" y="70"/>
  <use xlink:href="#glyph0-15" x="47.867676" y="70"/>
  <use xlink:href="#glyph0-16" x="54.490234" y="70"/>
  <use xlink:href="#glyph0-19" x="61.112793" y="70"/>
  <use xlink:href="#glyph0-2" x="67.735352" y="70"/>
  <use xlink:href="#glyph0-1" x="74.35791" y="70"/>
  <use xlink:href="#glyph0-10" x="80.980469" y="70"/>
  <use xlink:href="#glyph0-20" x="87.603027" y="70"/>
  <use xlink:href="#glyph0-21" x="94.225586" y="70"/>
</g>
<path style="fill:none;stroke-width:1.5;stroke-linecap:butt;stroke-linejoin:miter;stroke:rgb(0%,60%,0%);stroke-opacity:1;stroke-miterlimit:10;" d="M 159 74 L 162 74 "/>
<path style="fill:none;stroke-width:1.5;stroke-linecap:butt;stroke-linejoin:miter;stroke:rgb(0%,60%,0%);stroke-opacity:1;stroke-miterlimit:10;" d="M 162 74 L 162 58 M 162 58 L 184 58 "/>
<path style="fill:none;stroke-width:1.5;stroke-linecap:butt;stroke-linejoin:miter;stroke:rgb(0%,60%,0%);stroke-opacity:1;stroke-miterlimit:10;" d="M 184 58 L 184 74 M 184 74 L 209 74 "/>
<path style="fill:none;stroke-width:1.5;stroke-linecap:butt;stroke-linejoin:miter;stroke:rgb(0%,60%,0%);stroke-opacity:1;stroke-miterlimit:10;" d="M 209 74 L 209 58 M 209 58 L 234 58 "/>
<path style="fill:none;stroke-width:1.5;stroke-linecap:butt;stroke-linejoin:miter;stroke:rgb(0%,60%,0%);stroke-opacity:1;stroke-miterlimit:10;" d="M 234 58 L 234 74 M 234 74 L 260 74 "/>
<path style="fill:none;stroke-width:1.5;stroke-linecap:butt;stroke-linejoin:miter;stroke:rgb(0%,60%,0%);stroke-opacity:1;stroke-miterlimit:10;" d="M 260 74 L 260 58 M 260 58 L 285 58 "/>
<path style="fill:none;stroke-width:1.5;stroke-linecap:butt;stroke-linejoin:miter;stroke:rgb(0%,60%,0%);stroke-opacity:1;stroke-miterlimit:10;" d="M 285 58 L 285 74 M 285 74 L 310 74 "/>
<path style="fill:none;stroke-width:1.5;stroke-linecap:butt;stroke-linejoin:miter;stroke:rgb(0%,60%,0%);stroke-opacity:1;stroke-miterlimit:10;" d="M 310 74 L 310 58 M 310 58 L 335 58 "/>
<path style="fill:none;stroke-width:1.5;stroke-linecap:butt;stroke-linejoin:miter;stroke:rgb(0%,60%,0%);stroke-opacity:1;stroke-miterlimit:10;" d="M 335 58 L 335 74 M 335 74 L 360 74 "/>
<path style="fill:none;stroke-width:1.5;stroke-linecap:butt;stroke-linejoin:miter;stroke:rgb(0%,60%,0%);stroke-opacity:1;stroke-miterlimit:10;" d="M 360 74 L 360 58 M 360 58 L 385 58 "/>
<path style="fill:none;stroke-width:1.5;stroke-linecap:butt;stroke-linejoin:miter;stroke:rgb(0%,60%,0%);stroke-opacity:1;stroke-miterlimit:10;" d="M 385 58 L 385 74 M 385 74 L 410 74 "/>
<path style="fill:none;stroke-width:1.5;stroke-linecap:butt;stroke-linejoin:miter;stroke:rgb(0%,60%,0%);stroke-opacity:1;stroke-miterlimit:10;" d="M 410 74 L 410 58 M 410 58 L 436 58 "/>
<path style="fill:none;stroke-width:1.5;stroke-linecap:butt;stroke-linejoin:miter;stroke:rgb(0%,60%,0%);stroke-opacity:1;stroke-miterlimit:10;" d="M 436 58 L 436 74 M 436 74 L 461 74 "/>
<path style="fill:none;stroke-width:1.5;stroke-linecap:butt;stroke-linejoin:miter;stroke:rgb(0%,60%,0%);stroke-opacity:1;stroke-miterlimit:10;" d="M 461 74 L 461 58 M 461 58 L 486 58 "/>
<path style="fill:none;stroke-width:1.5;stroke-linecap:butt;stroke-linejoin:miter;stroke:rgb(0%,60%,0%);stroke-opacity:1;stroke-miterlimit:10;" d="M 486 58 L 486 74 M 486 74 L 511 74 "/>
<path style="fill:none;stroke-width:1.5;stroke-linecap:butt;stroke-linejoin:miter;stroke:rgb(0%,60%,0%);stroke-opacity:1;stroke-miterlimit:10;" d="M 511 74 L 511 58 M 511 58 L 536 58 "/>
<path style="fill:none;stroke-width:1.5;stroke-linecap:butt;stroke-linejoin:miter;stroke:rgb(0%,60%,0%);stroke-opacity:1;stroke-miterlimit:10;" d="M 536 58 L 536 74 M 536 74 L 561 74 "/>
<path style="fill:none;stroke-width:1.5;stroke-linecap:butt;stroke-linejoin:miter;stroke:rgb(0%,60%,0%);stroke-opacity:1;stroke-miterlimit:10;" d="M 561 74 L 561 58 M 561 58 L 586 58 "/>
<path style="fill:none;stroke-width:1.5;stroke-linecap:butt;stroke-linejoin:miter;stroke:rgb(0%,60%,0%);stroke-opacity:1;stroke-miterlimit:10;" d="M 586 58 L 586 74 M 586 74 L 612 74 "/>
<path style="fill:none;stroke-width:1.5;stroke-linecap:butt;stroke-linejoin:miter;stroke:rgb(0%,60%,0%);stroke-opacity:1;stroke-miterlimit:10;" d="M 612 74 L 612 58 M 612 58 L 637 58 "/>
<path style="fill:none;stroke-width:1.5;stroke-linecap:butt;stroke-linejoin:miter;stroke:rgb(0%,60%,0%);stroke-opacity:1;stroke-miterlimit:10;" d="M 637 58 L 637 74 M 637 74 L 664 74 "/>
<path style="fill:none;stroke-width:1.5;stroke-linecap:butt;stroke-linejoin:miter;stroke:rgb(0%,60%,0%);stroke-opacity:1;stroke-miterlimit:10;" d="M 664 74 L 664 58 M 664 58 L 687 58 "/>
<path style="fill:none;stroke-width:1.5;stroke-linecap:butt;stroke-linejoin:miter;stroke:rgb(0%,60%,0%);stroke-opacity:1;stroke-miterlimit:10;" d="M 687 58 L 687 74 M 687 74 L 712 74 "/>
<path style="fill:none;stroke-width:1.5;stroke-linecap:butt;stroke-linejoin:miter;stroke:rgb(0%,60%,0%);stroke-opacity:1;stroke-miterlimit:10;" d="M 712 74 L 712 58 M 712 58 L 737 58 "/>
<path style="fill:none;stroke-width:1.5;stroke-linecap:butt;stroke-linejoin:miter;stroke:rgb(0%,60%,0%);stroke-opacity:1;stroke-miterlimit:10;" d="M 737 58 L 737 74 M 737 74 L 763 74 "/>
<path style="fill:none;stroke-width:1.5;stroke-linecap:butt;stroke-linejoin:miter;stroke:rgb(0%,60%,0%);stroke-opacity:1;stroke-miterlimit:10;" d="M 763 74 L 763 58 M 763 58 L 788 58 "/>
<path style="fill:none;stroke-width:1.5;stroke-linecap:butt;stroke-linejoin:miter;stroke:rgb(0%,60%,0%);stroke-opacity:1;stroke-miterlimit:10;" d="M 788 58 L 788 74 M 788 74 L 813 74 "/>
<path style="fill:none;stroke-width:1.5;stroke-linecap:butt;stroke-linejoin:miter;stroke:rgb(0%,60%,0%);stroke-opacity:1;stroke-miterlimit:10;" d="M 813 74 L 813 58 M 813 58 L 838 58 "/>
<path style="fill:none;stroke-width:1.5;stroke-linecap:butt;stroke-linejoin:miter;stroke:rgb(0%,60%,0%);stroke-opacity:1;stroke-miterlimit:10;" d="M 838 58 L 838 74 M 838 74 L 863 74 "/>
<path style="fill:none;stroke-width:1.5;stroke-linecap:butt;stroke-linejoin:miter;stroke:rgb(0%,60%,0%);stroke-opacity:1;stroke-miterlimit:10;" d="M 863 74 L 863 58 M 863 58 L 888 58 "/>
<path style="fill:none;stroke-width:1.5;stroke-linecap:butt;stroke-linejoin:miter;stroke:rgb(0%,60%,0%);stroke-opacity:1;stroke-miterlimit:10;" d="M 888 58 L 888 74 M 888 74 L 913 74 "/>
<path style="fill:none;stroke-width:1.5;stroke-linecap:butt;stroke-linejoin:miter;stroke:rgb(0%,60%,0%);stroke-opacity:1;stroke-miterlimit:10;" d="M 913 74 L 913 58 M 913 58 L 939 58 "/>
<path style="fill:none;stroke-width:1.5;stroke-linecap:butt;stroke-linejoin:miter;stroke:rgb(0%,60%,0%);stroke-opacity:1;stroke-miterlimit:10;" d="M 939 58 L 939 74 M 939 74 L 964 74 "/>
<path style="fill:none;stroke-width:1.5;stroke-linecap:butt;stroke-linejoin:miter;stroke:rgb(0%,60%,0%);stroke-opacity:1;stroke-miterlimit:10;" d="M 964 74 L 964 58 M 964 58 L 989 58 "/>
<path style="fill:none;stroke-width:1.5;stroke-linecap:butt;stroke-linejoin:miter;stroke:rgb(0%,60%,0%);stroke-opacity:1;stroke-miterlimit:10;" d="M 989 58 L 989 74 M 989 74 L 1014 74 "/>
<path style="fill:none;stroke-width:1.5;stroke-linecap:butt;stroke-linejoin:miter;stroke:rgb(0%,60%,0%);stroke-opacity:1;stroke-miterlimit:10;" d="M 1014 74 L 1014 58 M 1014 58 L 1039 58 "/>
<path style="fill:none;stroke-width:1.5;stroke-linecap:butt;stroke-linejoin:miter;stroke:rgb(0%,60%,0%);stroke-opacity:1;stroke-miterlimit:10;" d="M 1039 58 L 1039 74 M 1039 74 L 1064 74 "/>
<path style="fill:none;stroke-width:1.5;stroke-linecap:butt;stroke-linejoin:miter;stroke:rgb(0%,60%,0%);stroke-opacity:1;stroke-miterlimit:10;" d="M 1064 74 L 1064 58 M 1064 58 L 1089 58 "/>
<path style="fill:none;stroke-width:1.5;stroke-linecap:butt;stroke-linejoin:miter;stroke:rgb(0%,60%,0%);stroke-opacity:1;stroke-miterlimit:10;" d="M 1089 58 L 1089 74 M 1089 74 L 1115 74 "/>
<path style="fill:none;stroke-width:1.5;stroke-linecap:butt;stroke-linejoin:miter;stroke:rgb(0%,60%,0%);stroke-opacity:1;stroke-miterlimit:10;" d="M 1115 74 L 1115 58 M 1115 58 L 1140 58 "/>
<path style="fill:none;stroke-width:1.5;stroke-linecap:butt;stroke-linejoin:miter;stroke:rgb(0%,60%,0%);stroke-opacity:1;stroke-miterlimit:10;" d="M 1140 58 L 1140 74 M 1140 74 L 1167 74 "/>
<path style="fill:none;stroke-width:1.5;stroke-linecap:butt;stroke-linejoin:miter;stroke:rgb(0%,60%,0%);stroke-opacity:1;stroke-miterlimit:10;" d="M 1167 74 L 1167 58 M 1167 58 L 1190 58 "/>
<g style="fill:rgb(5%,5%,5%);fill-opacity:1;">
  <use xlink:href="#glyph0-4" x="28" y="94"/>
  <use xlink:href="#glyph0-12" x="34.622559" y="94"/>
  <use xlink:href="#glyph0-18" x="41.245117" y="94"/>
  <use xlink:href="#glyph0-22" x="47.867676" y="94"/>
</g>
<path style="fill:none;stroke-width:1.5;stroke-linecap:butt;stroke-linejoin:miter;stroke:rgb(0%,60%,0%);stroke-opacity:1;stroke-miterlimit:10;" d="M 159 98 L 612 98 "/>
<path style="fill:none;stroke-width:1.5;stroke-linecap:butt;stroke-linejoin:miter;stroke:rgb(0%,60%,0%);stroke-opacity:1;stroke-miterlimit:10;" d="M 612 98 L 612 82 M 612 82 L 1115 82 "/>
<path style="fill:none;stroke-width:1.5;stroke-linecap:butt;stroke-linejoin:miter;stroke:rgb(0%,60%,0%);stroke-opacity:1;stroke-miterlimit:10;" d="M 1115 82 L 1115 98 M 1115 98 L 1190 98 "/>
<g style="fill:rgb(5%,5%,5%);fill-opacity:1;">
  <use xlink:href="#glyph0-16" x="28" y="118"/>
  <use xlink:href="#glyph0-12" x="34.622559" y="118"/>
  <use xlink:href="#glyph0-19" x="41.245117" y="118"/>
</g>
<path style="fill:none;stroke-width:1.5;stroke-linecap:butt;stroke-linejoin:miter;stroke:rgb(0%,60%,0%);stroke-opacity:1;stroke-miterlimit:10;" d="M 159 122 L 162 122 "/>
<path style="fill:none;stroke-width:1.5;stroke-linecap:butt;stroke-linejoin:miter;stroke:rgb(0%,60%,0%);stroke-opacity:1;stroke-miterlimit:10;" d="M 162 122 L 162 106 M 162 106 L 184 106 "/>
<path style="fill:none;stroke-width:1.5;stroke-linecap:butt;stroke-linejoin:miter;stroke:rgb(0%,60%,0%);stroke-opacity:1;stroke-miterlimit:10;" d="M 184 106 L 184 122 M 184 122 L 209 122 "/>
<path style="fill:none;stroke-width:1.5;stroke-linecap:butt;stroke-linejoin:miter;stroke:rgb(0%,60%,0%);stroke-opacity:1;stroke-miterlimit:10;" d="M 209 122 L 209 106 M 209 106 L 234 106 "/>
<path style="fill:none;stroke-width:1.5;stroke-linecap:butt;stroke-linejoin:miter;stroke:rgb(0%,60%,0%);stroke-opacity:1;stroke-miterlimit:10;" d="M 234 106 L 234 122 M 234 122 L 260 122 "/>
<path style="fill:none;stroke-width:1.5;stroke-linecap:butt;stroke-linejoin:miter;stroke:rgb(0%,60%,0%);stroke-opacity:1;stroke-miterlimit:10;" d="M 260 122 L 260 106 M 260 106 L 285 106 "/>
<path style="fill:none;stroke-width:1.5;stroke-linecap:butt;stroke-linejoin:miter;stroke:rgb(0%,60%,0%);stroke-opacity:1;stroke-miterlimit:10;" d="M 285 106 L 285 122 M 285 122 L 310 122 "/>
<path style="fill:none;stroke-width:1.5;stroke-linecap:butt;stroke-linejoin:miter;stroke:rgb(0%,60%,0%);stroke-opacity:1;stroke-miterlimit:10;" d="M 310 122 L 310 106 M 310 106 L 335 106 "/>
<path style="fill:none;stroke-width:1.5;stroke-linecap:butt;stroke-linejoin:miter;stroke:rgb(0%,60%,0%);stroke-opacity:1;stroke-miterlimit:10;" d="M 335 106 L 335 122 M 335 122 L 360 122 "/>
<path style="fill:none;stroke-width:1.5;stroke-linecap:butt;stroke-linejoin:miter;stroke:rgb(0%,60%,0%);stroke-opacity:1;stroke-miterlimit:10;" d="M 360 122 L 360 106 M 360 106 L 385 106 "/>
<path style="fill:none;stroke-width:1.5;stroke-linecap:butt;stroke-linejoin:miter;stroke:rgb(0%,60%,0%);stroke-opacity:1;stroke-miterlimit:10;" d="M 385 106 L 385 122 M 385 122 L 410 122 "/>
<path style="fill:none;stroke-width:1.5;stroke-linecap:butt;stroke-linejoin:miter;stroke:rgb(0%,60%,0%);stroke-opacity:1;stroke-miterlimit:10;" d="M 410 122 L 410 106 M 410 106 L 436 106 "/>
<path style="fill:none;stroke-width:1.5;stroke-linecap:butt;stroke-linejoin:miter;stroke:rgb(0%,60%,0%);stroke-opacity:1;stroke-miterlimit:10;" d="M 436 106 L 436 122 M 436 122 L 461 122 "/>
<path style="fill:none;stroke-width:1.5;stroke-linecap:butt;stroke-linejoin:miter;stroke:rgb(0%,60%,0%);stroke-opacity:1;stroke-miterlimit:10;" d="M 461 122 L 461 106 M 461 106 L 486 106 "/>
<path style="fill:none;stroke-width:1.5;stroke-linecap:butt;stroke-linejoin:miter;stroke:rgb(0%,60%,0%);stroke-opacity:1;stroke-miterlimit:10;" d="M 486 106 L 486 122 M 486 122 L 511 122 "/>
<path style="fill:none;stroke-width:1.5;stroke-linecap:butt;stroke-linejoin:miter;stroke:rgb(0%,60%,0%);stroke-opacity:1;stroke-miterlimit:10;" d="M 511 122 L 511 106 M 511 106 L 536 106 "/>
<path style="fill:none;stroke-width:1.5;stroke-linecap:butt;stroke-linejoin:miter;stroke:rgb(0%,60%,0%);stroke-opacity:1;stroke-miterlimit:10;" d="M 536 106 L 536 122 M 536 122 L 561 122 "/>
<path style="fill:none;stroke-width:1.5;stroke-linecap:butt;stroke-linejoin:miter;stroke:rgb(0%,60%,0%);stroke-opacity:1;stroke-miterlimit:10;" d="M 561 122 L 561 106 M 561 106 L 586 106 "/>
<path style="fill:none;stroke-width:1.5;stroke-linecap:butt;stroke-linejoin:miter;stroke:rgb(0%,60%,0%);stroke-opacity:1;stroke-miterlimit:10;" d="M 586 106 L 586 122 M 586 122 L 612 122 "/>
<path style="fill:none;stroke-width:1.5;stroke-linecap:butt;stroke-linejoin:miter;stroke:rgb(0%,60%,0%);stroke-opacity:1;stroke-miterlimit:10;" d="M 612 122 L 612 106 M 612 106 L 637 106 "/>
<path style="fill:none;stroke-width:1.5;stroke-linecap:butt;stroke-linejoin:miter;stroke:rgb(0%,60%,0%);stroke-opacity:1;stroke-miterlimit:10;" d="M 637 106 L 637 122 M 637 122 L 664 122 "/>
<path style="fill:none;stroke-width:1.5;stroke-linecap:butt;stroke-linejoin:miter;stroke:rgb(0%,60%,0%);stroke-opacity:1;stroke-miterlimit:10;" d="M 664 122 L 664 106 M 664 106 L 687 106 "/>
<path style="fill:none;stroke-width:1.5;stroke-linecap:butt;stroke-linejoin:miter;stroke:rgb(0%,60%,0%);stroke-opacity:1;stroke-miterlimit:10;" d="M 687 106 L 687 122 M 687 122 L 712 122 "/>
<path style="fill:none;stroke-width:1.5;stroke-linecap:butt;stroke-linejoin:miter;stroke:rgb(0%,60%,0%);stroke-opacity:1;stroke-miterlimit:10;" d="M 712 122 L 712 106 M 712 106 L 737 106 "/>
<path style="fill:none;stroke-width:1.5;stroke-linecap:butt;stroke-linejoin:miter;stroke:rgb(0%,60%,0%);stroke-opacity:1;stroke-miterlimit:10;" d="M 737 106 L 737 122 M 737 122 L 763 122 "/>
<path style="fill:none;stroke-width:1.5;stroke-linecap:butt;stroke-linejoin:miter;stroke:rgb(0%,60%,0%);stroke-opacity:1;stroke-miterlimit:10;" d="M 763 122 L 763 106 M 763 106 L 788 106 "/>
<path style="fill:none;stroke-width:1.5;stroke-linecap:butt;stroke-linejoin:miter;stroke:rgb(0%,60%,0%);stroke-opacity:1;stroke-miterlimit:10;" d="M 788 106 L 788 122 M 788 122 L 813 122 "/>
<path style="fill:none;stroke-width:1.5;stroke-linecap:butt;stroke-linejoin:miter;stroke:rgb(0%,60%,0%);stroke-opacity:1;stroke-miterlimit:10;" d="M 813 122 L 813 106 M 813 106 L 838 106 "/>
<path style="fill:none;stroke-width:1.5;stroke-linecap:butt;stroke-linejoin:miter;stroke:rgb(0%,60%,0%);stroke-opacity:1;stroke-miterlimit:10;" d="M 838 106 L 838 122 M 838 122 L 863 122 "/>
<path style="fill:none;stroke-width:1.5;stroke-linecap:butt;stroke-linejoin:miter;stroke:rgb(0%,60%,0%);stroke-opacity:1;stroke-miterlimit:10;" d="M 863 122 L 863 106 M 863 106 L 888 106 "/>
<path style="fill:none;stroke-width:1.5;stroke-linecap:butt;stroke-linejoin:miter;stroke:rgb(0%,60%,0%);stroke-opacity:1;stroke-miterlimit:10;" d="M 888 106 L 888 122 M 888 122 L 913 122 "/>
<path style="fill:none;stroke-width:1.5;stroke-linecap:butt;stroke-linejoin:miter;stroke:rgb(0%,60%,0%);stroke-opacity:1;stroke-miterlimit:10;" d="M 913 122 L 913 106 M 913 106 L 939 106 "/>
<path style="fill:none;stroke-width:1.5;stroke-linecap:butt;stroke-linejoin:miter;stroke:rgb(0%,60%,0%);stroke-opacity:1;stroke-miterlimit:10;" d="M 939 106 L 939 122 M 939 122 L 964 122 "/>
<path style="fill:none;stroke-width:1.5;stroke-linecap:butt;stroke-linejoin:miter;stroke:rgb(0%,60%,0%);stroke-opacity:1;stroke-miterlimit:10;" d="M 964 122 L 964 106 M 964 106 L 989 106 "/>
<path style="fill:none;stroke-width:1.5;stroke-linecap:butt;stroke-linejoin:miter;stroke:rgb(0%,60%,0%);stroke-opacity:1;stroke-miterlimit:10;" d="M 989 106 L 989 122 M 989 122 L 1014 122 "/>
<path style="fill:none;stroke-width:1.5;stroke-linecap:butt;stroke-linejoin:miter;stroke:rgb(0%,60%,0%);stroke-opacity:1;stroke-miterlimit:10;" d="M 1014 122 L 1014 106 M 1014 106 L 1039 106 "/>
<path style="fill:none;stroke-width:1.5;stroke-linecap:butt;stroke-linejoin:miter;stroke:rgb(0%,60%,0%);stroke-opacity:1;stroke-miterlimit:10;" d="M 1039 106 L 1039 122 M 1039 122 L 1064 122 "/>
<path style="fill:none;stroke-width:1.5;stroke-linecap:butt;stroke-linejoin:miter;stroke:rgb(0%,60%,0%);stroke-opacity:1;stroke-miterlimit:10;" d="M 1064 122 L 1064 106 M 1064 106 L 1089 106 "/>
<path style="fill:none;stroke-width:1.5;stroke-linecap:butt;stroke-linejoin:miter;stroke:rgb(0%,60%,0%);stroke-opacity:1;stroke-miterlimit:10;" d="M 1089 106 L 1089 122 M 1089 122 L 1115 122 "/>
<path style="fill:none;stroke-width:1.5;stroke-linecap:butt;stroke-linejoin:miter;stroke:rgb(0%,60%,0%);stroke-opacity:1;stroke-miterlimit:10;" d="M 1115 122 L 1115 106 M 1115 106 L 1140 106 "/>
<path style="fill:none;stroke-width:1.5;stroke-linecap:butt;stroke-linejoin:miter;stroke:rgb(0%,60%,0%);stroke-opacity:1;stroke-miterlimit:10;" d="M 1140 106 L 1140 122 M 1140 122 L 1167 122 "/>
<path style="fill:none;stroke-width:1.5;stroke-linecap:butt;stroke-linejoin:miter;stroke:rgb(0%,60%,0%);stroke-opacity:1;stroke-miterlimit:10;" d="M 1167 122 L 1167 106 M 1167 106 L 1190 106 "/>
<g style="fill:rgb(5%,5%,5%);fill-opacity:1;">
  <use xlink:href="#glyph0-12" x="28" y="142"/>
  <use xlink:href="#glyph0-18" x="34.622559" y="142"/>
  <use xlink:href="#glyph0-22" x="41.245117" y="142"/>
</g>
<path style="fill:none;stroke-width:1.5;stroke-linecap:butt;stroke-linejoin:miter;stroke:rgb(0%,60%,0%);stroke-opacity:1;stroke-miterlimit:10;" d="M 159 146 L 612 146 "/>
<path style="fill:none;stroke-width:1.5;stroke-linecap:butt;stroke-linejoin:miter;stroke:rgb(0%,60%,0%);stroke-opacity:1;stroke-miterlimit:10;" d="M 612 146 L 612 130 M 612 130 L 1115 130 "/>
<path style="fill:none;stroke-width:1.5;stroke-linecap:butt;stroke-linejoin:miter;stroke:rgb(0%,60%,0%);stroke-opacity:1;stroke-miterlimit:10;" d="M 1115 130 L 1115 146 M 1115 146 L 1190 146 "/>
<g style="fill:rgb(5%,5%,5%);fill-opacity:1;">
  <use xlink:href="#glyph0-23" x="28" y="166"/>
  <use xlink:href="#glyph0-11" x="34.622559" y="166"/>
  <use xlink:href="#glyph0-12" x="41.245117" y="166"/>
  <use xlink:href="#glyph0-4" x="47.867676" y="166"/>
  <use xlink:href="#glyph0-18" x="54.490234" y="166"/>
</g>
<path style="fill:none;stroke-width:1.5;stroke-linecap:butt;stroke-linejoin:miter;stroke:rgb(0%,60%,0%);stroke-opacity:1;stroke-miterlimit:10;" d="M 159 170 L 612 170 "/>
<path style="fill:none;stroke-width:1.5;stroke-linecap:butt;stroke-linejoin:miter;stroke:rgb(0%,60%,0%);stroke-opacity:1;stroke-miterlimit:10;" d="M 612 170 L 612 154 M 612 154 L 1115 154 "/>
<path style="fill:none;stroke-width:1.5;stroke-linecap:butt;stroke-linejoin:miter;stroke:rgb(0%,60%,0%);stroke-opacity:1;stroke-miterlimit:10;" d="M 1115 154 L 1115 170 M 1115 170 L 1190 170 "/>
<g style="fill:rgb(5%,5%,5%);fill-opacity:1;">
  <use xlink:href="#glyph0-16" x="28" y="190"/>
  <use xlink:href="#glyph0-15" x="34.622559" y="190"/>
  <use xlink:href="#glyph0-11" x="41.245117" y="190"/>
  <use xlink:href="#glyph0-3" x="47.867676" y="190"/>
  <use xlink:href="#glyph0-14" x="54.490234" y="190"/>
</g>
<path style="fill:none;stroke-width:1.5;stroke-linecap:butt;stroke-linejoin:miter;stroke:rgb(0%,60%,0%);stroke-opacity:1;stroke-miterlimit:10;" d="M 159 194 L 162 194 "/>
<path style="fill:none;stroke-width:1.5;stroke-linecap:butt;stroke-linejoin:miter;stroke:rgb(0%,60%,0%);stroke-opacity:1;stroke-miterlimit:10;" d="M 162 194 L 162 178 M 162 178 L 209 178 "/>
<path style="fill:none;stroke-width:1.5;stroke-linecap:butt;stroke-linejoin:miter;stroke:rgb(0%,60%,0%);stroke-opacity:1;stroke-miterlimit:10;" d="M 209 178 L 209 194 M 209 194 L 260 194 "/>
<path style="fill:none;stroke-width:1.5;stroke-linecap:butt;stroke-linejoin:miter;stroke:rgb(0%,60%,0%);stroke-opacity:1;stroke-miterlimit:10;" d="M 260 194 L 260 178 M 260 178 L 310 178 "/>
<path style="fill:none;stroke-width:1.5;stroke-linecap:butt;stroke-linejoin:miter;stroke:rgb(0%,60%,0%);stroke-opacity:1;stroke-miterlimit:10;" d="M 310 178 L 310 194 M 310 194 L 360 194 "/>
<path style="fill:none;stroke-width:1.5;stroke-linecap:butt;stroke-linejoin:miter;stroke:rgb(0%,60%,0%);stroke-opacity:1;stroke-miterlimit:10;" d="M 360 194 L 360 178 M 360 178 L 410 178 "/>
<path style="fill:none;stroke-width:1.5;stroke-linecap:butt;stroke-linejoin:miter;stroke:rgb(0%,60%,0%);stroke-opacity:1;stroke-miterlimit:10;" d="M 410 178 L 410 194 M 410 194 L 461 194 "/>
<path style="fill:none;stroke-width:1.5;stroke-linecap:butt;stroke-linejoin:miter;stroke:rgb(0%,60%,0%);stroke-opacity:1;stroke-miterlimit:10;" d="M 461 194 L 461 178 M 461 178 L 511 178 "/>
<path style="fill:none;stroke-width:1.5;stroke-linecap:butt;stroke-linejoin:miter;stroke:rgb(0%,60%,0%);stroke-opacity:1;stroke-miterlimit:10;" d="M 511 178 L 511 194 M 511 194 L 561 194 "/>
<path style="fill:none;stroke-width:1.5;stroke-linecap:butt;stroke-linejoin:miter;stroke:rgb(0%,60%,0%);stroke-opacity:1;stroke-miterlimit:10;" d="M 561 194 L 561 178 M 561 178 L 612 178 "/>
<path style="fill:none;stroke-width:1.5;stroke-linecap:butt;stroke-linejoin:miter;stroke:rgb(0%,60%,0%);stroke-opacity:1;stroke-miterlimit:10;" d="M 612 178 L 612 194 M 612 194 L 664 194 "/>
<path style="fill:none;stroke-width:1.5;stroke-linecap:butt;stroke-linejoin:miter;stroke:rgb(0%,60%,0%);stroke-opacity:1;stroke-miterlimit:10;" d="M 664 194 L 664 178 M 664 178 L 712 178 "/>
<path style="fill:none;stroke-width:1.5;stroke-linecap:butt;stroke-linejoin:miter;stroke:rgb(0%,60%,0%);stroke-opacity:1;stroke-miterlimit:10;" d="M 712 178 L 712 194 M 712 194 L 763 194 "/>
<path style="fill:none;stroke-width:1.5;stroke-linecap:butt;stroke-linejoin:miter;stroke:rgb(0%,60%,0%);stroke-opacity:1;stroke-miterlimit:10;" d="M 763 194 L 763 178 M 763 178 L 813 178 "/>
<path style="fill:none;stroke-width:1.5;stroke-linecap:butt;stroke-linejoin:miter;stroke:rgb(0%,60%,0%);stroke-opacity:1;stroke-miterlimit:10;" d="M 813 178 L 813 194 M 813 194 L 863 194 "/>
<path style="fill:none;stroke-width:1.5;stroke-linecap:butt;stroke-linejoin:miter;stroke:rgb(0%,60%,0%);stroke-opacity:1;stroke-miterlimit:10;" d="M 863 194 L 863 178 M 863 178 L 913 178 "/>
<path style="fill:none;stroke-width:1.5;stroke-linecap:butt;stroke-linejoin:miter;stroke:rgb(0%,60%,0%);stroke-opacity:1;stroke-miterlimit:10;" d="M 913 178 L 913 194 M 913 194 L 964 194 "/>
<path style="fill:none;stroke-width:1.5;stroke-linecap:butt;stroke-linejoin:miter;stroke:rgb(0%,60%,0%);stroke-opacity:1;stroke-miterlimit:10;" d="M 964 194 L 964 178 M 964 178 L 1014 178 "/>
<path style="fill:none;stroke-width:1.5;stroke-linecap:butt;stroke-linejoin:miter;stroke:rgb(0%,60%,0%);stroke-opacity:1;stroke-miterlimit:10;" d="M 1014 178 L 1014 194 M 1014 194 L 1064 194 "/>
<path style="fill:none;stroke-width:1.5;stroke-linecap:butt;stroke-linejoin:miter;stroke:rgb(0%,60%,0%);stroke-opacity:1;stroke-miterlimit:10;" d="M 1064 194 L 1064 178 M 1064 178 L 1115 178 "/>
<path style="fill:none;stroke-width:1.5;stroke-linecap:butt;stroke-linejoin:miter;stroke:rgb(0%,60%,0%);stroke-opacity:1;stroke-miterlimit:10;" d="M 1115 178 L 1115 194 M 1115 194 L 1167 194 "/>
<path style="fill:none;stroke-width:1.5;stroke-linecap:butt;stroke-linejoin:miter;stroke:rgb(0%,60%,0%);stroke-opacity:1;stroke-miterlimit:10;" d="M 1167 194 L 1167 178 M 1167 178 L 1190 178 "/>
</g>
</svg>
