<svg xmlns="http://www.w3.org/2000/svg" xmlns:xlink="http://www.w3.org/1999/xlink" xmlns:s="https://github.com/nturley/netlistsvg" width="1231" height="924.5">
  <style>svg {
    stroke:#000;
    fill:none;
  }
  text {
    fill:#000;
    stroke:none;
    font-size:10px;
    font-weight: bold;
    font-family: "Courier New", monospace;
  }
  .nodelabel {
    text-anchor: middle;
  }
  .inputPortLabel {
    text-anchor: end;
  }
  .splitjoinBody {
    fill:#000;
  }</style>
  <g s:type="add" transform="translate(84.33333333333333,555.5)" s:width="25" s:height="25" id="cell_$add$counter.v:36$4">
    <s:alias val="$add"/>
    <circle r="12.5" cx="12.5" cy="12.5" class="cell_$add$counter.v:36$4"/>
    <line x1="7.5" x2="17.5" y1="12.5" y2="12.5" class="cell_$add$counter.v:36$4"/>
    <line x1="12.5" x2="12.5" y1="7.5" y2="17.5" class="cell_$add$counter.v:36$4"/>
    <g s:x="3" s:y="5" s:pid="A"/>
    <g s:x="3" s:y="20" s:pid="B"/>
    <g s:x="25" s:y="12.5" s:pid="Y"/>
  </g>
  <g s:type="add" transform="translate(698,23)" s:width="25" s:height="25" id="cell_$add$counter.v:38$5">
    <s:alias val="$add"/>
    <circle r="12.5" cx="12.5" cy="12.5" class="cell_$add$counter.v:38$5"/>
    <line x1="7.5" x2="17.5" y1="12.5" y2="12.5" class="cell_$add$counter.v:38$5"/>
    <line x1="12.5" x2="12.5" y1="7.5" y2="17.5" class="cell_$add$counter.v:38$5"/>
    <g s:x="3" s:y="5" s:pid="A"/>
    <g s:x="3" s:y="20" s:pid="B"/>
    <g s:x="25" s:y="12.5" s:pid="Y"/>
  </g>
  <g s:type="add" transform="translate(400,699)" s:width="25" s:height="25" id="cell_$add$counter.v:44$7">
    <s:alias val="$add"/>
    <circle r="12.5" cx="12.5" cy="12.5" class="cell_$add$counter.v:44$7"/>
    <line x1="7.5" x2="17.5" y1="12.5" y2="12.5" class="cell_$add$counter.v:44$7"/>
    <line x1="12.5" x2="12.5" y1="7.5" y2="17.5" class="cell_$add$counter.v:44$7"/>
    <g s:x="3" s:y="5" s:pid="A"/>
    <g s:x="3" s:y="20" s:pid="B"/>
    <g s:x="25" s:y="12.5" s:pid="Y"/>
  </g>
  <g s:type="add" transform="translate(698,624)" s:width="25" s:height="25" id="cell_$add$counter.v:46$8">
    <s:alias val="$add"/>
    <circle r="12.5" cx="12.5" cy="12.5" class="cell_$add$counter.v:46$8"/>
    <line x1="7.5" x2="17.5" y1="12.5" y2="12.5" class="cell_$add$counter.v:46$8"/>
    <line x1="12.5" x2="12.5" y1="7.5" y2="17.5" class="cell_$add$counter.v:46$8"/>
    <g s:x="3" s:y="5" s:pid="A"/>
    <g s:x="3" s:y="20" s:pid="B"/>
    <g s:x="25" s:y="12.5" s:pid="Y"/>
  </g>
  <g s:type="add" transform="translate(525.6666666666666,778)" s:width="25" s:height="25" id="cell_$add$counter.v:61$11">
    <s:alias val="$add"/>
    <circle r="12.5" cx="12.5" cy="12.5" class="cell_$add$counter.v:61$11"/>
    <line x1="7.5" x2="17.5" y1="12.5" y2="12.5" class="cell_$add$counter.v:61$11"/>
    <line x1="12.5" x2="12.5" y1="7.5" y2="17.5" class="cell_$add$counter.v:61$11"/>
    <g s:x="3" s:y="5" s:pid="A"/>
    <g s:x="3" s:y="20" s:pid="B"/>
    <g s:x="25" s:y="12.5" s:pid="Y"/>
  </g>
  <g s:type="generic" transform="translate(892,691)" s:width="30" s:height="40" id="cell_$auto$proc_rom.cc:155:do_switch$19">
    <text x="15" y="-4" class="nodelabel cell_$auto$proc_rom.cc:155:do_switch$19" s:attribute="ref">$mem_v2</text>
    <rect width="30" height="180" s:generic="body" class="cell_$auto$proc_rom.cc:155:do_switch$19"/>
    <g transform="translate(0,10)" s:x="0" s:y="10" s:pid="in0" id="port_$auto$proc_rom.cc:155:do_switch$19~RD_ADDR">
      <text x="-3" y="-4" class="inputPortLabel cell_$auto$proc_rom.cc:155:do_switch$19">RD_ADDR</text>
    </g>
    <g transform="translate(0,30)" s:x="0" s:y="10" s:pid="in0" id="port_$auto$proc_rom.cc:155:do_switch$19~RD_ARST">
      <text x="-3" y="-4" class="inputPortLabel cell_$auto$proc_rom.cc:155:do_switch$19">RD_ARST</text>
    </g>
    <g transform="translate(0,50)" s:x="0" s:y="10" s:pid="in0" id="port_$auto$proc_rom.cc:155:do_switch$19~RD_CLK">
      <text x="-3" y="-4" class="inputPortLabel cell_$auto$proc_rom.cc:155:do_switch$19">RD_CLK</text>
    </g>
    <g transform="translate(0,70)" s:x="0" s:y="10" s:pid="in0" id="port_$auto$proc_rom.cc:155:do_switch$19~RD_EN">
      <text x="-3" y="-4" class="inputPortLabel cell_$auto$proc_rom.cc:155:do_switch$19">RD_EN</text>
    </g>
    <g transform="translate(0,90)" s:x="0" s:y="10" s:pid="in0" id="port_$auto$proc_rom.cc:155:do_switch$19~RD_SRST">
      <text x="-3" y="-4" class="inputPortLabel cell_$auto$proc_rom.cc:155:do_switch$19">RD_SRST</text>
    </g>
    <g transform="translate(0,110)" s:x="0" s:y="10" s:pid="in0" id="port_$auto$proc_rom.cc:155:do_switch$19~WR_ADDR">
      <text x="-3" y="-4" class="inputPortLabel cell_$auto$proc_rom.cc:155:do_switch$19">WR_ADDR</text>
    </g>
    <g transform="translate(0,130)" s:x="0" s:y="10" s:pid="in0" id="port_$auto$proc_rom.cc:155:do_switch$19~WR_CLK">
      <text x="-3" y="-4" class="inputPortLabel cell_$auto$proc_rom.cc:155:do_switch$19">WR_CLK</text>
    </g>
    <g transform="translate(0,150)" s:x="0" s:y="10" s:pid="in0" id="port_$auto$proc_rom.cc:155:do_switch$19~WR_DATA">
      <text x="-3" y="-4" class="inputPortLabel cell_$auto$proc_rom.cc:155:do_switch$19">WR_DATA</text>
    </g>
    <g transform="translate(0,170)" s:x="0" s:y="10" s:pid="in0" id="port_$auto$proc_rom.cc:155:do_switch$19~WR_EN">
      <text x="-3" y="-4" class="inputPortLabel cell_$auto$proc_rom.cc:155:do_switch$19">WR_EN</text>
    </g>
    <g transform="translate(30,10)" s:x="30" s:y="10" s:pid="out0" id="port_$auto$proc_rom.cc:155:do_switch$19~RD_DATA">
      <text x="5" y="-4" style="fill:#000; stroke:none" class="cell_$auto$proc_rom.cc:155:do_switch$19">RD_DATA</text>
    </g>
  </g>
  <g s:type="eq" transform="translate(154,121.5)" s:width="25" s:height="25" id="cell_$eq$counter.v:31$2">
    <s:alias val="$eq"/>
    <circle r="12.5" cx="12.5" cy="12.5" class="cell_$eq$counter.v:31$2"/>
    <line x1="7.5" x2="17.5" y1="10" y2="10" class="cell_$eq$counter.v:31$2"/>
    <line x1="7.5" x2="17.5" y1="15" y2="15" class="cell_$eq$counter.v:31$2"/>
    <g s:x="3" s:y="5" s:pid="A"/>
    <g s:x="3" s:y="20" s:pid="B"/>
    <g s:x="25" s:y="12.5" s:pid="Y"/>
  </g>
  <g s:type="eq" transform="translate(84.33333333333333,430.5)" s:width="25" s:height="25" id="cell_$eq$counter.v:33$3">
    <s:alias val="$eq"/>
    <circle r="12.5" cx="12.5" cy="12.5" class="cell_$eq$counter.v:33$3"/>
    <line x1="7.5" x2="17.5" y1="10" y2="10" class="cell_$eq$counter.v:33$3"/>
    <line x1="7.5" x2="17.5" y1="15" y2="15" class="cell_$eq$counter.v:33$3"/>
    <g s:x="3" s:y="5" s:pid="A"/>
    <g s:x="3" s:y="20" s:pid="B"/>
    <g s:x="25" s:y="12.5" s:pid="Y"/>
  </g>
  <g s:type="eq" transform="translate(400,600.5)" s:width="25" s:height="25" id="cell_$eq$counter.v:42$6">
    <s:alias val="$eq"/>
    <circle r="12.5" cx="12.5" cy="12.5" class="cell_$eq$counter.v:42$6"/>
    <line x1="7.5" x2="17.5" y1="10" y2="10" class="cell_$eq$counter.v:42$6"/>
    <line x1="7.5" x2="17.5" y1="15" y2="15" class="cell_$eq$counter.v:42$6"/>
    <g s:x="3" s:y="5" s:pid="A"/>
    <g s:x="3" s:y="20" s:pid="B"/>
    <g s:x="25" s:y="12.5" s:pid="Y"/>
  </g>
  <g s:type="generic" transform="translate(369,772.5)" s:width="30" s:height="40" id="cell_$mul$counter.v:61$10">
    <text x="15" y="-4" class="nodelabel cell_$mul$counter.v:61$10" s:attribute="ref">$mul</text>
    <rect width="30" height="40" s:generic="body" class="cell_$mul$counter.v:61$10"/>
    <g transform="translate(0,10)" s:x="0" s:y="10" s:pid="in0" id="port_$mul$counter.v:61$10~A">
      <text x="-3" y="-4" class="inputPortLabel cell_$mul$counter.v:61$10">A</text>
    </g>
    <g transform="translate(0,30)" s:x="0" s:y="10" s:pid="in0" id="port_$mul$counter.v:61$10~B">
      <text x="-3" y="-4" class="inputPortLabel cell_$mul$counter.v:61$10">B</text>
    </g>
    <g transform="translate(30,10)" s:x="30" s:y="10" s:pid="out0" id="port_$mul$counter.v:61$10~Y">
      <text x="5" y="-4" style="fill:#000; stroke:none" class="cell_$mul$counter.v:61$10">Y</text>
    </g>
  </g>
  <g s:type="dff" transform="translate(1131,444)" s:width="30" s:height="40" id="cell_$procdff$43">
    <s:alias val="$dff"/>
    <s:alias val="$_DFF_"/>
    <s:alias val="$_DFF_P_"/>
    <rect width="30" height="40" x="0" y="0" class="cell_$procdff$43"/>
    <path d="M0,35 L5,30 L0,25" class="cell_$procdff$43"/>
    <g s:x="30" s:y="10" s:pid="Q"/>
    <g s:x="0" s:y="30" s:pid="CLK"/>
    <g s:x="0" s:y="30" s:pid="C"/>
    <g s:x="0" s:y="10" s:pid="D"/>
  </g>
  <g s:type="dff" transform="translate(1131,35.5)" s:width="30" s:height="40" id="cell_$procdff$44">
    <s:alias val="$dff"/>
    <s:alias val="$_DFF_"/>
    <s:alias val="$_DFF_P_"/>
    <rect width="30" height="40" x="0" y="0" class="cell_$procdff$44"/>
    <path d="M0,35 L5,30 L0,25" class="cell_$procdff$44"/>
    <g s:x="30" s:y="10" s:pid="Q"/>
    <g s:x="0" s:y="30" s:pid="CLK"/>
    <g s:x="0" s:y="30" s:pid="C"/>
    <g s:x="0" s:y="10" s:pid="D"/>
  </g>
  <g s:type="dff" transform="translate(589,691.5)" s:width="30" s:height="40" id="cell_$procdff$45">
    <s:alias val="$dff"/>
    <s:alias val="$_DFF_"/>
    <s:alias val="$_DFF_P_"/>
    <rect width="30" height="40" x="0" y="0" class="cell_$procdff$45"/>
    <path d="M0,35 L5,30 L0,25" class="cell_$procdff$45"/>
    <g s:x="30" s:y="10" s:pid="Q"/>
    <g s:x="0" s:y="30" s:pid="CLK"/>
    <g s:x="0" s:y="30" s:pid="C"/>
    <g s:x="0" s:y="10" s:pid="D"/>
  </g>
  <g s:type="dff" transform="translate(283.5,393)" s:width="30" s:height="40" id="cell_$procdff$46">
    <s:alias val="$dff"/>
    <s:alias val="$_DFF_"/>
    <s:alias val="$_DFF_P_"/>
    <rect width="30" height="40" x="0" y="0" class="cell_$procdff$46"/>
    <path d="M0,35 L5,30 L0,25" class="cell_$procdff$46"/>
    <g s:x="30" s:y="10" s:pid="Q"/>
    <g s:x="0" s:y="30" s:pid="CLK"/>
    <g s:x="0" s:y="30" s:pid="C"/>
    <g s:x="0" s:y="10" s:pid="D"/>
  </g>
  <g s:type="mux" transform="translate(939,155)" s:width="20" s:height="40" id="cell_$procmux$24">
    <s:alias val="$pmux"/>
    <s:alias val="$mux"/>
    <s:alias val="$_MUX_"/>
    <path d="M0,0 L20,10 L20,30 L0,40 Z" class="cell_$procmux$24"/>
    <g s:x="0" s:y="10" s:pid="A"/>
    <g s:x="0" s:y="30" s:pid="B"/>
    <g s:x="10" s:y="35" s:pid="S"/>
    <g s:x="20" s:y="20" s:pid="Y"/>
  </g>
  <g s:type="eq" transform="translate(594,273)" s:width="25" s:height="25" id="cell_$procmux$25_CMP0">
    <s:alias val="$eq"/>
    <circle r="12.5" cx="12.5" cy="12.5" class="cell_$procmux$25_CMP0"/>
    <line x1="7.5" x2="17.5" y1="10" y2="10" class="cell_$procmux$25_CMP0"/>
    <line x1="7.5" x2="17.5" y1="15" y2="15" class="cell_$procmux$25_CMP0"/>
    <g s:x="3" s:y="5" s:pid="A"/>
    <g s:x="3" s:y="20" s:pid="B"/>
    <g s:x="25" s:y="12.5" s:pid="Y"/>
  </g>
  <g s:type="eq" transform="translate(594,333)" s:width="25" s:height="25" id="cell_$procmux$26_CMP0">
    <s:alias val="$eq"/>
    <circle r="12.5" cx="12.5" cy="12.5" class="cell_$procmux$26_CMP0"/>
    <line x1="7.5" x2="17.5" y1="10" y2="10" class="cell_$procmux$26_CMP0"/>
    <line x1="7.5" x2="17.5" y1="15" y2="15" class="cell_$procmux$26_CMP0"/>
    <g s:x="3" s:y="5" s:pid="A"/>
    <g s:x="3" s:y="20" s:pid="B"/>
    <g s:x="25" s:y="12.5" s:pid="Y"/>
  </g>
  <g s:type="not" transform="translate(589,393)" s:width="30" s:height="20" id="cell_$procmux$27_CMP0">
    <s:alias val="$_NOT_"/>
    <s:alias val="$not"/>
    <s:alias val="$logic_not"/>
    <path d="M0,0 L0,20 L20,10 Z" class="cell_$procmux$27_CMP0"/>
    <circle cx="23" cy="10" r="3" class="cell_$procmux$27_CMP0"/>
    <g s:x="0" s:y="10" s:pid="A"/>
    <g s:x="25" s:y="10" s:pid="Y"/>
  </g>
  <g s:type="mux" transform="translate(939,434)" s:width="20" s:height="40" id="cell_$procmux$29">
    <s:alias val="$pmux"/>
    <s:alias val="$mux"/>
    <s:alias val="$_MUX_"/>
    <path d="M0,0 L20,10 L20,30 L0,40 Z" class="cell_$procmux$29"/>
    <g s:x="0" s:y="10" s:pid="A"/>
    <g s:x="0" s:y="30" s:pid="B"/>
    <g s:x="10" s:y="35" s:pid="S"/>
    <g s:x="20" s:y="20" s:pid="Y"/>
  </g>
  <g s:type="mux" transform="translate(939,25.5)" s:width="20" s:height="40" id="cell_$procmux$32">
    <s:alias val="$pmux"/>
    <s:alias val="$mux"/>
    <s:alias val="$_MUX_"/>
    <path d="M0,0 L20,10 L20,30 L0,40 Z" class="cell_$procmux$32"/>
    <g s:x="0" s:y="10" s:pid="A"/>
    <g s:x="0" s:y="30" s:pid="B"/>
    <g s:x="10" s:y="35" s:pid="S"/>
    <g s:x="20" s:y="20" s:pid="Y"/>
  </g>
  <g s:type="mux" transform="translate(155.66666666666666,393)" s:width="20" s:height="40" id="cell_$procmux$36">
    <s:alias val="$pmux"/>
    <s:alias val="$mux"/>
    <s:alias val="$_MUX_"/>
    <path d="M0,0 L20,10 L20,30 L0,40 Z" class="cell_$procmux$36"/>
    <g s:x="0" s:y="10" s:pid="A"/>
    <g s:x="0" s:y="30" s:pid="B"/>
    <g s:x="10" s:y="35" s:pid="S"/>
    <g s:x="20" s:y="20" s:pid="Y"/>
  </g>
  <g s:type="mux" transform="translate(220.66666666666666,383)" s:width="20" s:height="40" id="cell_$procmux$38">
    <s:alias val="$pmux"/>
    <s:alias val="$mux"/>
    <s:alias val="$_MUX_"/>
    <path d="M0,0 L20,10 L20,30 L0,40 Z" class="cell_$procmux$38"/>
    <g s:x="0" s:y="10" s:pid="A"/>
    <g s:x="0" s:y="30" s:pid="B"/>
    <g s:x="10" s:y="35" s:pid="S"/>
    <g s:x="20" s:y="20" s:pid="Y"/>
  </g>
  <g s:type="mux" transform="translate(530.6666666666666,681.5)" s:width="20" s:height="40" id="cell_$procmux$41">
    <s:alias val="$pmux"/>
    <s:alias val="$mux"/>
    <s:alias val="$_MUX_"/>
    <path d="M0,0 L20,10 L20,30 L0,40 Z" class="cell_$procmux$41"/>
    <g s:x="0" s:y="10" s:pid="A"/>
    <g s:x="0" s:y="30" s:pid="B"/>
    <g s:x="10" s:y="35" s:pid="S"/>
    <g s:x="20" s:y="20" s:pid="Y"/>
  </g>
  <g s:type="generic" transform="translate(661,691)" s:width="30" s:height="40" id="cell_$shiftx$counter.v:61$12">
    <text x="15" y="-4" class="nodelabel cell_$shiftx$counter.v:61$12" s:attribute="ref">$shiftx</text>
    <rect width="30" height="40" s:generic="body" class="cell_$shiftx$counter.v:61$12"/>
    <g transform="translate(0,10)" s:x="0" s:y="10" s:pid="in0" id="port_$shiftx$counter.v:61$12~A">
      <text x="-3" y="-4" class="inputPortLabel cell_$shiftx$counter.v:61$12">A</text>
    </g>
    <g transform="translate(0,30)" s:x="0" s:y="10" s:pid="in0" id="port_$shiftx$counter.v:61$12~B">
      <text x="-3" y="-4" class="inputPortLabel cell_$shiftx$counter.v:61$12">B</text>
    </g>
    <g transform="translate(30,10)" s:x="30" s:y="10" s:pid="out0" id="port_$shiftx$counter.v:61$12~Y">
      <text x="5" y="-4" style="fill:#000; stroke:none" class="cell_$shiftx$counter.v:61$12">Y</text>
    </g>
  </g>
  <g s:type="inputExt" transform="translate(214,453)" s:width="30" s:height="20" id="cell_clock">
    <text x="15" y="-4" class="nodelabel cell_clock" s:attribute="ref">clock</text>
    <s:alias val="$_inputExt_"/>
    <path d="M0,0 L0,20 L15,20 L30,10 L15,0 Z" class="cell_clock"/>
    <g s:x="28" s:y="10" s:pid="Y"/>
  </g>
  <g s:type="outputExt" transform="translate(1131,691.5)" s:width="30" s:height="20" id="cell_sevenSegments">
    <text x="15" y="-4" class="nodelabel cell_sevenSegments" s:attribute="ref">sevenSegments</text>
    <s:alias val="$_outputExt_"/>
    <path d="M30,0 L30,20 L15,20 L0,10 L15,0 Z" class="cell_sevenSegments"/>
    <g s:x="0" s:y="10" s:pid="A"/>
  </g>
  <g s:type="outputExt" transform="translate(1131,165)" s:width="30" s:height="20" id="cell_cableSelect">
    <text x="15" y="-4" class="nodelabel cell_cableSelect" s:attribute="ref">cableSelect</text>
    <s:alias val="$_outputExt_"/>
    <path d="M30,0 L30,20 L15,20 L0,10 L15,0 Z" class="cell_cableSelect"/>
    <g s:x="0" s:y="10" s:pid="A"/>
  </g>
  <g s:type="constant" transform="translate(12,565.5)" s:width="30" s:height="20" id="cell_1">
    <text x="15" y="-4" class="nodelabel cell_1" s:attribute="ref">1</text>
    <s:alias val="$_constant_"/>
    <rect width="30" height="20" class="cell_1"/>
    <g s:x="30" s:y="10" s:pid="Y"/>
  </g>
  <g s:type="constant" transform="translate(369,860.5)" s:width="30" s:height="20" id="cell_0">
    <text x="15" y="-4" class="nodelabel cell_0" s:attribute="ref">0</text>
    <s:alias val="$_constant_"/>
    <rect width="30" height="20" class="cell_0"/>
    <g s:x="30" s:y="10" s:pid="Y"/>
  </g>
  <g s:type="constant" transform="translate(77,131.5)" s:width="30" s:height="20" id="cell_11000011010011111">
    <text x="15" y="-4" class="nodelabel cell_11000011010011111" s:attribute="ref">0x1869f</text>
    <s:alias val="$_constant_"/>
    <rect width="30" height="20" class="cell_11000011010011111"/>
    <g s:x="30" s:y="10" s:pid="Y"/>
  </g>
  <g s:type="constant" transform="translate(12,440.5)" s:width="30" s:height="20" id="cell_11">
    <text x="15" y="-4" class="nodelabel cell_11" s:attribute="ref">11</text>
    <s:alias val="$_constant_"/>
    <rect width="30" height="20" class="cell_11"/>
    <g s:x="30" s:y="10" s:pid="Y"/>
  </g>
  <g s:type="constant" transform="translate(279,610.5)" s:width="30" s:height="20" id="cell_1011111010111100000111">
    <text x="15" y="-4" class="nodelabel cell_1011111010111100000111" s:attribute="ref">0x2faf07</text>
    <s:alias val="$_constant_"/>
    <rect width="30" height="20" class="cell_1011111010111100000111"/>
    <g s:x="30" s:y="10" s:pid="Y"/>
  </g>
  <g s:type="constant" transform="translate(279,793)" s:width="30" s:height="20" id="cell_100">
    <text x="15" y="-4" class="nodelabel cell_100" s:attribute="ref">100</text>
    <s:alias val="$_constant_"/>
    <rect width="30" height="20" class="cell_100"/>
    <g s:x="30" s:y="10" s:pid="Y"/>
  </g>
  <g s:type="constant" transform="translate(661,155)" s:width="30" s:height="20" id="cell_0111">
    <text x="15" y="-4" class="nodelabel cell_0111" s:attribute="ref">0x7</text>
    <s:alias val="$_constant_"/>
    <rect width="30" height="20" class="cell_0111"/>
    <g s:x="30" s:y="10" s:pid="Y"/>
  </g>
  <g s:type="constant" transform="translate(661,220)" s:width="30" s:height="20" id="cell_111011011011">
    <text x="15" y="-4" class="nodelabel cell_111011011011" s:attribute="ref">0xedb</text>
    <s:alias val="$_constant_"/>
    <rect width="30" height="20" class="cell_111011011011"/>
    <g s:x="30" s:y="10" s:pid="Y"/>
  </g>
  <g s:type="constant" transform="translate(524,299)" s:width="30" s:height="20" id="cell_10">
    <text x="15" y="-4" class="nodelabel cell_10" s:attribute="ref">10</text>
    <s:alias val="$_constant_"/>
    <rect width="30" height="20" class="cell_10"/>
    <g s:x="30" s:y="10" s:pid="Y"/>
  </g>
  <g s:type="constant" transform="translate(661,454)" s:width="30" s:height="20" id="cell_00000000000000000000000">
    <text x="15" y="-4" class="nodelabel cell_00000000000000000000000" s:attribute="ref">0x0</text>
    <s:alias val="$_constant_"/>
    <rect width="30" height="20" class="cell_00000000000000000000000"/>
    <g s:x="30" s:y="10" s:pid="Y"/>
  </g>
  <g s:type="constant" transform="translate(661,93)" s:width="30" s:height="20" id="cell_000000000000000000">
    <text x="15" y="-4" class="nodelabel cell_000000000000000000" s:attribute="ref">0x0</text>
    <s:alias val="$_constant_"/>
    <rect width="30" height="20" class="cell_000000000000000000"/>
    <g s:x="30" s:y="10" s:pid="Y"/>
  </g>
  <g s:type="constant" transform="translate(77,500.5)" s:width="30" s:height="20" id="cell_00">
    <text x="15" y="-4" class="nodelabel cell_00" s:attribute="ref">00</text>
    <s:alias val="$_constant_"/>
    <rect width="30" height="20" class="cell_00"/>
    <g s:x="30" s:y="10" s:pid="Y"/>
  </g>
  <g s:type="join" transform="translate(692.75,275)" s:width="4" s:height="40" id="cell_$join$,209,210,211,">
    <rect width="5" height="60" class="splitjoinBody" s:generic="body"/>
    <s:alias val="$_join_"/>
    <g s:x="5" s:y="20" s:pid="out"/>
    <g transform="translate(0,10)" s:x="0" s:y="10" s:pid="in0">
      <text x="-3" y="-4" class="inputPortLabel">0</text>
    </g>
    <g transform="translate(0,30)" s:x="0" s:y="10" s:pid="in0">
      <text x="-3" y="-4" class="inputPortLabel">1</text>
    </g>
    <g transform="translate(0,50)" s:x="0" s:y="10" s:pid="in0">
      <text x="-3" y="-4" class="inputPortLabel">2</text>
    </g>
  </g>
  <g s:type="join" transform="translate(608,780)" s:width="4" s:height="40" id="cell_$join$,137,138,139,140,141,142,218,">
    <rect width="5" height="40" class="splitjoinBody" s:generic="body"/>
    <s:alias val="$_join_"/>
    <g s:x="5" s:y="20" s:pid="out"/>
    <g transform="translate(0,10)" s:x="0" s:y="10" s:pid="in0">
      <text x="-3" y="-4" class="inputPortLabel">0:5</text>
    </g>
    <g transform="translate(0,30)" s:x="0" s:y="10" s:pid="in0">
      <text x="-3" y="-4" class="inputPortLabel">6</text>
    </g>
  </g>
  <line x1="313.5" x2="337" y1="403" y2="403" class="net_14,15"/>
  <line x1="337" x2="337" y1="403" y2="590.5" class="net_14,15"/>
  <line x1="337" x2="62" y1="590.5" y2="590.5" class="net_14,15"/>
  <line x1="62" x2="62" y1="590.5" y2="560.5" class="net_14,15"/>
  <circle cx="337" cy="590.5" r="2" style="fill:#000" class="net_14,15"/>
  <line x1="62" x2="87.33333333333333" y1="560.5" y2="560.5" class="net_14,15"/>
  <line x1="313.5" x2="337" y1="403" y2="403" class="net_14,15"/>
  <line x1="337" x2="337" y1="403" y2="372" class="net_14,15"/>
  <line x1="337" x2="62" y1="372" y2="372" class="net_14,15"/>
  <line x1="62" x2="62" y1="372" y2="435.5" class="net_14,15"/>
  <circle cx="337" cy="372" r="2" style="fill:#000" class="net_14,15"/>
  <circle cx="337" cy="403" r="2" style="fill:#000" class="net_14,15"/>
  <line x1="62" x2="87.33333333333333" y1="435.5" y2="435.5" class="net_14,15"/>
  <line x1="313.5" x2="337" y1="403" y2="403" class="net_14,15"/>
  <line x1="337" x2="337" y1="403" y2="783" class="net_14,15"/>
  <line x1="337" x2="369" y1="783" y2="783" class="net_14,15"/>
  <line x1="313.5" x2="337" y1="403" y2="403" class="net_14,15"/>
  <line x1="337" x2="337" y1="403" y2="278" class="net_14,15"/>
  <line x1="337" x2="597" y1="278" y2="278" class="net_14,15"/>
  <line x1="313.5" x2="337" y1="403" y2="403" class="net_14,15"/>
  <line x1="337" x2="337" y1="403" y2="278" class="net_14,15"/>
  <line x1="337" x2="499" y1="278" y2="278" class="net_14,15"/>
  <line x1="499" x2="499" y1="278" y2="338" class="net_14,15"/>
  <circle cx="499" cy="278" r="2" style="fill:#000" class="net_14,15"/>
  <line x1="499" x2="597" y1="338" y2="338" class="net_14,15"/>
  <line x1="313.5" x2="589" y1="403" y2="403" class="net_14,15"/>
  <line x1="313.5" x2="337" y1="403" y2="403" class="net_14,15"/>
  <line x1="337" x2="337" y1="403" y2="590.5" class="net_14,15"/>
  <line x1="337" x2="189" y1="590.5" y2="590.5" class="net_14,15"/>
  <line x1="189" x2="189" y1="590.5" y2="393" class="net_14,15"/>
  <circle cx="189" cy="590.5" r="2" style="fill:#000" class="net_14,15"/>
  <line x1="189" x2="220.66666666666666" y1="393" y2="393" class="net_14,15"/>
  <line x1="42" x2="87.33333333333333" y1="575.5" y2="575.5" class="net_214"/>
  <line x1="42" x2="52" y1="575.5" y2="575.5" class="net_214"/>
  <line x1="52" x2="52" y1="575.5" y2="43" class="net_214"/>
  <circle cx="52" cy="575.5" r="2" style="fill:#000" class="net_214"/>
  <line x1="52" x2="701" y1="43" y2="43" class="net_214"/>
  <line x1="42" x2="52" y1="575.5" y2="575.5" class="net_214"/>
  <line x1="52" x2="52" y1="575.5" y2="719" class="net_214"/>
  <line x1="52" x2="403" y1="719" y2="719" class="net_214"/>
  <line x1="42" x2="52" y1="575.5" y2="575.5" class="net_214"/>
  <line x1="52" x2="52" y1="575.5" y2="719" class="net_214"/>
  <line x1="52" x2="254" y1="719" y2="719" class="net_214"/>
  <line x1="254" x2="254" y1="719" y2="644" class="net_214"/>
  <circle cx="254" cy="719" r="2" style="fill:#000" class="net_214"/>
  <line x1="254" x2="701" y1="644" y2="644" class="net_214"/>
  <line x1="42" x2="52" y1="575.5" y2="575.5" class="net_214"/>
  <line x1="52" x2="52" y1="575.5" y2="719" class="net_214"/>
  <line x1="52" x2="254" y1="719" y2="719" class="net_214"/>
  <line x1="254" x2="254" y1="719" y2="890.5" class="net_214"/>
  <line x1="254" x2="819" y1="890.5" y2="890.5" class="net_214"/>
  <line x1="819" x2="819" y1="890.5" y2="761.5" class="net_214"/>
  <line x1="819" x2="892" y1="761.5" y2="761.5" class="net_214"/>
  <line x1="42" x2="52" y1="575.5" y2="575.5" class="net_214"/>
  <line x1="52" x2="52" y1="575.5" y2="353" class="net_214"/>
  <circle cx="52" cy="353" r="2" style="fill:#000" class="net_214"/>
  <line x1="52" x2="597" y1="353" y2="353" class="net_214"/>
  <line x1="1161" x2="1219" y1="45.5" y2="45.5" class="net_18,19,20,21,22,23,24,25,26,27,28,29,30,31,32,33,34,35"/>
  <line x1="1219" x2="1219" y1="45.5" y2="12" class="net_18,19,20,21,22,23,24,25,26,27,28,29,30,31,32,33,34,35"/>
  <line x1="1219" x2="629" y1="12" y2="12" class="net_18,19,20,21,22,23,24,25,26,27,28,29,30,31,32,33,34,35"/>
  <line x1="629" x2="629" y1="12" y2="28" class="net_18,19,20,21,22,23,24,25,26,27,28,29,30,31,32,33,34,35"/>
  <circle cx="629" cy="12" r="2" style="fill:#000" class="net_18,19,20,21,22,23,24,25,26,27,28,29,30,31,32,33,34,35"/>
  <line x1="629" x2="701" y1="28" y2="28" class="net_18,19,20,21,22,23,24,25,26,27,28,29,30,31,32,33,34,35"/>
  <line x1="1161" x2="1219" y1="45.5" y2="45.5" class="net_18,19,20,21,22,23,24,25,26,27,28,29,30,31,32,33,34,35"/>
  <line x1="1219" x2="1219" y1="45.5" y2="12" class="net_18,19,20,21,22,23,24,25,26,27,28,29,30,31,32,33,34,35"/>
  <line x1="1219" x2="139" y1="12" y2="12" class="net_18,19,20,21,22,23,24,25,26,27,28,29,30,31,32,33,34,35"/>
  <line x1="139" x2="139" y1="12" y2="126.5" class="net_18,19,20,21,22,23,24,25,26,27,28,29,30,31,32,33,34,35"/>
  <line x1="139" x2="157" y1="126.5" y2="126.5" class="net_18,19,20,21,22,23,24,25,26,27,28,29,30,31,32,33,34,35"/>
  <line x1="619" x2="629" y1="701.5" y2="701.5" class="net_54,55,56,57,58,59,60,61,62,63,64,65,66,67,68,69"/>
  <line x1="629" x2="629" y1="701.5" y2="752.5" class="net_54,55,56,57,58,59,60,61,62,63,64,65,66,67,68,69"/>
  <line x1="629" x2="347" y1="752.5" y2="752.5" class="net_54,55,56,57,58,59,60,61,62,63,64,65,66,67,68,69"/>
  <line x1="347" x2="347" y1="752.5" y2="704" class="net_54,55,56,57,58,59,60,61,62,63,64,65,66,67,68,69"/>
  <circle cx="629" cy="701.5" r="2" style="fill:#000" class="net_54,55,56,57,58,59,60,61,62,63,64,65,66,67,68,69"/>
  <line x1="347" x2="403" y1="704" y2="704" class="net_54,55,56,57,58,59,60,61,62,63,64,65,66,67,68,69"/>
  <line x1="619" x2="629" y1="701.5" y2="701.5" class="net_54,55,56,57,58,59,60,61,62,63,64,65,66,67,68,69"/>
  <line x1="629" x2="629" y1="701.5" y2="752.5" class="net_54,55,56,57,58,59,60,61,62,63,64,65,66,67,68,69"/>
  <line x1="629" x2="499" y1="752.5" y2="752.5" class="net_54,55,56,57,58,59,60,61,62,63,64,65,66,67,68,69"/>
  <line x1="499" x2="499" y1="752.5" y2="691.5" class="net_54,55,56,57,58,59,60,61,62,63,64,65,66,67,68,69"/>
  <circle cx="499" cy="752.5" r="2" style="fill:#000" class="net_54,55,56,57,58,59,60,61,62,63,64,65,66,67,68,69"/>
  <line x1="499" x2="530.6666666666666" y1="691.5" y2="691.5" class="net_54,55,56,57,58,59,60,61,62,63,64,65,66,67,68,69"/>
  <line x1="619" x2="661" y1="701.5" y2="701.5" class="net_54,55,56,57,58,59,60,61,62,63,64,65,66,67,68,69"/>
  <line x1="1161" x2="1219" y1="454" y2="454" class="net_86,87,88,89,90,91,92,93,94,95,96,97,98,99,100,101,102,103,104,105,106,107,108"/>
  <line x1="1219" x2="1219" y1="454" y2="670" class="net_86,87,88,89,90,91,92,93,94,95,96,97,98,99,100,101,102,103,104,105,106,107,108"/>
  <line x1="1219" x2="639" y1="670" y2="670" class="net_86,87,88,89,90,91,92,93,94,95,96,97,98,99,100,101,102,103,104,105,106,107,108"/>
  <line x1="639" x2="639" y1="670" y2="629" class="net_86,87,88,89,90,91,92,93,94,95,96,97,98,99,100,101,102,103,104,105,106,107,108"/>
  <line x1="639" x2="701" y1="629" y2="629" class="net_86,87,88,89,90,91,92,93,94,95,96,97,98,99,100,101,102,103,104,105,106,107,108"/>
  <line x1="1161" x2="1219" y1="454" y2="454" class="net_86,87,88,89,90,91,92,93,94,95,96,97,98,99,100,101,102,103,104,105,106,107,108"/>
  <line x1="1219" x2="1219" y1="454" y2="423" class="net_86,87,88,89,90,91,92,93,94,95,96,97,98,99,100,101,102,103,104,105,106,107,108"/>
  <line x1="1219" x2="347" y1="423" y2="423" class="net_86,87,88,89,90,91,92,93,94,95,96,97,98,99,100,101,102,103,104,105,106,107,108"/>
  <line x1="347" x2="347" y1="423" y2="605.5" class="net_86,87,88,89,90,91,92,93,94,95,96,97,98,99,100,101,102,103,104,105,106,107,108"/>
  <circle cx="1219" cy="454" r="2" style="fill:#000" class="net_86,87,88,89,90,91,92,93,94,95,96,97,98,99,100,101,102,103,104,105,106,107,108"/>
  <line x1="347" x2="403" y1="605.5" y2="605.5" class="net_86,87,88,89,90,91,92,93,94,95,96,97,98,99,100,101,102,103,104,105,106,107,108"/>
  <line x1="400" x2="528.6666666666666" y1="783" y2="783" class="net_132,133,134,135,136"/>
  <line x1="399" x2="499" y1="870.5" y2="870.5" class="net_218"/>
  <line x1="499" x2="499" y1="870.5" y2="798" class="net_218"/>
  <circle cx="499" cy="870.5" r="2" style="fill:#000" class="net_218"/>
  <line x1="499" x2="528.6666666666666" y1="798" y2="798" class="net_218"/>
  <line x1="399" x2="809" y1="870.5" y2="870.5" class="net_218"/>
  <line x1="809" x2="809" y1="870.5" y2="721.5" class="net_218"/>
  <line x1="809" x2="892" y1="721.5" y2="721.5" class="net_218"/>
  <line x1="399" x2="499" y1="870.5" y2="870.5" class="net_218"/>
  <line x1="499" x2="499" y1="870.5" y2="901.5" class="net_218"/>
  <line x1="499" x2="829" y1="901.5" y2="901.5" class="net_218"/>
  <line x1="829" x2="829" y1="901.5" y2="781.5" class="net_218"/>
  <line x1="829" x2="892" y1="781.5" y2="781.5" class="net_218"/>
  <line x1="399" x2="564" y1="870.5" y2="870.5" class="net_218"/>
  <line x1="564" x2="564" y1="870.5" y2="810.5" class="net_218"/>
  <circle cx="564" cy="870.5" r="2" style="fill:#000" class="net_218"/>
  <line x1="564" x2="608" y1="810.5" y2="810.5" class="net_218"/>
  <line x1="692" x2="892" y1="701.5" y2="701.5" class="net_143,144,145,146"/>
  <line x1="839" x2="839" y1="912.5" y2="801.5" class="net_"/>
  <line x1="839" x2="892" y1="801.5" y2="801.5" class="net_"/>
  <line x1="839" x2="839" y1="912.5" y2="821.5" class="net_"/>
  <circle cx="839" cy="821.5" r="2" style="fill:#000" class="net_"/>
  <line x1="839" x2="892" y1="821.5" y2="821.5" class="net_"/>
  <line x1="839" x2="839" y1="912.5" y2="841.5" class="net_"/>
  <circle cx="839" cy="841.5" r="2" style="fill:#000" class="net_"/>
  <line x1="839" x2="892" y1="841.5" y2="841.5" class="net_"/>
  <line x1="839" x2="839" y1="912.5" y2="861.5" class="net_"/>
  <circle cx="839" cy="861.5" r="2" style="fill:#000" class="net_"/>
  <line x1="839" x2="892" y1="861.5" y2="861.5" class="net_"/>
  <line x1="107" x2="157" y1="141.5" y2="141.5" class="net_222,223,224,225,226,227,228,229,230,231,232,233,234,235,236,237,238"/>
  <line x1="42" x2="87.33333333333333" y1="450.5" y2="450.5" class="net_239,240"/>
  <line x1="309" x2="403" y1="620.5" y2="620.5" class="net_241,242,243,244,245,246,247,248,249,250,251,252,253,254,255,256,257,258,259,260,261,262"/>
  <line x1="309" x2="369" y1="803" y2="803" class="net_263,264,265"/>
  <line x1="242" x2="264" y1="463" y2="463" class="net_2"/>
  <line x1="264" x2="264" y1="463" y2="659" class="net_2"/>
  <line x1="264" x2="1106" y1="659" y2="659" class="net_2"/>
  <line x1="1106" x2="1106" y1="659" y2="474" class="net_2"/>
  <circle cx="264" cy="463" r="2" style="fill:#000" class="net_2"/>
  <circle cx="264" cy="659" r="2" style="fill:#000" class="net_2"/>
  <line x1="1106" x2="1131" y1="474" y2="474" class="net_2"/>
  <line x1="242" x2="264" y1="463" y2="463" class="net_2"/>
  <line x1="264" x2="264" y1="463" y2="123" class="net_2"/>
  <line x1="264" x2="1106" y1="123" y2="123" class="net_2"/>
  <line x1="1106" x2="1106" y1="123" y2="65.5" class="net_2"/>
  <line x1="1106" x2="1131" y1="65.5" y2="65.5" class="net_2"/>
  <line x1="242" x2="264" y1="463" y2="463" class="net_2"/>
  <line x1="264" x2="264" y1="463" y2="741.5" class="net_2"/>
  <line x1="264" x2="564" y1="741.5" y2="741.5" class="net_2"/>
  <line x1="564" x2="564" y1="741.5" y2="721.5" class="net_2"/>
  <line x1="564" x2="589" y1="721.5" y2="721.5" class="net_2"/>
  <line x1="242" x2="264" y1="463" y2="463" class="net_2"/>
  <line x1="264" x2="264" y1="463" y2="423" class="net_2"/>
  <circle cx="264" cy="423" r="2" style="fill:#000" class="net_2"/>
  <line x1="264" x2="283.5" y1="423" y2="423" class="net_2"/>
  <line x1="959" x2="1131" y1="454" y2="454" class="net_150,151,152,153,154,155,156,157,158,159,160,161,162,163,164,165,166,167,168,169,170,171,172"/>
  <line x1="959" x2="1131" y1="45.5" y2="45.5" class="net_173,174,175,176,177,178,179,180,181,182,183,184,185,186,187,188,189,190"/>
  <line x1="550.6666666666666" x2="589" y1="701.5" y2="701.5" class="net_191,192,193,194,195,196,197,198,199,200,201,202,203,204,205,206"/>
  <line x1="240.66666666666666" x2="283.5" y1="403" y2="403" class="net_207,208"/>
  <line x1="691" x2="939" y1="165" y2="165" class="net_266,267,268,269"/>
  <line x1="691" x2="809" y1="230" y2="230" class="net_270,271,272,273,274,275,276,277,278,279,280,281"/>
  <line x1="809" x2="809" y1="230" y2="185" class="net_270,271,272,273,274,275,276,277,278,279,280,281"/>
  <line x1="809" x2="939" y1="185" y2="185" class="net_270,271,272,273,274,275,276,277,278,279,280,281"/>
  <line x1="698.75" x2="949" y1="295.5" y2="295.5" class="net_209,210,211"/>
  <line x1="949" x2="949" y1="295.5" y2="190" class="net_209,210,211"/>
  <line x1="554" x2="564" y1="309" y2="309" class="net_282,283"/>
  <line x1="564" x2="564" y1="309" y2="293" class="net_282,283"/>
  <line x1="564" x2="597" y1="293" y2="293" class="net_282,283"/>
  <line x1="723" x2="809" y1="636.5" y2="636.5" class="net_109,110,111,112,113,114,115,116,117,118,119,120,121,122,123,124,125,126,127,128,129,130,131"/>
  <line x1="809" x2="809" y1="636.5" y2="444" class="net_109,110,111,112,113,114,115,116,117,118,119,120,121,122,123,124,125,126,127,128,129,130,131"/>
  <line x1="809" x2="939" y1="444" y2="444" class="net_109,110,111,112,113,114,115,116,117,118,119,120,121,122,123,124,125,126,127,128,129,130,131"/>
  <line x1="691" x2="939" y1="464" y2="464" class="net_285,286,287,288,289,290,291,292,293,294,295,296,297,298,299,300,301,302,303,304,305,306,307"/>
  <line x1="425" x2="949" y1="613" y2="613" class="net_149"/>
  <line x1="949" x2="949" y1="613" y2="469" class="net_149"/>
  <line x1="425" x2="509" y1="613" y2="613" class="net_149"/>
  <line x1="509" x2="509" y1="613" y2="731.5" class="net_149"/>
  <line x1="509" x2="540.6666666666666" y1="731.5" y2="731.5" class="net_149"/>
  <circle cx="509" cy="613" r="2" style="fill:#000" class="net_149"/>
  <line x1="540.6666666666666" x2="540.6666666666666" y1="731.5" y2="716.5" class="net_149"/>
  <line x1="723" x2="939" y1="35.5" y2="35.5" class="net_36,37,38,39,40,41,42,43,44,45,46,47,48,49,50,51,52,53"/>
  <line x1="691" x2="809" y1="103" y2="103" class="net_308,309,310,311,312,313,314,315,316,317,318,319,320,321,322,323,324,325"/>
  <line x1="809" x2="809" y1="103" y2="55.5" class="net_308,309,310,311,312,313,314,315,316,317,318,319,320,321,322,323,324,325"/>
  <line x1="809" x2="939" y1="55.5" y2="55.5" class="net_308,309,310,311,312,313,314,315,316,317,318,319,320,321,322,323,324,325"/>
  <line x1="179" x2="949" y1="134" y2="134" class="net_147"/>
  <line x1="949" x2="949" y1="134" y2="60.5" class="net_147"/>
  <line x1="179" x2="199" y1="134" y2="134" class="net_147"/>
  <line x1="199" x2="199" y1="134" y2="433" class="net_147"/>
  <line x1="199" x2="230.66666666666666" y1="433" y2="433" class="net_147"/>
  <circle cx="199" cy="134" r="2" style="fill:#000" class="net_147"/>
  <line x1="230.66666666666666" x2="230.66666666666666" y1="433" y2="418" class="net_147"/>
  <line x1="109.33333333333333" x2="129" y1="568" y2="568" class="net_16,17"/>
  <line x1="129" x2="129" y1="568" y2="403" class="net_16,17"/>
  <line x1="129" x2="155.66666666666666" y1="403" y2="403" class="net_16,17"/>
  <line x1="107" x2="139" y1="510.5" y2="510.5" class="net_326,327"/>
  <line x1="139" x2="139" y1="510.5" y2="423" class="net_326,327"/>
  <line x1="139" x2="155.66666666666666" y1="423" y2="423" class="net_326,327"/>
  <line x1="109.33333333333333" x2="165.66666666666666" y1="443" y2="443" class="net_148"/>
  <line x1="165.66666666666666" x2="165.66666666666666" y1="443" y2="428" class="net_148"/>
  <line x1="175.66666666666666" x2="220.66666666666666" y1="413" y2="413" class="net_212,213"/>
  <line x1="425" x2="530.6666666666666" y1="711.5" y2="711.5" class="net_70,71,72,73,74,75,76,77,78,79,80,81,82,83,84,85"/>
  <line x1="614" x2="639" y1="800.5" y2="800.5" class="net_137,138,139,140,141,142,218"/>
  <line x1="639" x2="639" y1="800.5" y2="721.5" class="net_137,138,139,140,141,142,218"/>
  <line x1="639" x2="661" y1="721.5" y2="721.5" class="net_137,138,139,140,141,142,218"/>
  <line x1="923" x2="1131" y1="701.5" y2="701.5" class="net_3,4,5,6,7,8,9"/>
  <line x1="959" x2="1131" y1="175" y2="175" class="net_10,11,12,13"/>
  <line x1="619" x2="692.75" y1="285.5" y2="285.5" class="net_209"/>
  <line x1="619" x2="629" y1="345.5" y2="345.5" class="net_210"/>
  <line x1="629" x2="629" y1="345.5" y2="305.5" class="net_210"/>
  <line x1="629" x2="692.75" y1="305.5" y2="305.5" class="net_210"/>
  <line x1="614" x2="639" y1="403" y2="403" class="net_211"/>
  <line x1="639" x2="639" y1="403" y2="325.5" class="net_211"/>
  <line x1="639" x2="692.75" y1="325.5" y2="325.5" class="net_211"/>
  <line x1="550.6666666666666" x2="608" y1="790.5" y2="790.5" class="net_137,138,139,140,141,142"/>
</svg>
