<svg xmlns="http://www.w3.org/2000/svg" xmlns:xlink="http://www.w3.org/1999/xlink" xmlns:s="https://github.com/nturley/netlistsvg" width="688" height="1271.5">
  <style>svg {
    stroke:#000;
    fill:none;
  }
  text {
    fill:#000;
    stroke:none;
    font-size:10px;
    font-weight: bold;
    font-family: "Courier New", monospace;
  }
  .nodelabel {
    text-anchor: middle;
  }
  .inputPortLabel {
    text-anchor: end;
  }
  .splitjoinBody {
    fill:#000;
  }</style>
  <g s:type="not" transform="translate(520,1119.5)" s:width="30" s:height="20" id="cell_$eq$regfile_rv32.v:31$44">
    <s:alias val="$_NOT_"/>
    <s:alias val="$not"/>
    <s:alias val="$logic_not"/>
    <path d="M0,0 L0,20 L20,10 Z" class="cell_$eq$regfile_rv32.v:31$44"/>
    <circle cx="23" cy="10" r="3" class="cell_$eq$regfile_rv32.v:31$44"/>
    <text x="8" y="12" class="nodelabel" style="font-size:6px">NOT</text>
    <g s:x="0" s:y="10" s:pid="A"/>
    <g s:x="25" s:y="10" s:pid="Y"/>
  </g>
  <g s:type="not" transform="translate(520,1239.5)" s:width="30" s:height="20" id="cell_$eq$regfile_rv32.v:32$47">
    <s:alias val="$_NOT_"/>
    <s:alias val="$not"/>
    <s:alias val="$logic_not"/>
    <path d="M0,0 L0,20 L20,10 Z" class="cell_$eq$regfile_rv32.v:32$47"/>
    <circle cx="23" cy="10" r="3" class="cell_$eq$regfile_rv32.v:32$47"/>
    <text x="8" y="12" class="nodelabel" style="font-size:6px">NOT</text>
    <g s:x="0" s:y="10" s:pid="A"/>
    <g s:x="25" s:y="10" s:pid="Y"/>
  </g>
  <g s:type="and" transform="translate(214,258)" s:width="30" s:height="25" id="cell_$logic_and$regfile_rv32.v:28$40">
    <s:alias val="$and"/>
    <s:alias val="$reduce_and"/>
    <s:alias val="$logic_and"/>
    <s:alias val="$_AND_"/>
    <path d="M0,0 L0,25 L15,25 A15 12.5 0 0 0 15,0 Z" class="cell_$logic_and$regfile_rv32.v:28$40"/>
    <text x="13" y="15" class="nodelabel" style="font-size:7px">AND</text>
    <g s:x="0" s:y="5" s:pid="A"/>
    <g s:x="0" s:y="20" s:pid="B"/>
    <g s:x="30" s:y="12.5" s:pid="Y"/>
  </g>
  <g s:type="or" transform="translate(149,308)" s:width="30" s:height="25" id="cell_$ne$regfile_rv32.v:28$39">
    <s:alias val="$or"/>
    <s:alias val="$reduce_or"/>
    <s:alias val="$reduce_bool"/>
    <s:alias val="$logic_or"/>
    <s:alias val="$_OR_"/>
    <path d="M0,25 L0,25 L15,25 A15 12.5 0 0 0 15,0 L0,0" class="cell_$ne$regfile_rv32.v:28$39"/>
    <path d="M0,0 A30 25 0 0 1 0,25" class="cell_$ne$regfile_rv32.v:28$39"/>
    <text x="17" y="15" class="nodelabel" style="font-size:7px">OR</text>
    <g s:x="3" s:y="5" s:pid="A"/>
    <g s:x="3" s:y="20" s:pid="B"/>
    <g s:x="30" s:y="12.5" s:pid="Y"/>
  </g>
  <g s:type="mux" transform="translate(284.33333333333337,853)" s:width="20" s:height="40" id="cell_$procmux$116">
    <s:alias val="$pmux"/>
    <s:alias val="$mux"/>
    <s:alias val="$_MUX_"/>
    <path d="M0,0 L20,10 L20,30 L0,40 Z" class="cell_$procmux$116"/>
    <g s:x="0" s:y="10" s:pid="A"/>
    <g s:x="0" s:y="30" s:pid="B"/>
    <g s:x="10" s:y="35" s:pid="S"/>
    <g s:x="20" s:y="20" s:pid="Y"/>
  </g>
  <g s:type="mux" transform="translate(355,142)" s:width="20" s:height="40" id="cell_$procmux$119">
    <s:alias val="$pmux"/>
    <s:alias val="$mux"/>
    <s:alias val="$_MUX_"/>
    <path d="M0,0 L20,10 L20,30 L0,40 Z" class="cell_$procmux$119"/>
    <g s:x="0" s:y="10" s:pid="A"/>
    <g s:x="0" s:y="30" s:pid="B"/>
    <g s:x="10" s:y="35" s:pid="S"/>
    <g s:x="20" s:y="20" s:pid="Y"/>
  </g>
  <g s:type="mux" transform="translate(355,202)" s:width="20" s:height="40" id="cell_$procmux$122">
    <s:alias val="$pmux"/>
    <s:alias val="$mux"/>
    <s:alias val="$_MUX_"/>
    <path d="M0,0 L20,10 L20,30 L0,40 Z" class="cell_$procmux$122"/>
    <g s:x="0" s:y="10" s:pid="A"/>
    <g s:x="0" s:y="30" s:pid="B"/>
    <g s:x="10" s:y="35" s:pid="S"/>
    <g s:x="20" s:y="20" s:pid="Y"/>
  </g>
  <g s:type="mux" transform="translate(585,142)" s:width="20" s:height="40" id="cell_$ternary$regfile_rv32.v:31$46">
    <s:alias val="$pmux"/>
    <s:alias val="$mux"/>
    <s:alias val="$_MUX_"/>
    <path d="M0,0 L20,10 L20,30 L0,40 Z" class="cell_$ternary$regfile_rv32.v:31$46"/>
    <g s:x="0" s:y="10" s:pid="A"/>
    <g s:x="0" s:y="30" s:pid="B"/>
    <g s:x="10" s:y="35" s:pid="S"/>
    <g s:x="20" s:y="20" s:pid="Y"/>
  </g>
  <g s:type="mux" transform="translate(585,1164.5)" s:width="20" s:height="40" id="cell_$ternary$regfile_rv32.v:32$49">
    <s:alias val="$pmux"/>
    <s:alias val="$mux"/>
    <s:alias val="$_MUX_"/>
    <path d="M0,0 L20,10 L20,30 L0,40 Z" class="cell_$ternary$regfile_rv32.v:32$49"/>
    <g s:x="0" s:y="10" s:pid="A"/>
    <g s:x="0" s:y="30" s:pid="B"/>
    <g s:x="10" s:y="35" s:pid="S"/>
    <g s:x="20" s:y="20" s:pid="Y"/>
  </g>
  <g s:type="mem_v2" transform="translate(420,147)" s:width="60" s:height="80" id="cell_regs">
    <s:alias val="$mem_v2"/>
    <s:alias val="$mem"/>
    <rect width="60" height="80" x="0" y="0" class="cell_regs"/>
    <text x="30" y="44" class="nodelabel" style="font-size:14px">RAM</text>
    <g s:x="0" s:y="15" s:pid="WR_DATA"/>
    <g s:x="0" s:y="30" s:pid="WR_ADDR"/>
    <g s:x="0" s:y="45" s:pid="WR_EN"/>
    <g s:x="0" s:y="60" s:pid="WR_CLK"/>
    <g s:x="60" s:y="15" s:pid="RD_DATA"/>
    <g s:x="60" s:y="30" s:pid="RD_ADDR"/>
    <g s:x="60" s:y="45" s:pid="RD_EN"/>
    <g s:x="60" s:y="60" s:pid="RD_CLK"/>
    <g s:x="60" s:y="70" s:pid="RD_ARST"/>
    <g s:x="60" s:y="80" s:pid="RD_SRST"/>
  </g>
  <g s:type="inputExt" transform="translate(350,1022.5)" s:width="30" s:height="20" id="cell_clk">
    <text x="15" y="-4" class="nodelabel cell_clk" s:attribute="ref">clk</text>
    <s:alias val="$_inputExt_"/>
    <path d="M0,0 L0,20 L15,20 L30,10 L15,0 Z" class="cell_clk"/>
    <g s:x="28" s:y="10" s:pid="Y"/>
  </g>
  <g s:type="inputExt" transform="translate(149,253)" s:width="30" s:height="20" id="cell_we">
    <text x="15" y="-4" class="nodelabel cell_we" s:attribute="ref">we</text>
    <s:alias val="$_inputExt_"/>
    <path d="M0,0 L0,20 L15,20 L30,10 L15,0 Z" class="cell_we"/>
    <g s:x="28" s:y="10" s:pid="Y"/>
  </g>
  <g s:type="inputExt" transform="translate(84,222)" s:width="30" s:height="20" id="cell_waddr">
    <text x="15" y="-4" class="nodelabel cell_waddr" s:attribute="ref">waddr</text>
    <s:alias val="$_inputExt_"/>
    <path d="M0,0 L0,20 L15,20 L30,10 L15,0 Z" class="cell_waddr"/>
    <g s:x="28" s:y="10" s:pid="Y"/>
  </g>
  <g s:type="inputExt" transform="translate(279,162)" s:width="30" s:height="20" id="cell_wdata">
    <text x="15" y="-4" class="nodelabel cell_wdata" s:attribute="ref">wdata</text>
    <s:alias val="$_inputExt_"/>
    <path d="M0,0 L0,20 L15,20 L30,10 L15,0 Z" class="cell_wdata"/>
    <g s:x="28" s:y="10" s:pid="Y"/>
  </g>
  <g s:type="inputExt" transform="translate(279,1080)" s:width="30" s:height="20" id="cell_raddr1">
    <text x="15" y="-4" class="nodelabel cell_raddr1" s:attribute="ref">raddr1</text>
    <s:alias val="$_inputExt_"/>
    <path d="M0,0 L0,20 L15,20 L30,10 L15,0 Z" class="cell_raddr1"/>
    <g s:x="28" s:y="10" s:pid="Y"/>
  </g>
  <g s:type="outputExt" transform="translate(640,152)" s:width="30" s:height="20" id="cell_rdata1">
    <text x="15" y="-4" class="nodelabel cell_rdata1" s:attribute="ref">rdata1</text>
    <s:alias val="$_outputExt_"/>
    <path d="M30,0 L30,20 L15,20 L0,10 L15,0 Z" class="cell_rdata1"/>
    <g s:x="0" s:y="10" s:pid="A"/>
  </g>
  <g s:type="inputExt" transform="translate(279,1239.5)" s:width="30" s:height="20" id="cell_raddr2">
    <text x="15" y="-4" class="nodelabel cell_raddr2" s:attribute="ref">raddr2</text>
    <s:alias val="$_inputExt_"/>
    <path d="M0,0 L0,20 L15,20 L30,10 L15,0 Z" class="cell_raddr2"/>
    <g s:x="28" s:y="10" s:pid="Y"/>
  </g>
  <g s:type="outputExt" transform="translate(640,1174.5)" s:width="30" s:height="20" id="cell_rdata2">
    <text x="15" y="-4" class="nodelabel cell_rdata2" s:attribute="ref">rdata2</text>
    <s:alias val="$_outputExt_"/>
    <path d="M30,0 L30,20 L15,20 L0,10 L15,0 Z" class="cell_rdata2"/>
    <g s:x="0" s:y="10" s:pid="A"/>
  </g>
  <g s:type="constant" transform="translate(214,853)" s:width="30" s:height="20" id="cell_0">
    <text x="15" y="-4" class="nodelabel cell_0" s:attribute="ref">0</text>
    <s:alias val="$_constant_"/>
    <rect width="30" height="20" class="cell_0"/>
    <g s:x="30" s:y="10" s:pid="Y"/>
  </g>
  <g s:type="constant" transform="translate(214,918)" s:width="30" s:height="20" id="cell_1">
    <text x="15" y="-4" class="nodelabel cell_1" s:attribute="ref">1</text>
    <s:alias val="$_constant_"/>
    <rect width="30" height="20" class="cell_1"/>
    <g s:x="30" s:y="10" s:pid="Y"/>
  </g>
  <g s:type="constant" transform="translate(520,1184.5)" s:width="30" s:height="20" id="cell_00000000000000000000000000000000">
    <text x="15" y="-4" class="nodelabel cell_00000000000000000000000000000000" s:attribute="ref">0x0</text>
    <s:alias val="$_constant_"/>
    <rect width="30" height="20" class="cell_00000000000000000000000000000000"/>
    <g s:x="30" s:y="10" s:pid="Y"/>
  </g>
  <g s:type="constant" transform="translate(350,22)" s:width="30" s:height="20" id="cell_00">
    <text x="15" y="-4" class="nodelabel cell_00" s:attribute="ref">00</text>
    <s:alias val="$_constant_"/>
    <rect width="30" height="20" class="cell_00"/>
    <g s:x="30" s:y="10" s:pid="Y"/>
  </g>
  <g s:type="constant" transform="translate(350,87)" s:width="30" s:height="20" id="cell_11">
    <text x="15" y="-4" class="nodelabel cell_11" s:attribute="ref">11</text>
    <s:alias val="$_constant_"/>
    <rect width="30" height="20" class="cell_11"/>
    <g s:x="30" s:y="10" s:pid="Y"/>
  </g>
  <g s:type="join" transform="translate(66,55)" s:width="4" s:height="40" id="cell_$join$,x,x,x,x,x,x,x,x,x,x,x,x,x,x,x,x,x,x,x,x,x,x,x,x,x,x,x,x,x,x,x,x,">
    <rect width="5" height="40" class="splitjoinBody" s:generic="body"/>
    <s:alias val="$_join_"/>
    <g s:x="5" s:y="20" s:pid="out"/>
    <g transform="translate(0,10)" s:x="0" s:y="10" s:pid="in0">
      <text x="-3" y="-4" class="inputPortLabel">0:4</text>
    </g>
  </g>
  <g s:type="join" transform="translate(369,1079.5)" s:width="4" s:height="40" id="cell_$join$,41,42,43,44,45,78,79,80,81,82,">
    <rect width="5" height="40" class="splitjoinBody" s:generic="body"/>
    <s:alias val="$_join_"/>
    <g s:x="5" s:y="20" s:pid="out"/>
    <g transform="translate(0,10)" s:x="0" s:y="10" s:pid="in0">
      <text x="-3" y="-4" class="inputPortLabel">0:4</text>
    </g>
    <g transform="translate(0,30)" s:x="0" s:y="10" s:pid="in0">
      <text x="-3" y="-4" class="inputPortLabel">5:9</text>
    </g>
  </g>
  <g s:type="join" transform="translate(368.52,322.5)" s:width="4" s:height="40" id="cell_$join$,119,119,119,119,119,119,119,119,119,119,119,119,119,119,119,119,119,119,119,119,119,119,119,119,119,119,119,119,119,119,119,119,">
    <rect width="5" height="640" class="splitjoinBody" s:generic="body"/>
    <s:alias val="$_join_"/>
    <g s:x="5" s:y="20" s:pid="out"/>
    <g transform="translate(0,10)" s:x="0" s:y="10" s:pid="in0">
      <text x="-3" y="-4" class="inputPortLabel">0</text>
    </g>
    <g transform="translate(0,30)" s:x="0" s:y="10" s:pid="in0">
      <text x="-3" y="-4" class="inputPortLabel">1</text>
    </g>
    <g transform="translate(0,50)" s:x="0" s:y="10" s:pid="in0">
      <text x="-3" y="-4" class="inputPortLabel">2</text>
    </g>
    <g transform="translate(0,70)" s:x="0" s:y="10" s:pid="in0">
      <text x="-3" y="-4" class="inputPortLabel">3</text>
    </g>
    <g transform="translate(0,90)" s:x="0" s:y="10" s:pid="in0">
      <text x="-3" y="-4" class="inputPortLabel">4</text>
    </g>
    <g transform="translate(0,110)" s:x="0" s:y="10" s:pid="in0">
      <text x="-3" y="-4" class="inputPortLabel">5</text>
    </g>
    <g transform="translate(0,130)" s:x="0" s:y="10" s:pid="in0">
      <text x="-3" y="-4" class="inputPortLabel">6</text>
    </g>
    <g transform="translate(0,150)" s:x="0" s:y="10" s:pid="in0">
      <text x="-3" y="-4" class="inputPortLabel">7</text>
    </g>
    <g transform="translate(0,170)" s:x="0" s:y="10" s:pid="in0">
      <text x="-3" y="-4" class="inputPortLabel">8</text>
    </g>
    <g transform="translate(0,190)" s:x="0" s:y="10" s:pid="in0">
      <text x="-3" y="-4" class="inputPortLabel">9</text>
    </g>
    <g transform="translate(0,210)" s:x="0" s:y="10" s:pid="in0">
      <text x="-3" y="-4" class="inputPortLabel">10</text>
    </g>
    <g transform="translate(0,230)" s:x="0" s:y="10" s:pid="in0">
      <text x="-3" y="-4" class="inputPortLabel">11</text>
    </g>
    <g transform="translate(0,250)" s:x="0" s:y="10" s:pid="in0">
      <text x="-3" y="-4" class="inputPortLabel">12</text>
    </g>
    <g transform="translate(0,270)" s:x="0" s:y="10" s:pid="in0">
      <text x="-3" y="-4" class="inputPortLabel">13</text>
    </g>
    <g transform="translate(0,290)" s:x="0" s:y="10" s:pid="in0">
      <text x="-3" y="-4" class="inputPortLabel">14</text>
    </g>
    <g transform="translate(0,310)" s:x="0" s:y="10" s:pid="in0">
      <text x="-3" y="-4" class="inputPortLabel">15</text>
    </g>
    <g transform="translate(0,330)" s:x="0" s:y="10" s:pid="in0">
      <text x="-3" y="-4" class="inputPortLabel">16</text>
    </g>
    <g transform="translate(0,350)" s:x="0" s:y="10" s:pid="in0">
      <text x="-3" y="-4" class="inputPortLabel">17</text>
    </g>
    <g transform="translate(0,370)" s:x="0" s:y="10" s:pid="in0">
      <text x="-3" y="-4" class="inputPortLabel">18</text>
    </g>
    <g transform="translate(0,390)" s:x="0" s:y="10" s:pid="in0">
      <text x="-3" y="-4" class="inputPortLabel">19</text>
    </g>
    <g transform="translate(0,410)" s:x="0" s:y="10" s:pid="in0">
      <text x="-3" y="-4" class="inputPortLabel">20</text>
    </g>
    <g transform="translate(0,430)" s:x="0" s:y="10" s:pid="in0">
      <text x="-3" y="-4" class="inputPortLabel">21</text>
    </g>
    <g transform="translate(0,450)" s:x="0" s:y="10" s:pid="in0">
      <text x="-3" y="-4" class="inputPortLabel">22</text>
    </g>
    <g transform="translate(0,470)" s:x="0" s:y="10" s:pid="in0">
      <text x="-3" y="-4" class="inputPortLabel">23</text>
    </g>
    <g transform="translate(0,490)" s:x="0" s:y="10" s:pid="in0">
      <text x="-3" y="-4" class="inputPortLabel">24</text>
    </g>
    <g transform="translate(0,510)" s:x="0" s:y="10" s:pid="in0">
      <text x="-3" y="-4" class="inputPortLabel">25</text>
    </g>
    <g transform="translate(0,530)" s:x="0" s:y="10" s:pid="in0">
      <text x="-3" y="-4" class="inputPortLabel">26</text>
    </g>
    <g transform="translate(0,550)" s:x="0" s:y="10" s:pid="in0">
      <text x="-3" y="-4" class="inputPortLabel">27</text>
    </g>
    <g transform="translate(0,570)" s:x="0" s:y="10" s:pid="in0">
      <text x="-3" y="-4" class="inputPortLabel">28</text>
    </g>
    <g transform="translate(0,590)" s:x="0" s:y="10" s:pid="in0">
      <text x="-3" y="-4" class="inputPortLabel">29</text>
    </g>
    <g transform="translate(0,610)" s:x="0" s:y="10" s:pid="in0">
      <text x="-3" y="-4" class="inputPortLabel">30</text>
    </g>
    <g transform="translate(0,630)" s:x="0" s:y="10" s:pid="in0">
      <text x="-3" y="-4" class="inputPortLabel">31</text>
    </g>
  </g>
  <g s:type="split" transform="translate(520,141.5)" s:width="5" s:height="40" id="cell_$split$,157,158,159,160,161,162,163,164,165,166,167,168,169,170,171,172,173,174,175,176,177,178,179,180,181,182,183,184,185,186,187,188,189,190,191,192,193,194,195,196,197,198,199,200,201,202,203,204,205,206,207,208,209,210,211,212,213,214,215,216,217,218,219,220,">
    <rect width="5" height="40" class="splitjoinBody" s:generic="body"/>
    <s:alias val="$_split_"/>
    <g s:x="0" s:y="20" s:pid="in"/>
    <g transform="translate(4,10)" s:x="4" s:y="10" s:pid="out0">
      <text x="5" y="-4">0:31</text>
    </g>
    <g transform="translate(4,30)" s:x="4" s:y="10" s:pid="out0">
      <text x="5" y="-4">32:63</text>
    </g>
  </g>
  <g s:type="split" transform="translate(48,12)" s:width="5" s:height="40" id="cell_$split$,x,x,x,x,x,">
    <rect width="5" height="20" class="splitjoinBody" s:generic="body"/>
    <s:alias val="$_split_"/>
    <g s:x="0" s:y="20" s:pid="in"/>
    <g transform="translate(4,10)" s:x="4" s:y="10" s:pid="out0">
      <text x="5" y="-4">0:1</text>
    </g>
  </g>
  <line x1="307" x2="335" y1="1090" y2="1090" class="net_41,42,43,44,45"/>
  <line x1="335" x2="335" y1="1090" y2="1129.5" class="net_41,42,43,44,45"/>
  <circle cx="335" cy="1090" r="2" style="fill:#000" class="net_41,42,43,44,45"/>
  <line x1="335" x2="520" y1="1129.5" y2="1129.5" class="net_41,42,43,44,45"/>
  <line x1="307" x2="369" y1="1090" y2="1090" class="net_41,42,43,44,45"/>
  <line x1="307" x2="520" y1="1249.5" y2="1249.5" class="net_78,79,80,81,82"/>
  <line x1="307" x2="325" y1="1249.5" y2="1249.5" class="net_78,79,80,81,82"/>
  <line x1="325" x2="325" y1="1249.5" y2="1110" class="net_78,79,80,81,82"/>
  <circle cx="325" cy="1249.5" r="2" style="fill:#000" class="net_78,79,80,81,82"/>
  <line x1="325" x2="369" y1="1110" y2="1110" class="net_78,79,80,81,82"/>
  <line x1="177" x2="214" y1="263" y2="263" class="net_3"/>
  <line x1="179" x2="189" y1="320.5" y2="320.5" class="net_117"/>
  <line x1="189" x2="189" y1="320.5" y2="278" class="net_117"/>
  <line x1="189" x2="214" y1="278" y2="278" class="net_117"/>
  <line x1="112" x2="124" y1="232" y2="232" class="net_4,5,6,7,8"/>
  <line x1="124" x2="124" y1="232" y2="313" class="net_4,5,6,7,8"/>
  <circle cx="124" cy="232" r="2" style="fill:#000" class="net_4,5,6,7,8"/>
  <line x1="124" x2="152" y1="313" y2="313" class="net_4,5,6,7,8"/>
  <line x1="112" x2="355" y1="232" y2="232" class="net_4,5,6,7,8"/>
  <line x1="244" x2="284.33333333333337" y1="863" y2="863" class="net_221"/>
  <line x1="244" x2="254" y1="928" y2="928" class="net_222"/>
  <line x1="254" x2="254" y1="928" y2="883" class="net_222"/>
  <line x1="254" x2="284.33333333333337" y1="883" y2="883" class="net_222"/>
  <line x1="244" x2="264" y1="270.5" y2="270.5" class="net_118"/>
  <line x1="264" x2="264" y1="270.5" y2="903" class="net_118"/>
  <line x1="264" x2="294.33333333333337" y1="903" y2="903" class="net_118"/>
  <circle cx="264" cy="270.5" r="2" style="fill:#000" class="net_118"/>
  <line x1="294.33333333333337" x2="294.33333333333337" y1="903" y2="888" class="net_118"/>
  <line x1="244" x2="264" y1="270.5" y2="270.5" class="net_118"/>
  <line x1="264" x2="264" y1="270.5" y2="192" class="net_118"/>
  <line x1="264" x2="365" y1="192" y2="192" class="net_118"/>
  <line x1="365" x2="365" y1="192" y2="177" class="net_118"/>
  <line x1="244" x2="365" y1="270.5" y2="270.5" class="net_118"/>
  <line x1="365" x2="365" y1="270.5" y2="237" class="net_118"/>
  <line x1="307" x2="355" y1="172" y2="172" class="net_9,10,11,12,13,14,15,16,17,18,19,20,21,22,23,24,25,26,27,28,29,30,31,32,33,34,35,36,37,38,39,40"/>
  <line x1="525" x2="585" y1="152" y2="152" class="net_157,158,159,160,161,162,163,164,165,166,167,168,169,170,171,172,173,174,175,176,177,178,179,180,181,182,183,184,185,186,187,188"/>
  <line x1="550" x2="570" y1="1194.5" y2="1194.5" class="net_223,224,225,226,227,228,229,230,231,232,233,234,235,236,237,238,239,240,241,242,243,244,245,246,247,248,249,250,251,252,253,254"/>
  <line x1="570" x2="570" y1="1194.5" y2="172" class="net_223,224,225,226,227,228,229,230,231,232,233,234,235,236,237,238,239,240,241,242,243,244,245,246,247,248,249,250,251,252,253,254"/>
  <circle cx="570" cy="1194.5" r="2" style="fill:#000" class="net_223,224,225,226,227,228,229,230,231,232,233,234,235,236,237,238,239,240,241,242,243,244,245,246,247,248,249,250,251,252,253,254"/>
  <line x1="570" x2="585" y1="172" y2="172" class="net_223,224,225,226,227,228,229,230,231,232,233,234,235,236,237,238,239,240,241,242,243,244,245,246,247,248,249,250,251,252,253,254"/>
  <line x1="550" x2="585" y1="1194.5" y2="1194.5" class="net_223,224,225,226,227,228,229,230,231,232,233,234,235,236,237,238,239,240,241,242,243,244,245,246,247,248,249,250,251,252,253,254"/>
  <line x1="545" x2="595" y1="1129.5" y2="1129.5" class="net_115"/>
  <line x1="595" x2="595" y1="1129.5" y2="177" class="net_115"/>
  <line x1="525" x2="560" y1="172" y2="172" class="net_189,190,191,192,193,194,195,196,197,198,199,200,201,202,203,204,205,206,207,208,209,210,211,212,213,214,215,216,217,218,219,220"/>
  <line x1="560" x2="560" y1="172" y2="1174.5" class="net_189,190,191,192,193,194,195,196,197,198,199,200,201,202,203,204,205,206,207,208,209,210,211,212,213,214,215,216,217,218,219,220"/>
  <line x1="560" x2="585" y1="1174.5" y2="1174.5" class="net_189,190,191,192,193,194,195,196,197,198,199,200,201,202,203,204,205,206,207,208,209,210,211,212,213,214,215,216,217,218,219,220"/>
  <line x1="545" x2="595" y1="1249.5" y2="1249.5" class="net_116"/>
  <line x1="595" x2="595" y1="1249.5" y2="1199.5" class="net_116"/>
  <line x1="375" x2="510" y1="1100" y2="1100" class="net_41,42,43,44,45,78,79,80,81,82"/>
  <line x1="510" x2="510" y1="1100" y2="177" class="net_41,42,43,44,45,78,79,80,81,82"/>
  <line x1="510" x2="480" y1="177" y2="177" class="net_41,42,43,44,45,78,79,80,81,82"/>
  <line x1="380" x2="500" y1="32" y2="32" class="net_287,288"/>
  <line x1="500" x2="500" y1="32" y2="217" class="net_287,288"/>
  <circle cx="500" cy="217" r="2" style="fill:#000" class="net_287,288"/>
  <line x1="500" x2="480" y1="217" y2="217" class="net_287,288"/>
  <line x1="380" x2="500" y1="32" y2="32" class="net_287,288"/>
  <line x1="500" x2="500" y1="32" y2="227" class="net_287,288"/>
  <line x1="500" x2="480" y1="227" y2="227" class="net_287,288"/>
  <line x1="380" x2="490" y1="97" y2="97" class="net_289,290"/>
  <line x1="490" x2="490" y1="97" y2="192" class="net_289,290"/>
  <line x1="490" x2="480" y1="192" y2="192" class="net_289,290"/>
  <line x1="375" x2="390" y1="222" y2="222" class="net_152,153,154,155,156"/>
  <line x1="390" x2="390" y1="222" y2="177" class="net_152,153,154,155,156"/>
  <line x1="390" x2="420" y1="177" y2="177" class="net_152,153,154,155,156"/>
  <line x1="378" x2="410" y1="1032.5" y2="1032.5" class="net_2"/>
  <line x1="410" x2="410" y1="1032.5" y2="207" class="net_2"/>
  <line x1="410" x2="420" y1="207" y2="207" class="net_2"/>
  <line x1="375" x2="420" y1="162" y2="162" class="net_120,121,122,123,124,125,126,127,128,129,130,131,132,133,134,135,136,137,138,139,140,141,142,143,144,145,146,147,148,149,150,151"/>
  <line x1="374.52" x2="400" y1="343" y2="343" class="net_119,119,119,119,119,119,119,119,119,119,119,119,119,119,119,119,119,119,119,119,119,119,119,119,119,119,119,119,119,119,119,119"/>
  <line x1="400" x2="400" y1="343" y2="192" class="net_119,119,119,119,119,119,119,119,119,119,119,119,119,119,119,119,119,119,119,119,119,119,119,119,119,119,119,119,119,119,119,119"/>
  <line x1="400" x2="420" y1="192" y2="192" class="net_119,119,119,119,119,119,119,119,119,119,119,119,119,119,119,119,119,119,119,119,119,119,119,119,119,119,119,119,119,119,119,119"/>
  <line x1="605" x2="640" y1="162" y2="162" class="net_46,47,48,49,50,51,52,53,54,55,56,57,58,59,60,61,62,63,64,65,66,67,68,69,70,71,72,73,74,75,76,77"/>
  <line x1="605" x2="640" y1="1184.5" y2="1184.5" class="net_83,84,85,86,87,88,89,90,91,92,93,94,95,96,97,98,99,100,101,102,103,104,105,106,107,108,109,110,111,112,113,114"/>
  <line x1="22" x2="22" y1="45" y2="65.5" class="net_NaN,NaN,NaN,NaN,NaN"/>
  <line x1="22" x2="66" y1="65.5" y2="65.5" class="net_NaN,NaN,NaN,NaN,NaN"/>
  <line x1="22" x2="48.5" y1="45" y2="33" class="net_NaN,NaN,NaN,NaN,NaN"/>
  <line x1="304.33333333333337" x2="325" y1="873" y2="873" class="net_119"/>
  <line x1="325" x2="325" y1="873" y2="310.5" class="net_119"/>
  <line x1="325" x2="369.02" y1="310.5" y2="310.5" class="net_119"/>
  <circle cx="325" cy="873" r="2" style="fill:#000" class="net_119"/>
  <circle cx="325" cy="310.5" r="2" style="fill:#000" class="net_119"/>
  <line x1="369.02" x2="369.02" y1="310.5" y2="332.5" class="net_119"/>
  <line x1="304.33333333333337" x2="325" y1="873" y2="873" class="net_119"/>
  <line x1="325" x2="325" y1="873" y2="300.5" class="net_119"/>
  <line x1="325" x2="369.02" y1="300.5" y2="300.5" class="net_119"/>
  <circle cx="325" cy="300.5" r="2" style="fill:#000" class="net_119"/>
  <line x1="369.02" x2="369.02" y1="300.5" y2="352.5" class="net_119"/>
  <line x1="304.33333333333337" x2="325" y1="873" y2="873" class="net_119"/>
  <line x1="325" x2="325" y1="873" y2="290.5" class="net_119"/>
  <line x1="325" x2="369.02" y1="290.5" y2="290.5" class="net_119"/>
  <circle cx="325" cy="290.5" r="2" style="fill:#000" class="net_119"/>
  <line x1="369.02" x2="369.02" y1="290.5" y2="372.5" class="net_119"/>
  <line x1="304.33333333333337" x2="325" y1="873" y2="873" class="net_119"/>
  <line x1="325" x2="325" y1="873" y2="280.5" class="net_119"/>
  <line x1="325" x2="369.02" y1="280.5" y2="280.5" class="net_119"/>
  <line x1="369.02" x2="369.02" y1="280.5" y2="392.5" class="net_119"/>
  <line x1="304.33333333333337" x2="325" y1="873" y2="873" class="net_119"/>
  <line x1="325" x2="325" y1="873" y2="413" class="net_119"/>
  <circle cx="325" cy="413" r="2" style="fill:#000" class="net_119"/>
  <line x1="325" x2="368.52" y1="413" y2="413" class="net_119"/>
  <line x1="304.33333333333337" x2="325" y1="873" y2="873" class="net_119"/>
  <line x1="325" x2="325" y1="873" y2="433" class="net_119"/>
  <circle cx="325" cy="433" r="2" style="fill:#000" class="net_119"/>
  <line x1="325" x2="368.52" y1="433" y2="433" class="net_119"/>
  <line x1="304.33333333333337" x2="325" y1="873" y2="873" class="net_119"/>
  <line x1="325" x2="325" y1="873" y2="453" class="net_119"/>
  <circle cx="325" cy="453" r="2" style="fill:#000" class="net_119"/>
  <line x1="325" x2="368.52" y1="453" y2="453" class="net_119"/>
  <line x1="304.33333333333337" x2="325" y1="873" y2="873" class="net_119"/>
  <line x1="325" x2="325" y1="873" y2="473" class="net_119"/>
  <circle cx="325" cy="473" r="2" style="fill:#000" class="net_119"/>
  <line x1="325" x2="368.52" y1="473" y2="473" class="net_119"/>
  <line x1="304.33333333333337" x2="325" y1="873" y2="873" class="net_119"/>
  <line x1="325" x2="325" y1="873" y2="493" class="net_119"/>
  <circle cx="325" cy="493" r="2" style="fill:#000" class="net_119"/>
  <line x1="325" x2="368.52" y1="493" y2="493" class="net_119"/>
  <line x1="304.33333333333337" x2="325" y1="873" y2="873" class="net_119"/>
  <line x1="325" x2="325" y1="873" y2="513" class="net_119"/>
  <circle cx="325" cy="513" r="2" style="fill:#000" class="net_119"/>
  <line x1="325" x2="368.52" y1="513" y2="513" class="net_119"/>
  <line x1="304.33333333333337" x2="325" y1="873" y2="873" class="net_119"/>
  <line x1="325" x2="325" y1="873" y2="533" class="net_119"/>
  <circle cx="325" cy="533" r="2" style="fill:#000" class="net_119"/>
  <line x1="325" x2="368.52" y1="533" y2="533" class="net_119"/>
  <line x1="304.33333333333337" x2="325" y1="873" y2="873" class="net_119"/>
  <line x1="325" x2="325" y1="873" y2="553" class="net_119"/>
  <circle cx="325" cy="553" r="2" style="fill:#000" class="net_119"/>
  <line x1="325" x2="368.52" y1="553" y2="553" class="net_119"/>
  <line x1="304.33333333333337" x2="325" y1="873" y2="873" class="net_119"/>
  <line x1="325" x2="325" y1="873" y2="573" class="net_119"/>
  <circle cx="325" cy="573" r="2" style="fill:#000" class="net_119"/>
  <line x1="325" x2="368.52" y1="573" y2="573" class="net_119"/>
  <line x1="304.33333333333337" x2="325" y1="873" y2="873" class="net_119"/>
  <line x1="325" x2="325" y1="873" y2="593" class="net_119"/>
  <circle cx="325" cy="593" r="2" style="fill:#000" class="net_119"/>
  <line x1="325" x2="368.52" y1="593" y2="593" class="net_119"/>
  <line x1="304.33333333333337" x2="325" y1="873" y2="873" class="net_119"/>
  <line x1="325" x2="325" y1="873" y2="613" class="net_119"/>
  <circle cx="325" cy="613" r="2" style="fill:#000" class="net_119"/>
  <line x1="325" x2="368.52" y1="613" y2="613" class="net_119"/>
  <line x1="304.33333333333337" x2="325" y1="873" y2="873" class="net_119"/>
  <line x1="325" x2="325" y1="873" y2="633" class="net_119"/>
  <circle cx="325" cy="633" r="2" style="fill:#000" class="net_119"/>
  <line x1="325" x2="368.52" y1="633" y2="633" class="net_119"/>
  <line x1="304.33333333333337" x2="325" y1="873" y2="873" class="net_119"/>
  <line x1="325" x2="325" y1="873" y2="653" class="net_119"/>
  <circle cx="325" cy="653" r="2" style="fill:#000" class="net_119"/>
  <line x1="325" x2="368.52" y1="653" y2="653" class="net_119"/>
  <line x1="304.33333333333337" x2="325" y1="873" y2="873" class="net_119"/>
  <line x1="325" x2="325" y1="873" y2="673" class="net_119"/>
  <circle cx="325" cy="673" r="2" style="fill:#000" class="net_119"/>
  <line x1="325" x2="368.52" y1="673" y2="673" class="net_119"/>
  <line x1="304.33333333333337" x2="325" y1="873" y2="873" class="net_119"/>
  <line x1="325" x2="325" y1="873" y2="693" class="net_119"/>
  <circle cx="325" cy="693" r="2" style="fill:#000" class="net_119"/>
  <line x1="325" x2="368.52" y1="693" y2="693" class="net_119"/>
  <line x1="304.33333333333337" x2="325" y1="873" y2="873" class="net_119"/>
  <line x1="325" x2="325" y1="873" y2="713" class="net_119"/>
  <circle cx="325" cy="713" r="2" style="fill:#000" class="net_119"/>
  <line x1="325" x2="368.52" y1="713" y2="713" class="net_119"/>
  <line x1="304.33333333333337" x2="325" y1="873" y2="873" class="net_119"/>
  <line x1="325" x2="325" y1="873" y2="733" class="net_119"/>
  <circle cx="325" cy="733" r="2" style="fill:#000" class="net_119"/>
  <line x1="325" x2="368.52" y1="733" y2="733" class="net_119"/>
  <line x1="304.33333333333337" x2="325" y1="873" y2="873" class="net_119"/>
  <line x1="325" x2="325" y1="873" y2="753" class="net_119"/>
  <circle cx="325" cy="753" r="2" style="fill:#000" class="net_119"/>
  <line x1="325" x2="368.52" y1="753" y2="753" class="net_119"/>
  <line x1="304.33333333333337" x2="325" y1="873" y2="873" class="net_119"/>
  <line x1="325" x2="325" y1="873" y2="773" class="net_119"/>
  <circle cx="325" cy="773" r="2" style="fill:#000" class="net_119"/>
  <line x1="325" x2="368.52" y1="773" y2="773" class="net_119"/>
  <line x1="304.33333333333337" x2="325" y1="873" y2="873" class="net_119"/>
  <line x1="325" x2="325" y1="873" y2="793" class="net_119"/>
  <circle cx="325" cy="793" r="2" style="fill:#000" class="net_119"/>
  <line x1="325" x2="368.52" y1="793" y2="793" class="net_119"/>
  <line x1="304.33333333333337" x2="325" y1="873" y2="873" class="net_119"/>
  <line x1="325" x2="325" y1="873" y2="813" class="net_119"/>
  <circle cx="325" cy="813" r="2" style="fill:#000" class="net_119"/>
  <line x1="325" x2="368.52" y1="813" y2="813" class="net_119"/>
  <line x1="304.33333333333337" x2="325" y1="873" y2="873" class="net_119"/>
  <line x1="325" x2="325" y1="873" y2="833" class="net_119"/>
  <circle cx="325" cy="833" r="2" style="fill:#000" class="net_119"/>
  <line x1="325" x2="368.52" y1="833" y2="833" class="net_119"/>
  <line x1="304.33333333333337" x2="325" y1="873" y2="873" class="net_119"/>
  <line x1="325" x2="325" y1="873" y2="853" class="net_119"/>
  <circle cx="325" cy="853" r="2" style="fill:#000" class="net_119"/>
  <line x1="325" x2="368.52" y1="853" y2="853" class="net_119"/>
  <line x1="304.33333333333337" x2="368.52" y1="873" y2="873" class="net_119"/>
  <line x1="304.33333333333337" x2="325" y1="873" y2="873" class="net_119"/>
  <line x1="325" x2="325" y1="873" y2="1002.5" class="net_119"/>
  <line x1="325" x2="369.02" y1="1002.5" y2="1002.5" class="net_119"/>
  <line x1="369.02" x2="369.02" y1="1002.5" y2="893.5" class="net_119"/>
  <line x1="304.33333333333337" x2="325" y1="873" y2="873" class="net_119"/>
  <line x1="325" x2="325" y1="873" y2="992.5" class="net_119"/>
  <line x1="325" x2="369.02" y1="992.5" y2="992.5" class="net_119"/>
  <circle cx="325" cy="992.5" r="2" style="fill:#000" class="net_119"/>
  <line x1="369.02" x2="369.02" y1="992.5" y2="913.5" class="net_119"/>
  <line x1="304.33333333333337" x2="325" y1="873" y2="873" class="net_119"/>
  <line x1="325" x2="325" y1="873" y2="982.5" class="net_119"/>
  <line x1="325" x2="369.02" y1="982.5" y2="982.5" class="net_119"/>
  <circle cx="325" cy="982.5" r="2" style="fill:#000" class="net_119"/>
  <line x1="369.02" x2="369.02" y1="982.5" y2="933.5" class="net_119"/>
  <line x1="304.33333333333337" x2="325" y1="873" y2="873" class="net_119"/>
  <line x1="325" x2="325" y1="873" y2="972.5" class="net_119"/>
  <line x1="325" x2="369.02" y1="972.5" y2="972.5" class="net_119"/>
  <circle cx="325" cy="972.5" r="2" style="fill:#000" class="net_119"/>
  <line x1="369.02" x2="369.02" y1="972.5" y2="953.5" class="net_119"/>
  <line x1="480" x2="520" y1="162" y2="162" class="net_157,158,159,160,161,162,163,164,165,166,167,168,169,170,171,172,173,174,175,176,177,178,179,180,181,182,183,184,185,186,187,188,189,190,191,192,193,194,195,196,197,198,199,200,201,202,203,204,205,206,207,208,209,210,211,212,213,214,215,216,217,218,219,220"/>
</svg>
