<svg xmlns="http://www.w3.org/2000/svg" xmlns:xlink="http://www.w3.org/1999/xlink" xmlns:s="https://github.com/nturley/netlistsvg" width="476" height="255">
  <style>svg {
    stroke:#000;
    fill:none;
  }
  text {
    fill:#000;
    stroke:none;
    font-size:10px;
    font-weight: bold;
    font-family: "Courier New", monospace;
  }
  .nodelabel {
    text-anchor: middle;
  }
  .inputPortLabel {
    text-anchor: end;
  }
  .splitjoinBody {
    fill:#000;
  }</style>
  <g s:type="dff" transform="translate(237,131)" s:width="30" s:height="40" id="cell_\12">
    <s:alias val="$dff"/>
    <s:alias val="$_DFF_"/>
    <s:alias val="$_DFF_P_"/>
    <rect width="30" height="40" x="0" y="0" class="cell_\12"/>
    <path d="M0,35 L5,30 L0,25" class="cell_\12"/>
    <g s:x="30" s:y="10" s:pid="Q"/>
    <g s:x="0" s:y="30" s:pid="CLK"/>
    <g s:x="0" s:y="30" s:pid="C"/>
    <g s:x="0" s:y="10" s:pid="D"/>
  </g>
  <g s:type="mux" transform="translate(302,111)" s:width="20" s:height="40" id="cell_\13">
    <s:alias val="$pmux"/>
    <s:alias val="$mux"/>
    <s:alias val="$_MUX_"/>
    <path d="M0,0 L20,10 L20,30 L0,40 Z" class="cell_\13"/>
    <g s:x="0" s:y="10" s:pid="A"/>
    <g s:x="0" s:y="30" s:pid="B"/>
    <g s:x="10" s:y="35" s:pid="S"/>
    <g s:x="20" s:y="20" s:pid="Y"/>
  </g>
  <g s:type="dff" transform="translate(357,121)" s:width="30" s:height="40" id="cell_\14">
    <s:alias val="$dff"/>
    <s:alias val="$_DFF_"/>
    <s:alias val="$_DFF_P_"/>
    <rect width="30" height="40" x="0" y="0" class="cell_\14"/>
    <path d="M0,35 L5,30 L0,25" class="cell_\14"/>
    <g s:x="30" s:y="10" s:pid="Q"/>
    <g s:x="0" s:y="30" s:pid="CLK"/>
    <g s:x="0" s:y="30" s:pid="C"/>
    <g s:x="0" s:y="10" s:pid="D"/>
  </g>
  <g s:type="mux" transform="translate(170.66666666666666,121)" s:width="20" s:height="40" id="cell_\8">
    <s:alias val="$pmux"/>
    <s:alias val="$mux"/>
    <s:alias val="$_MUX_"/>
    <path d="M0,0 L20,10 L20,30 L0,40 Z" class="cell_\8"/>
    <g s:x="0" s:y="10" s:pid="A"/>
    <g s:x="0" s:y="30" s:pid="B"/>
    <g s:x="10" s:y="35" s:pid="S"/>
    <g s:x="20" s:y="20" s:pid="Y"/>
  </g>
  <g s:type="inputExt" transform="translate(160,191)" s:width="30" s:height="20" id="cell_inClock">
    <text x="15" y="-4" class="nodelabel cell_inClock" s:attribute="ref">inClock</text>
    <s:alias val="$_inputExt_"/>
    <path d="M0,0 L0,20 L15,20 L30,10 L15,0 Z" class="cell_inClock"/>
    <g s:x="28" s:y="10" s:pid="Y"/>
  </g>
  <g s:type="inputExt" transform="translate(12,22)" s:width="30" s:height="20" id="cell_inData">
    <text x="15" y="-4" class="nodelabel cell_inData" s:attribute="ref">inData</text>
    <s:alias val="$_inputExt_"/>
    <path d="M0,0 L0,20 L15,20 L30,10 L15,0 Z" class="cell_inData"/>
    <g s:x="28" s:y="10" s:pid="Y"/>
  </g>
  <g s:type="inputExt" transform="translate(83,161)" s:width="30" s:height="20" id="cell_inPrint">
    <text x="15" y="-4" class="nodelabel cell_inPrint" s:attribute="ref">inPrint</text>
    <s:alias val="$_inputExt_"/>
    <path d="M0,0 L0,20 L15,20 L30,10 L15,0 Z" class="cell_inPrint"/>
    <g s:x="28" s:y="10" s:pid="Y"/>
  </g>
  <g s:type="outputExt" transform="translate(422,121)" s:width="30" s:height="20" id="cell_outData">
    <text x="15" y="-4" class="nodelabel cell_outData" s:attribute="ref">outData</text>
    <s:alias val="$_outputExt_"/>
    <path d="M30,0 L30,20 L15,20 L0,10 L15,0 Z" class="cell_outData"/>
    <g s:x="0" s:y="10" s:pid="A"/>
  </g>
  <g s:type="join" transform="translate(98,21.5)" s:width="4" s:height="40" id="cell_$join$,3,37,38,39,40,41,42,43,44,45,46,47,48,49,50,51,">
    <rect width="5" height="40" class="splitjoinBody" s:generic="body"/>
    <s:alias val="$_join_"/>
    <g s:x="5" s:y="20" s:pid="out"/>
    <g transform="translate(0,10)" s:x="0" s:y="10" s:pid="in0">
      <text x="-3" y="-4" class="inputPortLabel">0</text>
    </g>
    <g transform="translate(0,30)" s:x="0" s:y="10" s:pid="in0">
      <text x="-3" y="-4" class="inputPortLabel">1:15</text>
    </g>
  </g>
  <g s:type="split" transform="translate(18,77)" s:width="5" s:height="40" id="cell_$split$,37,38,39,40,41,42,43,44,45,46,47,48,49,50,51,52,">
    <rect width="5" height="20" class="splitjoinBody" s:generic="body"/>
    <s:alias val="$_split_"/>
    <g s:x="0" s:y="20" s:pid="in"/>
    <g transform="translate(4,10)" s:x="4" s:y="10" s:pid="out0">
      <text x="5" y="-4">0:14</text>
    </g>
  </g>
  <line x1="188" x2="212" y1="201" y2="201" class="net_2"/>
  <line x1="212" x2="212" y1="201" y2="161" class="net_2"/>
  <circle cx="212" cy="201" r="2" style="fill:#000" class="net_2"/>
  <line x1="212" x2="237" y1="161" y2="161" class="net_2"/>
  <line x1="188" x2="212" y1="201" y2="201" class="net_2"/>
  <line x1="212" x2="212" y1="201" y2="242" class="net_2"/>
  <line x1="212" x2="332" y1="242" y2="242" class="net_2"/>
  <line x1="332" x2="332" y1="242" y2="151" class="net_2"/>
  <line x1="332" x2="357" y1="151" y2="151" class="net_2"/>
  <line x1="190.66666666666666" x2="237" y1="141" y2="141" class="net_21,22,23,24,25,26,27,28,29,30,31,32,33,34,35,36"/>
  <line x1="387" x2="397" y1="131" y2="131" class="net_5,6,7,8,9,10,11,12,13,14,15,16,17,18,19,20"/>
  <line x1="397" x2="397" y1="131" y2="101" class="net_5,6,7,8,9,10,11,12,13,14,15,16,17,18,19,20"/>
  <line x1="397" x2="287" y1="101" y2="101" class="net_5,6,7,8,9,10,11,12,13,14,15,16,17,18,19,20"/>
  <line x1="287" x2="287" y1="101" y2="121" class="net_5,6,7,8,9,10,11,12,13,14,15,16,17,18,19,20"/>
  <circle cx="397" cy="131" r="2" style="fill:#000" class="net_5,6,7,8,9,10,11,12,13,14,15,16,17,18,19,20"/>
  <line x1="287" x2="302" y1="121" y2="121" class="net_5,6,7,8,9,10,11,12,13,14,15,16,17,18,19,20"/>
  <line x1="387" x2="422" y1="131" y2="131" class="net_5,6,7,8,9,10,11,12,13,14,15,16,17,18,19,20"/>
  <line x1="267" x2="302" y1="141" y2="141" class="net_37,38,39,40,41,42,43,44,45,46,47,48,49,50,51,52"/>
  <line x1="267" x2="277" y1="141" y2="141" class="net_37,38,39,40,41,42,43,44,45,46,47,48,49,50,51,52"/>
  <line x1="277" x2="277" y1="141" y2="221" class="net_37,38,39,40,41,42,43,44,45,46,47,48,49,50,51,52"/>
  <line x1="277" x2="145" y1="221" y2="221" class="net_37,38,39,40,41,42,43,44,45,46,47,48,49,50,51,52"/>
  <line x1="145" x2="145" y1="221" y2="151" class="net_37,38,39,40,41,42,43,44,45,46,47,48,49,50,51,52"/>
  <line x1="145" x2="170.66666666666666" y1="151" y2="151" class="net_37,38,39,40,41,42,43,44,45,46,47,48,49,50,51,52"/>
  <line x1="267" x2="277" y1="141" y2="141" class="net_37,38,39,40,41,42,43,44,45,46,47,48,49,50,51,52"/>
  <line x1="277" x2="277" y1="141" y2="110" class="net_37,38,39,40,41,42,43,44,45,46,47,48,49,50,51,52"/>
  <line x1="277" x2="18.5" y1="110" y2="110" class="net_37,38,39,40,41,42,43,44,45,46,47,48,49,50,51,52"/>
  <circle cx="277" cy="141" r="2" style="fill:#000" class="net_37,38,39,40,41,42,43,44,45,46,47,48,49,50,51,52"/>
  <line x1="18.5" x2="18.5" y1="110" y2="98" class="net_37,38,39,40,41,42,43,44,45,46,47,48,49,50,51,52"/>
  <line x1="111" x2="135" y1="171" y2="171" class="net_4"/>
  <line x1="135" x2="135" y1="171" y2="231" class="net_4"/>
  <line x1="135" x2="312" y1="231" y2="231" class="net_4"/>
  <circle cx="135" cy="171" r="2" style="fill:#000" class="net_4"/>
  <line x1="312" x2="312" y1="231" y2="146" class="net_4"/>
  <line x1="111" x2="180.66666666666666" y1="171" y2="171" class="net_4"/>
  <line x1="180.66666666666666" x2="180.66666666666666" y1="171" y2="156" class="net_4"/>
  <line x1="322" x2="357" y1="131" y2="131" class="net_53,54,55,56,57,58,59,60,61,62,63,64,65,66,67,68"/>
  <line x1="104" x2="135" y1="42" y2="42" class="net_3,37,38,39,40,41,42,43,44,45,46,47,48,49,50,51"/>
  <line x1="135" x2="135" y1="42" y2="131" class="net_3,37,38,39,40,41,42,43,44,45,46,47,48,49,50,51"/>
  <line x1="135" x2="170.66666666666666" y1="131" y2="131" class="net_3,37,38,39,40,41,42,43,44,45,46,47,48,49,50,51"/>
  <line x1="40" x2="98" y1="32" y2="32" class="net_3"/>
  <line x1="23" x2="58" y1="87.5" y2="87.5" class="net_37,38,39,40,41,42,43,44,45,46,47,48,49,50,51"/>
  <line x1="58" x2="58" y1="87.5" y2="52" class="net_37,38,39,40,41,42,43,44,45,46,47,48,49,50,51"/>
  <line x1="58" x2="98" y1="52" y2="52" class="net_37,38,39,40,41,42,43,44,45,46,47,48,49,50,51"/>
</svg>
