<svg xmlns="http://www.w3.org/2000/svg" xmlns:xlink="http://www.w3.org/1999/xlink" xmlns:s="https://github.com/nturley/netlistsvg" width="886" height="639"><style>svg {
  stroke:#000;
  fill:none;
}
text {
  fill:#000;
  stroke:none;
  font-size:10px;
  font-weight: bold;
  font-family: "Courier New", monospace;
}
.nodelabel {
  text-anchor: middle;
}
.inputPortLabel {
  text-anchor: end;
}
.splitjoinBody {
  fill:#000;
}</style><g s:type="eq" transform="translate(439,173.5)" s:width="25" s:height="25" id="cell_$eq$forwarding_unit.v:20$3"><s:alias val="$eq"/><circle r="12.5" cx="12.5" cy="12.5" class="cell_$eq$forwarding_unit.v:20$3"/><line x1="7.5" x2="17.5" y1="10" y2="10" class="cell_$eq$forwarding_unit.v:20$3"/><line x1="7.5" x2="17.5" y1="15" y2="15" class="cell_$eq$forwarding_unit.v:20$3"/><g s:x="3" s:y="5" s:pid="A"/><g s:x="3" s:y="20" s:pid="B"/><g s:x="25" s:y="12.5" s:pid="Y"/></g><g s:type="eq" transform="translate(216.66666666666666,57)" s:width="25" s:height="25" id="cell_$eq$forwarding_unit.v:21$7"><s:alias val="$eq"/><circle r="12.5" cx="12.5" cy="12.5" class="cell_$eq$forwarding_unit.v:21$7"/><line x1="7.5" x2="17.5" y1="10" y2="10" class="cell_$eq$forwarding_unit.v:21$7"/><line x1="7.5" x2="17.5" y1="15" y2="15" class="cell_$eq$forwarding_unit.v:21$7"/><g s:x="3" s:y="5" s:pid="A"/><g s:x="3" s:y="20" s:pid="B"/><g s:x="25" s:y="12.5" s:pid="Y"/></g><g s:type="eq" transform="translate(439,598)" s:width="25" s:height="25" id="cell_$eq$forwarding_unit.v:24$13"><s:alias val="$eq"/><circle r="12.5" cx="12.5" cy="12.5" class="cell_$eq$forwarding_unit.v:24$13"/><line x1="7.5" x2="17.5" y1="10" y2="10" class="cell_$eq$forwarding_unit.v:24$13"/><line x1="7.5" x2="17.5" y1="15" y2="15" class="cell_$eq$forwarding_unit.v:24$13"/><g s:x="3" s:y="5" s:pid="A"/><g s:x="3" s:y="20" s:pid="B"/><g s:x="25" s:y="12.5" s:pid="Y"/></g><g s:type="eq" transform="translate(216.66666666666666,492)" s:width="25" s:height="25" id="cell_$eq$forwarding_unit.v:25$17"><s:alias val="$eq"/><circle r="12.5" cx="12.5" cy="12.5" class="cell_$eq$forwarding_unit.v:25$17"/><line x1="7.5" x2="17.5" y1="10" y2="10" class="cell_$eq$forwarding_unit.v:25$17"/><line x1="7.5" x2="17.5" y1="15" y2="15" class="cell_$eq$forwarding_unit.v:25$17"/><g s:x="3" s:y="5" s:pid="A"/><g s:x="3" s:y="20" s:pid="B"/><g s:x="25" s:y="12.5" s:pid="Y"/></g><g s:type="and" transform="translate(505,166)" s:width="30" s:height="25" id="cell_$logic_and$forwarding_unit.v:20$4"><s:alias val="$and"/><s:alias val="$reduce_and"/><s:alias val="$logic_and"/><s:alias val="$_AND_"/><path d="M0,0 L0,25 L15,25 A15 12.5 0 0 0 15,0 Z" class="cell_$logic_and$forwarding_unit.v:20$4"/><text x="13" y="15" class="nodelabel" style="font-size:7px">AND</text><g s:x="0" s:y="5" s:pid="A"/><g s:x="0" s:y="20" s:pid="B"/><g s:x="30" s:y="12.5" s:pid="Y"/></g><g s:type="and" transform="translate(299,49.5)" s:width="30" s:height="25" id="cell_$logic_and$forwarding_unit.v:21$8"><s:alias val="$and"/><s:alias val="$reduce_and"/><s:alias val="$logic_and"/><s:alias val="$_AND_"/><path d="M0,0 L0,25 L15,25 A15 12.5 0 0 0 15,0 Z" class="cell_$logic_and$forwarding_unit.v:21$8"/><text x="13" y="15" class="nodelabel" style="font-size:7px">AND</text><g s:x="0" s:y="5" s:pid="A"/><g s:x="0" s:y="20" s:pid="B"/><g s:x="30" s:y="12.5" s:pid="Y"/></g><g s:type="and" transform="translate(435,377)" s:width="30" s:height="25" id="cell_$logic_and$forwarding_unit.v:24$12"><s:alias val="$and"/><s:alias val="$reduce_and"/><s:alias val="$logic_and"/><s:alias val="$_AND_"/><path d="M0,0 L0,25 L15,25 A15 12.5 0 0 0 15,0 Z" class="cell_$logic_and$forwarding_unit.v:24$12"/><text x="13" y="15" class="nodelabel" style="font-size:7px">AND</text><g s:x="0" s:y="5" s:pid="A"/><g s:x="0" s:y="20" s:pid="B"/><g s:x="30" s:y="12.5" s:pid="Y"/></g><g s:type="and" transform="translate(505,384.5)" s:width="30" s:height="25" id="cell_$logic_and$forwarding_unit.v:24$14"><s:alias val="$and"/><s:alias val="$reduce_and"/><s:alias val="$logic_and"/><s:alias val="$_AND_"/><path d="M0,0 L0,25 L15,25 A15 12.5 0 0 0 15,0 Z" class="cell_$logic_and$forwarding_unit.v:24$14"/><text x="13" y="15" class="nodelabel" style="font-size:7px">AND</text><g s:x="0" s:y="5" s:pid="A"/><g s:x="0" s:y="20" s:pid="B"/><g s:x="30" s:y="12.5" s:pid="Y"/></g><g s:type="and" transform="translate(215,332)" s:width="30" s:height="25" id="cell_$logic_and$forwarding_unit.v:25$16"><s:alias val="$and"/><s:alias val="$reduce_and"/><s:alias val="$logic_and"/><s:alias val="$_AND_"/><path d="M0,0 L0,25 L15,25 A15 12.5 0 0 0 15,0 Z" class="cell_$logic_and$forwarding_unit.v:25$16"/><text x="13" y="15" class="nodelabel" style="font-size:7px">AND</text><g s:x="0" s:y="5" s:pid="A"/><g s:x="0" s:y="20" s:pid="B"/><g s:x="30" s:y="12.5" s:pid="Y"/></g><g s:type="and" transform="translate(299,339.5)" s:width="30" s:height="25" id="cell_$logic_and$forwarding_unit.v:25$18"><s:alias val="$and"/><s:alias val="$reduce_and"/><s:alias val="$logic_and"/><s:alias val="$_AND_"/><path d="M0,0 L0,25 L15,25 A15 12.5 0 0 0 15,0 Z" class="cell_$logic_and$forwarding_unit.v:25$18"/><text x="13" y="15" class="nodelabel" style="font-size:7px">AND</text><g s:x="0" s:y="5" s:pid="A"/><g s:x="0" s:y="20" s:pid="B"/><g s:x="30" s:y="12.5" s:pid="Y"/></g><g s:type="or" transform="translate(367,567)" s:width="30" s:height="25" id="cell_$ne$forwarding_unit.v:24$11"><s:alias val="$or"/><s:alias val="$reduce_or"/><s:alias val="$reduce_bool"/><s:alias val="$logic_or"/><s:alias val="$_OR_"/><path d="M0,25 L0,25 L15,25 A15 12.5 0 0 0 15,0 L0,0" class="cell_$ne$forwarding_unit.v:24$11"/><path d="M0,0 A30 25 0 0 1 0,25" class="cell_$ne$forwarding_unit.v:24$11"/><text x="17" y="15" class="nodelabel" style="font-size:7px">OR</text><g s:x="3" s:y="5" s:pid="A"/><g s:x="3" s:y="20" s:pid="B"/><g s:x="30" s:y="12.5" s:pid="Y"/></g><g s:type="or" transform="translate(148,382)" s:width="30" s:height="25" id="cell_$ne$forwarding_unit.v:25$15"><s:alias val="$or"/><s:alias val="$reduce_or"/><s:alias val="$reduce_bool"/><s:alias val="$logic_or"/><s:alias val="$_OR_"/><path d="M0,25 L0,25 L15,25 A15 12.5 0 0 0 15,0 L0,0" class="cell_$ne$forwarding_unit.v:25$15"/><path d="M0,0 A30 25 0 0 1 0,25" class="cell_$ne$forwarding_unit.v:25$15"/><text x="17" y="15" class="nodelabel" style="font-size:7px">OR</text><g s:x="3" s:y="5" s:pid="A"/><g s:x="3" s:y="20" s:pid="B"/><g s:x="30" s:y="12.5" s:pid="Y"/></g><g s:type="generic" transform="translate(578,31.5)" s:width="30" s:height="40" id="cell_$ternary$forwarding_unit.v:20$10"><text x="15" y="-4" class="nodelabel cell_$ternary$forwarding_unit.v:20$10" s:attribute="ref">$mux-bus</text><rect width="30" height="60" s:generic="body" class="cell_$ternary$forwarding_unit.v:20$10"/><g transform="translate(0,10)" s:x="0" s:y="10" s:pid="in0" id="port_$ternary$forwarding_unit.v:20$10~A"><text x="-3" y="-4" class="inputPortLabel cell_$ternary$forwarding_unit.v:20$10">A</text></g><g transform="translate(0,30)" s:x="0" s:y="10" s:pid="in0" id="port_$ternary$forwarding_unit.v:20$10~B"><text x="-3" y="-4" class="inputPortLabel cell_$ternary$forwarding_unit.v:20$10">B</text></g><g transform="translate(0,50)" s:x="0" s:y="10" s:pid="in0" id="port_$ternary$forwarding_unit.v:20$10~S"><text x="-3" y="-4" class="inputPortLabel cell_$ternary$forwarding_unit.v:20$10">S</text></g><g transform="translate(30,10)" s:x="30" s:y="10" s:pid="out0" id="port_$ternary$forwarding_unit.v:20$10~Y"><text x="5" y="-4" style="fill:#000; stroke:none" class="cell_$ternary$forwarding_unit.v:20$10">Y</text></g></g><g s:type="mux" transform="translate(369.3333333333333,12)" s:width="20" s:height="40" id="cell_$ternary$forwarding_unit.v:21$9"><s:alias val="$pmux"/><s:alias val="$mux"/><s:alias val="$_MUX_"/><path d="M0,0 L20,10 L20,30 L0,40 Z" class="cell_$ternary$forwarding_unit.v:21$9"/><g s:x="0" s:y="10" s:pid="A"/><g s:x="0" s:y="30" s:pid="B"/><g s:x="10" s:y="35" s:pid="S"/><g s:x="20" s:y="20" s:pid="Y"/></g><g s:type="generic" transform="translate(578,219.5)" s:width="30" s:height="40" id="cell_$ternary$forwarding_unit.v:24$20"><text x="15" y="-4" class="nodelabel cell_$ternary$forwarding_unit.v:24$20" s:attribute="ref">$mux-bus</text><rect width="30" height="60" s:generic="body" class="cell_$ternary$forwarding_unit.v:24$20"/><g transform="translate(0,10)" s:x="0" s:y="10" s:pid="in0" id="port_$ternary$forwarding_unit.v:24$20~A"><text x="-3" y="-4" class="inputPortLabel cell_$ternary$forwarding_unit.v:24$20">A</text></g><g transform="translate(0,30)" s:x="0" s:y="10" s:pid="in0" id="port_$ternary$forwarding_unit.v:24$20~B"><text x="-3" y="-4" class="inputPortLabel cell_$ternary$forwarding_unit.v:24$20">B</text></g><g transform="translate(0,50)" s:x="0" s:y="10" s:pid="in0" id="port_$ternary$forwarding_unit.v:24$20~S"><text x="-3" y="-4" class="inputPortLabel cell_$ternary$forwarding_unit.v:24$20">S</text></g><g transform="translate(30,10)" s:x="30" s:y="10" s:pid="out0" id="port_$ternary$forwarding_unit.v:24$20~Y"><text x="5" y="-4" style="fill:#000; stroke:none" class="cell_$ternary$forwarding_unit.v:24$20">Y</text></g></g><g s:type="mux" transform="translate(369.3333333333333,291)" s:width="20" s:height="40" id="cell_$ternary$forwarding_unit.v:25$19"><s:alias val="$pmux"/><s:alias val="$mux"/><s:alias val="$_MUX_"/><path d="M0,0 L20,10 L20,30 L0,40 Z" class="cell_$ternary$forwarding_unit.v:25$19"/><g s:x="0" s:y="10" s:pid="A"/><g s:x="0" s:y="30" s:pid="B"/><g s:x="10" s:y="35" s:pid="S"/><g s:x="20" s:y="20" s:pid="Y"/></g><g s:type="inputExt" transform="translate(77,438)" s:width="30" s:height="20" id="cell_ex_rs1"><text x="15" y="-4" class="nodelabel cell_ex_rs1" s:attribute="ref">ex_rs1</text><s:alias val="$_inputExt_"/><path d="M0,0 L0,20 L15,20 L30,10 L15,0 Z" class="cell_ex_rs1"/><g s:x="28" s:y="10" s:pid="Y"/></g><g s:type="inputExt" transform="translate(77,548)" s:width="30" s:height="20" id="cell_ex_rs2"><text x="15" y="-4" class="nodelabel cell_ex_rs2" s:attribute="ref">ex_rs2</text><s:alias val="$_inputExt_"/><path d="M0,0 L0,20 L15,20 L30,10 L15,0 Z" class="cell_ex_rs2"/><g s:x="28" s:y="10" s:pid="Y"/></g><g s:type="inputExt" transform="translate(213,562)" s:width="30" s:height="20" id="cell_mem_rd"><text x="15" y="-4" class="nodelabel cell_mem_rd" s:attribute="ref">mem_rd</text><s:alias val="$_inputExt_"/><path d="M0,0 L0,20 L15,20 L30,10 L15,0 Z" class="cell_mem_rd"/><g s:x="28" s:y="10" s:pid="Y"/></g><g s:type="inputExt" transform="translate(364,372)" s:width="30" s:height="20" id="cell_mem_we"><text x="15" y="-4" class="nodelabel cell_mem_we" s:attribute="ref">mem_we</text><s:alias val="$_inputExt_"/><path d="M0,0 L0,20 L15,20 L30,10 L15,0 Z" class="cell_mem_we"/><g s:x="28" s:y="10" s:pid="Y"/></g><g s:type="inputExt" transform="translate(12,377)" s:width="30" s:height="20" id="cell_wb_rd"><text x="15" y="-4" class="nodelabel cell_wb_rd" s:attribute="ref">wb_rd</text><s:alias val="$_inputExt_"/><path d="M0,0 L0,20 L15,20 L30,10 L15,0 Z" class="cell_wb_rd"/><g s:x="28" s:y="10" s:pid="Y"/></g><g s:type="inputExt" transform="translate(148,327)" s:width="30" s:height="20" id="cell_wb_we"><text x="15" y="-4" class="nodelabel cell_wb_we" s:attribute="ref">wb_we</text><s:alias val="$_inputExt_"/><path d="M0,0 L0,20 L15,20 L30,10 L15,0 Z" class="cell_wb_we"/><g s:x="28" s:y="10" s:pid="Y"/></g><g s:type="outputExt" transform="translate(844,32)" s:width="30" s:height="20" id="cell_fwd_a"><text x="15" y="-4" class="nodelabel cell_fwd_a" s:attribute="ref">fwd_a</text><s:alias val="$_outputExt_"/><path d="M30,0 L30,20 L15,20 L0,10 L15,0 Z" class="cell_fwd_a"/><g s:x="0" s:y="10" s:pid="A"/></g><g s:type="outputExt" transform="translate(844,220)" s:width="30" s:height="20" id="cell_fwd_b"><text x="15" y="-4" class="nodelabel cell_fwd_b" s:attribute="ref">fwd_b</text><s:alias val="$_outputExt_"/><path d="M30,0 L30,20 L15,20 L0,10 L15,0 Z" class="cell_fwd_b"/><g s:x="0" s:y="10" s:pid="A"/></g><g s:type="constant" transform="translate(299,229.5)" s:width="30" s:height="20" id="cell_0"><text x="15" y="-4" class="nodelabel cell_0" s:attribute="ref">0</text><s:alias val="$_constant_"/><rect width="30" height="20" class="cell_0"/><g s:x="30" s:y="10" s:pid="Y"/></g><g s:type="constant" transform="translate(435,243.5)" s:width="30" s:height="20" id="cell_10"><text x="15" y="-4" class="nodelabel cell_10" s:attribute="ref">10</text><s:alias val="$_constant_"/><rect width="30" height="20" class="cell_10"/><g s:x="30" s:y="10" s:pid="Y"/></g><g s:type="constant" transform="translate(299,119.5)" s:width="30" s:height="20" id="cell_1"><text x="15" y="-4" class="nodelabel cell_1" s:attribute="ref">1</text><s:alias val="$_constant_"/><rect width="30" height="20" class="cell_1"/><g s:x="30" s:y="10" s:pid="Y"/></g><g s:type="join" transform="translate(446,21.5)" s:width="4" s:height="40" id="cell_$join$,40,42,"><rect width="5" height="40" class="splitjoinBody" s:generic="body"/><s:alias val="$_join_"/><g s:x="5" s:y="20" s:pid="out"/><g transform="translate(0,10)" s:x="0" s:y="10" s:pid="in0"><text x="-3" y="-4" class="inputPortLabel">0</text></g><g transform="translate(0,30)" s:x="0" s:y="10" s:pid="in0"><text x="-3" y="-4" class="inputPortLabel">1</text></g></g><g s:type="join" transform="translate(446,300.5)" s:width="4" s:height="40" id="cell_$join$,41,42,"><rect width="5" height="40" class="splitjoinBody" s:generic="body"/><s:alias val="$_join_"/><g s:x="5" s:y="20" s:pid="out"/><g transform="translate(0,10)" s:x="0" s:y="10" s:pid="in0"><text x="-3" y="-4" class="inputPortLabel">0</text></g><g transform="translate(0,30)" s:x="0" s:y="10" s:pid="in0"><text x="-3" y="-4" class="inputPortLabel">1</text></g></g><line x1="241" x2="279" y1="572" y2="572" class="net_12,13,14,15,16 width_5" style="stroke-width: 2"/><line x1="279" x2="279" y1="572" y2="178.5" class="net_12,13,14,15,16 width_5" style="stroke-width: 2"/><circle cx="279" cy="572" r="3" style="fill:#000" class="net_12,13,14,15,16 width_5"/><line x1="279" x2="442" y1="178.5" y2="178.5" class="net_12,13,14,15,16 width_5" style="stroke-width: 2"/><line x1="241" x2="279" y1="572" y2="572" class="net_12,13,14,15,16 width_5" style="stroke-width: 2"/><line x1="279" x2="279" y1="572" y2="603" class="net_12,13,14,15,16 width_5" style="stroke-width: 2"/><line x1="279" x2="442" y1="603" y2="603" class="net_12,13,14,15,16 width_5" style="stroke-width: 2"/><line x1="241" x2="370" y1="572" y2="572" class="net_12,13,14,15,16 width_5" style="stroke-width: 2"/><line x1="105" x2="269" y1="448" y2="448" class="net_2,3,4,5,6 width_5" style="stroke-width: 2"/><line x1="269" x2="269" y1="448" y2="260.5" class="net_2,3,4,5,6 width_5" style="stroke-width: 2"/><line x1="269" x2="410" y1="260.5" y2="260.5" class="net_2,3,4,5,6 width_5" style="stroke-width: 2"/><line x1="410" x2="410" y1="260.5" y2="193.5" class="net_2,3,4,5,6 width_5" style="stroke-width: 2"/><line x1="410" x2="442" y1="193.5" y2="193.5" class="net_2,3,4,5,6 width_5" style="stroke-width: 2"/><line x1="105" x2="123" y1="448" y2="448" class="net_2,3,4,5,6 width_5" style="stroke-width: 2"/><line x1="123" x2="123" y1="448" y2="77" class="net_2,3,4,5,6 width_5" style="stroke-width: 2"/><circle cx="123" cy="448" r="3" style="fill:#000" class="net_2,3,4,5,6 width_5"/><line x1="123" x2="219.66666666666666" y1="77" y2="77" class="net_2,3,4,5,6 width_5" style="stroke-width: 2"/><line x1="40" x2="52" y1="387" y2="387" class="net_18,19,20,21,22 width_5" style="stroke-width: 2"/><line x1="52" x2="52" y1="387" y2="62" class="net_18,19,20,21,22 width_5" style="stroke-width: 2"/><circle cx="52" cy="387" r="3" style="fill:#000" class="net_18,19,20,21,22 width_5"/><line x1="52" x2="219.66666666666666" y1="62" y2="62" class="net_18,19,20,21,22 width_5" style="stroke-width: 2"/><line x1="40" x2="52" y1="387" y2="387" class="net_18,19,20,21,22 width_5" style="stroke-width: 2"/><line x1="52" x2="52" y1="387" y2="497" class="net_18,19,20,21,22 width_5" style="stroke-width: 2"/><line x1="52" x2="219.66666666666666" y1="497" y2="497" class="net_18,19,20,21,22 width_5" style="stroke-width: 2"/><line x1="40" x2="151" y1="387" y2="387" class="net_18,19,20,21,22 width_5" style="stroke-width: 2"/><line x1="105" x2="123" y1="558" y2="558" class="net_7,8,9,10,11 width_5" style="stroke-width: 2"/><line x1="123" x2="123" y1="558" y2="621" class="net_7,8,9,10,11 width_5" style="stroke-width: 2"/><line x1="123" x2="410" y1="621" y2="621" class="net_7,8,9,10,11 width_5" style="stroke-width: 2"/><line x1="410" x2="410" y1="621" y2="618" class="net_7,8,9,10,11 width_5" style="stroke-width: 2"/><circle cx="123" cy="558" r="3" style="fill:#000" class="net_7,8,9,10,11 width_5"/><line x1="410" x2="442" y1="618" y2="618" class="net_7,8,9,10,11 width_5" style="stroke-width: 2"/><line x1="105" x2="188" y1="558" y2="558" class="net_7,8,9,10,11 width_5" style="stroke-width: 2"/><line x1="188" x2="188" y1="558" y2="512" class="net_7,8,9,10,11 width_5" style="stroke-width: 2"/><line x1="188" x2="219.66666666666666" y1="512" y2="512" class="net_7,8,9,10,11 width_5" style="stroke-width: 2"/><line x1="465" x2="485" y1="389.5" y2="389.5" class="net_32 width_1" style="stroke-width: 1"/><line x1="485" x2="485" y1="389.5" y2="171" class="net_32 width_1" style="stroke-width: 1"/><circle cx="485" cy="389.5" r="2" style="fill:#000" class="net_32 width_1"/><line x1="485" x2="505" y1="171" y2="171" class="net_32 width_1" style="stroke-width: 1"/><line x1="465" x2="505" y1="389.5" y2="389.5" class="net_32 width_1" style="stroke-width: 1"/><line x1="464" x2="505" y1="186" y2="186" class="net_28 width_1" style="stroke-width: 1"/><line x1="245" x2="259" y1="344.5" y2="344.5" class="net_34 width_1" style="stroke-width: 1"/><line x1="259" x2="259" y1="344.5" y2="54.5" class="net_34 width_1" style="stroke-width: 1"/><circle cx="259" cy="344.5" r="2" style="fill:#000" class="net_34 width_1"/><line x1="259" x2="299" y1="54.5" y2="54.5" class="net_34 width_1" style="stroke-width: 1"/><line x1="245" x2="299" y1="344.5" y2="344.5" class="net_34 width_1" style="stroke-width: 1"/><line x1="241.66666666666666" x2="299" y1="69.5" y2="69.5" class="net_29 width_1" style="stroke-width: 1"/><line x1="392" x2="435" y1="382" y2="382" class="net_17 width_1" style="stroke-width: 1"/><line x1="397" x2="410" y1="579.5" y2="579.5" class="net_36 width_1" style="stroke-width: 1"/><line x1="410" x2="410" y1="579.5" y2="397" class="net_36 width_1" style="stroke-width: 1"/><line x1="410" x2="435" y1="397" y2="397" class="net_36 width_1" style="stroke-width: 1"/><line x1="464" x2="475" y1="610.5" y2="610.5" class="net_30 width_1" style="stroke-width: 1"/><line x1="475" x2="475" y1="610.5" y2="404.5" class="net_30 width_1" style="stroke-width: 1"/><line x1="475" x2="505" y1="404.5" y2="404.5" class="net_30 width_1" style="stroke-width: 1"/><line x1="176" x2="215" y1="337" y2="337" class="net_23 width_1" style="stroke-width: 1"/><line x1="178" x2="188" y1="394.5" y2="394.5" class="net_38 width_1" style="stroke-width: 1"/><line x1="188" x2="188" y1="394.5" y2="352" class="net_38 width_1" style="stroke-width: 1"/><line x1="188" x2="215" y1="352" y2="352" class="net_38 width_1" style="stroke-width: 1"/><line x1="241.66666666666666" x2="289" y1="504.5" y2="504.5" class="net_31 width_1" style="stroke-width: 1"/><line x1="289" x2="289" y1="504.5" y2="359.5" class="net_31 width_1" style="stroke-width: 1"/><line x1="289" x2="299" y1="359.5" y2="359.5" class="net_31 width_1" style="stroke-width: 1"/><line x1="452" x2="578" y1="42" y2="42" class="net_40,42 width_2" style="stroke-width: 2"/><line x1="465" x2="475" y1="253.5" y2="253.5" class="net_43,44 width_2" style="stroke-width: 2"/><line x1="475" x2="475" y1="253.5" y2="62" class="net_43,44 width_2" style="stroke-width: 2"/><circle cx="475" cy="253.5" r="3" style="fill:#000" class="net_43,44 width_2"/><line x1="475" x2="577" y1="62" y2="62" class="net_43,44 width_2" style="stroke-width: 2"/><line x1="465" x2="545" y1="253.5" y2="253.5" class="net_43,44 width_2" style="stroke-width: 2"/><line x1="545" x2="545" y1="253.5" y2="250" class="net_43,44 width_2" style="stroke-width: 2"/><line x1="545" x2="577" y1="250" y2="250" class="net_43,44 width_2" style="stroke-width: 2"/><line x1="535" x2="545" y1="178.5" y2="178.5" class="net_33 width_1" style="stroke-width: 1"/><line x1="545" x2="545" y1="178.5" y2="82" class="net_33 width_1" style="stroke-width: 1"/><line x1="545" x2="577" y1="82" y2="82" class="net_33 width_1" style="stroke-width: 1"/><line x1="329" x2="339" y1="239.5" y2="239.5" class="net_42 width_1" style="stroke-width: 1"/><line x1="339" x2="339" y1="239.5" y2="22" class="net_42 width_1" style="stroke-width: 1"/><circle cx="339" cy="239.5" r="2" style="fill:#000" class="net_42 width_1"/><line x1="339" x2="369.3333333333333" y1="22" y2="22" class="net_42 width_1" style="stroke-width: 1"/><line x1="329" x2="339" y1="239.5" y2="239.5" class="net_42 width_1" style="stroke-width: 1"/><line x1="339" x2="339" y1="239.5" y2="301" class="net_42 width_1" style="stroke-width: 1"/><circle cx="339" cy="301" r="2" style="fill:#000" class="net_42 width_1"/><line x1="339" x2="369.3333333333333" y1="301" y2="301" class="net_42 width_1" style="stroke-width: 1"/><line x1="329" x2="339" y1="239.5" y2="239.5" class="net_42 width_1" style="stroke-width: 1"/><line x1="339" x2="339" y1="239.5" y2="72" class="net_42 width_1" style="stroke-width: 1"/><line x1="339" x2="410" y1="72" y2="72" class="net_42 width_1" style="stroke-width: 1"/><line x1="410" x2="410" y1="72" y2="52" class="net_42 width_1" style="stroke-width: 1"/><circle cx="339" cy="72" r="2" style="fill:#000" class="net_42 width_1"/><line x1="410" x2="446" y1="52" y2="52" class="net_42 width_1" style="stroke-width: 1"/><line x1="329" x2="339" y1="239.5" y2="239.5" class="net_42 width_1" style="stroke-width: 1"/><line x1="339" x2="339" y1="239.5" y2="341" class="net_42 width_1" style="stroke-width: 1"/><line x1="339" x2="410" y1="341" y2="341" class="net_42 width_1" style="stroke-width: 1"/><line x1="410" x2="410" y1="341" y2="331" class="net_42 width_1" style="stroke-width: 1"/><line x1="410" x2="446" y1="331" y2="331" class="net_42 width_1" style="stroke-width: 1"/><line x1="329" x2="349" y1="129.5" y2="129.5" class="net_46 width_1" style="stroke-width: 1"/><line x1="349" x2="349" y1="129.5" y2="42" class="net_46 width_1" style="stroke-width: 1"/><circle cx="349" cy="129.5" r="2" style="fill:#000" class="net_46 width_1"/><line x1="349" x2="369.3333333333333" y1="42" y2="42" class="net_46 width_1" style="stroke-width: 1"/><line x1="329" x2="349" y1="129.5" y2="129.5" class="net_46 width_1" style="stroke-width: 1"/><line x1="349" x2="349" y1="129.5" y2="321" class="net_46 width_1" style="stroke-width: 1"/><line x1="349" x2="369.3333333333333" y1="321" y2="321" class="net_46 width_1" style="stroke-width: 1"/><line x1="329" x2="379.3333333333333" y1="62" y2="62" class="net_35 width_1" style="stroke-width: 1"/><line x1="379.3333333333333" x2="379.3333333333333" y1="62" y2="47" class="net_35 width_1" style="stroke-width: 1"/><line x1="452" x2="495" y1="321" y2="321" class="net_41,42 width_2" style="stroke-width: 2"/><line x1="495" x2="495" y1="321" y2="230" class="net_41,42 width_2" style="stroke-width: 2"/><line x1="495" x2="578" y1="230" y2="230" class="net_41,42 width_2" style="stroke-width: 2"/><line x1="535" x2="545" y1="397" y2="397" class="net_37 width_1" style="stroke-width: 1"/><line x1="545" x2="545" y1="397" y2="270" class="net_37 width_1" style="stroke-width: 1"/><line x1="545" x2="577" y1="270" y2="270" class="net_37 width_1" style="stroke-width: 1"/><line x1="329" x2="379.3333333333333" y1="352" y2="352" class="net_39 width_1" style="stroke-width: 1"/><line x1="379.3333333333333" x2="379.3333333333333" y1="352" y2="326" class="net_39 width_1" style="stroke-width: 1"/><line x1="609" x2="844" y1="42" y2="42" class="net_24,25 width_2" style="stroke-width: 2"/><line x1="609" x2="844" y1="230" y2="230" class="net_26,27 width_2" style="stroke-width: 2"/><line x1="389.3333333333333" x2="446" y1="32" y2="32" class="net_40 width_1" style="stroke-width: 1"/><line x1="389.3333333333333" x2="446" y1="311" y2="311" class="net_41 width_1" style="stroke-width: 1"/><rect x="313" y="567" width="16" height="9" class="net_12,13,14,15,16 width_5 busLabel_5" style="fill: white; stroke: none"/><text x="312" y="575" class="net_12,13,14,15,16 width_5 busLabel_5">/5/</text><rect x="313" y="567" width="16" height="9" class="net_12,13,14,15,16 width_5 busLabel_5" style="fill: white; stroke: none"/><text x="312" y="575" class="net_12,13,14,15,16 width_5 busLabel_5">/5/</text><rect x="313" y="567" width="16" height="9" class="net_12,13,14,15,16 width_5 busLabel_5" style="fill: white; stroke: none"/><text x="312" y="575" class="net_12,13,14,15,16 width_5 busLabel_5">/5/</text><rect x="162" y="72" width="16" height="9" class="net_2,3,4,5,6 width_5 busLabel_5" style="fill: white; stroke: none"/><text x="161" y="80" class="net_2,3,4,5,6 width_5 busLabel_5">/5/</text><rect x="162" y="72" width="16" height="9" class="net_2,3,4,5,6 width_5 busLabel_5" style="fill: white; stroke: none"/><text x="161" y="80" class="net_2,3,4,5,6 width_5 busLabel_5">/5/</text><rect x="94" y="382" width="16" height="9" class="net_18,19,20,21,22 width_5 busLabel_5" style="fill: white; stroke: none"/><text x="93" y="390" class="net_18,19,20,21,22 width_5 busLabel_5">/5/</text><rect x="94" y="382" width="16" height="9" class="net_18,19,20,21,22 width_5 busLabel_5" style="fill: white; stroke: none"/><text x="93" y="390" class="net_18,19,20,21,22 width_5 busLabel_5">/5/</text><rect x="94" y="382" width="16" height="9" class="net_18,19,20,21,22 width_5 busLabel_5" style="fill: white; stroke: none"/><text x="93" y="390" class="net_18,19,20,21,22 width_5 busLabel_5">/5/</text><rect x="162" y="553" width="16" height="9" class="net_7,8,9,10,11 width_5 busLabel_5" style="fill: white; stroke: none"/><text x="161" y="561" class="net_7,8,9,10,11 width_5 busLabel_5">/5/</text><rect x="162" y="553" width="16" height="9" class="net_7,8,9,10,11 width_5 busLabel_5" style="fill: white; stroke: none"/><text x="161" y="561" class="net_7,8,9,10,11 width_5 busLabel_5">/5/</text><rect x="519" y="37" width="16" height="9" class="net_40,42 width_2 busLabel_2" style="fill: white; stroke: none"/><text x="518" y="45" class="net_40,42 width_2 busLabel_2">/2/</text><rect x="519" y="248.5" width="16" height="9" class="net_43,44 width_2 busLabel_2" style="fill: white; stroke: none"/><text x="518" y="256.5" class="net_43,44 width_2 busLabel_2">/2/</text><rect x="519" y="248.5" width="16" height="9" class="net_43,44 width_2 busLabel_2" style="fill: white; stroke: none"/><text x="518" y="256.5" class="net_43,44 width_2 busLabel_2">/2/</text><rect x="519" y="225" width="16" height="9" class="net_41,42 width_2 busLabel_2" style="fill: white; stroke: none"/><text x="518" y="233" class="net_41,42 width_2 busLabel_2">/2/</text><rect x="806" y="37" width="16" height="9" class="net_24,25 width_2 busLabel_2" style="fill: white; stroke: none"/><text x="805" y="45" class="net_24,25 width_2 busLabel_2">/2/</text><rect x="806" y="225" width="16" height="9" class="net_26,27 width_2 busLabel_2" style="fill: white; stroke: none"/><text x="805" y="233" class="net_26,27 width_2 busLabel_2">/2/</text></svg>