<svg xmlns="http://www.w3.org/2000/svg" xmlns:xlink="http://www.w3.org/1999/xlink" xmlns:s="https://github.com/nturley/netlistsvg" width="722" height="610"><style>svg {
  stroke:#000;
  fill:none;
}
text {
  fill:#000;
  stroke:none;
  font-size:10px;
  font-weight: bold;
  font-family: "Courier New", monospace;
}
.nodelabel {
  text-anchor: middle;
}
.inputPortLabel {
  text-anchor: end;
}
.splitjoinBody {
  fill:#000;
}</style><g s:type="eq" transform="translate(216.66666666666666,229)" s:width="25" s:height="25" id="cell_:13"><s:alias val="$eq"/><circle r="12.5" cx="12.5" cy="12.5" class="cell_:13"/><line x1="7.5" x2="17.5" y1="10" y2="10" class="cell_:13"/><line x1="7.5" x2="17.5" y1="15" y2="15" class="cell_:13"/><g s:x="3" s:y="5" s:pid="A"/><g s:x="3" s:y="20" s:pid="B"/><g s:x="25" s:y="12.5" s:pid="Y"/></g><g s:type="and" transform="translate(284,281.5)" s:width="30" s:height="25" id="cell_:14"><s:alias val="$and"/><s:alias val="$reduce_and"/><s:alias val="$logic_and"/><s:alias val="$_AND_"/><path d="M0,0 L0,25 L15,25 A15 12.5 0 0 0 15,0 Z" class="cell_:14"/><text x="13" y="15" class="nodelabel" style="font-size:7px">AND</text><g s:x="0" s:y="5" s:pid="A"/><g s:x="0" s:y="20" s:pid="B"/><g s:x="30" s:y="12.5" s:pid="Y"/></g><g s:type="mux" transform="translate(359.3333333333333,146.5)" s:width="20" s:height="40" id="cell_:15"><s:alias val="$pmux"/><s:alias val="$mux"/><s:alias val="$_MUX_"/><path d="M0,0 L20,10 L20,30 L0,40 Z" class="cell_:15"/><g s:x="0" s:y="10" s:pid="A"/><g s:x="0" s:y="30" s:pid="B"/><g s:x="10" s:y="35" s:pid="S"/><g s:x="20" s:y="20" s:pid="Y"/></g><g s:type="or" transform="translate(357,435.5)" s:width="30" s:height="25" id="cell_:19"><s:alias val="$or"/><s:alias val="$reduce_or"/><s:alias val="$reduce_bool"/><s:alias val="$logic_or"/><s:alias val="$_OR_"/><path d="M0,25 L0,25 L15,25 A15 12.5 0 0 0 15,0 L0,0" class="cell_:19"/><path d="M0,0 A30 25 0 0 1 0,25" class="cell_:19"/><text x="17" y="15" class="nodelabel" style="font-size:7px">OR</text><g s:x="3" s:y="5" s:pid="A"/><g s:x="3" s:y="20" s:pid="B"/><g s:x="30" s:y="12.5" s:pid="Y"/></g><g s:type="and" transform="translate(430,495.5)" s:width="30" s:height="25" id="cell_:20"><s:alias val="$and"/><s:alias val="$reduce_and"/><s:alias val="$logic_and"/><s:alias val="$_AND_"/><path d="M0,0 L0,25 L15,25 A15 12.5 0 0 0 15,0 Z" class="cell_:20"/><text x="13" y="15" class="nodelabel" style="font-size:7px">AND</text><g s:x="0" s:y="5" s:pid="A"/><g s:x="0" s:y="20" s:pid="B"/><g s:x="30" s:y="12.5" s:pid="Y"/></g><g s:type="eq" transform="translate(434,565.5)" s:width="25" s:height="25" id="cell_:21"><s:alias val="$eq"/><circle r="12.5" cx="12.5" cy="12.5" class="cell_:21"/><line x1="7.5" x2="17.5" y1="10" y2="10" class="cell_:21"/><line x1="7.5" x2="17.5" y1="15" y2="15" class="cell_:21"/><g s:x="3" s:y="5" s:pid="A"/><g s:x="3" s:y="20" s:pid="B"/><g s:x="25" s:y="12.5" s:pid="Y"/></g><g s:type="and" transform="translate(495,573)" s:width="30" s:height="25" id="cell_:22"><s:alias val="$and"/><s:alias val="$reduce_and"/><s:alias val="$logic_and"/><s:alias val="$_AND_"/><path d="M0,0 L0,25 L15,25 A15 12.5 0 0 0 15,0 Z" class="cell_:22"/><text x="13" y="15" class="nodelabel" style="font-size:7px">AND</text><g s:x="0" s:y="5" s:pid="A"/><g s:x="0" s:y="20" s:pid="B"/><g s:x="30" s:y="12.5" s:pid="Y"/></g><g s:type="generic" transform="translate(568,226)" s:width="30" s:height="40" id="cell_:23"><text x="15" y="-4" class="nodelabel cell_:23" s:attribute="ref">$mux-bus</text><rect width="30" height="60" s:generic="body" class="cell_:23"/><g transform="translate(0,10)" s:x="0" s:y="10" s:pid="in0" id="port_:23~A"><text x="-3" y="-4" class="inputPortLabel cell_:23">A</text></g><g transform="translate(0,30)" s:x="0" s:y="10" s:pid="in0" id="port_:23~B"><text x="-3" y="-4" class="inputPortLabel cell_:23">B</text></g><g transform="translate(0,50)" s:x="0" s:y="10" s:pid="in0" id="port_:23~S"><text x="-3" y="-4" class="inputPortLabel cell_:23">S</text></g><g transform="translate(30,10)" s:x="30" s:y="10" s:pid="out0" id="port_:23~Y"><text x="5" y="-4" style="fill:#000; stroke:none" class="cell_:23">Y</text></g></g><g s:type="or" transform="translate(148,198)" s:width="30" s:height="25" id="cell_:26"><s:alias val="$or"/><s:alias val="$reduce_or"/><s:alias val="$reduce_bool"/><s:alias val="$logic_or"/><s:alias val="$_OR_"/><path d="M0,25 L0,25 L15,25 A15 12.5 0 0 0 15,0 L0,0" class="cell_:26"/><path d="M0,0 A30 25 0 0 1 0,25" class="cell_:26"/><text x="17" y="15" class="nodelabel" style="font-size:7px">OR</text><g s:x="3" s:y="5" s:pid="A"/><g s:x="3" s:y="20" s:pid="B"/><g s:x="30" s:y="12.5" s:pid="Y"/></g><g s:type="and" transform="translate(215,289)" s:width="30" s:height="25" id="cell_:27"><s:alias val="$and"/><s:alias val="$reduce_and"/><s:alias val="$logic_and"/><s:alias val="$_AND_"/><path d="M0,0 L0,25 L15,25 A15 12.5 0 0 0 15,0 Z" class="cell_:27"/><text x="13" y="15" class="nodelabel" style="font-size:7px">AND</text><g s:x="0" s:y="5" s:pid="A"/><g s:x="0" s:y="20" s:pid="B"/><g s:x="30" s:y="12.5" s:pid="Y"/></g><g s:type="eq" transform="translate(216.66666666666666,349)" s:width="25" s:height="25" id="cell_:28"><s:alias val="$eq"/><circle r="12.5" cx="12.5" cy="12.5" class="cell_:28"/><line x1="7.5" x2="17.5" y1="10" y2="10" class="cell_:28"/><line x1="7.5" x2="17.5" y1="15" y2="15" class="cell_:28"/><g s:x="3" s:y="5" s:pid="A"/><g s:x="3" s:y="20" s:pid="B"/><g s:x="25" s:y="12.5" s:pid="Y"/></g><g s:type="and" transform="translate(284,356.5)" s:width="30" s:height="25" id="cell_:29"><s:alias val="$and"/><s:alias val="$reduce_and"/><s:alias val="$logic_and"/><s:alias val="$_AND_"/><path d="M0,0 L0,25 L15,25 A15 12.5 0 0 0 15,0 Z" class="cell_:29"/><text x="13" y="15" class="nodelabel" style="font-size:7px">AND</text><g s:x="0" s:y="5" s:pid="A"/><g s:x="0" s:y="20" s:pid="B"/><g s:x="30" s:y="12.5" s:pid="Y"/></g><g s:type="mux" transform="translate(359.3333333333333,206.5)" s:width="20" s:height="40" id="cell_:30"><s:alias val="$pmux"/><s:alias val="$mux"/><s:alias val="$_MUX_"/><path d="M0,0 L20,10 L20,30 L0,40 Z" class="cell_:30"/><g s:x="0" s:y="10" s:pid="A"/><g s:x="0" s:y="30" s:pid="B"/><g s:x="10" s:y="35" s:pid="S"/><g s:x="20" s:y="20" s:pid="Y"/></g><g s:type="eq" transform="translate(434,89)" s:width="25" s:height="25" id="cell_:6"><s:alias val="$eq"/><circle r="12.5" cx="12.5" cy="12.5" class="cell_:6"/><line x1="7.5" x2="17.5" y1="10" y2="10" class="cell_:6"/><line x1="7.5" x2="17.5" y1="15" y2="15" class="cell_:6"/><g s:x="3" s:y="5" s:pid="A"/><g s:x="3" s:y="20" s:pid="B"/><g s:x="25" s:y="12.5" s:pid="Y"/></g><g s:type="and" transform="translate(495,96.5)" s:width="30" s:height="25" id="cell_:7"><s:alias val="$and"/><s:alias val="$reduce_and"/><s:alias val="$logic_and"/><s:alias val="$_AND_"/><path d="M0,0 L0,25 L15,25 A15 12.5 0 0 0 15,0 Z" class="cell_:7"/><text x="13" y="15" class="nodelabel" style="font-size:7px">AND</text><g s:x="0" s:y="5" s:pid="A"/><g s:x="0" s:y="20" s:pid="B"/><g s:x="30" s:y="12.5" s:pid="Y"/></g><g s:type="generic" transform="translate(568,25)" s:width="30" s:height="40" id="cell_:8"><text x="15" y="-4" class="nodelabel cell_:8" s:attribute="ref">$mux-bus</text><rect width="30" height="60" s:generic="body" class="cell_:8"/><g transform="translate(0,10)" s:x="0" s:y="10" s:pid="in0" id="port_:8~A"><text x="-3" y="-4" class="inputPortLabel cell_:8">A</text></g><g transform="translate(0,30)" s:x="0" s:y="10" s:pid="in0" id="port_:8~B"><text x="-3" y="-4" class="inputPortLabel cell_:8">B</text></g><g transform="translate(0,50)" s:x="0" s:y="10" s:pid="in0" id="port_:8~S"><text x="-3" y="-4" class="inputPortLabel cell_:8">S</text></g><g transform="translate(30,10)" s:x="30" s:y="10" s:pid="out0" id="port_:8~Y"><text x="5" y="-4" style="fill:#000; stroke:none" class="cell_:8">Y</text></g></g><g s:type="inputExt" transform="translate(77,144)" s:width="30" s:height="20" id="cell_ex_rs1"><text x="15" y="-4" class="nodelabel cell_ex_rs1" s:attribute="ref">ex_rs1</text><s:alias val="$_inputExt_"/><path d="M0,0 L0,20 L15,20 L30,10 L15,0 Z" class="cell_ex_rs1"/><g s:x="28" s:y="10" s:pid="Y"/></g><g s:type="inputExt" transform="translate(77,575.5)" s:width="30" s:height="20" id="cell_ex_rs2"><text x="15" y="-4" class="nodelabel cell_ex_rs2" s:attribute="ref">ex_rs2</text><s:alias val="$_inputExt_"/><path d="M0,0 L0,20 L15,20 L30,10 L15,0 Z" class="cell_ex_rs2"/><g s:x="28" s:y="10" s:pid="Y"/></g><g s:type="inputExt" transform="translate(213,526.5)" s:width="30" s:height="20" id="cell_mem_rd"><text x="15" y="-4" class="nodelabel cell_mem_rd" s:attribute="ref">mem_rd</text><s:alias val="$_inputExt_"/><path d="M0,0 L0,20 L15,20 L30,10 L15,0 Z" class="cell_mem_rd"/><g s:x="28" s:y="10" s:pid="Y"/></g><g s:type="inputExt" transform="translate(354,505.5)" s:width="30" s:height="20" id="cell_mem_we"><text x="15" y="-4" class="nodelabel cell_mem_we" s:attribute="ref">mem_we</text><s:alias val="$_inputExt_"/><path d="M0,0 L0,20 L15,20 L30,10 L15,0 Z" class="cell_mem_we"/><g s:x="28" s:y="10" s:pid="Y"/></g><g s:type="inputExt" transform="translate(12,344)" s:width="30" s:height="20" id="cell_wb_rd"><text x="15" y="-4" class="nodelabel cell_wb_rd" s:attribute="ref">wb_rd</text><s:alias val="$_inputExt_"/><path d="M0,0 L0,20 L15,20 L30,10 L15,0 Z" class="cell_wb_rd"/><g s:x="28" s:y="10" s:pid="Y"/></g><g s:type="inputExt" transform="translate(148,299)" s:width="30" s:height="20" id="cell_wb_we"><text x="15" y="-4" class="nodelabel cell_wb_we" s:attribute="ref">wb_we</text><s:alias val="$_inputExt_"/><path d="M0,0 L0,20 L15,20 L30,10 L15,0 Z" class="cell_wb_we"/><g s:x="28" s:y="10" s:pid="Y"/></g><g s:type="outputExt" transform="translate(680,25.5)" s:width="30" s:height="20" id="cell_fwd_a"><text x="15" y="-4" class="nodelabel cell_fwd_a" s:attribute="ref">fwd_a</text><s:alias val="$_outputExt_"/><path d="M30,0 L30,20 L15,20 L0,10 L15,0 Z" class="cell_fwd_a"/><g s:x="0" s:y="10" s:pid="A"/></g><g s:type="outputExt" transform="translate(680,226.5)" s:width="30" s:height="20" id="cell_fwd_b"><text x="15" y="-4" class="nodelabel cell_fwd_b" s:attribute="ref">fwd_b</text><s:alias val="$_outputExt_"/><path d="M30,0 L30,20 L15,20 L0,10 L15,0 Z" class="cell_fwd_b"/><g s:x="0" s:y="10" s:pid="A"/></g><g s:type="constant" transform="translate(284,146.5)" s:width="30" s:height="20" id="cell_0"><text x="15" y="-4" class="nodelabel cell_0" s:attribute="ref">0</text><s:alias val="$_constant_"/><rect width="30" height="20" class="cell_0"/><g s:x="30" s:y="10" s:pid="Y"/></g><g s:type="constant" transform="translate(284,226.5)" s:width="30" s:height="20" id="cell_1"><text x="15" y="-4" class="nodelabel cell_1" s:attribute="ref">1</text><s:alias val="$_constant_"/><rect width="30" height="20" class="cell_1"/><g s:x="30" s:y="10" s:pid="Y"/></g><g s:type="constant" transform="translate(430,159)" s:width="30" s:height="20" id="cell_10"><text x="15" y="-4" class="nodelabel cell_10" s:attribute="ref">10</text><s:alias val="$_constant_"/><rect width="30" height="20" class="cell_10"/><g s:x="30" s:y="10" s:pid="Y"/></g><g s:type="join" transform="translate(441,216)" s:width="4" s:height="40" id="cell_$join$,36,42,"><rect width="5" height="40" class="splitjoinBody" s:generic="body"/><s:alias val="$_join_"/><g s:x="5" s:y="20" s:pid="out"/><g transform="translate(0,10)" s:x="0" s:y="10" s:pid="in0"><text x="-3" y="-4" class="inputPortLabel">0</text></g><g transform="translate(0,30)" s:x="0" s:y="10" s:pid="in0"><text x="-3" y="-4" class="inputPortLabel">1</text></g></g><g s:type="join" transform="translate(441,14)" s:width="4" s:height="40" id="cell_$join$,31,42,"><rect width="5" height="40" class="splitjoinBody" s:generic="body"/><s:alias val="$_join_"/><g s:x="5" s:y="20" s:pid="out"/><g transform="translate(0,10)" s:x="0" s:y="10" s:pid="in0"><text x="-3" y="-4" class="inputPortLabel">0</text></g><g transform="translate(0,30)" s:x="0" s:y="10" s:pid="in0"><text x="-3" y="-4" class="inputPortLabel">1</text></g></g><line x1="40" x2="52" y1="354" y2="354" class="net_18,19,20,21,22 width_5" style="stroke-width: 2"/><line x1="52" x2="52" y1="354" y2="234" class="net_18,19,20,21,22 width_5" style="stroke-width: 2"/><circle cx="52" cy="354" r="3" style="fill:#000" class="net_18,19,20,21,22 width_5"/><circle cx="52" cy="234" r="3" style="fill:#000" class="net_18,19,20,21,22 width_5"/><line x1="52" x2="219.66666666666666" y1="234" y2="234" class="net_18,19,20,21,22 width_5" style="stroke-width: 2"/><line x1="40" x2="52" y1="354" y2="354" class="net_18,19,20,21,22 width_5" style="stroke-width: 2"/><line x1="52" x2="52" y1="354" y2="203" class="net_18,19,20,21,22 width_5" style="stroke-width: 2"/><line x1="52" x2="151" y1="203" y2="203" class="net_18,19,20,21,22 width_5" style="stroke-width: 2"/><line x1="40" x2="219.66666666666666" y1="354" y2="354" class="net_18,19,20,21,22 width_5" style="stroke-width: 2"/><line x1="105" x2="198" y1="154" y2="154" class="net_2,3,4,5,6 width_5" style="stroke-width: 2"/><line x1="198" x2="198" y1="154" y2="249" class="net_2,3,4,5,6 width_5" style="stroke-width: 2"/><line x1="198" x2="219.66666666666666" y1="249" y2="249" class="net_2,3,4,5,6 width_5" style="stroke-width: 2"/><line x1="105" x2="123" y1="154" y2="154" class="net_2,3,4,5,6 width_5" style="stroke-width: 2"/><line x1="123" x2="123" y1="154" y2="109" class="net_2,3,4,5,6 width_5" style="stroke-width: 2"/><circle cx="123" cy="154" r="3" style="fill:#000" class="net_2,3,4,5,6 width_5"/><line x1="123" x2="437" y1="109" y2="109" class="net_2,3,4,5,6 width_5" style="stroke-width: 2"/><line x1="241.66666666666666" x2="259" y1="241.5" y2="241.5" class="net_28 width_1" style="stroke-width: 1"/><line x1="259" x2="259" y1="241.5" y2="286.5" class="net_28 width_1" style="stroke-width: 1"/><line x1="259" x2="284" y1="286.5" y2="286.5" class="net_28 width_1" style="stroke-width: 1"/><line x1="245" x2="284" y1="301.5" y2="301.5" class="net_29 width_1" style="stroke-width: 1"/><line x1="245" x2="259" y1="301.5" y2="301.5" class="net_29 width_1" style="stroke-width: 1"/><line x1="259" x2="259" y1="301.5" y2="376.5" class="net_29 width_1" style="stroke-width: 1"/><circle cx="259" cy="301.5" r="2" style="fill:#000" class="net_29 width_1"/><line x1="259" x2="284" y1="376.5" y2="376.5" class="net_29 width_1" style="stroke-width: 1"/><line x1="314" x2="359.3333333333333" y1="156.5" y2="156.5" class="net_42 width_1" style="stroke-width: 1"/><line x1="314" x2="344" y1="156.5" y2="156.5" class="net_42 width_1" style="stroke-width: 1"/><line x1="344" x2="344" y1="156.5" y2="216.5" class="net_42 width_1" style="stroke-width: 1"/><circle cx="344" cy="156.5" r="2" style="fill:#000" class="net_42 width_1"/><line x1="344" x2="359.3333333333333" y1="216.5" y2="216.5" class="net_42 width_1" style="stroke-width: 1"/><line x1="314" x2="344" y1="156.5" y2="156.5" class="net_42 width_1" style="stroke-width: 1"/><line x1="344" x2="344" y1="156.5" y2="135.5" class="net_42 width_1" style="stroke-width: 1"/><line x1="344" x2="410" y1="135.5" y2="135.5" class="net_42 width_1" style="stroke-width: 1"/><line x1="410" x2="410" y1="135.5" y2="246.5" class="net_42 width_1" style="stroke-width: 1"/><line x1="410" x2="441" y1="246.5" y2="246.5" class="net_42 width_1" style="stroke-width: 1"/><line x1="314" x2="344" y1="156.5" y2="156.5" class="net_42 width_1" style="stroke-width: 1"/><line x1="344" x2="344" y1="156.5" y2="135.5" class="net_42 width_1" style="stroke-width: 1"/><line x1="344" x2="410" y1="135.5" y2="135.5" class="net_42 width_1" style="stroke-width: 1"/><line x1="410" x2="410" y1="135.5" y2="44.5" class="net_42 width_1" style="stroke-width: 1"/><circle cx="410" cy="135.5" r="2" style="fill:#000" class="net_42 width_1"/><line x1="410" x2="441" y1="44.5" y2="44.5" class="net_42 width_1" style="stroke-width: 1"/><line x1="314" x2="324" y1="236.5" y2="236.5" class="net_43 width_1" style="stroke-width: 1"/><line x1="324" x2="324" y1="236.5" y2="176.5" class="net_43 width_1" style="stroke-width: 1"/><circle cx="324" cy="236.5" r="2" style="fill:#000" class="net_43 width_1"/><line x1="324" x2="359.3333333333333" y1="176.5" y2="176.5" class="net_43 width_1" style="stroke-width: 1"/><line x1="314" x2="359.3333333333333" y1="236.5" y2="236.5" class="net_43 width_1" style="stroke-width: 1"/><line x1="314" x2="334" y1="294" y2="294" class="net_30 width_1" style="stroke-width: 1"/><line x1="334" x2="334" y1="294" y2="196.5" class="net_30 width_1" style="stroke-width: 1"/><line x1="334" x2="369.3333333333333" y1="196.5" y2="196.5" class="net_30 width_1" style="stroke-width: 1"/><line x1="369.3333333333333" x2="369.3333333333333" y1="196.5" y2="181.5" class="net_30 width_1" style="stroke-width: 1"/><line x1="241" x2="259" y1="536.5" y2="536.5" class="net_12,13,14,15,16 width_5" style="stroke-width: 2"/><line x1="259" x2="259" y1="536.5" y2="440.5" class="net_12,13,14,15,16 width_5" style="stroke-width: 2"/><circle cx="259" cy="536.5" r="3" style="fill:#000" class="net_12,13,14,15,16 width_5"/><circle cx="259" cy="440.5" r="3" style="fill:#000" class="net_12,13,14,15,16 width_5"/><line x1="259" x2="360" y1="440.5" y2="440.5" class="net_12,13,14,15,16 width_5" style="stroke-width: 2"/><line x1="241" x2="400" y1="536.5" y2="536.5" class="net_12,13,14,15,16 width_5" style="stroke-width: 2"/><line x1="400" x2="400" y1="536.5" y2="570.5" class="net_12,13,14,15,16 width_5" style="stroke-width: 2"/><line x1="400" x2="437" y1="570.5" y2="570.5" class="net_12,13,14,15,16 width_5" style="stroke-width: 2"/><line x1="241" x2="259" y1="536.5" y2="536.5" class="net_12,13,14,15,16 width_5" style="stroke-width: 2"/><line x1="259" x2="259" y1="536.5" y2="420.5" class="net_12,13,14,15,16 width_5" style="stroke-width: 2"/><line x1="259" x2="324" y1="420.5" y2="420.5" class="net_12,13,14,15,16 width_5" style="stroke-width: 2"/><line x1="324" x2="324" y1="420.5" y2="358" class="net_12,13,14,15,16 width_5" style="stroke-width: 2"/><line x1="324" x2="420" y1="358" y2="358" class="net_12,13,14,15,16 width_5" style="stroke-width: 2"/><line x1="420" x2="420" y1="358" y2="94" class="net_12,13,14,15,16 width_5" style="stroke-width: 2"/><line x1="420" x2="437" y1="94" y2="94" class="net_12,13,14,15,16 width_5" style="stroke-width: 2"/><line x1="387" x2="400" y1="448" y2="448" class="net_32 width_1" style="stroke-width: 1"/><line x1="400" x2="400" y1="448" y2="500.5" class="net_32 width_1" style="stroke-width: 1"/><line x1="400" x2="430" y1="500.5" y2="500.5" class="net_32 width_1" style="stroke-width: 1"/><line x1="382" x2="430" y1="515.5" y2="515.5" class="net_17 width_1" style="stroke-width: 1"/><line x1="105" x2="437" y1="585.5" y2="585.5" class="net_7,8,9,10,11 width_5" style="stroke-width: 2"/><line x1="105" x2="123" y1="585.5" y2="585.5" class="net_7,8,9,10,11 width_5" style="stroke-width: 2"/><line x1="123" x2="123" y1="585.5" y2="369" class="net_7,8,9,10,11 width_5" style="stroke-width: 2"/><circle cx="123" cy="585.5" r="3" style="fill:#000" class="net_7,8,9,10,11 width_5"/><line x1="123" x2="219.66666666666666" y1="369" y2="369" class="net_7,8,9,10,11 width_5" style="stroke-width: 2"/><line x1="459" x2="495" y1="578" y2="578" class="net_34 width_1" style="stroke-width: 1"/><line x1="460" x2="480" y1="508" y2="508" class="net_33 width_1" style="stroke-width: 1"/><line x1="480" x2="480" y1="508" y2="593" class="net_33 width_1" style="stroke-width: 1"/><circle cx="480" cy="508" r="2" style="fill:#000" class="net_33 width_1"/><line x1="480" x2="495" y1="593" y2="593" class="net_33 width_1" style="stroke-width: 1"/><line x1="460" x2="480" y1="508" y2="508" class="net_33 width_1" style="stroke-width: 1"/><line x1="480" x2="480" y1="508" y2="116.5" class="net_33 width_1" style="stroke-width: 1"/><line x1="480" x2="495" y1="116.5" y2="116.5" class="net_33 width_1" style="stroke-width: 1"/><line x1="447" x2="568" y1="236.5" y2="236.5" class="net_36,42 width_2" style="stroke-width: 2"/><line x1="460" x2="535" y1="169" y2="169" class="net_45,46 width_2" style="stroke-width: 2"/><line x1="535" x2="535" y1="169" y2="256.5" class="net_45,46 width_2" style="stroke-width: 2"/><line x1="535" x2="567" y1="256.5" y2="256.5" class="net_45,46 width_2" style="stroke-width: 2"/><line x1="460" x2="470" y1="169" y2="169" class="net_45,46 width_2" style="stroke-width: 2"/><line x1="470" x2="470" y1="169" y2="55.5" class="net_45,46 width_2" style="stroke-width: 2"/><circle cx="470" cy="169" r="3" style="fill:#000" class="net_45,46 width_2"/><line x1="470" x2="567" y1="55.5" y2="55.5" class="net_45,46 width_2" style="stroke-width: 2"/><line x1="525" x2="535" y1="585.5" y2="585.5" class="net_35 width_1" style="stroke-width: 1"/><line x1="535" x2="535" y1="585.5" y2="276.5" class="net_35 width_1" style="stroke-width: 1"/><line x1="535" x2="567" y1="276.5" y2="276.5" class="net_35 width_1" style="stroke-width: 1"/><line x1="178" x2="188" y1="210.5" y2="210.5" class="net_37 width_1" style="stroke-width: 1"/><line x1="188" x2="188" y1="210.5" y2="294" class="net_37 width_1" style="stroke-width: 1"/><line x1="188" x2="215" y1="294" y2="294" class="net_37 width_1" style="stroke-width: 1"/><line x1="176" x2="215" y1="309" y2="309" class="net_23 width_1" style="stroke-width: 1"/><line x1="241.66666666666666" x2="284" y1="361.5" y2="361.5" class="net_38 width_1" style="stroke-width: 1"/><line x1="314" x2="369.3333333333333" y1="369" y2="369" class="net_39 width_1" style="stroke-width: 1"/><line x1="369.3333333333333" x2="369.3333333333333" y1="369" y2="241.5" class="net_39 width_1" style="stroke-width: 1"/><line x1="459" x2="495" y1="101.5" y2="101.5" class="net_40 width_1" style="stroke-width: 1"/><line x1="447" x2="535" y1="34.5" y2="34.5" class="net_31,42 width_2" style="stroke-width: 2"/><line x1="535" x2="535" y1="34.5" y2="35.5" class="net_31,42 width_2" style="stroke-width: 2"/><line x1="535" x2="568" y1="35.5" y2="35.5" class="net_31,42 width_2" style="stroke-width: 2"/><line x1="525" x2="535" y1="109" y2="109" class="net_41 width_1" style="stroke-width: 1"/><line x1="535" x2="535" y1="109" y2="75.5" class="net_41 width_1" style="stroke-width: 1"/><line x1="535" x2="567" y1="75.5" y2="75.5" class="net_41 width_1" style="stroke-width: 1"/><line x1="599" x2="680" y1="35.5" y2="35.5" class="net_24,25 width_2" style="stroke-width: 2"/><line x1="599" x2="680" y1="236.5" y2="236.5" class="net_26,27 width_2" style="stroke-width: 2"/><line x1="379.3333333333333" x2="441" y1="226.5" y2="226.5" class="net_36 width_1" style="stroke-width: 1"/><line x1="379.3333333333333" x2="400" y1="166.5" y2="166.5" class="net_31 width_1" style="stroke-width: 1"/><line x1="400" x2="400" y1="166.5" y2="24.5" class="net_31 width_1" style="stroke-width: 1"/><line x1="400" x2="441" y1="24.5" y2="24.5" class="net_31 width_1" style="stroke-width: 1"/><rect x="94" y="349" width="16" height="9" class="net_18,19,20,21,22 width_5 busLabel_5" style="fill: white; stroke: none"/><text x="93" y="357" class="net_18,19,20,21,22 width_5 busLabel_5">/5/</text><rect x="94" y="349" width="16" height="9" class="net_18,19,20,21,22 width_5 busLabel_5" style="fill: white; stroke: none"/><text x="93" y="357" class="net_18,19,20,21,22 width_5 busLabel_5">/5/</text><rect x="94" y="349" width="16" height="9" class="net_18,19,20,21,22 width_5 busLabel_5" style="fill: white; stroke: none"/><text x="93" y="357" class="net_18,19,20,21,22 width_5 busLabel_5">/5/</text><rect x="230" y="104" width="16" height="9" class="net_2,3,4,5,6 width_5 busLabel_5" style="fill: white; stroke: none"/><text x="229" y="112" class="net_2,3,4,5,6 width_5 busLabel_5">/5/</text><rect x="230" y="104" width="16" height="9" class="net_2,3,4,5,6 width_5 busLabel_5" style="fill: white; stroke: none"/><text x="229" y="112" class="net_2,3,4,5,6 width_5 busLabel_5">/5/</text><rect x="298" y="415.5" width="16" height="9" class="net_12,13,14,15,16 width_5 busLabel_5" style="fill: white; stroke: none"/><text x="297" y="423.5" class="net_12,13,14,15,16 width_5 busLabel_5">/5/</text><rect x="298" y="415.5" width="16" height="9" class="net_12,13,14,15,16 width_5 busLabel_5" style="fill: white; stroke: none"/><text x="297" y="423.5" class="net_12,13,14,15,16 width_5 busLabel_5">/5/</text><rect x="298" y="415.5" width="16" height="9" class="net_12,13,14,15,16 width_5 busLabel_5" style="fill: white; stroke: none"/><text x="297" y="423.5" class="net_12,13,14,15,16 width_5 busLabel_5">/5/</text><rect x="162" y="364" width="16" height="9" class="net_7,8,9,10,11 width_5 busLabel_5" style="fill: white; stroke: none"/><text x="161" y="372" class="net_7,8,9,10,11 width_5 busLabel_5">/5/</text><rect x="162" y="364" width="16" height="9" class="net_7,8,9,10,11 width_5 busLabel_5" style="fill: white; stroke: none"/><text x="161" y="372" class="net_7,8,9,10,11 width_5 busLabel_5">/5/</text><rect x="509" y="231.5" width="16" height="9" class="net_36,42 width_2 busLabel_2" style="fill: white; stroke: none"/><text x="508" y="239.5" class="net_36,42 width_2 busLabel_2">/2/</text><rect x="509" y="50.5" width="16" height="9" class="net_45,46 width_2 busLabel_2" style="fill: white; stroke: none"/><text x="508" y="58.5" class="net_45,46 width_2 busLabel_2">/2/</text><rect x="509" y="50.5" width="16" height="9" class="net_45,46 width_2 busLabel_2" style="fill: white; stroke: none"/><text x="508" y="58.5" class="net_45,46 width_2 busLabel_2">/2/</text><rect x="509" y="29.5" width="16" height="9" class="net_31,42 width_2 busLabel_2" style="fill: white; stroke: none"/><text x="508" y="37.5" class="net_31,42 width_2 busLabel_2">/2/</text><rect x="642" y="30.5" width="16" height="9" class="net_24,25 width_2 busLabel_2" style="fill: white; stroke: none"/><text x="641" y="38.5" class="net_24,25 width_2 busLabel_2">/2/</text><rect x="642" y="231.5" width="16" height="9" class="net_26,27 width_2 busLabel_2" style="fill: white; stroke: none"/><text x="641" y="239.5" class="net_26,27 width_2 busLabel_2">/2/</text></svg>