<svg xmlns="http://www.w3.org/2000/svg" xmlns:xlink="http://www.w3.org/1999/xlink" xmlns:s="https://github.com/nturley/netlistsvg" width="361" height="2323.5">
  <style>svg {
    stroke:#000;
    fill:none;
  }
  text {
    fill:#000;
    stroke:none;
    font-size:10px;
    font-weight: bold;
    font-family: "Courier New", monospace;
  }
  .nodelabel {
    text-anchor: middle;
  }
  .inputPortLabel {
    text-anchor: end;
  }
  .splitjoinBody {
    fill:#000;
  }</style>
  <g s:type="mux" transform="translate(264,22)" s:width="20" s:height="40" id="cell_$procmux$3">
    <s:alias val="$pmux"/>
    <s:alias val="$mux"/>
    <s:alias val="$_MUX_"/>
    <path d="M0,0 L20,10 L20,30 L0,40 Z" class="cell_$procmux$3"/>
    <g s:x="0" s:y="10" s:pid="A"/>
    <g s:x="0" s:y="30" s:pid="B"/>
    <g s:x="10" s:y="35" s:pid="S"/>
    <g s:x="20" s:y="20" s:pid="Y"/>
  </g>
  <g s:type="eq" transform="translate(84,1971.5)" s:width="25" s:height="25" id="cell_$procmux$4_CMP0">
    <s:alias val="$eq"/>
    <circle r="12.5" cx="12.5" cy="12.5" class="cell_$procmux$4_CMP0"/>
    <line x1="7.5" x2="17.5" y1="10" y2="10" class="cell_$procmux$4_CMP0"/>
    <line x1="7.5" x2="17.5" y1="15" y2="15" class="cell_$procmux$4_CMP0"/>
    <g s:x="3" s:y="5" s:pid="A"/>
    <g s:x="3" s:y="20" s:pid="B"/>
    <g s:x="25" s:y="12.5" s:pid="Y"/>
  </g>
  <g s:type="eq" transform="translate(84,2036.5)" s:width="25" s:height="25" id="cell_$procmux$5_CMP0">
    <s:alias val="$eq"/>
    <circle r="12.5" cx="12.5" cy="12.5" class="cell_$procmux$5_CMP0"/>
    <line x1="7.5" x2="17.5" y1="10" y2="10" class="cell_$procmux$5_CMP0"/>
    <line x1="7.5" x2="17.5" y1="15" y2="15" class="cell_$procmux$5_CMP0"/>
    <g s:x="3" s:y="5" s:pid="A"/>
    <g s:x="3" s:y="20" s:pid="B"/>
    <g s:x="25" s:y="12.5" s:pid="Y"/>
  </g>
  <g s:type="eq" transform="translate(84,2116.5)" s:width="25" s:height="25" id="cell_$procmux$6_CMP0">
    <s:alias val="$eq"/>
    <circle r="12.5" cx="12.5" cy="12.5" class="cell_$procmux$6_CMP0"/>
    <line x1="7.5" x2="17.5" y1="10" y2="10" class="cell_$procmux$6_CMP0"/>
    <line x1="7.5" x2="17.5" y1="15" y2="15" class="cell_$procmux$6_CMP0"/>
    <g s:x="3" s:y="5" s:pid="A"/>
    <g s:x="3" s:y="20" s:pid="B"/>
    <g s:x="25" s:y="12.5" s:pid="Y"/>
  </g>
  <g s:type="eq" transform="translate(84,2231.5)" s:width="25" s:height="25" id="cell_$procmux$7_CMP0">
    <s:alias val="$eq"/>
    <circle r="12.5" cx="12.5" cy="12.5" class="cell_$procmux$7_CMP0"/>
    <line x1="7.5" x2="17.5" y1="10" y2="10" class="cell_$procmux$7_CMP0"/>
    <line x1="7.5" x2="17.5" y1="15" y2="15" class="cell_$procmux$7_CMP0"/>
    <g s:x="3" s:y="5" s:pid="A"/>
    <g s:x="3" s:y="20" s:pid="B"/>
    <g s:x="25" s:y="12.5" s:pid="Y"/>
  </g>
  <g s:type="not" transform="translate(78,2291.5)" s:width="30" s:height="20" id="cell_$procmux$8_CMP0">
    <s:alias val="$_NOT_"/>
    <s:alias val="$not"/>
    <s:alias val="$logic_not"/>
    <path d="M0,0 L0,20 L20,10 Z" class="cell_$procmux$8_CMP0"/>
    <circle cx="23" cy="10" r="3" class="cell_$procmux$8_CMP0"/>
    <g s:x="0" s:y="10" s:pid="A"/>
    <g s:x="25" s:y="10" s:pid="Y"/>
  </g>
  <g s:type="inputExt" transform="translate(12,514.5)" s:width="30" s:height="20" id="cell_instr">
    <text x="15" y="-4" class="nodelabel cell_instr" s:attribute="ref">instr</text>
    <s:alias val="$_inputExt_"/>
    <path d="M0,0 L0,20 L15,20 L30,10 L15,0 Z" class="cell_instr"/>
    <g s:x="28" s:y="10" s:pid="Y"/>
  </g>
  <g s:type="inputExt" transform="translate(12,2111.5)" s:width="30" s:height="20" id="cell_fmt">
    <text x="15" y="-4" class="nodelabel cell_fmt" s:attribute="ref">fmt</text>
    <s:alias val="$_inputExt_"/>
    <path d="M0,0 L0,20 L15,20 L30,10 L15,0 Z" class="cell_fmt"/>
    <g s:x="28" s:y="10" s:pid="Y"/>
  </g>
  <g s:type="outputExt" transform="translate(319,32)" s:width="30" s:height="20" id="cell_imm">
    <text x="15" y="-4" class="nodelabel cell_imm" s:attribute="ref">imm</text>
    <s:alias val="$_outputExt_"/>
    <path d="M30,0 L30,20 L15,20 L0,10 L15,0 Z" class="cell_imm"/>
    <g s:x="0" s:y="10" s:pid="A"/>
  </g>
  <g s:type="constant" transform="translate(199,22)" s:width="30" s:height="20" id="cell_00000000000000000000000000000000">
    <text x="15" y="-4" class="nodelabel cell_00000000000000000000000000000000" s:attribute="ref">0x0</text>
    <s:alias val="$_constant_"/>
    <rect width="30" height="20" class="cell_00000000000000000000000000000000"/>
    <g s:x="30" s:y="10" s:pid="Y"/>
  </g>
  <g s:type="constant" transform="translate(79,142)" s:width="30" s:height="20" id="cell_0">
    <text x="15" y="-4" class="nodelabel cell_0" s:attribute="ref">0</text>
    <s:alias val="$_constant_"/>
    <rect width="30" height="20" class="cell_0"/>
    <g s:x="30" s:y="10" s:pid="Y"/>
  </g>
  <g s:type="constant" transform="translate(79,484.5)" s:width="30" s:height="20" id="cell_000000000000">
    <text x="15" y="-4" class="nodelabel cell_000000000000" s:attribute="ref">0x0</text>
    <s:alias val="$_constant_"/>
    <rect width="30" height="20" class="cell_000000000000"/>
    <g s:x="30" s:y="10" s:pid="Y"/>
  </g>
  <g s:type="constant" transform="translate(12,1981.5)" s:width="30" s:height="20" id="cell_100">
    <text x="15" y="-4" class="nodelabel cell_100" s:attribute="ref">100</text>
    <s:alias val="$_constant_"/>
    <rect width="30" height="20" class="cell_100"/>
    <g s:x="30" s:y="10" s:pid="Y"/>
  </g>
  <g s:type="constant" transform="translate(12,2046.5)" s:width="30" s:height="20" id="cell_11">
    <text x="15" y="-4" class="nodelabel cell_11" s:attribute="ref">11</text>
    <s:alias val="$_constant_"/>
    <rect width="30" height="20" class="cell_11"/>
    <g s:x="30" s:y="10" s:pid="Y"/>
  </g>
  <g s:type="constant" transform="translate(12,2176.5)" s:width="30" s:height="20" id="cell_10">
    <text x="15" y="-4" class="nodelabel cell_10" s:attribute="ref">10</text>
    <s:alias val="$_constant_"/>
    <rect width="30" height="20" class="cell_10"/>
    <g s:x="30" s:y="10" s:pid="Y"/>
  </g>
  <g s:type="constant" transform="translate(12,2241.5)" s:width="30" s:height="20" id="cell_1">
    <text x="15" y="-4" class="nodelabel cell_1" s:attribute="ref">1</text>
    <s:alias val="$_constant_"/>
    <rect width="30" height="20" class="cell_1"/>
    <g s:x="30" s:y="10" s:pid="Y"/>
  </g>
  <g s:type="join" transform="translate(199.40625,164)" s:width="4" s:height="40" id="cell_$join$,106,23,24,25,26,27,28,29,30,31,32,22,14,15,16,17,18,19,20,21,33,33,33,33,33,33,33,33,33,33,33,33,107,108,109,110,111,112,113,114,115,116,117,118,14,15,16,17,18,19,20,21,22,23,24,25,26,27,28,29,30,31,32,33,106,10,11,12,13,27,28,29,30,31,32,9,33,33,33,33,33,33,33,33,33,33,33,33,33,33,33,33,33,33,33,33,9,10,11,12,13,27,28,29,30,31,32,33,33,33,33,33,33,33,33,33,33,33,33,33,33,33,33,33,33,33,33,33,22,23,24,25,26,27,28,29,30,31,32,33,33,33,33,33,33,33,33,33,33,33,33,33,33,33,33,33,33,33,33,33,">
    <rect width="5" height="1700" class="splitjoinBody" s:generic="body"/>
    <s:alias val="$_join_"/>
    <g s:x="5" s:y="20" s:pid="out"/>
    <g transform="translate(0,10)" s:x="0" s:y="10" s:pid="in0">
      <text x="-3" y="-4" class="inputPortLabel">0</text>
    </g>
    <g transform="translate(0,30)" s:x="0" s:y="10" s:pid="in0">
      <text x="-3" y="-4" class="inputPortLabel">1:10</text>
    </g>
    <g transform="translate(0,50)" s:x="0" s:y="10" s:pid="in0">
      <text x="-3" y="-4" class="inputPortLabel">11</text>
    </g>
    <g transform="translate(0,70)" s:x="0" s:y="10" s:pid="in0">
      <text x="-3" y="-4" class="inputPortLabel">12:19</text>
    </g>
    <g transform="translate(0,90)" s:x="0" s:y="10" s:pid="in0">
      <text x="-3" y="-4" class="inputPortLabel">20</text>
    </g>
    <g transform="translate(0,110)" s:x="0" s:y="10" s:pid="in0">
      <text x="-3" y="-4" class="inputPortLabel">21</text>
    </g>
    <g transform="translate(0,130)" s:x="0" s:y="10" s:pid="in0">
      <text x="-3" y="-4" class="inputPortLabel">22</text>
    </g>
    <g transform="translate(0,150)" s:x="0" s:y="10" s:pid="in0">
      <text x="-3" y="-4" class="inputPortLabel">23</text>
    </g>
    <g transform="translate(0,170)" s:x="0" s:y="10" s:pid="in0">
      <text x="-3" y="-4" class="inputPortLabel">24</text>
    </g>
    <g transform="translate(0,190)" s:x="0" s:y="10" s:pid="in0">
      <text x="-3" y="-4" class="inputPortLabel">25</text>
    </g>
    <g transform="translate(0,210)" s:x="0" s:y="10" s:pid="in0">
      <text x="-3" y="-4" class="inputPortLabel">26</text>
    </g>
    <g transform="translate(0,230)" s:x="0" s:y="10" s:pid="in0">
      <text x="-3" y="-4" class="inputPortLabel">27</text>
    </g>
    <g transform="translate(0,250)" s:x="0" s:y="10" s:pid="in0">
      <text x="-3" y="-4" class="inputPortLabel">28</text>
    </g>
    <g transform="translate(0,270)" s:x="0" s:y="10" s:pid="in0">
      <text x="-3" y="-4" class="inputPortLabel">29</text>
    </g>
    <g transform="translate(0,290)" s:x="0" s:y="10" s:pid="in0">
      <text x="-3" y="-4" class="inputPortLabel">30</text>
    </g>
    <g transform="translate(0,310)" s:x="0" s:y="10" s:pid="in0">
      <text x="-3" y="-4" class="inputPortLabel">31</text>
    </g>
    <g transform="translate(0,330)" s:x="0" s:y="10" s:pid="in0">
      <text x="-3" y="-4" class="inputPortLabel">32:43</text>
    </g>
    <g transform="translate(0,350)" s:x="0" s:y="10" s:pid="in0">
      <text x="-3" y="-4" class="inputPortLabel">44:63</text>
    </g>
    <g transform="translate(0,370)" s:x="0" s:y="10" s:pid="in0">
      <text x="-3" y="-4" class="inputPortLabel">64</text>
    </g>
    <g transform="translate(0,390)" s:x="0" s:y="10" s:pid="in0">
      <text x="-3" y="-4" class="inputPortLabel">65:68</text>
    </g>
    <g transform="translate(0,410)" s:x="0" s:y="10" s:pid="in0">
      <text x="-3" y="-4" class="inputPortLabel">69:74</text>
    </g>
    <g transform="translate(0,430)" s:x="0" s:y="10" s:pid="in0">
      <text x="-3" y="-4" class="inputPortLabel">75</text>
    </g>
    <g transform="translate(0,450)" s:x="0" s:y="10" s:pid="in0">
      <text x="-3" y="-4" class="inputPortLabel">76</text>
    </g>
    <g transform="translate(0,470)" s:x="0" s:y="10" s:pid="in0">
      <text x="-3" y="-4" class="inputPortLabel">77</text>
    </g>
    <g transform="translate(0,490)" s:x="0" s:y="10" s:pid="in0">
      <text x="-3" y="-4" class="inputPortLabel">78</text>
    </g>
    <g transform="translate(0,510)" s:x="0" s:y="10" s:pid="in0">
      <text x="-3" y="-4" class="inputPortLabel">79</text>
    </g>
    <g transform="translate(0,530)" s:x="0" s:y="10" s:pid="in0">
      <text x="-3" y="-4" class="inputPortLabel">80</text>
    </g>
    <g transform="translate(0,550)" s:x="0" s:y="10" s:pid="in0">
      <text x="-3" y="-4" class="inputPortLabel">81</text>
    </g>
    <g transform="translate(0,570)" s:x="0" s:y="10" s:pid="in0">
      <text x="-3" y="-4" class="inputPortLabel">82</text>
    </g>
    <g transform="translate(0,590)" s:x="0" s:y="10" s:pid="in0">
      <text x="-3" y="-4" class="inputPortLabel">83</text>
    </g>
    <g transform="translate(0,610)" s:x="0" s:y="10" s:pid="in0">
      <text x="-3" y="-4" class="inputPortLabel">84</text>
    </g>
    <g transform="translate(0,630)" s:x="0" s:y="10" s:pid="in0">
      <text x="-3" y="-4" class="inputPortLabel">85</text>
    </g>
    <g transform="translate(0,650)" s:x="0" s:y="10" s:pid="in0">
      <text x="-3" y="-4" class="inputPortLabel">86</text>
    </g>
    <g transform="translate(0,670)" s:x="0" s:y="10" s:pid="in0">
      <text x="-3" y="-4" class="inputPortLabel">87</text>
    </g>
    <g transform="translate(0,690)" s:x="0" s:y="10" s:pid="in0">
      <text x="-3" y="-4" class="inputPortLabel">88</text>
    </g>
    <g transform="translate(0,710)" s:x="0" s:y="10" s:pid="in0">
      <text x="-3" y="-4" class="inputPortLabel">89</text>
    </g>
    <g transform="translate(0,730)" s:x="0" s:y="10" s:pid="in0">
      <text x="-3" y="-4" class="inputPortLabel">90</text>
    </g>
    <g transform="translate(0,750)" s:x="0" s:y="10" s:pid="in0">
      <text x="-3" y="-4" class="inputPortLabel">91</text>
    </g>
    <g transform="translate(0,770)" s:x="0" s:y="10" s:pid="in0">
      <text x="-3" y="-4" class="inputPortLabel">92</text>
    </g>
    <g transform="translate(0,790)" s:x="0" s:y="10" s:pid="in0">
      <text x="-3" y="-4" class="inputPortLabel">93</text>
    </g>
    <g transform="translate(0,810)" s:x="0" s:y="10" s:pid="in0">
      <text x="-3" y="-4" class="inputPortLabel">94</text>
    </g>
    <g transform="translate(0,830)" s:x="0" s:y="10" s:pid="in0">
      <text x="-3" y="-4" class="inputPortLabel">95</text>
    </g>
    <g transform="translate(0,850)" s:x="0" s:y="10" s:pid="in0">
      <text x="-3" y="-4" class="inputPortLabel">96:100</text>
    </g>
    <g transform="translate(0,870)" s:x="0" s:y="10" s:pid="in0">
      <text x="-3" y="-4" class="inputPortLabel">101:107</text>
    </g>
    <g transform="translate(0,890)" s:x="0" s:y="10" s:pid="in0">
      <text x="-3" y="-4" class="inputPortLabel">108</text>
    </g>
    <g transform="translate(0,910)" s:x="0" s:y="10" s:pid="in0">
      <text x="-3" y="-4" class="inputPortLabel">109</text>
    </g>
    <g transform="translate(0,930)" s:x="0" s:y="10" s:pid="in0">
      <text x="-3" y="-4" class="inputPortLabel">110</text>
    </g>
    <g transform="translate(0,950)" s:x="0" s:y="10" s:pid="in0">
      <text x="-3" y="-4" class="inputPortLabel">111</text>
    </g>
    <g transform="translate(0,970)" s:x="0" s:y="10" s:pid="in0">
      <text x="-3" y="-4" class="inputPortLabel">112</text>
    </g>
    <g transform="translate(0,990)" s:x="0" s:y="10" s:pid="in0">
      <text x="-3" y="-4" class="inputPortLabel">113</text>
    </g>
    <g transform="translate(0,1010)" s:x="0" s:y="10" s:pid="in0">
      <text x="-3" y="-4" class="inputPortLabel">114</text>
    </g>
    <g transform="translate(0,1030)" s:x="0" s:y="10" s:pid="in0">
      <text x="-3" y="-4" class="inputPortLabel">115</text>
    </g>
    <g transform="translate(0,1050)" s:x="0" s:y="10" s:pid="in0">
      <text x="-3" y="-4" class="inputPortLabel">116</text>
    </g>
    <g transform="translate(0,1070)" s:x="0" s:y="10" s:pid="in0">
      <text x="-3" y="-4" class="inputPortLabel">117</text>
    </g>
    <g transform="translate(0,1090)" s:x="0" s:y="10" s:pid="in0">
      <text x="-3" y="-4" class="inputPortLabel">118</text>
    </g>
    <g transform="translate(0,1110)" s:x="0" s:y="10" s:pid="in0">
      <text x="-3" y="-4" class="inputPortLabel">119</text>
    </g>
    <g transform="translate(0,1130)" s:x="0" s:y="10" s:pid="in0">
      <text x="-3" y="-4" class="inputPortLabel">120</text>
    </g>
    <g transform="translate(0,1150)" s:x="0" s:y="10" s:pid="in0">
      <text x="-3" y="-4" class="inputPortLabel">121</text>
    </g>
    <g transform="translate(0,1170)" s:x="0" s:y="10" s:pid="in0">
      <text x="-3" y="-4" class="inputPortLabel">122</text>
    </g>
    <g transform="translate(0,1190)" s:x="0" s:y="10" s:pid="in0">
      <text x="-3" y="-4" class="inputPortLabel">123</text>
    </g>
    <g transform="translate(0,1210)" s:x="0" s:y="10" s:pid="in0">
      <text x="-3" y="-4" class="inputPortLabel">124</text>
    </g>
    <g transform="translate(0,1230)" s:x="0" s:y="10" s:pid="in0">
      <text x="-3" y="-4" class="inputPortLabel">125</text>
    </g>
    <g transform="translate(0,1250)" s:x="0" s:y="10" s:pid="in0">
      <text x="-3" y="-4" class="inputPortLabel">126</text>
    </g>
    <g transform="translate(0,1270)" s:x="0" s:y="10" s:pid="in0">
      <text x="-3" y="-4" class="inputPortLabel">127</text>
    </g>
    <g transform="translate(0,1290)" s:x="0" s:y="10" s:pid="in0">
      <text x="-3" y="-4" class="inputPortLabel">128:139</text>
    </g>
    <g transform="translate(0,1310)" s:x="0" s:y="10" s:pid="in0">
      <text x="-3" y="-4" class="inputPortLabel">140</text>
    </g>
    <g transform="translate(0,1330)" s:x="0" s:y="10" s:pid="in0">
      <text x="-3" y="-4" class="inputPortLabel">141</text>
    </g>
    <g transform="translate(0,1350)" s:x="0" s:y="10" s:pid="in0">
      <text x="-3" y="-4" class="inputPortLabel">142</text>
    </g>
    <g transform="translate(0,1370)" s:x="0" s:y="10" s:pid="in0">
      <text x="-3" y="-4" class="inputPortLabel">143</text>
    </g>
    <g transform="translate(0,1390)" s:x="0" s:y="10" s:pid="in0">
      <text x="-3" y="-4" class="inputPortLabel">144</text>
    </g>
    <g transform="translate(0,1410)" s:x="0" s:y="10" s:pid="in0">
      <text x="-3" y="-4" class="inputPortLabel">145</text>
    </g>
    <g transform="translate(0,1430)" s:x="0" s:y="10" s:pid="in0">
      <text x="-3" y="-4" class="inputPortLabel">146</text>
    </g>
    <g transform="translate(0,1450)" s:x="0" s:y="10" s:pid="in0">
      <text x="-3" y="-4" class="inputPortLabel">147</text>
    </g>
    <g transform="translate(0,1470)" s:x="0" s:y="10" s:pid="in0">
      <text x="-3" y="-4" class="inputPortLabel">148</text>
    </g>
    <g transform="translate(0,1490)" s:x="0" s:y="10" s:pid="in0">
      <text x="-3" y="-4" class="inputPortLabel">149</text>
    </g>
    <g transform="translate(0,1510)" s:x="0" s:y="10" s:pid="in0">
      <text x="-3" y="-4" class="inputPortLabel">150</text>
    </g>
    <g transform="translate(0,1530)" s:x="0" s:y="10" s:pid="in0">
      <text x="-3" y="-4" class="inputPortLabel">151</text>
    </g>
    <g transform="translate(0,1550)" s:x="0" s:y="10" s:pid="in0">
      <text x="-3" y="-4" class="inputPortLabel">152</text>
    </g>
    <g transform="translate(0,1570)" s:x="0" s:y="10" s:pid="in0">
      <text x="-3" y="-4" class="inputPortLabel">153</text>
    </g>
    <g transform="translate(0,1590)" s:x="0" s:y="10" s:pid="in0">
      <text x="-3" y="-4" class="inputPortLabel">154</text>
    </g>
    <g transform="translate(0,1610)" s:x="0" s:y="10" s:pid="in0">
      <text x="-3" y="-4" class="inputPortLabel">155</text>
    </g>
    <g transform="translate(0,1630)" s:x="0" s:y="10" s:pid="in0">
      <text x="-3" y="-4" class="inputPortLabel">156</text>
    </g>
    <g transform="translate(0,1650)" s:x="0" s:y="10" s:pid="in0">
      <text x="-3" y="-4" class="inputPortLabel">157</text>
    </g>
    <g transform="translate(0,1670)" s:x="0" s:y="10" s:pid="in0">
      <text x="-3" y="-4" class="inputPortLabel">158</text>
    </g>
    <g transform="translate(0,1690)" s:x="0" s:y="10" s:pid="in0">
      <text x="-3" y="-4" class="inputPortLabel">159</text>
    </g>
  </g>
  <g s:type="join" transform="translate(205.5,2018.5)" s:width="4" s:height="40" id="cell_$join$,69,70,71,72,73,">
    <rect width="5" height="100" class="splitjoinBody" s:generic="body"/>
    <s:alias val="$_join_"/>
    <g s:x="5" s:y="20" s:pid="out"/>
    <g transform="translate(0,10)" s:x="0" s:y="10" s:pid="in0">
      <text x="-3" y="-4" class="inputPortLabel">0</text>
    </g>
    <g transform="translate(0,30)" s:x="0" s:y="10" s:pid="in0">
      <text x="-3" y="-4" class="inputPortLabel">1</text>
    </g>
    <g transform="translate(0,50)" s:x="0" s:y="10" s:pid="in0">
      <text x="-3" y="-4" class="inputPortLabel">2</text>
    </g>
    <g transform="translate(0,70)" s:x="0" s:y="10" s:pid="in0">
      <text x="-3" y="-4" class="inputPortLabel">3</text>
    </g>
    <g transform="translate(0,90)" s:x="0" s:y="10" s:pid="in0">
      <text x="-3" y="-4" class="inputPortLabel">4</text>
    </g>
  </g>
  <g s:type="split" transform="translate(104,536.5)" s:width="5" s:height="40" id="cell_$split$,2,3,4,5,6,7,8,9,10,11,12,13,14,15,16,17,18,19,20,21,22,23,24,25,26,27,28,29,30,31,32,33,">
    <rect width="5" height="220" class="splitjoinBody" s:generic="body"/>
    <s:alias val="$_split_"/>
    <g s:x="0" s:y="20" s:pid="in"/>
    <g transform="translate(4,10)" s:x="4" s:y="10" s:pid="out0">
      <text x="5" y="-4">21:30</text>
    </g>
    <g transform="translate(4,30)" s:x="4" s:y="10" s:pid="out0">
      <text x="5" y="-4">20</text>
    </g>
    <g transform="translate(4,50)" s:x="4" s:y="10" s:pid="out0">
      <text x="5" y="-4">12:19</text>
    </g>
    <g transform="translate(4,70)" s:x="4" s:y="10" s:pid="out0">
      <text x="5" y="-4">31</text>
    </g>
    <g transform="translate(4,90)" s:x="4" s:y="10" s:pid="out0">
      <text x="5" y="-4">12:31</text>
    </g>
    <g transform="translate(4,110)" s:x="4" s:y="10" s:pid="out0">
      <text x="5" y="-4">8:11</text>
    </g>
    <g transform="translate(4,130)" s:x="4" s:y="10" s:pid="out0">
      <text x="5" y="-4">25:30</text>
    </g>
    <g transform="translate(4,150)" s:x="4" s:y="10" s:pid="out0">
      <text x="5" y="-4">7</text>
    </g>
    <g transform="translate(4,170)" s:x="4" s:y="10" s:pid="out0">
      <text x="5" y="-4">7:11</text>
    </g>
    <g transform="translate(4,190)" s:x="4" s:y="10" s:pid="out0">
      <text x="5" y="-4">25:31</text>
    </g>
    <g transform="translate(4,210)" s:x="4" s:y="10" s:pid="out0">
      <text x="5" y="-4">20:31</text>
    </g>
  </g>
  <line x1="229" x2="264" y1="32" y2="32" class="net_74,75,76,77,78,79,80,81,82,83,84,85,86,87,88,89,90,91,92,93,94,95,96,97,98,99,100,101,102,103,104,105"/>
  <line x1="205.40625" x2="239" y1="184.5" y2="184.5" class="net_106,23,24,25,26,27,28,29,30,31,32,22,14,15,16,17,18,19,20,21,33,33,33,33,33,33,33,33,33,33,33,33,107,108,109,110,111,112,113,114,115,116,117,118,14,15,16,17,18,19,20,21,22,23,24,25,26,27,28,29,30,31,32,33,106,10,11,12,13,27,28,29,30,31,32,9,33,33,33,33,33,33,33,33,33,33,33,33,33,33,33,33,33,33,33,33,9,10,11,12,13,27,28,29,30,31,32,33,33,33,33,33,33,33,33,33,33,33,33,33,33,33,33,33,33,33,33,33,22,23,24,25,26,27,28,29,30,31,32,33,33,33,33,33,33,33,33,33,33,33,33,33,33,33,33,33,33,33,33,33"/>
  <line x1="239" x2="239" y1="184.5" y2="52" class="net_106,23,24,25,26,27,28,29,30,31,32,22,14,15,16,17,18,19,20,21,33,33,33,33,33,33,33,33,33,33,33,33,107,108,109,110,111,112,113,114,115,116,117,118,14,15,16,17,18,19,20,21,22,23,24,25,26,27,28,29,30,31,32,33,106,10,11,12,13,27,28,29,30,31,32,9,33,33,33,33,33,33,33,33,33,33,33,33,33,33,33,33,33,33,33,33,9,10,11,12,13,27,28,29,30,31,32,33,33,33,33,33,33,33,33,33,33,33,33,33,33,33,33,33,33,33,33,33,22,23,24,25,26,27,28,29,30,31,32,33,33,33,33,33,33,33,33,33,33,33,33,33,33,33,33,33,33,33,33,33"/>
  <line x1="239" x2="264" y1="52" y2="52" class="net_106,23,24,25,26,27,28,29,30,31,32,22,14,15,16,17,18,19,20,21,33,33,33,33,33,33,33,33,33,33,33,33,107,108,109,110,111,112,113,114,115,116,117,118,14,15,16,17,18,19,20,21,22,23,24,25,26,27,28,29,30,31,32,33,106,10,11,12,13,27,28,29,30,31,32,9,33,33,33,33,33,33,33,33,33,33,33,33,33,33,33,33,33,33,33,33,9,10,11,12,13,27,28,29,30,31,32,33,33,33,33,33,33,33,33,33,33,33,33,33,33,33,33,33,33,33,33,33,22,23,24,25,26,27,28,29,30,31,32,33,33,33,33,33,33,33,33,33,33,33,33,33,33,33,33,33,33,33,33,33"/>
  <line x1="211.5" x2="274" y1="2039" y2="2039" class="net_69,70,71,72,73"/>
  <line x1="274" x2="274" y1="2039" y2="57" class="net_69,70,71,72,73"/>
  <line x1="40" x2="62" y1="2121.5" y2="2121.5" class="net_34,35,36"/>
  <line x1="62" x2="62" y1="2121.5" y2="1976.5" class="net_34,35,36"/>
  <circle cx="62" cy="2121.5" r="2" style="fill:#000" class="net_34,35,36"/>
  <line x1="62" x2="87" y1="1976.5" y2="1976.5" class="net_34,35,36"/>
  <line x1="40" x2="62" y1="2121.5" y2="2121.5" class="net_34,35,36"/>
  <line x1="62" x2="62" y1="2121.5" y2="2041.5" class="net_34,35,36"/>
  <circle cx="62" cy="2041.5" r="2" style="fill:#000" class="net_34,35,36"/>
  <line x1="62" x2="87" y1="2041.5" y2="2041.5" class="net_34,35,36"/>
  <line x1="40" x2="87" y1="2121.5" y2="2121.5" class="net_34,35,36"/>
  <line x1="40" x2="62" y1="2121.5" y2="2121.5" class="net_34,35,36"/>
  <line x1="62" x2="62" y1="2121.5" y2="2236.5" class="net_34,35,36"/>
  <circle cx="62" cy="2236.5" r="2" style="fill:#000" class="net_34,35,36"/>
  <line x1="62" x2="87" y1="2236.5" y2="2236.5" class="net_34,35,36"/>
  <line x1="40" x2="62" y1="2121.5" y2="2121.5" class="net_34,35,36"/>
  <line x1="62" x2="62" y1="2121.5" y2="2301.5" class="net_34,35,36"/>
  <line x1="62" x2="78" y1="2301.5" y2="2301.5" class="net_34,35,36"/>
  <line x1="42" x2="87" y1="1991.5" y2="1991.5" class="net_120,121,122"/>
  <line x1="42" x2="87" y1="2056.5" y2="2056.5" class="net_123,124"/>
  <line x1="42" x2="52" y1="2186.5" y2="2186.5" class="net_125,126"/>
  <line x1="52" x2="52" y1="2186.5" y2="2136.5" class="net_125,126"/>
  <line x1="52" x2="87" y1="2136.5" y2="2136.5" class="net_125,126"/>
  <line x1="42" x2="87" y1="2251.5" y2="2251.5" class="net_127"/>
  <line x1="284" x2="319" y1="42" y2="42" class="net_37,38,39,40,41,42,43,44,45,46,47,48,49,50,51,52,53,54,55,56,57,58,59,60,61,62,63,64,65,66,67,68"/>
  <line x1="109" x2="199.90625" y1="152" y2="152" class="net_106"/>
  <line x1="199.90625" x2="199.90625" y1="152" y2="174" class="net_106"/>
  <line x1="109" x2="159" y1="152" y2="152" class="net_106"/>
  <line x1="159" x2="159" y1="152" y2="534.5" class="net_106"/>
  <circle cx="159" cy="152" r="2" style="fill:#000" class="net_106"/>
  <line x1="159" x2="199.40625" y1="534.5" y2="534.5" class="net_106"/>
  <line x1="108.5" x2="108.5" y1="546.5" y2="514.5" class="net_23,24,25,26,27,28,29,30,31,32"/>
  <line x1="108.5" x2="119" y1="514.5" y2="514.5" class="net_23,24,25,26,27,28,29,30,31,32"/>
  <line x1="119" x2="119" y1="514.5" y2="142" class="net_23,24,25,26,27,28,29,30,31,32"/>
  <line x1="119" x2="199.90625" y1="142" y2="142" class="net_23,24,25,26,27,28,29,30,31,32"/>
  <line x1="199.90625" x2="199.90625" y1="142" y2="194" class="net_23,24,25,26,27,28,29,30,31,32"/>
  <line x1="109" x2="129" y1="567" y2="567" class="net_22"/>
  <line x1="129" x2="129" y1="567" y2="82" class="net_22"/>
  <line x1="129" x2="199.90625" y1="82" y2="82" class="net_22"/>
  <line x1="199.90625" x2="199.90625" y1="82" y2="214" class="net_22"/>
  <line x1="109" x2="139" y1="587" y2="587" class="net_14,15,16,17,18,19,20,21"/>
  <line x1="139" x2="139" y1="587" y2="132" class="net_14,15,16,17,18,19,20,21"/>
  <line x1="139" x2="199.90625" y1="132" y2="132" class="net_14,15,16,17,18,19,20,21"/>
  <line x1="199.90625" x2="199.90625" y1="132" y2="234" class="net_14,15,16,17,18,19,20,21"/>
  <line x1="109" x2="189" y1="607" y2="607" class="net_33"/>
  <line x1="189" x2="189" y1="607" y2="122" class="net_33"/>
  <line x1="189" x2="199.90625" y1="122" y2="122" class="net_33"/>
  <circle cx="189" cy="607" r="2" style="fill:#000" class="net_33"/>
  <circle cx="189" cy="122" r="2" style="fill:#000" class="net_33"/>
  <line x1="199.90625" x2="199.90625" y1="122" y2="254" class="net_33"/>
  <line x1="109" x2="189" y1="607" y2="607" class="net_33"/>
  <line x1="189" x2="189" y1="607" y2="112" class="net_33"/>
  <line x1="189" x2="199.90625" y1="112" y2="112" class="net_33"/>
  <circle cx="189" cy="112" r="2" style="fill:#000" class="net_33"/>
  <line x1="199.90625" x2="199.90625" y1="112" y2="274" class="net_33"/>
  <line x1="109" x2="189" y1="607" y2="607" class="net_33"/>
  <line x1="189" x2="189" y1="607" y2="102" class="net_33"/>
  <line x1="189" x2="199.90625" y1="102" y2="102" class="net_33"/>
  <circle cx="189" cy="102" r="2" style="fill:#000" class="net_33"/>
  <line x1="199.90625" x2="199.90625" y1="102" y2="294" class="net_33"/>
  <line x1="109" x2="189" y1="607" y2="607" class="net_33"/>
  <line x1="189" x2="189" y1="607" y2="72" class="net_33"/>
  <line x1="189" x2="199.90625" y1="72" y2="72" class="net_33"/>
  <circle cx="189" cy="72" r="2" style="fill:#000" class="net_33"/>
  <line x1="199.90625" x2="199.90625" y1="72" y2="314" class="net_33"/>
  <line x1="109" x2="189" y1="607" y2="607" class="net_33"/>
  <line x1="189" x2="189" y1="607" y2="92" class="net_33"/>
  <line x1="189" x2="199.90625" y1="92" y2="92" class="net_33"/>
  <circle cx="189" cy="92" r="2" style="fill:#000" class="net_33"/>
  <line x1="199.90625" x2="199.90625" y1="92" y2="334" class="net_33"/>
  <line x1="109" x2="189" y1="607" y2="607" class="net_33"/>
  <line x1="189" x2="189" y1="607" y2="62" class="net_33"/>
  <line x1="189" x2="199.90625" y1="62" y2="62" class="net_33"/>
  <circle cx="189" cy="62" r="2" style="fill:#000" class="net_33"/>
  <line x1="199.90625" x2="199.90625" y1="62" y2="354" class="net_33"/>
  <line x1="109" x2="189" y1="607" y2="607" class="net_33"/>
  <line x1="189" x2="189" y1="607" y2="52" class="net_33"/>
  <line x1="189" x2="199.90625" y1="52" y2="52" class="net_33"/>
  <line x1="199.90625" x2="199.90625" y1="52" y2="374" class="net_33"/>
  <line x1="109" x2="189" y1="607" y2="607" class="net_33"/>
  <line x1="189" x2="189" y1="607" y2="394.5" class="net_33"/>
  <circle cx="189" cy="394.5" r="2" style="fill:#000" class="net_33"/>
  <line x1="189" x2="199.40625" y1="394.5" y2="394.5" class="net_33"/>
  <line x1="109" x2="189" y1="607" y2="607" class="net_33"/>
  <line x1="189" x2="189" y1="607" y2="414.5" class="net_33"/>
  <circle cx="189" cy="414.5" r="2" style="fill:#000" class="net_33"/>
  <line x1="189" x2="199.40625" y1="414.5" y2="414.5" class="net_33"/>
  <line x1="109" x2="189" y1="607" y2="607" class="net_33"/>
  <line x1="189" x2="189" y1="607" y2="434.5" class="net_33"/>
  <circle cx="189" cy="434.5" r="2" style="fill:#000" class="net_33"/>
  <line x1="189" x2="199.40625" y1="434.5" y2="434.5" class="net_33"/>
  <line x1="109" x2="189" y1="607" y2="607" class="net_33"/>
  <line x1="189" x2="189" y1="607" y2="454.5" class="net_33"/>
  <circle cx="189" cy="454.5" r="2" style="fill:#000" class="net_33"/>
  <line x1="189" x2="199.40625" y1="454.5" y2="454.5" class="net_33"/>
  <line x1="109" x2="189" y1="607" y2="607" class="net_33"/>
  <line x1="189" x2="189" y1="607" y2="474.5" class="net_33"/>
  <circle cx="189" cy="474.5" r="2" style="fill:#000" class="net_33"/>
  <line x1="189" x2="199.40625" y1="474.5" y2="474.5" class="net_33"/>
  <line x1="109" x2="189" y1="607" y2="607" class="net_33"/>
  <line x1="189" x2="189" y1="607" y2="614.5" class="net_33"/>
  <circle cx="189" cy="614.5" r="2" style="fill:#000" class="net_33"/>
  <line x1="189" x2="199.40625" y1="614.5" y2="614.5" class="net_33"/>
  <line x1="109" x2="189" y1="607" y2="607" class="net_33"/>
  <line x1="189" x2="189" y1="607" y2="634.5" class="net_33"/>
  <circle cx="189" cy="634.5" r="2" style="fill:#000" class="net_33"/>
  <line x1="189" x2="199.40625" y1="634.5" y2="634.5" class="net_33"/>
  <line x1="109" x2="189" y1="607" y2="607" class="net_33"/>
  <line x1="189" x2="189" y1="607" y2="654.5" class="net_33"/>
  <circle cx="189" cy="654.5" r="2" style="fill:#000" class="net_33"/>
  <line x1="189" x2="199.40625" y1="654.5" y2="654.5" class="net_33"/>
  <line x1="109" x2="189" y1="607" y2="607" class="net_33"/>
  <line x1="189" x2="189" y1="607" y2="674.5" class="net_33"/>
  <circle cx="189" cy="674.5" r="2" style="fill:#000" class="net_33"/>
  <line x1="189" x2="199.40625" y1="674.5" y2="674.5" class="net_33"/>
  <line x1="109" x2="189" y1="607" y2="607" class="net_33"/>
  <line x1="189" x2="189" y1="607" y2="694.5" class="net_33"/>
  <circle cx="189" cy="694.5" r="2" style="fill:#000" class="net_33"/>
  <line x1="189" x2="199.40625" y1="694.5" y2="694.5" class="net_33"/>
  <line x1="109" x2="189" y1="607" y2="607" class="net_33"/>
  <line x1="189" x2="189" y1="607" y2="714.5" class="net_33"/>
  <circle cx="189" cy="714.5" r="2" style="fill:#000" class="net_33"/>
  <line x1="189" x2="199.40625" y1="714.5" y2="714.5" class="net_33"/>
  <line x1="109" x2="189" y1="607" y2="607" class="net_33"/>
  <line x1="189" x2="189" y1="607" y2="734.5" class="net_33"/>
  <circle cx="189" cy="734.5" r="2" style="fill:#000" class="net_33"/>
  <line x1="189" x2="199.40625" y1="734.5" y2="734.5" class="net_33"/>
  <line x1="109" x2="189" y1="607" y2="607" class="net_33"/>
  <line x1="189" x2="189" y1="607" y2="754.5" class="net_33"/>
  <circle cx="189" cy="754.5" r="2" style="fill:#000" class="net_33"/>
  <line x1="189" x2="199.40625" y1="754.5" y2="754.5" class="net_33"/>
  <line x1="109" x2="189" y1="607" y2="607" class="net_33"/>
  <line x1="189" x2="189" y1="607" y2="774.5" class="net_33"/>
  <circle cx="189" cy="774.5" r="2" style="fill:#000" class="net_33"/>
  <line x1="189" x2="199.40625" y1="774.5" y2="774.5" class="net_33"/>
  <line x1="109" x2="189" y1="607" y2="607" class="net_33"/>
  <line x1="189" x2="189" y1="607" y2="794.5" class="net_33"/>
  <circle cx="189" cy="794.5" r="2" style="fill:#000" class="net_33"/>
  <line x1="189" x2="199.40625" y1="794.5" y2="794.5" class="net_33"/>
  <line x1="109" x2="189" y1="607" y2="607" class="net_33"/>
  <line x1="189" x2="189" y1="607" y2="814.5" class="net_33"/>
  <circle cx="189" cy="814.5" r="2" style="fill:#000" class="net_33"/>
  <line x1="189" x2="199.40625" y1="814.5" y2="814.5" class="net_33"/>
  <line x1="109" x2="189" y1="607" y2="607" class="net_33"/>
  <line x1="189" x2="189" y1="607" y2="834.5" class="net_33"/>
  <circle cx="189" cy="834.5" r="2" style="fill:#000" class="net_33"/>
  <line x1="189" x2="199.40625" y1="834.5" y2="834.5" class="net_33"/>
  <line x1="109" x2="189" y1="607" y2="607" class="net_33"/>
  <line x1="189" x2="189" y1="607" y2="854.5" class="net_33"/>
  <circle cx="189" cy="854.5" r="2" style="fill:#000" class="net_33"/>
  <line x1="189" x2="199.40625" y1="854.5" y2="854.5" class="net_33"/>
  <line x1="109" x2="189" y1="607" y2="607" class="net_33"/>
  <line x1="189" x2="189" y1="607" y2="874.5" class="net_33"/>
  <circle cx="189" cy="874.5" r="2" style="fill:#000" class="net_33"/>
  <line x1="189" x2="199.40625" y1="874.5" y2="874.5" class="net_33"/>
  <line x1="109" x2="189" y1="607" y2="607" class="net_33"/>
  <line x1="189" x2="189" y1="607" y2="894.5" class="net_33"/>
  <circle cx="189" cy="894.5" r="2" style="fill:#000" class="net_33"/>
  <line x1="189" x2="199.40625" y1="894.5" y2="894.5" class="net_33"/>
  <line x1="109" x2="189" y1="607" y2="607" class="net_33"/>
  <line x1="189" x2="189" y1="607" y2="914.5" class="net_33"/>
  <circle cx="189" cy="914.5" r="2" style="fill:#000" class="net_33"/>
  <line x1="189" x2="199.40625" y1="914.5" y2="914.5" class="net_33"/>
  <line x1="109" x2="189" y1="607" y2="607" class="net_33"/>
  <line x1="189" x2="189" y1="607" y2="934.5" class="net_33"/>
  <circle cx="189" cy="934.5" r="2" style="fill:#000" class="net_33"/>
  <line x1="189" x2="199.40625" y1="934.5" y2="934.5" class="net_33"/>
  <line x1="109" x2="189" y1="607" y2="607" class="net_33"/>
  <line x1="189" x2="189" y1="607" y2="954.5" class="net_33"/>
  <circle cx="189" cy="954.5" r="2" style="fill:#000" class="net_33"/>
  <line x1="189" x2="199.40625" y1="954.5" y2="954.5" class="net_33"/>
  <line x1="109" x2="189" y1="607" y2="607" class="net_33"/>
  <line x1="189" x2="189" y1="607" y2="974.5" class="net_33"/>
  <circle cx="189" cy="974.5" r="2" style="fill:#000" class="net_33"/>
  <line x1="189" x2="199.40625" y1="974.5" y2="974.5" class="net_33"/>
  <line x1="109" x2="189" y1="607" y2="607" class="net_33"/>
  <line x1="189" x2="189" y1="607" y2="994.5" class="net_33"/>
  <circle cx="189" cy="994.5" r="2" style="fill:#000" class="net_33"/>
  <line x1="189" x2="199.40625" y1="994.5" y2="994.5" class="net_33"/>
  <line x1="109" x2="189" y1="607" y2="607" class="net_33"/>
  <line x1="189" x2="189" y1="607" y2="1054.5" class="net_33"/>
  <circle cx="189" cy="1054.5" r="2" style="fill:#000" class="net_33"/>
  <line x1="189" x2="199.40625" y1="1054.5" y2="1054.5" class="net_33"/>
  <line x1="109" x2="189" y1="607" y2="607" class="net_33"/>
  <line x1="189" x2="189" y1="607" y2="1074.5" class="net_33"/>
  <circle cx="189" cy="1074.5" r="2" style="fill:#000" class="net_33"/>
  <line x1="189" x2="199.40625" y1="1074.5" y2="1074.5" class="net_33"/>
  <line x1="109" x2="189" y1="607" y2="607" class="net_33"/>
  <line x1="189" x2="189" y1="607" y2="1094.5" class="net_33"/>
  <circle cx="189" cy="1094.5" r="2" style="fill:#000" class="net_33"/>
  <line x1="189" x2="199.40625" y1="1094.5" y2="1094.5" class="net_33"/>
  <line x1="109" x2="189" y1="607" y2="607" class="net_33"/>
  <line x1="189" x2="189" y1="607" y2="1114.5" class="net_33"/>
  <circle cx="189" cy="1114.5" r="2" style="fill:#000" class="net_33"/>
  <line x1="189" x2="199.40625" y1="1114.5" y2="1114.5" class="net_33"/>
  <line x1="109" x2="189" y1="607" y2="607" class="net_33"/>
  <line x1="189" x2="189" y1="607" y2="1134.5" class="net_33"/>
  <circle cx="189" cy="1134.5" r="2" style="fill:#000" class="net_33"/>
  <line x1="189" x2="199.40625" y1="1134.5" y2="1134.5" class="net_33"/>
  <line x1="109" x2="189" y1="607" y2="607" class="net_33"/>
  <line x1="189" x2="189" y1="607" y2="1154.5" class="net_33"/>
  <circle cx="189" cy="1154.5" r="2" style="fill:#000" class="net_33"/>
  <line x1="189" x2="199.40625" y1="1154.5" y2="1154.5" class="net_33"/>
  <line x1="109" x2="189" y1="607" y2="607" class="net_33"/>
  <line x1="189" x2="189" y1="607" y2="1174.5" class="net_33"/>
  <circle cx="189" cy="1174.5" r="2" style="fill:#000" class="net_33"/>
  <line x1="189" x2="199.40625" y1="1174.5" y2="1174.5" class="net_33"/>
  <line x1="109" x2="189" y1="607" y2="607" class="net_33"/>
  <line x1="189" x2="189" y1="607" y2="1194.5" class="net_33"/>
  <circle cx="189" cy="1194.5" r="2" style="fill:#000" class="net_33"/>
  <line x1="189" x2="199.40625" y1="1194.5" y2="1194.5" class="net_33"/>
  <line x1="109" x2="189" y1="607" y2="607" class="net_33"/>
  <line x1="189" x2="189" y1="607" y2="1214.5" class="net_33"/>
  <circle cx="189" cy="1214.5" r="2" style="fill:#000" class="net_33"/>
  <line x1="189" x2="199.40625" y1="1214.5" y2="1214.5" class="net_33"/>
  <line x1="109" x2="189" y1="607" y2="607" class="net_33"/>
  <line x1="189" x2="189" y1="607" y2="1234.5" class="net_33"/>
  <circle cx="189" cy="1234.5" r="2" style="fill:#000" class="net_33"/>
  <line x1="189" x2="199.40625" y1="1234.5" y2="1234.5" class="net_33"/>
  <line x1="109" x2="189" y1="607" y2="607" class="net_33"/>
  <line x1="189" x2="189" y1="607" y2="1254.5" class="net_33"/>
  <circle cx="189" cy="1254.5" r="2" style="fill:#000" class="net_33"/>
  <line x1="189" x2="199.40625" y1="1254.5" y2="1254.5" class="net_33"/>
  <line x1="109" x2="189" y1="607" y2="607" class="net_33"/>
  <line x1="189" x2="189" y1="607" y2="1274.5" class="net_33"/>
  <circle cx="189" cy="1274.5" r="2" style="fill:#000" class="net_33"/>
  <line x1="189" x2="199.40625" y1="1274.5" y2="1274.5" class="net_33"/>
  <line x1="109" x2="189" y1="607" y2="607" class="net_33"/>
  <line x1="189" x2="189" y1="607" y2="1294.5" class="net_33"/>
  <circle cx="189" cy="1294.5" r="2" style="fill:#000" class="net_33"/>
  <line x1="189" x2="199.40625" y1="1294.5" y2="1294.5" class="net_33"/>
  <line x1="109" x2="189" y1="607" y2="607" class="net_33"/>
  <line x1="189" x2="189" y1="607" y2="1314.5" class="net_33"/>
  <circle cx="189" cy="1314.5" r="2" style="fill:#000" class="net_33"/>
  <line x1="189" x2="199.40625" y1="1314.5" y2="1314.5" class="net_33"/>
  <line x1="109" x2="189" y1="607" y2="607" class="net_33"/>
  <line x1="189" x2="189" y1="607" y2="1334.5" class="net_33"/>
  <circle cx="189" cy="1334.5" r="2" style="fill:#000" class="net_33"/>
  <line x1="189" x2="199.40625" y1="1334.5" y2="1334.5" class="net_33"/>
  <line x1="109" x2="189" y1="607" y2="607" class="net_33"/>
  <line x1="189" x2="189" y1="607" y2="1354.5" class="net_33"/>
  <circle cx="189" cy="1354.5" r="2" style="fill:#000" class="net_33"/>
  <line x1="189" x2="199.40625" y1="1354.5" y2="1354.5" class="net_33"/>
  <line x1="109" x2="189" y1="607" y2="607" class="net_33"/>
  <line x1="189" x2="189" y1="607" y2="1374.5" class="net_33"/>
  <circle cx="189" cy="1374.5" r="2" style="fill:#000" class="net_33"/>
  <line x1="189" x2="199.40625" y1="1374.5" y2="1374.5" class="net_33"/>
  <line x1="109" x2="189" y1="607" y2="607" class="net_33"/>
  <line x1="189" x2="189" y1="607" y2="1394.5" class="net_33"/>
  <circle cx="189" cy="1394.5" r="2" style="fill:#000" class="net_33"/>
  <line x1="189" x2="199.40625" y1="1394.5" y2="1394.5" class="net_33"/>
  <line x1="109" x2="189" y1="607" y2="607" class="net_33"/>
  <line x1="189" x2="189" y1="607" y2="1414.5" class="net_33"/>
  <circle cx="189" cy="1414.5" r="2" style="fill:#000" class="net_33"/>
  <line x1="189" x2="199.40625" y1="1414.5" y2="1414.5" class="net_33"/>
  <line x1="109" x2="189" y1="607" y2="607" class="net_33"/>
  <line x1="189" x2="189" y1="607" y2="1434.5" class="net_33"/>
  <circle cx="189" cy="1434.5" r="2" style="fill:#000" class="net_33"/>
  <line x1="189" x2="199.40625" y1="1434.5" y2="1434.5" class="net_33"/>
  <line x1="109" x2="189" y1="607" y2="607" class="net_33"/>
  <line x1="189" x2="189" y1="607" y2="1474.5" class="net_33"/>
  <circle cx="189" cy="1474.5" r="2" style="fill:#000" class="net_33"/>
  <line x1="189" x2="199.40625" y1="1474.5" y2="1474.5" class="net_33"/>
  <line x1="109" x2="189" y1="607" y2="607" class="net_33"/>
  <line x1="189" x2="189" y1="607" y2="1494.5" class="net_33"/>
  <circle cx="189" cy="1494.5" r="2" style="fill:#000" class="net_33"/>
  <line x1="189" x2="199.40625" y1="1494.5" y2="1494.5" class="net_33"/>
  <line x1="109" x2="189" y1="607" y2="607" class="net_33"/>
  <line x1="189" x2="189" y1="607" y2="1514.5" class="net_33"/>
  <circle cx="189" cy="1514.5" r="2" style="fill:#000" class="net_33"/>
  <line x1="189" x2="199.40625" y1="1514.5" y2="1514.5" class="net_33"/>
  <line x1="109" x2="189" y1="607" y2="607" class="net_33"/>
  <line x1="189" x2="189" y1="607" y2="1534.5" class="net_33"/>
  <circle cx="189" cy="1534.5" r="2" style="fill:#000" class="net_33"/>
  <line x1="189" x2="199.40625" y1="1534.5" y2="1534.5" class="net_33"/>
  <line x1="109" x2="189" y1="607" y2="607" class="net_33"/>
  <line x1="189" x2="189" y1="607" y2="1554.5" class="net_33"/>
  <circle cx="189" cy="1554.5" r="2" style="fill:#000" class="net_33"/>
  <line x1="189" x2="199.40625" y1="1554.5" y2="1554.5" class="net_33"/>
  <line x1="109" x2="189" y1="607" y2="607" class="net_33"/>
  <line x1="189" x2="189" y1="607" y2="1574.5" class="net_33"/>
  <circle cx="189" cy="1574.5" r="2" style="fill:#000" class="net_33"/>
  <line x1="189" x2="199.40625" y1="1574.5" y2="1574.5" class="net_33"/>
  <line x1="109" x2="189" y1="607" y2="607" class="net_33"/>
  <line x1="189" x2="189" y1="607" y2="1594.5" class="net_33"/>
  <circle cx="189" cy="1594.5" r="2" style="fill:#000" class="net_33"/>
  <line x1="189" x2="199.40625" y1="1594.5" y2="1594.5" class="net_33"/>
  <line x1="109" x2="189" y1="607" y2="607" class="net_33"/>
  <line x1="189" x2="189" y1="607" y2="1614.5" class="net_33"/>
  <circle cx="189" cy="1614.5" r="2" style="fill:#000" class="net_33"/>
  <line x1="189" x2="199.40625" y1="1614.5" y2="1614.5" class="net_33"/>
  <line x1="109" x2="189" y1="607" y2="607" class="net_33"/>
  <line x1="189" x2="189" y1="607" y2="1634.5" class="net_33"/>
  <circle cx="189" cy="1634.5" r="2" style="fill:#000" class="net_33"/>
  <line x1="189" x2="199.40625" y1="1634.5" y2="1634.5" class="net_33"/>
  <line x1="109" x2="189" y1="607" y2="607" class="net_33"/>
  <line x1="189" x2="189" y1="607" y2="1974" class="net_33"/>
  <line x1="189" x2="199.90625" y1="1974" y2="1974" class="net_33"/>
  <line x1="199.90625" x2="199.90625" y1="1974" y2="1655" class="net_33"/>
  <line x1="109" x2="189" y1="607" y2="607" class="net_33"/>
  <line x1="189" x2="189" y1="607" y2="1964" class="net_33"/>
  <line x1="189" x2="199.90625" y1="1964" y2="1964" class="net_33"/>
  <circle cx="189" cy="1964" r="2" style="fill:#000" class="net_33"/>
  <line x1="199.90625" x2="199.90625" y1="1964" y2="1675" class="net_33"/>
  <line x1="109" x2="189" y1="607" y2="607" class="net_33"/>
  <line x1="189" x2="189" y1="607" y2="1954" class="net_33"/>
  <line x1="189" x2="199.90625" y1="1954" y2="1954" class="net_33"/>
  <circle cx="189" cy="1954" r="2" style="fill:#000" class="net_33"/>
  <line x1="199.90625" x2="199.90625" y1="1954" y2="1695" class="net_33"/>
  <line x1="109" x2="189" y1="607" y2="607" class="net_33"/>
  <line x1="189" x2="189" y1="607" y2="1944" class="net_33"/>
  <line x1="189" x2="199.90625" y1="1944" y2="1944" class="net_33"/>
  <circle cx="189" cy="1944" r="2" style="fill:#000" class="net_33"/>
  <line x1="199.90625" x2="199.90625" y1="1944" y2="1715" class="net_33"/>
  <line x1="109" x2="189" y1="607" y2="607" class="net_33"/>
  <line x1="189" x2="189" y1="607" y2="1934" class="net_33"/>
  <line x1="189" x2="199.90625" y1="1934" y2="1934" class="net_33"/>
  <circle cx="189" cy="1934" r="2" style="fill:#000" class="net_33"/>
  <line x1="199.90625" x2="199.90625" y1="1934" y2="1735" class="net_33"/>
  <line x1="109" x2="189" y1="607" y2="607" class="net_33"/>
  <line x1="189" x2="189" y1="607" y2="1924" class="net_33"/>
  <line x1="189" x2="199.90625" y1="1924" y2="1924" class="net_33"/>
  <circle cx="189" cy="1924" r="2" style="fill:#000" class="net_33"/>
  <line x1="199.90625" x2="199.90625" y1="1924" y2="1755" class="net_33"/>
  <line x1="109" x2="189" y1="607" y2="607" class="net_33"/>
  <line x1="189" x2="189" y1="607" y2="1914" class="net_33"/>
  <line x1="189" x2="199.90625" y1="1914" y2="1914" class="net_33"/>
  <circle cx="189" cy="1914" r="2" style="fill:#000" class="net_33"/>
  <line x1="199.90625" x2="199.90625" y1="1914" y2="1775" class="net_33"/>
  <line x1="109" x2="189" y1="607" y2="607" class="net_33"/>
  <line x1="189" x2="189" y1="607" y2="1904" class="net_33"/>
  <line x1="189" x2="199.90625" y1="1904" y2="1904" class="net_33"/>
  <circle cx="189" cy="1904" r="2" style="fill:#000" class="net_33"/>
  <line x1="199.90625" x2="199.90625" y1="1904" y2="1795" class="net_33"/>
  <line x1="109" x2="189" y1="607" y2="607" class="net_33"/>
  <line x1="189" x2="189" y1="607" y2="1894" class="net_33"/>
  <line x1="189" x2="199.90625" y1="1894" y2="1894" class="net_33"/>
  <circle cx="189" cy="1894" r="2" style="fill:#000" class="net_33"/>
  <line x1="199.90625" x2="199.90625" y1="1894" y2="1815" class="net_33"/>
  <line x1="109" x2="189" y1="607" y2="607" class="net_33"/>
  <line x1="189" x2="189" y1="607" y2="1884" class="net_33"/>
  <line x1="189" x2="199.90625" y1="1884" y2="1884" class="net_33"/>
  <circle cx="189" cy="1884" r="2" style="fill:#000" class="net_33"/>
  <line x1="199.90625" x2="199.90625" y1="1884" y2="1835" class="net_33"/>
  <line x1="109" x2="189" y1="607" y2="607" class="net_33"/>
  <line x1="189" x2="189" y1="607" y2="1874" class="net_33"/>
  <line x1="189" x2="199.90625" y1="1874" y2="1874" class="net_33"/>
  <circle cx="189" cy="1874" r="2" style="fill:#000" class="net_33"/>
  <line x1="199.90625" x2="199.90625" y1="1874" y2="1855" class="net_33"/>
  <line x1="109" x2="199.40625" y1="494.5" y2="494.5" class="net_107,108,109,110,111,112,113,114,115,116,117,118"/>
  <line x1="109" x2="149" y1="627" y2="627" class="net_14,15,16,17,18,19,20,21,22,23,24,25,26,27,28,29,30,31,32,33"/>
  <line x1="149" x2="149" y1="627" y2="514.5" class="net_14,15,16,17,18,19,20,21,22,23,24,25,26,27,28,29,30,31,32,33"/>
  <line x1="149" x2="199.40625" y1="514.5" y2="514.5" class="net_14,15,16,17,18,19,20,21,22,23,24,25,26,27,28,29,30,31,32,33"/>
  <line x1="109" x2="159" y1="647" y2="647" class="net_10,11,12,13"/>
  <line x1="159" x2="159" y1="647" y2="554.5" class="net_10,11,12,13"/>
  <line x1="159" x2="199.40625" y1="554.5" y2="554.5" class="net_10,11,12,13"/>
  <line x1="109" x2="169" y1="667" y2="667" class="net_27,28,29,30,31,32"/>
  <line x1="169" x2="169" y1="667" y2="574.5" class="net_27,28,29,30,31,32"/>
  <line x1="169" x2="199.40625" y1="574.5" y2="574.5" class="net_27,28,29,30,31,32"/>
  <line x1="109" x2="179" y1="687" y2="687" class="net_9"/>
  <line x1="179" x2="179" y1="687" y2="594.5" class="net_9"/>
  <line x1="179" x2="199.40625" y1="594.5" y2="594.5" class="net_9"/>
  <line x1="109" x2="129" y1="707" y2="707" class="net_9,10,11,12,13"/>
  <line x1="129" x2="129" y1="707" y2="1014.5" class="net_9,10,11,12,13"/>
  <line x1="129" x2="199.40625" y1="1014.5" y2="1014.5" class="net_9,10,11,12,13"/>
  <line x1="109" x2="119" y1="727" y2="727" class="net_27,28,29,30,31,32,33"/>
  <line x1="119" x2="119" y1="727" y2="1034.5" class="net_27,28,29,30,31,32,33"/>
  <line x1="119" x2="199.40625" y1="1034.5" y2="1034.5" class="net_27,28,29,30,31,32,33"/>
  <line x1="108.5" x2="108.5" y1="747.5" y2="1454.5" class="net_22,23,24,25,26,27,28,29,30,31,32,33"/>
  <line x1="108.5" x2="199.40625" y1="1454.5" y2="1454.5" class="net_22,23,24,25,26,27,28,29,30,31,32,33"/>
  <line x1="109" x2="206" y1="1984" y2="1984" class="net_69"/>
  <line x1="206" x2="206" y1="1984" y2="2028.5" class="net_69"/>
  <line x1="109" x2="205.5" y1="2049" y2="2049" class="net_70"/>
  <line x1="109" x2="119" y1="2129" y2="2129" class="net_71"/>
  <line x1="119" x2="119" y1="2129" y2="2069" class="net_71"/>
  <line x1="119" x2="205.5" y1="2069" y2="2069" class="net_71"/>
  <line x1="109" x2="129" y1="2244" y2="2244" class="net_72"/>
  <line x1="129" x2="129" y1="2244" y2="2089" class="net_72"/>
  <line x1="129" x2="205.5" y1="2089" y2="2089" class="net_72"/>
  <line x1="103" x2="206" y1="2301.5" y2="2301.5" class="net_73"/>
  <line x1="206" x2="206" y1="2301.5" y2="2109.5" class="net_73"/>
  <line x1="40" x2="104.5" y1="524.5" y2="524.5" class="net_2,3,4,5,6,7,8,9,10,11,12,13,14,15,16,17,18,19,20,21,22,23,24,25,26,27,28,29,30,31,32,33"/>
  <line x1="104.5" x2="104.5" y1="524.5" y2="556.5" class="net_2,3,4,5,6,7,8,9,10,11,12,13,14,15,16,17,18,19,20,21,22,23,24,25,26,27,28,29,30,31,32,33"/>
</svg>
