<svg xmlns="http://www.w3.org/2000/svg" xmlns:xlink="http://www.w3.org/1999/xlink" xmlns:s="https://github.com/nturley/netlistsvg" width="1147" height="1096">
  <style>svg {
    stroke:#000;
    fill:none;
  }
  text {
    fill:#000;
    stroke:none;
    font-size:10px;
    font-weight: bold;
    font-family: "Courier New", monospace;
  }
  .nodelabel {
    text-anchor: middle;
  }
  .inputPortLabel {
    text-anchor: end;
  }
  .splitjoinBody {
    fill:#000;
  }</style>
  <g s:type="add" transform="translate(648,165.5)" s:width="25" s:height="25" id="cell_$add$fifo_sync.v:52$19">
    <s:alias val="$add"/>
    <circle r="12.5" cx="12.5" cy="12.5" class="cell_$add$fifo_sync.v:52$19"/>
    <line x1="7.5" x2="17.5" y1="12.5" y2="12.5" class="cell_$add$fifo_sync.v:52$19"/>
    <line x1="12.5" x2="12.5" y1="7.5" y2="17.5" class="cell_$add$fifo_sync.v:52$19"/>
    <g s:x="3" s:y="5" s:pid="A"/>
    <g s:x="3" s:y="20" s:pid="B"/>
    <g s:x="25" s:y="12.5" s:pid="Y"/>
  </g>
  <g s:type="add" transform="translate(648,272.5)" s:width="25" s:height="25" id="cell_$add$fifo_sync.v:56$23">
    <s:alias val="$add"/>
    <circle r="12.5" cx="12.5" cy="12.5" class="cell_$add$fifo_sync.v:56$23"/>
    <line x1="7.5" x2="17.5" y1="12.5" y2="12.5" class="cell_$add$fifo_sync.v:56$23"/>
    <line x1="12.5" x2="12.5" y1="7.5" y2="17.5" class="cell_$add$fifo_sync.v:56$23"/>
    <g s:x="3" s:y="5" s:pid="A"/>
    <g s:x="3" s:y="20" s:pid="B"/>
    <g s:x="25" s:y="12.5" s:pid="Y"/>
  </g>
  <g s:type="eq" transform="translate(1009.6666666666666,173)" s:width="25" s:height="25" id="cell_$eq$fifo_sync.v:41$3">
    <s:alias val="$eq"/>
    <circle r="12.5" cx="12.5" cy="12.5" class="cell_$eq$fifo_sync.v:41$3"/>
    <line x1="7.5" x2="17.5" y1="10" y2="10" class="cell_$eq$fifo_sync.v:41$3"/>
    <line x1="7.5" x2="17.5" y1="15" y2="15" class="cell_$eq$fifo_sync.v:41$3"/>
    <g s:x="3" s:y="5" s:pid="A"/>
    <g s:x="3" s:y="20" s:pid="B"/>
    <g s:x="25" s:y="12.5" s:pid="Y"/>
  </g>
  <g s:type="eq" transform="translate(178.33333333333334,408.5)" s:width="25" s:height="25" id="cell_$eq$fifo_sync.v:43$5">
    <s:alias val="$eq"/>
    <circle r="12.5" cx="12.5" cy="12.5" class="cell_$eq$fifo_sync.v:43$5"/>
    <line x1="7.5" x2="17.5" y1="10" y2="10" class="cell_$eq$fifo_sync.v:43$5"/>
    <line x1="7.5" x2="17.5" y1="15" y2="15" class="cell_$eq$fifo_sync.v:43$5"/>
    <g s:x="3" s:y="5" s:pid="A"/>
    <g s:x="3" s:y="20" s:pid="B"/>
    <g s:x="25" s:y="12.5" s:pid="Y"/>
  </g>
  <g s:type="and" transform="translate(304,336)" s:width="30" s:height="25" id="cell_$logic_and$fifo_sync.v:42$6">
    <s:alias val="$and"/>
    <s:alias val="$logic_and"/>
    <s:alias val="$_AND_"/>
    <path d="M0,0 L0,25 L15,25 A15 12.5 0 0 0 15,0 Z" class="cell_$logic_and$fifo_sync.v:42$6"/>
    <g s:x="0" s:y="5" s:pid="A"/>
    <g s:x="0" s:y="20" s:pid="B"/>
    <g s:x="30" s:y="12.5" s:pid="Y"/>
  </g>
  <g s:type="and" transform="translate(438,288.5)" s:width="30" s:height="25" id="cell_$logic_and$fifo_sync.v:50$15">
    <s:alias val="$and"/>
    <s:alias val="$logic_and"/>
    <s:alias val="$_AND_"/>
    <path d="M0,0 L0,25 L15,25 A15 12.5 0 0 0 15,0 Z" class="cell_$logic_and$fifo_sync.v:50$15"/>
    <g s:x="0" s:y="5" s:pid="A"/>
    <g s:x="0" s:y="20" s:pid="B"/>
    <g s:x="30" s:y="12.5" s:pid="Y"/>
  </g>
  <g s:type="and" transform="translate(646,1015.5)" s:width="30" s:height="25" id="cell_$logic_and$fifo_sync.v:54$21">
    <s:alias val="$and"/>
    <s:alias val="$logic_and"/>
    <s:alias val="$_AND_"/>
    <path d="M0,0 L0,25 L15,25 A15 12.5 0 0 0 15,0 Z" class="cell_$logic_and$fifo_sync.v:54$21"/>
    <g s:x="0" s:y="5" s:pid="A"/>
    <g s:x="0" s:y="20" s:pid="B"/>
    <g s:x="30" s:y="12.5" s:pid="Y"/>
  </g>
  <g s:type="not" transform="translate(369,338.5)" s:width="30" s:height="20" id="cell_$logic_not$fifo_sync.v:50$14">
    <s:alias val="$_NOT_"/>
    <s:alias val="$not"/>
    <s:alias val="$logic_not"/>
    <path d="M0,0 L0,20 L20,10 Z" class="cell_$logic_not$fifo_sync.v:50$14"/>
    <circle cx="23" cy="10" r="3" class="cell_$logic_not$fifo_sync.v:50$14"/>
    <g s:x="0" s:y="10" s:pid="A"/>
    <g s:x="25" s:y="10" s:pid="Y"/>
  </g>
  <g s:type="not" transform="translate(1073,577.5)" s:width="30" s:height="20" id="cell_$logic_not$fifo_sync.v:54$20">
    <s:alias val="$_NOT_"/>
    <s:alias val="$not"/>
    <s:alias val="$logic_not"/>
    <path d="M0,0 L0,20 L20,10 Z" class="cell_$logic_not$fifo_sync.v:54$20"/>
    <circle cx="23" cy="10" r="3" class="cell_$logic_not$fifo_sync.v:54$20"/>
    <g s:x="0" s:y="10" s:pid="A"/>
    <g s:x="25" s:y="10" s:pid="Y"/>
  </g>
  <g s:type="generic" transform="translate(149,330.5)" s:width="30" s:height="40" id="cell_$ne$fifo_sync.v:42$4">
    <text x="15" y="-4" class="nodelabel cell_$ne$fifo_sync.v:42$4" s:attribute="ref">$ne</text>
    <rect width="30" height="40" s:generic="body" class="cell_$ne$fifo_sync.v:42$4"/>
    <g transform="translate(0,10)" s:x="0" s:y="10" s:pid="in0" id="port_$ne$fifo_sync.v:42$4~A">
      <text x="-3" y="-4" class="inputPortLabel cell_$ne$fifo_sync.v:42$4">A</text>
    </g>
    <g transform="translate(0,30)" s:x="0" s:y="10" s:pid="in0" id="port_$ne$fifo_sync.v:42$4~B">
      <text x="-3" y="-4" class="inputPortLabel cell_$ne$fifo_sync.v:42$4">B</text>
    </g>
    <g transform="translate(30,10)" s:x="30" s:y="10" s:pid="out0" id="port_$ne$fifo_sync.v:42$4~Y">
      <text x="5" y="-4" style="fill:#000; stroke:none" class="cell_$ne$fifo_sync.v:42$4">Y</text>
    </g>
  </g>
  <g s:type="dff" transform="translate(1008,522.5)" s:width="30" s:height="40" id="cell_$procdff$69">
    <s:alias val="$dff"/>
    <s:alias val="$_DFF_"/>
    <s:alias val="$_DFF_P_"/>
    <rect width="30" height="40" x="0" y="0" class="cell_$procdff$69"/>
    <path d="M0,35 L5,30 L0,25" class="cell_$procdff$69"/>
    <g s:x="30" s:y="10" s:pid="Q"/>
    <g s:x="0" s:y="30" s:pid="CLK"/>
    <g s:x="0" s:y="30" s:pid="C"/>
    <g s:x="0" s:y="10" s:pid="D"/>
  </g>
  <g s:type="dff" transform="translate(943,168)" s:width="30" s:height="40" id="cell_$procdff$70">
    <s:alias val="$dff"/>
    <s:alias val="$_DFF_"/>
    <s:alias val="$_DFF_P_"/>
    <rect width="30" height="40" x="0" y="0" class="cell_$procdff$70"/>
    <path d="M0,35 L5,30 L0,25" class="cell_$procdff$70"/>
    <g s:x="30" s:y="10" s:pid="Q"/>
    <g s:x="0" s:y="30" s:pid="CLK"/>
    <g s:x="0" s:y="30" s:pid="C"/>
    <g s:x="0" s:y="10" s:pid="D"/>
  </g>
  <g s:type="dff" transform="translate(943,322.5)" s:width="30" s:height="40" id="cell_$procdff$71">
    <s:alias val="$dff"/>
    <s:alias val="$_DFF_"/>
    <s:alias val="$_DFF_P_"/>
    <rect width="30" height="40" x="0" y="0" class="cell_$procdff$71"/>
    <path d="M0,35 L5,30 L0,25" class="cell_$procdff$71"/>
    <g s:x="30" s:y="10" s:pid="Q"/>
    <g s:x="0" s:y="30" s:pid="CLK"/>
    <g s:x="0" s:y="30" s:pid="C"/>
    <g s:x="0" s:y="10" s:pid="D"/>
  </g>
  <g s:type="mux" transform="translate(1073,77)" s:width="20" s:height="40" id="cell_$procmux$27">
    <s:alias val="$pmux"/>
    <s:alias val="$mux"/>
    <s:alias val="$_MUX_"/>
    <path d="M0,0 L20,10 L20,30 L0,40 Z" class="cell_$procmux$27"/>
    <g s:x="0" s:y="10" s:pid="A"/>
    <g s:x="0" s:y="30" s:pid="B"/>
    <g s:x="10" s:y="35" s:pid="S"/>
    <g s:x="20" s:y="20" s:pid="Y"/>
  </g>
  <g s:type="mux" transform="translate(559.3333333333333,710.5)" s:width="20" s:height="40" id="cell_$procmux$33">
    <s:alias val="$pmux"/>
    <s:alias val="$mux"/>
    <s:alias val="$_MUX_"/>
    <path d="M0,0 L20,10 L20,30 L0,40 Z" class="cell_$procmux$33"/>
    <g s:x="0" s:y="10" s:pid="A"/>
    <g s:x="0" s:y="30" s:pid="B"/>
    <g s:x="10" s:y="35" s:pid="S"/>
    <g s:x="20" s:y="20" s:pid="Y"/>
  </g>
  <g s:type="mux" transform="translate(559.3333333333333,443.5)" s:width="20" s:height="40" id="cell_$procmux$39">
    <s:alias val="$pmux"/>
    <s:alias val="$mux"/>
    <s:alias val="$_MUX_"/>
    <path d="M0,0 L20,10 L20,30 L0,40 Z" class="cell_$procmux$39"/>
    <g s:x="0" s:y="10" s:pid="A"/>
    <g s:x="0" s:y="30" s:pid="B"/>
    <g s:x="10" s:y="35" s:pid="S"/>
    <g s:x="20" s:y="20" s:pid="Y"/>
  </g>
  <g s:type="mux" transform="translate(562.6666666666666,803.5)" s:width="20" s:height="40" id="cell_$procmux$45">
    <s:alias val="$pmux"/>
    <s:alias val="$mux"/>
    <s:alias val="$_MUX_"/>
    <path d="M0,0 L20,10 L20,30 L0,40 Z" class="cell_$procmux$45"/>
    <g s:x="0" s:y="10" s:pid="A"/>
    <g s:x="0" s:y="30" s:pid="B"/>
    <g s:x="10" s:y="35" s:pid="S"/>
    <g s:x="20" s:y="20" s:pid="Y"/>
  </g>
  <g s:type="mux" transform="translate(649.3333333333334,720.5)" s:width="20" s:height="40" id="cell_$procmux$48">
    <s:alias val="$pmux"/>
    <s:alias val="$mux"/>
    <s:alias val="$_MUX_"/>
    <path d="M0,0 L20,10 L20,30 L0,40 Z" class="cell_$procmux$48"/>
    <g s:x="0" s:y="10" s:pid="A"/>
    <g s:x="0" s:y="30" s:pid="B"/>
    <g s:x="10" s:y="35" s:pid="S"/>
    <g s:x="20" s:y="20" s:pid="Y"/>
  </g>
  <g s:type="mux" transform="translate(649.3333333333334,603.5)" s:width="20" s:height="40" id="cell_$procmux$51">
    <s:alias val="$pmux"/>
    <s:alias val="$mux"/>
    <s:alias val="$_MUX_"/>
    <path d="M0,0 L20,10 L20,30 L0,40 Z" class="cell_$procmux$51"/>
    <g s:x="0" s:y="10" s:pid="A"/>
    <g s:x="0" s:y="30" s:pid="B"/>
    <g s:x="10" s:y="35" s:pid="S"/>
    <g s:x="20" s:y="20" s:pid="Y"/>
  </g>
  <g s:type="mux" transform="translate(786,382.5)" s:width="20" s:height="40" id="cell_$procmux$53">
    <s:alias val="$pmux"/>
    <s:alias val="$mux"/>
    <s:alias val="$_MUX_"/>
    <path d="M0,0 L20,10 L20,30 L0,40 Z" class="cell_$procmux$53"/>
    <g s:x="0" s:y="10" s:pid="A"/>
    <g s:x="0" s:y="30" s:pid="B"/>
    <g s:x="10" s:y="35" s:pid="S"/>
    <g s:x="20" s:y="20" s:pid="Y"/>
  </g>
  <g s:type="mux" transform="translate(888,442.5)" s:width="20" s:height="40" id="cell_$procmux$56">
    <s:alias val="$pmux"/>
    <s:alias val="$mux"/>
    <s:alias val="$_MUX_"/>
    <path d="M0,0 L20,10 L20,30 L0,40 Z" class="cell_$procmux$56"/>
    <g s:x="0" s:y="10" s:pid="A"/>
    <g s:x="0" s:y="30" s:pid="B"/>
    <g s:x="10" s:y="35" s:pid="S"/>
    <g s:x="20" s:y="20" s:pid="Y"/>
  </g>
  <g s:type="mux" transform="translate(786,148)" s:width="20" s:height="40" id="cell_$procmux$59">
    <s:alias val="$pmux"/>
    <s:alias val="$mux"/>
    <s:alias val="$_MUX_"/>
    <path d="M0,0 L20,10 L20,30 L0,40 Z" class="cell_$procmux$59"/>
    <g s:x="0" s:y="10" s:pid="A"/>
    <g s:x="0" s:y="30" s:pid="B"/>
    <g s:x="10" s:y="35" s:pid="S"/>
    <g s:x="20" s:y="20" s:pid="Y"/>
  </g>
  <g s:type="mux" transform="translate(888,158)" s:width="20" s:height="40" id="cell_$procmux$62">
    <s:alias val="$pmux"/>
    <s:alias val="$mux"/>
    <s:alias val="$_MUX_"/>
    <path d="M0,0 L20,10 L20,30 L0,40 Z" class="cell_$procmux$62"/>
    <g s:x="0" s:y="10" s:pid="A"/>
    <g s:x="0" s:y="30" s:pid="B"/>
    <g s:x="10" s:y="35" s:pid="S"/>
    <g s:x="20" s:y="20" s:pid="Y"/>
  </g>
  <g s:type="mux" transform="translate(888,502.5)" s:width="20" s:height="40" id="cell_$procmux$64">
    <s:alias val="$pmux"/>
    <s:alias val="$mux"/>
    <s:alias val="$_MUX_"/>
    <path d="M0,0 L20,10 L20,30 L0,40 Z" class="cell_$procmux$64"/>
    <g s:x="0" s:y="10" s:pid="A"/>
    <g s:x="0" s:y="30" s:pid="B"/>
    <g s:x="10" s:y="35" s:pid="S"/>
    <g s:x="20" s:y="20" s:pid="Y"/>
  </g>
  <g s:type="mux" transform="translate(949.6666666666666,512.5)" s:width="20" s:height="40" id="cell_$procmux$67">
    <s:alias val="$pmux"/>
    <s:alias val="$mux"/>
    <s:alias val="$_MUX_"/>
    <path d="M0,0 L20,10 L20,30 L0,40 Z" class="cell_$procmux$67"/>
    <g s:x="0" s:y="10" s:pid="A"/>
    <g s:x="0" s:y="30" s:pid="B"/>
    <g s:x="10" s:y="35" s:pid="S"/>
    <g s:x="20" s:y="20" s:pid="Y"/>
  </g>
  <g s:type="generic" transform="translate(779,522)" s:width="30" s:height="40" id="cell_ram">
    <text x="15" y="-4" class="nodelabel cell_ram" s:attribute="ref">$mem_v2</text>
    <rect width="30" height="180" s:generic="body" class="cell_ram"/>
    <g transform="translate(0,10)" s:x="0" s:y="10" s:pid="in0" id="port_ram~RD_ADDR">
      <text x="-3" y="-4" class="inputPortLabel cell_ram">RD_ADDR</text>
    </g>
    <g transform="translate(0,30)" s:x="0" s:y="10" s:pid="in0" id="port_ram~RD_ARST">
      <text x="-3" y="-4" class="inputPortLabel cell_ram">RD_ARST</text>
    </g>
    <g transform="translate(0,50)" s:x="0" s:y="10" s:pid="in0" id="port_ram~RD_CLK">
      <text x="-3" y="-4" class="inputPortLabel cell_ram">RD_CLK</text>
    </g>
    <g transform="translate(0,70)" s:x="0" s:y="10" s:pid="in0" id="port_ram~RD_EN">
      <text x="-3" y="-4" class="inputPortLabel cell_ram">RD_EN</text>
    </g>
    <g transform="translate(0,90)" s:x="0" s:y="10" s:pid="in0" id="port_ram~RD_SRST">
      <text x="-3" y="-4" class="inputPortLabel cell_ram">RD_SRST</text>
    </g>
    <g transform="translate(0,110)" s:x="0" s:y="10" s:pid="in0" id="port_ram~WR_ADDR">
      <text x="-3" y="-4" class="inputPortLabel cell_ram">WR_ADDR</text>
    </g>
    <g transform="translate(0,130)" s:x="0" s:y="10" s:pid="in0" id="port_ram~WR_CLK">
      <text x="-3" y="-4" class="inputPortLabel cell_ram">WR_CLK</text>
    </g>
    <g transform="translate(0,150)" s:x="0" s:y="10" s:pid="in0" id="port_ram~WR_DATA">
      <text x="-3" y="-4" class="inputPortLabel cell_ram">WR_DATA</text>
    </g>
    <g transform="translate(0,170)" s:x="0" s:y="10" s:pid="in0" id="port_ram~WR_EN">
      <text x="-3" y="-4" class="inputPortLabel cell_ram">WR_EN</text>
    </g>
    <g transform="translate(30,10)" s:x="30" s:y="10" s:pid="out0" id="port_ram~RD_DATA">
      <text x="5" y="-4" style="fill:#000; stroke:none" class="cell_ram">RD_DATA</text>
    </g>
  </g>
  <g s:type="inputExt" transform="translate(646,342.5)" s:width="30" s:height="20" id="cell_clk">
    <text x="15" y="-4" class="nodelabel cell_clk" s:attribute="ref">clk</text>
    <s:alias val="$_inputExt_"/>
    <path d="M0,0 L0,20 L15,20 L30,10 L15,0 Z" class="cell_clk"/>
    <g s:x="28" s:y="10" s:pid="Y"/>
  </g>
  <g s:type="inputExt" transform="translate(434,665.5)" s:width="30" s:height="20" id="cell_rst">
    <text x="15" y="-4" class="nodelabel cell_rst" s:attribute="ref">rst</text>
    <s:alias val="$_inputExt_"/>
    <path d="M0,0 L0,20 L15,20 L30,10 L15,0 Z" class="cell_rst"/>
    <g s:x="28" s:y="10" s:pid="Y"/>
  </g>
  <g s:type="inputExt" transform="translate(369,283.5)" s:width="30" s:height="20" id="cell_wr_en">
    <text x="15" y="-4" class="nodelabel cell_wr_en" s:attribute="ref">wr_en</text>
    <s:alias val="$_inputExt_"/>
    <path d="M0,0 L0,20 L15,20 L30,10 L15,0 Z" class="cell_wr_en"/>
    <g s:x="28" s:y="10" s:pid="Y"/>
  </g>
  <g s:type="inputExt" transform="translate(434,600.5)" s:width="30" s:height="20" id="cell_wr_data">
    <text x="15" y="-4" class="nodelabel cell_wr_data" s:attribute="ref">wr_data</text>
    <s:alias val="$_inputExt_"/>
    <path d="M0,0 L0,20 L15,20 L30,10 L15,0 Z" class="cell_wr_data"/>
    <g s:x="28" s:y="10" s:pid="Y"/>
  </g>
  <g s:type="inputExt" transform="translate(556,1010.5)" s:width="30" s:height="20" id="cell_rd_en">
    <text x="15" y="-4" class="nodelabel cell_rd_en" s:attribute="ref">rd_en</text>
    <s:alias val="$_inputExt_"/>
    <path d="M0,0 L0,20 L15,20 L30,10 L15,0 Z" class="cell_rd_en"/>
    <g s:x="28" s:y="10" s:pid="Y"/>
  </g>
  <g s:type="outputExt" transform="translate(1073,522.5)" s:width="30" s:height="20" id="cell_rd_data">
    <text x="15" y="-4" class="nodelabel cell_rd_data" s:attribute="ref">rd_data</text>
    <s:alias val="$_outputExt_"/>
    <path d="M30,0 L30,20 L15,20 L0,10 L15,0 Z" class="cell_rd_data"/>
    <g s:x="0" s:y="10" s:pid="A"/>
  </g>
  <g s:type="outputExt" transform="translate(1073,175.5)" s:width="30" s:height="20" id="cell_empty">
    <text x="15" y="-4" class="nodelabel cell_empty" s:attribute="ref">empty</text>
    <s:alias val="$_outputExt_"/>
    <path d="M30,0 L30,20 L15,20 L0,10 L15,0 Z" class="cell_empty"/>
    <g s:x="0" s:y="10" s:pid="A"/>
  </g>
  <g s:type="outputExt" transform="translate(1073,22)" s:width="30" s:height="20" id="cell_full">
    <text x="15" y="-4" class="nodelabel cell_full" s:attribute="ref">full</text>
    <s:alias val="$_outputExt_"/>
    <path d="M30,0 L30,20 L15,20 L0,10 L15,0 Z" class="cell_full"/>
    <g s:x="0" s:y="10" s:pid="A"/>
  </g>
  <g s:type="constant" transform="translate(556,232.5)" s:width="30" s:height="20" id="cell_1">
    <text x="15" y="-4" class="nodelabel cell_1" s:attribute="ref">1</text>
    <s:alias val="$_constant_"/>
    <rect width="30" height="20" class="cell_1"/>
    <g s:x="30" s:y="10" s:pid="Y"/>
  </g>
  <g s:type="constant" transform="translate(434,535.5)" s:width="30" s:height="20" id="cell_0">
    <text x="15" y="-4" class="nodelabel cell_0" s:attribute="ref">0</text>
    <s:alias val="$_constant_"/>
    <rect width="30" height="20" class="cell_0"/>
    <g s:x="30" s:y="10" s:pid="Y"/>
  </g>
  <g s:type="constant" transform="translate(779,283.5)" s:width="30" s:height="20" id="cell_00000">
    <text x="15" y="-4" class="nodelabel cell_00000" s:attribute="ref">0x0</text>
    <s:alias val="$_constant_"/>
    <rect width="30" height="20" class="cell_00000"/>
    <g s:x="30" s:y="10" s:pid="Y"/>
  </g>
  <g s:type="join" transform="translate(649.7142857142857,835.5)" s:width="4" s:height="40" id="cell_$join$,81,81,81,81,81,81,81,81,">
    <rect width="5" height="160" class="splitjoinBody" s:generic="body"/>
    <s:alias val="$_join_"/>
    <g s:x="5" s:y="20" s:pid="out"/>
    <g transform="translate(0,10)" s:x="0" s:y="10" s:pid="in0">
      <text x="-3" y="-4" class="inputPortLabel">0</text>
    </g>
    <g transform="translate(0,30)" s:x="0" s:y="10" s:pid="in0">
      <text x="-3" y="-4" class="inputPortLabel">1</text>
    </g>
    <g transform="translate(0,50)" s:x="0" s:y="10" s:pid="in0">
      <text x="-3" y="-4" class="inputPortLabel">2</text>
    </g>
    <g transform="translate(0,70)" s:x="0" s:y="10" s:pid="in0">
      <text x="-3" y="-4" class="inputPortLabel">3</text>
    </g>
    <g transform="translate(0,90)" s:x="0" s:y="10" s:pid="in0">
      <text x="-3" y="-4" class="inputPortLabel">4</text>
    </g>
    <g transform="translate(0,110)" s:x="0" s:y="10" s:pid="in0">
      <text x="-3" y="-4" class="inputPortLabel">5</text>
    </g>
    <g transform="translate(0,130)" s:x="0" s:y="10" s:pid="in0">
      <text x="-3" y="-4" class="inputPortLabel">6</text>
    </g>
    <g transform="translate(0,150)" s:x="0" s:y="10" s:pid="in0">
      <text x="-3" y="-4" class="inputPortLabel">7</text>
    </g>
  </g>
  <g s:type="split" transform="translate(78,310.5)" s:width="5" s:height="40" id="cell_$split$,24,25,26,27,28,">
    <rect width="5" height="40" class="splitjoinBody" s:generic="body"/>
    <s:alias val="$_split_"/>
    <g s:x="0" s:y="20" s:pid="in"/>
    <g transform="translate(4,10)" s:x="4" s:y="10" s:pid="out0">
      <text x="5" y="-4">0:3</text>
    </g>
    <g transform="translate(4,30)" s:x="4" s:y="10" s:pid="out0">
      <text x="5" y="-4">4</text>
    </g>
  </g>
  <g s:type="split" transform="translate(78,418)" s:width="5" s:height="40" id="cell_$split$,34,35,36,37,38,">
    <rect width="5" height="40" class="splitjoinBody" s:generic="body"/>
    <s:alias val="$_split_"/>
    <g s:x="0" s:y="20" s:pid="in"/>
    <g transform="translate(4,10)" s:x="4" s:y="10" s:pid="out0">
      <text x="5" y="-4">0:3</text>
    </g>
    <g transform="translate(4,30)" s:x="4" s:y="10" s:pid="out0">
      <text x="5" y="-4">4</text>
    </g>
  </g>
  <g s:type="split" transform="translate(12,14)" s:width="5" s:height="40" id="cell_$split$,x,x,x,x,x,x,x,x,">
    <rect width="5" height="40" class="splitjoinBody" s:generic="body"/>
    <s:alias val="$_split_"/>
    <g s:x="0" s:y="20" s:pid="in"/>
    <g transform="translate(4,10)" s:x="4" s:y="10" s:pid="out0">
      <text x="5" y="-4">0:3</text>
    </g>
    <g transform="translate(4,30)" s:x="4" s:y="10" s:pid="out0">
      <text x="5" y="-4">0</text>
    </g>
  </g>
  <line x1="973" x2="983" y1="178" y2="178" class="net_24,25,26,27,28"/>
  <line x1="983" x2="983" y1="178" y2="138" class="net_24,25,26,27,28"/>
  <line x1="983" x2="863" y1="138" y2="138" class="net_24,25,26,27,28"/>
  <line x1="863" x2="863" y1="138" y2="211.5" class="net_24,25,26,27,28"/>
  <line x1="863" x2="626" y1="211.5" y2="211.5" class="net_24,25,26,27,28"/>
  <line x1="626" x2="626" y1="211.5" y2="170.5" class="net_24,25,26,27,28"/>
  <circle cx="626" cy="211.5" r="2" style="fill:#000" class="net_24,25,26,27,28"/>
  <circle cx="863" cy="138" r="2" style="fill:#000" class="net_24,25,26,27,28"/>
  <line x1="626" x2="651" y1="170.5" y2="170.5" class="net_24,25,26,27,28"/>
  <line x1="973" x2="1012.6666666666666" y1="178" y2="178" class="net_24,25,26,27,28"/>
  <line x1="973" x2="983" y1="178" y2="178" class="net_24,25,26,27,28"/>
  <line x1="983" x2="983" y1="178" y2="138" class="net_24,25,26,27,28"/>
  <line x1="983" x2="726" y1="138" y2="138" class="net_24,25,26,27,28"/>
  <line x1="726" x2="726" y1="138" y2="158" class="net_24,25,26,27,28"/>
  <circle cx="983" cy="178" r="2" style="fill:#000" class="net_24,25,26,27,28"/>
  <line x1="726" x2="786" y1="158" y2="158" class="net_24,25,26,27,28"/>
  <line x1="973" x2="983" y1="178" y2="178" class="net_24,25,26,27,28"/>
  <line x1="983" x2="983" y1="178" y2="233.5" class="net_24,25,26,27,28"/>
  <line x1="983" x2="716" y1="233.5" y2="233.5" class="net_24,25,26,27,28"/>
  <line x1="716" x2="716" y1="233.5" y2="211.5" class="net_24,25,26,27,28"/>
  <line x1="716" x2="58" y1="211.5" y2="211.5" class="net_24,25,26,27,28"/>
  <line x1="58" x2="58" y1="211.5" y2="331" class="net_24,25,26,27,28"/>
  <circle cx="716" cy="211.5" r="2" style="fill:#000" class="net_24,25,26,27,28"/>
  <line x1="58" x2="78" y1="331" y2="331" class="net_24,25,26,27,28"/>
  <line x1="586" x2="616" y1="242.5" y2="242.5" class="net_120"/>
  <line x1="616" x2="616" y1="242.5" y2="185.5" class="net_120"/>
  <circle cx="616" cy="242.5" r="2" style="fill:#000" class="net_120"/>
  <circle cx="616" cy="185.5" r="2" style="fill:#000" class="net_120"/>
  <line x1="616" x2="651" y1="185.5" y2="185.5" class="net_120"/>
  <line x1="586" x2="616" y1="242.5" y2="242.5" class="net_120"/>
  <line x1="616" x2="616" y1="242.5" y2="292.5" class="net_120"/>
  <circle cx="616" cy="292.5" r="2" style="fill:#000" class="net_120"/>
  <line x1="616" x2="651" y1="292.5" y2="292.5" class="net_120"/>
  <line x1="586" x2="616" y1="242.5" y2="242.5" class="net_120"/>
  <line x1="616" x2="616" y1="242.5" y2="107" class="net_120"/>
  <line x1="616" x2="1073" y1="107" y2="107" class="net_120"/>
  <line x1="586" x2="616" y1="242.5" y2="242.5" class="net_120"/>
  <line x1="616" x2="616" y1="242.5" y2="592.5" class="net_120"/>
  <line x1="616" x2="779" y1="592.5" y2="592.5" class="net_120"/>
  <line x1="973" x2="993" y1="332.5" y2="332.5" class="net_34,35,36,37,38"/>
  <line x1="993" x2="993" y1="332.5" y2="262.5" class="net_34,35,36,37,38"/>
  <line x1="993" x2="626" y1="262.5" y2="262.5" class="net_34,35,36,37,38"/>
  <line x1="626" x2="626" y1="262.5" y2="277.5" class="net_34,35,36,37,38"/>
  <circle cx="626" cy="262.5" r="2" style="fill:#000" class="net_34,35,36,37,38"/>
  <circle cx="993" cy="262.5" r="2" style="fill:#000" class="net_34,35,36,37,38"/>
  <circle cx="993" cy="332.5" r="2" style="fill:#000" class="net_34,35,36,37,38"/>
  <line x1="626" x2="651" y1="277.5" y2="277.5" class="net_34,35,36,37,38"/>
  <line x1="973" x2="993" y1="332.5" y2="332.5" class="net_34,35,36,37,38"/>
  <line x1="993" x2="993" y1="332.5" y2="193" class="net_34,35,36,37,38"/>
  <line x1="993" x2="1012.6666666666666" y1="193" y2="193" class="net_34,35,36,37,38"/>
  <line x1="973" x2="993" y1="332.5" y2="332.5" class="net_34,35,36,37,38"/>
  <line x1="993" x2="993" y1="332.5" y2="372.5" class="net_34,35,36,37,38"/>
  <line x1="993" x2="726" y1="372.5" y2="372.5" class="net_34,35,36,37,38"/>
  <line x1="726" x2="726" y1="372.5" y2="392.5" class="net_34,35,36,37,38"/>
  <line x1="726" x2="786" y1="392.5" y2="392.5" class="net_34,35,36,37,38"/>
  <line x1="973" x2="993" y1="332.5" y2="332.5" class="net_34,35,36,37,38"/>
  <line x1="993" x2="993" y1="332.5" y2="262.5" class="net_34,35,36,37,38"/>
  <line x1="993" x2="48" y1="262.5" y2="262.5" class="net_34,35,36,37,38"/>
  <line x1="48" x2="48" y1="262.5" y2="438.5" class="net_34,35,36,37,38"/>
  <line x1="48" x2="78" y1="438.5" y2="438.5" class="net_34,35,36,37,38"/>
  <line x1="83" x2="132" y1="321" y2="321" class="net_24,25,26,27"/>
  <line x1="132" x2="132" y1="321" y2="413.5" class="net_24,25,26,27"/>
  <circle cx="132" cy="413.5" r="2" style="fill:#000" class="net_24,25,26,27"/>
  <line x1="132" x2="181.33333333333334" y1="413.5" y2="413.5" class="net_24,25,26,27"/>
  <line x1="83" x2="132" y1="321" y2="321" class="net_24,25,26,27"/>
  <line x1="132" x2="132" y1="321" y2="473.5" class="net_24,25,26,27"/>
  <line x1="132" x2="559.3333333333333" y1="473.5" y2="473.5" class="net_24,25,26,27"/>
  <line x1="83" x2="181.33333333333334" y1="428.5" y2="428.5" class="net_34,35,36,37"/>
  <line x1="83" x2="122" y1="428.5" y2="428.5" class="net_34,35,36,37"/>
  <line x1="122" x2="122" y1="428.5" y2="514.5" class="net_34,35,36,37"/>
  <line x1="122" x2="726" y1="514.5" y2="514.5" class="net_34,35,36,37"/>
  <line x1="726" x2="726" y1="514.5" y2="532.5" class="net_34,35,36,37"/>
  <circle cx="122" cy="428.5" r="2" style="fill:#000" class="net_34,35,36,37"/>
  <line x1="726" x2="779" y1="532.5" y2="532.5" class="net_34,35,36,37"/>
  <line x1="180" x2="304" y1="341" y2="341" class="net_45"/>
  <line x1="203.33333333333334" x2="279" y1="421" y2="421" class="net_44"/>
  <line x1="279" x2="279" y1="421" y2="356" class="net_44"/>
  <line x1="279" x2="304" y1="356" y2="356" class="net_44"/>
  <line x1="397" x2="438" y1="293.5" y2="293.5" class="net_4"/>
  <line x1="394" x2="409" y1="348.5" y2="348.5" class="net_46"/>
  <line x1="409" x2="409" y1="348.5" y2="308.5" class="net_46"/>
  <line x1="409" x2="438" y1="308.5" y2="308.5" class="net_46"/>
  <line x1="584" x2="646" y1="1020.5" y2="1020.5" class="net_13"/>
  <line x1="1098" x2="1125" y1="587.5" y2="587.5" class="net_48"/>
  <line x1="1125" x2="1125" y1="587.5" y2="1083" class="net_48"/>
  <line x1="1125" x2="636" y1="1083" y2="1083" class="net_48"/>
  <line x1="636" x2="636" y1="1083" y2="1035.5" class="net_48"/>
  <line x1="636" x2="646" y1="1035.5" y2="1035.5" class="net_48"/>
  <line x1="334" x2="369" y1="348.5" y2="348.5" class="net_23"/>
  <line x1="334" x2="344" y1="348.5" y2="348.5" class="net_23"/>
  <line x1="344" x2="344" y1="348.5" y2="32" class="net_23"/>
  <circle cx="344" cy="348.5" r="2" style="fill:#000" class="net_23"/>
  <line x1="344" x2="1073" y1="32" y2="32" class="net_23"/>
  <line x1="1034.6666666666665" x2="1058" y1="185.5" y2="185.5" class="net_22"/>
  <line x1="1058" x2="1058" y1="185.5" y2="587.5" class="net_22"/>
  <circle cx="1058" cy="185.5" r="2" style="fill:#000" class="net_22"/>
  <line x1="1058" x2="1073" y1="587.5" y2="587.5" class="net_22"/>
  <line x1="1034.6666666666665" x2="1073" y1="185.5" y2="185.5" class="net_22"/>
  <line x1="83" x2="149" y1="341" y2="341" class="net_28"/>
  <line x1="83" x2="112" y1="448.5" y2="448.5" class="net_38"/>
  <line x1="112" x2="112" y1="448.5" y2="361" class="net_38"/>
  <line x1="112" x2="149" y1="361" y2="361" class="net_38"/>
  <line x1="674" x2="706" y1="352.5" y2="352.5" class="net_2"/>
  <line x1="706" x2="706" y1="352.5" y2="1039" class="net_2"/>
  <line x1="706" x2="983" y1="1039" y2="1039" class="net_2"/>
  <line x1="983" x2="983" y1="1039" y2="552.5" class="net_2"/>
  <circle cx="706" cy="352.5" r="2" style="fill:#000" class="net_2"/>
  <line x1="983" x2="1008" y1="552.5" y2="552.5" class="net_2"/>
  <line x1="674" x2="706" y1="352.5" y2="352.5" class="net_2"/>
  <line x1="706" x2="706" y1="352.5" y2="222.5" class="net_2"/>
  <line x1="706" x2="918" y1="222.5" y2="222.5" class="net_2"/>
  <line x1="918" x2="918" y1="222.5" y2="198" class="net_2"/>
  <line x1="918" x2="943" y1="198" y2="198" class="net_2"/>
  <line x1="674" x2="943" y1="352.5" y2="352.5" class="net_2"/>
  <line x1="674" x2="706" y1="352.5" y2="352.5" class="net_2"/>
  <line x1="706" x2="706" y1="352.5" y2="652.5" class="net_2"/>
  <circle cx="706" cy="652.5" r="2" style="fill:#000" class="net_2"/>
  <line x1="706" x2="779" y1="652.5" y2="652.5" class="net_2"/>
  <line x1="969.6666666666666" x2="1008" y1="532.5" y2="532.5" class="net_50,51,52,53,54,55,56,57"/>
  <line x1="908" x2="943" y1="178" y2="178" class="net_58,59,60,61,62"/>
  <line x1="908" x2="918" y1="462.5" y2="462.5" class="net_63,64,65,66,67"/>
  <line x1="918" x2="918" y1="462.5" y2="332.5" class="net_63,64,65,66,67"/>
  <line x1="918" x2="943" y1="332.5" y2="332.5" class="net_63,64,65,66,67"/>
  <line x1="464" x2="486" y1="545.5" y2="545.5" class="net_122"/>
  <line x1="486" x2="486" y1="545.5" y2="87" class="net_122"/>
  <circle cx="486" cy="545.5" r="2" style="fill:#000" class="net_122"/>
  <line x1="486" x2="1073" y1="87" y2="87" class="net_122"/>
  <line x1="464" x2="486" y1="545.5" y2="545.5" class="net_122"/>
  <line x1="486" x2="486" y1="545.5" y2="833.5" class="net_122"/>
  <line x1="486" x2="562.6666666666666" y1="833.5" y2="833.5" class="net_122"/>
  <line x1="464" x2="726" y1="545.5" y2="545.5" class="net_122"/>
  <line x1="726" x2="726" y1="545.5" y2="552.5" class="net_122"/>
  <line x1="726" x2="779" y1="552.5" y2="552.5" class="net_122"/>
  <line x1="464" x2="486" y1="545.5" y2="545.5" class="net_122"/>
  <line x1="486" x2="486" y1="545.5" y2="792.5" class="net_122"/>
  <line x1="486" x2="696" y1="792.5" y2="792.5" class="net_122"/>
  <line x1="696" x2="696" y1="792.5" y2="612.5" class="net_122"/>
  <circle cx="486" cy="792.5" r="2" style="fill:#000" class="net_122"/>
  <line x1="696" x2="779" y1="612.5" y2="612.5" class="net_122"/>
  <line x1="468" x2="546" y1="301" y2="301" class="net_47"/>
  <line x1="546" x2="546" y1="301" y2="127" class="net_47"/>
  <line x1="546" x2="1083" y1="127" y2="127" class="net_47"/>
  <circle cx="546" cy="301" r="2" style="fill:#000" class="net_47"/>
  <line x1="1083" x2="1083" y1="127" y2="112" class="net_47"/>
  <line x1="468" x2="546" y1="301" y2="301" class="net_47"/>
  <line x1="546" x2="546" y1="301" y2="760.5" class="net_47"/>
  <line x1="546" x2="569.3333333333333" y1="760.5" y2="760.5" class="net_47"/>
  <line x1="569.3333333333333" x2="569.3333333333333" y1="760.5" y2="745.5" class="net_47"/>
  <line x1="468" x2="546" y1="301" y2="301" class="net_47"/>
  <line x1="546" x2="546" y1="301" y2="493.5" class="net_47"/>
  <line x1="546" x2="569.3333333333333" y1="493.5" y2="493.5" class="net_47"/>
  <circle cx="546" cy="493.5" r="2" style="fill:#000" class="net_47"/>
  <line x1="569.3333333333333" x2="569.3333333333333" y1="493.5" y2="478.5" class="net_47"/>
  <line x1="468" x2="546" y1="301" y2="301" class="net_47"/>
  <line x1="546" x2="546" y1="301" y2="127" class="net_47"/>
  <line x1="546" x2="636" y1="127" y2="127" class="net_47"/>
  <line x1="636" x2="636" y1="127" y2="200.5" class="net_47"/>
  <line x1="636" x2="796" y1="200.5" y2="200.5" class="net_47"/>
  <circle cx="636" cy="127" r="2" style="fill:#000" class="net_47"/>
  <line x1="796" x2="796" y1="200.5" y2="183" class="net_47"/>
  <line x1="516" x2="559.3333333333333" y1="720.5" y2="720.5" class="net_x,x,x,x,x,x,x,x"/>
  <line x1="516" x2="516" y1="720.5" y2="770.5" class="net_x,x,x,x,x,x,x,x"/>
  <line x1="516" x2="596" y1="770.5" y2="770.5" class="net_x,x,x,x,x,x,x,x"/>
  <line x1="596" x2="596" y1="770.5" y2="750.5" class="net_x,x,x,x,x,x,x,x"/>
  <line x1="596" x2="649.3333333333334" y1="750.5" y2="750.5" class="net_x,x,x,x,x,x,x,x"/>
  <line x1="462" x2="526" y1="610.5" y2="610.5" class="net_5,6,7,8,9,10,11,12"/>
  <line x1="526" x2="526" y1="610.5" y2="740.5" class="net_5,6,7,8,9,10,11,12"/>
  <line x1="526" x2="559.3333333333333" y1="740.5" y2="740.5" class="net_5,6,7,8,9,10,11,12"/>
  <line x1="536" x2="536" y1="484.5" y2="453.5" class="net_x,x,x,x"/>
  <line x1="536" x2="559.3333333333333" y1="453.5" y2="453.5" class="net_x,x,x,x"/>
  <line x1="536" x2="536" y1="484.5" y2="633.5" class="net_x,x,x,x"/>
  <line x1="536" x2="649.3333333333334" y1="633.5" y2="633.5" class="net_x,x,x,x"/>
  <line x1="1093" x2="1135" y1="97" y2="97" class="net_68"/>
  <line x1="1135" x2="1135" y1="97" y2="1072" class="net_68"/>
  <line x1="1135" x2="496" y1="1072" y2="1072" class="net_68"/>
  <line x1="496" x2="496" y1="1072" y2="813.5" class="net_68"/>
  <line x1="496" x2="562.6666666666666" y1="813.5" y2="813.5" class="net_68"/>
  <line x1="462" x2="506" y1="675.5" y2="675.5" class="net_3"/>
  <line x1="506" x2="506" y1="675.5" y2="853.5" class="net_3"/>
  <line x1="506" x2="572.6666666666666" y1="853.5" y2="853.5" class="net_3"/>
  <circle cx="506" cy="675.5" r="2" style="fill:#000" class="net_3"/>
  <circle cx="506" cy="853.5" r="2" style="fill:#000" class="net_3"/>
  <line x1="572.6666666666666" x2="572.6666666666666" y1="853.5" y2="838.5" class="net_3"/>
  <line x1="462" x2="506" y1="675.5" y2="675.5" class="net_3"/>
  <line x1="506" x2="506" y1="675.5" y2="781.5" class="net_3"/>
  <line x1="506" x2="659.3333333333334" y1="781.5" y2="781.5" class="net_3"/>
  <circle cx="506" cy="781.5" r="2" style="fill:#000" class="net_3"/>
  <line x1="659.3333333333334" x2="659.3333333333334" y1="781.5" y2="755.5" class="net_3"/>
  <line x1="462" x2="659.3333333333334" y1="675.5" y2="675.5" class="net_3"/>
  <line x1="659.3333333333334" x2="659.3333333333334" y1="675.5" y2="638.5" class="net_3"/>
  <line x1="462" x2="506" y1="675.5" y2="675.5" class="net_3"/>
  <line x1="506" x2="506" y1="675.5" y2="503.5" class="net_3"/>
  <line x1="506" x2="596" y1="503.5" y2="503.5" class="net_3"/>
  <line x1="596" x2="596" y1="503.5" y2="432.5" class="net_3"/>
  <line x1="596" x2="726" y1="432.5" y2="432.5" class="net_3"/>
  <line x1="726" x2="726" y1="432.5" y2="492.5" class="net_3"/>
  <line x1="726" x2="898" y1="492.5" y2="492.5" class="net_3"/>
  <circle cx="506" cy="503.5" r="2" style="fill:#000" class="net_3"/>
  <circle cx="596" cy="432.5" r="2" style="fill:#000" class="net_3"/>
  <circle cx="726" cy="432.5" r="2" style="fill:#000" class="net_3"/>
  <line x1="898" x2="898" y1="492.5" y2="477.5" class="net_3"/>
  <line x1="462" x2="506" y1="675.5" y2="675.5" class="net_3"/>
  <line x1="506" x2="506" y1="675.5" y2="432.5" class="net_3"/>
  <line x1="506" x2="898" y1="432.5" y2="432.5" class="net_3"/>
  <line x1="898" x2="898" y1="432.5" y2="193" class="net_3"/>
  <line x1="462" x2="506" y1="675.5" y2="675.5" class="net_3"/>
  <line x1="506" x2="506" y1="675.5" y2="1061" class="net_3"/>
  <line x1="506" x2="959.6666666666666" y1="1061" y2="1061" class="net_3"/>
  <line x1="959.6666666666666" x2="959.6666666666666" y1="1061" y2="547.5" class="net_3"/>
  <line x1="579.3333333333333" x2="649.3333333333334" y1="730.5" y2="730.5" class="net_69,70,71,72,73,74,75,76"/>
  <line x1="579.3333333333333" x2="606" y1="463.5" y2="463.5" class="net_77,78,79,80"/>
  <line x1="606" x2="606" y1="463.5" y2="613.5" class="net_77,78,79,80"/>
  <line x1="606" x2="649.3333333333334" y1="613.5" y2="613.5" class="net_77,78,79,80"/>
  <line x1="673" x2="686" y1="285" y2="285" class="net_39,40,41,42,43"/>
  <line x1="686" x2="686" y1="285" y2="412.5" class="net_39,40,41,42,43"/>
  <line x1="686" x2="786" y1="412.5" y2="412.5" class="net_39,40,41,42,43"/>
  <line x1="676" x2="716" y1="1028" y2="1028" class="net_49"/>
  <line x1="716" x2="716" y1="1028" y2="482.5" class="net_49"/>
  <line x1="716" x2="796" y1="482.5" y2="482.5" class="net_49"/>
  <circle cx="716" cy="1028" r="2" style="fill:#000" class="net_49"/>
  <line x1="796" x2="796" y1="482.5" y2="417.5" class="net_49"/>
  <line x1="676" x2="898" y1="1028" y2="1028" class="net_49"/>
  <line x1="898" x2="898" y1="1028" y2="537.5" class="net_49"/>
  <line x1="806" x2="863" y1="402.5" y2="402.5" class="net_94,95,96,97,98"/>
  <line x1="863" x2="863" y1="402.5" y2="452.5" class="net_94,95,96,97,98"/>
  <line x1="863" x2="888" y1="452.5" y2="452.5" class="net_94,95,96,97,98"/>
  <line x1="809" x2="873" y1="293.5" y2="293.5" class="net_125,126,127,128,129"/>
  <line x1="873" x2="873" y1="293.5" y2="472.5" class="net_125,126,127,128,129"/>
  <circle cx="873" cy="293.5" r="2" style="fill:#000" class="net_125,126,127,128,129"/>
  <line x1="873" x2="888" y1="472.5" y2="472.5" class="net_125,126,127,128,129"/>
  <line x1="809" x2="873" y1="293.5" y2="293.5" class="net_125,126,127,128,129"/>
  <line x1="873" x2="873" y1="293.5" y2="188" class="net_125,126,127,128,129"/>
  <line x1="873" x2="888" y1="188" y2="188" class="net_125,126,127,128,129"/>
  <line x1="673" x2="786" y1="178" y2="178" class="net_29,30,31,32,33"/>
  <line x1="806" x2="888" y1="168" y2="168" class="net_99,100,101,102,103"/>
  <line x1="1038" x2="1048" y1="532.5" y2="532.5" class="net_14,15,16,17,18,19,20,21"/>
  <line x1="1048" x2="1048" y1="532.5" y2="1050" class="net_14,15,16,17,18,19,20,21"/>
  <line x1="1048" x2="873" y1="1050" y2="1050" class="net_14,15,16,17,18,19,20,21"/>
  <line x1="873" x2="873" y1="1050" y2="512.5" class="net_14,15,16,17,18,19,20,21"/>
  <line x1="873" x2="888" y1="512.5" y2="512.5" class="net_14,15,16,17,18,19,20,21"/>
  <line x1="1038" x2="1048" y1="532.5" y2="532.5" class="net_14,15,16,17,18,19,20,21"/>
  <line x1="1048" x2="1048" y1="532.5" y2="502.5" class="net_14,15,16,17,18,19,20,21"/>
  <line x1="1048" x2="918" y1="502.5" y2="502.5" class="net_14,15,16,17,18,19,20,21"/>
  <line x1="918" x2="918" y1="502.5" y2="542.5" class="net_14,15,16,17,18,19,20,21"/>
  <circle cx="1048" cy="532.5" r="2" style="fill:#000" class="net_14,15,16,17,18,19,20,21"/>
  <line x1="918" x2="949.6666666666666" y1="542.5" y2="542.5" class="net_14,15,16,17,18,19,20,21"/>
  <line x1="1038" x2="1073" y1="532.5" y2="532.5" class="net_14,15,16,17,18,19,20,21"/>
  <line x1="810" x2="888" y1="532.5" y2="532.5" class="net_104,105,106,107,108,109,110,111"/>
  <line x1="908" x2="949.6666666666666" y1="522.5" y2="522.5" class="net_112,113,114,115,116,117,118,119"/>
  <line x1="669.3333333333334" x2="726" y1="623.5" y2="623.5" class="net_90,91,92,93"/>
  <line x1="726" x2="726" y1="623.5" y2="632.5" class="net_90,91,92,93"/>
  <line x1="726" x2="779" y1="632.5" y2="632.5" class="net_90,91,92,93"/>
  <line x1="669.3333333333334" x2="686" y1="740.5" y2="740.5" class="net_82,83,84,85,86,87,88,89"/>
  <line x1="686" x2="686" y1="740.5" y2="672.5" class="net_82,83,84,85,86,87,88,89"/>
  <line x1="686" x2="779" y1="672.5" y2="672.5" class="net_82,83,84,85,86,87,88,89"/>
  <line x1="655.7142857142857" x2="726" y1="856" y2="856" class="net_81,81,81,81,81,81,81,81"/>
  <line x1="726" x2="726" y1="856" y2="692.5" class="net_81,81,81,81,81,81,81,81"/>
  <line x1="726" x2="779" y1="692.5" y2="692.5" class="net_81,81,81,81,81,81,81,81"/>
  <line x1="582.6666666666666" x2="650.2142857142857" y1="823.5" y2="823.5" class="net_81"/>
  <line x1="650.2142857142857" x2="650.2142857142857" y1="823.5" y2="845.5" class="net_81"/>
  <line x1="582.6666666666666" x2="596" y1="823.5" y2="823.5" class="net_81"/>
  <line x1="596" x2="596" y1="823.5" y2="866" class="net_81"/>
  <circle cx="596" cy="823.5" r="2" style="fill:#000" class="net_81"/>
  <circle cx="596" cy="866" r="2" style="fill:#000" class="net_81"/>
  <line x1="596" x2="649.7142857142857" y1="866" y2="866" class="net_81"/>
  <line x1="582.6666666666666" x2="596" y1="823.5" y2="823.5" class="net_81"/>
  <line x1="596" x2="596" y1="823.5" y2="886" class="net_81"/>
  <circle cx="596" cy="886" r="2" style="fill:#000" class="net_81"/>
  <line x1="596" x2="649.7142857142857" y1="886" y2="886" class="net_81"/>
  <line x1="582.6666666666666" x2="596" y1="823.5" y2="823.5" class="net_81"/>
  <line x1="596" x2="596" y1="823.5" y2="906" class="net_81"/>
  <circle cx="596" cy="906" r="2" style="fill:#000" class="net_81"/>
  <line x1="596" x2="649.7142857142857" y1="906" y2="906" class="net_81"/>
  <line x1="582.6666666666666" x2="596" y1="823.5" y2="823.5" class="net_81"/>
  <line x1="596" x2="596" y1="823.5" y2="926" class="net_81"/>
  <circle cx="596" cy="926" r="2" style="fill:#000" class="net_81"/>
  <line x1="596" x2="649.7142857142857" y1="926" y2="926" class="net_81"/>
  <line x1="582.6666666666666" x2="596" y1="823.5" y2="823.5" class="net_81"/>
  <line x1="596" x2="596" y1="823.5" y2="946" class="net_81"/>
  <circle cx="596" cy="946" r="2" style="fill:#000" class="net_81"/>
  <line x1="596" x2="649.7142857142857" y1="946" y2="946" class="net_81"/>
  <line x1="582.6666666666666" x2="596" y1="823.5" y2="823.5" class="net_81"/>
  <line x1="596" x2="596" y1="823.5" y2="966" class="net_81"/>
  <circle cx="596" cy="966" r="2" style="fill:#000" class="net_81"/>
  <line x1="596" x2="649.7142857142857" y1="966" y2="966" class="net_81"/>
  <line x1="582.6666666666666" x2="596" y1="823.5" y2="823.5" class="net_81"/>
  <line x1="596" x2="596" y1="823.5" y2="1005.5" class="net_81"/>
  <line x1="596" x2="650.2142857142857" y1="1005.5" y2="1005.5" class="net_81"/>
  <line x1="650.2142857142857" x2="650.2142857142857" y1="1005.5" y2="986.5" class="net_81"/>
</svg>
