<svg xmlns="http://www.w3.org/2000/svg" xmlns:xlink="http://www.w3.org/1999/xlink" xmlns:s="https://github.com/nturley/netlistsvg" width="419" height="1778.5">
  <style>svg {
    stroke:#000;
    fill:none;
  }
  text {
    fill:#000;
    stroke:none;
    font-size:10px;
    font-weight: bold;
    font-family: "Courier New", monospace;
  }
  .nodelabel {
    text-anchor: middle;
  }
  .inputPortLabel {
    text-anchor: end;
  }
  .splitjoinBody {
    fill:#000;
  }</style>
  <g s:type="and" transform="translate(192,1614)" s:width="30" s:height="25" id="cell_$auto$ghdl.cc:936:import_module$33">
    <s:alias val="$and"/>
    <s:alias val="$reduce_and"/>
    <s:alias val="$logic_and"/>
    <s:alias val="$_AND_"/>
    <path d="M0,0 L0,25 L15,25 A15 12.5 0 0 0 15,0 Z" class="cell_$auto$ghdl.cc:936:import_module$33"/>
    <text x="13" y="15" class="nodelabel" style="font-size:7px">AND</text>
    <g s:x="0" s:y="5" s:pid="A"/>
    <g s:x="0" s:y="20" s:pid="B"/>
    <g s:x="30" s:y="12.5" s:pid="Y"/>
  </g>
  <g s:type="or" transform="translate(192,1341.5)" s:width="30" s:height="25" id="cell_$auto$ghdl.cc:944:import_module$35">
    <s:alias val="$or"/>
    <s:alias val="$reduce_or"/>
    <s:alias val="$reduce_bool"/>
    <s:alias val="$logic_or"/>
    <s:alias val="$_OR_"/>
    <path d="M0,25 L0,25 L15,25 A15 12.5 0 0 0 15,0 L0,0" class="cell_$auto$ghdl.cc:944:import_module$35"/>
    <path d="M0,0 A30 25 0 0 1 0,25" class="cell_$auto$ghdl.cc:944:import_module$35"/>
    <text x="17" y="15" class="nodelabel" style="font-size:7px">OR</text>
    <g s:x="3" s:y="5" s:pid="A"/>
    <g s:x="3" s:y="20" s:pid="B"/>
    <g s:x="30" s:y="12.5" s:pid="Y"/>
  </g>
  <g s:type="not" transform="translate(266,1746.5)" s:width="30" s:height="20" id="cell_:28">
    <s:alias val="$_NOT_"/>
    <s:alias val="$not"/>
    <s:alias val="$logic_not"/>
    <path d="M0,0 L0,20 L20,10 Z" class="cell_:28"/>
    <circle cx="23" cy="10" r="3" class="cell_:28"/>
    <text x="8" y="12" class="nodelabel" style="font-size:6px">NOT</text>
    <g s:x="0" s:y="10" s:pid="A"/>
    <g s:x="25" s:y="10" s:pid="Y"/>
  </g>
  <g s:type="reduce_xor" transform="translate(267,1276.5)" s:width="33" s:height="25" id="cell_:29">
    <s:alias val="$xor"/>
    <s:alias val="$reduce_xor"/>
    <s:alias val="$_XOR_"/>
    <path d="M3,0 A30 25 0 0 1 3,25 A30 25 0 0 0 33,12.5 A30 25 0 0 0 3,0" class="cell_:29"/>
    <path d="M0,0 A30 25 0 0 1 0,25" class="cell_:29"/>
    <text x="18" y="15" class="nodelabel" style="font-size:7px">XOR</text>
    <g s:x="3" s:y="5" s:pid="A"/>
    <g s:x="3" s:y="20" s:pid="B"/>
    <g s:x="33" s:y="12.5" s:pid="Y"/>
  </g>
  <g s:type="not" transform="translate(266,1681.5)" s:width="30" s:height="20" id="cell_:30">
    <s:alias val="$_NOT_"/>
    <s:alias val="$not"/>
    <s:alias val="$logic_not"/>
    <path d="M0,0 L0,20 L20,10 Z" class="cell_:30"/>
    <circle cx="23" cy="10" r="3" class="cell_:30"/>
    <text x="8" y="12" class="nodelabel" style="font-size:6px">NOT</text>
    <g s:x="0" s:y="10" s:pid="A"/>
    <g s:x="25" s:y="10" s:pid="Y"/>
  </g>
  <g s:type="not" transform="translate(266,1344)" s:width="30" s:height="20" id="cell_:31">
    <s:alias val="$_NOT_"/>
    <s:alias val="$not"/>
    <s:alias val="$logic_not"/>
    <path d="M0,0 L0,20 L20,10 Z" class="cell_:31"/>
    <circle cx="23" cy="10" r="3" class="cell_:31"/>
    <text x="8" y="12" class="nodelabel" style="font-size:6px">NOT</text>
    <g s:x="0" s:y="10" s:pid="A"/>
    <g s:x="25" s:y="10" s:pid="Y"/>
  </g>
  <g s:type="reduce_nxor" transform="translate(262,1549)" s:width="33" s:height="25" id="cell_:32">
    <s:alias val="$xnor"/>
    <s:alias val="$reduce_xnor"/>
    <s:alias val="$_XNOR_"/>
    <path d="M3,0 A30 25 0 0 1 3,25 A30 25 0 0 0 33,12.5 A30 25 0 0 0 3,0" class="cell_:32"/>
    <path d="M0,0 A30 25 0 0 1 0,25" class="cell_:32"/>
    <circle cx="35" cy="12.5" r="3" class="cell_:32"/>
    <text x="18" y="15" class="nodelabel" style="font-size:7px">XNOR</text>
    <g s:x="3" s:y="5" s:pid="A"/>
    <g s:x="3" s:y="20" s:pid="B"/>
    <g s:x="38" s:y="12.5" s:pid="Y"/>
  </g>
  <g s:type="or" transform="translate(266,279.5)" s:width="30" s:height="25" id="cell_:33">
    <s:alias val="$or"/>
    <s:alias val="$reduce_or"/>
    <s:alias val="$reduce_bool"/>
    <s:alias val="$logic_or"/>
    <s:alias val="$_OR_"/>
    <path d="M0,25 L0,25 L15,25 A15 12.5 0 0 0 15,0 L0,0" class="cell_:33"/>
    <path d="M0,0 A30 25 0 0 1 0,25" class="cell_:33"/>
    <text x="17" y="15" class="nodelabel" style="font-size:7px">OR</text>
    <g s:x="3" s:y="5" s:pid="A"/>
    <g s:x="3" s:y="20" s:pid="B"/>
    <g s:x="30" s:y="12.5" s:pid="Y"/>
  </g>
  <g s:type="and" transform="translate(266,214.5)" s:width="30" s:height="25" id="cell_:34">
    <s:alias val="$and"/>
    <s:alias val="$reduce_and"/>
    <s:alias val="$logic_and"/>
    <s:alias val="$_AND_"/>
    <path d="M0,0 L0,25 L15,25 A15 12.5 0 0 0 15,0 Z" class="cell_:34"/>
    <text x="13" y="15" class="nodelabel" style="font-size:7px">AND</text>
    <g s:x="0" s:y="5" s:pid="A"/>
    <g s:x="0" s:y="20" s:pid="B"/>
    <g s:x="30" s:y="12.5" s:pid="Y"/>
  </g>
  <g s:type="reduce_xor" transform="translate(264.5,84.5)" s:width="33" s:height="25" id="cell_:35">
    <s:alias val="$xor"/>
    <s:alias val="$reduce_xor"/>
    <s:alias val="$_XOR_"/>
    <path d="M3,0 A30 25 0 0 1 3,25 A30 25 0 0 0 33,12.5 A30 25 0 0 0 3,0" class="cell_:35"/>
    <path d="M0,0 A30 25 0 0 1 0,25" class="cell_:35"/>
    <text x="18" y="15" class="nodelabel" style="font-size:7px">XOR</text>
    <g s:x="3" s:y="5" s:pid="A"/>
    <g s:x="3" s:y="20" s:pid="B"/>
    <g s:x="33" s:y="12.5" s:pid="Y"/>
  </g>
  <g s:type="mux" transform="translate(274.3333333333333,1200.5)" s:width="20" s:height="40" id="cell_:36">
    <s:alias val="$pmux"/>
    <s:alias val="$mux"/>
    <s:alias val="$_MUX_"/>
    <path d="M0,0 L20,10 L20,30 L0,40 Z" class="cell_:36"/>
    <g s:x="0" s:y="10" s:pid="A"/>
    <g s:x="0" s:y="30" s:pid="B"/>
    <g s:x="10" s:y="35" s:pid="S"/>
    <g s:x="20" s:y="20" s:pid="Y"/>
  </g>
  <g s:type="not" transform="translate(82,369.5)" s:width="30" s:height="20" id="cell_:39">
    <s:alias val="$_NOT_"/>
    <s:alias val="$not"/>
    <s:alias val="$logic_not"/>
    <path d="M0,0 L0,20 L20,10 Z" class="cell_:39"/>
    <circle cx="23" cy="10" r="3" class="cell_:39"/>
    <text x="8" y="12" class="nodelabel" style="font-size:6px">NOT</text>
    <g s:x="0" s:y="10" s:pid="A"/>
    <g s:x="25" s:y="10" s:pid="Y"/>
  </g>
  <g s:type="eq" transform="translate(83.66666666666667,489.5)" s:width="25" s:height="25" id="cell_:42">
    <s:alias val="$eq"/>
    <circle r="12.5" cx="12.5" cy="12.5" class="cell_:42"/>
    <line x1="7.5" x2="17.5" y1="10" y2="10" class="cell_:42"/>
    <line x1="7.5" x2="17.5" y1="15" y2="15" class="cell_:42"/>
    <g s:x="3" s:y="5" s:pid="A"/>
    <g s:x="3" s:y="20" s:pid="B"/>
    <g s:x="25" s:y="12.5" s:pid="Y"/>
  </g>
  <g s:type="eq" transform="translate(83.66666666666667,549.5)" s:width="25" s:height="25" id="cell_:45">
    <s:alias val="$eq"/>
    <circle r="12.5" cx="12.5" cy="12.5" class="cell_:45"/>
    <line x1="7.5" x2="17.5" y1="10" y2="10" class="cell_:45"/>
    <line x1="7.5" x2="17.5" y1="15" y2="15" class="cell_:45"/>
    <g s:x="3" s:y="5" s:pid="A"/>
    <g s:x="3" s:y="20" s:pid="B"/>
    <g s:x="25" s:y="12.5" s:pid="Y"/>
  </g>
  <g s:type="mux" transform="translate(274.3333333333333,339.5)" s:width="20" s:height="40" id="cell_:48">
    <s:alias val="$pmux"/>
    <s:alias val="$mux"/>
    <s:alias val="$_MUX_"/>
    <path d="M0,0 L20,10 L20,30 L0,40 Z" class="cell_:48"/>
    <g s:x="0" s:y="10" s:pid="A"/>
    <g s:x="0" s:y="30" s:pid="B"/>
    <g s:x="10" s:y="35" s:pid="S"/>
    <g s:x="20" s:y="20" s:pid="Y"/>
  </g>
  <g s:type="add" transform="translate(272.6666666666667,19.5)" s:width="25" s:height="25" id="cell_:49">
    <s:alias val="$add"/>
    <circle r="12.5" cx="12.5" cy="12.5" class="cell_:49"/>
    <line x1="7.5" x2="17.5" y1="12.5" y2="12.5" class="cell_:49"/>
    <line x1="12.5" x2="12.5" y1="7.5" y2="17.5" class="cell_:49"/>
    <g s:x="3" s:y="5" s:pid="A"/>
    <g s:x="3" s:y="20" s:pid="B"/>
    <g s:x="25" s:y="12.5" s:pid="Y"/>
  </g>
  <g s:type="sub" transform="translate(272.6666666666667,149.5)" s:width="25" s:height="25" id="cell_:50">
    <s:alias val="$sub"/>
    <circle r="12.5" cx="12.5" cy="12.5" class="cell_:50"/>
    <line x1="7.5" x2="17.5" y1="12.5" y2="12.5" class="cell_:50"/>
    <g s:x="3" s:y="5" s:pid="A"/>
    <g s:x="3" s:y="20" s:pid="B"/>
    <g s:x="25" s:y="12.5" s:pid="Y"/>
  </g>
  <g s:type="eq" transform="translate(196,833)" s:width="25" s:height="25" id="cell_:52">
    <s:alias val="$eq"/>
    <circle r="12.5" cx="12.5" cy="12.5" class="cell_:52"/>
    <line x1="7.5" x2="17.5" y1="10" y2="10" class="cell_:52"/>
    <line x1="7.5" x2="17.5" y1="15" y2="15" class="cell_:52"/>
    <g s:x="3" s:y="5" s:pid="A"/>
    <g s:x="3" s:y="20" s:pid="B"/>
    <g s:x="25" s:y="12.5" s:pid="Y"/>
  </g>
  <g s:type="mux" transform="translate(274.3333333333333,722)" s:width="20" s:height="40" id="cell_:53">
    <s:alias val="$pmux"/>
    <s:alias val="$mux"/>
    <s:alias val="$_MUX_"/>
    <path d="M0,0 L20,10 L20,30 L0,40 Z" class="cell_:53"/>
    <g s:x="0" s:y="10" s:pid="A"/>
    <g s:x="0" s:y="30" s:pid="B"/>
    <g s:x="10" s:y="35" s:pid="S"/>
    <g s:x="20" s:y="20" s:pid="Y"/>
  </g>
  <g s:type="lt" transform="translate(196,697)" s:width="25" s:height="25" id="cell_:56">
    <s:alias val="$lt"/>
    <circle r="12.5" cx="12.5" cy="12.5" class="cell_:56"/>
    <line x1="7.5" x2="17.5" y1="12.5" y2="7.5" class="cell_:56"/>
    <line x1="7.5" x2="17.5" y1="12.5" y2="17.5" class="cell_:56"/>
    <g s:x="3" s:y="5" s:pid="A"/>
    <g s:x="3" s:y="20" s:pid="B"/>
    <g s:x="25" s:y="12.5" s:pid="Y"/>
  </g>
  <g s:type="mux" transform="translate(274.3333333333333,656)" s:width="20" s:height="40" id="cell_:57">
    <s:alias val="$pmux"/>
    <s:alias val="$mux"/>
    <s:alias val="$_MUX_"/>
    <path d="M0,0 L20,10 L20,30 L0,40 Z" class="cell_:57"/>
    <g s:x="0" s:y="10" s:pid="A"/>
    <g s:x="0" s:y="30" s:pid="B"/>
    <g s:x="10" s:y="35" s:pid="S"/>
    <g s:x="20" s:y="20" s:pid="Y"/>
  </g>
  <g s:type="mux" transform="translate(197.66666666666666,920.5)" s:width="20" s:height="40" id="cell_:75">
    <s:alias val="$pmux"/>
    <s:alias val="$mux"/>
    <s:alias val="$_MUX_"/>
    <path d="M0,0 L20,10 L20,30 L0,40 Z" class="cell_:75"/>
    <g s:x="0" s:y="10" s:pid="A"/>
    <g s:x="0" s:y="30" s:pid="B"/>
    <g s:x="10" s:y="35" s:pid="S"/>
    <g s:x="20" s:y="20" s:pid="Y"/>
  </g>
  <g s:type="add" transform="translate(85.33333333333333,1080.5)" s:width="25" s:height="25" id="cell_:81">
    <s:alias val="$add"/>
    <circle r="12.5" cx="12.5" cy="12.5" class="cell_:81"/>
    <line x1="7.5" x2="17.5" y1="12.5" y2="12.5" class="cell_:81"/>
    <line x1="12.5" x2="12.5" y1="7.5" y2="17.5" class="cell_:81"/>
    <g s:x="3" s:y="5" s:pid="A"/>
    <g s:x="3" s:y="20" s:pid="B"/>
    <g s:x="25" s:y="12.5" s:pid="Y"/>
  </g>
  <g s:type="mux" transform="translate(197.66666666666666,1005.5)" s:width="20" s:height="40" id="cell_:83">
    <s:alias val="$pmux"/>
    <s:alias val="$mux"/>
    <s:alias val="$_MUX_"/>
    <path d="M0,0 L20,10 L20,30 L0,40 Z" class="cell_:83"/>
    <g s:x="0" s:y="10" s:pid="A"/>
    <g s:x="0" s:y="30" s:pid="B"/>
    <g s:x="10" s:y="35" s:pid="S"/>
    <g s:x="20" s:y="20" s:pid="Y"/>
  </g>
  <g s:type="dff" transform="translate(270,1474)" s:width="30" s:height="40" id="cell_:86">
    <s:alias val="$dff"/>
    <s:alias val="$_DFF_"/>
    <s:alias val="$_DFF_P_"/>
    <rect width="30" height="40" x="0" y="0" class="cell_:86"/>
    <path d="M0,35 L5,30 L0,25" class="cell_:86"/>
    <g s:x="30" s:y="10" s:pid="Q"/>
    <g s:x="0" s:y="30" s:pid="CLK"/>
    <g s:x="0" s:y="30" s:pid="C"/>
    <g s:x="0" s:y="10" s:pid="D"/>
  </g>
  <g s:type="mux" transform="translate(196.33333333333334,763)" s:width="20" s:height="40" id="cell_:87">
    <s:alias val="$pmux"/>
    <s:alias val="$mux"/>
    <s:alias val="$_MUX_"/>
    <path d="M0,0 L20,10 L20,30 L0,40 Z" class="cell_:87"/>
    <g s:x="0" s:y="10" s:pid="A"/>
    <g s:x="0" s:y="30" s:pid="B"/>
    <g s:x="10" s:y="35" s:pid="S"/>
    <g s:x="20" s:y="20" s:pid="Y"/>
  </g>
  <g s:type="dff" transform="translate(270,855.5)" s:width="30" s:height="40" id="cell_:88">
    <s:alias val="$dff"/>
    <s:alias val="$_DFF_"/>
    <s:alias val="$_DFF_P_"/>
    <rect width="30" height="40" x="0" y="0" class="cell_:88"/>
    <path d="M0,35 L5,30 L0,25" class="cell_:88"/>
    <g s:x="30" s:y="10" s:pid="Q"/>
    <g s:x="0" s:y="30" s:pid="CLK"/>
    <g s:x="0" s:y="30" s:pid="C"/>
    <g s:x="0" s:y="10" s:pid="D"/>
  </g>
  <g s:type="dff" transform="translate(270,930.5)" s:width="30" s:height="40" id="cell_:89">
    <s:alias val="$dff"/>
    <s:alias val="$_DFF_"/>
    <s:alias val="$_DFF_P_"/>
    <rect width="30" height="40" x="0" y="0" class="cell_:89"/>
    <path d="M0,35 L5,30 L0,25" class="cell_:89"/>
    <g s:x="30" s:y="10" s:pid="Q"/>
    <g s:x="0" s:y="30" s:pid="CLK"/>
    <g s:x="0" s:y="30" s:pid="C"/>
    <g s:x="0" s:y="10" s:pid="D"/>
  </g>
  <g s:type="dff" transform="translate(270,1125.5)" s:width="30" s:height="40" id="cell_:90">
    <s:alias val="$dff"/>
    <s:alias val="$_DFF_"/>
    <s:alias val="$_DFF_P_"/>
    <rect width="30" height="40" x="0" y="0" class="cell_:90"/>
    <path d="M0,35 L5,30 L0,25" class="cell_:90"/>
    <g s:x="30" s:y="10" s:pid="Q"/>
    <g s:x="0" s:y="30" s:pid="CLK"/>
    <g s:x="0" s:y="30" s:pid="C"/>
    <g s:x="0" s:y="10" s:pid="D"/>
  </g>
  <g s:type="inputExt" transform="translate(82,1336.5)" s:width="30" s:height="20" id="cell_a">
    <text x="15" y="-4" class="nodelabel cell_a" s:attribute="ref">a</text>
    <s:alias val="$_inputExt_"/>
    <path d="M0,0 L0,20 L15,20 L30,10 L15,0 Z" class="cell_a"/>
    <g s:x="28" s:y="10" s:pid="Y"/>
  </g>
  <g s:type="inputExt" transform="translate(82,1624)" s:width="30" s:height="20" id="cell_b">
    <text x="15" y="-4" class="nodelabel cell_b" s:attribute="ref">b</text>
    <s:alias val="$_inputExt_"/>
    <path d="M0,0 L0,20 L15,20 L30,10 L15,0 Z" class="cell_b"/>
    <g s:x="28" s:y="10" s:pid="Y"/>
  </g>
  <g s:type="inputExt" transform="translate(192,1251.5)" s:width="30" s:height="20" id="cell_sel">
    <text x="15" y="-4" class="nodelabel cell_sel" s:attribute="ref">sel</text>
    <s:alias val="$_inputExt_"/>
    <path d="M0,0 L0,20 L15,20 L30,10 L15,0 Z" class="cell_sel"/>
    <g s:x="28" s:y="10" s:pid="Y"/>
  </g>
  <g s:type="inputExt" transform="translate(12,484.5)" s:width="30" s:height="20" id="cell_sel4">
    <text x="15" y="-4" class="nodelabel cell_sel4" s:attribute="ref">sel4</text>
    <s:alias val="$_inputExt_"/>
    <path d="M0,0 L0,20 L15,20 L30,10 L15,0 Z" class="cell_sel4"/>
    <g s:x="28" s:y="10" s:pid="Y"/>
  </g>
  <g s:type="inputExt" transform="translate(82,434.5)" s:width="30" s:height="20" id="cell_av">
    <text x="15" y="-4" class="nodelabel cell_av" s:attribute="ref">av</text>
    <s:alias val="$_inputExt_"/>
    <path d="M0,0 L0,20 L15,20 L30,10 L15,0 Z" class="cell_av"/>
    <g s:x="28" s:y="10" s:pid="Y"/>
  </g>
  <g s:type="inputExt" transform="translate(82,619.5)" s:width="30" s:height="20" id="cell_bv">
    <text x="15" y="-4" class="nodelabel cell_bv" s:attribute="ref">bv</text>
    <s:alias val="$_inputExt_"/>
    <path d="M0,0 L0,20 L15,20 L30,10 L15,0 Z" class="cell_bv"/>
    <g s:x="28" s:y="10" s:pid="Y"/>
  </g>
  <g s:type="inputExt" transform="translate(192,1145.5)" s:width="30" s:height="20" id="cell_clk">
    <text x="15" y="-4" class="nodelabel cell_clk" s:attribute="ref">clk</text>
    <s:alias val="$_inputExt_"/>
    <path d="M0,0 L0,20 L15,20 L30,10 L15,0 Z" class="cell_clk"/>
    <g s:x="28" s:y="10" s:pid="Y"/>
  </g>
  <g s:type="inputExt" transform="translate(82,960.5)" s:width="30" s:height="20" id="cell_rst">
    <text x="15" y="-4" class="nodelabel cell_rst" s:attribute="ref">rst</text>
    <s:alias val="$_inputExt_"/>
    <path d="M0,0 L0,20 L15,20 L30,10 L15,0 Z" class="cell_rst"/>
    <g s:x="28" s:y="10" s:pid="Y"/>
  </g>
  <g s:type="inputExt" transform="translate(82,803)" s:width="30" s:height="20" id="cell_en">
    <text x="15" y="-4" class="nodelabel cell_en" s:attribute="ref">en</text>
    <s:alias val="$_inputExt_"/>
    <path d="M0,0 L0,20 L15,20 L30,10 L15,0 Z" class="cell_en"/>
    <g s:x="28" s:y="10" s:pid="Y"/>
  </g>
  <g s:type="outputExt" transform="translate(335,1616.5)" s:width="30" s:height="20" id="cell_o_and">
    <text x="15" y="-4" class="nodelabel cell_o_and" s:attribute="ref">o_and</text>
    <s:alias val="$_outputExt_"/>
    <path d="M30,0 L30,20 L15,20 L0,10 L15,0 Z" class="cell_o_and"/>
    <g s:x="0" s:y="10" s:pid="A"/>
  </g>
  <g s:type="outputExt" transform="translate(335,1409)" s:width="30" s:height="20" id="cell_o_or">
    <text x="15" y="-4" class="nodelabel cell_o_or" s:attribute="ref">o_or</text>
    <s:alias val="$_outputExt_"/>
    <path d="M30,0 L30,20 L15,20 L0,10 L15,0 Z" class="cell_o_or"/>
    <g s:x="0" s:y="10" s:pid="A"/>
  </g>
  <g s:type="outputExt" transform="translate(335,1746.5)" s:width="30" s:height="20" id="cell_o_not">
    <text x="15" y="-4" class="nodelabel cell_o_not" s:attribute="ref">o_not</text>
    <s:alias val="$_outputExt_"/>
    <path d="M30,0 L30,20 L15,20 L0,10 L15,0 Z" class="cell_o_not"/>
    <g s:x="0" s:y="10" s:pid="A"/>
  </g>
  <g s:type="outputExt" transform="translate(335,1279)" s:width="30" s:height="20" id="cell_o_xor">
    <text x="15" y="-4" class="nodelabel cell_o_xor" s:attribute="ref">o_xor</text>
    <s:alias val="$_outputExt_"/>
    <path d="M30,0 L30,20 L15,20 L0,10 L15,0 Z" class="cell_o_xor"/>
    <g s:x="0" s:y="10" s:pid="A"/>
  </g>
  <g s:type="outputExt" transform="translate(335,1681.5)" s:width="30" s:height="20" id="cell_o_nand">
    <text x="15" y="-4" class="nodelabel cell_o_nand" s:attribute="ref">o_nand</text>
    <s:alias val="$_outputExt_"/>
    <path d="M30,0 L30,20 L15,20 L0,10 L15,0 Z" class="cell_o_nand"/>
    <g s:x="0" s:y="10" s:pid="A"/>
  </g>
  <g s:type="outputExt" transform="translate(335,1344)" s:width="30" s:height="20" id="cell_o_nor">
    <text x="15" y="-4" class="nodelabel cell_o_nor" s:attribute="ref">o_nor</text>
    <s:alias val="$_outputExt_"/>
    <path d="M30,0 L30,20 L15,20 L0,10 L15,0 Z" class="cell_o_nor"/>
    <g s:x="0" s:y="10" s:pid="A"/>
  </g>
  <g s:type="outputExt" transform="translate(335,1551.5)" s:width="30" s:height="20" id="cell_o_xnor">
    <text x="15" y="-4" class="nodelabel cell_o_xnor" s:attribute="ref">o_xnor</text>
    <s:alias val="$_outputExt_"/>
    <path d="M30,0 L30,20 L15,20 L0,10 L15,0 Z" class="cell_o_xnor"/>
    <g s:x="0" s:y="10" s:pid="A"/>
  </g>
  <g s:type="outputExt" transform="translate(335,282)" s:width="30" s:height="20" id="cell_o_reduce_or">
    <text x="15" y="-4" class="nodelabel cell_o_reduce_or" s:attribute="ref">o_reduce_or</text>
    <s:alias val="$_outputExt_"/>
    <path d="M30,0 L30,20 L15,20 L0,10 L15,0 Z" class="cell_o_reduce_or"/>
    <g s:x="0" s:y="10" s:pid="A"/>
  </g>
  <g s:type="outputExt" transform="translate(335,217)" s:width="30" s:height="20" id="cell_o_reduce_and">
    <text x="15" y="-4" class="nodelabel cell_o_reduce_and" s:attribute="ref">o_reduce_and</text>
    <s:alias val="$_outputExt_"/>
    <path d="M30,0 L30,20 L15,20 L0,10 L15,0 Z" class="cell_o_reduce_and"/>
    <g s:x="0" s:y="10" s:pid="A"/>
  </g>
  <g s:type="outputExt" transform="translate(335,87)" s:width="30" s:height="20" id="cell_o_reduce_xor">
    <text x="15" y="-4" class="nodelabel cell_o_reduce_xor" s:attribute="ref">o_reduce_xor</text>
    <s:alias val="$_outputExt_"/>
    <path d="M30,0 L30,20 L15,20 L0,10 L15,0 Z" class="cell_o_reduce_xor"/>
    <g s:x="0" s:y="10" s:pid="A"/>
  </g>
  <g s:type="outputExt" transform="translate(335,1210.5)" s:width="30" s:height="20" id="cell_o_mux2">
    <text x="15" y="-4" class="nodelabel cell_o_mux2" s:attribute="ref">o_mux2</text>
    <s:alias val="$_outputExt_"/>
    <path d="M30,0 L30,20 L15,20 L0,10 L15,0 Z" class="cell_o_mux2"/>
    <g s:x="0" s:y="10" s:pid="A"/>
  </g>
  <g s:type="outputExt" transform="translate(335,349.5)" s:width="30" s:height="20" id="cell_o_mux4">
    <text x="15" y="-4" class="nodelabel cell_o_mux4" s:attribute="ref">o_mux4</text>
    <s:alias val="$_outputExt_"/>
    <path d="M30,0 L30,20 L15,20 L0,10 L15,0 Z" class="cell_o_mux4"/>
    <g s:x="0" s:y="10" s:pid="A"/>
  </g>
  <g s:type="outputExt" transform="translate(335,22)" s:width="30" s:height="20" id="cell_o_add">
    <text x="15" y="-4" class="nodelabel cell_o_add" s:attribute="ref">o_add</text>
    <s:alias val="$_outputExt_"/>
    <path d="M30,0 L30,20 L15,20 L0,10 L15,0 Z" class="cell_o_add"/>
    <g s:x="0" s:y="10" s:pid="A"/>
  </g>
  <g s:type="outputExt" transform="translate(335,152)" s:width="30" s:height="20" id="cell_o_sub">
    <text x="15" y="-4" class="nodelabel cell_o_sub" s:attribute="ref">o_sub</text>
    <s:alias val="$_outputExt_"/>
    <path d="M30,0 L30,20 L15,20 L0,10 L15,0 Z" class="cell_o_sub"/>
    <g s:x="0" s:y="10" s:pid="A"/>
  </g>
  <g s:type="outputExt" transform="translate(335,732)" s:width="30" s:height="20" id="cell_o_eq">
    <text x="15" y="-4" class="nodelabel cell_o_eq" s:attribute="ref">o_eq</text>
    <s:alias val="$_outputExt_"/>
    <path d="M30,0 L30,20 L15,20 L0,10 L15,0 Z" class="cell_o_eq"/>
    <g s:x="0" s:y="10" s:pid="A"/>
  </g>
  <g s:type="outputExt" transform="translate(335,666)" s:width="30" s:height="20" id="cell_o_lt">
    <text x="15" y="-4" class="nodelabel cell_o_lt" s:attribute="ref">o_lt</text>
    <s:alias val="$_outputExt_"/>
    <path d="M30,0 L30,20 L15,20 L0,10 L15,0 Z" class="cell_o_lt"/>
    <g s:x="0" s:y="10" s:pid="A"/>
  </g>
  <g s:type="outputExt" transform="translate(335,591.5)" s:width="30" s:height="20" id="cell_o_shl">
    <text x="15" y="-4" class="nodelabel cell_o_shl" s:attribute="ref">o_shl</text>
    <s:alias val="$_outputExt_"/>
    <path d="M30,0 L30,20 L15,20 L0,10 L15,0 Z" class="cell_o_shl"/>
    <g s:x="0" s:y="10" s:pid="A"/>
  </g>
  <g s:type="outputExt" transform="translate(335,514.5)" s:width="30" s:height="20" id="cell_o_shr">
    <text x="15" y="-4" class="nodelabel cell_o_shr" s:attribute="ref">o_shr</text>
    <s:alias val="$_outputExt_"/>
    <path d="M30,0 L30,20 L15,20 L0,10 L15,0 Z" class="cell_o_shr"/>
    <g s:x="0" s:y="10" s:pid="A"/>
  </g>
  <g s:type="outputExt" transform="translate(335,1474)" s:width="30" s:height="20" id="cell_o_dff">
    <text x="15" y="-4" class="nodelabel cell_o_dff" s:attribute="ref">o_dff</text>
    <s:alias val="$_outputExt_"/>
    <path d="M30,0 L30,20 L15,20 L0,10 L15,0 Z" class="cell_o_dff"/>
    <g s:x="0" s:y="10" s:pid="A"/>
  </g>
  <g s:type="outputExt" transform="translate(335,855.5)" s:width="30" s:height="20" id="cell_o_dffe">
    <text x="15" y="-4" class="nodelabel cell_o_dffe" s:attribute="ref">o_dffe</text>
    <s:alias val="$_outputExt_"/>
    <path d="M30,0 L30,20 L15,20 L0,10 L15,0 Z" class="cell_o_dffe"/>
    <g s:x="0" s:y="10" s:pid="A"/>
  </g>
  <g s:type="outputExt" transform="translate(335,930.5)" s:width="30" s:height="20" id="cell_o_dffr">
    <text x="15" y="-4" class="nodelabel cell_o_dffr" s:attribute="ref">o_dffr</text>
    <s:alias val="$_outputExt_"/>
    <path d="M30,0 L30,20 L15,20 L0,10 L15,0 Z" class="cell_o_dffr"/>
    <g s:x="0" s:y="10" s:pid="A"/>
  </g>
  <g s:type="outputExt" transform="translate(335,1125.5)" s:width="30" s:height="20" id="cell_o_counter">
    <text x="15" y="-4" class="nodelabel cell_o_counter" s:attribute="ref">o_counter</text>
    <s:alias val="$_outputExt_"/>
    <path d="M30,0 L30,20 L15,20 L0,10 L15,0 Z" class="cell_o_counter"/>
    <g s:x="0" s:y="10" s:pid="A"/>
  </g>
  <g s:type="constant" transform="translate(12,676)" s:width="30" s:height="20" id="cell_1">
    <text x="15" y="-4" class="nodelabel cell_1" s:attribute="ref">1</text>
    <s:alias val="$_constant_"/>
    <rect width="30" height="20" class="cell_1"/>
    <g s:x="30" s:y="10" s:pid="Y"/>
  </g>
  <g s:type="constant" transform="translate(12,559.5)" s:width="30" s:height="20" id="cell_10">
    <text x="15" y="-4" class="nodelabel cell_10" s:attribute="ref">10</text>
    <s:alias val="$_constant_"/>
    <rect width="30" height="20" class="cell_10"/>
    <g s:x="30" s:y="10" s:pid="Y"/>
  </g>
  <g s:type="constant" transform="translate(82,722)" s:width="30" s:height="20" id="cell_0">
    <text x="15" y="-4" class="nodelabel cell_0" s:attribute="ref">0</text>
    <s:alias val="$_constant_"/>
    <rect width="30" height="20" class="cell_0"/>
    <g s:x="30" s:y="10" s:pid="Y"/>
  </g>
  <g s:type="constant" transform="translate(82,1025.5)" s:width="30" s:height="20" id="cell_0000">
    <text x="15" y="-4" class="nodelabel cell_0000" s:attribute="ref">0x0</text>
    <s:alias val="$_constant_"/>
    <rect width="30" height="20" class="cell_0000"/>
    <g s:x="30" s:y="10" s:pid="Y"/>
  </g>
  <g s:type="join" transform="translate(202,369)" s:width="4" s:height="40" id="cell_$join$,47,48,49,">
    <rect width="5" height="60" class="splitjoinBody" s:generic="body"/>
    <s:alias val="$_join_"/>
    <g s:x="5" s:y="20" s:pid="out"/>
    <g transform="translate(0,10)" s:x="0" s:y="10" s:pid="in0">
      <text x="-3" y="-4" class="inputPortLabel">0</text>
    </g>
    <g transform="translate(0,30)" s:x="0" s:y="10" s:pid="in0">
      <text x="-3" y="-4" class="inputPortLabel">1</text>
    </g>
    <g transform="translate(0,50)" s:x="0" s:y="10" s:pid="in0">
      <text x="-3" y="-4" class="inputPortLabel">2</text>
    </g>
  </g>
  <g s:type="join" transform="translate(279.6666666666667,581)" s:width="4" s:height="40" id="cell_$join$,65,7,8,9,">
    <rect width="5" height="40" class="splitjoinBody" s:generic="body"/>
    <s:alias val="$_join_"/>
    <g s:x="5" s:y="20" s:pid="out"/>
    <g transform="translate(0,10)" s:x="0" s:y="10" s:pid="in0">
      <text x="-3" y="-4" class="inputPortLabel">0</text>
    </g>
    <g transform="translate(0,30)" s:x="0" s:y="10" s:pid="in0">
      <text x="-3" y="-4" class="inputPortLabel">1:3</text>
    </g>
  </g>
  <g s:type="join" transform="translate(281,504)" s:width="4" s:height="40" id="cell_$join$,8,9,10,65,">
    <rect width="5" height="40" class="splitjoinBody" s:generic="body"/>
    <s:alias val="$_join_"/>
    <g s:x="5" s:y="20" s:pid="out"/>
    <g transform="translate(0,10)" s:x="0" s:y="10" s:pid="in0">
      <text x="-3" y="-4" class="inputPortLabel">0:2</text>
    </g>
    <g transform="translate(0,30)" s:x="0" s:y="10" s:pid="in0">
      <text x="-3" y="-4" class="inputPortLabel">3</text>
    </g>
  </g>
  <g s:type="split" transform="translate(207.25,464)" s:width="5" s:height="40" id="cell_$split$,7,8,9,10,">
    <rect width="5" height="60" class="splitjoinBody" s:generic="body"/>
    <s:alias val="$_split_"/>
    <g s:x="0" s:y="20" s:pid="in"/>
    <g transform="translate(4,10)" s:x="4" s:y="10" s:pid="out0">
      <text x="5" y="-4">3</text>
    </g>
    <g transform="translate(4,30)" s:x="4" s:y="10" s:pid="out0">
      <text x="5" y="-4">0:2</text>
    </g>
    <g transform="translate(4,50)" s:x="4" s:y="10" s:pid="out0">
      <text x="5" y="-4">1:3</text>
    </g>
  </g>
  <line x1="110" x2="162" y1="1346.5" y2="1346.5" class="net_2"/>
  <line x1="162" x2="162" y1="1346.5" y2="1619" class="net_2"/>
  <circle cx="162" cy="1346.5" r="2" style="fill:#000" class="net_2"/>
  <circle cx="162" cy="1619" r="2" style="fill:#000" class="net_2"/>
  <line x1="162" x2="192" y1="1619" y2="1619" class="net_2"/>
  <line x1="110" x2="195" y1="1346.5" y2="1346.5" class="net_2"/>
  <line x1="110" x2="162" y1="1346.5" y2="1346.5" class="net_2"/>
  <line x1="162" x2="162" y1="1346.5" y2="1756.5" class="net_2"/>
  <line x1="162" x2="266" y1="1756.5" y2="1756.5" class="net_2"/>
  <line x1="110" x2="162" y1="1346.5" y2="1346.5" class="net_2"/>
  <line x1="162" x2="162" y1="1346.5" y2="1281.5" class="net_2"/>
  <circle cx="162" cy="1281.5" r="2" style="fill:#000" class="net_2"/>
  <line x1="162" x2="270" y1="1281.5" y2="1281.5" class="net_2"/>
  <line x1="110" x2="162" y1="1346.5" y2="1346.5" class="net_2"/>
  <line x1="162" x2="162" y1="1346.5" y2="1484" class="net_2"/>
  <line x1="162" x2="232" y1="1484" y2="1484" class="net_2"/>
  <line x1="232" x2="232" y1="1484" y2="1554" class="net_2"/>
  <circle cx="162" cy="1484" r="2" style="fill:#000" class="net_2"/>
  <circle cx="232" cy="1484" r="2" style="fill:#000" class="net_2"/>
  <line x1="232" x2="265" y1="1554" y2="1554" class="net_2"/>
  <line x1="110" x2="162" y1="1346.5" y2="1346.5" class="net_2"/>
  <line x1="162" x2="162" y1="1346.5" y2="1230.5" class="net_2"/>
  <circle cx="162" cy="1230.5" r="2" style="fill:#000" class="net_2"/>
  <line x1="162" x2="274.3333333333333" y1="1230.5" y2="1230.5" class="net_2"/>
  <line x1="110" x2="162" y1="1346.5" y2="1346.5" class="net_2"/>
  <line x1="162" x2="162" y1="1346.5" y2="930.5" class="net_2"/>
  <circle cx="162" cy="930.5" r="2" style="fill:#000" class="net_2"/>
  <line x1="162" x2="197.66666666666666" y1="930.5" y2="930.5" class="net_2"/>
  <line x1="110" x2="162" y1="1346.5" y2="1346.5" class="net_2"/>
  <line x1="162" x2="162" y1="1346.5" y2="1484" class="net_2"/>
  <line x1="162" x2="270" y1="1484" y2="1484" class="net_2"/>
  <line x1="110" x2="162" y1="1346.5" y2="1346.5" class="net_2"/>
  <line x1="162" x2="162" y1="1346.5" y2="793" class="net_2"/>
  <line x1="162" x2="196.33333333333334" y1="793" y2="793" class="net_2"/>
  <line x1="110" x2="192" y1="1634" y2="1634" class="net_3"/>
  <line x1="110" x2="172" y1="1634" y2="1634" class="net_3"/>
  <line x1="172" x2="172" y1="1634" y2="1361.5" class="net_3"/>
  <circle cx="172" cy="1634" r="2" style="fill:#000" class="net_3"/>
  <circle cx="172" cy="1361.5" r="2" style="fill:#000" class="net_3"/>
  <line x1="172" x2="195" y1="1361.5" y2="1361.5" class="net_3"/>
  <line x1="110" x2="172" y1="1634" y2="1634" class="net_3"/>
  <line x1="172" x2="172" y1="1634" y2="1296.5" class="net_3"/>
  <circle cx="172" cy="1296.5" r="2" style="fill:#000" class="net_3"/>
  <line x1="172" x2="270" y1="1296.5" y2="1296.5" class="net_3"/>
  <line x1="110" x2="172" y1="1634" y2="1634" class="net_3"/>
  <line x1="172" x2="172" y1="1634" y2="1569" class="net_3"/>
  <circle cx="172" cy="1569" r="2" style="fill:#000" class="net_3"/>
  <line x1="172" x2="265" y1="1569" y2="1569" class="net_3"/>
  <line x1="110" x2="172" y1="1634" y2="1634" class="net_3"/>
  <line x1="172" x2="172" y1="1634" y2="1210.5" class="net_3"/>
  <line x1="172" x2="274.3333333333333" y1="1210.5" y2="1210.5" class="net_3"/>
  <line x1="222" x2="232" y1="1626.5" y2="1626.5" class="net_18"/>
  <line x1="232" x2="232" y1="1626.5" y2="1691.5" class="net_18"/>
  <circle cx="232" cy="1626.5" r="2" style="fill:#000" class="net_18"/>
  <line x1="232" x2="266" y1="1691.5" y2="1691.5" class="net_18"/>
  <line x1="222" x2="335" y1="1626.5" y2="1626.5" class="net_18"/>
  <line x1="222" x2="266" y1="1354" y2="1354" class="net_19"/>
  <line x1="222" x2="252" y1="1354" y2="1354" class="net_19"/>
  <line x1="252" x2="252" y1="1354" y2="1419" class="net_19"/>
  <circle cx="252" cy="1354" r="2" style="fill:#000" class="net_19"/>
  <line x1="252" x2="335" y1="1419" y2="1419" class="net_19"/>
  <line x1="110" x2="152" y1="444.5" y2="444.5" class="net_7,8,9,10"/>
  <line x1="152" x2="152" y1="444.5" y2="219.5" class="net_7,8,9,10"/>
  <line x1="152" x2="232" y1="219.5" y2="219.5" class="net_7,8,9,10"/>
  <line x1="232" x2="232" y1="219.5" y2="284.5" class="net_7,8,9,10"/>
  <circle cx="152" cy="444.5" r="2" style="fill:#000" class="net_7,8,9,10"/>
  <circle cx="152" cy="219.5" r="2" style="fill:#000" class="net_7,8,9,10"/>
  <circle cx="232" cy="219.5" r="2" style="fill:#000" class="net_7,8,9,10"/>
  <line x1="232" x2="269" y1="284.5" y2="284.5" class="net_7,8,9,10"/>
  <line x1="110" x2="152" y1="444.5" y2="444.5" class="net_7,8,9,10"/>
  <line x1="152" x2="152" y1="444.5" y2="219.5" class="net_7,8,9,10"/>
  <line x1="152" x2="266" y1="219.5" y2="219.5" class="net_7,8,9,10"/>
  <line x1="110" x2="152" y1="444.5" y2="444.5" class="net_7,8,9,10"/>
  <line x1="152" x2="152" y1="444.5" y2="89.5" class="net_7,8,9,10"/>
  <circle cx="152" cy="89.5" r="2" style="fill:#000" class="net_7,8,9,10"/>
  <line x1="152" x2="267.5" y1="89.5" y2="89.5" class="net_7,8,9,10"/>
  <line x1="110" x2="152" y1="444.5" y2="444.5" class="net_7,8,9,10"/>
  <line x1="152" x2="152" y1="444.5" y2="24.5" class="net_7,8,9,10"/>
  <line x1="152" x2="275.6666666666667" y1="24.5" y2="24.5" class="net_7,8,9,10"/>
  <line x1="110" x2="152" y1="444.5" y2="444.5" class="net_7,8,9,10"/>
  <line x1="152" x2="152" y1="444.5" y2="89.5" class="net_7,8,9,10"/>
  <line x1="152" x2="232" y1="89.5" y2="89.5" class="net_7,8,9,10"/>
  <line x1="232" x2="232" y1="89.5" y2="154.5" class="net_7,8,9,10"/>
  <circle cx="232" cy="89.5" r="2" style="fill:#000" class="net_7,8,9,10"/>
  <line x1="232" x2="275.6666666666667" y1="154.5" y2="154.5" class="net_7,8,9,10"/>
  <line x1="110" x2="152" y1="444.5" y2="444.5" class="net_7,8,9,10"/>
  <line x1="152" x2="152" y1="444.5" y2="838" class="net_7,8,9,10"/>
  <line x1="152" x2="199" y1="838" y2="838" class="net_7,8,9,10"/>
  <line x1="110" x2="152" y1="444.5" y2="444.5" class="net_7,8,9,10"/>
  <line x1="152" x2="152" y1="444.5" y2="702" class="net_7,8,9,10"/>
  <circle cx="152" cy="702" r="2" style="fill:#000" class="net_7,8,9,10"/>
  <line x1="152" x2="199" y1="702" y2="702" class="net_7,8,9,10"/>
  <line x1="110" x2="152" y1="444.5" y2="444.5" class="net_7,8,9,10"/>
  <line x1="152" x2="152" y1="444.5" y2="484.5" class="net_7,8,9,10"/>
  <circle cx="152" cy="484.5" r="2" style="fill:#000" class="net_7,8,9,10"/>
  <line x1="152" x2="207.25" y1="484.5" y2="484.5" class="net_7,8,9,10"/>
  <line x1="220" x2="284.3333333333333" y1="1261.5" y2="1261.5" class="net_4"/>
  <line x1="284.3333333333333" x2="284.3333333333333" y1="1261.5" y2="1235.5" class="net_4"/>
  <line x1="40" x2="72" y1="494.5" y2="494.5" class="net_5,6"/>
  <line x1="72" x2="72" y1="494.5" y2="379.5" class="net_5,6"/>
  <circle cx="72" cy="494.5" r="2" style="fill:#000" class="net_5,6"/>
  <line x1="72" x2="82" y1="379.5" y2="379.5" class="net_5,6"/>
  <line x1="40" x2="86.66666666666667" y1="494.5" y2="494.5" class="net_5,6"/>
  <line x1="40" x2="72" y1="494.5" y2="494.5" class="net_5,6"/>
  <line x1="72" x2="72" y1="494.5" y2="554.5" class="net_5,6"/>
  <line x1="72" x2="86.66666666666667" y1="554.5" y2="554.5" class="net_5,6"/>
  <line x1="42" x2="62" y1="686" y2="686" class="net_62"/>
  <line x1="62" x2="62" y1="686" y2="509.5" class="net_62"/>
  <circle cx="62" cy="686" r="2" style="fill:#000" class="net_62"/>
  <line x1="62" x2="86.66666666666667" y1="509.5" y2="509.5" class="net_62"/>
  <line x1="42" x2="62" y1="686" y2="686" class="net_62"/>
  <line x1="62" x2="62" y1="686" y2="752" class="net_62"/>
  <circle cx="62" cy="752" r="2" style="fill:#000" class="net_62"/>
  <line x1="62" x2="274.3333333333333" y1="752" y2="752" class="net_62"/>
  <line x1="42" x2="274.3333333333333" y1="686" y2="686" class="net_62"/>
  <line x1="42" x2="62" y1="686" y2="686" class="net_62"/>
  <line x1="62" x2="62" y1="686" y2="1100.5" class="net_62"/>
  <line x1="62" x2="88.33333333333333" y1="1100.5" y2="1100.5" class="net_62"/>
  <line x1="42" x2="86.66666666666667" y1="569.5" y2="569.5" class="net_63,64"/>
  <line x1="212.25" x2="232" y1="474.5" y2="474.5" class="net_10"/>
  <line x1="232" x2="232" y1="474.5" y2="349.5" class="net_10"/>
  <line x1="232" x2="274.3333333333333" y1="349.5" y2="349.5" class="net_10"/>
  <line x1="212.25" x2="242" y1="494.5" y2="494.5" class="net_7,8,9"/>
  <line x1="242" x2="242" y1="494.5" y2="369.5" class="net_7,8,9"/>
  <circle cx="242" cy="494.5" r="2" style="fill:#000" class="net_7,8,9"/>
  <line x1="242" x2="274.3333333333333" y1="369.5" y2="369.5" class="net_7,8,9"/>
  <line x1="212.25" x2="242" y1="494.5" y2="494.5" class="net_7,8,9"/>
  <line x1="242" x2="242" y1="494.5" y2="611.5" class="net_7,8,9"/>
  <line x1="242" x2="279.6666666666667" y1="611.5" y2="611.5" class="net_7,8,9"/>
  <line x1="208" x2="284.3333333333333" y1="389.5" y2="389.5" class="net_47,48,49"/>
  <line x1="284.3333333333333" x2="284.3333333333333" y1="389.5" y2="374.5" class="net_47,48,49"/>
  <line x1="110" x2="132" y1="629.5" y2="629.5" class="net_11,12,13,14"/>
  <line x1="132" x2="132" y1="629.5" y2="39.5" class="net_11,12,13,14"/>
  <circle cx="132" cy="629.5" r="2" style="fill:#000" class="net_11,12,13,14"/>
  <line x1="132" x2="275.6666666666667" y1="39.5" y2="39.5" class="net_11,12,13,14"/>
  <line x1="110" x2="132" y1="629.5" y2="629.5" class="net_11,12,13,14"/>
  <line x1="132" x2="132" y1="629.5" y2="169.5" class="net_11,12,13,14"/>
  <circle cx="132" cy="169.5" r="2" style="fill:#000" class="net_11,12,13,14"/>
  <line x1="132" x2="275.6666666666667" y1="169.5" y2="169.5" class="net_11,12,13,14"/>
  <line x1="110" x2="132" y1="629.5" y2="629.5" class="net_11,12,13,14"/>
  <line x1="132" x2="132" y1="629.5" y2="853" class="net_11,12,13,14"/>
  <line x1="132" x2="199" y1="853" y2="853" class="net_11,12,13,14"/>
  <line x1="110" x2="132" y1="629.5" y2="629.5" class="net_11,12,13,14"/>
  <line x1="132" x2="132" y1="629.5" y2="717" class="net_11,12,13,14"/>
  <circle cx="132" cy="717" r="2" style="fill:#000" class="net_11,12,13,14"/>
  <line x1="132" x2="199" y1="717" y2="717" class="net_11,12,13,14"/>
  <line x1="112" x2="274.3333333333333" y1="732" y2="732" class="net_65"/>
  <line x1="112" x2="142" y1="732" y2="732" class="net_65"/>
  <line x1="142" x2="142" y1="732" y2="591.5" class="net_65"/>
  <line x1="142" x2="232" y1="591.5" y2="591.5" class="net_65"/>
  <line x1="232" x2="232" y1="591.5" y2="666" class="net_65"/>
  <circle cx="142" cy="732" r="2" style="fill:#000" class="net_65"/>
  <line x1="232" x2="274.3333333333333" y1="666" y2="666" class="net_65"/>
  <line x1="112" x2="142" y1="732" y2="732" class="net_65"/>
  <line x1="142" x2="142" y1="732" y2="950.5" class="net_65"/>
  <line x1="142" x2="197.66666666666666" y1="950.5" y2="950.5" class="net_65"/>
  <line x1="112" x2="142" y1="732" y2="732" class="net_65"/>
  <line x1="142" x2="142" y1="732" y2="591.5" class="net_65"/>
  <line x1="142" x2="279.6666666666667" y1="591.5" y2="591.5" class="net_65"/>
  <line x1="112" x2="142" y1="732" y2="732" class="net_65"/>
  <line x1="142" x2="142" y1="732" y2="591.5" class="net_65"/>
  <line x1="142" x2="232" y1="591.5" y2="591.5" class="net_65"/>
  <line x1="232" x2="232" y1="591.5" y2="534.5" class="net_65"/>
  <circle cx="232" cy="591.5" r="2" style="fill:#000" class="net_65"/>
  <line x1="232" x2="281" y1="534.5" y2="534.5" class="net_65"/>
  <line x1="221" x2="284.3333333333333" y1="845.5" y2="845.5" class="net_50"/>
  <line x1="284.3333333333333" x2="284.3333333333333" y1="845.5" y2="757" class="net_50"/>
  <line x1="221" x2="284.3333333333333" y1="709.5" y2="709.5" class="net_51"/>
  <line x1="284.3333333333333" x2="284.3333333333333" y1="709.5" y2="691" class="net_51"/>
  <line x1="110" x2="207.66666666666666" y1="970.5" y2="970.5" class="net_16"/>
  <line x1="207.66666666666666" x2="207.66666666666666" y1="970.5" y2="955.5" class="net_16"/>
  <line x1="110" x2="182" y1="970.5" y2="970.5" class="net_16"/>
  <line x1="182" x2="182" y1="970.5" y2="1055.5" class="net_16"/>
  <line x1="182" x2="207.66666666666666" y1="1055.5" y2="1055.5" class="net_16"/>
  <circle cx="182" cy="970.5" r="2" style="fill:#000" class="net_16"/>
  <line x1="207.66666666666666" x2="207.66666666666666" y1="1055.5" y2="1040.5" class="net_16"/>
  <line x1="300" x2="310" y1="1135.5" y2="1135.5" class="net_43,44,45,46"/>
  <line x1="310" x2="310" y1="1135.5" y2="1115.5" class="net_43,44,45,46"/>
  <line x1="310" x2="52" y1="1115.5" y2="1115.5" class="net_43,44,45,46"/>
  <line x1="52" x2="52" y1="1115.5" y2="1085.5" class="net_43,44,45,46"/>
  <circle cx="310" cy="1135.5" r="2" style="fill:#000" class="net_43,44,45,46"/>
  <line x1="52" x2="88.33333333333333" y1="1085.5" y2="1085.5" class="net_43,44,45,46"/>
  <line x1="300" x2="335" y1="1135.5" y2="1135.5" class="net_43,44,45,46"/>
  <line x1="110.33333333333333" x2="172" y1="1093" y2="1093" class="net_53,54,55,56"/>
  <line x1="172" x2="172" y1="1093" y2="1015.5" class="net_53,54,55,56"/>
  <line x1="172" x2="197.66666666666666" y1="1015.5" y2="1015.5" class="net_53,54,55,56"/>
  <line x1="112" x2="197.66666666666666" y1="1035.5" y2="1035.5" class="net_71,72,73,74"/>
  <line x1="220" x2="242" y1="1155.5" y2="1155.5" class="net_15"/>
  <line x1="242" x2="242" y1="1155.5" y2="1504" class="net_15"/>
  <circle cx="242" cy="1155.5" r="2" style="fill:#000" class="net_15"/>
  <line x1="242" x2="270" y1="1504" y2="1504" class="net_15"/>
  <line x1="220" x2="242" y1="1155.5" y2="1155.5" class="net_15"/>
  <line x1="242" x2="242" y1="1155.5" y2="885.5" class="net_15"/>
  <line x1="242" x2="270" y1="885.5" y2="885.5" class="net_15"/>
  <line x1="220" x2="242" y1="1155.5" y2="1155.5" class="net_15"/>
  <line x1="242" x2="242" y1="1155.5" y2="960.5" class="net_15"/>
  <circle cx="242" cy="960.5" r="2" style="fill:#000" class="net_15"/>
  <line x1="242" x2="270" y1="960.5" y2="960.5" class="net_15"/>
  <line x1="220" x2="270" y1="1155.5" y2="1155.5" class="net_15"/>
  <line x1="300" x2="310" y1="865.5" y2="865.5" class="net_41"/>
  <line x1="310" x2="310" y1="865.5" y2="823" class="net_41"/>
  <line x1="310" x2="182" y1="823" y2="823" class="net_41"/>
  <line x1="182" x2="182" y1="823" y2="773" class="net_41"/>
  <circle cx="310" cy="865.5" r="2" style="fill:#000" class="net_41"/>
  <line x1="182" x2="196.33333333333334" y1="773" y2="773" class="net_41"/>
  <line x1="300" x2="335" y1="865.5" y2="865.5" class="net_41"/>
  <line x1="110" x2="206.33333333333334" y1="813" y2="813" class="net_17"/>
  <line x1="206.33333333333334" x2="206.33333333333334" y1="813" y2="798" class="net_17"/>
  <line x1="216.33333333333334" x2="232" y1="783" y2="783" class="net_61"/>
  <line x1="232" x2="232" y1="783" y2="865.5" class="net_61"/>
  <line x1="232" x2="270" y1="865.5" y2="865.5" class="net_61"/>
  <line x1="217.66666666666666" x2="270" y1="940.5" y2="940.5" class="net_52"/>
  <line x1="217.66666666666666" x2="252" y1="1025.5" y2="1025.5" class="net_57,58,59,60"/>
  <line x1="252" x2="252" y1="1025.5" y2="1135.5" class="net_57,58,59,60"/>
  <line x1="252" x2="270" y1="1135.5" y2="1135.5" class="net_57,58,59,60"/>
  <line x1="291" x2="335" y1="1756.5" y2="1756.5" class="net_20"/>
  <line x1="300" x2="335" y1="1289" y2="1289" class="net_21"/>
  <line x1="291" x2="335" y1="1691.5" y2="1691.5" class="net_22"/>
  <line x1="291" x2="335" y1="1354" y2="1354" class="net_23"/>
  <line x1="300" x2="335" y1="1561.5" y2="1561.5" class="net_24"/>
  <line x1="296" x2="335" y1="292" y2="292" class="net_25"/>
  <line x1="296" x2="335" y1="227" y2="227" class="net_26"/>
  <line x1="297.5" x2="335" y1="97" y2="97" class="net_27"/>
  <line x1="294.3333333333333" x2="335" y1="1220.5" y2="1220.5" class="net_28"/>
  <line x1="294.3333333333333" x2="335" y1="359.5" y2="359.5" class="net_29"/>
  <line x1="297.6666666666667" x2="335" y1="32" y2="32" class="net_30,31,32,33"/>
  <line x1="297.6666666666667" x2="335" y1="162" y2="162" class="net_34,35,36,37"/>
  <line x1="294.3333333333333" x2="335" y1="742" y2="742" class="net_38"/>
  <line x1="294.3333333333333" x2="335" y1="676" y2="676" class="net_39"/>
  <line x1="285.6666666666667" x2="335" y1="601.5" y2="601.5" class="net_65,7,8,9"/>
  <line x1="287" x2="335" y1="524.5" y2="524.5" class="net_8,9,10,65"/>
  <line x1="300" x2="335" y1="1484" y2="1484" class="net_40"/>
  <line x1="300" x2="335" y1="940.5" y2="940.5" class="net_42"/>
  <line x1="107" x2="202" y1="379.5" y2="379.5" class="net_47"/>
  <line x1="108.66666666666667" x2="122" y1="502" y2="502" class="net_48"/>
  <line x1="122" x2="122" y1="502" y2="399.5" class="net_48"/>
  <line x1="122" x2="202" y1="399.5" y2="399.5" class="net_48"/>
  <line x1="108.66666666666667" x2="162" y1="562" y2="562" class="net_49"/>
  <line x1="162" x2="162" y1="562" y2="419.5" class="net_49"/>
  <line x1="162" x2="202" y1="419.5" y2="419.5" class="net_49"/>
  <line x1="212.25" x2="281" y1="514.5" y2="514.5" class="net_8,9,10"/>
</svg>
