<svg xmlns="http://www.w3.org/2000/svg" xmlns:xlink="http://www.w3.org/1999/xlink" xmlns:s="https://github.com/nturley/netlistsvg" width="707" height="664">
  <style>svg {
    stroke:#000;
    fill:none;
  }
  text {
    fill:#000;
    stroke:none;
    font-size:10px;
    font-weight: bold;
    font-family: "Courier New", monospace;
  }
  .nodelabel {
    text-anchor: middle;
  }
  .inputPortLabel {
    text-anchor: end;
  }
  .splitjoinBody {
    fill:#000;
  }</style>
  <g s:type="eq" transform="translate(95.33333333333333,304)" s:width="25" s:height="25" id="cell_:12">
    <s:alias val="$eq"/>
    <circle r="12.5" cx="12.5" cy="12.5" class="cell_:12"/>
    <line x1="7.5" x2="17.5" y1="10" y2="10" class="cell_:12"/>
    <line x1="7.5" x2="17.5" y1="15" y2="15" class="cell_:12"/>
    <g s:x="3" s:y="5" s:pid="A"/>
    <g s:x="3" s:y="20" s:pid="B"/>
    <g s:x="25" s:y="12.5" s:pid="Y"/>
  </g>
  <g s:type="ge" transform="translate(293.6666666666667,622)" s:width="25" s:height="25" id="cell_:15">
    <s:alias val="$ge"/>
    <circle r="12.5" cx="12.5" cy="12.5" class="cell_:15"/>
    <line x1="7.5" x2="17.5" y1="7.5" y2="12.5" class="cell_:15"/>
    <line x1="7.5" x2="17.5" y1="17.5" y2="12.5" class="cell_:15"/>
    <line x1="7.5" x2="17.5" y1="20" y2="15" class="cell_:15"/>
    <g s:x="3" s:y="5" s:pid="A"/>
    <g s:x="3" s:y="20" s:pid="B"/>
    <g s:x="25" s:y="12.5" s:pid="Y"/>
  </g>
  <g s:type="lt" transform="translate(293.6666666666667,557)" s:width="25" s:height="25" id="cell_:18">
    <s:alias val="$lt"/>
    <circle r="12.5" cx="12.5" cy="12.5" class="cell_:18"/>
    <line x1="7.5" x2="17.5" y1="12.5" y2="7.5" class="cell_:18"/>
    <line x1="7.5" x2="17.5" y1="12.5" y2="17.5" class="cell_:18"/>
    <g s:x="3" s:y="5" s:pid="A"/>
    <g s:x="3" s:y="20" s:pid="B"/>
    <g s:x="25" s:y="12.5" s:pid="Y"/>
  </g>
  <g s:type="and" transform="translate(357,614.5)" s:width="30" s:height="25" id="cell_:19">
    <s:alias val="$and"/>
    <s:alias val="$reduce_and"/>
    <s:alias val="$logic_and"/>
    <s:alias val="$_AND_"/>
    <path d="M0,0 L0,25 L15,25 A15 12.5 0 0 0 15,0 Z" class="cell_:19"/>
    <text x="13" y="15" class="nodelabel" style="font-size:7px">AND</text>
    <g s:x="0" s:y="5" s:pid="A"/>
    <g s:x="0" s:y="20" s:pid="B"/>
    <g s:x="30" s:y="12.5" s:pid="Y"/>
  </g>
  <g s:type="ge" transform="translate(358.6666666666667,492)" s:width="25" s:height="25" id="cell_:22">
    <s:alias val="$ge"/>
    <circle r="12.5" cx="12.5" cy="12.5" class="cell_:22"/>
    <line x1="7.5" x2="17.5" y1="7.5" y2="12.5" class="cell_:22"/>
    <line x1="7.5" x2="17.5" y1="17.5" y2="12.5" class="cell_:22"/>
    <line x1="7.5" x2="17.5" y1="20" y2="15" class="cell_:22"/>
    <g s:x="3" s:y="5" s:pid="A"/>
    <g s:x="3" s:y="20" s:pid="B"/>
    <g s:x="25" s:y="12.5" s:pid="Y"/>
  </g>
  <g s:type="and" transform="translate(422,607)" s:width="30" s:height="25" id="cell_:23">
    <s:alias val="$and"/>
    <s:alias val="$reduce_and"/>
    <s:alias val="$logic_and"/>
    <s:alias val="$_AND_"/>
    <path d="M0,0 L0,25 L15,25 A15 12.5 0 0 0 15,0 Z" class="cell_:23"/>
    <text x="13" y="15" class="nodelabel" style="font-size:7px">AND</text>
    <g s:x="0" s:y="5" s:pid="A"/>
    <g s:x="0" s:y="20" s:pid="B"/>
    <g s:x="30" s:y="12.5" s:pid="Y"/>
  </g>
  <g s:type="lt" transform="translate(423.6666666666667,427)" s:width="25" s:height="25" id="cell_:26">
    <s:alias val="$lt"/>
    <circle r="12.5" cx="12.5" cy="12.5" class="cell_:26"/>
    <line x1="7.5" x2="17.5" y1="12.5" y2="7.5" class="cell_:26"/>
    <line x1="7.5" x2="17.5" y1="12.5" y2="17.5" class="cell_:26"/>
    <g s:x="3" s:y="5" s:pid="A"/>
    <g s:x="3" s:y="20" s:pid="B"/>
    <g s:x="25" s:y="12.5" s:pid="Y"/>
  </g>
  <g s:type="and" transform="translate(489,599.5)" s:width="30" s:height="25" id="cell_:27">
    <s:alias val="$and"/>
    <s:alias val="$reduce_and"/>
    <s:alias val="$logic_and"/>
    <s:alias val="$_AND_"/>
    <path d="M0,0 L0,25 L15,25 A15 12.5 0 0 0 15,0 Z" class="cell_:27"/>
    <text x="13" y="15" class="nodelabel" style="font-size:7px">AND</text>
    <g s:x="0" s:y="5" s:pid="A"/>
    <g s:x="0" s:y="20" s:pid="B"/>
    <g s:x="30" s:y="12.5" s:pid="Y"/>
  </g>
  <g s:type="gt" transform="translate(490.6666666666667,365)" s:width="25" s:height="25" id="cell_:31">
    <s:alias val="$gt"/>
    <circle r="12.5" cx="12.5" cy="12.5" class="cell_:31"/>
    <line x1="7.5" x2="17.5" y1="7.5" y2="12.5" class="cell_:31"/>
    <line x1="7.5" x2="17.5" y1="17.5" y2="12.5" class="cell_:31"/>
    <g s:x="3" s:y="5" s:pid="A"/>
    <g s:x="3" s:y="20" s:pid="B"/>
    <g s:x="25" s:y="12.5" s:pid="Y"/>
  </g>
  <g s:type="mux" transform="translate(598,327.5)" s:width="20" s:height="40" id="cell_:32">
    <s:alias val="$pmux"/>
    <s:alias val="$mux"/>
    <s:alias val="$_MUX_"/>
    <path d="M0,0 L20,10 L20,30 L0,40 Z" class="cell_:32"/>
    <g s:x="0" s:y="10" s:pid="A"/>
    <g s:x="0" s:y="30" s:pid="B"/>
    <g s:x="10" s:y="35" s:pid="S"/>
    <g s:x="20" s:y="20" s:pid="Y"/>
  </g>
  <g s:type="gt" transform="translate(490.6666666666667,23)" s:width="25" s:height="25" id="cell_:37">
    <s:alias val="$gt"/>
    <circle r="12.5" cx="12.5" cy="12.5" class="cell_:37"/>
    <line x1="7.5" x2="17.5" y1="7.5" y2="12.5" class="cell_:37"/>
    <line x1="7.5" x2="17.5" y1="17.5" y2="12.5" class="cell_:37"/>
    <g s:x="3" s:y="5" s:pid="A"/>
    <g s:x="3" s:y="20" s:pid="B"/>
    <g s:x="25" s:y="12.5" s:pid="Y"/>
  </g>
  <g s:type="mux" transform="translate(598,188)" s:width="20" s:height="40" id="cell_:38">
    <s:alias val="$pmux"/>
    <s:alias val="$mux"/>
    <s:alias val="$_MUX_"/>
    <path d="M0,0 L20,10 L20,30 L0,40 Z" class="cell_:38"/>
    <g s:x="0" s:y="10" s:pid="A"/>
    <g s:x="0" s:y="30" s:pid="B"/>
    <g s:x="10" s:y="35" s:pid="S"/>
    <g s:x="20" s:y="20" s:pid="Y"/>
  </g>
  <g s:type="mux" transform="translate(598,524.5)" s:width="20" s:height="40" id="cell_:40">
    <s:alias val="$pmux"/>
    <s:alias val="$mux"/>
    <s:alias val="$_MUX_"/>
    <path d="M0,0 L20,10 L20,30 L0,40 Z" class="cell_:40"/>
    <g s:x="0" s:y="10" s:pid="A"/>
    <g s:x="0" s:y="30" s:pid="B"/>
    <g s:x="10" s:y="35" s:pid="S"/>
    <g s:x="20" s:y="20" s:pid="Y"/>
  </g>
  <g s:type="add" transform="translate(95.33333333333333,349)" s:width="25" s:height="25" id="cell_:49">
    <s:alias val="$add"/>
    <circle r="12.5" cx="12.5" cy="12.5" class="cell_:49"/>
    <line x1="7.5" x2="17.5" y1="12.5" y2="12.5" class="cell_:49"/>
    <line x1="12.5" x2="12.5" y1="7.5" y2="17.5" class="cell_:49"/>
    <g s:x="3" s:y="5" s:pid="A"/>
    <g s:x="3" s:y="20" s:pid="B"/>
    <g s:x="25" s:y="12.5" s:pid="Y"/>
  </g>
  <g s:type="mux" transform="translate(165.33333333333334,266.5)" s:width="20" s:height="40" id="cell_:52">
    <s:alias val="$pmux"/>
    <s:alias val="$mux"/>
    <s:alias val="$_MUX_"/>
    <path d="M0,0 L20,10 L20,30 L0,40 Z" class="cell_:52"/>
    <g s:x="0" s:y="10" s:pid="A"/>
    <g s:x="0" s:y="30" s:pid="B"/>
    <g s:x="10" s:y="35" s:pid="S"/>
    <g s:x="20" s:y="20" s:pid="Y"/>
  </g>
  <g s:type="add" transform="translate(95.33333333333333,119)" s:width="25" s:height="25" id="cell_:61">
    <s:alias val="$add"/>
    <circle r="12.5" cx="12.5" cy="12.5" class="cell_:61"/>
    <line x1="7.5" x2="17.5" y1="12.5" y2="12.5" class="cell_:61"/>
    <line x1="12.5" x2="12.5" y1="7.5" y2="17.5" class="cell_:61"/>
    <g s:x="3" s:y="5" s:pid="A"/>
    <g s:x="3" s:y="20" s:pid="B"/>
    <g s:x="25" s:y="12.5" s:pid="Y"/>
  </g>
  <g s:type="mux" transform="translate(165.33333333333334,121.5)" s:width="20" s:height="40" id="cell_:64">
    <s:alias val="$pmux"/>
    <s:alias val="$mux"/>
    <s:alias val="$_MUX_"/>
    <path d="M0,0 L20,10 L20,30 L0,40 Z" class="cell_:64"/>
    <g s:x="0" s:y="10" s:pid="A"/>
    <g s:x="0" s:y="30" s:pid="B"/>
    <g s:x="10" s:y="35" s:pid="S"/>
    <g s:x="20" s:y="20" s:pid="Y"/>
  </g>
  <g s:type="dff" transform="translate(227,395)" s:width="30" s:height="40" id="cell_:67">
    <s:alias val="$dff"/>
    <s:alias val="$_DFF_"/>
    <s:alias val="$_DFF_P_"/>
    <rect width="30" height="40" x="0" y="0" class="cell_:67"/>
    <path d="M0,35 L5,30 L0,25" class="cell_:67"/>
    <g s:x="30" s:y="10" s:pid="Q"/>
    <g s:x="0" s:y="30" s:pid="CLK"/>
    <g s:x="0" s:y="30" s:pid="C"/>
    <g s:x="0" s:y="10" s:pid="D"/>
  </g>
  <g s:type="mux" transform="translate(233.66666666666666,111.5)" s:width="20" s:height="40" id="cell_:68">
    <s:alias val="$pmux"/>
    <s:alias val="$mux"/>
    <s:alias val="$_MUX_"/>
    <path d="M0,0 L20,10 L20,30 L0,40 Z" class="cell_:68"/>
    <g s:x="0" s:y="10" s:pid="A"/>
    <g s:x="0" s:y="30" s:pid="B"/>
    <g s:x="10" s:y="35" s:pid="S"/>
    <g s:x="20" s:y="20" s:pid="Y"/>
  </g>
  <g s:type="dff" transform="translate(292,191.5)" s:width="30" s:height="40" id="cell_:69">
    <s:alias val="$dff"/>
    <s:alias val="$_DFF_"/>
    <s:alias val="$_DFF_P_"/>
    <rect width="30" height="40" x="0" y="0" class="cell_:69"/>
    <path d="M0,35 L5,30 L0,25" class="cell_:69"/>
    <g s:x="30" s:y="10" s:pid="Q"/>
    <g s:x="0" s:y="30" s:pid="CLK"/>
    <g s:x="0" s:y="30" s:pid="C"/>
    <g s:x="0" s:y="10" s:pid="D"/>
  </g>
  <g s:type="eq" transform="translate(95.33333333333333,179)" s:width="25" s:height="25" id="cell_:9">
    <s:alias val="$eq"/>
    <circle r="12.5" cx="12.5" cy="12.5" class="cell_:9"/>
    <line x1="7.5" x2="17.5" y1="10" y2="10" class="cell_:9"/>
    <line x1="7.5" x2="17.5" y1="15" y2="15" class="cell_:9"/>
    <g s:x="3" s:y="5" s:pid="A"/>
    <g s:x="3" s:y="20" s:pid="B"/>
    <g s:x="25" s:y="12.5" s:pid="Y"/>
  </g>
  <g s:type="inputExt" transform="translate(162,211.5)" s:width="30" s:height="20" id="cell_clk">
    <text x="15" y="-4" class="nodelabel cell_clk" s:attribute="ref">clk</text>
    <s:alias val="$_inputExt_"/>
    <path d="M0,0 L0,20 L15,20 L30,10 L15,0 Z" class="cell_clk"/>
    <g s:x="28" s:y="10" s:pid="Y"/>
  </g>
  <g s:type="inputExt" transform="translate(487,544.5)" s:width="30" s:height="20" id="cell_rgb_in">
    <text x="15" y="-4" class="nodelabel cell_rgb_in" s:attribute="ref">rgb_in</text>
    <s:alias val="$_inputExt_"/>
    <path d="M0,0 L0,20 L15,20 L30,10 L15,0 Z" class="cell_rgb_in"/>
    <g s:x="28" s:y="10" s:pid="Y"/>
  </g>
  <g s:type="outputExt" transform="translate(653,534.5)" s:width="30" s:height="20" id="cell_rgb_out">
    <text x="15" y="-4" class="nodelabel cell_rgb_out" s:attribute="ref">rgb_out</text>
    <s:alias val="$_outputExt_"/>
    <path d="M30,0 L30,20 L15,20 L0,10 L15,0 Z" class="cell_rgb_out"/>
    <g s:x="0" s:y="10" s:pid="A"/>
  </g>
  <g s:type="outputExt" transform="translate(653,337.5)" s:width="30" s:height="20" id="cell_hsync">
    <text x="15" y="-4" class="nodelabel cell_hsync" s:attribute="ref">hsync</text>
    <s:alias val="$_outputExt_"/>
    <path d="M30,0 L30,20 L15,20 L0,10 L15,0 Z" class="cell_hsync"/>
    <g s:x="0" s:y="10" s:pid="A"/>
  </g>
  <g s:type="outputExt" transform="translate(653,198)" s:width="30" s:height="20" id="cell_vsync">
    <text x="15" y="-4" class="nodelabel cell_vsync" s:attribute="ref">vsync</text>
    <s:alias val="$_outputExt_"/>
    <path d="M30,0 L30,20 L15,20 L0,10 L15,0 Z" class="cell_vsync"/>
    <g s:x="0" s:y="10" s:pid="A"/>
  </g>
  <g s:type="outputExt" transform="translate(653,405)" s:width="30" s:height="20" id="cell_hpos">
    <text x="15" y="-4" class="nodelabel cell_hpos" s:attribute="ref">hpos</text>
    <s:alias val="$_outputExt_"/>
    <path d="M30,0 L30,20 L15,20 L0,10 L15,0 Z" class="cell_hpos"/>
    <g s:x="0" s:y="10" s:pid="A"/>
  </g>
  <g s:type="outputExt" transform="translate(653,263)" s:width="30" s:height="20" id="cell_vpos">
    <text x="15" y="-4" class="nodelabel cell_vpos" s:attribute="ref">vpos</text>
    <s:alias val="$_outputExt_"/>
    <path d="M30,0 L30,20 L15,20 L0,10 L15,0 Z" class="cell_vpos"/>
    <g s:x="0" s:y="10" s:pid="A"/>
  </g>
  <g s:type="constant" transform="translate(12,314)" s:width="30" s:height="20" id="cell_1100011111">
    <text x="15" y="-4" class="nodelabel cell_1100011111" s:attribute="ref">0x31f</text>
    <s:alias val="$_constant_"/>
    <rect width="30" height="20" class="cell_1100011111"/>
    <g s:x="30" s:y="10" s:pid="Y"/>
  </g>
  <g s:type="constant" transform="translate(227,632)" s:width="30" s:height="20" id="cell_10001111">
    <text x="15" y="-4" class="nodelabel cell_10001111" s:attribute="ref">0x8f</text>
    <s:alias val="$_constant_"/>
    <rect width="30" height="20" class="cell_10001111"/>
    <g s:x="30" s:y="10" s:pid="Y"/>
  </g>
  <g s:type="constant" transform="translate(227,567)" s:width="30" s:height="20" id="cell_1100001111">
    <text x="15" y="-4" class="nodelabel cell_1100001111" s:attribute="ref">0x30f</text>
    <s:alias val="$_constant_"/>
    <rect width="30" height="20" class="cell_1100001111"/>
    <g s:x="30" s:y="10" s:pid="Y"/>
  </g>
  <g s:type="constant" transform="translate(292,502)" s:width="30" s:height="20" id="cell_100010">
    <text x="15" y="-4" class="nodelabel cell_100010" s:attribute="ref">0x22</text>
    <s:alias val="$_constant_"/>
    <rect width="30" height="20" class="cell_100010"/>
    <g s:x="30" s:y="10" s:pid="Y"/>
  </g>
  <g s:type="constant" transform="translate(357,437)" s:width="30" s:height="20" id="cell_1000000010">
    <text x="15" y="-4" class="nodelabel cell_1000000010" s:attribute="ref">0x202</text>
    <s:alias val="$_constant_"/>
    <rect width="30" height="20" class="cell_1000000010"/>
    <g s:x="30" s:y="10" s:pid="Y"/>
  </g>
  <g s:type="constant" transform="translate(422,375)" s:width="30" s:height="20" id="cell_1011111">
    <text x="15" y="-4" class="nodelabel cell_1011111" s:attribute="ref">0x5f</text>
    <s:alias val="$_constant_"/>
    <rect width="30" height="20" class="cell_1011111"/>
    <g s:x="30" s:y="10" s:pid="Y"/>
  </g>
  <g s:type="constant" transform="translate(487,188)" s:width="30" s:height="20" id="cell_0">
    <text x="15" y="-4" class="nodelabel cell_0" s:attribute="ref">0</text>
    <s:alias val="$_constant_"/>
    <rect width="30" height="20" class="cell_0"/>
    <g s:x="30" s:y="10" s:pid="Y"/>
  </g>
  <g s:type="constant" transform="translate(12,33)" s:width="30" s:height="20" id="cell_1">
    <text x="15" y="-4" class="nodelabel cell_1" s:attribute="ref">1</text>
    <s:alias val="$_constant_"/>
    <rect width="30" height="20" class="cell_1"/>
    <g s:x="30" s:y="10" s:pid="Y"/>
  </g>
  <g s:type="constant" transform="translate(487,479.5)" s:width="30" s:height="20" id="cell_000">
    <text x="15" y="-4" class="nodelabel cell_000" s:attribute="ref">000</text>
    <s:alias val="$_constant_"/>
    <rect width="30" height="20" class="cell_000"/>
    <g s:x="30" s:y="10" s:pid="Y"/>
  </g>
  <g s:type="constant" transform="translate(92,64)" s:width="30" s:height="20" id="cell_0000000000">
    <text x="15" y="-4" class="nodelabel cell_0000000000" s:attribute="ref">0x0</text>
    <s:alias val="$_constant_"/>
    <rect width="30" height="20" class="cell_0000000000"/>
    <g s:x="30" s:y="10" s:pid="Y"/>
  </g>
  <g s:type="constant" transform="translate(12,189)" s:width="30" s:height="20" id="cell_1000001100">
    <text x="15" y="-4" class="nodelabel cell_1000001100" s:attribute="ref">0x20c</text>
    <s:alias val="$_constant_"/>
    <rect width="30" height="20" class="cell_1000001100"/>
    <g s:x="30" s:y="10" s:pid="Y"/>
  </g>
  <g s:type="constant" transform="translate(487,273)" s:width="30" s:height="20" id="cell_0000000000000000000000">
    <text x="15" y="-4" class="nodelabel cell_0000000000000000000000" s:attribute="ref">0x0</text>
    <s:alias val="$_constant_"/>
    <rect width="30" height="20" class="cell_0000000000000000000000"/>
    <g s:x="30" s:y="10" s:pid="Y"/>
  </g>
  <g s:type="join" transform="translate(612,394.5)" s:width="4" s:height="40" id="cell_$join$,11,12,13,14,15,16,17,18,19,20,183,184,185,186,187,188,189,190,191,192,193,194,195,196,197,198,199,200,201,202,203,204,">
    <rect width="5" height="40" class="splitjoinBody" s:generic="body"/>
    <s:alias val="$_join_"/>
    <g s:x="5" s:y="20" s:pid="out"/>
    <g transform="translate(0,10)" s:x="0" s:y="10" s:pid="in0">
      <text x="-3" y="-4" class="inputPortLabel">0:9</text>
    </g>
    <g transform="translate(0,30)" s:x="0" s:y="10" s:pid="in0">
      <text x="-3" y="-4" class="inputPortLabel">10:31</text>
    </g>
  </g>
  <g s:type="join" transform="translate(612,252.5)" s:width="4" s:height="40" id="cell_$join$,21,22,23,24,25,26,27,28,29,30,183,184,185,186,187,188,189,190,191,192,193,194,195,196,197,198,199,200,201,202,203,204,">
    <rect width="5" height="40" class="splitjoinBody" s:generic="body"/>
    <s:alias val="$_join_"/>
    <g s:x="5" s:y="20" s:pid="out"/>
    <g transform="translate(0,10)" s:x="0" s:y="10" s:pid="in0">
      <text x="-3" y="-4" class="inputPortLabel">0:9</text>
    </g>
    <g transform="translate(0,30)" s:x="0" s:y="10" s:pid="in0">
      <text x="-3" y="-4" class="inputPortLabel">10:31</text>
    </g>
  </g>
  <line x1="257" x2="267" y1="405" y2="405" class="net_11,12,13,14,15,16,17,18,19,20"/>
  <line x1="267" x2="267" y1="405" y2="547" class="net_11,12,13,14,15,16,17,18,19,20"/>
  <line x1="267" x2="72" y1="547" y2="547" class="net_11,12,13,14,15,16,17,18,19,20"/>
  <line x1="72" x2="72" y1="547" y2="309" class="net_11,12,13,14,15,16,17,18,19,20"/>
  <circle cx="267" cy="547" r="2" style="fill:#000" class="net_11,12,13,14,15,16,17,18,19,20"/>
  <line x1="72" x2="98.33333333333333" y1="309" y2="309" class="net_11,12,13,14,15,16,17,18,19,20"/>
  <line x1="257" x2="267" y1="405" y2="405" class="net_11,12,13,14,15,16,17,18,19,20"/>
  <line x1="267" x2="267" y1="405" y2="627" class="net_11,12,13,14,15,16,17,18,19,20"/>
  <circle cx="267" cy="405" r="2" style="fill:#000" class="net_11,12,13,14,15,16,17,18,19,20"/>
  <line x1="267" x2="296.6666666666667" y1="627" y2="627" class="net_11,12,13,14,15,16,17,18,19,20"/>
  <line x1="257" x2="267" y1="405" y2="405" class="net_11,12,13,14,15,16,17,18,19,20"/>
  <line x1="267" x2="267" y1="405" y2="562" class="net_11,12,13,14,15,16,17,18,19,20"/>
  <circle cx="267" cy="562" r="2" style="fill:#000" class="net_11,12,13,14,15,16,17,18,19,20"/>
  <line x1="267" x2="296.6666666666667" y1="562" y2="562" class="net_11,12,13,14,15,16,17,18,19,20"/>
  <line x1="257" x2="397" y1="405" y2="405" class="net_11,12,13,14,15,16,17,18,19,20"/>
  <line x1="397" x2="397" y1="405" y2="354" class="net_11,12,13,14,15,16,17,18,19,20"/>
  <line x1="397" x2="462" y1="354" y2="354" class="net_11,12,13,14,15,16,17,18,19,20"/>
  <line x1="462" x2="462" y1="354" y2="370" class="net_11,12,13,14,15,16,17,18,19,20"/>
  <circle cx="397" cy="405" r="2" style="fill:#000" class="net_11,12,13,14,15,16,17,18,19,20"/>
  <line x1="462" x2="493.6666666666667" y1="370" y2="370" class="net_11,12,13,14,15,16,17,18,19,20"/>
  <line x1="257" x2="267" y1="405" y2="405" class="net_11,12,13,14,15,16,17,18,19,20"/>
  <line x1="267" x2="267" y1="405" y2="547" class="net_11,12,13,14,15,16,17,18,19,20"/>
  <line x1="267" x2="72" y1="547" y2="547" class="net_11,12,13,14,15,16,17,18,19,20"/>
  <line x1="72" x2="72" y1="547" y2="354" class="net_11,12,13,14,15,16,17,18,19,20"/>
  <circle cx="72" cy="354" r="2" style="fill:#000" class="net_11,12,13,14,15,16,17,18,19,20"/>
  <line x1="72" x2="98.33333333333333" y1="354" y2="354" class="net_11,12,13,14,15,16,17,18,19,20"/>
  <line x1="257" x2="612" y1="405" y2="405" class="net_11,12,13,14,15,16,17,18,19,20"/>
  <line x1="42" x2="98.33333333333333" y1="324" y2="324" class="net_92,93,94,95,96,97,98,99,100,101"/>
  <line x1="257" x2="296.6666666666667" y1="642" y2="642" class="net_102,103,104,105,106,107,108,109"/>
  <line x1="257" x2="296.6666666666667" y1="577" y2="577" class="net_110,111,112,113,114,115,116,117,118,119"/>
  <line x1="318.6666666666667" x2="332" y1="569.5" y2="569.5" class="net_33"/>
  <line x1="332" x2="332" y1="569.5" y2="619.5" class="net_33"/>
  <line x1="332" x2="357" y1="619.5" y2="619.5" class="net_33"/>
  <line x1="318.6666666666667" x2="357" y1="634.5" y2="634.5" class="net_32"/>
  <line x1="322" x2="332" y1="201.5" y2="201.5" class="net_21,22,23,24,25,26,27,28,29,30"/>
  <line x1="332" x2="332" y1="201.5" y2="497" class="net_21,22,23,24,25,26,27,28,29,30"/>
  <line x1="332" x2="361.6666666666667" y1="497" y2="497" class="net_21,22,23,24,25,26,27,28,29,30"/>
  <line x1="322" x2="332" y1="201.5" y2="201.5" class="net_21,22,23,24,25,26,27,28,29,30"/>
  <line x1="332" x2="332" y1="201.5" y2="416" class="net_21,22,23,24,25,26,27,28,29,30"/>
  <line x1="332" x2="397" y1="416" y2="416" class="net_21,22,23,24,25,26,27,28,29,30"/>
  <line x1="397" x2="397" y1="416" y2="432" class="net_21,22,23,24,25,26,27,28,29,30"/>
  <circle cx="332" cy="416" r="2" style="fill:#000" class="net_21,22,23,24,25,26,27,28,29,30"/>
  <line x1="397" x2="426.6666666666667" y1="432" y2="432" class="net_21,22,23,24,25,26,27,28,29,30"/>
  <line x1="322" x2="332" y1="201.5" y2="201.5" class="net_21,22,23,24,25,26,27,28,29,30"/>
  <line x1="332" x2="332" y1="201.5" y2="28" class="net_21,22,23,24,25,26,27,28,29,30"/>
  <line x1="332" x2="493.6666666666667" y1="28" y2="28" class="net_21,22,23,24,25,26,27,28,29,30"/>
  <line x1="322" x2="332" y1="201.5" y2="201.5" class="net_21,22,23,24,25,26,27,28,29,30"/>
  <line x1="332" x2="332" y1="201.5" y2="384" class="net_21,22,23,24,25,26,27,28,29,30"/>
  <line x1="332" x2="52" y1="384" y2="384" class="net_21,22,23,24,25,26,27,28,29,30"/>
  <line x1="52" x2="52" y1="384" y2="124" class="net_21,22,23,24,25,26,27,28,29,30"/>
  <line x1="52" x2="98.33333333333333" y1="124" y2="124" class="net_21,22,23,24,25,26,27,28,29,30"/>
  <line x1="322" x2="332" y1="201.5" y2="201.5" class="net_21,22,23,24,25,26,27,28,29,30"/>
  <line x1="332" x2="332" y1="201.5" y2="101.5" class="net_21,22,23,24,25,26,27,28,29,30"/>
  <line x1="332" x2="212" y1="101.5" y2="101.5" class="net_21,22,23,24,25,26,27,28,29,30"/>
  <line x1="212" x2="212" y1="101.5" y2="121.5" class="net_21,22,23,24,25,26,27,28,29,30"/>
  <circle cx="332" cy="101.5" r="2" style="fill:#000" class="net_21,22,23,24,25,26,27,28,29,30"/>
  <circle cx="332" cy="201.5" r="2" style="fill:#000" class="net_21,22,23,24,25,26,27,28,29,30"/>
  <line x1="212" x2="233.66666666666666" y1="121.5" y2="121.5" class="net_21,22,23,24,25,26,27,28,29,30"/>
  <line x1="322" x2="332" y1="201.5" y2="201.5" class="net_21,22,23,24,25,26,27,28,29,30"/>
  <line x1="332" x2="332" y1="201.5" y2="384" class="net_21,22,23,24,25,26,27,28,29,30"/>
  <line x1="332" x2="152" y1="384" y2="384" class="net_21,22,23,24,25,26,27,28,29,30"/>
  <line x1="152" x2="152" y1="384" y2="339" class="net_21,22,23,24,25,26,27,28,29,30"/>
  <line x1="152" x2="82" y1="339" y2="339" class="net_21,22,23,24,25,26,27,28,29,30"/>
  <line x1="82" x2="82" y1="339" y2="184" class="net_21,22,23,24,25,26,27,28,29,30"/>
  <circle cx="152" cy="384" r="2" style="fill:#000" class="net_21,22,23,24,25,26,27,28,29,30"/>
  <circle cx="332" cy="384" r="2" style="fill:#000" class="net_21,22,23,24,25,26,27,28,29,30"/>
  <line x1="82" x2="98.33333333333333" y1="184" y2="184" class="net_21,22,23,24,25,26,27,28,29,30"/>
  <line x1="322" x2="332" y1="201.5" y2="201.5" class="net_21,22,23,24,25,26,27,28,29,30"/>
  <line x1="332" x2="332" y1="201.5" y2="241" class="net_21,22,23,24,25,26,27,28,29,30"/>
  <line x1="332" x2="553" y1="241" y2="241" class="net_21,22,23,24,25,26,27,28,29,30"/>
  <line x1="553" x2="553" y1="241" y2="263" class="net_21,22,23,24,25,26,27,28,29,30"/>
  <circle cx="332" cy="241" r="2" style="fill:#000" class="net_21,22,23,24,25,26,27,28,29,30"/>
  <line x1="553" x2="612" y1="263" y2="263" class="net_21,22,23,24,25,26,27,28,29,30"/>
  <line x1="322" x2="361.6666666666667" y1="512" y2="512" class="net_120,121,122,123,124,125"/>
  <line x1="383.6666666666667" x2="397" y1="504.5" y2="504.5" class="net_35"/>
  <line x1="397" x2="397" y1="504.5" y2="612" class="net_35"/>
  <line x1="397" x2="422" y1="612" y2="612" class="net_35"/>
  <line x1="387" x2="422" y1="627" y2="627" class="net_34"/>
  <line x1="387" x2="426.6666666666667" y1="447" y2="447" class="net_126,127,128,129,130,131,132,133,134,135"/>
  <line x1="448.6666666666667" x2="462" y1="439.5" y2="439.5" class="net_37"/>
  <line x1="462" x2="462" y1="439.5" y2="604.5" class="net_37"/>
  <line x1="462" x2="489" y1="604.5" y2="604.5" class="net_37"/>
  <line x1="452" x2="489" y1="619.5" y2="619.5" class="net_36"/>
  <line x1="452" x2="493.6666666666667" y1="385" y2="385" class="net_136,137,138,139,140,141,142"/>
  <line x1="517" x2="563" y1="198" y2="198" class="net_143"/>
  <line x1="563" x2="563" y1="198" y2="337.5" class="net_143"/>
  <circle cx="563" cy="198" r="2" style="fill:#000" class="net_143"/>
  <line x1="563" x2="598" y1="337.5" y2="337.5" class="net_143"/>
  <line x1="517" x2="598" y1="198" y2="198" class="net_143"/>
  <line x1="42" x2="342" y1="43" y2="43" class="net_144"/>
  <line x1="342" x2="342" y1="43" y2="252" class="net_144"/>
  <line x1="342" x2="543" y1="252" y2="252" class="net_144"/>
  <line x1="543" x2="543" y1="252" y2="357.5" class="net_144"/>
  <line x1="543" x2="598" y1="357.5" y2="357.5" class="net_144"/>
  <line x1="42" x2="493.6666666666667" y1="43" y2="43" class="net_144"/>
  <line x1="42" x2="342" y1="43" y2="43" class="net_144"/>
  <line x1="342" x2="342" y1="43" y2="12" class="net_144"/>
  <line x1="342" x2="583" y1="12" y2="12" class="net_144"/>
  <line x1="583" x2="583" y1="12" y2="218" class="net_144"/>
  <circle cx="342" cy="43" r="2" style="fill:#000" class="net_144"/>
  <line x1="583" x2="598" y1="218" y2="218" class="net_144"/>
  <line x1="42" x2="62" y1="43" y2="43" class="net_144"/>
  <line x1="62" x2="62" y1="43" y2="369" class="net_144"/>
  <circle cx="62" cy="43" r="2" style="fill:#000" class="net_144"/>
  <line x1="62" x2="98.33333333333333" y1="369" y2="369" class="net_144"/>
  <line x1="42" x2="62" y1="43" y2="43" class="net_144"/>
  <line x1="62" x2="62" y1="43" y2="139" class="net_144"/>
  <circle cx="62" cy="139" r="2" style="fill:#000" class="net_144"/>
  <line x1="62" x2="98.33333333333333" y1="139" y2="139" class="net_144"/>
  <line x1="515.6666666666667" x2="608" y1="377.5" y2="377.5" class="net_39"/>
  <line x1="608" x2="608" y1="377.5" y2="362.5" class="net_39"/>
  <line x1="515.6666666666667" x2="573" y1="35.5" y2="35.5" class="net_40"/>
  <line x1="573" x2="573" y1="35.5" y2="240.5" class="net_40"/>
  <line x1="573" x2="608" y1="240.5" y2="240.5" class="net_40"/>
  <line x1="608" x2="608" y1="240.5" y2="223" class="net_40"/>
  <line x1="517" x2="533" y1="489.5" y2="489.5" class="net_148,149,150"/>
  <line x1="533" x2="533" y1="489.5" y2="534.5" class="net_148,149,150"/>
  <line x1="533" x2="598" y1="534.5" y2="534.5" class="net_148,149,150"/>
  <line x1="515" x2="598" y1="554.5" y2="554.5" class="net_3,4,5"/>
  <line x1="519" x2="608" y1="612" y2="612" class="net_38"/>
  <line x1="608" x2="608" y1="612" y2="559.5" class="net_38"/>
  <line x1="120.33333333333333" x2="142" y1="361.5" y2="361.5" class="net_41,42,43,44,45,46,47,48,49,50"/>
  <line x1="142" x2="142" y1="361.5" y2="276.5" class="net_41,42,43,44,45,46,47,48,49,50"/>
  <line x1="142" x2="165.33333333333334" y1="276.5" y2="276.5" class="net_41,42,43,44,45,46,47,48,49,50"/>
  <line x1="122" x2="152" y1="74" y2="74" class="net_152,153,154,155,156,157,158,159,160,161"/>
  <line x1="152" x2="152" y1="74" y2="296.5" class="net_152,153,154,155,156,157,158,159,160,161"/>
  <line x1="152" x2="165.33333333333334" y1="296.5" y2="296.5" class="net_152,153,154,155,156,157,158,159,160,161"/>
  <line x1="122" x2="152" y1="74" y2="74" class="net_152,153,154,155,156,157,158,159,160,161"/>
  <line x1="152" x2="152" y1="74" y2="151.5" class="net_152,153,154,155,156,157,158,159,160,161"/>
  <circle cx="152" cy="151.5" r="2" style="fill:#000" class="net_152,153,154,155,156,157,158,159,160,161"/>
  <line x1="152" x2="165.33333333333334" y1="151.5" y2="151.5" class="net_152,153,154,155,156,157,158,159,160,161"/>
  <line x1="120.33333333333333" x2="175.33333333333334" y1="316.5" y2="316.5" class="net_31"/>
  <line x1="175.33333333333334" x2="175.33333333333334" y1="316.5" y2="301.5" class="net_31"/>
  <line x1="120.33333333333333" x2="132" y1="316.5" y2="316.5" class="net_31"/>
  <line x1="132" x2="132" y1="316.5" y2="180.5" class="net_31"/>
  <line x1="132" x2="243.66666666666666" y1="180.5" y2="180.5" class="net_31"/>
  <circle cx="132" cy="316.5" r="2" style="fill:#000" class="net_31"/>
  <line x1="243.66666666666666" x2="243.66666666666666" y1="180.5" y2="146.5" class="net_31"/>
  <line x1="120.33333333333333" x2="165.33333333333334" y1="131.5" y2="131.5" class="net_61,62,63,64,65,66,67,68,69,70"/>
  <line x1="120.33333333333333" x2="175.33333333333334" y1="191.5" y2="191.5" class="net_71"/>
  <line x1="175.33333333333334" x2="175.33333333333334" y1="191.5" y2="156.5" class="net_71"/>
  <line x1="190" x2="212" y1="221.5" y2="221.5" class="net_2"/>
  <line x1="212" x2="212" y1="221.5" y2="425" class="net_2"/>
  <circle cx="212" cy="221.5" r="2" style="fill:#000" class="net_2"/>
  <line x1="212" x2="227" y1="425" y2="425" class="net_2"/>
  <line x1="190" x2="292" y1="221.5" y2="221.5" class="net_2"/>
  <line x1="185.33333333333334" x2="202" y1="286.5" y2="286.5" class="net_51,52,53,54,55,56,57,58,59,60"/>
  <line x1="202" x2="202" y1="286.5" y2="405" class="net_51,52,53,54,55,56,57,58,59,60"/>
  <line x1="202" x2="227" y1="405" y2="405" class="net_51,52,53,54,55,56,57,58,59,60"/>
  <line x1="185.33333333333334" x2="233.66666666666666" y1="141.5" y2="141.5" class="net_72,73,74,75,76,77,78,79,80,81"/>
  <line x1="253.66666666666666" x2="267" y1="131.5" y2="131.5" class="net_82,83,84,85,86,87,88,89,90,91"/>
  <line x1="267" x2="267" y1="131.5" y2="201.5" class="net_82,83,84,85,86,87,88,89,90,91"/>
  <line x1="267" x2="292" y1="201.5" y2="201.5" class="net_82,83,84,85,86,87,88,89,90,91"/>
  <line x1="42" x2="98.33333333333333" y1="199" y2="199" class="net_173,174,175,176,177,178,179,180,181,182"/>
  <line x1="618" x2="653" y1="544.5" y2="544.5" class="net_6,7,8"/>
  <line x1="618" x2="653" y1="347.5" y2="347.5" class="net_9"/>
  <line x1="618" x2="653" y1="208" y2="208" class="net_10"/>
  <line x1="618" x2="653" y1="415" y2="415" class="net_11,12,13,14,15,16,17,18,19,20,183,184,185,186,187,188,189,190,191,192,193,194,195,196,197,198,199,200,201,202,203,204"/>
  <line x1="618" x2="653" y1="273" y2="273" class="net_21,22,23,24,25,26,27,28,29,30,183,184,185,186,187,188,189,190,191,192,193,194,195,196,197,198,199,200,201,202,203,204"/>
  <line x1="517" x2="533" y1="283" y2="283" class="net_183,184,185,186,187,188,189,190,191,192,193,194,195,196,197,198,199,200,201,202,203,204"/>
  <line x1="533" x2="533" y1="283" y2="425" class="net_183,184,185,186,187,188,189,190,191,192,193,194,195,196,197,198,199,200,201,202,203,204"/>
  <circle cx="533" cy="283" r="2" style="fill:#000" class="net_183,184,185,186,187,188,189,190,191,192,193,194,195,196,197,198,199,200,201,202,203,204"/>
  <line x1="533" x2="612" y1="425" y2="425" class="net_183,184,185,186,187,188,189,190,191,192,193,194,195,196,197,198,199,200,201,202,203,204"/>
  <line x1="517" x2="612" y1="283" y2="283" class="net_183,184,185,186,187,188,189,190,191,192,193,194,195,196,197,198,199,200,201,202,203,204"/>
</svg>
