<svg xmlns="http://www.w3.org/2000/svg" xmlns:xlink="http://www.w3.org/1999/xlink" xmlns:s="https://github.com/nturley/netlistsvg" width="341" height="1046">
  <style>svg {
    stroke:#000;
    fill:none;
  }
  text {
    fill:#000;
    stroke:none;
    font-size:10px;
    font-weight: bold;
    font-family: "Courier New", monospace;
  }
  .nodelabel {
    text-anchor: middle;
  }
  .inputPortLabel {
    text-anchor: end;
  }
  .splitjoinBody {
    fill:#000;
  }</style>
  <g s:type="generic" transform="translate(190,91.5)" s:width="30" s:height="40" id="cell_mem">
    <text x="15" y="-4" class="nodelabel cell_mem" s:attribute="ref">$mem_v2</text>
    <rect width="30" height="180" s:generic="body" class="cell_mem"/>
    <g transform="translate(0,10)" s:x="0" s:y="10" s:pid="in0" id="port_mem~RD_ADDR">
      <text x="-3" y="-4" class="inputPortLabel cell_mem">RD_ADDR</text>
    </g>
    <g transform="translate(0,30)" s:x="0" s:y="10" s:pid="in0" id="port_mem~RD_ARST">
      <text x="-3" y="-4" class="inputPortLabel cell_mem">RD_ARST</text>
    </g>
    <g transform="translate(0,50)" s:x="0" s:y="10" s:pid="in0" id="port_mem~RD_CLK">
      <text x="-3" y="-4" class="inputPortLabel cell_mem">RD_CLK</text>
    </g>
    <g transform="translate(0,70)" s:x="0" s:y="10" s:pid="in0" id="port_mem~RD_EN">
      <text x="-3" y="-4" class="inputPortLabel cell_mem">RD_EN</text>
    </g>
    <g transform="translate(0,90)" s:x="0" s:y="10" s:pid="in0" id="port_mem~RD_SRST">
      <text x="-3" y="-4" class="inputPortLabel cell_mem">RD_SRST</text>
    </g>
    <g transform="translate(0,110)" s:x="0" s:y="10" s:pid="in0" id="port_mem~WR_ADDR">
      <text x="-3" y="-4" class="inputPortLabel cell_mem">WR_ADDR</text>
    </g>
    <g transform="translate(0,130)" s:x="0" s:y="10" s:pid="in0" id="port_mem~WR_CLK">
      <text x="-3" y="-4" class="inputPortLabel cell_mem">WR_CLK</text>
    </g>
    <g transform="translate(0,150)" s:x="0" s:y="10" s:pid="in0" id="port_mem~WR_DATA">
      <text x="-3" y="-4" class="inputPortLabel cell_mem">WR_DATA</text>
    </g>
    <g transform="translate(0,170)" s:x="0" s:y="10" s:pid="in0" id="port_mem~WR_EN">
      <text x="-3" y="-4" class="inputPortLabel cell_mem">WR_EN</text>
    </g>
    <g transform="translate(30,10)" s:x="30" s:y="10" s:pid="out0" id="port_mem~RD_DATA">
      <text x="5" y="-4" style="fill:#000; stroke:none" class="cell_mem">RD_DATA</text>
    </g>
  </g>
  <g s:type="inputExt" transform="translate(77,217)" s:width="30" s:height="20" id="cell_clk">
    <text x="15" y="-4" class="nodelabel cell_clk" s:attribute="ref">clk</text>
    <s:alias val="$_inputExt_"/>
    <path d="M0,0 L0,20 L15,20 L30,10 L15,0 Z" class="cell_clk"/>
    <g s:x="28" s:y="10" s:pid="Y"/>
  </g>
  <g s:type="inputExt" transform="translate(12,302)" s:width="30" s:height="20" id="cell_we">
    <text x="15" y="-4" class="nodelabel cell_we" s:attribute="ref">we</text>
    <s:alias val="$_inputExt_"/>
    <path d="M0,0 L0,20 L15,20 L30,10 L15,0 Z" class="cell_we"/>
    <g s:x="28" s:y="10" s:pid="Y"/>
  </g>
  <g s:type="inputExt" transform="translate(77,22)" s:width="30" s:height="20" id="cell_addr">
    <text x="15" y="-4" class="nodelabel cell_addr" s:attribute="ref">addr</text>
    <s:alias val="$_inputExt_"/>
    <path d="M0,0 L0,20 L15,20 L30,10 L15,0 Z" class="cell_addr"/>
    <g s:x="28" s:y="10" s:pid="Y"/>
  </g>
  <g s:type="inputExt" transform="translate(77,282)" s:width="30" s:height="20" id="cell_wdata">
    <text x="15" y="-4" class="nodelabel cell_wdata" s:attribute="ref">wdata</text>
    <s:alias val="$_inputExt_"/>
    <path d="M0,0 L0,20 L15,20 L30,10 L15,0 Z" class="cell_wdata"/>
    <g s:x="28" s:y="10" s:pid="Y"/>
  </g>
  <g s:type="outputExt" transform="translate(299,92)" s:width="30" s:height="20" id="cell_rdata">
    <text x="15" y="-4" class="nodelabel cell_rdata" s:attribute="ref">rdata</text>
    <s:alias val="$_outputExt_"/>
    <path d="M30,0 L30,20 L15,20 L0,10 L15,0 Z" class="cell_rdata"/>
    <g s:x="0" s:y="10" s:pid="A"/>
  </g>
  <g s:type="constant" transform="translate(77,87)" s:width="30" s:height="20" id="cell_0">
    <text x="15" y="-4" class="nodelabel cell_0" s:attribute="ref">0</text>
    <s:alias val="$_constant_"/>
    <rect width="30" height="20" class="cell_0"/>
    <g s:x="30" s:y="10" s:pid="Y"/>
  </g>
  <g s:type="constant" transform="translate(77,152)" s:width="30" s:height="20" id="cell_1">
    <text x="15" y="-4" class="nodelabel cell_1" s:attribute="ref">1</text>
    <s:alias val="$_constant_"/>
    <rect width="30" height="20" class="cell_1"/>
    <g s:x="30" s:y="10" s:pid="Y"/>
  </g>
  <g s:type="join" transform="translate(78.04,354)" s:width="4" s:height="40" id="cell_$join$,3,3,3,3,3,3,3,3,3,3,3,3,3,3,3,3,3,3,3,3,3,3,3,3,3,3,3,3,3,3,3,3,">
    <rect width="5" height="640" class="splitjoinBody" s:generic="body"/>
    <s:alias val="$_join_"/>
    <g s:x="5" s:y="20" s:pid="out"/>
    <g transform="translate(0,10)" s:x="0" s:y="10" s:pid="in0">
      <text x="-3" y="-4" class="inputPortLabel">0</text>
    </g>
    <g transform="translate(0,30)" s:x="0" s:y="10" s:pid="in0">
      <text x="-3" y="-4" class="inputPortLabel">1</text>
    </g>
    <g transform="translate(0,50)" s:x="0" s:y="10" s:pid="in0">
      <text x="-3" y="-4" class="inputPortLabel">2</text>
    </g>
    <g transform="translate(0,70)" s:x="0" s:y="10" s:pid="in0">
      <text x="-3" y="-4" class="inputPortLabel">3</text>
    </g>
    <g transform="translate(0,90)" s:x="0" s:y="10" s:pid="in0">
      <text x="-3" y="-4" class="inputPortLabel">4</text>
    </g>
    <g transform="translate(0,110)" s:x="0" s:y="10" s:pid="in0">
      <text x="-3" y="-4" class="inputPortLabel">5</text>
    </g>
    <g transform="translate(0,130)" s:x="0" s:y="10" s:pid="in0">
      <text x="-3" y="-4" class="inputPortLabel">6</text>
    </g>
    <g transform="translate(0,150)" s:x="0" s:y="10" s:pid="in0">
      <text x="-3" y="-4" class="inputPortLabel">7</text>
    </g>
    <g transform="translate(0,170)" s:x="0" s:y="10" s:pid="in0">
      <text x="-3" y="-4" class="inputPortLabel">8</text>
    </g>
    <g transform="translate(0,190)" s:x="0" s:y="10" s:pid="in0">
      <text x="-3" y="-4" class="inputPortLabel">9</text>
    </g>
    <g transform="translate(0,210)" s:x="0" s:y="10" s:pid="in0">
      <text x="-3" y="-4" class="inputPortLabel">10</text>
    </g>
    <g transform="translate(0,230)" s:x="0" s:y="10" s:pid="in0">
      <text x="-3" y="-4" class="inputPortLabel">11</text>
    </g>
    <g transform="translate(0,250)" s:x="0" s:y="10" s:pid="in0">
      <text x="-3" y="-4" class="inputPortLabel">12</text>
    </g>
    <g transform="translate(0,270)" s:x="0" s:y="10" s:pid="in0">
      <text x="-3" y="-4" class="inputPortLabel">13</text>
    </g>
    <g transform="translate(0,290)" s:x="0" s:y="10" s:pid="in0">
      <text x="-3" y="-4" class="inputPortLabel">14</text>
    </g>
    <g transform="translate(0,310)" s:x="0" s:y="10" s:pid="in0">
      <text x="-3" y="-4" class="inputPortLabel">15</text>
    </g>
    <g transform="translate(0,330)" s:x="0" s:y="10" s:pid="in0">
      <text x="-3" y="-4" class="inputPortLabel">16</text>
    </g>
    <g transform="translate(0,350)" s:x="0" s:y="10" s:pid="in0">
      <text x="-3" y="-4" class="inputPortLabel">17</text>
    </g>
    <g transform="translate(0,370)" s:x="0" s:y="10" s:pid="in0">
      <text x="-3" y="-4" class="inputPortLabel">18</text>
    </g>
    <g transform="translate(0,390)" s:x="0" s:y="10" s:pid="in0">
      <text x="-3" y="-4" class="inputPortLabel">19</text>
    </g>
    <g transform="translate(0,410)" s:x="0" s:y="10" s:pid="in0">
      <text x="-3" y="-4" class="inputPortLabel">20</text>
    </g>
    <g transform="translate(0,430)" s:x="0" s:y="10" s:pid="in0">
      <text x="-3" y="-4" class="inputPortLabel">21</text>
    </g>
    <g transform="translate(0,450)" s:x="0" s:y="10" s:pid="in0">
      <text x="-3" y="-4" class="inputPortLabel">22</text>
    </g>
    <g transform="translate(0,470)" s:x="0" s:y="10" s:pid="in0">
      <text x="-3" y="-4" class="inputPortLabel">23</text>
    </g>
    <g transform="translate(0,490)" s:x="0" s:y="10" s:pid="in0">
      <text x="-3" y="-4" class="inputPortLabel">24</text>
    </g>
    <g transform="translate(0,510)" s:x="0" s:y="10" s:pid="in0">
      <text x="-3" y="-4" class="inputPortLabel">25</text>
    </g>
    <g transform="translate(0,530)" s:x="0" s:y="10" s:pid="in0">
      <text x="-3" y="-4" class="inputPortLabel">26</text>
    </g>
    <g transform="translate(0,550)" s:x="0" s:y="10" s:pid="in0">
      <text x="-3" y="-4" class="inputPortLabel">27</text>
    </g>
    <g transform="translate(0,570)" s:x="0" s:y="10" s:pid="in0">
      <text x="-3" y="-4" class="inputPortLabel">28</text>
    </g>
    <g transform="translate(0,590)" s:x="0" s:y="10" s:pid="in0">
      <text x="-3" y="-4" class="inputPortLabel">29</text>
    </g>
    <g transform="translate(0,610)" s:x="0" s:y="10" s:pid="in0">
      <text x="-3" y="-4" class="inputPortLabel">30</text>
    </g>
    <g transform="translate(0,630)" s:x="0" s:y="10" s:pid="in0">
      <text x="-3" y="-4" class="inputPortLabel">31</text>
    </g>
  </g>
  <line x1="105" x2="137" y1="32" y2="32" class="net_4,5,6,7,8,9,10,11,12,13"/>
  <line x1="137" x2="137" y1="32" y2="102" class="net_4,5,6,7,8,9,10,11,12,13"/>
  <circle cx="137" cy="102" r="2" style="fill:#000" class="net_4,5,6,7,8,9,10,11,12,13"/>
  <line x1="137" x2="190" y1="102" y2="102" class="net_4,5,6,7,8,9,10,11,12,13"/>
  <line x1="105" x2="137" y1="32" y2="32" class="net_4,5,6,7,8,9,10,11,12,13"/>
  <line x1="137" x2="137" y1="32" y2="202" class="net_4,5,6,7,8,9,10,11,12,13"/>
  <line x1="137" x2="190" y1="202" y2="202" class="net_4,5,6,7,8,9,10,11,12,13"/>
  <line x1="107" x2="127" y1="97" y2="97" class="net_78"/>
  <line x1="127" x2="127" y1="97" y2="122" class="net_78"/>
  <circle cx="127" cy="122" r="2" style="fill:#000" class="net_78"/>
  <line x1="127" x2="190" y1="122" y2="122" class="net_78"/>
  <line x1="107" x2="127" y1="97" y2="97" class="net_78"/>
  <line x1="127" x2="127" y1="97" y2="182" class="net_78"/>
  <line x1="127" x2="190" y1="182" y2="182" class="net_78"/>
  <line x1="105" x2="117" y1="227" y2="227" class="net_2"/>
  <line x1="117" x2="117" y1="227" y2="142" class="net_2"/>
  <line x1="117" x2="190" y1="142" y2="142" class="net_2"/>
  <line x1="105" x2="117" y1="227" y2="227" class="net_2"/>
  <line x1="117" x2="117" y1="227" y2="222" class="net_2"/>
  <circle cx="117" cy="222" r="2" style="fill:#000" class="net_2"/>
  <line x1="117" x2="190" y1="222" y2="222" class="net_2"/>
  <line x1="107" x2="190" y1="162" y2="162" class="net_79"/>
  <line x1="105" x2="117" y1="292" y2="292" class="net_14,15,16,17,18,19,20,21,22,23,24,25,26,27,28,29,30,31,32,33,34,35,36,37,38,39,40,41,42,43,44,45"/>
  <line x1="117" x2="117" y1="292" y2="242" class="net_14,15,16,17,18,19,20,21,22,23,24,25,26,27,28,29,30,31,32,33,34,35,36,37,38,39,40,41,42,43,44,45"/>
  <line x1="117" x2="190" y1="242" y2="242" class="net_14,15,16,17,18,19,20,21,22,23,24,25,26,27,28,29,30,31,32,33,34,35,36,37,38,39,40,41,42,43,44,45"/>
  <line x1="84.04" x2="127" y1="374.5" y2="374.5" class="net_3,3,3,3,3,3,3,3,3,3,3,3,3,3,3,3,3,3,3,3,3,3,3,3,3,3,3,3,3,3,3,3"/>
  <line x1="127" x2="127" y1="374.5" y2="262" class="net_3,3,3,3,3,3,3,3,3,3,3,3,3,3,3,3,3,3,3,3,3,3,3,3,3,3,3,3,3,3,3,3"/>
  <line x1="127" x2="190" y1="262" y2="262" class="net_3,3,3,3,3,3,3,3,3,3,3,3,3,3,3,3,3,3,3,3,3,3,3,3,3,3,3,3,3,3,3,3"/>
  <line x1="221" x2="299" y1="102" y2="102" class="net_46,47,48,49,50,51,52,53,54,55,56,57,58,59,60,61,62,63,64,65,66,67,68,69,70,71,72,73,74,75,76,77"/>
  <line x1="40" x2="52" y1="312" y2="312" class="net_3"/>
  <line x1="52" x2="52" y1="312" y2="342" class="net_3"/>
  <line x1="52" x2="78.54" y1="342" y2="342" class="net_3"/>
  <circle cx="52" cy="312" r="2" style="fill:#000" class="net_3"/>
  <circle cx="52" cy="342" r="2" style="fill:#000" class="net_3"/>
  <line x1="78.54" x2="78.54" y1="342" y2="364" class="net_3"/>
  <line x1="40" x2="52" y1="312" y2="312" class="net_3"/>
  <line x1="52" x2="52" y1="312" y2="332" class="net_3"/>
  <line x1="52" x2="78.54" y1="332" y2="332" class="net_3"/>
  <circle cx="52" cy="332" r="2" style="fill:#000" class="net_3"/>
  <line x1="78.54" x2="78.54" y1="332" y2="384" class="net_3"/>
  <line x1="40" x2="52" y1="312" y2="312" class="net_3"/>
  <line x1="52" x2="52" y1="312" y2="322" class="net_3"/>
  <line x1="52" x2="78.54" y1="322" y2="322" class="net_3"/>
  <circle cx="52" cy="322" r="2" style="fill:#000" class="net_3"/>
  <line x1="78.54" x2="78.54" y1="322" y2="404" class="net_3"/>
  <line x1="40" x2="78.54" y1="312" y2="312" class="net_3"/>
  <line x1="78.54" x2="78.54" y1="312" y2="424" class="net_3"/>
  <line x1="40" x2="52" y1="312" y2="312" class="net_3"/>
  <line x1="52" x2="52" y1="312" y2="444.5" class="net_3"/>
  <circle cx="52" cy="444.5" r="2" style="fill:#000" class="net_3"/>
  <line x1="52" x2="78.04" y1="444.5" y2="444.5" class="net_3"/>
  <line x1="40" x2="52" y1="312" y2="312" class="net_3"/>
  <line x1="52" x2="52" y1="312" y2="464.5" class="net_3"/>
  <circle cx="52" cy="464.5" r="2" style="fill:#000" class="net_3"/>
  <line x1="52" x2="78.04" y1="464.5" y2="464.5" class="net_3"/>
  <line x1="40" x2="52" y1="312" y2="312" class="net_3"/>
  <line x1="52" x2="52" y1="312" y2="484.5" class="net_3"/>
  <circle cx="52" cy="484.5" r="2" style="fill:#000" class="net_3"/>
  <line x1="52" x2="78.04" y1="484.5" y2="484.5" class="net_3"/>
  <line x1="40" x2="52" y1="312" y2="312" class="net_3"/>
  <line x1="52" x2="52" y1="312" y2="504.5" class="net_3"/>
  <circle cx="52" cy="504.5" r="2" style="fill:#000" class="net_3"/>
  <line x1="52" x2="78.04" y1="504.5" y2="504.5" class="net_3"/>
  <line x1="40" x2="52" y1="312" y2="312" class="net_3"/>
  <line x1="52" x2="52" y1="312" y2="524.5" class="net_3"/>
  <circle cx="52" cy="524.5" r="2" style="fill:#000" class="net_3"/>
  <line x1="52" x2="78.04" y1="524.5" y2="524.5" class="net_3"/>
  <line x1="40" x2="52" y1="312" y2="312" class="net_3"/>
  <line x1="52" x2="52" y1="312" y2="544.5" class="net_3"/>
  <circle cx="52" cy="544.5" r="2" style="fill:#000" class="net_3"/>
  <line x1="52" x2="78.04" y1="544.5" y2="544.5" class="net_3"/>
  <line x1="40" x2="52" y1="312" y2="312" class="net_3"/>
  <line x1="52" x2="52" y1="312" y2="564.5" class="net_3"/>
  <circle cx="52" cy="564.5" r="2" style="fill:#000" class="net_3"/>
  <line x1="52" x2="78.04" y1="564.5" y2="564.5" class="net_3"/>
  <line x1="40" x2="52" y1="312" y2="312" class="net_3"/>
  <line x1="52" x2="52" y1="312" y2="584.5" class="net_3"/>
  <circle cx="52" cy="584.5" r="2" style="fill:#000" class="net_3"/>
  <line x1="52" x2="78.04" y1="584.5" y2="584.5" class="net_3"/>
  <line x1="40" x2="52" y1="312" y2="312" class="net_3"/>
  <line x1="52" x2="52" y1="312" y2="604.5" class="net_3"/>
  <circle cx="52" cy="604.5" r="2" style="fill:#000" class="net_3"/>
  <line x1="52" x2="78.04" y1="604.5" y2="604.5" class="net_3"/>
  <line x1="40" x2="52" y1="312" y2="312" class="net_3"/>
  <line x1="52" x2="52" y1="312" y2="624.5" class="net_3"/>
  <circle cx="52" cy="624.5" r="2" style="fill:#000" class="net_3"/>
  <line x1="52" x2="78.04" y1="624.5" y2="624.5" class="net_3"/>
  <line x1="40" x2="52" y1="312" y2="312" class="net_3"/>
  <line x1="52" x2="52" y1="312" y2="644.5" class="net_3"/>
  <circle cx="52" cy="644.5" r="2" style="fill:#000" class="net_3"/>
  <line x1="52" x2="78.04" y1="644.5" y2="644.5" class="net_3"/>
  <line x1="40" x2="52" y1="312" y2="312" class="net_3"/>
  <line x1="52" x2="52" y1="312" y2="664.5" class="net_3"/>
  <circle cx="52" cy="664.5" r="2" style="fill:#000" class="net_3"/>
  <line x1="52" x2="78.04" y1="664.5" y2="664.5" class="net_3"/>
  <line x1="40" x2="52" y1="312" y2="312" class="net_3"/>
  <line x1="52" x2="52" y1="312" y2="684.5" class="net_3"/>
  <circle cx="52" cy="684.5" r="2" style="fill:#000" class="net_3"/>
  <line x1="52" x2="78.04" y1="684.5" y2="684.5" class="net_3"/>
  <line x1="40" x2="52" y1="312" y2="312" class="net_3"/>
  <line x1="52" x2="52" y1="312" y2="704.5" class="net_3"/>
  <circle cx="52" cy="704.5" r="2" style="fill:#000" class="net_3"/>
  <line x1="52" x2="78.04" y1="704.5" y2="704.5" class="net_3"/>
  <line x1="40" x2="52" y1="312" y2="312" class="net_3"/>
  <line x1="52" x2="52" y1="312" y2="724.5" class="net_3"/>
  <circle cx="52" cy="724.5" r="2" style="fill:#000" class="net_3"/>
  <line x1="52" x2="78.04" y1="724.5" y2="724.5" class="net_3"/>
  <line x1="40" x2="52" y1="312" y2="312" class="net_3"/>
  <line x1="52" x2="52" y1="312" y2="744.5" class="net_3"/>
  <circle cx="52" cy="744.5" r="2" style="fill:#000" class="net_3"/>
  <line x1="52" x2="78.04" y1="744.5" y2="744.5" class="net_3"/>
  <line x1="40" x2="52" y1="312" y2="312" class="net_3"/>
  <line x1="52" x2="52" y1="312" y2="764.5" class="net_3"/>
  <circle cx="52" cy="764.5" r="2" style="fill:#000" class="net_3"/>
  <line x1="52" x2="78.04" y1="764.5" y2="764.5" class="net_3"/>
  <line x1="40" x2="52" y1="312" y2="312" class="net_3"/>
  <line x1="52" x2="52" y1="312" y2="784.5" class="net_3"/>
  <circle cx="52" cy="784.5" r="2" style="fill:#000" class="net_3"/>
  <line x1="52" x2="78.04" y1="784.5" y2="784.5" class="net_3"/>
  <line x1="40" x2="52" y1="312" y2="312" class="net_3"/>
  <line x1="52" x2="52" y1="312" y2="804.5" class="net_3"/>
  <circle cx="52" cy="804.5" r="2" style="fill:#000" class="net_3"/>
  <line x1="52" x2="78.04" y1="804.5" y2="804.5" class="net_3"/>
  <line x1="40" x2="52" y1="312" y2="312" class="net_3"/>
  <line x1="52" x2="52" y1="312" y2="824.5" class="net_3"/>
  <circle cx="52" cy="824.5" r="2" style="fill:#000" class="net_3"/>
  <line x1="52" x2="78.04" y1="824.5" y2="824.5" class="net_3"/>
  <line x1="40" x2="52" y1="312" y2="312" class="net_3"/>
  <line x1="52" x2="52" y1="312" y2="844.5" class="net_3"/>
  <circle cx="52" cy="844.5" r="2" style="fill:#000" class="net_3"/>
  <line x1="52" x2="78.04" y1="844.5" y2="844.5" class="net_3"/>
  <line x1="40" x2="52" y1="312" y2="312" class="net_3"/>
  <line x1="52" x2="52" y1="312" y2="864.5" class="net_3"/>
  <circle cx="52" cy="864.5" r="2" style="fill:#000" class="net_3"/>
  <line x1="52" x2="78.04" y1="864.5" y2="864.5" class="net_3"/>
  <line x1="40" x2="52" y1="312" y2="312" class="net_3"/>
  <line x1="52" x2="52" y1="312" y2="884.5" class="net_3"/>
  <circle cx="52" cy="884.5" r="2" style="fill:#000" class="net_3"/>
  <line x1="52" x2="78.04" y1="884.5" y2="884.5" class="net_3"/>
  <line x1="40" x2="52" y1="312" y2="312" class="net_3"/>
  <line x1="52" x2="52" y1="312" y2="904.5" class="net_3"/>
  <circle cx="52" cy="904.5" r="2" style="fill:#000" class="net_3"/>
  <line x1="52" x2="78.04" y1="904.5" y2="904.5" class="net_3"/>
  <line x1="40" x2="52" y1="312" y2="312" class="net_3"/>
  <line x1="52" x2="52" y1="312" y2="1034" class="net_3"/>
  <line x1="52" x2="78.54" y1="1034" y2="1034" class="net_3"/>
  <line x1="78.54" x2="78.54" y1="1034" y2="925" class="net_3"/>
  <line x1="40" x2="52" y1="312" y2="312" class="net_3"/>
  <line x1="52" x2="52" y1="312" y2="1024" class="net_3"/>
  <line x1="52" x2="78.54" y1="1024" y2="1024" class="net_3"/>
  <circle cx="52" cy="1024" r="2" style="fill:#000" class="net_3"/>
  <line x1="78.54" x2="78.54" y1="1024" y2="945" class="net_3"/>
  <line x1="40" x2="52" y1="312" y2="312" class="net_3"/>
  <line x1="52" x2="52" y1="312" y2="1014" class="net_3"/>
  <line x1="52" x2="78.54" y1="1014" y2="1014" class="net_3"/>
  <circle cx="52" cy="1014" r="2" style="fill:#000" class="net_3"/>
  <line x1="78.54" x2="78.54" y1="1014" y2="965" class="net_3"/>
  <line x1="40" x2="52" y1="312" y2="312" class="net_3"/>
  <line x1="52" x2="52" y1="312" y2="1004" class="net_3"/>
  <line x1="52" x2="78.54" y1="1004" y2="1004" class="net_3"/>
  <circle cx="52" cy="1004" r="2" style="fill:#000" class="net_3"/>
  <line x1="78.54" x2="78.54" y1="1004" y2="985" class="net_3"/>
</svg>
