<svg xmlns="http://www.w3.org/2000/svg" xmlns:xlink="http://www.w3.org/1999/xlink" xmlns:s="https://github.com/nturley/netlistsvg" width="932" height="944.5">
  <style>svg {
    stroke:#000;
    fill:none;
  }
  text {
    fill:#000;
    stroke:none;
    font-size:10px;
    font-weight: bold;
    font-family: "Courier New", monospace;
  }
  .nodelabel {
    text-anchor: middle;
  }
  .inputPortLabel {
    text-anchor: end;
  }
  .splitjoinBody {
    fill:#000;
  }</style>
  <g s:type="generic" transform="translate(91,699)" s:width="30" s:height="40" id="cell_:14">
    <text x="15" y="-4" class="nodelabel cell_:14" s:attribute="ref">≠</text>
    <rect width="30" height="40" s:generic="body" class="cell_:14"/>
    <g transform="translate(0,10)" s:x="0" s:y="10" s:pid="in0" id="port_:14~A">
      <text x="-3" y="-4" class="inputPortLabel cell_:14">A</text>
    </g>
    <g transform="translate(0,30)" s:x="0" s:y="10" s:pid="in0" id="port_:14~B">
      <text x="-3" y="-4" class="inputPortLabel cell_:14">B</text>
    </g>
    <g transform="translate(30,10)" s:x="30" s:y="10" s:pid="out0" id="port_:14~Y">
      <text x="5" y="-4" style="fill:#000; stroke:none" class="cell_:14">Y</text>
    </g>
  </g>
  <g s:type="eq" transform="translate(93,777)" s:width="25" s:height="25" id="cell_:17">
    <s:alias val="$eq"/>
    <circle r="12.5" cx="12.5" cy="12.5" class="cell_:17"/>
    <line x1="7.5" x2="17.5" y1="10" y2="10" class="cell_:17"/>
    <line x1="7.5" x2="17.5" y1="15" y2="15" class="cell_:17"/>
    <g s:x="3" s:y="5" s:pid="A"/>
    <g s:x="3" s:y="20" s:pid="B"/>
    <g s:x="25" s:y="12.5" s:pid="Y"/>
  </g>
  <g s:type="and" transform="translate(164,784.5)" s:width="30" s:height="25" id="cell_:18">
    <s:alias val="$and"/>
    <s:alias val="$logic_and"/>
    <s:alias val="$_AND_"/>
    <path d="M0,0 L0,25 L15,25 A15 12.5 0 0 0 15,0 Z" class="cell_:18"/>
    <g s:x="0" s:y="5" s:pid="A"/>
    <g s:x="0" s:y="20" s:pid="B"/>
    <g s:x="30" s:y="12.5" s:pid="Y"/>
  </g>
  <g s:type="mux" transform="translate(237.33333333333334,662)" s:width="20" s:height="40" id="cell_:19">
    <s:alias val="$pmux"/>
    <s:alias val="$mux"/>
    <s:alias val="$_MUX_"/>
    <path d="M0,0 L20,10 L20,30 L0,40 Z" class="cell_:19"/>
    <g s:x="0" s:y="10" s:pid="A"/>
    <g s:x="0" s:y="30" s:pid="B"/>
    <g s:x="10" s:y="35" s:pid="S"/>
    <g s:x="20" s:y="20" s:pid="Y"/>
  </g>
  <g s:type="not" transform="translate(299,672)" s:width="30" s:height="20" id="cell_:24">
    <s:alias val="$_NOT_"/>
    <s:alias val="$not"/>
    <s:alias val="$logic_not"/>
    <path d="M0,0 L0,20 L20,10 Z" class="cell_:24"/>
    <circle cx="23" cy="10" r="3" class="cell_:24"/>
    <g s:x="0" s:y="10" s:pid="A"/>
    <g s:x="25" s:y="10" s:pid="Y"/>
  </g>
  <g s:type="and" transform="translate(364,727)" s:width="30" s:height="25" id="cell_:25">
    <s:alias val="$and"/>
    <s:alias val="$logic_and"/>
    <s:alias val="$_AND_"/>
    <path d="M0,0 L0,25 L15,25 A15 12.5 0 0 0 15,0 Z" class="cell_:25"/>
    <g s:x="0" s:y="5" s:pid="A"/>
    <g s:x="0" s:y="20" s:pid="B"/>
    <g s:x="30" s:y="12.5" s:pid="Y"/>
  </g>
  <g s:type="add" transform="translate(367.3333333333333,475)" s:width="25" s:height="25" id="cell_:33">
    <s:alias val="$add"/>
    <circle r="12.5" cx="12.5" cy="12.5" class="cell_:33"/>
    <line x1="7.5" x2="17.5" y1="12.5" y2="12.5" class="cell_:33"/>
    <line x1="12.5" x2="12.5" y1="7.5" y2="17.5" class="cell_:33"/>
    <g s:x="3" s:y="5" s:pid="A"/>
    <g s:x="3" s:y="20" s:pid="B"/>
    <g s:x="25" s:y="12.5" s:pid="Y"/>
  </g>
  <g s:type="mux" transform="translate(454.6666666666667,591)" s:width="20" s:height="40" id="cell_:35">
    <s:alias val="$pmux"/>
    <s:alias val="$mux"/>
    <s:alias val="$_MUX_"/>
    <path d="M0,0 L20,10 L20,30 L0,40 Z" class="cell_:35"/>
    <g s:x="0" s:y="10" s:pid="A"/>
    <g s:x="0" s:y="30" s:pid="B"/>
    <g s:x="10" s:y="35" s:pid="S"/>
    <g s:x="20" s:y="20" s:pid="Y"/>
  </g>
  <g s:type="not" transform="translate(868,359)" s:width="30" s:height="20" id="cell_:36">
    <s:alias val="$_NOT_"/>
    <s:alias val="$not"/>
    <s:alias val="$logic_not"/>
    <path d="M0,0 L0,20 L20,10 Z" class="cell_:36"/>
    <circle cx="23" cy="10" r="3" class="cell_:36"/>
    <g s:x="0" s:y="10" s:pid="A"/>
    <g s:x="25" s:y="10" s:pid="Y"/>
  </g>
  <g s:type="and" transform="translate(364,381.5)" s:width="30" s:height="25" id="cell_:37">
    <s:alias val="$and"/>
    <s:alias val="$logic_and"/>
    <s:alias val="$_AND_"/>
    <path d="M0,0 L0,25 L15,25 A15 12.5 0 0 0 15,0 Z" class="cell_:37"/>
    <g s:x="0" s:y="5" s:pid="A"/>
    <g s:x="0" s:y="20" s:pid="B"/>
    <g s:x="30" s:y="12.5" s:pid="Y"/>
  </g>
  <g s:type="add" transform="translate(367.3333333333333,787)" s:width="25" s:height="25" id="cell_:45">
    <s:alias val="$add"/>
    <circle r="12.5" cx="12.5" cy="12.5" class="cell_:45"/>
    <line x1="7.5" x2="17.5" y1="12.5" y2="12.5" class="cell_:45"/>
    <line x1="12.5" x2="12.5" y1="7.5" y2="17.5" class="cell_:45"/>
    <g s:x="3" s:y="5" s:pid="A"/>
    <g s:x="3" s:y="20" s:pid="B"/>
    <g s:x="25" s:y="12.5" s:pid="Y"/>
  </g>
  <g s:type="mux" transform="translate(454.6666666666667,769.5)" s:width="20" s:height="40" id="cell_:46">
    <s:alias val="$pmux"/>
    <s:alias val="$mux"/>
    <s:alias val="$_MUX_"/>
    <path d="M0,0 L20,10 L20,30 L0,40 Z" class="cell_:46"/>
    <g s:x="0" s:y="10" s:pid="A"/>
    <g s:x="0" s:y="30" s:pid="B"/>
    <g s:x="10" s:y="35" s:pid="S"/>
    <g s:x="20" s:y="20" s:pid="Y"/>
  </g>
  <g s:type="mux" transform="translate(684.6666666666666,34)" s:width="20" s:height="40" id="cell_:47">
    <s:alias val="$pmux"/>
    <s:alias val="$mux"/>
    <s:alias val="$_MUX_"/>
    <path d="M0,0 L20,10 L20,30 L0,40 Z" class="cell_:47"/>
    <g s:x="0" s:y="10" s:pid="A"/>
    <g s:x="0" s:y="30" s:pid="B"/>
    <g s:x="10" s:y="35" s:pid="S"/>
    <g s:x="20" s:y="20" s:pid="Y"/>
  </g>
  <g s:type="mux" transform="translate(572.6666666666666,601)" s:width="20" s:height="40" id="cell_:50">
    <s:alias val="$pmux"/>
    <s:alias val="$mux"/>
    <s:alias val="$_MUX_"/>
    <path d="M0,0 L20,10 L20,30 L0,40 Z" class="cell_:50"/>
    <g s:x="0" s:y="10" s:pid="A"/>
    <g s:x="0" s:y="30" s:pid="B"/>
    <g s:x="10" s:y="35" s:pid="S"/>
    <g s:x="20" s:y="20" s:pid="Y"/>
  </g>
  <g s:type="mux" transform="translate(572.6666666666666,779.5)" s:width="20" s:height="40" id="cell_:52">
    <s:alias val="$pmux"/>
    <s:alias val="$mux"/>
    <s:alias val="$_MUX_"/>
    <path d="M0,0 L20,10 L20,30 L0,40 Z" class="cell_:52"/>
    <g s:x="0" s:y="10" s:pid="A"/>
    <g s:x="0" s:y="30" s:pid="B"/>
    <g s:x="10" s:y="35" s:pid="S"/>
    <g s:x="20" s:y="20" s:pid="Y"/>
  </g>
  <g s:type="mux" transform="translate(746.3333333333334,44)" s:width="20" s:height="40" id="cell_:53">
    <s:alias val="$pmux"/>
    <s:alias val="$mux"/>
    <s:alias val="$_MUX_"/>
    <path d="M0,0 L20,10 L20,30 L0,40 Z" class="cell_:53"/>
    <g s:x="0" s:y="10" s:pid="A"/>
    <g s:x="0" s:y="30" s:pid="B"/>
    <g s:x="10" s:y="35" s:pid="S"/>
    <g s:x="20" s:y="20" s:pid="Y"/>
  </g>
  <g s:type="not" transform="translate(234,316.5)" s:width="30" s:height="20" id="cell_:59">
    <s:alias val="$_NOT_"/>
    <s:alias val="$not"/>
    <s:alias val="$logic_not"/>
    <path d="M0,0 L0,20 L20,10 Z" class="cell_:59"/>
    <circle cx="23" cy="10" r="3" class="cell_:59"/>
    <g s:x="0" s:y="10" s:pid="A"/>
    <g s:x="25" s:y="10" s:pid="Y"/>
  </g>
  <g s:type="and" transform="translate(299,321.5)" s:width="30" s:height="25" id="cell_:60">
    <s:alias val="$and"/>
    <s:alias val="$logic_and"/>
    <s:alias val="$_AND_"/>
    <path d="M0,0 L0,25 L15,25 A15 12.5 0 0 0 15,0 Z" class="cell_:60"/>
    <g s:x="0" s:y="5" s:pid="A"/>
    <g s:x="0" s:y="20" s:pid="B"/>
    <g s:x="30" s:y="12.5" s:pid="Y"/>
  </g>
  <g s:type="dff" transform="translate(678,465)" s:width="30" s:height="40" id="cell_:63">
    <s:alias val="$dff"/>
    <s:alias val="$_DFF_"/>
    <s:alias val="$_DFF_P_"/>
    <rect width="30" height="40" x="0" y="0" class="cell_:63"/>
    <path d="M0,35 L5,30 L0,25" class="cell_:63"/>
    <g s:x="30" s:y="10" s:pid="Q"/>
    <g s:x="0" s:y="30" s:pid="CLK"/>
    <g s:x="0" s:y="30" s:pid="C"/>
    <g s:x="0" s:y="10" s:pid="D"/>
  </g>
  <g s:type="dff" transform="translate(678,861.5)" s:width="30" s:height="40" id="cell_:64">
    <s:alias val="$dff"/>
    <s:alias val="$_DFF_"/>
    <s:alias val="$_DFF_P_"/>
    <rect width="30" height="40" x="0" y="0" class="cell_:64"/>
    <path d="M0,35 L5,30 L0,25" class="cell_:64"/>
    <g s:x="30" s:y="10" s:pid="Q"/>
    <g s:x="0" s:y="30" s:pid="CLK"/>
    <g s:x="0" s:y="30" s:pid="C"/>
    <g s:x="0" s:y="10" s:pid="D"/>
  </g>
  <g s:type="dff" transform="translate(803,304)" s:width="30" s:height="40" id="cell_:65">
    <s:alias val="$dff"/>
    <s:alias val="$_DFF_"/>
    <s:alias val="$_DFF_P_"/>
    <rect width="30" height="40" x="0" y="0" class="cell_:65"/>
    <path d="M0,35 L5,30 L0,25" class="cell_:65"/>
    <g s:x="30" s:y="10" s:pid="Q"/>
    <g s:x="0" s:y="30" s:pid="CLK"/>
    <g s:x="0" s:y="30" s:pid="C"/>
    <g s:x="0" s:y="10" s:pid="D"/>
  </g>
  <g s:type="eq" transform="translate(743,851.5)" s:width="25" s:height="25" id="cell_:8">
    <s:alias val="$eq"/>
    <circle r="12.5" cx="12.5" cy="12.5" class="cell_:8"/>
    <line x1="7.5" x2="17.5" y1="10" y2="10" class="cell_:8"/>
    <line x1="7.5" x2="17.5" y1="15" y2="15" class="cell_:8"/>
    <g s:x="3" s:y="5" s:pid="A"/>
    <g s:x="3" s:y="20" s:pid="B"/>
    <g s:x="25" s:y="12.5" s:pid="Y"/>
  </g>
  <g s:type="mux" transform="translate(806.3333333333334,414)" s:width="20" s:height="40" id="cell_:9">
    <s:alias val="$pmux"/>
    <s:alias val="$mux"/>
    <s:alias val="$_MUX_"/>
    <path d="M0,0 L20,10 L20,30 L0,40 Z" class="cell_:9"/>
    <g s:x="0" s:y="10" s:pid="A"/>
    <g s:x="0" s:y="30" s:pid="B"/>
    <g s:x="10" s:y="35" s:pid="S"/>
    <g s:x="20" s:y="20" s:pid="Y"/>
  </g>
  <g s:type="generic" transform="translate(569,53.5)" s:width="30" s:height="40" id="cell_ram">
    <text x="15" y="-4" class="nodelabel cell_ram" s:attribute="ref">RAM</text>
    <rect width="30" height="180" s:generic="body" class="cell_ram"/>
    <g transform="translate(0,10)" s:x="0" s:y="10" s:pid="in0" id="port_ram~RD_ADDR">
      <text x="-3" y="-4" class="inputPortLabel cell_ram">RD_ADDR</text>
    </g>
    <g transform="translate(0,30)" s:x="0" s:y="10" s:pid="in0" id="port_ram~RD_ARST">
      <text x="-3" y="-4" class="inputPortLabel cell_ram">RD_ARST</text>
    </g>
    <g transform="translate(0,50)" s:x="0" s:y="10" s:pid="in0" id="port_ram~RD_CLK">
      <text x="-3" y="-4" class="inputPortLabel cell_ram">RD_CLK</text>
    </g>
    <g transform="translate(0,70)" s:x="0" s:y="10" s:pid="in0" id="port_ram~RD_EN">
      <text x="-3" y="-4" class="inputPortLabel cell_ram">RD_EN</text>
    </g>
    <g transform="translate(0,90)" s:x="0" s:y="10" s:pid="in0" id="port_ram~RD_SRST">
      <text x="-3" y="-4" class="inputPortLabel cell_ram">RD_SRST</text>
    </g>
    <g transform="translate(0,110)" s:x="0" s:y="10" s:pid="in0" id="port_ram~WR_ADDR">
      <text x="-3" y="-4" class="inputPortLabel cell_ram">WR_ADDR</text>
    </g>
    <g transform="translate(0,130)" s:x="0" s:y="10" s:pid="in0" id="port_ram~WR_CLK">
      <text x="-3" y="-4" class="inputPortLabel cell_ram">WR_CLK</text>
    </g>
    <g transform="translate(0,150)" s:x="0" s:y="10" s:pid="in0" id="port_ram~WR_DATA">
      <text x="-3" y="-4" class="inputPortLabel cell_ram">WR_DATA</text>
    </g>
    <g transform="translate(0,170)" s:x="0" s:y="10" s:pid="in0" id="port_ram~WR_EN">
      <text x="-3" y="-4" class="inputPortLabel cell_ram">WR_EN</text>
    </g>
    <g transform="translate(30,10)" s:x="30" s:y="10" s:pid="out0" id="port_ram~RD_DATA">
      <text x="5" y="-4" style="fill:#000; stroke:none" class="cell_ram">RD_DATA</text>
    </g>
  </g>
  <g s:type="inputExt" transform="translate(444,485)" s:width="30" s:height="20" id="cell_clk">
    <text x="15" y="-4" class="nodelabel cell_clk" s:attribute="ref">clk</text>
    <s:alias val="$_inputExt_"/>
    <path d="M0,0 L0,20 L15,20 L30,10 L15,0 Z" class="cell_clk"/>
    <g s:x="28" s:y="10" s:pid="Y"/>
  </g>
  <g s:type="inputExt" transform="translate(164,316.5)" s:width="30" s:height="20" id="cell_rst">
    <text x="15" y="-4" class="nodelabel cell_rst" s:attribute="ref">rst</text>
    <s:alias val="$_inputExt_"/>
    <path d="M0,0 L0,20 L15,20 L30,10 L15,0 Z" class="cell_rst"/>
    <g s:x="28" s:y="10" s:pid="Y"/>
  </g>
  <g s:type="inputExt" transform="translate(299,737)" s:width="30" s:height="20" id="cell_wr_en">
    <text x="15" y="-4" class="nodelabel cell_wr_en" s:attribute="ref">wr_en</text>
    <s:alias val="$_inputExt_"/>
    <path d="M0,0 L0,20 L15,20 L30,10 L15,0 Z" class="cell_wr_en"/>
    <g s:x="28" s:y="10" s:pid="Y"/>
  </g>
  <g s:type="inputExt" transform="translate(444,161.5)" s:width="30" s:height="20" id="cell_wr_data">
    <text x="15" y="-4" class="nodelabel cell_wr_data" s:attribute="ref">wr_data</text>
    <s:alias val="$_inputExt_"/>
    <path d="M0,0 L0,20 L15,20 L30,10 L15,0 Z" class="cell_wr_data"/>
    <g s:x="28" s:y="10" s:pid="Y"/>
  </g>
  <g s:type="inputExt" transform="translate(299,391.5)" s:width="30" s:height="20" id="cell_rd_en">
    <text x="15" y="-4" class="nodelabel cell_rd_en" s:attribute="ref">rd_en</text>
    <s:alias val="$_inputExt_"/>
    <path d="M0,0 L0,20 L15,20 L30,10 L15,0 Z" class="cell_rd_en"/>
    <g s:x="28" s:y="10" s:pid="Y"/>
  </g>
  <g s:type="outputExt" transform="translate(868,304)" s:width="30" s:height="20" id="cell_rd_data">
    <text x="15" y="-4" class="nodelabel cell_rd_data" s:attribute="ref">rd_data</text>
    <s:alias val="$_outputExt_"/>
    <path d="M30,0 L30,20 L15,20 L0,10 L15,0 Z" class="cell_rd_data"/>
    <g s:x="0" s:y="10" s:pid="A"/>
  </g>
  <g s:type="outputExt" transform="translate(868,424)" s:width="30" s:height="20" id="cell_empty">
    <text x="15" y="-4" class="nodelabel cell_empty" s:attribute="ref">empty</text>
    <s:alias val="$_outputExt_"/>
    <path d="M30,0 L30,20 L15,20 L0,10 L15,0 Z" class="cell_empty"/>
    <g s:x="0" s:y="10" s:pid="A"/>
  </g>
  <g s:type="outputExt" transform="translate(868,912.5)" s:width="30" s:height="20" id="cell_full">
    <text x="15" y="-4" class="nodelabel cell_full" s:attribute="ref">full</text>
    <s:alias val="$_outputExt_"/>
    <path d="M30,0 L30,20 L15,20 L0,10 L15,0 Z" class="cell_full"/>
    <g s:x="0" s:y="10" s:pid="A"/>
  </g>
  <g s:type="constant" transform="translate(164,110.5)" s:width="30" s:height="20" id="cell_0">
    <text x="15" y="-4" class="nodelabel cell_0" s:attribute="ref">0</text>
    <s:alias val="$_constant_"/>
    <rect width="30" height="20" class="cell_0"/>
    <g s:x="30" s:y="10" s:pid="Y"/>
  </g>
  <g s:type="constant" transform="translate(164,485)" s:width="30" s:height="20" id="cell_1">
    <text x="15" y="-4" class="nodelabel cell_1" s:attribute="ref">1</text>
    <s:alias val="$_constant_"/>
    <rect width="30" height="20" class="cell_1"/>
    <g s:x="30" s:y="10" s:pid="Y"/>
  </g>
  <g s:type="constant" transform="translate(444,536)" s:width="30" s:height="20" id="cell_00000">
    <text x="15" y="-4" class="nodelabel cell_00000" s:attribute="ref">0x0</text>
    <s:alias val="$_constant_"/>
    <rect width="30" height="20" class="cell_00000"/>
    <g s:x="30" s:y="10" s:pid="Y"/>
  </g>
  <g s:type="join" transform="translate(449.42857142857144,203.5)" s:width="4" s:height="40" id="cell_$join$,96,96,96,96,96,96,96,96,">
    <rect width="5" height="160" class="splitjoinBody" s:generic="body"/>
    <s:alias val="$_join_"/>
    <g s:x="5" s:y="20" s:pid="out"/>
    <g transform="translate(0,10)" s:x="0" s:y="10" s:pid="in0">
      <text x="-3" y="-4" class="inputPortLabel">0</text>
    </g>
    <g transform="translate(0,30)" s:x="0" s:y="10" s:pid="in0">
      <text x="-3" y="-4" class="inputPortLabel">1</text>
    </g>
    <g transform="translate(0,50)" s:x="0" s:y="10" s:pid="in0">
      <text x="-3" y="-4" class="inputPortLabel">2</text>
    </g>
    <g transform="translate(0,70)" s:x="0" s:y="10" s:pid="in0">
      <text x="-3" y="-4" class="inputPortLabel">3</text>
    </g>
    <g transform="translate(0,90)" s:x="0" s:y="10" s:pid="in0">
      <text x="-3" y="-4" class="inputPortLabel">4</text>
    </g>
    <g transform="translate(0,110)" s:x="0" s:y="10" s:pid="in0">
      <text x="-3" y="-4" class="inputPortLabel">5</text>
    </g>
    <g transform="translate(0,130)" s:x="0" s:y="10" s:pid="in0">
      <text x="-3" y="-4" class="inputPortLabel">6</text>
    </g>
    <g transform="translate(0,150)" s:x="0" s:y="10" s:pid="in0">
      <text x="-3" y="-4" class="inputPortLabel">7</text>
    </g>
  </g>
  <g s:type="split" transform="translate(32,642)" s:width="5" s:height="40" id="cell_$split$,27,28,29,30,24,">
    <rect width="5" height="40" class="splitjoinBody" s:generic="body"/>
    <s:alias val="$_split_"/>
    <g s:x="0" s:y="20" s:pid="in"/>
    <g transform="translate(4,10)" s:x="4" s:y="10" s:pid="out0">
      <text x="5" y="-4">4</text>
    </g>
    <g transform="translate(4,30)" s:x="4" s:y="10" s:pid="out0">
      <text x="5" y="-4">0:3</text>
    </g>
  </g>
  <g s:type="split" transform="translate(32,719)" s:width="5" s:height="40" id="cell_$split$,31,32,33,34,25,">
    <rect width="5" height="40" class="splitjoinBody" s:generic="body"/>
    <s:alias val="$_split_"/>
    <g s:x="0" s:y="20" s:pid="in"/>
    <g transform="translate(4,10)" s:x="4" s:y="10" s:pid="out0">
      <text x="5" y="-4">4</text>
    </g>
    <g transform="translate(4,30)" s:x="4" s:y="10" s:pid="out0">
      <text x="5" y="-4">0:3</text>
    </g>
  </g>
  <line x1="37" x2="74" y1="652.5" y2="652.5" class="net_24"/>
  <line x1="74" x2="74" y1="652.5" y2="709.5" class="net_24"/>
  <line x1="74" x2="91" y1="709.5" y2="709.5" class="net_24"/>
  <line x1="37" x2="91" y1="729.5" y2="729.5" class="net_25"/>
  <line x1="37" x2="64" y1="672.5" y2="672.5" class="net_27,28,29,30"/>
  <line x1="64" x2="64" y1="672.5" y2="782" class="net_27,28,29,30"/>
  <circle cx="64" cy="672.5" r="2" style="fill:#000" class="net_27,28,29,30"/>
  <line x1="64" x2="96" y1="782" y2="782" class="net_27,28,29,30"/>
  <line x1="37" x2="64" y1="672.5" y2="672.5" class="net_27,28,29,30"/>
  <line x1="64" x2="64" y1="672.5" y2="140.5" class="net_27,28,29,30"/>
  <line x1="64" x2="496" y1="140.5" y2="140.5" class="net_27,28,29,30"/>
  <line x1="496" x2="496" y1="140.5" y2="164" class="net_27,28,29,30"/>
  <line x1="496" x2="569" y1="164" y2="164" class="net_27,28,29,30"/>
  <line x1="37" x2="54" y1="749.5" y2="749.5" class="net_31,32,33,34"/>
  <line x1="54" x2="54" y1="749.5" y2="797" class="net_31,32,33,34"/>
  <circle cx="54" cy="749.5" r="2" style="fill:#000" class="net_31,32,33,34"/>
  <line x1="54" x2="96" y1="797" y2="797" class="net_31,32,33,34"/>
  <line x1="37" x2="54" y1="749.5" y2="749.5" class="net_31,32,33,34"/>
  <line x1="54" x2="54" y1="749.5" y2="64" class="net_31,32,33,34"/>
  <line x1="54" x2="569" y1="64" y2="64" class="net_31,32,33,34"/>
  <line x1="118" x2="164" y1="789.5" y2="789.5" class="net_35"/>
  <line x1="122" x2="139" y1="709.5" y2="709.5" class="net_26"/>
  <line x1="139" x2="139" y1="709.5" y2="804.5" class="net_26"/>
  <line x1="139" x2="164" y1="804.5" y2="804.5" class="net_26"/>
  <line x1="194" x2="224" y1="120.5" y2="120.5" class="net_98"/>
  <line x1="224" x2="224" y1="120.5" y2="672" class="net_98"/>
  <circle cx="224" cy="120.5" r="2" style="fill:#000" class="net_98"/>
  <line x1="224" x2="237.33333333333334" y1="672" y2="672" class="net_98"/>
  <line x1="194" x2="224" y1="120.5" y2="120.5" class="net_98"/>
  <line x1="224" x2="224" y1="120.5" y2="424" class="net_98"/>
  <circle cx="224" cy="424" r="2" style="fill:#000" class="net_98"/>
  <line x1="224" x2="806.3333333333334" y1="424" y2="424" class="net_98"/>
  <line x1="194" x2="224" y1="120.5" y2="120.5" class="net_98"/>
  <line x1="224" x2="224" y1="120.5" y2="84" class="net_98"/>
  <line x1="224" x2="569" y1="84" y2="84" class="net_98"/>
  <line x1="194" x2="224" y1="120.5" y2="120.5" class="net_98"/>
  <line x1="224" x2="224" y1="120.5" y2="84" class="net_98"/>
  <line x1="224" x2="496" y1="84" y2="84" class="net_98"/>
  <line x1="496" x2="496" y1="84" y2="104" class="net_98"/>
  <circle cx="496" cy="84" r="2" style="fill:#000" class="net_98"/>
  <line x1="496" x2="569" y1="104" y2="104" class="net_98"/>
  <line x1="194" x2="506" y1="120.5" y2="120.5" class="net_98"/>
  <line x1="506" x2="506" y1="120.5" y2="144" class="net_98"/>
  <line x1="506" x2="569" y1="144" y2="144" class="net_98"/>
  <line x1="194" x2="214" y1="495" y2="495" class="net_99"/>
  <line x1="214" x2="214" y1="495" y2="692" class="net_99"/>
  <circle cx="214" cy="495" r="2" style="fill:#000" class="net_99"/>
  <circle cx="214" cy="692" r="2" style="fill:#000" class="net_99"/>
  <line x1="214" x2="237.33333333333334" y1="692" y2="692" class="net_99"/>
  <line x1="194" x2="370.3333333333333" y1="495" y2="495" class="net_99"/>
  <line x1="194" x2="214" y1="495" y2="495" class="net_99"/>
  <line x1="214" x2="214" y1="495" y2="807" class="net_99"/>
  <line x1="214" x2="370.3333333333333" y1="807" y2="807" class="net_99"/>
  <line x1="194" x2="339" y1="495" y2="495" class="net_99"/>
  <line x1="339" x2="339" y1="495" y2="444" class="net_99"/>
  <circle cx="339" cy="495" r="2" style="fill:#000" class="net_99"/>
  <line x1="339" x2="806.3333333333334" y1="444" y2="444" class="net_99"/>
  <line x1="194" x2="214" y1="495" y2="495" class="net_99"/>
  <line x1="214" x2="214" y1="495" y2="109.5" class="net_99"/>
  <line x1="214" x2="516" y1="109.5" y2="109.5" class="net_99"/>
  <line x1="516" x2="516" y1="109.5" y2="124" class="net_99"/>
  <line x1="516" x2="569" y1="124" y2="124" class="net_99"/>
  <line x1="194" x2="247.33333333333334" y1="797" y2="797" class="net_36"/>
  <line x1="247.33333333333334" x2="247.33333333333334" y1="797" y2="697" class="net_36"/>
  <line x1="257.33333333333337" x2="299" y1="682" y2="682" class="net_23"/>
  <line x1="257.33333333333337" x2="274" y1="682" y2="682" class="net_23"/>
  <line x1="274" x2="274" y1="682" y2="922.5" class="net_23"/>
  <circle cx="274" cy="682" r="2" style="fill:#000" class="net_23"/>
  <line x1="274" x2="868" y1="922.5" y2="922.5" class="net_23"/>
  <line x1="324" x2="339" y1="682" y2="682" class="net_37"/>
  <line x1="339" x2="339" y1="682" y2="732" class="net_37"/>
  <line x1="339" x2="364" y1="732" y2="732" class="net_37"/>
  <line x1="327" x2="364" y1="747" y2="747" class="net_4"/>
  <line x1="708" x2="728" y1="475" y2="475" class="net_27,28,29,30,24"/>
  <line x1="728" x2="728" y1="475" y2="455" class="net_27,28,29,30,24"/>
  <line x1="728" x2="349" y1="455" y2="455" class="net_27,28,29,30,24"/>
  <line x1="349" x2="349" y1="455" y2="480" class="net_27,28,29,30,24"/>
  <circle cx="728" cy="475" r="2" style="fill:#000" class="net_27,28,29,30,24"/>
  <line x1="349" x2="370.3333333333333" y1="480" y2="480" class="net_27,28,29,30,24"/>
  <line x1="708" x2="728" y1="475" y2="475" class="net_27,28,29,30,24"/>
  <line x1="728" x2="728" y1="475" y2="840.5" class="net_27,28,29,30,24"/>
  <line x1="728" x2="414" y1="840.5" y2="840.5" class="net_27,28,29,30,24"/>
  <line x1="414" x2="414" y1="840.5" y2="601" class="net_27,28,29,30,24"/>
  <line x1="414" x2="454.6666666666667" y1="601" y2="601" class="net_27,28,29,30,24"/>
  <line x1="708" x2="728" y1="475" y2="475" class="net_27,28,29,30,24"/>
  <line x1="728" x2="728" y1="475" y2="856.5" class="net_27,28,29,30,24"/>
  <line x1="728" x2="746" y1="856.5" y2="856.5" class="net_27,28,29,30,24"/>
  <line x1="708" x2="728" y1="475" y2="475" class="net_27,28,29,30,24"/>
  <line x1="728" x2="728" y1="475" y2="840.5" class="net_27,28,29,30,24"/>
  <line x1="728" x2="663" y1="840.5" y2="840.5" class="net_27,28,29,30,24"/>
  <line x1="663" x2="663" y1="840.5" y2="515" class="net_27,28,29,30,24"/>
  <line x1="663" x2="12" y1="515" y2="515" class="net_27,28,29,30,24"/>
  <line x1="12" x2="12" y1="515" y2="662.5" class="net_27,28,29,30,24"/>
  <circle cx="663" cy="840.5" r="2" style="fill:#000" class="net_27,28,29,30,24"/>
  <circle cx="728" cy="840.5" r="2" style="fill:#000" class="net_27,28,29,30,24"/>
  <line x1="12" x2="32" y1="662.5" y2="662.5" class="net_27,28,29,30,24"/>
  <line x1="392.3333333333333" x2="424" y1="487.5" y2="487.5" class="net_39,40,41,42,43"/>
  <line x1="424" x2="424" y1="487.5" y2="621" class="net_39,40,41,42,43"/>
  <line x1="424" x2="454.6666666666667" y1="621" y2="621" class="net_39,40,41,42,43"/>
  <line x1="394" x2="464.6666666666667" y1="739.5" y2="739.5" class="net_38"/>
  <line x1="464.6666666666667" x2="464.6666666666667" y1="739.5" y2="626" class="net_38"/>
  <line x1="394" x2="404" y1="739.5" y2="739.5" class="net_38"/>
  <line x1="404" x2="404" y1="739.5" y2="662" class="net_38"/>
  <line x1="404" x2="274" y1="662" y2="662" class="net_38"/>
  <line x1="274" x2="274" y1="662" y2="341.5" class="net_38"/>
  <circle cx="404" cy="739.5" r="2" style="fill:#000" class="net_38"/>
  <line x1="274" x2="299" y1="341.5" y2="341.5" class="net_38"/>
  <line x1="826.3333333333334" x2="853" y1="434" y2="434" class="net_22"/>
  <line x1="853" x2="853" y1="434" y2="369" class="net_22"/>
  <circle cx="853" cy="434" r="2" style="fill:#000" class="net_22"/>
  <line x1="853" x2="868" y1="369" y2="369" class="net_22"/>
  <line x1="826.3333333333334" x2="868" y1="434" y2="434" class="net_22"/>
  <line x1="893" x2="920" y1="369" y2="369" class="net_49"/>
  <line x1="920" x2="920" y1="369" y2="12" class="net_49"/>
  <line x1="920" x2="349" y1="12" y2="12" class="net_49"/>
  <line x1="349" x2="349" y1="12" y2="386.5" class="net_49"/>
  <line x1="349" x2="364" y1="386.5" y2="386.5" class="net_49"/>
  <line x1="327" x2="364" y1="401.5" y2="401.5" class="net_13"/>
  <line x1="708" x2="718" y1="871.5" y2="871.5" class="net_31,32,33,34,25"/>
  <line x1="718" x2="718" y1="871.5" y2="851.5" class="net_31,32,33,34,25"/>
  <line x1="718" x2="339" y1="851.5" y2="851.5" class="net_31,32,33,34,25"/>
  <line x1="339" x2="339" y1="851.5" y2="792" class="net_31,32,33,34,25"/>
  <circle cx="339" cy="851.5" r="2" style="fill:#000" class="net_31,32,33,34,25"/>
  <circle cx="718" cy="871.5" r="2" style="fill:#000" class="net_31,32,33,34,25"/>
  <line x1="339" x2="370.3333333333333" y1="792" y2="792" class="net_31,32,33,34,25"/>
  <line x1="708" x2="718" y1="871.5" y2="871.5" class="net_31,32,33,34,25"/>
  <line x1="718" x2="718" y1="871.5" y2="851.5" class="net_31,32,33,34,25"/>
  <line x1="718" x2="424" y1="851.5" y2="851.5" class="net_31,32,33,34,25"/>
  <line x1="424" x2="424" y1="851.5" y2="779.5" class="net_31,32,33,34,25"/>
  <circle cx="424" cy="851.5" r="2" style="fill:#000" class="net_31,32,33,34,25"/>
  <line x1="424" x2="454.6666666666667" y1="779.5" y2="779.5" class="net_31,32,33,34,25"/>
  <line x1="708" x2="746" y1="871.5" y2="871.5" class="net_31,32,33,34,25"/>
  <line x1="708" x2="718" y1="871.5" y2="871.5" class="net_31,32,33,34,25"/>
  <line x1="718" x2="718" y1="871.5" y2="911.5" class="net_31,32,33,34,25"/>
  <line x1="718" x2="496" y1="911.5" y2="911.5" class="net_31,32,33,34,25"/>
  <line x1="496" x2="496" y1="911.5" y2="851.5" class="net_31,32,33,34,25"/>
  <line x1="496" x2="12" y1="851.5" y2="851.5" class="net_31,32,33,34,25"/>
  <line x1="12" x2="12" y1="851.5" y2="739.5" class="net_31,32,33,34,25"/>
  <circle cx="496" cy="851.5" r="2" style="fill:#000" class="net_31,32,33,34,25"/>
  <line x1="12" x2="32" y1="739.5" y2="739.5" class="net_31,32,33,34,25"/>
  <line x1="392.3333333333333" x2="454.6666666666667" y1="799.5" y2="799.5" class="net_51,52,53,54,55"/>
  <line x1="394" x2="434" y1="394" y2="394" class="net_50"/>
  <line x1="434" x2="434" y1="394" y2="819.5" class="net_50"/>
  <line x1="434" x2="464.6666666666667" y1="819.5" y2="819.5" class="net_50"/>
  <circle cx="434" cy="394" r="2" style="fill:#000" class="net_50"/>
  <line x1="464.6666666666667" x2="464.6666666666667" y1="819.5" y2="804.5" class="net_50"/>
  <line x1="394" x2="694.6666666666666" y1="394" y2="394" class="net_50"/>
  <line x1="694.6666666666666" x2="694.6666666666666" y1="394" y2="69" class="net_50"/>
  <line x1="833" x2="843" y1="314" y2="314" class="net_14,15,16,17,18,19,20,21"/>
  <line x1="843" x2="843" y1="314" y2="404" class="net_14,15,16,17,18,19,20,21"/>
  <line x1="843" x2="663" y1="404" y2="404" class="net_14,15,16,17,18,19,20,21"/>
  <line x1="663" x2="663" y1="404" y2="44" class="net_14,15,16,17,18,19,20,21"/>
  <line x1="663" x2="684.6666666666666" y1="44" y2="44" class="net_14,15,16,17,18,19,20,21"/>
  <line x1="833" x2="843" y1="314" y2="314" class="net_14,15,16,17,18,19,20,21"/>
  <line x1="843" x2="843" y1="314" y2="34" class="net_14,15,16,17,18,19,20,21"/>
  <line x1="843" x2="728" y1="34" y2="34" class="net_14,15,16,17,18,19,20,21"/>
  <line x1="728" x2="728" y1="34" y2="74" class="net_14,15,16,17,18,19,20,21"/>
  <circle cx="843" cy="314" r="2" style="fill:#000" class="net_14,15,16,17,18,19,20,21"/>
  <line x1="728" x2="746.3333333333334" y1="74" y2="74" class="net_14,15,16,17,18,19,20,21"/>
  <line x1="833" x2="868" y1="314" y2="314" class="net_14,15,16,17,18,19,20,21"/>
  <line x1="600" x2="684.6666666666666" y1="64" y2="64" class="net_61,62,63,64,65,66,67,68"/>
  <line x1="474.6666666666667" x2="572.6666666666666" y1="611" y2="611" class="net_44,45,46,47,48"/>
  <line x1="474" x2="516" y1="546" y2="546" class="net_102,103,104,105,106"/>
  <line x1="516" x2="516" y1="546" y2="631" class="net_102,103,104,105,106"/>
  <circle cx="516" cy="631" r="2" style="fill:#000" class="net_102,103,104,105,106"/>
  <line x1="516" x2="572.6666666666666" y1="631" y2="631" class="net_102,103,104,105,106"/>
  <line x1="474" x2="516" y1="546" y2="546" class="net_102,103,104,105,106"/>
  <line x1="516" x2="516" y1="546" y2="809.5" class="net_102,103,104,105,106"/>
  <line x1="516" x2="572.6666666666666" y1="809.5" y2="809.5" class="net_102,103,104,105,106"/>
  <line x1="192" x2="204" y1="326.5" y2="326.5" class="net_3"/>
  <line x1="204" x2="204" y1="326.5" y2="651" class="net_3"/>
  <line x1="204" x2="582.6666666666666" y1="651" y2="651" class="net_3"/>
  <circle cx="204" cy="326.5" r="2" style="fill:#000" class="net_3"/>
  <circle cx="204" cy="651" r="2" style="fill:#000" class="net_3"/>
  <line x1="582.6666666666666" x2="582.6666666666666" y1="651" y2="636" class="net_3"/>
  <line x1="192" x2="204" y1="326.5" y2="326.5" class="net_3"/>
  <line x1="204" x2="204" y1="326.5" y2="829.5" class="net_3"/>
  <line x1="204" x2="582.6666666666666" y1="829.5" y2="829.5" class="net_3"/>
  <line x1="582.6666666666666" x2="582.6666666666666" y1="829.5" y2="814.5" class="net_3"/>
  <line x1="192" x2="204" y1="326.5" y2="326.5" class="net_3"/>
  <line x1="204" x2="204" y1="326.5" y2="23" class="net_3"/>
  <line x1="204" x2="718" y1="23" y2="23" class="net_3"/>
  <line x1="718" x2="718" y1="23" y2="324" class="net_3"/>
  <line x1="718" x2="756.3333333333334" y1="324" y2="324" class="net_3"/>
  <line x1="756.3333333333334" x2="756.3333333333334" y1="324" y2="79" class="net_3"/>
  <line x1="192" x2="234" y1="326.5" y2="326.5" class="net_3"/>
  <line x1="474.6666666666667" x2="572.6666666666666" y1="789.5" y2="789.5" class="net_56,57,58,59,60"/>
  <line x1="704.6666666666666" x2="746.3333333333334" y1="54" y2="54" class="net_69,70,71,72,73,74,75,76"/>
  <line x1="259" x2="299" y1="326.5" y2="326.5" class="net_95"/>
  <line x1="472" x2="678" y1="495" y2="495" class="net_2"/>
  <line x1="472" x2="506" y1="495" y2="495" class="net_2"/>
  <line x1="506" x2="506" y1="495" y2="891.5" class="net_2"/>
  <circle cx="506" cy="495" r="2" style="fill:#000" class="net_2"/>
  <line x1="506" x2="678" y1="891.5" y2="891.5" class="net_2"/>
  <line x1="472" x2="506" y1="495" y2="495" class="net_2"/>
  <line x1="506" x2="506" y1="495" y2="334" class="net_2"/>
  <circle cx="506" cy="334" r="2" style="fill:#000" class="net_2"/>
  <line x1="506" x2="803" y1="334" y2="334" class="net_2"/>
  <line x1="472" x2="506" y1="495" y2="495" class="net_2"/>
  <line x1="506" x2="506" y1="495" y2="184" class="net_2"/>
  <line x1="506" x2="569" y1="184" y2="184" class="net_2"/>
  <line x1="592.6666666666666" x2="653" y1="621" y2="621" class="net_77,78,79,80,81"/>
  <line x1="653" x2="653" y1="621" y2="475" class="net_77,78,79,80,81"/>
  <line x1="653" x2="678" y1="475" y2="475" class="net_77,78,79,80,81"/>
  <line x1="592.6666666666666" x2="653" y1="799.5" y2="799.5" class="net_82,83,84,85,86"/>
  <line x1="653" x2="653" y1="799.5" y2="871.5" class="net_82,83,84,85,86"/>
  <line x1="653" x2="678" y1="871.5" y2="871.5" class="net_82,83,84,85,86"/>
  <line x1="766.3333333333334" x2="778" y1="64" y2="64" class="net_87,88,89,90,91,92,93,94"/>
  <line x1="778" x2="778" y1="64" y2="314" class="net_87,88,89,90,91,92,93,94"/>
  <line x1="778" x2="803" y1="314" y2="314" class="net_87,88,89,90,91,92,93,94"/>
  <line x1="768" x2="816.3333333333334" y1="864" y2="864" class="net_97"/>
  <line x1="816.3333333333334" x2="816.3333333333334" y1="864" y2="449" class="net_97"/>
  <line x1="472" x2="516" y1="171.5" y2="171.5" class="net_5,6,7,8,9,10,11,12"/>
  <line x1="516" x2="516" y1="171.5" y2="204" class="net_5,6,7,8,9,10,11,12"/>
  <line x1="516" x2="569" y1="204" y2="204" class="net_5,6,7,8,9,10,11,12"/>
  <line x1="455.42857142857144" x2="569" y1="224" y2="224" class="net_96,96,96,96,96,96,96,96"/>
  <line x1="329" x2="404" y1="334" y2="334" class="net_96"/>
  <line x1="404" x2="404" y1="334" y2="191.5" class="net_96"/>
  <line x1="404" x2="449.92857142857144" y1="191.5" y2="191.5" class="net_96"/>
  <circle cx="404" cy="334" r="2" style="fill:#000" class="net_96"/>
  <line x1="449.92857142857144" x2="449.92857142857144" y1="191.5" y2="213.5" class="net_96"/>
  <line x1="329" x2="404" y1="334" y2="334" class="net_96"/>
  <line x1="404" x2="404" y1="334" y2="234" class="net_96"/>
  <circle cx="404" cy="234" r="2" style="fill:#000" class="net_96"/>
  <line x1="404" x2="449.42857142857144" y1="234" y2="234" class="net_96"/>
  <line x1="329" x2="404" y1="334" y2="334" class="net_96"/>
  <line x1="404" x2="404" y1="334" y2="254" class="net_96"/>
  <circle cx="404" cy="254" r="2" style="fill:#000" class="net_96"/>
  <line x1="404" x2="449.42857142857144" y1="254" y2="254" class="net_96"/>
  <line x1="329" x2="404" y1="334" y2="334" class="net_96"/>
  <line x1="404" x2="404" y1="334" y2="274" class="net_96"/>
  <circle cx="404" cy="274" r="2" style="fill:#000" class="net_96"/>
  <line x1="404" x2="449.42857142857144" y1="274" y2="274" class="net_96"/>
  <line x1="329" x2="404" y1="334" y2="334" class="net_96"/>
  <line x1="404" x2="404" y1="334" y2="294" class="net_96"/>
  <circle cx="404" cy="294" r="2" style="fill:#000" class="net_96"/>
  <line x1="404" x2="449.42857142857144" y1="294" y2="294" class="net_96"/>
  <line x1="329" x2="404" y1="334" y2="334" class="net_96"/>
  <line x1="404" x2="404" y1="334" y2="314" class="net_96"/>
  <circle cx="404" cy="314" r="2" style="fill:#000" class="net_96"/>
  <line x1="404" x2="449.42857142857144" y1="314" y2="314" class="net_96"/>
  <line x1="329" x2="449.42857142857144" y1="334" y2="334" class="net_96"/>
  <line x1="329" x2="404" y1="334" y2="334" class="net_96"/>
  <line x1="404" x2="404" y1="334" y2="373.5" class="net_96"/>
  <line x1="404" x2="449.92857142857144" y1="373.5" y2="373.5" class="net_96"/>
  <line x1="449.92857142857144" x2="449.92857142857144" y1="373.5" y2="354.5" class="net_96"/>
</svg>
