<svg xmlns="http://www.w3.org/2000/svg" xmlns:xlink="http://www.w3.org/1999/xlink" xmlns:s="https://github.com/nturley/netlistsvg" width="1023" height="1452">
  <style>svg {
    stroke:#000;
    fill:none;
  }
  text {
    fill:#000;
    stroke:none;
    font-size:10px;
    font-weight: bold;
    font-family: "Courier New", monospace;
  }
  .nodelabel {
    text-anchor: middle;
  }
  .inputPortLabel {
    text-anchor: end;
  }
  .splitjoinBody {
    fill:#000;
  }</style>
  <g s:type="and" transform="translate(377,1124.5)" s:width="30" s:height="25" id="cell_$and$regfile_rv32.v:24$36">
    <s:alias val="$and"/>
    <s:alias val="$logic_and"/>
    <s:alias val="$_AND_"/>
    <path d="M0,0 L0,25 L15,25 A15 12.5 0 0 0 15,0 Z" class="cell_$and$regfile_rv32.v:24$36"/>
    <g s:x="0" s:y="5" s:pid="A"/>
    <g s:x="0" s:y="20" s:pid="B"/>
    <g s:x="30" s:y="12.5" s:pid="Y"/>
  </g>
  <g s:type="not" transform="translate(850,1203)" s:width="30" s:height="20" id="cell_$eq$regfile_rv32.v:30$44">
    <s:alias val="$_NOT_"/>
    <s:alias val="$not"/>
    <s:alias val="$logic_not"/>
    <path d="M0,0 L0,20 L20,10 Z" class="cell_$eq$regfile_rv32.v:30$44"/>
    <circle cx="23" cy="10" r="3" class="cell_$eq$regfile_rv32.v:30$44"/>
    <g s:x="0" s:y="10" s:pid="A"/>
    <g s:x="25" s:y="10" s:pid="Y"/>
  </g>
  <g s:type="eq" transform="translate(678,1178)" s:width="25" s:height="25" id="cell_$eq$regfile_rv32.v:31$45">
    <s:alias val="$eq"/>
    <circle r="12.5" cx="12.5" cy="12.5" class="cell_$eq$regfile_rv32.v:31$45"/>
    <line x1="7.5" x2="17.5" y1="10" y2="10" class="cell_$eq$regfile_rv32.v:31$45"/>
    <line x1="7.5" x2="17.5" y1="15" y2="15" class="cell_$eq$regfile_rv32.v:31$45"/>
    <g s:x="3" s:y="5" s:pid="A"/>
    <g s:x="3" s:y="20" s:pid="B"/>
    <g s:x="25" s:y="12.5" s:pid="Y"/>
  </g>
  <g s:type="not" transform="translate(850,1420)" s:width="30" s:height="20" id="cell_$eq$regfile_rv32.v:34$50">
    <s:alias val="$_NOT_"/>
    <s:alias val="$not"/>
    <s:alias val="$logic_not"/>
    <path d="M0,0 L0,20 L20,10 Z" class="cell_$eq$regfile_rv32.v:34$50"/>
    <circle cx="23" cy="10" r="3" class="cell_$eq$regfile_rv32.v:34$50"/>
    <g s:x="0" s:y="10" s:pid="A"/>
    <g s:x="25" s:y="10" s:pid="Y"/>
  </g>
  <g s:type="eq" transform="translate(678,1395)" s:width="25" s:height="25" id="cell_$eq$regfile_rv32.v:35$51">
    <s:alias val="$eq"/>
    <circle r="12.5" cx="12.5" cy="12.5" class="cell_$eq$regfile_rv32.v:35$51"/>
    <line x1="7.5" x2="17.5" y1="10" y2="10" class="cell_$eq$regfile_rv32.v:35$51"/>
    <line x1="7.5" x2="17.5" y1="15" y2="15" class="cell_$eq$regfile_rv32.v:35$51"/>
    <g s:x="3" s:y="5" s:pid="A"/>
    <g s:x="3" s:y="20" s:pid="B"/>
    <g s:x="25" s:y="12.5" s:pid="Y"/>
  </g>
  <g s:type="and" transform="translate(785,1170.5)" s:width="30" s:height="25" id="cell_$logic_and$regfile_rv32.v:31$46">
    <s:alias val="$and"/>
    <s:alias val="$logic_and"/>
    <s:alias val="$_AND_"/>
    <path d="M0,0 L0,25 L15,25 A15 12.5 0 0 0 15,0 Z" class="cell_$logic_and$regfile_rv32.v:31$46"/>
    <g s:x="0" s:y="5" s:pid="A"/>
    <g s:x="0" s:y="20" s:pid="B"/>
    <g s:x="30" s:y="12.5" s:pid="Y"/>
  </g>
  <g s:type="and" transform="translate(785,1387.5)" s:width="30" s:height="25" id="cell_$logic_and$regfile_rv32.v:35$52">
    <s:alias val="$and"/>
    <s:alias val="$logic_and"/>
    <s:alias val="$_AND_"/>
    <path d="M0,0 L0,25 L15,25 A15 12.5 0 0 0 15,0 Z" class="cell_$logic_and$regfile_rv32.v:35$52"/>
    <g s:x="0" s:y="5" s:pid="A"/>
    <g s:x="0" s:y="20" s:pid="B"/>
    <g s:x="30" s:y="12.5" s:pid="Y"/>
  </g>
  <g s:type="mux" transform="translate(452.3333333333333,987.5)" s:width="20" s:height="40" id="cell_$procmux$122">
    <s:alias val="$pmux"/>
    <s:alias val="$mux"/>
    <s:alias val="$_MUX_"/>
    <path d="M0,0 L20,10 L20,30 L0,40 Z" class="cell_$procmux$122"/>
    <g s:x="0" s:y="10" s:pid="A"/>
    <g s:x="0" s:y="30" s:pid="B"/>
    <g s:x="10" s:y="35" s:pid="S"/>
    <g s:x="20" s:y="20" s:pid="Y"/>
  </g>
  <g s:type="mux" transform="translate(538,355)" s:width="20" s:height="40" id="cell_$procmux$125">
    <s:alias val="$pmux"/>
    <s:alias val="$mux"/>
    <s:alias val="$_MUX_"/>
    <path d="M0,0 L20,10 L20,30 L0,40 Z" class="cell_$procmux$125"/>
    <g s:x="0" s:y="10" s:pid="A"/>
    <g s:x="0" s:y="30" s:pid="B"/>
    <g s:x="10" s:y="35" s:pid="S"/>
    <g s:x="20" s:y="20" s:pid="Y"/>
  </g>
  <g s:type="mux" transform="translate(538,230)" s:width="20" s:height="40" id="cell_$procmux$128">
    <s:alias val="$pmux"/>
    <s:alias val="$mux"/>
    <s:alias val="$_MUX_"/>
    <path d="M0,0 L20,10 L20,30 L0,40 Z" class="cell_$procmux$128"/>
    <g s:x="0" s:y="10" s:pid="A"/>
    <g s:x="0" s:y="30" s:pid="B"/>
    <g s:x="10" s:y="35" s:pid="S"/>
    <g s:x="20" s:y="20" s:pid="Y"/>
  </g>
  <g s:type="generic" transform="translate(156,1134)" s:width="30" s:height="40" id="cell_$reduce_or$regfile_rv32.v:24$35">
    <text x="15" y="-4" class="nodelabel cell_$reduce_or$regfile_rv32.v:24$35" s:attribute="ref">≥1</text>
    <rect width="30" height="20" s:generic="body" class="cell_$reduce_or$regfile_rv32.v:24$35"/>
    <g transform="translate(0,10)" s:x="0" s:y="10" s:pid="in0" id="port_$reduce_or$regfile_rv32.v:24$35~A">
      <text x="-3" y="-4" class="inputPortLabel cell_$reduce_or$regfile_rv32.v:24$35">A</text>
    </g>
    <g transform="translate(30,10)" s:x="30" s:y="10" s:pid="out0" id="port_$reduce_or$regfile_rv32.v:24$35~Y">
      <text x="5" y="-4" style="fill:#000; stroke:none" class="cell_$reduce_or$regfile_rv32.v:24$35">Y</text>
    </g>
  </g>
  <g s:type="mux" transform="translate(920,1248)" s:width="20" s:height="40" id="cell_$ternary$regfile_rv32.v:30$49">
    <s:alias val="$pmux"/>
    <s:alias val="$mux"/>
    <s:alias val="$_MUX_"/>
    <path d="M0,0 L20,10 L20,30 L0,40 Z" class="cell_$ternary$regfile_rv32.v:30$49"/>
    <g s:x="0" s:y="10" s:pid="A"/>
    <g s:x="0" s:y="30" s:pid="B"/>
    <g s:x="10" s:y="35" s:pid="S"/>
    <g s:x="20" s:y="20" s:pid="Y"/>
  </g>
  <g s:type="mux" transform="translate(853.3333333333334,297.5)" s:width="20" s:height="40" id="cell_$ternary$regfile_rv32.v:31$48">
    <s:alias val="$pmux"/>
    <s:alias val="$mux"/>
    <s:alias val="$_MUX_"/>
    <path d="M0,0 L20,10 L20,30 L0,40 Z" class="cell_$ternary$regfile_rv32.v:31$48"/>
    <g s:x="0" s:y="10" s:pid="A"/>
    <g s:x="0" s:y="30" s:pid="B"/>
    <g s:x="10" s:y="35" s:pid="S"/>
    <g s:x="20" s:y="20" s:pid="Y"/>
  </g>
  <g s:type="mux" transform="translate(920,1333)" s:width="20" s:height="40" id="cell_$ternary$regfile_rv32.v:34$55">
    <s:alias val="$pmux"/>
    <s:alias val="$mux"/>
    <s:alias val="$_MUX_"/>
    <path d="M0,0 L20,10 L20,30 L0,40 Z" class="cell_$ternary$regfile_rv32.v:34$55"/>
    <g s:x="0" s:y="10" s:pid="A"/>
    <g s:x="0" s:y="30" s:pid="B"/>
    <g s:x="10" s:y="35" s:pid="S"/>
    <g s:x="20" s:y="20" s:pid="Y"/>
  </g>
  <g s:type="mux" transform="translate(853.3333333333334,1323)" s:width="20" s:height="40" id="cell_$ternary$regfile_rv32.v:35$54">
    <s:alias val="$pmux"/>
    <s:alias val="$mux"/>
    <s:alias val="$_MUX_"/>
    <path d="M0,0 L20,10 L20,30 L0,40 Z" class="cell_$ternary$regfile_rv32.v:35$54"/>
    <g s:x="0" s:y="10" s:pid="A"/>
    <g s:x="0" s:y="30" s:pid="B"/>
    <g s:x="10" s:y="35" s:pid="S"/>
    <g s:x="20" s:y="20" s:pid="Y"/>
  </g>
  <g s:type="generic" transform="translate(676,307)" s:width="30" s:height="40" id="cell_regs">
    <text x="15" y="-4" class="nodelabel cell_regs" s:attribute="ref">RAM</text>
    <rect width="30" height="180" s:generic="body" class="cell_regs"/>
    <g transform="translate(0,10)" s:x="0" s:y="10" s:pid="in0" id="port_regs~RD_ADDR">
      <text x="-3" y="-4" class="inputPortLabel cell_regs">RD_ADDR</text>
    </g>
    <g transform="translate(0,30)" s:x="0" s:y="10" s:pid="in0" id="port_regs~RD_ARST">
      <text x="-3" y="-4" class="inputPortLabel cell_regs">RD_ARST</text>
    </g>
    <g transform="translate(0,50)" s:x="0" s:y="10" s:pid="in0" id="port_regs~RD_CLK">
      <text x="-3" y="-4" class="inputPortLabel cell_regs">RD_CLK</text>
    </g>
    <g transform="translate(0,70)" s:x="0" s:y="10" s:pid="in0" id="port_regs~RD_EN">
      <text x="-3" y="-4" class="inputPortLabel cell_regs">RD_EN</text>
    </g>
    <g transform="translate(0,90)" s:x="0" s:y="10" s:pid="in0" id="port_regs~RD_SRST">
      <text x="-3" y="-4" class="inputPortLabel cell_regs">RD_SRST</text>
    </g>
    <g transform="translate(0,110)" s:x="0" s:y="10" s:pid="in0" id="port_regs~WR_ADDR">
      <text x="-3" y="-4" class="inputPortLabel cell_regs">WR_ADDR</text>
    </g>
    <g transform="translate(0,130)" s:x="0" s:y="10" s:pid="in0" id="port_regs~WR_CLK">
      <text x="-3" y="-4" class="inputPortLabel cell_regs">WR_CLK</text>
    </g>
    <g transform="translate(0,150)" s:x="0" s:y="10" s:pid="in0" id="port_regs~WR_DATA">
      <text x="-3" y="-4" class="inputPortLabel cell_regs">WR_DATA</text>
    </g>
    <g transform="translate(0,170)" s:x="0" s:y="10" s:pid="in0" id="port_regs~WR_EN">
      <text x="-3" y="-4" class="inputPortLabel cell_regs">WR_EN</text>
    </g>
    <g transform="translate(30,10)" s:x="30" s:y="10" s:pid="out0" id="port_regs~RD_DATA">
      <text x="5" y="-4" style="fill:#000; stroke:none" class="cell_regs">RD_DATA</text>
    </g>
  </g>
  <g s:type="inputExt" transform="translate(533,300)" s:width="30" s:height="20" id="cell_clk">
    <text x="15" y="-4" class="nodelabel cell_clk" s:attribute="ref">clk</text>
    <s:alias val="$_inputExt_"/>
    <path d="M0,0 L0,20 L15,20 L30,10 L15,0 Z" class="cell_clk"/>
    <g s:x="28" s:y="10" s:pid="Y"/>
  </g>
  <g s:type="inputExt" transform="translate(156,1069)" s:width="30" s:height="20" id="cell_we">
    <text x="15" y="-4" class="nodelabel cell_we" s:attribute="ref">we</text>
    <s:alias val="$_inputExt_"/>
    <path d="M0,0 L0,20 L15,20 L30,10 L15,0 Z" class="cell_we"/>
    <g s:x="28" s:y="10" s:pid="Y"/>
  </g>
  <g s:type="inputExt" transform="translate(84,1405)" s:width="30" s:height="20" id="cell_waddr">
    <text x="15" y="-4" class="nodelabel cell_waddr" s:attribute="ref">waddr</text>
    <s:alias val="$_inputExt_"/>
    <path d="M0,0 L0,20 L15,20 L30,10 L15,0 Z" class="cell_waddr"/>
    <g s:x="28" s:y="10" s:pid="Y"/>
  </g>
  <g s:type="inputExt" transform="translate(447,375)" s:width="30" s:height="20" id="cell_wdata">
    <text x="15" y="-4" class="nodelabel cell_wdata" s:attribute="ref">wdata</text>
    <s:alias val="$_inputExt_"/>
    <path d="M0,0 L0,20 L15,20 L30,10 L15,0 Z" class="cell_wdata"/>
    <g s:x="28" s:y="10" s:pid="Y"/>
  </g>
  <g s:type="inputExt" transform="translate(447,1168)" s:width="30" s:height="20" id="cell_raddr1">
    <text x="15" y="-4" class="nodelabel cell_raddr1" s:attribute="ref">raddr1</text>
    <s:alias val="$_inputExt_"/>
    <path d="M0,0 L0,20 L15,20 L30,10 L15,0 Z" class="cell_raddr1"/>
    <g s:x="28" s:y="10" s:pid="Y"/>
  </g>
  <g s:type="outputExt" transform="translate(975,1258)" s:width="30" s:height="20" id="cell_rdata1">
    <text x="15" y="-4" class="nodelabel cell_rdata1" s:attribute="ref">rdata1</text>
    <s:alias val="$_outputExt_"/>
    <path d="M30,0 L30,20 L15,20 L0,10 L15,0 Z" class="cell_rdata1"/>
    <g s:x="0" s:y="10" s:pid="A"/>
  </g>
  <g s:type="inputExt" transform="translate(447,1385)" s:width="30" s:height="20" id="cell_raddr2">
    <text x="15" y="-4" class="nodelabel cell_raddr2" s:attribute="ref">raddr2</text>
    <s:alias val="$_inputExt_"/>
    <path d="M0,0 L0,20 L15,20 L30,10 L15,0 Z" class="cell_raddr2"/>
    <g s:x="28" s:y="10" s:pid="Y"/>
  </g>
  <g s:type="outputExt" transform="translate(975,1343)" s:width="30" s:height="20" id="cell_rdata2">
    <text x="15" y="-4" class="nodelabel cell_rdata2" s:attribute="ref">rdata2</text>
    <s:alias val="$_outputExt_"/>
    <path d="M30,0 L30,20 L15,20 L0,10 L15,0 Z" class="cell_rdata2"/>
    <g s:x="0" s:y="10" s:pid="A"/>
  </g>
  <g s:type="constant" transform="translate(377,942.5)" s:width="30" s:height="20" id="cell_0">
    <text x="15" y="-4" class="nodelabel cell_0" s:attribute="ref">0</text>
    <s:alias val="$_constant_"/>
    <rect width="30" height="20" class="cell_0"/>
    <g s:x="30" s:y="10" s:pid="Y"/>
  </g>
  <g s:type="constant" transform="translate(377,1007.5)" s:width="30" s:height="20" id="cell_1">
    <text x="15" y="-4" class="nodelabel cell_1" s:attribute="ref">1</text>
    <s:alias val="$_constant_"/>
    <rect width="30" height="20" class="cell_1"/>
    <g s:x="30" s:y="10" s:pid="Y"/>
  </g>
  <g s:type="constant" transform="translate(850,1268)" s:width="30" s:height="20" id="cell_00000000000000000000000000000000">
    <text x="15" y="-4" class="nodelabel cell_00000000000000000000000000000000" s:attribute="ref">0x0</text>
    <s:alias val="$_constant_"/>
    <rect width="30" height="20" class="cell_00000000000000000000000000000000"/>
    <g s:x="30" s:y="10" s:pid="Y"/>
  </g>
  <g s:type="constant" transform="translate(533,110)" s:width="30" s:height="20" id="cell_00">
    <text x="15" y="-4" class="nodelabel cell_00" s:attribute="ref">00</text>
    <s:alias val="$_constant_"/>
    <rect width="30" height="20" class="cell_00"/>
    <g s:x="30" s:y="10" s:pid="Y"/>
  </g>
  <g s:type="constant" transform="translate(533,175)" s:width="30" s:height="20" id="cell_11">
    <text x="15" y="-4" class="nodelabel cell_11" s:attribute="ref">11</text>
    <s:alias val="$_constant_"/>
    <rect width="30" height="20" class="cell_11"/>
    <g s:x="30" s:y="10" s:pid="Y"/>
  </g>
  <g s:type="join" transform="translate(66,55)" s:width="4" s:height="40" id="cell_$join$,x,x,x,x,x,x,x,x,x,x,x,x,x,x,x,x,x,x,x,x,x,x,x,x,x,x,x,x,x,x,x,x,">
    <rect width="5" height="40" class="splitjoinBody" s:generic="body"/>
    <s:alias val="$_join_"/>
    <g s:x="5" s:y="20" s:pid="out"/>
    <g transform="translate(0,10)" s:x="0" s:y="10" s:pid="in0">
      <text x="-3" y="-4" class="inputPortLabel">0:4</text>
    </g>
  </g>
  <g s:type="join" transform="translate(552,25)" s:width="4" s:height="40" id="cell_$join$,41,42,43,44,45,78,79,80,81,82,">
    <rect width="5" height="40" class="splitjoinBody" s:generic="body"/>
    <s:alias val="$_join_"/>
    <g s:x="5" s:y="20" s:pid="out"/>
    <g transform="translate(0,10)" s:x="0" s:y="10" s:pid="in0">
      <text x="-3" y="-4" class="inputPortLabel">0:4</text>
    </g>
    <g transform="translate(0,30)" s:x="0" s:y="10" s:pid="in0">
      <text x="-3" y="-4" class="inputPortLabel">5:9</text>
    </g>
  </g>
  <g s:type="join" transform="translate(551.52,457)" s:width="4" s:height="40" id="cell_$join$,123,123,123,123,123,123,123,123,123,123,123,123,123,123,123,123,123,123,123,123,123,123,123,123,123,123,123,123,123,123,123,123,">
    <rect width="5" height="640" class="splitjoinBody" s:generic="body"/>
    <s:alias val="$_join_"/>
    <g s:x="5" s:y="20" s:pid="out"/>
    <g transform="translate(0,10)" s:x="0" s:y="10" s:pid="in0">
      <text x="-3" y="-4" class="inputPortLabel">0</text>
    </g>
    <g transform="translate(0,30)" s:x="0" s:y="10" s:pid="in0">
      <text x="-3" y="-4" class="inputPortLabel">1</text>
    </g>
    <g transform="translate(0,50)" s:x="0" s:y="10" s:pid="in0">
      <text x="-3" y="-4" class="inputPortLabel">2</text>
    </g>
    <g transform="translate(0,70)" s:x="0" s:y="10" s:pid="in0">
      <text x="-3" y="-4" class="inputPortLabel">3</text>
    </g>
    <g transform="translate(0,90)" s:x="0" s:y="10" s:pid="in0">
      <text x="-3" y="-4" class="inputPortLabel">4</text>
    </g>
    <g transform="translate(0,110)" s:x="0" s:y="10" s:pid="in0">
      <text x="-3" y="-4" class="inputPortLabel">5</text>
    </g>
    <g transform="translate(0,130)" s:x="0" s:y="10" s:pid="in0">
      <text x="-3" y="-4" class="inputPortLabel">6</text>
    </g>
    <g transform="translate(0,150)" s:x="0" s:y="10" s:pid="in0">
      <text x="-3" y="-4" class="inputPortLabel">7</text>
    </g>
    <g transform="translate(0,170)" s:x="0" s:y="10" s:pid="in0">
      <text x="-3" y="-4" class="inputPortLabel">8</text>
    </g>
    <g transform="translate(0,190)" s:x="0" s:y="10" s:pid="in0">
      <text x="-3" y="-4" class="inputPortLabel">9</text>
    </g>
    <g transform="translate(0,210)" s:x="0" s:y="10" s:pid="in0">
      <text x="-3" y="-4" class="inputPortLabel">10</text>
    </g>
    <g transform="translate(0,230)" s:x="0" s:y="10" s:pid="in0">
      <text x="-3" y="-4" class="inputPortLabel">11</text>
    </g>
    <g transform="translate(0,250)" s:x="0" s:y="10" s:pid="in0">
      <text x="-3" y="-4" class="inputPortLabel">12</text>
    </g>
    <g transform="translate(0,270)" s:x="0" s:y="10" s:pid="in0">
      <text x="-3" y="-4" class="inputPortLabel">13</text>
    </g>
    <g transform="translate(0,290)" s:x="0" s:y="10" s:pid="in0">
      <text x="-3" y="-4" class="inputPortLabel">14</text>
    </g>
    <g transform="translate(0,310)" s:x="0" s:y="10" s:pid="in0">
      <text x="-3" y="-4" class="inputPortLabel">15</text>
    </g>
    <g transform="translate(0,330)" s:x="0" s:y="10" s:pid="in0">
      <text x="-3" y="-4" class="inputPortLabel">16</text>
    </g>
    <g transform="translate(0,350)" s:x="0" s:y="10" s:pid="in0">
      <text x="-3" y="-4" class="inputPortLabel">17</text>
    </g>
    <g transform="translate(0,370)" s:x="0" s:y="10" s:pid="in0">
      <text x="-3" y="-4" class="inputPortLabel">18</text>
    </g>
    <g transform="translate(0,390)" s:x="0" s:y="10" s:pid="in0">
      <text x="-3" y="-4" class="inputPortLabel">19</text>
    </g>
    <g transform="translate(0,410)" s:x="0" s:y="10" s:pid="in0">
      <text x="-3" y="-4" class="inputPortLabel">20</text>
    </g>
    <g transform="translate(0,430)" s:x="0" s:y="10" s:pid="in0">
      <text x="-3" y="-4" class="inputPortLabel">21</text>
    </g>
    <g transform="translate(0,450)" s:x="0" s:y="10" s:pid="in0">
      <text x="-3" y="-4" class="inputPortLabel">22</text>
    </g>
    <g transform="translate(0,470)" s:x="0" s:y="10" s:pid="in0">
      <text x="-3" y="-4" class="inputPortLabel">23</text>
    </g>
    <g transform="translate(0,490)" s:x="0" s:y="10" s:pid="in0">
      <text x="-3" y="-4" class="inputPortLabel">24</text>
    </g>
    <g transform="translate(0,510)" s:x="0" s:y="10" s:pid="in0">
      <text x="-3" y="-4" class="inputPortLabel">25</text>
    </g>
    <g transform="translate(0,530)" s:x="0" s:y="10" s:pid="in0">
      <text x="-3" y="-4" class="inputPortLabel">26</text>
    </g>
    <g transform="translate(0,550)" s:x="0" s:y="10" s:pid="in0">
      <text x="-3" y="-4" class="inputPortLabel">27</text>
    </g>
    <g transform="translate(0,570)" s:x="0" s:y="10" s:pid="in0">
      <text x="-3" y="-4" class="inputPortLabel">28</text>
    </g>
    <g transform="translate(0,590)" s:x="0" s:y="10" s:pid="in0">
      <text x="-3" y="-4" class="inputPortLabel">29</text>
    </g>
    <g transform="translate(0,610)" s:x="0" s:y="10" s:pid="in0">
      <text x="-3" y="-4" class="inputPortLabel">30</text>
    </g>
    <g transform="translate(0,630)" s:x="0" s:y="10" s:pid="in0">
      <text x="-3" y="-4" class="inputPortLabel">31</text>
    </g>
  </g>
  <g s:type="split" transform="translate(785,297)" s:width="5" s:height="40" id="cell_$split$,193,194,195,196,197,198,199,200,201,202,203,204,205,206,207,208,209,210,211,212,213,214,215,216,217,218,219,220,221,222,223,224,257,258,259,260,261,262,263,264,265,266,267,268,269,270,271,272,273,274,275,276,277,278,279,280,281,282,283,284,285,286,287,288,">
    <rect width="5" height="40" class="splitjoinBody" s:generic="body"/>
    <s:alias val="$_split_"/>
    <g s:x="0" s:y="20" s:pid="in"/>
    <g transform="translate(4,10)" s:x="4" s:y="10" s:pid="out0">
      <text x="5" y="-4">0:31</text>
    </g>
    <g transform="translate(4,30)" s:x="4" s:y="10" s:pid="out0">
      <text x="5" y="-4">32:63</text>
    </g>
  </g>
  <g s:type="split" transform="translate(48,12)" s:width="5" s:height="40" id="cell_$split$,x,x,x,x,x,">
    <rect width="5" height="20" class="splitjoinBody" s:generic="body"/>
    <s:alias val="$_split_"/>
    <g s:x="0" s:y="20" s:pid="in"/>
    <g transform="translate(4,10)" s:x="4" s:y="10" s:pid="out0">
      <text x="5" y="-4">0:1</text>
    </g>
  </g>
  <line x1="184" x2="352" y1="1079" y2="1079" class="net_3"/>
  <line x1="352" x2="352" y1="1079" y2="1129.5" class="net_3"/>
  <line x1="352" x2="377" y1="1129.5" y2="1129.5" class="net_3"/>
  <line x1="187" x2="377" y1="1144.5" y2="1144.5" class="net_115"/>
  <line x1="475" x2="513" y1="1178" y2="1178" class="net_41,42,43,44,45"/>
  <line x1="513" x2="513" y1="1178" y2="1213" class="net_41,42,43,44,45"/>
  <circle cx="513" cy="1178" r="2" style="fill:#000" class="net_41,42,43,44,45"/>
  <line x1="513" x2="850" y1="1213" y2="1213" class="net_41,42,43,44,45"/>
  <line x1="475" x2="573" y1="1178" y2="1178" class="net_41,42,43,44,45"/>
  <line x1="573" x2="573" y1="1178" y2="1183" class="net_41,42,43,44,45"/>
  <line x1="573" x2="681" y1="1183" y2="1183" class="net_41,42,43,44,45"/>
  <line x1="475" x2="513" y1="1178" y2="1178" class="net_41,42,43,44,45"/>
  <line x1="513" x2="513" y1="1178" y2="35.5" class="net_41,42,43,44,45"/>
  <line x1="513" x2="552" y1="35.5" y2="35.5" class="net_41,42,43,44,45"/>
  <line x1="112" x2="417" y1="1415" y2="1415" class="net_4,5,6,7,8"/>
  <line x1="417" x2="417" y1="1415" y2="1198" class="net_4,5,6,7,8"/>
  <circle cx="417" cy="1415" r="2" style="fill:#000" class="net_4,5,6,7,8"/>
  <line x1="417" x2="681" y1="1198" y2="1198" class="net_4,5,6,7,8"/>
  <line x1="112" x2="681" y1="1415" y2="1415" class="net_4,5,6,7,8"/>
  <line x1="112" x2="124" y1="1415" y2="1415" class="net_4,5,6,7,8"/>
  <line x1="124" x2="124" y1="1415" y2="260" class="net_4,5,6,7,8"/>
  <circle cx="124" cy="1415" r="2" style="fill:#000" class="net_4,5,6,7,8"/>
  <line x1="124" x2="538" y1="260" y2="260" class="net_4,5,6,7,8"/>
  <line x1="112" x2="124" y1="1415" y2="1415" class="net_4,5,6,7,8"/>
  <line x1="124" x2="124" y1="1415" y2="1144.5" class="net_4,5,6,7,8"/>
  <circle cx="124" cy="1144.5" r="2" style="fill:#000" class="net_4,5,6,7,8"/>
  <line x1="124" x2="156" y1="1144.5" y2="1144.5" class="net_4,5,6,7,8"/>
  <line x1="475" x2="503" y1="1395" y2="1395" class="net_78,79,80,81,82"/>
  <line x1="503" x2="503" y1="1395" y2="1430" class="net_78,79,80,81,82"/>
  <circle cx="503" cy="1395" r="2" style="fill:#000" class="net_78,79,80,81,82"/>
  <line x1="503" x2="850" y1="1430" y2="1430" class="net_78,79,80,81,82"/>
  <line x1="475" x2="573" y1="1395" y2="1395" class="net_78,79,80,81,82"/>
  <line x1="573" x2="573" y1="1395" y2="1400" class="net_78,79,80,81,82"/>
  <line x1="573" x2="681" y1="1400" y2="1400" class="net_78,79,80,81,82"/>
  <line x1="475" x2="503" y1="1395" y2="1395" class="net_78,79,80,81,82"/>
  <line x1="503" x2="503" y1="1395" y2="55.5" class="net_78,79,80,81,82"/>
  <line x1="503" x2="552" y1="55.5" y2="55.5" class="net_78,79,80,81,82"/>
  <line x1="407" x2="427" y1="1137" y2="1137" class="net_116"/>
  <line x1="427" x2="427" y1="1137" y2="1147" class="net_116"/>
  <line x1="427" x2="760" y1="1147" y2="1147" class="net_116"/>
  <line x1="760" x2="760" y1="1147" y2="1175.5" class="net_116"/>
  <circle cx="427" cy="1137" r="2" style="fill:#000" class="net_116"/>
  <circle cx="427" cy="1147" r="2" style="fill:#000" class="net_116"/>
  <line x1="760" x2="785" y1="1175.5" y2="1175.5" class="net_116"/>
  <line x1="407" x2="427" y1="1137" y2="1137" class="net_116"/>
  <line x1="427" x2="427" y1="1137" y2="1364" class="net_116"/>
  <line x1="427" x2="760" y1="1364" y2="1364" class="net_116"/>
  <line x1="760" x2="760" y1="1364" y2="1392.5" class="net_116"/>
  <line x1="760" x2="785" y1="1392.5" y2="1392.5" class="net_116"/>
  <line x1="407" x2="462.3333333333333" y1="1137" y2="1137" class="net_116"/>
  <line x1="462.3333333333333" x2="462.3333333333333" y1="1137" y2="1022.5" class="net_116"/>
  <line x1="407" x2="427" y1="1137" y2="1137" class="net_116"/>
  <line x1="427" x2="427" y1="1137" y2="405" class="net_116"/>
  <line x1="427" x2="548" y1="405" y2="405" class="net_116"/>
  <circle cx="427" cy="405" r="2" style="fill:#000" class="net_116"/>
  <line x1="548" x2="548" y1="405" y2="390" class="net_116"/>
  <line x1="407" x2="427" y1="1137" y2="1137" class="net_116"/>
  <line x1="427" x2="427" y1="1137" y2="280" class="net_116"/>
  <line x1="427" x2="548" y1="280" y2="280" class="net_116"/>
  <line x1="548" x2="548" y1="280" y2="265" class="net_116"/>
  <line x1="703" x2="785" y1="1190.5" y2="1190.5" class="net_118"/>
  <line x1="703" x2="785" y1="1407.5" y2="1407.5" class="net_120"/>
  <line x1="407" x2="437" y1="952.5" y2="952.5" class="net_289"/>
  <line x1="437" x2="437" y1="952.5" y2="997.5" class="net_289"/>
  <line x1="437" x2="452.3333333333333" y1="997.5" y2="997.5" class="net_289"/>
  <line x1="407" x2="452.3333333333333" y1="1017.5" y2="1017.5" class="net_290"/>
  <line x1="475" x2="538" y1="385" y2="385" class="net_9,10,11,12,13,14,15,16,17,18,19,20,21,22,23,24,25,26,27,28,29,30,31,32,33,34,35,36,37,38,39,40"/>
  <line x1="475" x2="493" y1="385" y2="385" class="net_9,10,11,12,13,14,15,16,17,18,19,20,21,22,23,24,25,26,27,28,29,30,31,32,33,34,35,36,37,38,39,40"/>
  <line x1="493" x2="493" y1="385" y2="12" class="net_9,10,11,12,13,14,15,16,17,18,19,20,21,22,23,24,25,26,27,28,29,30,31,32,33,34,35,36,37,38,39,40"/>
  <line x1="493" x2="835" y1="12" y2="12" class="net_9,10,11,12,13,14,15,16,17,18,19,20,21,22,23,24,25,26,27,28,29,30,31,32,33,34,35,36,37,38,39,40"/>
  <line x1="835" x2="835" y1="12" y2="327.5" class="net_9,10,11,12,13,14,15,16,17,18,19,20,21,22,23,24,25,26,27,28,29,30,31,32,33,34,35,36,37,38,39,40"/>
  <circle cx="493" cy="385" r="2" style="fill:#000" class="net_9,10,11,12,13,14,15,16,17,18,19,20,21,22,23,24,25,26,27,28,29,30,31,32,33,34,35,36,37,38,39,40"/>
  <line x1="835" x2="853.3333333333334" y1="327.5" y2="327.5" class="net_9,10,11,12,13,14,15,16,17,18,19,20,21,22,23,24,25,26,27,28,29,30,31,32,33,34,35,36,37,38,39,40"/>
  <line x1="475" x2="493" y1="385" y2="385" class="net_9,10,11,12,13,14,15,16,17,18,19,20,21,22,23,24,25,26,27,28,29,30,31,32,33,34,35,36,37,38,39,40"/>
  <line x1="493" x2="493" y1="385" y2="1353" class="net_9,10,11,12,13,14,15,16,17,18,19,20,21,22,23,24,25,26,27,28,29,30,31,32,33,34,35,36,37,38,39,40"/>
  <line x1="493" x2="853.3333333333334" y1="1353" y2="1353" class="net_9,10,11,12,13,14,15,16,17,18,19,20,21,22,23,24,25,26,27,28,29,30,31,32,33,34,35,36,37,38,39,40"/>
  <line x1="873.3333333333334" x2="910" y1="317.5" y2="317.5" class="net_161,162,163,164,165,166,167,168,169,170,171,172,173,174,175,176,177,178,179,180,181,182,183,184,185,186,187,188,189,190,191,192"/>
  <line x1="910" x2="910" y1="317.5" y2="1258" class="net_161,162,163,164,165,166,167,168,169,170,171,172,173,174,175,176,177,178,179,180,181,182,183,184,185,186,187,188,189,190,191,192"/>
  <line x1="910" x2="920" y1="1258" y2="1258" class="net_161,162,163,164,165,166,167,168,169,170,171,172,173,174,175,176,177,178,179,180,181,182,183,184,185,186,187,188,189,190,191,192"/>
  <line x1="880" x2="920" y1="1278" y2="1278" class="net_291,292,293,294,295,296,297,298,299,300,301,302,303,304,305,306,307,308,309,310,311,312,313,314,315,316,317,318,319,320,321,322"/>
  <line x1="880" x2="890" y1="1278" y2="1278" class="net_291,292,293,294,295,296,297,298,299,300,301,302,303,304,305,306,307,308,309,310,311,312,313,314,315,316,317,318,319,320,321,322"/>
  <line x1="890" x2="890" y1="1278" y2="1363" class="net_291,292,293,294,295,296,297,298,299,300,301,302,303,304,305,306,307,308,309,310,311,312,313,314,315,316,317,318,319,320,321,322"/>
  <circle cx="890" cy="1278" r="2" style="fill:#000" class="net_291,292,293,294,295,296,297,298,299,300,301,302,303,304,305,306,307,308,309,310,311,312,313,314,315,316,317,318,319,320,321,322"/>
  <line x1="890" x2="920" y1="1363" y2="1363" class="net_291,292,293,294,295,296,297,298,299,300,301,302,303,304,305,306,307,308,309,310,311,312,313,314,315,316,317,318,319,320,321,322"/>
  <line x1="875" x2="900" y1="1213" y2="1213" class="net_117"/>
  <line x1="900" x2="900" y1="1213" y2="1323" class="net_117"/>
  <line x1="900" x2="930" y1="1323" y2="1323" class="net_117"/>
  <line x1="930" x2="930" y1="1323" y2="1283" class="net_117"/>
  <line x1="790" x2="853.3333333333334" y1="307.5" y2="307.5" class="net_193,194,195,196,197,198,199,200,201,202,203,204,205,206,207,208,209,210,211,212,213,214,215,216,217,218,219,220,221,222,223,224"/>
  <line x1="815" x2="863.3333333333334" y1="1183" y2="1183" class="net_121"/>
  <line x1="863.3333333333334" x2="863.3333333333334" y1="1183" y2="332.5" class="net_121"/>
  <line x1="873.3333333333334" x2="920" y1="1343" y2="1343" class="net_225,226,227,228,229,230,231,232,233,234,235,236,237,238,239,240,241,242,243,244,245,246,247,248,249,250,251,252,253,254,255,256"/>
  <line x1="875" x2="930" y1="1430" y2="1430" class="net_119"/>
  <line x1="930" x2="930" y1="1430" y2="1368" class="net_119"/>
  <line x1="790" x2="825" y1="327.5" y2="327.5" class="net_257,258,259,260,261,262,263,264,265,266,267,268,269,270,271,272,273,274,275,276,277,278,279,280,281,282,283,284,285,286,287,288"/>
  <line x1="825" x2="825" y1="327.5" y2="1333" class="net_257,258,259,260,261,262,263,264,265,266,267,268,269,270,271,272,273,274,275,276,277,278,279,280,281,282,283,284,285,286,287,288"/>
  <line x1="825" x2="853.3333333333334" y1="1333" y2="1333" class="net_257,258,259,260,261,262,263,264,265,266,267,268,269,270,271,272,273,274,275,276,277,278,279,280,281,282,283,284,285,286,287,288"/>
  <line x1="815" x2="863.3333333333334" y1="1400" y2="1400" class="net_122"/>
  <line x1="863.3333333333334" x2="863.3333333333334" y1="1400" y2="1358" class="net_122"/>
  <line x1="558" x2="623" y1="45.5" y2="45.5" class="net_41,42,43,44,45,78,79,80,81,82"/>
  <line x1="623" x2="623" y1="45.5" y2="317.5" class="net_41,42,43,44,45,78,79,80,81,82"/>
  <line x1="623" x2="676" y1="317.5" y2="317.5" class="net_41,42,43,44,45,78,79,80,81,82"/>
  <line x1="563" x2="613" y1="120" y2="120" class="net_355,356"/>
  <line x1="613" x2="613" y1="120" y2="337.5" class="net_355,356"/>
  <circle cx="613" cy="337.5" r="2" style="fill:#000" class="net_355,356"/>
  <line x1="613" x2="676" y1="337.5" y2="337.5" class="net_355,356"/>
  <line x1="563" x2="613" y1="120" y2="120" class="net_355,356"/>
  <line x1="613" x2="613" y1="120" y2="397.5" class="net_355,356"/>
  <line x1="613" x2="676" y1="397.5" y2="397.5" class="net_355,356"/>
  <line x1="563" x2="603" y1="185" y2="185" class="net_357,358"/>
  <line x1="603" x2="603" y1="185" y2="377.5" class="net_357,358"/>
  <line x1="603" x2="676" y1="377.5" y2="377.5" class="net_357,358"/>
  <line x1="558" x2="593" y1="250" y2="250" class="net_156,157,158,159,160"/>
  <line x1="593" x2="593" y1="250" y2="417.5" class="net_156,157,158,159,160"/>
  <line x1="593" x2="676" y1="417.5" y2="417.5" class="net_156,157,158,159,160"/>
  <line x1="561" x2="583" y1="310" y2="310" class="net_2"/>
  <line x1="583" x2="583" y1="310" y2="437.5" class="net_2"/>
  <line x1="583" x2="676" y1="437.5" y2="437.5" class="net_2"/>
  <line x1="558" x2="573" y1="375" y2="375" class="net_124,125,126,127,128,129,130,131,132,133,134,135,136,137,138,139,140,141,142,143,144,145,146,147,148,149,150,151,152,153,154,155"/>
  <line x1="573" x2="573" y1="375" y2="457.5" class="net_124,125,126,127,128,129,130,131,132,133,134,135,136,137,138,139,140,141,142,143,144,145,146,147,148,149,150,151,152,153,154,155"/>
  <line x1="573" x2="676" y1="457.5" y2="457.5" class="net_124,125,126,127,128,129,130,131,132,133,134,135,136,137,138,139,140,141,142,143,144,145,146,147,148,149,150,151,152,153,154,155"/>
  <line x1="557.52" x2="676" y1="477.5" y2="477.5" class="net_123,123,123,123,123,123,123,123,123,123,123,123,123,123,123,123,123,123,123,123,123,123,123,123,123,123,123,123,123,123,123,123"/>
  <line x1="940" x2="975" y1="1268" y2="1268" class="net_46,47,48,49,50,51,52,53,54,55,56,57,58,59,60,61,62,63,64,65,66,67,68,69,70,71,72,73,74,75,76,77"/>
  <line x1="940" x2="975" y1="1353" y2="1353" class="net_83,84,85,86,87,88,89,90,91,92,93,94,95,96,97,98,99,100,101,102,103,104,105,106,107,108,109,110,111,112,113,114"/>
  <line x1="22" x2="22" y1="45" y2="65.5" class="net_NaN,NaN,NaN,NaN,NaN"/>
  <line x1="22" x2="66" y1="65.5" y2="65.5" class="net_NaN,NaN,NaN,NaN,NaN"/>
  <line x1="22" x2="48.5" y1="45" y2="33" class="net_NaN,NaN,NaN,NaN,NaN"/>
  <line x1="472.3333333333333" x2="523" y1="1007.5" y2="1007.5" class="net_123"/>
  <line x1="523" x2="523" y1="1007.5" y2="445" class="net_123"/>
  <line x1="523" x2="552.02" y1="445" y2="445" class="net_123"/>
  <circle cx="523" cy="1007.5" r="2" style="fill:#000" class="net_123"/>
  <circle cx="523" cy="445" r="2" style="fill:#000" class="net_123"/>
  <line x1="552.02" x2="552.02" y1="445" y2="467" class="net_123"/>
  <line x1="472.3333333333333" x2="523" y1="1007.5" y2="1007.5" class="net_123"/>
  <line x1="523" x2="523" y1="1007.5" y2="435" class="net_123"/>
  <line x1="523" x2="552.02" y1="435" y2="435" class="net_123"/>
  <circle cx="523" cy="435" r="2" style="fill:#000" class="net_123"/>
  <line x1="552.02" x2="552.02" y1="435" y2="487" class="net_123"/>
  <line x1="472.3333333333333" x2="523" y1="1007.5" y2="1007.5" class="net_123"/>
  <line x1="523" x2="523" y1="1007.5" y2="425" class="net_123"/>
  <line x1="523" x2="552.02" y1="425" y2="425" class="net_123"/>
  <circle cx="523" cy="425" r="2" style="fill:#000" class="net_123"/>
  <line x1="552.02" x2="552.02" y1="425" y2="507" class="net_123"/>
  <line x1="472.3333333333333" x2="523" y1="1007.5" y2="1007.5" class="net_123"/>
  <line x1="523" x2="523" y1="1007.5" y2="415" class="net_123"/>
  <line x1="523" x2="552.02" y1="415" y2="415" class="net_123"/>
  <line x1="552.02" x2="552.02" y1="415" y2="527" class="net_123"/>
  <line x1="472.3333333333333" x2="523" y1="1007.5" y2="1007.5" class="net_123"/>
  <line x1="523" x2="523" y1="1007.5" y2="547.5" class="net_123"/>
  <circle cx="523" cy="547.5" r="2" style="fill:#000" class="net_123"/>
  <line x1="523" x2="551.52" y1="547.5" y2="547.5" class="net_123"/>
  <line x1="472.3333333333333" x2="523" y1="1007.5" y2="1007.5" class="net_123"/>
  <line x1="523" x2="523" y1="1007.5" y2="567.5" class="net_123"/>
  <circle cx="523" cy="567.5" r="2" style="fill:#000" class="net_123"/>
  <line x1="523" x2="551.52" y1="567.5" y2="567.5" class="net_123"/>
  <line x1="472.3333333333333" x2="523" y1="1007.5" y2="1007.5" class="net_123"/>
  <line x1="523" x2="523" y1="1007.5" y2="587.5" class="net_123"/>
  <circle cx="523" cy="587.5" r="2" style="fill:#000" class="net_123"/>
  <line x1="523" x2="551.52" y1="587.5" y2="587.5" class="net_123"/>
  <line x1="472.3333333333333" x2="523" y1="1007.5" y2="1007.5" class="net_123"/>
  <line x1="523" x2="523" y1="1007.5" y2="607.5" class="net_123"/>
  <circle cx="523" cy="607.5" r="2" style="fill:#000" class="net_123"/>
  <line x1="523" x2="551.52" y1="607.5" y2="607.5" class="net_123"/>
  <line x1="472.3333333333333" x2="523" y1="1007.5" y2="1007.5" class="net_123"/>
  <line x1="523" x2="523" y1="1007.5" y2="627.5" class="net_123"/>
  <circle cx="523" cy="627.5" r="2" style="fill:#000" class="net_123"/>
  <line x1="523" x2="551.52" y1="627.5" y2="627.5" class="net_123"/>
  <line x1="472.3333333333333" x2="523" y1="1007.5" y2="1007.5" class="net_123"/>
  <line x1="523" x2="523" y1="1007.5" y2="647.5" class="net_123"/>
  <circle cx="523" cy="647.5" r="2" style="fill:#000" class="net_123"/>
  <line x1="523" x2="551.52" y1="647.5" y2="647.5" class="net_123"/>
  <line x1="472.3333333333333" x2="523" y1="1007.5" y2="1007.5" class="net_123"/>
  <line x1="523" x2="523" y1="1007.5" y2="667.5" class="net_123"/>
  <circle cx="523" cy="667.5" r="2" style="fill:#000" class="net_123"/>
  <line x1="523" x2="551.52" y1="667.5" y2="667.5" class="net_123"/>
  <line x1="472.3333333333333" x2="523" y1="1007.5" y2="1007.5" class="net_123"/>
  <line x1="523" x2="523" y1="1007.5" y2="687.5" class="net_123"/>
  <circle cx="523" cy="687.5" r="2" style="fill:#000" class="net_123"/>
  <line x1="523" x2="551.52" y1="687.5" y2="687.5" class="net_123"/>
  <line x1="472.3333333333333" x2="523" y1="1007.5" y2="1007.5" class="net_123"/>
  <line x1="523" x2="523" y1="1007.5" y2="707.5" class="net_123"/>
  <circle cx="523" cy="707.5" r="2" style="fill:#000" class="net_123"/>
  <line x1="523" x2="551.52" y1="707.5" y2="707.5" class="net_123"/>
  <line x1="472.3333333333333" x2="523" y1="1007.5" y2="1007.5" class="net_123"/>
  <line x1="523" x2="523" y1="1007.5" y2="727.5" class="net_123"/>
  <circle cx="523" cy="727.5" r="2" style="fill:#000" class="net_123"/>
  <line x1="523" x2="551.52" y1="727.5" y2="727.5" class="net_123"/>
  <line x1="472.3333333333333" x2="523" y1="1007.5" y2="1007.5" class="net_123"/>
  <line x1="523" x2="523" y1="1007.5" y2="747.5" class="net_123"/>
  <circle cx="523" cy="747.5" r="2" style="fill:#000" class="net_123"/>
  <line x1="523" x2="551.52" y1="747.5" y2="747.5" class="net_123"/>
  <line x1="472.3333333333333" x2="523" y1="1007.5" y2="1007.5" class="net_123"/>
  <line x1="523" x2="523" y1="1007.5" y2="767.5" class="net_123"/>
  <circle cx="523" cy="767.5" r="2" style="fill:#000" class="net_123"/>
  <line x1="523" x2="551.52" y1="767.5" y2="767.5" class="net_123"/>
  <line x1="472.3333333333333" x2="523" y1="1007.5" y2="1007.5" class="net_123"/>
  <line x1="523" x2="523" y1="1007.5" y2="787.5" class="net_123"/>
  <circle cx="523" cy="787.5" r="2" style="fill:#000" class="net_123"/>
  <line x1="523" x2="551.52" y1="787.5" y2="787.5" class="net_123"/>
  <line x1="472.3333333333333" x2="523" y1="1007.5" y2="1007.5" class="net_123"/>
  <line x1="523" x2="523" y1="1007.5" y2="807.5" class="net_123"/>
  <circle cx="523" cy="807.5" r="2" style="fill:#000" class="net_123"/>
  <line x1="523" x2="551.52" y1="807.5" y2="807.5" class="net_123"/>
  <line x1="472.3333333333333" x2="523" y1="1007.5" y2="1007.5" class="net_123"/>
  <line x1="523" x2="523" y1="1007.5" y2="827.5" class="net_123"/>
  <circle cx="523" cy="827.5" r="2" style="fill:#000" class="net_123"/>
  <line x1="523" x2="551.52" y1="827.5" y2="827.5" class="net_123"/>
  <line x1="472.3333333333333" x2="523" y1="1007.5" y2="1007.5" class="net_123"/>
  <line x1="523" x2="523" y1="1007.5" y2="847.5" class="net_123"/>
  <circle cx="523" cy="847.5" r="2" style="fill:#000" class="net_123"/>
  <line x1="523" x2="551.52" y1="847.5" y2="847.5" class="net_123"/>
  <line x1="472.3333333333333" x2="523" y1="1007.5" y2="1007.5" class="net_123"/>
  <line x1="523" x2="523" y1="1007.5" y2="867.5" class="net_123"/>
  <circle cx="523" cy="867.5" r="2" style="fill:#000" class="net_123"/>
  <line x1="523" x2="551.52" y1="867.5" y2="867.5" class="net_123"/>
  <line x1="472.3333333333333" x2="523" y1="1007.5" y2="1007.5" class="net_123"/>
  <line x1="523" x2="523" y1="1007.5" y2="887.5" class="net_123"/>
  <circle cx="523" cy="887.5" r="2" style="fill:#000" class="net_123"/>
  <line x1="523" x2="551.52" y1="887.5" y2="887.5" class="net_123"/>
  <line x1="472.3333333333333" x2="523" y1="1007.5" y2="1007.5" class="net_123"/>
  <line x1="523" x2="523" y1="1007.5" y2="907.5" class="net_123"/>
  <circle cx="523" cy="907.5" r="2" style="fill:#000" class="net_123"/>
  <line x1="523" x2="551.52" y1="907.5" y2="907.5" class="net_123"/>
  <line x1="472.3333333333333" x2="523" y1="1007.5" y2="1007.5" class="net_123"/>
  <line x1="523" x2="523" y1="1007.5" y2="927.5" class="net_123"/>
  <circle cx="523" cy="927.5" r="2" style="fill:#000" class="net_123"/>
  <line x1="523" x2="551.52" y1="927.5" y2="927.5" class="net_123"/>
  <line x1="472.3333333333333" x2="523" y1="1007.5" y2="1007.5" class="net_123"/>
  <line x1="523" x2="523" y1="1007.5" y2="947.5" class="net_123"/>
  <circle cx="523" cy="947.5" r="2" style="fill:#000" class="net_123"/>
  <line x1="523" x2="551.52" y1="947.5" y2="947.5" class="net_123"/>
  <line x1="472.3333333333333" x2="523" y1="1007.5" y2="1007.5" class="net_123"/>
  <line x1="523" x2="523" y1="1007.5" y2="967.5" class="net_123"/>
  <circle cx="523" cy="967.5" r="2" style="fill:#000" class="net_123"/>
  <line x1="523" x2="551.52" y1="967.5" y2="967.5" class="net_123"/>
  <line x1="472.3333333333333" x2="523" y1="1007.5" y2="1007.5" class="net_123"/>
  <line x1="523" x2="523" y1="1007.5" y2="987.5" class="net_123"/>
  <circle cx="523" cy="987.5" r="2" style="fill:#000" class="net_123"/>
  <line x1="523" x2="551.52" y1="987.5" y2="987.5" class="net_123"/>
  <line x1="472.3333333333333" x2="551.52" y1="1007.5" y2="1007.5" class="net_123"/>
  <line x1="472.3333333333333" x2="523" y1="1007.5" y2="1007.5" class="net_123"/>
  <line x1="523" x2="523" y1="1007.5" y2="1137" class="net_123"/>
  <line x1="523" x2="552.02" y1="1137" y2="1137" class="net_123"/>
  <line x1="552.02" x2="552.02" y1="1137" y2="1028" class="net_123"/>
  <line x1="472.3333333333333" x2="523" y1="1007.5" y2="1007.5" class="net_123"/>
  <line x1="523" x2="523" y1="1007.5" y2="1127" class="net_123"/>
  <line x1="523" x2="552.02" y1="1127" y2="1127" class="net_123"/>
  <circle cx="523" cy="1127" r="2" style="fill:#000" class="net_123"/>
  <line x1="552.02" x2="552.02" y1="1127" y2="1048" class="net_123"/>
  <line x1="472.3333333333333" x2="523" y1="1007.5" y2="1007.5" class="net_123"/>
  <line x1="523" x2="523" y1="1007.5" y2="1117" class="net_123"/>
  <line x1="523" x2="552.02" y1="1117" y2="1117" class="net_123"/>
  <circle cx="523" cy="1117" r="2" style="fill:#000" class="net_123"/>
  <line x1="552.02" x2="552.02" y1="1117" y2="1068" class="net_123"/>
  <line x1="472.3333333333333" x2="523" y1="1007.5" y2="1007.5" class="net_123"/>
  <line x1="523" x2="523" y1="1007.5" y2="1107" class="net_123"/>
  <line x1="523" x2="552.02" y1="1107" y2="1107" class="net_123"/>
  <circle cx="523" cy="1107" r="2" style="fill:#000" class="net_123"/>
  <line x1="552.02" x2="552.02" y1="1107" y2="1088" class="net_123"/>
  <line x1="707" x2="785" y1="317.5" y2="317.5" class="net_193,194,195,196,197,198,199,200,201,202,203,204,205,206,207,208,209,210,211,212,213,214,215,216,217,218,219,220,221,222,223,224,257,258,259,260,261,262,263,264,265,266,267,268,269,270,271,272,273,274,275,276,277,278,279,280,281,282,283,284,285,286,287,288"/>
</svg>
