<svg xmlns="http://www.w3.org/2000/svg" xmlns:xlink="http://www.w3.org/1999/xlink" xmlns:s="https://github.com/nturley/netlistsvg" width="1239.5" height="457"><style>svg {
  stroke:#000;
  fill:none;
}
text {
  fill:#000;
  stroke:none;
  font-size:10px;
  font-weight: bold;
  font-family: "Courier New", monospace;
}
line {
    stroke-linecap: round;
}
.nodelabel {
  text-anchor: middle;
}
.inputPortLabel {
  text-anchor: end;
}
.splitjoinBody {
  fill:#000;
}</style><g s:type="add" transform="translate(1009.5,227)" s:width="25" s:height="25" id="cell_$add$CounterTimer.v:40$10"><s:alias val="$add"/><circle r="12.5" cx="12.5" cy="12.5" fill="#ffffff" class="cell_$add$CounterTimer.v:40$10"/><line x1="7.5" x2="17.5" y1="12.5" y2="12.5" fill="#ffffff" class="cell_$add$CounterTimer.v:40$10"/><line x1="12.5" x2="12.5" y1="7.5" y2="17.5" fill="#ffffff" class="cell_$add$CounterTimer.v:40$10"/><g s:x="2" s:y="5" s:pid="A"/><g s:x="2" s:y="20" s:pid="B"/><g s:x="26" s:y="12.5" s:pid="Y"/></g><g s:type="eq" transform="translate(1073.5,348)" s:width="25" s:height="25" id="cell_$eq$CounterTimer.v:37$9"><s:alias val="$eq"/><s:alias val="$eqx"/><circle r="12.5" cx="12.5" cy="12.5" fill="#ffffff" class="cell_$eq$CounterTimer.v:37$9"/><line x1="7.5" x2="17.5" y1="10" y2="10" fill="#ffffff" class="cell_$eq$CounterTimer.v:37$9"/><line x1="7.5" x2="17.5" y1="15" y2="15" fill="#ffffff" class="cell_$eq$CounterTimer.v:37$9"/><g s:x="2" s:y="5" s:pid="A"/><g s:x="2" s:y="20" s:pid="B"/><g s:x="25" s:y="12.5" s:pid="Y"/></g><g s:type="dff-bus" transform="translate(871.5,222)" s:width="34" s:height="44" id="cell_$procdff$38"><s:alias val="$dff-bus"/><s:alias val="$_DFF_-bus"/><s:alias val="$_DFF_P_-bus"/><s:alias val="adff-bus"/><s:alias val="$adff-bus"/><s:alias val="$_DFF_-bus"/><s:alias val="$_DFF_P_-bus"/><s:alias val="sdff-bus"/><s:alias val="$sdff-bus"/><s:alias val="$_DFF_-bus"/><s:alias val="$_DFF_P_-bus"/><rect width="30" height="40" x="0" y="0" fill="#ffffff" class="cell_$procdff$38"/><path d="M0,35 L5,30 L0,25" fill="#ffffff" class="cell_$procdff$38"/><path d="M30,2 L32,2 L32,42 L2,42 L2,40" fill="#ffffff" class="cell_$procdff$38"/><path d="M32,4 L34,4 L34,44 L4,44 L4,42" fill="#ffffff" class="cell_$procdff$38"/><g s:x="35" s:y="10" s:pid="Q"/><g s:x="-1" s:y="30" s:pid="CLK"/><g s:x="-1" s:y="30" s:pid="C"/><g s:x="-1" s:y="10" s:pid="D"/><g s:x="17" s:y="44" s:pid="ARST"/><g s:x="17" s:y="44" s:pid="SRST"/></g><g s:type="mux-bus" transform="translate(1134.5,229.5)" s:width="24" s:height="40" id="cell_$procmux$20"><s:alias val="$pmux-bus"/><s:alias val="$mux-bus"/><s:alias val="$_MUX_-bus"/><path d="M0,0 L20,10 L20,30 L0,40 Z" fill="#ffffff" class="cell_$procmux$20"/><path d="M4,2 L4,0 L22,9 L22,31 L4,40 L4,38" fill="#ffffff" class="cell_$procmux$20"/><path d="M8,2 L8,0 L24,8 L24,32 L8,40 L8,38" fill="#ffffff" class="cell_$procmux$20"/><text x="5" y="32" class="nodelabel cell_$procmux$20" s:attribute="">1</text><text x="5" y="13" class="nodelabel cell_$procmux$20" s:attribute="">0</text><g s:x="-1" s:y="10" s:pid="A"/><g s:x="-1" s:y="30" s:pid="B"/><g s:x="12" s:y="38" s:pid="S"/><g s:x="24.5" s:y="20" s:pid="Y"/></g><a xlink:href="../building_blocks-timer/Timer_v.svg"><g s:type="sub_odd" transform="translate(216,22)" s:width="30" s:height="40" id="cell_inner_timer"><text x="266.75" y="-4" class="nodelabel cell_inner_timer" s:attribute="ref">Timer</text><rect width="533.5" height="343.5" s:generic="body" fill="#e9e9e9" rx="4" class="cell_inner_timer" pointer-events="all"/><g s:type="add" transform="translate(81.66666666666667,109.5)" s:width="25" s:height="25" id="cell_$add$../timer/Timer.v:32$15"><s:alias val="$add"/><circle r="12.5" cx="12.5" cy="12.5" fill="#ffffff" class="cell_$add$../timer/Timer.v:32$15"/><line x1="7.5" x2="17.5" y1="12.5" y2="12.5" fill="#ffffff" class="cell_$add$../timer/Timer.v:32$15"/><line x1="12.5" x2="12.5" y1="7.5" y2="17.5" fill="#ffffff" class="cell_$add$../timer/Timer.v:32$15"/><g s:x="2" s:y="5" s:pid="A"/><g s:x="2" s:y="20" s:pid="B"/><g s:x="26" s:y="12.5" s:pid="Y"/></g><g s:type="eq" transform="translate(144,211.5)" s:width="25" s:height="25" id="cell_$eq$../timer/Timer.v:27$13"><s:alias val="$eq"/><s:alias val="$eqx"/><circle r="12.5" cx="12.5" cy="12.5" fill="#ffffff" class="cell_$eq$../timer/Timer.v:27$13"/><line x1="7.5" x2="17.5" y1="10" y2="10" fill="#ffffff" class="cell_$eq$../timer/Timer.v:27$13"/><line x1="7.5" x2="17.5" y1="15" y2="15" fill="#ffffff" class="cell_$eq$../timer/Timer.v:27$13"/><g s:x="2" s:y="5" s:pid="A"/><g s:x="2" s:y="20" s:pid="B"/><g s:x="25" s:y="12.5" s:pid="Y"/></g><g s:type="eq" transform="translate(206.33333333333334,117)" s:width="25" s:height="25" id="cell_$eq$../timer/Timer.v:32$16"><s:alias val="$eq"/><s:alias val="$eqx"/><circle r="12.5" cx="12.5" cy="12.5" fill="#ffffff" class="cell_$eq$../timer/Timer.v:32$16"/><line x1="7.5" x2="17.5" y1="10" y2="10" fill="#ffffff" class="cell_$eq$../timer/Timer.v:32$16"/><line x1="7.5" x2="17.5" y1="15" y2="15" fill="#ffffff" class="cell_$eq$../timer/Timer.v:32$16"/><g s:x="2" s:y="5" s:pid="A"/><g s:x="2" s:y="20" s:pid="B"/><g s:x="25" s:y="12.5" s:pid="Y"/></g><g s:type="dff" transform="translate(457.5,134)" s:width="30" s:height="40" id="cell_$procdff$39"><s:alias val="$dff"/><s:alias val="$_DFF_"/><s:alias val="$_DFF_P_"/><s:alias val="$adff"/><s:alias val="$_DFF_"/><s:alias val="$_DFF_P_"/><s:alias val="$sdff"/><s:alias val="$_DFF_"/><s:alias val="$_DFF_P_"/><rect width="30" height="40" x="0" y="0" fill="#ffffff" class="cell_$procdff$39"/><path d="M0,35 L5,30 L0,25" fill="#ffffff" class="cell_$procdff$39"/><g s:x="31" s:y="10" s:pid="Q"/><g s:x="-1" s:y="30" s:pid="CLK"/><g s:x="-1" s:y="30" s:pid="C"/><g s:x="-1" s:y="10" s:pid="D"/><g s:x="15" s:y="40" s:pid="ARST"/><g s:x="15" s:y="40" s:pid="SRST"/></g><g s:type="dff-bus" transform="translate(456.5,194)" s:width="34" s:height="44" id="cell_$procdff$40"><s:alias val="$dff-bus"/><s:alias val="$_DFF_-bus"/><s:alias val="$_DFF_P_-bus"/><s:alias val="adff-bus"/><s:alias val="$adff-bus"/><s:alias val="$_DFF_-bus"/><s:alias val="$_DFF_P_-bus"/><s:alias val="sdff-bus"/><s:alias val="$sdff-bus"/><s:alias val="$_DFF_-bus"/><s:alias val="$_DFF_P_-bus"/><rect width="30" height="40" x="0" y="0" fill="#ffffff" class="cell_$procdff$40"/><path d="M0,35 L5,30 L0,25" fill="#ffffff" class="cell_$procdff$40"/><path d="M30,2 L32,2 L32,42 L2,42 L2,40" fill="#ffffff" class="cell_$procdff$40"/><path d="M32,4 L34,4 L34,44 L4,44 L4,42" fill="#ffffff" class="cell_$procdff$40"/><g s:x="35" s:y="10" s:pid="Q"/><g s:x="-1" s:y="30" s:pid="CLK"/><g s:x="-1" s:y="30" s:pid="C"/><g s:x="-1" s:y="10" s:pid="D"/><g s:x="17" s:y="44" s:pid="ARST"/><g s:x="17" s:y="44" s:pid="SRST"/></g><g s:type="mux-bus" transform="translate(206.66666666666666,174)" s:width="24" s:height="40" id="cell_$procmux$23"><s:alias val="$pmux-bus"/><s:alias val="$mux-bus"/><s:alias val="$_MUX_-bus"/><path d="M0,0 L20,10 L20,30 L0,40 Z" fill="#ffffff" class="cell_$procmux$23"/><path d="M4,2 L4,0 L22,9 L22,31 L4,40 L4,38" fill="#ffffff" class="cell_$procmux$23"/><path d="M8,2 L8,0 L24,8 L24,32 L8,40 L8,38" fill="#ffffff" class="cell_$procmux$23"/><text x="5" y="32" class="nodelabel cell_$procmux$23" s:attribute="">1</text><text x="5" y="13" class="nodelabel cell_$procmux$23" s:attribute="">0</text><g s:x="-1" s:y="10" s:pid="A"/><g s:x="-1" s:y="30" s:pid="B"/><g s:x="12" s:y="38" s:pid="S"/><g s:x="24.5" s:y="20" s:pid="Y"/></g><g s:type="mux-bus" transform="translate(341,184)" s:width="24" s:height="40" id="cell_$procmux$26"><s:alias val="$pmux-bus"/><s:alias val="$mux-bus"/><s:alias val="$_MUX_-bus"/><path d="M0,0 L20,10 L20,30 L0,40 Z" fill="#ffffff" class="cell_$procmux$26"/><path d="M4,2 L4,0 L22,9 L22,31 L4,40 L4,38" fill="#ffffff" class="cell_$procmux$26"/><path d="M8,2 L8,0 L24,8 L24,32 L8,40 L8,38" fill="#ffffff" class="cell_$procmux$26"/><text x="5" y="32" class="nodelabel cell_$procmux$26" s:attribute="">1</text><text x="5" y="13" class="nodelabel cell_$procmux$26" s:attribute="">0</text><g s:x="-1" s:y="10" s:pid="A"/><g s:x="-1" s:y="30" s:pid="B"/><g s:x="12" s:y="38" s:pid="S"/><g s:x="24.5" s:y="20" s:pid="Y"/></g><g s:type="mux" transform="translate(270,42)" s:width="20" s:height="40" id="cell_$procmux$28"><s:alias val="$pmux"/><s:alias val="$mux"/><s:alias val="$_MUX_"/><path d="M0,0 L20,10 L20,30 L0,40 Z" fill="#ffffff" class="cell_$procmux$28"/><text x="5" y="32" class="nodelabel cell_$procmux$28" s:attribute="">1</text><text x="5" y="13" class="nodelabel cell_$procmux$28" s:attribute="">0</text><g s:x="0" s:y="10" s:pid="A"/><g s:x="0" s:y="30" s:pid="B"/><g s:x="10" s:y="35" s:pid="S"/><g s:x="20" s:y="20" s:pid="Y"/></g><g s:type="mux" transform="translate(342.1666666666667,52)" s:width="20" s:height="40" id="cell_$procmux$31"><s:alias val="$pmux"/><s:alias val="$mux"/><s:alias val="$_MUX_"/><path d="M0,0 L20,10 L20,30 L0,40 Z" fill="#ffffff" class="cell_$procmux$31"/><text x="5" y="32" class="nodelabel cell_$procmux$31" s:attribute="">1</text><text x="5" y="13" class="nodelabel cell_$procmux$31" s:attribute="">0</text><g s:x="0" s:y="10" s:pid="A"/><g s:x="0" s:y="30" s:pid="B"/><g s:x="10" s:y="35" s:pid="S"/><g s:x="20" s:y="20" s:pid="Y"/></g><g s:type="mux" transform="translate(400.5,124)" s:width="20" s:height="40" id="cell_$procmux$34"><s:alias val="$pmux"/><s:alias val="$mux"/><s:alias val="$_MUX_"/><path d="M0,0 L20,10 L20,30 L0,40 Z" fill="#ffffff" class="cell_$procmux$34"/><text x="5" y="32" class="nodelabel cell_$procmux$34" s:attribute="">1</text><text x="5" y="13" class="nodelabel cell_$procmux$34" s:attribute="">0</text><g s:x="0" s:y="10" s:pid="A"/><g s:x="0" s:y="30" s:pid="B"/><g s:x="10" s:y="35" s:pid="S"/><g s:x="20" s:y="20" s:pid="Y"/></g><g s:type="constant" transform="translate(12,148)" s:width="30" s:height="20" id="cell_1"><text x="15" y="-4" class="nodelabel cell_1" s:attribute="ref">1</text><s:alias val="$_constant_"/><rect width="30" height="20" fill="#ffffff" class="cell_1"/><g s:x="31" s:y="10" s:pid="Y"/></g><g s:type="constant" transform="translate(78,253)" s:width="30" s:height="20" id="cell_00000000000000000000000000000000"><text x="15" y="-4" class="nodelabel cell_00000000000000000000000000000000" s:attribute="ref">0x0</text><s:alias val="$_constant_"/><rect width="30" height="20" fill="#ffffff" class="cell_00000000000000000000000000000000"/><g s:x="31" s:y="10" s:pid="Y"/></g><g s:type="constant" transform="translate(204,62)" s:width="30" s:height="20" id="cell_0"><text x="15" y="-4" class="nodelabel cell_0" s:attribute="ref">0</text><s:alias val="$_constant_"/><rect width="30" height="20" fill="#ffffff" class="cell_0"/><g s:x="31" s:y="10" s:pid="Y"/></g><line x1="491.5" x2="511.5" y1="204" y2="204" class="net_37,38,39,40,41,42,43,44,45,46,47,48,49,50,51,52,53,54,55,56,57,58,59,60,61,62,63,64,65,66,67,68"/><line x1="511.5" x2="511.5" y1="204" y2="16" class="net_37,38,39,40,41,42,43,44,45,46,47,48,49,50,51,52,53,54,55,56,57,58,59,60,61,62,63,64,65,66,67,68"/><line x1="511.5" x2="53" y1="16" y2="16" class="net_37,38,39,40,41,42,43,44,45,46,47,48,49,50,51,52,53,54,55,56,57,58,59,60,61,62,63,64,65,66,67,68"/><line x1="53" x2="53" y1="16" y2="114.5" class="net_37,38,39,40,41,42,43,44,45,46,47,48,49,50,51,52,53,54,55,56,57,58,59,60,61,62,63,64,65,66,67,68"/><line x1="53" x2="83.66666666666667" y1="114.5" y2="114.5" class="net_37,38,39,40,41,42,43,44,45,46,47,48,49,50,51,52,53,54,55,56,57,58,59,60,61,62,63,64,65,66,67,68"/><line x1="491.5" x2="511.5" y1="204" y2="204" class="net_37,38,39,40,41,42,43,44,45,46,47,48,49,50,51,52,53,54,55,56,57,58,59,60,61,62,63,64,65,66,67,68"/><line x1="511.5" x2="511.5" y1="204" y2="113" class="net_37,38,39,40,41,42,43,44,45,46,47,48,49,50,51,52,53,54,55,56,57,58,59,60,61,62,63,64,65,66,67,68"/><line x1="511.5" x2="320" y1="113" y2="113" class="net_37,38,39,40,41,42,43,44,45,46,47,48,49,50,51,52,53,54,55,56,57,58,59,60,61,62,63,64,65,66,67,68"/><line x1="320" x2="320" y1="113" y2="249" class="net_37,38,39,40,41,42,43,44,45,46,47,48,49,50,51,52,53,54,55,56,57,58,59,60,61,62,63,64,65,66,67,68"/><line x1="320" x2="119" y1="249" y2="249" class="net_37,38,39,40,41,42,43,44,45,46,47,48,49,50,51,52,53,54,55,56,57,58,59,60,61,62,63,64,65,66,67,68"/><line x1="119" x2="119" y1="249" y2="216.5" class="net_37,38,39,40,41,42,43,44,45,46,47,48,49,50,51,52,53,54,55,56,57,58,59,60,61,62,63,64,65,66,67,68"/><circle cx="511.5" cy="113" r="2" style="fill:#000" class="net_37,38,39,40,41,42,43,44,45,46,47,48,49,50,51,52,53,54,55,56,57,58,59,60,61,62,63,64,65,66,67,68"/><line x1="119" x2="146" y1="216.5" y2="216.5" class="net_37,38,39,40,41,42,43,44,45,46,47,48,49,50,51,52,53,54,55,56,57,58,59,60,61,62,63,64,65,66,67,68"/><line x1="43" x2="53" y1="158" y2="158" class="net_170"/><line x1="53" x2="53" y1="158" y2="129.5" class="net_170"/><circle cx="53" cy="158" r="2" style="fill:#000" class="net_170"/><line x1="53" x2="83.66666666666667" y1="129.5" y2="129.5" class="net_170"/><line x1="43" x2="189" y1="158" y2="158" class="net_170"/><line x1="189" x2="189" y1="158" y2="137" class="net_170"/><circle cx="189" cy="158" r="2" style="fill:#000" class="net_170"/><line x1="189" x2="208.33333333333334" y1="137" y2="137" class="net_170"/><line x1="43" x2="300" y1="158" y2="158" class="net_170"/><line x1="300" x2="300" y1="158" y2="82" class="net_170"/><line x1="300" x2="342.1666666666667" y1="82" y2="82" class="net_170"/><line x1="0" x2="146" y1="231.5" y2="231.5" class="net_4,5,6,7,8,9,10,11,12,13,14,15,16,17,18,19,20,21,22,23,24,25,26,27,28,29,30,31,32,33,34,35"/><line x1="107.66666666666667" x2="208.33333333333334" y1="122" y2="122" class="net_69,70,71,72,73,74,75,76,77,78,79,80,81,82,83,84,85,86,87,88,89,90,91,92,93,94,95,96,97,98,99,100"/><line x1="107.66666666666667" x2="119" y1="122" y2="122" class="net_69,70,71,72,73,74,75,76,77,78,79,80,81,82,83,84,85,86,87,88,89,90,91,92,93,94,95,96,97,98,99,100"/><line x1="119" x2="119" y1="122" y2="142" class="net_69,70,71,72,73,74,75,76,77,78,79,80,81,82,83,84,85,86,87,88,89,90,91,92,93,94,95,96,97,98,99,100"/><line x1="119" x2="179" y1="142" y2="142" class="net_69,70,71,72,73,74,75,76,77,78,79,80,81,82,83,84,85,86,87,88,89,90,91,92,93,94,95,96,97,98,99,100"/><line x1="179" x2="179" y1="142" y2="184" class="net_69,70,71,72,73,74,75,76,77,78,79,80,81,82,83,84,85,86,87,88,89,90,91,92,93,94,95,96,97,98,99,100"/><circle cx="119" cy="122" r="2" style="fill:#000" class="net_69,70,71,72,73,74,75,76,77,78,79,80,81,82,83,84,85,86,87,88,89,90,91,92,93,94,95,96,97,98,99,100"/><line x1="179" x2="205.66666666666666" y1="184" y2="184" class="net_69,70,71,72,73,74,75,76,77,78,79,80,81,82,83,84,85,86,87,88,89,90,91,92,93,94,95,96,97,98,99,100"/><line x1="0" x2="430.5" y1="319" y2="319" class="net_2"/><line x1="430.5" x2="430.5" y1="319" y2="164" class="net_2"/><line x1="430.5" x2="456.5" y1="164" y2="164" class="net_2"/><line x1="0" x2="430.5" y1="319" y2="319" class="net_2"/><line x1="430.5" x2="430.5" y1="319" y2="224" class="net_2"/><circle cx="430.5" cy="224" r="2" style="fill:#000" class="net_2"/><line x1="430.5" x2="455.5" y1="224" y2="224" class="net_2"/><line x1="420.5" x2="456.5" y1="144" y2="144" class="net_103"/><line x1="365.5" x2="455.5" y1="204" y2="204" class="net_104,105,106,107,108,109,110,111,112,113,114,115,116,117,118,119,120,121,122,123,124,125,126,127,128,129,130,131,132,133,134,135"/><line x1="109" x2="179" y1="263" y2="263" class="net_172,173,174,175,176,177,178,179,180,181,182,183,184,185,186,187,188,189,190,191,192,193,194,195,196,197,198,199,200,201,202,203"/><line x1="179" x2="179" y1="263" y2="204" class="net_172,173,174,175,176,177,178,179,180,181,182,183,184,185,186,187,188,189,190,191,192,193,194,195,196,197,198,199,200,201,202,203"/><line x1="179" x2="205.66666666666666" y1="204" y2="204" class="net_172,173,174,175,176,177,178,179,180,181,182,183,184,185,186,187,188,189,190,191,192,193,194,195,196,197,198,199,200,201,202,203"/><line x1="109" x2="119" y1="263" y2="263" class="net_172,173,174,175,176,177,178,179,180,181,182,183,184,185,186,187,188,189,190,191,192,193,194,195,196,197,198,199,200,201,202,203"/><line x1="119" x2="119" y1="263" y2="280" class="net_172,173,174,175,176,177,178,179,180,181,182,183,184,185,186,187,188,189,190,191,192,193,194,195,196,197,198,199,200,201,202,203"/><line x1="119" x2="330" y1="280" y2="280" class="net_172,173,174,175,176,177,178,179,180,181,182,183,184,185,186,187,188,189,190,191,192,193,194,195,196,197,198,199,200,201,202,203"/><line x1="330" x2="330" y1="280" y2="214" class="net_172,173,174,175,176,177,178,179,180,181,182,183,184,185,186,187,188,189,190,191,192,193,194,195,196,197,198,199,200,201,202,203"/><circle cx="119" cy="263" r="2" style="fill:#000" class="net_172,173,174,175,176,177,178,179,180,181,182,183,184,185,186,187,188,189,190,191,192,193,194,195,196,197,198,199,200,201,202,203"/><line x1="330" x2="340" y1="214" y2="214" class="net_172,173,174,175,176,177,178,179,180,181,182,183,184,185,186,187,188,189,190,191,192,193,194,195,196,197,198,199,200,201,202,203"/><line x1="169" x2="218.66666666666666" y1="224" y2="224" class="net_101"/><line x1="218.66666666666666" x2="218.66666666666666" y1="224" y2="212" class="net_101"/><line x1="169" x2="189" y1="224" y2="224" class="net_101"/><line x1="189" x2="189" y1="224" y2="234" class="net_101"/><line x1="189" x2="310" y1="234" y2="234" class="net_101"/><line x1="310" x2="310" y1="234" y2="102" class="net_101"/><line x1="310" x2="352.1666666666667" y1="102" y2="102" class="net_101"/><circle cx="189" cy="224" r="2" style="fill:#000" class="net_101"/><line x1="352.1666666666667" x2="352.1666666666667" y1="102" y2="87" class="net_101"/><line x1="231.16666666666666" x2="340" y1="194" y2="194" class="net_136,137,138,139,140,141,142,143,144,145,146,147,148,149,150,151,152,153,154,155,156,157,158,159,160,161,162,163,164,165,166,167"/><line x1="0" x2="353" y1="296" y2="296" class="net_3"/><line x1="353" x2="353" y1="296" y2="222" class="net_3"/><line x1="0" x2="300" y1="296" y2="296" class="net_3"/><line x1="300" x2="300" y1="296" y2="306" class="net_3"/><line x1="300" x2="410.5" y1="306" y2="306" class="net_3"/><circle cx="300" cy="296" r="2" style="fill:#000" class="net_3"/><line x1="410.5" x2="410.5" y1="306" y2="159" class="net_3"/><line x1="488.5" x2="501.5" y1="144" y2="144" class="net_36"/><line x1="501.5" x2="501.5" y1="144" y2="32" class="net_36"/><line x1="501.5" x2="245" y1="32" y2="32" class="net_36"/><line x1="245" x2="245" y1="32" y2="52" class="net_36"/><circle cx="501.5" cy="144" r="2" style="fill:#000" class="net_36"/><line x1="245" x2="270" y1="52" y2="52" class="net_36"/><line x1="488.5" x2="501.5" y1="144" y2="144" class="net_36"/><line x1="501.5" x2="501.5" y1="144" y2="184" class="net_36"/><line x1="501.5" x2="375.5" y1="184" y2="184" class="net_36"/><line x1="375.5" x2="375.5" y1="184" y2="154" class="net_36"/><line x1="375.5" x2="400.5" y1="154" y2="154" class="net_36"/><line x1="488.5" x2="533.5" y1="144" y2="144" class="net_36"/><line x1="235" x2="270" y1="72" y2="72" class="net_236"/><line x1="231.33333333333334" x2="280" y1="129.5" y2="129.5" class="net_102"/><line x1="280" x2="280" y1="129.5" y2="77" class="net_102"/><line x1="290" x2="342.1666666666667" y1="62" y2="62" class="net_168"/><line x1="362.1666666666667" x2="375.5" y1="72" y2="72" class="net_169"/><line x1="375.5" x2="375.5" y1="72" y2="134" class="net_169"/><line x1="375.5" x2="400.5" y1="134" y2="134" class="net_169"/><g transform="translate(-1,318.5)" s:x="0" s:y="10" s:pid="in0" id="port_inner_timer~clock"><text x="-3" y="-4" class="inputPortLabel cell_inner_timer">clock</text></g><g transform="translate(-1,231)" s:x="0" s:y="10" s:pid="in0" id="port_inner_timer~maxLimit"><text x="-3" y="-4" class="inputPortLabel cell_inner_timer">maxLimit</text></g><g transform="translate(-1,295.5)" s:x="0" s:y="10" s:pid="in0" id="port_inner_timer~reset"><text x="-3" y="-4" class="inputPortLabel cell_inner_timer">reset</text></g><g transform="translate(533.5,143.5)" s:x="30" s:y="10" s:pid="out0" id="port_inner_timer~timerTriggered"><text x="5" y="-4" style="fill:#000; stroke:none" class="cell_inner_timer">timerTriggered</text></g></g></a><g s:type="inputExt" transform="translate(101,373)" s:width="30" s:height="20" id="cell_clock"><text x="15" y="-4" class="nodelabel cell_clock" s:attribute="ref">clock</text><s:alias val="$_inputExt_"/><path d="M0,0 L0,20 L15,20 L30,10 L15,0 Z" fill="#ffffff" class="cell_clock"/><g s:x="30" s:y="10" s:pid="Y"/></g><g s:type="inputExt" transform="translate(101,308)" s:width="30" s:height="20" id="cell_reset"><text x="15" y="-4" class="nodelabel cell_reset" s:attribute="ref">reset</text><s:alias val="$_inputExt_"/><path d="M0,0 L0,20 L15,20 L30,10 L15,0 Z" fill="#ffffff" class="cell_reset"/><g s:x="30" s:y="10" s:pid="Y"/></g><g s:type="outputExt" transform="translate(1133.5,156)" s:width="30" s:height="20" id="cell_timerTriggered"><text x="15" y="-4" class="nodelabel cell_timerTriggered" s:attribute="ref">timerTriggered</text><s:alias val="$_outputExt_"/><path d="M30,0 L30,20 L15,20 L0,10 L15,0 Z" fill="#ffffff" class="cell_timerTriggered"/><g s:x="0" s:y="10" s:pid="A"/></g><g s:type="outputExt" transform="translate(1134.5,425)" s:width="30" s:height="20" id="cell_counter"><text x="15" y="-4" class="nodelabel cell_counter" s:attribute="ref">counter</text><s:alias val="$_outputExt_"/><path d="M30,0 L30,20 L15,20 L0,10 L15,0 Z" fill="#ffffff" class="cell_counter"/><g s:x="0" s:y="10" s:pid="A"/></g><g s:type="constant" transform="translate(941.5,283)" s:width="30" s:height="20" id="cell_1"><text x="15" y="-4" class="nodelabel cell_1" s:attribute="ref">1</text><s:alias val="$_constant_"/><rect width="30" height="20" fill="#ffffff" class="cell_1"/><g s:x="31" s:y="10" s:pid="Y"/></g><g s:type="constant" transform="translate(941.5,404)" s:width="30" s:height="20" id="cell_1010"><text x="15" y="-4" class="nodelabel cell_1010" s:attribute="ref">0xa</text><s:alias val="$_constant_"/><rect width="30" height="20" fill="#ffffff" class="cell_1010"/><g s:x="31" s:y="10" s:pid="Y"/></g><g s:type="constant" transform="translate(1007.5,297)" s:width="30" s:height="20" id="cell_0000000000000000000000000000000000000000000000000000000000000000"><text x="15" y="-4" class="nodelabel cell_0000000000000000000000000000000000000000000000000000000000000000" s:attribute="ref">0x0</text><s:alias val="$_constant_"/><rect width="30" height="20" fill="#ffffff" class="cell_0000000000000000000000000000000000000000000000000000000000000000"/><g s:x="31" s:y="10" s:pid="Y"/></g><g s:type="constant" transform="translate(12,243.5)" s:width="30" s:height="20" id="cell_00000010111110101111000010000000"><text x="15" y="-4" class="nodelabel cell_00000010111110101111000010000000" s:attribute="ref">0x2faf080</text><s:alias val="$_constant_"/><rect width="30" height="20" fill="#ffffff" class="cell_00000010111110101111000010000000"/><g s:x="31" s:y="10" s:pid="Y"/></g><line x1="906.5" x2="1011.5" y1="232" y2="232" class="net_5,6,7,8,9,10,11,12,13,14,15,16,17,18,19,20,21,22,23,24,25,26,27,28,29,30,31,32,33,34,35,36,37,38,39,40,41,42,43,44,45,46,47,48,49,50,51,52,53,54,55,56,57,58,59,60,61,62,63,64,65,66,67,68 width_64" style="stroke-width: 2"/><line x1="906.5" x2="916.5" y1="232" y2="232" class="net_5,6,7,8,9,10,11,12,13,14,15,16,17,18,19,20,21,22,23,24,25,26,27,28,29,30,31,32,33,34,35,36,37,38,39,40,41,42,43,44,45,46,47,48,49,50,51,52,53,54,55,56,57,58,59,60,61,62,63,64,65,66,67,68 width_64" style="stroke-width: 2"/><line x1="916.5" x2="916.5" y1="232" y2="353" class="net_5,6,7,8,9,10,11,12,13,14,15,16,17,18,19,20,21,22,23,24,25,26,27,28,29,30,31,32,33,34,35,36,37,38,39,40,41,42,43,44,45,46,47,48,49,50,51,52,53,54,55,56,57,58,59,60,61,62,63,64,65,66,67,68 width_64" style="stroke-width: 2"/><circle cx="916.5" cy="232" r="3" style="fill:#000" class="net_5,6,7,8,9,10,11,12,13,14,15,16,17,18,19,20,21,22,23,24,25,26,27,28,29,30,31,32,33,34,35,36,37,38,39,40,41,42,43,44,45,46,47,48,49,50,51,52,53,54,55,56,57,58,59,60,61,62,63,64,65,66,67,68 width_64"/><circle cx="916.5" cy="353" r="3" style="fill:#000" class="net_5,6,7,8,9,10,11,12,13,14,15,16,17,18,19,20,21,22,23,24,25,26,27,28,29,30,31,32,33,34,35,36,37,38,39,40,41,42,43,44,45,46,47,48,49,50,51,52,53,54,55,56,57,58,59,60,61,62,63,64,65,66,67,68 width_64"/><line x1="916.5" x2="1075.5" y1="353" y2="353" class="net_5,6,7,8,9,10,11,12,13,14,15,16,17,18,19,20,21,22,23,24,25,26,27,28,29,30,31,32,33,34,35,36,37,38,39,40,41,42,43,44,45,46,47,48,49,50,51,52,53,54,55,56,57,58,59,60,61,62,63,64,65,66,67,68 width_64" style="stroke-width: 2"/><line x1="906.5" x2="916.5" y1="232" y2="232" class="net_5,6,7,8,9,10,11,12,13,14,15,16,17,18,19,20,21,22,23,24,25,26,27,28,29,30,31,32,33,34,35,36,37,38,39,40,41,42,43,44,45,46,47,48,49,50,51,52,53,54,55,56,57,58,59,60,61,62,63,64,65,66,67,68 width_64" style="stroke-width: 2"/><line x1="916.5" x2="916.5" y1="232" y2="435" class="net_5,6,7,8,9,10,11,12,13,14,15,16,17,18,19,20,21,22,23,24,25,26,27,28,29,30,31,32,33,34,35,36,37,38,39,40,41,42,43,44,45,46,47,48,49,50,51,52,53,54,55,56,57,58,59,60,61,62,63,64,65,66,67,68 width_64" style="stroke-width: 2"/><line x1="916.5" x2="1134.5" y1="435" y2="435" class="net_5,6,7,8,9,10,11,12,13,14,15,16,17,18,19,20,21,22,23,24,25,26,27,28,29,30,31,32,33,34,35,36,37,38,39,40,41,42,43,44,45,46,47,48,49,50,51,52,53,54,55,56,57,58,59,60,61,62,63,64,65,66,67,68 width_64" style="stroke-width: 2"/><line x1="972.5" x2="982.5" y1="293" y2="293" class="net_198 width_1" style="stroke-width: 1"/><line x1="982.5" x2="982.5" y1="293" y2="247" class="net_198 width_1" style="stroke-width: 1"/><line x1="982.5" x2="1011.5" y1="247" y2="247" class="net_198 width_1" style="stroke-width: 1"/><line x1="972.5" x2="1048.5" y1="414" y2="414" class="net_199,200,201,202 width_4" style="stroke-width: 2"/><line x1="1048.5" x2="1048.5" y1="414" y2="368" class="net_199,200,201,202 width_4" style="stroke-width: 2"/><line x1="1048.5" x2="1075.5" y1="368" y2="368" class="net_199,200,201,202 width_4" style="stroke-width: 2"/><line x1="131" x2="151" y1="318" y2="318" class="net_3 width_1" style="stroke-width: 1"/><line x1="151" x2="151" y1="318" y2="375.5" class="net_3 width_1" style="stroke-width: 1"/><line x1="151" x2="888.5" y1="375.5" y2="375.5" class="net_3 width_1" style="stroke-width: 1"/><circle cx="151" cy="318" r="2" style="fill:#000" class="net_3 width_1"/><line x1="888.5" x2="888.5" y1="375.5" y2="266" class="net_3 width_1" style="stroke-width: 1"/><line x1="131" x2="215" y1="318" y2="318" class="net_3 width_1" style="stroke-width: 1"/><line x1="750.5" x2="845.5" y1="166" y2="166" class="net_4 width_1" style="stroke-width: 1"/><line x1="845.5" x2="845.5" y1="166" y2="252" class="net_4 width_1" style="stroke-width: 1"/><circle cx="845.5" cy="166" r="2" style="fill:#000" class="net_4 width_1"/><line x1="845.5" x2="870.5" y1="252" y2="252" class="net_4 width_1" style="stroke-width: 1"/><line x1="750.5" x2="1133.5" y1="166" y2="166" class="net_4 width_1" style="stroke-width: 1"/><line x1="1159" x2="1227.5" y1="249.5" y2="249.5" class="net_134,135,136,137,138,139,140,141,142,143,144,145,146,147,148,149,150,151,152,153,154,155,156,157,158,159,160,161,162,163,164,165,166,167,168,169,170,171,172,173,174,175,176,177,178,179,180,181,182,183,184,185,186,187,188,189,190,191,192,193,194,195,196,197 width_64" style="stroke-width: 2"/><line x1="1227.5" x2="1227.5" y1="249.5" y2="186" class="net_134,135,136,137,138,139,140,141,142,143,144,145,146,147,148,149,150,151,152,153,154,155,156,157,158,159,160,161,162,163,164,165,166,167,168,169,170,171,172,173,174,175,176,177,178,179,180,181,182,183,184,185,186,187,188,189,190,191,192,193,194,195,196,197 width_64" style="stroke-width: 2"/><line x1="1227.5" x2="855.5" y1="186" y2="186" class="net_134,135,136,137,138,139,140,141,142,143,144,145,146,147,148,149,150,151,152,153,154,155,156,157,158,159,160,161,162,163,164,165,166,167,168,169,170,171,172,173,174,175,176,177,178,179,180,181,182,183,184,185,186,187,188,189,190,191,192,193,194,195,196,197 width_64" style="stroke-width: 2"/><line x1="855.5" x2="855.5" y1="186" y2="232" class="net_134,135,136,137,138,139,140,141,142,143,144,145,146,147,148,149,150,151,152,153,154,155,156,157,158,159,160,161,162,163,164,165,166,167,168,169,170,171,172,173,174,175,176,177,178,179,180,181,182,183,184,185,186,187,188,189,190,191,192,193,194,195,196,197 width_64" style="stroke-width: 2"/><line x1="855.5" x2="870.5" y1="232" y2="232" class="net_134,135,136,137,138,139,140,141,142,143,144,145,146,147,148,149,150,151,152,153,154,155,156,157,158,159,160,161,162,163,164,165,166,167,168,169,170,171,172,173,174,175,176,177,178,179,180,181,182,183,184,185,186,187,188,189,190,191,192,193,194,195,196,197 width_64" style="stroke-width: 2"/><line x1="1035.5" x2="1133.5" y1="239.5" y2="239.5" class="net_69,70,71,72,73,74,75,76,77,78,79,80,81,82,83,84,85,86,87,88,89,90,91,92,93,94,95,96,97,98,99,100,101,102,103,104,105,106,107,108,109,110,111,112,113,114,115,116,117,118,119,120,121,122,123,124,125,126,127,128,129,130,131,132 width_64" style="stroke-width: 2"/><line x1="1038.5" x2="1108.5" y1="307" y2="307" class="net_203,204,205,206,207,208,209,210,211,212,213,214,215,216,217,218,219,220,221,222,223,224,225,226,227,228,229,230,231,232,233,234,235,236,237,238,239,240,241,242,243,244,245,246,247,248,249,250,251,252,253,254,255,256,257,258,259,260,261,262,263,264,265,266 width_64" style="stroke-width: 2"/><line x1="1108.5" x2="1108.5" y1="307" y2="259.5" class="net_203,204,205,206,207,208,209,210,211,212,213,214,215,216,217,218,219,220,221,222,223,224,225,226,227,228,229,230,231,232,233,234,235,236,237,238,239,240,241,242,243,244,245,246,247,248,249,250,251,252,253,254,255,256,257,258,259,260,261,262,263,264,265,266 width_64" style="stroke-width: 2"/><line x1="1108.5" x2="1133.5" y1="259.5" y2="259.5" class="net_203,204,205,206,207,208,209,210,211,212,213,214,215,216,217,218,219,220,221,222,223,224,225,226,227,228,229,230,231,232,233,234,235,236,237,238,239,240,241,242,243,244,245,246,247,248,249,250,251,252,253,254,255,256,257,258,259,260,261,262,263,264,265,266 width_64" style="stroke-width: 2"/><line x1="1098.5" x2="1146.5" y1="360.5" y2="360.5" class="net_133 width_1" style="stroke-width: 1"/><line x1="1146.5" x2="1146.5" y1="360.5" y2="267.5" class="net_133 width_1" style="stroke-width: 1"/><line x1="131" x2="141" y1="383" y2="383" class="net_2 width_1" style="stroke-width: 1"/><line x1="141" x2="141" y1="383" y2="341" class="net_2 width_1" style="stroke-width: 1"/><line x1="141" x2="215" y1="341" y2="341" class="net_2 width_1" style="stroke-width: 1"/><line x1="43" x2="215" y1="253.5" y2="253.5" class="net_267,268,269,270,271,272,273,274,275,276,277,278,279,280,281,282,283,284,285,286,287,288,289,290,291,292,293,294,295,296,297,298 width_32" style="stroke-width: 2"/><rect x="1022" y="430" width="22" height="9" class="net_5,6,7,8,9,10,11,12,13,14,15,16,17,18,19,20,21,22,23,24,25,26,27,28,29,30,31,32,33,34,35,36,37,38,39,40,41,42,43,44,45,46,47,48,49,50,51,52,53,54,55,56,57,58,59,60,61,62,63,64,65,66,67,68 width_64 busLabel_64" style="fill: white; stroke: none"/><text x="1021" y="438" class="net_5,6,7,8,9,10,11,12,13,14,15,16,17,18,19,20,21,22,23,24,25,26,27,28,29,30,31,32,33,34,35,36,37,38,39,40,41,42,43,44,45,46,47,48,49,50,51,52,53,54,55,56,57,58,59,60,61,62,63,64,65,66,67,68 width_64 busLabel_64">/64/</text><rect x="1022" y="430" width="22" height="9" class="net_5,6,7,8,9,10,11,12,13,14,15,16,17,18,19,20,21,22,23,24,25,26,27,28,29,30,31,32,33,34,35,36,37,38,39,40,41,42,43,44,45,46,47,48,49,50,51,52,53,54,55,56,57,58,59,60,61,62,63,64,65,66,67,68 width_64 busLabel_64" style="fill: white; stroke: none"/><text x="1021" y="438" class="net_5,6,7,8,9,10,11,12,13,14,15,16,17,18,19,20,21,22,23,24,25,26,27,28,29,30,31,32,33,34,35,36,37,38,39,40,41,42,43,44,45,46,47,48,49,50,51,52,53,54,55,56,57,58,59,60,61,62,63,64,65,66,67,68 width_64 busLabel_64">/64/</text><rect x="1022" y="430" width="22" height="9" class="net_5,6,7,8,9,10,11,12,13,14,15,16,17,18,19,20,21,22,23,24,25,26,27,28,29,30,31,32,33,34,35,36,37,38,39,40,41,42,43,44,45,46,47,48,49,50,51,52,53,54,55,56,57,58,59,60,61,62,63,64,65,66,67,68 width_64 busLabel_64" style="fill: white; stroke: none"/><text x="1021" y="438" class="net_5,6,7,8,9,10,11,12,13,14,15,16,17,18,19,20,21,22,23,24,25,26,27,28,29,30,31,32,33,34,35,36,37,38,39,40,41,42,43,44,45,46,47,48,49,50,51,52,53,54,55,56,57,58,59,60,61,62,63,64,65,66,67,68 width_64 busLabel_64">/64/</text><rect x="1022" y="409" width="16" height="9" class="net_199,200,201,202 width_4 busLabel_4" style="fill: white; stroke: none"/><text x="1021" y="417" class="net_199,200,201,202 width_4 busLabel_4">/4/</text><rect x="1022" y="181" width="22" height="9" class="net_134,135,136,137,138,139,140,141,142,143,144,145,146,147,148,149,150,151,152,153,154,155,156,157,158,159,160,161,162,163,164,165,166,167,168,169,170,171,172,173,174,175,176,177,178,179,180,181,182,183,184,185,186,187,188,189,190,191,192,193,194,195,196,197 width_64 busLabel_64" style="fill: white; stroke: none"/><text x="1021" y="189" class="net_134,135,136,137,138,139,140,141,142,143,144,145,146,147,148,149,150,151,152,153,154,155,156,157,158,159,160,161,162,163,164,165,166,167,168,169,170,171,172,173,174,175,176,177,178,179,180,181,182,183,184,185,186,187,188,189,190,191,192,193,194,195,196,197 width_64 busLabel_64">/64/</text><rect x="1085" y="234.5" width="22" height="9" class="net_69,70,71,72,73,74,75,76,77,78,79,80,81,82,83,84,85,86,87,88,89,90,91,92,93,94,95,96,97,98,99,100,101,102,103,104,105,106,107,108,109,110,111,112,113,114,115,116,117,118,119,120,121,122,123,124,125,126,127,128,129,130,131,132 width_64 busLabel_64" style="fill: white; stroke: none"/><text x="1084" y="242.5" class="net_69,70,71,72,73,74,75,76,77,78,79,80,81,82,83,84,85,86,87,88,89,90,91,92,93,94,95,96,97,98,99,100,101,102,103,104,105,106,107,108,109,110,111,112,113,114,115,116,117,118,119,120,121,122,123,124,125,126,127,128,129,130,131,132 width_64 busLabel_64">/64/</text><rect x="1085" y="302" width="22" height="9" class="net_203,204,205,206,207,208,209,210,211,212,213,214,215,216,217,218,219,220,221,222,223,224,225,226,227,228,229,230,231,232,233,234,235,236,237,238,239,240,241,242,243,244,245,246,247,248,249,250,251,252,253,254,255,256,257,258,259,260,261,262,263,264,265,266 width_64 busLabel_64" style="fill: white; stroke: none"/><text x="1084" y="310" class="net_203,204,205,206,207,208,209,210,211,212,213,214,215,216,217,218,219,220,221,222,223,224,225,226,227,228,229,230,231,232,233,234,235,236,237,238,239,240,241,242,243,244,245,246,247,248,249,250,251,252,253,254,255,256,257,258,259,260,261,262,263,264,265,266 width_64 busLabel_64">/64/</text><rect x="115" y="248.5" width="22" height="9" class="net_267,268,269,270,271,272,273,274,275,276,277,278,279,280,281,282,283,284,285,286,287,288,289,290,291,292,293,294,295,296,297,298 width_32 busLabel_32" style="fill: white; stroke: none"/><text x="114" y="256.5" class="net_267,268,269,270,271,272,273,274,275,276,277,278,279,280,281,282,283,284,285,286,287,288,289,290,291,292,293,294,295,296,297,298 width_32 busLabel_32">/32/</text></svg>