<svg xmlns="http://www.w3.org/2000/svg" xmlns:xlink="http://www.w3.org/1999/xlink" xmlns:s="https://github.com/nturley/netlistsvg" width="426" height="1784.5">
  <style>svg {
    stroke:#000;
    fill:none;
  }
  text {
    fill:#000;
    stroke:none;
    font-size:10px;
    font-weight: bold;
    font-family: "Courier New", monospace;
  }
  .nodelabel {
    text-anchor: middle;
  }
  .inputPortLabel {
    text-anchor: end;
  }
  .splitjoinBody {
    fill:#000;
  }</style>
  <g s:type="and" transform="translate(192,1620)" s:width="30" s:height="25" id="cell_$auto$ghdl.cc:936:import_module$33">
    <s:alias val="$and"/>
    <s:alias val="$logic_and"/>
    <s:alias val="$_AND_"/>
    <path d="M0,0 L0,25 L15,25 A15 12.5 0 0 0 15,0 Z" class="cell_$auto$ghdl.cc:936:import_module$33"/>
    <g s:x="0" s:y="5" s:pid="A"/>
    <g s:x="0" s:y="20" s:pid="B"/>
    <g s:x="30" s:y="12.5" s:pid="Y"/>
  </g>
  <g s:type="or" transform="translate(192,1347.5)" s:width="30" s:height="25" id="cell_$auto$ghdl.cc:944:import_module$35">
    <s:alias val="$or"/>
    <s:alias val="$logic_or"/>
    <s:alias val="$_OR_"/>
    <path d="M0,25 L0,25 L15,25 A15 12.5 0 0 0 15,0 L0,0" class="cell_$auto$ghdl.cc:944:import_module$35"/>
    <path d="M0,0 A30 25 0 0 1 0,25" class="cell_$auto$ghdl.cc:944:import_module$35"/>
    <g s:x="3" s:y="5" s:pid="A"/>
    <g s:x="3" s:y="20" s:pid="B"/>
    <g s:x="30" s:y="12.5" s:pid="Y"/>
  </g>
  <g s:type="not" transform="translate(269.5,1752.5)" s:width="30" s:height="20" id="cell_:28">
    <s:alias val="$_NOT_"/>
    <s:alias val="$not"/>
    <s:alias val="$logic_not"/>
    <path d="M0,0 L0,20 L20,10 Z" class="cell_:28"/>
    <circle cx="23" cy="10" r="3" class="cell_:28"/>
    <g s:x="0" s:y="10" s:pid="A"/>
    <g s:x="25" s:y="10" s:pid="Y"/>
  </g>
  <g s:type="reduce_xor" transform="translate(272.3333333333333,1282.5)" s:width="33" s:height="25" id="cell_:29">
    <s:alias val="$xor"/>
    <s:alias val="$reduce_xor"/>
    <s:alias val="$_XOR_"/>
    <path d="M3,0 A30 25 0 0 1 3,25 A30 25 0 0 0 33,12.5 A30 25 0 0 0 3,0" class="cell_:29"/>
    <path d="M0,0 A30 25 0 0 1 0,25" class="cell_:29"/>
    <g s:x="3" s:y="5" s:pid="A"/>
    <g s:x="3" s:y="20" s:pid="B"/>
    <g s:x="33" s:y="12.5" s:pid="Y"/>
  </g>
  <g s:type="not" transform="translate(269.5,1687.5)" s:width="30" s:height="20" id="cell_:30">
    <s:alias val="$_NOT_"/>
    <s:alias val="$not"/>
    <s:alias val="$logic_not"/>
    <path d="M0,0 L0,20 L20,10 Z" class="cell_:30"/>
    <circle cx="23" cy="10" r="3" class="cell_:30"/>
    <g s:x="0" s:y="10" s:pid="A"/>
    <g s:x="25" s:y="10" s:pid="Y"/>
  </g>
  <g s:type="not" transform="translate(269.5,1350)" s:width="30" s:height="20" id="cell_:31">
    <s:alias val="$_NOT_"/>
    <s:alias val="$not"/>
    <s:alias val="$logic_not"/>
    <path d="M0,0 L0,20 L20,10 Z" class="cell_:31"/>
    <circle cx="23" cy="10" r="3" class="cell_:31"/>
    <g s:x="0" s:y="10" s:pid="A"/>
    <g s:x="25" s:y="10" s:pid="Y"/>
  </g>
  <g s:type="reduce_nxor" transform="translate(269,1555)" s:width="33" s:height="25" id="cell_:32">
    <s:alias val="$xnor"/>
    <s:alias val="$reduce_xnor"/>
    <s:alias val="$_XNOR_"/>
    <path d="M3,0 A30 25 0 0 1 3,25 A30 25 0 0 0 33,12.5 A30 25 0 0 0 3,0" class="cell_:32"/>
    <path d="M0,0 A30 25 0 0 1 0,25" class="cell_:32"/>
    <circle cx="35" cy="12.5" r="3" class="cell_:32"/>
    <g s:x="3" s:y="5" s:pid="A"/>
    <g s:x="3" s:y="20" s:pid="B"/>
    <g s:x="38" s:y="12.5" s:pid="Y"/>
  </g>
  <g s:type="generic" transform="translate(269,287.5)" s:width="30" s:height="40" id="cell_:33">
    <text x="15" y="-4" class="nodelabel cell_:33" s:attribute="ref">$reduce_or</text>
    <rect width="30" height="20" s:generic="body" class="cell_:33"/>
    <g transform="translate(0,10)" s:x="0" s:y="10" s:pid="in0" id="port_:33~A">
      <text x="-3" y="-4" class="inputPortLabel cell_:33">A</text>
    </g>
    <g transform="translate(30,10)" s:x="30" s:y="10" s:pid="out0" id="port_:33~Y">
      <text x="5" y="-4" style="fill:#000; stroke:none" class="cell_:33">Y</text>
    </g>
  </g>
  <g s:type="generic" transform="translate(269,219.5)" s:width="30" s:height="40" id="cell_:34">
    <text x="15" y="-4" class="nodelabel cell_:34" s:attribute="ref">$reduce_and</text>
    <rect width="30" height="20" s:generic="body" class="cell_:34"/>
    <g transform="translate(0,10)" s:x="0" s:y="10" s:pid="in0" id="port_:34~A">
      <text x="-3" y="-4" class="inputPortLabel cell_:34">A</text>
    </g>
    <g transform="translate(30,10)" s:x="30" s:y="10" s:pid="out0" id="port_:34~Y">
      <text x="5" y="-4" style="fill:#000; stroke:none" class="cell_:34">Y</text>
    </g>
  </g>
  <g s:type="reduce_xor" transform="translate(268,84.5)" s:width="33" s:height="25" id="cell_:35">
    <s:alias val="$xor"/>
    <s:alias val="$reduce_xor"/>
    <s:alias val="$_XOR_"/>
    <path d="M3,0 A30 25 0 0 1 3,25 A30 25 0 0 0 33,12.5 A30 25 0 0 0 3,0" class="cell_:35"/>
    <path d="M0,0 A30 25 0 0 1 0,25" class="cell_:35"/>
    <g s:x="3" s:y="5" s:pid="A"/>
    <g s:x="3" s:y="20" s:pid="B"/>
    <g s:x="33" s:y="12.5" s:pid="Y"/>
  </g>
  <g s:type="mux" transform="translate(276.6666666666667,1206.5)" s:width="20" s:height="40" id="cell_:36">
    <s:alias val="$pmux"/>
    <s:alias val="$mux"/>
    <s:alias val="$_MUX_"/>
    <path d="M0,0 L20,10 L20,30 L0,40 Z" class="cell_:36"/>
    <g s:x="0" s:y="10" s:pid="A"/>
    <g s:x="0" s:y="30" s:pid="B"/>
    <g s:x="10" s:y="35" s:pid="S"/>
    <g s:x="20" s:y="20" s:pid="Y"/>
  </g>
  <g s:type="not" transform="translate(82,375.5)" s:width="30" s:height="20" id="cell_:39">
    <s:alias val="$_NOT_"/>
    <s:alias val="$not"/>
    <s:alias val="$logic_not"/>
    <path d="M0,0 L0,20 L20,10 Z" class="cell_:39"/>
    <circle cx="23" cy="10" r="3" class="cell_:39"/>
    <g s:x="0" s:y="10" s:pid="A"/>
    <g s:x="25" s:y="10" s:pid="Y"/>
  </g>
  <g s:type="eq" transform="translate(83.66666666666667,495.5)" s:width="25" s:height="25" id="cell_:42">
    <s:alias val="$eq"/>
    <circle r="12.5" cx="12.5" cy="12.5" class="cell_:42"/>
    <line x1="7.5" x2="17.5" y1="10" y2="10" class="cell_:42"/>
    <line x1="7.5" x2="17.5" y1="15" y2="15" class="cell_:42"/>
    <g s:x="3" s:y="5" s:pid="A"/>
    <g s:x="3" s:y="20" s:pid="B"/>
    <g s:x="25" s:y="12.5" s:pid="Y"/>
  </g>
  <g s:type="eq" transform="translate(83.66666666666667,555.5)" s:width="25" s:height="25" id="cell_:45">
    <s:alias val="$eq"/>
    <circle r="12.5" cx="12.5" cy="12.5" class="cell_:45"/>
    <line x1="7.5" x2="17.5" y1="10" y2="10" class="cell_:45"/>
    <line x1="7.5" x2="17.5" y1="15" y2="15" class="cell_:45"/>
    <g s:x="3" s:y="5" s:pid="A"/>
    <g s:x="3" s:y="20" s:pid="B"/>
    <g s:x="25" s:y="12.5" s:pid="Y"/>
  </g>
  <g s:type="mux" transform="translate(276.6666666666667,345.5)" s:width="20" s:height="40" id="cell_:48">
    <s:alias val="$pmux"/>
    <s:alias val="$mux"/>
    <s:alias val="$_MUX_"/>
    <path d="M0,0 L20,10 L20,30 L0,40 Z" class="cell_:48"/>
    <g s:x="0" s:y="10" s:pid="A"/>
    <g s:x="0" s:y="30" s:pid="B"/>
    <g s:x="10" s:y="35" s:pid="S"/>
    <g s:x="20" s:y="20" s:pid="Y"/>
  </g>
  <g s:type="add" transform="translate(275,19.5)" s:width="25" s:height="25" id="cell_:49">
    <s:alias val="$add"/>
    <circle r="12.5" cx="12.5" cy="12.5" class="cell_:49"/>
    <line x1="7.5" x2="17.5" y1="12.5" y2="12.5" class="cell_:49"/>
    <line x1="12.5" x2="12.5" y1="7.5" y2="17.5" class="cell_:49"/>
    <g s:x="3" s:y="5" s:pid="A"/>
    <g s:x="3" s:y="20" s:pid="B"/>
    <g s:x="25" s:y="12.5" s:pid="Y"/>
  </g>
  <g s:type="sub" transform="translate(275,149.5)" s:width="25" s:height="25" id="cell_:50">
    <s:alias val="$sub"/>
    <circle r="12.5" cx="12.5" cy="12.5" class="cell_:50"/>
    <line x1="7.5" x2="17.5" y1="12.5" y2="12.5" class="cell_:50"/>
    <g s:x="3" s:y="5" s:pid="A"/>
    <g s:x="3" s:y="20" s:pid="B"/>
    <g s:x="25" s:y="12.5" s:pid="Y"/>
  </g>
  <g s:type="eq" transform="translate(196,839)" s:width="25" s:height="25" id="cell_:52">
    <s:alias val="$eq"/>
    <circle r="12.5" cx="12.5" cy="12.5" class="cell_:52"/>
    <line x1="7.5" x2="17.5" y1="10" y2="10" class="cell_:52"/>
    <line x1="7.5" x2="17.5" y1="15" y2="15" class="cell_:52"/>
    <g s:x="3" s:y="5" s:pid="A"/>
    <g s:x="3" s:y="20" s:pid="B"/>
    <g s:x="25" s:y="12.5" s:pid="Y"/>
  </g>
  <g s:type="mux" transform="translate(276.6666666666667,728)" s:width="20" s:height="40" id="cell_:53">
    <s:alias val="$pmux"/>
    <s:alias val="$mux"/>
    <s:alias val="$_MUX_"/>
    <path d="M0,0 L20,10 L20,30 L0,40 Z" class="cell_:53"/>
    <g s:x="0" s:y="10" s:pid="A"/>
    <g s:x="0" s:y="30" s:pid="B"/>
    <g s:x="10" s:y="35" s:pid="S"/>
    <g s:x="20" s:y="20" s:pid="Y"/>
  </g>
  <g s:type="lt" transform="translate(196,703)" s:width="25" s:height="25" id="cell_:56">
    <s:alias val="$lt"/>
    <circle r="12.5" cx="12.5" cy="12.5" class="cell_:56"/>
    <line x1="7.5" x2="17.5" y1="12.5" y2="7.5" class="cell_:56"/>
    <line x1="7.5" x2="17.5" y1="12.5" y2="17.5" class="cell_:56"/>
    <g s:x="3" s:y="5" s:pid="A"/>
    <g s:x="3" s:y="20" s:pid="B"/>
    <g s:x="25" s:y="12.5" s:pid="Y"/>
  </g>
  <g s:type="mux" transform="translate(276.6666666666667,662)" s:width="20" s:height="40" id="cell_:57">
    <s:alias val="$pmux"/>
    <s:alias val="$mux"/>
    <s:alias val="$_MUX_"/>
    <path d="M0,0 L20,10 L20,30 L0,40 Z" class="cell_:57"/>
    <g s:x="0" s:y="10" s:pid="A"/>
    <g s:x="0" s:y="30" s:pid="B"/>
    <g s:x="10" s:y="35" s:pid="S"/>
    <g s:x="20" s:y="20" s:pid="Y"/>
  </g>
  <g s:type="mux" transform="translate(197.66666666666666,926.5)" s:width="20" s:height="40" id="cell_:75">
    <s:alias val="$pmux"/>
    <s:alias val="$mux"/>
    <s:alias val="$_MUX_"/>
    <path d="M0,0 L20,10 L20,30 L0,40 Z" class="cell_:75"/>
    <g s:x="0" s:y="10" s:pid="A"/>
    <g s:x="0" s:y="30" s:pid="B"/>
    <g s:x="10" s:y="35" s:pid="S"/>
    <g s:x="20" s:y="20" s:pid="Y"/>
  </g>
  <g s:type="add" transform="translate(85.33333333333333,1086.5)" s:width="25" s:height="25" id="cell_:81">
    <s:alias val="$add"/>
    <circle r="12.5" cx="12.5" cy="12.5" class="cell_:81"/>
    <line x1="7.5" x2="17.5" y1="12.5" y2="12.5" class="cell_:81"/>
    <line x1="12.5" x2="12.5" y1="7.5" y2="17.5" class="cell_:81"/>
    <g s:x="3" s:y="5" s:pid="A"/>
    <g s:x="3" s:y="20" s:pid="B"/>
    <g s:x="25" s:y="12.5" s:pid="Y"/>
  </g>
  <g s:type="mux" transform="translate(197.66666666666666,1011.5)" s:width="20" s:height="40" id="cell_:83">
    <s:alias val="$pmux"/>
    <s:alias val="$mux"/>
    <s:alias val="$_MUX_"/>
    <path d="M0,0 L20,10 L20,30 L0,40 Z" class="cell_:83"/>
    <g s:x="0" s:y="10" s:pid="A"/>
    <g s:x="0" s:y="30" s:pid="B"/>
    <g s:x="10" s:y="35" s:pid="S"/>
    <g s:x="20" s:y="20" s:pid="Y"/>
  </g>
  <g s:type="dff" transform="translate(273.3333333333333,1480)" s:width="30" s:height="40" id="cell_:86">
    <s:alias val="$dff"/>
    <s:alias val="$_DFF_"/>
    <s:alias val="$_DFF_P_"/>
    <rect width="30" height="40" x="0" y="0" class="cell_:86"/>
    <path d="M0,35 L5,30 L0,25" class="cell_:86"/>
    <g s:x="30" s:y="10" s:pid="Q"/>
    <g s:x="0" s:y="30" s:pid="CLK"/>
    <g s:x="0" s:y="30" s:pid="C"/>
    <g s:x="0" s:y="10" s:pid="D"/>
  </g>
  <g s:type="mux" transform="translate(196.33333333333334,769)" s:width="20" s:height="40" id="cell_:87">
    <s:alias val="$pmux"/>
    <s:alias val="$mux"/>
    <s:alias val="$_MUX_"/>
    <path d="M0,0 L20,10 L20,30 L0,40 Z" class="cell_:87"/>
    <g s:x="0" s:y="10" s:pid="A"/>
    <g s:x="0" s:y="30" s:pid="B"/>
    <g s:x="10" s:y="35" s:pid="S"/>
    <g s:x="20" s:y="20" s:pid="Y"/>
  </g>
  <g s:type="dff" transform="translate(275.25,861.5)" s:width="30" s:height="40" id="cell_:88">
    <s:alias val="$dff"/>
    <s:alias val="$_DFF_"/>
    <s:alias val="$_DFF_P_"/>
    <rect width="30" height="40" x="0" y="0" class="cell_:88"/>
    <path d="M0,35 L5,30 L0,25" class="cell_:88"/>
    <g s:x="30" s:y="10" s:pid="Q"/>
    <g s:x="0" s:y="30" s:pid="CLK"/>
    <g s:x="0" s:y="30" s:pid="C"/>
    <g s:x="0" s:y="10" s:pid="D"/>
  </g>
  <g s:type="dff" transform="translate(273.3333333333333,936.5)" s:width="30" s:height="40" id="cell_:89">
    <s:alias val="$dff"/>
    <s:alias val="$_DFF_"/>
    <s:alias val="$_DFF_P_"/>
    <rect width="30" height="40" x="0" y="0" class="cell_:89"/>
    <path d="M0,35 L5,30 L0,25" class="cell_:89"/>
    <g s:x="30" s:y="10" s:pid="Q"/>
    <g s:x="0" s:y="30" s:pid="CLK"/>
    <g s:x="0" s:y="30" s:pid="C"/>
    <g s:x="0" s:y="10" s:pid="D"/>
  </g>
  <g s:type="dff" transform="translate(275.25,1131.5)" s:width="30" s:height="40" id="cell_:90">
    <s:alias val="$dff"/>
    <s:alias val="$_DFF_"/>
    <s:alias val="$_DFF_P_"/>
    <rect width="30" height="40" x="0" y="0" class="cell_:90"/>
    <path d="M0,35 L5,30 L0,25" class="cell_:90"/>
    <g s:x="30" s:y="10" s:pid="Q"/>
    <g s:x="0" s:y="30" s:pid="CLK"/>
    <g s:x="0" s:y="30" s:pid="C"/>
    <g s:x="0" s:y="10" s:pid="D"/>
  </g>
  <g s:type="inputExt" transform="translate(82,1342.5)" s:width="30" s:height="20" id="cell_a">
    <text x="15" y="-4" class="nodelabel cell_a" s:attribute="ref">a</text>
    <s:alias val="$_inputExt_"/>
    <path d="M0,0 L0,20 L15,20 L30,10 L15,0 Z" class="cell_a"/>
    <g s:x="28" s:y="10" s:pid="Y"/>
  </g>
  <g s:type="inputExt" transform="translate(82,1630)" s:width="30" s:height="20" id="cell_b">
    <text x="15" y="-4" class="nodelabel cell_b" s:attribute="ref">b</text>
    <s:alias val="$_inputExt_"/>
    <path d="M0,0 L0,20 L15,20 L30,10 L15,0 Z" class="cell_b"/>
    <g s:x="28" s:y="10" s:pid="Y"/>
  </g>
  <g s:type="inputExt" transform="translate(192,1257.5)" s:width="30" s:height="20" id="cell_sel">
    <text x="15" y="-4" class="nodelabel cell_sel" s:attribute="ref">sel</text>
    <s:alias val="$_inputExt_"/>
    <path d="M0,0 L0,20 L15,20 L30,10 L15,0 Z" class="cell_sel"/>
    <g s:x="28" s:y="10" s:pid="Y"/>
  </g>
  <g s:type="inputExt" transform="translate(12,490.5)" s:width="30" s:height="20" id="cell_sel4">
    <text x="15" y="-4" class="nodelabel cell_sel4" s:attribute="ref">sel4</text>
    <s:alias val="$_inputExt_"/>
    <path d="M0,0 L0,20 L15,20 L30,10 L15,0 Z" class="cell_sel4"/>
    <g s:x="28" s:y="10" s:pid="Y"/>
  </g>
  <g s:type="inputExt" transform="translate(82,440.5)" s:width="30" s:height="20" id="cell_av">
    <text x="15" y="-4" class="nodelabel cell_av" s:attribute="ref">av</text>
    <s:alias val="$_inputExt_"/>
    <path d="M0,0 L0,20 L15,20 L30,10 L15,0 Z" class="cell_av"/>
    <g s:x="28" s:y="10" s:pid="Y"/>
  </g>
  <g s:type="inputExt" transform="translate(82,625.5)" s:width="30" s:height="20" id="cell_bv">
    <text x="15" y="-4" class="nodelabel cell_bv" s:attribute="ref">bv</text>
    <s:alias val="$_inputExt_"/>
    <path d="M0,0 L0,20 L15,20 L30,10 L15,0 Z" class="cell_bv"/>
    <g s:x="28" s:y="10" s:pid="Y"/>
  </g>
  <g s:type="inputExt" transform="translate(192,1151.5)" s:width="30" s:height="20" id="cell_clk">
    <text x="15" y="-4" class="nodelabel cell_clk" s:attribute="ref">clk</text>
    <s:alias val="$_inputExt_"/>
    <path d="M0,0 L0,20 L15,20 L30,10 L15,0 Z" class="cell_clk"/>
    <g s:x="28" s:y="10" s:pid="Y"/>
  </g>
  <g s:type="inputExt" transform="translate(82,966.5)" s:width="30" s:height="20" id="cell_rst">
    <text x="15" y="-4" class="nodelabel cell_rst" s:attribute="ref">rst</text>
    <s:alias val="$_inputExt_"/>
    <path d="M0,0 L0,20 L15,20 L30,10 L15,0 Z" class="cell_rst"/>
    <g s:x="28" s:y="10" s:pid="Y"/>
  </g>
  <g s:type="inputExt" transform="translate(82,809)" s:width="30" s:height="20" id="cell_en">
    <text x="15" y="-4" class="nodelabel cell_en" s:attribute="ref">en</text>
    <s:alias val="$_inputExt_"/>
    <path d="M0,0 L0,20 L15,20 L30,10 L15,0 Z" class="cell_en"/>
    <g s:x="28" s:y="10" s:pid="Y"/>
  </g>
  <g s:type="outputExt" transform="translate(342,1622.5)" s:width="30" s:height="20" id="cell_o_and">
    <text x="15" y="-4" class="nodelabel cell_o_and" s:attribute="ref">o_and</text>
    <s:alias val="$_outputExt_"/>
    <path d="M30,0 L30,20 L15,20 L0,10 L15,0 Z" class="cell_o_and"/>
    <g s:x="0" s:y="10" s:pid="A"/>
  </g>
  <g s:type="outputExt" transform="translate(342,1415)" s:width="30" s:height="20" id="cell_o_or">
    <text x="15" y="-4" class="nodelabel cell_o_or" s:attribute="ref">o_or</text>
    <s:alias val="$_outputExt_"/>
    <path d="M30,0 L30,20 L15,20 L0,10 L15,0 Z" class="cell_o_or"/>
    <g s:x="0" s:y="10" s:pid="A"/>
  </g>
  <g s:type="outputExt" transform="translate(342,1752.5)" s:width="30" s:height="20" id="cell_o_not">
    <text x="15" y="-4" class="nodelabel cell_o_not" s:attribute="ref">o_not</text>
    <s:alias val="$_outputExt_"/>
    <path d="M30,0 L30,20 L15,20 L0,10 L15,0 Z" class="cell_o_not"/>
    <g s:x="0" s:y="10" s:pid="A"/>
  </g>
  <g s:type="outputExt" transform="translate(342,1285)" s:width="30" s:height="20" id="cell_o_xor">
    <text x="15" y="-4" class="nodelabel cell_o_xor" s:attribute="ref">o_xor</text>
    <s:alias val="$_outputExt_"/>
    <path d="M30,0 L30,20 L15,20 L0,10 L15,0 Z" class="cell_o_xor"/>
    <g s:x="0" s:y="10" s:pid="A"/>
  </g>
  <g s:type="outputExt" transform="translate(342,1687.5)" s:width="30" s:height="20" id="cell_o_nand">
    <text x="15" y="-4" class="nodelabel cell_o_nand" s:attribute="ref">o_nand</text>
    <s:alias val="$_outputExt_"/>
    <path d="M30,0 L30,20 L15,20 L0,10 L15,0 Z" class="cell_o_nand"/>
    <g s:x="0" s:y="10" s:pid="A"/>
  </g>
  <g s:type="outputExt" transform="translate(342,1350)" s:width="30" s:height="20" id="cell_o_nor">
    <text x="15" y="-4" class="nodelabel cell_o_nor" s:attribute="ref">o_nor</text>
    <s:alias val="$_outputExt_"/>
    <path d="M30,0 L30,20 L15,20 L0,10 L15,0 Z" class="cell_o_nor"/>
    <g s:x="0" s:y="10" s:pid="A"/>
  </g>
  <g s:type="outputExt" transform="translate(342,1557.5)" s:width="30" s:height="20" id="cell_o_xnor">
    <text x="15" y="-4" class="nodelabel cell_o_xnor" s:attribute="ref">o_xnor</text>
    <s:alias val="$_outputExt_"/>
    <path d="M30,0 L30,20 L15,20 L0,10 L15,0 Z" class="cell_o_xnor"/>
    <g s:x="0" s:y="10" s:pid="A"/>
  </g>
  <g s:type="outputExt" transform="translate(342,288)" s:width="30" s:height="20" id="cell_o_reduce_or">
    <text x="15" y="-4" class="nodelabel cell_o_reduce_or" s:attribute="ref">o_reduce_or</text>
    <s:alias val="$_outputExt_"/>
    <path d="M30,0 L30,20 L15,20 L0,10 L15,0 Z" class="cell_o_reduce_or"/>
    <g s:x="0" s:y="10" s:pid="A"/>
  </g>
  <g s:type="outputExt" transform="translate(342,220)" s:width="30" s:height="20" id="cell_o_reduce_and">
    <text x="15" y="-4" class="nodelabel cell_o_reduce_and" s:attribute="ref">o_reduce_and</text>
    <s:alias val="$_outputExt_"/>
    <path d="M30,0 L30,20 L15,20 L0,10 L15,0 Z" class="cell_o_reduce_and"/>
    <g s:x="0" s:y="10" s:pid="A"/>
  </g>
  <g s:type="outputExt" transform="translate(342,87)" s:width="30" s:height="20" id="cell_o_reduce_xor">
    <text x="15" y="-4" class="nodelabel cell_o_reduce_xor" s:attribute="ref">o_reduce_xor</text>
    <s:alias val="$_outputExt_"/>
    <path d="M30,0 L30,20 L15,20 L0,10 L15,0 Z" class="cell_o_reduce_xor"/>
    <g s:x="0" s:y="10" s:pid="A"/>
  </g>
  <g s:type="outputExt" transform="translate(342,1216.5)" s:width="30" s:height="20" id="cell_o_mux2">
    <text x="15" y="-4" class="nodelabel cell_o_mux2" s:attribute="ref">o_mux2</text>
    <s:alias val="$_outputExt_"/>
    <path d="M30,0 L30,20 L15,20 L0,10 L15,0 Z" class="cell_o_mux2"/>
    <g s:x="0" s:y="10" s:pid="A"/>
  </g>
  <g s:type="outputExt" transform="translate(342,355.5)" s:width="30" s:height="20" id="cell_o_mux4">
    <text x="15" y="-4" class="nodelabel cell_o_mux4" s:attribute="ref">o_mux4</text>
    <s:alias val="$_outputExt_"/>
    <path d="M30,0 L30,20 L15,20 L0,10 L15,0 Z" class="cell_o_mux4"/>
    <g s:x="0" s:y="10" s:pid="A"/>
  </g>
  <g s:type="outputExt" transform="translate(342,22)" s:width="30" s:height="20" id="cell_o_add">
    <text x="15" y="-4" class="nodelabel cell_o_add" s:attribute="ref">o_add</text>
    <s:alias val="$_outputExt_"/>
    <path d="M30,0 L30,20 L15,20 L0,10 L15,0 Z" class="cell_o_add"/>
    <g s:x="0" s:y="10" s:pid="A"/>
  </g>
  <g s:type="outputExt" transform="translate(342,152)" s:width="30" s:height="20" id="cell_o_sub">
    <text x="15" y="-4" class="nodelabel cell_o_sub" s:attribute="ref">o_sub</text>
    <s:alias val="$_outputExt_"/>
    <path d="M30,0 L30,20 L15,20 L0,10 L15,0 Z" class="cell_o_sub"/>
    <g s:x="0" s:y="10" s:pid="A"/>
  </g>
  <g s:type="outputExt" transform="translate(342,738)" s:width="30" s:height="20" id="cell_o_eq">
    <text x="15" y="-4" class="nodelabel cell_o_eq" s:attribute="ref">o_eq</text>
    <s:alias val="$_outputExt_"/>
    <path d="M30,0 L30,20 L15,20 L0,10 L15,0 Z" class="cell_o_eq"/>
    <g s:x="0" s:y="10" s:pid="A"/>
  </g>
  <g s:type="outputExt" transform="translate(342,672)" s:width="30" s:height="20" id="cell_o_lt">
    <text x="15" y="-4" class="nodelabel cell_o_lt" s:attribute="ref">o_lt</text>
    <s:alias val="$_outputExt_"/>
    <path d="M30,0 L30,20 L15,20 L0,10 L15,0 Z" class="cell_o_lt"/>
    <g s:x="0" s:y="10" s:pid="A"/>
  </g>
  <g s:type="outputExt" transform="translate(342,597.5)" s:width="30" s:height="20" id="cell_o_shl">
    <text x="15" y="-4" class="nodelabel cell_o_shl" s:attribute="ref">o_shl</text>
    <s:alias val="$_outputExt_"/>
    <path d="M30,0 L30,20 L15,20 L0,10 L15,0 Z" class="cell_o_shl"/>
    <g s:x="0" s:y="10" s:pid="A"/>
  </g>
  <g s:type="outputExt" transform="translate(342,520.5)" s:width="30" s:height="20" id="cell_o_shr">
    <text x="15" y="-4" class="nodelabel cell_o_shr" s:attribute="ref">o_shr</text>
    <s:alias val="$_outputExt_"/>
    <path d="M30,0 L30,20 L15,20 L0,10 L15,0 Z" class="cell_o_shr"/>
    <g s:x="0" s:y="10" s:pid="A"/>
  </g>
  <g s:type="outputExt" transform="translate(342,1480)" s:width="30" s:height="20" id="cell_o_dff">
    <text x="15" y="-4" class="nodelabel cell_o_dff" s:attribute="ref">o_dff</text>
    <s:alias val="$_outputExt_"/>
    <path d="M30,0 L30,20 L15,20 L0,10 L15,0 Z" class="cell_o_dff"/>
    <g s:x="0" s:y="10" s:pid="A"/>
  </g>
  <g s:type="outputExt" transform="translate(342,861.5)" s:width="30" s:height="20" id="cell_o_dffe">
    <text x="15" y="-4" class="nodelabel cell_o_dffe" s:attribute="ref">o_dffe</text>
    <s:alias val="$_outputExt_"/>
    <path d="M30,0 L30,20 L15,20 L0,10 L15,0 Z" class="cell_o_dffe"/>
    <g s:x="0" s:y="10" s:pid="A"/>
  </g>
  <g s:type="outputExt" transform="translate(342,936.5)" s:width="30" s:height="20" id="cell_o_dffr">
    <text x="15" y="-4" class="nodelabel cell_o_dffr" s:attribute="ref">o_dffr</text>
    <s:alias val="$_outputExt_"/>
    <path d="M30,0 L30,20 L15,20 L0,10 L15,0 Z" class="cell_o_dffr"/>
    <g s:x="0" s:y="10" s:pid="A"/>
  </g>
  <g s:type="outputExt" transform="translate(342,1131.5)" s:width="30" s:height="20" id="cell_o_counter">
    <text x="15" y="-4" class="nodelabel cell_o_counter" s:attribute="ref">o_counter</text>
    <s:alias val="$_outputExt_"/>
    <path d="M30,0 L30,20 L15,20 L0,10 L15,0 Z" class="cell_o_counter"/>
    <g s:x="0" s:y="10" s:pid="A"/>
  </g>
  <g s:type="constant" transform="translate(12,682)" s:width="30" s:height="20" id="cell_1">
    <text x="15" y="-4" class="nodelabel cell_1" s:attribute="ref">1</text>
    <s:alias val="$_constant_"/>
    <rect width="30" height="20" class="cell_1"/>
    <g s:x="30" s:y="10" s:pid="Y"/>
  </g>
  <g s:type="constant" transform="translate(12,565.5)" s:width="30" s:height="20" id="cell_10">
    <text x="15" y="-4" class="nodelabel cell_10" s:attribute="ref">10</text>
    <s:alias val="$_constant_"/>
    <rect width="30" height="20" class="cell_10"/>
    <g s:x="30" s:y="10" s:pid="Y"/>
  </g>
  <g s:type="constant" transform="translate(82,728)" s:width="30" s:height="20" id="cell_0">
    <text x="15" y="-4" class="nodelabel cell_0" s:attribute="ref">0</text>
    <s:alias val="$_constant_"/>
    <rect width="30" height="20" class="cell_0"/>
    <g s:x="30" s:y="10" s:pid="Y"/>
  </g>
  <g s:type="constant" transform="translate(82,1031.5)" s:width="30" s:height="20" id="cell_0000">
    <text x="15" y="-4" class="nodelabel cell_0000" s:attribute="ref">0x0</text>
    <s:alias val="$_constant_"/>
    <rect width="30" height="20" class="cell_0000"/>
    <g s:x="30" s:y="10" s:pid="Y"/>
  </g>
  <g s:type="join" transform="translate(202,375)" s:width="4" s:height="40" id="cell_$join$,47,48,49,">
    <rect width="5" height="60" class="splitjoinBody" s:generic="body"/>
    <s:alias val="$_join_"/>
    <g s:x="5" s:y="20" s:pid="out"/>
    <g transform="translate(0,10)" s:x="0" s:y="10" s:pid="in0">
      <text x="-3" y="-4" class="inputPortLabel">0</text>
    </g>
    <g transform="translate(0,30)" s:x="0" s:y="10" s:pid="in0">
      <text x="-3" y="-4" class="inputPortLabel">1</text>
    </g>
    <g transform="translate(0,50)" s:x="0" s:y="10" s:pid="in0">
      <text x="-3" y="-4" class="inputPortLabel">2</text>
    </g>
  </g>
  <g s:type="join" transform="translate(282,587)" s:width="4" s:height="40" id="cell_$join$,65,7,8,9,">
    <rect width="5" height="40" class="splitjoinBody" s:generic="body"/>
    <s:alias val="$_join_"/>
    <g s:x="5" s:y="20" s:pid="out"/>
    <g transform="translate(0,10)" s:x="0" s:y="10" s:pid="in0">
      <text x="-3" y="-4" class="inputPortLabel">0</text>
    </g>
    <g transform="translate(0,30)" s:x="0" s:y="10" s:pid="in0">
      <text x="-3" y="-4" class="inputPortLabel">1:3</text>
    </g>
  </g>
  <g s:type="join" transform="translate(282,510)" s:width="4" s:height="40" id="cell_$join$,8,9,10,65,">
    <rect width="5" height="40" class="splitjoinBody" s:generic="body"/>
    <s:alias val="$_join_"/>
    <g s:x="5" s:y="20" s:pid="out"/>
    <g transform="translate(0,10)" s:x="0" s:y="10" s:pid="in0">
      <text x="-3" y="-4" class="inputPortLabel">0:2</text>
    </g>
    <g transform="translate(0,30)" s:x="0" s:y="10" s:pid="in0">
      <text x="-3" y="-4" class="inputPortLabel">3</text>
    </g>
  </g>
  <g s:type="split" transform="translate(207.25,470)" s:width="5" s:height="40" id="cell_$split$,7,8,9,10,">
    <rect width="5" height="60" class="splitjoinBody" s:generic="body"/>
    <s:alias val="$_split_"/>
    <g s:x="0" s:y="20" s:pid="in"/>
    <g transform="translate(4,10)" s:x="4" s:y="10" s:pid="out0">
      <text x="5" y="-4">3</text>
    </g>
    <g transform="translate(4,30)" s:x="4" s:y="10" s:pid="out0">
      <text x="5" y="-4">0:2</text>
    </g>
    <g transform="translate(4,50)" s:x="4" s:y="10" s:pid="out0">
      <text x="5" y="-4">1:3</text>
    </g>
  </g>
  <line x1="110" x2="162" y1="1352.5" y2="1352.5" class="net_2"/>
  <line x1="162" x2="162" y1="1352.5" y2="1625" class="net_2"/>
  <circle cx="162" cy="1352.5" r="2" style="fill:#000" class="net_2"/>
  <circle cx="162" cy="1625" r="2" style="fill:#000" class="net_2"/>
  <line x1="162" x2="192" y1="1625" y2="1625" class="net_2"/>
  <line x1="110" x2="195" y1="1352.5" y2="1352.5" class="net_2"/>
  <line x1="110" x2="162" y1="1352.5" y2="1352.5" class="net_2"/>
  <line x1="162" x2="162" y1="1352.5" y2="1762.5" class="net_2"/>
  <line x1="162" x2="269.5" y1="1762.5" y2="1762.5" class="net_2"/>
  <line x1="110" x2="162" y1="1352.5" y2="1352.5" class="net_2"/>
  <line x1="162" x2="162" y1="1352.5" y2="1287.5" class="net_2"/>
  <circle cx="162" cy="1287.5" r="2" style="fill:#000" class="net_2"/>
  <line x1="162" x2="275.3333333333333" y1="1287.5" y2="1287.5" class="net_2"/>
  <line x1="110" x2="162" y1="1352.5" y2="1352.5" class="net_2"/>
  <line x1="162" x2="162" y1="1352.5" y2="1490" class="net_2"/>
  <line x1="162" x2="232" y1="1490" y2="1490" class="net_2"/>
  <line x1="232" x2="232" y1="1490" y2="1560" class="net_2"/>
  <circle cx="162" cy="1490" r="2" style="fill:#000" class="net_2"/>
  <circle cx="232" cy="1490" r="2" style="fill:#000" class="net_2"/>
  <line x1="232" x2="272" y1="1560" y2="1560" class="net_2"/>
  <line x1="110" x2="162" y1="1352.5" y2="1352.5" class="net_2"/>
  <line x1="162" x2="162" y1="1352.5" y2="1236.5" class="net_2"/>
  <circle cx="162" cy="1236.5" r="2" style="fill:#000" class="net_2"/>
  <line x1="162" x2="276.6666666666667" y1="1236.5" y2="1236.5" class="net_2"/>
  <line x1="110" x2="162" y1="1352.5" y2="1352.5" class="net_2"/>
  <line x1="162" x2="162" y1="1352.5" y2="936.5" class="net_2"/>
  <circle cx="162" cy="936.5" r="2" style="fill:#000" class="net_2"/>
  <line x1="162" x2="197.66666666666666" y1="936.5" y2="936.5" class="net_2"/>
  <line x1="110" x2="162" y1="1352.5" y2="1352.5" class="net_2"/>
  <line x1="162" x2="162" y1="1352.5" y2="1490" class="net_2"/>
  <line x1="162" x2="273.3333333333333" y1="1490" y2="1490" class="net_2"/>
  <line x1="110" x2="162" y1="1352.5" y2="1352.5" class="net_2"/>
  <line x1="162" x2="162" y1="1352.5" y2="799" class="net_2"/>
  <line x1="162" x2="196.33333333333334" y1="799" y2="799" class="net_2"/>
  <line x1="110" x2="192" y1="1640" y2="1640" class="net_3"/>
  <line x1="110" x2="172" y1="1640" y2="1640" class="net_3"/>
  <line x1="172" x2="172" y1="1640" y2="1367.5" class="net_3"/>
  <circle cx="172" cy="1640" r="2" style="fill:#000" class="net_3"/>
  <circle cx="172" cy="1367.5" r="2" style="fill:#000" class="net_3"/>
  <line x1="172" x2="195" y1="1367.5" y2="1367.5" class="net_3"/>
  <line x1="110" x2="172" y1="1640" y2="1640" class="net_3"/>
  <line x1="172" x2="172" y1="1640" y2="1302.5" class="net_3"/>
  <circle cx="172" cy="1302.5" r="2" style="fill:#000" class="net_3"/>
  <line x1="172" x2="275.3333333333333" y1="1302.5" y2="1302.5" class="net_3"/>
  <line x1="110" x2="172" y1="1640" y2="1640" class="net_3"/>
  <line x1="172" x2="172" y1="1640" y2="1575" class="net_3"/>
  <circle cx="172" cy="1575" r="2" style="fill:#000" class="net_3"/>
  <line x1="172" x2="272" y1="1575" y2="1575" class="net_3"/>
  <line x1="110" x2="172" y1="1640" y2="1640" class="net_3"/>
  <line x1="172" x2="172" y1="1640" y2="1216.5" class="net_3"/>
  <line x1="172" x2="276.6666666666667" y1="1216.5" y2="1216.5" class="net_3"/>
  <line x1="222" x2="232" y1="1632.5" y2="1632.5" class="net_18"/>
  <line x1="232" x2="232" y1="1632.5" y2="1697.5" class="net_18"/>
  <circle cx="232" cy="1632.5" r="2" style="fill:#000" class="net_18"/>
  <line x1="232" x2="269.5" y1="1697.5" y2="1697.5" class="net_18"/>
  <line x1="222" x2="342" y1="1632.5" y2="1632.5" class="net_18"/>
  <line x1="222" x2="269.5" y1="1360" y2="1360" class="net_19"/>
  <line x1="222" x2="252" y1="1360" y2="1360" class="net_19"/>
  <line x1="252" x2="252" y1="1360" y2="1425" class="net_19"/>
  <circle cx="252" cy="1360" r="2" style="fill:#000" class="net_19"/>
  <line x1="252" x2="342" y1="1425" y2="1425" class="net_19"/>
  <line x1="110" x2="152" y1="450.5" y2="450.5" class="net_7,8,9,10"/>
  <line x1="152" x2="152" y1="450.5" y2="230" class="net_7,8,9,10"/>
  <line x1="152" x2="232" y1="230" y2="230" class="net_7,8,9,10"/>
  <line x1="232" x2="232" y1="230" y2="298" class="net_7,8,9,10"/>
  <circle cx="152" cy="450.5" r="2" style="fill:#000" class="net_7,8,9,10"/>
  <circle cx="152" cy="230" r="2" style="fill:#000" class="net_7,8,9,10"/>
  <circle cx="232" cy="230" r="2" style="fill:#000" class="net_7,8,9,10"/>
  <line x1="232" x2="269" y1="298" y2="298" class="net_7,8,9,10"/>
  <line x1="110" x2="152" y1="450.5" y2="450.5" class="net_7,8,9,10"/>
  <line x1="152" x2="152" y1="450.5" y2="230" class="net_7,8,9,10"/>
  <line x1="152" x2="269" y1="230" y2="230" class="net_7,8,9,10"/>
  <line x1="110" x2="152" y1="450.5" y2="450.5" class="net_7,8,9,10"/>
  <line x1="152" x2="152" y1="450.5" y2="89.5" class="net_7,8,9,10"/>
  <circle cx="152" cy="89.5" r="2" style="fill:#000" class="net_7,8,9,10"/>
  <line x1="152" x2="271" y1="89.5" y2="89.5" class="net_7,8,9,10"/>
  <line x1="110" x2="152" y1="450.5" y2="450.5" class="net_7,8,9,10"/>
  <line x1="152" x2="152" y1="450.5" y2="24.5" class="net_7,8,9,10"/>
  <line x1="152" x2="278" y1="24.5" y2="24.5" class="net_7,8,9,10"/>
  <line x1="110" x2="152" y1="450.5" y2="450.5" class="net_7,8,9,10"/>
  <line x1="152" x2="152" y1="450.5" y2="89.5" class="net_7,8,9,10"/>
  <line x1="152" x2="232" y1="89.5" y2="89.5" class="net_7,8,9,10"/>
  <line x1="232" x2="232" y1="89.5" y2="154.5" class="net_7,8,9,10"/>
  <circle cx="232" cy="89.5" r="2" style="fill:#000" class="net_7,8,9,10"/>
  <line x1="232" x2="278" y1="154.5" y2="154.5" class="net_7,8,9,10"/>
  <line x1="110" x2="152" y1="450.5" y2="450.5" class="net_7,8,9,10"/>
  <line x1="152" x2="152" y1="450.5" y2="844" class="net_7,8,9,10"/>
  <line x1="152" x2="199" y1="844" y2="844" class="net_7,8,9,10"/>
  <line x1="110" x2="152" y1="450.5" y2="450.5" class="net_7,8,9,10"/>
  <line x1="152" x2="152" y1="450.5" y2="708" class="net_7,8,9,10"/>
  <circle cx="152" cy="708" r="2" style="fill:#000" class="net_7,8,9,10"/>
  <line x1="152" x2="199" y1="708" y2="708" class="net_7,8,9,10"/>
  <line x1="110" x2="152" y1="450.5" y2="450.5" class="net_7,8,9,10"/>
  <line x1="152" x2="152" y1="450.5" y2="490.5" class="net_7,8,9,10"/>
  <circle cx="152" cy="490.5" r="2" style="fill:#000" class="net_7,8,9,10"/>
  <line x1="152" x2="207.25" y1="490.5" y2="490.5" class="net_7,8,9,10"/>
  <line x1="220" x2="286.6666666666667" y1="1267.5" y2="1267.5" class="net_4"/>
  <line x1="286.6666666666667" x2="286.6666666666667" y1="1267.5" y2="1241.5" class="net_4"/>
  <line x1="40" x2="72" y1="500.5" y2="500.5" class="net_5,6"/>
  <line x1="72" x2="72" y1="500.5" y2="385.5" class="net_5,6"/>
  <circle cx="72" cy="500.5" r="2" style="fill:#000" class="net_5,6"/>
  <line x1="72" x2="82" y1="385.5" y2="385.5" class="net_5,6"/>
  <line x1="40" x2="86.66666666666667" y1="500.5" y2="500.5" class="net_5,6"/>
  <line x1="40" x2="72" y1="500.5" y2="500.5" class="net_5,6"/>
  <line x1="72" x2="72" y1="500.5" y2="560.5" class="net_5,6"/>
  <line x1="72" x2="86.66666666666667" y1="560.5" y2="560.5" class="net_5,6"/>
  <line x1="42" x2="62" y1="692" y2="692" class="net_62"/>
  <line x1="62" x2="62" y1="692" y2="515.5" class="net_62"/>
  <circle cx="62" cy="692" r="2" style="fill:#000" class="net_62"/>
  <line x1="62" x2="86.66666666666667" y1="515.5" y2="515.5" class="net_62"/>
  <line x1="42" x2="62" y1="692" y2="692" class="net_62"/>
  <line x1="62" x2="62" y1="692" y2="758" class="net_62"/>
  <circle cx="62" cy="758" r="2" style="fill:#000" class="net_62"/>
  <line x1="62" x2="276.6666666666667" y1="758" y2="758" class="net_62"/>
  <line x1="42" x2="276.6666666666667" y1="692" y2="692" class="net_62"/>
  <line x1="42" x2="62" y1="692" y2="692" class="net_62"/>
  <line x1="62" x2="62" y1="692" y2="1106.5" class="net_62"/>
  <line x1="62" x2="88.33333333333333" y1="1106.5" y2="1106.5" class="net_62"/>
  <line x1="42" x2="86.66666666666667" y1="575.5" y2="575.5" class="net_63,64"/>
  <line x1="212.25" x2="232" y1="480.5" y2="480.5" class="net_10"/>
  <line x1="232" x2="232" y1="480.5" y2="355.5" class="net_10"/>
  <line x1="232" x2="276.6666666666667" y1="355.5" y2="355.5" class="net_10"/>
  <line x1="212.25" x2="242" y1="500.5" y2="500.5" class="net_7,8,9"/>
  <line x1="242" x2="242" y1="500.5" y2="375.5" class="net_7,8,9"/>
  <circle cx="242" cy="500.5" r="2" style="fill:#000" class="net_7,8,9"/>
  <line x1="242" x2="276.6666666666667" y1="375.5" y2="375.5" class="net_7,8,9"/>
  <line x1="212.25" x2="242" y1="500.5" y2="500.5" class="net_7,8,9"/>
  <line x1="242" x2="242" y1="500.5" y2="617.5" class="net_7,8,9"/>
  <line x1="242" x2="282" y1="617.5" y2="617.5" class="net_7,8,9"/>
  <line x1="208" x2="286.6666666666667" y1="395.5" y2="395.5" class="net_47,48,49"/>
  <line x1="286.6666666666667" x2="286.6666666666667" y1="395.5" y2="380.5" class="net_47,48,49"/>
  <line x1="110" x2="132" y1="635.5" y2="635.5" class="net_11,12,13,14"/>
  <line x1="132" x2="132" y1="635.5" y2="39.5" class="net_11,12,13,14"/>
  <circle cx="132" cy="635.5" r="2" style="fill:#000" class="net_11,12,13,14"/>
  <line x1="132" x2="278" y1="39.5" y2="39.5" class="net_11,12,13,14"/>
  <line x1="110" x2="132" y1="635.5" y2="635.5" class="net_11,12,13,14"/>
  <line x1="132" x2="132" y1="635.5" y2="169.5" class="net_11,12,13,14"/>
  <circle cx="132" cy="169.5" r="2" style="fill:#000" class="net_11,12,13,14"/>
  <line x1="132" x2="278" y1="169.5" y2="169.5" class="net_11,12,13,14"/>
  <line x1="110" x2="132" y1="635.5" y2="635.5" class="net_11,12,13,14"/>
  <line x1="132" x2="132" y1="635.5" y2="859" class="net_11,12,13,14"/>
  <line x1="132" x2="199" y1="859" y2="859" class="net_11,12,13,14"/>
  <line x1="110" x2="132" y1="635.5" y2="635.5" class="net_11,12,13,14"/>
  <line x1="132" x2="132" y1="635.5" y2="723" class="net_11,12,13,14"/>
  <circle cx="132" cy="723" r="2" style="fill:#000" class="net_11,12,13,14"/>
  <line x1="132" x2="199" y1="723" y2="723" class="net_11,12,13,14"/>
  <line x1="112" x2="276.6666666666667" y1="738" y2="738" class="net_65"/>
  <line x1="112" x2="142" y1="738" y2="738" class="net_65"/>
  <line x1="142" x2="142" y1="738" y2="597.5" class="net_65"/>
  <line x1="142" x2="232" y1="597.5" y2="597.5" class="net_65"/>
  <line x1="232" x2="232" y1="597.5" y2="672" class="net_65"/>
  <circle cx="142" cy="738" r="2" style="fill:#000" class="net_65"/>
  <line x1="232" x2="276.6666666666667" y1="672" y2="672" class="net_65"/>
  <line x1="112" x2="142" y1="738" y2="738" class="net_65"/>
  <line x1="142" x2="142" y1="738" y2="956.5" class="net_65"/>
  <line x1="142" x2="197.66666666666666" y1="956.5" y2="956.5" class="net_65"/>
  <line x1="112" x2="142" y1="738" y2="738" class="net_65"/>
  <line x1="142" x2="142" y1="738" y2="597.5" class="net_65"/>
  <line x1="142" x2="282" y1="597.5" y2="597.5" class="net_65"/>
  <line x1="112" x2="142" y1="738" y2="738" class="net_65"/>
  <line x1="142" x2="142" y1="738" y2="597.5" class="net_65"/>
  <line x1="142" x2="232" y1="597.5" y2="597.5" class="net_65"/>
  <line x1="232" x2="232" y1="597.5" y2="540.5" class="net_65"/>
  <circle cx="232" cy="597.5" r="2" style="fill:#000" class="net_65"/>
  <line x1="232" x2="282" y1="540.5" y2="540.5" class="net_65"/>
  <line x1="221" x2="286.6666666666667" y1="851.5" y2="851.5" class="net_50"/>
  <line x1="286.6666666666667" x2="286.6666666666667" y1="851.5" y2="763" class="net_50"/>
  <line x1="221" x2="286.6666666666667" y1="715.5" y2="715.5" class="net_51"/>
  <line x1="286.6666666666667" x2="286.6666666666667" y1="715.5" y2="697" class="net_51"/>
  <line x1="110" x2="207.66666666666666" y1="976.5" y2="976.5" class="net_16"/>
  <line x1="207.66666666666666" x2="207.66666666666666" y1="976.5" y2="961.5" class="net_16"/>
  <line x1="110" x2="182" y1="976.5" y2="976.5" class="net_16"/>
  <line x1="182" x2="182" y1="976.5" y2="1061.5" class="net_16"/>
  <line x1="182" x2="207.66666666666666" y1="1061.5" y2="1061.5" class="net_16"/>
  <circle cx="182" cy="976.5" r="2" style="fill:#000" class="net_16"/>
  <line x1="207.66666666666666" x2="207.66666666666666" y1="1061.5" y2="1046.5" class="net_16"/>
  <line x1="305.25" x2="317" y1="1141.5" y2="1141.5" class="net_43,44,45,46"/>
  <line x1="317" x2="317" y1="1141.5" y2="1121.5" class="net_43,44,45,46"/>
  <line x1="317" x2="52" y1="1121.5" y2="1121.5" class="net_43,44,45,46"/>
  <line x1="52" x2="52" y1="1121.5" y2="1091.5" class="net_43,44,45,46"/>
  <circle cx="317" cy="1141.5" r="2" style="fill:#000" class="net_43,44,45,46"/>
  <line x1="52" x2="88.33333333333333" y1="1091.5" y2="1091.5" class="net_43,44,45,46"/>
  <line x1="305.25" x2="342" y1="1141.5" y2="1141.5" class="net_43,44,45,46"/>
  <line x1="110.33333333333333" x2="172" y1="1099" y2="1099" class="net_53,54,55,56"/>
  <line x1="172" x2="172" y1="1099" y2="1021.5" class="net_53,54,55,56"/>
  <line x1="172" x2="197.66666666666666" y1="1021.5" y2="1021.5" class="net_53,54,55,56"/>
  <line x1="112" x2="197.66666666666666" y1="1041.5" y2="1041.5" class="net_71,72,73,74"/>
  <line x1="220" x2="242" y1="1161.5" y2="1161.5" class="net_15"/>
  <line x1="242" x2="242" y1="1161.5" y2="1510" class="net_15"/>
  <circle cx="242" cy="1161.5" r="2" style="fill:#000" class="net_15"/>
  <line x1="242" x2="273.3333333333333" y1="1510" y2="1510" class="net_15"/>
  <line x1="220" x2="242" y1="1161.5" y2="1161.5" class="net_15"/>
  <line x1="242" x2="242" y1="1161.5" y2="891.5" class="net_15"/>
  <line x1="242" x2="275.25" y1="891.5" y2="891.5" class="net_15"/>
  <line x1="220" x2="242" y1="1161.5" y2="1161.5" class="net_15"/>
  <line x1="242" x2="242" y1="1161.5" y2="966.5" class="net_15"/>
  <circle cx="242" cy="966.5" r="2" style="fill:#000" class="net_15"/>
  <line x1="242" x2="273.3333333333333" y1="966.5" y2="966.5" class="net_15"/>
  <line x1="220" x2="275.25" y1="1161.5" y2="1161.5" class="net_15"/>
  <line x1="305.25" x2="317" y1="871.5" y2="871.5" class="net_41"/>
  <line x1="317" x2="317" y1="871.5" y2="829" class="net_41"/>
  <line x1="317" x2="182" y1="829" y2="829" class="net_41"/>
  <line x1="182" x2="182" y1="829" y2="779" class="net_41"/>
  <circle cx="317" cy="871.5" r="2" style="fill:#000" class="net_41"/>
  <line x1="182" x2="196.33333333333334" y1="779" y2="779" class="net_41"/>
  <line x1="305.25" x2="342" y1="871.5" y2="871.5" class="net_41"/>
  <line x1="110" x2="206.33333333333334" y1="819" y2="819" class="net_17"/>
  <line x1="206.33333333333334" x2="206.33333333333334" y1="819" y2="804" class="net_17"/>
  <line x1="216.33333333333334" x2="232" y1="789" y2="789" class="net_61"/>
  <line x1="232" x2="232" y1="789" y2="871.5" class="net_61"/>
  <line x1="232" x2="275.25" y1="871.5" y2="871.5" class="net_61"/>
  <line x1="217.66666666666666" x2="273.3333333333333" y1="946.5" y2="946.5" class="net_52"/>
  <line x1="217.66666666666666" x2="252" y1="1031.5" y2="1031.5" class="net_57,58,59,60"/>
  <line x1="252" x2="252" y1="1031.5" y2="1141.5" class="net_57,58,59,60"/>
  <line x1="252" x2="275.25" y1="1141.5" y2="1141.5" class="net_57,58,59,60"/>
  <line x1="294.5" x2="342" y1="1762.5" y2="1762.5" class="net_20"/>
  <line x1="305.3333333333333" x2="342" y1="1295" y2="1295" class="net_21"/>
  <line x1="294.5" x2="342" y1="1697.5" y2="1697.5" class="net_22"/>
  <line x1="294.5" x2="342" y1="1360" y2="1360" class="net_23"/>
  <line x1="307" x2="342" y1="1567.5" y2="1567.5" class="net_24"/>
  <line x1="300" x2="342" y1="298" y2="298" class="net_25"/>
  <line x1="300" x2="342" y1="230" y2="230" class="net_26"/>
  <line x1="301" x2="342" y1="97" y2="97" class="net_27"/>
  <line x1="296.6666666666667" x2="342" y1="1226.5" y2="1226.5" class="net_28"/>
  <line x1="296.6666666666667" x2="342" y1="365.5" y2="365.5" class="net_29"/>
  <line x1="300" x2="342" y1="32" y2="32" class="net_30,31,32,33"/>
  <line x1="300" x2="342" y1="162" y2="162" class="net_34,35,36,37"/>
  <line x1="296.6666666666667" x2="342" y1="748" y2="748" class="net_38"/>
  <line x1="296.6666666666667" x2="342" y1="682" y2="682" class="net_39"/>
  <line x1="288" x2="342" y1="607.5" y2="607.5" class="net_65,7,8,9"/>
  <line x1="288" x2="342" y1="530.5" y2="530.5" class="net_8,9,10,65"/>
  <line x1="303.3333333333333" x2="342" y1="1490" y2="1490" class="net_40"/>
  <line x1="303.3333333333333" x2="342" y1="946.5" y2="946.5" class="net_42"/>
  <line x1="107" x2="202" y1="385.5" y2="385.5" class="net_47"/>
  <line x1="108.66666666666667" x2="122" y1="508" y2="508" class="net_48"/>
  <line x1="122" x2="122" y1="508" y2="405.5" class="net_48"/>
  <line x1="122" x2="202" y1="405.5" y2="405.5" class="net_48"/>
  <line x1="108.66666666666667" x2="162" y1="568" y2="568" class="net_49"/>
  <line x1="162" x2="162" y1="568" y2="425.5" class="net_49"/>
  <line x1="162" x2="202" y1="425.5" y2="425.5" class="net_49"/>
  <line x1="212.25" x2="282" y1="520.5" y2="520.5" class="net_8,9,10"/>
</svg>
