<svg xmlns="http://www.w3.org/2000/svg" xmlns:xlink="http://www.w3.org/1999/xlink" xmlns:s="https://github.com/nturley/netlistsvg" width="903" height="1103"><style>svg {
  stroke:#000;
  fill:none;
}
text {
  fill:#000;
  stroke:none;
  font-size:10px;
  font-weight: bold;
  font-family: "Courier New", monospace;
}
.nodelabel {
  text-anchor: middle;
}
.inputPortLabel {
  text-anchor: end;
}
.splitjoinBody {
  fill:#000;
}</style><g s:type="not" transform="translate(665,22)" s:width="30" s:height="20" id="cell_:19"><s:alias val="$_NOT_"/><s:alias val="$not"/><s:alias val="$logic_not"/><path d="M0,0 L0,20 L20,10 Z" class="cell_:19"/><circle cx="23" cy="10" r="3" class="cell_:19"/><text x="8" y="12" class="nodelabel" style="font-size:6px">NOT</text><g s:x="0" s:y="10" s:pid="A"/><g s:x="25" s:y="10" s:pid="Y"/></g><g s:type="generic" transform="translate(743,124.5)" s:width="30" s:height="40" id="cell_:20"><text x="15" y="-4" class="nodelabel cell_:20" s:attribute="ref">$mux-bus</text><rect width="30" height="60" s:generic="body" class="cell_:20"/><g transform="translate(0,10)" s:x="0" s:y="10" s:pid="in0" id="port_:20~A"><text x="-3" y="-4" class="inputPortLabel cell_:20">A</text></g><g transform="translate(0,30)" s:x="0" s:y="10" s:pid="in0" id="port_:20~B"><text x="-3" y="-4" class="inputPortLabel cell_:20">B</text></g><g transform="translate(0,50)" s:x="0" s:y="10" s:pid="in0" id="port_:20~S"><text x="-3" y="-4" class="inputPortLabel cell_:20">S</text></g><g transform="translate(30,10)" s:x="30" s:y="10" s:pid="out0" id="port_:20~Y"><text x="5" y="-4" style="fill:#000; stroke:none" class="cell_:20">Y</text></g></g><g s:type="not" transform="translate(665,1058)" s:width="30" s:height="20" id="cell_:28"><s:alias val="$_NOT_"/><s:alias val="$not"/><s:alias val="$logic_not"/><path d="M0,0 L0,20 L20,10 Z" class="cell_:28"/><circle cx="23" cy="10" r="3" class="cell_:28"/><text x="8" y="12" class="nodelabel" style="font-size:6px">NOT</text><g s:x="0" s:y="10" s:pid="A"/><g s:x="25" s:y="10" s:pid="Y"/></g><g s:type="generic" transform="translate(743,232.5)" s:width="30" s:height="40" id="cell_:29"><text x="15" y="-4" class="nodelabel cell_:29" s:attribute="ref">$mux-bus</text><rect width="30" height="60" s:generic="body" class="cell_:29"/><g transform="translate(0,10)" s:x="0" s:y="10" s:pid="in0" id="port_:29~A"><text x="-3" y="-4" class="inputPortLabel cell_:29">A</text></g><g transform="translate(0,30)" s:x="0" s:y="10" s:pid="in0" id="port_:29~B"><text x="-3" y="-4" class="inputPortLabel cell_:29">B</text></g><g transform="translate(0,50)" s:x="0" s:y="10" s:pid="in0" id="port_:29~S"><text x="-3" y="-4" class="inputPortLabel cell_:29">S</text></g><g transform="translate(30,10)" s:x="30" s:y="10" s:pid="out0" id="port_:29~Y"><text x="5" y="-4" style="fill:#000; stroke:none" class="cell_:29">Y</text></g></g><g s:type="or" transform="translate(119,77)" s:width="30" s:height="25" id="cell_:7"><s:alias val="$or"/><s:alias val="$reduce_or"/><s:alias val="$reduce_bool"/><s:alias val="$logic_or"/><s:alias val="$_OR_"/><path d="M0,25 L0,25 L15,25 A15 12.5 0 0 0 15,0 L0,0" class="cell_:7"/><path d="M0,0 A30 25 0 0 1 0,25" class="cell_:7"/><text x="17" y="15" class="nodelabel" style="font-size:7px">OR</text><g s:x="3" s:y="5" s:pid="A"/><g s:x="3" s:y="20" s:pid="B"/><g s:x="30" s:y="12.5" s:pid="Y"/></g><g s:type="and" transform="translate(192,322.5)" s:width="30" s:height="25" id="cell_:8"><s:alias val="$and"/><s:alias val="$reduce_and"/><s:alias val="$logic_and"/><s:alias val="$_AND_"/><path d="M0,0 L0,25 L15,25 A15 12.5 0 0 0 15,0 Z" class="cell_:8"/><text x="13" y="15" class="nodelabel" style="font-size:7px">AND</text><g s:x="0" s:y="5" s:pid="A"/><g s:x="0" s:y="20" s:pid="B"/><g s:x="30" s:y="12.5" s:pid="Y"/></g><g s:type="generic" transform="translate(446,134.5)" s:width="30" s:height="40" id="cell_regs"><text x="15" y="-4" class="nodelabel cell_regs" s:attribute="ref">$mem_v2-bus</text><rect width="30" height="180" s:generic="body" class="cell_regs"/><g transform="translate(0,10)" s:x="0" s:y="10" s:pid="in0" id="port_regs~RD_ADDR"><text x="-3" y="-4" class="inputPortLabel cell_regs">RD_ADDR</text></g><g transform="translate(0,30)" s:x="0" s:y="10" s:pid="in0" id="port_regs~RD_ARST"><text x="-3" y="-4" class="inputPortLabel cell_regs">RD_ARST</text></g><g transform="translate(0,50)" s:x="0" s:y="10" s:pid="in0" id="port_regs~RD_CLK"><text x="-3" y="-4" class="inputPortLabel cell_regs">RD_CLK</text></g><g transform="translate(0,70)" s:x="0" s:y="10" s:pid="in0" id="port_regs~RD_EN"><text x="-3" y="-4" class="inputPortLabel cell_regs">RD_EN</text></g><g transform="translate(0,90)" s:x="0" s:y="10" s:pid="in0" id="port_regs~RD_SRST"><text x="-3" y="-4" class="inputPortLabel cell_regs">RD_SRST</text></g><g transform="translate(0,110)" s:x="0" s:y="10" s:pid="in0" id="port_regs~WR_ADDR"><text x="-3" y="-4" class="inputPortLabel cell_regs">WR_ADDR</text></g><g transform="translate(0,130)" s:x="0" s:y="10" s:pid="in0" id="port_regs~WR_CLK"><text x="-3" y="-4" class="inputPortLabel cell_regs">WR_CLK</text></g><g transform="translate(0,150)" s:x="0" s:y="10" s:pid="in0" id="port_regs~WR_DATA"><text x="-3" y="-4" class="inputPortLabel cell_regs">WR_DATA</text></g><g transform="translate(0,170)" s:x="0" s:y="10" s:pid="in0" id="port_regs~WR_EN"><text x="-3" y="-4" class="inputPortLabel cell_regs">WR_EN</text></g><g transform="translate(30,10)" s:x="30" s:y="10" s:pid="out0" id="port_regs~RD_DATA"><text x="5" y="-4" style="fill:#000; stroke:none" class="cell_regs">RD_DATA</text></g></g><g s:type="inputExt" transform="translate(322,256)" s:width="30" s:height="20" id="cell_clk"><text x="15" y="-4" class="nodelabel cell_clk" s:attribute="ref">clk</text><s:alias val="$_inputExt_"/><path d="M0,0 L0,20 L15,20 L30,10 L15,0 Z" class="cell_clk"/><g s:x="28" s:y="10" s:pid="Y"/></g><g s:type="inputExt" transform="translate(116,147)" s:width="30" s:height="20" id="cell_we"><text x="15" y="-4" class="nodelabel cell_we" s:attribute="ref">we</text><s:alias val="$_inputExt_"/><path d="M0,0 L0,20 L15,20 L30,10 L15,0 Z" class="cell_we"/><g s:x="28" s:y="10" s:pid="Y"/></g><g s:type="inputExt" transform="translate(12,72)" s:width="30" s:height="20" id="cell_waddr"><text x="15" y="-4" class="nodelabel cell_waddr" s:attribute="ref">waddr</text><s:alias val="$_inputExt_"/><path d="M0,0 L0,20 L15,20 L30,10 L15,0 Z" class="cell_waddr"/><g s:x="28" s:y="10" s:pid="Y"/></g><g s:type="inputExt" transform="translate(257,305)" s:width="30" s:height="20" id="cell_wdata"><text x="15" y="-4" class="nodelabel cell_wdata" s:attribute="ref">wdata</text><s:alias val="$_inputExt_"/><path d="M0,0 L0,20 L15,20 L30,10 L15,0 Z" class="cell_wdata"/><g s:x="28" s:y="10" s:pid="Y"/></g><g s:type="inputExt" transform="translate(116,22)" s:width="30" s:height="20" id="cell_raddr1"><text x="15" y="-4" class="nodelabel cell_raddr1" s:attribute="ref">raddr1</text><s:alias val="$_inputExt_"/><path d="M0,0 L0,20 L15,20 L30,10 L15,0 Z" class="cell_raddr1"/><g s:x="28" s:y="10" s:pid="Y"/></g><g s:type="inputExt" transform="translate(116,212)" s:width="30" s:height="20" id="cell_raddr2"><text x="15" y="-4" class="nodelabel cell_raddr2" s:attribute="ref">raddr2</text><s:alias val="$_inputExt_"/><path d="M0,0 L0,20 L15,20 L30,10 L15,0 Z" class="cell_raddr2"/><g s:x="28" s:y="10" s:pid="Y"/></g><g s:type="outputExt" transform="translate(855,125)" s:width="30" s:height="20" id="cell_rdata1"><text x="15" y="-4" class="nodelabel cell_rdata1" s:attribute="ref">rdata1</text><s:alias val="$_outputExt_"/><path d="M30,0 L30,20 L15,20 L0,10 L15,0 Z" class="cell_rdata1"/><g s:x="0" s:y="10" s:pid="A"/></g><g s:type="outputExt" transform="translate(855,233)" s:width="30" s:height="20" id="cell_rdata2"><text x="15" y="-4" class="nodelabel cell_rdata2" s:attribute="ref">rdata2</text><s:alias val="$_outputExt_"/><path d="M30,0 L30,20 L15,20 L0,10 L15,0 Z" class="cell_rdata2"/><g s:x="0" s:y="10" s:pid="A"/></g><g s:type="constant" transform="translate(594,209.5)" s:width="30" s:height="20" id="cell_00000000000000000000000000000000"><text x="15" y="-4" class="nodelabel cell_00000000000000000000000000000000" s:attribute="ref">0x0</text><s:alias val="$_constant_"/><rect width="30" height="20" class="cell_00000000000000000000000000000000"/><g s:x="30" s:y="10" s:pid="Y"/></g><g s:type="constant" transform="translate(257,130)" s:width="30" s:height="20" id="cell_00"><text x="15" y="-4" class="nodelabel cell_00" s:attribute="ref">00</text><s:alias val="$_constant_"/><rect width="30" height="20" class="cell_00"/><g s:x="30" s:y="10" s:pid="Y"/></g><g s:type="constant" transform="translate(257,195)" s:width="30" s:height="20" id="cell_11"><text x="15" y="-4" class="nodelabel cell_11" s:attribute="ref">11</text><s:alias val="$_constant_"/><rect width="30" height="20" class="cell_11"/><g s:x="30" s:y="10" s:pid="Y"/></g><g s:type="join" transform="translate(276,45)" s:width="4" s:height="40" id="cell_$join$,46,47,48,49,50,41,42,43,44,45,"><rect width="5" height="40" class="splitjoinBody" s:generic="body"/><s:alias val="$_join_"/><g s:x="5" s:y="20" s:pid="out"/><g transform="translate(0,10)" s:x="0" s:y="10" s:pid="in0"><text x="-3" y="-4" class="inputPortLabel">0:4</text></g><g transform="translate(0,30)" s:x="0" s:y="10" s:pid="in0"><text x="-3" y="-4" class="inputPortLabel">5:9</text></g></g><g s:type="join" transform="translate(275.52,377)" s:width="4" s:height="40" id="cell_$join$,182,182,182,182,182,182,182,182,182,182,182,182,182,182,182,182,182,182,182,182,182,182,182,182,182,182,182,182,182,182,182,182,"><rect width="5" height="640" class="splitjoinBody" s:generic="body"/><s:alias val="$_join_"/><g s:x="5" s:y="20" s:pid="out"/><g transform="translate(0,10)" s:x="0" s:y="10" s:pid="in0"><text x="-3" y="-4" class="inputPortLabel">0</text></g><g transform="translate(0,30)" s:x="0" s:y="10" s:pid="in0"><text x="-3" y="-4" class="inputPortLabel">1</text></g><g transform="translate(0,50)" s:x="0" s:y="10" s:pid="in0"><text x="-3" y="-4" class="inputPortLabel">2</text></g><g transform="translate(0,70)" s:x="0" s:y="10" s:pid="in0"><text x="-3" y="-4" class="inputPortLabel">3</text></g><g transform="translate(0,90)" s:x="0" s:y="10" s:pid="in0"><text x="-3" y="-4" class="inputPortLabel">4</text></g><g transform="translate(0,110)" s:x="0" s:y="10" s:pid="in0"><text x="-3" y="-4" class="inputPortLabel">5</text></g><g transform="translate(0,130)" s:x="0" s:y="10" s:pid="in0"><text x="-3" y="-4" class="inputPortLabel">6</text></g><g transform="translate(0,150)" s:x="0" s:y="10" s:pid="in0"><text x="-3" y="-4" class="inputPortLabel">7</text></g><g transform="translate(0,170)" s:x="0" s:y="10" s:pid="in0"><text x="-3" y="-4" class="inputPortLabel">8</text></g><g transform="translate(0,190)" s:x="0" s:y="10" s:pid="in0"><text x="-3" y="-4" class="inputPortLabel">9</text></g><g transform="translate(0,210)" s:x="0" s:y="10" s:pid="in0"><text x="-3" y="-4" class="inputPortLabel">10</text></g><g transform="translate(0,230)" s:x="0" s:y="10" s:pid="in0"><text x="-3" y="-4" class="inputPortLabel">11</text></g><g transform="translate(0,250)" s:x="0" s:y="10" s:pid="in0"><text x="-3" y="-4" class="inputPortLabel">12</text></g><g transform="translate(0,270)" s:x="0" s:y="10" s:pid="in0"><text x="-3" y="-4" class="inputPortLabel">13</text></g><g transform="translate(0,290)" s:x="0" s:y="10" s:pid="in0"><text x="-3" y="-4" class="inputPortLabel">14</text></g><g transform="translate(0,310)" s:x="0" s:y="10" s:pid="in0"><text x="-3" y="-4" class="inputPortLabel">15</text></g><g transform="translate(0,330)" s:x="0" s:y="10" s:pid="in0"><text x="-3" y="-4" class="inputPortLabel">16</text></g><g transform="translate(0,350)" s:x="0" s:y="10" s:pid="in0"><text x="-3" y="-4" class="inputPortLabel">17</text></g><g transform="translate(0,370)" s:x="0" s:y="10" s:pid="in0"><text x="-3" y="-4" class="inputPortLabel">18</text></g><g transform="translate(0,390)" s:x="0" s:y="10" s:pid="in0"><text x="-3" y="-4" class="inputPortLabel">19</text></g><g transform="translate(0,410)" s:x="0" s:y="10" s:pid="in0"><text x="-3" y="-4" class="inputPortLabel">20</text></g><g transform="translate(0,430)" s:x="0" s:y="10" s:pid="in0"><text x="-3" y="-4" class="inputPortLabel">21</text></g><g transform="translate(0,450)" s:x="0" s:y="10" s:pid="in0"><text x="-3" y="-4" class="inputPortLabel">22</text></g><g transform="translate(0,470)" s:x="0" s:y="10" s:pid="in0"><text x="-3" y="-4" class="inputPortLabel">23</text></g><g transform="translate(0,490)" s:x="0" s:y="10" s:pid="in0"><text x="-3" y="-4" class="inputPortLabel">24</text></g><g transform="translate(0,510)" s:x="0" s:y="10" s:pid="in0"><text x="-3" y="-4" class="inputPortLabel">25</text></g><g transform="translate(0,530)" s:x="0" s:y="10" s:pid="in0"><text x="-3" y="-4" class="inputPortLabel">26</text></g><g transform="translate(0,550)" s:x="0" s:y="10" s:pid="in0"><text x="-3" y="-4" class="inputPortLabel">27</text></g><g transform="translate(0,570)" s:x="0" s:y="10" s:pid="in0"><text x="-3" y="-4" class="inputPortLabel">28</text></g><g transform="translate(0,590)" s:x="0" s:y="10" s:pid="in0"><text x="-3" y="-4" class="inputPortLabel">29</text></g><g transform="translate(0,610)" s:x="0" s:y="10" s:pid="in0"><text x="-3" y="-4" class="inputPortLabel">30</text></g><g transform="translate(0,630)" s:x="0" s:y="10" s:pid="in0"><text x="-3" y="-4" class="inputPortLabel">31</text></g></g><g s:type="split" transform="translate(594,124.5)" s:width="5" s:height="40" id="cell_$split$,149,150,151,152,153,154,155,156,157,158,159,160,161,162,163,164,165,166,167,168,169,170,171,172,173,174,175,176,177,178,179,180,116,117,118,119,120,121,122,123,124,125,126,127,128,129,130,131,132,133,134,135,136,137,138,139,140,141,142,143,144,145,146,147,"><rect width="5" height="40" class="splitjoinBody" s:generic="body"/><s:alias val="$_split_"/><g s:x="0" s:y="20" s:pid="in"/><g transform="translate(4,10)" s:x="4" s:y="10" s:pid="out0"><text x="5" y="-4">32:63</text></g><g transform="translate(4,30)" s:x="4" s:y="10" s:pid="out0"><text x="5" y="-4">0:31</text></g></g><line x1="144" x2="665" y1="32" y2="32" class="net_41,42,43,44,45 width_5" style="stroke-width: 2"/><line x1="144" x2="162" y1="32" y2="32" class="net_41,42,43,44,45 width_5" style="stroke-width: 2"/><line x1="162" x2="162" y1="32" y2="75.5" class="net_41,42,43,44,45 width_5" style="stroke-width: 2"/><circle cx="162" cy="32" r="3" style="fill:#000" class="net_41,42,43,44,45 width_5"/><line x1="162" x2="276" y1="75.5" y2="75.5" class="net_41,42,43,44,45 width_5" style="stroke-width: 2"/><line x1="599" x2="743" y1="135" y2="135" class="net_116,117,118,119,120,121,122,123,124,125,126,127,128,129,130,131,132,133,134,135,136,137,138,139,140,141,142,143,144,145,146,147 width_32" style="stroke-width: 2"/><line x1="624" x2="715" y1="219.5" y2="219.5" class="net_183,184,185,186,187,188,189,190,191,192,193,194,195,196,197,198,199,200,201,202,203,204,205,206,207,208,209,210,211,212,213,214 width_32" style="stroke-width: 2"/><line x1="715" x2="715" y1="219.5" y2="155" class="net_183,184,185,186,187,188,189,190,191,192,193,194,195,196,197,198,199,200,201,202,203,204,205,206,207,208,209,210,211,212,213,214 width_32" style="stroke-width: 2"/><line x1="715" x2="742" y1="155" y2="155" class="net_183,184,185,186,187,188,189,190,191,192,193,194,195,196,197,198,199,200,201,202,203,204,205,206,207,208,209,210,211,212,213,214 width_32" style="stroke-width: 2"/><line x1="624" x2="640" y1="219.5" y2="219.5" class="net_183,184,185,186,187,188,189,190,191,192,193,194,195,196,197,198,199,200,201,202,203,204,205,206,207,208,209,210,211,212,213,214 width_32" style="stroke-width: 2"/><line x1="640" x2="640" y1="219.5" y2="263" class="net_183,184,185,186,187,188,189,190,191,192,193,194,195,196,197,198,199,200,201,202,203,204,205,206,207,208,209,210,211,212,213,214 width_32" style="stroke-width: 2"/><circle cx="640" cy="219.5" r="3" style="fill:#000" class="net_183,184,185,186,187,188,189,190,191,192,193,194,195,196,197,198,199,200,201,202,203,204,205,206,207,208,209,210,211,212,213,214 width_32"/><line x1="640" x2="742" y1="263" y2="263" class="net_183,184,185,186,187,188,189,190,191,192,193,194,195,196,197,198,199,200,201,202,203,204,205,206,207,208,209,210,211,212,213,214 width_32" style="stroke-width: 2"/><line x1="690" x2="725" y1="32" y2="32" class="net_115 width_1" style="stroke-width: 1"/><line x1="725" x2="725" y1="32" y2="175" class="net_115 width_1" style="stroke-width: 1"/><line x1="725" x2="742" y1="175" y2="175" class="net_115 width_1" style="stroke-width: 1"/><line x1="144" x2="162" y1="222" y2="222" class="net_46,47,48,49,50 width_5" style="stroke-width: 2"/><line x1="162" x2="162" y1="222" y2="1068" class="net_46,47,48,49,50 width_5" style="stroke-width: 2"/><circle cx="162" cy="222" r="3" style="fill:#000" class="net_46,47,48,49,50 width_5"/><line x1="162" x2="665" y1="1068" y2="1068" class="net_46,47,48,49,50 width_5" style="stroke-width: 2"/><line x1="144" x2="232" y1="222" y2="222" class="net_46,47,48,49,50 width_5" style="stroke-width: 2"/><line x1="232" x2="232" y1="222" y2="55.5" class="net_46,47,48,49,50 width_5" style="stroke-width: 2"/><line x1="232" x2="276" y1="55.5" y2="55.5" class="net_46,47,48,49,50 width_5" style="stroke-width: 2"/><line x1="599" x2="705" y1="155" y2="155" class="net_149,150,151,152,153,154,155,156,157,158,159,160,161,162,163,164,165,166,167,168,169,170,171,172,173,174,175,176,177,178,179,180 width_32" style="stroke-width: 2"/><line x1="705" x2="705" y1="155" y2="243" class="net_149,150,151,152,153,154,155,156,157,158,159,160,161,162,163,164,165,166,167,168,169,170,171,172,173,174,175,176,177,178,179,180 width_32" style="stroke-width: 2"/><line x1="705" x2="743" y1="243" y2="243" class="net_149,150,151,152,153,154,155,156,157,158,159,160,161,162,163,164,165,166,167,168,169,170,171,172,173,174,175,176,177,178,179,180 width_32" style="stroke-width: 2"/><line x1="690" x2="705" y1="1068" y2="1068" class="net_148 width_1" style="stroke-width: 1"/><line x1="705" x2="705" y1="1068" y2="283" class="net_148 width_1" style="stroke-width: 1"/><line x1="705" x2="742" y1="283" y2="283" class="net_148 width_1" style="stroke-width: 1"/><line x1="40" x2="122" y1="82" y2="82" class="net_4,5,6,7,8 width_5" style="stroke-width: 2"/><line x1="40" x2="52" y1="82" y2="82" class="net_4,5,6,7,8 width_5" style="stroke-width: 2"/><line x1="52" x2="52" y1="82" y2="1085" class="net_4,5,6,7,8 width_5" style="stroke-width: 2"/><line x1="52" x2="372" y1="1085" y2="1085" class="net_4,5,6,7,8 width_5" style="stroke-width: 2"/><line x1="372" x2="372" y1="1085" y2="245" class="net_4,5,6,7,8 width_5" style="stroke-width: 2"/><circle cx="52" cy="82" r="3" style="fill:#000" class="net_4,5,6,7,8 width_5"/><line x1="372" x2="445" y1="245" y2="245" class="net_4,5,6,7,8 width_5" style="stroke-width: 2"/><line x1="149" x2="182" y1="89.5" y2="89.5" class="net_181 width_1" style="stroke-width: 1"/><line x1="182" x2="182" y1="89.5" y2="327.5" class="net_181 width_1" style="stroke-width: 1"/><line x1="182" x2="192" y1="327.5" y2="327.5" class="net_181 width_1" style="stroke-width: 1"/><line x1="144" x2="172" y1="157" y2="157" class="net_3 width_1" style="stroke-width: 1"/><line x1="172" x2="172" y1="157" y2="342.5" class="net_3 width_1" style="stroke-width: 1"/><line x1="172" x2="192" y1="342.5" y2="342.5" class="net_3 width_1" style="stroke-width: 1"/><line x1="282" x2="392" y1="65.5" y2="65.5" class="net_46,47,48,49,50,41,42,43,44,45 width_10" style="stroke-width: 2"/><line x1="392" x2="392" y1="65.5" y2="145" class="net_46,47,48,49,50,41,42,43,44,45 width_10" style="stroke-width: 2"/><line x1="392" x2="446" y1="145" y2="145" class="net_46,47,48,49,50,41,42,43,44,45 width_10" style="stroke-width: 2"/><line x1="287" x2="382" y1="140" y2="140" class="net_247,248 width_2" style="stroke-width: 2"/><line x1="382" x2="382" y1="140" y2="165" class="net_247,248 width_2" style="stroke-width: 2"/><line x1="382" x2="445" y1="165" y2="165" class="net_247,248 width_2" style="stroke-width: 2"/><line x1="287" x2="297" y1="140" y2="140" class="net_247,248 width_2" style="stroke-width: 2"/><line x1="297" x2="297" y1="140" y2="160" class="net_247,248 width_2" style="stroke-width: 2"/><line x1="297" x2="372" y1="160" y2="160" class="net_247,248 width_2" style="stroke-width: 2"/><line x1="372" x2="372" y1="160" y2="185" class="net_247,248 width_2" style="stroke-width: 2"/><circle cx="297" cy="140" r="3" style="fill:#000" class="net_247,248 width_2"/><circle cx="297" cy="160" r="3" style="fill:#000" class="net_247,248 width_2"/><line x1="372" x2="445" y1="185" y2="185" class="net_247,248 width_2" style="stroke-width: 2"/><line x1="287" x2="297" y1="140" y2="140" class="net_247,248 width_2" style="stroke-width: 2"/><line x1="297" x2="297" y1="140" y2="180" class="net_247,248 width_2" style="stroke-width: 2"/><line x1="297" x2="362" y1="180" y2="180" class="net_247,248 width_2" style="stroke-width: 2"/><line x1="362" x2="362" y1="180" y2="225" class="net_247,248 width_2" style="stroke-width: 2"/><line x1="362" x2="445" y1="225" y2="225" class="net_247,248 width_2" style="stroke-width: 2"/><line x1="287" x2="445" y1="205" y2="205" class="net_251,252 width_2" style="stroke-width: 2"/><line x1="350" x2="382" y1="266" y2="266" class="net_2 width_1" style="stroke-width: 1"/><line x1="382" x2="382" y1="266" y2="265" class="net_2 width_1" style="stroke-width: 1"/><line x1="382" x2="445" y1="265" y2="265" class="net_2 width_1" style="stroke-width: 1"/><line x1="285" x2="362" y1="315" y2="315" class="net_9,10,11,12,13,14,15,16,17,18,19,20,21,22,23,24,25,26,27,28,29,30,31,32,33,34,35,36,37,38,39,40 width_32" style="stroke-width: 2"/><line x1="362" x2="362" y1="315" y2="285" class="net_9,10,11,12,13,14,15,16,17,18,19,20,21,22,23,24,25,26,27,28,29,30,31,32,33,34,35,36,37,38,39,40 width_32" style="stroke-width: 2"/><line x1="362" x2="445" y1="285" y2="285" class="net_9,10,11,12,13,14,15,16,17,18,19,20,21,22,23,24,25,26,27,28,29,30,31,32,33,34,35,36,37,38,39,40 width_32" style="stroke-width: 2"/><line x1="281.52" x2="382" y1="697.5" y2="697.5" class="net_182,182,182,182,182,182,182,182,182,182,182,182,182,182,182,182,182,182,182,182,182,182,182,182,182,182,182,182,182,182,182,182 width_32" style="stroke-width: 2"/><line x1="382" x2="382" y1="697.5" y2="305" class="net_182,182,182,182,182,182,182,182,182,182,182,182,182,182,182,182,182,182,182,182,182,182,182,182,182,182,182,182,182,182,182,182 width_32" style="stroke-width: 2"/><line x1="382" x2="445" y1="305" y2="305" class="net_182,182,182,182,182,182,182,182,182,182,182,182,182,182,182,182,182,182,182,182,182,182,182,182,182,182,182,182,182,182,182,182 width_32" style="stroke-width: 2"/><line x1="774" x2="855" y1="135" y2="135" class="net_51,52,53,54,55,56,57,58,59,60,61,62,63,64,65,66,67,68,69,70,71,72,73,74,75,76,77,78,79,80,81,82 width_32" style="stroke-width: 2"/><line x1="774" x2="855" y1="243" y2="243" class="net_83,84,85,86,87,88,89,90,91,92,93,94,95,96,97,98,99,100,101,102,103,104,105,106,107,108,109,110,111,112,113,114 width_32" style="stroke-width: 2"/><line x1="222" x2="232" y1="335" y2="335" class="net_182 width_1" style="stroke-width: 1"/><line x1="232" x2="232" y1="335" y2="365" class="net_182 width_1" style="stroke-width: 1"/><line x1="232" x2="276.02" y1="365" y2="365" class="net_182 width_1" style="stroke-width: 1"/><circle cx="232" cy="335" r="2" style="fill:#000" class="net_182 width_1"/><circle cx="232" cy="365" r="2" style="fill:#000" class="net_182 width_1"/><line x1="276.02" x2="276.02" y1="365" y2="387" class="net_182 width_1" style="stroke-width: 1"/><line x1="222" x2="232" y1="335" y2="335" class="net_182 width_1" style="stroke-width: 1"/><line x1="232" x2="232" y1="335" y2="355" class="net_182 width_1" style="stroke-width: 1"/><line x1="232" x2="276.02" y1="355" y2="355" class="net_182 width_1" style="stroke-width: 1"/><circle cx="232" cy="355" r="2" style="fill:#000" class="net_182 width_1"/><line x1="276.02" x2="276.02" y1="355" y2="407" class="net_182 width_1" style="stroke-width: 1"/><line x1="222" x2="232" y1="335" y2="335" class="net_182 width_1" style="stroke-width: 1"/><line x1="232" x2="232" y1="335" y2="345" class="net_182 width_1" style="stroke-width: 1"/><line x1="232" x2="276.02" y1="345" y2="345" class="net_182 width_1" style="stroke-width: 1"/><circle cx="232" cy="345" r="2" style="fill:#000" class="net_182 width_1"/><line x1="276.02" x2="276.02" y1="345" y2="427" class="net_182 width_1" style="stroke-width: 1"/><line x1="222" x2="276.02" y1="335" y2="335" class="net_182 width_1" style="stroke-width: 1"/><line x1="276.02" x2="276.02" y1="335" y2="447" class="net_182 width_1" style="stroke-width: 1"/><line x1="222" x2="232" y1="335" y2="335" class="net_182 width_1" style="stroke-width: 1"/><line x1="232" x2="232" y1="335" y2="467.5" class="net_182 width_1" style="stroke-width: 1"/><circle cx="232" cy="467.5" r="2" style="fill:#000" class="net_182 width_1"/><line x1="232" x2="275.52" y1="467.5" y2="467.5" class="net_182 width_1" style="stroke-width: 1"/><line x1="222" x2="232" y1="335" y2="335" class="net_182 width_1" style="stroke-width: 1"/><line x1="232" x2="232" y1="335" y2="487.5" class="net_182 width_1" style="stroke-width: 1"/><circle cx="232" cy="487.5" r="2" style="fill:#000" class="net_182 width_1"/><line x1="232" x2="275.52" y1="487.5" y2="487.5" class="net_182 width_1" style="stroke-width: 1"/><line x1="222" x2="232" y1="335" y2="335" class="net_182 width_1" style="stroke-width: 1"/><line x1="232" x2="232" y1="335" y2="507.5" class="net_182 width_1" style="stroke-width: 1"/><circle cx="232" cy="507.5" r="2" style="fill:#000" class="net_182 width_1"/><line x1="232" x2="275.52" y1="507.5" y2="507.5" class="net_182 width_1" style="stroke-width: 1"/><line x1="222" x2="232" y1="335" y2="335" class="net_182 width_1" style="stroke-width: 1"/><line x1="232" x2="232" y1="335" y2="527.5" class="net_182 width_1" style="stroke-width: 1"/><circle cx="232" cy="527.5" r="2" style="fill:#000" class="net_182 width_1"/><line x1="232" x2="275.52" y1="527.5" y2="527.5" class="net_182 width_1" style="stroke-width: 1"/><line x1="222" x2="232" y1="335" y2="335" class="net_182 width_1" style="stroke-width: 1"/><line x1="232" x2="232" y1="335" y2="547.5" class="net_182 width_1" style="stroke-width: 1"/><circle cx="232" cy="547.5" r="2" style="fill:#000" class="net_182 width_1"/><line x1="232" x2="275.52" y1="547.5" y2="547.5" class="net_182 width_1" style="stroke-width: 1"/><line x1="222" x2="232" y1="335" y2="335" class="net_182 width_1" style="stroke-width: 1"/><line x1="232" x2="232" y1="335" y2="567.5" class="net_182 width_1" style="stroke-width: 1"/><circle cx="232" cy="567.5" r="2" style="fill:#000" class="net_182 width_1"/><line x1="232" x2="275.52" y1="567.5" y2="567.5" class="net_182 width_1" style="stroke-width: 1"/><line x1="222" x2="232" y1="335" y2="335" class="net_182 width_1" style="stroke-width: 1"/><line x1="232" x2="232" y1="335" y2="587.5" class="net_182 width_1" style="stroke-width: 1"/><circle cx="232" cy="587.5" r="2" style="fill:#000" class="net_182 width_1"/><line x1="232" x2="275.52" y1="587.5" y2="587.5" class="net_182 width_1" style="stroke-width: 1"/><line x1="222" x2="232" y1="335" y2="335" class="net_182 width_1" style="stroke-width: 1"/><line x1="232" x2="232" y1="335" y2="607.5" class="net_182 width_1" style="stroke-width: 1"/><circle cx="232" cy="607.5" r="2" style="fill:#000" class="net_182 width_1"/><line x1="232" x2="275.52" y1="607.5" y2="607.5" class="net_182 width_1" style="stroke-width: 1"/><line x1="222" x2="232" y1="335" y2="335" class="net_182 width_1" style="stroke-width: 1"/><line x1="232" x2="232" y1="335" y2="627.5" class="net_182 width_1" style="stroke-width: 1"/><circle cx="232" cy="627.5" r="2" style="fill:#000" class="net_182 width_1"/><line x1="232" x2="275.52" y1="627.5" y2="627.5" class="net_182 width_1" style="stroke-width: 1"/><line x1="222" x2="232" y1="335" y2="335" class="net_182 width_1" style="stroke-width: 1"/><line x1="232" x2="232" y1="335" y2="647.5" class="net_182 width_1" style="stroke-width: 1"/><circle cx="232" cy="647.5" r="2" style="fill:#000" class="net_182 width_1"/><line x1="232" x2="275.52" y1="647.5" y2="647.5" class="net_182 width_1" style="stroke-width: 1"/><line x1="222" x2="232" y1="335" y2="335" class="net_182 width_1" style="stroke-width: 1"/><line x1="232" x2="232" y1="335" y2="667.5" class="net_182 width_1" style="stroke-width: 1"/><circle cx="232" cy="667.5" r="2" style="fill:#000" class="net_182 width_1"/><line x1="232" x2="275.52" y1="667.5" y2="667.5" class="net_182 width_1" style="stroke-width: 1"/><line x1="222" x2="232" y1="335" y2="335" class="net_182 width_1" style="stroke-width: 1"/><line x1="232" x2="232" y1="335" y2="687.5" class="net_182 width_1" style="stroke-width: 1"/><circle cx="232" cy="687.5" r="2" style="fill:#000" class="net_182 width_1"/><line x1="232" x2="275.52" y1="687.5" y2="687.5" class="net_182 width_1" style="stroke-width: 1"/><line x1="222" x2="232" y1="335" y2="335" class="net_182 width_1" style="stroke-width: 1"/><line x1="232" x2="232" y1="335" y2="707.5" class="net_182 width_1" style="stroke-width: 1"/><circle cx="232" cy="707.5" r="2" style="fill:#000" class="net_182 width_1"/><line x1="232" x2="275.52" y1="707.5" y2="707.5" class="net_182 width_1" style="stroke-width: 1"/><line x1="222" x2="232" y1="335" y2="335" class="net_182 width_1" style="stroke-width: 1"/><line x1="232" x2="232" y1="335" y2="727.5" class="net_182 width_1" style="stroke-width: 1"/><circle cx="232" cy="727.5" r="2" style="fill:#000" class="net_182 width_1"/><line x1="232" x2="275.52" y1="727.5" y2="727.5" class="net_182 width_1" style="stroke-width: 1"/><line x1="222" x2="232" y1="335" y2="335" class="net_182 width_1" style="stroke-width: 1"/><line x1="232" x2="232" y1="335" y2="747.5" class="net_182 width_1" style="stroke-width: 1"/><circle cx="232" cy="747.5" r="2" style="fill:#000" class="net_182 width_1"/><line x1="232" x2="275.52" y1="747.5" y2="747.5" class="net_182 width_1" style="stroke-width: 1"/><line x1="222" x2="232" y1="335" y2="335" class="net_182 width_1" style="stroke-width: 1"/><line x1="232" x2="232" y1="335" y2="767.5" class="net_182 width_1" style="stroke-width: 1"/><circle cx="232" cy="767.5" r="2" style="fill:#000" class="net_182 width_1"/><line x1="232" x2="275.52" y1="767.5" y2="767.5" class="net_182 width_1" style="stroke-width: 1"/><line x1="222" x2="232" y1="335" y2="335" class="net_182 width_1" style="stroke-width: 1"/><line x1="232" x2="232" y1="335" y2="787.5" class="net_182 width_1" style="stroke-width: 1"/><circle cx="232" cy="787.5" r="2" style="fill:#000" class="net_182 width_1"/><line x1="232" x2="275.52" y1="787.5" y2="787.5" class="net_182 width_1" style="stroke-width: 1"/><line x1="222" x2="232" y1="335" y2="335" class="net_182 width_1" style="stroke-width: 1"/><line x1="232" x2="232" y1="335" y2="807.5" class="net_182 width_1" style="stroke-width: 1"/><circle cx="232" cy="807.5" r="2" style="fill:#000" class="net_182 width_1"/><line x1="232" x2="275.52" y1="807.5" y2="807.5" class="net_182 width_1" style="stroke-width: 1"/><line x1="222" x2="232" y1="335" y2="335" class="net_182 width_1" style="stroke-width: 1"/><line x1="232" x2="232" y1="335" y2="827.5" class="net_182 width_1" style="stroke-width: 1"/><circle cx="232" cy="827.5" r="2" style="fill:#000" class="net_182 width_1"/><line x1="232" x2="275.52" y1="827.5" y2="827.5" class="net_182 width_1" style="stroke-width: 1"/><line x1="222" x2="232" y1="335" y2="335" class="net_182 width_1" style="stroke-width: 1"/><line x1="232" x2="232" y1="335" y2="847.5" class="net_182 width_1" style="stroke-width: 1"/><circle cx="232" cy="847.5" r="2" style="fill:#000" class="net_182 width_1"/><line x1="232" x2="275.52" y1="847.5" y2="847.5" class="net_182 width_1" style="stroke-width: 1"/><line x1="222" x2="232" y1="335" y2="335" class="net_182 width_1" style="stroke-width: 1"/><line x1="232" x2="232" y1="335" y2="867.5" class="net_182 width_1" style="stroke-width: 1"/><circle cx="232" cy="867.5" r="2" style="fill:#000" class="net_182 width_1"/><line x1="232" x2="275.52" y1="867.5" y2="867.5" class="net_182 width_1" style="stroke-width: 1"/><line x1="222" x2="232" y1="335" y2="335" class="net_182 width_1" style="stroke-width: 1"/><line x1="232" x2="232" y1="335" y2="887.5" class="net_182 width_1" style="stroke-width: 1"/><circle cx="232" cy="887.5" r="2" style="fill:#000" class="net_182 width_1"/><line x1="232" x2="275.52" y1="887.5" y2="887.5" class="net_182 width_1" style="stroke-width: 1"/><line x1="222" x2="232" y1="335" y2="335" class="net_182 width_1" style="stroke-width: 1"/><line x1="232" x2="232" y1="335" y2="907.5" class="net_182 width_1" style="stroke-width: 1"/><circle cx="232" cy="907.5" r="2" style="fill:#000" class="net_182 width_1"/><line x1="232" x2="275.52" y1="907.5" y2="907.5" class="net_182 width_1" style="stroke-width: 1"/><line x1="222" x2="232" y1="335" y2="335" class="net_182 width_1" style="stroke-width: 1"/><line x1="232" x2="232" y1="335" y2="927.5" class="net_182 width_1" style="stroke-width: 1"/><circle cx="232" cy="927.5" r="2" style="fill:#000" class="net_182 width_1"/><line x1="232" x2="275.52" y1="927.5" y2="927.5" class="net_182 width_1" style="stroke-width: 1"/><line x1="222" x2="232" y1="335" y2="335" class="net_182 width_1" style="stroke-width: 1"/><line x1="232" x2="232" y1="335" y2="1057" class="net_182 width_1" style="stroke-width: 1"/><line x1="232" x2="276.02" y1="1057" y2="1057" class="net_182 width_1" style="stroke-width: 1"/><line x1="276.02" x2="276.02" y1="1057" y2="948" class="net_182 width_1" style="stroke-width: 1"/><line x1="222" x2="232" y1="335" y2="335" class="net_182 width_1" style="stroke-width: 1"/><line x1="232" x2="232" y1="335" y2="1047" class="net_182 width_1" style="stroke-width: 1"/><line x1="232" x2="276.02" y1="1047" y2="1047" class="net_182 width_1" style="stroke-width: 1"/><circle cx="232" cy="1047" r="2" style="fill:#000" class="net_182 width_1"/><line x1="276.02" x2="276.02" y1="1047" y2="968" class="net_182 width_1" style="stroke-width: 1"/><line x1="222" x2="232" y1="335" y2="335" class="net_182 width_1" style="stroke-width: 1"/><line x1="232" x2="232" y1="335" y2="1037" class="net_182 width_1" style="stroke-width: 1"/><line x1="232" x2="276.02" y1="1037" y2="1037" class="net_182 width_1" style="stroke-width: 1"/><circle cx="232" cy="1037" r="2" style="fill:#000" class="net_182 width_1"/><line x1="276.02" x2="276.02" y1="1037" y2="988" class="net_182 width_1" style="stroke-width: 1"/><line x1="222" x2="232" y1="335" y2="335" class="net_182 width_1" style="stroke-width: 1"/><line x1="232" x2="232" y1="335" y2="1027" class="net_182 width_1" style="stroke-width: 1"/><line x1="232" x2="276.02" y1="1027" y2="1027" class="net_182 width_1" style="stroke-width: 1"/><circle cx="232" cy="1027" r="2" style="fill:#000" class="net_182 width_1"/><line x1="276.02" x2="276.02" y1="1027" y2="1008" class="net_182 width_1" style="stroke-width: 1"/><line x1="477" x2="594" y1="145" y2="145" class="net_149,150,151,152,153,154,155,156,157,158,159,160,161,162,163,164,165,166,167,168,169,170,171,172,173,174,175,176,177,178,179,180,116,117,118,119,120,121,122,123,124,125,126,127,128,129,130,131,132,133,134,135,136,137,138,139,140,141,142,143,144,145,146,147 width_64" style="stroke-width: 2"/><rect x="206" y="70.5" width="16" height="9" class="net_41,42,43,44,45 width_5 busLabel_5" style="fill: white; stroke: none"/><text x="205" y="78.5" class="net_41,42,43,44,45 width_5 busLabel_5">/5/</text><rect x="206" y="70.5" width="16" height="9" class="net_41,42,43,44,45 width_5 busLabel_5" style="fill: white; stroke: none"/><text x="205" y="78.5" class="net_41,42,43,44,45 width_5 busLabel_5">/5/</text><rect x="679" y="130" width="22" height="9" class="net_116,117,118,119,120,121,122,123,124,125,126,127,128,129,130,131,132,133,134,135,136,137,138,139,140,141,142,143,144,145,146,147 width_32 busLabel_32" style="fill: white; stroke: none"/><text x="678" y="138" class="net_116,117,118,119,120,121,122,123,124,125,126,127,128,129,130,131,132,133,134,135,136,137,138,139,140,141,142,143,144,145,146,147 width_32 busLabel_32">/32/</text><rect x="679" y="258" width="22" height="9" class="net_183,184,185,186,187,188,189,190,191,192,193,194,195,196,197,198,199,200,201,202,203,204,205,206,207,208,209,210,211,212,213,214 width_32 busLabel_32" style="fill: white; stroke: none"/><text x="678" y="266" class="net_183,184,185,186,187,188,189,190,191,192,193,194,195,196,197,198,199,200,201,202,203,204,205,206,207,208,209,210,211,212,213,214 width_32 busLabel_32">/32/</text><rect x="679" y="258" width="22" height="9" class="net_183,184,185,186,187,188,189,190,191,192,193,194,195,196,197,198,199,200,201,202,203,204,205,206,207,208,209,210,211,212,213,214 width_32 busLabel_32" style="fill: white; stroke: none"/><text x="678" y="266" class="net_183,184,185,186,187,188,189,190,191,192,193,194,195,196,197,198,199,200,201,202,203,204,205,206,207,208,209,210,211,212,213,214 width_32 busLabel_32">/32/</text><rect x="206" y="217" width="16" height="9" class="net_46,47,48,49,50 width_5 busLabel_5" style="fill: white; stroke: none"/><text x="205" y="225" class="net_46,47,48,49,50 width_5 busLabel_5">/5/</text><rect x="206" y="217" width="16" height="9" class="net_46,47,48,49,50 width_5 busLabel_5" style="fill: white; stroke: none"/><text x="205" y="225" class="net_46,47,48,49,50 width_5 busLabel_5">/5/</text><rect x="679" y="150" width="22" height="9" class="net_149,150,151,152,153,154,155,156,157,158,159,160,161,162,163,164,165,166,167,168,169,170,171,172,173,174,175,176,177,178,179,180 width_32 busLabel_32" style="fill: white; stroke: none"/><text x="678" y="158" class="net_149,150,151,152,153,154,155,156,157,158,159,160,161,162,163,164,165,166,167,168,169,170,171,172,173,174,175,176,177,178,179,180 width_32 busLabel_32">/32/</text><rect x="206" y="1080" width="16" height="9" class="net_4,5,6,7,8 width_5 busLabel_5" style="fill: white; stroke: none"/><text x="205" y="1088" class="net_4,5,6,7,8 width_5 busLabel_5">/5/</text><rect x="206" y="1080" width="16" height="9" class="net_4,5,6,7,8 width_5 busLabel_5" style="fill: white; stroke: none"/><text x="205" y="1088" class="net_4,5,6,7,8 width_5 busLabel_5">/5/</text><rect x="336" y="60.5" width="22" height="9" class="net_46,47,48,49,50,41,42,43,44,45 width_10 busLabel_10" style="fill: white; stroke: none"/><text x="335" y="68.5" class="net_46,47,48,49,50,41,42,43,44,45 width_10 busLabel_10">/10/</text><rect x="336" y="175" width="16" height="9" class="net_247,248 width_2 busLabel_2" style="fill: white; stroke: none"/><text x="335" y="183" class="net_247,248 width_2 busLabel_2">/2/</text><rect x="336" y="175" width="16" height="9" class="net_247,248 width_2 busLabel_2" style="fill: white; stroke: none"/><text x="335" y="183" class="net_247,248 width_2 busLabel_2">/2/</text><rect x="336" y="175" width="16" height="9" class="net_247,248 width_2 busLabel_2" style="fill: white; stroke: none"/><text x="335" y="183" class="net_247,248 width_2 busLabel_2">/2/</text><rect x="336" y="200" width="16" height="9" class="net_251,252 width_2 busLabel_2" style="fill: white; stroke: none"/><text x="335" y="208" class="net_251,252 width_2 busLabel_2">/2/</text><rect x="336" y="310" width="22" height="9" class="net_9,10,11,12,13,14,15,16,17,18,19,20,21,22,23,24,25,26,27,28,29,30,31,32,33,34,35,36,37,38,39,40 width_32 busLabel_32" style="fill: white; stroke: none"/><text x="335" y="318" class="net_9,10,11,12,13,14,15,16,17,18,19,20,21,22,23,24,25,26,27,28,29,30,31,32,33,34,35,36,37,38,39,40 width_32 busLabel_32">/32/</text><rect x="336" y="692.5" width="22" height="9" class="net_182,182,182,182,182,182,182,182,182,182,182,182,182,182,182,182,182,182,182,182,182,182,182,182,182,182,182,182,182,182,182,182 width_32 busLabel_32" style="fill: white; stroke: none"/><text x="335" y="700.5" class="net_182,182,182,182,182,182,182,182,182,182,182,182,182,182,182,182,182,182,182,182,182,182,182,182,182,182,182,182,182,182,182,182 width_32 busLabel_32">/32/</text><rect x="817" y="130" width="22" height="9" class="net_51,52,53,54,55,56,57,58,59,60,61,62,63,64,65,66,67,68,69,70,71,72,73,74,75,76,77,78,79,80,81,82 width_32 busLabel_32" style="fill: white; stroke: none"/><text x="816" y="138" class="net_51,52,53,54,55,56,57,58,59,60,61,62,63,64,65,66,67,68,69,70,71,72,73,74,75,76,77,78,79,80,81,82 width_32 busLabel_32">/32/</text><rect x="817" y="238" width="22" height="9" class="net_83,84,85,86,87,88,89,90,91,92,93,94,95,96,97,98,99,100,101,102,103,104,105,106,107,108,109,110,111,112,113,114 width_32 busLabel_32" style="fill: white; stroke: none"/><text x="816" y="246" class="net_83,84,85,86,87,88,89,90,91,92,93,94,95,96,97,98,99,100,101,102,103,104,105,106,107,108,109,110,111,112,113,114 width_32 busLabel_32">/32/</text><rect x="556" y="140" width="22" height="9" class="net_149,150,151,152,153,154,155,156,157,158,159,160,161,162,163,164,165,166,167,168,169,170,171,172,173,174,175,176,177,178,179,180,116,117,118,119,120,121,122,123,124,125,126,127,128,129,130,131,132,133,134,135,136,137,138,139,140,141,142,143,144,145,146,147 width_64 busLabel_64" style="fill: white; stroke: none"/><text x="555" y="148" class="net_149,150,151,152,153,154,155,156,157,158,159,160,161,162,163,164,165,166,167,168,169,170,171,172,173,174,175,176,177,178,179,180,116,117,118,119,120,121,122,123,124,125,126,127,128,129,130,131,132,133,134,135,136,137,138,139,140,141,142,143,144,145,146,147 width_64 busLabel_64">/64/</text></svg>