<svg xmlns="http://www.w3.org/2000/svg" xmlns:xlink="http://www.w3.org/1999/xlink" xmlns:s="https://github.com/nturley/netlistsvg" width="527" height="543.5">
  <style>svg {
    stroke:#000;
    fill:none;
  }
  text {
    fill:#000;
    stroke:none;
    font-size:10px;
    font-weight: bold;
    font-family: "Courier New", monospace;
  }
  .nodelabel {
    text-anchor: middle;
  }
  .inputPortLabel {
    text-anchor: end;
  }
  .splitjoinBody {
    fill:#000;
  }</style>
  <g s:type="eq" transform="translate(151.66666666666666,42)" s:width="25" s:height="25" id="cell_:13">
    <s:alias val="$eq"/>
    <circle r="12.5" cx="12.5" cy="12.5" class="cell_:13"/>
    <line x1="7.5" x2="17.5" y1="10" y2="10" class="cell_:13"/>
    <line x1="7.5" x2="17.5" y1="15" y2="15" class="cell_:13"/>
    <g s:x="3" s:y="5" s:pid="A"/>
    <g s:x="3" s:y="20" s:pid="B"/>
    <g s:x="25" s:y="12.5" s:pid="Y"/>
  </g>
  <g s:type="and" transform="translate(221,49.5)" s:width="30" s:height="25" id="cell_:14">
    <s:alias val="$and"/>
    <s:alias val="$reduce_and"/>
    <s:alias val="$logic_and"/>
    <s:alias val="$_AND_"/>
    <path d="M0,0 L0,25 L15,25 A15 12.5 0 0 0 15,0 Z" class="cell_:14"/>
    <text x="13" y="15" class="nodelabel" style="font-size:7px">AND</text>
    <g s:x="0" s:y="5" s:pid="A"/>
    <g s:x="0" s:y="20" s:pid="B"/>
    <g s:x="30" s:y="12.5" s:pid="Y"/>
  </g>
  <g s:type="mux" transform="translate(298.3333333333333,12)" s:width="20" s:height="40" id="cell_:15">
    <s:alias val="$pmux"/>
    <s:alias val="$mux"/>
    <s:alias val="$_MUX_"/>
    <path d="M0,0 L20,10 L20,30 L0,40 Z" class="cell_:15"/>
    <g s:x="0" s:y="10" s:pid="A"/>
    <g s:x="0" s:y="30" s:pid="B"/>
    <g s:x="10" s:y="35" s:pid="S"/>
    <g s:x="20" s:y="20" s:pid="Y"/>
  </g>
  <g s:type="or" transform="translate(222,379)" s:width="30" s:height="25" id="cell_:19">
    <s:alias val="$or"/>
    <s:alias val="$reduce_or"/>
    <s:alias val="$reduce_bool"/>
    <s:alias val="$logic_or"/>
    <s:alias val="$_OR_"/>
    <path d="M0,25 L0,25 L15,25 A15 12.5 0 0 0 15,0 L0,0" class="cell_:19"/>
    <path d="M0,0 A30 25 0 0 1 0,25" class="cell_:19"/>
    <text x="17" y="15" class="nodelabel" style="font-size:7px">OR</text>
    <g s:x="3" s:y="5" s:pid="A"/>
    <g s:x="3" s:y="20" s:pid="B"/>
    <g s:x="30" s:y="12.5" s:pid="Y"/>
  </g>
  <g s:type="and" transform="translate(295,439)" s:width="30" s:height="25" id="cell_:20">
    <s:alias val="$and"/>
    <s:alias val="$reduce_and"/>
    <s:alias val="$logic_and"/>
    <s:alias val="$_AND_"/>
    <path d="M0,0 L0,25 L15,25 A15 12.5 0 0 0 15,0 Z" class="cell_:20"/>
    <text x="13" y="15" class="nodelabel" style="font-size:7px">AND</text>
    <g s:x="0" s:y="5" s:pid="A"/>
    <g s:x="0" s:y="20" s:pid="B"/>
    <g s:x="30" s:y="12.5" s:pid="Y"/>
  </g>
  <g s:type="eq" transform="translate(296.6666666666667,499)" s:width="25" s:height="25" id="cell_:21">
    <s:alias val="$eq"/>
    <circle r="12.5" cx="12.5" cy="12.5" class="cell_:21"/>
    <line x1="7.5" x2="17.5" y1="10" y2="10" class="cell_:21"/>
    <line x1="7.5" x2="17.5" y1="15" y2="15" class="cell_:21"/>
    <g s:x="3" s:y="5" s:pid="A"/>
    <g s:x="3" s:y="20" s:pid="B"/>
    <g s:x="25" s:y="12.5" s:pid="Y"/>
  </g>
  <g s:type="and" transform="translate(360,506.5)" s:width="30" s:height="25" id="cell_:22">
    <s:alias val="$and"/>
    <s:alias val="$reduce_and"/>
    <s:alias val="$logic_and"/>
    <s:alias val="$_AND_"/>
    <path d="M0,0 L0,25 L15,25 A15 12.5 0 0 0 15,0 Z" class="cell_:22"/>
    <text x="13" y="15" class="nodelabel" style="font-size:7px">AND</text>
    <g s:x="0" s:y="5" s:pid="A"/>
    <g s:x="0" s:y="20" s:pid="B"/>
    <g s:x="30" s:y="12.5" s:pid="Y"/>
  </g>
  <g s:type="mux" transform="translate(430,356.5)" s:width="20" s:height="40" id="cell_:23">
    <s:alias val="$pmux"/>
    <s:alias val="$mux"/>
    <s:alias val="$_MUX_"/>
    <path d="M0,0 L20,10 L20,30 L0,40 Z" class="cell_:23"/>
    <g s:x="0" s:y="10" s:pid="A"/>
    <g s:x="0" s:y="30" s:pid="B"/>
    <g s:x="10" s:y="35" s:pid="S"/>
    <g s:x="20" s:y="20" s:pid="Y"/>
  </g>
  <g s:type="or" transform="translate(80,205.5)" s:width="30" s:height="25" id="cell_:26">
    <s:alias val="$or"/>
    <s:alias val="$reduce_or"/>
    <s:alias val="$reduce_bool"/>
    <s:alias val="$logic_or"/>
    <s:alias val="$_OR_"/>
    <path d="M0,25 L0,25 L15,25 A15 12.5 0 0 0 15,0 L0,0" class="cell_:26"/>
    <path d="M0,0 A30 25 0 0 1 0,25" class="cell_:26"/>
    <text x="17" y="15" class="nodelabel" style="font-size:7px">OR</text>
    <g s:x="3" s:y="5" s:pid="A"/>
    <g s:x="3" s:y="20" s:pid="B"/>
    <g s:x="30" s:y="12.5" s:pid="Y"/>
  </g>
  <g s:type="and" transform="translate(150,265.5)" s:width="30" s:height="25" id="cell_:27">
    <s:alias val="$and"/>
    <s:alias val="$reduce_and"/>
    <s:alias val="$logic_and"/>
    <s:alias val="$_AND_"/>
    <path d="M0,0 L0,25 L15,25 A15 12.5 0 0 0 15,0 Z" class="cell_:27"/>
    <text x="13" y="15" class="nodelabel" style="font-size:7px">AND</text>
    <g s:x="0" s:y="5" s:pid="A"/>
    <g s:x="0" s:y="20" s:pid="B"/>
    <g s:x="30" s:y="12.5" s:pid="Y"/>
  </g>
  <g s:type="eq" transform="translate(151.66666666666666,325.5)" s:width="25" s:height="25" id="cell_:28">
    <s:alias val="$eq"/>
    <circle r="12.5" cx="12.5" cy="12.5" class="cell_:28"/>
    <line x1="7.5" x2="17.5" y1="10" y2="10" class="cell_:28"/>
    <line x1="7.5" x2="17.5" y1="15" y2="15" class="cell_:28"/>
    <g s:x="3" s:y="5" s:pid="A"/>
    <g s:x="3" s:y="20" s:pid="B"/>
    <g s:x="25" s:y="12.5" s:pid="Y"/>
  </g>
  <g s:type="and" transform="translate(221,333)" s:width="30" s:height="25" id="cell_:29">
    <s:alias val="$and"/>
    <s:alias val="$reduce_and"/>
    <s:alias val="$logic_and"/>
    <s:alias val="$_AND_"/>
    <path d="M0,0 L0,25 L15,25 A15 12.5 0 0 0 15,0 Z" class="cell_:29"/>
    <text x="13" y="15" class="nodelabel" style="font-size:7px">AND</text>
    <g s:x="0" s:y="5" s:pid="A"/>
    <g s:x="0" s:y="20" s:pid="B"/>
    <g s:x="30" s:y="12.5" s:pid="Y"/>
  </g>
  <g s:type="mux" transform="translate(298.3333333333333,258)" s:width="20" s:height="40" id="cell_:30">
    <s:alias val="$pmux"/>
    <s:alias val="$mux"/>
    <s:alias val="$_MUX_"/>
    <path d="M0,0 L20,10 L20,30 L0,40 Z" class="cell_:30"/>
    <g s:x="0" s:y="10" s:pid="A"/>
    <g s:x="0" s:y="30" s:pid="B"/>
    <g s:x="10" s:y="35" s:pid="S"/>
    <g s:x="20" s:y="20" s:pid="Y"/>
  </g>
  <g s:type="eq" transform="translate(296.6666666666667,140.5)" s:width="25" s:height="25" id="cell_:6">
    <s:alias val="$eq"/>
    <circle r="12.5" cx="12.5" cy="12.5" class="cell_:6"/>
    <line x1="7.5" x2="17.5" y1="10" y2="10" class="cell_:6"/>
    <line x1="7.5" x2="17.5" y1="15" y2="15" class="cell_:6"/>
    <g s:x="3" s:y="5" s:pid="A"/>
    <g s:x="3" s:y="20" s:pid="B"/>
    <g s:x="25" s:y="12.5" s:pid="Y"/>
  </g>
  <g s:type="and" transform="translate(360,431.5)" s:width="30" s:height="25" id="cell_:7">
    <s:alias val="$and"/>
    <s:alias val="$reduce_and"/>
    <s:alias val="$logic_and"/>
    <s:alias val="$_AND_"/>
    <path d="M0,0 L0,25 L15,25 A15 12.5 0 0 0 15,0 Z" class="cell_:7"/>
    <text x="13" y="15" class="nodelabel" style="font-size:7px">AND</text>
    <g s:x="0" s:y="5" s:pid="A"/>
    <g s:x="0" s:y="20" s:pid="B"/>
    <g s:x="30" s:y="12.5" s:pid="Y"/>
  </g>
  <g s:type="mux" transform="translate(430,109.5)" s:width="20" s:height="40" id="cell_:8">
    <s:alias val="$pmux"/>
    <s:alias val="$mux"/>
    <s:alias val="$_MUX_"/>
    <path d="M0,0 L20,10 L20,30 L0,40 Z" class="cell_:8"/>
    <g s:x="0" s:y="10" s:pid="A"/>
    <g s:x="0" s:y="30" s:pid="B"/>
    <g s:x="10" s:y="35" s:pid="S"/>
    <g s:x="20" s:y="20" s:pid="Y"/>
  </g>
  <g s:type="inputExt" transform="translate(77,150.5)" s:width="30" s:height="20" id="cell_ex_rs1">
    <text x="15" y="-4" class="nodelabel cell_ex_rs1" s:attribute="ref">ex_rs1</text>
    <s:alias val="$_inputExt_"/>
    <path d="M0,0 L0,20 L15,20 L30,10 L15,0 Z" class="cell_ex_rs1"/>
    <g s:x="28" s:y="10" s:pid="Y"/>
  </g>
  <g s:type="inputExt" transform="translate(77,509)" s:width="30" s:height="20" id="cell_ex_rs2">
    <text x="15" y="-4" class="nodelabel cell_ex_rs2" s:attribute="ref">ex_rs2</text>
    <s:alias val="$_inputExt_"/>
    <path d="M0,0 L0,20 L15,20 L30,10 L15,0 Z" class="cell_ex_rs2"/>
    <g s:x="28" s:y="10" s:pid="Y"/>
  </g>
  <g s:type="inputExt" transform="translate(148,489)" s:width="30" s:height="20" id="cell_mem_rd">
    <text x="15" y="-4" class="nodelabel cell_mem_rd" s:attribute="ref">mem_rd</text>
    <s:alias val="$_inputExt_"/>
    <path d="M0,0 L0,20 L15,20 L30,10 L15,0 Z" class="cell_mem_rd"/>
    <g s:x="28" s:y="10" s:pid="Y"/>
  </g>
  <g s:type="inputExt" transform="translate(219,449)" s:width="30" s:height="20" id="cell_mem_we">
    <text x="15" y="-4" class="nodelabel cell_mem_we" s:attribute="ref">mem_we</text>
    <s:alias val="$_inputExt_"/>
    <path d="M0,0 L0,20 L15,20 L30,10 L15,0 Z" class="cell_mem_we"/>
    <g s:x="28" s:y="10" s:pid="Y"/>
  </g>
  <g s:type="inputExt" transform="translate(12,320.5)" s:width="30" s:height="20" id="cell_wb_rd">
    <text x="15" y="-4" class="nodelabel cell_wb_rd" s:attribute="ref">wb_rd</text>
    <s:alias val="$_inputExt_"/>
    <path d="M0,0 L0,20 L15,20 L30,10 L15,0 Z" class="cell_wb_rd"/>
    <g s:x="28" s:y="10" s:pid="Y"/>
  </g>
  <g s:type="inputExt" transform="translate(77,275.5)" s:width="30" s:height="20" id="cell_wb_we">
    <text x="15" y="-4" class="nodelabel cell_wb_we" s:attribute="ref">wb_we</text>
    <s:alias val="$_inputExt_"/>
    <path d="M0,0 L0,20 L15,20 L30,10 L15,0 Z" class="cell_wb_we"/>
    <g s:x="28" s:y="10" s:pid="Y"/>
  </g>
  <g s:type="outputExt" transform="translate(485,119.5)" s:width="30" s:height="20" id="cell_fwd_a">
    <text x="15" y="-4" class="nodelabel cell_fwd_a" s:attribute="ref">fwd_a</text>
    <s:alias val="$_outputExt_"/>
    <path d="M30,0 L30,20 L15,20 L0,10 L15,0 Z" class="cell_fwd_a"/>
    <g s:x="0" s:y="10" s:pid="A"/>
  </g>
  <g s:type="outputExt" transform="translate(485,366.5)" s:width="30" s:height="20" id="cell_fwd_b">
    <text x="15" y="-4" class="nodelabel cell_fwd_b" s:attribute="ref">fwd_b</text>
    <s:alias val="$_outputExt_"/>
    <path d="M30,0 L30,20 L15,20 L0,10 L15,0 Z" class="cell_fwd_b"/>
    <g s:x="0" s:y="10" s:pid="A"/>
  </g>
  <g s:type="constant" transform="translate(219,119.5)" s:width="30" s:height="20" id="cell_0">
    <text x="15" y="-4" class="nodelabel cell_0" s:attribute="ref">0</text>
    <s:alias val="$_constant_"/>
    <rect width="30" height="20" class="cell_0"/>
    <g s:x="30" s:y="10" s:pid="Y"/>
  </g>
  <g s:type="constant" transform="translate(219,278)" s:width="30" s:height="20" id="cell_1">
    <text x="15" y="-4" class="nodelabel cell_1" s:attribute="ref">1</text>
    <s:alias val="$_constant_"/>
    <rect width="30" height="20" class="cell_1"/>
    <g s:x="30" s:y="10" s:pid="Y"/>
  </g>
  <g s:type="constant" transform="translate(360,376.5)" s:width="30" s:height="20" id="cell_10">
    <text x="15" y="-4" class="nodelabel cell_10" s:attribute="ref">10</text>
    <s:alias val="$_constant_"/>
    <rect width="30" height="20" class="cell_10"/>
    <g s:x="30" s:y="10" s:pid="Y"/>
  </g>
  <g s:type="join" transform="translate(371,267.5)" s:width="4" s:height="40" id="cell_$join$,36,42,">
    <rect width="5" height="40" class="splitjoinBody" s:generic="body"/>
    <s:alias val="$_join_"/>
    <g s:x="5" s:y="20" s:pid="out"/>
    <g transform="translate(0,10)" s:x="0" s:y="10" s:pid="in0">
      <text x="-3" y="-4" class="inputPortLabel">0</text>
    </g>
    <g transform="translate(0,30)" s:x="0" s:y="10" s:pid="in0">
      <text x="-3" y="-4" class="inputPortLabel">1</text>
    </g>
  </g>
  <g s:type="join" transform="translate(371,99)" s:width="4" s:height="40" id="cell_$join$,31,42,">
    <rect width="5" height="40" class="splitjoinBody" s:generic="body"/>
    <s:alias val="$_join_"/>
    <g s:x="5" s:y="20" s:pid="out"/>
    <g transform="translate(0,10)" s:x="0" s:y="10" s:pid="in0">
      <text x="-3" y="-4" class="inputPortLabel">0</text>
    </g>
    <g transform="translate(0,30)" s:x="0" s:y="10" s:pid="in0">
      <text x="-3" y="-4" class="inputPortLabel">1</text>
    </g>
  </g>
  <line x1="40" x2="52" y1="330.5" y2="330.5" class="net_18,19,20,21,22"/>
  <line x1="52" x2="52" y1="330.5" y2="47" class="net_18,19,20,21,22"/>
  <circle cx="52" cy="330.5" r="2" style="fill:#000" class="net_18,19,20,21,22"/>
  <line x1="52" x2="154.66666666666666" y1="47" y2="47" class="net_18,19,20,21,22"/>
  <line x1="40" x2="52" y1="330.5" y2="330.5" class="net_18,19,20,21,22"/>
  <line x1="52" x2="52" y1="330.5" y2="210.5" class="net_18,19,20,21,22"/>
  <circle cx="52" cy="210.5" r="2" style="fill:#000" class="net_18,19,20,21,22"/>
  <line x1="52" x2="83" y1="210.5" y2="210.5" class="net_18,19,20,21,22"/>
  <line x1="40" x2="154.66666666666666" y1="330.5" y2="330.5" class="net_18,19,20,21,22"/>
  <line x1="105" x2="123" y1="160.5" y2="160.5" class="net_2,3,4,5,6"/>
  <line x1="123" x2="123" y1="160.5" y2="62" class="net_2,3,4,5,6"/>
  <circle cx="123" cy="160.5" r="2" style="fill:#000" class="net_2,3,4,5,6"/>
  <line x1="123" x2="154.66666666666666" y1="62" y2="62" class="net_2,3,4,5,6"/>
  <line x1="105" x2="299.6666666666667" y1="160.5" y2="160.5" class="net_2,3,4,5,6"/>
  <line x1="176.66666666666666" x2="221" y1="54.5" y2="54.5" class="net_28"/>
  <line x1="180" x2="194" y1="278" y2="278" class="net_29"/>
  <line x1="194" x2="194" y1="278" y2="69.5" class="net_29"/>
  <circle cx="194" cy="278" r="2" style="fill:#000" class="net_29"/>
  <line x1="194" x2="221" y1="69.5" y2="69.5" class="net_29"/>
  <line x1="180" x2="194" y1="278" y2="278" class="net_29"/>
  <line x1="194" x2="194" y1="278" y2="353" class="net_29"/>
  <line x1="194" x2="221" y1="353" y2="353" class="net_29"/>
  <line x1="249" x2="285" y1="129.5" y2="129.5" class="net_42"/>
  <line x1="285" x2="285" y1="129.5" y2="22" class="net_42"/>
  <circle cx="285" cy="129.5" r="2" style="fill:#000" class="net_42"/>
  <line x1="285" x2="298.3333333333333" y1="22" y2="22" class="net_42"/>
  <line x1="249" x2="285" y1="129.5" y2="129.5" class="net_42"/>
  <line x1="285" x2="285" y1="129.5" y2="268" class="net_42"/>
  <line x1="285" x2="298.3333333333333" y1="268" y2="268" class="net_42"/>
  <line x1="249" x2="345" y1="129.5" y2="129.5" class="net_42"/>
  <line x1="345" x2="345" y1="129.5" y2="298" class="net_42"/>
  <circle cx="345" cy="129.5" r="2" style="fill:#000" class="net_42"/>
  <line x1="345" x2="371" y1="298" y2="298" class="net_42"/>
  <line x1="249" x2="371" y1="129.5" y2="129.5" class="net_42"/>
  <line x1="249" x2="265" y1="288" y2="288" class="net_43"/>
  <line x1="265" x2="265" y1="288" y2="42" class="net_43"/>
  <circle cx="265" cy="288" r="2" style="fill:#000" class="net_43"/>
  <line x1="265" x2="298.3333333333333" y1="42" y2="42" class="net_43"/>
  <line x1="249" x2="298.3333333333333" y1="288" y2="288" class="net_43"/>
  <line x1="251" x2="308.3333333333333" y1="62" y2="62" class="net_30"/>
  <line x1="308.3333333333333" x2="308.3333333333333" y1="62" y2="47" class="net_30"/>
  <line x1="176" x2="194" y1="499" y2="499" class="net_12,13,14,15,16"/>
  <line x1="194" x2="194" y1="499" y2="384" class="net_12,13,14,15,16"/>
  <circle cx="194" cy="499" r="2" style="fill:#000" class="net_12,13,14,15,16"/>
  <circle cx="194" cy="384" r="2" style="fill:#000" class="net_12,13,14,15,16"/>
  <line x1="194" x2="225" y1="384" y2="384" class="net_12,13,14,15,16"/>
  <line x1="176" x2="265" y1="499" y2="499" class="net_12,13,14,15,16"/>
  <line x1="265" x2="265" y1="499" y2="504" class="net_12,13,14,15,16"/>
  <line x1="265" x2="299.6666666666667" y1="504" y2="504" class="net_12,13,14,15,16"/>
  <line x1="176" x2="194" y1="499" y2="499" class="net_12,13,14,15,16"/>
  <line x1="194" x2="194" y1="499" y2="368" class="net_12,13,14,15,16"/>
  <line x1="194" x2="275" y1="368" y2="368" class="net_12,13,14,15,16"/>
  <line x1="275" x2="275" y1="368" y2="145.5" class="net_12,13,14,15,16"/>
  <line x1="275" x2="299.6666666666667" y1="145.5" y2="145.5" class="net_12,13,14,15,16"/>
  <line x1="252" x2="265" y1="391.5" y2="391.5" class="net_32"/>
  <line x1="265" x2="265" y1="391.5" y2="444" class="net_32"/>
  <line x1="265" x2="295" y1="444" y2="444" class="net_32"/>
  <line x1="247" x2="295" y1="459" y2="459" class="net_17"/>
  <line x1="105" x2="299.6666666666667" y1="519" y2="519" class="net_7,8,9,10,11"/>
  <line x1="105" x2="123" y1="519" y2="519" class="net_7,8,9,10,11"/>
  <line x1="123" x2="123" y1="519" y2="345.5" class="net_7,8,9,10,11"/>
  <circle cx="123" cy="519" r="2" style="fill:#000" class="net_7,8,9,10,11"/>
  <line x1="123" x2="154.66666666666666" y1="345.5" y2="345.5" class="net_7,8,9,10,11"/>
  <line x1="321.6666666666667" x2="360" y1="511.5" y2="511.5" class="net_34"/>
  <line x1="325" x2="335" y1="451.5" y2="451.5" class="net_33"/>
  <line x1="335" x2="335" y1="451.5" y2="526.5" class="net_33"/>
  <circle cx="335" cy="451.5" r="2" style="fill:#000" class="net_33"/>
  <line x1="335" x2="360" y1="526.5" y2="526.5" class="net_33"/>
  <line x1="325" x2="360" y1="451.5" y2="451.5" class="net_33"/>
  <line x1="377" x2="420" y1="288" y2="288" class="net_36,42"/>
  <line x1="420" x2="420" y1="288" y2="366.5" class="net_36,42"/>
  <line x1="420" x2="430" y1="366.5" y2="366.5" class="net_36,42"/>
  <line x1="390" x2="430" y1="386.5" y2="386.5" class="net_45,46"/>
  <line x1="390" x2="400" y1="386.5" y2="386.5" class="net_45,46"/>
  <line x1="400" x2="400" y1="386.5" y2="139.5" class="net_45,46"/>
  <circle cx="400" cy="386.5" r="2" style="fill:#000" class="net_45,46"/>
  <line x1="400" x2="430" y1="139.5" y2="139.5" class="net_45,46"/>
  <line x1="390" x2="440" y1="519" y2="519" class="net_35"/>
  <line x1="440" x2="440" y1="519" y2="391.5" class="net_35"/>
  <line x1="110" x2="123" y1="218" y2="218" class="net_37"/>
  <line x1="123" x2="123" y1="218" y2="270.5" class="net_37"/>
  <line x1="123" x2="150" y1="270.5" y2="270.5" class="net_37"/>
  <line x1="105" x2="150" y1="285.5" y2="285.5" class="net_23"/>
  <line x1="176.66666666666666" x2="221" y1="338" y2="338" class="net_38"/>
  <line x1="251" x2="308.3333333333333" y1="345.5" y2="345.5" class="net_39"/>
  <line x1="308.3333333333333" x2="308.3333333333333" y1="345.5" y2="293" class="net_39"/>
  <line x1="321.6666666666667" x2="335" y1="153" y2="153" class="net_40"/>
  <line x1="335" x2="335" y1="153" y2="436.5" class="net_40"/>
  <line x1="335" x2="360" y1="436.5" y2="436.5" class="net_40"/>
  <line x1="377" x2="430" y1="119.5" y2="119.5" class="net_31,42"/>
  <line x1="390" x2="410" y1="444" y2="444" class="net_41"/>
  <line x1="410" x2="410" y1="444" y2="346.5" class="net_41"/>
  <line x1="410" x2="440" y1="346.5" y2="346.5" class="net_41"/>
  <line x1="440" x2="440" y1="346.5" y2="144.5" class="net_41"/>
  <line x1="450" x2="485" y1="129.5" y2="129.5" class="net_24,25"/>
  <line x1="450" x2="485" y1="376.5" y2="376.5" class="net_26,27"/>
  <line x1="318.3333333333333" x2="371" y1="278" y2="278" class="net_36"/>
  <line x1="318.3333333333333" x2="335" y1="32" y2="32" class="net_31"/>
  <line x1="335" x2="335" y1="32" y2="109.5" class="net_31"/>
  <line x1="335" x2="371" y1="109.5" y2="109.5" class="net_31"/>
</svg>
