<svg xmlns="http://www.w3.org/2000/svg" xmlns:xlink="http://www.w3.org/1999/xlink" xmlns:s="https://github.com/nturley/netlistsvg" width="830" height="630.5">
  <style>svg {
    stroke:#000;
    fill:none;
  }
  text {
    fill:#000;
    stroke:none;
    font-size:10px;
    font-weight: bold;
    font-family: "Courier New", monospace;
  }
  .nodelabel {
    text-anchor: middle;
  }
  .inputPortLabel {
    text-anchor: end;
  }
  .splitjoinBody {
    fill:#000;
  }</style>
  <g s:type="mux" transform="translate(612.6666666666666,357.5)" s:width="20" s:height="40" id="cell_:12">
    <s:alias val="$pmux"/>
    <s:alias val="$mux"/>
    <s:alias val="$_MUX_"/>
    <path d="M0,0 L20,10 L20,30 L0,40 Z" class="cell_:12"/>
    <g s:x="0" s:y="10" s:pid="A"/>
    <g s:x="0" s:y="30" s:pid="B"/>
    <g s:x="10" s:y="35" s:pid="S"/>
    <g s:x="20" s:y="20" s:pid="Y"/>
  </g>
  <g s:type="mux" transform="translate(674.3333333333334,367.5)" s:width="20" s:height="40" id="cell_:14">
    <s:alias val="$pmux"/>
    <s:alias val="$mux"/>
    <s:alias val="$_MUX_"/>
    <path d="M0,0 L20,10 L20,30 L0,40 Z" class="cell_:14"/>
    <g s:x="0" s:y="10" s:pid="A"/>
    <g s:x="0" s:y="30" s:pid="B"/>
    <g s:x="10" s:y="35" s:pid="S"/>
    <g s:x="20" s:y="20" s:pid="Y"/>
  </g>
  <g s:type="mux" transform="translate(389.3333333333333,439.5)" s:width="20" s:height="40" id="cell_:16">
    <s:alias val="$pmux"/>
    <s:alias val="$mux"/>
    <s:alias val="$_MUX_"/>
    <path d="M0,0 L20,10 L20,30 L0,40 Z" class="cell_:16"/>
    <g s:x="0" s:y="10" s:pid="A"/>
    <g s:x="0" s:y="30" s:pid="B"/>
    <g s:x="10" s:y="35" s:pid="S"/>
    <g s:x="20" s:y="20" s:pid="Y"/>
  </g>
  <g s:type="mux" transform="translate(609.3333333333334,545.5)" s:width="20" s:height="40" id="cell_:18">
    <s:alias val="$pmux"/>
    <s:alias val="$mux"/>
    <s:alias val="$_MUX_"/>
    <path d="M0,0 L20,10 L20,30 L0,40 Z" class="cell_:18"/>
    <g s:x="0" s:y="10" s:pid="A"/>
    <g s:x="0" s:y="30" s:pid="B"/>
    <g s:x="10" s:y="35" s:pid="S"/>
    <g s:x="20" s:y="20" s:pid="Y"/>
  </g>
  <g s:type="generic" transform="translate(121,41.5)" s:width="30" s:height="40" id="cell_:26">
    <text x="15" y="-4" class="nodelabel cell_:26" s:attribute="ref">*</text>
    <rect width="30" height="40" s:generic="body" class="cell_:26"/>
    <g transform="translate(0,10)" s:x="0" s:y="10" s:pid="in0" id="port_:26~A">
      <text x="-3" y="-4" class="inputPortLabel cell_:26">A</text>
    </g>
    <g transform="translate(0,30)" s:x="0" s:y="10" s:pid="in0" id="port_:26~B">
      <text x="-3" y="-4" class="inputPortLabel cell_:26">B</text>
    </g>
    <g transform="translate(30,10)" s:x="30" s:y="10" s:pid="out0" id="port_:26~Y">
      <text x="5" y="-4" style="fill:#000; stroke:none" class="cell_:26">Y</text>
    </g>
  </g>
  <g s:type="generic" transform="translate(121,129.5)" s:width="30" s:height="40" id="cell_:31">
    <text x="15" y="-4" class="nodelabel cell_:31" s:attribute="ref">*</text>
    <rect width="30" height="40" s:generic="body" class="cell_:31"/>
    <g transform="translate(0,10)" s:x="0" s:y="10" s:pid="in0" id="port_:31~A">
      <text x="-3" y="-4" class="inputPortLabel cell_:31">A</text>
    </g>
    <g transform="translate(0,30)" s:x="0" s:y="10" s:pid="in0" id="port_:31~B">
      <text x="-3" y="-4" class="inputPortLabel cell_:31">B</text>
    </g>
    <g transform="translate(30,10)" s:x="30" s:y="10" s:pid="out0" id="port_:31~Y">
      <text x="5" y="-4" style="fill:#000; stroke:none" class="cell_:31">Y</text>
    </g>
  </g>
  <g s:type="add" transform="translate(203,47)" s:width="25" s:height="25" id="cell_:33">
    <s:alias val="$add"/>
    <circle r="12.5" cx="12.5" cy="12.5" class="cell_:33"/>
    <line x1="7.5" x2="17.5" y1="12.5" y2="12.5" class="cell_:33"/>
    <line x1="12.5" x2="12.5" y1="7.5" y2="17.5" class="cell_:33"/>
    <g s:x="3" s:y="5" s:pid="A"/>
    <g s:x="3" s:y="20" s:pid="B"/>
    <g s:x="25" s:y="12.5" s:pid="Y"/>
  </g>
  <g s:type="generic" transform="translate(201,265)" s:width="30" s:height="40" id="cell_:37">
    <text x="15" y="-4" class="nodelabel cell_:37" s:attribute="ref">*</text>
    <rect width="30" height="40" s:generic="body" class="cell_:37"/>
    <g transform="translate(0,10)" s:x="0" s:y="10" s:pid="in0" id="port_:37~A">
      <text x="-3" y="-4" class="inputPortLabel cell_:37">A</text>
    </g>
    <g transform="translate(0,30)" s:x="0" s:y="10" s:pid="in0" id="port_:37~B">
      <text x="-3" y="-4" class="inputPortLabel cell_:37">B</text>
    </g>
    <g transform="translate(30,10)" s:x="30" s:y="10" s:pid="out0" id="port_:37~Y">
      <text x="5" y="-4" style="fill:#000; stroke:none" class="cell_:37">Y</text>
    </g>
  </g>
  <g s:type="add" transform="translate(292,54.5)" s:width="25" s:height="25" id="cell_:39">
    <s:alias val="$add"/>
    <circle r="12.5" cx="12.5" cy="12.5" class="cell_:39"/>
    <line x1="7.5" x2="17.5" y1="12.5" y2="12.5" class="cell_:39"/>
    <line x1="12.5" x2="12.5" y1="7.5" y2="17.5" class="cell_:39"/>
    <g s:x="3" s:y="5" s:pid="A"/>
    <g s:x="3" s:y="20" s:pid="B"/>
    <g s:x="25" s:y="12.5" s:pid="Y"/>
  </g>
  <g s:type="generic" transform="translate(290.3333333333333,316)" s:width="30" s:height="40" id="cell_:43">
    <text x="15" y="-4" class="nodelabel cell_:43" s:attribute="ref">*</text>
    <rect width="30" height="40" s:generic="body" class="cell_:43"/>
    <g transform="translate(0,10)" s:x="0" s:y="10" s:pid="in0" id="port_:43~A">
      <text x="-3" y="-4" class="inputPortLabel cell_:43">A</text>
    </g>
    <g transform="translate(0,30)" s:x="0" s:y="10" s:pid="in0" id="port_:43~B">
      <text x="-3" y="-4" class="inputPortLabel cell_:43">B</text>
    </g>
    <g transform="translate(30,10)" s:x="30" s:y="10" s:pid="out0" id="port_:43~Y">
      <text x="5" y="-4" style="fill:#000; stroke:none" class="cell_:43">Y</text>
    </g>
  </g>
  <g s:type="add" transform="translate(387.6666666666667,62)" s:width="25" s:height="25" id="cell_:45">
    <s:alias val="$add"/>
    <circle r="12.5" cx="12.5" cy="12.5" class="cell_:45"/>
    <line x1="7.5" x2="17.5" y1="12.5" y2="12.5" class="cell_:45"/>
    <line x1="12.5" x2="12.5" y1="7.5" y2="17.5" class="cell_:45"/>
    <g s:x="3" s:y="5" s:pid="A"/>
    <g s:x="3" s:y="20" s:pid="B"/>
    <g s:x="25" s:y="12.5" s:pid="Y"/>
  </g>
  <g s:type="mux" transform="translate(546.6666666666666,22)" s:width="20" s:height="40" id="cell_:49">
    <s:alias val="$pmux"/>
    <s:alias val="$mux"/>
    <s:alias val="$_MUX_"/>
    <path d="M0,0 L20,10 L20,30 L0,40 Z" class="cell_:49"/>
    <g s:x="0" s:y="10" s:pid="A"/>
    <g s:x="0" s:y="30" s:pid="B"/>
    <g s:x="10" s:y="35" s:pid="S"/>
    <g s:x="20" s:y="20" s:pid="Y"/>
  </g>
  <g s:type="mux" transform="translate(609.3333333333334,32)" s:width="20" s:height="40" id="cell_:51">
    <s:alias val="$pmux"/>
    <s:alias val="$mux"/>
    <s:alias val="$_MUX_"/>
    <path d="M0,0 L20,10 L20,30 L0,40 Z" class="cell_:51"/>
    <g s:x="0" s:y="10" s:pid="A"/>
    <g s:x="0" s:y="30" s:pid="B"/>
    <g s:x="10" s:y="35" s:pid="S"/>
    <g s:x="20" s:y="20" s:pid="Y"/>
  </g>
  <g s:type="dff" transform="translate(736,377.5)" s:width="30" s:height="40" id="cell_:54">
    <s:alias val="$dff"/>
    <s:alias val="$_DFF_"/>
    <s:alias val="$_DFF_P_"/>
    <rect width="30" height="40" x="0" y="0" class="cell_:54"/>
    <path d="M0,35 L5,30 L0,25" class="cell_:54"/>
    <g s:x="30" s:y="10" s:pid="Q"/>
    <g s:x="0" s:y="30" s:pid="CLK"/>
    <g s:x="0" s:y="30" s:pid="C"/>
    <g s:x="0" s:y="10" s:pid="D"/>
  </g>
  <g s:type="dff" transform="translate(671,42)" s:width="30" s:height="40" id="cell_:55">
    <s:alias val="$dff"/>
    <s:alias val="$_DFF_"/>
    <s:alias val="$_DFF_P_"/>
    <rect width="30" height="40" x="0" y="0" class="cell_:55"/>
    <path d="M0,35 L5,30 L0,25" class="cell_:55"/>
    <g s:x="30" s:y="10" s:pid="Q"/>
    <g s:x="0" s:y="30" s:pid="CLK"/>
    <g s:x="0" s:y="30" s:pid="C"/>
    <g s:x="0" s:y="10" s:pid="D"/>
  </g>
  <g s:type="dff" transform="translate(459,449.5)" s:width="30" s:height="40" id="cell_:56">
    <s:alias val="$dff"/>
    <s:alias val="$_DFF_"/>
    <s:alias val="$_DFF_P_"/>
    <rect width="30" height="40" x="0" y="0" class="cell_:56"/>
    <path d="M0,35 L5,30 L0,25" class="cell_:56"/>
    <g s:x="30" s:y="10" s:pid="Q"/>
    <g s:x="0" s:y="30" s:pid="CLK"/>
    <g s:x="0" s:y="30" s:pid="C"/>
    <g s:x="0" s:y="10" s:pid="D"/>
  </g>
  <g s:type="dff" transform="translate(671,555.5)" s:width="30" s:height="40" id="cell_:57">
    <s:alias val="$dff"/>
    <s:alias val="$_DFF_"/>
    <s:alias val="$_DFF_P_"/>
    <rect width="30" height="40" x="0" y="0" class="cell_:57"/>
    <path d="M0,35 L5,30 L0,25" class="cell_:57"/>
    <g s:x="30" s:y="10" s:pid="Q"/>
    <g s:x="0" s:y="30" s:pid="CLK"/>
    <g s:x="0" s:y="30" s:pid="C"/>
    <g s:x="0" s:y="10" s:pid="D"/>
  </g>
  <g s:type="inputExt" transform="translate(386,524.5)" s:width="30" s:height="20" id="cell_clk">
    <text x="15" y="-4" class="nodelabel cell_clk" s:attribute="ref">clk</text>
    <s:alias val="$_inputExt_"/>
    <path d="M0,0 L0,20 L15,20 L30,10 L15,0 Z" class="cell_clk"/>
    <g s:x="28" s:y="10" s:pid="Y"/>
  </g>
  <g s:type="inputExt" transform="translate(274,483.5)" s:width="30" s:height="20" id="cell_rst">
    <text x="15" y="-4" class="nodelabel cell_rst" s:attribute="ref">rst</text>
    <s:alias val="$_inputExt_"/>
    <path d="M0,0 L0,20 L15,20 L30,10 L15,0 Z" class="cell_rst"/>
    <g s:x="28" s:y="10" s:pid="Y"/>
  </g>
  <g s:type="inputExt" transform="translate(32,62)" s:width="30" s:height="20" id="cell_coeff_0">
    <text x="15" y="-4" class="nodelabel cell_coeff_0" s:attribute="ref">coeff_0</text>
    <s:alias val="$_inputExt_"/>
    <path d="M0,0 L0,20 L15,20 L30,10 L15,0 Z" class="cell_coeff_0"/>
    <g s:x="28" s:y="10" s:pid="Y"/>
  </g>
  <g s:type="inputExt" transform="translate(32,150)" s:width="30" s:height="20" id="cell_coeff_1">
    <text x="15" y="-4" class="nodelabel cell_coeff_1" s:attribute="ref">coeff_1</text>
    <s:alias val="$_inputExt_"/>
    <path d="M0,0 L0,20 L15,20 L30,10 L15,0 Z" class="cell_coeff_1"/>
    <g s:x="28" s:y="10" s:pid="Y"/>
  </g>
  <g s:type="inputExt" transform="translate(117,296.5)" s:width="30" s:height="20" id="cell_coeff_2">
    <text x="15" y="-4" class="nodelabel cell_coeff_2" s:attribute="ref">coeff_2</text>
    <s:alias val="$_inputExt_"/>
    <path d="M0,0 L0,20 L15,20 L30,10 L15,0 Z" class="cell_coeff_2"/>
    <g s:x="28" s:y="10" s:pid="Y"/>
  </g>
  <g s:type="inputExt" transform="translate(197,347.5)" s:width="30" s:height="20" id="cell_coeff_3">
    <text x="15" y="-4" class="nodelabel cell_coeff_3" s:attribute="ref">coeff_3</text>
    <s:alias val="$_inputExt_"/>
    <path d="M0,0 L0,20 L15,20 L30,10 L15,0 Z" class="cell_coeff_3"/>
    <g s:x="28" s:y="10" s:pid="Y"/>
  </g>
  <g s:type="inputExt" transform="translate(451,398.5)" s:width="30" s:height="20" id="cell_sample_in">
    <text x="15" y="-4" class="nodelabel cell_sample_in" s:attribute="ref">sample_in</text>
    <s:alias val="$_inputExt_"/>
    <path d="M0,0 L0,20 L15,20 L30,10 L15,0 Z" class="cell_sample_in"/>
    <g s:x="28" s:y="10" s:pid="Y"/>
  </g>
  <g s:type="inputExt" transform="translate(274,418.5)" s:width="30" s:height="20" id="cell_sample_valid">
    <text x="15" y="-4" class="nodelabel cell_sample_valid" s:attribute="ref">sample_valid</text>
    <s:alias val="$_inputExt_"/>
    <path d="M0,0 L0,20 L15,20 L30,10 L15,0 Z" class="cell_sample_valid"/>
    <g s:x="28" s:y="10" s:pid="Y"/>
  </g>
  <g s:type="outputExt" transform="translate(736,42)" s:width="30" s:height="20" id="cell_result">
    <text x="15" y="-4" class="nodelabel cell_result" s:attribute="ref">result</text>
    <s:alias val="$_outputExt_"/>
    <path d="M30,0 L30,20 L15,20 L0,10 L15,0 Z" class="cell_result"/>
    <g s:x="0" s:y="10" s:pid="A"/>
  </g>
  <g s:type="outputExt" transform="translate(736,555.5)" s:width="30" s:height="20" id="cell_result_valid">
    <text x="15" y="-4" class="nodelabel cell_result_valid" s:attribute="ref">result_valid</text>
    <s:alias val="$_outputExt_"/>
    <path d="M30,0 L30,20 L15,20 L0,10 L15,0 Z" class="cell_result_valid"/>
    <g s:x="0" s:y="10" s:pid="A"/>
  </g>
  <g s:type="constant" transform="translate(606,448.5)" s:width="30" s:height="20" id="cell_0000000000000000000000000000000000000000000000000000000000000000">
    <text x="15" y="-4" class="nodelabel cell_0000000000000000000000000000000000000000000000000000000000000000" s:attribute="ref">0x0</text>
    <s:alias val="$_constant_"/>
    <rect width="30" height="20" class="cell_0000000000000000000000000000000000000000000000000000000000000000"/>
    <g s:x="30" s:y="10" s:pid="Y"/>
  </g>
  <g s:type="constant" transform="translate(274,565.5)" s:width="30" s:height="20" id="cell_0">
    <text x="15" y="-4" class="nodelabel cell_0" s:attribute="ref">0</text>
    <s:alias val="$_constant_"/>
    <rect width="30" height="20" class="cell_0"/>
    <g s:x="30" s:y="10" s:pid="Y"/>
  </g>
  <g s:type="constant" transform="translate(540,139)" s:width="30" s:height="20" id="cell_0000000000000000">
    <text x="15" y="-4" class="nodelabel cell_0000000000000000" s:attribute="ref">0x0</text>
    <s:alias val="$_constant_"/>
    <rect width="30" height="20" class="cell_0000000000000000"/>
    <g s:x="30" s:y="10" s:pid="Y"/>
  </g>
  <g s:type="join" transform="translate(565,367)" s:width="4" s:height="40" id="cell_$join$,90,91,92,93,94,95,96,97,98,99,100,101,102,103,104,105,106,107,108,109,110,111,112,113,114,115,116,117,118,119,120,121,122,123,124,125,126,127,128,129,130,131,132,133,134,135,136,137,40,41,42,43,44,45,46,47,48,49,50,51,52,53,54,55,">
    <rect width="5" height="40" class="splitjoinBody" s:generic="body"/>
    <s:alias val="$_join_"/>
    <g s:x="5" s:y="20" s:pid="out"/>
    <g transform="translate(0,10)" s:x="0" s:y="10" s:pid="in0">
      <text x="-3" y="-4" class="inputPortLabel">0:47</text>
    </g>
    <g transform="translate(0,30)" s:x="0" s:y="10" s:pid="in0">
      <text x="-3" y="-4" class="inputPortLabel">48:63</text>
    </g>
  </g>
  <g s:type="split" transform="translate(38,205)" s:width="5" s:height="40" id="cell_$split$,74,75,76,77,78,79,80,81,82,83,84,85,86,87,88,89,90,91,92,93,94,95,96,97,98,99,100,101,102,103,104,105,106,107,108,109,110,111,112,113,114,115,116,117,118,119,120,121,122,123,124,125,126,127,128,129,130,131,132,133,134,135,136,137,">
    <rect width="5" height="100" class="splitjoinBody" s:generic="body"/>
    <s:alias val="$_split_"/>
    <g s:x="0" s:y="20" s:pid="in"/>
    <g transform="translate(4,10)" s:x="4" s:y="10" s:pid="out0">
      <text x="5" y="-4">16:63</text>
    </g>
    <g transform="translate(4,30)" s:x="4" s:y="10" s:pid="out0">
      <text x="5" y="-4">48:63</text>
    </g>
    <g transform="translate(4,50)" s:x="4" s:y="10" s:pid="out0">
      <text x="5" y="-4">32:47</text>
    </g>
    <g transform="translate(4,70)" s:x="4" s:y="10" s:pid="out0">
      <text x="5" y="-4">16:31</text>
    </g>
    <g transform="translate(4,90)" s:x="4" s:y="10" s:pid="out0">
      <text x="5" y="-4">0:15</text>
    </g>
  </g>
  <g s:type="split" transform="translate(475,41.5)" s:width="5" s:height="40" id="cell_$split$,413,414,415,416,417,418,419,420,421,422,423,424,425,426,427,428,429,430,431,432,433,434,435,436,">
    <rect width="5" height="20" class="splitjoinBody" s:generic="body"/>
    <s:alias val="$_split_"/>
    <g s:x="0" s:y="20" s:pid="in"/>
    <g transform="translate(4,10)" s:x="4" s:y="10" s:pid="out0">
      <text x="5" y="-4">8:23</text>
    </g>
  </g>
  <line x1="766" x2="818" y1="387.5" y2="387.5" class="net_74,75,76,77,78,79,80,81,82,83,84,85,86,87,88,89,90,91,92,93,94,95,96,97,98,99,100,101,102,103,104,105,106,107,108,109,110,111,112,113,114,115,116,117,118,119,120,121,122,123,124,125,126,127,128,129,130,131,132,133,134,135,136,137"/>
  <line x1="818" x2="818" y1="387.5" y2="347.5" class="net_74,75,76,77,78,79,80,81,82,83,84,85,86,87,88,89,90,91,92,93,94,95,96,97,98,99,100,101,102,103,104,105,106,107,108,109,110,111,112,113,114,115,116,117,118,119,120,121,122,123,124,125,126,127,128,129,130,131,132,133,134,135,136,137"/>
  <line x1="818" x2="581" y1="347.5" y2="347.5" class="net_74,75,76,77,78,79,80,81,82,83,84,85,86,87,88,89,90,91,92,93,94,95,96,97,98,99,100,101,102,103,104,105,106,107,108,109,110,111,112,113,114,115,116,117,118,119,120,121,122,123,124,125,126,127,128,129,130,131,132,133,134,135,136,137"/>
  <line x1="581" x2="581" y1="347.5" y2="367.5" class="net_74,75,76,77,78,79,80,81,82,83,84,85,86,87,88,89,90,91,92,93,94,95,96,97,98,99,100,101,102,103,104,105,106,107,108,109,110,111,112,113,114,115,116,117,118,119,120,121,122,123,124,125,126,127,128,129,130,131,132,133,134,135,136,137"/>
  <circle cx="818" cy="387.5" r="2" style="fill:#000" class="net_74,75,76,77,78,79,80,81,82,83,84,85,86,87,88,89,90,91,92,93,94,95,96,97,98,99,100,101,102,103,104,105,106,107,108,109,110,111,112,113,114,115,116,117,118,119,120,121,122,123,124,125,126,127,128,129,130,131,132,133,134,135,136,137"/>
  <line x1="581" x2="612.6666666666666" y1="367.5" y2="367.5" class="net_74,75,76,77,78,79,80,81,82,83,84,85,86,87,88,89,90,91,92,93,94,95,96,97,98,99,100,101,102,103,104,105,106,107,108,109,110,111,112,113,114,115,116,117,118,119,120,121,122,123,124,125,126,127,128,129,130,131,132,133,134,135,136,137"/>
  <line x1="766" x2="818" y1="387.5" y2="387.5" class="net_74,75,76,77,78,79,80,81,82,83,84,85,86,87,88,89,90,91,92,93,94,95,96,97,98,99,100,101,102,103,104,105,106,107,108,109,110,111,112,113,114,115,116,117,118,119,120,121,122,123,124,125,126,127,128,129,130,131,132,133,134,135,136,137"/>
  <line x1="818" x2="818" y1="387.5" y2="617.5" class="net_74,75,76,77,78,79,80,81,82,83,84,85,86,87,88,89,90,91,92,93,94,95,96,97,98,99,100,101,102,103,104,105,106,107,108,109,110,111,112,113,114,115,116,117,118,119,120,121,122,123,124,125,126,127,128,129,130,131,132,133,134,135,136,137"/>
  <line x1="818" x2="12" y1="617.5" y2="617.5" class="net_74,75,76,77,78,79,80,81,82,83,84,85,86,87,88,89,90,91,92,93,94,95,96,97,98,99,100,101,102,103,104,105,106,107,108,109,110,111,112,113,114,115,116,117,118,119,120,121,122,123,124,125,126,127,128,129,130,131,132,133,134,135,136,137"/>
  <line x1="12" x2="12" y1="617.5" y2="225.5" class="net_74,75,76,77,78,79,80,81,82,83,84,85,86,87,88,89,90,91,92,93,94,95,96,97,98,99,100,101,102,103,104,105,106,107,108,109,110,111,112,113,114,115,116,117,118,119,120,121,122,123,124,125,126,127,128,129,130,131,132,133,134,135,136,137"/>
  <line x1="12" x2="38" y1="225.5" y2="225.5" class="net_74,75,76,77,78,79,80,81,82,83,84,85,86,87,88,89,90,91,92,93,94,95,96,97,98,99,100,101,102,103,104,105,106,107,108,109,110,111,112,113,114,115,116,117,118,119,120,121,122,123,124,125,126,127,128,129,130,131,132,133,134,135,136,137"/>
  <line x1="571" x2="612.6666666666666" y1="387.5" y2="387.5" class="net_90,91,92,93,94,95,96,97,98,99,100,101,102,103,104,105,106,107,108,109,110,111,112,113,114,115,116,117,118,119,120,121,122,123,124,125,126,127,128,129,130,131,132,133,134,135,136,137,40,41,42,43,44,45,46,47,48,49,50,51,52,53,54,55"/>
  <line x1="302" x2="622.6666666666666" y1="428.5" y2="428.5" class="net_56"/>
  <line x1="622.6666666666666" x2="622.6666666666666" y1="428.5" y2="392.5" class="net_56"/>
  <line x1="302" x2="376" y1="428.5" y2="428.5" class="net_56"/>
  <line x1="376" x2="376" y1="428.5" y2="449.5" class="net_56"/>
  <circle cx="376" cy="428.5" r="2" style="fill:#000" class="net_56"/>
  <line x1="376" x2="389.3333333333333" y1="449.5" y2="449.5" class="net_56"/>
  <line x1="632.6666666666666" x2="674.3333333333334" y1="377.5" y2="377.5" class="net_138,139,140,141,142,143,144,145,146,147,148,149,150,151,152,153,154,155,156,157,158,159,160,161,162,163,164,165,166,167,168,169,170,171,172,173,174,175,176,177,178,179,180,181,182,183,184,185,186,187,188,189,190,191,192,193,194,195,196,197,198,199,200,201"/>
  <line x1="636" x2="646" y1="458.5" y2="458.5" class="net_469,470,471,472,473,474,475,476,477,478,479,480,481,482,483,484,485,486,487,488,489,490,491,492,493,494,495,496,497,498,499,500,501,502,503,504,505,506,507,508,509,510,511,512,513,514,515,516,517,518,519,520,521,522,523,524,525,526,527,528,529,530,531,532"/>
  <line x1="646" x2="646" y1="458.5" y2="397.5" class="net_469,470,471,472,473,474,475,476,477,478,479,480,481,482,483,484,485,486,487,488,489,490,491,492,493,494,495,496,497,498,499,500,501,502,503,504,505,506,507,508,509,510,511,512,513,514,515,516,517,518,519,520,521,522,523,524,525,526,527,528,529,530,531,532"/>
  <line x1="646" x2="674.3333333333334" y1="397.5" y2="397.5" class="net_469,470,471,472,473,474,475,476,477,478,479,480,481,482,483,484,485,486,487,488,489,490,491,492,493,494,495,496,497,498,499,500,501,502,503,504,505,506,507,508,509,510,511,512,513,514,515,516,517,518,519,520,521,522,523,524,525,526,527,528,529,530,531,532"/>
  <line x1="302" x2="366" y1="493.5" y2="493.5" class="net_3"/>
  <line x1="366" x2="366" y1="493.5" y2="503.5" class="net_3"/>
  <line x1="366" x2="684.3333333333334" y1="503.5" y2="503.5" class="net_3"/>
  <circle cx="366" cy="493.5" r="2" style="fill:#000" class="net_3"/>
  <circle cx="366" cy="503.5" r="2" style="fill:#000" class="net_3"/>
  <line x1="684.3333333333334" x2="684.3333333333334" y1="503.5" y2="402.5" class="net_3"/>
  <line x1="302" x2="399.3333333333333" y1="493.5" y2="493.5" class="net_3"/>
  <line x1="399.3333333333333" x2="399.3333333333333" y1="493.5" y2="474.5" class="net_3"/>
  <line x1="302" x2="366" y1="493.5" y2="493.5" class="net_3"/>
  <line x1="366" x2="366" y1="493.5" y2="595.5" class="net_3"/>
  <line x1="366" x2="619.3333333333334" y1="595.5" y2="595.5" class="net_3"/>
  <line x1="619.3333333333334" x2="619.3333333333334" y1="595.5" y2="580.5" class="net_3"/>
  <line x1="302" x2="366" y1="493.5" y2="493.5" class="net_3"/>
  <line x1="366" x2="366" y1="493.5" y2="97" class="net_3"/>
  <line x1="366" x2="619.3333333333334" y1="97" y2="97" class="net_3"/>
  <line x1="619.3333333333334" x2="619.3333333333334" y1="97" y2="67" class="net_3"/>
  <line x1="304" x2="376" y1="575.5" y2="575.5" class="net_533"/>
  <line x1="376" x2="376" y1="575.5" y2="469.5" class="net_533"/>
  <circle cx="376" cy="575.5" r="2" style="fill:#000" class="net_533"/>
  <line x1="376" x2="389.3333333333333" y1="469.5" y2="469.5" class="net_533"/>
  <line x1="304" x2="609.3333333333334" y1="575.5" y2="575.5" class="net_533"/>
  <line x1="489" x2="515" y1="459.5" y2="459.5" class="net_267"/>
  <line x1="515" x2="515" y1="459.5" y2="555.5" class="net_267"/>
  <circle cx="515" cy="459.5" r="2" style="fill:#000" class="net_267"/>
  <line x1="515" x2="609.3333333333334" y1="555.5" y2="555.5" class="net_267"/>
  <line x1="489" x2="515" y1="459.5" y2="459.5" class="net_267"/>
  <line x1="515" x2="515" y1="459.5" y2="119" class="net_267"/>
  <line x1="515" x2="556.6666666666666" y1="119" y2="119" class="net_267"/>
  <line x1="556.6666666666666" x2="556.6666666666666" y1="119" y2="57" class="net_267"/>
  <line x1="43" x2="84" y1="235.5" y2="235.5" class="net_122,123,124,125,126,127,128,129,130,131,132,133,134,135,136,137"/>
  <line x1="84" x2="84" y1="235.5" y2="52" class="net_122,123,124,125,126,127,128,129,130,131,132,133,134,135,136,137"/>
  <line x1="84" x2="121" y1="52" y2="52" class="net_122,123,124,125,126,127,128,129,130,131,132,133,134,135,136,137"/>
  <line x1="60" x2="121" y1="72" y2="72" class="net_4,5,6,7,8,9,10,11,12"/>
  <line x1="43" x2="94" y1="255.5" y2="255.5" class="net_106,107,108,109,110,111,112,113,114,115,116,117,118,119,120,121"/>
  <line x1="94" x2="94" y1="255.5" y2="140" class="net_106,107,108,109,110,111,112,113,114,115,116,117,118,119,120,121"/>
  <line x1="94" x2="121" y1="140" y2="140" class="net_106,107,108,109,110,111,112,113,114,115,116,117,118,119,120,121"/>
  <line x1="60" x2="121" y1="160" y2="160" class="net_13,14,15,16,17,18,19,20,21"/>
  <line x1="152" x2="206" y1="52" y2="52" class="net_269,270,271,272,273,274,275,276,277,278,279,280,281,282,283,284,285,286,287,288,289,290,291,292"/>
  <line x1="152" x2="169" y1="140" y2="140" class="net_293,294,295,296,297,298,299,300,301,302,303,304,305,306,307,308,309,310,311,312,313,314,315,316"/>
  <line x1="169" x2="169" y1="140" y2="67" class="net_293,294,295,296,297,298,299,300,301,302,303,304,305,306,307,308,309,310,311,312,313,314,315,316"/>
  <line x1="169" x2="206" y1="67" y2="67" class="net_293,294,295,296,297,298,299,300,301,302,303,304,305,306,307,308,309,310,311,312,313,314,315,316"/>
  <line x1="43" x2="201" y1="275.5" y2="275.5" class="net_90,91,92,93,94,95,96,97,98,99,100,101,102,103,104,105"/>
  <line x1="145" x2="169" y1="306.5" y2="306.5" class="net_22,23,24,25,26,27,28,29,30"/>
  <line x1="169" x2="169" y1="306.5" y2="295.5" class="net_22,23,24,25,26,27,28,29,30"/>
  <line x1="169" x2="201" y1="295.5" y2="295.5" class="net_22,23,24,25,26,27,28,29,30"/>
  <line x1="228" x2="295" y1="59.5" y2="59.5" class="net_317,318,319,320,321,322,323,324,325,326,327,328,329,330,331,332,333,334,335,336,337,338,339,340"/>
  <line x1="232" x2="249" y1="275.5" y2="275.5" class="net_341,342,343,344,345,346,347,348,349,350,351,352,353,354,355,356,357,358,359,360,361,362,363,364"/>
  <line x1="249" x2="249" y1="275.5" y2="74.5" class="net_341,342,343,344,345,346,347,348,349,350,351,352,353,354,355,356,357,358,359,360,361,362,363,364"/>
  <line x1="249" x2="295" y1="74.5" y2="74.5" class="net_341,342,343,344,345,346,347,348,349,350,351,352,353,354,355,356,357,358,359,360,361,362,363,364"/>
  <line x1="42.5" x2="42.5" y1="296" y2="326.5" class="net_74,75,76,77,78,79,80,81,82,83,84,85,86,87,88,89"/>
  <line x1="42.5" x2="290.3333333333333" y1="326.5" y2="326.5" class="net_74,75,76,77,78,79,80,81,82,83,84,85,86,87,88,89"/>
  <line x1="225" x2="249" y1="357.5" y2="357.5" class="net_31,32,33,34,35,36,37,38,39"/>
  <line x1="249" x2="249" y1="357.5" y2="346.5" class="net_31,32,33,34,35,36,37,38,39"/>
  <line x1="249" x2="290.3333333333333" y1="346.5" y2="346.5" class="net_31,32,33,34,35,36,37,38,39"/>
  <line x1="317" x2="390.6666666666667" y1="67" y2="67" class="net_365,366,367,368,369,370,371,372,373,374,375,376,377,378,379,380,381,382,383,384,385,386,387,388"/>
  <line x1="321.3333333333333" x2="356" y1="326.5" y2="326.5" class="net_389,390,391,392,393,394,395,396,397,398,399,400,401,402,403,404,405,406,407,408,409,410,411,412"/>
  <line x1="356" x2="356" y1="326.5" y2="82" class="net_389,390,391,392,393,394,395,396,397,398,399,400,401,402,403,404,405,406,407,408,409,410,411,412"/>
  <line x1="356" x2="390.6666666666667" y1="82" y2="82" class="net_389,390,391,392,393,394,395,396,397,398,399,400,401,402,403,404,405,406,407,408,409,410,411,412"/>
  <line x1="701" x2="711" y1="52" y2="52" class="net_57,58,59,60,61,62,63,64,65,66,67,68,69,70,71,72"/>
  <line x1="711" x2="711" y1="52" y2="12" class="net_57,58,59,60,61,62,63,64,65,66,67,68,69,70,71,72"/>
  <line x1="711" x2="525" y1="12" y2="12" class="net_57,58,59,60,61,62,63,64,65,66,67,68,69,70,71,72"/>
  <line x1="525" x2="525" y1="12" y2="32" class="net_57,58,59,60,61,62,63,64,65,66,67,68,69,70,71,72"/>
  <circle cx="711" cy="52" r="2" style="fill:#000" class="net_57,58,59,60,61,62,63,64,65,66,67,68,69,70,71,72"/>
  <line x1="525" x2="546.6666666666666" y1="32" y2="32" class="net_57,58,59,60,61,62,63,64,65,66,67,68,69,70,71,72"/>
  <line x1="701" x2="736" y1="52" y2="52" class="net_57,58,59,60,61,62,63,64,65,66,67,68,69,70,71,72"/>
  <line x1="480" x2="546.6666666666666" y1="52" y2="52" class="net_421,422,423,424,425,426,427,428,429,430,431,432,433,434,435,436"/>
  <line x1="566.6666666666666" x2="609.3333333333334" y1="42" y2="42" class="net_437,438,439,440,441,442,443,444,445,446,447,448,449,450,451,452"/>
  <line x1="570" x2="581" y1="149" y2="149" class="net_535,536,537,538,539,540,541,542,543,544,545,546,547,548,549,550"/>
  <line x1="581" x2="581" y1="149" y2="62" class="net_535,536,537,538,539,540,541,542,543,544,545,546,547,548,549,550"/>
  <line x1="581" x2="609.3333333333334" y1="62" y2="62" class="net_535,536,537,538,539,540,541,542,543,544,545,546,547,548,549,550"/>
  <line x1="414" x2="711" y1="534.5" y2="534.5" class="net_2"/>
  <line x1="711" x2="711" y1="534.5" y2="407.5" class="net_2"/>
  <line x1="711" x2="736" y1="407.5" y2="407.5" class="net_2"/>
  <line x1="414" x2="426" y1="534.5" y2="534.5" class="net_2"/>
  <line x1="426" x2="426" y1="534.5" y2="108" class="net_2"/>
  <line x1="426" x2="646" y1="108" y2="108" class="net_2"/>
  <line x1="646" x2="646" y1="108" y2="72" class="net_2"/>
  <circle cx="426" cy="534.5" r="2" style="fill:#000" class="net_2"/>
  <line x1="646" x2="671" y1="72" y2="72" class="net_2"/>
  <line x1="414" x2="426" y1="534.5" y2="534.5" class="net_2"/>
  <line x1="426" x2="426" y1="534.5" y2="479.5" class="net_2"/>
  <circle cx="426" cy="479.5" r="2" style="fill:#000" class="net_2"/>
  <line x1="426" x2="459" y1="479.5" y2="479.5" class="net_2"/>
  <line x1="414" x2="426" y1="534.5" y2="534.5" class="net_2"/>
  <line x1="426" x2="426" y1="534.5" y2="606.5" class="net_2"/>
  <line x1="426" x2="646" y1="606.5" y2="606.5" class="net_2"/>
  <line x1="646" x2="646" y1="606.5" y2="585.5" class="net_2"/>
  <line x1="646" x2="671" y1="585.5" y2="585.5" class="net_2"/>
  <line x1="694.3333333333334" x2="736" y1="387.5" y2="387.5" class="net_202,203,204,205,206,207,208,209,210,211,212,213,214,215,216,217,218,219,220,221,222,223,224,225,226,227,228,229,230,231,232,233,234,235,236,237,238,239,240,241,242,243,244,245,246,247,248,249,250,251,252,253,254,255,256,257,258,259,260,261,262,263,264,265"/>
  <line x1="629.3333333333334" x2="671" y1="52" y2="52" class="net_453,454,455,456,457,458,459,460,461,462,463,464,465,466,467,468"/>
  <line x1="409.3333333333333" x2="459" y1="459.5" y2="459.5" class="net_266"/>
  <line x1="629.3333333333334" x2="671" y1="565.5" y2="565.5" class="net_268"/>
  <line x1="701" x2="736" y1="565.5" y2="565.5" class="net_73"/>
  <line x1="43" x2="104" y1="215.5" y2="215.5" class="net_90,91,92,93,94,95,96,97,98,99,100,101,102,103,104,105,106,107,108,109,110,111,112,113,114,115,116,117,118,119,120,121,122,123,124,125,126,127,128,129,130,131,132,133,134,135,136,137"/>
  <line x1="104" x2="104" y1="215.5" y2="377.5" class="net_90,91,92,93,94,95,96,97,98,99,100,101,102,103,104,105,106,107,108,109,110,111,112,113,114,115,116,117,118,119,120,121,122,123,124,125,126,127,128,129,130,131,132,133,134,135,136,137"/>
  <line x1="104" x2="565" y1="377.5" y2="377.5" class="net_90,91,92,93,94,95,96,97,98,99,100,101,102,103,104,105,106,107,108,109,110,111,112,113,114,115,116,117,118,119,120,121,122,123,124,125,126,127,128,129,130,131,132,133,134,135,136,137"/>
  <line x1="479" x2="525" y1="408.5" y2="408.5" class="net_40,41,42,43,44,45,46,47,48,49,50,51,52,53,54,55"/>
  <line x1="525" x2="525" y1="408.5" y2="397.5" class="net_40,41,42,43,44,45,46,47,48,49,50,51,52,53,54,55"/>
  <line x1="525" x2="565" y1="397.5" y2="397.5" class="net_40,41,42,43,44,45,46,47,48,49,50,51,52,53,54,55"/>
  <line x1="412.6666666666667" x2="475.5" y1="74.5" y2="74.5" class="net_413,414,415,416,417,418,419,420,421,422,423,424,425,426,427,428,429,430,431,432,433,434,435,436"/>
  <line x1="475.5" x2="475.5" y1="74.5" y2="62.5" class="net_413,414,415,416,417,418,419,420,421,422,423,424,425,426,427,428,429,430,431,432,433,434,435,436"/>
</svg>
