<svg xmlns="http://www.w3.org/2000/svg" xmlns:xlink="http://www.w3.org/1999/xlink" xmlns:s="https://github.com/nturley/netlistsvg" width="657" height="552">
  <style>svg {
    stroke:#000;
    fill:none;
  }
  text {
    fill:#000;
    stroke:none;
    font-size:10px;
    font-weight: bold;
    font-family: "Courier New", monospace;
  }
  .nodelabel {
    text-anchor: middle;
  }
  .inputPortLabel {
    text-anchor: end;
  }
  .splitjoinBody {
    fill:#000;
  }</style>
  <g s:type="add" transform="translate(80.33333333333333,22)" s:width="25" s:height="25" id="cell_$add$../vga_driver/vga_controller.v:56$14">
    <s:alias val="$add"/>
    <circle r="12.5" cx="12.5" cy="12.5" class="cell_$add$../vga_driver/vga_controller.v:56$14"/>
    <line x1="7.5" x2="17.5" y1="12.5" y2="12.5" class="cell_$add$../vga_driver/vga_controller.v:56$14"/>
    <line x1="12.5" x2="12.5" y1="7.5" y2="17.5" class="cell_$add$../vga_driver/vga_controller.v:56$14"/>
    <g s:x="3" s:y="5" s:pid="A"/>
    <g s:x="3" s:y="20" s:pid="B"/>
    <g s:x="25" s:y="12.5" s:pid="Y"/>
  </g>
  <g s:type="add" transform="translate(80.33333333333333,388)" s:width="25" s:height="25" id="cell_$add$../vga_driver/vga_controller.v:64$16">
    <s:alias val="$add"/>
    <circle r="12.5" cx="12.5" cy="12.5" class="cell_$add$../vga_driver/vga_controller.v:64$16"/>
    <line x1="7.5" x2="17.5" y1="12.5" y2="12.5" class="cell_$add$../vga_driver/vga_controller.v:64$16"/>
    <line x1="12.5" x2="12.5" y1="7.5" y2="17.5" class="cell_$add$../vga_driver/vga_controller.v:64$16"/>
    <g s:x="3" s:y="5" s:pid="A"/>
    <g s:x="3" s:y="20" s:pid="B"/>
    <g s:x="25" s:y="12.5" s:pid="Y"/>
  </g>
  <g s:type="eq" transform="translate(80.33333333333333,258)" s:width="25" s:height="25" id="cell_$eq$../vga_driver/vga_controller.v:35$1">
    <s:alias val="$eq"/>
    <circle r="12.5" cx="12.5" cy="12.5" class="cell_$eq$../vga_driver/vga_controller.v:35$1"/>
    <line x1="7.5" x2="17.5" y1="10" y2="10" class="cell_$eq$../vga_driver/vga_controller.v:35$1"/>
    <line x1="7.5" x2="17.5" y1="15" y2="15" class="cell_$eq$../vga_driver/vga_controller.v:35$1"/>
    <g s:x="3" s:y="5" s:pid="A"/>
    <g s:x="3" s:y="20" s:pid="B"/>
    <g s:x="25" s:y="12.5" s:pid="Y"/>
  </g>
  <g s:type="eq" transform="translate(80.33333333333333,323)" s:width="25" s:height="25" id="cell_$eq$../vga_driver/vga_controller.v:36$2">
    <s:alias val="$eq"/>
    <circle r="12.5" cx="12.5" cy="12.5" class="cell_$eq$../vga_driver/vga_controller.v:36$2"/>
    <line x1="7.5" x2="17.5" y1="10" y2="10" class="cell_$eq$../vga_driver/vga_controller.v:36$2"/>
    <line x1="7.5" x2="17.5" y1="15" y2="15" class="cell_$eq$../vga_driver/vga_controller.v:36$2"/>
    <g s:x="3" s:y="5" s:pid="A"/>
    <g s:x="3" s:y="20" s:pid="B"/>
    <g s:x="25" s:y="12.5" s:pid="Y"/>
  </g>
  <g s:type="ge" transform="translate(278.6666666666667,122)" s:width="25" s:height="25" id="cell_$ge$../vga_driver/vga_controller.v:37$3">
    <s:alias val="$ge"/>
    <circle r="12.5" cx="12.5" cy="12.5" class="cell_$ge$../vga_driver/vga_controller.v:37$3"/>
    <line x1="7.5" x2="17.5" y1="7.5" y2="12.5" class="cell_$ge$../vga_driver/vga_controller.v:37$3"/>
    <line x1="7.5" x2="17.5" y1="17.5" y2="12.5" class="cell_$ge$../vga_driver/vga_controller.v:37$3"/>
    <line x1="7.5" x2="17.5" y1="20" y2="15" class="cell_$ge$../vga_driver/vga_controller.v:37$3"/>
    <g s:x="3" s:y="5" s:pid="A"/>
    <g s:x="3" s:y="20" s:pid="B"/>
    <g s:x="25" s:y="12.5" s:pid="Y"/>
  </g>
  <g s:type="ge" transform="translate(343.6666666666667,247)" s:width="25" s:height="25" id="cell_$ge$../vga_driver/vga_controller.v:38$6">
    <s:alias val="$ge"/>
    <circle r="12.5" cx="12.5" cy="12.5" class="cell_$ge$../vga_driver/vga_controller.v:38$6"/>
    <line x1="7.5" x2="17.5" y1="7.5" y2="12.5" class="cell_$ge$../vga_driver/vga_controller.v:38$6"/>
    <line x1="7.5" x2="17.5" y1="17.5" y2="12.5" class="cell_$ge$../vga_driver/vga_controller.v:38$6"/>
    <line x1="7.5" x2="17.5" y1="20" y2="15" class="cell_$ge$../vga_driver/vga_controller.v:38$6"/>
    <g s:x="3" s:y="5" s:pid="A"/>
    <g s:x="3" s:y="20" s:pid="B"/>
    <g s:x="25" s:y="12.5" s:pid="Y"/>
  </g>
  <g s:type="gt" transform="translate(543,97)" s:width="25" s:height="25" id="cell_$gt$../vga_driver/vga_controller.v:43$10">
    <s:alias val="$gt"/>
    <circle r="12.5" cx="12.5" cy="12.5" class="cell_$gt$../vga_driver/vga_controller.v:43$10"/>
    <line x1="7.5" x2="17.5" y1="7.5" y2="12.5" class="cell_$gt$../vga_driver/vga_controller.v:43$10"/>
    <line x1="7.5" x2="17.5" y1="17.5" y2="12.5" class="cell_$gt$../vga_driver/vga_controller.v:43$10"/>
    <g s:x="3" s:y="5" s:pid="A"/>
    <g s:x="3" s:y="20" s:pid="B"/>
    <g s:x="25" s:y="12.5" s:pid="Y"/>
  </g>
  <g s:type="gt" transform="translate(543,452.5)" s:width="25" s:height="25" id="cell_$gt$../vga_driver/vga_controller.v:44$11">
    <s:alias val="$gt"/>
    <circle r="12.5" cx="12.5" cy="12.5" class="cell_$gt$../vga_driver/vga_controller.v:44$11"/>
    <line x1="7.5" x2="17.5" y1="7.5" y2="12.5" class="cell_$gt$../vga_driver/vga_controller.v:44$11"/>
    <line x1="7.5" x2="17.5" y1="17.5" y2="12.5" class="cell_$gt$../vga_driver/vga_controller.v:44$11"/>
    <g s:x="3" s:y="5" s:pid="A"/>
    <g s:x="3" s:y="20" s:pid="B"/>
    <g s:x="25" s:y="12.5" s:pid="Y"/>
  </g>
  <g s:type="and" transform="translate(342,179.5)" s:width="30" s:height="25" id="cell_$logic_and$../vga_driver/vga_controller.v:37$5">
    <s:alias val="$and"/>
    <s:alias val="$logic_and"/>
    <s:alias val="$_AND_"/>
    <path d="M0,0 L0,25 L15,25 A15 12.5 0 0 0 15,0 Z" class="cell_$logic_and$../vga_driver/vga_controller.v:37$5"/>
    <g s:x="0" s:y="5" s:pid="A"/>
    <g s:x="0" s:y="20" s:pid="B"/>
    <g s:x="30" s:y="12.5" s:pid="Y"/>
  </g>
  <g s:type="and" transform="translate(407,239.5)" s:width="30" s:height="25" id="cell_$logic_and$../vga_driver/vga_controller.v:37$7">
    <s:alias val="$and"/>
    <s:alias val="$logic_and"/>
    <s:alias val="$_AND_"/>
    <path d="M0,0 L0,25 L15,25 A15 12.5 0 0 0 15,0 Z" class="cell_$logic_and$../vga_driver/vga_controller.v:37$7"/>
    <g s:x="0" s:y="5" s:pid="A"/>
    <g s:x="0" s:y="20" s:pid="B"/>
    <g s:x="30" s:y="12.5" s:pid="Y"/>
  </g>
  <g s:type="and" transform="translate(474,292)" s:width="30" s:height="25" id="cell_$logic_and$../vga_driver/vga_controller.v:37$9">
    <s:alias val="$and"/>
    <s:alias val="$logic_and"/>
    <s:alias val="$_AND_"/>
    <path d="M0,0 L0,25 L15,25 A15 12.5 0 0 0 15,0 Z" class="cell_$logic_and$../vga_driver/vga_controller.v:37$9"/>
    <g s:x="0" s:y="5" s:pid="A"/>
    <g s:x="0" s:y="20" s:pid="B"/>
    <g s:x="30" s:y="12.5" s:pid="Y"/>
  </g>
  <g s:type="lt" transform="translate(278.6666666666667,187)" s:width="25" s:height="25" id="cell_$lt$../vga_driver/vga_controller.v:37$4">
    <s:alias val="$lt"/>
    <circle r="12.5" cx="12.5" cy="12.5" class="cell_$lt$../vga_driver/vga_controller.v:37$4"/>
    <line x1="7.5" x2="17.5" y1="12.5" y2="7.5" class="cell_$lt$../vga_driver/vga_controller.v:37$4"/>
    <line x1="7.5" x2="17.5" y1="12.5" y2="17.5" class="cell_$lt$../vga_driver/vga_controller.v:37$4"/>
    <g s:x="3" s:y="5" s:pid="A"/>
    <g s:x="3" s:y="20" s:pid="B"/>
    <g s:x="25" s:y="12.5" s:pid="Y"/>
  </g>
  <g s:type="lt" transform="translate(408.6666666666667,299.5)" s:width="25" s:height="25" id="cell_$lt$../vga_driver/vga_controller.v:38$8">
    <s:alias val="$lt"/>
    <circle r="12.5" cx="12.5" cy="12.5" class="cell_$lt$../vga_driver/vga_controller.v:38$8"/>
    <line x1="7.5" x2="17.5" y1="12.5" y2="7.5" class="cell_$lt$../vga_driver/vga_controller.v:38$8"/>
    <line x1="7.5" x2="17.5" y1="12.5" y2="17.5" class="cell_$lt$../vga_driver/vga_controller.v:38$8"/>
    <g s:x="3" s:y="5" s:pid="A"/>
    <g s:x="3" s:y="20" s:pid="B"/>
    <g s:x="25" s:y="12.5" s:pid="Y"/>
  </g>
  <g s:type="dff" transform="translate(277,329.5)" s:width="30" s:height="40" id="cell_$procdff$6190">
    <s:alias val="$dff"/>
    <s:alias val="$_DFF_"/>
    <s:alias val="$_DFF_P_"/>
    <rect width="30" height="40" x="0" y="0" class="cell_$procdff$6190"/>
    <path d="M0,35 L5,30 L0,25" class="cell_$procdff$6190"/>
    <g s:x="30" s:y="10" s:pid="Q"/>
    <g s:x="0" s:y="30" s:pid="CLK"/>
    <g s:x="0" s:y="30" s:pid="C"/>
    <g s:x="0" s:y="10" s:pid="D"/>
  </g>
  <g s:type="dff" transform="translate(212,34.5)" s:width="30" s:height="40" id="cell_$procdff$6191">
    <s:alias val="$dff"/>
    <s:alias val="$_DFF_"/>
    <s:alias val="$_DFF_P_"/>
    <rect width="30" height="40" x="0" y="0" class="cell_$procdff$6191"/>
    <path d="M0,35 L5,30 L0,25" class="cell_$procdff$6191"/>
    <g s:x="30" s:y="10" s:pid="Q"/>
    <g s:x="0" s:y="30" s:pid="CLK"/>
    <g s:x="0" s:y="30" s:pid="C"/>
    <g s:x="0" s:y="10" s:pid="D"/>
  </g>
  <g s:type="mux" transform="translate(150.33333333333334,390.5)" s:width="20" s:height="40" id="cell_$procmux$6183">
    <s:alias val="$pmux"/>
    <s:alias val="$mux"/>
    <s:alias val="$_MUX_"/>
    <path d="M0,0 L20,10 L20,30 L0,40 Z" class="cell_$procmux$6183"/>
    <g s:x="0" s:y="10" s:pid="A"/>
    <g s:x="0" s:y="30" s:pid="B"/>
    <g s:x="10" s:y="35" s:pid="S"/>
    <g s:x="20" s:y="20" s:pid="Y"/>
  </g>
  <g s:type="mux" transform="translate(218.66666666666666,380.5)" s:width="20" s:height="40" id="cell_$procmux$6185">
    <s:alias val="$pmux"/>
    <s:alias val="$mux"/>
    <s:alias val="$_MUX_"/>
    <path d="M0,0 L20,10 L20,30 L0,40 Z" class="cell_$procmux$6185"/>
    <g s:x="0" s:y="10" s:pid="A"/>
    <g s:x="0" s:y="30" s:pid="B"/>
    <g s:x="10" s:y="35" s:pid="S"/>
    <g s:x="20" s:y="20" s:pid="Y"/>
  </g>
  <g s:type="mux" transform="translate(150.33333333333334,24.5)" s:width="20" s:height="40" id="cell_$procmux$6188">
    <s:alias val="$pmux"/>
    <s:alias val="$mux"/>
    <s:alias val="$_MUX_"/>
    <path d="M0,0 L20,10 L20,30 L0,40 Z" class="cell_$procmux$6188"/>
    <g s:x="0" s:y="10" s:pid="A"/>
    <g s:x="0" s:y="30" s:pid="B"/>
    <g s:x="10" s:y="35" s:pid="S"/>
    <g s:x="20" s:y="20" s:pid="Y"/>
  </g>
  <g s:type="mux" transform="translate(544.6666666666666,217)" s:width="20" s:height="40" id="cell_$ternary$../vga_driver/vga_controller.v:45$12">
    <s:alias val="$pmux"/>
    <s:alias val="$mux"/>
    <s:alias val="$_MUX_"/>
    <path d="M0,0 L20,10 L20,30 L0,40 Z" class="cell_$ternary$../vga_driver/vga_controller.v:45$12"/>
    <g s:x="0" s:y="10" s:pid="A"/>
    <g s:x="0" s:y="30" s:pid="B"/>
    <g s:x="10" s:y="35" s:pid="S"/>
    <g s:x="20" s:y="20" s:pid="Y"/>
  </g>
  <g s:type="inputExt" transform="translate(147,283)" s:width="30" s:height="20" id="cell_clk">
    <text x="15" y="-4" class="nodelabel cell_clk" s:attribute="ref">clk</text>
    <s:alias val="$_inputExt_"/>
    <path d="M0,0 L0,20 L15,20 L30,10 L15,0 Z" class="cell_clk"/>
    <g s:x="28" s:y="10" s:pid="Y"/>
  </g>
  <g s:type="inputExt" transform="translate(472,237)" s:width="30" s:height="20" id="cell_rgb_in">
    <text x="15" y="-4" class="nodelabel cell_rgb_in" s:attribute="ref">rgb_in</text>
    <s:alias val="$_inputExt_"/>
    <path d="M0,0 L0,20 L15,20 L30,10 L15,0 Z" class="cell_rgb_in"/>
    <g s:x="28" s:y="10" s:pid="Y"/>
  </g>
  <g s:type="outputExt" transform="translate(603,227)" s:width="30" s:height="20" id="cell_rgb_out">
    <text x="15" y="-4" class="nodelabel cell_rgb_out" s:attribute="ref">rgb_out</text>
    <s:alias val="$_outputExt_"/>
    <path d="M30,0 L30,20 L15,20 L0,10 L15,0 Z" class="cell_rgb_out"/>
    <g s:x="0" s:y="10" s:pid="A"/>
  </g>
  <g s:type="outputExt" transform="translate(603,99.5)" s:width="30" s:height="20" id="cell_hsync">
    <text x="15" y="-4" class="nodelabel cell_hsync" s:attribute="ref">hsync</text>
    <s:alias val="$_outputExt_"/>
    <path d="M30,0 L30,20 L15,20 L0,10 L15,0 Z" class="cell_hsync"/>
    <g s:x="0" s:y="10" s:pid="A"/>
  </g>
  <g s:type="outputExt" transform="translate(603,455)" s:width="30" s:height="20" id="cell_vsync">
    <text x="15" y="-4" class="nodelabel cell_vsync" s:attribute="ref">vsync</text>
    <s:alias val="$_outputExt_"/>
    <path d="M30,0 L30,20 L15,20 L0,10 L15,0 Z" class="cell_vsync"/>
    <g s:x="0" s:y="10" s:pid="A"/>
  </g>
  <g s:type="outputExt" transform="translate(603,34.5)" s:width="30" s:height="20" id="cell_hpos">
    <text x="15" y="-4" class="nodelabel cell_hpos" s:attribute="ref">hpos</text>
    <s:alias val="$_outputExt_"/>
    <path d="M30,0 L30,20 L15,20 L0,10 L15,0 Z" class="cell_hpos"/>
    <g s:x="0" s:y="10" s:pid="A"/>
  </g>
  <g s:type="outputExt" transform="translate(603,520)" s:width="30" s:height="20" id="cell_vpos">
    <text x="15" y="-4" class="nodelabel cell_vpos" s:attribute="ref">vpos</text>
    <s:alias val="$_outputExt_"/>
    <path d="M30,0 L30,20 L15,20 L0,10 L15,0 Z" class="cell_vpos"/>
    <g s:x="0" s:y="10" s:pid="A"/>
  </g>
  <g s:type="constant" transform="translate(12,398)" s:width="30" s:height="20" id="cell_1">
    <text x="15" y="-4" class="nodelabel cell_1" s:attribute="ref">1</text>
    <s:alias val="$_constant_"/>
    <rect width="30" height="20" class="cell_1"/>
    <g s:x="30" s:y="10" s:pid="Y"/>
  </g>
  <g s:type="constant" transform="translate(12,268)" s:width="30" s:height="20" id="cell_1100011111">
    <text x="15" y="-4" class="nodelabel cell_1100011111" s:attribute="ref">0x31f</text>
    <s:alias val="$_constant_"/>
    <rect width="30" height="20" class="cell_1100011111"/>
    <g s:x="30" s:y="10" s:pid="Y"/>
  </g>
  <g s:type="constant" transform="translate(12,333)" s:width="30" s:height="20" id="cell_1000001100">
    <text x="15" y="-4" class="nodelabel cell_1000001100" s:attribute="ref">0x20c</text>
    <s:alias val="$_constant_"/>
    <rect width="30" height="20" class="cell_1000001100"/>
    <g s:x="30" s:y="10" s:pid="Y"/>
  </g>
  <g s:type="constant" transform="translate(212,132)" s:width="30" s:height="20" id="cell_10001111">
    <text x="15" y="-4" class="nodelabel cell_10001111" s:attribute="ref">0x8f</text>
    <s:alias val="$_constant_"/>
    <rect width="30" height="20" class="cell_10001111"/>
    <g s:x="30" s:y="10" s:pid="Y"/>
  </g>
  <g s:type="constant" transform="translate(277,257)" s:width="30" s:height="20" id="cell_100010">
    <text x="15" y="-4" class="nodelabel cell_100010" s:attribute="ref">0x22</text>
    <s:alias val="$_constant_"/>
    <rect width="30" height="20" class="cell_100010"/>
    <g s:x="30" s:y="10" s:pid="Y"/>
  </g>
  <g s:type="constant" transform="translate(472,107)" s:width="30" s:height="20" id="cell_1011111">
    <text x="15" y="-4" class="nodelabel cell_1011111" s:attribute="ref">0x5f</text>
    <s:alias val="$_constant_"/>
    <rect width="30" height="20" class="cell_1011111"/>
    <g s:x="30" s:y="10" s:pid="Y"/>
  </g>
  <g s:type="constant" transform="translate(212,197)" s:width="30" s:height="20" id="cell_1100001111">
    <text x="15" y="-4" class="nodelabel cell_1100001111" s:attribute="ref">0x30f</text>
    <s:alias val="$_constant_"/>
    <rect width="30" height="20" class="cell_1100001111"/>
    <g s:x="30" s:y="10" s:pid="Y"/>
  </g>
  <g s:type="constant" transform="translate(342,309.5)" s:width="30" s:height="20" id="cell_1000000010">
    <text x="15" y="-4" class="nodelabel cell_1000000010" s:attribute="ref">0x202</text>
    <s:alias val="$_constant_"/>
    <rect width="30" height="20" class="cell_1000000010"/>
    <g s:x="30" s:y="10" s:pid="Y"/>
  </g>
  <g s:type="constant" transform="translate(77,203)" s:width="30" s:height="20" id="cell_00000000000">
    <text x="15" y="-4" class="nodelabel cell_00000000000" s:attribute="ref">0x0</text>
    <s:alias val="$_constant_"/>
    <rect width="30" height="20" class="cell_00000000000"/>
    <g s:x="30" s:y="10" s:pid="Y"/>
  </g>
  <g s:type="constant" transform="translate(472,172)" s:width="30" s:height="20" id="cell_000">
    <text x="15" y="-4" class="nodelabel cell_000" s:attribute="ref">000</text>
    <s:alias val="$_constant_"/>
    <rect width="30" height="20" class="cell_000"/>
    <g s:x="30" s:y="10" s:pid="Y"/>
  </g>
  <line x1="242" x2="252" y1="44.5" y2="44.5" class="net_11,12,13,14,15,16,17,18,19,20,21"/>
  <line x1="252" x2="252" y1="44.5" y2="12" class="net_11,12,13,14,15,16,17,18,19,20,21"/>
  <line x1="252" x2="62" y1="12" y2="12" class="net_11,12,13,14,15,16,17,18,19,20,21"/>
  <line x1="62" x2="62" y1="12" y2="27" class="net_11,12,13,14,15,16,17,18,19,20,21"/>
  <circle cx="252" cy="44.5" r="2" style="fill:#000" class="net_11,12,13,14,15,16,17,18,19,20,21"/>
  <line x1="62" x2="83.33333333333333" y1="27" y2="27" class="net_11,12,13,14,15,16,17,18,19,20,21"/>
  <line x1="242" x2="252" y1="44.5" y2="44.5" class="net_11,12,13,14,15,16,17,18,19,20,21"/>
  <line x1="252" x2="252" y1="44.5" y2="112" class="net_11,12,13,14,15,16,17,18,19,20,21"/>
  <line x1="252" x2="62" y1="112" y2="112" class="net_11,12,13,14,15,16,17,18,19,20,21"/>
  <line x1="62" x2="62" y1="112" y2="263" class="net_11,12,13,14,15,16,17,18,19,20,21"/>
  <circle cx="252" cy="112" r="2" style="fill:#000" class="net_11,12,13,14,15,16,17,18,19,20,21"/>
  <line x1="62" x2="83.33333333333333" y1="263" y2="263" class="net_11,12,13,14,15,16,17,18,19,20,21"/>
  <line x1="242" x2="252" y1="44.5" y2="44.5" class="net_11,12,13,14,15,16,17,18,19,20,21"/>
  <line x1="252" x2="252" y1="44.5" y2="127" class="net_11,12,13,14,15,16,17,18,19,20,21"/>
  <circle cx="252" cy="127" r="2" style="fill:#000" class="net_11,12,13,14,15,16,17,18,19,20,21"/>
  <line x1="252" x2="281.6666666666667" y1="127" y2="127" class="net_11,12,13,14,15,16,17,18,19,20,21"/>
  <line x1="242" x2="518" y1="44.5" y2="44.5" class="net_11,12,13,14,15,16,17,18,19,20,21"/>
  <line x1="518" x2="518" y1="44.5" y2="102" class="net_11,12,13,14,15,16,17,18,19,20,21"/>
  <circle cx="518" cy="44.5" r="2" style="fill:#000" class="net_11,12,13,14,15,16,17,18,19,20,21"/>
  <line x1="518" x2="546" y1="102" y2="102" class="net_11,12,13,14,15,16,17,18,19,20,21"/>
  <line x1="242" x2="252" y1="44.5" y2="44.5" class="net_11,12,13,14,15,16,17,18,19,20,21"/>
  <line x1="252" x2="252" y1="44.5" y2="192" class="net_11,12,13,14,15,16,17,18,19,20,21"/>
  <line x1="252" x2="281.6666666666667" y1="192" y2="192" class="net_11,12,13,14,15,16,17,18,19,20,21"/>
  <line x1="242" x2="603" y1="44.5" y2="44.5" class="net_11,12,13,14,15,16,17,18,19,20,21"/>
  <line x1="42" x2="52" y1="408" y2="408" class="net_97"/>
  <line x1="52" x2="52" y1="408" y2="42" class="net_97"/>
  <circle cx="52" cy="408" r="2" style="fill:#000" class="net_97"/>
  <line x1="52" x2="83.33333333333333" y1="42" y2="42" class="net_97"/>
  <line x1="42" x2="83.33333333333333" y1="408" y2="408" class="net_97"/>
  <line x1="42" x2="52" y1="408" y2="408" class="net_97"/>
  <line x1="52" x2="52" y1="408" y2="472.5" class="net_97"/>
  <line x1="52" x2="546" y1="472.5" y2="472.5" class="net_97"/>
  <line x1="307" x2="317" y1="339.5" y2="339.5" class="net_22,23,24,25,26,27,28,29,30,31,32"/>
  <line x1="317" x2="317" y1="339.5" y2="461.5" class="net_22,23,24,25,26,27,28,29,30,31,32"/>
  <line x1="317" x2="62" y1="461.5" y2="461.5" class="net_22,23,24,25,26,27,28,29,30,31,32"/>
  <line x1="62" x2="62" y1="461.5" y2="393" class="net_22,23,24,25,26,27,28,29,30,31,32"/>
  <line x1="62" x2="83.33333333333333" y1="393" y2="393" class="net_22,23,24,25,26,27,28,29,30,31,32"/>
  <line x1="307" x2="317" y1="339.5" y2="339.5" class="net_22,23,24,25,26,27,28,29,30,31,32"/>
  <line x1="317" x2="317" y1="339.5" y2="313" class="net_22,23,24,25,26,27,28,29,30,31,32"/>
  <line x1="317" x2="62" y1="313" y2="313" class="net_22,23,24,25,26,27,28,29,30,31,32"/>
  <line x1="62" x2="62" y1="313" y2="328" class="net_22,23,24,25,26,27,28,29,30,31,32"/>
  <circle cx="317" cy="313" r="2" style="fill:#000" class="net_22,23,24,25,26,27,28,29,30,31,32"/>
  <circle cx="317" cy="339.5" r="2" style="fill:#000" class="net_22,23,24,25,26,27,28,29,30,31,32"/>
  <line x1="62" x2="83.33333333333333" y1="328" y2="328" class="net_22,23,24,25,26,27,28,29,30,31,32"/>
  <line x1="307" x2="317" y1="339.5" y2="339.5" class="net_22,23,24,25,26,27,28,29,30,31,32"/>
  <line x1="317" x2="317" y1="339.5" y2="252" class="net_22,23,24,25,26,27,28,29,30,31,32"/>
  <line x1="317" x2="346.6666666666667" y1="252" y2="252" class="net_22,23,24,25,26,27,28,29,30,31,32"/>
  <line x1="307" x2="518" y1="339.5" y2="339.5" class="net_22,23,24,25,26,27,28,29,30,31,32"/>
  <line x1="518" x2="518" y1="339.5" y2="457.5" class="net_22,23,24,25,26,27,28,29,30,31,32"/>
  <line x1="518" x2="546" y1="457.5" y2="457.5" class="net_22,23,24,25,26,27,28,29,30,31,32"/>
  <line x1="307" x2="317" y1="339.5" y2="339.5" class="net_22,23,24,25,26,27,28,29,30,31,32"/>
  <line x1="317" x2="317" y1="339.5" y2="288.5" class="net_22,23,24,25,26,27,28,29,30,31,32"/>
  <line x1="317" x2="382" y1="288.5" y2="288.5" class="net_22,23,24,25,26,27,28,29,30,31,32"/>
  <line x1="382" x2="382" y1="288.5" y2="304.5" class="net_22,23,24,25,26,27,28,29,30,31,32"/>
  <circle cx="317" cy="288.5" r="2" style="fill:#000" class="net_22,23,24,25,26,27,28,29,30,31,32"/>
  <line x1="382" x2="411.6666666666667" y1="304.5" y2="304.5" class="net_22,23,24,25,26,27,28,29,30,31,32"/>
  <line x1="307" x2="317" y1="339.5" y2="339.5" class="net_22,23,24,25,26,27,28,29,30,31,32"/>
  <line x1="317" x2="317" y1="339.5" y2="461.5" class="net_22,23,24,25,26,27,28,29,30,31,32"/>
  <line x1="317" x2="262" y1="461.5" y2="461.5" class="net_22,23,24,25,26,27,28,29,30,31,32"/>
  <line x1="262" x2="262" y1="461.5" y2="370.5" class="net_22,23,24,25,26,27,28,29,30,31,32"/>
  <line x1="262" x2="187" y1="370.5" y2="370.5" class="net_22,23,24,25,26,27,28,29,30,31,32"/>
  <line x1="187" x2="187" y1="370.5" y2="390.5" class="net_22,23,24,25,26,27,28,29,30,31,32"/>
  <circle cx="262" cy="461.5" r="2" style="fill:#000" class="net_22,23,24,25,26,27,28,29,30,31,32"/>
  <circle cx="317" cy="461.5" r="2" style="fill:#000" class="net_22,23,24,25,26,27,28,29,30,31,32"/>
  <line x1="187" x2="218.66666666666666" y1="390.5" y2="390.5" class="net_22,23,24,25,26,27,28,29,30,31,32"/>
  <line x1="307" x2="317" y1="339.5" y2="339.5" class="net_22,23,24,25,26,27,28,29,30,31,32"/>
  <line x1="317" x2="317" y1="339.5" y2="530" class="net_22,23,24,25,26,27,28,29,30,31,32"/>
  <line x1="317" x2="603" y1="530" y2="530" class="net_22,23,24,25,26,27,28,29,30,31,32"/>
  <line x1="42" x2="83.33333333333333" y1="278" y2="278" class="net_99,100,101,102,103,104,105,106,107,108"/>
  <line x1="42" x2="83.33333333333333" y1="343" y2="343" class="net_109,110,111,112,113,114,115,116,117,118"/>
  <line x1="242" x2="281.6666666666667" y1="142" y2="142" class="net_119,120,121,122,123,124,125,126"/>
  <line x1="307" x2="346.6666666666667" y1="267" y2="267" class="net_127,128,129,130,131,132"/>
  <line x1="502" x2="546" y1="117" y2="117" class="net_133,134,135,136,137,138,139"/>
  <line x1="303.6666666666667" x2="317" y1="134.5" y2="134.5" class="net_57"/>
  <line x1="317" x2="317" y1="134.5" y2="184.5" class="net_57"/>
  <line x1="317" x2="342" y1="184.5" y2="184.5" class="net_57"/>
  <line x1="303.6666666666667" x2="342" y1="199.5" y2="199.5" class="net_59"/>
  <line x1="372" x2="382" y1="192" y2="192" class="net_60"/>
  <line x1="382" x2="382" y1="192" y2="244.5" class="net_60"/>
  <line x1="382" x2="407" y1="244.5" y2="244.5" class="net_60"/>
  <line x1="368.6666666666667" x2="407" y1="259.5" y2="259.5" class="net_58"/>
  <line x1="437" x2="447" y1="252" y2="252" class="net_61"/>
  <line x1="447" x2="447" y1="252" y2="297" class="net_61"/>
  <line x1="447" x2="474" y1="297" y2="297" class="net_61"/>
  <line x1="433.6666666666667" x2="474" y1="312" y2="312" class="net_62"/>
  <line x1="242" x2="281.6666666666667" y1="207" y2="207" class="net_141,142,143,144,145,146,147,148,149,150"/>
  <line x1="372" x2="411.6666666666667" y1="319.5" y2="319.5" class="net_151,152,153,154,155,156,157,158,159,160"/>
  <line x1="175" x2="187" y1="293" y2="293" class="net_2"/>
  <line x1="187" x2="187" y1="293" y2="359.5" class="net_2"/>
  <circle cx="187" cy="293" r="2" style="fill:#000" class="net_2"/>
  <line x1="187" x2="277" y1="359.5" y2="359.5" class="net_2"/>
  <line x1="175" x2="187" y1="293" y2="293" class="net_2"/>
  <line x1="187" x2="187" y1="293" y2="64.5" class="net_2"/>
  <line x1="187" x2="212" y1="64.5" y2="64.5" class="net_2"/>
  <line x1="238.66666666666666" x2="252" y1="400.5" y2="400.5" class="net_64,65,66,67,68,69,70,71,72,73,74"/>
  <line x1="252" x2="252" y1="400.5" y2="339.5" class="net_64,65,66,67,68,69,70,71,72,73,74"/>
  <line x1="252" x2="277" y1="339.5" y2="339.5" class="net_64,65,66,67,68,69,70,71,72,73,74"/>
  <line x1="170.33333333333334" x2="212" y1="44.5" y2="44.5" class="net_75,76,77,78,79,80,81,82,83,84,85"/>
  <line x1="105.33333333333333" x2="150.33333333333334" y1="400.5" y2="400.5" class="net_44,45,46,47,48,49,50,51,52,53,54"/>
  <line x1="107" x2="137" y1="213" y2="213" class="net_161,162,163,164,165,166,167,168,169,170,171"/>
  <line x1="137" x2="137" y1="213" y2="420.5" class="net_161,162,163,164,165,166,167,168,169,170,171"/>
  <circle cx="137" cy="213" r="2" style="fill:#000" class="net_161,162,163,164,165,166,167,168,169,170,171"/>
  <line x1="137" x2="150.33333333333334" y1="420.5" y2="420.5" class="net_161,162,163,164,165,166,167,168,169,170,171"/>
  <line x1="107" x2="137" y1="213" y2="213" class="net_161,162,163,164,165,166,167,168,169,170,171"/>
  <line x1="137" x2="137" y1="213" y2="54.5" class="net_161,162,163,164,165,166,167,168,169,170,171"/>
  <line x1="137" x2="150.33333333333334" y1="54.5" y2="54.5" class="net_161,162,163,164,165,166,167,168,169,170,171"/>
  <line x1="105.33333333333333" x2="117" y1="335.5" y2="335.5" class="net_56"/>
  <line x1="117" x2="117" y1="335.5" y2="440.5" class="net_56"/>
  <line x1="117" x2="160.33333333333334" y1="440.5" y2="440.5" class="net_56"/>
  <line x1="160.33333333333334" x2="160.33333333333334" y1="440.5" y2="425.5" class="net_56"/>
  <line x1="170.33333333333334" x2="218.66666666666666" y1="410.5" y2="410.5" class="net_86,87,88,89,90,91,92,93,94,95,96"/>
  <line x1="105.33333333333333" x2="127" y1="270.5" y2="270.5" class="net_55"/>
  <line x1="127" x2="127" y1="270.5" y2="450.5" class="net_55"/>
  <line x1="127" x2="228.66666666666666" y1="450.5" y2="450.5" class="net_55"/>
  <circle cx="127" cy="270.5" r="2" style="fill:#000" class="net_55"/>
  <line x1="228.66666666666666" x2="228.66666666666666" y1="450.5" y2="415.5" class="net_55"/>
  <line x1="105.33333333333333" x2="127" y1="270.5" y2="270.5" class="net_55"/>
  <line x1="127" x2="127" y1="270.5" y2="102" class="net_55"/>
  <line x1="127" x2="160.33333333333334" y1="102" y2="102" class="net_55"/>
  <line x1="160.33333333333334" x2="160.33333333333334" y1="102" y2="59.5" class="net_55"/>
  <line x1="105.33333333333333" x2="150.33333333333334" y1="34.5" y2="34.5" class="net_33,34,35,36,37,38,39,40,41,42,43"/>
  <line x1="502" x2="518" y1="182" y2="182" class="net_183,184,185"/>
  <line x1="518" x2="518" y1="182" y2="227" class="net_183,184,185"/>
  <line x1="518" x2="544.6666666666666" y1="227" y2="227" class="net_183,184,185"/>
  <line x1="500" x2="544.6666666666666" y1="247" y2="247" class="net_3,4,5"/>
  <line x1="504" x2="554.6666666666666" y1="304.5" y2="304.5" class="net_63"/>
  <line x1="554.6666666666666" x2="554.6666666666666" y1="304.5" y2="252" class="net_63"/>
  <line x1="564.6666666666666" x2="603" y1="237" y2="237" class="net_6,7,8"/>
  <line x1="568" x2="603" y1="109.5" y2="109.5" class="net_9"/>
  <line x1="568" x2="603" y1="465" y2="465" class="net_10"/>
</svg>
