<svg xmlns="http://www.w3.org/2000/svg" xmlns:xlink="http://www.w3.org/1999/xlink" xmlns:s="https://github.com/nturley/netlistsvg" width="663.5" height="1043"><style>svg {
  stroke:#000;
  fill:none;
}
text {
  fill:#000;
  stroke:none;
  font-size:10px;
  font-weight: bold;
  font-family: "Courier New", monospace;
}
line {
    stroke-linecap: round;
}
.nodelabel {
  text-anchor: middle;
}
.inputPortLabel {
  text-anchor: end;
}
.splitjoinBody {
  fill:#000;
}</style><g s:type="dff-bus" transform="translate(512.5,958.5)" s:width="34" s:height="44" id="cell_$procdff$3093"><s:alias val="$dff-bus"/><s:alias val="$_DFF_-bus"/><s:alias val="$_DFF_P_-bus"/><s:alias val="adff-bus"/><s:alias val="$adff-bus"/><s:alias val="$_DFF_-bus"/><s:alias val="$_DFF_P_-bus"/><s:alias val="sdff-bus"/><s:alias val="$sdff-bus"/><s:alias val="$_DFF_-bus"/><s:alias val="$_DFF_P_-bus"/><rect width="30" height="40" x="0" y="0" fill="#ffffff" class="cell_$procdff$3093"/><path d="M0,35 L5,30 L0,25" fill="#ffffff" class="cell_$procdff$3093"/><path d="M30,2 L32,2 L32,42 L2,42 L2,40" fill="#ffffff" class="cell_$procdff$3093"/><path d="M32,4 L34,4 L34,44 L4,44 L4,42" fill="#ffffff" class="cell_$procdff$3093"/><g s:x="35" s:y="10" s:pid="Q"/><g s:x="-1" s:y="30" s:pid="CLK"/><g s:x="-1" s:y="30" s:pid="C"/><g s:x="-1" s:y="10" s:pid="D"/><g s:x="17" s:y="44" s:pid="ARST"/><g s:x="17" s:y="44" s:pid="SRST"/></g><g s:type="mux" transform="translate(78,766.5)" s:width="20" s:height="40" id="cell_$procmux$3085"><s:alias val="$pmux"/><s:alias val="$mux"/><s:alias val="$_MUX_"/><path d="M0,0 L20,10 L20,30 L0,40 Z" fill="#ffffff" class="cell_$procmux$3085"/><text x="5" y="32" class="nodelabel cell_$procmux$3085" s:attribute="">1</text><text x="5" y="13" class="nodelabel cell_$procmux$3085" s:attribute="">0</text><g s:x="0" s:y="10" s:pid="A"/><g s:x="0" s:y="30" s:pid="B"/><g s:x="10" s:y="35" s:pid="S"/><g s:x="20" s:y="20" s:pid="Y"/></g><g s:type="mux-bus" transform="translate(139,926)" s:width="24" s:height="40" id="cell_$procmux$3088"><s:alias val="$pmux-bus"/><s:alias val="$mux-bus"/><s:alias val="$_MUX_-bus"/><path d="M0,0 L20,10 L20,30 L0,40 Z" fill="#ffffff" class="cell_$procmux$3088"/><path d="M4,2 L4,0 L22,9 L22,31 L4,40 L4,38" fill="#ffffff" class="cell_$procmux$3088"/><path d="M8,2 L8,0 L24,8 L24,32 L8,40 L8,38" fill="#ffffff" class="cell_$procmux$3088"/><text x="5" y="32" class="nodelabel cell_$procmux$3088" s:attribute="">1</text><text x="5" y="13" class="nodelabel cell_$procmux$3088" s:attribute="">0</text><g s:x="-1" s:y="10" s:pid="A"/><g s:x="-1" s:y="30" s:pid="B"/><g s:x="12" s:y="38" s:pid="S"/><g s:x="24.5" s:y="20" s:pid="Y"/></g><g s:type="mux-bus" transform="translate(139,112)" s:width="24" s:height="40" id="cell_$procmux$3091"><s:alias val="$pmux-bus"/><s:alias val="$mux-bus"/><s:alias val="$_MUX_-bus"/><path d="M0,0 L20,10 L20,30 L0,40 Z" fill="#ffffff" class="cell_$procmux$3091"/><path d="M4,2 L4,0 L22,9 L22,31 L4,40 L4,38" fill="#ffffff" class="cell_$procmux$3091"/><path d="M8,2 L8,0 L24,8 L24,32 L8,40 L8,38" fill="#ffffff" class="cell_$procmux$3091"/><text x="5" y="32" class="nodelabel cell_$procmux$3091" s:attribute="">1</text><text x="5" y="13" class="nodelabel cell_$procmux$3091" s:attribute="">0</text><g s:x="-1" s:y="10" s:pid="A"/><g s:x="-1" s:y="30" s:pid="B"/><g s:x="12" s:y="38" s:pid="S"/><g s:x="24.5" s:y="20" s:pid="Y"/></g><g s:type="generic" transform="translate(363.5,795.5)" s:width="30" s:height="40" id="cell_mem"><text x="15" y="-4" class="nodelabel cell_mem" s:attribute="ref">RAM</text><rect width="30" height="180" s:generic="body" fill="#ffffff" class="cell_mem"/><g transform="translate(0,10)" s:x="0" s:y="10" s:pid="in0" id="port_mem~RD_ADDR"><text x="-3" y="-4" class="inputPortLabel cell_mem">RD_ADDR</text></g><g transform="translate(0,30)" s:x="0" s:y="10" s:pid="in0" id="port_mem~RD_ARST"><text x="-3" y="-4" class="inputPortLabel cell_mem">RD_ARST</text></g><g transform="translate(0,50)" s:x="0" s:y="10" s:pid="in0" id="port_mem~RD_CLK"><text x="-3" y="-4" class="inputPortLabel cell_mem">RD_CLK</text></g><g transform="translate(0,70)" s:x="0" s:y="10" s:pid="in0" id="port_mem~RD_EN"><text x="-3" y="-4" class="inputPortLabel cell_mem">RD_EN</text></g><g transform="translate(0,90)" s:x="0" s:y="10" s:pid="in0" id="port_mem~RD_SRST"><text x="-3" y="-4" class="inputPortLabel cell_mem">RD_SRST</text></g><g transform="translate(0,110)" s:x="0" s:y="10" s:pid="in0" id="port_mem~WR_ADDR"><text x="-3" y="-4" class="inputPortLabel cell_mem">WR_ADDR</text></g><g transform="translate(0,130)" s:x="0" s:y="10" s:pid="in0" id="port_mem~WR_CLK"><text x="-3" y="-4" class="inputPortLabel cell_mem">WR_CLK</text></g><g transform="translate(0,150)" s:x="0" s:y="10" s:pid="in0" id="port_mem~WR_DATA"><text x="-3" y="-4" class="inputPortLabel cell_mem">WR_DATA</text></g><g transform="translate(0,170)" s:x="0" s:y="10" s:pid="in0" id="port_mem~WR_EN"><text x="-3" y="-4" class="inputPortLabel cell_mem">WR_EN</text></g><g transform="translate(30,10)" s:x="30" s:y="10" s:pid="out0" id="port_mem~RD_DATA"><text x="5" y="-4" style="fill:#000; stroke:none" class="cell_mem">RD_DATA</text></g></g><g s:type="inputExt" transform="translate(198.5,887)" s:width="30" s:height="20" id="cell_clk"><text x="15" y="-4" class="nodelabel cell_clk" s:attribute="ref">clk</text><s:alias val="$_inputExt_"/><path d="M0,0 L0,20 L15,20 L30,10 L15,0 Z" fill="#ffffff" class="cell_clk"/><g s:x="30" s:y="10" s:pid="Y"/></g><g s:type="inputExt" transform="translate(12,1011)" s:width="30" s:height="20" id="cell_we"><text x="15" y="-4" class="nodelabel cell_we" s:attribute="ref">we</text><s:alias val="$_inputExt_"/><path d="M0,0 L0,20 L15,20 L30,10 L15,0 Z" fill="#ffffff" class="cell_we"/><g s:x="30" s:y="10" s:pid="Y"/></g><g s:type="inputExt" transform="translate(12,22)" s:width="30" s:height="20" id="cell_addr"><text x="15" y="-4" class="nodelabel cell_addr" s:attribute="ref">addr</text><s:alias val="$_inputExt_"/><path d="M0,0 L0,20 L15,20 L30,10 L15,0 Z" fill="#ffffff" class="cell_addr"/><g s:x="30" s:y="10" s:pid="Y"/></g><g s:type="inputExt" transform="translate(12,946)" s:width="30" s:height="20" id="cell_wdata"><text x="15" y="-4" class="nodelabel cell_wdata" s:attribute="ref">wdata</text><s:alias val="$_inputExt_"/><path d="M0,0 L0,20 L15,20 L30,10 L15,0 Z" fill="#ffffff" class="cell_wdata"/><g s:x="30" s:y="10" s:pid="Y"/></g><g s:type="outputExt" transform="translate(621.5,958.5)" s:width="30" s:height="20" id="cell_rdata"><text x="15" y="-4" class="nodelabel cell_rdata" s:attribute="ref">rdata</text><s:alias val="$_outputExt_"/><path d="M30,0 L30,20 L15,20 L0,10 L15,0 Z" fill="#ffffff" class="cell_rdata"/><g s:x="0" s:y="10" s:pid="A"/></g><g s:type="constant" transform="translate(12,152)" s:width="30" s:height="20" id="cell_0"><text x="15" y="-4" class="nodelabel cell_0" s:attribute="ref">0</text><s:alias val="$_constant_"/><rect width="30" height="20" fill="#ffffff" class="cell_0"/><g s:x="31" s:y="10" s:pid="Y"/></g><g s:type="constant" transform="translate(12,786.5)" s:width="30" s:height="20" id="cell_1"><text x="15" y="-4" class="nodelabel cell_1" s:attribute="ref">1</text><s:alias val="$_constant_"/><rect width="30" height="20" fill="#ffffff" class="cell_1"/><g s:x="31" s:y="10" s:pid="Y"/></g><g s:type="constant" transform="translate(12,881)" s:width="30" s:height="20" id="cell_xxxxxxxxxxxxxxxxxxxxxxxxxxxxxxxx"><text x="15" y="-4" class="nodelabel cell_xxxxxxxxxxxxxxxxxxxxxxxxxxxxxxxx" s:attribute="ref">0xNaN</text><s:alias val="$_constant_"/><rect width="30" height="20" fill="#ffffff" class="cell_xxxxxxxxxxxxxxxxxxxxxxxxxxxxxxxx"/><g s:x="31" s:y="10" s:pid="Y"/></g><g s:type="constant" transform="translate(12,87)" s:width="30" s:height="20" id="cell_xxxxxxxxxx"><text x="15" y="-4" class="nodelabel cell_xxxxxxxxxx" s:attribute="ref">0xNaN</text><s:alias val="$_constant_"/><rect width="30" height="20" fill="#ffffff" class="cell_xxxxxxxxxx"/><g s:x="31" s:y="10" s:pid="Y"/></g><g s:type="constant" transform="translate(198.5,73)" s:width="30" s:height="20" id="cell_x"><text x="15" y="-4" class="nodelabel cell_x" s:attribute="ref">x</text><s:alias val="$_constant_"/><rect width="30" height="20" fill="#ffffff" class="cell_x"/><g s:x="31" s:y="10" s:pid="Y"/></g><g s:type="join" transform="translate(139.78,236)" s:width="4" s:height="40" id="cell_$join$,110,110,110,110,110,110,110,110,110,110,110,110,110,110,110,110,110,110,110,110,110,110,110,110,110,110,110,110,110,110,110,110,"><rect width="5" height="640" class="splitjoinBody" s:generic="body"/><s:alias val="$_join_"/><g s:x="5" s:y="20" s:pid="out"/><g transform="translate(0,10)" s:x="0" s:y="10" s:pid="in0"><text x="-3" y="-4" class="inputPortLabel">0</text></g><g transform="translate(0,30)" s:x="0" s:y="10" s:pid="in0"><text x="-3" y="-4" class="inputPortLabel">1</text></g><g transform="translate(0,50)" s:x="0" s:y="10" s:pid="in0"><text x="-3" y="-4" class="inputPortLabel">2</text></g><g transform="translate(0,70)" s:x="0" s:y="10" s:pid="in0"><text x="-3" y="-4" class="inputPortLabel">3</text></g><g transform="translate(0,90)" s:x="0" s:y="10" s:pid="in0"><text x="-3" y="-4" class="inputPortLabel">4</text></g><g transform="translate(0,110)" s:x="0" s:y="10" s:pid="in0"><text x="-3" y="-4" class="inputPortLabel">5</text></g><g transform="translate(0,130)" s:x="0" s:y="10" s:pid="in0"><text x="-3" y="-4" class="inputPortLabel">6</text></g><g transform="translate(0,150)" s:x="0" s:y="10" s:pid="in0"><text x="-3" y="-4" class="inputPortLabel">7</text></g><g transform="translate(0,170)" s:x="0" s:y="10" s:pid="in0"><text x="-3" y="-4" class="inputPortLabel">8</text></g><g transform="translate(0,190)" s:x="0" s:y="10" s:pid="in0"><text x="-3" y="-4" class="inputPortLabel">9</text></g><g transform="translate(0,210)" s:x="0" s:y="10" s:pid="in0"><text x="-3" y="-4" class="inputPortLabel">10</text></g><g transform="translate(0,230)" s:x="0" s:y="10" s:pid="in0"><text x="-3" y="-4" class="inputPortLabel">11</text></g><g transform="translate(0,250)" s:x="0" s:y="10" s:pid="in0"><text x="-3" y="-4" class="inputPortLabel">12</text></g><g transform="translate(0,270)" s:x="0" s:y="10" s:pid="in0"><text x="-3" y="-4" class="inputPortLabel">13</text></g><g transform="translate(0,290)" s:x="0" s:y="10" s:pid="in0"><text x="-3" y="-4" class="inputPortLabel">14</text></g><g transform="translate(0,310)" s:x="0" s:y="10" s:pid="in0"><text x="-3" y="-4" class="inputPortLabel">15</text></g><g transform="translate(0,330)" s:x="0" s:y="10" s:pid="in0"><text x="-3" y="-4" class="inputPortLabel">16</text></g><g transform="translate(0,350)" s:x="0" s:y="10" s:pid="in0"><text x="-3" y="-4" class="inputPortLabel">17</text></g><g transform="translate(0,370)" s:x="0" s:y="10" s:pid="in0"><text x="-3" y="-4" class="inputPortLabel">18</text></g><g transform="translate(0,390)" s:x="0" s:y="10" s:pid="in0"><text x="-3" y="-4" class="inputPortLabel">19</text></g><g transform="translate(0,410)" s:x="0" s:y="10" s:pid="in0"><text x="-3" y="-4" class="inputPortLabel">20</text></g><g transform="translate(0,430)" s:x="0" s:y="10" s:pid="in0"><text x="-3" y="-4" class="inputPortLabel">21</text></g><g transform="translate(0,450)" s:x="0" s:y="10" s:pid="in0"><text x="-3" y="-4" class="inputPortLabel">22</text></g><g transform="translate(0,470)" s:x="0" s:y="10" s:pid="in0"><text x="-3" y="-4" class="inputPortLabel">23</text></g><g transform="translate(0,490)" s:x="0" s:y="10" s:pid="in0"><text x="-3" y="-4" class="inputPortLabel">24</text></g><g transform="translate(0,510)" s:x="0" s:y="10" s:pid="in0"><text x="-3" y="-4" class="inputPortLabel">25</text></g><g transform="translate(0,530)" s:x="0" s:y="10" s:pid="in0"><text x="-3" y="-4" class="inputPortLabel">26</text></g><g transform="translate(0,550)" s:x="0" s:y="10" s:pid="in0"><text x="-3" y="-4" class="inputPortLabel">27</text></g><g transform="translate(0,570)" s:x="0" s:y="10" s:pid="in0"><text x="-3" y="-4" class="inputPortLabel">28</text></g><g transform="translate(0,590)" s:x="0" s:y="10" s:pid="in0"><text x="-3" y="-4" class="inputPortLabel">29</text></g><g transform="translate(0,610)" s:x="0" s:y="10" s:pid="in0"><text x="-3" y="-4" class="inputPortLabel">30</text></g><g transform="translate(0,630)" s:x="0" s:y="10" s:pid="in0"><text x="-3" y="-4" class="inputPortLabel">31</text></g></g><line x1="228.5" x2="239.5" y1="897" y2="897" class="net_2 width_1" style="stroke-width: 1"/><line x1="239.5" x2="239.5" y1="897" y2="988.5" class="net_2 width_1" style="stroke-width: 1"/><line x1="239.5" x2="511.5" y1="988.5" y2="988.5" class="net_2 width_1" style="stroke-width: 1"/><line x1="228.5" x2="239.5" y1="897" y2="897" class="net_2 width_1" style="stroke-width: 1"/><line x1="239.5" x2="239.5" y1="897" y2="926" class="net_2 width_1" style="stroke-width: 1"/><circle cx="239.5" cy="926" r="2" style="fill:#000" class="net_2 width_1"/><line x1="239.5" x2="362.5" y1="926" y2="926" class="net_2 width_1" style="stroke-width: 1"/><line x1="394.5" x2="486.5" y1="806" y2="806" class="net_78,79,80,81,82,83,84,85,86,87,88,89,90,91,92,93,94,95,96,97,98,99,100,101,102,103,104,105,106,107,108,109 width_32" style="stroke-width: 2"/><line x1="486.5" x2="486.5" y1="806" y2="968.5" class="net_78,79,80,81,82,83,84,85,86,87,88,89,90,91,92,93,94,95,96,97,98,99,100,101,102,103,104,105,106,107,108,109 width_32" style="stroke-width: 2"/><line x1="486.5" x2="511.5" y1="968.5" y2="968.5" class="net_78,79,80,81,82,83,84,85,86,87,88,89,90,91,92,93,94,95,96,97,98,99,100,101,102,103,104,105,106,107,108,109 width_32" style="stroke-width: 2"/><line x1="43" x2="63" y1="162" y2="162" class="net_153 width_1" style="stroke-width: 1"/><line x1="63" x2="63" y1="162" y2="776.5" class="net_153 width_1" style="stroke-width: 1"/><circle cx="63" cy="162" r="2" style="fill:#000" class="net_153 width_1"/><line x1="63" x2="78" y1="776.5" y2="776.5" class="net_153 width_1" style="stroke-width: 1"/><line x1="43" x2="108" y1="162" y2="162" class="net_153 width_1" style="stroke-width: 1"/><line x1="108" x2="108" y1="162" y2="52" class="net_153 width_1" style="stroke-width: 1"/><line x1="108" x2="299.5" y1="52" y2="52" class="net_153 width_1" style="stroke-width: 1"/><line x1="299.5" x2="299.5" y1="52" y2="826" class="net_153 width_1" style="stroke-width: 1"/><circle cx="108" cy="162" r="2" style="fill:#000" class="net_153 width_1"/><line x1="299.5" x2="362.5" y1="826" y2="826" class="net_153 width_1" style="stroke-width: 1"/><line x1="43" x2="269.5" y1="162" y2="162" class="net_153 width_1" style="stroke-width: 1"/><line x1="269.5" x2="269.5" y1="162" y2="886" class="net_153 width_1" style="stroke-width: 1"/><line x1="269.5" x2="362.5" y1="886" y2="886" class="net_153 width_1" style="stroke-width: 1"/><line x1="43" x2="78" y1="796.5" y2="796.5" class="net_154 width_1" style="stroke-width: 1"/><line x1="43" x2="53" y1="796.5" y2="796.5" class="net_154 width_1" style="stroke-width: 1"/><line x1="53" x2="53" y1="796.5" y2="173" class="net_154 width_1" style="stroke-width: 1"/><line x1="53" x2="259.5" y1="173" y2="173" class="net_154 width_1" style="stroke-width: 1"/><line x1="259.5" x2="259.5" y1="173" y2="866" class="net_154 width_1" style="stroke-width: 1"/><circle cx="53" cy="796.5" r="2" style="fill:#000" class="net_154 width_1"/><line x1="259.5" x2="362.5" y1="866" y2="866" class="net_154 width_1" style="stroke-width: 1"/><line x1="42" x2="53" y1="1021" y2="1021" class="net_3 width_1" style="stroke-width: 1"/><line x1="53" x2="53" y1="1021" y2="1011" class="net_3 width_1" style="stroke-width: 1"/><line x1="53" x2="88" y1="1011" y2="1011" class="net_3 width_1" style="stroke-width: 1"/><circle cx="53" cy="1021" r="2" style="fill:#000" class="net_3 width_1"/><line x1="88" x2="88" y1="1011" y2="801.5" class="net_3 width_1" style="stroke-width: 1"/><line x1="42" x2="151" y1="1021" y2="1021" class="net_3 width_1" style="stroke-width: 1"/><line x1="151" x2="151" y1="1021" y2="964" class="net_3 width_1" style="stroke-width: 1"/><line x1="42" x2="118" y1="1021" y2="1021" class="net_3 width_1" style="stroke-width: 1"/><line x1="118" x2="118" y1="1021" y2="184" class="net_3 width_1" style="stroke-width: 1"/><line x1="118" x2="151" y1="184" y2="184" class="net_3 width_1" style="stroke-width: 1"/><circle cx="118" cy="1021" r="2" style="fill:#000" class="net_3 width_1"/><line x1="151" x2="151" y1="184" y2="150" class="net_3 width_1" style="stroke-width: 1"/><line x1="43" x2="108" y1="891" y2="891" class="net_155,156,157,158,159,160,161,162,163,164,165,166,167,168,169,170,171,172,173,174,175,176,177,178,179,180,181,182,183,184,185,186 width_32" style="stroke-width: 2"/><line x1="108" x2="108" y1="891" y2="936" class="net_155,156,157,158,159,160,161,162,163,164,165,166,167,168,169,170,171,172,173,174,175,176,177,178,179,180,181,182,183,184,185,186 width_32" style="stroke-width: 2"/><line x1="108" x2="138" y1="936" y2="936" class="net_155,156,157,158,159,160,161,162,163,164,165,166,167,168,169,170,171,172,173,174,175,176,177,178,179,180,181,182,183,184,185,186 width_32" style="stroke-width: 2"/><line x1="42" x2="138" y1="956" y2="956" class="net_14,15,16,17,18,19,20,21,22,23,24,25,26,27,28,29,30,31,32,33,34,35,36,37,38,39,40,41,42,43,44,45 width_32" style="stroke-width: 2"/><line x1="43" x2="118" y1="97" y2="97" class="net_187,188,189,190,191,192,193,194,195,196 width_10" style="stroke-width: 2"/><line x1="118" x2="118" y1="97" y2="122" class="net_187,188,189,190,191,192,193,194,195,196 width_10" style="stroke-width: 2"/><line x1="118" x2="138" y1="122" y2="122" class="net_187,188,189,190,191,192,193,194,195,196 width_10" style="stroke-width: 2"/><line x1="42" x2="128" y1="32" y2="32" class="net_4,5,6,7,8,9,10,11,12,13 width_10" style="stroke-width: 2"/><line x1="128" x2="128" y1="32" y2="142" class="net_4,5,6,7,8,9,10,11,12,13 width_10" style="stroke-width: 2"/><line x1="128" x2="138" y1="142" y2="142" class="net_4,5,6,7,8,9,10,11,12,13 width_10" style="stroke-width: 2"/><line x1="42" x2="53" y1="32" y2="32" class="net_4,5,6,7,8,9,10,11,12,13 width_10" style="stroke-width: 2"/><line x1="53" x2="53" y1="32" y2="17" class="net_4,5,6,7,8,9,10,11,12,13 width_10" style="stroke-width: 2"/><line x1="53" x2="309.5" y1="17" y2="17" class="net_4,5,6,7,8,9,10,11,12,13 width_10" style="stroke-width: 2"/><line x1="309.5" x2="309.5" y1="17" y2="806" class="net_4,5,6,7,8,9,10,11,12,13 width_10" style="stroke-width: 2"/><circle cx="53" cy="32" r="3" style="fill:#000" class="net_4,5,6,7,8,9,10,11,12,13 width_10"/><line x1="309.5" x2="363.5" y1="806" y2="806" class="net_4,5,6,7,8,9,10,11,12,13 width_10" style="stroke-width: 2"/><line x1="229.5" x2="289.5" y1="83" y2="83" class="net_198 width_1" style="stroke-width: 1"/><line x1="289.5" x2="289.5" y1="83" y2="846" class="net_198 width_1" style="stroke-width: 1"/><line x1="289.5" x2="362.5" y1="846" y2="846" class="net_198 width_1" style="stroke-width: 1"/><line x1="163.5" x2="279.5" y1="132" y2="132" class="net_143,144,145,146,147,148,149,150,151,152 width_10" style="stroke-width: 2"/><line x1="279.5" x2="279.5" y1="132" y2="906" class="net_143,144,145,146,147,148,149,150,151,152 width_10" style="stroke-width: 2"/><line x1="279.5" x2="362.5" y1="906" y2="906" class="net_143,144,145,146,147,148,149,150,151,152 width_10" style="stroke-width: 2"/><line x1="163.5" x2="362.5" y1="946" y2="946" class="net_111,112,113,114,115,116,117,118,119,120,121,122,123,124,125,126,127,128,129,130,131,132,133,134,135,136,137,138,139,140,141,142 width_32" style="stroke-width: 2"/><line x1="145.78" x2="249.5" y1="556.5" y2="556.5" class="net_110,110,110,110,110,110,110,110,110,110,110,110,110,110,110,110,110,110,110,110,110,110,110,110,110,110,110,110,110,110,110,110 width_32" style="stroke-width: 2"/><line x1="249.5" x2="249.5" y1="556.5" y2="966" class="net_110,110,110,110,110,110,110,110,110,110,110,110,110,110,110,110,110,110,110,110,110,110,110,110,110,110,110,110,110,110,110,110 width_32" style="stroke-width: 2"/><line x1="249.5" x2="362.5" y1="966" y2="966" class="net_110,110,110,110,110,110,110,110,110,110,110,110,110,110,110,110,110,110,110,110,110,110,110,110,110,110,110,110,110,110,110,110 width_32" style="stroke-width: 2"/><line x1="547.5" x2="621.5" y1="968.5" y2="968.5" class="net_46,47,48,49,50,51,52,53,54,55,56,57,58,59,60,61,62,63,64,65,66,67,68,69,70,71,72,73,74,75,76,77 width_32" style="stroke-width: 2"/><line x1="98" x2="128" y1="786.5" y2="786.5" class="net_110 width_1" style="stroke-width: 1"/><line x1="128" x2="128" y1="786.5" y2="224" class="net_110 width_1" style="stroke-width: 1"/><line x1="128" x2="140.28" y1="224" y2="224" class="net_110 width_1" style="stroke-width: 1"/><circle cx="128" cy="786.5" r="2" style="fill:#000" class="net_110 width_1"/><circle cx="128" cy="224" r="2" style="fill:#000" class="net_110 width_1"/><line x1="140.28" x2="140.28" y1="224" y2="246" class="net_110 width_1" style="stroke-width: 1"/><line x1="98" x2="128" y1="786.5" y2="786.5" class="net_110 width_1" style="stroke-width: 1"/><line x1="128" x2="128" y1="786.5" y2="214" class="net_110 width_1" style="stroke-width: 1"/><line x1="128" x2="140.28" y1="214" y2="214" class="net_110 width_1" style="stroke-width: 1"/><circle cx="128" cy="214" r="2" style="fill:#000" class="net_110 width_1"/><line x1="140.28" x2="140.28" y1="214" y2="266" class="net_110 width_1" style="stroke-width: 1"/><line x1="98" x2="128" y1="786.5" y2="786.5" class="net_110 width_1" style="stroke-width: 1"/><line x1="128" x2="128" y1="786.5" y2="204" class="net_110 width_1" style="stroke-width: 1"/><line x1="128" x2="140.28" y1="204" y2="204" class="net_110 width_1" style="stroke-width: 1"/><circle cx="128" cy="204" r="2" style="fill:#000" class="net_110 width_1"/><line x1="140.28" x2="140.28" y1="204" y2="286" class="net_110 width_1" style="stroke-width: 1"/><line x1="98" x2="128" y1="786.5" y2="786.5" class="net_110 width_1" style="stroke-width: 1"/><line x1="128" x2="128" y1="786.5" y2="194" class="net_110 width_1" style="stroke-width: 1"/><line x1="128" x2="140.28" y1="194" y2="194" class="net_110 width_1" style="stroke-width: 1"/><line x1="140.28" x2="140.28" y1="194" y2="306" class="net_110 width_1" style="stroke-width: 1"/><line x1="98" x2="128" y1="786.5" y2="786.5" class="net_110 width_1" style="stroke-width: 1"/><line x1="128" x2="128" y1="786.5" y2="326.5" class="net_110 width_1" style="stroke-width: 1"/><circle cx="128" cy="326.5" r="2" style="fill:#000" class="net_110 width_1"/><line x1="128" x2="139.78" y1="326.5" y2="326.5" class="net_110 width_1" style="stroke-width: 1"/><line x1="98" x2="128" y1="786.5" y2="786.5" class="net_110 width_1" style="stroke-width: 1"/><line x1="128" x2="128" y1="786.5" y2="346.5" class="net_110 width_1" style="stroke-width: 1"/><circle cx="128" cy="346.5" r="2" style="fill:#000" class="net_110 width_1"/><line x1="128" x2="139.78" y1="346.5" y2="346.5" class="net_110 width_1" style="stroke-width: 1"/><line x1="98" x2="128" y1="786.5" y2="786.5" class="net_110 width_1" style="stroke-width: 1"/><line x1="128" x2="128" y1="786.5" y2="366.5" class="net_110 width_1" style="stroke-width: 1"/><circle cx="128" cy="366.5" r="2" style="fill:#000" class="net_110 width_1"/><line x1="128" x2="139.78" y1="366.5" y2="366.5" class="net_110 width_1" style="stroke-width: 1"/><line x1="98" x2="128" y1="786.5" y2="786.5" class="net_110 width_1" style="stroke-width: 1"/><line x1="128" x2="128" y1="786.5" y2="386.5" class="net_110 width_1" style="stroke-width: 1"/><circle cx="128" cy="386.5" r="2" style="fill:#000" class="net_110 width_1"/><line x1="128" x2="139.78" y1="386.5" y2="386.5" class="net_110 width_1" style="stroke-width: 1"/><line x1="98" x2="128" y1="786.5" y2="786.5" class="net_110 width_1" style="stroke-width: 1"/><line x1="128" x2="128" y1="786.5" y2="406.5" class="net_110 width_1" style="stroke-width: 1"/><circle cx="128" cy="406.5" r="2" style="fill:#000" class="net_110 width_1"/><line x1="128" x2="139.78" y1="406.5" y2="406.5" class="net_110 width_1" style="stroke-width: 1"/><line x1="98" x2="128" y1="786.5" y2="786.5" class="net_110 width_1" style="stroke-width: 1"/><line x1="128" x2="128" y1="786.5" y2="426.5" class="net_110 width_1" style="stroke-width: 1"/><circle cx="128" cy="426.5" r="2" style="fill:#000" class="net_110 width_1"/><line x1="128" x2="139.78" y1="426.5" y2="426.5" class="net_110 width_1" style="stroke-width: 1"/><line x1="98" x2="128" y1="786.5" y2="786.5" class="net_110 width_1" style="stroke-width: 1"/><line x1="128" x2="128" y1="786.5" y2="446.5" class="net_110 width_1" style="stroke-width: 1"/><circle cx="128" cy="446.5" r="2" style="fill:#000" class="net_110 width_1"/><line x1="128" x2="139.78" y1="446.5" y2="446.5" class="net_110 width_1" style="stroke-width: 1"/><line x1="98" x2="128" y1="786.5" y2="786.5" class="net_110 width_1" style="stroke-width: 1"/><line x1="128" x2="128" y1="786.5" y2="466.5" class="net_110 width_1" style="stroke-width: 1"/><circle cx="128" cy="466.5" r="2" style="fill:#000" class="net_110 width_1"/><line x1="128" x2="139.78" y1="466.5" y2="466.5" class="net_110 width_1" style="stroke-width: 1"/><line x1="98" x2="128" y1="786.5" y2="786.5" class="net_110 width_1" style="stroke-width: 1"/><line x1="128" x2="128" y1="786.5" y2="486.5" class="net_110 width_1" style="stroke-width: 1"/><circle cx="128" cy="486.5" r="2" style="fill:#000" class="net_110 width_1"/><line x1="128" x2="139.78" y1="486.5" y2="486.5" class="net_110 width_1" style="stroke-width: 1"/><line x1="98" x2="128" y1="786.5" y2="786.5" class="net_110 width_1" style="stroke-width: 1"/><line x1="128" x2="128" y1="786.5" y2="506.5" class="net_110 width_1" style="stroke-width: 1"/><circle cx="128" cy="506.5" r="2" style="fill:#000" class="net_110 width_1"/><line x1="128" x2="139.78" y1="506.5" y2="506.5" class="net_110 width_1" style="stroke-width: 1"/><line x1="98" x2="128" y1="786.5" y2="786.5" class="net_110 width_1" style="stroke-width: 1"/><line x1="128" x2="128" y1="786.5" y2="526.5" class="net_110 width_1" style="stroke-width: 1"/><circle cx="128" cy="526.5" r="2" style="fill:#000" class="net_110 width_1"/><line x1="128" x2="139.78" y1="526.5" y2="526.5" class="net_110 width_1" style="stroke-width: 1"/><line x1="98" x2="128" y1="786.5" y2="786.5" class="net_110 width_1" style="stroke-width: 1"/><line x1="128" x2="128" y1="786.5" y2="546.5" class="net_110 width_1" style="stroke-width: 1"/><circle cx="128" cy="546.5" r="2" style="fill:#000" class="net_110 width_1"/><line x1="128" x2="139.78" y1="546.5" y2="546.5" class="net_110 width_1" style="stroke-width: 1"/><line x1="98" x2="128" y1="786.5" y2="786.5" class="net_110 width_1" style="stroke-width: 1"/><line x1="128" x2="128" y1="786.5" y2="566.5" class="net_110 width_1" style="stroke-width: 1"/><circle cx="128" cy="566.5" r="2" style="fill:#000" class="net_110 width_1"/><line x1="128" x2="139.78" y1="566.5" y2="566.5" class="net_110 width_1" style="stroke-width: 1"/><line x1="98" x2="128" y1="786.5" y2="786.5" class="net_110 width_1" style="stroke-width: 1"/><line x1="128" x2="128" y1="786.5" y2="586.5" class="net_110 width_1" style="stroke-width: 1"/><circle cx="128" cy="586.5" r="2" style="fill:#000" class="net_110 width_1"/><line x1="128" x2="139.78" y1="586.5" y2="586.5" class="net_110 width_1" style="stroke-width: 1"/><line x1="98" x2="128" y1="786.5" y2="786.5" class="net_110 width_1" style="stroke-width: 1"/><line x1="128" x2="128" y1="786.5" y2="606.5" class="net_110 width_1" style="stroke-width: 1"/><circle cx="128" cy="606.5" r="2" style="fill:#000" class="net_110 width_1"/><line x1="128" x2="139.78" y1="606.5" y2="606.5" class="net_110 width_1" style="stroke-width: 1"/><line x1="98" x2="128" y1="786.5" y2="786.5" class="net_110 width_1" style="stroke-width: 1"/><line x1="128" x2="128" y1="786.5" y2="626.5" class="net_110 width_1" style="stroke-width: 1"/><circle cx="128" cy="626.5" r="2" style="fill:#000" class="net_110 width_1"/><line x1="128" x2="139.78" y1="626.5" y2="626.5" class="net_110 width_1" style="stroke-width: 1"/><line x1="98" x2="128" y1="786.5" y2="786.5" class="net_110 width_1" style="stroke-width: 1"/><line x1="128" x2="128" y1="786.5" y2="646.5" class="net_110 width_1" style="stroke-width: 1"/><circle cx="128" cy="646.5" r="2" style="fill:#000" class="net_110 width_1"/><line x1="128" x2="139.78" y1="646.5" y2="646.5" class="net_110 width_1" style="stroke-width: 1"/><line x1="98" x2="128" y1="786.5" y2="786.5" class="net_110 width_1" style="stroke-width: 1"/><line x1="128" x2="128" y1="786.5" y2="666.5" class="net_110 width_1" style="stroke-width: 1"/><circle cx="128" cy="666.5" r="2" style="fill:#000" class="net_110 width_1"/><line x1="128" x2="139.78" y1="666.5" y2="666.5" class="net_110 width_1" style="stroke-width: 1"/><line x1="98" x2="128" y1="786.5" y2="786.5" class="net_110 width_1" style="stroke-width: 1"/><line x1="128" x2="128" y1="786.5" y2="686.5" class="net_110 width_1" style="stroke-width: 1"/><circle cx="128" cy="686.5" r="2" style="fill:#000" class="net_110 width_1"/><line x1="128" x2="139.78" y1="686.5" y2="686.5" class="net_110 width_1" style="stroke-width: 1"/><line x1="98" x2="128" y1="786.5" y2="786.5" class="net_110 width_1" style="stroke-width: 1"/><line x1="128" x2="128" y1="786.5" y2="706.5" class="net_110 width_1" style="stroke-width: 1"/><circle cx="128" cy="706.5" r="2" style="fill:#000" class="net_110 width_1"/><line x1="128" x2="139.78" y1="706.5" y2="706.5" class="net_110 width_1" style="stroke-width: 1"/><line x1="98" x2="128" y1="786.5" y2="786.5" class="net_110 width_1" style="stroke-width: 1"/><line x1="128" x2="128" y1="786.5" y2="726.5" class="net_110 width_1" style="stroke-width: 1"/><circle cx="128" cy="726.5" r="2" style="fill:#000" class="net_110 width_1"/><line x1="128" x2="139.78" y1="726.5" y2="726.5" class="net_110 width_1" style="stroke-width: 1"/><line x1="98" x2="128" y1="786.5" y2="786.5" class="net_110 width_1" style="stroke-width: 1"/><line x1="128" x2="128" y1="786.5" y2="746.5" class="net_110 width_1" style="stroke-width: 1"/><circle cx="128" cy="746.5" r="2" style="fill:#000" class="net_110 width_1"/><line x1="128" x2="139.78" y1="746.5" y2="746.5" class="net_110 width_1" style="stroke-width: 1"/><line x1="98" x2="128" y1="786.5" y2="786.5" class="net_110 width_1" style="stroke-width: 1"/><line x1="128" x2="128" y1="786.5" y2="766.5" class="net_110 width_1" style="stroke-width: 1"/><circle cx="128" cy="766.5" r="2" style="fill:#000" class="net_110 width_1"/><line x1="128" x2="139.78" y1="766.5" y2="766.5" class="net_110 width_1" style="stroke-width: 1"/><line x1="98" x2="139.78" y1="786.5" y2="786.5" class="net_110 width_1" style="stroke-width: 1"/><line x1="98" x2="128" y1="786.5" y2="786.5" class="net_110 width_1" style="stroke-width: 1"/><line x1="128" x2="128" y1="786.5" y2="916" class="net_110 width_1" style="stroke-width: 1"/><line x1="128" x2="140.28" y1="916" y2="916" class="net_110 width_1" style="stroke-width: 1"/><line x1="140.28" x2="140.28" y1="916" y2="807" class="net_110 width_1" style="stroke-width: 1"/><line x1="98" x2="128" y1="786.5" y2="786.5" class="net_110 width_1" style="stroke-width: 1"/><line x1="128" x2="128" y1="786.5" y2="906" class="net_110 width_1" style="stroke-width: 1"/><line x1="128" x2="140.28" y1="906" y2="906" class="net_110 width_1" style="stroke-width: 1"/><circle cx="128" cy="906" r="2" style="fill:#000" class="net_110 width_1"/><line x1="140.28" x2="140.28" y1="906" y2="827" class="net_110 width_1" style="stroke-width: 1"/><line x1="98" x2="128" y1="786.5" y2="786.5" class="net_110 width_1" style="stroke-width: 1"/><line x1="128" x2="128" y1="786.5" y2="896" class="net_110 width_1" style="stroke-width: 1"/><line x1="128" x2="140.28" y1="896" y2="896" class="net_110 width_1" style="stroke-width: 1"/><circle cx="128" cy="896" r="2" style="fill:#000" class="net_110 width_1"/><line x1="140.28" x2="140.28" y1="896" y2="847" class="net_110 width_1" style="stroke-width: 1"/><line x1="98" x2="128" y1="786.5" y2="786.5" class="net_110 width_1" style="stroke-width: 1"/><line x1="128" x2="128" y1="786.5" y2="886" class="net_110 width_1" style="stroke-width: 1"/><line x1="128" x2="140.28" y1="886" y2="886" class="net_110 width_1" style="stroke-width: 1"/><circle cx="128" cy="886" r="2" style="fill:#000" class="net_110 width_1"/><line x1="140.28" x2="140.28" y1="886" y2="867" class="net_110 width_1" style="stroke-width: 1"/><rect x="473.5" y="801" width="22" height="9" class="net_78,79,80,81,82,83,84,85,86,87,88,89,90,91,92,93,94,95,96,97,98,99,100,101,102,103,104,105,106,107,108,109 width_32 busLabel_32" style="fill: white; stroke: none"/><text x="472.5" y="809" class="net_78,79,80,81,82,83,84,85,86,87,88,89,90,91,92,93,94,95,96,97,98,99,100,101,102,103,104,105,106,107,108,109 width_32 busLabel_32">/32/</text><rect x="87" y="886" width="22" height="9" class="net_155,156,157,158,159,160,161,162,163,164,165,166,167,168,169,170,171,172,173,174,175,176,177,178,179,180,181,182,183,184,185,186 width_32 busLabel_32" style="fill: white; stroke: none"/><text x="86" y="894" class="net_155,156,157,158,159,160,161,162,163,164,165,166,167,168,169,170,171,172,173,174,175,176,177,178,179,180,181,182,183,184,185,186 width_32 busLabel_32">/32/</text><rect x="87" y="951" width="22" height="9" class="net_14,15,16,17,18,19,20,21,22,23,24,25,26,27,28,29,30,31,32,33,34,35,36,37,38,39,40,41,42,43,44,45 width_32 busLabel_32" style="fill: white; stroke: none"/><text x="86" y="959" class="net_14,15,16,17,18,19,20,21,22,23,24,25,26,27,28,29,30,31,32,33,34,35,36,37,38,39,40,41,42,43,44,45 width_32 busLabel_32">/32/</text><rect x="87" y="92" width="22" height="9" class="net_187,188,189,190,191,192,193,194,195,196 width_10 busLabel_10" style="fill: white; stroke: none"/><text x="86" y="100" class="net_187,188,189,190,191,192,193,194,195,196 width_10 busLabel_10">/10/</text><rect x="149.75" y="12" width="22" height="9" class="net_4,5,6,7,8,9,10,11,12,13 width_10 busLabel_10" style="fill: white; stroke: none"/><text x="148.75" y="20" class="net_4,5,6,7,8,9,10,11,12,13 width_10 busLabel_10">/10/</text><rect x="149.75" y="12" width="22" height="9" class="net_4,5,6,7,8,9,10,11,12,13 width_10 busLabel_10" style="fill: white; stroke: none"/><text x="148.75" y="20" class="net_4,5,6,7,8,9,10,11,12,13 width_10 busLabel_10">/10/</text><rect x="213" y="127" width="22" height="9" class="net_143,144,145,146,147,148,149,150,151,152 width_10 busLabel_10" style="fill: white; stroke: none"/><text x="212" y="135" class="net_143,144,145,146,147,148,149,150,151,152 width_10 busLabel_10">/10/</text><rect x="213" y="941" width="22" height="9" class="net_111,112,113,114,115,116,117,118,119,120,121,122,123,124,125,126,127,128,129,130,131,132,133,134,135,136,137,138,139,140,141,142 width_32 busLabel_32" style="fill: white; stroke: none"/><text x="212" y="949" class="net_111,112,113,114,115,116,117,118,119,120,121,122,123,124,125,126,127,128,129,130,131,132,133,134,135,136,137,138,139,140,141,142 width_32 busLabel_32">/32/</text><rect x="213" y="551.5" width="22" height="9" class="net_110,110,110,110,110,110,110,110,110,110,110,110,110,110,110,110,110,110,110,110,110,110,110,110,110,110,110,110,110,110,110,110 width_32 busLabel_32" style="fill: white; stroke: none"/><text x="212" y="559.5" class="net_110,110,110,110,110,110,110,110,110,110,110,110,110,110,110,110,110,110,110,110,110,110,110,110,110,110,110,110,110,110,110,110 width_32 busLabel_32">/32/</text><rect x="583.5" y="963.5" width="22" height="9" class="net_46,47,48,49,50,51,52,53,54,55,56,57,58,59,60,61,62,63,64,65,66,67,68,69,70,71,72,73,74,75,76,77 width_32 busLabel_32" style="fill: white; stroke: none"/><text x="582.5" y="971.5" class="net_46,47,48,49,50,51,52,53,54,55,56,57,58,59,60,61,62,63,64,65,66,67,68,69,70,71,72,73,74,75,76,77 width_32 busLabel_32">/32/</text></svg>