<svg xmlns="http://www.w3.org/2000/svg" xmlns:xlink="http://www.w3.org/1999/xlink" xmlns:s="https://github.com/nturley/netlistsvg" width="526" height="204">
  <style>svg {
    stroke:#000;
    fill:none;
  }
  text {
    fill:#000;
    stroke:none;
    font-size:10px;
    font-weight: bold;
    font-family: "Courier New", monospace;
  }
  .nodelabel {
    text-anchor: middle;
  }
  .inputPortLabel {
    text-anchor: end;
  }
  .splitjoinBody {
    fill:#000;
  }</style>
  <g s:type="dff" transform="translate(155,22)" s:width="30" s:height="40" id="cell_:10">
    <s:alias val="$dff"/>
    <s:alias val="$_DFF_"/>
    <s:alias val="$_DFF_P_"/>
    <rect width="30" height="40" x="0" y="0" class="cell_:10"/>
    <path d="M0,35 L5,30 L0,25" class="cell_:10"/>
    <g s:x="30" s:y="10" s:pid="Q"/>
    <g s:x="0" s:y="30" s:pid="CLK"/>
    <g s:x="0" s:y="30" s:pid="C"/>
    <g s:x="0" s:y="10" s:pid="D"/>
  </g>
  <g s:type="dff" transform="translate(155,152)" s:width="30" s:height="40" id="cell_:9">
    <s:alias val="$dff"/>
    <s:alias val="$_DFF_"/>
    <s:alias val="$_DFF_P_"/>
    <rect width="30" height="40" x="0" y="0" class="cell_:9"/>
    <path d="M0,35 L5,30 L0,25" class="cell_:9"/>
    <g s:x="30" s:y="10" s:pid="Q"/>
    <g s:x="0" s:y="30" s:pid="CLK"/>
    <g s:x="0" s:y="30" s:pid="C"/>
    <g s:x="0" s:y="10" s:pid="D"/>
  </g>
  <g s:type="generic" transform="translate(329,86.5)" s:width="30" s:height="40" id="cell_rom_instance">
    <text x="15" y="-4" class="nodelabel cell_rom_instance" s:attribute="ref">single_clock_rom_Brtl_32_9</text>
    <rect width="30" height="60" s:generic="body" class="cell_rom_instance"/>
    <g transform="translate(0,10)" s:x="0" s:y="10" s:pid="in0" id="port_rom_instance~clock">
      <text x="-3" y="-4" class="inputPortLabel cell_rom_instance">clock</text>
    </g>
    <g transform="translate(0,30)" s:x="0" s:y="10" s:pid="in0" id="port_rom_instance~nibble_product_idx">
      <text x="-3" y="-4" class="inputPortLabel cell_rom_instance">nibble_product_idx</text>
    </g>
    <g transform="translate(0,50)" s:x="0" s:y="10" s:pid="in0" id="port_rom_instance~read_angle_idx">
      <text x="-3" y="-4" class="inputPortLabel cell_rom_instance">read_angle_idx</text>
    </g>
    <g transform="translate(30,10)" s:x="30" s:y="10" s:pid="out0" id="port_rom_instance~output">
      <text x="5" y="-4" style="fill:#000; stroke:none" class="cell_rom_instance">output</text>
    </g>
  </g>
  <g s:type="inputExt" transform="translate(12,87)" s:width="30" s:height="20" id="cell_inClock50Mhz">
    <text x="15" y="-4" class="nodelabel cell_inClock50Mhz" s:attribute="ref">inClock50Mhz</text>
    <s:alias val="$_inputExt_"/>
    <path d="M0,0 L0,20 L15,20 L30,10 L15,0 Z" class="cell_inClock50Mhz"/>
    <g s:x="28" s:y="10" s:pid="Y"/>
  </g>
  <g s:type="inputExt" transform="translate(12,152)" s:width="30" s:height="20" id="cell_inAngleIdxToRead">
    <text x="15" y="-4" class="nodelabel cell_inAngleIdxToRead" s:attribute="ref">inAngleIdxToRead</text>
    <s:alias val="$_inputExt_"/>
    <path d="M0,0 L0,20 L15,20 L30,10 L15,0 Z" class="cell_inAngleIdxToRead"/>
    <g s:x="28" s:y="10" s:pid="Y"/>
  </g>
  <g s:type="inputExt" transform="translate(12,22)" s:width="30" s:height="20" id="cell_inNibbleProductIdx">
    <text x="15" y="-4" class="nodelabel cell_inNibbleProductIdx" s:attribute="ref">inNibbleProductIdx</text>
    <s:alias val="$_inputExt_"/>
    <path d="M0,0 L0,20 L15,20 L30,10 L15,0 Z" class="cell_inNibbleProductIdx"/>
    <g s:x="28" s:y="10" s:pid="Y"/>
  </g>
  <g s:type="outputExt" transform="translate(436,87)" s:width="30" s:height="20" id="cell_outReadMemory">
    <text x="15" y="-4" class="nodelabel cell_outReadMemory" s:attribute="ref">outReadMemory</text>
    <s:alias val="$_outputExt_"/>
    <path d="M30,0 L30,20 L15,20 L0,10 L15,0 Z" class="cell_outReadMemory"/>
    <g s:x="0" s:y="10" s:pid="A"/>
  </g>
  <line x1="40" x2="130" y1="97" y2="97" class="net_2"/>
  <line x1="130" x2="130" y1="97" y2="52" class="net_2"/>
  <circle cx="130" cy="97" r="2" style="fill:#000" class="net_2"/>
  <line x1="130" x2="155" y1="52" y2="52" class="net_2"/>
  <line x1="40" x2="130" y1="97" y2="97" class="net_2"/>
  <line x1="130" x2="130" y1="97" y2="182" class="net_2"/>
  <line x1="130" x2="155" y1="182" y2="182" class="net_2"/>
  <line x1="40" x2="329" y1="97" y2="97" class="net_2"/>
  <line x1="40" x2="155" y1="32" y2="32" class="net_10,11,12,13"/>
  <line x1="40" x2="155" y1="162" y2="162" class="net_3,4,5,6,7,8,9"/>
  <line x1="185" x2="195" y1="32" y2="32" class="net_24,25,26,27"/>
  <line x1="195" x2="195" y1="32" y2="117" class="net_24,25,26,27"/>
  <line x1="195" x2="329" y1="117" y2="117" class="net_24,25,26,27"/>
  <line x1="185" x2="195" y1="162" y2="162" class="net_28,29,30,31,32,33,34"/>
  <line x1="195" x2="195" y1="162" y2="137" class="net_28,29,30,31,32,33,34"/>
  <line x1="195" x2="329" y1="137" y2="137" class="net_28,29,30,31,32,33,34"/>
  <line x1="360" x2="436" y1="97" y2="97" class="net_14,15,16,17,18,19,20,21,22,23"/>
</svg>
