<svg xmlns="http://www.w3.org/2000/svg" xmlns:xlink="http://www.w3.org/1999/xlink" xmlns:s="https://github.com/nturley/netlistsvg" width="433" height="317">
  <style>svg {
    stroke:#000;
    fill:none;
  }
  text {
    fill:#000;
    stroke:none;
    font-size:10px;
    font-weight: bold;
    font-family: "Courier New", monospace;
  }
  .nodelabel {
    text-anchor: middle;
  }
  .inputPortLabel {
    text-anchor: end;
  }
  .splitjoinBody {
    fill:#000;
  }</style>
  <g s:type="add" transform="translate(238.33333333333334,22)" s:width="25" s:height="25" id="cell_\12">
    <s:alias val="$add"/>
    <circle r="12.5" cx="12.5" cy="12.5" class="cell_\12"/>
    <line x1="7.5" x2="17.5" y1="12.5" y2="12.5" class="cell_\12"/>
    <line x1="12.5" x2="12.5" y1="7.5" y2="17.5" class="cell_\12"/>
    <g s:x="3" s:y="5" s:pid="A"/>
    <g s:x="3" s:y="20" s:pid="B"/>
    <g s:x="25" s:y="12.5" s:pid="Y"/>
  </g>
  <g s:type="mux" transform="translate(314,24.5)" s:width="20" s:height="40" id="cell_\16">
    <s:alias val="$pmux"/>
    <s:alias val="$mux"/>
    <s:alias val="$_MUX_"/>
    <path d="M0,0 L20,10 L20,30 L0,40 Z" class="cell_\16"/>
    <g s:x="0" s:y="10" s:pid="A"/>
    <g s:x="0" s:y="30" s:pid="B"/>
    <g s:x="10" s:y="35" s:pid="S"/>
    <g s:x="20" s:y="20" s:pid="Y"/>
  </g>
  <g s:type="reduce_nxor" transform="translate(308,264)" s:width="33" s:height="25" id="cell_\20">
    <s:alias val="$xnor"/>
    <s:alias val="$reduce_xnor"/>
    <s:alias val="$_XNOR_"/>
    <path d="M3,0 A30 25 0 0 1 3,25 A30 25 0 0 0 33,12.5 A30 25 0 0 0 3,0" class="cell_\20"/>
    <path d="M0,0 A30 25 0 0 1 0,25" class="cell_\20"/>
    <circle cx="35" cy="12.5" r="3" class="cell_\20"/>
    <g s:x="3" s:y="5" s:pid="A"/>
    <g s:x="3" s:y="20" s:pid="B"/>
    <g s:x="38" s:y="12.5" s:pid="Y"/>
  </g>
  <g s:type="mux" transform="translate(172.66666666666666,154)" s:width="20" s:height="40" id="cell_\21">
    <s:alias val="$pmux"/>
    <s:alias val="$mux"/>
    <s:alias val="$_MUX_"/>
    <path d="M0,0 L20,10 L20,30 L0,40 Z" class="cell_\21"/>
    <g s:x="0" s:y="10" s:pid="A"/>
    <g s:x="0" s:y="30" s:pid="B"/>
    <g s:x="10" s:y="35" s:pid="S"/>
    <g s:x="20" s:y="20" s:pid="Y"/>
  </g>
  <g s:type="dff" transform="translate(234,164)" s:width="30" s:height="40" id="cell_\22">
    <s:alias val="$dff"/>
    <s:alias val="$_DFF_"/>
    <s:alias val="$_DFF_P_"/>
    <rect width="30" height="40" x="0" y="0" class="cell_\22"/>
    <path d="M0,35 L5,30 L0,25" class="cell_\22"/>
    <g s:x="30" s:y="10" s:pid="Q"/>
    <g s:x="0" s:y="30" s:pid="CLK"/>
    <g s:x="0" s:y="30" s:pid="C"/>
    <g s:x="0" s:y="10" s:pid="D"/>
  </g>
  <g s:type="dff" transform="translate(381,34.5)" s:width="30" s:height="40" id="cell_\23">
    <s:alias val="$dff"/>
    <s:alias val="$_DFF_"/>
    <s:alias val="$_DFF_P_"/>
    <rect width="30" height="40" x="0" y="0" class="cell_\23"/>
    <path d="M0,35 L5,30 L0,25" class="cell_\23"/>
    <g s:x="30" s:y="10" s:pid="Q"/>
    <g s:x="0" s:y="30" s:pid="CLK"/>
    <g s:x="0" s:y="30" s:pid="C"/>
    <g s:x="0" s:y="10" s:pid="D"/>
  </g>
  <g s:type="eq" transform="translate(104.33333333333333,109.5)" s:width="25" s:height="25" id="cell_\8">
    <s:alias val="$eq"/>
    <circle r="12.5" cx="12.5" cy="12.5" class="cell_\8"/>
    <line x1="7.5" x2="17.5" y1="10" y2="10" class="cell_\8"/>
    <line x1="7.5" x2="17.5" y1="15" y2="15" class="cell_\8"/>
    <g s:x="3" s:y="5" s:pid="A"/>
    <g s:x="3" s:y="20" s:pid="B"/>
    <g s:x="25" s:y="12.5" s:pid="Y"/>
  </g>
  <g s:type="not" transform="translate(101,174)" s:width="30" s:height="20" id="cell_\9">
    <s:alias val="$_NOT_"/>
    <s:alias val="$not"/>
    <s:alias val="$logic_not"/>
    <path d="M0,0 L0,20 L20,10 Z" class="cell_\9"/>
    <circle cx="23" cy="10" r="3" class="cell_\9"/>
    <g s:x="0" s:y="10" s:pid="A"/>
    <g s:x="25" s:y="10" s:pid="Y"/>
  </g>
  <g s:type="inputExt" transform="translate(166,224)" s:width="30" s:height="20" id="cell_clk">
    <text x="15" y="-4" class="nodelabel cell_clk" s:attribute="ref">clk</text>
    <s:alias val="$_inputExt_"/>
    <path d="M0,0 L0,20 L15,20 L30,10 L15,0 Z" class="cell_clk"/>
    <g s:x="28" s:y="10" s:pid="Y"/>
  </g>
  <g s:type="inputExt" transform="translate(231,274)" s:width="30" s:height="20" id="cell_button1">
    <text x="15" y="-4" class="nodelabel cell_button1" s:attribute="ref">button1</text>
    <s:alias val="$_inputExt_"/>
    <path d="M0,0 L0,20 L15,20 L30,10 L15,0 Z" class="cell_button1"/>
    <g s:x="28" s:y="10" s:pid="Y"/>
  </g>
  <g s:type="outputExt" transform="translate(381,164)" s:width="30" s:height="20" id="cell_led">
    <text x="15" y="-4" class="nodelabel cell_led" s:attribute="ref">led</text>
    <s:alias val="$_outputExt_"/>
    <path d="M30,0 L30,20 L15,20 L0,10 L15,0 Z" class="cell_led"/>
    <g s:x="0" s:y="10" s:pid="A"/>
  </g>
  <g s:type="outputExt" transform="translate(381,266.5)" s:width="30" s:height="20" id="cell_led2">
    <text x="15" y="-4" class="nodelabel cell_led2" s:attribute="ref">led2</text>
    <s:alias val="$_outputExt_"/>
    <path d="M30,0 L30,20 L15,20 L0,10 L15,0 Z" class="cell_led2"/>
    <g s:x="0" s:y="10" s:pid="A"/>
  </g>
  <g s:type="constant" transform="translate(166,32)" s:width="30" s:height="20" id="cell_1">
    <text x="15" y="-4" class="nodelabel cell_1" s:attribute="ref">1</text>
    <s:alias val="$_constant_"/>
    <rect width="30" height="20" class="cell_1"/>
    <g s:x="30" s:y="10" s:pid="Y"/>
  </g>
  <g s:type="constant" transform="translate(231,92)" s:width="30" s:height="20" id="cell_00000000000000000000000000">
    <text x="15" y="-4" class="nodelabel cell_00000000000000000000000000" s:attribute="ref">0x0</text>
    <s:alias val="$_constant_"/>
    <rect width="30" height="20" class="cell_00000000000000000000000000"/>
    <g s:x="30" s:y="10" s:pid="Y"/>
  </g>
  <g s:type="constant" transform="translate(12,119.5)" s:width="30" s:height="20" id="cell_10111110101111000001111111">
    <text x="15" y="-4" class="nodelabel cell_10111110101111000001111111" s:attribute="ref">0x2faf07f</text>
    <s:alias val="$_constant_"/>
    <rect width="30" height="20" class="cell_10111110101111000001111111"/>
    <g s:x="30" s:y="10" s:pid="Y"/>
  </g>
  <line x1="411" x2="421" y1="44.5" y2="44.5" class="net_6,7,8,9,10,11,12,13,14,15,16,17,18,19,20,21,22,23,24,25,26,27,28,29,30,31"/>
  <line x1="421" x2="421" y1="44.5" y2="12" class="net_6,7,8,9,10,11,12,13,14,15,16,17,18,19,20,21,22,23,24,25,26,27,28,29,30,31"/>
  <line x1="421" x2="206" y1="12" y2="12" class="net_6,7,8,9,10,11,12,13,14,15,16,17,18,19,20,21,22,23,24,25,26,27,28,29,30,31"/>
  <line x1="206" x2="206" y1="12" y2="27" class="net_6,7,8,9,10,11,12,13,14,15,16,17,18,19,20,21,22,23,24,25,26,27,28,29,30,31"/>
  <circle cx="421" cy="44.5" r="2" style="fill:#000" class="net_6,7,8,9,10,11,12,13,14,15,16,17,18,19,20,21,22,23,24,25,26,27,28,29,30,31"/>
  <line x1="206" x2="241.33333333333334" y1="27" y2="27" class="net_6,7,8,9,10,11,12,13,14,15,16,17,18,19,20,21,22,23,24,25,26,27,28,29,30,31"/>
  <line x1="411" x2="421" y1="44.5" y2="44.5" class="net_6,7,8,9,10,11,12,13,14,15,16,17,18,19,20,21,22,23,24,25,26,27,28,29,30,31"/>
  <line x1="421" x2="421" y1="44.5" y2="304" class="net_6,7,8,9,10,11,12,13,14,15,16,17,18,19,20,21,22,23,24,25,26,27,28,29,30,31"/>
  <line x1="421" x2="76" y1="304" y2="304" class="net_6,7,8,9,10,11,12,13,14,15,16,17,18,19,20,21,22,23,24,25,26,27,28,29,30,31"/>
  <line x1="76" x2="76" y1="304" y2="114.5" class="net_6,7,8,9,10,11,12,13,14,15,16,17,18,19,20,21,22,23,24,25,26,27,28,29,30,31"/>
  <line x1="76" x2="107.33333333333333" y1="114.5" y2="114.5" class="net_6,7,8,9,10,11,12,13,14,15,16,17,18,19,20,21,22,23,24,25,26,27,28,29,30,31"/>
  <line x1="196" x2="241.33333333333334" y1="42" y2="42" class="net_87"/>
  <line x1="263.33333333333337" x2="314" y1="34.5" y2="34.5" class="net_32,33,34,35,36,37,38,39,40,41,42,43,44,45,46,47,48,49,50,51,52,53,54,55,56,57"/>
  <line x1="261" x2="283" y1="102" y2="102" class="net_88,89,90,91,92,93,94,95,96,97,98,99,100,101,102,103,104,105,106,107,108,109,110,111,112,113"/>
  <line x1="283" x2="283" y1="102" y2="54.5" class="net_88,89,90,91,92,93,94,95,96,97,98,99,100,101,102,103,104,105,106,107,108,109,110,111,112,113"/>
  <line x1="283" x2="314" y1="54.5" y2="54.5" class="net_88,89,90,91,92,93,94,95,96,97,98,99,100,101,102,103,104,105,106,107,108,109,110,111,112,113"/>
  <line x1="129.33333333333331" x2="324" y1="122" y2="122" class="net_58"/>
  <line x1="324" x2="324" y1="122" y2="59.5" class="net_58"/>
  <line x1="129.33333333333331" x2="141" y1="122" y2="122" class="net_58"/>
  <line x1="141" x2="141" y1="122" y2="204" class="net_58"/>
  <line x1="141" x2="182.66666666666666" y1="204" y2="204" class="net_58"/>
  <circle cx="141" cy="122" r="2" style="fill:#000" class="net_58"/>
  <line x1="182.66666666666666" x2="182.66666666666666" y1="204" y2="189" class="net_58"/>
  <line x1="264" x2="283" y1="174" y2="174" class="net_4"/>
  <line x1="283" x2="283" y1="174" y2="269" class="net_4"/>
  <line x1="283" x2="311" y1="269" y2="269" class="net_4"/>
  <line x1="264" x2="283" y1="174" y2="174" class="net_4"/>
  <line x1="283" x2="283" y1="174" y2="144" class="net_4"/>
  <line x1="283" x2="151" y1="144" y2="144" class="net_4"/>
  <line x1="151" x2="151" y1="144" y2="164" class="net_4"/>
  <circle cx="283" cy="174" r="2" style="fill:#000" class="net_4"/>
  <line x1="151" x2="172.66666666666666" y1="164" y2="164" class="net_4"/>
  <line x1="264" x2="283" y1="174" y2="174" class="net_4"/>
  <line x1="283" x2="283" y1="174" y2="254" class="net_4"/>
  <line x1="283" x2="86" y1="254" y2="254" class="net_4"/>
  <line x1="86" x2="86" y1="254" y2="184" class="net_4"/>
  <circle cx="283" cy="254" r="2" style="fill:#000" class="net_4"/>
  <line x1="86" x2="101" y1="184" y2="184" class="net_4"/>
  <line x1="264" x2="381" y1="174" y2="174" class="net_4"/>
  <line x1="259" x2="311" y1="284" y2="284" class="net_3"/>
  <line x1="126" x2="172.66666666666666" y1="184" y2="184" class="net_85"/>
  <line x1="194" x2="206" y1="234" y2="234" class="net_2"/>
  <line x1="206" x2="206" y1="234" y2="194" class="net_2"/>
  <circle cx="206" cy="194" r="2" style="fill:#000" class="net_2"/>
  <line x1="206" x2="234" y1="194" y2="194" class="net_2"/>
  <line x1="194" x2="206" y1="234" y2="234" class="net_2"/>
  <line x1="206" x2="206" y1="234" y2="133" class="net_2"/>
  <line x1="206" x2="356" y1="133" y2="133" class="net_2"/>
  <line x1="356" x2="356" y1="133" y2="64.5" class="net_2"/>
  <line x1="356" x2="381" y1="64.5" y2="64.5" class="net_2"/>
  <line x1="192.66666666666666" x2="234" y1="174" y2="174" class="net_86"/>
  <line x1="334" x2="381" y1="44.5" y2="44.5" class="net_59,60,61,62,63,64,65,66,67,68,69,70,71,72,73,74,75,76,77,78,79,80,81,82,83,84"/>
  <line x1="42" x2="107.33333333333333" y1="129.5" y2="129.5" class="net_114,115,116,117,118,119,120,121,122,123,124,125,126,127,128,129,130,131,132,133,134,135,136,137,138,139"/>
  <line x1="346" x2="381" y1="276.5" y2="276.5" class="net_5"/>
</svg>
