<svg xmlns="http://www.w3.org/2000/svg" xmlns:xlink="http://www.w3.org/1999/xlink" xmlns:s="https://github.com/nturley/netlistsvg" width="381" height="192.5">
  <style>svg {
    stroke:#000;
    fill:none;
  }
  text {
    fill:#000;
    stroke:none;
    font-size:10px;
    font-weight: bold;
    font-family: "Courier New", monospace;
  }
  .nodelabel {
    text-anchor: middle;
  }
  .inputPortLabel {
    text-anchor: end;
  }
  .splitjoinBody {
    fill:#000;
  }</style>
  <g s:type="lt" transform="translate(208.66666666666666,80.5)" s:width="25" s:height="25" id="cell_:10">
    <s:alias val="$lt"/>
    <circle r="12.5" cx="12.5" cy="12.5" class="cell_:10"/>
    <line x1="7.5" x2="17.5" y1="12.5" y2="7.5" class="cell_:10"/>
    <line x1="7.5" x2="17.5" y1="12.5" y2="17.5" class="cell_:10"/>
    <g s:x="3" s:y="5" s:pid="A"/>
    <g s:x="3" s:y="20" s:pid="B"/>
    <g s:x="25" s:y="12.5" s:pid="Y"/>
  </g>
  <g s:type="mux" transform="translate(272,22)" s:width="20" s:height="40" id="cell_:11">
    <s:alias val="$pmux"/>
    <s:alias val="$mux"/>
    <s:alias val="$_MUX_"/>
    <path d="M0,0 L20,10 L20,30 L0,40 Z" class="cell_:11"/>
    <g s:x="0" s:y="10" s:pid="A"/>
    <g s:x="0" s:y="30" s:pid="B"/>
    <g s:x="10" s:y="35" s:pid="S"/>
    <g s:x="20" s:y="20" s:pid="Y"/>
  </g>
  <g s:type="dff" transform="translate(142,75.5)" s:width="30" s:height="40" id="cell_:13">
    <s:alias val="$dff"/>
    <s:alias val="$_DFF_"/>
    <s:alias val="$_DFF_P_"/>
    <rect width="30" height="40" x="0" y="0" class="cell_:13"/>
    <path d="M0,35 L5,30 L0,25" class="cell_:13"/>
    <g s:x="30" s:y="10" s:pid="Q"/>
    <g s:x="0" s:y="30" s:pid="CLK"/>
    <g s:x="0" s:y="30" s:pid="C"/>
    <g s:x="0" s:y="10" s:pid="D"/>
  </g>
  <g s:type="add" transform="translate(80.33333333333333,73)" s:width="25" s:height="25" id="cell_:6">
    <s:alias val="$add"/>
    <circle r="12.5" cx="12.5" cy="12.5" class="cell_:6"/>
    <line x1="7.5" x2="17.5" y1="12.5" y2="12.5" class="cell_:6"/>
    <line x1="12.5" x2="12.5" y1="7.5" y2="17.5" class="cell_:6"/>
    <g s:x="3" s:y="5" s:pid="A"/>
    <g s:x="3" s:y="20" s:pid="B"/>
    <g s:x="25" s:y="12.5" s:pid="Y"/>
  </g>
  <g s:type="inputExt" transform="translate(77,143)" s:width="30" s:height="20" id="cell_clk">
    <text x="15" y="-4" class="nodelabel cell_clk" s:attribute="ref">clk</text>
    <s:alias val="$_inputExt_"/>
    <path d="M0,0 L0,20 L15,20 L30,10 L15,0 Z" class="cell_clk"/>
    <g s:x="28" s:y="10" s:pid="Y"/>
  </g>
  <g s:type="inputExt" transform="translate(142,160.5)" s:width="30" s:height="20" id="cell_duty">
    <text x="15" y="-4" class="nodelabel cell_duty" s:attribute="ref">duty</text>
    <s:alias val="$_inputExt_"/>
    <path d="M0,0 L0,20 L15,20 L30,10 L15,0 Z" class="cell_duty"/>
    <g s:x="28" s:y="10" s:pid="Y"/>
  </g>
  <g s:type="outputExt" transform="translate(327,32)" s:width="30" s:height="20" id="cell_pwm_out">
    <text x="15" y="-4" class="nodelabel cell_pwm_out" s:attribute="ref">pwm_out</text>
    <s:alias val="$_outputExt_"/>
    <path d="M30,0 L30,20 L15,20 L0,10 L15,0 Z" class="cell_pwm_out"/>
    <g s:x="0" s:y="10" s:pid="A"/>
  </g>
  <g s:type="constant" transform="translate(207,22)" s:width="30" s:height="20" id="cell_0">
    <text x="15" y="-4" class="nodelabel cell_0" s:attribute="ref">0</text>
    <s:alias val="$_constant_"/>
    <rect width="30" height="20" class="cell_0"/>
    <g s:x="30" s:y="10" s:pid="Y"/>
  </g>
  <g s:type="constant" transform="translate(12,42)" s:width="30" s:height="20" id="cell_1">
    <text x="15" y="-4" class="nodelabel cell_1" s:attribute="ref">1</text>
    <s:alias val="$_constant_"/>
    <rect width="30" height="20" class="cell_1"/>
    <g s:x="30" s:y="10" s:pid="Y"/>
  </g>
  <line x1="172" x2="211.66666666666666" y1="85.5" y2="85.5" class="net_12,13,14,15,16,17,18,19"/>
  <line x1="172" x2="182" y1="85.5" y2="85.5" class="net_12,13,14,15,16,17,18,19"/>
  <line x1="182" x2="182" y1="85.5" y2="63" class="net_12,13,14,15,16,17,18,19"/>
  <line x1="182" x2="62" y1="63" y2="63" class="net_12,13,14,15,16,17,18,19"/>
  <line x1="62" x2="62" y1="63" y2="78" class="net_12,13,14,15,16,17,18,19"/>
  <circle cx="182" cy="85.5" r="2" style="fill:#000" class="net_12,13,14,15,16,17,18,19"/>
  <line x1="62" x2="83.33333333333333" y1="78" y2="78" class="net_12,13,14,15,16,17,18,19"/>
  <line x1="170" x2="182" y1="170.5" y2="170.5" class="net_3,4,5,6,7,8,9,10"/>
  <line x1="182" x2="182" y1="170.5" y2="100.5" class="net_3,4,5,6,7,8,9,10"/>
  <line x1="182" x2="211.66666666666666" y1="100.5" y2="100.5" class="net_3,4,5,6,7,8,9,10"/>
  <line x1="237" x2="272" y1="32" y2="32" class="net_29"/>
  <line x1="42" x2="272" y1="52" y2="52" class="net_30"/>
  <line x1="42" x2="52" y1="52" y2="52" class="net_30"/>
  <line x1="52" x2="52" y1="52" y2="93" class="net_30"/>
  <circle cx="52" cy="52" r="2" style="fill:#000" class="net_30"/>
  <line x1="52" x2="83.33333333333333" y1="93" y2="93" class="net_30"/>
  <line x1="233.66666666666666" x2="282" y1="93" y2="93" class="net_20"/>
  <line x1="282" x2="282" y1="93" y2="57" class="net_20"/>
  <line x1="105" x2="117" y1="153" y2="153" class="net_2"/>
  <line x1="117" x2="117" y1="153" y2="105.5" class="net_2"/>
  <line x1="117" x2="142" y1="105.5" y2="105.5" class="net_2"/>
  <line x1="105.33333333333333" x2="142" y1="85.5" y2="85.5" class="net_21,22,23,24,25,26,27,28"/>
  <line x1="292" x2="327" y1="42" y2="42" class="net_11"/>
</svg>
