<svg xmlns="http://www.w3.org/2000/svg" xmlns:xlink="http://www.w3.org/1999/xlink" xmlns:s="https://github.com/nturley/netlistsvg" width="450" height="304"><style>svg {
  stroke:#000;
  fill:none;
}
text {
  fill:#000;
  stroke:none;
  font-size:10px;
  font-weight: bold;
  font-family: "Courier New", monospace;
}
.nodelabel {
  text-anchor: middle;
}
.inputPortLabel {
  text-anchor: end;
}
.splitjoinBody {
  fill:#000;
}</style><g s:type="eq" transform="translate(135.66666666666669,197)" s:width="25" s:height="25" id="cell_$eq$hazard_detector.v:18$3"><s:alias val="$eq"/><circle r="12.5" cx="12.5" cy="12.5" class="cell_$eq$hazard_detector.v:18$3"/><line x1="7.5" x2="17.5" y1="10" y2="10" class="cell_$eq$hazard_detector.v:18$3"/><line x1="7.5" x2="17.5" y1="15" y2="15" class="cell_$eq$hazard_detector.v:18$3"/><g s:x="3" s:y="5" s:pid="A"/><g s:x="3" s:y="20" s:pid="B"/><g s:x="25" s:y="12.5" s:pid="Y"/></g><g s:type="eq" transform="translate(135.66666666666669,262)" s:width="25" s:height="25" id="cell_$eq$hazard_detector.v:18$4"><s:alias val="$eq"/><circle r="12.5" cx="12.5" cy="12.5" class="cell_$eq$hazard_detector.v:18$4"/><line x1="7.5" x2="17.5" y1="10" y2="10" class="cell_$eq$hazard_detector.v:18$4"/><line x1="7.5" x2="17.5" y1="15" y2="15" class="cell_$eq$hazard_detector.v:18$4"/><g s:x="3" s:y="5" s:pid="A"/><g s:x="3" s:y="20" s:pid="B"/><g s:x="25" s:y="12.5" s:pid="Y"/></g><g s:type="and" transform="translate(223,119.5)" s:width="30" s:height="25" id="cell_$logic_and$hazard_detector.v:17$2"><s:alias val="$and"/><s:alias val="$reduce_and"/><s:alias val="$logic_and"/><s:alias val="$_AND_"/><path d="M0,0 L0,25 L15,25 A15 12.5 0 0 0 15,0 Z" class="cell_$logic_and$hazard_detector.v:17$2"/><text x="13" y="15" class="nodelabel" style="font-size:7px">AND</text><g s:x="0" s:y="5" s:pid="A"/><g s:x="0" s:y="20" s:pid="B"/><g s:x="30" s:y="12.5" s:pid="Y"/></g><g s:type="and" transform="translate(288,247)" s:width="30" s:height="25" id="cell_$logic_and$hazard_detector.v:17$6"><s:alias val="$and"/><s:alias val="$reduce_and"/><s:alias val="$logic_and"/><s:alias val="$_AND_"/><path d="M0,0 L0,25 L15,25 A15 12.5 0 0 0 15,0 Z" class="cell_$logic_and$hazard_detector.v:17$6"/><text x="13" y="15" class="nodelabel" style="font-size:7px">AND</text><g s:x="0" s:y="5" s:pid="A"/><g s:x="0" s:y="20" s:pid="B"/><g s:x="30" s:y="12.5" s:pid="Y"/></g><g s:type="or" transform="translate(223,254.5)" s:width="30" s:height="25" id="cell_$logic_or$hazard_detector.v:18$5"><s:alias val="$or"/><s:alias val="$reduce_or"/><s:alias val="$reduce_bool"/><s:alias val="$logic_or"/><s:alias val="$_OR_"/><path d="M0,25 L0,25 L15,25 A15 12.5 0 0 0 15,0 L0,0" class="cell_$logic_or$hazard_detector.v:18$5"/><path d="M0,0 A30 25 0 0 1 0,25" class="cell_$logic_or$hazard_detector.v:18$5"/><text x="17" y="15" class="nodelabel" style="font-size:7px">OR</text><g s:x="3" s:y="5" s:pid="A"/><g s:x="3" s:y="20" s:pid="B"/><g s:x="30" s:y="12.5" s:pid="Y"/></g><g s:type="or" transform="translate(140,127)" s:width="30" s:height="25" id="cell_$ne$hazard_detector.v:17$1"><s:alias val="$or"/><s:alias val="$reduce_or"/><s:alias val="$reduce_bool"/><s:alias val="$logic_or"/><s:alias val="$_OR_"/><path d="M0,25 L0,25 L15,25 A15 12.5 0 0 0 15,0 L0,0" class="cell_$ne$hazard_detector.v:17$1"/><path d="M0,0 A30 25 0 0 1 0,25" class="cell_$ne$hazard_detector.v:17$1"/><text x="17" y="15" class="nodelabel" style="font-size:7px">OR</text><g s:x="3" s:y="5" s:pid="A"/><g s:x="3" s:y="20" s:pid="B"/><g s:x="30" s:y="12.5" s:pid="Y"/></g><g s:type="mux" transform="translate(353,172)" s:width="20" s:height="40" id="cell_$ternary$hazard_detector.v:17$7"><s:alias val="$pmux"/><s:alias val="$mux"/><s:alias val="$_MUX_"/><path d="M0,0 L20,10 L20,30 L0,40 Z" class="cell_$ternary$hazard_detector.v:17$7"/><g s:x="0" s:y="10" s:pid="A"/><g s:x="0" s:y="30" s:pid="B"/><g s:x="10" s:y="35" s:pid="S"/><g s:x="20" s:y="20" s:pid="Y"/></g><g s:type="inputExt" transform="translate(12,207)" s:width="30" s:height="20" id="cell_id_rs1"><text x="15" y="-4" class="nodelabel cell_id_rs1" s:attribute="ref">id_rs1</text><s:alias val="$_inputExt_"/><path d="M0,0 L0,20 L15,20 L30,10 L15,0 Z" class="cell_id_rs1"/><g s:x="28" s:y="10" s:pid="Y"/></g><g s:type="inputExt" transform="translate(12,272)" s:width="30" s:height="20" id="cell_id_rs2"><text x="15" y="-4" class="nodelabel cell_id_rs2" s:attribute="ref">id_rs2</text><s:alias val="$_inputExt_"/><path d="M0,0 L0,20 L15,20 L30,10 L15,0 Z" class="cell_id_rs2"/><g s:x="28" s:y="10" s:pid="Y"/></g><g s:type="inputExt" transform="translate(12,142)" s:width="30" s:height="20" id="cell_ex_rd"><text x="15" y="-4" class="nodelabel cell_ex_rd" s:attribute="ref">ex_rd</text><s:alias val="$_inputExt_"/><path d="M0,0 L0,20 L15,20 L30,10 L15,0 Z" class="cell_ex_rd"/><g s:x="28" s:y="10" s:pid="Y"/></g><g s:type="inputExt" transform="translate(122,72)" s:width="30" s:height="20" id="cell_ex_mem_read"><text x="15" y="-4" class="nodelabel cell_ex_mem_read" s:attribute="ref">ex_mem_read</text><s:alias val="$_inputExt_"/><path d="M0,0 L0,20 L15,20 L30,10 L15,0 Z" class="cell_ex_mem_read"/><g s:x="28" s:y="10" s:pid="Y"/></g><g s:type="inputExt" transform="translate(12,22)" s:width="30" s:height="20" id="cell_branch_taken"><text x="15" y="-4" class="nodelabel cell_branch_taken" s:attribute="ref">branch_taken</text><s:alias val="$_inputExt_"/><path d="M0,0 L0,20 L15,20 L30,10 L15,0 Z" class="cell_branch_taken"/><g s:x="28" s:y="10" s:pid="Y"/></g><g s:type="outputExt" transform="translate(408,182)" s:width="30" s:height="20" id="cell_stall"><text x="15" y="-4" class="nodelabel cell_stall" s:attribute="ref">stall</text><s:alias val="$_outputExt_"/><path d="M30,0 L30,20 L15,20 L0,10 L15,0 Z" class="cell_stall"/><g s:x="0" s:y="10" s:pid="A"/></g><g s:type="outputExt" transform="translate(119,22)" s:width="30" s:height="20" id="cell_flush"><text x="15" y="-4" class="nodelabel cell_flush" s:attribute="ref">flush</text><s:alias val="$_outputExt_"/><path d="M30,0 L30,20 L15,20 L0,10 L15,0 Z" class="cell_flush"/><g s:x="0" s:y="10" s:pid="A"/></g><g s:type="constant" transform="translate(288,127)" s:width="30" s:height="20" id="cell_0"><text x="15" y="-4" class="nodelabel cell_0" s:attribute="ref">0</text><s:alias val="$_constant_"/><rect width="30" height="20" class="cell_0"/><g s:x="30" s:y="10" s:pid="Y"/></g><g s:type="constant" transform="translate(288,192)" s:width="30" s:height="20" id="cell_1"><text x="15" y="-4" class="nodelabel cell_1" s:attribute="ref">1</text><s:alias val="$_constant_"/><rect width="30" height="20" class="cell_1"/><g s:x="30" s:y="10" s:pid="Y"/></g><line x1="40" x2="97" y1="152" y2="152" class="net_12,13,14,15,16 width_5" style="stroke-width: 2"/><line x1="97" x2="97" y1="152" y2="202" class="net_12,13,14,15,16 width_5" style="stroke-width: 2"/><line x1="97" x2="138.66666666666669" y1="202" y2="202" class="net_12,13,14,15,16 width_5" style="stroke-width: 2"/><line x1="40" x2="58" y1="152" y2="152" class="net_12,13,14,15,16 width_5" style="stroke-width: 2"/><line x1="58" x2="58" y1="152" y2="262" class="net_12,13,14,15,16 width_5" style="stroke-width: 2"/><line x1="58" x2="97" y1="262" y2="262" class="net_12,13,14,15,16 width_5" style="stroke-width: 2"/><line x1="97" x2="97" y1="262" y2="267" class="net_12,13,14,15,16 width_5" style="stroke-width: 2"/><circle cx="58" cy="152" r="3" style="fill:#000" class="net_12,13,14,15,16 width_5"/><line x1="97" x2="138.66666666666669" y1="267" y2="267" class="net_12,13,14,15,16 width_5" style="stroke-width: 2"/><line x1="40" x2="58" y1="152" y2="152" class="net_12,13,14,15,16 width_5" style="stroke-width: 2"/><line x1="58" x2="58" y1="152" y2="132" class="net_12,13,14,15,16 width_5" style="stroke-width: 2"/><line x1="58" x2="143" y1="132" y2="132" class="net_12,13,14,15,16 width_5" style="stroke-width: 2"/><line x1="40" x2="138.66666666666669" y1="217" y2="217" class="net_2,3,4,5,6 width_5" style="stroke-width: 2"/><line x1="40" x2="138.66666666666669" y1="282" y2="282" class="net_7,8,9,10,11 width_5" style="stroke-width: 2"/><line x1="150" x2="198" y1="82" y2="82" class="net_17 width_1" style="stroke-width: 1"/><line x1="198" x2="198" y1="82" y2="124.5" class="net_17 width_1" style="stroke-width: 1"/><line x1="198" x2="223" y1="124.5" y2="124.5" class="net_17 width_1" style="stroke-width: 1"/><line x1="170" x2="223" y1="139.5" y2="139.5" class="net_22 width_1" style="stroke-width: 1"/><line x1="253" x2="263" y1="132" y2="132" class="net_23 width_1" style="stroke-width: 1"/><line x1="263" x2="263" y1="132" y2="252" class="net_23 width_1" style="stroke-width: 1"/><line x1="263" x2="288" y1="252" y2="252" class="net_23 width_1" style="stroke-width: 1"/><line x1="253" x2="288" y1="267" y2="267" class="net_24 width_1" style="stroke-width: 1"/><line x1="160.66666666666669" x2="198" y1="209.5" y2="209.5" class="net_20 width_1" style="stroke-width: 1"/><line x1="198" x2="198" y1="209.5" y2="259.5" class="net_20 width_1" style="stroke-width: 1"/><line x1="198" x2="226" y1="259.5" y2="259.5" class="net_20 width_1" style="stroke-width: 1"/><line x1="160.66666666666669" x2="226" y1="274.5" y2="274.5" class="net_21 width_1" style="stroke-width: 1"/><line x1="318" x2="328" y1="137" y2="137" class="net_26 width_1" style="stroke-width: 1"/><line x1="328" x2="328" y1="137" y2="182" class="net_26 width_1" style="stroke-width: 1"/><line x1="328" x2="353" y1="182" y2="182" class="net_26 width_1" style="stroke-width: 1"/><line x1="318" x2="353" y1="202" y2="202" class="net_27 width_1" style="stroke-width: 1"/><line x1="318" x2="363" y1="259.5" y2="259.5" class="net_25 width_1" style="stroke-width: 1"/><line x1="363" x2="363" y1="259.5" y2="207" class="net_25 width_1" style="stroke-width: 1"/><line x1="373" x2="408" y1="192" y2="192" class="net_19 width_1" style="stroke-width: 1"/><line x1="40" x2="119" y1="32" y2="32" class="net_18 width_1" style="stroke-width: 1"/><rect x="84" y="127" width="16" height="9" class="net_12,13,14,15,16 width_5 busLabel_5" style="fill: white; stroke: none"/><text x="83" y="135" class="net_12,13,14,15,16 width_5 busLabel_5">/5/</text><rect x="84" y="127" width="16" height="9" class="net_12,13,14,15,16 width_5 busLabel_5" style="fill: white; stroke: none"/><text x="83" y="135" class="net_12,13,14,15,16 width_5 busLabel_5">/5/</text><rect x="84" y="127" width="16" height="9" class="net_12,13,14,15,16 width_5 busLabel_5" style="fill: white; stroke: none"/><text x="83" y="135" class="net_12,13,14,15,16 width_5 busLabel_5">/5/</text><rect x="84" y="212" width="16" height="9" class="net_2,3,4,5,6 width_5 busLabel_5" style="fill: white; stroke: none"/><text x="83" y="220" class="net_2,3,4,5,6 width_5 busLabel_5">/5/</text><rect x="84" y="277" width="16" height="9" class="net_7,8,9,10,11 width_5 busLabel_5" style="fill: white; stroke: none"/><text x="83" y="285" class="net_7,8,9,10,11 width_5 busLabel_5">/5/</text></svg>