<svg xmlns="http://www.w3.org/2000/svg" xmlns:xlink="http://www.w3.org/1999/xlink" xmlns:s="https://github.com/nturley/netlistsvg" width="409" height="121.5"><style>svg {
  stroke:#000;
  fill:none;
}
text {
  fill:#000;
  stroke:none;
  font-size:10px;
  font-weight: bold;
  font-family: "Courier New", monospace;
}
line {
    stroke-linecap: round;
}
.nodelabel {
  text-anchor: middle;
}
.inputPortLabel {
  text-anchor: end;
}
.splitjoinBody {
  fill:#000;
}</style><g s:type="dff-bus" transform="translate(205,28.5)" s:width="34" s:height="44" id="cell_:10"><s:alias val="$dff-bus"/><s:alias val="$_DFF_-bus"/><s:alias val="$_DFF_P_-bus"/><s:alias val="adff-bus"/><s:alias val="$adff-bus"/><s:alias val="$_DFF_-bus"/><s:alias val="$_DFF_P_-bus"/><s:alias val="sdff-bus"/><s:alias val="$sdff-bus"/><s:alias val="$_DFF_-bus"/><s:alias val="$_DFF_P_-bus"/><rect width="30" height="40" x="0" y="0" fill="#ffffff" class="cell_:10"/><path d="M0,35 L5,30 L0,25" fill="#ffffff" class="cell_:10"/><path d="M30,2 L32,2 L32,42 L2,42 L2,40" fill="#ffffff" class="cell_:10"/><path d="M32,4 L34,4 L34,44 L4,44 L4,42" fill="#ffffff" class="cell_:10"/><g s:x="35" s:y="10" s:pid="Q"/><g s:x="-1" s:y="30" s:pid="CLK"/><g s:x="-1" s:y="30" s:pid="C"/><g s:x="-1" s:y="10" s:pid="D"/><g s:x="17" s:y="44" s:pid="ARST"/><g s:x="17" s:y="44" s:pid="SRST"/></g><g s:type="add" transform="translate(78,26)" s:width="25" s:height="25" id="cell_:6"><s:alias val="$add"/><circle r="12.5" cx="12.5" cy="12.5" fill="#ffffff" class="cell_:6"/><line x1="7.5" x2="17.5" y1="12.5" y2="12.5" fill="#ffffff" class="cell_:6"/><line x1="12.5" x2="12.5" y1="7.5" y2="17.5" fill="#ffffff" class="cell_:6"/><g s:x="2" s:y="5" s:pid="A"/><g s:x="2" s:y="20" s:pid="B"/><g s:x="26" s:y="12.5" s:pid="Y"/></g><g s:type="inputExt" transform="translate(139,89.5)" s:width="30" s:height="20" id="cell_clk"><text x="15" y="-4" class="nodelabel cell_clk" s:attribute="ref">clk</text><s:alias val="$_inputExt_"/><path d="M0,0 L0,20 L15,20 L30,10 L15,0 Z" fill="#ffffff" class="cell_clk"/><g s:x="30" s:y="10" s:pid="Y"/></g><g s:type="outputExt" transform="translate(367,28.5)" s:width="30" s:height="20" id="cell_led"><text x="15" y="-4" class="nodelabel cell_led" s:attribute="ref">led</text><s:alias val="$_outputExt_"/><path d="M30,0 L30,20 L15,20 L0,10 L15,0 Z" fill="#ffffff" class="cell_led"/><g s:x="0" s:y="10" s:pid="A"/></g><g s:type="constant" transform="translate(12,36)" s:width="30" s:height="20" id="cell_1"><text x="15" y="-4" class="nodelabel cell_1" s:attribute="ref">1</text><s:alias val="$_constant_"/><rect width="30" height="20" fill="#ffffff" class="cell_1"/><g s:x="31" s:y="10" s:pid="Y"/></g><g s:type="split" transform="translate(314,28)" s:width="5" s:height="40" id="cell_$split$,29,30,31,32,33,34,35,36,37,38,39,40,41,42,43,44,45,46,47,48,49,50,51,52,3,"><rect width="5" height="20" class="splitjoinBody" s:generic="body"/><s:alias val="$_split_"/><g s:x="0" s:y="20" s:pid="in"/><g transform="translate(4,10)" s:x="4" s:y="10" s:pid="out0"><text x="5" y="-4">24</text></g></g><line x1="169" x2="179" y1="99.5" y2="99.5" class="net_2 width_1" style="stroke-width: 1"/><line x1="179" x2="179" y1="99.5" y2="58.5" class="net_2 width_1" style="stroke-width: 1"/><line x1="179" x2="204" y1="58.5" y2="58.5" class="net_2 width_1" style="stroke-width: 1"/><line x1="104" x2="204" y1="38.5" y2="38.5" class="net_4,5,6,7,8,9,10,11,12,13,14,15,16,17,18,19,20,21,22,23,24,25,26,27,28 width_25" style="stroke-width: 2"/><line x1="240" x2="250" y1="38.5" y2="38.5" class="net_29,30,31,32,33,34,35,36,37,38,39,40,41,42,43,44,45,46,47,48,49,50,51,52,3 width_25" style="stroke-width: 2"/><line x1="250" x2="250" y1="38.5" y2="16" class="net_29,30,31,32,33,34,35,36,37,38,39,40,41,42,43,44,45,46,47,48,49,50,51,52,3 width_25" style="stroke-width: 2"/><line x1="250" x2="53" y1="16" y2="16" class="net_29,30,31,32,33,34,35,36,37,38,39,40,41,42,43,44,45,46,47,48,49,50,51,52,3 width_25" style="stroke-width: 2"/><line x1="53" x2="53" y1="16" y2="31" class="net_29,30,31,32,33,34,35,36,37,38,39,40,41,42,43,44,45,46,47,48,49,50,51,52,3 width_25" style="stroke-width: 2"/><circle cx="250" cy="38.5" r="3" style="fill:#000" class="net_29,30,31,32,33,34,35,36,37,38,39,40,41,42,43,44,45,46,47,48,49,50,51,52,3 width_25"/><line x1="53" x2="80" y1="31" y2="31" class="net_29,30,31,32,33,34,35,36,37,38,39,40,41,42,43,44,45,46,47,48,49,50,51,52,3 width_25" style="stroke-width: 2"/><line x1="240" x2="314" y1="38.5" y2="38.5" class="net_29,30,31,32,33,34,35,36,37,38,39,40,41,42,43,44,45,46,47,48,49,50,51,52,3 width_25" style="stroke-width: 2"/><line x1="43" x2="80" y1="46" y2="46" class="net_53 width_1" style="stroke-width: 1"/><line x1="319" x2="367" y1="38.5" y2="38.5" class="net_3 width_1" style="stroke-width: 1"/><rect x="153" y="33.5" width="22" height="9" class="net_4,5,6,7,8,9,10,11,12,13,14,15,16,17,18,19,20,21,22,23,24,25,26,27,28 width_25 busLabel_25" style="fill: white; stroke: none"/><text x="152" y="41.5" class="net_4,5,6,7,8,9,10,11,12,13,14,15,16,17,18,19,20,21,22,23,24,25,26,27,28 width_25 busLabel_25">/25/</text><rect x="276" y="33.5" width="22" height="9" class="net_29,30,31,32,33,34,35,36,37,38,39,40,41,42,43,44,45,46,47,48,49,50,51,52,3 width_25 busLabel_25" style="fill: white; stroke: none"/><text x="275" y="41.5" class="net_29,30,31,32,33,34,35,36,37,38,39,40,41,42,43,44,45,46,47,48,49,50,51,52,3 width_25 busLabel_25">/25/</text><rect x="276" y="33.5" width="22" height="9" class="net_29,30,31,32,33,34,35,36,37,38,39,40,41,42,43,44,45,46,47,48,49,50,51,52,3 width_25 busLabel_25" style="fill: white; stroke: none"/><text x="275" y="41.5" class="net_29,30,31,32,33,34,35,36,37,38,39,40,41,42,43,44,45,46,47,48,49,50,51,52,3 width_25 busLabel_25">/25/</text></svg>