<svg xmlns="http://www.w3.org/2000/svg" xmlns:xlink="http://www.w3.org/1999/xlink" xmlns:s="https://github.com/nturley/netlistsvg" width="933" height="1236">
  <style>svg {
    stroke:#000;
    fill:none;
  }
  text {
    fill:#000;
    stroke:none;
    font-size:10px;
    font-weight: bold;
    font-family: "Courier New", monospace;
  }
  .nodelabel {
    text-anchor: middle;
  }
  .inputPortLabel {
    text-anchor: end;
  }
  .splitjoinBody {
    fill:#000;
  }</style>
  <g s:type="add" transform="translate(501,731)" s:width="25" s:height="25" id="cell_$add$fifo_sync.v:47$18">
    <s:alias val="$add"/>
    <circle r="12.5" cx="12.5" cy="12.5" class="cell_$add$fifo_sync.v:47$18"/>
    <line x1="7.5" x2="17.5" y1="12.5" y2="12.5" class="cell_$add$fifo_sync.v:47$18"/>
    <line x1="12.5" x2="12.5" y1="7.5" y2="17.5" class="cell_$add$fifo_sync.v:47$18"/>
    <g s:x="3" s:y="5" s:pid="A"/>
    <g s:x="3" s:y="20" s:pid="B"/>
    <g s:x="25" s:y="12.5" s:pid="Y"/>
  </g>
  <g s:type="add" transform="translate(501,1064)" s:width="25" s:height="25" id="cell_$add$fifo_sync.v:51$22">
    <s:alias val="$add"/>
    <circle r="12.5" cx="12.5" cy="12.5" class="cell_$add$fifo_sync.v:51$22"/>
    <line x1="7.5" x2="17.5" y1="12.5" y2="12.5" class="cell_$add$fifo_sync.v:51$22"/>
    <line x1="12.5" x2="12.5" y1="7.5" y2="17.5" class="cell_$add$fifo_sync.v:51$22"/>
    <g s:x="3" s:y="5" s:pid="A"/>
    <g s:x="3" s:y="20" s:pid="B"/>
    <g s:x="25" s:y="12.5" s:pid="Y"/>
  </g>
  <g s:type="eq" transform="translate(800.6666666666666,1152)" s:width="25" s:height="25" id="cell_$eq$fifo_sync.v:36$2">
    <s:alias val="$eq"/>
    <circle r="12.5" cx="12.5" cy="12.5" class="cell_$eq$fifo_sync.v:36$2"/>
    <line x1="7.5" x2="17.5" y1="10" y2="10" class="cell_$eq$fifo_sync.v:36$2"/>
    <line x1="7.5" x2="17.5" y1="15" y2="15" class="cell_$eq$fifo_sync.v:36$2"/>
    <g s:x="3" s:y="5" s:pid="A"/>
    <g s:x="3" s:y="20" s:pid="B"/>
    <g s:x="25" s:y="12.5" s:pid="Y"/>
  </g>
  <g s:type="eq" transform="translate(132,1099.5)" s:width="25" s:height="25" id="cell_$eq$fifo_sync.v:38$4">
    <s:alias val="$eq"/>
    <circle r="12.5" cx="12.5" cy="12.5" class="cell_$eq$fifo_sync.v:38$4"/>
    <line x1="7.5" x2="17.5" y1="10" y2="10" class="cell_$eq$fifo_sync.v:38$4"/>
    <line x1="7.5" x2="17.5" y1="15" y2="15" class="cell_$eq$fifo_sync.v:38$4"/>
    <g s:x="3" s:y="5" s:pid="A"/>
    <g s:x="3" s:y="20" s:pid="B"/>
    <g s:x="25" s:y="12.5" s:pid="Y"/>
  </g>
  <g s:type="and" transform="translate(192,1092)" s:width="30" s:height="25" id="cell_$logic_and$fifo_sync.v:37$5">
    <s:alias val="$and"/>
    <s:alias val="$reduce_and"/>
    <s:alias val="$logic_and"/>
    <s:alias val="$_AND_"/>
    <path d="M0,0 L0,25 L15,25 A15 12.5 0 0 0 15,0 Z" class="cell_$logic_and$fifo_sync.v:37$5"/>
    <text x="13" y="15" class="nodelabel" style="font-size:7px">AND</text>
    <g s:x="0" s:y="5" s:pid="A"/>
    <g s:x="0" s:y="20" s:pid="B"/>
    <g s:x="30" s:y="12.5" s:pid="Y"/>
  </g>
  <g s:type="and" transform="translate(326,753.5)" s:width="30" s:height="25" id="cell_$logic_and$fifo_sync.v:45$14">
    <s:alias val="$and"/>
    <s:alias val="$reduce_and"/>
    <s:alias val="$logic_and"/>
    <s:alias val="$_AND_"/>
    <path d="M0,0 L0,25 L15,25 A15 12.5 0 0 0 15,0 Z" class="cell_$logic_and$fifo_sync.v:45$14"/>
    <text x="13" y="15" class="nodelabel" style="font-size:7px">AND</text>
    <g s:x="0" s:y="5" s:pid="A"/>
    <g s:x="0" s:y="20" s:pid="B"/>
    <g s:x="30" s:y="12.5" s:pid="Y"/>
  </g>
  <g s:type="and" transform="translate(499,1124)" s:width="30" s:height="25" id="cell_$logic_and$fifo_sync.v:49$20">
    <s:alias val="$and"/>
    <s:alias val="$reduce_and"/>
    <s:alias val="$logic_and"/>
    <s:alias val="$_AND_"/>
    <path d="M0,0 L0,25 L15,25 A15 12.5 0 0 0 15,0 Z" class="cell_$logic_and$fifo_sync.v:49$20"/>
    <text x="13" y="15" class="nodelabel" style="font-size:7px">AND</text>
    <g s:x="0" s:y="5" s:pid="A"/>
    <g s:x="0" s:y="20" s:pid="B"/>
    <g s:x="30" s:y="12.5" s:pid="Y"/>
  </g>
  <g s:type="not" transform="translate(257,763.5)" s:width="30" s:height="20" id="cell_$logic_not$fifo_sync.v:45$13">
    <s:alias val="$_NOT_"/>
    <s:alias val="$not"/>
    <s:alias val="$logic_not"/>
    <path d="M0,0 L0,20 L20,10 Z" class="cell_$logic_not$fifo_sync.v:45$13"/>
    <circle cx="23" cy="10" r="3" class="cell_$logic_not$fifo_sync.v:45$13"/>
    <text x="8" y="12" class="nodelabel" style="font-size:6px">NOT</text>
    <g s:x="0" s:y="10" s:pid="A"/>
    <g s:x="25" s:y="10" s:pid="Y"/>
  </g>
  <g s:type="not" transform="translate(869,1154.5)" s:width="30" s:height="20" id="cell_$logic_not$fifo_sync.v:49$19">
    <s:alias val="$_NOT_"/>
    <s:alias val="$not"/>
    <s:alias val="$logic_not"/>
    <path d="M0,0 L0,20 L20,10 Z" class="cell_$logic_not$fifo_sync.v:49$19"/>
    <circle cx="23" cy="10" r="3" class="cell_$logic_not$fifo_sync.v:49$19"/>
    <text x="8" y="12" class="nodelabel" style="font-size:6px">NOT</text>
    <g s:x="0" s:y="10" s:pid="A"/>
    <g s:x="25" s:y="10" s:pid="Y"/>
  </g>
  <g s:type="ne" transform="translate(132,1039.5)" s:width="25" s:height="25" id="cell_$ne$fifo_sync.v:37$3">
    <s:alias val="$ne"/>
    <circle r="12.5" cx="12.5" cy="12.5" class="cell_$ne$fifo_sync.v:37$3"/>
    <line x1="7.5" x2="17.5" y1="10" y2="10" class="cell_$ne$fifo_sync.v:37$3"/>
    <line x1="7.5" x2="17.5" y1="15" y2="15" class="cell_$ne$fifo_sync.v:37$3"/>
    <line x1="6" x2="19" y1="20" y2="5" class="cell_$ne$fifo_sync.v:37$3"/>
    <g s:x="3" s:y="5" s:pid="A"/>
    <g s:x="3" s:y="20" s:pid="B"/>
    <g s:x="25" s:y="12.5" s:pid="Y"/>
  </g>
  <g s:type="dff" transform="translate(734,656)" s:width="30" s:height="40" id="cell_$procdff$69">
    <s:alias val="$dff"/>
    <s:alias val="$_DFF_"/>
    <s:alias val="$_DFF_P_"/>
    <rect width="30" height="40" x="0" y="0" class="cell_$procdff$69"/>
    <path d="M0,35 L5,30 L0,25" class="cell_$procdff$69"/>
    <g s:x="30" s:y="10" s:pid="Q"/>
    <g s:x="0" s:y="30" s:pid="CLK"/>
    <g s:x="0" s:y="30" s:pid="C"/>
    <g s:x="0" s:y="10" s:pid="D"/>
  </g>
  <g s:type="dff" transform="translate(734,1162)" s:width="30" s:height="40" id="cell_$procdff$70">
    <s:alias val="$dff"/>
    <s:alias val="$_DFF_"/>
    <s:alias val="$_DFF_P_"/>
    <rect width="30" height="40" x="0" y="0" class="cell_$procdff$70"/>
    <path d="M0,35 L5,30 L0,25" class="cell_$procdff$70"/>
    <g s:x="30" s:y="10" s:pid="Q"/>
    <g s:x="0" s:y="30" s:pid="CLK"/>
    <g s:x="0" s:y="30" s:pid="C"/>
    <g s:x="0" s:y="10" s:pid="D"/>
  </g>
  <g s:type="dff" transform="translate(799,345.5)" s:width="30" s:height="40" id="cell_$procdff$71">
    <s:alias val="$dff"/>
    <s:alias val="$_DFF_"/>
    <s:alias val="$_DFF_P_"/>
    <rect width="30" height="40" x="0" y="0" class="cell_$procdff$71"/>
    <path d="M0,35 L5,30 L0,25" class="cell_$procdff$71"/>
    <g s:x="30" s:y="10" s:pid="Q"/>
    <g s:x="0" s:y="30" s:pid="CLK"/>
    <g s:x="0" s:y="30" s:pid="C"/>
    <g s:x="0" s:y="10" s:pid="D"/>
  </g>
  <g s:type="mux" transform="translate(869,22)" s:width="20" s:height="40" id="cell_$procmux$27">
    <s:alias val="$pmux"/>
    <s:alias val="$mux"/>
    <s:alias val="$_MUX_"/>
    <path d="M0,0 L20,10 L20,30 L0,40 Z" class="cell_$procmux$27"/>
    <g s:x="0" s:y="10" s:pid="A"/>
    <g s:x="0" s:y="30" s:pid="B"/>
    <g s:x="10" s:y="35" s:pid="S"/>
    <g s:x="20" s:y="20" s:pid="Y"/>
  </g>
  <g s:type="mux" transform="translate(437.3333333333333,127)" s:width="20" s:height="40" id="cell_$procmux$33">
    <s:alias val="$pmux"/>
    <s:alias val="$mux"/>
    <s:alias val="$_MUX_"/>
    <path d="M0,0 L20,10 L20,30 L0,40 Z" class="cell_$procmux$33"/>
    <g s:x="0" s:y="10" s:pid="A"/>
    <g s:x="0" s:y="30" s:pid="B"/>
    <g s:x="10" s:y="35" s:pid="S"/>
    <g s:x="20" s:y="20" s:pid="Y"/>
  </g>
  <g s:type="mux" transform="translate(437.3333333333333,223)" s:width="20" s:height="40" id="cell_$procmux$39">
    <s:alias val="$pmux"/>
    <s:alias val="$mux"/>
    <s:alias val="$_MUX_"/>
    <path d="M0,0 L20,10 L20,30 L0,40 Z" class="cell_$procmux$39"/>
    <g s:x="0" s:y="10" s:pid="A"/>
    <g s:x="0" s:y="30" s:pid="B"/>
    <g s:x="10" s:y="35" s:pid="S"/>
    <g s:x="20" s:y="20" s:pid="Y"/>
  </g>
  <g s:type="mux" transform="translate(440.6666666666667,515)" s:width="20" s:height="40" id="cell_$procmux$45">
    <s:alias val="$pmux"/>
    <s:alias val="$mux"/>
    <s:alias val="$_MUX_"/>
    <path d="M0,0 L20,10 L20,30 L0,40 Z" class="cell_$procmux$45"/>
    <g s:x="0" s:y="10" s:pid="A"/>
    <g s:x="0" s:y="30" s:pid="B"/>
    <g s:x="10" s:y="35" s:pid="S"/>
    <g s:x="20" s:y="20" s:pid="Y"/>
  </g>
  <g s:type="mux" transform="translate(502.3333333333333,172)" s:width="20" s:height="40" id="cell_$procmux$48">
    <s:alias val="$pmux"/>
    <s:alias val="$mux"/>
    <s:alias val="$_MUX_"/>
    <path d="M0,0 L20,10 L20,30 L0,40 Z" class="cell_$procmux$48"/>
    <g s:x="0" s:y="10" s:pid="A"/>
    <g s:x="0" s:y="30" s:pid="B"/>
    <g s:x="10" s:y="35" s:pid="S"/>
    <g s:x="20" s:y="20" s:pid="Y"/>
  </g>
  <g s:type="mux" transform="translate(502.3333333333333,293)" s:width="20" s:height="40" id="cell_$procmux$51">
    <s:alias val="$pmux"/>
    <s:alias val="$mux"/>
    <s:alias val="$_MUX_"/>
    <path d="M0,0 L20,10 L20,30 L0,40 Z" class="cell_$procmux$51"/>
    <g s:x="0" s:y="10" s:pid="A"/>
    <g s:x="0" s:y="30" s:pid="B"/>
    <g s:x="10" s:y="35" s:pid="S"/>
    <g s:x="20" s:y="20" s:pid="Y"/>
  </g>
  <g s:type="mux" transform="translate(679,325.5)" s:width="20" s:height="40" id="cell_$procmux$53">
    <s:alias val="$pmux"/>
    <s:alias val="$mux"/>
    <s:alias val="$_MUX_"/>
    <path d="M0,0 L20,10 L20,30 L0,40 Z" class="cell_$procmux$53"/>
    <g s:x="0" s:y="10" s:pid="A"/>
    <g s:x="0" s:y="30" s:pid="B"/>
    <g s:x="10" s:y="35" s:pid="S"/>
    <g s:x="20" s:y="20" s:pid="Y"/>
  </g>
  <g s:type="mux" transform="translate(740.6666666666666,335.5)" s:width="20" s:height="40" id="cell_$procmux$56">
    <s:alias val="$pmux"/>
    <s:alias val="$mux"/>
    <s:alias val="$_MUX_"/>
    <path d="M0,0 L20,10 L20,30 L0,40 Z" class="cell_$procmux$56"/>
    <g s:x="0" s:y="10" s:pid="A"/>
    <g s:x="0" s:y="30" s:pid="B"/>
    <g s:x="10" s:y="35" s:pid="S"/>
    <g s:x="20" s:y="20" s:pid="Y"/>
  </g>
  <g s:type="mux" transform="translate(605.6666666666666,1046.5)" s:width="20" s:height="40" id="cell_$procmux$58">
    <s:alias val="$pmux"/>
    <s:alias val="$mux"/>
    <s:alias val="$_MUX_"/>
    <path d="M0,0 L20,10 L20,30 L0,40 Z" class="cell_$procmux$58"/>
    <g s:x="0" s:y="10" s:pid="A"/>
    <g s:x="0" s:y="30" s:pid="B"/>
    <g s:x="10" s:y="35" s:pid="S"/>
    <g s:x="20" s:y="20" s:pid="Y"/>
  </g>
  <g s:type="mux" transform="translate(679,1056.5)" s:width="20" s:height="40" id="cell_$procmux$61">
    <s:alias val="$pmux"/>
    <s:alias val="$mux"/>
    <s:alias val="$_MUX_"/>
    <path d="M0,0 L20,10 L20,30 L0,40 Z" class="cell_$procmux$61"/>
    <g s:x="0" s:y="10" s:pid="A"/>
    <g s:x="0" s:y="30" s:pid="B"/>
    <g s:x="10" s:y="35" s:pid="S"/>
    <g s:x="20" s:y="20" s:pid="Y"/>
  </g>
  <g s:type="mux" transform="translate(605.6666666666666,713.5)" s:width="20" s:height="40" id="cell_$procmux$64">
    <s:alias val="$pmux"/>
    <s:alias val="$mux"/>
    <s:alias val="$_MUX_"/>
    <path d="M0,0 L20,10 L20,30 L0,40 Z" class="cell_$procmux$64"/>
    <g s:x="0" s:y="10" s:pid="A"/>
    <g s:x="0" s:y="30" s:pid="B"/>
    <g s:x="10" s:y="35" s:pid="S"/>
    <g s:x="20" s:y="20" s:pid="Y"/>
  </g>
  <g s:type="mux" transform="translate(679,909.5)" s:width="20" s:height="40" id="cell_$procmux$67">
    <s:alias val="$pmux"/>
    <s:alias val="$mux"/>
    <s:alias val="$_MUX_"/>
    <path d="M0,0 L20,10 L20,30 L0,40 Z" class="cell_$procmux$67"/>
    <g s:x="0" s:y="10" s:pid="A"/>
    <g s:x="0" s:y="30" s:pid="B"/>
    <g s:x="10" s:y="35" s:pid="S"/>
    <g s:x="20" s:y="20" s:pid="Y"/>
  </g>
  <g s:type="mem_v2" transform="translate(579,340.5)" s:width="60" s:height="80" id="cell_ram">
    <s:alias val="$mem_v2"/>
    <s:alias val="$mem"/>
    <rect width="60" height="80" x="0" y="0" class="cell_ram"/>
    <text x="30" y="44" class="nodelabel" style="font-size:14px">RAM</text>
    <g s:x="0" s:y="15" s:pid="WR_DATA"/>
    <g s:x="0" s:y="30" s:pid="WR_ADDR"/>
    <g s:x="0" s:y="45" s:pid="WR_EN"/>
    <g s:x="0" s:y="60" s:pid="WR_CLK"/>
    <g s:x="60" s:y="15" s:pid="RD_DATA"/>
    <g s:x="60" s:y="30" s:pid="RD_ADDR"/>
    <g s:x="60" s:y="45" s:pid="RD_EN"/>
    <g s:x="60" s:y="60" s:pid="RD_CLK"/>
    <g s:x="60" s:y="70" s:pid="RD_ARST"/>
    <g s:x="60" s:y="80" s:pid="RD_SRST"/>
  </g>
  <g s:type="inputExt" transform="translate(499,676)" s:width="30" s:height="20" id="cell_clk">
    <text x="15" y="-4" class="nodelabel cell_clk" s:attribute="ref">clk</text>
    <s:alias val="$_inputExt_"/>
    <path d="M0,0 L0,20 L15,20 L30,10 L15,0 Z" class="cell_clk"/>
    <g s:x="28" s:y="10" s:pid="Y"/>
  </g>
  <g s:type="inputExt" transform="translate(322,858.5)" s:width="30" s:height="20" id="cell_rst">
    <text x="15" y="-4" class="nodelabel cell_rst" s:attribute="ref">rst</text>
    <s:alias val="$_inputExt_"/>
    <path d="M0,0 L0,20 L15,20 L30,10 L15,0 Z" class="cell_rst"/>
    <g s:x="28" s:y="10" s:pid="Y"/>
  </g>
  <g s:type="inputExt" transform="translate(257,708.5)" s:width="30" s:height="20" id="cell_wr_en">
    <text x="15" y="-4" class="nodelabel cell_wr_en" s:attribute="ref">wr_en</text>
    <s:alias val="$_inputExt_"/>
    <path d="M0,0 L0,20 L15,20 L30,10 L15,0 Z" class="cell_wr_en"/>
    <g s:x="28" s:y="10" s:pid="Y"/>
  </g>
  <g s:type="inputExt" transform="translate(322,147)" s:width="30" s:height="20" id="cell_wr_data">
    <text x="15" y="-4" class="nodelabel cell_wr_data" s:attribute="ref">wr_data</text>
    <s:alias val="$_inputExt_"/>
    <path d="M0,0 L0,20 L15,20 L30,10 L15,0 Z" class="cell_wr_data"/>
    <g s:x="28" s:y="10" s:pid="Y"/>
  </g>
  <g s:type="inputExt" transform="translate(434,1119)" s:width="30" s:height="20" id="cell_rd_en">
    <text x="15" y="-4" class="nodelabel cell_rd_en" s:attribute="ref">rd_en</text>
    <s:alias val="$_inputExt_"/>
    <path d="M0,0 L0,20 L15,20 L30,10 L15,0 Z" class="cell_rd_en"/>
    <g s:x="28" s:y="10" s:pid="Y"/>
  </g>
  <g s:type="outputExt" transform="translate(869,345.5)" s:width="30" s:height="20" id="cell_rd_data">
    <text x="15" y="-4" class="nodelabel cell_rd_data" s:attribute="ref">rd_data</text>
    <s:alias val="$_outputExt_"/>
    <path d="M30,0 L30,20 L15,20 L0,10 L15,0 Z" class="cell_rd_data"/>
    <g s:x="0" s:y="10" s:pid="A"/>
  </g>
  <g s:type="outputExt" transform="translate(869,280.5)" s:width="30" s:height="20" id="cell_empty">
    <text x="15" y="-4" class="nodelabel cell_empty" s:attribute="ref">empty</text>
    <s:alias val="$_outputExt_"/>
    <path d="M30,0 L30,20 L15,20 L0,10 L15,0 Z" class="cell_empty"/>
    <g s:x="0" s:y="10" s:pid="A"/>
  </g>
  <g s:type="outputExt" transform="translate(869,1099.5)" s:width="30" s:height="20" id="cell_full">
    <text x="15" y="-4" class="nodelabel cell_full" s:attribute="ref">full</text>
    <s:alias val="$_outputExt_"/>
    <path d="M30,0 L30,20 L15,20 L0,10 L15,0 Z" class="cell_full"/>
    <g s:x="0" s:y="10" s:pid="A"/>
  </g>
  <g s:type="constant" transform="translate(434,596)" s:width="30" s:height="20" id="cell_1">
    <text x="15" y="-4" class="nodelabel cell_1" s:attribute="ref">1</text>
    <s:alias val="$_constant_"/>
    <rect width="30" height="20" class="cell_1"/>
    <g s:x="30" s:y="10" s:pid="Y"/>
  </g>
  <g s:type="constant" transform="translate(322,565)" s:width="30" s:height="20" id="cell_0">
    <text x="15" y="-4" class="nodelabel cell_0" s:attribute="ref">0</text>
    <s:alias val="$_constant_"/>
    <rect width="30" height="20" class="cell_0"/>
    <g s:x="30" s:y="10" s:pid="Y"/>
  </g>
  <g s:type="constant" transform="translate(609,991.5)" s:width="30" s:height="20" id="cell_00000">
    <text x="15" y="-4" class="nodelabel cell_00000" s:attribute="ref">0x0</text>
    <s:alias val="$_constant_"/>
    <rect width="30" height="20" class="cell_00000"/>
    <g s:x="30" s:y="10" s:pid="Y"/>
  </g>
  <g s:type="join" transform="translate(502.7142857142857,365)" s:width="4" s:height="40" id="cell_$join$,81,81,81,81,81,81,81,81,">
    <rect width="5" height="160" class="splitjoinBody" s:generic="body"/>
    <s:alias val="$_join_"/>
    <g s:x="5" s:y="20" s:pid="out"/>
    <g transform="translate(0,10)" s:x="0" s:y="10" s:pid="in0">
      <text x="-3" y="-4" class="inputPortLabel">0</text>
    </g>
    <g transform="translate(0,30)" s:x="0" s:y="10" s:pid="in0">
      <text x="-3" y="-4" class="inputPortLabel">1</text>
    </g>
    <g transform="translate(0,50)" s:x="0" s:y="10" s:pid="in0">
      <text x="-3" y="-4" class="inputPortLabel">2</text>
    </g>
    <g transform="translate(0,70)" s:x="0" s:y="10" s:pid="in0">
      <text x="-3" y="-4" class="inputPortLabel">3</text>
    </g>
    <g transform="translate(0,90)" s:x="0" s:y="10" s:pid="in0">
      <text x="-3" y="-4" class="inputPortLabel">4</text>
    </g>
    <g transform="translate(0,110)" s:x="0" s:y="10" s:pid="in0">
      <text x="-3" y="-4" class="inputPortLabel">5</text>
    </g>
    <g transform="translate(0,130)" s:x="0" s:y="10" s:pid="in0">
      <text x="-3" y="-4" class="inputPortLabel">6</text>
    </g>
    <g transform="translate(0,150)" s:x="0" s:y="10" s:pid="in0">
      <text x="-3" y="-4" class="inputPortLabel">7</text>
    </g>
  </g>
  <g s:type="split" transform="translate(68,1014)" s:width="5" s:height="40" id="cell_$split$,24,25,26,27,28,">
    <rect width="5" height="40" class="splitjoinBody" s:generic="body"/>
    <s:alias val="$_split_"/>
    <g s:x="0" s:y="20" s:pid="in"/>
    <g transform="translate(4,10)" s:x="4" s:y="10" s:pid="out0">
      <text x="5" y="-4">0:3</text>
    </g>
    <g transform="translate(4,30)" s:x="4" s:y="10" s:pid="out0">
      <text x="5" y="-4">4</text>
    </g>
  </g>
  <g s:type="split" transform="translate(68,1109)" s:width="5" s:height="40" id="cell_$split$,34,35,36,37,38,">
    <rect width="5" height="40" class="splitjoinBody" s:generic="body"/>
    <s:alias val="$_split_"/>
    <g s:x="0" s:y="20" s:pid="in"/>
    <g transform="translate(4,10)" s:x="4" s:y="10" s:pid="out0">
      <text x="5" y="-4">0:3</text>
    </g>
    <g transform="translate(4,30)" s:x="4" s:y="10" s:pid="out0">
      <text x="5" y="-4">4</text>
    </g>
  </g>
  <g s:type="split" transform="translate(12,14)" s:width="5" s:height="40" id="cell_$split$,x,x,x,x,x,x,x,x,">
    <rect width="5" height="40" class="splitjoinBody" s:generic="body"/>
    <s:alias val="$_split_"/>
    <g s:x="0" s:y="20" s:pid="in"/>
    <g transform="translate(4,10)" s:x="4" s:y="10" s:pid="out0">
      <text x="5" y="-4">0:3</text>
    </g>
    <g transform="translate(4,30)" s:x="4" s:y="10" s:pid="out0">
      <text x="5" y="-4">0</text>
    </g>
  </g>
  <line x1="764" x2="784" y1="666" y2="666" class="net_24,25,26,27,28"/>
  <line x1="784" x2="784" y1="666" y2="888.5" class="net_24,25,26,27,28"/>
  <line x1="784" x2="484" y1="888.5" y2="888.5" class="net_24,25,26,27,28"/>
  <line x1="484" x2="484" y1="888.5" y2="736" class="net_24,25,26,27,28"/>
  <circle cx="484" cy="888.5" r="2" style="fill:#000" class="net_24,25,26,27,28"/>
  <circle cx="784" cy="888.5" r="2" style="fill:#000" class="net_24,25,26,27,28"/>
  <line x1="484" x2="504" y1="736" y2="736" class="net_24,25,26,27,28"/>
  <line x1="764" x2="784" y1="666" y2="666" class="net_24,25,26,27,28"/>
  <line x1="784" x2="784" y1="666" y2="1157" class="net_24,25,26,27,28"/>
  <line x1="784" x2="803.6666666666666" y1="1157" y2="1157" class="net_24,25,26,27,28"/>
  <line x1="764" x2="784" y1="666" y2="666" class="net_24,25,26,27,28"/>
  <line x1="784" x2="784" y1="666" y2="646" class="net_24,25,26,27,28"/>
  <line x1="784" x2="569" y1="646" y2="646" class="net_24,25,26,27,28"/>
  <line x1="569" x2="569" y1="646" y2="723.5" class="net_24,25,26,27,28"/>
  <circle cx="784" cy="666" r="2" style="fill:#000" class="net_24,25,26,27,28"/>
  <line x1="569" x2="605.6666666666666" y1="723.5" y2="723.5" class="net_24,25,26,27,28"/>
  <line x1="764" x2="784" y1="666" y2="666" class="net_24,25,26,27,28"/>
  <line x1="784" x2="784" y1="666" y2="888.5" class="net_24,25,26,27,28"/>
  <line x1="784" x2="48" y1="888.5" y2="888.5" class="net_24,25,26,27,28"/>
  <line x1="48" x2="48" y1="888.5" y2="1034.5" class="net_24,25,26,27,28"/>
  <line x1="48" x2="68" y1="1034.5" y2="1034.5" class="net_24,25,26,27,28"/>
  <line x1="464" x2="474" y1="606" y2="606" class="net_120"/>
  <line x1="474" x2="474" y1="606" y2="751" class="net_120"/>
  <circle cx="474" cy="606" r="2" style="fill:#000" class="net_120"/>
  <circle cx="474" cy="751" r="2" style="fill:#000" class="net_120"/>
  <line x1="474" x2="504" y1="751" y2="751" class="net_120"/>
  <line x1="464" x2="474" y1="606" y2="606" class="net_120"/>
  <line x1="474" x2="474" y1="606" y2="1084" class="net_120"/>
  <line x1="474" x2="504" y1="1084" y2="1084" class="net_120"/>
  <line x1="464" x2="474" y1="606" y2="606" class="net_120"/>
  <line x1="474" x2="474" y1="606" y2="52" class="net_120"/>
  <line x1="474" x2="869" y1="52" y2="52" class="net_120"/>
  <line x1="464" x2="669" y1="606" y2="606" class="net_120"/>
  <line x1="669" x2="669" y1="606" y2="385.5" class="net_120"/>
  <line x1="669" x2="639" y1="385.5" y2="385.5" class="net_120"/>
  <line x1="764" x2="774" y1="1172" y2="1172" class="net_34,35,36,37,38"/>
  <line x1="774" x2="774" y1="1172" y2="970.5" class="net_34,35,36,37,38"/>
  <line x1="774" x2="484" y1="970.5" y2="970.5" class="net_34,35,36,37,38"/>
  <line x1="484" x2="484" y1="970.5" y2="1069" class="net_34,35,36,37,38"/>
  <circle cx="774" cy="1172" r="2" style="fill:#000" class="net_34,35,36,37,38"/>
  <line x1="484" x2="504" y1="1069" y2="1069" class="net_34,35,36,37,38"/>
  <line x1="764" x2="803.6666666666666" y1="1172" y2="1172" class="net_34,35,36,37,38"/>
  <line x1="764" x2="774" y1="1172" y2="1172" class="net_34,35,36,37,38"/>
  <line x1="774" x2="774" y1="1172" y2="970.5" class="net_34,35,36,37,38"/>
  <line x1="774" x2="719" y1="970.5" y2="970.5" class="net_34,35,36,37,38"/>
  <line x1="719" x2="719" y1="970.5" y2="1181" class="net_34,35,36,37,38"/>
  <line x1="719" x2="569" y1="1181" y2="1181" class="net_34,35,36,37,38"/>
  <line x1="569" x2="569" y1="1181" y2="1056.5" class="net_34,35,36,37,38"/>
  <circle cx="719" cy="970.5" r="2" style="fill:#000" class="net_34,35,36,37,38"/>
  <line x1="569" x2="605.6666666666666" y1="1056.5" y2="1056.5" class="net_34,35,36,37,38"/>
  <line x1="764" x2="774" y1="1172" y2="1172" class="net_34,35,36,37,38"/>
  <line x1="774" x2="774" y1="1172" y2="970.5" class="net_34,35,36,37,38"/>
  <line x1="774" x2="659" y1="970.5" y2="970.5" class="net_34,35,36,37,38"/>
  <line x1="659" x2="659" y1="970.5" y2="1159" class="net_34,35,36,37,38"/>
  <line x1="659" x2="48" y1="1159" y2="1159" class="net_34,35,36,37,38"/>
  <line x1="48" x2="48" y1="1159" y2="1129.5" class="net_34,35,36,37,38"/>
  <circle cx="659" cy="970.5" r="2" style="fill:#000" class="net_34,35,36,37,38"/>
  <line x1="48" x2="68" y1="1129.5" y2="1129.5" class="net_34,35,36,37,38"/>
  <line x1="73" x2="122" y1="1024.5" y2="1024.5" class="net_24,25,26,27"/>
  <line x1="122" x2="122" y1="1024.5" y2="1104.5" class="net_24,25,26,27"/>
  <circle cx="122" cy="1024.5" r="2" style="fill:#000" class="net_24,25,26,27"/>
  <line x1="122" x2="135" y1="1104.5" y2="1104.5" class="net_24,25,26,27"/>
  <line x1="73" x2="122" y1="1024.5" y2="1024.5" class="net_24,25,26,27"/>
  <line x1="122" x2="122" y1="1024.5" y2="687.5" class="net_24,25,26,27"/>
  <line x1="122" x2="374" y1="687.5" y2="687.5" class="net_24,25,26,27"/>
  <line x1="374" x2="374" y1="687.5" y2="253" class="net_24,25,26,27"/>
  <line x1="374" x2="437.3333333333333" y1="253" y2="253" class="net_24,25,26,27"/>
  <line x1="73" x2="135" y1="1119.5" y2="1119.5" class="net_34,35,36,37"/>
  <line x1="73" x2="102" y1="1119.5" y2="1119.5" class="net_34,35,36,37"/>
  <line x1="102" x2="102" y1="1119.5" y2="116" class="net_34,35,36,37"/>
  <line x1="102" x2="649" y1="116" y2="116" class="net_34,35,36,37"/>
  <line x1="649" x2="649" y1="116" y2="370.5" class="net_34,35,36,37"/>
  <circle cx="102" cy="1119.5" r="2" style="fill:#000" class="net_34,35,36,37"/>
  <line x1="649" x2="639" y1="370.5" y2="370.5" class="net_34,35,36,37"/>
  <line x1="157" x2="167" y1="1052" y2="1052" class="net_45"/>
  <line x1="167" x2="167" y1="1052" y2="1097" class="net_45"/>
  <line x1="167" x2="192" y1="1097" y2="1097" class="net_45"/>
  <line x1="157" x2="192" y1="1112" y2="1112" class="net_44"/>
  <line x1="285" x2="297" y1="718.5" y2="718.5" class="net_4"/>
  <line x1="297" x2="297" y1="718.5" y2="758.5" class="net_4"/>
  <line x1="297" x2="326" y1="758.5" y2="758.5" class="net_4"/>
  <line x1="282" x2="326" y1="773.5" y2="773.5" class="net_46"/>
  <line x1="462" x2="499" y1="1129" y2="1129" class="net_13"/>
  <line x1="894" x2="921" y1="1164.5" y2="1164.5" class="net_48"/>
  <line x1="921" x2="921" y1="1164.5" y2="1223" class="net_48"/>
  <line x1="921" x2="484" y1="1223" y2="1223" class="net_48"/>
  <line x1="484" x2="484" y1="1223" y2="1144" class="net_48"/>
  <line x1="484" x2="499" y1="1144" y2="1144" class="net_48"/>
  <line x1="222" x2="232" y1="1104.5" y2="1104.5" class="net_23"/>
  <line x1="232" x2="232" y1="1104.5" y2="773.5" class="net_23"/>
  <circle cx="232" cy="1104.5" r="2" style="fill:#000" class="net_23"/>
  <line x1="232" x2="257" y1="773.5" y2="773.5" class="net_23"/>
  <line x1="222" x2="232" y1="1104.5" y2="1104.5" class="net_23"/>
  <line x1="232" x2="232" y1="1104.5" y2="1212" class="net_23"/>
  <line x1="232" x2="859" y1="1212" y2="1212" class="net_23"/>
  <line x1="859" x2="859" y1="1212" y2="1109.5" class="net_23"/>
  <line x1="859" x2="869" y1="1109.5" y2="1109.5" class="net_23"/>
  <line x1="825.6666666666666" x2="869" y1="1164.5" y2="1164.5" class="net_22"/>
  <line x1="825.6666666666666" x2="849" y1="1164.5" y2="1164.5" class="net_22"/>
  <line x1="849" x2="849" y1="1164.5" y2="290.5" class="net_22"/>
  <circle cx="849" cy="1164.5" r="2" style="fill:#000" class="net_22"/>
  <line x1="849" x2="869" y1="290.5" y2="290.5" class="net_22"/>
  <line x1="73" x2="135" y1="1044.5" y2="1044.5" class="net_28"/>
  <line x1="73" x2="112" y1="1139.5" y2="1139.5" class="net_38"/>
  <line x1="112" x2="112" y1="1139.5" y2="1059.5" class="net_38"/>
  <line x1="112" x2="135" y1="1059.5" y2="1059.5" class="net_38"/>
  <line x1="527" x2="734" y1="686" y2="686" class="net_2"/>
  <line x1="527" x2="549" y1="686" y2="686" class="net_2"/>
  <line x1="549" x2="549" y1="686" y2="1192" class="net_2"/>
  <circle cx="549" cy="686" r="2" style="fill:#000" class="net_2"/>
  <line x1="549" x2="734" y1="1192" y2="1192" class="net_2"/>
  <line x1="527" x2="549" y1="686" y2="686" class="net_2"/>
  <line x1="549" x2="549" y1="686" y2="94" class="net_2"/>
  <line x1="549" x2="774" y1="94" y2="94" class="net_2"/>
  <line x1="774" x2="774" y1="94" y2="375.5" class="net_2"/>
  <line x1="774" x2="799" y1="375.5" y2="375.5" class="net_2"/>
  <line x1="527" x2="549" y1="686" y2="686" class="net_2"/>
  <line x1="549" x2="549" y1="686" y2="400.5" class="net_2"/>
  <circle cx="549" cy="400.5" r="2" style="fill:#000" class="net_2"/>
  <line x1="549" x2="579" y1="400.5" y2="400.5" class="net_2"/>
  <line x1="699" x2="709" y1="929.5" y2="929.5" class="net_50,51,52,53,54"/>
  <line x1="709" x2="709" y1="929.5" y2="666" class="net_50,51,52,53,54"/>
  <line x1="709" x2="734" y1="666" y2="666" class="net_50,51,52,53,54"/>
  <line x1="699" x2="709" y1="1076.5" y2="1076.5" class="net_55,56,57,58,59"/>
  <line x1="709" x2="709" y1="1076.5" y2="1172" class="net_55,56,57,58,59"/>
  <line x1="709" x2="734" y1="1172" y2="1172" class="net_55,56,57,58,59"/>
  <line x1="760.6666666666666" x2="799" y1="355.5" y2="355.5" class="net_60,61,62,63,64,65,66,67"/>
  <line x1="352" x2="394" y1="575" y2="575" class="net_122"/>
  <line x1="394" x2="394" y1="575" y2="41" class="net_122"/>
  <line x1="394" x2="839" y1="41" y2="41" class="net_122"/>
  <line x1="839" x2="839" y1="41" y2="32" class="net_122"/>
  <circle cx="394" cy="575" r="2" style="fill:#000" class="net_122"/>
  <line x1="839" x2="869" y1="32" y2="32" class="net_122"/>
  <line x1="352" x2="394" y1="575" y2="575" class="net_122"/>
  <line x1="394" x2="394" y1="575" y2="545" class="net_122"/>
  <circle cx="394" cy="545" r="2" style="fill:#000" class="net_122"/>
  <line x1="394" x2="440.6666666666667" y1="545" y2="545" class="net_122"/>
  <line x1="352" x2="394" y1="575" y2="575" class="net_122"/>
  <line x1="394" x2="394" y1="575" y2="105" class="net_122"/>
  <line x1="394" x2="659" y1="105" y2="105" class="net_122"/>
  <line x1="659" x2="659" y1="105" y2="410.5" class="net_122"/>
  <circle cx="394" cy="105" r="2" style="fill:#000" class="net_122"/>
  <line x1="659" x2="639" y1="410.5" y2="410.5" class="net_122"/>
  <line x1="352" x2="649" y1="575" y2="575" class="net_122"/>
  <line x1="649" x2="649" y1="575" y2="420.5" class="net_122"/>
  <line x1="649" x2="639" y1="420.5" y2="420.5" class="net_122"/>
  <line x1="356" x2="404" y1="766" y2="766" class="net_47"/>
  <line x1="404" x2="404" y1="766" y2="72" class="net_47"/>
  <line x1="404" x2="879" y1="72" y2="72" class="net_47"/>
  <circle cx="404" cy="766" r="2" style="fill:#000" class="net_47"/>
  <line x1="879" x2="879" y1="72" y2="57" class="net_47"/>
  <line x1="356" x2="404" y1="766" y2="766" class="net_47"/>
  <line x1="404" x2="404" y1="766" y2="213" class="net_47"/>
  <line x1="404" x2="447.3333333333333" y1="213" y2="213" class="net_47"/>
  <circle cx="404" cy="213" r="2" style="fill:#000" class="net_47"/>
  <line x1="447.3333333333333" x2="447.3333333333333" y1="213" y2="162" class="net_47"/>
  <line x1="356" x2="404" y1="766" y2="766" class="net_47"/>
  <line x1="404" x2="404" y1="766" y2="273" class="net_47"/>
  <line x1="404" x2="447.3333333333333" y1="273" y2="273" class="net_47"/>
  <circle cx="404" cy="273" r="2" style="fill:#000" class="net_47"/>
  <line x1="447.3333333333333" x2="447.3333333333333" y1="273" y2="258" class="net_47"/>
  <line x1="356" x2="615.6666666666666" y1="766" y2="766" class="net_47"/>
  <line x1="615.6666666666666" x2="615.6666666666666" y1="766" y2="748.5" class="net_47"/>
  <line x1="414" x2="414" y1="202" y2="137" class="net_x,x,x,x,x,x,x,x"/>
  <line x1="414" x2="437.3333333333333" y1="137" y2="137" class="net_x,x,x,x,x,x,x,x"/>
  <line x1="414" x2="502.3333333333333" y1="202" y2="202" class="net_x,x,x,x,x,x,x,x"/>
  <line x1="350" x2="437.3333333333333" y1="157" y2="157" class="net_5,6,7,8,9,10,11,12"/>
  <line x1="414" x2="414" y1="813.5" y2="233" class="net_x,x,x,x"/>
  <line x1="414" x2="437.3333333333333" y1="233" y2="233" class="net_x,x,x,x"/>
  <line x1="414" x2="414" y1="813.5" y2="323" class="net_x,x,x,x"/>
  <circle cx="414" cy="323" r="2" style="fill:#000" class="net_x,x,x,x"/>
  <line x1="414" x2="502.3333333333333" y1="323" y2="323" class="net_x,x,x,x"/>
  <line x1="889" x2="921" y1="42" y2="42" class="net_68"/>
  <line x1="921" x2="921" y1="42" y2="12" class="net_68"/>
  <line x1="921" x2="384" y1="12" y2="12" class="net_68"/>
  <line x1="384" x2="384" y1="12" y2="525" class="net_68"/>
  <line x1="384" x2="440.6666666666667" y1="525" y2="525" class="net_68"/>
  <line x1="350" x2="424" y1="868.5" y2="868.5" class="net_3"/>
  <line x1="424" x2="424" y1="868.5" y2="565" class="net_3"/>
  <line x1="424" x2="450.6666666666667" y1="565" y2="565" class="net_3"/>
  <circle cx="424" cy="868.5" r="2" style="fill:#000" class="net_3"/>
  <circle cx="424" cy="565" r="2" style="fill:#000" class="net_3"/>
  <line x1="450.6666666666667" x2="450.6666666666667" y1="565" y2="550" class="net_3"/>
  <line x1="350" x2="424" y1="868.5" y2="868.5" class="net_3"/>
  <line x1="424" x2="424" y1="868.5" y2="283" class="net_3"/>
  <line x1="424" x2="512.3333333333333" y1="283" y2="283" class="net_3"/>
  <line x1="512.3333333333333" x2="512.3333333333333" y1="283" y2="207" class="net_3"/>
  <line x1="350" x2="424" y1="868.5" y2="868.5" class="net_3"/>
  <line x1="424" x2="424" y1="868.5" y2="343" class="net_3"/>
  <line x1="424" x2="512.3333333333333" y1="343" y2="343" class="net_3"/>
  <circle cx="424" cy="343" r="2" style="fill:#000" class="net_3"/>
  <line x1="512.3333333333333" x2="512.3333333333333" y1="343" y2="328" class="net_3"/>
  <line x1="350" x2="424" y1="868.5" y2="868.5" class="net_3"/>
  <line x1="424" x2="424" y1="868.5" y2="626" class="net_3"/>
  <line x1="424" x2="750.6666666666666" y1="626" y2="626" class="net_3"/>
  <circle cx="424" cy="626" r="2" style="fill:#000" class="net_3"/>
  <line x1="750.6666666666666" x2="750.6666666666666" y1="626" y2="370.5" class="net_3"/>
  <line x1="350" x2="424" y1="868.5" y2="868.5" class="net_3"/>
  <line x1="424" x2="424" y1="868.5" y2="1170" class="net_3"/>
  <line x1="424" x2="689" y1="1170" y2="1170" class="net_3"/>
  <line x1="689" x2="689" y1="1170" y2="1091.5" class="net_3"/>
  <line x1="350" x2="424" y1="868.5" y2="868.5" class="net_3"/>
  <line x1="424" x2="424" y1="868.5" y2="959.5" class="net_3"/>
  <line x1="424" x2="689" y1="959.5" y2="959.5" class="net_3"/>
  <circle cx="424" cy="959.5" r="2" style="fill:#000" class="net_3"/>
  <line x1="689" x2="689" y1="959.5" y2="944.5" class="net_3"/>
  <line x1="457.3333333333333" x2="484" y1="147" y2="147" class="net_69,70,71,72,73,74,75,76"/>
  <line x1="484" x2="484" y1="147" y2="182" class="net_69,70,71,72,73,74,75,76"/>
  <line x1="484" x2="502.3333333333333" y1="182" y2="182" class="net_69,70,71,72,73,74,75,76"/>
  <line x1="457.3333333333333" x2="484" y1="243" y2="243" class="net_77,78,79,80"/>
  <line x1="484" x2="484" y1="243" y2="303" class="net_77,78,79,80"/>
  <line x1="484" x2="502.3333333333333" y1="303" y2="303" class="net_77,78,79,80"/>
  <line x1="829" x2="839" y1="355.5" y2="355.5" class="net_14,15,16,17,18,19,20,21"/>
  <line x1="839" x2="839" y1="355.5" y2="83" class="net_14,15,16,17,18,19,20,21"/>
  <line x1="839" x2="669" y1="83" y2="83" class="net_14,15,16,17,18,19,20,21"/>
  <line x1="669" x2="669" y1="83" y2="335.5" class="net_14,15,16,17,18,19,20,21"/>
  <circle cx="839" cy="355.5" r="2" style="fill:#000" class="net_14,15,16,17,18,19,20,21"/>
  <line x1="669" x2="679" y1="335.5" y2="335.5" class="net_14,15,16,17,18,19,20,21"/>
  <line x1="829" x2="839" y1="355.5" y2="355.5" class="net_14,15,16,17,18,19,20,21"/>
  <line x1="839" x2="839" y1="355.5" y2="636" class="net_14,15,16,17,18,19,20,21"/>
  <line x1="839" x2="719" y1="636" y2="636" class="net_14,15,16,17,18,19,20,21"/>
  <line x1="719" x2="719" y1="636" y2="365.5" class="net_14,15,16,17,18,19,20,21"/>
  <line x1="719" x2="740.6666666666666" y1="365.5" y2="365.5" class="net_14,15,16,17,18,19,20,21"/>
  <line x1="829" x2="869" y1="355.5" y2="355.5" class="net_14,15,16,17,18,19,20,21"/>
  <line x1="639" x2="679" y1="355.5" y2="355.5" class="net_94,95,96,97,98,99,100,101"/>
  <line x1="529" x2="559" y1="1136.5" y2="1136.5" class="net_49"/>
  <line x1="559" x2="559" y1="1136.5" y2="899.5" class="net_49"/>
  <line x1="559" x2="689" y1="899.5" y2="899.5" class="net_49"/>
  <circle cx="559" cy="1136.5" r="2" style="fill:#000" class="net_49"/>
  <line x1="689" x2="689" y1="899.5" y2="360.5" class="net_49"/>
  <line x1="529" x2="615.6666666666666" y1="1136.5" y2="1136.5" class="net_49"/>
  <line x1="615.6666666666666" x2="615.6666666666666" y1="1136.5" y2="1081.5" class="net_49"/>
  <line x1="699" x2="740.6666666666666" y1="345.5" y2="345.5" class="net_102,103,104,105,106,107,108,109"/>
  <line x1="526" x2="605.6666666666666" y1="1076.5" y2="1076.5" class="net_39,40,41,42,43"/>
  <line x1="625.6666666666666" x2="679" y1="1066.5" y2="1066.5" class="net_110,111,112,113,114"/>
  <line x1="639" x2="649" y1="1001.5" y2="1001.5" class="net_125,126,127,128,129"/>
  <line x1="649" x2="649" y1="1001.5" y2="1086.5" class="net_125,126,127,128,129"/>
  <circle cx="649" cy="1001.5" r="2" style="fill:#000" class="net_125,126,127,128,129"/>
  <line x1="649" x2="679" y1="1086.5" y2="1086.5" class="net_125,126,127,128,129"/>
  <line x1="639" x2="649" y1="1001.5" y2="1001.5" class="net_125,126,127,128,129"/>
  <line x1="649" x2="649" y1="1001.5" y2="939.5" class="net_125,126,127,128,129"/>
  <line x1="649" x2="679" y1="939.5" y2="939.5" class="net_125,126,127,128,129"/>
  <line x1="526" x2="605.6666666666666" y1="743.5" y2="743.5" class="net_29,30,31,32,33"/>
  <line x1="625.6666666666666" x2="649" y1="733.5" y2="733.5" class="net_115,116,117,118,119"/>
  <line x1="649" x2="649" y1="733.5" y2="919.5" class="net_115,116,117,118,119"/>
  <line x1="649" x2="679" y1="919.5" y2="919.5" class="net_115,116,117,118,119"/>
  <line x1="522.3333333333333" x2="539" y1="313" y2="313" class="net_90,91,92,93"/>
  <line x1="539" x2="539" y1="313" y2="370.5" class="net_90,91,92,93"/>
  <line x1="539" x2="579" y1="370.5" y2="370.5" class="net_90,91,92,93"/>
  <line x1="522.3333333333333" x2="559" y1="192" y2="192" class="net_82,83,84,85,86,87,88,89"/>
  <line x1="559" x2="559" y1="192" y2="355.5" class="net_82,83,84,85,86,87,88,89"/>
  <line x1="559" x2="579" y1="355.5" y2="355.5" class="net_82,83,84,85,86,87,88,89"/>
  <line x1="508.7142857142857" x2="579" y1="385.5" y2="385.5" class="net_81,81,81,81,81,81,81,81"/>
  <line x1="460.6666666666667" x2="484" y1="535" y2="535" class="net_81"/>
  <line x1="484" x2="484" y1="535" y2="353" class="net_81"/>
  <line x1="484" x2="503.2142857142857" y1="353" y2="353" class="net_81"/>
  <circle cx="484" cy="535" r="2" style="fill:#000" class="net_81"/>
  <line x1="503.2142857142857" x2="503.2142857142857" y1="353" y2="375" class="net_81"/>
  <line x1="460.6666666666667" x2="484" y1="535" y2="535" class="net_81"/>
  <line x1="484" x2="484" y1="535" y2="395.5" class="net_81"/>
  <circle cx="484" cy="395.5" r="2" style="fill:#000" class="net_81"/>
  <line x1="484" x2="502.7142857142857" y1="395.5" y2="395.5" class="net_81"/>
  <line x1="460.6666666666667" x2="484" y1="535" y2="535" class="net_81"/>
  <line x1="484" x2="484" y1="535" y2="415.5" class="net_81"/>
  <circle cx="484" cy="415.5" r="2" style="fill:#000" class="net_81"/>
  <line x1="484" x2="502.7142857142857" y1="415.5" y2="415.5" class="net_81"/>
  <line x1="460.6666666666667" x2="484" y1="535" y2="535" class="net_81"/>
  <line x1="484" x2="484" y1="535" y2="435.5" class="net_81"/>
  <circle cx="484" cy="435.5" r="2" style="fill:#000" class="net_81"/>
  <line x1="484" x2="502.7142857142857" y1="435.5" y2="435.5" class="net_81"/>
  <line x1="460.6666666666667" x2="484" y1="535" y2="535" class="net_81"/>
  <line x1="484" x2="484" y1="535" y2="455.5" class="net_81"/>
  <circle cx="484" cy="455.5" r="2" style="fill:#000" class="net_81"/>
  <line x1="484" x2="502.7142857142857" y1="455.5" y2="455.5" class="net_81"/>
  <line x1="460.6666666666667" x2="484" y1="535" y2="535" class="net_81"/>
  <line x1="484" x2="484" y1="535" y2="475.5" class="net_81"/>
  <circle cx="484" cy="475.5" r="2" style="fill:#000" class="net_81"/>
  <line x1="484" x2="502.7142857142857" y1="475.5" y2="475.5" class="net_81"/>
  <line x1="460.6666666666667" x2="484" y1="535" y2="535" class="net_81"/>
  <line x1="484" x2="484" y1="535" y2="495.5" class="net_81"/>
  <circle cx="484" cy="495.5" r="2" style="fill:#000" class="net_81"/>
  <line x1="484" x2="502.7142857142857" y1="495.5" y2="495.5" class="net_81"/>
  <line x1="460.6666666666667" x2="503.2142857142857" y1="535" y2="535" class="net_81"/>
  <line x1="503.2142857142857" x2="503.2142857142857" y1="535" y2="516" class="net_81"/>
</svg>
