<svg xmlns="http://www.w3.org/2000/svg" xmlns:xlink="http://www.w3.org/1999/xlink" xmlns:s="https://github.com/nturley/netlistsvg" width="1260" height="1118.5">
  <style>svg {
    stroke:#000;
    fill:none;
  }
  text {
    fill:#000;
    stroke:none;
    font-size:10px;
    font-weight: bold;
    font-family: "Courier New", monospace;
  }
  .nodelabel {
    text-anchor: middle;
  }
  .inputPortLabel {
    text-anchor: end;
  }
  .splitjoinBody {
    fill:#000;
  }</style>
  <g s:type="add" transform="translate(696.6666666666666,692.5)" s:width="25" s:height="25" id="cell_$add$random_generator.v:107$16">
    <s:alias val="$add"/>
    <circle r="12.5" cx="12.5" cy="12.5" class="cell_$add$random_generator.v:107$16"/>
    <line x1="7.5" x2="17.5" y1="12.5" y2="12.5" class="cell_$add$random_generator.v:107$16"/>
    <line x1="12.5" x2="12.5" y1="7.5" y2="17.5" class="cell_$add$random_generator.v:107$16"/>
    <g s:x="3" s:y="5" s:pid="A"/>
    <g s:x="3" s:y="20" s:pid="B"/>
    <g s:x="25" s:y="12.5" s:pid="Y"/>
  </g>
  <g s:type="add" transform="translate(403,33)" s:width="25" s:height="25" id="cell_$add$random_generator.v:66$3">
    <s:alias val="$add"/>
    <circle r="12.5" cx="12.5" cy="12.5" class="cell_$add$random_generator.v:66$3"/>
    <line x1="7.5" x2="17.5" y1="12.5" y2="12.5" class="cell_$add$random_generator.v:66$3"/>
    <line x1="12.5" x2="12.5" y1="7.5" y2="17.5" class="cell_$add$random_generator.v:66$3"/>
    <g s:x="3" s:y="5" s:pid="A"/>
    <g s:x="3" s:y="20" s:pid="B"/>
    <g s:x="25" s:y="12.5" s:pid="Y"/>
  </g>
  <g s:type="add" transform="translate(229.33333333333334,770)" s:width="25" s:height="25" id="cell_$add$random_generator.v:87$11">
    <s:alias val="$add"/>
    <circle r="12.5" cx="12.5" cy="12.5" class="cell_$add$random_generator.v:87$11"/>
    <line x1="7.5" x2="17.5" y1="12.5" y2="12.5" class="cell_$add$random_generator.v:87$11"/>
    <line x1="12.5" x2="12.5" y1="7.5" y2="17.5" class="cell_$add$random_generator.v:87$11"/>
    <g s:x="3" s:y="5" s:pid="A"/>
    <g s:x="3" s:y="20" s:pid="B"/>
    <g s:x="25" s:y="12.5" s:pid="Y"/>
  </g>
  <g s:type="add" transform="translate(889,284)" s:width="25" s:height="25" id="cell_$add$random_generator.v:89$12">
    <s:alias val="$add"/>
    <circle r="12.5" cx="12.5" cy="12.5" class="cell_$add$random_generator.v:89$12"/>
    <line x1="7.5" x2="17.5" y1="12.5" y2="12.5" class="cell_$add$random_generator.v:89$12"/>
    <line x1="12.5" x2="12.5" y1="7.5" y2="17.5" class="cell_$add$random_generator.v:89$12"/>
    <g s:x="3" s:y="5" s:pid="A"/>
    <g s:x="3" s:y="20" s:pid="B"/>
    <g s:x="25" s:y="12.5" s:pid="Y"/>
  </g>
  <g s:type="mem_v2" transform="translate(1065,815)" s:width="60" s:height="80" id="cell_$auto$proc_rom.cc:155:do_switch$34">
    <s:alias val="$mem_v2"/>
    <s:alias val="$mem"/>
    <rect width="60" height="80" x="0" y="0" class="cell_$auto$proc_rom.cc:155:do_switch$34"/>
    <text x="30" y="44" class="nodelabel" style="font-size:14px">RAM</text>
    <g s:x="0" s:y="15" s:pid="WR_DATA"/>
    <g s:x="0" s:y="30" s:pid="WR_ADDR"/>
    <g s:x="0" s:y="45" s:pid="WR_EN"/>
    <g s:x="0" s:y="60" s:pid="WR_CLK"/>
    <g s:x="60" s:y="15" s:pid="RD_DATA"/>
    <g s:x="60" s:y="30" s:pid="RD_ADDR"/>
    <g s:x="60" s:y="45" s:pid="RD_EN"/>
    <g s:x="60" s:y="60" s:pid="RD_CLK"/>
    <g s:x="60" s:y="70" s:pid="RD_ARST"/>
    <g s:x="60" s:y="80" s:pid="RD_SRST"/>
  </g>
  <g s:type="eq" transform="translate(403,163)" s:width="25" s:height="25" id="cell_$eq$random_generator.v:63$2">
    <s:alias val="$eq"/>
    <circle r="12.5" cx="12.5" cy="12.5" class="cell_$eq$random_generator.v:63$2"/>
    <line x1="7.5" x2="17.5" y1="10" y2="10" class="cell_$eq$random_generator.v:63$2"/>
    <line x1="7.5" x2="17.5" y1="15" y2="15" class="cell_$eq$random_generator.v:63$2"/>
    <g s:x="3" s:y="5" s:pid="A"/>
    <g s:x="3" s:y="20" s:pid="B"/>
    <g s:x="25" s:y="12.5" s:pid="Y"/>
  </g>
  <g s:type="eq" transform="translate(229.33333333333334,326)" s:width="25" s:height="25" id="cell_$eq$random_generator.v:85$10">
    <s:alias val="$eq"/>
    <circle r="12.5" cx="12.5" cy="12.5" class="cell_$eq$random_generator.v:85$10"/>
    <line x1="7.5" x2="17.5" y1="10" y2="10" class="cell_$eq$random_generator.v:85$10"/>
    <line x1="7.5" x2="17.5" y1="15" y2="15" class="cell_$eq$random_generator.v:85$10"/>
    <g s:x="3" s:y="5" s:pid="A"/>
    <g s:x="3" s:y="20" s:pid="B"/>
    <g s:x="25" s:y="12.5" s:pid="Y"/>
  </g>
  <g s:type="and" transform="translate(403,362)" s:width="30" s:height="25" id="cell_$logic_and$random_generator.v:78$7">
    <s:alias val="$and"/>
    <s:alias val="$reduce_and"/>
    <s:alias val="$logic_and"/>
    <s:alias val="$_AND_"/>
    <path d="M0,0 L0,25 L15,25 A15 12.5 0 0 0 15,0 Z" class="cell_$logic_and$random_generator.v:78$7"/>
    <text x="13" y="15" class="nodelabel" style="font-size:7px">AND</text>
    <g s:x="0" s:y="5" s:pid="A"/>
    <g s:x="0" s:y="20" s:pid="B"/>
    <g s:x="30" s:y="12.5" s:pid="Y"/>
  </g>
  <g s:type="and" transform="translate(531.6666666666666,540)" s:width="30" s:height="25" id="cell_$logic_and$random_generator.v:78$8">
    <s:alias val="$and"/>
    <s:alias val="$reduce_and"/>
    <s:alias val="$logic_and"/>
    <s:alias val="$_AND_"/>
    <path d="M0,0 L0,25 L15,25 A15 12.5 0 0 0 15,0 Z" class="cell_$logic_and$random_generator.v:78$8"/>
    <text x="13" y="15" class="nodelabel" style="font-size:7px">AND</text>
    <g s:x="0" s:y="5" s:pid="A"/>
    <g s:x="0" s:y="20" s:pid="B"/>
    <g s:x="30" s:y="12.5" s:pid="Y"/>
  </g>
  <g s:type="not" transform="translate(317,372)" s:width="30" s:height="20" id="cell_$logic_not$random_generator.v:78$6">
    <s:alias val="$_NOT_"/>
    <s:alias val="$not"/>
    <s:alias val="$logic_not"/>
    <path d="M0,0 L0,20 L20,10 Z" class="cell_$logic_not$random_generator.v:78$6"/>
    <circle cx="23" cy="10" r="3" class="cell_$logic_not$random_generator.v:78$6"/>
    <text x="8" y="12" class="nodelabel" style="font-size:6px">NOT</text>
    <g s:x="0" s:y="10" s:pid="A"/>
    <g s:x="25" s:y="10" s:pid="Y"/>
  </g>
  <g s:type="lt" transform="translate(765,163)" s:width="25" s:height="25" id="cell_$lt$random_generator.v:68$4">
    <s:alias val="$lt"/>
    <circle r="12.5" cx="12.5" cy="12.5" class="cell_$lt$random_generator.v:68$4"/>
    <line x1="7.5" x2="17.5" y1="12.5" y2="7.5" class="cell_$lt$random_generator.v:68$4"/>
    <line x1="7.5" x2="17.5" y1="12.5" y2="17.5" class="cell_$lt$random_generator.v:68$4"/>
    <g s:x="3" s:y="5" s:pid="A"/>
    <g s:x="3" s:y="20" s:pid="B"/>
    <g s:x="25" s:y="12.5" s:pid="Y"/>
  </g>
  <g s:type="generic" transform="translate(480,687)" s:width="30" s:height="40" id="cell_$mul$random_generator.v:107$15">
    <text x="15" y="-4" class="nodelabel cell_$mul$random_generator.v:107$15" s:attribute="ref">*</text>
    <rect width="30" height="40" s:generic="body" class="cell_$mul$random_generator.v:107$15"/>
    <g transform="translate(0,10)" s:x="0" s:y="10" s:pid="in0" id="port_$mul$random_generator.v:107$15~A">
      <text x="-3" y="-4" class="inputPortLabel cell_$mul$random_generator.v:107$15">A</text>
    </g>
    <g transform="translate(0,30)" s:x="0" s:y="10" s:pid="in0" id="port_$mul$random_generator.v:107$15~B">
      <text x="-3" y="-4" class="inputPortLabel cell_$mul$random_generator.v:107$15">B</text>
    </g>
    <g transform="translate(30,10)" s:x="30" s:y="10" s:pid="out0" id="port_$mul$random_generator.v:107$15~Y">
      <text x="5" y="-4" style="fill:#000; stroke:none" class="cell_$mul$random_generator.v:107$15">Y</text>
    </g>
  </g>
  <g s:type="dff" transform="translate(1160,565)" s:width="30" s:height="40" id="cell_$procdff$82">
    <s:alias val="$dff"/>
    <s:alias val="$_DFF_"/>
    <s:alias val="$_DFF_P_"/>
    <rect width="30" height="40" x="0" y="0" class="cell_$procdff$82"/>
    <path d="M0,35 L5,30 L0,25" class="cell_$procdff$82"/>
    <g s:x="30" s:y="10" s:pid="Q"/>
    <g s:x="0" s:y="30" s:pid="CLK"/>
    <g s:x="0" s:y="30" s:pid="C"/>
    <g s:x="0" s:y="10" s:pid="D"/>
  </g>
  <g s:type="dff" transform="translate(403,985.5)" s:width="30" s:height="40" id="cell_$procdff$83">
    <s:alias val="$dff"/>
    <s:alias val="$_DFF_"/>
    <s:alias val="$_DFF_P_"/>
    <rect width="30" height="40" x="0" y="0" class="cell_$procdff$83"/>
    <path d="M0,35 L5,30 L0,25" class="cell_$procdff$83"/>
    <g s:x="30" s:y="10" s:pid="Q"/>
    <g s:x="0" s:y="30" s:pid="CLK"/>
    <g s:x="0" s:y="30" s:pid="C"/>
    <g s:x="0" s:y="10" s:pid="D"/>
  </g>
  <g s:type="dff" transform="translate(760,616)" s:width="30" s:height="40" id="cell_$procdff$84">
    <s:alias val="$dff"/>
    <s:alias val="$_DFF_"/>
    <s:alias val="$_DFF_P_"/>
    <rect width="30" height="40" x="0" y="0" class="cell_$procdff$84"/>
    <path d="M0,35 L5,30 L0,25" class="cell_$procdff$84"/>
    <g s:x="30" s:y="10" s:pid="Q"/>
    <g s:x="0" s:y="30" s:pid="CLK"/>
    <g s:x="0" s:y="30" s:pid="C"/>
    <g s:x="0" s:y="10" s:pid="D"/>
  </g>
  <g s:type="dff" transform="translate(226,372)" s:width="30" s:height="40" id="cell_$procdff$85">
    <s:alias val="$dff"/>
    <s:alias val="$_DFF_"/>
    <s:alias val="$_DFF_P_"/>
    <rect width="30" height="40" x="0" y="0" class="cell_$procdff$85"/>
    <path d="M0,35 L5,30 L0,25" class="cell_$procdff$85"/>
    <g s:x="30" s:y="10" s:pid="Q"/>
    <g s:x="0" s:y="30" s:pid="CLK"/>
    <g s:x="0" s:y="30" s:pid="C"/>
    <g s:x="0" s:y="10" s:pid="D"/>
  </g>
  <g s:type="dff" transform="translate(695,103)" s:width="30" s:height="40" id="cell_$procdff$86">
    <s:alias val="$dff"/>
    <s:alias val="$_DFF_"/>
    <s:alias val="$_DFF_P_"/>
    <rect width="30" height="40" x="0" y="0" class="cell_$procdff$86"/>
    <path d="M0,35 L5,30 L0,25" class="cell_$procdff$86"/>
    <g s:x="30" s:y="10" s:pid="Q"/>
    <g s:x="0" s:y="30" s:pid="CLK"/>
    <g s:x="0" s:y="30" s:pid="C"/>
    <g s:x="0" s:y="10" s:pid="D"/>
  </g>
  <g s:type="dff" transform="translate(872.25,173)" s:width="30" s:height="40" id="cell_$procdff$87">
    <s:alias val="$dff"/>
    <s:alias val="$_DFF_"/>
    <s:alias val="$_DFF_P_"/>
    <rect width="30" height="40" x="0" y="0" class="cell_$procdff$87"/>
    <path d="M0,35 L5,30 L0,25" class="cell_$procdff$87"/>
    <g s:x="30" s:y="10" s:pid="Q"/>
    <g s:x="0" s:y="30" s:pid="CLK"/>
    <g s:x="0" s:y="30" s:pid="C"/>
    <g s:x="0" s:y="10" s:pid="D"/>
  </g>
  <g s:type="mux" transform="translate(1080.6666666666667,971)" s:width="20" s:height="40" id="cell_$procmux$63">
    <s:alias val="$pmux"/>
    <s:alias val="$mux"/>
    <s:alias val="$_MUX_"/>
    <path d="M0,0 L20,10 L20,30 L0,40 Z" class="cell_$procmux$63"/>
    <g s:x="0" s:y="10" s:pid="A"/>
    <g s:x="0" s:y="30" s:pid="B"/>
    <g s:x="10" s:y="35" s:pid="S"/>
    <g s:x="20" s:y="20" s:pid="Y"/>
  </g>
  <g s:type="eq" transform="translate(765,955.5)" s:width="25" s:height="25" id="cell_$procmux$64_CMP0">
    <s:alias val="$eq"/>
    <circle r="12.5" cx="12.5" cy="12.5" class="cell_$procmux$64_CMP0"/>
    <line x1="7.5" x2="17.5" y1="10" y2="10" class="cell_$procmux$64_CMP0"/>
    <line x1="7.5" x2="17.5" y1="15" y2="15" class="cell_$procmux$64_CMP0"/>
    <g s:x="3" s:y="5" s:pid="A"/>
    <g s:x="3" s:y="20" s:pid="B"/>
    <g s:x="25" s:y="12.5" s:pid="Y"/>
  </g>
  <g s:type="eq" transform="translate(765,1026.5)" s:width="25" s:height="25" id="cell_$procmux$65_CMP0">
    <s:alias val="$eq"/>
    <circle r="12.5" cx="12.5" cy="12.5" class="cell_$procmux$65_CMP0"/>
    <line x1="7.5" x2="17.5" y1="10" y2="10" class="cell_$procmux$65_CMP0"/>
    <line x1="7.5" x2="17.5" y1="15" y2="15" class="cell_$procmux$65_CMP0"/>
    <g s:x="3" s:y="5" s:pid="A"/>
    <g s:x="3" s:y="20" s:pid="B"/>
    <g s:x="25" s:y="12.5" s:pid="Y"/>
  </g>
  <g s:type="not" transform="translate(760,1086.5)" s:width="30" s:height="20" id="cell_$procmux$66_CMP0">
    <s:alias val="$_NOT_"/>
    <s:alias val="$not"/>
    <s:alias val="$logic_not"/>
    <path d="M0,0 L0,20 L20,10 Z" class="cell_$procmux$66_CMP0"/>
    <circle cx="23" cy="10" r="3" class="cell_$procmux$66_CMP0"/>
    <text x="8" y="12" class="nodelabel" style="font-size:6px">NOT</text>
    <g s:x="0" s:y="10" s:pid="A"/>
    <g s:x="25" s:y="10" s:pid="Y"/>
  </g>
  <g s:type="mux" transform="translate(1080.6666666666667,525)" s:width="20" s:height="40" id="cell_$procmux$68">
    <s:alias val="$pmux"/>
    <s:alias val="$mux"/>
    <s:alias val="$_MUX_"/>
    <path d="M0,0 L20,10 L20,30 L0,40 Z" class="cell_$procmux$68"/>
    <g s:x="0" s:y="10" s:pid="A"/>
    <g s:x="0" s:y="30" s:pid="B"/>
    <g s:x="10" s:y="35" s:pid="S"/>
    <g s:x="20" s:y="20" s:pid="Y"/>
  </g>
  <g s:type="mux" transform="translate(316.6666666666667,586)" s:width="20" s:height="40" id="cell_$procmux$71">
    <s:alias val="$pmux"/>
    <s:alias val="$mux"/>
    <s:alias val="$_MUX_"/>
    <path d="M0,0 L20,10 L20,30 L0,40 Z" class="cell_$procmux$71"/>
    <g s:x="0" s:y="10" s:pid="A"/>
    <g s:x="0" s:y="30" s:pid="B"/>
    <g s:x="10" s:y="35" s:pid="S"/>
    <g s:x="20" s:y="20" s:pid="Y"/>
  </g>
  <g s:type="mux" transform="translate(701.6666666666666,455.5)" s:width="20" s:height="40" id="cell_$procmux$73">
    <s:alias val="$pmux"/>
    <s:alias val="$mux"/>
    <s:alias val="$_MUX_"/>
    <path d="M0,0 L20,10 L20,30 L0,40 Z" class="cell_$procmux$73"/>
    <g s:x="0" s:y="10" s:pid="A"/>
    <g s:x="0" s:y="30" s:pid="B"/>
    <g s:x="10" s:y="35" s:pid="S"/>
    <g s:x="20" s:y="20" s:pid="Y"/>
  </g>
  <g s:type="mux" transform="translate(535,83)" s:width="20" s:height="40" id="cell_$procmux$76">
    <s:alias val="$pmux"/>
    <s:alias val="$mux"/>
    <s:alias val="$_MUX_"/>
    <path d="M0,0 L20,10 L20,30 L0,40 Z" class="cell_$procmux$76"/>
    <g s:x="0" s:y="10" s:pid="A"/>
    <g s:x="0" s:y="30" s:pid="B"/>
    <g s:x="10" s:y="35" s:pid="S"/>
    <g s:x="20" s:y="20" s:pid="Y"/>
  </g>
  <g s:type="generic" transform="translate(832,744.5)" s:width="30" s:height="40" id="cell_$shiftx$random_generator.v:107$17">
    <text x="15" y="-4" class="nodelabel cell_$shiftx$random_generator.v:107$17" s:attribute="ref">shift</text>
    <rect width="30" height="40" s:generic="body" class="cell_$shiftx$random_generator.v:107$17"/>
    <g transform="translate(0,10)" s:x="0" s:y="10" s:pid="in0" id="port_$shiftx$random_generator.v:107$17~A">
      <text x="-3" y="-4" class="inputPortLabel cell_$shiftx$random_generator.v:107$17">A</text>
    </g>
    <g transform="translate(0,30)" s:x="0" s:y="10" s:pid="in0" id="port_$shiftx$random_generator.v:107$17~B">
      <text x="-3" y="-4" class="inputPortLabel cell_$shiftx$random_generator.v:107$17">B</text>
    </g>
    <g transform="translate(30,10)" s:x="30" s:y="10" s:pid="out0" id="port_$shiftx$random_generator.v:107$17~Y">
      <text x="5" y="-4" style="fill:#000; stroke:none" class="cell_$shiftx$random_generator.v:107$17">Y</text>
    </g>
  </g>
  <g s:type="generic" transform="translate(114,248)" s:width="30" s:height="40" id="cell_lfsr_inst">
    <text x="15" y="-4" class="nodelabel cell_lfsr_inst" s:attribute="ref">lfsr</text>
    <rect width="30" height="40" s:generic="body" class="cell_lfsr_inst"/>
    <g transform="translate(0,10)" s:x="0" s:y="10" s:pid="in0" id="port_lfsr_inst~clk">
      <text x="-3" y="-4" class="inputPortLabel cell_lfsr_inst">clk</text>
    </g>
    <g transform="translate(0,30)" s:x="0" s:y="10" s:pid="in0" id="port_lfsr_inst~enable">
      <text x="-3" y="-4" class="inputPortLabel cell_lfsr_inst">enable</text>
    </g>
    <g transform="translate(30,10)" s:x="30" s:y="10" s:pid="out0" id="port_lfsr_inst~data">
      <text x="5" y="-4" style="fill:#000; stroke:none" class="cell_lfsr_inst">data</text>
    </g>
    <g transform="translate(30,30)" s:x="30" s:y="10" s:pid="out0" id="port_lfsr_inst~valid">
      <text x="5" y="-4" style="fill:#000; stroke:none" class="cell_lfsr_inst">valid</text>
    </g>
  </g>
  <g s:type="inputExt" transform="translate(12,392)" s:width="30" s:height="20" id="cell_clock">
    <text x="15" y="-4" class="nodelabel cell_clock" s:attribute="ref">clock</text>
    <s:alias val="$_inputExt_"/>
    <path d="M0,0 L0,20 L15,20 L30,10 L15,0 Z" class="cell_clock"/>
    <g s:x="28" s:y="10" s:pid="Y"/>
  </g>
  <g s:type="inputExt" transform="translate(296,445)" s:width="30" s:height="20" id="cell_inputButtons">
    <text x="15" y="-4" class="nodelabel cell_inputButtons" s:attribute="ref">inputButtons</text>
    <s:alias val="$_inputExt_"/>
    <path d="M0,0 L0,20 L15,20 L30,10 L15,0 Z" class="cell_inputButtons"/>
    <g s:x="28" s:y="10" s:pid="Y"/>
  </g>
  <g s:type="outputExt" transform="translate(1160,820)" s:width="30" s:height="20" id="cell_sevenSegments">
    <text x="15" y="-4" class="nodelabel cell_sevenSegments" s:attribute="ref">sevenSegments</text>
    <s:alias val="$_outputExt_"/>
    <path d="M30,0 L30,20 L15,20 L0,10 L15,0 Z" class="cell_sevenSegments"/>
    <g s:x="0" s:y="10" s:pid="A"/>
  </g>
  <g s:type="outputExt" transform="translate(1160,981)" s:width="30" s:height="20" id="cell_cableSelect">
    <text x="15" y="-4" class="nodelabel cell_cableSelect" s:attribute="ref">cableSelect</text>
    <s:alias val="$_outputExt_"/>
    <path d="M30,0 L30,20 L15,20 L0,10 L15,0 Z" class="cell_cableSelect"/>
    <g s:x="0" s:y="10" s:pid="A"/>
  </g>
  <g s:type="outputExt" transform="translate(1160,234)" s:width="30" s:height="20" id="cell_leds">
    <text x="15" y="-4" class="nodelabel cell_leds" s:attribute="ref">leds</text>
    <s:alias val="$_outputExt_"/>
    <path d="M30,0 L30,20 L15,20 L0,10 L15,0 Z" class="cell_leds"/>
    <g s:x="0" s:y="10" s:pid="A"/>
  </g>
  <g s:type="constant" transform="translate(480,775)" s:width="30" s:height="20" id="cell_0">
    <text x="15" y="-4" class="nodelabel cell_0" s:attribute="ref">0</text>
    <s:alias val="$_constant_"/>
    <rect width="30" height="20" class="cell_0"/>
    <g s:x="30" s:y="10" s:pid="Y"/>
  </g>
  <g s:type="constant" transform="translate(114,616)" s:width="30" s:height="20" id="cell_1">
    <text x="15" y="-4" class="nodelabel cell_1" s:attribute="ref">1</text>
    <s:alias val="$_constant_"/>
    <rect width="30" height="20" class="cell_1"/>
    <g s:x="30" s:y="10" s:pid="Y"/>
  </g>
  <g s:type="constant" transform="translate(296,173)" s:width="30" s:height="20" id="cell_11010101100111110111111">
    <text x="15" y="-4" class="nodelabel cell_11010101100111110111111" s:attribute="ref">0x6acfbf</text>
    <s:alias val="$_constant_"/>
    <rect width="30" height="20" class="cell_11010101100111110111111"/>
    <g s:x="30" s:y="10" s:pid="Y"/>
  </g>
  <g s:type="constant" transform="translate(114,336)" s:width="30" s:height="20" id="cell_11000011010011111">
    <text x="15" y="-4" class="nodelabel cell_11000011010011111" s:attribute="ref">0x1869f</text>
    <s:alias val="$_constant_"/>
    <rect width="30" height="20" class="cell_11000011010011111"/>
    <g s:x="30" s:y="10" s:pid="Y"/>
  </g>
  <g s:type="constant" transform="translate(695,173)" s:width="30" s:height="20" id="cell_1111101000">
    <text x="15" y="-4" class="nodelabel cell_1111101000" s:attribute="ref">0x3e8</text>
    <s:alias val="$_constant_"/>
    <rect width="30" height="20" class="cell_1111101000"/>
    <g s:x="30" s:y="10" s:pid="Y"/>
  </g>
  <g s:type="constant" transform="translate(403,707.5)" s:width="30" s:height="20" id="cell_100">
    <text x="15" y="-4" class="nodelabel cell_100" s:attribute="ref">100</text>
    <s:alias val="$_constant_"/>
    <rect width="30" height="20" class="cell_100"/>
    <g s:x="30" s:y="10" s:pid="Y"/>
  </g>
  <g s:type="constant" transform="translate(832,926)" s:width="30" s:height="20" id="cell_0111">
    <text x="15" y="-4" class="nodelabel cell_0111" s:attribute="ref">0x7</text>
    <s:alias val="$_constant_"/>
    <rect width="30" height="20" class="cell_0111"/>
    <g s:x="30" s:y="10" s:pid="Y"/>
  </g>
  <g s:type="constant" transform="translate(832,991)" s:width="30" s:height="20" id="cell_111011011011">
    <text x="15" y="-4" class="nodelabel cell_111011011011" s:attribute="ref">0xedb</text>
    <s:alias val="$_constant_"/>
    <rect width="30" height="20" class="cell_111011011011"/>
    <g s:x="30" s:y="10" s:pid="Y"/>
  </g>
  <g s:type="constant" transform="translate(695,965.5)" s:width="30" s:height="20" id="cell_10">
    <text x="15" y="-4" class="nodelabel cell_10" s:attribute="ref">10</text>
    <s:alias val="$_constant_"/>
    <rect width="30" height="20" class="cell_10"/>
    <g s:x="30" s:y="10" s:pid="Y"/>
  </g>
  <g s:type="constant" transform="translate(832,545)" s:width="30" s:height="20" id="cell_000000000000000000">
    <text x="15" y="-4" class="nodelabel cell_000000000000000000" s:attribute="ref">0x0</text>
    <s:alias val="$_constant_"/>
    <rect width="30" height="20" class="cell_000000000000000000"/>
    <g s:x="30" s:y="10" s:pid="Y"/>
  </g>
  <g s:type="constant" transform="translate(403,103)" s:width="30" s:height="20" id="cell_00000000000000000000000000000000">
    <text x="15" y="-4" class="nodelabel cell_00000000000000000000000000000000" s:attribute="ref">0x0</text>
    <s:alias val="$_constant_"/>
    <rect width="30" height="20" class="cell_00000000000000000000000000000000"/>
    <g s:x="30" s:y="10" s:pid="Y"/>
  </g>
  <g s:type="constant" transform="translate(832,244)" s:width="30" s:height="20" id="cell_000">
    <text x="15" y="-4" class="nodelabel cell_000" s:attribute="ref">000</text>
    <s:alias val="$_constant_"/>
    <rect width="30" height="20" class="cell_000"/>
    <g s:x="30" s:y="10" s:pid="Y"/>
  </g>
  <g s:type="join" transform="translate(878.75,1046)" s:width="4" s:height="40" id="cell_$join$,230,231,232,">
    <rect width="5" height="60" class="splitjoinBody" s:generic="body"/>
    <s:alias val="$_join_"/>
    <g s:x="5" s:y="20" s:pid="out"/>
    <g transform="translate(0,10)" s:x="0" s:y="10" s:pid="in0">
      <text x="-3" y="-4" class="inputPortLabel">0</text>
    </g>
    <g transform="translate(0,30)" s:x="0" s:y="10" s:pid="in0">
      <text x="-3" y="-4" class="inputPortLabel">1</text>
    </g>
    <g transform="translate(0,50)" s:x="0" s:y="10" s:pid="in0">
      <text x="-3" y="-4" class="inputPortLabel">2</text>
    </g>
  </g>
  <g s:type="join" transform="translate(540.3333333333334,465)" s:width="4" s:height="40" id="cell_$join$,190,191,192,193,194,195,196,197,233,234,235,236,237,238,239,240,">
    <rect width="5" height="40" class="splitjoinBody" s:generic="body"/>
    <s:alias val="$_join_"/>
    <g s:x="5" s:y="20" s:pid="out"/>
    <g transform="translate(0,10)" s:x="0" s:y="10" s:pid="in0">
      <text x="-3" y="-4" class="inputPortLabel">0:7</text>
    </g>
    <g transform="translate(0,30)" s:x="0" s:y="10" s:pid="in0">
      <text x="-3" y="-4" class="inputPortLabel">8:15</text>
    </g>
  </g>
  <g s:type="join" transform="translate(779,754.5)" s:width="4" s:height="40" id="cell_$join$,24,25,26,27,28,29,241,">
    <rect width="5" height="40" class="splitjoinBody" s:generic="body"/>
    <s:alias val="$_join_"/>
    <g s:x="5" s:y="20" s:pid="out"/>
    <g transform="translate(0,10)" s:x="0" s:y="10" s:pid="in0">
      <text x="-3" y="-4" class="inputPortLabel">0:5</text>
    </g>
    <g transform="translate(0,30)" s:x="0" s:y="10" s:pid="in0">
      <text x="-3" y="-4" class="inputPortLabel">6</text>
    </g>
  </g>
  <g s:type="join" transform="translate(1086,223.5)" s:width="4" s:height="40" id="cell_$join$,18,371,372,373,">
    <rect width="5" height="40" class="splitjoinBody" s:generic="body"/>
    <s:alias val="$_join_"/>
    <g s:x="5" s:y="20" s:pid="out"/>
    <g transform="translate(0,10)" s:x="0" s:y="10" s:pid="in0">
      <text x="-3" y="-4" class="inputPortLabel">0</text>
    </g>
    <g transform="translate(0,30)" s:x="0" s:y="10" s:pid="in0">
      <text x="-3" y="-4" class="inputPortLabel">1:3</text>
    </g>
  </g>
  <g s:type="split" transform="translate(403,422)" s:width="5" s:height="40" id="cell_$split$,3,4,5,6,">
    <rect width="5" height="20" class="splitjoinBody" s:generic="body"/>
    <s:alias val="$_split_"/>
    <g s:x="0" s:y="20" s:pid="in"/>
    <g transform="translate(4,10)" s:x="4" s:y="10" s:pid="out0">
      <text x="5" y="-4">0</text>
    </g>
  </g>
  <g s:type="split" transform="translate(403,465)" s:width="5" s:height="40" id="cell_$split$,182,183,184,185,186,187,188,189,190,191,192,193,194,195,196,197,">
    <rect width="5" height="20" class="splitjoinBody" s:generic="body"/>
    <s:alias val="$_split_"/>
    <g s:x="0" s:y="20" s:pid="in"/>
    <g transform="translate(4,10)" s:x="4" s:y="10" s:pid="out0">
      <text x="5" y="-4">8:15</text>
    </g>
  </g>
  <line x1="511" x2="699.6666666666666" y1="697.5" y2="697.5" class="net_19,20,21,22,23"/>
  <line x1="510" x2="670" y1="785" y2="785" class="net_241"/>
  <line x1="670" x2="670" y1="785" y2="712.5" class="net_241"/>
  <circle cx="670" cy="785" r="2" style="fill:#000" class="net_241"/>
  <line x1="670" x2="699.6666666666666" y1="712.5" y2="712.5" class="net_241"/>
  <line x1="510" x2="670" y1="785" y2="785" class="net_241"/>
  <line x1="670" x2="670" y1="785" y2="905" class="net_241"/>
  <line x1="670" x2="1135" y1="905" y2="905" class="net_241"/>
  <line x1="1135" x2="1135" y1="905" y2="885" class="net_241"/>
  <line x1="1135" x2="1125" y1="885" y2="885" class="net_241"/>
  <line x1="510" x2="670" y1="785" y2="785" class="net_241"/>
  <line x1="670" x2="670" y1="785" y2="905" class="net_241"/>
  <line x1="670" x2="1135" y1="905" y2="905" class="net_241"/>
  <line x1="1135" x2="1135" y1="905" y2="895" class="net_241"/>
  <circle cx="1135" cy="895" r="2" style="fill:#000" class="net_241"/>
  <line x1="1135" x2="1125" y1="895" y2="895" class="net_241"/>
  <line x1="510" x2="779" y1="785" y2="785" class="net_241"/>
  <line x1="725" x2="735" y1="113" y2="113" class="net_30,31,32,33,34,35,36,37,38,39,40,41,42,43,44,45,46,47,48,49,50,51,52,53,54,55,56,57,58,59,60,61"/>
  <line x1="735" x2="735" y1="113" y2="23" class="net_30,31,32,33,34,35,36,37,38,39,40,41,42,43,44,45,46,47,48,49,50,51,52,53,54,55,56,57,58,59,60,61"/>
  <line x1="735" x2="378" y1="23" y2="23" class="net_30,31,32,33,34,35,36,37,38,39,40,41,42,43,44,45,46,47,48,49,50,51,52,53,54,55,56,57,58,59,60,61"/>
  <line x1="378" x2="378" y1="23" y2="38" class="net_30,31,32,33,34,35,36,37,38,39,40,41,42,43,44,45,46,47,48,49,50,51,52,53,54,55,56,57,58,59,60,61"/>
  <circle cx="735" cy="113" r="2" style="fill:#000" class="net_30,31,32,33,34,35,36,37,38,39,40,41,42,43,44,45,46,47,48,49,50,51,52,53,54,55,56,57,58,59,60,61"/>
  <line x1="378" x2="406" y1="38" y2="38" class="net_30,31,32,33,34,35,36,37,38,39,40,41,42,43,44,45,46,47,48,49,50,51,52,53,54,55,56,57,58,59,60,61"/>
  <line x1="725" x2="735" y1="113" y2="113" class="net_30,31,32,33,34,35,36,37,38,39,40,41,42,43,44,45,46,47,48,49,50,51,52,53,54,55,56,57,58,59,60,61"/>
  <line x1="735" x2="735" y1="113" y2="153" class="net_30,31,32,33,34,35,36,37,38,39,40,41,42,43,44,45,46,47,48,49,50,51,52,53,54,55,56,57,58,59,60,61"/>
  <line x1="735" x2="378" y1="153" y2="153" class="net_30,31,32,33,34,35,36,37,38,39,40,41,42,43,44,45,46,47,48,49,50,51,52,53,54,55,56,57,58,59,60,61"/>
  <line x1="378" x2="378" y1="153" y2="168" class="net_30,31,32,33,34,35,36,37,38,39,40,41,42,43,44,45,46,47,48,49,50,51,52,53,54,55,56,57,58,59,60,61"/>
  <circle cx="735" cy="153" r="2" style="fill:#000" class="net_30,31,32,33,34,35,36,37,38,39,40,41,42,43,44,45,46,47,48,49,50,51,52,53,54,55,56,57,58,59,60,61"/>
  <line x1="378" x2="406" y1="168" y2="168" class="net_30,31,32,33,34,35,36,37,38,39,40,41,42,43,44,45,46,47,48,49,50,51,52,53,54,55,56,57,58,59,60,61"/>
  <line x1="725" x2="735" y1="113" y2="113" class="net_30,31,32,33,34,35,36,37,38,39,40,41,42,43,44,45,46,47,48,49,50,51,52,53,54,55,56,57,58,59,60,61"/>
  <line x1="735" x2="735" y1="113" y2="168" class="net_30,31,32,33,34,35,36,37,38,39,40,41,42,43,44,45,46,47,48,49,50,51,52,53,54,55,56,57,58,59,60,61"/>
  <line x1="735" x2="768" y1="168" y2="168" class="net_30,31,32,33,34,35,36,37,38,39,40,41,42,43,44,45,46,47,48,49,50,51,52,53,54,55,56,57,58,59,60,61"/>
  <line x1="144" x2="216" y1="626" y2="626" class="net_242"/>
  <line x1="216" x2="216" y1="626" y2="53" class="net_242"/>
  <circle cx="216" cy="626" r="2" style="fill:#000" class="net_242"/>
  <line x1="216" x2="406" y1="53" y2="53" class="net_242"/>
  <line x1="144" x2="216" y1="626" y2="626" class="net_242"/>
  <line x1="216" x2="216" y1="626" y2="790" class="net_242"/>
  <circle cx="216" cy="790" r="2" style="fill:#000" class="net_242"/>
  <line x1="216" x2="232.33333333333334" y1="790" y2="790" class="net_242"/>
  <line x1="144" x2="216" y1="626" y2="626" class="net_242"/>
  <line x1="216" x2="216" y1="626" y2="304" class="net_242"/>
  <circle cx="216" cy="304" r="2" style="fill:#000" class="net_242"/>
  <line x1="216" x2="892" y1="304" y2="304" class="net_242"/>
  <line x1="144" x2="216" y1="626" y2="626" class="net_242"/>
  <line x1="216" x2="216" y1="626" y2="805" class="net_242"/>
  <line x1="216" x2="1135" y1="805" y2="805" class="net_242"/>
  <line x1="1135" x2="1135" y1="805" y2="860" class="net_242"/>
  <circle cx="216" cy="805" r="2" style="fill:#000" class="net_242"/>
  <line x1="1135" x2="1125" y1="860" y2="860" class="net_242"/>
  <line x1="144" x2="216" y1="626" y2="626" class="net_242"/>
  <line x1="216" x2="216" y1="626" y2="1046.5" class="net_242"/>
  <line x1="216" x2="768" y1="1046.5" y2="1046.5" class="net_242"/>
  <line x1="433" x2="443" y1="995.5" y2="995.5" class="net_94,95"/>
  <line x1="443" x2="443" y1="995.5" y2="1035.5" class="net_94,95"/>
  <line x1="443" x2="196" y1="1035.5" y2="1035.5" class="net_94,95"/>
  <line x1="196" x2="196" y1="1035.5" y2="775" class="net_94,95"/>
  <circle cx="443" cy="1035.5" r="2" style="fill:#000" class="net_94,95"/>
  <line x1="196" x2="232.33333333333334" y1="775" y2="775" class="net_94,95"/>
  <line x1="433" x2="443" y1="995.5" y2="995.5" class="net_94,95"/>
  <line x1="443" x2="443" y1="995.5" y2="697.5" class="net_94,95"/>
  <line x1="443" x2="480" y1="697.5" y2="697.5" class="net_94,95"/>
  <line x1="433" x2="670" y1="995.5" y2="995.5" class="net_94,95"/>
  <line x1="670" x2="670" y1="995.5" y2="944.5" class="net_94,95"/>
  <line x1="670" x2="735" y1="944.5" y2="944.5" class="net_94,95"/>
  <line x1="735" x2="735" y1="944.5" y2="960.5" class="net_94,95"/>
  <circle cx="670" cy="995.5" r="2" style="fill:#000" class="net_94,95"/>
  <line x1="735" x2="768" y1="960.5" y2="960.5" class="net_94,95"/>
  <line x1="433" x2="735" y1="995.5" y2="995.5" class="net_94,95"/>
  <line x1="735" x2="735" y1="995.5" y2="1031.5" class="net_94,95"/>
  <line x1="735" x2="768" y1="1031.5" y2="1031.5" class="net_94,95"/>
  <line x1="433" x2="443" y1="995.5" y2="995.5" class="net_94,95"/>
  <line x1="443" x2="443" y1="995.5" y2="1096.5" class="net_94,95"/>
  <line x1="443" x2="760" y1="1096.5" y2="1096.5" class="net_94,95"/>
  <line x1="433" x2="443" y1="995.5" y2="995.5" class="net_94,95"/>
  <line x1="443" x2="443" y1="995.5" y2="975.5" class="net_94,95"/>
  <line x1="443" x2="266" y1="975.5" y2="975.5" class="net_94,95"/>
  <line x1="266" x2="266" y1="975.5" y2="596" class="net_94,95"/>
  <circle cx="443" cy="975.5" r="2" style="fill:#000" class="net_94,95"/>
  <circle cx="443" cy="995.5" r="2" style="fill:#000" class="net_94,95"/>
  <line x1="266" x2="316.6666666666667" y1="596" y2="596" class="net_94,95"/>
  <line x1="1190" x2="1248" y1="575" y2="575" class="net_98,99,100,101,102,103,104,105,106,107,108,109,110,111,112,113,114,115"/>
  <line x1="1248" x2="1248" y1="575" y2="274" class="net_98,99,100,101,102,103,104,105,106,107,108,109,110,111,112,113,114,115"/>
  <line x1="1248" x2="810" y1="274" y2="274" class="net_98,99,100,101,102,103,104,105,106,107,108,109,110,111,112,113,114,115"/>
  <line x1="810" x2="810" y1="274" y2="289" class="net_98,99,100,101,102,103,104,105,106,107,108,109,110,111,112,113,114,115"/>
  <circle cx="1248" cy="274" r="2" style="fill:#000" class="net_98,99,100,101,102,103,104,105,106,107,108,109,110,111,112,113,114,115"/>
  <line x1="810" x2="892" y1="289" y2="289" class="net_98,99,100,101,102,103,104,105,106,107,108,109,110,111,112,113,114,115"/>
  <line x1="1190" x2="1248" y1="575" y2="575" class="net_98,99,100,101,102,103,104,105,106,107,108,109,110,111,112,113,114,115"/>
  <line x1="1248" x2="1248" y1="575" y2="12" class="net_98,99,100,101,102,103,104,105,106,107,108,109,110,111,112,113,114,115"/>
  <line x1="1248" x2="196" y1="12" y2="12" class="net_98,99,100,101,102,103,104,105,106,107,108,109,110,111,112,113,114,115"/>
  <line x1="196" x2="196" y1="12" y2="331" class="net_98,99,100,101,102,103,104,105,106,107,108,109,110,111,112,113,114,115"/>
  <line x1="196" x2="232.33333333333334" y1="331" y2="331" class="net_98,99,100,101,102,103,104,105,106,107,108,109,110,111,112,113,114,115"/>
  <line x1="863" x2="1145" y1="755" y2="755" class="net_134,135,136,137"/>
  <line x1="1145" x2="1145" y1="755" y2="845" class="net_134,135,136,137"/>
  <line x1="1145" x2="1125" y1="845" y2="845" class="net_134,135,136,137"/>
  <line x1="1040" x2="1040" y1="875" y2="845" class="net_"/>
  <circle cx="1040" cy="845" r="2" style="fill:#000" class="net_"/>
  <line x1="1040" x2="1065" y1="845" y2="845" class="net_"/>
  <line x1="1040" x2="1065" y1="875" y2="875" class="net_"/>
  <line x1="1040" x2="1040" y1="875" y2="830" class="net_"/>
  <line x1="1040" x2="1065" y1="830" y2="830" class="net_"/>
  <line x1="1040" x2="1040" y1="875" y2="860" class="net_"/>
  <circle cx="1040" cy="860" r="2" style="fill:#000" class="net_"/>
  <line x1="1040" x2="1065" y1="860" y2="860" class="net_"/>
  <line x1="326" x2="406" y1="183" y2="183" class="net_248,249,250,251,252,253,254,255,256,257,258,259,260,261,262,263,264,265,266,267,268,269,270"/>
  <line x1="144" x2="232.33333333333334" y1="346" y2="346" class="net_271,272,273,274,275,276,277,278,279,280,281,282,283,284,285,286,287"/>
  <line x1="145" x2="186" y1="278.5" y2="278.5" class="net_140"/>
  <line x1="186" x2="186" y1="278.5" y2="361" class="net_140"/>
  <line x1="186" x2="378" y1="361" y2="361" class="net_140"/>
  <line x1="378" x2="378" y1="361" y2="367" class="net_140"/>
  <circle cx="186" cy="361" r="2" style="fill:#000" class="net_140"/>
  <line x1="378" x2="403" y1="367" y2="367" class="net_140"/>
  <line x1="145" x2="186" y1="278.5" y2="278.5" class="net_140"/>
  <line x1="186" x2="186" y1="278.5" y2="382" class="net_140"/>
  <line x1="186" x2="226" y1="382" y2="382" class="net_140"/>
  <line x1="342" x2="403" y1="382" y2="382" class="net_141"/>
  <line x1="433" x2="453" y1="374.5" y2="374.5" class="net_142"/>
  <line x1="453" x2="453" y1="374.5" y2="545" class="net_142"/>
  <line x1="453" x2="531.6666666666666" y1="545" y2="545" class="net_142"/>
  <line x1="408" x2="443" y1="432.5" y2="432.5" class="net_3"/>
  <line x1="443" x2="443" y1="432.5" y2="560" class="net_3"/>
  <line x1="443" x2="531.6666666666666" y1="560" y2="560" class="net_3"/>
  <line x1="256" x2="317" y1="382" y2="382" class="net_144"/>
  <line x1="725" x2="768" y1="183" y2="183" class="net_288,289,290,291,292,293,294,295,296,297"/>
  <line x1="433" x2="480" y1="717.5" y2="717.5" class="net_298,299,300"/>
  <line x1="40" x2="52" y1="402" y2="402" class="net_2"/>
  <line x1="52" x2="52" y1="402" y2="646" class="net_2"/>
  <line x1="52" x2="680" y1="646" y2="646" class="net_2"/>
  <line x1="680" x2="680" y1="646" y2="595" class="net_2"/>
  <circle cx="52" cy="402" r="2" style="fill:#000" class="net_2"/>
  <circle cx="680" cy="646" r="2" style="fill:#000" class="net_2"/>
  <line x1="680" x2="1160" y1="595" y2="595" class="net_2"/>
  <line x1="40" x2="52" y1="402" y2="402" class="net_2"/>
  <line x1="52" x2="52" y1="402" y2="646" class="net_2"/>
  <line x1="52" x2="186" y1="646" y2="646" class="net_2"/>
  <line x1="186" x2="186" y1="646" y2="1015.5" class="net_2"/>
  <circle cx="186" cy="646" r="2" style="fill:#000" class="net_2"/>
  <line x1="186" x2="403" y1="1015.5" y2="1015.5" class="net_2"/>
  <line x1="40" x2="52" y1="402" y2="402" class="net_2"/>
  <line x1="52" x2="52" y1="402" y2="646" class="net_2"/>
  <line x1="52" x2="760" y1="646" y2="646" class="net_2"/>
  <line x1="40" x2="226" y1="402" y2="402" class="net_2"/>
  <line x1="40" x2="52" y1="402" y2="402" class="net_2"/>
  <line x1="52" x2="52" y1="402" y2="203" class="net_2"/>
  <line x1="52" x2="266" y1="203" y2="203" class="net_2"/>
  <line x1="266" x2="266" y1="203" y2="133" class="net_2"/>
  <circle cx="266" cy="203" r="2" style="fill:#000" class="net_2"/>
  <line x1="266" x2="695" y1="133" y2="133" class="net_2"/>
  <line x1="40" x2="52" y1="402" y2="402" class="net_2"/>
  <line x1="52" x2="52" y1="402" y2="203" class="net_2"/>
  <line x1="52" x2="872.25" y1="203" y2="203" class="net_2"/>
  <line x1="40" x2="52" y1="402" y2="402" class="net_2"/>
  <line x1="52" x2="52" y1="402" y2="258.5" class="net_2"/>
  <circle cx="52" cy="258.5" r="2" style="fill:#000" class="net_2"/>
  <line x1="52" x2="114" y1="258.5" y2="258.5" class="net_2"/>
  <line x1="1100.6666666666667" x2="1135" y1="545" y2="545" class="net_146,147,148,149,150,151,152,153,154,155,156,157,158,159,160,161,162,163"/>
  <line x1="1135" x2="1135" y1="545" y2="575" class="net_146,147,148,149,150,151,152,153,154,155,156,157,158,159,160,161,162,163"/>
  <line x1="1135" x2="1160" y1="575" y2="575" class="net_146,147,148,149,150,151,152,153,154,155,156,157,158,159,160,161,162,163"/>
  <line x1="336.6666666666667" x2="378" y1="606" y2="606" class="net_164,165"/>
  <line x1="378" x2="378" y1="606" y2="995.5" class="net_164,165"/>
  <line x1="378" x2="403" y1="995.5" y2="995.5" class="net_164,165"/>
  <line x1="721.6666666666666" x2="735" y1="475.5" y2="475.5" class="net_166,167,168,169,170,171,172,173,174,175,176,177,178,179,180,181"/>
  <line x1="735" x2="735" y1="475.5" y2="626" class="net_166,167,168,169,170,171,172,173,174,175,176,177,178,179,180,181"/>
  <line x1="735" x2="760" y1="626" y2="626" class="net_166,167,168,169,170,171,172,173,174,175,176,177,178,179,180,181"/>
  <line x1="555" x2="670" y1="103" y2="103" class="net_198,199,200,201,202,203,204,205,206,207,208,209,210,211,212,213,214,215,216,217,218,219,220,221,222,223,224,225,226,227,228,229"/>
  <line x1="670" x2="670" y1="103" y2="113" class="net_198,199,200,201,202,203,204,205,206,207,208,209,210,211,212,213,214,215,216,217,218,219,220,221,222,223,224,225,226,227,228,229"/>
  <line x1="670" x2="695" y1="113" y2="113" class="net_198,199,200,201,202,203,204,205,206,207,208,209,210,211,212,213,214,215,216,217,218,219,220,221,222,223,224,225,226,227,228,229"/>
  <line x1="790" x2="800" y1="175.5" y2="175.5" class="net_145"/>
  <line x1="800" x2="800" y1="175.5" y2="183" class="net_145"/>
  <line x1="800" x2="872.25" y1="183" y2="183" class="net_145"/>
  <line x1="862" x2="1040" y1="936" y2="936" class="net_301,302,303,304"/>
  <line x1="1040" x2="1040" y1="936" y2="981" class="net_301,302,303,304"/>
  <line x1="1040" x2="1080.6666666666667" y1="981" y2="981" class="net_301,302,303,304"/>
  <line x1="862" x2="1080.6666666666667" y1="1001" y2="1001" class="net_305,306,307,308,309,310,311,312,313,314,315,316"/>
  <line x1="884.75" x2="1090.6666666666667" y1="1066.5" y2="1066.5" class="net_230,231,232"/>
  <line x1="1090.6666666666667" x2="1090.6666666666667" y1="1066.5" y2="1006" class="net_230,231,232"/>
  <line x1="725" x2="768" y1="975.5" y2="975.5" class="net_317,318"/>
  <line x1="914" x2="1040" y1="296.5" y2="296.5" class="net_116,117,118,119,120,121,122,123,124,125,126,127,128,129,130,131,132,133"/>
  <line x1="1040" x2="1040" y1="296.5" y2="535" class="net_116,117,118,119,120,121,122,123,124,125,126,127,128,129,130,131,132,133"/>
  <line x1="1040" x2="1080.6666666666667" y1="535" y2="535" class="net_116,117,118,119,120,121,122,123,124,125,126,127,128,129,130,131,132,133"/>
  <line x1="862" x2="1080.6666666666667" y1="555" y2="555" class="net_320,321,322,323,324,325,326,327,328,329,330,331,332,333,334,335,336,337"/>
  <line x1="254.33333333333334" x2="286" y1="338.5" y2="338.5" class="net_139"/>
  <line x1="286" x2="286" y1="338.5" y2="575" class="net_139"/>
  <line x1="286" x2="1090.6666666666667" y1="575" y2="575" class="net_139"/>
  <circle cx="286" cy="575" r="2" style="fill:#000" class="net_139"/>
  <line x1="1090.6666666666667" x2="1090.6666666666667" y1="575" y2="560" class="net_139"/>
  <line x1="254.33333333333334" x2="286" y1="338.5" y2="338.5" class="net_139"/>
  <line x1="286" x2="286" y1="338.5" y2="636" class="net_139"/>
  <line x1="286" x2="326.6666666666667" y1="636" y2="636" class="net_139"/>
  <line x1="326.6666666666667" x2="326.6666666666667" y1="636" y2="621" class="net_139"/>
  <line x1="254.33333333333334" x2="276" y1="782.5" y2="782.5" class="net_96,97"/>
  <line x1="276" x2="276" y1="782.5" y2="616" class="net_96,97"/>
  <line x1="276" x2="316.6666666666667" y1="616" y2="616" class="net_96,97"/>
  <line x1="790" x2="800" y1="626" y2="626" class="net_182,183,184,185,186,187,188,189,190,191,192,193,194,195,196,197"/>
  <line x1="800" x2="800" y1="626" y2="606" class="net_182,183,184,185,186,187,188,189,190,191,192,193,194,195,196,197"/>
  <line x1="800" x2="670" y1="606" y2="606" class="net_182,183,184,185,186,187,188,189,190,191,192,193,194,195,196,197"/>
  <line x1="670" x2="670" y1="606" y2="465.5" class="net_182,183,184,185,186,187,188,189,190,191,192,193,194,195,196,197"/>
  <circle cx="800" cy="626" r="2" style="fill:#000" class="net_182,183,184,185,186,187,188,189,190,191,192,193,194,195,196,197"/>
  <line x1="670" x2="701.6666666666666" y1="465.5" y2="465.5" class="net_182,183,184,185,186,187,188,189,190,191,192,193,194,195,196,197"/>
  <line x1="790" x2="800" y1="626" y2="626" class="net_182,183,184,185,186,187,188,189,190,191,192,193,194,195,196,197"/>
  <line x1="800" x2="800" y1="626" y2="755" class="net_182,183,184,185,186,187,188,189,190,191,192,193,194,195,196,197"/>
  <line x1="800" x2="832" y1="755" y2="755" class="net_182,183,184,185,186,187,188,189,190,191,192,193,194,195,196,197"/>
  <line x1="790" x2="800" y1="626" y2="626" class="net_182,183,184,185,186,187,188,189,190,191,192,193,194,195,196,197"/>
  <line x1="800" x2="800" y1="626" y2="666" class="net_182,183,184,185,186,187,188,189,190,191,192,193,194,195,196,197"/>
  <line x1="800" x2="403.5" y1="666" y2="666" class="net_182,183,184,185,186,187,188,189,190,191,192,193,194,195,196,197"/>
  <circle cx="800" cy="666" r="2" style="fill:#000" class="net_182,183,184,185,186,187,188,189,190,191,192,193,194,195,196,197"/>
  <line x1="403.5" x2="403.5" y1="666" y2="486" class="net_182,183,184,185,186,187,188,189,190,191,192,193,194,195,196,197"/>
  <line x1="546.3333333333334" x2="701.6666666666666" y1="485.5" y2="485.5" class="net_190,191,192,193,194,195,196,197,233,234,235,236,237,238,239,240"/>
  <line x1="561.6666666666666" x2="711.6666666666666" y1="552.5" y2="552.5" class="net_143"/>
  <line x1="711.6666666666666" x2="711.6666666666666" y1="552.5" y2="490.5" class="net_143"/>
  <line x1="428" x2="443" y1="45.5" y2="45.5" class="net_62,63,64,65,66,67,68,69,70,71,72,73,74,75,76,77,78,79,80,81,82,83,84,85,86,87,88,89,90,91,92,93"/>
  <line x1="443" x2="443" y1="45.5" y2="93" class="net_62,63,64,65,66,67,68,69,70,71,72,73,74,75,76,77,78,79,80,81,82,83,84,85,86,87,88,89,90,91,92,93"/>
  <line x1="443" x2="535" y1="93" y2="93" class="net_62,63,64,65,66,67,68,69,70,71,72,73,74,75,76,77,78,79,80,81,82,83,84,85,86,87,88,89,90,91,92,93"/>
  <line x1="433" x2="535" y1="113" y2="113" class="net_338,339,340,341,342,343,344,345,346,347,348,349,350,351,352,353,354,355,356,357,358,359,360,361,362,363,364,365,366,367,368,369"/>
  <line x1="428" x2="443" y1="175.5" y2="175.5" class="net_138"/>
  <line x1="443" x2="443" y1="175.5" y2="214" class="net_138"/>
  <line x1="443" x2="545" y1="214" y2="214" class="net_138"/>
  <line x1="545" x2="545" y1="214" y2="118" class="net_138"/>
  <line x1="785" x2="832" y1="775" y2="775" class="net_24,25,26,27,28,29,241"/>
  <line x1="902.25" x2="1040" y1="183" y2="183" class="net_18"/>
  <line x1="1040" x2="1040" y1="183" y2="224" class="net_18"/>
  <line x1="1040" x2="62" y1="224" y2="224" class="net_18"/>
  <line x1="62" x2="62" y1="224" y2="278.5" class="net_18"/>
  <circle cx="1040" cy="224" r="2" style="fill:#000" class="net_18"/>
  <line x1="62" x2="114" y1="278.5" y2="278.5" class="net_18"/>
  <line x1="902.25" x2="1040" y1="183" y2="183" class="net_18"/>
  <line x1="1040" x2="1040" y1="183" y2="234" class="net_18"/>
  <line x1="1040" x2="1086" y1="234" y2="234" class="net_18"/>
  <line x1="1125" x2="1160" y1="830" y2="830" class="net_7,8,9,10,11,12,13"/>
  <line x1="1100.6666666666667" x2="1160" y1="991" y2="991" class="net_14,15,16,17"/>
  <line x1="1092" x2="1160" y1="244" y2="244" class="net_18,371,372,373"/>
  <line x1="790" x2="810" y1="968" y2="968" class="net_230"/>
  <line x1="810" x2="810" y1="968" y2="1056.5" class="net_230"/>
  <line x1="810" x2="878.75" y1="1056.5" y2="1056.5" class="net_230"/>
  <line x1="790" x2="800" y1="1039" y2="1039" class="net_231"/>
  <line x1="800" x2="800" y1="1039" y2="1076.5" class="net_231"/>
  <line x1="800" x2="878.75" y1="1076.5" y2="1076.5" class="net_231"/>
  <line x1="785" x2="878.75" y1="1096.5" y2="1096.5" class="net_232"/>
  <line x1="408" x2="540.3333333333334" y1="475.5" y2="475.5" class="net_190,191,192,193,194,195,196,197"/>
  <line x1="145" x2="206" y1="258.5" y2="258.5" class="net_233,234,235,236,237,238,239,240"/>
  <line x1="206" x2="206" y1="258.5" y2="315" class="net_233,234,235,236,237,238,239,240"/>
  <line x1="206" x2="463" y1="315" y2="315" class="net_233,234,235,236,237,238,239,240"/>
  <line x1="463" x2="463" y1="315" y2="495.5" class="net_233,234,235,236,237,238,239,240"/>
  <line x1="463" x2="540.3333333333334" y1="495.5" y2="495.5" class="net_233,234,235,236,237,238,239,240"/>
  <line x1="721.6666666666666" x2="735" y1="705" y2="705" class="net_24,25,26,27,28,29"/>
  <line x1="735" x2="735" y1="705" y2="765" class="net_24,25,26,27,28,29"/>
  <line x1="735" x2="779" y1="765" y2="765" class="net_24,25,26,27,28,29"/>
  <line x1="862" x2="1086" y1="254" y2="254" class="net_371,372,373"/>
  <line x1="324" x2="403.5" y1="455" y2="455" class="net_3,4,5,6"/>
  <line x1="403.5" x2="403.5" y1="455" y2="443" class="net_3,4,5,6"/>
</svg>
