<svg xmlns="http://www.w3.org/2000/svg" xmlns:xlink="http://www.w3.org/1999/xlink" xmlns:s="https://github.com/nturley/netlistsvg" width="896" height="355"><style>svg {
  stroke:#000;
  fill:none;
}
text {
  fill:#000;
  stroke:none;
  font-size:10px;
  font-weight: bold;
  font-family: "Courier New", monospace;
}
.nodelabel {
  text-anchor: middle;
}
.inputPortLabel {
  text-anchor: end;
}
.splitjoinBody {
  fill:#000;
}</style><g s:type="generic" transform="translate(836,223)" s:width="30" s:height="40" id="cell_:10"><text x="15" y="-4" class="nodelabel cell_:10" s:attribute="ref">$mux-bus</text><rect width="30" height="60" s:generic="body" class="cell_:10"/><g transform="translate(0,10)" s:x="0" s:y="10" s:pid="in0" id="port_:10~A"><text x="-3" y="-4" class="inputPortLabel cell_:10">A</text></g><g transform="translate(0,30)" s:x="0" s:y="10" s:pid="in0" id="port_:10~B"><text x="-3" y="-4" class="inputPortLabel cell_:10">B</text></g><g transform="translate(0,50)" s:x="0" s:y="10" s:pid="in0" id="port_:10~S"><text x="-3" y="-4" class="inputPortLabel cell_:10">S</text></g><g transform="translate(30,10)" s:x="30" s:y="10" s:pid="out0" id="port_:10~Y"><text x="5" y="-4" style="fill:#000; stroke:none" class="cell_:10">Y</text></g></g><g s:type="generic" transform="translate(483.99999999999994,36)" s:width="30" s:height="40" id="cell_:11"><text x="15" y="-4" class="nodelabel cell_:11" s:attribute="ref">$dff-bus</text><rect width="30" height="40" s:generic="body" class="cell_:11"/><g transform="translate(0,10)" s:x="0" s:y="10" s:pid="in0" id="port_:11~CLK"><text x="-3" y="-4" class="inputPortLabel cell_:11">CLK</text></g><g transform="translate(0,30)" s:x="0" s:y="10" s:pid="in0" id="port_:11~D"><text x="-3" y="-4" class="inputPortLabel cell_:11">D</text></g><g transform="translate(30,10)" s:x="30" s:y="10" s:pid="out0" id="port_:11~Q"><text x="5" y="-4" style="fill:#000; stroke:none" class="cell_:11">Q</text></g></g><a xlink:href="../building_blocks-shift_register/shift_register.svg"><g s:type="sub_odd" transform="translate(210,124)" s:width="30" s:height="40" id="cell_inner"><text x="216" y="-4" class="nodelabel cell_inner" s:attribute="ref">shift_register</text><rect width="432" height="195.5" s:generic="body" fill="#e9e9e9" rx="4" class="cell_inner" pointer-events="all"/><g s:type="generic" transform="translate(127,117.5)" s:width="30" s:height="40" id="cell_:20"><text x="15" y="-4" class="nodelabel cell_:20" s:attribute="ref">$mux-bus</text><rect width="30" height="60" s:generic="body" class="cell_:20"/><g transform="translate(0,10)" s:x="0" s:y="10" s:pid="in0" id="port_:20~A"><text x="-3" y="-4" class="inputPortLabel cell_:20">A</text></g><g transform="translate(0,30)" s:x="0" s:y="10" s:pid="in0" id="port_:20~B"><text x="-3" y="-4" class="inputPortLabel cell_:20">B</text></g><g transform="translate(0,50)" s:x="0" s:y="10" s:pid="in0" id="port_:20~S"><text x="-3" y="-4" class="inputPortLabel cell_:20">S</text></g><g transform="translate(30,10)" s:x="30" s:y="10" s:pid="out0" id="port_:20~Y"><text x="5" y="-4" style="fill:#000; stroke:none" class="cell_:20">Y</text></g></g><g s:type="generic" transform="translate(258,86)" s:width="30" s:height="40" id="cell_:24"><text x="15" y="-4" class="nodelabel cell_:24" s:attribute="ref">$dff-bus</text><rect width="30" height="40" s:generic="body" class="cell_:24"/><g transform="translate(0,10)" s:x="0" s:y="10" s:pid="in0" id="port_:24~CLK"><text x="-3" y="-4" class="inputPortLabel cell_:24">CLK</text></g><g transform="translate(0,30)" s:x="0" s:y="10" s:pid="in0" id="port_:24~D"><text x="-3" y="-4" class="inputPortLabel cell_:24">D</text></g><g transform="translate(30,10)" s:x="30" s:y="10" s:pid="out0" id="port_:24~Q"><text x="5" y="-4" style="fill:#000; stroke:none" class="cell_:24">Q</text></g></g><g s:type="join" transform="translate(39,14)" s:width="4" s:height="40" id="cell_$join$,20,21,22,23,24,25,26,27,28,29,30,31,32,33,34,35,"><rect width="5" height="40" class="splitjoinBody" s:generic="body"/><s:alias val="$_join_"/><g s:x="5" s:y="20" s:pid="out"/><g transform="translate(0,10)" s:x="0" s:y="10" s:pid="in0"><text x="-3" y="-4" class="inputPortLabel">0</text></g><g transform="translate(0,30)" s:x="0" s:y="10" s:pid="in0"><text x="-3" y="-4" class="inputPortLabel">1:15</text></g></g><g s:type="split" transform="translate(370,76)" s:width="5" s:height="40" id="cell_$split$,21,22,23,24,25,26,27,28,29,30,31,32,33,34,35,36,"><rect width="5" height="40" class="splitjoinBody" s:generic="body"/><s:alias val="$_split_"/><g s:x="0" s:y="20" s:pid="in"/><g transform="translate(4,10)" s:x="4" s:y="10" s:pid="out0"><text x="5" y="-4">0:14</text></g><g transform="translate(4,30)" s:x="4" s:y="10" s:pid="out0"><text x="5" y="-4">15</text></g></g><line x1="45" x2="94" y1="34.5" y2="34.5" class="net_20,21,22,23,24,25,26,27,28,29,30,31,32,33,34,35"/><line x1="94" x2="94" y1="34.5" y2="128" class="net_20,21,22,23,24,25,26,27,28,29,30,31,32,33,34,35"/><line x1="94" x2="127" y1="128" y2="128" class="net_20,21,22,23,24,25,26,27,28,29,30,31,32,33,34,35"/><line x1="0" x2="126" y1="148" y2="148" class="net_4,5,6,7,8,9,10,11,12,13,14,15,16,17,18,19"/><line x1="0" x2="94" y1="171" y2="171" class="net_3"/><line x1="94" x2="94" y1="171" y2="168" class="net_3"/><line x1="94" x2="126" y1="168" y2="168" class="net_3"/><line x1="0" x2="258" y1="96.5" y2="96.5" class="net_2"/><line x1="158" x2="214" y1="128" y2="128" class="net_37,38,39,40,41,42,43,44,45,46,47,48,49,50,51,52"/><line x1="214" x2="214" y1="128" y2="116.5" class="net_37,38,39,40,41,42,43,44,45,46,47,48,49,50,51,52"/><line x1="214" x2="257" y1="116.5" y2="116.5" class="net_37,38,39,40,41,42,43,44,45,46,47,48,49,50,51,52"/><line x1="289" x2="306" y1="96.5" y2="96.5" class="net_21,22,23,24,25,26,27,28,29,30,31,32,33,34,35,36"/><line x1="306" x2="306" y1="96.5" y2="129.5" class="net_21,22,23,24,25,26,27,28,29,30,31,32,33,34,35,36"/><circle cx="306" cy="96.5" r="2" style="fill:#000" class="net_21,22,23,24,25,26,27,28,29,30,31,32,33,34,35,36"/><line x1="306" x2="432" y1="129.5" y2="129.5" class="net_21,22,23,24,25,26,27,28,29,30,31,32,33,34,35,36"/><line x1="289" x2="370" y1="96.5" y2="96.5" class="net_21,22,23,24,25,26,27,28,29,30,31,32,33,34,35,36"/><line x1="375" x2="432" y1="106.5" y2="106.5" class="net_36"/><line x1="0" x2="39" y1="24.5" y2="24.5" class="net_20"/><line x1="375" x2="410" y1="86.5" y2="86.5" class="net_21,22,23,24,25,26,27,28,29,30,31,32,33,34,35"/><line x1="410" x2="410" y1="86.5" y2="64" class="net_21,22,23,24,25,26,27,28,29,30,31,32,33,34,35"/><line x1="410" x2="22" y1="64" y2="64" class="net_21,22,23,24,25,26,27,28,29,30,31,32,33,34,35"/><line x1="22" x2="22" y1="64" y2="44.5" class="net_21,22,23,24,25,26,27,28,29,30,31,32,33,34,35"/><line x1="22" x2="39" y1="44.5" y2="44.5" class="net_21,22,23,24,25,26,27,28,29,30,31,32,33,34,35"/><g transform="translate(-1,96)" s:x="0" s:y="10" s:pid="in0" id="port_inner~clk"><text x="-3" y="-4" class="inputPortLabel cell_inner">clk</text></g><g transform="translate(-1,170.5)" s:x="0" s:y="10" s:pid="in0" id="port_inner~load"><text x="-3" y="-4" class="inputPortLabel cell_inner">load</text></g><g transform="translate(-1,147.5)" s:x="0" s:y="10" s:pid="in0" id="port_inner~load_data"><text x="-3" y="-4" class="inputPortLabel cell_inner">load_data</text></g><g transform="translate(-1,24)" s:x="0" s:y="10" s:pid="in0" id="port_inner~serial_in"><text x="-3" y="-4" class="inputPortLabel cell_inner">serial_in</text></g><g transform="translate(432,129)" s:x="30" s:y="10" s:pid="out0" id="port_inner~parallel_out"><text x="5" y="-4" style="fill:#000; stroke:none" class="cell_inner">parallel_out</text></g><g transform="translate(432,106)" s:x="30" s:y="10" s:pid="out0" id="port_inner~serial_out"><text x="5" y="-4" style="fill:#000; stroke:none" class="cell_inner">serial_out</text></g></g></a><g s:type="inputExt" transform="translate(77,36.5)" s:width="30" s:height="20" id="cell_inClock"><text x="15" y="-4" class="nodelabel cell_inClock" s:attribute="ref">inClock</text><s:alias val="$_inputExt_"/><path d="M0,0 L0,20 L15,20 L30,10 L15,0 Z" class="cell_inClock"/><g s:x="28" s:y="10" s:pid="Y"/></g><g s:type="inputExt" transform="translate(77,138.5)" s:width="30" s:height="20" id="cell_inData"><text x="15" y="-4" class="nodelabel cell_inData" s:attribute="ref">inData</text><s:alias val="$_inputExt_"/><path d="M0,0 L0,20 L15,20 L30,10 L15,0 Z" class="cell_inData"/><g s:x="28" s:y="10" s:pid="Y"/></g><g s:type="inputExt" transform="translate(751,304.5)" s:width="30" s:height="20" id="cell_inPrint"><text x="15" y="-4" class="nodelabel cell_inPrint" s:attribute="ref">inPrint</text><s:alias val="$_inputExt_"/><path d="M0,0 L0,20 L15,20 L30,10 L15,0 Z" class="cell_inPrint"/><g s:x="28" s:y="10" s:pid="Y"/></g><g s:type="outputExt" transform="translate(832,36.5)" s:width="30" s:height="20" id="cell_outData"><text x="15" y="-4" class="nodelabel cell_outData" s:attribute="ref">outData</text><s:alias val="$_outputExt_"/><path d="M30,0 L30,20 L15,20 L0,10 L15,0 Z" class="cell_outData"/><g s:x="0" s:y="10" s:pid="A"/></g><g s:type="constant" transform="translate(77,323)" s:width="30" s:height="20" id="cell_0"><text x="15" y="-4" class="nodelabel cell_0" s:attribute="ref">0</text><s:alias val="$_constant_"/><rect width="30" height="20" class="cell_0"/><g s:x="30" s:y="10" s:pid="Y"/></g><g s:type="constant" transform="translate(12,262)" s:width="30" s:height="20" id="cell_0000000000000000"><text x="15" y="-4" class="nodelabel cell_0000000000000000" s:attribute="ref">0x0</text><s:alias val="$_constant_"/><rect width="30" height="20" class="cell_0000000000000000"/><g s:x="30" s:y="10" s:pid="Y"/></g><line x1="515" x2="726" y1="46.5" y2="46.5" class="net_5,6,7,8,9,10,11,12,13,14,15,16,17,18,19,20 width_16" style="stroke-width: 2"/><line x1="726" x2="726" y1="46.5" y2="66.5" class="net_5,6,7,8,9,10,11,12,13,14,15,16,17,18,19,20 width_16" style="stroke-width: 2"/><line x1="726" x2="803" y1="66.5" y2="66.5" class="net_5,6,7,8,9,10,11,12,13,14,15,16,17,18,19,20 width_16" style="stroke-width: 2"/><line x1="803" x2="803" y1="66.5" y2="233.5" class="net_5,6,7,8,9,10,11,12,13,14,15,16,17,18,19,20 width_16" style="stroke-width: 2"/><circle cx="726" cy="46.5" r="3" style="fill:#000" class="net_5,6,7,8,9,10,11,12,13,14,15,16,17,18,19,20 width_16"/><line x1="803" x2="836" y1="233.5" y2="233.5" class="net_5,6,7,8,9,10,11,12,13,14,15,16,17,18,19,20 width_16" style="stroke-width: 2"/><line x1="515" x2="832" y1="46.5" y2="46.5" class="net_5,6,7,8,9,10,11,12,13,14,15,16,17,18,19,20 width_16" style="stroke-width: 2"/><line x1="643" x2="835" y1="253.5" y2="253.5" class="net_21,22,23,24,25,26,27,28,29,30,31,32,33,34,35,36 width_16" style="stroke-width: 2"/><line x1="779" x2="803" y1="314.5" y2="314.5" class="net_4 width_1" style="stroke-width: 1"/><line x1="803" x2="803" y1="314.5" y2="273.5" class="net_4 width_1" style="stroke-width: 1"/><line x1="803" x2="835" y1="273.5" y2="273.5" class="net_4 width_1" style="stroke-width: 1"/><line x1="105" x2="483.99999999999994" y1="46.5" y2="46.5" class="net_2 width_1" style="stroke-width: 1"/><line x1="105" x2="129" y1="46.5" y2="46.5" class="net_2 width_1" style="stroke-width: 1"/><line x1="129" x2="129" y1="46.5" y2="220.5" class="net_2 width_1" style="stroke-width: 1"/><circle cx="129" cy="46.5" r="2" style="fill:#000" class="net_2 width_1"/><line x1="129" x2="209" y1="220.5" y2="220.5" class="net_2 width_1" style="stroke-width: 1"/><line x1="867" x2="884" y1="233.5" y2="233.5" class="net_37,38,39,40,41,42,43,44,45,46,47,48,49,50,51,52 width_16" style="stroke-width: 2"/><line x1="884" x2="884" y1="233.5" y2="16" class="net_37,38,39,40,41,42,43,44,45,46,47,48,49,50,51,52 width_16" style="stroke-width: 2"/><line x1="884" x2="139" y1="16" y2="16" class="net_37,38,39,40,41,42,43,44,45,46,47,48,49,50,51,52 width_16" style="stroke-width: 2"/><line x1="139" x2="139" y1="16" y2="66.5" class="net_37,38,39,40,41,42,43,44,45,46,47,48,49,50,51,52 width_16" style="stroke-width: 2"/><line x1="139" x2="482.99999999999994" y1="66.5" y2="66.5" class="net_37,38,39,40,41,42,43,44,45,46,47,48,49,50,51,52 width_16" style="stroke-width: 2"/><line x1="107" x2="129" y1="333" y2="333" class="net_54 width_1" style="stroke-width: 1"/><line x1="129" x2="129" y1="333" y2="295" class="net_54 width_1" style="stroke-width: 1"/><line x1="129" x2="209" y1="295" y2="295" class="net_54 width_1" style="stroke-width: 1"/><line x1="42" x2="209" y1="272" y2="272" class="net_55,56,57,58,59,60,61,62,63,64,65,66,67,68,69,70 width_16" style="stroke-width: 2"/><line x1="105" x2="209" y1="148.5" y2="148.5" class="net_3 width_1" style="stroke-width: 1"/><rect x="771" y="41.5" width="22" height="9" class="net_5,6,7,8,9,10,11,12,13,14,15,16,17,18,19,20 width_16 busLabel_16" style="fill: white; stroke: none"/><text x="770" y="49.5" class="net_5,6,7,8,9,10,11,12,13,14,15,16,17,18,19,20 width_16 busLabel_16">/16/</text><rect x="771" y="41.5" width="22" height="9" class="net_5,6,7,8,9,10,11,12,13,14,15,16,17,18,19,20 width_16 busLabel_16" style="fill: white; stroke: none"/><text x="770" y="49.5" class="net_5,6,7,8,9,10,11,12,13,14,15,16,17,18,19,20 width_16 busLabel_16">/16/</text><rect x="771" y="248.5" width="22" height="9" class="net_21,22,23,24,25,26,27,28,29,30,31,32,33,34,35,36 width_16 busLabel_16" style="fill: white; stroke: none"/><text x="770" y="256.5" class="net_21,22,23,24,25,26,27,28,29,30,31,32,33,34,35,36 width_16 busLabel_16">/16/</text><rect x="771" y="11" width="22" height="9" class="net_37,38,39,40,41,42,43,44,45,46,47,48,49,50,51,52 width_16 busLabel_16" style="fill: white; stroke: none"/><text x="770" y="19" class="net_37,38,39,40,41,42,43,44,45,46,47,48,49,50,51,52 width_16 busLabel_16">/16/</text><rect x="97" y="267" width="22" height="9" class="net_55,56,57,58,59,60,61,62,63,64,65,66,67,68,69,70 width_16 busLabel_16" style="fill: white; stroke: none"/><text x="96" y="275" class="net_55,56,57,58,59,60,61,62,63,64,65,66,67,68,69,70 width_16 busLabel_16">/16/</text></svg>