<svg xmlns="http://www.w3.org/2000/svg" xmlns:xlink="http://www.w3.org/1999/xlink" xmlns:s="https://github.com/nturley/netlistsvg" width="1239" height="287.5"><style>svg {
  stroke:#000;
  fill:none;
}
text {
  fill:#000;
  stroke:none;
  font-size:10px;
  font-weight: bold;
  font-family: "Courier New", monospace;
}
.nodelabel {
  text-anchor: middle;
}
.inputPortLabel {
  text-anchor: end;
}
.splitjoinBody {
  fill:#000;
}</style><g s:type="generic" transform="translate(1045,192.5)" s:width="30" s:height="40" id="cell_$procdff$12"><text x="15" y="-4" class="nodelabel cell_$procdff$12" s:attribute="ref">$dff-bus</text><rect width="30" height="40" s:generic="body" class="cell_$procdff$12"/><g transform="translate(0,10)" s:x="0" s:y="10" s:pid="in0" id="port_$procdff$12~CLK"><text x="-3" y="-4" class="inputPortLabel cell_$procdff$12">CLK</text></g><g transform="translate(0,30)" s:x="0" s:y="10" s:pid="in0" id="port_$procdff$12~D"><text x="-3" y="-4" class="inputPortLabel cell_$procdff$12">D</text></g><g transform="translate(30,10)" s:x="30" s:y="10" s:pid="out0" id="port_$procdff$12~Q"><text x="5" y="-4" style="fill:#000; stroke:none" class="cell_$procdff$12">Q</text></g></g><g s:type="generic" transform="translate(892,212.5)" s:width="30" s:height="40" id="cell_$procmux$7"><text x="15" y="-4" class="nodelabel cell_$procmux$7" s:attribute="ref">$mux-bus</text><rect width="30" height="60" s:generic="body" class="cell_$procmux$7"/><g transform="translate(0,10)" s:x="0" s:y="10" s:pid="in0" id="port_$procmux$7~A"><text x="-3" y="-4" class="inputPortLabel cell_$procmux$7">A</text></g><g transform="translate(0,30)" s:x="0" s:y="10" s:pid="in0" id="port_$procmux$7~B"><text x="-3" y="-4" class="inputPortLabel cell_$procmux$7">B</text></g><g transform="translate(0,50)" s:x="0" s:y="10" s:pid="in0" id="port_$procmux$7~S"><text x="-3" y="-4" class="inputPortLabel cell_$procmux$7">S</text></g><g transform="translate(30,10)" s:x="30" s:y="10" s:pid="out0" id="port_$procmux$7~Y"><text x="5" y="-4" style="fill:#000; stroke:none" class="cell_$procmux$7">Y</text></g></g><a xlink:href="../building_blocks-shift_register/shift_register_v.svg"><g s:type="sub_odd" transform="translate(210,72.5)" s:width="30" s:height="40" id="cell_inner"><text x="244" y="-4" class="nodelabel cell_inner" s:attribute="ref">shift_register</text><rect width="488" height="195.5" s:generic="body" fill="#e9e9e9" rx="4" class="cell_inner" pointer-events="all"/><g s:type="generic" transform="translate(286,86)" s:width="30" s:height="40" id="cell_$procdff$13"><text x="15" y="-4" class="nodelabel cell_$procdff$13" s:attribute="ref">$dff-bus</text><rect width="30" height="40" s:generic="body" class="cell_$procdff$13"/><g transform="translate(0,10)" s:x="0" s:y="10" s:pid="in0" id="port_$procdff$13~CLK"><text x="-3" y="-4" class="inputPortLabel cell_$procdff$13">CLK</text></g><g transform="translate(0,30)" s:x="0" s:y="10" s:pid="in0" id="port_$procdff$13~D"><text x="-3" y="-4" class="inputPortLabel cell_$procdff$13">D</text></g><g transform="translate(30,10)" s:x="30" s:y="10" s:pid="out0" id="port_$procdff$13~Q"><text x="5" y="-4" style="fill:#000; stroke:none" class="cell_$procdff$13">Q</text></g></g><g s:type="generic" transform="translate(127,117.5)" s:width="30" s:height="40" id="cell_$procmux$10"><text x="15" y="-4" class="nodelabel cell_$procmux$10" s:attribute="ref">$mux-bus</text><rect width="30" height="60" s:generic="body" class="cell_$procmux$10"/><g transform="translate(0,10)" s:x="0" s:y="10" s:pid="in0" id="port_$procmux$10~A"><text x="-3" y="-4" class="inputPortLabel cell_$procmux$10">A</text></g><g transform="translate(0,30)" s:x="0" s:y="10" s:pid="in0" id="port_$procmux$10~B"><text x="-3" y="-4" class="inputPortLabel cell_$procmux$10">B</text></g><g transform="translate(0,50)" s:x="0" s:y="10" s:pid="in0" id="port_$procmux$10~S"><text x="-3" y="-4" class="inputPortLabel cell_$procmux$10">S</text></g><g transform="translate(30,10)" s:x="30" s:y="10" s:pid="out0" id="port_$procmux$10~Y"><text x="5" y="-4" style="fill:#000; stroke:none" class="cell_$procmux$10">Y</text></g></g><g s:type="join" transform="translate(39,14)" s:width="4" s:height="40" id="cell_$join$,20,21,22,23,24,25,26,27,28,29,30,31,32,33,34,35,"><rect width="5" height="40" class="splitjoinBody" s:generic="body"/><s:alias val="$_join_"/><g s:x="5" s:y="20" s:pid="out"/><g transform="translate(0,10)" s:x="0" s:y="10" s:pid="in0"><text x="-3" y="-4" class="inputPortLabel">0</text></g><g transform="translate(0,30)" s:x="0" s:y="10" s:pid="in0"><text x="-3" y="-4" class="inputPortLabel">1:15</text></g></g><g s:type="split" transform="translate(426,76)" s:width="5" s:height="40" id="cell_$split$,21,22,23,24,25,26,27,28,29,30,31,32,33,34,35,36,"><rect width="5" height="40" class="splitjoinBody" s:generic="body"/><s:alias val="$_split_"/><g s:x="0" s:y="20" s:pid="in"/><g transform="translate(4,10)" s:x="4" s:y="10" s:pid="out0"><text x="5" y="-4">0:14</text></g><g transform="translate(4,30)" s:x="4" s:y="10" s:pid="out0"><text x="5" y="-4">15</text></g></g><line x1="0" x2="286" y1="96.5" y2="96.5" class="net_2"/><line x1="158" x2="242" y1="128" y2="128" class="net_37,38,39,40,41,42,43,44,45,46,47,48,49,50,51,52"/><line x1="242" x2="242" y1="128" y2="116.5" class="net_37,38,39,40,41,42,43,44,45,46,47,48,49,50,51,52"/><line x1="242" x2="285" y1="116.5" y2="116.5" class="net_37,38,39,40,41,42,43,44,45,46,47,48,49,50,51,52"/><line x1="45" x2="94" y1="34.5" y2="34.5" class="net_20,21,22,23,24,25,26,27,28,29,30,31,32,33,34,35"/><line x1="94" x2="94" y1="34.5" y2="128" class="net_20,21,22,23,24,25,26,27,28,29,30,31,32,33,34,35"/><line x1="94" x2="127" y1="128" y2="128" class="net_20,21,22,23,24,25,26,27,28,29,30,31,32,33,34,35"/><line x1="0" x2="126" y1="148" y2="148" class="net_4,5,6,7,8,9,10,11,12,13,14,15,16,17,18,19"/><line x1="0" x2="94" y1="171" y2="171" class="net_3"/><line x1="94" x2="94" y1="171" y2="168" class="net_3"/><line x1="94" x2="126" y1="168" y2="168" class="net_3"/><line x1="317" x2="362" y1="96.5" y2="96.5" class="net_21,22,23,24,25,26,27,28,29,30,31,32,33,34,35,36"/><line x1="362" x2="362" y1="96.5" y2="129.5" class="net_21,22,23,24,25,26,27,28,29,30,31,32,33,34,35,36"/><circle cx="362" cy="96.5" r="2" style="fill:#000" class="net_21,22,23,24,25,26,27,28,29,30,31,32,33,34,35,36"/><line x1="362" x2="488" y1="129.5" y2="129.5" class="net_21,22,23,24,25,26,27,28,29,30,31,32,33,34,35,36"/><line x1="317" x2="426" y1="96.5" y2="96.5" class="net_21,22,23,24,25,26,27,28,29,30,31,32,33,34,35,36"/><line x1="431" x2="488" y1="106.5" y2="106.5" class="net_36"/><line x1="0" x2="39" y1="24.5" y2="24.5" class="net_20"/><line x1="431" x2="466" y1="86.5" y2="86.5" class="net_21,22,23,24,25,26,27,28,29,30,31,32,33,34,35"/><line x1="466" x2="466" y1="86.5" y2="64" class="net_21,22,23,24,25,26,27,28,29,30,31,32,33,34,35"/><line x1="466" x2="22" y1="64" y2="64" class="net_21,22,23,24,25,26,27,28,29,30,31,32,33,34,35"/><line x1="22" x2="22" y1="64" y2="44.5" class="net_21,22,23,24,25,26,27,28,29,30,31,32,33,34,35"/><line x1="22" x2="39" y1="44.5" y2="44.5" class="net_21,22,23,24,25,26,27,28,29,30,31,32,33,34,35"/><g transform="translate(-1,96)" s:x="0" s:y="10" s:pid="in0" id="port_inner~clk"><text x="-3" y="-4" class="inputPortLabel cell_inner">clk</text></g><g transform="translate(-1,170.5)" s:x="0" s:y="10" s:pid="in0" id="port_inner~load"><text x="-3" y="-4" class="inputPortLabel cell_inner">load</text></g><g transform="translate(-1,147.5)" s:x="0" s:y="10" s:pid="in0" id="port_inner~load_data"><text x="-3" y="-4" class="inputPortLabel cell_inner">load_data</text></g><g transform="translate(-1,24)" s:x="0" s:y="10" s:pid="in0" id="port_inner~serial_in"><text x="-3" y="-4" class="inputPortLabel cell_inner">serial_in</text></g><g transform="translate(488,129)" s:x="30" s:y="10" s:pid="out0" id="port_inner~parallel_out"><text x="5" y="-4" style="fill:#000; stroke:none" class="cell_inner">parallel_out</text></g><g transform="translate(488,106)" s:x="30" s:y="10" s:pid="out0" id="port_inner~serial_out"><text x="5" y="-4" style="fill:#000; stroke:none" class="cell_inner">serial_out</text></g></g></a><g s:type="inputExt" transform="translate(77,22)" s:width="30" s:height="20" id="cell_inClock"><text x="15" y="-4" class="nodelabel cell_inClock" s:attribute="ref">inClock</text><s:alias val="$_inputExt_"/><path d="M0,0 L0,20 L15,20 L30,10 L15,0 Z" class="cell_inClock"/><g s:x="28" s:y="10" s:pid="Y"/></g><g s:type="inputExt" transform="translate(77,87)" s:width="30" s:height="20" id="cell_inData"><text x="15" y="-4" class="nodelabel cell_inData" s:attribute="ref">inData</text><s:alias val="$_inputExt_"/><path d="M0,0 L0,20 L15,20 L30,10 L15,0 Z" class="cell_inData"/><g s:x="28" s:y="10" s:pid="Y"/></g><g s:type="inputExt" transform="translate(807,253)" s:width="30" s:height="20" id="cell_inPrint"><text x="15" y="-4" class="nodelabel cell_inPrint" s:attribute="ref">inPrint</text><s:alias val="$_inputExt_"/><path d="M0,0 L0,20 L15,20 L30,10 L15,0 Z" class="cell_inPrint"/><g s:x="28" s:y="10" s:pid="Y"/></g><g s:type="outputExt" transform="translate(1185,193)" s:width="30" s:height="20" id="cell_outData"><text x="15" y="-4" class="nodelabel cell_outData" s:attribute="ref">outData</text><s:alias val="$_outputExt_"/><path d="M30,0 L30,20 L15,20 L0,10 L15,0 Z" class="cell_outData"/><g s:x="0" s:y="10" s:pid="A"/></g><g s:type="constant" transform="translate(77,233.5)" s:width="30" s:height="20" id="cell_0"><text x="15" y="-4" class="nodelabel cell_0" s:attribute="ref">0</text><s:alias val="$_constant_"/><rect width="30" height="20" class="cell_0"/><g s:x="30" s:y="10" s:pid="Y"/></g><g s:type="constant" transform="translate(12,172.5)" s:width="30" s:height="20" id="cell_0000000000000000"><text x="15" y="-4" class="nodelabel cell_0000000000000000" s:attribute="ref">0x0</text><s:alias val="$_constant_"/><rect width="30" height="20" class="cell_0000000000000000"/><g s:x="30" s:y="10" s:pid="Y"/></g><line x1="105" x2="1001" y1="32" y2="32" class="net_2 width_1" style="stroke-width: 1"/><line x1="1001" x2="1001" y1="32" y2="203" class="net_2 width_1" style="stroke-width: 1"/><line x1="1001" x2="1045" y1="203" y2="203" class="net_2 width_1" style="stroke-width: 1"/><line x1="105" x2="129" y1="32" y2="32" class="net_2 width_1" style="stroke-width: 1"/><line x1="129" x2="129" y1="32" y2="169" class="net_2 width_1" style="stroke-width: 1"/><circle cx="129" cy="32" r="2" style="fill:#000" class="net_2 width_1"/><line x1="129" x2="209" y1="169" y2="169" class="net_2 width_1" style="stroke-width: 1"/><line x1="923" x2="1044" y1="223" y2="223" class="net_21,22,23,24,25,26,27,28,29,30,31,32,33,34,35,36 width_16" style="stroke-width: 2"/><line x1="1076" x2="1121" y1="203" y2="203" class="net_5,6,7,8,9,10,11,12,13,14,15,16,17,18,19,20 width_16" style="stroke-width: 2"/><line x1="1121" x2="1121" y1="203" y2="172.5" class="net_5,6,7,8,9,10,11,12,13,14,15,16,17,18,19,20 width_16" style="stroke-width: 2"/><line x1="1121" x2="869" y1="172.5" y2="172.5" class="net_5,6,7,8,9,10,11,12,13,14,15,16,17,18,19,20 width_16" style="stroke-width: 2"/><line x1="869" x2="869" y1="172.5" y2="223" class="net_5,6,7,8,9,10,11,12,13,14,15,16,17,18,19,20 width_16" style="stroke-width: 2"/><circle cx="1121" cy="203" r="3" style="fill:#000" class="net_5,6,7,8,9,10,11,12,13,14,15,16,17,18,19,20 width_16"/><line x1="869" x2="892" y1="223" y2="223" class="net_5,6,7,8,9,10,11,12,13,14,15,16,17,18,19,20 width_16" style="stroke-width: 2"/><line x1="1076" x2="1185" y1="203" y2="203" class="net_5,6,7,8,9,10,11,12,13,14,15,16,17,18,19,20 width_16" style="stroke-width: 2"/><line x1="699" x2="859" y1="202" y2="202" class="net_37,38,39,40,41,42,43,44,45,46,47,48,49,50,51,52 width_16" style="stroke-width: 2"/><line x1="859" x2="859" y1="202" y2="243" class="net_37,38,39,40,41,42,43,44,45,46,47,48,49,50,51,52 width_16" style="stroke-width: 2"/><line x1="859" x2="891" y1="243" y2="243" class="net_37,38,39,40,41,42,43,44,45,46,47,48,49,50,51,52 width_16" style="stroke-width: 2"/><line x1="835" x2="891" y1="263" y2="263" class="net_4 width_1" style="stroke-width: 1"/><line x1="107" x2="209" y1="243.5" y2="243.5" class="net_53 width_1" style="stroke-width: 1"/><line x1="42" x2="129" y1="182.5" y2="182.5" class="net_54,55,56,57,58,59,60,61,62,63,64,65,66,67,68,69 width_16" style="stroke-width: 2"/><line x1="129" x2="129" y1="182.5" y2="220.5" class="net_54,55,56,57,58,59,60,61,62,63,64,65,66,67,68,69 width_16" style="stroke-width: 2"/><line x1="129" x2="209" y1="220.5" y2="220.5" class="net_54,55,56,57,58,59,60,61,62,63,64,65,66,67,68,69 width_16" style="stroke-width: 2"/><line x1="105" x2="209" y1="97" y2="97" class="net_3 width_1" style="stroke-width: 1"/><rect x="988" y="218" width="22" height="9" class="net_21,22,23,24,25,26,27,28,29,30,31,32,33,34,35,36 width_16 busLabel_16" style="fill: white; stroke: none"/><text x="987" y="226" class="net_21,22,23,24,25,26,27,28,29,30,31,32,33,34,35,36 width_16 busLabel_16">/16/</text><rect x="1147" y="198" width="22" height="9" class="net_5,6,7,8,9,10,11,12,13,14,15,16,17,18,19,20 width_16 busLabel_16" style="fill: white; stroke: none"/><text x="1146" y="206" class="net_5,6,7,8,9,10,11,12,13,14,15,16,17,18,19,20 width_16 busLabel_16">/16/</text><rect x="1147" y="198" width="22" height="9" class="net_5,6,7,8,9,10,11,12,13,14,15,16,17,18,19,20 width_16 busLabel_16" style="fill: white; stroke: none"/><text x="1146" y="206" class="net_5,6,7,8,9,10,11,12,13,14,15,16,17,18,19,20 width_16 busLabel_16">/16/</text><rect x="827" y="197" width="22" height="9" class="net_37,38,39,40,41,42,43,44,45,46,47,48,49,50,51,52 width_16 busLabel_16" style="fill: white; stroke: none"/><text x="826" y="205" class="net_37,38,39,40,41,42,43,44,45,46,47,48,49,50,51,52 width_16 busLabel_16">/16/</text><rect x="97" y="177.5" width="22" height="9" class="net_54,55,56,57,58,59,60,61,62,63,64,65,66,67,68,69 width_16 busLabel_16" style="fill: white; stroke: none"/><text x="96" y="185.5" class="net_54,55,56,57,58,59,60,61,62,63,64,65,66,67,68,69 width_16 busLabel_16">/16/</text></svg>