<svg xmlns="http://www.w3.org/2000/svg" xmlns:xlink="http://www.w3.org/1999/xlink" xmlns:s="https://github.com/nturley/netlistsvg" width="489" height="200.5"><style>svg {
  stroke:#000;
  fill:none;
}
text {
  fill:#000;
  stroke:none;
  font-size:10px;
  font-weight: bold;
  font-family: "Courier New", monospace;
}
line {
    stroke-linecap: round;
}
.nodelabel {
  text-anchor: middle;
}
.inputPortLabel {
  text-anchor: end;
}
.splitjoinBody {
  fill:#000;
}</style><g s:type="lt" transform="translate(316,84.5)" s:width="25" s:height="25" id="cell_:10"><s:alias val="$lt"/><circle r="12.5" cx="12.5" cy="12.5" fill="#ffffff" class="cell_:10"/><line x1="6" x2="17" y1="12" y2="7" fill="#ffffff" class="cell_:10"/><line x1="6" x2="17" y1="12" y2="17" fill="#ffffff" class="cell_:10"/><g s:x="2" s:y="5" s:pid="A"/><g s:x="2" s:y="20" s:pid="B"/><g s:x="25" s:y="12.5" s:pid="Y"/></g><g s:type="mux" transform="translate(380,22)" s:width="20" s:height="40" id="cell_:11"><s:alias val="$pmux"/><s:alias val="$mux"/><s:alias val="$_MUX_"/><path d="M0,0 L20,10 L20,30 L0,40 Z" fill="#ffffff" class="cell_:11"/><text x="5" y="32" class="nodelabel cell_:11" s:attribute="">1</text><text x="5" y="13" class="nodelabel cell_:11" s:attribute="">0</text><g s:x="0" s:y="10" s:pid="A"/><g s:x="0" s:y="30" s:pid="B"/><g s:x="10" s:y="35" s:pid="S"/><g s:x="20" s:y="20" s:pid="Y"/></g><g s:type="dff-bus" transform="translate(205,79.5)" s:width="34" s:height="44" id="cell_:13"><s:alias val="$dff-bus"/><s:alias val="$_DFF_-bus"/><s:alias val="$_DFF_P_-bus"/><s:alias val="adff-bus"/><s:alias val="$adff-bus"/><s:alias val="$_DFF_-bus"/><s:alias val="$_DFF_P_-bus"/><s:alias val="sdff-bus"/><s:alias val="$sdff-bus"/><s:alias val="$_DFF_-bus"/><s:alias val="$_DFF_P_-bus"/><rect width="30" height="40" x="0" y="0" fill="#ffffff" class="cell_:13"/><path d="M0,35 L5,30 L0,25" fill="#ffffff" class="cell_:13"/><path d="M30,2 L32,2 L32,42 L2,42 L2,40" fill="#ffffff" class="cell_:13"/><path d="M32,4 L34,4 L34,44 L4,44 L4,42" fill="#ffffff" class="cell_:13"/><g s:x="35" s:y="10" s:pid="Q"/><g s:x="-1" s:y="30" s:pid="CLK"/><g s:x="-1" s:y="30" s:pid="C"/><g s:x="-1" s:y="10" s:pid="D"/><g s:x="17" s:y="44" s:pid="ARST"/><g s:x="17" s:y="44" s:pid="SRST"/></g><g s:type="add" transform="translate(78,77)" s:width="25" s:height="25" id="cell_:6"><s:alias val="$add"/><circle r="12.5" cx="12.5" cy="12.5" fill="#ffffff" class="cell_:6"/><line x1="7.5" x2="17.5" y1="12.5" y2="12.5" fill="#ffffff" class="cell_:6"/><line x1="12.5" x2="12.5" y1="7.5" y2="17.5" fill="#ffffff" class="cell_:6"/><g s:x="2" s:y="5" s:pid="A"/><g s:x="2" s:y="20" s:pid="B"/><g s:x="26" s:y="12.5" s:pid="Y"/></g><g s:type="inputExt" transform="translate(139,140.5)" s:width="30" s:height="20" id="cell_clk"><text x="15" y="-4" class="nodelabel cell_clk" s:attribute="ref">clk</text><s:alias val="$_inputExt_"/><path d="M0,0 L0,20 L15,20 L30,10 L15,0 Z" fill="#ffffff" class="cell_clk"/><g s:x="30" s:y="10" s:pid="Y"/></g><g s:type="inputExt" transform="translate(209,168.5)" s:width="30" s:height="20" id="cell_duty"><text x="15" y="-4" class="nodelabel cell_duty" s:attribute="ref">duty</text><s:alias val="$_inputExt_"/><path d="M0,0 L0,20 L15,20 L30,10 L15,0 Z" fill="#ffffff" class="cell_duty"/><g s:x="30" s:y="10" s:pid="Y"/></g><g s:type="outputExt" transform="translate(435,32)" s:width="30" s:height="20" id="cell_pwm_out"><text x="15" y="-4" class="nodelabel cell_pwm_out" s:attribute="ref">pwm_out</text><s:alias val="$_outputExt_"/><path d="M30,0 L30,20 L15,20 L0,10 L15,0 Z" fill="#ffffff" class="cell_pwm_out"/><g s:x="0" s:y="10" s:pid="A"/></g><g s:type="constant" transform="translate(314,22)" s:width="30" s:height="20" id="cell_0"><text x="15" y="-4" class="nodelabel cell_0" s:attribute="ref">0</text><s:alias val="$_constant_"/><rect width="30" height="20" fill="#ffffff" class="cell_0"/><g s:x="31" s:y="10" s:pid="Y"/></g><g s:type="constant" transform="translate(12,42)" s:width="30" s:height="20" id="cell_1"><text x="15" y="-4" class="nodelabel cell_1" s:attribute="ref">1</text><s:alias val="$_constant_"/><rect width="30" height="20" fill="#ffffff" class="cell_1"/><g s:x="31" s:y="10" s:pid="Y"/></g><line x1="240" x2="318" y1="89.5" y2="89.5" class="net_12,13,14,15,16,17,18,19 width_8" style="stroke-width: 2"/><line x1="240" x2="250" y1="89.5" y2="89.5" class="net_12,13,14,15,16,17,18,19 width_8" style="stroke-width: 2"/><line x1="250" x2="250" y1="89.5" y2="67" class="net_12,13,14,15,16,17,18,19 width_8" style="stroke-width: 2"/><line x1="250" x2="63" y1="67" y2="67" class="net_12,13,14,15,16,17,18,19 width_8" style="stroke-width: 2"/><line x1="63" x2="63" y1="67" y2="82" class="net_12,13,14,15,16,17,18,19 width_8" style="stroke-width: 2"/><circle cx="250" cy="89.5" r="3" style="fill:#000" class="net_12,13,14,15,16,17,18,19 width_8"/><line x1="63" x2="80" y1="82" y2="82" class="net_12,13,14,15,16,17,18,19 width_8" style="stroke-width: 2"/><line x1="239" x2="289" y1="178.5" y2="178.5" class="net_3,4,5,6,7,8,9,10 width_8" style="stroke-width: 2"/><line x1="289" x2="289" y1="178.5" y2="104.5" class="net_3,4,5,6,7,8,9,10 width_8" style="stroke-width: 2"/><line x1="289" x2="318" y1="104.5" y2="104.5" class="net_3,4,5,6,7,8,9,10 width_8" style="stroke-width: 2"/><line x1="345" x2="380" y1="32" y2="32" class="net_29 width_1" style="stroke-width: 1"/><line x1="43" x2="380" y1="52" y2="52" class="net_30 width_1" style="stroke-width: 1"/><line x1="43" x2="53" y1="52" y2="52" class="net_30 width_1" style="stroke-width: 1"/><line x1="53" x2="53" y1="52" y2="97" class="net_30 width_1" style="stroke-width: 1"/><circle cx="53" cy="52" r="2" style="fill:#000" class="net_30 width_1"/><line x1="53" x2="80" y1="97" y2="97" class="net_30 width_1" style="stroke-width: 1"/><line x1="341" x2="390" y1="97" y2="97" class="net_20 width_1" style="stroke-width: 1"/><line x1="390" x2="390" y1="97" y2="57" class="net_20 width_1" style="stroke-width: 1"/><line x1="169" x2="179" y1="150.5" y2="150.5" class="net_2 width_1" style="stroke-width: 1"/><line x1="179" x2="179" y1="150.5" y2="109.5" class="net_2 width_1" style="stroke-width: 1"/><line x1="179" x2="204" y1="109.5" y2="109.5" class="net_2 width_1" style="stroke-width: 1"/><line x1="104" x2="204" y1="89.5" y2="89.5" class="net_21,22,23,24,25,26,27,28 width_8" style="stroke-width: 2"/><line x1="400" x2="435" y1="42" y2="42" class="net_11 width_1" style="stroke-width: 1"/><rect x="153" y="62" width="16" height="9" class="net_12,13,14,15,16,17,18,19 width_8 busLabel_8" style="fill: white; stroke: none"/><text x="152" y="70" class="net_12,13,14,15,16,17,18,19 width_8 busLabel_8">/8/</text><rect x="153" y="62" width="16" height="9" class="net_12,13,14,15,16,17,18,19 width_8 busLabel_8" style="fill: white; stroke: none"/><text x="152" y="70" class="net_12,13,14,15,16,17,18,19 width_8 busLabel_8">/8/</text><rect x="276" y="173.5" width="16" height="9" class="net_3,4,5,6,7,8,9,10 width_8 busLabel_8" style="fill: white; stroke: none"/><text x="275" y="181.5" class="net_3,4,5,6,7,8,9,10 width_8 busLabel_8">/8/</text><rect x="153" y="84.5" width="16" height="9" class="net_21,22,23,24,25,26,27,28 width_8 busLabel_8" style="fill: white; stroke: none"/><text x="152" y="92.5" class="net_21,22,23,24,25,26,27,28 width_8 busLabel_8">/8/</text></svg>