<svg xmlns="http://www.w3.org/2000/svg" xmlns:xlink="http://www.w3.org/1999/xlink" xmlns:s="https://github.com/nturley/netlistsvg" width="359" height="161.5"><style>svg {
  stroke:#000;
  fill:none;
}
text {
  fill:#000;
  stroke:none;
  font-size:10px;
  font-weight: bold;
  font-family: "Courier New", monospace;
}
.nodelabel {
  text-anchor: middle;
}
.inputPortLabel {
  text-anchor: end;
}
.splitjoinBody {
  fill:#000;
}</style><g s:type="add" transform="translate(295,36)" s:width="25" s:height="25" id="cell_$add$pwm_led.v:17$2"><s:alias val="$add"/><circle r="12.5" cx="12.5" cy="12.5" class="cell_$add$pwm_led.v:17$2"/><line x1="7.5" x2="17.5" y1="12.5" y2="12.5" class="cell_$add$pwm_led.v:17$2"/><line x1="12.5" x2="12.5" y1="7.5" y2="17.5" class="cell_$add$pwm_led.v:17$2"/><g s:x="3" s:y="5" s:pid="A"/><g s:x="3" s:y="20" s:pid="B"/><g s:x="25" s:y="12.5" s:pid="Y"/></g><g s:type="lt" transform="translate(231.66666666666666,103.5)" s:width="25" s:height="25" id="cell_$lt$pwm_led.v:20$3"><s:alias val="$lt"/><circle r="12.5" cx="12.5" cy="12.5" class="cell_$lt$pwm_led.v:20$3"/><line x1="7.5" x2="17.5" y1="12.5" y2="7.5" class="cell_$lt$pwm_led.v:20$3"/><line x1="7.5" x2="17.5" y1="12.5" y2="17.5" class="cell_$lt$pwm_led.v:20$3"/><g s:x="3" s:y="5" s:pid="A"/><g s:x="3" s:y="20" s:pid="B"/><g s:x="25" s:y="12.5" s:pid="Y"/></g><g s:type="generic" transform="translate(96,25.5)" s:width="30" s:height="40" id="cell_$procdff$5"><text x="15" y="-4" class="nodelabel cell_$procdff$5" s:attribute="ref">$dff-bus</text><rect width="30" height="40" s:generic="body" class="cell_$procdff$5"/><g transform="translate(0,10)" s:x="0" s:y="10" s:pid="in0" id="port_$procdff$5~CLK"><text x="-3" y="-4" class="inputPortLabel cell_$procdff$5">CLK</text></g><g transform="translate(0,30)" s:x="0" s:y="10" s:pid="in0" id="port_$procdff$5~D"><text x="-3" y="-4" class="inputPortLabel cell_$procdff$5">D</text></g><g transform="translate(30,10)" s:x="30" s:y="10" s:pid="out0" id="port_$procdff$5~Q"><text x="5" y="-4" style="fill:#000; stroke:none" class="cell_$procdff$5">Q</text></g></g><g s:type="inputExt" transform="translate(12,26)" s:width="30" s:height="20" id="cell_clk"><text x="15" y="-4" class="nodelabel cell_clk" s:attribute="ref">clk</text><s:alias val="$_inputExt_"/><path d="M0,0 L0,20 L15,20 L30,10 L15,0 Z" class="cell_clk"/><g s:x="28" s:y="10" s:pid="Y"/></g><g s:type="inputExt" transform="translate(96,113.5)" s:width="30" s:height="20" id="cell_duty"><text x="15" y="-4" class="nodelabel cell_duty" s:attribute="ref">duty</text><s:alias val="$_inputExt_"/><path d="M0,0 L0,20 L15,20 L30,10 L15,0 Z" class="cell_duty"/><g s:x="28" s:y="10" s:pid="Y"/></g><g s:type="outputExt" transform="translate(295,106)" s:width="30" s:height="20" id="cell_pwm_out"><text x="15" y="-4" class="nodelabel cell_pwm_out" s:attribute="ref">pwm_out</text><s:alias val="$_outputExt_"/><path d="M30,0 L30,20 L15,20 L0,10 L15,0 Z" class="cell_pwm_out"/><g s:x="0" s:y="10" s:pid="A"/></g><g s:type="constant" transform="translate(230,46)" s:width="30" s:height="20" id="cell_1"><text x="15" y="-4" class="nodelabel cell_1" s:attribute="ref">1</text><s:alias val="$_constant_"/><rect width="30" height="20" class="cell_1"/><g s:x="30" s:y="10" s:pid="Y"/></g><line x1="127" x2="166" y1="36" y2="36" class="net_12,13,14,15,16,17,18,19 width_8" style="stroke-width: 2"/><line x1="166" x2="166" y1="36" y2="16" class="net_12,13,14,15,16,17,18,19 width_8" style="stroke-width: 2"/><line x1="166" x2="270" y1="16" y2="16" class="net_12,13,14,15,16,17,18,19 width_8" style="stroke-width: 2"/><line x1="270" x2="270" y1="16" y2="41" class="net_12,13,14,15,16,17,18,19 width_8" style="stroke-width: 2"/><circle cx="166" cy="36" r="3" style="fill:#000" class="net_12,13,14,15,16,17,18,19 width_8"/><line x1="270" x2="298" y1="41" y2="41" class="net_12,13,14,15,16,17,18,19 width_8" style="stroke-width: 2"/><line x1="127" x2="205" y1="36" y2="36" class="net_12,13,14,15,16,17,18,19 width_8" style="stroke-width: 2"/><line x1="205" x2="205" y1="36" y2="108.5" class="net_12,13,14,15,16,17,18,19 width_8" style="stroke-width: 2"/><line x1="205" x2="234.66666666666666" y1="108.5" y2="108.5" class="net_12,13,14,15,16,17,18,19 width_8" style="stroke-width: 2"/><line x1="260" x2="298" y1="56" y2="56" class="net_28 width_1" style="stroke-width: 1"/><line x1="124" x2="234.66666666666666" y1="123.5" y2="123.5" class="net_3,4,5,6,7,8,9,10 width_8" style="stroke-width: 2"/><line x1="40" x2="96" y1="36" y2="36" class="net_2 width_1" style="stroke-width: 1"/><line x1="320" x2="347" y1="48.5" y2="48.5" class="net_20,21,22,23,24,25,26,27 width_8" style="stroke-width: 2"/><line x1="347" x2="347" y1="48.5" y2="143.5" class="net_20,21,22,23,24,25,26,27 width_8" style="stroke-width: 2"/><line x1="347" x2="52" y1="143.5" y2="143.5" class="net_20,21,22,23,24,25,26,27 width_8" style="stroke-width: 2"/><line x1="52" x2="52" y1="143.5" y2="56" class="net_20,21,22,23,24,25,26,27 width_8" style="stroke-width: 2"/><line x1="52" x2="95" y1="56" y2="56" class="net_20,21,22,23,24,25,26,27 width_8" style="stroke-width: 2"/><line x1="256.66666666666663" x2="295" y1="116" y2="116" class="net_11 width_1" style="stroke-width: 1"/><rect x="192" y="31" width="16" height="9" class="net_12,13,14,15,16,17,18,19 width_8 busLabel_8" style="fill: white; stroke: none"/><text x="191" y="39" class="net_12,13,14,15,16,17,18,19 width_8 busLabel_8">/8/</text><rect x="192" y="31" width="16" height="9" class="net_12,13,14,15,16,17,18,19 width_8 busLabel_8" style="fill: white; stroke: none"/><text x="191" y="39" class="net_12,13,14,15,16,17,18,19 width_8 busLabel_8">/8/</text><rect x="192" y="118.5" width="16" height="9" class="net_3,4,5,6,7,8,9,10 width_8 busLabel_8" style="fill: white; stroke: none"/><text x="191" y="126.5" class="net_3,4,5,6,7,8,9,10 width_8 busLabel_8">/8/</text><rect x="192" y="138.5" width="16" height="9" class="net_20,21,22,23,24,25,26,27 width_8 busLabel_8" style="fill: white; stroke: none"/><text x="191" y="146.5" class="net_20,21,22,23,24,25,26,27 width_8 busLabel_8">/8/</text></svg>