<svg xmlns="http://www.w3.org/2000/svg" xmlns:xlink="http://www.w3.org/1999/xlink" xmlns:s="https://github.com/nturley/netlistsvg" width="507" height="237.5"><style>svg {
  stroke:#000;
  fill:none;
}
text {
  fill:#000;
  stroke:none;
  font-size:10px;
  font-weight: bold;
  font-family: "Courier New", monospace;
}
.nodelabel {
  text-anchor: middle;
}
.inputPortLabel {
  text-anchor: end;
}
.splitjoinBody {
  fill:#000;
}</style><g s:type="lt" transform="translate(334.6666666666667,123)" s:width="25" s:height="25" id="cell_:10"><s:alias val="$lt"/><circle r="12.5" cx="12.5" cy="12.5" class="cell_:10"/><line x1="7.5" x2="17.5" y1="12.5" y2="7.5" class="cell_:10"/><line x1="7.5" x2="17.5" y1="12.5" y2="17.5" class="cell_:10"/><g s:x="3" s:y="5" s:pid="A"/><g s:x="3" s:y="20" s:pid="B"/><g s:x="25" s:y="12.5" s:pid="Y"/></g><g s:type="mux" transform="translate(398,22)" s:width="20" s:height="40" id="cell_:11"><s:alias val="$pmux"/><s:alias val="$mux"/><s:alias val="$_MUX_"/><path d="M0,0 L20,10 L20,30 L0,40 Z" class="cell_:11"/><g s:x="0" s:y="10" s:pid="A"/><g s:x="0" s:y="30" s:pid="B"/><g s:x="10" s:y="35" s:pid="S"/><g s:x="20" s:y="20" s:pid="Y"/></g><g s:type="generic" transform="translate(221,117.5)" s:width="30" s:height="40" id="cell_:13"><text x="15" y="-4" class="nodelabel cell_:13" s:attribute="ref">$dff-bus</text><rect width="30" height="40" s:generic="body" class="cell_:13"/><g transform="translate(0,10)" s:x="0" s:y="10" s:pid="in0" id="port_:13~CLK"><text x="-3" y="-4" class="inputPortLabel cell_:13">CLK</text></g><g transform="translate(0,30)" s:x="0" s:y="10" s:pid="in0" id="port_:13~D"><text x="-3" y="-4" class="inputPortLabel cell_:13">D</text></g><g transform="translate(30,10)" s:x="30" s:y="10" s:pid="out0" id="port_:13~Q"><text x="5" y="-4" style="fill:#000; stroke:none" class="cell_:13">Q</text></g></g><g s:type="add" transform="translate(77,164.5)" s:width="25" s:height="25" id="cell_:6"><s:alias val="$add"/><circle r="12.5" cx="12.5" cy="12.5" class="cell_:6"/><line x1="7.5" x2="17.5" y1="12.5" y2="12.5" class="cell_:6"/><line x1="12.5" x2="12.5" y1="7.5" y2="17.5" class="cell_:6"/><g s:x="3" s:y="5" s:pid="A"/><g s:x="3" s:y="20" s:pid="B"/><g s:x="25" s:y="12.5" s:pid="Y"/></g><g s:type="inputExt" transform="translate(137,118)" s:width="30" s:height="20" id="cell_clk"><text x="15" y="-4" class="nodelabel cell_clk" s:attribute="ref">clk</text><s:alias val="$_inputExt_"/><path d="M0,0 L0,20 L15,20 L30,10 L15,0 Z" class="cell_clk"/><g s:x="28" s:y="10" s:pid="Y"/></g><g s:type="inputExt" transform="translate(221,205.5)" s:width="30" s:height="20" id="cell_duty"><text x="15" y="-4" class="nodelabel cell_duty" s:attribute="ref">duty</text><s:alias val="$_inputExt_"/><path d="M0,0 L0,20 L15,20 L30,10 L15,0 Z" class="cell_duty"/><g s:x="28" s:y="10" s:pid="Y"/></g><g s:type="outputExt" transform="translate(453,32)" s:width="30" s:height="20" id="cell_pwm_out"><text x="15" y="-4" class="nodelabel cell_pwm_out" s:attribute="ref">pwm_out</text><s:alias val="$_outputExt_"/><path d="M30,0 L30,20 L15,20 L0,10 L15,0 Z" class="cell_pwm_out"/><g s:x="0" s:y="10" s:pid="A"/></g><g s:type="constant" transform="translate(333,22)" s:width="30" s:height="20" id="cell_0"><text x="15" y="-4" class="nodelabel cell_0" s:attribute="ref">0</text><s:alias val="$_constant_"/><rect width="30" height="20" class="cell_0"/><g s:x="30" s:y="10" s:pid="Y"/></g><g s:type="constant" transform="translate(12,42)" s:width="30" s:height="20" id="cell_1"><text x="15" y="-4" class="nodelabel cell_1" s:attribute="ref">1</text><s:alias val="$_constant_"/><rect width="30" height="20" class="cell_1"/><g s:x="30" s:y="10" s:pid="Y"/></g><line x1="252" x2="337.6666666666667" y1="128" y2="128" class="net_12,13,14,15,16,17,18,19 width_8" style="stroke-width: 2"/><line x1="252" x2="269" y1="128" y2="128" class="net_12,13,14,15,16,17,18,19 width_8" style="stroke-width: 2"/><line x1="269" x2="269" y1="128" y2="67" class="net_12,13,14,15,16,17,18,19 width_8" style="stroke-width: 2"/><line x1="269" x2="62" y1="67" y2="67" class="net_12,13,14,15,16,17,18,19 width_8" style="stroke-width: 2"/><line x1="62" x2="62" y1="67" y2="169.5" class="net_12,13,14,15,16,17,18,19 width_8" style="stroke-width: 2"/><circle cx="269" cy="128" r="3" style="fill:#000" class="net_12,13,14,15,16,17,18,19 width_8"/><line x1="62" x2="80" y1="169.5" y2="169.5" class="net_12,13,14,15,16,17,18,19 width_8" style="stroke-width: 2"/><line x1="249" x2="308" y1="215.5" y2="215.5" class="net_3,4,5,6,7,8,9,10 width_8" style="stroke-width: 2"/><line x1="308" x2="308" y1="215.5" y2="143" class="net_3,4,5,6,7,8,9,10 width_8" style="stroke-width: 2"/><line x1="308" x2="337.6666666666667" y1="143" y2="143" class="net_3,4,5,6,7,8,9,10 width_8" style="stroke-width: 2"/><line x1="363" x2="398" y1="32" y2="32" class="net_29 width_1" style="stroke-width: 1"/><line x1="42" x2="398" y1="52" y2="52" class="net_30 width_1" style="stroke-width: 1"/><line x1="42" x2="52" y1="52" y2="52" class="net_30 width_1" style="stroke-width: 1"/><line x1="52" x2="52" y1="52" y2="184.5" class="net_30 width_1" style="stroke-width: 1"/><circle cx="52" cy="52" r="2" style="fill:#000" class="net_30 width_1"/><line x1="52" x2="80" y1="184.5" y2="184.5" class="net_30 width_1" style="stroke-width: 1"/><line x1="359.6666666666667" x2="408" y1="135.5" y2="135.5" class="net_20 width_1" style="stroke-width: 1"/><line x1="408" x2="408" y1="135.5" y2="57" class="net_20 width_1" style="stroke-width: 1"/><line x1="165" x2="221" y1="128" y2="128" class="net_2 width_1" style="stroke-width: 1"/><line x1="102" x2="177" y1="177" y2="177" class="net_21,22,23,24,25,26,27,28 width_8" style="stroke-width: 2"/><line x1="177" x2="177" y1="177" y2="148" class="net_21,22,23,24,25,26,27,28 width_8" style="stroke-width: 2"/><line x1="177" x2="220" y1="148" y2="148" class="net_21,22,23,24,25,26,27,28 width_8" style="stroke-width: 2"/><line x1="418" x2="453" y1="42" y2="42" class="net_11 width_1" style="stroke-width: 1"/><rect x="151" y="62" width="16" height="9" class="net_12,13,14,15,16,17,18,19 width_8 busLabel_8" style="fill: white; stroke: none"/><text x="150" y="70" class="net_12,13,14,15,16,17,18,19 width_8 busLabel_8">/8/</text><rect x="151" y="62" width="16" height="9" class="net_12,13,14,15,16,17,18,19 width_8 busLabel_8" style="fill: white; stroke: none"/><text x="150" y="70" class="net_12,13,14,15,16,17,18,19 width_8 busLabel_8">/8/</text><rect x="295" y="210.5" width="16" height="9" class="net_3,4,5,6,7,8,9,10 width_8 busLabel_8" style="fill: white; stroke: none"/><text x="294" y="218.5" class="net_3,4,5,6,7,8,9,10 width_8 busLabel_8">/8/</text><rect x="151" y="172" width="16" height="9" class="net_21,22,23,24,25,26,27,28 width_8 busLabel_8" style="fill: white; stroke: none"/><text x="150" y="180" class="net_21,22,23,24,25,26,27,28 width_8 busLabel_8">/8/</text></svg>