<svg xmlns="http://www.w3.org/2000/svg" xmlns:xlink="http://www.w3.org/1999/xlink" xmlns:s="https://github.com/nturley/netlistsvg" width="496" height="1012">
  <style>svg {
    stroke:#000;
    fill:none;
  }
  text {
    fill:#000;
    stroke:none;
    font-size:10px;
    font-weight: bold;
    font-family: "Courier New", monospace;
  }
  .nodelabel {
    text-anchor: middle;
  }
  .inputPortLabel {
    text-anchor: end;
  }
  .splitjoinBody {
    fill:#000;
  }</style>
  <g s:type="dff" transform="translate(389,108)" s:width="30" s:height="40" id="cell_$procdff$3093">
    <s:alias val="$dff"/>
    <s:alias val="$_DFF_"/>
    <s:alias val="$_DFF_P_"/>
    <rect width="30" height="40" x="0" y="0" class="cell_$procdff$3093"/>
    <path d="M0,35 L5,30 L0,25" class="cell_$procdff$3093"/>
    <g s:x="30" s:y="10" s:pid="Q"/>
    <g s:x="0" s:y="30" s:pid="CLK"/>
    <g s:x="0" s:y="30" s:pid="C"/>
    <g s:x="0" s:y="10" s:pid="D"/>
  </g>
  <g s:type="mux" transform="translate(157.33333333333331,790.5)" s:width="20" s:height="40" id="cell_$procmux$3085">
    <s:alias val="$pmux"/>
    <s:alias val="$mux"/>
    <s:alias val="$_MUX_"/>
    <path d="M0,0 L20,10 L20,30 L0,40 Z" class="cell_$procmux$3085"/>
    <g s:x="0" s:y="10" s:pid="A"/>
    <g s:x="0" s:y="30" s:pid="B"/>
    <g s:x="10" s:y="35" s:pid="S"/>
    <g s:x="20" s:y="20" s:pid="Y"/>
  </g>
  <g s:type="mux" transform="translate(224,98)" s:width="20" s:height="40" id="cell_$procmux$3088">
    <s:alias val="$pmux"/>
    <s:alias val="$mux"/>
    <s:alias val="$_MUX_"/>
    <path d="M0,0 L20,10 L20,30 L0,40 Z" class="cell_$procmux$3088"/>
    <g s:x="0" s:y="10" s:pid="A"/>
    <g s:x="0" s:y="30" s:pid="B"/>
    <g s:x="10" s:y="35" s:pid="S"/>
    <g s:x="20" s:y="20" s:pid="Y"/>
  </g>
  <g s:type="mux" transform="translate(224,158)" s:width="20" s:height="40" id="cell_$procmux$3091">
    <s:alias val="$pmux"/>
    <s:alias val="$mux"/>
    <s:alias val="$_MUX_"/>
    <path d="M0,0 L20,10 L20,30 L0,40 Z" class="cell_$procmux$3091"/>
    <g s:x="0" s:y="10" s:pid="A"/>
    <g s:x="0" s:y="30" s:pid="B"/>
    <g s:x="10" s:y="35" s:pid="S"/>
    <g s:x="20" s:y="20" s:pid="Y"/>
  </g>
  <g s:type="mem_v2" transform="translate(289,103)" s:width="60" s:height="80" id="cell_mem">
    <s:alias val="$mem_v2"/>
    <s:alias val="$mem"/>
    <rect width="60" height="80" x="0" y="0" class="cell_mem"/>
    <text x="30" y="44" class="nodelabel" style="font-size:14px">RAM</text>
    <g s:x="0" s:y="15" s:pid="WR_DATA"/>
    <g s:x="0" s:y="30" s:pid="WR_ADDR"/>
    <g s:x="0" s:y="45" s:pid="WR_EN"/>
    <g s:x="0" s:y="60" s:pid="WR_CLK"/>
    <g s:x="60" s:y="15" s:pid="RD_DATA"/>
    <g s:x="60" s:y="30" s:pid="RD_ADDR"/>
    <g s:x="60" s:y="45" s:pid="RD_EN"/>
    <g s:x="60" s:y="60" s:pid="RD_CLK"/>
    <g s:x="60" s:y="70" s:pid="RD_ARST"/>
    <g s:x="60" s:y="80" s:pid="RD_SRST"/>
  </g>
  <g s:type="inputExt" transform="translate(219,960)" s:width="30" s:height="20" id="cell_clk">
    <text x="15" y="-4" class="nodelabel cell_clk" s:attribute="ref">clk</text>
    <s:alias val="$_inputExt_"/>
    <path d="M0,0 L0,20 L15,20 L30,10 L15,0 Z" class="cell_clk"/>
    <g s:x="28" s:y="10" s:pid="Y"/>
  </g>
  <g s:type="inputExt" transform="translate(84,830.5)" s:width="30" s:height="20" id="cell_we">
    <text x="15" y="-4" class="nodelabel cell_we" s:attribute="ref">we</text>
    <s:alias val="$_inputExt_"/>
    <path d="M0,0 L0,20 L15,20 L30,10 L15,0 Z" class="cell_we"/>
    <g s:x="28" s:y="10" s:pid="Y"/>
  </g>
  <g s:type="inputExt" transform="translate(154,53)" s:width="30" s:height="20" id="cell_addr">
    <text x="15" y="-4" class="nodelabel cell_addr" s:attribute="ref">addr</text>
    <s:alias val="$_inputExt_"/>
    <path d="M0,0 L0,20 L15,20 L30,10 L15,0 Z" class="cell_addr"/>
    <g s:x="28" s:y="10" s:pid="Y"/>
  </g>
  <g s:type="inputExt" transform="translate(154,118)" s:width="30" s:height="20" id="cell_wdata">
    <text x="15" y="-4" class="nodelabel cell_wdata" s:attribute="ref">wdata</text>
    <s:alias val="$_inputExt_"/>
    <path d="M0,0 L0,20 L15,20 L30,10 L15,0 Z" class="cell_wdata"/>
    <g s:x="28" s:y="10" s:pid="Y"/>
  </g>
  <g s:type="outputExt" transform="translate(454,108)" s:width="30" s:height="20" id="cell_rdata">
    <text x="15" y="-4" class="nodelabel cell_rdata" s:attribute="ref">rdata</text>
    <s:alias val="$_outputExt_"/>
    <path d="M30,0 L30,20 L15,20 L0,10 L15,0 Z" class="cell_rdata"/>
    <g s:x="0" s:y="10" s:pid="A"/>
  </g>
  <g s:type="constant" transform="translate(84,980)" s:width="30" s:height="20" id="cell_0">
    <text x="15" y="-4" class="nodelabel cell_0" s:attribute="ref">0</text>
    <s:alias val="$_constant_"/>
    <rect width="30" height="20" class="cell_0"/>
    <g s:x="30" s:y="10" s:pid="Y"/>
  </g>
  <g s:type="constant" transform="translate(84,22)" s:width="30" s:height="20" id="cell_1">
    <text x="15" y="-4" class="nodelabel cell_1" s:attribute="ref">1</text>
    <s:alias val="$_constant_"/>
    <rect width="30" height="20" class="cell_1"/>
    <g s:x="30" s:y="10" s:pid="Y"/>
  </g>
  <g s:type="join" transform="translate(66,12)" s:width="4" s:height="40" id="cell_$join$,x,x,x,x,x,x,x,x,x,x,x,x,x,x,x,x,x,x,x,x,x,x,x,x,x,x,x,x,x,x,x,x,">
    <rect width="5" height="40" class="splitjoinBody" s:generic="body"/>
    <s:alias val="$_join_"/>
    <g s:x="5" s:y="20" s:pid="out"/>
    <g transform="translate(0,10)" s:x="0" s:y="10" s:pid="in0">
      <text x="-3" y="-4" class="inputPortLabel">0:9</text>
    </g>
  </g>
  <g s:type="join" transform="translate(220.04,260)" s:width="4" s:height="40" id="cell_$join$,110,110,110,110,110,110,110,110,110,110,110,110,110,110,110,110,110,110,110,110,110,110,110,110,110,110,110,110,110,110,110,110,">
    <rect width="5" height="640" class="splitjoinBody" s:generic="body"/>
    <s:alias val="$_join_"/>
    <g s:x="5" s:y="20" s:pid="out"/>
    <g transform="translate(0,10)" s:x="0" s:y="10" s:pid="in0">
      <text x="-3" y="-4" class="inputPortLabel">0</text>
    </g>
    <g transform="translate(0,30)" s:x="0" s:y="10" s:pid="in0">
      <text x="-3" y="-4" class="inputPortLabel">1</text>
    </g>
    <g transform="translate(0,50)" s:x="0" s:y="10" s:pid="in0">
      <text x="-3" y="-4" class="inputPortLabel">2</text>
    </g>
    <g transform="translate(0,70)" s:x="0" s:y="10" s:pid="in0">
      <text x="-3" y="-4" class="inputPortLabel">3</text>
    </g>
    <g transform="translate(0,90)" s:x="0" s:y="10" s:pid="in0">
      <text x="-3" y="-4" class="inputPortLabel">4</text>
    </g>
    <g transform="translate(0,110)" s:x="0" s:y="10" s:pid="in0">
      <text x="-3" y="-4" class="inputPortLabel">5</text>
    </g>
    <g transform="translate(0,130)" s:x="0" s:y="10" s:pid="in0">
      <text x="-3" y="-4" class="inputPortLabel">6</text>
    </g>
    <g transform="translate(0,150)" s:x="0" s:y="10" s:pid="in0">
      <text x="-3" y="-4" class="inputPortLabel">7</text>
    </g>
    <g transform="translate(0,170)" s:x="0" s:y="10" s:pid="in0">
      <text x="-3" y="-4" class="inputPortLabel">8</text>
    </g>
    <g transform="translate(0,190)" s:x="0" s:y="10" s:pid="in0">
      <text x="-3" y="-4" class="inputPortLabel">9</text>
    </g>
    <g transform="translate(0,210)" s:x="0" s:y="10" s:pid="in0">
      <text x="-3" y="-4" class="inputPortLabel">10</text>
    </g>
    <g transform="translate(0,230)" s:x="0" s:y="10" s:pid="in0">
      <text x="-3" y="-4" class="inputPortLabel">11</text>
    </g>
    <g transform="translate(0,250)" s:x="0" s:y="10" s:pid="in0">
      <text x="-3" y="-4" class="inputPortLabel">12</text>
    </g>
    <g transform="translate(0,270)" s:x="0" s:y="10" s:pid="in0">
      <text x="-3" y="-4" class="inputPortLabel">13</text>
    </g>
    <g transform="translate(0,290)" s:x="0" s:y="10" s:pid="in0">
      <text x="-3" y="-4" class="inputPortLabel">14</text>
    </g>
    <g transform="translate(0,310)" s:x="0" s:y="10" s:pid="in0">
      <text x="-3" y="-4" class="inputPortLabel">15</text>
    </g>
    <g transform="translate(0,330)" s:x="0" s:y="10" s:pid="in0">
      <text x="-3" y="-4" class="inputPortLabel">16</text>
    </g>
    <g transform="translate(0,350)" s:x="0" s:y="10" s:pid="in0">
      <text x="-3" y="-4" class="inputPortLabel">17</text>
    </g>
    <g transform="translate(0,370)" s:x="0" s:y="10" s:pid="in0">
      <text x="-3" y="-4" class="inputPortLabel">18</text>
    </g>
    <g transform="translate(0,390)" s:x="0" s:y="10" s:pid="in0">
      <text x="-3" y="-4" class="inputPortLabel">19</text>
    </g>
    <g transform="translate(0,410)" s:x="0" s:y="10" s:pid="in0">
      <text x="-3" y="-4" class="inputPortLabel">20</text>
    </g>
    <g transform="translate(0,430)" s:x="0" s:y="10" s:pid="in0">
      <text x="-3" y="-4" class="inputPortLabel">21</text>
    </g>
    <g transform="translate(0,450)" s:x="0" s:y="10" s:pid="in0">
      <text x="-3" y="-4" class="inputPortLabel">22</text>
    </g>
    <g transform="translate(0,470)" s:x="0" s:y="10" s:pid="in0">
      <text x="-3" y="-4" class="inputPortLabel">23</text>
    </g>
    <g transform="translate(0,490)" s:x="0" s:y="10" s:pid="in0">
      <text x="-3" y="-4" class="inputPortLabel">24</text>
    </g>
    <g transform="translate(0,510)" s:x="0" s:y="10" s:pid="in0">
      <text x="-3" y="-4" class="inputPortLabel">25</text>
    </g>
    <g transform="translate(0,530)" s:x="0" s:y="10" s:pid="in0">
      <text x="-3" y="-4" class="inputPortLabel">26</text>
    </g>
    <g transform="translate(0,550)" s:x="0" s:y="10" s:pid="in0">
      <text x="-3" y="-4" class="inputPortLabel">27</text>
    </g>
    <g transform="translate(0,570)" s:x="0" s:y="10" s:pid="in0">
      <text x="-3" y="-4" class="inputPortLabel">28</text>
    </g>
    <g transform="translate(0,590)" s:x="0" s:y="10" s:pid="in0">
      <text x="-3" y="-4" class="inputPortLabel">29</text>
    </g>
    <g transform="translate(0,610)" s:x="0" s:y="10" s:pid="in0">
      <text x="-3" y="-4" class="inputPortLabel">30</text>
    </g>
    <g transform="translate(0,630)" s:x="0" s:y="10" s:pid="in0">
      <text x="-3" y="-4" class="inputPortLabel">31</text>
    </g>
  </g>
  <g s:type="split" transform="translate(57,87)" s:width="5" s:height="40" id="cell_$split$,x,x,x,x,x,x,x,x,x,x,">
    <rect width="5" height="20" class="splitjoinBody" s:generic="body"/>
    <s:alias val="$_split_"/>
    <g s:x="0" s:y="20" s:pid="in"/>
    <g transform="translate(4,10)" s:x="4" s:y="10" s:pid="out0">
      <text x="5" y="-4">0</text>
    </g>
  </g>
  <line x1="247" x2="379" y1="970" y2="970" class="net_2"/>
  <line x1="379" x2="379" y1="970" y2="138" class="net_2"/>
  <line x1="379" x2="389" y1="138" y2="138" class="net_2"/>
  <line x1="247" x2="279" y1="970" y2="970" class="net_2"/>
  <line x1="279" x2="279" y1="970" y2="163" class="net_2"/>
  <circle cx="279" cy="970" r="2" style="fill:#000" class="net_2"/>
  <line x1="279" x2="289" y1="163" y2="163" class="net_2"/>
  <line x1="349" x2="389" y1="118" y2="118" class="net_78,79,80,81,82,83,84,85,86,87,88,89,90,91,92,93,94,95,96,97,98,99,100,101,102,103,104,105,106,107,108,109"/>
  <line x1="114" x2="124" y1="990" y2="990" class="net_153"/>
  <line x1="124" x2="124" y1="990" y2="800.5" class="net_153"/>
  <circle cx="124" cy="990" r="2" style="fill:#000" class="net_153"/>
  <line x1="124" x2="157.33333333333331" y1="800.5" y2="800.5" class="net_153"/>
  <line x1="114" x2="359" y1="990" y2="990" class="net_153"/>
  <line x1="359" x2="359" y1="990" y2="173" class="net_153"/>
  <line x1="359" x2="349" y1="173" y2="173" class="net_153"/>
  <line x1="114" x2="359" y1="990" y2="990" class="net_153"/>
  <line x1="359" x2="359" y1="990" y2="183" class="net_153"/>
  <circle cx="359" cy="183" r="2" style="fill:#000" class="net_153"/>
  <line x1="359" x2="349" y1="183" y2="183" class="net_153"/>
  <line x1="114" x2="144" y1="32" y2="32" class="net_154"/>
  <line x1="144" x2="144" y1="32" y2="820.5" class="net_154"/>
  <circle cx="144" cy="32" r="2" style="fill:#000" class="net_154"/>
  <line x1="144" x2="157.33333333333331" y1="820.5" y2="820.5" class="net_154"/>
  <line x1="114" x2="369" y1="32" y2="32" class="net_154"/>
  <line x1="369" x2="369" y1="32" y2="148" class="net_154"/>
  <line x1="369" x2="349" y1="148" y2="148" class="net_154"/>
  <line x1="112" x2="167.33333333333331" y1="840.5" y2="840.5" class="net_3"/>
  <line x1="167.33333333333331" x2="167.33333333333331" y1="840.5" y2="825.5" class="net_3"/>
  <line x1="112" x2="134" y1="840.5" y2="840.5" class="net_3"/>
  <line x1="134" x2="134" y1="840.5" y2="148" class="net_3"/>
  <line x1="134" x2="234" y1="148" y2="148" class="net_3"/>
  <circle cx="134" cy="840.5" r="2" style="fill:#000" class="net_3"/>
  <line x1="234" x2="234" y1="148" y2="133" class="net_3"/>
  <line x1="112" x2="134" y1="840.5" y2="840.5" class="net_3"/>
  <line x1="134" x2="134" y1="840.5" y2="850.5" class="net_3"/>
  <line x1="134" x2="194" y1="850.5" y2="850.5" class="net_3"/>
  <line x1="194" x2="194" y1="850.5" y2="208" class="net_3"/>
  <line x1="194" x2="234" y1="208" y2="208" class="net_3"/>
  <line x1="234" x2="234" y1="208" y2="193" class="net_3"/>
  <line x1="182" x2="224" y1="128" y2="128" class="net_14,15,16,17,18,19,20,21,22,23,24,25,26,27,28,29,30,31,32,33,34,35,36,37,38,39,40,41,42,43,44,45"/>
  <line x1="182" x2="194" y1="63" y2="63" class="net_4,5,6,7,8,9,10,11,12,13"/>
  <line x1="194" x2="194" y1="63" y2="188" class="net_4,5,6,7,8,9,10,11,12,13"/>
  <circle cx="194" cy="63" r="2" style="fill:#000" class="net_4,5,6,7,8,9,10,11,12,13"/>
  <line x1="194" x2="224" y1="188" y2="188" class="net_4,5,6,7,8,9,10,11,12,13"/>
  <line x1="182" x2="359" y1="63" y2="63" class="net_4,5,6,7,8,9,10,11,12,13"/>
  <line x1="359" x2="359" y1="63" y2="133" class="net_4,5,6,7,8,9,10,11,12,13"/>
  <line x1="359" x2="349" y1="133" y2="133" class="net_4,5,6,7,8,9,10,11,12,13"/>
  <line x1="244" x2="259" y1="178" y2="178" class="net_143,144,145,146,147,148,149,150,151,152"/>
  <line x1="259" x2="259" y1="178" y2="133" class="net_143,144,145,146,147,148,149,150,151,152"/>
  <line x1="259" x2="289" y1="133" y2="133" class="net_143,144,145,146,147,148,149,150,151,152"/>
  <line x1="244" x2="289" y1="118" y2="118" class="net_111,112,113,114,115,116,117,118,119,120,121,122,123,124,125,126,127,128,129,130,131,132,133,134,135,136,137,138,139,140,141,142"/>
  <line x1="226.04" x2="269" y1="280.5" y2="280.5" class="net_110,110,110,110,110,110,110,110,110,110,110,110,110,110,110,110,110,110,110,110,110,110,110,110,110,110,110,110,110,110,110,110"/>
  <line x1="269" x2="269" y1="280.5" y2="148" class="net_110,110,110,110,110,110,110,110,110,110,110,110,110,110,110,110,110,110,110,110,110,110,110,110,110,110,110,110,110,110,110,110"/>
  <line x1="269" x2="289" y1="148" y2="148" class="net_110,110,110,110,110,110,110,110,110,110,110,110,110,110,110,110,110,110,110,110,110,110,110,110,110,110,110,110,110,110,110,110"/>
  <line x1="419" x2="454" y1="118" y2="118" class="net_46,47,48,49,50,51,52,53,54,55,56,57,58,59,60,61,62,63,64,65,66,67,68,69,70,71,72,73,74,75,76,77"/>
  <line x1="22" x2="66" y1="22.5" y2="22.5" class="net_NaN,NaN,NaN,NaN,NaN,NaN,NaN,NaN,NaN,NaN"/>
  <line x1="22" x2="22" y1="22.5" y2="120" class="net_NaN,NaN,NaN,NaN,NaN,NaN,NaN,NaN,NaN,NaN"/>
  <line x1="22" x2="57.5" y1="120" y2="120" class="net_NaN,NaN,NaN,NaN,NaN,NaN,NaN,NaN,NaN,NaN"/>
  <line x1="57.5" x2="57.5" y1="120" y2="108" class="net_NaN,NaN,NaN,NaN,NaN,NaN,NaN,NaN,NaN,NaN"/>
  <line x1="177.33333333333331" x2="204" y1="810.5" y2="810.5" class="net_110"/>
  <line x1="204" x2="204" y1="810.5" y2="248" class="net_110"/>
  <line x1="204" x2="220.54" y1="248" y2="248" class="net_110"/>
  <circle cx="204" cy="810.5" r="2" style="fill:#000" class="net_110"/>
  <circle cx="204" cy="248" r="2" style="fill:#000" class="net_110"/>
  <line x1="220.54" x2="220.54" y1="248" y2="270" class="net_110"/>
  <line x1="177.33333333333331" x2="204" y1="810.5" y2="810.5" class="net_110"/>
  <line x1="204" x2="204" y1="810.5" y2="238" class="net_110"/>
  <line x1="204" x2="220.54" y1="238" y2="238" class="net_110"/>
  <circle cx="204" cy="238" r="2" style="fill:#000" class="net_110"/>
  <line x1="220.54" x2="220.54" y1="238" y2="290" class="net_110"/>
  <line x1="177.33333333333331" x2="204" y1="810.5" y2="810.5" class="net_110"/>
  <line x1="204" x2="204" y1="810.5" y2="228" class="net_110"/>
  <line x1="204" x2="220.54" y1="228" y2="228" class="net_110"/>
  <circle cx="204" cy="228" r="2" style="fill:#000" class="net_110"/>
  <line x1="220.54" x2="220.54" y1="228" y2="310" class="net_110"/>
  <line x1="177.33333333333331" x2="204" y1="810.5" y2="810.5" class="net_110"/>
  <line x1="204" x2="204" y1="810.5" y2="218" class="net_110"/>
  <line x1="204" x2="220.54" y1="218" y2="218" class="net_110"/>
  <line x1="220.54" x2="220.54" y1="218" y2="330" class="net_110"/>
  <line x1="177.33333333333331" x2="204" y1="810.5" y2="810.5" class="net_110"/>
  <line x1="204" x2="204" y1="810.5" y2="350.5" class="net_110"/>
  <circle cx="204" cy="350.5" r="2" style="fill:#000" class="net_110"/>
  <line x1="204" x2="220.04" y1="350.5" y2="350.5" class="net_110"/>
  <line x1="177.33333333333331" x2="204" y1="810.5" y2="810.5" class="net_110"/>
  <line x1="204" x2="204" y1="810.5" y2="370.5" class="net_110"/>
  <circle cx="204" cy="370.5" r="2" style="fill:#000" class="net_110"/>
  <line x1="204" x2="220.04" y1="370.5" y2="370.5" class="net_110"/>
  <line x1="177.33333333333331" x2="204" y1="810.5" y2="810.5" class="net_110"/>
  <line x1="204" x2="204" y1="810.5" y2="390.5" class="net_110"/>
  <circle cx="204" cy="390.5" r="2" style="fill:#000" class="net_110"/>
  <line x1="204" x2="220.04" y1="390.5" y2="390.5" class="net_110"/>
  <line x1="177.33333333333331" x2="204" y1="810.5" y2="810.5" class="net_110"/>
  <line x1="204" x2="204" y1="810.5" y2="410.5" class="net_110"/>
  <circle cx="204" cy="410.5" r="2" style="fill:#000" class="net_110"/>
  <line x1="204" x2="220.04" y1="410.5" y2="410.5" class="net_110"/>
  <line x1="177.33333333333331" x2="204" y1="810.5" y2="810.5" class="net_110"/>
  <line x1="204" x2="204" y1="810.5" y2="430.5" class="net_110"/>
  <circle cx="204" cy="430.5" r="2" style="fill:#000" class="net_110"/>
  <line x1="204" x2="220.04" y1="430.5" y2="430.5" class="net_110"/>
  <line x1="177.33333333333331" x2="204" y1="810.5" y2="810.5" class="net_110"/>
  <line x1="204" x2="204" y1="810.5" y2="450.5" class="net_110"/>
  <circle cx="204" cy="450.5" r="2" style="fill:#000" class="net_110"/>
  <line x1="204" x2="220.04" y1="450.5" y2="450.5" class="net_110"/>
  <line x1="177.33333333333331" x2="204" y1="810.5" y2="810.5" class="net_110"/>
  <line x1="204" x2="204" y1="810.5" y2="470.5" class="net_110"/>
  <circle cx="204" cy="470.5" r="2" style="fill:#000" class="net_110"/>
  <line x1="204" x2="220.04" y1="470.5" y2="470.5" class="net_110"/>
  <line x1="177.33333333333331" x2="204" y1="810.5" y2="810.5" class="net_110"/>
  <line x1="204" x2="204" y1="810.5" y2="490.5" class="net_110"/>
  <circle cx="204" cy="490.5" r="2" style="fill:#000" class="net_110"/>
  <line x1="204" x2="220.04" y1="490.5" y2="490.5" class="net_110"/>
  <line x1="177.33333333333331" x2="204" y1="810.5" y2="810.5" class="net_110"/>
  <line x1="204" x2="204" y1="810.5" y2="510.5" class="net_110"/>
  <circle cx="204" cy="510.5" r="2" style="fill:#000" class="net_110"/>
  <line x1="204" x2="220.04" y1="510.5" y2="510.5" class="net_110"/>
  <line x1="177.33333333333331" x2="204" y1="810.5" y2="810.5" class="net_110"/>
  <line x1="204" x2="204" y1="810.5" y2="530.5" class="net_110"/>
  <circle cx="204" cy="530.5" r="2" style="fill:#000" class="net_110"/>
  <line x1="204" x2="220.04" y1="530.5" y2="530.5" class="net_110"/>
  <line x1="177.33333333333331" x2="204" y1="810.5" y2="810.5" class="net_110"/>
  <line x1="204" x2="204" y1="810.5" y2="550.5" class="net_110"/>
  <circle cx="204" cy="550.5" r="2" style="fill:#000" class="net_110"/>
  <line x1="204" x2="220.04" y1="550.5" y2="550.5" class="net_110"/>
  <line x1="177.33333333333331" x2="204" y1="810.5" y2="810.5" class="net_110"/>
  <line x1="204" x2="204" y1="810.5" y2="570.5" class="net_110"/>
  <circle cx="204" cy="570.5" r="2" style="fill:#000" class="net_110"/>
  <line x1="204" x2="220.04" y1="570.5" y2="570.5" class="net_110"/>
  <line x1="177.33333333333331" x2="204" y1="810.5" y2="810.5" class="net_110"/>
  <line x1="204" x2="204" y1="810.5" y2="590.5" class="net_110"/>
  <circle cx="204" cy="590.5" r="2" style="fill:#000" class="net_110"/>
  <line x1="204" x2="220.04" y1="590.5" y2="590.5" class="net_110"/>
  <line x1="177.33333333333331" x2="204" y1="810.5" y2="810.5" class="net_110"/>
  <line x1="204" x2="204" y1="810.5" y2="610.5" class="net_110"/>
  <circle cx="204" cy="610.5" r="2" style="fill:#000" class="net_110"/>
  <line x1="204" x2="220.04" y1="610.5" y2="610.5" class="net_110"/>
  <line x1="177.33333333333331" x2="204" y1="810.5" y2="810.5" class="net_110"/>
  <line x1="204" x2="204" y1="810.5" y2="630.5" class="net_110"/>
  <circle cx="204" cy="630.5" r="2" style="fill:#000" class="net_110"/>
  <line x1="204" x2="220.04" y1="630.5" y2="630.5" class="net_110"/>
  <line x1="177.33333333333331" x2="204" y1="810.5" y2="810.5" class="net_110"/>
  <line x1="204" x2="204" y1="810.5" y2="650.5" class="net_110"/>
  <circle cx="204" cy="650.5" r="2" style="fill:#000" class="net_110"/>
  <line x1="204" x2="220.04" y1="650.5" y2="650.5" class="net_110"/>
  <line x1="177.33333333333331" x2="204" y1="810.5" y2="810.5" class="net_110"/>
  <line x1="204" x2="204" y1="810.5" y2="670.5" class="net_110"/>
  <circle cx="204" cy="670.5" r="2" style="fill:#000" class="net_110"/>
  <line x1="204" x2="220.04" y1="670.5" y2="670.5" class="net_110"/>
  <line x1="177.33333333333331" x2="204" y1="810.5" y2="810.5" class="net_110"/>
  <line x1="204" x2="204" y1="810.5" y2="690.5" class="net_110"/>
  <circle cx="204" cy="690.5" r="2" style="fill:#000" class="net_110"/>
  <line x1="204" x2="220.04" y1="690.5" y2="690.5" class="net_110"/>
  <line x1="177.33333333333331" x2="204" y1="810.5" y2="810.5" class="net_110"/>
  <line x1="204" x2="204" y1="810.5" y2="710.5" class="net_110"/>
  <circle cx="204" cy="710.5" r="2" style="fill:#000" class="net_110"/>
  <line x1="204" x2="220.04" y1="710.5" y2="710.5" class="net_110"/>
  <line x1="177.33333333333331" x2="204" y1="810.5" y2="810.5" class="net_110"/>
  <line x1="204" x2="204" y1="810.5" y2="730.5" class="net_110"/>
  <circle cx="204" cy="730.5" r="2" style="fill:#000" class="net_110"/>
  <line x1="204" x2="220.04" y1="730.5" y2="730.5" class="net_110"/>
  <line x1="177.33333333333331" x2="204" y1="810.5" y2="810.5" class="net_110"/>
  <line x1="204" x2="204" y1="810.5" y2="750.5" class="net_110"/>
  <circle cx="204" cy="750.5" r="2" style="fill:#000" class="net_110"/>
  <line x1="204" x2="220.04" y1="750.5" y2="750.5" class="net_110"/>
  <line x1="177.33333333333331" x2="204" y1="810.5" y2="810.5" class="net_110"/>
  <line x1="204" x2="204" y1="810.5" y2="770.5" class="net_110"/>
  <circle cx="204" cy="770.5" r="2" style="fill:#000" class="net_110"/>
  <line x1="204" x2="220.04" y1="770.5" y2="770.5" class="net_110"/>
  <line x1="177.33333333333331" x2="204" y1="810.5" y2="810.5" class="net_110"/>
  <line x1="204" x2="204" y1="810.5" y2="790.5" class="net_110"/>
  <circle cx="204" cy="790.5" r="2" style="fill:#000" class="net_110"/>
  <line x1="204" x2="220.04" y1="790.5" y2="790.5" class="net_110"/>
  <line x1="177.33333333333331" x2="220.04" y1="810.5" y2="810.5" class="net_110"/>
  <line x1="177.33333333333331" x2="204" y1="810.5" y2="810.5" class="net_110"/>
  <line x1="204" x2="204" y1="810.5" y2="940" class="net_110"/>
  <line x1="204" x2="220.54" y1="940" y2="940" class="net_110"/>
  <line x1="220.54" x2="220.54" y1="940" y2="831" class="net_110"/>
  <line x1="177.33333333333331" x2="204" y1="810.5" y2="810.5" class="net_110"/>
  <line x1="204" x2="204" y1="810.5" y2="930" class="net_110"/>
  <line x1="204" x2="220.54" y1="930" y2="930" class="net_110"/>
  <circle cx="204" cy="930" r="2" style="fill:#000" class="net_110"/>
  <line x1="220.54" x2="220.54" y1="930" y2="851" class="net_110"/>
  <line x1="177.33333333333331" x2="204" y1="810.5" y2="810.5" class="net_110"/>
  <line x1="204" x2="204" y1="810.5" y2="920" class="net_110"/>
  <line x1="204" x2="220.54" y1="920" y2="920" class="net_110"/>
  <circle cx="204" cy="920" r="2" style="fill:#000" class="net_110"/>
  <line x1="220.54" x2="220.54" y1="920" y2="871" class="net_110"/>
  <line x1="177.33333333333331" x2="204" y1="810.5" y2="810.5" class="net_110"/>
  <line x1="204" x2="204" y1="810.5" y2="910" class="net_110"/>
  <line x1="204" x2="220.54" y1="910" y2="910" class="net_110"/>
  <circle cx="204" cy="910" r="2" style="fill:#000" class="net_110"/>
  <line x1="220.54" x2="220.54" y1="910" y2="891" class="net_110"/>
</svg>
