<svg xmlns="http://www.w3.org/2000/svg" xmlns:xlink="http://www.w3.org/1999/xlink" xmlns:s="https://github.com/nturley/netlistsvg" width="342" height="571.5"><style>svg {
  stroke:#000;
  fill:none;
}
text {
  fill:#000;
  stroke:none;
  font-size:10px;
  font-weight: bold;
  font-family: "Courier New", monospace;
}
line {
    stroke-linecap: round;
}
.nodelabel {
  text-anchor: middle;
}
.inputPortLabel {
  text-anchor: end;
}
.splitjoinBody {
  fill:#000;
}</style><g s:type="and" transform="translate(83.33333333333333,534.5)" s:width="30" s:height="25" id="cell_:10"><s:alias val="$and"/><s:alias val="$logic_and"/><s:alias val="$_AND_"/><s:alias val="$reduce_and"/><path d="M0,0 L0,25 L15,25 A15 12.5 0 0 0 15,0 Z" fill="#ffffff" class="cell_:10"/><g s:x="0" s:y="5" s:pid="A"/><g s:x="0" s:y="20" s:pid="B"/><g s:x="30" s:y="12.5" s:pid="Y"/></g><g s:type="mux" transform="translate(153.33333333333334,462)" s:width="20" s:height="40" id="cell_:13"><s:alias val="$pmux"/><s:alias val="$mux"/><s:alias val="$_MUX_"/><path d="M0,0 L20,10 L20,30 L0,40 Z" fill="#ffffff" class="cell_:13"/><text x="5" y="32" class="nodelabel cell_:13" s:attribute="">1</text><text x="5" y="13" class="nodelabel cell_:13" s:attribute="">0</text><g s:x="0" s:y="10" s:pid="A"/><g s:x="0" s:y="30" s:pid="B"/><g s:x="10" s:y="35" s:pid="S"/><g s:x="20" s:y="20" s:pid="Y"/></g><g s:type="mux" transform="translate(86.66666666666667,67)" s:width="20" s:height="40" id="cell_:29"><s:alias val="$pmux"/><s:alias val="$mux"/><s:alias val="$_MUX_"/><path d="M0,0 L20,10 L20,30 L0,40 Z" fill="#ffffff" class="cell_:29"/><text x="5" y="32" class="nodelabel cell_:29" s:attribute="">1</text><text x="5" y="13" class="nodelabel cell_:29" s:attribute="">0</text><g s:x="0" s:y="10" s:pid="A"/><g s:x="0" s:y="30" s:pid="B"/><g s:x="10" s:y="35" s:pid="S"/><g s:x="20" s:y="20" s:pid="Y"/></g><g s:type="dlatch" transform="translate(150,302)" s:width="30" s:height="40" id="cell_:35"><s:alias val="$dlatch"/><s:alias val="$_DLATCH_"/><s:alias val="adlatch"/><s:alias val="$adlatch"/><rect width="30" height="40" x="0" y="0" fill="#ffffff" class="cell_:35"/><path d="M 1,35 H 4 V 25 h 5 v 10 h 3" fill="#ffffff" class="cell_:35"/><g s:x="30" s:y="10" s:pid="Q"/><g s:x="0" s:y="10" s:pid="D"/><g s:x="-1" s:y="30" s:pid="EN"/><g s:x="15" s:y="40" s:pid="ARST"/></g><g s:type="dff" transform="translate(150,227)" s:width="30" s:height="40" id="cell_:36"><s:alias val="$dff"/><s:alias val="$_DFF_"/><s:alias val="$_DFF_P_"/><s:alias val="$adff"/><s:alias val="$_DFF_"/><s:alias val="$_DFF_P_"/><s:alias val="$sdff"/><s:alias val="$_DFF_"/><s:alias val="$_DFF_P_"/><rect width="30" height="40" x="0" y="0" fill="#ffffff" class="cell_:36"/><path d="M0,35 L5,30 L0,25" fill="#ffffff" class="cell_:36"/><g s:x="31" s:y="10" s:pid="Q"/><g s:x="-1" s:y="30" s:pid="CLK"/><g s:x="-1" s:y="30" s:pid="C"/><g s:x="-1" s:y="10" s:pid="D"/><g s:x="15" s:y="40" s:pid="ARST"/><g s:x="15" s:y="40" s:pid="SRST"/></g><g s:type="dff" transform="translate(150,152)" s:width="30" s:height="40" id="cell_:37"><s:alias val="$dff"/><s:alias val="$_DFF_"/><s:alias val="$_DFF_P_"/><s:alias val="$adff"/><s:alias val="$_DFF_"/><s:alias val="$_DFF_P_"/><s:alias val="$sdff"/><s:alias val="$_DFF_"/><s:alias val="$_DFF_P_"/><rect width="30" height="40" x="0" y="0" fill="#ffffff" class="cell_:37"/><path d="M0,35 L5,30 L0,25" fill="#ffffff" class="cell_:37"/><g s:x="31" s:y="10" s:pid="Q"/><g s:x="-1" s:y="30" s:pid="CLK"/><g s:x="-1" s:y="30" s:pid="C"/><g s:x="-1" s:y="10" s:pid="D"/><g s:x="15" s:y="40" s:pid="ARST"/><g s:x="15" s:y="40" s:pid="SRST"/></g><g s:type="dff" transform="translate(150,77)" s:width="30" s:height="40" id="cell_:38"><s:alias val="$dff"/><s:alias val="$_DFF_"/><s:alias val="$_DFF_P_"/><s:alias val="$adff"/><s:alias val="$_DFF_"/><s:alias val="$_DFF_P_"/><s:alias val="$sdff"/><s:alias val="$_DFF_"/><s:alias val="$_DFF_P_"/><rect width="30" height="40" x="0" y="0" fill="#ffffff" class="cell_:38"/><path d="M0,35 L5,30 L0,25" fill="#ffffff" class="cell_:38"/><g s:x="31" s:y="10" s:pid="Q"/><g s:x="-1" s:y="30" s:pid="CLK"/><g s:x="-1" s:y="30" s:pid="C"/><g s:x="-1" s:y="10" s:pid="D"/><g s:x="15" s:y="40" s:pid="ARST"/><g s:x="15" s:y="40" s:pid="SRST"/></g><g s:type="dlatch" transform="translate(150,377)" s:width="30" s:height="40" id="cell_:39"><s:alias val="$dlatch"/><s:alias val="$_DLATCH_"/><s:alias val="adlatch"/><s:alias val="$adlatch"/><rect width="30" height="40" x="0" y="0" fill="#ffffff" class="cell_:39"/><path d="M 1,35 H 4 V 25 h 5 v 10 h 3" fill="#ffffff" class="cell_:39"/><g s:x="30" s:y="10" s:pid="Q"/><g s:x="0" s:y="10" s:pid="D"/><g s:x="-1" s:y="30" s:pid="EN"/><g s:x="15" s:y="40" s:pid="ARST"/></g><g s:type="inputExt" transform="translate(12,322)" s:width="30" s:height="20" id="cell_a"><text x="15" y="-4" class="nodelabel cell_a" s:attribute="ref">a</text><s:alias val="$_inputExt_"/><path d="M0,0 L0,20 L15,20 L30,10 L15,0 Z" fill="#ffffff" class="cell_a"/><g s:x="30" s:y="10" s:pid="Y"/></g><g s:type="inputExt" transform="translate(12,529.5)" s:width="30" s:height="20" id="cell_b"><text x="15" y="-4" class="nodelabel cell_b" s:attribute="ref">b</text><s:alias val="$_inputExt_"/><path d="M0,0 L0,20 L15,20 L30,10 L15,0 Z" fill="#ffffff" class="cell_b"/><g s:x="30" s:y="10" s:pid="Y"/></g><g s:type="inputExt" transform="translate(83,172)" s:width="30" s:height="20" id="cell_clk"><text x="15" y="-4" class="nodelabel cell_clk" s:attribute="ref">clk</text><s:alias val="$_inputExt_"/><path d="M0,0 L0,20 L15,20 L30,10 L15,0 Z" fill="#ffffff" class="cell_clk"/><g s:x="30" s:y="10" s:pid="Y"/></g><g s:type="inputExt" transform="translate(12,22)" s:width="30" s:height="20" id="cell_rst"><text x="15" y="-4" class="nodelabel cell_rst" s:attribute="ref">rst</text><s:alias val="$_inputExt_"/><path d="M0,0 L0,20 L15,20 L30,10 L15,0 Z" fill="#ffffff" class="cell_rst"/><g s:x="30" s:y="10" s:pid="Y"/></g><g s:type="inputExt" transform="translate(83,397)" s:width="30" s:height="20" id="cell_en"><text x="15" y="-4" class="nodelabel cell_en" s:attribute="ref">en</text><s:alias val="$_inputExt_"/><path d="M0,0 L0,20 L15,20 L30,10 L15,0 Z" fill="#ffffff" class="cell_en"/><g s:x="30" s:y="10" s:pid="Y"/></g><g s:type="outputExt" transform="translate(216,537)" s:width="30" s:height="20" id="cell_comb_op_and"><text x="15" y="-4" class="nodelabel cell_comb_op_and" s:attribute="ref">comb_op_and</text><s:alias val="$_outputExt_"/><path d="M30,0 L30,20 L15,20 L0,10 L15,0 Z" fill="#ffffff" class="cell_comb_op_and"/><g s:x="0" s:y="10" s:pid="A"/></g><g s:type="outputExt" transform="translate(216,472)" s:width="30" s:height="20" id="cell_comb_proc_good_and"><text x="15" y="-4" class="nodelabel cell_comb_proc_good_and" s:attribute="ref">comb_proc_good_and</text><s:alias val="$_outputExt_"/><path d="M30,0 L30,20 L15,20 L0,10 L15,0 Z" fill="#ffffff" class="cell_comb_proc_good_and"/><g s:x="0" s:y="10" s:pid="A"/></g><g s:type="outputExt" transform="translate(216,302)" s:width="30" s:height="20" id="cell_comb_proc_latch_and"><text x="15" y="-4" class="nodelabel cell_comb_proc_latch_and" s:attribute="ref">comb_proc_latch_and</text><s:alias val="$_outputExt_"/><path d="M30,0 L30,20 L15,20 L0,10 L15,0 Z" fill="#ffffff" class="cell_comb_proc_latch_and"/><g s:x="0" s:y="10" s:pid="A"/></g><g s:type="outputExt" transform="translate(216,227)" s:width="30" s:height="20" id="cell_seq_no_init_a"><text x="15" y="-4" class="nodelabel cell_seq_no_init_a" s:attribute="ref">seq_no_init_a</text><s:alias val="$_outputExt_"/><path d="M30,0 L30,20 L15,20 L0,10 L15,0 Z" fill="#ffffff" class="cell_seq_no_init_a"/><g s:x="0" s:y="10" s:pid="A"/></g><g s:type="outputExt" transform="translate(216,152)" s:width="30" s:height="20" id="cell_seq_decl_init_a"><text x="15" y="-4" class="nodelabel cell_seq_decl_init_a" s:attribute="ref">seq_decl_init_a</text><s:alias val="$_outputExt_"/><path d="M30,0 L30,20 L15,20 L0,10 L15,0 Z" fill="#ffffff" class="cell_seq_decl_init_a"/><g s:x="0" s:y="10" s:pid="A"/></g><g s:type="outputExt" transform="translate(216,77)" s:width="30" s:height="20" id="cell_seq_sync_reset_a"><text x="15" y="-4" class="nodelabel cell_seq_sync_reset_a" s:attribute="ref">seq_sync_reset_a</text><s:alias val="$_outputExt_"/><path d="M30,0 L30,20 L15,20 L0,10 L15,0 Z" fill="#ffffff" class="cell_seq_sync_reset_a"/><g s:x="0" s:y="10" s:pid="A"/></g><g s:type="outputExt" transform="translate(216,377)" s:width="30" s:height="20" id="cell_latch_intentional_a"><text x="15" y="-4" class="nodelabel cell_latch_intentional_a" s:attribute="ref">latch_intentional_a</text><s:alias val="$_outputExt_"/><path d="M30,0 L30,20 L15,20 L0,10 L15,0 Z" fill="#ffffff" class="cell_latch_intentional_a"/><g s:x="0" s:y="10" s:pid="A"/></g><g s:type="constant" transform="translate(83,462)" s:width="30" s:height="20" id="cell_0"><text x="15" y="-4" class="nodelabel cell_0" s:attribute="ref">0</text><s:alias val="$_constant_"/><rect width="30" height="20" fill="#ffffff" class="cell_0"/><g s:x="31" s:y="10" s:pid="Y"/></g><g s:type="constant" transform="translate(12,87)" s:width="30" s:height="20" id="cell_1"><text x="15" y="-4" class="nodelabel cell_1" s:attribute="ref">1</text><s:alias val="$_constant_"/><rect width="30" height="20" fill="#ffffff" class="cell_1"/><g s:x="31" s:y="10" s:pid="Y"/></g><line x1="42" x2="83.33333333333333" y1="539.5" y2="539.5" class="net_3 width_1" style="stroke-width: 1"/><line x1="42" x2="73" y1="539.5" y2="539.5" class="net_3 width_1" style="stroke-width: 1"/><line x1="73" x2="73" y1="539.5" y2="312" class="net_3 width_1" style="stroke-width: 1"/><circle cx="73" cy="539.5" r="2" style="fill:#000" class="net_3 width_1"/><line x1="73" x2="150" y1="312" y2="312" class="net_3 width_1" style="stroke-width: 1"/><line x1="42" x2="63" y1="332" y2="332" class="net_2 width_1" style="stroke-width: 1"/><line x1="63" x2="63" y1="332" y2="554.5" class="net_2 width_1" style="stroke-width: 1"/><circle cx="63" cy="332" r="2" style="fill:#000" class="net_2 width_1"/><line x1="63" x2="83.33333333333333" y1="554.5" y2="554.5" class="net_2 width_1" style="stroke-width: 1"/><line x1="42" x2="63" y1="332" y2="332" class="net_2 width_1" style="stroke-width: 1"/><line x1="63" x2="63" y1="332" y2="77" class="net_2 width_1" style="stroke-width: 1"/><line x1="63" x2="86.66666666666667" y1="77" y2="77" class="net_2 width_1" style="stroke-width: 1"/><line x1="42" x2="149" y1="332" y2="332" class="net_2 width_1" style="stroke-width: 1"/><line x1="42" x2="63" y1="332" y2="332" class="net_2 width_1" style="stroke-width: 1"/><line x1="63" x2="63" y1="332" y2="237" class="net_2 width_1" style="stroke-width: 1"/><circle cx="63" cy="237" r="2" style="fill:#000" class="net_2 width_1"/><line x1="63" x2="149" y1="237" y2="237" class="net_2 width_1" style="stroke-width: 1"/><line x1="42" x2="63" y1="332" y2="332" class="net_2 width_1" style="stroke-width: 1"/><line x1="63" x2="63" y1="332" y2="151" class="net_2 width_1" style="stroke-width: 1"/><line x1="63" x2="134" y1="151" y2="151" class="net_2 width_1" style="stroke-width: 1"/><line x1="134" x2="134" y1="151" y2="162" class="net_2 width_1" style="stroke-width: 1"/><circle cx="63" cy="151" r="2" style="fill:#000" class="net_2 width_1"/><line x1="134" x2="149" y1="162" y2="162" class="net_2 width_1" style="stroke-width: 1"/><line x1="42" x2="124" y1="332" y2="332" class="net_2 width_1" style="stroke-width: 1"/><line x1="124" x2="124" y1="332" y2="387" class="net_2 width_1" style="stroke-width: 1"/><circle cx="124" cy="332" r="2" style="fill:#000" class="net_2 width_1"/><line x1="124" x2="150" y1="387" y2="387" class="net_2 width_1" style="stroke-width: 1"/><line x1="114" x2="153.33333333333334" y1="472" y2="472" class="net_15 width_1" style="stroke-width: 1"/><line x1="43" x2="53" y1="97" y2="97" class="net_16 width_1" style="stroke-width: 1"/><line x1="53" x2="53" y1="97" y2="492" class="net_16 width_1" style="stroke-width: 1"/><circle cx="53" cy="97" r="2" style="fill:#000" class="net_16 width_1"/><line x1="53" x2="153.33333333333334" y1="492" y2="492" class="net_16 width_1" style="stroke-width: 1"/><line x1="43" x2="86.66666666666667" y1="97" y2="97" class="net_16 width_1" style="stroke-width: 1"/><line x1="113.33333333333333" x2="124" y1="547" y2="547" class="net_7 width_1" style="stroke-width: 1"/><line x1="124" x2="124" y1="547" y2="537" class="net_7 width_1" style="stroke-width: 1"/><line x1="124" x2="163.33333333333334" y1="537" y2="537" class="net_7 width_1" style="stroke-width: 1"/><circle cx="124" cy="547" r="2" style="fill:#000" class="net_7 width_1"/><line x1="163.33333333333334" x2="163.33333333333334" y1="537" y2="497" class="net_7 width_1" style="stroke-width: 1"/><line x1="113.33333333333333" x2="216" y1="547" y2="547" class="net_7 width_1" style="stroke-width: 1"/><line x1="42" x2="73" y1="32" y2="32" class="net_5 width_1" style="stroke-width: 1"/><line x1="73" x2="73" y1="32" y2="141" class="net_5 width_1" style="stroke-width: 1"/><line x1="73" x2="96.66666666666667" y1="141" y2="141" class="net_5 width_1" style="stroke-width: 1"/><line x1="96.66666666666667" x2="96.66666666666667" y1="141" y2="102" class="net_5 width_1" style="stroke-width: 1"/><line x1="113" x2="124" y1="182" y2="182" class="net_4 width_1" style="stroke-width: 1"/><line x1="124" x2="124" y1="182" y2="257" class="net_4 width_1" style="stroke-width: 1"/><circle cx="124" cy="182" r="2" style="fill:#000" class="net_4 width_1"/><line x1="124" x2="149" y1="257" y2="257" class="net_4 width_1" style="stroke-width: 1"/><line x1="113" x2="149" y1="182" y2="182" class="net_4 width_1" style="stroke-width: 1"/><line x1="113" x2="124" y1="182" y2="182" class="net_4 width_1" style="stroke-width: 1"/><line x1="124" x2="124" y1="182" y2="107" class="net_4 width_1" style="stroke-width: 1"/><line x1="124" x2="149" y1="107" y2="107" class="net_4 width_1" style="stroke-width: 1"/><line x1="106.66666666666667" x2="149" y1="87" y2="87" class="net_14 width_1" style="stroke-width: 1"/><line x1="113" x2="149" y1="407" y2="407" class="net_6 width_1" style="stroke-width: 1"/><line x1="173.33333333333334" x2="216" y1="482" y2="482" class="net_8 width_1" style="stroke-width: 1"/><line x1="180" x2="216" y1="312" y2="312" class="net_9 width_1" style="stroke-width: 1"/><line x1="181" x2="216" y1="237" y2="237" class="net_10 width_1" style="stroke-width: 1"/><line x1="181" x2="216" y1="162" y2="162" class="net_11 width_1" style="stroke-width: 1"/><line x1="181" x2="216" y1="87" y2="87" class="net_12 width_1" style="stroke-width: 1"/><line x1="180" x2="216" y1="387" y2="387" class="net_13 width_1" style="stroke-width: 1"/></svg>