<svg xmlns="http://www.w3.org/2000/svg" xmlns:xlink="http://www.w3.org/1999/xlink" xmlns:s="https://github.com/nturley/netlistsvg" width="347" height="564"><style>svg {
  stroke:#000;
  fill:none;
}
text {
  fill:#000;
  stroke:none;
  font-size:10px;
  font-weight: bold;
  font-family: "Courier New", monospace;
}
line {
    stroke-linecap: round;
}
.nodelabel {
  text-anchor: middle;
}
.inputPortLabel {
  text-anchor: end;
}
.splitjoinBody {
  fill:#000;
}</style><g s:type="and" transform="translate(155,322)" s:width="30" s:height="25" id="cell_$and$logic_styles.v:34$1"><s:alias val="$and"/><s:alias val="$logic_and"/><s:alias val="$_AND_"/><s:alias val="$reduce_and"/><path d="M0,0 L0,25 L15,25 A15 12.5 0 0 0 15,0 Z" fill="#ffffff" class="cell_$and$logic_styles.v:34$1"/><g s:x="0" s:y="5" s:pid="A"/><g s:x="0" s:y="20" s:pid="B"/><g s:x="30" s:y="12.5" s:pid="Y"/></g><g s:type="dlatch" transform="translate(155,503)" s:width="30" s:height="40" id="cell_$auto$proc_dlatch.cc:432:proc_dlatch$40"><s:alias val="$dlatch"/><s:alias val="$_DLATCH_"/><s:alias val="adlatch"/><s:alias val="$adlatch"/><rect width="30" height="40" x="0" y="0" fill="#ffffff" class="cell_$auto$proc_dlatch.cc:432:proc_dlatch$40"/><path d="M 1,35 H 4 V 25 h 5 v 10 h 3" fill="#ffffff" class="cell_$auto$proc_dlatch.cc:432:proc_dlatch$40"/><g s:x="30" s:y="10" s:pid="Q"/><g s:x="0" s:y="10" s:pid="D"/><g s:x="-1" s:y="30" s:pid="EN"/><g s:x="15" s:y="40" s:pid="ARST"/></g><g s:type="dlatch" transform="translate(155,172)" s:width="30" s:height="40" id="cell_$auto$proc_dlatch.cc:432:proc_dlatch$51"><s:alias val="$dlatch"/><s:alias val="$_DLATCH_"/><s:alias val="adlatch"/><s:alias val="$adlatch"/><rect width="30" height="40" x="0" y="0" fill="#ffffff" class="cell_$auto$proc_dlatch.cc:432:proc_dlatch$51"/><path d="M 1,35 H 4 V 25 h 5 v 10 h 3" fill="#ffffff" class="cell_$auto$proc_dlatch.cc:432:proc_dlatch$51"/><g s:x="30" s:y="10" s:pid="Q"/><g s:x="0" s:y="10" s:pid="D"/><g s:x="-1" s:y="30" s:pid="EN"/><g s:x="15" s:y="40" s:pid="ARST"/></g><g s:type="and" transform="translate(83.33333333333333,442)" s:width="30" s:height="25" id="cell_$logic_and$logic_styles.v:38$5"><s:alias val="$and"/><s:alias val="$logic_and"/><s:alias val="$_AND_"/><s:alias val="$reduce_and"/><path d="M0,0 L0,25 L15,25 A15 12.5 0 0 0 15,0 Z" fill="#ffffff" class="cell_$logic_and$logic_styles.v:38$5"/><g s:x="0" s:y="5" s:pid="A"/><g s:x="0" s:y="20" s:pid="B"/><g s:x="30" s:y="12.5" s:pid="Y"/></g><g s:type="dff" transform="translate(155,22)" s:width="30" s:height="40" id="cell_$procdff$52"><s:alias val="$dff"/><s:alias val="$_DFF_"/><s:alias val="$_DFF_P_"/><s:alias val="$adff"/><s:alias val="$_DFF_"/><s:alias val="$_DFF_P_"/><s:alias val="$sdff"/><s:alias val="$_DFF_"/><s:alias val="$_DFF_P_"/><rect width="30" height="40" x="0" y="0" fill="#ffffff" class="cell_$procdff$52"/><path d="M0,35 L5,30 L0,25" fill="#ffffff" class="cell_$procdff$52"/><g s:x="31" s:y="10" s:pid="Q"/><g s:x="-1" s:y="30" s:pid="CLK"/><g s:x="-1" s:y="30" s:pid="C"/><g s:x="-1" s:y="10" s:pid="D"/><g s:x="15" s:y="40" s:pid="ARST"/><g s:x="15" s:y="40" s:pid="SRST"/></g><g s:type="dff" transform="translate(155,97)" s:width="30" s:height="40" id="cell_$procdff$53"><s:alias val="$dff"/><s:alias val="$_DFF_"/><s:alias val="$_DFF_P_"/><s:alias val="$adff"/><s:alias val="$_DFF_"/><s:alias val="$_DFF_P_"/><s:alias val="$sdff"/><s:alias val="$_DFF_"/><s:alias val="$_DFF_P_"/><rect width="30" height="40" x="0" y="0" fill="#ffffff" class="cell_$procdff$53"/><path d="M0,35 L5,30 L0,25" fill="#ffffff" class="cell_$procdff$53"/><g s:x="31" s:y="10" s:pid="Q"/><g s:x="-1" s:y="30" s:pid="CLK"/><g s:x="-1" s:y="30" s:pid="C"/><g s:x="-1" s:y="10" s:pid="D"/><g s:x="15" s:y="40" s:pid="ARST"/><g s:x="15" s:y="40" s:pid="SRST"/></g><g s:type="dff" transform="translate(155,247)" s:width="30" s:height="40" id="cell_$procdff$54"><s:alias val="$dff"/><s:alias val="$_DFF_"/><s:alias val="$_DFF_P_"/><s:alias val="$adff"/><s:alias val="$_DFF_"/><s:alias val="$_DFF_P_"/><s:alias val="$sdff"/><s:alias val="$_DFF_"/><s:alias val="$_DFF_P_"/><rect width="30" height="40" x="0" y="0" fill="#ffffff" class="cell_$procdff$54"/><path d="M0,35 L5,30 L0,25" fill="#ffffff" class="cell_$procdff$54"/><g s:x="31" s:y="10" s:pid="Q"/><g s:x="-1" s:y="30" s:pid="CLK"/><g s:x="-1" s:y="30" s:pid="C"/><g s:x="-1" s:y="10" s:pid="D"/><g s:x="15" s:y="40" s:pid="ARST"/><g s:x="15" s:y="40" s:pid="SRST"/></g><g s:type="mux" transform="translate(86.66666666666667,12)" s:width="20" s:height="40" id="cell_$procmux$22"><s:alias val="$pmux"/><s:alias val="$mux"/><s:alias val="$_MUX_"/><path d="M0,0 L20,10 L20,30 L0,40 Z" fill="#ffffff" class="cell_$procmux$22"/><text x="5" y="32" class="nodelabel cell_$procmux$22" s:attribute="">1</text><text x="5" y="13" class="nodelabel cell_$procmux$22" s:attribute="">0</text><g s:x="0" s:y="10" s:pid="A"/><g s:x="0" s:y="30" s:pid="B"/><g s:x="10" s:y="35" s:pid="S"/><g s:x="20" s:y="20" s:pid="Y"/></g><g s:type="mux" transform="translate(158.33333333333334,382)" s:width="20" s:height="40" id="cell_$procmux$28"><s:alias val="$pmux"/><s:alias val="$mux"/><s:alias val="$_MUX_"/><path d="M0,0 L20,10 L20,30 L0,40 Z" fill="#ffffff" class="cell_$procmux$28"/><text x="5" y="32" class="nodelabel cell_$procmux$28" s:attribute="">1</text><text x="5" y="13" class="nodelabel cell_$procmux$28" s:attribute="">0</text><g s:x="0" s:y="10" s:pid="A"/><g s:x="0" s:y="30" s:pid="B"/><g s:x="10" s:y="35" s:pid="S"/><g s:x="20" s:y="20" s:pid="Y"/></g><g s:type="inputExt" transform="translate(12,467)" s:width="30" s:height="20" id="cell_a"><text x="15" y="-4" class="nodelabel cell_a" s:attribute="ref">a</text><s:alias val="$_inputExt_"/><path d="M0,0 L0,20 L15,20 L30,10 L15,0 Z" fill="#ffffff" class="cell_a"/><g s:x="30" s:y="10" s:pid="Y"/></g><g s:type="inputExt" transform="translate(12,532)" s:width="30" s:height="20" id="cell_b"><text x="15" y="-4" class="nodelabel cell_b" s:attribute="ref">b</text><s:alias val="$_inputExt_"/><path d="M0,0 L0,20 L15,20 L30,10 L15,0 Z" fill="#ffffff" class="cell_b"/><g s:x="30" s:y="10" s:pid="Y"/></g><g s:type="inputExt" transform="translate(83,117)" s:width="30" s:height="20" id="cell_clk"><text x="15" y="-4" class="nodelabel cell_clk" s:attribute="ref">clk</text><s:alias val="$_inputExt_"/><path d="M0,0 L0,20 L15,20 L30,10 L15,0 Z" fill="#ffffff" class="cell_clk"/><g s:x="30" s:y="10" s:pid="Y"/></g><g s:type="inputExt" transform="translate(12,76)" s:width="30" s:height="20" id="cell_rst"><text x="15" y="-4" class="nodelabel cell_rst" s:attribute="ref">rst</text><s:alias val="$_inputExt_"/><path d="M0,0 L0,20 L15,20 L30,10 L15,0 Z" fill="#ffffff" class="cell_rst"/><g s:x="30" s:y="10" s:pid="Y"/></g><g s:type="inputExt" transform="translate(83,523)" s:width="30" s:height="20" id="cell_en"><text x="15" y="-4" class="nodelabel cell_en" s:attribute="ref">en</text><s:alias val="$_inputExt_"/><path d="M0,0 L0,20 L15,20 L30,10 L15,0 Z" fill="#ffffff" class="cell_en"/><g s:x="30" s:y="10" s:pid="Y"/></g><g s:type="outputExt" transform="translate(221,324.5)" s:width="30" s:height="20" id="cell_comb_op_and"><text x="15" y="-4" class="nodelabel cell_comb_op_and" s:attribute="ref">comb_op_and</text><s:alias val="$_outputExt_"/><path d="M30,0 L30,20 L15,20 L0,10 L15,0 Z" fill="#ffffff" class="cell_comb_op_and"/><g s:x="0" s:y="10" s:pid="A"/></g><g s:type="outputExt" transform="translate(221,392)" s:width="30" s:height="20" id="cell_comb_proc_good_and"><text x="15" y="-4" class="nodelabel cell_comb_proc_good_and" s:attribute="ref">comb_proc_good_and</text><s:alias val="$_outputExt_"/><path d="M30,0 L30,20 L15,20 L0,10 L15,0 Z" fill="#ffffff" class="cell_comb_proc_good_and"/><g s:x="0" s:y="10" s:pid="A"/></g><g s:type="outputExt" transform="translate(221,172)" s:width="30" s:height="20" id="cell_comb_proc_latch_and"><text x="15" y="-4" class="nodelabel cell_comb_proc_latch_and" s:attribute="ref">comb_proc_latch_and</text><s:alias val="$_outputExt_"/><path d="M30,0 L30,20 L15,20 L0,10 L15,0 Z" fill="#ffffff" class="cell_comb_proc_latch_and"/><g s:x="0" s:y="10" s:pid="A"/></g><g s:type="outputExt" transform="translate(221,247)" s:width="30" s:height="20" id="cell_seq_no_init_a"><text x="15" y="-4" class="nodelabel cell_seq_no_init_a" s:attribute="ref">seq_no_init_a</text><s:alias val="$_outputExt_"/><path d="M30,0 L30,20 L15,20 L0,10 L15,0 Z" fill="#ffffff" class="cell_seq_no_init_a"/><g s:x="0" s:y="10" s:pid="A"/></g><g s:type="outputExt" transform="translate(221,97)" s:width="30" s:height="20" id="cell_seq_decl_init_a"><text x="15" y="-4" class="nodelabel cell_seq_decl_init_a" s:attribute="ref">seq_decl_init_a</text><s:alias val="$_outputExt_"/><path d="M30,0 L30,20 L15,20 L0,10 L15,0 Z" fill="#ffffff" class="cell_seq_decl_init_a"/><g s:x="0" s:y="10" s:pid="A"/></g><g s:type="outputExt" transform="translate(221,22)" s:width="30" s:height="20" id="cell_seq_sync_reset_a"><text x="15" y="-4" class="nodelabel cell_seq_sync_reset_a" s:attribute="ref">seq_sync_reset_a</text><s:alias val="$_outputExt_"/><path d="M30,0 L30,20 L15,20 L0,10 L15,0 Z" fill="#ffffff" class="cell_seq_sync_reset_a"/><g s:x="0" s:y="10" s:pid="A"/></g><g s:type="outputExt" transform="translate(221,503)" s:width="30" s:height="20" id="cell_latch_intentional_a"><text x="15" y="-4" class="nodelabel cell_latch_intentional_a" s:attribute="ref">latch_intentional_a</text><s:alias val="$_outputExt_"/><path d="M30,0 L30,20 L15,20 L0,10 L15,0 Z" fill="#ffffff" class="cell_latch_intentional_a"/><g s:x="0" s:y="10" s:pid="A"/></g><g s:type="constant" transform="translate(12,402)" s:width="30" s:height="20" id="cell_1"><text x="15" y="-4" class="nodelabel cell_1" s:attribute="ref">1</text><s:alias val="$_constant_"/><rect width="30" height="20" fill="#ffffff" class="cell_1"/><g s:x="31" s:y="10" s:pid="Y"/></g><g s:type="constant" transform="translate(83,382)" s:width="30" s:height="20" id="cell_0"><text x="15" y="-4" class="nodelabel cell_0" s:attribute="ref">0</text><s:alias val="$_constant_"/><rect width="30" height="20" fill="#ffffff" class="cell_0"/><g s:x="31" s:y="10" s:pid="Y"/></g><line x1="42" x2="63" y1="477" y2="477" class="net_2 width_1" style="stroke-width: 1"/><line x1="63" x2="63" y1="477" y2="257" class="net_2 width_1" style="stroke-width: 1"/><line x1="63" x2="124" y1="257" y2="257" class="net_2 width_1" style="stroke-width: 1"/><line x1="124" x2="124" y1="257" y2="327" class="net_2 width_1" style="stroke-width: 1"/><circle cx="63" cy="477" r="2" style="fill:#000" class="net_2 width_1"/><circle cx="63" cy="257" r="2" style="fill:#000" class="net_2 width_1"/><line x1="124" x2="155" y1="327" y2="327" class="net_2 width_1" style="stroke-width: 1"/><line x1="42" x2="124" y1="477" y2="477" class="net_2 width_1" style="stroke-width: 1"/><line x1="124" x2="124" y1="477" y2="513" class="net_2 width_1" style="stroke-width: 1"/><line x1="124" x2="155" y1="513" y2="513" class="net_2 width_1" style="stroke-width: 1"/><line x1="42" x2="63" y1="477" y2="477" class="net_2 width_1" style="stroke-width: 1"/><line x1="63" x2="63" y1="477" y2="257" class="net_2 width_1" style="stroke-width: 1"/><line x1="63" x2="124" y1="257" y2="257" class="net_2 width_1" style="stroke-width: 1"/><line x1="124" x2="124" y1="257" y2="202" class="net_2 width_1" style="stroke-width: 1"/><circle cx="124" cy="257" r="2" style="fill:#000" class="net_2 width_1"/><line x1="124" x2="154" y1="202" y2="202" class="net_2 width_1" style="stroke-width: 1"/><line x1="42" x2="63" y1="477" y2="477" class="net_2 width_1" style="stroke-width: 1"/><line x1="63" x2="63" y1="477" y2="447" class="net_2 width_1" style="stroke-width: 1"/><circle cx="63" cy="447" r="2" style="fill:#000" class="net_2 width_1"/><line x1="63" x2="83.33333333333333" y1="447" y2="447" class="net_2 width_1" style="stroke-width: 1"/><line x1="42" x2="63" y1="477" y2="477" class="net_2 width_1" style="stroke-width: 1"/><line x1="63" x2="63" y1="477" y2="96" class="net_2 width_1" style="stroke-width: 1"/><line x1="63" x2="144" y1="96" y2="96" class="net_2 width_1" style="stroke-width: 1"/><line x1="144" x2="144" y1="96" y2="107" class="net_2 width_1" style="stroke-width: 1"/><circle cx="63" cy="96" r="2" style="fill:#000" class="net_2 width_1"/><line x1="144" x2="154" y1="107" y2="107" class="net_2 width_1" style="stroke-width: 1"/><line x1="42" x2="63" y1="477" y2="477" class="net_2 width_1" style="stroke-width: 1"/><line x1="63" x2="63" y1="477" y2="257" class="net_2 width_1" style="stroke-width: 1"/><line x1="63" x2="154" y1="257" y2="257" class="net_2 width_1" style="stroke-width: 1"/><line x1="42" x2="63" y1="477" y2="477" class="net_2 width_1" style="stroke-width: 1"/><line x1="63" x2="63" y1="477" y2="22" class="net_2 width_1" style="stroke-width: 1"/><line x1="63" x2="86.66666666666667" y1="22" y2="22" class="net_2 width_1" style="stroke-width: 1"/><line x1="42" x2="73" y1="542" y2="542" class="net_3 width_1" style="stroke-width: 1"/><line x1="73" x2="73" y1="542" y2="342" class="net_3 width_1" style="stroke-width: 1"/><circle cx="73" cy="342" r="2" style="fill:#000" class="net_3 width_1"/><line x1="73" x2="155" y1="342" y2="342" class="net_3 width_1" style="stroke-width: 1"/><line x1="42" x2="73" y1="542" y2="542" class="net_3 width_1" style="stroke-width: 1"/><line x1="73" x2="73" y1="542" y2="182" class="net_3 width_1" style="stroke-width: 1"/><line x1="73" x2="155" y1="182" y2="182" class="net_3 width_1" style="stroke-width: 1"/><line x1="42" x2="73" y1="542" y2="542" class="net_3 width_1" style="stroke-width: 1"/><line x1="73" x2="73" y1="542" y2="462" class="net_3 width_1" style="stroke-width: 1"/><circle cx="73" cy="462" r="2" style="fill:#000" class="net_3 width_1"/><line x1="73" x2="83.33333333333333" y1="462" y2="462" class="net_3 width_1" style="stroke-width: 1"/><line x1="113" x2="154" y1="533" y2="533" class="net_6 width_1" style="stroke-width: 1"/><line x1="113" x2="134" y1="127" y2="127" class="net_4 width_1" style="stroke-width: 1"/><line x1="134" x2="134" y1="127" y2="52" class="net_4 width_1" style="stroke-width: 1"/><circle cx="134" cy="127" r="2" style="fill:#000" class="net_4 width_1"/><line x1="134" x2="154" y1="52" y2="52" class="net_4 width_1" style="stroke-width: 1"/><line x1="113" x2="154" y1="127" y2="127" class="net_4 width_1" style="stroke-width: 1"/><line x1="113" x2="134" y1="127" y2="127" class="net_4 width_1" style="stroke-width: 1"/><line x1="134" x2="134" y1="127" y2="277" class="net_4 width_1" style="stroke-width: 1"/><line x1="134" x2="154" y1="277" y2="277" class="net_4 width_1" style="stroke-width: 1"/><line x1="106.66666666666667" x2="154" y1="32" y2="32" class="net_15 width_1" style="stroke-width: 1"/><line x1="43" x2="53" y1="412" y2="412" class="net_16 width_1" style="stroke-width: 1"/><line x1="53" x2="53" y1="412" y2="42" class="net_16 width_1" style="stroke-width: 1"/><circle cx="53" cy="412" r="2" style="fill:#000" class="net_16 width_1"/><line x1="53" x2="86.66666666666667" y1="42" y2="42" class="net_16 width_1" style="stroke-width: 1"/><line x1="43" x2="158.33333333333334" y1="412" y2="412" class="net_16 width_1" style="stroke-width: 1"/><line x1="42" x2="96.66666666666667" y1="86" y2="86" class="net_5 width_1" style="stroke-width: 1"/><line x1="96.66666666666667" x2="96.66666666666667" y1="86" y2="47" class="net_5 width_1" style="stroke-width: 1"/><line x1="114" x2="158.33333333333334" y1="392" y2="392" class="net_17 width_1" style="stroke-width: 1"/><line x1="113.33333333333333" x2="168.33333333333334" y1="454.5" y2="454.5" class="net_14 width_1" style="stroke-width: 1"/><line x1="168.33333333333334" x2="168.33333333333334" y1="454.5" y2="417" class="net_14 width_1" style="stroke-width: 1"/><line x1="185" x2="221" y1="334.5" y2="334.5" class="net_7 width_1" style="stroke-width: 1"/><line x1="178.33333333333334" x2="221" y1="402" y2="402" class="net_8 width_1" style="stroke-width: 1"/><line x1="185" x2="221" y1="182" y2="182" class="net_9 width_1" style="stroke-width: 1"/><line x1="186" x2="221" y1="257" y2="257" class="net_10 width_1" style="stroke-width: 1"/><line x1="186" x2="221" y1="107" y2="107" class="net_11 width_1" style="stroke-width: 1"/><line x1="186" x2="221" y1="32" y2="32" class="net_12 width_1" style="stroke-width: 1"/><line x1="185" x2="221" y1="513" y2="513" class="net_13 width_1" style="stroke-width: 1"/></svg>