<svg xmlns="http://www.w3.org/2000/svg" xmlns:xlink="http://www.w3.org/1999/xlink" xmlns:s="https://github.com/nturley/netlistsvg" width="476" height="1046.5"><style>svg {
  stroke:#000;
  fill:none;
}
text {
  fill:#000;
  stroke:none;
  font-size:10px;
  font-weight: bold;
  font-family: "Courier New", monospace;
}
.nodelabel {
  text-anchor: middle;
}
.inputPortLabel {
  text-anchor: end;
}
.splitjoinBody {
  fill:#000;
}</style><g s:type="generic" transform="translate(286,22)" s:width="30" s:height="40" id="cell_mem"><text x="15" y="-4" class="nodelabel cell_mem" s:attribute="ref">$mem_v2-bus</text><rect width="30" height="180" s:generic="body" class="cell_mem"/><g transform="translate(0,10)" s:x="0" s:y="10" s:pid="in0" id="port_mem~RD_ADDR"><text x="-3" y="-4" class="inputPortLabel cell_mem">RD_ADDR</text></g><g transform="translate(0,30)" s:x="0" s:y="10" s:pid="in0" id="port_mem~RD_ARST"><text x="-3" y="-4" class="inputPortLabel cell_mem">RD_ARST</text></g><g transform="translate(0,50)" s:x="0" s:y="10" s:pid="in0" id="port_mem~RD_CLK"><text x="-3" y="-4" class="inputPortLabel cell_mem">RD_CLK</text></g><g transform="translate(0,70)" s:x="0" s:y="10" s:pid="in0" id="port_mem~RD_EN"><text x="-3" y="-4" class="inputPortLabel cell_mem">RD_EN</text></g><g transform="translate(0,90)" s:x="0" s:y="10" s:pid="in0" id="port_mem~RD_SRST"><text x="-3" y="-4" class="inputPortLabel cell_mem">RD_SRST</text></g><g transform="translate(0,110)" s:x="0" s:y="10" s:pid="in0" id="port_mem~WR_ADDR"><text x="-3" y="-4" class="inputPortLabel cell_mem">WR_ADDR</text></g><g transform="translate(0,130)" s:x="0" s:y="10" s:pid="in0" id="port_mem~WR_CLK"><text x="-3" y="-4" class="inputPortLabel cell_mem">WR_CLK</text></g><g transform="translate(0,150)" s:x="0" s:y="10" s:pid="in0" id="port_mem~WR_DATA"><text x="-3" y="-4" class="inputPortLabel cell_mem">WR_DATA</text></g><g transform="translate(0,170)" s:x="0" s:y="10" s:pid="in0" id="port_mem~WR_EN"><text x="-3" y="-4" class="inputPortLabel cell_mem">WR_EN</text></g><g transform="translate(30,10)" s:x="30" s:y="10" s:pid="out0" id="port_mem~RD_DATA"><text x="5" y="-4" style="fill:#000; stroke:none" class="cell_mem">RD_DATA</text></g></g><g s:type="inputExt" transform="translate(142,213.5)" s:width="30" s:height="20" id="cell_clk"><text x="15" y="-4" class="nodelabel cell_clk" s:attribute="ref">clk</text><s:alias val="$_inputExt_"/><path d="M0,0 L0,20 L15,20 L30,10 L15,0 Z" class="cell_clk"/><g s:x="28" s:y="10" s:pid="Y"/></g><g s:type="inputExt" transform="translate(12,895)" s:width="30" s:height="20" id="cell_we"><text x="15" y="-4" class="nodelabel cell_we" s:attribute="ref">we</text><s:alias val="$_inputExt_"/><path d="M0,0 L0,20 L15,20 L30,10 L15,0 Z" class="cell_we"/><g s:x="28" s:y="10" s:pid="Y"/></g><g s:type="inputExt" transform="translate(77,22.5)" s:width="30" s:height="20" id="cell_addr"><text x="15" y="-4" class="nodelabel cell_addr" s:attribute="ref">addr</text><s:alias val="$_inputExt_"/><path d="M0,0 L0,20 L15,20 L30,10 L15,0 Z" class="cell_addr"/><g s:x="28" s:y="10" s:pid="Y"/></g><g s:type="inputExt" transform="translate(77,282.5)" s:width="30" s:height="20" id="cell_wdata"><text x="15" y="-4" class="nodelabel cell_wdata" s:attribute="ref">wdata</text><s:alias val="$_inputExt_"/><path d="M0,0 L0,20 L15,20 L30,10 L15,0 Z" class="cell_wdata"/><g s:x="28" s:y="10" s:pid="Y"/></g><g s:type="outputExt" transform="translate(434,22.5)" s:width="30" s:height="20" id="cell_rdata"><text x="15" y="-4" class="nodelabel cell_rdata" s:attribute="ref">rdata</text><s:alias val="$_outputExt_"/><path d="M30,0 L30,20 L15,20 L0,10 L15,0 Z" class="cell_rdata"/><g s:x="0" s:y="10" s:pid="A"/></g><g s:type="constant" transform="translate(142,83.5)" s:width="30" s:height="20" id="cell_0"><text x="15" y="-4" class="nodelabel cell_0" s:attribute="ref">0</text><s:alias val="$_constant_"/><rect width="30" height="20" class="cell_0"/><g s:x="30" s:y="10" s:pid="Y"/></g><g s:type="constant" transform="translate(142,148.5)" s:width="30" s:height="20" id="cell_1"><text x="15" y="-4" class="nodelabel cell_1" s:attribute="ref">1</text><s:alias val="$_constant_"/><rect width="30" height="20" class="cell_1"/><g s:x="30" s:y="10" s:pid="Y"/></g><g s:type="join" transform="translate(78.04,354.5)" s:width="4" s:height="40" id="cell_$join$,3,3,3,3,3,3,3,3,3,3,3,3,3,3,3,3,3,3,3,3,3,3,3,3,3,3,3,3,3,3,3,3,"><rect width="5" height="640" class="splitjoinBody" s:generic="body"/><s:alias val="$_join_"/><g s:x="5" s:y="20" s:pid="out"/><g transform="translate(0,10)" s:x="0" s:y="10" s:pid="in0"><text x="-3" y="-4" class="inputPortLabel">0</text></g><g transform="translate(0,30)" s:x="0" s:y="10" s:pid="in0"><text x="-3" y="-4" class="inputPortLabel">1</text></g><g transform="translate(0,50)" s:x="0" s:y="10" s:pid="in0"><text x="-3" y="-4" class="inputPortLabel">2</text></g><g transform="translate(0,70)" s:x="0" s:y="10" s:pid="in0"><text x="-3" y="-4" class="inputPortLabel">3</text></g><g transform="translate(0,90)" s:x="0" s:y="10" s:pid="in0"><text x="-3" y="-4" class="inputPortLabel">4</text></g><g transform="translate(0,110)" s:x="0" s:y="10" s:pid="in0"><text x="-3" y="-4" class="inputPortLabel">5</text></g><g transform="translate(0,130)" s:x="0" s:y="10" s:pid="in0"><text x="-3" y="-4" class="inputPortLabel">6</text></g><g transform="translate(0,150)" s:x="0" s:y="10" s:pid="in0"><text x="-3" y="-4" class="inputPortLabel">7</text></g><g transform="translate(0,170)" s:x="0" s:y="10" s:pid="in0"><text x="-3" y="-4" class="inputPortLabel">8</text></g><g transform="translate(0,190)" s:x="0" s:y="10" s:pid="in0"><text x="-3" y="-4" class="inputPortLabel">9</text></g><g transform="translate(0,210)" s:x="0" s:y="10" s:pid="in0"><text x="-3" y="-4" class="inputPortLabel">10</text></g><g transform="translate(0,230)" s:x="0" s:y="10" s:pid="in0"><text x="-3" y="-4" class="inputPortLabel">11</text></g><g transform="translate(0,250)" s:x="0" s:y="10" s:pid="in0"><text x="-3" y="-4" class="inputPortLabel">12</text></g><g transform="translate(0,270)" s:x="0" s:y="10" s:pid="in0"><text x="-3" y="-4" class="inputPortLabel">13</text></g><g transform="translate(0,290)" s:x="0" s:y="10" s:pid="in0"><text x="-3" y="-4" class="inputPortLabel">14</text></g><g transform="translate(0,310)" s:x="0" s:y="10" s:pid="in0"><text x="-3" y="-4" class="inputPortLabel">15</text></g><g transform="translate(0,330)" s:x="0" s:y="10" s:pid="in0"><text x="-3" y="-4" class="inputPortLabel">16</text></g><g transform="translate(0,350)" s:x="0" s:y="10" s:pid="in0"><text x="-3" y="-4" class="inputPortLabel">17</text></g><g transform="translate(0,370)" s:x="0" s:y="10" s:pid="in0"><text x="-3" y="-4" class="inputPortLabel">18</text></g><g transform="translate(0,390)" s:x="0" s:y="10" s:pid="in0"><text x="-3" y="-4" class="inputPortLabel">19</text></g><g transform="translate(0,410)" s:x="0" s:y="10" s:pid="in0"><text x="-3" y="-4" class="inputPortLabel">20</text></g><g transform="translate(0,430)" s:x="0" s:y="10" s:pid="in0"><text x="-3" y="-4" class="inputPortLabel">21</text></g><g transform="translate(0,450)" s:x="0" s:y="10" s:pid="in0"><text x="-3" y="-4" class="inputPortLabel">22</text></g><g transform="translate(0,470)" s:x="0" s:y="10" s:pid="in0"><text x="-3" y="-4" class="inputPortLabel">23</text></g><g transform="translate(0,490)" s:x="0" s:y="10" s:pid="in0"><text x="-3" y="-4" class="inputPortLabel">24</text></g><g transform="translate(0,510)" s:x="0" s:y="10" s:pid="in0"><text x="-3" y="-4" class="inputPortLabel">25</text></g><g transform="translate(0,530)" s:x="0" s:y="10" s:pid="in0"><text x="-3" y="-4" class="inputPortLabel">26</text></g><g transform="translate(0,550)" s:x="0" s:y="10" s:pid="in0"><text x="-3" y="-4" class="inputPortLabel">27</text></g><g transform="translate(0,570)" s:x="0" s:y="10" s:pid="in0"><text x="-3" y="-4" class="inputPortLabel">28</text></g><g transform="translate(0,590)" s:x="0" s:y="10" s:pid="in0"><text x="-3" y="-4" class="inputPortLabel">29</text></g><g transform="translate(0,610)" s:x="0" s:y="10" s:pid="in0"><text x="-3" y="-4" class="inputPortLabel">30</text></g><g transform="translate(0,630)" s:x="0" s:y="10" s:pid="in0"><text x="-3" y="-4" class="inputPortLabel">31</text></g></g><line x1="105" x2="286" y1="32.5" y2="32.5" class="net_4,5,6,7,8,9,10,11,12,13 width_10" style="stroke-width: 2"/><line x1="105" x2="117" y1="32.5" y2="32.5" class="net_4,5,6,7,8,9,10,11,12,13 width_10" style="stroke-width: 2"/><line x1="117" x2="117" y1="32.5" y2="272.5" class="net_4,5,6,7,8,9,10,11,12,13 width_10" style="stroke-width: 2"/><line x1="117" x2="212" y1="272.5" y2="272.5" class="net_4,5,6,7,8,9,10,11,12,13 width_10" style="stroke-width: 2"/><line x1="212" x2="212" y1="272.5" y2="132.5" class="net_4,5,6,7,8,9,10,11,12,13 width_10" style="stroke-width: 2"/><circle cx="117" cy="32.5" r="3" style="fill:#000" class="net_4,5,6,7,8,9,10,11,12,13 width_10"/><line x1="212" x2="285" y1="132.5" y2="132.5" class="net_4,5,6,7,8,9,10,11,12,13 width_10" style="stroke-width: 2"/><line x1="172" x2="182" y1="93.5" y2="93.5" class="net_78 width_1" style="stroke-width: 1"/><line x1="182" x2="182" y1="93.5" y2="52.5" class="net_78 width_1" style="stroke-width: 1"/><circle cx="182" cy="93.5" r="2" style="fill:#000" class="net_78 width_1"/><line x1="182" x2="285" y1="52.5" y2="52.5" class="net_78 width_1" style="stroke-width: 1"/><line x1="172" x2="182" y1="93.5" y2="93.5" class="net_78 width_1" style="stroke-width: 1"/><line x1="182" x2="182" y1="93.5" y2="112.5" class="net_78 width_1" style="stroke-width: 1"/><line x1="182" x2="285" y1="112.5" y2="112.5" class="net_78 width_1" style="stroke-width: 1"/><line x1="170" x2="202" y1="223.5" y2="223.5" class="net_2 width_1" style="stroke-width: 1"/><line x1="202" x2="202" y1="223.5" y2="72.5" class="net_2 width_1" style="stroke-width: 1"/><line x1="202" x2="285" y1="72.5" y2="72.5" class="net_2 width_1" style="stroke-width: 1"/><line x1="170" x2="202" y1="223.5" y2="223.5" class="net_2 width_1" style="stroke-width: 1"/><line x1="202" x2="202" y1="223.5" y2="152.5" class="net_2 width_1" style="stroke-width: 1"/><circle cx="202" cy="152.5" r="2" style="fill:#000" class="net_2 width_1"/><line x1="202" x2="285" y1="152.5" y2="152.5" class="net_2 width_1" style="stroke-width: 1"/><line x1="172" x2="192" y1="158.5" y2="158.5" class="net_79 width_1" style="stroke-width: 1"/><line x1="192" x2="192" y1="158.5" y2="92.5" class="net_79 width_1" style="stroke-width: 1"/><line x1="192" x2="285" y1="92.5" y2="92.5" class="net_79 width_1" style="stroke-width: 1"/><line x1="105" x2="222" y1="292.5" y2="292.5" class="net_14,15,16,17,18,19,20,21,22,23,24,25,26,27,28,29,30,31,32,33,34,35,36,37,38,39,40,41,42,43,44,45 width_32" style="stroke-width: 2"/><line x1="222" x2="222" y1="292.5" y2="172.5" class="net_14,15,16,17,18,19,20,21,22,23,24,25,26,27,28,29,30,31,32,33,34,35,36,37,38,39,40,41,42,43,44,45 width_32" style="stroke-width: 2"/><line x1="222" x2="285" y1="172.5" y2="172.5" class="net_14,15,16,17,18,19,20,21,22,23,24,25,26,27,28,29,30,31,32,33,34,35,36,37,38,39,40,41,42,43,44,45 width_32" style="stroke-width: 2"/><line x1="84.04" x2="232" y1="675" y2="675" class="net_3,3,3,3,3,3,3,3,3,3,3,3,3,3,3,3,3,3,3,3,3,3,3,3,3,3,3,3,3,3,3,3 width_32" style="stroke-width: 2"/><line x1="232" x2="232" y1="675" y2="192.5" class="net_3,3,3,3,3,3,3,3,3,3,3,3,3,3,3,3,3,3,3,3,3,3,3,3,3,3,3,3,3,3,3,3 width_32" style="stroke-width: 2"/><line x1="232" x2="285" y1="192.5" y2="192.5" class="net_3,3,3,3,3,3,3,3,3,3,3,3,3,3,3,3,3,3,3,3,3,3,3,3,3,3,3,3,3,3,3,3 width_32" style="stroke-width: 2"/><line x1="317" x2="434" y1="32.5" y2="32.5" class="net_46,47,48,49,50,51,52,53,54,55,56,57,58,59,60,61,62,63,64,65,66,67,68,69,70,71,72,73,74,75,76,77 width_32" style="stroke-width: 2"/><line x1="40" x2="52" y1="905" y2="905" class="net_3 width_1" style="stroke-width: 1"/><line x1="52" x2="52" y1="905" y2="342.5" class="net_3 width_1" style="stroke-width: 1"/><line x1="52" x2="78.54" y1="342.5" y2="342.5" class="net_3 width_1" style="stroke-width: 1"/><circle cx="52" cy="905" r="2" style="fill:#000" class="net_3 width_1"/><circle cx="52" cy="342.5" r="2" style="fill:#000" class="net_3 width_1"/><line x1="78.54" x2="78.54" y1="342.5" y2="364.5" class="net_3 width_1" style="stroke-width: 1"/><line x1="40" x2="52" y1="905" y2="905" class="net_3 width_1" style="stroke-width: 1"/><line x1="52" x2="52" y1="905" y2="332.5" class="net_3 width_1" style="stroke-width: 1"/><line x1="52" x2="78.54" y1="332.5" y2="332.5" class="net_3 width_1" style="stroke-width: 1"/><circle cx="52" cy="332.5" r="2" style="fill:#000" class="net_3 width_1"/><line x1="78.54" x2="78.54" y1="332.5" y2="384.5" class="net_3 width_1" style="stroke-width: 1"/><line x1="40" x2="52" y1="905" y2="905" class="net_3 width_1" style="stroke-width: 1"/><line x1="52" x2="52" y1="905" y2="322.5" class="net_3 width_1" style="stroke-width: 1"/><line x1="52" x2="78.54" y1="322.5" y2="322.5" class="net_3 width_1" style="stroke-width: 1"/><circle cx="52" cy="322.5" r="2" style="fill:#000" class="net_3 width_1"/><line x1="78.54" x2="78.54" y1="322.5" y2="404.5" class="net_3 width_1" style="stroke-width: 1"/><line x1="40" x2="52" y1="905" y2="905" class="net_3 width_1" style="stroke-width: 1"/><line x1="52" x2="52" y1="905" y2="312.5" class="net_3 width_1" style="stroke-width: 1"/><line x1="52" x2="78.54" y1="312.5" y2="312.5" class="net_3 width_1" style="stroke-width: 1"/><line x1="78.54" x2="78.54" y1="312.5" y2="424.5" class="net_3 width_1" style="stroke-width: 1"/><line x1="40" x2="52" y1="905" y2="905" class="net_3 width_1" style="stroke-width: 1"/><line x1="52" x2="52" y1="905" y2="445" class="net_3 width_1" style="stroke-width: 1"/><circle cx="52" cy="445" r="2" style="fill:#000" class="net_3 width_1"/><line x1="52" x2="78.04" y1="445" y2="445" class="net_3 width_1" style="stroke-width: 1"/><line x1="40" x2="52" y1="905" y2="905" class="net_3 width_1" style="stroke-width: 1"/><line x1="52" x2="52" y1="905" y2="465" class="net_3 width_1" style="stroke-width: 1"/><circle cx="52" cy="465" r="2" style="fill:#000" class="net_3 width_1"/><line x1="52" x2="78.04" y1="465" y2="465" class="net_3 width_1" style="stroke-width: 1"/><line x1="40" x2="52" y1="905" y2="905" class="net_3 width_1" style="stroke-width: 1"/><line x1="52" x2="52" y1="905" y2="485" class="net_3 width_1" style="stroke-width: 1"/><circle cx="52" cy="485" r="2" style="fill:#000" class="net_3 width_1"/><line x1="52" x2="78.04" y1="485" y2="485" class="net_3 width_1" style="stroke-width: 1"/><line x1="40" x2="52" y1="905" y2="905" class="net_3 width_1" style="stroke-width: 1"/><line x1="52" x2="52" y1="905" y2="505" class="net_3 width_1" style="stroke-width: 1"/><circle cx="52" cy="505" r="2" style="fill:#000" class="net_3 width_1"/><line x1="52" x2="78.04" y1="505" y2="505" class="net_3 width_1" style="stroke-width: 1"/><line x1="40" x2="52" y1="905" y2="905" class="net_3 width_1" style="stroke-width: 1"/><line x1="52" x2="52" y1="905" y2="525" class="net_3 width_1" style="stroke-width: 1"/><circle cx="52" cy="525" r="2" style="fill:#000" class="net_3 width_1"/><line x1="52" x2="78.04" y1="525" y2="525" class="net_3 width_1" style="stroke-width: 1"/><line x1="40" x2="52" y1="905" y2="905" class="net_3 width_1" style="stroke-width: 1"/><line x1="52" x2="52" y1="905" y2="545" class="net_3 width_1" style="stroke-width: 1"/><circle cx="52" cy="545" r="2" style="fill:#000" class="net_3 width_1"/><line x1="52" x2="78.04" y1="545" y2="545" class="net_3 width_1" style="stroke-width: 1"/><line x1="40" x2="52" y1="905" y2="905" class="net_3 width_1" style="stroke-width: 1"/><line x1="52" x2="52" y1="905" y2="565" class="net_3 width_1" style="stroke-width: 1"/><circle cx="52" cy="565" r="2" style="fill:#000" class="net_3 width_1"/><line x1="52" x2="78.04" y1="565" y2="565" class="net_3 width_1" style="stroke-width: 1"/><line x1="40" x2="52" y1="905" y2="905" class="net_3 width_1" style="stroke-width: 1"/><line x1="52" x2="52" y1="905" y2="585" class="net_3 width_1" style="stroke-width: 1"/><circle cx="52" cy="585" r="2" style="fill:#000" class="net_3 width_1"/><line x1="52" x2="78.04" y1="585" y2="585" class="net_3 width_1" style="stroke-width: 1"/><line x1="40" x2="52" y1="905" y2="905" class="net_3 width_1" style="stroke-width: 1"/><line x1="52" x2="52" y1="905" y2="605" class="net_3 width_1" style="stroke-width: 1"/><circle cx="52" cy="605" r="2" style="fill:#000" class="net_3 width_1"/><line x1="52" x2="78.04" y1="605" y2="605" class="net_3 width_1" style="stroke-width: 1"/><line x1="40" x2="52" y1="905" y2="905" class="net_3 width_1" style="stroke-width: 1"/><line x1="52" x2="52" y1="905" y2="625" class="net_3 width_1" style="stroke-width: 1"/><circle cx="52" cy="625" r="2" style="fill:#000" class="net_3 width_1"/><line x1="52" x2="78.04" y1="625" y2="625" class="net_3 width_1" style="stroke-width: 1"/><line x1="40" x2="52" y1="905" y2="905" class="net_3 width_1" style="stroke-width: 1"/><line x1="52" x2="52" y1="905" y2="645" class="net_3 width_1" style="stroke-width: 1"/><circle cx="52" cy="645" r="2" style="fill:#000" class="net_3 width_1"/><line x1="52" x2="78.04" y1="645" y2="645" class="net_3 width_1" style="stroke-width: 1"/><line x1="40" x2="52" y1="905" y2="905" class="net_3 width_1" style="stroke-width: 1"/><line x1="52" x2="52" y1="905" y2="665" class="net_3 width_1" style="stroke-width: 1"/><circle cx="52" cy="665" r="2" style="fill:#000" class="net_3 width_1"/><line x1="52" x2="78.04" y1="665" y2="665" class="net_3 width_1" style="stroke-width: 1"/><line x1="40" x2="52" y1="905" y2="905" class="net_3 width_1" style="stroke-width: 1"/><line x1="52" x2="52" y1="905" y2="685" class="net_3 width_1" style="stroke-width: 1"/><circle cx="52" cy="685" r="2" style="fill:#000" class="net_3 width_1"/><line x1="52" x2="78.04" y1="685" y2="685" class="net_3 width_1" style="stroke-width: 1"/><line x1="40" x2="52" y1="905" y2="905" class="net_3 width_1" style="stroke-width: 1"/><line x1="52" x2="52" y1="905" y2="705" class="net_3 width_1" style="stroke-width: 1"/><circle cx="52" cy="705" r="2" style="fill:#000" class="net_3 width_1"/><line x1="52" x2="78.04" y1="705" y2="705" class="net_3 width_1" style="stroke-width: 1"/><line x1="40" x2="52" y1="905" y2="905" class="net_3 width_1" style="stroke-width: 1"/><line x1="52" x2="52" y1="905" y2="725" class="net_3 width_1" style="stroke-width: 1"/><circle cx="52" cy="725" r="2" style="fill:#000" class="net_3 width_1"/><line x1="52" x2="78.04" y1="725" y2="725" class="net_3 width_1" style="stroke-width: 1"/><line x1="40" x2="52" y1="905" y2="905" class="net_3 width_1" style="stroke-width: 1"/><line x1="52" x2="52" y1="905" y2="745" class="net_3 width_1" style="stroke-width: 1"/><circle cx="52" cy="745" r="2" style="fill:#000" class="net_3 width_1"/><line x1="52" x2="78.04" y1="745" y2="745" class="net_3 width_1" style="stroke-width: 1"/><line x1="40" x2="52" y1="905" y2="905" class="net_3 width_1" style="stroke-width: 1"/><line x1="52" x2="52" y1="905" y2="765" class="net_3 width_1" style="stroke-width: 1"/><circle cx="52" cy="765" r="2" style="fill:#000" class="net_3 width_1"/><line x1="52" x2="78.04" y1="765" y2="765" class="net_3 width_1" style="stroke-width: 1"/><line x1="40" x2="52" y1="905" y2="905" class="net_3 width_1" style="stroke-width: 1"/><line x1="52" x2="52" y1="905" y2="785" class="net_3 width_1" style="stroke-width: 1"/><circle cx="52" cy="785" r="2" style="fill:#000" class="net_3 width_1"/><line x1="52" x2="78.04" y1="785" y2="785" class="net_3 width_1" style="stroke-width: 1"/><line x1="40" x2="52" y1="905" y2="905" class="net_3 width_1" style="stroke-width: 1"/><line x1="52" x2="52" y1="905" y2="805" class="net_3 width_1" style="stroke-width: 1"/><circle cx="52" cy="805" r="2" style="fill:#000" class="net_3 width_1"/><line x1="52" x2="78.04" y1="805" y2="805" class="net_3 width_1" style="stroke-width: 1"/><line x1="40" x2="52" y1="905" y2="905" class="net_3 width_1" style="stroke-width: 1"/><line x1="52" x2="52" y1="905" y2="825" class="net_3 width_1" style="stroke-width: 1"/><circle cx="52" cy="825" r="2" style="fill:#000" class="net_3 width_1"/><line x1="52" x2="78.04" y1="825" y2="825" class="net_3 width_1" style="stroke-width: 1"/><line x1="40" x2="52" y1="905" y2="905" class="net_3 width_1" style="stroke-width: 1"/><line x1="52" x2="52" y1="905" y2="845" class="net_3 width_1" style="stroke-width: 1"/><circle cx="52" cy="845" r="2" style="fill:#000" class="net_3 width_1"/><line x1="52" x2="78.04" y1="845" y2="845" class="net_3 width_1" style="stroke-width: 1"/><line x1="40" x2="52" y1="905" y2="905" class="net_3 width_1" style="stroke-width: 1"/><line x1="52" x2="52" y1="905" y2="865" class="net_3 width_1" style="stroke-width: 1"/><circle cx="52" cy="865" r="2" style="fill:#000" class="net_3 width_1"/><line x1="52" x2="78.04" y1="865" y2="865" class="net_3 width_1" style="stroke-width: 1"/><line x1="40" x2="52" y1="905" y2="905" class="net_3 width_1" style="stroke-width: 1"/><line x1="52" x2="52" y1="905" y2="885" class="net_3 width_1" style="stroke-width: 1"/><circle cx="52" cy="885" r="2" style="fill:#000" class="net_3 width_1"/><line x1="52" x2="78.04" y1="885" y2="885" class="net_3 width_1" style="stroke-width: 1"/><line x1="40" x2="78.04" y1="905" y2="905" class="net_3 width_1" style="stroke-width: 1"/><line x1="40" x2="52" y1="905" y2="905" class="net_3 width_1" style="stroke-width: 1"/><line x1="52" x2="52" y1="905" y2="1034.5" class="net_3 width_1" style="stroke-width: 1"/><line x1="52" x2="78.54" y1="1034.5" y2="1034.5" class="net_3 width_1" style="stroke-width: 1"/><line x1="78.54" x2="78.54" y1="1034.5" y2="925.5" class="net_3 width_1" style="stroke-width: 1"/><line x1="40" x2="52" y1="905" y2="905" class="net_3 width_1" style="stroke-width: 1"/><line x1="52" x2="52" y1="905" y2="1024.5" class="net_3 width_1" style="stroke-width: 1"/><line x1="52" x2="78.54" y1="1024.5" y2="1024.5" class="net_3 width_1" style="stroke-width: 1"/><circle cx="52" cy="1024.5" r="2" style="fill:#000" class="net_3 width_1"/><line x1="78.54" x2="78.54" y1="1024.5" y2="945.5" class="net_3 width_1" style="stroke-width: 1"/><line x1="40" x2="52" y1="905" y2="905" class="net_3 width_1" style="stroke-width: 1"/><line x1="52" x2="52" y1="905" y2="1014.5" class="net_3 width_1" style="stroke-width: 1"/><line x1="52" x2="78.54" y1="1014.5" y2="1014.5" class="net_3 width_1" style="stroke-width: 1"/><circle cx="52" cy="1014.5" r="2" style="fill:#000" class="net_3 width_1"/><line x1="78.54" x2="78.54" y1="1014.5" y2="965.5" class="net_3 width_1" style="stroke-width: 1"/><line x1="40" x2="52" y1="905" y2="905" class="net_3 width_1" style="stroke-width: 1"/><line x1="52" x2="52" y1="905" y2="1004.5" class="net_3 width_1" style="stroke-width: 1"/><line x1="52" x2="78.54" y1="1004.5" y2="1004.5" class="net_3 width_1" style="stroke-width: 1"/><circle cx="52" cy="1004.5" r="2" style="fill:#000" class="net_3 width_1"/><line x1="78.54" x2="78.54" y1="1004.5" y2="985.5" class="net_3 width_1" style="stroke-width: 1"/><rect x="156" y="267.5" width="22" height="9" class="net_4,5,6,7,8,9,10,11,12,13 width_10 busLabel_10" style="fill: white; stroke: none"/><text x="155" y="275.5" class="net_4,5,6,7,8,9,10,11,12,13 width_10 busLabel_10">/10/</text><rect x="156" y="267.5" width="22" height="9" class="net_4,5,6,7,8,9,10,11,12,13 width_10 busLabel_10" style="fill: white; stroke: none"/><text x="155" y="275.5" class="net_4,5,6,7,8,9,10,11,12,13 width_10 busLabel_10">/10/</text><rect x="156" y="287.5" width="22" height="9" class="net_14,15,16,17,18,19,20,21,22,23,24,25,26,27,28,29,30,31,32,33,34,35,36,37,38,39,40,41,42,43,44,45 width_32 busLabel_32" style="fill: white; stroke: none"/><text x="155" y="295.5" class="net_14,15,16,17,18,19,20,21,22,23,24,25,26,27,28,29,30,31,32,33,34,35,36,37,38,39,40,41,42,43,44,45 width_32 busLabel_32">/32/</text><rect x="156" y="670" width="22" height="9" class="net_3,3,3,3,3,3,3,3,3,3,3,3,3,3,3,3,3,3,3,3,3,3,3,3,3,3,3,3,3,3,3,3 width_32 busLabel_32" style="fill: white; stroke: none"/><text x="155" y="678" class="net_3,3,3,3,3,3,3,3,3,3,3,3,3,3,3,3,3,3,3,3,3,3,3,3,3,3,3,3,3,3,3,3 width_32 busLabel_32">/32/</text><rect x="396" y="27.5" width="22" height="9" class="net_46,47,48,49,50,51,52,53,54,55,56,57,58,59,60,61,62,63,64,65,66,67,68,69,70,71,72,73,74,75,76,77 width_32 busLabel_32" style="fill: white; stroke: none"/><text x="395" y="35.5" class="net_46,47,48,49,50,51,52,53,54,55,56,57,58,59,60,61,62,63,64,65,66,67,68,69,70,71,72,73,74,75,76,77 width_32 busLabel_32">/32/</text></svg>