<svg xmlns="http://www.w3.org/2000/svg" xmlns:xlink="http://www.w3.org/1999/xlink" xmlns:s="https://github.com/nturley/netlistsvg" width="783" height="1160"><style>svg {
  stroke:#000;
  fill:none;
}
text {
  fill:#000;
  stroke:none;
  font-size:10px;
  font-weight: bold;
  font-family: "Courier New", monospace;
}
.nodelabel {
  text-anchor: middle;
}
.inputPortLabel {
  text-anchor: end;
}
.splitjoinBody {
  fill:#000;
}</style><g s:type="generic" transform="translate(589,1105)" s:width="30" s:height="40" id="cell_$procdff$3093"><text x="15" y="-4" class="nodelabel cell_$procdff$3093" s:attribute="ref">$dff-bus</text><rect width="30" height="40" s:generic="body" class="cell_$procdff$3093"/><g transform="translate(0,10)" s:x="0" s:y="10" s:pid="in0" id="port_$procdff$3093~CLK"><text x="-3" y="-4" class="inputPortLabel cell_$procdff$3093">CLK</text></g><g transform="translate(0,30)" s:x="0" s:y="10" s:pid="in0" id="port_$procdff$3093~D"><text x="-3" y="-4" class="inputPortLabel cell_$procdff$3093">D</text></g><g transform="translate(30,10)" s:x="30" s:y="10" s:pid="out0" id="port_$procdff$3093~Q"><text x="5" y="-4" style="fill:#000; stroke:none" class="cell_$procdff$3093">Q</text></g></g><g s:type="mux" transform="translate(77,888)" s:width="20" s:height="40" id="cell_$procmux$3085"><s:alias val="$pmux"/><s:alias val="$mux"/><s:alias val="$_MUX_"/><path d="M0,0 L20,10 L20,30 L0,40 Z" class="cell_$procmux$3085"/><g s:x="0" s:y="10" s:pid="A"/><g s:x="0" s:y="30" s:pid="B"/><g s:x="10" s:y="35" s:pid="S"/><g s:x="20" s:y="20" s:pid="Y"/></g><g s:type="generic" transform="translate(155,1062.5)" s:width="30" s:height="40" id="cell_$procmux$3088"><text x="15" y="-4" class="nodelabel cell_$procmux$3088" s:attribute="ref">$mux-bus</text><rect width="30" height="60" s:generic="body" class="cell_$procmux$3088"/><g transform="translate(0,10)" s:x="0" s:y="10" s:pid="in0" id="port_$procmux$3088~A"><text x="-3" y="-4" class="inputPortLabel cell_$procmux$3088">A</text></g><g transform="translate(0,30)" s:x="0" s:y="10" s:pid="in0" id="port_$procmux$3088~B"><text x="-3" y="-4" class="inputPortLabel cell_$procmux$3088">B</text></g><g transform="translate(0,50)" s:x="0" s:y="10" s:pid="in0" id="port_$procmux$3088~S"><text x="-3" y="-4" class="inputPortLabel cell_$procmux$3088">S</text></g><g transform="translate(30,10)" s:x="30" s:y="10" s:pid="out0" id="port_$procmux$3088~Y"><text x="5" y="-4" style="fill:#000; stroke:none" class="cell_$procmux$3088">Y</text></g></g><g s:type="generic" transform="translate(155,231.5)" s:width="30" s:height="40" id="cell_$procmux$3091"><text x="15" y="-4" class="nodelabel cell_$procmux$3091" s:attribute="ref">$mux-bus</text><rect width="30" height="60" s:generic="body" class="cell_$procmux$3091"/><g transform="translate(0,10)" s:x="0" s:y="10" s:pid="in0" id="port_$procmux$3091~A"><text x="-3" y="-4" class="inputPortLabel cell_$procmux$3091">A</text></g><g transform="translate(0,30)" s:x="0" s:y="10" s:pid="in0" id="port_$procmux$3091~B"><text x="-3" y="-4" class="inputPortLabel cell_$procmux$3091">B</text></g><g transform="translate(0,50)" s:x="0" s:y="10" s:pid="in0" id="port_$procmux$3091~S"><text x="-3" y="-4" class="inputPortLabel cell_$procmux$3091">S</text></g><g transform="translate(30,10)" s:x="30" s:y="10" s:pid="out0" id="port_$procmux$3091~Y"><text x="5" y="-4" style="fill:#000; stroke:none" class="cell_$procmux$3091">Y</text></g></g><g s:type="generic" transform="translate(422,922.5)" s:width="30" s:height="40" id="cell_mem"><text x="15" y="-4" class="nodelabel cell_mem" s:attribute="ref">$mem_v2-bus</text><rect width="30" height="180" s:generic="body" class="cell_mem"/><g transform="translate(0,10)" s:x="0" s:y="10" s:pid="in0" id="port_mem~RD_ADDR"><text x="-3" y="-4" class="inputPortLabel cell_mem">RD_ADDR</text></g><g transform="translate(0,30)" s:x="0" s:y="10" s:pid="in0" id="port_mem~RD_ARST"><text x="-3" y="-4" class="inputPortLabel cell_mem">RD_ARST</text></g><g transform="translate(0,50)" s:x="0" s:y="10" s:pid="in0" id="port_mem~RD_CLK"><text x="-3" y="-4" class="inputPortLabel cell_mem">RD_CLK</text></g><g transform="translate(0,70)" s:x="0" s:y="10" s:pid="in0" id="port_mem~RD_EN"><text x="-3" y="-4" class="inputPortLabel cell_mem">RD_EN</text></g><g transform="translate(0,90)" s:x="0" s:y="10" s:pid="in0" id="port_mem~RD_SRST"><text x="-3" y="-4" class="inputPortLabel cell_mem">RD_SRST</text></g><g transform="translate(0,110)" s:x="0" s:y="10" s:pid="in0" id="port_mem~WR_ADDR"><text x="-3" y="-4" class="inputPortLabel cell_mem">WR_ADDR</text></g><g transform="translate(0,130)" s:x="0" s:y="10" s:pid="in0" id="port_mem~WR_CLK"><text x="-3" y="-4" class="inputPortLabel cell_mem">WR_CLK</text></g><g transform="translate(0,150)" s:x="0" s:y="10" s:pid="in0" id="port_mem~WR_DATA"><text x="-3" y="-4" class="inputPortLabel cell_mem">WR_DATA</text></g><g transform="translate(0,170)" s:x="0" s:y="10" s:pid="in0" id="port_mem~WR_EN"><text x="-3" y="-4" class="inputPortLabel cell_mem">WR_EN</text></g><g transform="translate(30,10)" s:x="30" s:y="10" s:pid="out0" id="port_mem~RD_DATA"><text x="5" y="-4" style="fill:#000; stroke:none" class="cell_mem">RD_DATA</text></g></g><g s:type="inputExt" transform="translate(268,619)" s:width="30" s:height="20" id="cell_clk"><text x="15" y="-4" class="nodelabel cell_clk" s:attribute="ref">clk</text><s:alias val="$_inputExt_"/><path d="M0,0 L0,20 L15,20 L30,10 L15,0 Z" class="cell_clk"/><g s:x="28" s:y="10" s:pid="Y"/></g><g s:type="inputExt" transform="translate(12,1103)" s:width="30" s:height="20" id="cell_we"><text x="15" y="-4" class="nodelabel cell_we" s:attribute="ref">we</text><s:alias val="$_inputExt_"/><path d="M0,0 L0,20 L15,20 L30,10 L15,0 Z" class="cell_we"/><g s:x="28" s:y="10" s:pid="Y"/></g><g s:type="inputExt" transform="translate(12,22)" s:width="30" s:height="20" id="cell_addr"><text x="15" y="-4" class="nodelabel cell_addr" s:attribute="ref">addr</text><s:alias val="$_inputExt_"/><path d="M0,0 L0,20 L15,20 L30,10 L15,0 Z" class="cell_addr"/><g s:x="28" s:y="10" s:pid="Y"/></g><g s:type="inputExt" transform="translate(12,1038)" s:width="30" s:height="20" id="cell_wdata"><text x="15" y="-4" class="nodelabel cell_wdata" s:attribute="ref">wdata</text><s:alias val="$_inputExt_"/><path d="M0,0 L0,20 L15,20 L30,10 L15,0 Z" class="cell_wdata"/><g s:x="28" s:y="10" s:pid="Y"/></g><g s:type="outputExt" transform="translate(741,1105.5)" s:width="30" s:height="20" id="cell_rdata"><text x="15" y="-4" class="nodelabel cell_rdata" s:attribute="ref">rdata</text><s:alias val="$_outputExt_"/><path d="M30,0 L30,20 L15,20 L0,10 L15,0 Z" class="cell_rdata"/><g s:x="0" s:y="10" s:pid="A"/></g><g s:type="constant" transform="translate(12,152)" s:width="30" s:height="20" id="cell_0"><text x="15" y="-4" class="nodelabel cell_0" s:attribute="ref">0</text><s:alias val="$_constant_"/><rect width="30" height="20" class="cell_0"/><g s:x="30" s:y="10" s:pid="Y"/></g><g s:type="constant" transform="translate(12,908)" s:width="30" s:height="20" id="cell_1"><text x="15" y="-4" class="nodelabel cell_1" s:attribute="ref">1</text><s:alias val="$_constant_"/><rect width="30" height="20" class="cell_1"/><g s:x="30" s:y="10" s:pid="Y"/></g><g s:type="constant" transform="translate(12,973)" s:width="30" s:height="20" id="cell_xxxxxxxxxxxxxxxxxxxxxxxxxxxxxxxx"><text x="15" y="-4" class="nodelabel cell_xxxxxxxxxxxxxxxxxxxxxxxxxxxxxxxx" s:attribute="ref">0xNaN</text><s:alias val="$_constant_"/><rect width="30" height="20" class="cell_xxxxxxxxxxxxxxxxxxxxxxxxxxxxxxxx"/><g s:x="30" s:y="10" s:pid="Y"/></g><g s:type="constant" transform="translate(12,87)" s:width="30" s:height="20" id="cell_xxxxxxxxxx"><text x="15" y="-4" class="nodelabel cell_xxxxxxxxxx" s:attribute="ref">0xNaN</text><s:alias val="$_constant_"/><rect width="30" height="20" class="cell_xxxxxxxxxx"/><g s:x="30" s:y="10" s:pid="Y"/></g><g s:type="constant" transform="translate(268,183)" s:width="30" s:height="20" id="cell_x"><text x="15" y="-4" class="nodelabel cell_x" s:attribute="ref">x</text><s:alias val="$_constant_"/><rect width="30" height="20" class="cell_x"/><g s:x="30" s:y="10" s:pid="Y"/></g><g s:type="join" transform="translate(157.64,357.5)" s:width="4" s:height="40" id="cell_$join$,110,110,110,110,110,110,110,110,110,110,110,110,110,110,110,110,110,110,110,110,110,110,110,110,110,110,110,110,110,110,110,110,"><rect width="5" height="640" class="splitjoinBody" s:generic="body"/><s:alias val="$_join_"/><g s:x="5" s:y="20" s:pid="out"/><g transform="translate(0,10)" s:x="0" s:y="10" s:pid="in0"><text x="-3" y="-4" class="inputPortLabel">0</text></g><g transform="translate(0,30)" s:x="0" s:y="10" s:pid="in0"><text x="-3" y="-4" class="inputPortLabel">1</text></g><g transform="translate(0,50)" s:x="0" s:y="10" s:pid="in0"><text x="-3" y="-4" class="inputPortLabel">2</text></g><g transform="translate(0,70)" s:x="0" s:y="10" s:pid="in0"><text x="-3" y="-4" class="inputPortLabel">3</text></g><g transform="translate(0,90)" s:x="0" s:y="10" s:pid="in0"><text x="-3" y="-4" class="inputPortLabel">4</text></g><g transform="translate(0,110)" s:x="0" s:y="10" s:pid="in0"><text x="-3" y="-4" class="inputPortLabel">5</text></g><g transform="translate(0,130)" s:x="0" s:y="10" s:pid="in0"><text x="-3" y="-4" class="inputPortLabel">6</text></g><g transform="translate(0,150)" s:x="0" s:y="10" s:pid="in0"><text x="-3" y="-4" class="inputPortLabel">7</text></g><g transform="translate(0,170)" s:x="0" s:y="10" s:pid="in0"><text x="-3" y="-4" class="inputPortLabel">8</text></g><g transform="translate(0,190)" s:x="0" s:y="10" s:pid="in0"><text x="-3" y="-4" class="inputPortLabel">9</text></g><g transform="translate(0,210)" s:x="0" s:y="10" s:pid="in0"><text x="-3" y="-4" class="inputPortLabel">10</text></g><g transform="translate(0,230)" s:x="0" s:y="10" s:pid="in0"><text x="-3" y="-4" class="inputPortLabel">11</text></g><g transform="translate(0,250)" s:x="0" s:y="10" s:pid="in0"><text x="-3" y="-4" class="inputPortLabel">12</text></g><g transform="translate(0,270)" s:x="0" s:y="10" s:pid="in0"><text x="-3" y="-4" class="inputPortLabel">13</text></g><g transform="translate(0,290)" s:x="0" s:y="10" s:pid="in0"><text x="-3" y="-4" class="inputPortLabel">14</text></g><g transform="translate(0,310)" s:x="0" s:y="10" s:pid="in0"><text x="-3" y="-4" class="inputPortLabel">15</text></g><g transform="translate(0,330)" s:x="0" s:y="10" s:pid="in0"><text x="-3" y="-4" class="inputPortLabel">16</text></g><g transform="translate(0,350)" s:x="0" s:y="10" s:pid="in0"><text x="-3" y="-4" class="inputPortLabel">17</text></g><g transform="translate(0,370)" s:x="0" s:y="10" s:pid="in0"><text x="-3" y="-4" class="inputPortLabel">18</text></g><g transform="translate(0,390)" s:x="0" s:y="10" s:pid="in0"><text x="-3" y="-4" class="inputPortLabel">19</text></g><g transform="translate(0,410)" s:x="0" s:y="10" s:pid="in0"><text x="-3" y="-4" class="inputPortLabel">20</text></g><g transform="translate(0,430)" s:x="0" s:y="10" s:pid="in0"><text x="-3" y="-4" class="inputPortLabel">21</text></g><g transform="translate(0,450)" s:x="0" s:y="10" s:pid="in0"><text x="-3" y="-4" class="inputPortLabel">22</text></g><g transform="translate(0,470)" s:x="0" s:y="10" s:pid="in0"><text x="-3" y="-4" class="inputPortLabel">23</text></g><g transform="translate(0,490)" s:x="0" s:y="10" s:pid="in0"><text x="-3" y="-4" class="inputPortLabel">24</text></g><g transform="translate(0,510)" s:x="0" s:y="10" s:pid="in0"><text x="-3" y="-4" class="inputPortLabel">25</text></g><g transform="translate(0,530)" s:x="0" s:y="10" s:pid="in0"><text x="-3" y="-4" class="inputPortLabel">26</text></g><g transform="translate(0,550)" s:x="0" s:y="10" s:pid="in0"><text x="-3" y="-4" class="inputPortLabel">27</text></g><g transform="translate(0,570)" s:x="0" s:y="10" s:pid="in0"><text x="-3" y="-4" class="inputPortLabel">28</text></g><g transform="translate(0,590)" s:x="0" s:y="10" s:pid="in0"><text x="-3" y="-4" class="inputPortLabel">29</text></g><g transform="translate(0,610)" s:x="0" s:y="10" s:pid="in0"><text x="-3" y="-4" class="inputPortLabel">30</text></g><g transform="translate(0,630)" s:x="0" s:y="10" s:pid="in0"><text x="-3" y="-4" class="inputPortLabel">31</text></g></g><line x1="296" x2="318" y1="629" y2="629" class="net_2 width_1" style="stroke-width: 1"/><line x1="318" x2="318" y1="629" y2="1115.5" class="net_2 width_1" style="stroke-width: 1"/><line x1="318" x2="589" y1="1115.5" y2="1115.5" class="net_2 width_1" style="stroke-width: 1"/><line x1="296" x2="318" y1="629" y2="629" class="net_2 width_1" style="stroke-width: 1"/><line x1="318" x2="318" y1="629" y2="1053" class="net_2 width_1" style="stroke-width: 1"/><circle cx="318" cy="1053" r="2" style="fill:#000" class="net_2 width_1"/><line x1="318" x2="421" y1="1053" y2="1053" class="net_2 width_1" style="stroke-width: 1"/><line x1="453" x2="545" y1="933" y2="933" class="net_78,79,80,81,82,83,84,85,86,87,88,89,90,91,92,93,94,95,96,97,98,99,100,101,102,103,104,105,106,107,108,109 width_32" style="stroke-width: 2"/><line x1="545" x2="545" y1="933" y2="1135.5" class="net_78,79,80,81,82,83,84,85,86,87,88,89,90,91,92,93,94,95,96,97,98,99,100,101,102,103,104,105,106,107,108,109 width_32" style="stroke-width: 2"/><line x1="545" x2="588" y1="1135.5" y2="1135.5" class="net_78,79,80,81,82,83,84,85,86,87,88,89,90,91,92,93,94,95,96,97,98,99,100,101,102,103,104,105,106,107,108,109 width_32" style="stroke-width: 2"/><line x1="42" x2="62" y1="162" y2="162" class="net_153 width_1" style="stroke-width: 1"/><line x1="62" x2="62" y1="162" y2="898" class="net_153 width_1" style="stroke-width: 1"/><circle cx="62" cy="162" r="2" style="fill:#000" class="net_153 width_1"/><line x1="62" x2="77" y1="898" y2="898" class="net_153 width_1" style="stroke-width: 1"/><line x1="42" x2="358" y1="162" y2="162" class="net_153 width_1" style="stroke-width: 1"/><line x1="358" x2="358" y1="162" y2="953" class="net_153 width_1" style="stroke-width: 1"/><circle cx="358" cy="953" r="2" style="fill:#000" class="net_153 width_1"/><line x1="358" x2="421" y1="953" y2="953" class="net_153 width_1" style="stroke-width: 1"/><line x1="42" x2="358" y1="162" y2="162" class="net_153 width_1" style="stroke-width: 1"/><line x1="358" x2="358" y1="162" y2="1013" class="net_153 width_1" style="stroke-width: 1"/><line x1="358" x2="421" y1="1013" y2="1013" class="net_153 width_1" style="stroke-width: 1"/><line x1="42" x2="77" y1="918" y2="918" class="net_154 width_1" style="stroke-width: 1"/><line x1="42" x2="52" y1="918" y2="918" class="net_154 width_1" style="stroke-width: 1"/><line x1="52" x2="52" y1="918" y2="304.5" class="net_154 width_1" style="stroke-width: 1"/><line x1="52" x2="328" y1="304.5" y2="304.5" class="net_154 width_1" style="stroke-width: 1"/><line x1="328" x2="328" y1="304.5" y2="993" class="net_154 width_1" style="stroke-width: 1"/><circle cx="52" cy="918" r="2" style="fill:#000" class="net_154 width_1"/><line x1="328" x2="421" y1="993" y2="993" class="net_154 width_1" style="stroke-width: 1"/><line x1="40" x2="52" y1="1113" y2="1113" class="net_3 width_1" style="stroke-width: 1"/><line x1="52" x2="52" y1="1113" y2="1103" class="net_3 width_1" style="stroke-width: 1"/><line x1="52" x2="87" y1="1103" y2="1103" class="net_3 width_1" style="stroke-width: 1"/><circle cx="52" cy="1113" r="2" style="fill:#000" class="net_3 width_1"/><line x1="87" x2="87" y1="1103" y2="923" class="net_3 width_1" style="stroke-width: 1"/><line x1="40" x2="154" y1="1113" y2="1113" class="net_3 width_1" style="stroke-width: 1"/><line x1="40" x2="117" y1="1113" y2="1113" class="net_3 width_1" style="stroke-width: 1"/><line x1="117" x2="117" y1="1113" y2="282" class="net_3 width_1" style="stroke-width: 1"/><circle cx="117" cy="1113" r="2" style="fill:#000" class="net_3 width_1"/><line x1="117" x2="154" y1="282" y2="282" class="net_3 width_1" style="stroke-width: 1"/><line x1="42" x2="127" y1="983" y2="983" class="net_155,156,157,158,159,160,161,162,163,164,165,166,167,168,169,170,171,172,173,174,175,176,177,178,179,180,181,182,183,184,185,186 width_32" style="stroke-width: 2"/><line x1="127" x2="127" y1="983" y2="1073" class="net_155,156,157,158,159,160,161,162,163,164,165,166,167,168,169,170,171,172,173,174,175,176,177,178,179,180,181,182,183,184,185,186 width_32" style="stroke-width: 2"/><line x1="127" x2="155" y1="1073" y2="1073" class="net_155,156,157,158,159,160,161,162,163,164,165,166,167,168,169,170,171,172,173,174,175,176,177,178,179,180,181,182,183,184,185,186 width_32" style="stroke-width: 2"/><line x1="40" x2="107" y1="1048" y2="1048" class="net_14,15,16,17,18,19,20,21,22,23,24,25,26,27,28,29,30,31,32,33,34,35,36,37,38,39,40,41,42,43,44,45 width_32" style="stroke-width: 2"/><line x1="107" x2="107" y1="1048" y2="1093" class="net_14,15,16,17,18,19,20,21,22,23,24,25,26,27,28,29,30,31,32,33,34,35,36,37,38,39,40,41,42,43,44,45 width_32" style="stroke-width: 2"/><line x1="107" x2="154" y1="1093" y2="1093" class="net_14,15,16,17,18,19,20,21,22,23,24,25,26,27,28,29,30,31,32,33,34,35,36,37,38,39,40,41,42,43,44,45 width_32" style="stroke-width: 2"/><line x1="42" x2="107" y1="97" y2="97" class="net_187,188,189,190,191,192,193,194,195,196 width_10" style="stroke-width: 2"/><line x1="107" x2="107" y1="97" y2="242" class="net_187,188,189,190,191,192,193,194,195,196 width_10" style="stroke-width: 2"/><line x1="107" x2="155" y1="242" y2="242" class="net_187,188,189,190,191,192,193,194,195,196 width_10" style="stroke-width: 2"/><line x1="40" x2="117" y1="32" y2="32" class="net_4,5,6,7,8,9,10,11,12,13 width_10" style="stroke-width: 2"/><line x1="117" x2="117" y1="32" y2="262" class="net_4,5,6,7,8,9,10,11,12,13 width_10" style="stroke-width: 2"/><line x1="117" x2="154" y1="262" y2="262" class="net_4,5,6,7,8,9,10,11,12,13 width_10" style="stroke-width: 2"/><line x1="40" x2="52" y1="32" y2="32" class="net_4,5,6,7,8,9,10,11,12,13 width_10" style="stroke-width: 2"/><line x1="52" x2="52" y1="32" y2="17" class="net_4,5,6,7,8,9,10,11,12,13 width_10" style="stroke-width: 2"/><line x1="52" x2="368" y1="17" y2="17" class="net_4,5,6,7,8,9,10,11,12,13 width_10" style="stroke-width: 2"/><line x1="368" x2="368" y1="17" y2="933" class="net_4,5,6,7,8,9,10,11,12,13 width_10" style="stroke-width: 2"/><circle cx="52" cy="32" r="3" style="fill:#000" class="net_4,5,6,7,8,9,10,11,12,13 width_10"/><line x1="368" x2="422" y1="933" y2="933" class="net_4,5,6,7,8,9,10,11,12,13 width_10" style="stroke-width: 2"/><line x1="298" x2="348" y1="193" y2="193" class="net_198 width_1" style="stroke-width: 1"/><line x1="348" x2="348" y1="193" y2="973" class="net_198 width_1" style="stroke-width: 1"/><line x1="348" x2="421" y1="973" y2="973" class="net_198 width_1" style="stroke-width: 1"/><line x1="186" x2="338" y1="242" y2="242" class="net_143,144,145,146,147,148,149,150,151,152 width_10" style="stroke-width: 2"/><line x1="338" x2="338" y1="242" y2="1033" class="net_143,144,145,146,147,148,149,150,151,152 width_10" style="stroke-width: 2"/><line x1="338" x2="421" y1="1033" y2="1033" class="net_143,144,145,146,147,148,149,150,151,152 width_10" style="stroke-width: 2"/><line x1="186" x2="421" y1="1073" y2="1073" class="net_111,112,113,114,115,116,117,118,119,120,121,122,123,124,125,126,127,128,129,130,131,132,133,134,135,136,137,138,139,140,141,142 width_32" style="stroke-width: 2"/><line x1="163.64" x2="308" y1="678" y2="678" class="net_110,110,110,110,110,110,110,110,110,110,110,110,110,110,110,110,110,110,110,110,110,110,110,110,110,110,110,110,110,110,110,110 width_32" style="stroke-width: 2"/><line x1="308" x2="308" y1="678" y2="1093" class="net_110,110,110,110,110,110,110,110,110,110,110,110,110,110,110,110,110,110,110,110,110,110,110,110,110,110,110,110,110,110,110,110 width_32" style="stroke-width: 2"/><line x1="308" x2="421" y1="1093" y2="1093" class="net_110,110,110,110,110,110,110,110,110,110,110,110,110,110,110,110,110,110,110,110,110,110,110,110,110,110,110,110,110,110,110,110 width_32" style="stroke-width: 2"/><line x1="620" x2="741" y1="1115.5" y2="1115.5" class="net_46,47,48,49,50,51,52,53,54,55,56,57,58,59,60,61,62,63,64,65,66,67,68,69,70,71,72,73,74,75,76,77 width_32" style="stroke-width: 2"/><line x1="97" x2="137" y1="908" y2="908" class="net_110 width_1" style="stroke-width: 1"/><line x1="137" x2="137" y1="908" y2="345.5" class="net_110 width_1" style="stroke-width: 1"/><line x1="137" x2="158.14" y1="345.5" y2="345.5" class="net_110 width_1" style="stroke-width: 1"/><circle cx="137" cy="908" r="2" style="fill:#000" class="net_110 width_1"/><circle cx="137" cy="345.5" r="2" style="fill:#000" class="net_110 width_1"/><line x1="158.14" x2="158.14" y1="345.5" y2="367.5" class="net_110 width_1" style="stroke-width: 1"/><line x1="97" x2="137" y1="908" y2="908" class="net_110 width_1" style="stroke-width: 1"/><line x1="137" x2="137" y1="908" y2="335.5" class="net_110 width_1" style="stroke-width: 1"/><line x1="137" x2="158.14" y1="335.5" y2="335.5" class="net_110 width_1" style="stroke-width: 1"/><circle cx="137" cy="335.5" r="2" style="fill:#000" class="net_110 width_1"/><line x1="158.14" x2="158.14" y1="335.5" y2="387.5" class="net_110 width_1" style="stroke-width: 1"/><line x1="97" x2="137" y1="908" y2="908" class="net_110 width_1" style="stroke-width: 1"/><line x1="137" x2="137" y1="908" y2="325.5" class="net_110 width_1" style="stroke-width: 1"/><line x1="137" x2="158.14" y1="325.5" y2="325.5" class="net_110 width_1" style="stroke-width: 1"/><circle cx="137" cy="325.5" r="2" style="fill:#000" class="net_110 width_1"/><line x1="158.14" x2="158.14" y1="325.5" y2="407.5" class="net_110 width_1" style="stroke-width: 1"/><line x1="97" x2="137" y1="908" y2="908" class="net_110 width_1" style="stroke-width: 1"/><line x1="137" x2="137" y1="908" y2="315.5" class="net_110 width_1" style="stroke-width: 1"/><line x1="137" x2="158.14" y1="315.5" y2="315.5" class="net_110 width_1" style="stroke-width: 1"/><line x1="158.14" x2="158.14" y1="315.5" y2="427.5" class="net_110 width_1" style="stroke-width: 1"/><line x1="97" x2="137" y1="908" y2="908" class="net_110 width_1" style="stroke-width: 1"/><line x1="137" x2="137" y1="908" y2="448" class="net_110 width_1" style="stroke-width: 1"/><circle cx="137" cy="448" r="2" style="fill:#000" class="net_110 width_1"/><line x1="137" x2="157.64" y1="448" y2="448" class="net_110 width_1" style="stroke-width: 1"/><line x1="97" x2="137" y1="908" y2="908" class="net_110 width_1" style="stroke-width: 1"/><line x1="137" x2="137" y1="908" y2="468" class="net_110 width_1" style="stroke-width: 1"/><circle cx="137" cy="468" r="2" style="fill:#000" class="net_110 width_1"/><line x1="137" x2="157.64" y1="468" y2="468" class="net_110 width_1" style="stroke-width: 1"/><line x1="97" x2="137" y1="908" y2="908" class="net_110 width_1" style="stroke-width: 1"/><line x1="137" x2="137" y1="908" y2="488" class="net_110 width_1" style="stroke-width: 1"/><circle cx="137" cy="488" r="2" style="fill:#000" class="net_110 width_1"/><line x1="137" x2="157.64" y1="488" y2="488" class="net_110 width_1" style="stroke-width: 1"/><line x1="97" x2="137" y1="908" y2="908" class="net_110 width_1" style="stroke-width: 1"/><line x1="137" x2="137" y1="908" y2="508" class="net_110 width_1" style="stroke-width: 1"/><circle cx="137" cy="508" r="2" style="fill:#000" class="net_110 width_1"/><line x1="137" x2="157.64" y1="508" y2="508" class="net_110 width_1" style="stroke-width: 1"/><line x1="97" x2="137" y1="908" y2="908" class="net_110 width_1" style="stroke-width: 1"/><line x1="137" x2="137" y1="908" y2="528" class="net_110 width_1" style="stroke-width: 1"/><circle cx="137" cy="528" r="2" style="fill:#000" class="net_110 width_1"/><line x1="137" x2="157.64" y1="528" y2="528" class="net_110 width_1" style="stroke-width: 1"/><line x1="97" x2="137" y1="908" y2="908" class="net_110 width_1" style="stroke-width: 1"/><line x1="137" x2="137" y1="908" y2="548" class="net_110 width_1" style="stroke-width: 1"/><circle cx="137" cy="548" r="2" style="fill:#000" class="net_110 width_1"/><line x1="137" x2="157.64" y1="548" y2="548" class="net_110 width_1" style="stroke-width: 1"/><line x1="97" x2="137" y1="908" y2="908" class="net_110 width_1" style="stroke-width: 1"/><line x1="137" x2="137" y1="908" y2="568" class="net_110 width_1" style="stroke-width: 1"/><circle cx="137" cy="568" r="2" style="fill:#000" class="net_110 width_1"/><line x1="137" x2="157.64" y1="568" y2="568" class="net_110 width_1" style="stroke-width: 1"/><line x1="97" x2="137" y1="908" y2="908" class="net_110 width_1" style="stroke-width: 1"/><line x1="137" x2="137" y1="908" y2="588" class="net_110 width_1" style="stroke-width: 1"/><circle cx="137" cy="588" r="2" style="fill:#000" class="net_110 width_1"/><line x1="137" x2="157.64" y1="588" y2="588" class="net_110 width_1" style="stroke-width: 1"/><line x1="97" x2="137" y1="908" y2="908" class="net_110 width_1" style="stroke-width: 1"/><line x1="137" x2="137" y1="908" y2="608" class="net_110 width_1" style="stroke-width: 1"/><circle cx="137" cy="608" r="2" style="fill:#000" class="net_110 width_1"/><line x1="137" x2="157.64" y1="608" y2="608" class="net_110 width_1" style="stroke-width: 1"/><line x1="97" x2="137" y1="908" y2="908" class="net_110 width_1" style="stroke-width: 1"/><line x1="137" x2="137" y1="908" y2="628" class="net_110 width_1" style="stroke-width: 1"/><circle cx="137" cy="628" r="2" style="fill:#000" class="net_110 width_1"/><line x1="137" x2="157.64" y1="628" y2="628" class="net_110 width_1" style="stroke-width: 1"/><line x1="97" x2="137" y1="908" y2="908" class="net_110 width_1" style="stroke-width: 1"/><line x1="137" x2="137" y1="908" y2="648" class="net_110 width_1" style="stroke-width: 1"/><circle cx="137" cy="648" r="2" style="fill:#000" class="net_110 width_1"/><line x1="137" x2="157.64" y1="648" y2="648" class="net_110 width_1" style="stroke-width: 1"/><line x1="97" x2="137" y1="908" y2="908" class="net_110 width_1" style="stroke-width: 1"/><line x1="137" x2="137" y1="908" y2="668" class="net_110 width_1" style="stroke-width: 1"/><circle cx="137" cy="668" r="2" style="fill:#000" class="net_110 width_1"/><line x1="137" x2="157.64" y1="668" y2="668" class="net_110 width_1" style="stroke-width: 1"/><line x1="97" x2="137" y1="908" y2="908" class="net_110 width_1" style="stroke-width: 1"/><line x1="137" x2="137" y1="908" y2="688" class="net_110 width_1" style="stroke-width: 1"/><circle cx="137" cy="688" r="2" style="fill:#000" class="net_110 width_1"/><line x1="137" x2="157.64" y1="688" y2="688" class="net_110 width_1" style="stroke-width: 1"/><line x1="97" x2="137" y1="908" y2="908" class="net_110 width_1" style="stroke-width: 1"/><line x1="137" x2="137" y1="908" y2="708" class="net_110 width_1" style="stroke-width: 1"/><circle cx="137" cy="708" r="2" style="fill:#000" class="net_110 width_1"/><line x1="137" x2="157.64" y1="708" y2="708" class="net_110 width_1" style="stroke-width: 1"/><line x1="97" x2="137" y1="908" y2="908" class="net_110 width_1" style="stroke-width: 1"/><line x1="137" x2="137" y1="908" y2="728" class="net_110 width_1" style="stroke-width: 1"/><circle cx="137" cy="728" r="2" style="fill:#000" class="net_110 width_1"/><line x1="137" x2="157.64" y1="728" y2="728" class="net_110 width_1" style="stroke-width: 1"/><line x1="97" x2="137" y1="908" y2="908" class="net_110 width_1" style="stroke-width: 1"/><line x1="137" x2="137" y1="908" y2="748" class="net_110 width_1" style="stroke-width: 1"/><circle cx="137" cy="748" r="2" style="fill:#000" class="net_110 width_1"/><line x1="137" x2="157.64" y1="748" y2="748" class="net_110 width_1" style="stroke-width: 1"/><line x1="97" x2="137" y1="908" y2="908" class="net_110 width_1" style="stroke-width: 1"/><line x1="137" x2="137" y1="908" y2="768" class="net_110 width_1" style="stroke-width: 1"/><circle cx="137" cy="768" r="2" style="fill:#000" class="net_110 width_1"/><line x1="137" x2="157.64" y1="768" y2="768" class="net_110 width_1" style="stroke-width: 1"/><line x1="97" x2="137" y1="908" y2="908" class="net_110 width_1" style="stroke-width: 1"/><line x1="137" x2="137" y1="908" y2="788" class="net_110 width_1" style="stroke-width: 1"/><circle cx="137" cy="788" r="2" style="fill:#000" class="net_110 width_1"/><line x1="137" x2="157.64" y1="788" y2="788" class="net_110 width_1" style="stroke-width: 1"/><line x1="97" x2="137" y1="908" y2="908" class="net_110 width_1" style="stroke-width: 1"/><line x1="137" x2="137" y1="908" y2="808" class="net_110 width_1" style="stroke-width: 1"/><circle cx="137" cy="808" r="2" style="fill:#000" class="net_110 width_1"/><line x1="137" x2="157.64" y1="808" y2="808" class="net_110 width_1" style="stroke-width: 1"/><line x1="97" x2="137" y1="908" y2="908" class="net_110 width_1" style="stroke-width: 1"/><line x1="137" x2="137" y1="908" y2="828" class="net_110 width_1" style="stroke-width: 1"/><circle cx="137" cy="828" r="2" style="fill:#000" class="net_110 width_1"/><line x1="137" x2="157.64" y1="828" y2="828" class="net_110 width_1" style="stroke-width: 1"/><line x1="97" x2="137" y1="908" y2="908" class="net_110 width_1" style="stroke-width: 1"/><line x1="137" x2="137" y1="908" y2="848" class="net_110 width_1" style="stroke-width: 1"/><circle cx="137" cy="848" r="2" style="fill:#000" class="net_110 width_1"/><line x1="137" x2="157.64" y1="848" y2="848" class="net_110 width_1" style="stroke-width: 1"/><line x1="97" x2="137" y1="908" y2="908" class="net_110 width_1" style="stroke-width: 1"/><line x1="137" x2="137" y1="908" y2="868" class="net_110 width_1" style="stroke-width: 1"/><circle cx="137" cy="868" r="2" style="fill:#000" class="net_110 width_1"/><line x1="137" x2="157.64" y1="868" y2="868" class="net_110 width_1" style="stroke-width: 1"/><line x1="97" x2="137" y1="908" y2="908" class="net_110 width_1" style="stroke-width: 1"/><line x1="137" x2="137" y1="908" y2="888" class="net_110 width_1" style="stroke-width: 1"/><circle cx="137" cy="888" r="2" style="fill:#000" class="net_110 width_1"/><line x1="137" x2="157.64" y1="888" y2="888" class="net_110 width_1" style="stroke-width: 1"/><line x1="97" x2="157.64" y1="908" y2="908" class="net_110 width_1" style="stroke-width: 1"/><line x1="97" x2="137" y1="908" y2="908" class="net_110 width_1" style="stroke-width: 1"/><line x1="137" x2="137" y1="908" y2="1037.5" class="net_110 width_1" style="stroke-width: 1"/><line x1="137" x2="158.14" y1="1037.5" y2="1037.5" class="net_110 width_1" style="stroke-width: 1"/><line x1="158.14" x2="158.14" y1="1037.5" y2="928.5" class="net_110 width_1" style="stroke-width: 1"/><line x1="97" x2="137" y1="908" y2="908" class="net_110 width_1" style="stroke-width: 1"/><line x1="137" x2="137" y1="908" y2="1027.5" class="net_110 width_1" style="stroke-width: 1"/><line x1="137" x2="158.14" y1="1027.5" y2="1027.5" class="net_110 width_1" style="stroke-width: 1"/><circle cx="137" cy="1027.5" r="2" style="fill:#000" class="net_110 width_1"/><line x1="158.14" x2="158.14" y1="1027.5" y2="948.5" class="net_110 width_1" style="stroke-width: 1"/><line x1="97" x2="137" y1="908" y2="908" class="net_110 width_1" style="stroke-width: 1"/><line x1="137" x2="137" y1="908" y2="1017.5" class="net_110 width_1" style="stroke-width: 1"/><line x1="137" x2="158.14" y1="1017.5" y2="1017.5" class="net_110 width_1" style="stroke-width: 1"/><circle cx="137" cy="1017.5" r="2" style="fill:#000" class="net_110 width_1"/><line x1="158.14" x2="158.14" y1="1017.5" y2="968.5" class="net_110 width_1" style="stroke-width: 1"/><line x1="97" x2="137" y1="908" y2="908" class="net_110 width_1" style="stroke-width: 1"/><line x1="137" x2="137" y1="908" y2="1007.5" class="net_110 width_1" style="stroke-width: 1"/><line x1="137" x2="158.14" y1="1007.5" y2="1007.5" class="net_110 width_1" style="stroke-width: 1"/><circle cx="137" cy="1007.5" r="2" style="fill:#000" class="net_110 width_1"/><line x1="158.14" x2="158.14" y1="1007.5" y2="988.5" class="net_110 width_1" style="stroke-width: 1"/><rect x="532" y="928" width="22" height="9" class="net_78,79,80,81,82,83,84,85,86,87,88,89,90,91,92,93,94,95,96,97,98,99,100,101,102,103,104,105,106,107,108,109 width_32 busLabel_32" style="fill: white; stroke: none"/><text x="531" y="936" class="net_78,79,80,81,82,83,84,85,86,87,88,89,90,91,92,93,94,95,96,97,98,99,100,101,102,103,104,105,106,107,108,109 width_32 busLabel_32">/32/</text><rect x="86" y="978" width="22" height="9" class="net_155,156,157,158,159,160,161,162,163,164,165,166,167,168,169,170,171,172,173,174,175,176,177,178,179,180,181,182,183,184,185,186 width_32 busLabel_32" style="fill: white; stroke: none"/><text x="85" y="986" class="net_155,156,157,158,159,160,161,162,163,164,165,166,167,168,169,170,171,172,173,174,175,176,177,178,179,180,181,182,183,184,185,186 width_32 busLabel_32">/32/</text><rect x="86" y="1043" width="22" height="9" class="net_14,15,16,17,18,19,20,21,22,23,24,25,26,27,28,29,30,31,32,33,34,35,36,37,38,39,40,41,42,43,44,45 width_32 busLabel_32" style="fill: white; stroke: none"/><text x="85" y="1051" class="net_14,15,16,17,18,19,20,21,22,23,24,25,26,27,28,29,30,31,32,33,34,35,36,37,38,39,40,41,42,43,44,45 width_32 busLabel_32">/32/</text><rect x="86" y="92" width="22" height="9" class="net_187,188,189,190,191,192,193,194,195,196 width_10 busLabel_10" style="fill: white; stroke: none"/><text x="85" y="100" class="net_187,188,189,190,191,192,193,194,195,196 width_10 busLabel_10">/10/</text><rect x="189" y="12" width="22" height="9" class="net_4,5,6,7,8,9,10,11,12,13 width_10 busLabel_10" style="fill: white; stroke: none"/><text x="188" y="20" class="net_4,5,6,7,8,9,10,11,12,13 width_10 busLabel_10">/10/</text><rect x="189" y="12" width="22" height="9" class="net_4,5,6,7,8,9,10,11,12,13 width_10 busLabel_10" style="fill: white; stroke: none"/><text x="188" y="20" class="net_4,5,6,7,8,9,10,11,12,13 width_10 busLabel_10">/10/</text><rect x="282" y="237" width="22" height="9" class="net_143,144,145,146,147,148,149,150,151,152 width_10 busLabel_10" style="fill: white; stroke: none"/><text x="281" y="245" class="net_143,144,145,146,147,148,149,150,151,152 width_10 busLabel_10">/10/</text><rect x="282" y="1068" width="22" height="9" class="net_111,112,113,114,115,116,117,118,119,120,121,122,123,124,125,126,127,128,129,130,131,132,133,134,135,136,137,138,139,140,141,142 width_32 busLabel_32" style="fill: white; stroke: none"/><text x="281" y="1076" class="net_111,112,113,114,115,116,117,118,119,120,121,122,123,124,125,126,127,128,129,130,131,132,133,134,135,136,137,138,139,140,141,142 width_32 busLabel_32">/32/</text><rect x="282" y="673" width="22" height="9" class="net_110,110,110,110,110,110,110,110,110,110,110,110,110,110,110,110,110,110,110,110,110,110,110,110,110,110,110,110,110,110,110,110 width_32 busLabel_32" style="fill: white; stroke: none"/><text x="281" y="681" class="net_110,110,110,110,110,110,110,110,110,110,110,110,110,110,110,110,110,110,110,110,110,110,110,110,110,110,110,110,110,110,110,110 width_32 busLabel_32">/32/</text><rect x="703" y="1110.5" width="22" height="9" class="net_46,47,48,49,50,51,52,53,54,55,56,57,58,59,60,61,62,63,64,65,66,67,68,69,70,71,72,73,74,75,76,77 width_32 busLabel_32" style="fill: white; stroke: none"/><text x="702" y="1118.5" class="net_46,47,48,49,50,51,52,53,54,55,56,57,58,59,60,61,62,63,64,65,66,67,68,69,70,71,72,73,74,75,76,77 width_32 busLabel_32">/32/</text></svg>