<svg xmlns="http://www.w3.org/2000/svg" xmlns:xlink="http://www.w3.org/1999/xlink" xmlns:s="https://github.com/nturley/netlistsvg" width="391" height="179">
  <style>svg {
    stroke:#000;
    fill:none;
  }
  text {
    fill:#000;
    stroke:none;
    font-size:10px;
    font-weight: bold;
    font-family: "Courier New", monospace;
  }
  .nodelabel {
    text-anchor: middle;
  }
  .inputPortLabel {
    text-anchor: end;
  }
  .splitjoinBody {
    fill:#000;
  }</style>
  <g s:type="not" transform="translate(32,77)" s:width="30" s:height="20" id="cell_$not$DotBlinker.v:22$2">
    <s:alias val="$_NOT_"/>
    <s:alias val="$not"/>
    <s:alias val="$logic_not"/>
    <path d="M0,0 L0,20 L20,10 Z" class="cell_$not$DotBlinker.v:22$2"/>
    <circle cx="23" cy="10" r="3" class="cell_$not$DotBlinker.v:22$2"/>
    <g s:x="0" s:y="10" s:pid="A"/>
    <g s:x="25" s:y="10" s:pid="Y"/>
  </g>
  <g s:type="dff" transform="translate(200.5,77)" s:width="30" s:height="40" id="cell_$procdff$9">
    <s:alias val="$dff"/>
    <s:alias val="$_DFF_"/>
    <s:alias val="$_DFF_P_"/>
    <rect width="30" height="40" x="0" y="0" class="cell_$procdff$9"/>
    <path d="M0,35 L5,30 L0,25" class="cell_$procdff$9"/>
    <g s:x="30" s:y="10" s:pid="Q"/>
    <g s:x="0" s:y="30" s:pid="CLK"/>
    <g s:x="0" s:y="30" s:pid="C"/>
    <g s:x="0" s:y="10" s:pid="D"/>
  </g>
  <g s:type="mux" transform="translate(288,22)" s:width="20" s:height="40" id="cell_$ternary$DotBlinker.v:25$4">
    <s:alias val="$pmux"/>
    <s:alias val="$mux"/>
    <s:alias val="$_MUX_"/>
    <path d="M0,0 L20,10 L20,30 L0,40 Z" class="cell_$ternary$DotBlinker.v:25$4"/>
    <g s:x="0" s:y="10" s:pid="A"/>
    <g s:x="0" s:y="30" s:pid="B"/>
    <g s:x="10" s:y="35" s:pid="S"/>
    <g s:x="20" s:y="20" s:pid="Y"/>
  </g>
  <g s:type="inputExt" transform="translate(32,22)" s:width="30" s:height="20" id="cell_oneSecondPeriodSquare">
    <text x="15" y="-4" class="nodelabel cell_oneSecondPeriodSquare" s:attribute="ref">oneSecondPeriodSquare</text>
    <s:alias val="$_inputExt_"/>
    <path d="M0,0 L0,20 L15,20 L30,10 L15,0 Z" class="cell_oneSecondPeriodSquare"/>
    <g s:x="28" s:y="10" s:pid="Y"/>
  </g>
  <g s:type="inputExt" transform="translate(193,147)" s:width="30" s:height="20" id="cell_isHHMMMode">
    <text x="15" y="-4" class="nodelabel cell_isHHMMMode" s:attribute="ref">isHHMMMode</text>
    <s:alias val="$_inputExt_"/>
    <path d="M0,0 L0,20 L15,20 L30,10 L15,0 Z" class="cell_isHHMMMode"/>
    <g s:x="28" s:y="10" s:pid="Y"/>
  </g>
  <g s:type="outputExt" transform="translate(343,32)" s:width="30" s:height="20" id="cell_dotOut">
    <text x="15" y="-4" class="nodelabel cell_dotOut" s:attribute="ref">dotOut</text>
    <s:alias val="$_outputExt_"/>
    <path d="M30,0 L30,20 L15,20 L0,10 L15,0 Z" class="cell_dotOut"/>
    <g s:x="0" s:y="10" s:pid="A"/>
  </g>
  <line x1="230.5" x2="263" y1="87" y2="87" class="net_5"/>
  <line x1="263" x2="263" y1="87" y2="127" class="net_5"/>
  <line x1="263" x2="12" y1="127" y2="127" class="net_5"/>
  <line x1="12" x2="12" y1="127" y2="87" class="net_5"/>
  <line x1="12" x2="32" y1="87" y2="87" class="net_5"/>
  <line x1="230.5" x2="263" y1="87" y2="87" class="net_5"/>
  <line x1="263" x2="263" y1="87" y2="52" class="net_5"/>
  <circle cx="263" cy="87" r="2" style="fill:#000" class="net_5"/>
  <line x1="263" x2="288" y1="52" y2="52" class="net_5"/>
  <line x1="60" x2="168" y1="32" y2="32" class="net_2"/>
  <line x1="168" x2="168" y1="32" y2="107" class="net_2"/>
  <circle cx="168" cy="32" r="2" style="fill:#000" class="net_2"/>
  <line x1="168" x2="200.5" y1="107" y2="107" class="net_2"/>
  <line x1="60" x2="288" y1="32" y2="32" class="net_2"/>
  <line x1="57" x2="200.5" y1="87" y2="87" class="net_6"/>
  <line x1="221" x2="298" y1="157" y2="157" class="net_3"/>
  <line x1="298" x2="298" y1="157" y2="57" class="net_3"/>
  <line x1="308" x2="343" y1="42" y2="42" class="net_4"/>
</svg>
