<svg xmlns="http://www.w3.org/2000/svg" xmlns:xlink="http://www.w3.org/1999/xlink" xmlns:s="https://github.com/nturley/netlistsvg" width="2030" height="519.5"><style>svg {
  stroke:#000;
  fill:none;
}
text {
  fill:#000;
  stroke:none;
  font-size:10px;
  font-weight: bold;
  font-family: "Courier New", monospace;
}
.nodelabel {
  text-anchor: middle;
}
.inputPortLabel {
  text-anchor: end;
}
.splitjoinBody {
  fill:#000;
}</style><g s:type="generic" transform="translate(281,424)" s:width="30" s:height="40" id="cell_$procdff$5665"><text x="15" y="-4" class="nodelabel cell_$procdff$5665" s:attribute="ref">$dff-bus</text><rect width="30" height="40" s:generic="body" class="cell_$procdff$5665"/><g transform="translate(0,10)" s:x="0" s:y="10" s:pid="in0" id="port_$procdff$5665~CLK"><text x="-3" y="-4" class="inputPortLabel cell_$procdff$5665">CLK</text></g><g transform="translate(0,30)" s:x="0" s:y="10" s:pid="in0" id="port_$procdff$5665~D"><text x="-3" y="-4" class="inputPortLabel cell_$procdff$5665">D</text></g><g transform="translate(30,10)" s:x="30" s:y="10" s:pid="out0" id="port_$procdff$5665~Q"><text x="5" y="-4" style="fill:#000; stroke:none" class="cell_$procdff$5665">Q</text></g></g><g s:type="generic" transform="translate(281,109)" s:width="30" s:height="40" id="cell_$procdff$5666"><text x="15" y="-4" class="nodelabel cell_$procdff$5666" s:attribute="ref">$dff-bus</text><rect width="30" height="40" s:generic="body" class="cell_$procdff$5666"/><g transform="translate(0,10)" s:x="0" s:y="10" s:pid="in0" id="port_$procdff$5666~CLK"><text x="-3" y="-4" class="inputPortLabel cell_$procdff$5666">CLK</text></g><g transform="translate(0,30)" s:x="0" s:y="10" s:pid="in0" id="port_$procdff$5666~D"><text x="-3" y="-4" class="inputPortLabel cell_$procdff$5666">D</text></g><g transform="translate(30,10)" s:x="30" s:y="10" s:pid="out0" id="port_$procdff$5666~Q"><text x="5" y="-4" style="fill:#000; stroke:none" class="cell_$procdff$5666">Q</text></g></g><g s:type="sub_odd" transform="translate(543,22)" s:width="30" s:height="40" id="cell_rom_inst"><text x="636.5" y="-4" class="nodelabel cell_rom_inst" s:attribute="ref">rom_lut</text><rect width="1273" height="485.5" s:generic="body" fill="#e9e9e9" rx="4" class="cell_rom_inst"/><g s:type="generic" transform="translate(753,130.5)" s:width="30" s:height="40" id="cell_$neg$rom_lut.v:209$4633"><text x="15" y="-4" class="nodelabel cell_$neg$rom_lut.v:209$4633" s:attribute="ref">−</text><rect width="30" height="20" s:generic="body" class="cell_$neg$rom_lut.v:209$4633"/><g transform="translate(0,10)" s:x="0" s:y="10" s:pid="in0" id="port_$neg$rom_lut.v:209$4633~A"><text x="-3" y="-4" class="inputPortLabel cell_$neg$rom_lut.v:209$4633">A</text></g><g transform="translate(30,10)" s:x="30" s:y="10" s:pid="out0" id="port_$neg$rom_lut.v:209$4633~Y"><text x="5" y="-4" style="fill:#000; stroke:none" class="cell_$neg$rom_lut.v:209$4633">Y</text></g></g><g s:type="generic" transform="translate(1144,22)" s:width="30" s:height="40" id="cell_$procdff$5667"><text x="15" y="-4" class="nodelabel cell_$procdff$5667" s:attribute="ref">$dff-bus</text><rect width="30" height="40" s:generic="body" class="cell_$procdff$5667"/><g transform="translate(0,10)" s:x="0" s:y="10" s:pid="in0" id="port_$procdff$5667~CLK"><text x="-3" y="-4" class="inputPortLabel cell_$procdff$5667">CLK</text></g><g transform="translate(0,30)" s:x="0" s:y="10" s:pid="in0" id="port_$procdff$5667~D"><text x="-3" y="-4" class="inputPortLabel cell_$procdff$5667">D</text></g><g transform="translate(30,10)" s:x="30" s:y="10" s:pid="out0" id="port_$procdff$5667~Q"><text x="5" y="-4" style="fill:#000; stroke:none" class="cell_$procdff$5667">Q</text></g></g><g s:type="generic" transform="translate(973,55.5)" s:width="30" s:height="40" id="cell_$procmux$5660"><text x="15" y="-4" class="nodelabel cell_$procmux$5660" s:attribute="ref">$mux-bus</text><rect width="30" height="60" s:generic="body" class="cell_$procmux$5660"/><g transform="translate(0,10)" s:x="0" s:y="10" s:pid="in0" id="port_$procmux$5660~A"><text x="-3" y="-4" class="inputPortLabel cell_$procmux$5660">A</text></g><g transform="translate(0,30)" s:x="0" s:y="10" s:pid="in0" id="port_$procmux$5660~B"><text x="-3" y="-4" class="inputPortLabel cell_$procmux$5660">B</text></g><g transform="translate(0,50)" s:x="0" s:y="10" s:pid="in0" id="port_$procmux$5660~S"><text x="-3" y="-4" class="inputPortLabel cell_$procmux$5660">S</text></g><g transform="translate(30,10)" s:x="30" s:y="10" s:pid="out0" id="port_$procmux$5660~Y"><text x="5" y="-4" style="fill:#000; stroke:none" class="cell_$procmux$5660">Y</text></g></g><g s:type="generic" transform="translate(262,374.5)" s:width="30" s:height="40" id="cell_$procmux$5663"><text x="15" y="-4" class="nodelabel cell_$procmux$5663" s:attribute="ref">$mux-bus</text><rect width="30" height="60" s:generic="body" class="cell_$procmux$5663"/><g transform="translate(0,10)" s:x="0" s:y="10" s:pid="in0" id="port_$procmux$5663~A"><text x="-3" y="-4" class="inputPortLabel cell_$procmux$5663">A</text></g><g transform="translate(0,30)" s:x="0" s:y="10" s:pid="in0" id="port_$procmux$5663~B"><text x="-3" y="-4" class="inputPortLabel cell_$procmux$5663">B</text></g><g transform="translate(0,50)" s:x="0" s:y="10" s:pid="in0" id="port_$procmux$5663~S"><text x="-3" y="-4" class="inputPortLabel cell_$procmux$5663">S</text></g><g transform="translate(30,10)" s:x="30" s:y="10" s:pid="out0" id="port_$procmux$5663~Y"><text x="5" y="-4" style="fill:#000; stroke:none" class="cell_$procmux$5663">Y</text></g></g><g s:type="sub" transform="translate(155,392.5)" s:width="25" s:height="25" id="cell_$sub$rom_lut.v:200$4631"><s:alias val="$sub"/><circle r="12.5" cx="12.5" cy="12.5" class="cell_$sub$rom_lut.v:200$4631"/><line x1="7.5" x2="17.5" y1="12.5" y2="12.5" class="cell_$sub$rom_lut.v:200$4631"/><g s:x="3" s:y="5" s:pid="A"/><g s:x="3" s:y="20" s:pid="B"/><g s:x="25" s:y="12.5" s:pid="Y"/></g><g s:type="generic" transform="translate(598,97)" s:width="30" s:height="40" id="cell_rom"><text x="15" y="-4" class="nodelabel cell_rom" s:attribute="ref">$mem_v2-bus</text><rect width="30" height="180" s:generic="body" class="cell_rom"/><g transform="translate(0,10)" s:x="0" s:y="10" s:pid="in0" id="port_rom~RD_ADDR"><text x="-3" y="-4" class="inputPortLabel cell_rom">RD_ADDR</text></g><g transform="translate(0,30)" s:x="0" s:y="10" s:pid="in0" id="port_rom~RD_ARST"><text x="-3" y="-4" class="inputPortLabel cell_rom">RD_ARST</text></g><g transform="translate(0,50)" s:x="0" s:y="10" s:pid="in0" id="port_rom~RD_CLK"><text x="-3" y="-4" class="inputPortLabel cell_rom">RD_CLK</text></g><g transform="translate(0,70)" s:x="0" s:y="10" s:pid="in0" id="port_rom~RD_EN"><text x="-3" y="-4" class="inputPortLabel cell_rom">RD_EN</text></g><g transform="translate(0,90)" s:x="0" s:y="10" s:pid="in0" id="port_rom~RD_SRST"><text x="-3" y="-4" class="inputPortLabel cell_rom">RD_SRST</text></g><g transform="translate(0,110)" s:x="0" s:y="10" s:pid="in0" id="port_rom~WR_ADDR"><text x="-3" y="-4" class="inputPortLabel cell_rom">WR_ADDR</text></g><g transform="translate(0,130)" s:x="0" s:y="10" s:pid="in0" id="port_rom~WR_CLK"><text x="-3" y="-4" class="inputPortLabel cell_rom">WR_CLK</text></g><g transform="translate(0,150)" s:x="0" s:y="10" s:pid="in0" id="port_rom~WR_DATA"><text x="-3" y="-4" class="inputPortLabel cell_rom">WR_DATA</text></g><g transform="translate(0,170)" s:x="0" s:y="10" s:pid="in0" id="port_rom~WR_EN"><text x="-3" y="-4" class="inputPortLabel cell_rom">WR_EN</text></g><g transform="translate(30,10)" s:x="30" s:y="10" s:pid="out0" id="port_rom~RD_DATA"><text x="5" y="-4" style="fill:#000; stroke:none" class="cell_rom">RD_DATA</text></g></g><g s:type="constant" transform="translate(474,158.5)" s:width="30" s:height="20" id="cell_0"><text x="15" y="-4" class="nodelabel cell_0" s:attribute="ref">0</text><s:alias val="$_constant_"/><rect width="30" height="20" class="cell_0"/><g s:x="30" s:y="10" s:pid="Y"/></g><g s:type="constant" transform="translate(51,327)" s:width="30" s:height="20" id="cell_11111"><text x="15" y="-4" class="nodelabel cell_11111" s:attribute="ref">0x1f</text><s:alias val="$_constant_"/><rect width="30" height="20" class="cell_11111"/><g s:x="30" s:y="10" s:pid="Y"/></g><g s:type="constant" transform="translate(474,223.5)" s:width="30" s:height="20" id="cell_x"><text x="15" y="-4" class="nodelabel cell_x" s:attribute="ref">x</text><s:alias val="$_constant_"/><rect width="30" height="20" class="cell_x"/><g s:x="30" s:y="10" s:pid="Y"/></g><g s:type="constant" transform="translate(474,288.5)" s:width="30" s:height="20" id="cell_1"><text x="15" y="-4" class="nodelabel cell_1" s:attribute="ref">1</text><s:alias val="$_constant_"/><rect width="30" height="20" class="cell_1"/><g s:x="30" s:y="10" s:pid="Y"/></g><g s:type="join" transform="translate(799.3333333333334,45.5)" s:width="4" s:height="40" id="cell_$join$,24,25,26,27,28,29,30,31,32,63,"><rect width="5" height="40" class="splitjoinBody" s:generic="body"/><s:alias val="$_join_"/><g s:x="5" s:y="20" s:pid="out"/><g transform="translate(0,10)" s:x="0" s:y="10" s:pid="in0"><text x="-3" y="-4" class="inputPortLabel">0:8</text></g><g transform="translate(0,30)" s:x="0" s:y="10" s:pid="in0"><text x="-3" y="-4" class="inputPortLabel">9</text></g></g><g s:type="join" transform="translate(433,87)" s:width="4" s:height="40" id="cell_$join$,10,11,12,13,58,59,60,61,62,"><rect width="5" height="40" class="splitjoinBody" s:generic="body"/><s:alias val="$_join_"/><g s:x="5" s:y="20" s:pid="out"/><g transform="translate(0,10)" s:x="0" s:y="10" s:pid="in0"><text x="-3" y="-4" class="inputPortLabel">0:3</text></g><g transform="translate(0,30)" s:x="0" s:y="10" s:pid="in0"><text x="-3" y="-4" class="inputPortLabel">4:8</text></g></g><g s:type="split" transform="translate(66.25,382)" s:width="5" s:height="40" id="cell_$split$,3,4,5,6,7,8,9,"><rect width="5" height="60" class="splitjoinBody" s:generic="body"/><s:alias val="$_split_"/><g s:x="0" s:y="20" s:pid="in"/><g transform="translate(4,10)" s:x="4" s:y="10" s:pid="out0"><text x="5" y="-4">6</text></g><g transform="translate(4,30)" s:x="4" s:y="10" s:pid="out0"><text x="5" y="-4">0:4</text></g><g transform="translate(4,50)" s:x="4" s:y="10" s:pid="out0"><text x="5" y="-4">5</text></g></g><line x1="629" x2="682" y1="107.5" y2="107.5" class="net_24,25,26,27,28,29,30,31,32"/><line x1="682" x2="682" y1="107.5" y2="141" class="net_24,25,26,27,28,29,30,31,32"/><circle cx="682" cy="107.5" r="2" style="fill:#000" class="net_24,25,26,27,28,29,30,31,32"/><line x1="682" x2="753" y1="141" y2="141" class="net_24,25,26,27,28,29,30,31,32"/><line x1="629" x2="721" y1="107.5" y2="107.5" class="net_24,25,26,27,28,29,30,31,32"/><line x1="721" x2="721" y1="107.5" y2="56" class="net_24,25,26,27,28,29,30,31,32"/><line x1="721" x2="799.3333333333334" y1="56" y2="56" class="net_24,25,26,27,28,29,30,31,32"/><line x1="0" x2="1144" y1="32.5" y2="32.5" class="net_2"/><line x1="1004" x2="1100" y1="66" y2="66" class="net_43,44,45,46,47,48,49,50,51,52"/><line x1="1100" x2="1100" y1="66" y2="52.5" class="net_43,44,45,46,47,48,49,50,51,52"/><line x1="1100" x2="1143" y1="52.5" y2="52.5" class="net_43,44,45,46,47,48,49,50,51,52"/><line x1="805.3333333333334" x2="973" y1="66" y2="66" class="net_24,25,26,27,28,29,30,31,32,63"/><line x1="784" x2="940" y1="141" y2="141" class="net_33,34,35,36,37,38,39,40,41,42"/><line x1="940" x2="940" y1="141" y2="86" class="net_33,34,35,36,37,38,39,40,41,42"/><line x1="940" x2="972" y1="86" y2="86" class="net_33,34,35,36,37,38,39,40,41,42"/><line x1="71.25" x2="91" y1="392.5" y2="392.5" class="net_9"/><line x1="91" x2="91" y1="392.5" y2="353.5" class="net_9"/><line x1="91" x2="950" y1="353.5" y2="353.5" class="net_9"/><line x1="950" x2="950" y1="353.5" y2="106" class="net_9"/><line x1="950" x2="972" y1="106" y2="106" class="net_9"/><line x1="71.25" x2="101" y1="412.5" y2="412.5" class="net_3,4,5,6,7"/><line x1="101" x2="101" y1="412.5" y2="456.5" class="net_3,4,5,6,7"/><line x1="101" x2="229" y1="456.5" y2="456.5" class="net_3,4,5,6,7"/><line x1="229" x2="229" y1="456.5" y2="385" class="net_3,4,5,6,7"/><circle cx="101" cy="412.5" r="2" style="fill:#000" class="net_3,4,5,6,7"/><line x1="229" x2="262" y1="385" y2="385" class="net_3,4,5,6,7"/><line x1="71.25" x2="158" y1="412.5" y2="412.5" class="net_3,4,5,6,7"/><line x1="180" x2="261" y1="405" y2="405" class="net_53,54,55,56,57"/><line x1="71.25" x2="91" y1="432.5" y2="432.5" class="net_8"/><line x1="91" x2="91" y1="432.5" y2="472.5" class="net_8"/><line x1="91" x2="239" y1="472.5" y2="472.5" class="net_8"/><line x1="239" x2="239" y1="472.5" y2="425" class="net_8"/><line x1="239" x2="261" y1="425" y2="425" class="net_8"/><line x1="81" x2="130" y1="337" y2="337" class="net_64,65,66,67,68"/><line x1="130" x2="130" y1="337" y2="397.5" class="net_64,65,66,67,68"/><line x1="130" x2="158" y1="397.5" y2="397.5" class="net_64,65,66,67,68"/><line x1="439" x2="598" y1="107.5" y2="107.5" class="net_10,11,12,13,58,59,60,61,62"/><line x1="504" x2="514" y1="168.5" y2="168.5" class="net_63"/><line x1="514" x2="514" y1="168.5" y2="127.5" class="net_63"/><circle cx="514" cy="168.5" r="2" style="fill:#000" class="net_63"/><circle cx="514" cy="127.5" r="2" style="fill:#000" class="net_63"/><line x1="514" x2="597" y1="127.5" y2="127.5" class="net_63"/><line x1="504" x2="514" y1="168.5" y2="168.5" class="net_63"/><line x1="514" x2="514" y1="168.5" y2="187.5" class="net_63"/><line x1="514" x2="597" y1="187.5" y2="187.5" class="net_63"/><line x1="504" x2="514" y1="168.5" y2="168.5" class="net_63"/><line x1="514" x2="514" y1="168.5" y2="76" class="net_63"/><line x1="514" x2="799.3333333333334" y1="76" y2="76" class="net_63"/><line x1="504" x2="524" y1="233.5" y2="233.5" class="net_70"/><line x1="524" x2="524" y1="233.5" y2="147.5" class="net_70"/><line x1="524" x2="597" y1="147.5" y2="147.5" class="net_70"/><line x1="504" x2="534" y1="298.5" y2="298.5" class="net_71"/><line x1="534" x2="534" y1="298.5" y2="167.5" class="net_71"/><line x1="534" x2="597" y1="167.5" y2="167.5" class="net_71"/><line x1="544" x2="544" y1="267.5" y2="207.5" class="net_"/><line x1="544" x2="597" y1="207.5" y2="207.5" class="net_"/><line x1="544" x2="544" y1="267.5" y2="227.5" class="net_"/><circle cx="544" cy="227.5" r="2" style="fill:#000" class="net_"/><line x1="544" x2="597" y1="227.5" y2="227.5" class="net_"/><line x1="544" x2="544" y1="267.5" y2="247.5" class="net_"/><circle cx="544" cy="247.5" r="2" style="fill:#000" class="net_"/><line x1="544" x2="597" y1="247.5" y2="247.5" class="net_"/><line x1="544" x2="544" y1="267.5" y2="267.5" class="net_"/><line x1="544" x2="597" y1="267.5" y2="267.5" class="net_"/><line x1="1175" x2="1273" y1="32.5" y2="32.5" class="net_14,15,16,17,18,19,20,21,22,23"/><line x1="0" x2="433" y1="97.5" y2="97.5" class="net_10,11,12,13"/><line x1="293" x2="389" y1="385" y2="385" class="net_58,59,60,61,62"/><line x1="389" x2="389" y1="385" y2="117.5" class="net_58,59,60,61,62"/><line x1="389" x2="433" y1="117.5" y2="117.5" class="net_58,59,60,61,62"/><line x1="0" x2="66.25" y1="412.5" y2="412.5" class="net_3,4,5,6,7,8,9"/><g transform="translate(-1,32)" s:x="0" s:y="10" s:pid="in0" id="port_rom_inst~clock"><text x="-3" y="-4" class="inputPortLabel cell_rom_inst">clock</text></g><g transform="translate(-1,97)" s:x="0" s:y="10" s:pid="in0" id="port_rom_inst~nibble_product_idx"><text x="-3" y="-4" class="inputPortLabel cell_rom_inst">nibble_product_idx</text></g><g transform="translate(-1,412)" s:x="0" s:y="10" s:pid="in0" id="port_rom_inst~read_angle_idx"><text x="-3" y="-4" class="inputPortLabel cell_rom_inst">read_angle_idx</text></g><g transform="translate(1273,32)" s:x="30" s:y="10" s:pid="out0" id="port_rom_inst~data_out"><text x="5" y="-4" style="fill:#000; stroke:none" class="cell_rom_inst">data_out</text></g></g><g s:type="inputExt" transform="translate(155,44.5)" s:width="30" s:height="20" id="cell_inClock50Mhz"><text x="15" y="-4" class="nodelabel cell_inClock50Mhz" s:attribute="ref">inClock50Mhz</text><s:alias val="$_inputExt_"/><path d="M0,0 L0,20 L15,20 L30,10 L15,0 Z" class="cell_inClock50Mhz"/><g s:x="28" s:y="10" s:pid="Y"/></g><g s:type="inputExt" transform="translate(12,444.5)" s:width="30" s:height="20" id="cell_inAngleIdxToRead"><text x="15" y="-4" class="nodelabel cell_inAngleIdxToRead" s:attribute="ref">inAngleIdxToRead</text><s:alias val="$_inputExt_"/><path d="M0,0 L0,20 L15,20 L30,10 L15,0 Z" class="cell_inAngleIdxToRead"/><g s:x="28" s:y="10" s:pid="Y"/></g><g s:type="inputExt" transform="translate(12,129.5)" s:width="30" s:height="20" id="cell_inNibbleProductIdx"><text x="15" y="-4" class="nodelabel cell_inNibbleProductIdx" s:attribute="ref">inNibbleProductIdx</text><s:alias val="$_inputExt_"/><path d="M0,0 L0,20 L15,20 L30,10 L15,0 Z" class="cell_inNibbleProductIdx"/><g s:x="28" s:y="10" s:pid="Y"/></g><g s:type="outputExt" transform="translate(1940,44.5)" s:width="30" s:height="20" id="cell_outReadMemory"><text x="15" y="-4" class="nodelabel cell_outReadMemory" s:attribute="ref">outReadMemory</text><s:alias val="$_outputExt_"/><path d="M30,0 L30,20 L15,20 L0,10 L15,0 Z" class="cell_outReadMemory"/><g s:x="0" s:y="10" s:pid="A"/></g><line x1="183" x2="237" y1="54.5" y2="54.5" class="net_2 width_1" style="stroke-width: 1"/><line x1="237" x2="237" y1="54.5" y2="434.5" class="net_2 width_1" style="stroke-width: 1"/><circle cx="237" cy="54.5" r="2" style="fill:#000" class="net_2 width_1"/><line x1="237" x2="281" y1="434.5" y2="434.5" class="net_2 width_1" style="stroke-width: 1"/><line x1="183" x2="237" y1="54.5" y2="54.5" class="net_2 width_1" style="stroke-width: 1"/><line x1="237" x2="237" y1="54.5" y2="119.5" class="net_2 width_1" style="stroke-width: 1"/><circle cx="237" cy="119.5" r="2" style="fill:#000" class="net_2 width_1"/><line x1="237" x2="281" y1="119.5" y2="119.5" class="net_2 width_1" style="stroke-width: 1"/><line x1="183" x2="542" y1="54.5" y2="54.5" class="net_2 width_1" style="stroke-width: 1"/><line x1="40" x2="280" y1="454.5" y2="454.5" class="net_3,4,5,6,7,8,9 width_7" style="stroke-width: 2"/><line x1="40" x2="280" y1="139.5" y2="139.5" class="net_10,11,12,13 width_4" style="stroke-width: 2"/><line x1="312" x2="542" y1="119.5" y2="119.5" class="net_31,32,33,34 width_4" style="stroke-width: 2"/><line x1="312" x2="542" y1="434.5" y2="434.5" class="net_24,25,26,27,28,29,30 width_7" style="stroke-width: 2"/><line x1="1817" x2="1940" y1="54.5" y2="54.5" class="net_14,15,16,17,18,19,20,21,22,23 width_10" style="stroke-width: 2"/><rect x="190" y="449.5" width="16" height="9" class="net_3,4,5,6,7,8,9 width_7 busLabel_7" style="fill: white; stroke: none"/><text x="189" y="457.5" class="net_3,4,5,6,7,8,9 width_7 busLabel_7">/7/</text><rect x="190" y="134.5" width="16" height="9" class="net_10,11,12,13 width_4 busLabel_4" style="fill: white; stroke: none"/><text x="189" y="142.5" class="net_10,11,12,13 width_4 busLabel_4">/4/</text><rect x="395" y="114.5" width="16" height="9" class="net_31,32,33,34 width_4 busLabel_4" style="fill: white; stroke: none"/><text x="394" y="122.5" class="net_31,32,33,34 width_4 busLabel_4">/4/</text><rect x="395" y="429.5" width="16" height="9" class="net_24,25,26,27,28,29,30 width_7 busLabel_7" style="fill: white; stroke: none"/><text x="394" y="437.5" class="net_24,25,26,27,28,29,30 width_7 busLabel_7">/7/</text><rect x="1902" y="49.5" width="22" height="9" class="net_14,15,16,17,18,19,20,21,22,23 width_10 busLabel_10" style="fill: white; stroke: none"/><text x="1901" y="57.5" class="net_14,15,16,17,18,19,20,21,22,23 width_10 busLabel_10">/10/</text></svg>