<svg xmlns="http://www.w3.org/2000/svg" xmlns:xlink="http://www.w3.org/1999/xlink" xmlns:s="https://github.com/nturley/netlistsvg" width="2005" height="560"><style>svg {
  stroke:#000;
  fill:none;
}
text {
  fill:#000;
  stroke:none;
  font-size:10px;
  font-weight: bold;
  font-family: "Courier New", monospace;
}
.nodelabel {
  text-anchor: middle;
}
.inputPortLabel {
  text-anchor: end;
}
.splitjoinBody {
  fill:#000;
}</style><g s:type="generic" transform="translate(281,505)" s:width="30" s:height="40" id="cell_:10"><text x="15" y="-4" class="nodelabel cell_:10" s:attribute="ref">$dff-bus</text><rect width="30" height="40" s:generic="body" class="cell_:10"/><g transform="translate(0,10)" s:x="0" s:y="10" s:pid="in0" id="port_:10~CLK"><text x="-3" y="-4" class="inputPortLabel cell_:10">CLK</text></g><g transform="translate(0,30)" s:x="0" s:y="10" s:pid="in0" id="port_:10~D"><text x="-3" y="-4" class="inputPortLabel cell_:10">D</text></g><g transform="translate(30,10)" s:x="30" s:y="10" s:pid="out0" id="port_:10~Q"><text x="5" y="-4" style="fill:#000; stroke:none" class="cell_:10">Q</text></g></g><g s:type="generic" transform="translate(281,176.5)" s:width="30" s:height="40" id="cell_:9"><text x="15" y="-4" class="nodelabel cell_:9" s:attribute="ref">$dff-bus</text><rect width="30" height="40" s:generic="body" class="cell_:9"/><g transform="translate(0,10)" s:x="0" s:y="10" s:pid="in0" id="port_:9~CLK"><text x="-3" y="-4" class="inputPortLabel cell_:9">CLK</text></g><g transform="translate(0,30)" s:x="0" s:y="10" s:pid="in0" id="port_:9~D"><text x="-3" y="-4" class="inputPortLabel cell_:9">D</text></g><g transform="translate(30,10)" s:x="30" s:y="10" s:pid="out0" id="port_:9~Q"><text x="5" y="-4" style="fill:#000; stroke:none" class="cell_:9">Q</text></g></g><g s:type="sub_odd" transform="translate(503,22)" s:width="30" s:height="40" id="cell_rom_instance"><text x="650" y="-4" class="nodelabel cell_rom_instance" s:attribute="ref">single_clock_rom</text><rect width="1300" height="525" s:generic="body" fill="#e9e9e9" rx="4" class="cell_rom_instance"/><g s:type="sub" transform="translate(190,75.5)" s:width="25" s:height="25" id="cell_:20"><s:alias val="$sub"/><circle r="12.5" cx="12.5" cy="12.5" class="cell_:20"/><line x1="7.5" x2="17.5" y1="12.5" y2="12.5" class="cell_:20"/><g s:x="3" s:y="5" s:pid="A"/><g s:x="3" s:y="20" s:pid="B"/><g s:x="25" s:y="12.5" s:pid="Y"/></g><g s:type="not" transform="translate(250,176)" s:width="30" s:height="20" id="cell_:24"><s:alias val="$_NOT_"/><s:alias val="$not"/><s:alias val="$logic_not"/><path d="M0,0 L0,20 L20,10 Z" class="cell_:24"/><circle cx="23" cy="10" r="3" class="cell_:24"/><text x="8" y="12" class="nodelabel" style="font-size:6px">NOT</text><g s:x="0" s:y="10" s:pid="A"/><g s:x="25" s:y="10" s:pid="Y"/></g><g s:type="generic" transform="translate(422,67.5)" s:width="30" s:height="40" id="cell_:26"><text x="15" y="-4" class="nodelabel cell_:26" s:attribute="ref">$pmux-bus</text><rect width="30" height="60" s:generic="body" class="cell_:26"/><g transform="translate(0,10)" s:x="0" s:y="10" s:pid="in0" id="port_:26~A"><text x="-3" y="-4" class="inputPortLabel cell_:26">A</text></g><g transform="translate(0,30)" s:x="0" s:y="10" s:pid="in0" id="port_:26~B"><text x="-3" y="-4" class="inputPortLabel cell_:26">B</text></g><g transform="translate(0,50)" s:x="0" s:y="10" s:pid="in0" id="port_:26~S"><text x="-3" y="-4" class="inputPortLabel cell_:26">S</text></g><g transform="translate(30,10)" s:x="30" s:y="10" s:pid="out0" id="port_:26~Y"><text x="5" y="-4" style="fill:#000; stroke:none" class="cell_:26">Y</text></g></g><g s:type="sub" transform="translate(955,122)" s:width="25" s:height="25" id="cell_:42"><s:alias val="$sub"/><circle r="12.5" cx="12.5" cy="12.5" class="cell_:42"/><line x1="7.5" x2="17.5" y1="12.5" y2="12.5" class="cell_:42"/><g s:x="3" s:y="5" s:pid="A"/><g s:x="3" s:y="20" s:pid="B"/><g s:x="25" s:y="12.5" s:pid="Y"/></g><g s:type="sub" transform="translate(534,247)" s:width="25" s:height="25" id="cell_:47"><s:alias val="$sub"/><circle r="12.5" cx="12.5" cy="12.5" class="cell_:47"/><line x1="7.5" x2="17.5" y1="12.5" y2="12.5" class="cell_:47"/><g s:x="3" s:y="5" s:pid="A"/><g s:x="3" s:y="20" s:pid="B"/><g s:x="25" s:y="12.5" s:pid="Y"/></g><g s:type="sub" transform="translate(534,180.5)" s:width="25" s:height="25" id="cell_:51"><s:alias val="$sub"/><circle r="12.5" cx="12.5" cy="12.5" class="cell_:51"/><line x1="7.5" x2="17.5" y1="12.5" y2="12.5" class="cell_:51"/><g s:x="3" s:y="5" s:pid="A"/><g s:x="3" s:y="20" s:pid="B"/><g s:x="25" s:y="12.5" s:pid="Y"/></g><g s:type="not" transform="translate(1015,396.5)" s:width="30" s:height="20" id="cell_:58"><s:alias val="$_NOT_"/><s:alias val="$not"/><s:alias val="$logic_not"/><path d="M0,0 L0,20 L20,10 Z" class="cell_:58"/><circle cx="23" cy="10" r="3" class="cell_:58"/><text x="8" y="12" class="nodelabel" style="font-size:6px">NOT</text><g s:x="0" s:y="10" s:pid="A"/><g s:x="25" s:y="10" s:pid="Y"/></g><g s:type="generic" transform="translate(1230,124)" s:width="30" s:height="40" id="cell_:60"><text x="15" y="-4" class="nodelabel cell_:60" s:attribute="ref">$pmux-bus</text><rect width="30" height="60" s:generic="body" class="cell_:60"/><g transform="translate(0,10)" s:x="0" s:y="10" s:pid="in0" id="port_:60~A"><text x="-3" y="-4" class="inputPortLabel cell_:60">A</text></g><g transform="translate(0,30)" s:x="0" s:y="10" s:pid="in0" id="port_:60~B"><text x="-3" y="-4" class="inputPortLabel cell_:60">B</text></g><g transform="translate(0,50)" s:x="0" s:y="10" s:pid="in0" id="port_:60~S"><text x="-3" y="-4" class="inputPortLabel cell_:60">S</text></g><g transform="translate(30,10)" s:x="30" s:y="10" s:pid="out0" id="port_:60~Y"><text x="5" y="-4" style="fill:#000; stroke:none" class="cell_:60">Y</text></g></g><g s:type="generic" transform="translate(1099,460)" s:width="30" s:height="40" id="cell_:64"><text x="15" y="-4" class="nodelabel cell_:64" s:attribute="ref">$dff-bus</text><rect width="30" height="40" s:generic="body" class="cell_:64"/><g transform="translate(0,10)" s:x="0" s:y="10" s:pid="in0" id="port_:64~CLK"><text x="-3" y="-4" class="inputPortLabel cell_:64">CLK</text></g><g transform="translate(0,30)" s:x="0" s:y="10" s:pid="in0" id="port_:64~D"><text x="-3" y="-4" class="inputPortLabel cell_:64">D</text></g><g transform="translate(30,10)" s:x="30" s:y="10" s:pid="out0" id="port_:64~Q"><text x="5" y="-4" style="fill:#000; stroke:none" class="cell_:64">Q</text></g></g><g s:type="generic" transform="translate(1230,36)" s:width="30" s:height="40" id="cell_:65"><text x="15" y="-4" class="nodelabel cell_:65" s:attribute="ref">$dff-bus</text><rect width="30" height="40" s:generic="body" class="cell_:65"/><g transform="translate(0,10)" s:x="0" s:y="10" s:pid="in0" id="port_:65~CLK"><text x="-3" y="-4" class="inputPortLabel cell_:65">CLK</text></g><g transform="translate(0,30)" s:x="0" s:y="10" s:pid="in0" id="port_:65~D"><text x="-3" y="-4" class="inputPortLabel cell_:65">D</text></g><g transform="translate(30,10)" s:x="30" s:y="10" s:pid="out0" id="port_:65~Q"><text x="5" y="-4" style="fill:#000; stroke:none" class="cell_:65">Q</text></g></g><g s:type="generic" transform="translate(807,192.5)" s:width="30" s:height="40" id="cell_:66"><text x="15" y="-4" class="nodelabel cell_:66" s:attribute="ref">$mem_v2-bus</text><rect width="30" height="180" s:generic="body" class="cell_:66"/><g transform="translate(0,10)" s:x="0" s:y="10" s:pid="in0" id="port_:66~RD_ADDR"><text x="-3" y="-4" class="inputPortLabel cell_:66">RD_ADDR</text></g><g transform="translate(0,30)" s:x="0" s:y="10" s:pid="in0" id="port_:66~RD_ARST"><text x="-3" y="-4" class="inputPortLabel cell_:66">RD_ARST</text></g><g transform="translate(0,50)" s:x="0" s:y="10" s:pid="in0" id="port_:66~RD_CLK"><text x="-3" y="-4" class="inputPortLabel cell_:66">RD_CLK</text></g><g transform="translate(0,70)" s:x="0" s:y="10" s:pid="in0" id="port_:66~RD_EN"><text x="-3" y="-4" class="inputPortLabel cell_:66">RD_EN</text></g><g transform="translate(0,90)" s:x="0" s:y="10" s:pid="in0" id="port_:66~RD_SRST"><text x="-3" y="-4" class="inputPortLabel cell_:66">RD_SRST</text></g><g transform="translate(0,110)" s:x="0" s:y="10" s:pid="in0" id="port_:66~WR_ADDR"><text x="-3" y="-4" class="inputPortLabel cell_:66">WR_ADDR</text></g><g transform="translate(0,130)" s:x="0" s:y="10" s:pid="in0" id="port_:66~WR_CLK"><text x="-3" y="-4" class="inputPortLabel cell_:66">WR_CLK</text></g><g transform="translate(0,150)" s:x="0" s:y="10" s:pid="in0" id="port_:66~WR_DATA"><text x="-3" y="-4" class="inputPortLabel cell_:66">WR_DATA</text></g><g transform="translate(0,170)" s:x="0" s:y="10" s:pid="in0" id="port_:66~WR_EN"><text x="-3" y="-4" class="inputPortLabel cell_:66">WR_EN</text></g><g transform="translate(30,10)" s:x="30" s:y="10" s:pid="out0" id="port_:66~RD_DATA"><text x="5" y="-4" style="fill:#000; stroke:none" class="cell_:66">RD_DATA</text></g></g><g s:type="constant" transform="translate(81,70.5)" s:width="30" s:height="20" id="cell_11111"><text x="15" y="-4" class="nodelabel cell_11111" s:attribute="ref">0x1f</text><s:alias val="$_constant_"/><rect width="30" height="20" class="cell_11111"/><g s:x="30" s:y="10" s:pid="Y"/></g><g s:type="constant" transform="translate(693,254)" s:width="30" s:height="20" id="cell_0"><text x="15" y="-4" class="nodelabel cell_0" s:attribute="ref">0</text><s:alias val="$_constant_"/><rect width="30" height="20" class="cell_0"/><g s:x="30" s:y="10" s:pid="Y"/></g><g s:type="constant" transform="translate(422,175.5)" s:width="30" s:height="20" id="cell_1111"><text x="15" y="-4" class="nodelabel cell_1111" s:attribute="ref">0xf</text><s:alias val="$_constant_"/><rect width="30" height="20" class="cell_1111"/><g s:x="30" s:y="10" s:pid="Y"/></g><g s:type="constant" transform="translate(693,319)" s:width="30" s:height="20" id="cell_1"><text x="15" y="-4" class="nodelabel cell_1" s:attribute="ref">1</text><s:alias val="$_constant_"/><rect width="30" height="20" class="cell_1"/><g s:x="30" s:y="10" s:pid="Y"/></g><g s:type="join" transform="translate(334,77.5)" s:width="4" s:height="40" id="cell_$join$,24,25,26,27,28,3,4,5,6,7,"><rect width="5" height="40" class="splitjoinBody" s:generic="body"/><s:alias val="$_join_"/><g s:x="5" s:y="20" s:pid="out"/><g transform="translate(0,10)" s:x="0" s:y="10" s:pid="in0"><text x="-3" y="-4" class="inputPortLabel">0:4</text></g><g transform="translate(0,30)" s:x="0" s:y="10" s:pid="in0"><text x="-3" y="-4" class="inputPortLabel">5:9</text></g></g><g s:type="join" transform="translate(328.3333333333333,154.5)" s:width="4" s:height="40" id="cell_$join$,8,29,"><rect width="5" height="40" class="splitjoinBody" s:generic="body"/><s:alias val="$_join_"/><g s:x="5" s:y="20" s:pid="out"/><g transform="translate(0,10)" s:x="0" s:y="10" s:pid="in0"><text x="-3" y="-4" class="inputPortLabel">0</text></g><g transform="translate(0,30)" s:x="0" s:y="10" s:pid="in0"><text x="-3" y="-4" class="inputPortLabel">1</text></g></g><g s:type="join" transform="translate(1102.75,124)" s:width="4" s:height="40" id="cell_$join$,49,50,51,52,53,54,55,56,57,58,40,41,42,43,44,45,46,47,48,84,"><rect width="5" height="60" class="splitjoinBody" s:generic="body"/><s:alias val="$_join_"/><g s:x="5" s:y="20" s:pid="out"/><g transform="translate(0,10)" s:x="0" s:y="10" s:pid="in0"><text x="-3" y="-4" class="inputPortLabel">0:9</text></g><g transform="translate(0,30)" s:x="0" s:y="10" s:pid="in0"><text x="-3" y="-4" class="inputPortLabel">10:18</text></g><g transform="translate(0,50)" s:x="0" s:y="10" s:pid="in0"><text x="-3" y="-4" class="inputPortLabel">19</text></g></g><g s:type="join" transform="translate(1104,375)" s:width="4" s:height="40" id="cell_$join$,9,68,"><rect width="5" height="40" class="splitjoinBody" s:generic="body"/><s:alias val="$_join_"/><g s:x="5" s:y="20" s:pid="out"/><g transform="translate(0,10)" s:x="0" s:y="10" s:pid="in0"><text x="-3" y="-4" class="inputPortLabel">0</text></g><g transform="translate(0,30)" s:x="0" s:y="10" s:pid="in0"><text x="-3" y="-4" class="inputPortLabel">1</text></g></g><g s:type="join" transform="translate(652,182.5)" s:width="4" s:height="40" id="cell_$join$,64,65,66,67,59,60,61,62,63,"><rect width="5" height="40" class="splitjoinBody" s:generic="body"/><s:alias val="$_join_"/><g s:x="5" s:y="20" s:pid="out"/><g transform="translate(0,10)" s:x="0" s:y="10" s:pid="in0"><text x="-3" y="-4" class="inputPortLabel">0:3</text></g><g transform="translate(0,30)" s:x="0" s:y="10" s:pid="in0"><text x="-3" y="-4" class="inputPortLabel">4:8</text></g></g><g s:type="split" transform="translate(87,134.5)" s:width="5" s:height="40" id="cell_$split$,3,4,5,6,7,8,9,"><rect width="5" height="60" class="splitjoinBody" s:generic="body"/><s:alias val="$_split_"/><g s:x="0" s:y="20" s:pid="in"/><g transform="translate(4,10)" s:x="4" s:y="10" s:pid="out0"><text x="5" y="-4">0:4</text></g><g transform="translate(4,30)" s:x="4" s:y="10" s:pid="out0"><text x="5" y="-4">5</text></g><g transform="translate(4,50)" s:x="4" s:y="10" s:pid="out0"><text x="5" y="-4">6</text></g></g><line x1="111" x2="193" y1="80.5" y2="80.5" class="net_79,80,81,82,83"/><line x1="111" x2="131" y1="80.5" y2="80.5" class="net_79,80,81,82,83"/><line x1="131" x2="131" y1="80.5" y2="252" class="net_79,80,81,82,83"/><circle cx="131" cy="80.5" r="2" style="fill:#000" class="net_79,80,81,82,83"/><line x1="131" x2="537" y1="252" y2="252" class="net_79,80,81,82,83"/><line x1="92" x2="141" y1="145" y2="145" class="net_3,4,5,6,7"/><line x1="141" x2="141" y1="145" y2="100.5" class="net_3,4,5,6,7"/><line x1="141" x2="165" y1="100.5" y2="100.5" class="net_3,4,5,6,7"/><line x1="165" x2="165" y1="100.5" y2="95.5" class="net_3,4,5,6,7"/><line x1="165" x2="193" y1="95.5" y2="95.5" class="net_3,4,5,6,7"/><line x1="92" x2="141" y1="145" y2="145" class="net_3,4,5,6,7"/><line x1="141" x2="141" y1="145" y2="139.5" class="net_3,4,5,6,7"/><line x1="141" x2="290" y1="139.5" y2="139.5" class="net_3,4,5,6,7"/><line x1="290" x2="290" y1="139.5" y2="108" class="net_3,4,5,6,7"/><circle cx="141" cy="139.5" r="2" style="fill:#000" class="net_3,4,5,6,7"/><line x1="290" x2="334" y1="108" y2="108" class="net_3,4,5,6,7"/><line x1="92" x2="225" y1="165" y2="165" class="net_8"/><line x1="225" x2="225" y1="165" y2="186" class="net_8"/><circle cx="225" cy="165" r="2" style="fill:#000" class="net_8"/><line x1="225" x2="250" y1="186" y2="186" class="net_8"/><line x1="92" x2="328.3333333333333" y1="165" y2="165" class="net_8"/><line x1="1261" x2="1278" y1="46.5" y2="46.5" class="net_30,31,32,33,34"/><line x1="1278" x2="1278" y1="46.5" y2="16" class="net_30,31,32,33,34"/><line x1="1278" x2="389" y1="16" y2="16" class="net_30,31,32,33,34"/><line x1="389" x2="389" y1="16" y2="78" class="net_30,31,32,33,34"/><line x1="389" x2="422" y1="78" y2="78" class="net_30,31,32,33,34"/><line x1="340" x2="421" y1="98" y2="98" class="net_24,25,26,27,28,3,4,5,6,7"/><line x1="334.3333333333333" x2="389" y1="175" y2="175" class="net_8,29"/><line x1="389" x2="389" y1="175" y2="118" class="net_8,29"/><line x1="389" x2="421" y1="118" y2="118" class="net_8,29"/><line x1="838" x2="891" y1="203" y2="203" class="net_40,41,42,43,44,45,46,47,48"/><line x1="891" x2="891" y1="203" y2="127" class="net_40,41,42,43,44,45,46,47,48"/><line x1="891" x2="958" y1="127" y2="127" class="net_40,41,42,43,44,45,46,47,48"/><line x1="838" x2="891" y1="203" y2="203" class="net_40,41,42,43,44,45,46,47,48"/><line x1="891" x2="891" y1="203" y2="186" class="net_40,41,42,43,44,45,46,47,48"/><line x1="891" x2="1055" y1="186" y2="186" class="net_40,41,42,43,44,45,46,47,48"/><line x1="1055" x2="1055" y1="186" y2="154.5" class="net_40,41,42,43,44,45,46,47,48"/><circle cx="891" cy="186" r="2" style="fill:#000" class="net_40,41,42,43,44,45,46,47,48"/><line x1="1055" x2="1102.75" y1="154.5" y2="154.5" class="net_40,41,42,43,44,45,46,47,48"/><line x1="723" x2="733" y1="264" y2="264" class="net_84"/><line x1="733" x2="733" y1="264" y2="143" class="net_84"/><line x1="733" x2="930" y1="143" y2="143" class="net_84"/><line x1="930" x2="930" y1="143" y2="142" class="net_84"/><circle cx="733" cy="264" r="2" style="fill:#000" class="net_84"/><line x1="930" x2="958" y1="142" y2="142" class="net_84"/><line x1="723" x2="733" y1="264" y2="264" class="net_84"/><line x1="733" x2="733" y1="264" y2="223" class="net_84"/><circle cx="733" cy="223" r="2" style="fill:#000" class="net_84"/><line x1="733" x2="806" y1="223" y2="223" class="net_84"/><line x1="723" x2="733" y1="264" y2="264" class="net_84"/><line x1="733" x2="733" y1="264" y2="243" class="net_84"/><circle cx="733" cy="243" r="2" style="fill:#000" class="net_84"/><line x1="733" x2="806" y1="243" y2="243" class="net_84"/><line x1="723" x2="733" y1="264" y2="264" class="net_84"/><line x1="733" x2="733" y1="264" y2="283" class="net_84"/><line x1="733" x2="806" y1="283" y2="283" class="net_84"/><line x1="723" x2="733" y1="264" y2="264" class="net_84"/><line x1="733" x2="733" y1="264" y2="143" class="net_84"/><line x1="733" x2="901" y1="143" y2="143" class="net_84"/><line x1="901" x2="901" y1="143" y2="202" class="net_84"/><line x1="901" x2="1065" y1="202" y2="202" class="net_84"/><line x1="1065" x2="1065" y1="202" y2="174.5" class="net_84"/><circle cx="901" cy="143" r="2" style="fill:#000" class="net_84"/><line x1="1065" x2="1102.75" y1="174.5" y2="174.5" class="net_84"/><line x1="453" x2="470" y1="78" y2="78" class="net_35,36,37,38,39"/><line x1="470" x2="470" y1="78" y2="267" class="net_35,36,37,38,39"/><circle cx="470" cy="78" r="2" style="fill:#000" class="net_35,36,37,38,39"/><line x1="470" x2="537" y1="267" y2="267" class="net_35,36,37,38,39"/><line x1="453" x2="1186" y1="78" y2="78" class="net_35,36,37,38,39"/><line x1="1186" x2="1186" y1="78" y2="66.5" class="net_35,36,37,38,39"/><line x1="1186" x2="1229" y1="66.5" y2="66.5" class="net_35,36,37,38,39"/><line x1="452" x2="537" y1="185.5" y2="185.5" class="net_90,91,92,93"/><line x1="0" x2="32" y1="493.5" y2="493.5" class="net_10,11,12,13"/><line x1="32" x2="32" y1="493.5" y2="235" class="net_10,11,12,13"/><line x1="32" x2="509" y1="235" y2="235" class="net_10,11,12,13"/><line x1="509" x2="509" y1="235" y2="200.5" class="net_10,11,12,13"/><line x1="509" x2="537" y1="200.5" y2="200.5" class="net_10,11,12,13"/><line x1="92" x2="121" y1="185" y2="185" class="net_9"/><line x1="121" x2="121" y1="185" y2="385.5" class="net_9"/><line x1="121" x2="990" y1="385.5" y2="385.5" class="net_9"/><line x1="990" x2="990" y1="385.5" y2="406.5" class="net_9"/><circle cx="990" cy="385.5" r="2" style="fill:#000" class="net_9"/><line x1="990" x2="1015" y1="406.5" y2="406.5" class="net_9"/><line x1="92" x2="121" y1="185" y2="185" class="net_9"/><line x1="121" x2="121" y1="185" y2="385.5" class="net_9"/><line x1="121" x2="1104" y1="385.5" y2="385.5" class="net_9"/><line x1="1130" x2="1147" y1="470.5" y2="470.5" class="net_14,15,16,17,18,19,20,21,22,23"/><line x1="1147" x2="1147" y1="470.5" y2="134.5" class="net_14,15,16,17,18,19,20,21,22,23"/><circle cx="1147" cy="470.5" r="2" style="fill:#000" class="net_14,15,16,17,18,19,20,21,22,23"/><line x1="1147" x2="1230" y1="134.5" y2="134.5" class="net_14,15,16,17,18,19,20,21,22,23"/><line x1="1130" x2="1300" y1="470.5" y2="470.5" class="net_14,15,16,17,18,19,20,21,22,23"/><line x1="1108.75" x2="1229" y1="154.5" y2="154.5" class="net_49,50,51,52,53,54,55,56,57,58,40,41,42,43,44,45,46,47,48,84"/><line x1="1110" x2="1186" y1="395.5" y2="395.5" class="net_9,68"/><line x1="1186" x2="1186" y1="395.5" y2="174.5" class="net_9,68"/><line x1="1186" x2="1229" y1="174.5" y2="174.5" class="net_9,68"/><line x1="0" x2="1099" y1="470.5" y2="470.5" class="net_2"/><line x1="0" x2="22" y1="470.5" y2="470.5" class="net_2"/><line x1="22" x2="22" y1="470.5" y2="46.5" class="net_2"/><circle cx="22" cy="470.5" r="2" style="fill:#000" class="net_2"/><line x1="22" x2="1230" y1="46.5" y2="46.5" class="net_2"/><line x1="1261" x2="1278" y1="134.5" y2="134.5" class="net_69,70,71,72,73,74,75,76,77,78"/><line x1="1278" x2="1278" y1="134.5" y2="415.5" class="net_69,70,71,72,73,74,75,76,77,78"/><line x1="1278" x2="1157" y1="415.5" y2="415.5" class="net_69,70,71,72,73,74,75,76,77,78"/><line x1="1157" x2="1157" y1="415.5" y2="513" class="net_69,70,71,72,73,74,75,76,77,78"/><line x1="1157" x2="1065" y1="513" y2="513" class="net_69,70,71,72,73,74,75,76,77,78"/><line x1="1065" x2="1065" y1="513" y2="490.5" class="net_69,70,71,72,73,74,75,76,77,78"/><line x1="1065" x2="1098" y1="490.5" y2="490.5" class="net_69,70,71,72,73,74,75,76,77,78"/><line x1="658" x2="807" y1="203" y2="203" class="net_64,65,66,67,59,60,61,62,63"/><line x1="723" x2="743" y1="329" y2="329" class="net_97"/><line x1="743" x2="743" y1="329" y2="263" class="net_97"/><line x1="743" x2="806" y1="263" y2="263" class="net_97"/><line x1="753" x2="753" y1="363" y2="303" class="net_"/><line x1="753" x2="806" y1="303" y2="303" class="net_"/><line x1="753" x2="753" y1="363" y2="323" class="net_"/><circle cx="753" cy="323" r="2" style="fill:#000" class="net_"/><line x1="753" x2="806" y1="323" y2="323" class="net_"/><line x1="753" x2="753" y1="363" y2="343" class="net_"/><circle cx="753" cy="343" r="2" style="fill:#000" class="net_"/><line x1="753" x2="806" y1="343" y2="343" class="net_"/><line x1="753" x2="753" y1="363" y2="363" class="net_"/><line x1="753" x2="806" y1="363" y2="363" class="net_"/><line x1="215" x2="334" y1="88" y2="88" class="net_24,25,26,27,28"/><line x1="275" x2="290" y1="186" y2="186" class="net_29"/><line x1="290" x2="290" y1="186" y2="185" class="net_29"/><line x1="290" x2="328.3333333333333" y1="185" y2="185" class="net_29"/><line x1="980" x2="1102.75" y1="134.5" y2="134.5" class="net_49,50,51,52,53,54,55,56,57,58"/><line x1="1040" x2="1055" y1="406.5" y2="406.5" class="net_68"/><line x1="1055" x2="1055" y1="406.5" y2="405.5" class="net_68"/><line x1="1055" x2="1104" y1="405.5" y2="405.5" class="net_68"/><line x1="559" x2="652" y1="193" y2="193" class="net_64,65,66,67"/><line x1="559" x2="608" y1="259.5" y2="259.5" class="net_59,60,61,62,63"/><line x1="608" x2="608" y1="259.5" y2="213" class="net_59,60,61,62,63"/><line x1="608" x2="652" y1="213" y2="213" class="net_59,60,61,62,63"/><line x1="0" x2="87" y1="165" y2="165" class="net_3,4,5,6,7,8,9"/><g transform="translate(-1,470)" s:x="0" s:y="10" s:pid="in0" id="port_rom_instance~clock"><text x="-3" y="-4" class="inputPortLabel cell_rom_instance">clock</text></g><g transform="translate(-1,493)" s:x="0" s:y="10" s:pid="in0" id="port_rom_instance~nibble_product_idx"><text x="-3" y="-4" class="inputPortLabel cell_rom_instance">nibble_product_idx</text></g><g transform="translate(-1,164.5)" s:x="0" s:y="10" s:pid="in0" id="port_rom_instance~read_angle_idx"><text x="-3" y="-4" class="inputPortLabel cell_rom_instance">read_angle_idx</text></g><g transform="translate(1300,470)" s:x="30" s:y="10" s:pid="out0" id="port_rom_instance~output"><text x="5" y="-4" style="fill:#000; stroke:none" class="cell_rom_instance">output</text></g></g><g s:type="inputExt" transform="translate(155,474)" s:width="30" s:height="20" id="cell_inClock50Mhz"><text x="15" y="-4" class="nodelabel cell_inClock50Mhz" s:attribute="ref">inClock50Mhz</text><s:alias val="$_inputExt_"/><path d="M0,0 L0,20 L15,20 L30,10 L15,0 Z" class="cell_inClock50Mhz"/><g s:x="28" s:y="10" s:pid="Y"/></g><g s:type="inputExt" transform="translate(12,197)" s:width="30" s:height="20" id="cell_inAngleIdxToRead"><text x="15" y="-4" class="nodelabel cell_inAngleIdxToRead" s:attribute="ref">inAngleIdxToRead</text><s:alias val="$_inputExt_"/><path d="M0,0 L0,20 L15,20 L30,10 L15,0 Z" class="cell_inAngleIdxToRead"/><g s:x="28" s:y="10" s:pid="Y"/></g><g s:type="inputExt" transform="translate(12,525.5)" s:width="30" s:height="20" id="cell_inNibbleProductIdx"><text x="15" y="-4" class="nodelabel cell_inNibbleProductIdx" s:attribute="ref">inNibbleProductIdx</text><s:alias val="$_inputExt_"/><path d="M0,0 L0,20 L15,20 L30,10 L15,0 Z" class="cell_inNibbleProductIdx"/><g s:x="28" s:y="10" s:pid="Y"/></g><g s:type="outputExt" transform="translate(1915,482.5)" s:width="30" s:height="20" id="cell_outReadMemory"><text x="15" y="-4" class="nodelabel cell_outReadMemory" s:attribute="ref">outReadMemory</text><s:alias val="$_outputExt_"/><path d="M30,0 L30,20 L15,20 L0,10 L15,0 Z" class="cell_outReadMemory"/><g s:x="0" s:y="10" s:pid="A"/></g><line x1="183" x2="237" y1="484" y2="484" class="net_2 width_1" style="stroke-width: 1"/><line x1="237" x2="237" y1="484" y2="515.5" class="net_2 width_1" style="stroke-width: 1"/><circle cx="237" cy="484" r="2" style="fill:#000" class="net_2 width_1"/><line x1="237" x2="281" y1="515.5" y2="515.5" class="net_2 width_1" style="stroke-width: 1"/><line x1="183" x2="237" y1="484" y2="484" class="net_2 width_1" style="stroke-width: 1"/><line x1="237" x2="237" y1="484" y2="187" class="net_2 width_1" style="stroke-width: 1"/><line x1="237" x2="281" y1="187" y2="187" class="net_2 width_1" style="stroke-width: 1"/><line x1="183" x2="368" y1="484" y2="484" class="net_2 width_1" style="stroke-width: 1"/><line x1="368" x2="368" y1="484" y2="492.5" class="net_2 width_1" style="stroke-width: 1"/><line x1="368" x2="502" y1="492.5" y2="492.5" class="net_2 width_1" style="stroke-width: 1"/><line x1="40" x2="280" y1="535.5" y2="535.5" class="net_10,11,12,13 width_4" style="stroke-width: 2"/><line x1="40" x2="280" y1="207" y2="207" class="net_3,4,5,6,7,8,9 width_7" style="stroke-width: 2"/><line x1="312" x2="502" y1="515.5" y2="515.5" class="net_24,25,26,27 width_4" style="stroke-width: 2"/><line x1="312" x2="502" y1="187" y2="187" class="net_28,29,30,31,32,33,34 width_7" style="stroke-width: 2"/><line x1="1804" x2="1915" y1="492.5" y2="492.5" class="net_14,15,16,17,18,19,20,21,22,23 width_10" style="stroke-width: 2"/><rect x="190" y="530.5" width="16" height="9" class="net_10,11,12,13 width_4 busLabel_4" style="fill: white; stroke: none"/><text x="189" y="538.5" class="net_10,11,12,13 width_4 busLabel_4">/4/</text><rect x="190" y="202" width="16" height="9" class="net_3,4,5,6,7,8,9 width_7 busLabel_7" style="fill: white; stroke: none"/><text x="189" y="210" class="net_3,4,5,6,7,8,9 width_7 busLabel_7">/7/</text><rect x="355" y="510.5" width="16" height="9" class="net_24,25,26,27 width_4 busLabel_4" style="fill: white; stroke: none"/><text x="354" y="518.5" class="net_24,25,26,27 width_4 busLabel_4">/4/</text><rect x="355" y="182" width="16" height="9" class="net_28,29,30,31,32,33,34 width_7 busLabel_7" style="fill: white; stroke: none"/><text x="354" y="190" class="net_28,29,30,31,32,33,34 width_7 busLabel_7">/7/</text><rect x="1877" y="487.5" width="22" height="9" class="net_14,15,16,17,18,19,20,21,22,23 width_10 busLabel_10" style="fill: white; stroke: none"/><text x="1876" y="495.5" class="net_14,15,16,17,18,19,20,21,22,23 width_10 busLabel_10">/10/</text></svg>