<svg xmlns="http://www.w3.org/2000/svg" xmlns:xlink="http://www.w3.org/1999/xlink" xmlns:s="https://github.com/nturley/netlistsvg" width="1036" height="587"><style>svg {
  stroke:#000;
  fill:none;
}
text {
  fill:#000;
  stroke:none;
  font-size:10px;
  font-weight: bold;
  font-family: "Courier New", monospace;
}
line {
    stroke-linecap: round;
}
.nodelabel {
  text-anchor: middle;
}
.inputPortLabel {
  text-anchor: end;
}
.splitjoinBody {
  fill:#000;
}</style><g s:type="mux-bus" transform="translate(943,57)" s:width="24" s:height="40" id="cell_:12"><s:alias val="$pmux-bus"/><s:alias val="$mux-bus"/><s:alias val="$_MUX_-bus"/><path d="M0,0 L20,10 L20,30 L0,40 Z" fill="#ffffff" class="cell_:12"/><path d="M4,2 L4,0 L22,9 L22,31 L4,40 L4,38" fill="#ffffff" class="cell_:12"/><path d="M8,2 L8,0 L24,8 L24,32 L8,40 L8,38" fill="#ffffff" class="cell_:12"/><text x="5" y="32" class="nodelabel cell_:12" s:attribute="">1</text><text x="5" y="13" class="nodelabel cell_:12" s:attribute="">0</text><g s:x="-1" s:y="10" s:pid="A"/><g s:x="-1" s:y="30" s:pid="B"/><g s:x="12" s:y="38" s:pid="S"/><g s:x="24.5" s:y="20" s:pid="Y"/></g><g s:type="mux-bus" transform="translate(659.6666666666666,47)" s:width="24" s:height="40" id="cell_:14"><s:alias val="$pmux-bus"/><s:alias val="$mux-bus"/><s:alias val="$_MUX_-bus"/><path d="M0,0 L20,10 L20,30 L0,40 Z" fill="#ffffff" class="cell_:14"/><path d="M4,2 L4,0 L22,9 L22,31 L4,40 L4,38" fill="#ffffff" class="cell_:14"/><path d="M8,2 L8,0 L24,8 L24,32 L8,40 L8,38" fill="#ffffff" class="cell_:14"/><text x="5" y="32" class="nodelabel cell_:14" s:attribute="">1</text><text x="5" y="13" class="nodelabel cell_:14" s:attribute="">0</text><g s:x="-1" s:y="10" s:pid="A"/><g s:x="-1" s:y="30" s:pid="B"/><g s:x="12" s:y="38" s:pid="S"/><g s:x="24.5" s:y="20" s:pid="Y"/></g><g s:type="mux" transform="translate(659.6666666666666,289)" s:width="20" s:height="40" id="cell_:16"><s:alias val="$pmux"/><s:alias val="$mux"/><s:alias val="$_MUX_"/><path d="M0,0 L20,10 L20,30 L0,40 Z" fill="#ffffff" class="cell_:16"/><text x="5" y="32" class="nodelabel cell_:16" s:attribute="">1</text><text x="5" y="13" class="nodelabel cell_:16" s:attribute="">0</text><g s:x="0" s:y="10" s:pid="A"/><g s:x="0" s:y="30" s:pid="B"/><g s:x="10" s:y="35" s:pid="S"/><g s:x="20" s:y="20" s:pid="Y"/></g><g s:type="mux" transform="translate(817.6666666666666,435)" s:width="20" s:height="40" id="cell_:18"><s:alias val="$pmux"/><s:alias val="$mux"/><s:alias val="$_MUX_"/><path d="M0,0 L20,10 L20,30 L0,40 Z" fill="#ffffff" class="cell_:18"/><text x="5" y="32" class="nodelabel cell_:18" s:attribute="">1</text><text x="5" y="13" class="nodelabel cell_:18" s:attribute="">0</text><g s:x="0" s:y="10" s:pid="A"/><g s:x="0" s:y="30" s:pid="B"/><g s:x="10" s:y="35" s:pid="S"/><g s:x="20" s:y="20" s:pid="Y"/></g><g s:type="mul" transform="translate(143.66666666666666,206.5)" s:width="25" s:height="25" id="cell_:26"><s:alias val="$mul"/><circle r="12.5" cx="12.5" cy="12.5" fill="#ffffff" class="cell_:26"/><line x1="7.5" x2="17.5" y1="7.5" y2="17.5" fill="#ffffff" class="cell_:26"/><line x1="17.5" x2="7.5" y1="7.5" y2="17.5" fill="#ffffff" class="cell_:26"/><g s:x="2" s:y="5" s:pid="A"/><g s:x="2" s:y="20" s:pid="B"/><g s:x="26" s:y="12.5" s:pid="Y"/></g><g s:type="mul" transform="translate(143.66666666666666,322)" s:width="25" s:height="25" id="cell_:31"><s:alias val="$mul"/><circle r="12.5" cx="12.5" cy="12.5" fill="#ffffff" class="cell_:31"/><line x1="7.5" x2="17.5" y1="7.5" y2="17.5" fill="#ffffff" class="cell_:31"/><line x1="17.5" x2="7.5" y1="7.5" y2="17.5" fill="#ffffff" class="cell_:31"/><g s:x="2" s:y="5" s:pid="A"/><g s:x="2" s:y="20" s:pid="B"/><g s:x="26" s:y="12.5" s:pid="Y"/></g><g s:type="add" transform="translate(259.66666666666663,214)" s:width="25" s:height="25" id="cell_:33"><s:alias val="$add"/><circle r="12.5" cx="12.5" cy="12.5" fill="#ffffff" class="cell_:33"/><line x1="7.5" x2="17.5" y1="12.5" y2="12.5" fill="#ffffff" class="cell_:33"/><line x1="12.5" x2="12.5" y1="7.5" y2="17.5" fill="#ffffff" class="cell_:33"/><g s:x="2" s:y="5" s:pid="A"/><g s:x="2" s:y="20" s:pid="B"/><g s:x="26" s:y="12.5" s:pid="Y"/></g><g s:type="mul" transform="translate(259.66666666666663,381)" s:width="25" s:height="25" id="cell_:37"><s:alias val="$mul"/><circle r="12.5" cx="12.5" cy="12.5" fill="#ffffff" class="cell_:37"/><line x1="7.5" x2="17.5" y1="7.5" y2="17.5" fill="#ffffff" class="cell_:37"/><line x1="17.5" x2="7.5" y1="7.5" y2="17.5" fill="#ffffff" class="cell_:37"/><g s:x="2" s:y="5" s:pid="A"/><g s:x="2" s:y="20" s:pid="B"/><g s:x="26" s:y="12.5" s:pid="Y"/></g><g s:type="add" transform="translate(370,221.5)" s:width="25" s:height="25" id="cell_:39"><s:alias val="$add"/><circle r="12.5" cx="12.5" cy="12.5" fill="#ffffff" class="cell_:39"/><line x1="7.5" x2="17.5" y1="12.5" y2="12.5" fill="#ffffff" class="cell_:39"/><line x1="12.5" x2="12.5" y1="7.5" y2="17.5" fill="#ffffff" class="cell_:39"/><g s:x="2" s:y="5" s:pid="A"/><g s:x="2" s:y="20" s:pid="B"/><g s:x="26" s:y="12.5" s:pid="Y"/></g><g s:type="mul" transform="translate(370,463)" s:width="25" s:height="25" id="cell_:43"><s:alias val="$mul"/><circle r="12.5" cx="12.5" cy="12.5" fill="#ffffff" class="cell_:43"/><line x1="7.5" x2="17.5" y1="7.5" y2="17.5" fill="#ffffff" class="cell_:43"/><line x1="17.5" x2="7.5" y1="7.5" y2="17.5" fill="#ffffff" class="cell_:43"/><g s:x="2" s:y="5" s:pid="A"/><g s:x="2" s:y="20" s:pid="B"/><g s:x="26" s:y="12.5" s:pid="Y"/></g><g s:type="add" transform="translate(472,229)" s:width="25" s:height="25" id="cell_:45"><s:alias val="$add"/><circle r="12.5" cx="12.5" cy="12.5" fill="#ffffff" class="cell_:45"/><line x1="7.5" x2="17.5" y1="12.5" y2="12.5" fill="#ffffff" class="cell_:45"/><line x1="12.5" x2="12.5" y1="7.5" y2="17.5" fill="#ffffff" class="cell_:45"/><g s:x="2" s:y="5" s:pid="A"/><g s:x="2" s:y="20" s:pid="B"/><g s:x="26" s:y="12.5" s:pid="Y"/></g><g s:type="mux-bus" transform="translate(815.5,203.5)" s:width="24" s:height="40" id="cell_:49"><s:alias val="$pmux-bus"/><s:alias val="$mux-bus"/><s:alias val="$_MUX_-bus"/><path d="M0,0 L20,10 L20,30 L0,40 Z" fill="#ffffff" class="cell_:49"/><path d="M4,2 L4,0 L22,9 L22,31 L4,40 L4,38" fill="#ffffff" class="cell_:49"/><path d="M8,2 L8,0 L24,8 L24,32 L8,40 L8,38" fill="#ffffff" class="cell_:49"/><text x="5" y="32" class="nodelabel cell_:49" s:attribute="">1</text><text x="5" y="13" class="nodelabel cell_:49" s:attribute="">0</text><g s:x="-1" s:y="10" s:pid="A"/><g s:x="-1" s:y="30" s:pid="B"/><g s:x="12" s:y="38" s:pid="S"/><g s:x="24.5" s:y="20" s:pid="Y"/></g><g s:type="mux-bus" transform="translate(943,213.5)" s:width="24" s:height="40" id="cell_:51"><s:alias val="$pmux-bus"/><s:alias val="$mux-bus"/><s:alias val="$_MUX_-bus"/><path d="M0,0 L20,10 L20,30 L0,40 Z" fill="#ffffff" class="cell_:51"/><path d="M4,2 L4,0 L22,9 L22,31 L4,40 L4,38" fill="#ffffff" class="cell_:51"/><path d="M8,2 L8,0 L24,8 L24,32 L8,40 L8,38" fill="#ffffff" class="cell_:51"/><text x="5" y="32" class="nodelabel cell_:51" s:attribute="">1</text><text x="5" y="13" class="nodelabel cell_:51" s:attribute="">0</text><g s:x="-1" s:y="10" s:pid="A"/><g s:x="-1" s:y="30" s:pid="B"/><g s:x="12" s:y="38" s:pid="S"/><g s:x="24.5" s:y="20" s:pid="Y"/></g><g s:type="dff-bus" transform="translate(805,57)" s:width="34" s:height="44" id="cell_:54"><s:alias val="$dff-bus"/><s:alias val="$_DFF_-bus"/><s:alias val="$_DFF_P_-bus"/><s:alias val="adff-bus"/><s:alias val="$adff-bus"/><s:alias val="$_DFF_-bus"/><s:alias val="$_DFF_P_-bus"/><s:alias val="sdff-bus"/><s:alias val="$sdff-bus"/><s:alias val="$_DFF_-bus"/><s:alias val="$_DFF_P_-bus"/><rect width="30" height="40" x="0" y="0" fill="#ffffff" class="cell_:54"/><path d="M0,35 L5,30 L0,25" fill="#ffffff" class="cell_:54"/><path d="M30,2 L32,2 L32,42 L2,42 L2,40" fill="#ffffff" class="cell_:54"/><path d="M32,4 L34,4 L34,44 L4,44 L4,42" fill="#ffffff" class="cell_:54"/><g s:x="35" s:y="10" s:pid="Q"/><g s:x="-1" s:y="30" s:pid="CLK"/><g s:x="-1" s:y="30" s:pid="C"/><g s:x="-1" s:y="10" s:pid="D"/><g s:x="17" s:y="44" s:pid="ARST"/><g s:x="17" s:y="44" s:pid="SRST"/></g><g s:type="dff-bus" transform="translate(653,500)" s:width="34" s:height="44" id="cell_:55"><s:alias val="$dff-bus"/><s:alias val="$_DFF_-bus"/><s:alias val="$_DFF_P_-bus"/><s:alias val="adff-bus"/><s:alias val="$adff-bus"/><s:alias val="$_DFF_-bus"/><s:alias val="$_DFF_P_-bus"/><s:alias val="sdff-bus"/><s:alias val="$sdff-bus"/><s:alias val="$_DFF_-bus"/><s:alias val="$_DFF_P_-bus"/><rect width="30" height="40" x="0" y="0" fill="#ffffff" class="cell_:55"/><path d="M0,35 L5,30 L0,25" fill="#ffffff" class="cell_:55"/><path d="M30,2 L32,2 L32,42 L2,42 L2,40" fill="#ffffff" class="cell_:55"/><path d="M32,4 L34,4 L34,44 L4,44 L4,42" fill="#ffffff" class="cell_:55"/><g s:x="35" s:y="10" s:pid="Q"/><g s:x="-1" s:y="30" s:pid="CLK"/><g s:x="-1" s:y="30" s:pid="C"/><g s:x="-1" s:y="10" s:pid="D"/><g s:x="17" s:y="44" s:pid="ARST"/><g s:x="17" s:y="44" s:pid="SRST"/></g><g s:type="dff" transform="translate(738,299)" s:width="30" s:height="40" id="cell_:56"><s:alias val="$dff"/><s:alias val="$_DFF_"/><s:alias val="$_DFF_P_"/><s:alias val="$adff"/><s:alias val="$_DFF_"/><s:alias val="$_DFF_P_"/><s:alias val="$sdff"/><s:alias val="$_DFF_"/><s:alias val="$_DFF_P_"/><rect width="30" height="40" x="0" y="0" fill="#ffffff" class="cell_:56"/><path d="M0,35 L5,30 L0,25" fill="#ffffff" class="cell_:56"/><g s:x="31" s:y="10" s:pid="Q"/><g s:x="-1" s:y="30" s:pid="CLK"/><g s:x="-1" s:y="30" s:pid="C"/><g s:x="-1" s:y="10" s:pid="D"/><g s:x="15" s:y="40" s:pid="ARST"/><g s:x="15" s:y="40" s:pid="SRST"/></g><g s:type="dff" transform="translate(876,445)" s:width="30" s:height="40" id="cell_:57"><s:alias val="$dff"/><s:alias val="$_DFF_"/><s:alias val="$_DFF_P_"/><s:alias val="$adff"/><s:alias val="$_DFF_"/><s:alias val="$_DFF_P_"/><s:alias val="$sdff"/><s:alias val="$_DFF_"/><s:alias val="$_DFF_P_"/><rect width="30" height="40" x="0" y="0" fill="#ffffff" class="cell_:57"/><path d="M0,35 L5,30 L0,25" fill="#ffffff" class="cell_:57"/><g s:x="31" s:y="10" s:pid="Q"/><g s:x="-1" s:y="30" s:pid="CLK"/><g s:x="-1" s:y="30" s:pid="C"/><g s:x="-1" s:y="10" s:pid="D"/><g s:x="15" s:y="40" s:pid="ARST"/><g s:x="15" s:y="40" s:pid="SRST"/></g><g s:type="inputExt" transform="translate(536,520)" s:width="30" s:height="20" id="cell_clk"><text x="15" y="-4" class="nodelabel cell_clk" s:attribute="ref">clk</text><s:alias val="$_inputExt_"/><path d="M0,0 L0,20 L15,20 L30,10 L15,0 Z" fill="#ffffff" class="cell_clk"/><g s:x="30" s:y="10" s:pid="Y"/></g><g s:type="inputExt" transform="translate(536,329)" s:width="30" s:height="20" id="cell_rst"><text x="15" y="-4" class="nodelabel cell_rst" s:attribute="ref">rst</text><s:alias val="$_inputExt_"/><path d="M0,0 L0,20 L15,20 L30,10 L15,0 Z" fill="#ffffff" class="cell_rst"/><g s:x="30" s:y="10" s:pid="Y"/></g><g s:type="inputExt" transform="translate(22,221.5)" s:width="30" s:height="20" id="cell_coeff_0"><text x="15" y="-4" class="nodelabel cell_coeff_0" s:attribute="ref">coeff_0</text><s:alias val="$_inputExt_"/><path d="M0,0 L0,20 L15,20 L30,10 L15,0 Z" fill="#ffffff" class="cell_coeff_0"/><g s:x="30" s:y="10" s:pid="Y"/></g><g s:type="inputExt" transform="translate(22,488)" s:width="30" s:height="20" id="cell_coeff_1"><text x="15" y="-4" class="nodelabel cell_coeff_1" s:attribute="ref">coeff_1</text><s:alias val="$_inputExt_"/><path d="M0,0 L0,20 L15,20 L30,10 L15,0 Z" fill="#ffffff" class="cell_coeff_1"/><g s:x="30" s:y="10" s:pid="Y"/></g><g s:type="inputExt" transform="translate(138,437)" s:width="30" s:height="20" id="cell_coeff_2"><text x="15" y="-4" class="nodelabel cell_coeff_2" s:attribute="ref">coeff_2</text><s:alias val="$_inputExt_"/><path d="M0,0 L0,20 L15,20 L30,10 L15,0 Z" fill="#ffffff" class="cell_coeff_2"/><g s:x="30" s:y="10" s:pid="Y"/></g><g s:type="inputExt" transform="translate(254,489)" s:width="30" s:height="20" id="cell_coeff_3"><text x="15" y="-4" class="nodelabel cell_coeff_3" s:attribute="ref">coeff_3</text><s:alias val="$_inputExt_"/><path d="M0,0 L0,20 L15,20 L30,10 L15,0 Z" fill="#ffffff" class="cell_coeff_3"/><g s:x="30" s:y="10" s:pid="Y"/></g><g s:type="inputExt" transform="translate(648,162.5)" s:width="30" s:height="20" id="cell_sample_in"><text x="15" y="-4" class="nodelabel cell_sample_in" s:attribute="ref">sample_in</text><s:alias val="$_inputExt_"/><path d="M0,0 L0,20 L15,20 L30,10 L15,0 Z" fill="#ffffff" class="cell_sample_in"/><g s:x="30" s:y="10" s:pid="Y"/></g><g s:type="inputExt" transform="translate(536,182.5)" s:width="30" s:height="20" id="cell_sample_valid"><text x="15" y="-4" class="nodelabel cell_sample_valid" s:attribute="ref">sample_valid</text><s:alias val="$_inputExt_"/><path d="M0,0 L0,20 L15,20 L30,10 L15,0 Z" fill="#ffffff" class="cell_sample_valid"/><g s:x="30" s:y="10" s:pid="Y"/></g><g s:type="outputExt" transform="translate(943,380)" s:width="30" s:height="20" id="cell_result"><text x="15" y="-4" class="nodelabel cell_result" s:attribute="ref">result</text><s:alias val="$_outputExt_"/><path d="M30,0 L30,20 L15,20 L0,10 L15,0 Z" fill="#ffffff" class="cell_result"/><g s:x="0" s:y="10" s:pid="A"/></g><g s:type="outputExt" transform="translate(942,445)" s:width="30" s:height="20" id="cell_result_valid"><text x="15" y="-4" class="nodelabel cell_result_valid" s:attribute="ref">result_valid</text><s:alias val="$_outputExt_"/><path d="M30,0 L30,20 L15,20 L0,10 L15,0 Z" fill="#ffffff" class="cell_result_valid"/><g s:x="0" s:y="10" s:pid="A"/></g><g s:type="constant" transform="translate(470,67)" s:width="30" s:height="20" id="cell_0000000000000000000000000000000000000000000000000000000000000000"><text x="15" y="-4" class="nodelabel cell_0000000000000000000000000000000000000000000000000000000000000000" s:attribute="ref">0x0</text><s:alias val="$_constant_"/><rect width="30" height="20" fill="#ffffff" class="cell_0000000000000000000000000000000000000000000000000000000000000000"/><g s:x="31" s:y="10" s:pid="Y"/></g><g s:type="constant" transform="translate(536,455)" s:width="30" s:height="20" id="cell_0"><text x="15" y="-4" class="nodelabel cell_0" s:attribute="ref">0</text><s:alias val="$_constant_"/><rect width="30" height="20" fill="#ffffff" class="cell_0"/><g s:x="31" s:y="10" s:pid="Y"/></g><g s:type="constant" transform="translate(808,329)" s:width="30" s:height="20" id="cell_0000000000000000"><text x="15" y="-4" class="nodelabel cell_0000000000000000" s:attribute="ref">0x0</text><s:alias val="$_constant_"/><rect width="30" height="20" fill="#ffffff" class="cell_0000000000000000"/><g s:x="31" s:y="10" s:pid="Y"/></g><g s:type="join" transform="translate(829,131)" s:width="4" s:height="40" id="cell_$join$,90,91,92,93,94,95,96,97,98,99,100,101,102,103,104,105,106,107,108,109,110,111,112,113,114,115,116,117,118,119,120,121,122,123,124,125,126,127,128,129,130,131,132,133,134,135,136,137,40,41,42,43,44,45,46,47,48,49,50,51,52,53,54,55,"><rect width="5" height="40" class="splitjoinBody" s:generic="body"/><s:alias val="$_join_"/><g s:x="5" s:y="20" s:pid="out"/><g transform="translate(0,10)" s:x="0" s:y="10" s:pid="in0"><text x="-3" y="-4" class="inputPortLabel">0:47</text></g><g transform="translate(0,30)" s:x="0" s:y="10" s:pid="in0"><text x="-3" y="-4" class="inputPortLabel">48:63</text></g></g><g s:type="split" transform="translate(28,276.5)" s:width="5" s:height="40" id="cell_$split$,74,75,76,77,78,79,80,81,82,83,84,85,86,87,88,89,90,91,92,93,94,95,96,97,98,99,100,101,102,103,104,105,106,107,108,109,110,111,112,113,114,115,116,117,118,119,120,121,122,123,124,125,126,127,128,129,130,131,132,133,134,135,136,137,"><rect width="5" height="100" class="splitjoinBody" s:generic="body"/><s:alias val="$_split_"/><g s:x="0" s:y="20" s:pid="in"/><g transform="translate(4,10)" s:x="4" s:y="10" s:pid="out0"><text x="5" y="-4">16:63</text></g><g transform="translate(4,30)" s:x="4" s:y="10" s:pid="out0"><text x="5" y="-4">48:63</text></g><g transform="translate(4,50)" s:x="4" s:y="10" s:pid="out0"><text x="5" y="-4">32:47</text></g><g transform="translate(4,70)" s:x="4" s:y="10" s:pid="out0"><text x="5" y="-4">16:31</text></g><g transform="translate(4,90)" s:x="4" s:y="10" s:pid="out0"><text x="5" y="-4">0:15</text></g></g><g s:type="split" transform="translate(672,231)" s:width="5" s:height="40" id="cell_$split$,413,414,415,416,417,418,419,420,421,422,423,424,425,426,427,428,429,430,431,432,433,434,435,436,"><rect width="5" height="20" class="splitjoinBody" s:generic="body"/><s:alias val="$_split_"/><g s:x="0" s:y="20" s:pid="in"/><g transform="translate(4,10)" s:x="4" s:y="10" s:pid="out0"><text x="5" y="-4">8:23</text></g></g><line x1="840" x2="942" y1="67" y2="67" class="net_74,75,76,77,78,79,80,81,82,83,84,85,86,87,88,89,90,91,92,93,94,95,96,97,98,99,100,101,102,103,104,105,106,107,108,109,110,111,112,113,114,115,116,117,118,119,120,121,122,123,124,125,126,127,128,129,130,131,132,133,134,135,136,137 width_64" style="stroke-width: 2"/><line x1="840" x2="850" y1="67" y2="67" class="net_74,75,76,77,78,79,80,81,82,83,84,85,86,87,88,89,90,91,92,93,94,95,96,97,98,99,100,101,102,103,104,105,106,107,108,109,110,111,112,113,114,115,116,117,118,119,120,121,122,123,124,125,126,127,128,129,130,131,132,133,134,135,136,137 width_64" style="stroke-width: 2"/><line x1="850" x2="850" y1="67" y2="119" class="net_74,75,76,77,78,79,80,81,82,83,84,85,86,87,88,89,90,91,92,93,94,95,96,97,98,99,100,101,102,103,104,105,106,107,108,109,110,111,112,113,114,115,116,117,118,119,120,121,122,123,124,125,126,127,128,129,130,131,132,133,134,135,136,137 width_64" style="stroke-width: 2"/><line x1="850" x2="12" y1="119" y2="119" class="net_74,75,76,77,78,79,80,81,82,83,84,85,86,87,88,89,90,91,92,93,94,95,96,97,98,99,100,101,102,103,104,105,106,107,108,109,110,111,112,113,114,115,116,117,118,119,120,121,122,123,124,125,126,127,128,129,130,131,132,133,134,135,136,137 width_64" style="stroke-width: 2"/><line x1="12" x2="12" y1="119" y2="327" class="net_74,75,76,77,78,79,80,81,82,83,84,85,86,87,88,89,90,91,92,93,94,95,96,97,98,99,100,101,102,103,104,105,106,107,108,109,110,111,112,113,114,115,116,117,118,119,120,121,122,123,124,125,126,127,128,129,130,131,132,133,134,135,136,137 width_64" style="stroke-width: 2"/><circle cx="850" cy="67" r="3" style="fill:#000" class="net_74,75,76,77,78,79,80,81,82,83,84,85,86,87,88,89,90,91,92,93,94,95,96,97,98,99,100,101,102,103,104,105,106,107,108,109,110,111,112,113,114,115,116,117,118,119,120,121,122,123,124,125,126,127,128,129,130,131,132,133,134,135,136,137 width_64"/><line x1="12" x2="28" y1="327" y2="327" class="net_74,75,76,77,78,79,80,81,82,83,84,85,86,87,88,89,90,91,92,93,94,95,96,97,98,99,100,101,102,103,104,105,106,107,108,109,110,111,112,113,114,115,116,117,118,119,120,121,122,123,124,125,126,127,128,129,130,131,132,133,134,135,136,137 width_64" style="stroke-width: 2"/><line x1="835" x2="917" y1="151.5" y2="151.5" class="net_90,91,92,93,94,95,96,97,98,99,100,101,102,103,104,105,106,107,108,109,110,111,112,113,114,115,116,117,118,119,120,121,122,123,124,125,126,127,128,129,130,131,132,133,134,135,136,137,40,41,42,43,44,45,46,47,48,49,50,51,52,53,54,55 width_64" style="stroke-width: 2"/><line x1="917" x2="917" y1="151.5" y2="87" class="net_90,91,92,93,94,95,96,97,98,99,100,101,102,103,104,105,106,107,108,109,110,111,112,113,114,115,116,117,118,119,120,121,122,123,124,125,126,127,128,129,130,131,132,133,134,135,136,137,40,41,42,43,44,45,46,47,48,49,50,51,52,53,54,55 width_64" style="stroke-width: 2"/><line x1="917" x2="942" y1="87" y2="87" class="net_90,91,92,93,94,95,96,97,98,99,100,101,102,103,104,105,106,107,108,109,110,111,112,113,114,115,116,117,118,119,120,121,122,123,124,125,126,127,128,129,130,131,132,133,134,135,136,137,40,41,42,43,44,45,46,47,48,49,50,51,52,53,54,55 width_64" style="stroke-width: 2"/><line x1="566" x2="955" y1="192.5" y2="192.5" class="net_56 width_1" style="stroke-width: 1"/><line x1="955" x2="955" y1="192.5" y2="95" class="net_56 width_1" style="stroke-width: 1"/><line x1="566" x2="638" y1="192.5" y2="192.5" class="net_56 width_1" style="stroke-width: 1"/><line x1="638" x2="638" y1="192.5" y2="299" class="net_56 width_1" style="stroke-width: 1"/><circle cx="638" cy="192.5" r="2" style="fill:#000" class="net_56 width_1"/><line x1="638" x2="659.6666666666666" y1="299" y2="299" class="net_56 width_1" style="stroke-width: 1"/><line x1="967.5" x2="1024" y1="77" y2="77" class="net_138,139,140,141,142,143,144,145,146,147,148,149,150,151,152,153,154,155,156,157,158,159,160,161,162,163,164,165,166,167,168,169,170,171,172,173,174,175,176,177,178,179,180,181,182,183,184,185,186,187,188,189,190,191,192,193,194,195,196,197,198,199,200,201 width_64" style="stroke-width: 2"/><line x1="1024" x2="1024" y1="77" y2="16" class="net_138,139,140,141,142,143,144,145,146,147,148,149,150,151,152,153,154,155,156,157,158,159,160,161,162,163,164,165,166,167,168,169,170,171,172,173,174,175,176,177,178,179,180,181,182,183,184,185,186,187,188,189,190,191,192,193,194,195,196,197,198,199,200,201 width_64" style="stroke-width: 2"/><line x1="1024" x2="638" y1="16" y2="16" class="net_138,139,140,141,142,143,144,145,146,147,148,149,150,151,152,153,154,155,156,157,158,159,160,161,162,163,164,165,166,167,168,169,170,171,172,173,174,175,176,177,178,179,180,181,182,183,184,185,186,187,188,189,190,191,192,193,194,195,196,197,198,199,200,201 width_64" style="stroke-width: 2"/><line x1="638" x2="638" y1="16" y2="57" class="net_138,139,140,141,142,143,144,145,146,147,148,149,150,151,152,153,154,155,156,157,158,159,160,161,162,163,164,165,166,167,168,169,170,171,172,173,174,175,176,177,178,179,180,181,182,183,184,185,186,187,188,189,190,191,192,193,194,195,196,197,198,199,200,201 width_64" style="stroke-width: 2"/><line x1="638" x2="658.6666666666666" y1="57" y2="57" class="net_138,139,140,141,142,143,144,145,146,147,148,149,150,151,152,153,154,155,156,157,158,159,160,161,162,163,164,165,166,167,168,169,170,171,172,173,174,175,176,177,178,179,180,181,182,183,184,185,186,187,188,189,190,191,192,193,194,195,196,197,198,199,200,201 width_64" style="stroke-width: 2"/><line x1="501" x2="658.6666666666666" y1="77" y2="77" class="net_469,470,471,472,473,474,475,476,477,478,479,480,481,482,483,484,485,486,487,488,489,490,491,492,493,494,495,496,497,498,499,500,501,502,503,504,505,506,507,508,509,510,511,512,513,514,515,516,517,518,519,520,521,522,523,524,525,526,527,528,529,530,531,532 width_64" style="stroke-width: 2"/><line x1="566" x2="618" y1="339" y2="339" class="net_3 width_1" style="stroke-width: 1"/><line x1="618" x2="618" y1="339" y2="97" class="net_3 width_1" style="stroke-width: 1"/><line x1="618" x2="671.6666666666666" y1="97" y2="97" class="net_3 width_1" style="stroke-width: 1"/><circle cx="618" cy="339" r="2" style="fill:#000" class="net_3 width_1"/><line x1="671.6666666666666" x2="671.6666666666666" y1="97" y2="85" class="net_3 width_1" style="stroke-width: 1"/><line x1="566" x2="669.6666666666666" y1="339" y2="339" class="net_3 width_1" style="stroke-width: 1"/><line x1="669.6666666666666" x2="669.6666666666666" y1="339" y2="324" class="net_3 width_1" style="stroke-width: 1"/><line x1="566" x2="618" y1="339" y2="339" class="net_3 width_1" style="stroke-width: 1"/><line x1="618" x2="618" y1="339" y2="485" class="net_3 width_1" style="stroke-width: 1"/><line x1="618" x2="827.6666666666666" y1="485" y2="485" class="net_3 width_1" style="stroke-width: 1"/><line x1="827.6666666666666" x2="827.6666666666666" y1="485" y2="470" class="net_3 width_1" style="stroke-width: 1"/><line x1="566" x2="618" y1="339" y2="339" class="net_3 width_1" style="stroke-width: 1"/><line x1="618" x2="618" y1="339" y2="360" class="net_3 width_1" style="stroke-width: 1"/><line x1="618" x2="955" y1="360" y2="360" class="net_3 width_1" style="stroke-width: 1"/><circle cx="618" cy="360" r="2" style="fill:#000" class="net_3 width_1"/><line x1="955" x2="955" y1="360" y2="251.5" class="net_3 width_1" style="stroke-width: 1"/><line x1="567" x2="638" y1="465" y2="465" class="net_533 width_1" style="stroke-width: 1"/><line x1="638" x2="638" y1="465" y2="319" class="net_533 width_1" style="stroke-width: 1"/><circle cx="638" cy="465" r="2" style="fill:#000" class="net_533 width_1"/><line x1="638" x2="659.6666666666666" y1="319" y2="319" class="net_533 width_1" style="stroke-width: 1"/><line x1="567" x2="817.6666666666666" y1="465" y2="465" class="net_533 width_1" style="stroke-width: 1"/><line x1="769" x2="779" y1="309" y2="309" class="net_267 width_1" style="stroke-width: 1"/><line x1="779" x2="779" y1="309" y2="445" class="net_267 width_1" style="stroke-width: 1"/><circle cx="779" cy="309" r="2" style="fill:#000" class="net_267 width_1"/><line x1="779" x2="817.6666666666666" y1="445" y2="445" class="net_267 width_1" style="stroke-width: 1"/><line x1="769" x2="827.5" y1="309" y2="309" class="net_267 width_1" style="stroke-width: 1"/><line x1="827.5" x2="827.5" y1="309" y2="241.5" class="net_267 width_1" style="stroke-width: 1"/><line x1="33" x2="84" y1="307" y2="307" class="net_122,123,124,125,126,127,128,129,130,131,132,133,134,135,136,137 width_16" style="stroke-width: 2"/><line x1="84" x2="84" y1="307" y2="211.5" class="net_122,123,124,125,126,127,128,129,130,131,132,133,134,135,136,137 width_16" style="stroke-width: 2"/><line x1="84" x2="145.66666666666666" y1="211.5" y2="211.5" class="net_122,123,124,125,126,127,128,129,130,131,132,133,134,135,136,137 width_16" style="stroke-width: 2"/><line x1="52" x2="113" y1="231.5" y2="231.5" class="net_4,5,6,7,8,9,10,11,12 width_9" style="stroke-width: 2"/><line x1="113" x2="113" y1="231.5" y2="226.5" class="net_4,5,6,7,8,9,10,11,12 width_9" style="stroke-width: 2"/><line x1="113" x2="145.66666666666666" y1="226.5" y2="226.5" class="net_4,5,6,7,8,9,10,11,12 width_9" style="stroke-width: 2"/><line x1="33" x2="145.66666666666666" y1="327" y2="327" class="net_106,107,108,109,110,111,112,113,114,115,116,117,118,119,120,121 width_16" style="stroke-width: 2"/><line x1="52" x2="84" y1="498" y2="498" class="net_13,14,15,16,17,18,19,20,21 width_9" style="stroke-width: 2"/><line x1="84" x2="84" y1="498" y2="347" class="net_13,14,15,16,17,18,19,20,21 width_9" style="stroke-width: 2"/><line x1="84" x2="113" y1="347" y2="347" class="net_13,14,15,16,17,18,19,20,21 width_9" style="stroke-width: 2"/><line x1="113" x2="113" y1="347" y2="342" class="net_13,14,15,16,17,18,19,20,21 width_9" style="stroke-width: 2"/><line x1="113" x2="145.66666666666666" y1="342" y2="342" class="net_13,14,15,16,17,18,19,20,21 width_9" style="stroke-width: 2"/><line x1="169.66666666666666" x2="261.66666666666663" y1="219" y2="219" class="net_269,270,271,272,273,274,275,276,277,278,279,280,281,282,283,284,285,286,287,288,289,290,291,292 width_24" style="stroke-width: 2"/><line x1="169.66666666666666" x2="229" y1="334.5" y2="334.5" class="net_293,294,295,296,297,298,299,300,301,302,303,304,305,306,307,308,309,310,311,312,313,314,315,316 width_24" style="stroke-width: 2"/><line x1="229" x2="229" y1="334.5" y2="234" class="net_293,294,295,296,297,298,299,300,301,302,303,304,305,306,307,308,309,310,311,312,313,314,315,316 width_24" style="stroke-width: 2"/><line x1="229" x2="261.66666666666663" y1="234" y2="234" class="net_293,294,295,296,297,298,299,300,301,302,303,304,305,306,307,308,309,310,311,312,313,314,315,316 width_24" style="stroke-width: 2"/><line x1="33" x2="74" y1="347" y2="347" class="net_90,91,92,93,94,95,96,97,98,99,100,101,102,103,104,105 width_16" style="stroke-width: 2"/><line x1="74" x2="74" y1="347" y2="386" class="net_90,91,92,93,94,95,96,97,98,99,100,101,102,103,104,105 width_16" style="stroke-width: 2"/><line x1="74" x2="261.66666666666663" y1="386" y2="386" class="net_90,91,92,93,94,95,96,97,98,99,100,101,102,103,104,105 width_16" style="stroke-width: 2"/><line x1="168" x2="229" y1="447" y2="447" class="net_22,23,24,25,26,27,28,29,30 width_9" style="stroke-width: 2"/><line x1="229" x2="229" y1="447" y2="401" class="net_22,23,24,25,26,27,28,29,30 width_9" style="stroke-width: 2"/><line x1="229" x2="261.66666666666663" y1="401" y2="401" class="net_22,23,24,25,26,27,28,29,30 width_9" style="stroke-width: 2"/><line x1="285.66666666666663" x2="372" y1="226.5" y2="226.5" class="net_317,318,319,320,321,322,323,324,325,326,327,328,329,330,331,332,333,334,335,336,337,338,339,340 width_24" style="stroke-width: 2"/><line x1="285.66666666666663" x2="345" y1="393.5" y2="393.5" class="net_341,342,343,344,345,346,347,348,349,350,351,352,353,354,355,356,357,358,359,360,361,362,363,364 width_24" style="stroke-width: 2"/><line x1="345" x2="345" y1="393.5" y2="241.5" class="net_341,342,343,344,345,346,347,348,349,350,351,352,353,354,355,356,357,358,359,360,361,362,363,364 width_24" style="stroke-width: 2"/><line x1="345" x2="372" y1="241.5" y2="241.5" class="net_341,342,343,344,345,346,347,348,349,350,351,352,353,354,355,356,357,358,359,360,361,362,363,364 width_24" style="stroke-width: 2"/><line x1="32.5" x2="32.5" y1="367.5" y2="468" class="net_74,75,76,77,78,79,80,81,82,83,84,85,86,87,88,89 width_16" style="stroke-width: 2"/><line x1="32.5" x2="372" y1="468" y2="468" class="net_74,75,76,77,78,79,80,81,82,83,84,85,86,87,88,89 width_16" style="stroke-width: 2"/><line x1="284" x2="345" y1="499" y2="499" class="net_31,32,33,34,35,36,37,38,39 width_9" style="stroke-width: 2"/><line x1="345" x2="345" y1="499" y2="483" class="net_31,32,33,34,35,36,37,38,39 width_9" style="stroke-width: 2"/><line x1="345" x2="372" y1="483" y2="483" class="net_31,32,33,34,35,36,37,38,39 width_9" style="stroke-width: 2"/><line x1="396" x2="474" y1="234" y2="234" class="net_365,366,367,368,369,370,371,372,373,374,375,376,377,378,379,380,381,382,383,384,385,386,387,388 width_24" style="stroke-width: 2"/><line x1="396" x2="445" y1="475.5" y2="475.5" class="net_389,390,391,392,393,394,395,396,397,398,399,400,401,402,403,404,405,406,407,408,409,410,411,412 width_24" style="stroke-width: 2"/><line x1="445" x2="445" y1="475.5" y2="249" class="net_389,390,391,392,393,394,395,396,397,398,399,400,401,402,403,404,405,406,407,408,409,410,411,412 width_24" style="stroke-width: 2"/><line x1="445" x2="474" y1="249" y2="249" class="net_389,390,391,392,393,394,395,396,397,398,399,400,401,402,403,404,405,406,407,408,409,410,411,412 width_24" style="stroke-width: 2"/><line x1="688" x2="712" y1="510" y2="510" class="net_57,58,59,60,61,62,63,64,65,66,67,68,69,70,71,72 width_16" style="stroke-width: 2"/><line x1="712" x2="712" y1="510" y2="213.5" class="net_57,58,59,60,61,62,63,64,65,66,67,68,69,70,71,72 width_16" style="stroke-width: 2"/><circle cx="712" cy="510" r="3" style="fill:#000" class="net_57,58,59,60,61,62,63,64,65,66,67,68,69,70,71,72 width_16"/><line x1="712" x2="814.5" y1="213.5" y2="213.5" class="net_57,58,59,60,61,62,63,64,65,66,67,68,69,70,71,72 width_16" style="stroke-width: 2"/><line x1="688" x2="850" y1="510" y2="510" class="net_57,58,59,60,61,62,63,64,65,66,67,68,69,70,71,72 width_16" style="stroke-width: 2"/><line x1="850" x2="850" y1="510" y2="390" class="net_57,58,59,60,61,62,63,64,65,66,67,68,69,70,71,72 width_16" style="stroke-width: 2"/><line x1="850" x2="943" y1="390" y2="390" class="net_57,58,59,60,61,62,63,64,65,66,67,68,69,70,71,72 width_16" style="stroke-width: 2"/><line x1="677" x2="779" y1="241.5" y2="241.5" class="net_421,422,423,424,425,426,427,428,429,430,431,432,433,434,435,436 width_16" style="stroke-width: 2"/><line x1="779" x2="779" y1="241.5" y2="233.5" class="net_421,422,423,424,425,426,427,428,429,430,431,432,433,434,435,436 width_16" style="stroke-width: 2"/><line x1="779" x2="814.5" y1="233.5" y2="233.5" class="net_421,422,423,424,425,426,427,428,429,430,431,432,433,434,435,436 width_16" style="stroke-width: 2"/><line x1="840" x2="942" y1="223.5" y2="223.5" class="net_437,438,439,440,441,442,443,444,445,446,447,448,449,450,451,452 width_16" style="stroke-width: 2"/><line x1="839" x2="917" y1="339" y2="339" class="net_535,536,537,538,539,540,541,542,543,544,545,546,547,548,549,550 width_16" style="stroke-width: 2"/><line x1="917" x2="917" y1="339" y2="243.5" class="net_535,536,537,538,539,540,541,542,543,544,545,546,547,548,549,550 width_16" style="stroke-width: 2"/><line x1="917" x2="942" y1="243.5" y2="243.5" class="net_535,536,537,538,539,540,541,542,543,544,545,546,547,548,549,550 width_16" style="stroke-width: 2"/><line x1="566" x2="628" y1="530" y2="530" class="net_2 width_1" style="stroke-width: 1"/><line x1="628" x2="628" y1="530" y2="107" class="net_2 width_1" style="stroke-width: 1"/><line x1="628" x2="779" y1="107" y2="107" class="net_2 width_1" style="stroke-width: 1"/><line x1="779" x2="779" y1="107" y2="87" class="net_2 width_1" style="stroke-width: 1"/><circle cx="628" cy="530" r="2" style="fill:#000" class="net_2 width_1"/><line x1="779" x2="804" y1="87" y2="87" class="net_2 width_1" style="stroke-width: 1"/><line x1="566" x2="652" y1="530" y2="530" class="net_2 width_1" style="stroke-width: 1"/><line x1="566" x2="628" y1="530" y2="530" class="net_2 width_1" style="stroke-width: 1"/><line x1="628" x2="628" y1="530" y2="349" class="net_2 width_1" style="stroke-width: 1"/><line x1="628" x2="722" y1="349" y2="349" class="net_2 width_1" style="stroke-width: 1"/><line x1="722" x2="722" y1="349" y2="329" class="net_2 width_1" style="stroke-width: 1"/><circle cx="628" cy="349" r="2" style="fill:#000" class="net_2 width_1"/><line x1="722" x2="737" y1="329" y2="329" class="net_2 width_1" style="stroke-width: 1"/><line x1="566" x2="628" y1="530" y2="530" class="net_2 width_1" style="stroke-width: 1"/><line x1="628" x2="628" y1="530" y2="554" class="net_2 width_1" style="stroke-width: 1"/><line x1="628" x2="860" y1="554" y2="554" class="net_2 width_1" style="stroke-width: 1"/><line x1="860" x2="860" y1="554" y2="475" class="net_2 width_1" style="stroke-width: 1"/><line x1="860" x2="875" y1="475" y2="475" class="net_2 width_1" style="stroke-width: 1"/><line x1="684.1666666666666" x2="804" y1="67" y2="67" class="net_202,203,204,205,206,207,208,209,210,211,212,213,214,215,216,217,218,219,220,221,222,223,224,225,226,227,228,229,230,231,232,233,234,235,236,237,238,239,240,241,242,243,244,245,246,247,248,249,250,251,252,253,254,255,256,257,258,259,260,261,262,263,264,265 width_64" style="stroke-width: 2"/><line x1="967.5" x2="1024" y1="233.5" y2="233.5" class="net_453,454,455,456,457,458,459,460,461,462,463,464,465,466,467,468 width_16" style="stroke-width: 2"/><line x1="1024" x2="1024" y1="233.5" y2="569" class="net_453,454,455,456,457,458,459,460,461,462,463,464,465,466,467,468 width_16" style="stroke-width: 2"/><line x1="1024" x2="638" y1="569" y2="569" class="net_453,454,455,456,457,458,459,460,461,462,463,464,465,466,467,468 width_16" style="stroke-width: 2"/><line x1="638" x2="638" y1="569" y2="510" class="net_453,454,455,456,457,458,459,460,461,462,463,464,465,466,467,468 width_16" style="stroke-width: 2"/><line x1="638" x2="652" y1="510" y2="510" class="net_453,454,455,456,457,458,459,460,461,462,463,464,465,466,467,468 width_16" style="stroke-width: 2"/><line x1="679.6666666666666" x2="737" y1="309" y2="309" class="net_266 width_1" style="stroke-width: 1"/><line x1="837.6666666666666" x2="875" y1="455" y2="455" class="net_268 width_1" style="stroke-width: 1"/><line x1="907" x2="942" y1="455" y2="455" class="net_73 width_1" style="stroke-width: 1"/><line x1="33" x2="74" y1="287" y2="287" class="net_90,91,92,93,94,95,96,97,98,99,100,101,102,103,104,105,106,107,108,109,110,111,112,113,114,115,116,117,118,119,120,121,122,123,124,125,126,127,128,129,130,131,132,133,134,135,136,137 width_48" style="stroke-width: 2"/><line x1="74" x2="74" y1="287" y2="141.5" class="net_90,91,92,93,94,95,96,97,98,99,100,101,102,103,104,105,106,107,108,109,110,111,112,113,114,115,116,117,118,119,120,121,122,123,124,125,126,127,128,129,130,131,132,133,134,135,136,137 width_48" style="stroke-width: 2"/><line x1="74" x2="829" y1="141.5" y2="141.5" class="net_90,91,92,93,94,95,96,97,98,99,100,101,102,103,104,105,106,107,108,109,110,111,112,113,114,115,116,117,118,119,120,121,122,123,124,125,126,127,128,129,130,131,132,133,134,135,136,137 width_48" style="stroke-width: 2"/><line x1="678" x2="779" y1="172.5" y2="172.5" class="net_40,41,42,43,44,45,46,47,48,49,50,51,52,53,54,55 width_16" style="stroke-width: 2"/><line x1="779" x2="779" y1="172.5" y2="161.5" class="net_40,41,42,43,44,45,46,47,48,49,50,51,52,53,54,55 width_16" style="stroke-width: 2"/><line x1="779" x2="829" y1="161.5" y2="161.5" class="net_40,41,42,43,44,45,46,47,48,49,50,51,52,53,54,55 width_16" style="stroke-width: 2"/><line x1="498" x2="672" y1="241.5" y2="241.5" class="net_413,414,415,416,417,418,419,420,421,422,423,424,425,426,427,428,429,430,431,432,433,434,435,436 width_24" style="stroke-width: 2"/><rect x="382" y="114" width="22" height="9" class="net_74,75,76,77,78,79,80,81,82,83,84,85,86,87,88,89,90,91,92,93,94,95,96,97,98,99,100,101,102,103,104,105,106,107,108,109,110,111,112,113,114,115,116,117,118,119,120,121,122,123,124,125,126,127,128,129,130,131,132,133,134,135,136,137 width_64 busLabel_64" style="fill: white; stroke: none"/><text x="381" y="122" class="net_74,75,76,77,78,79,80,81,82,83,84,85,86,87,88,89,90,91,92,93,94,95,96,97,98,99,100,101,102,103,104,105,106,107,108,109,110,111,112,113,114,115,116,117,118,119,120,121,122,123,124,125,126,127,128,129,130,131,132,133,134,135,136,137 width_64 busLabel_64">/64/</text><rect x="382" y="114" width="22" height="9" class="net_74,75,76,77,78,79,80,81,82,83,84,85,86,87,88,89,90,91,92,93,94,95,96,97,98,99,100,101,102,103,104,105,106,107,108,109,110,111,112,113,114,115,116,117,118,119,120,121,122,123,124,125,126,127,128,129,130,131,132,133,134,135,136,137 width_64 busLabel_64" style="fill: white; stroke: none"/><text x="381" y="122" class="net_74,75,76,77,78,79,80,81,82,83,84,85,86,87,88,89,90,91,92,93,94,95,96,97,98,99,100,101,102,103,104,105,106,107,108,109,110,111,112,113,114,115,116,117,118,119,120,121,122,123,124,125,126,127,128,129,130,131,132,133,134,135,136,137 width_64 busLabel_64">/64/</text><rect x="890" y="146.5" width="22" height="9" class="net_90,91,92,93,94,95,96,97,98,99,100,101,102,103,104,105,106,107,108,109,110,111,112,113,114,115,116,117,118,119,120,121,122,123,124,125,126,127,128,129,130,131,132,133,134,135,136,137,40,41,42,43,44,45,46,47,48,49,50,51,52,53,54,55 width_64 busLabel_64" style="fill: white; stroke: none"/><text x="889" y="154.5" class="net_90,91,92,93,94,95,96,97,98,99,100,101,102,103,104,105,106,107,108,109,110,111,112,113,114,115,116,117,118,119,120,121,122,123,124,125,126,127,128,129,130,131,132,133,134,135,136,137,40,41,42,43,44,45,46,47,48,49,50,51,52,53,54,55 width_64 busLabel_64">/64/</text><rect x="821" y="11" width="22" height="9" class="net_138,139,140,141,142,143,144,145,146,147,148,149,150,151,152,153,154,155,156,157,158,159,160,161,162,163,164,165,166,167,168,169,170,171,172,173,174,175,176,177,178,179,180,181,182,183,184,185,186,187,188,189,190,191,192,193,194,195,196,197,198,199,200,201 width_64 busLabel_64" style="fill: white; stroke: none"/><text x="820" y="19" class="net_138,139,140,141,142,143,144,145,146,147,148,149,150,151,152,153,154,155,156,157,158,159,160,161,162,163,164,165,166,167,168,169,170,171,172,173,174,175,176,177,178,179,180,181,182,183,184,185,186,187,188,189,190,191,192,193,194,195,196,197,198,199,200,201 width_64 busLabel_64">/64/</text><rect x="571" y="72" width="22" height="9" class="net_469,470,471,472,473,474,475,476,477,478,479,480,481,482,483,484,485,486,487,488,489,490,491,492,493,494,495,496,497,498,499,500,501,502,503,504,505,506,507,508,509,510,511,512,513,514,515,516,517,518,519,520,521,522,523,524,525,526,527,528,529,530,531,532 width_64 busLabel_64" style="fill: white; stroke: none"/><text x="570" y="80" class="net_469,470,471,472,473,474,475,476,477,478,479,480,481,482,483,484,485,486,487,488,489,490,491,492,493,494,495,496,497,498,499,500,501,502,503,504,505,506,507,508,509,510,511,512,513,514,515,516,517,518,519,520,521,522,523,524,525,526,527,528,529,530,531,532 width_64 busLabel_64">/64/</text><rect x="100" y="206.5" width="22" height="9" class="net_122,123,124,125,126,127,128,129,130,131,132,133,134,135,136,137 width_16 busLabel_16" style="fill: white; stroke: none"/><text x="99" y="214.5" class="net_122,123,124,125,126,127,128,129,130,131,132,133,134,135,136,137 width_16 busLabel_16">/16/</text><rect x="100" y="226.5" width="16" height="9" class="net_4,5,6,7,8,9,10,11,12 width_9 busLabel_9" style="fill: white; stroke: none"/><text x="99" y="234.5" class="net_4,5,6,7,8,9,10,11,12 width_9 busLabel_9">/9/</text><rect x="100" y="322" width="22" height="9" class="net_106,107,108,109,110,111,112,113,114,115,116,117,118,119,120,121 width_16 busLabel_16" style="fill: white; stroke: none"/><text x="99" y="330" class="net_106,107,108,109,110,111,112,113,114,115,116,117,118,119,120,121 width_16 busLabel_16">/16/</text><rect x="100" y="342" width="16" height="9" class="net_13,14,15,16,17,18,19,20,21 width_9 busLabel_9" style="fill: white; stroke: none"/><text x="99" y="350" class="net_13,14,15,16,17,18,19,20,21 width_9 busLabel_9">/9/</text><rect x="216" y="214" width="22" height="9" class="net_269,270,271,272,273,274,275,276,277,278,279,280,281,282,283,284,285,286,287,288,289,290,291,292 width_24 busLabel_24" style="fill: white; stroke: none"/><text x="215" y="222" class="net_269,270,271,272,273,274,275,276,277,278,279,280,281,282,283,284,285,286,287,288,289,290,291,292 width_24 busLabel_24">/24/</text><rect x="216" y="329.5" width="22" height="9" class="net_293,294,295,296,297,298,299,300,301,302,303,304,305,306,307,308,309,310,311,312,313,314,315,316 width_24 busLabel_24" style="fill: white; stroke: none"/><text x="215" y="337.5" class="net_293,294,295,296,297,298,299,300,301,302,303,304,305,306,307,308,309,310,311,312,313,314,315,316 width_24 busLabel_24">/24/</text><rect x="158" y="381" width="22" height="9" class="net_90,91,92,93,94,95,96,97,98,99,100,101,102,103,104,105 width_16 busLabel_16" style="fill: white; stroke: none"/><text x="157" y="389" class="net_90,91,92,93,94,95,96,97,98,99,100,101,102,103,104,105 width_16 busLabel_16">/16/</text><rect x="216" y="442" width="16" height="9" class="net_22,23,24,25,26,27,28,29,30 width_9 busLabel_9" style="fill: white; stroke: none"/><text x="215" y="450" class="net_22,23,24,25,26,27,28,29,30 width_9 busLabel_9">/9/</text><rect x="332" y="221.5" width="22" height="9" class="net_317,318,319,320,321,322,323,324,325,326,327,328,329,330,331,332,333,334,335,336,337,338,339,340 width_24 busLabel_24" style="fill: white; stroke: none"/><text x="331" y="229.5" class="net_317,318,319,320,321,322,323,324,325,326,327,328,329,330,331,332,333,334,335,336,337,338,339,340 width_24 busLabel_24">/24/</text><rect x="332" y="388.5" width="22" height="9" class="net_341,342,343,344,345,346,347,348,349,350,351,352,353,354,355,356,357,358,359,360,361,362,363,364 width_24 busLabel_24" style="fill: white; stroke: none"/><text x="331" y="396.5" class="net_341,342,343,344,345,346,347,348,349,350,351,352,353,354,355,356,357,358,359,360,361,362,363,364 width_24 busLabel_24">/24/</text><rect x="216" y="463" width="22" height="9" class="net_74,75,76,77,78,79,80,81,82,83,84,85,86,87,88,89 width_16 busLabel_16" style="fill: white; stroke: none"/><text x="215" y="471" class="net_74,75,76,77,78,79,80,81,82,83,84,85,86,87,88,89 width_16 busLabel_16">/16/</text><rect x="332" y="494" width="16" height="9" class="net_31,32,33,34,35,36,37,38,39 width_9 busLabel_9" style="fill: white; stroke: none"/><text x="331" y="502" class="net_31,32,33,34,35,36,37,38,39 width_9 busLabel_9">/9/</text><rect x="432" y="229" width="22" height="9" class="net_365,366,367,368,369,370,371,372,373,374,375,376,377,378,379,380,381,382,383,384,385,386,387,388 width_24 busLabel_24" style="fill: white; stroke: none"/><text x="431" y="237" class="net_365,366,367,368,369,370,371,372,373,374,375,376,377,378,379,380,381,382,383,384,385,386,387,388 width_24 busLabel_24">/24/</text><rect x="432" y="470.5" width="22" height="9" class="net_389,390,391,392,393,394,395,396,397,398,399,400,401,402,403,404,405,406,407,408,409,410,411,412 width_24 busLabel_24" style="fill: white; stroke: none"/><text x="431" y="478.5" class="net_389,390,391,392,393,394,395,396,397,398,399,400,401,402,403,404,405,406,407,408,409,410,411,412 width_24 busLabel_24">/24/</text><rect x="821" y="505" width="22" height="9" class="net_57,58,59,60,61,62,63,64,65,66,67,68,69,70,71,72 width_16 busLabel_16" style="fill: white; stroke: none"/><text x="820" y="513" class="net_57,58,59,60,61,62,63,64,65,66,67,68,69,70,71,72 width_16 busLabel_16">/16/</text><rect x="821" y="505" width="22" height="9" class="net_57,58,59,60,61,62,63,64,65,66,67,68,69,70,71,72 width_16 busLabel_16" style="fill: white; stroke: none"/><text x="820" y="513" class="net_57,58,59,60,61,62,63,64,65,66,67,68,69,70,71,72 width_16 busLabel_16">/16/</text><rect x="752" y="236.5" width="22" height="9" class="net_421,422,423,424,425,426,427,428,429,430,431,432,433,434,435,436 width_16 busLabel_16" style="fill: white; stroke: none"/><text x="751" y="244.5" class="net_421,422,423,424,425,426,427,428,429,430,431,432,433,434,435,436 width_16 busLabel_16">/16/</text><rect x="890" y="218.5" width="22" height="9" class="net_437,438,439,440,441,442,443,444,445,446,447,448,449,450,451,452 width_16 busLabel_16" style="fill: white; stroke: none"/><text x="889" y="226.5" class="net_437,438,439,440,441,442,443,444,445,446,447,448,449,450,451,452 width_16 busLabel_16">/16/</text><rect x="890" y="334" width="22" height="9" class="net_535,536,537,538,539,540,541,542,543,544,545,546,547,548,549,550 width_16 busLabel_16" style="fill: white; stroke: none"/><text x="889" y="342" class="net_535,536,537,538,539,540,541,542,543,544,545,546,547,548,549,550 width_16 busLabel_16">/16/</text><rect x="752" y="62" width="22" height="9" class="net_202,203,204,205,206,207,208,209,210,211,212,213,214,215,216,217,218,219,220,221,222,223,224,225,226,227,228,229,230,231,232,233,234,235,236,237,238,239,240,241,242,243,244,245,246,247,248,249,250,251,252,253,254,255,256,257,258,259,260,261,262,263,264,265 width_64 busLabel_64" style="fill: white; stroke: none"/><text x="751" y="70" class="net_202,203,204,205,206,207,208,209,210,211,212,213,214,215,216,217,218,219,220,221,222,223,224,225,226,227,228,229,230,231,232,233,234,235,236,237,238,239,240,241,242,243,244,245,246,247,248,249,250,251,252,253,254,255,256,257,258,259,260,261,262,263,264,265 width_64 busLabel_64">/64/</text><rect x="821" y="564" width="22" height="9" class="net_453,454,455,456,457,458,459,460,461,462,463,464,465,466,467,468 width_16 busLabel_16" style="fill: white; stroke: none"/><text x="820" y="572" class="net_453,454,455,456,457,458,459,460,461,462,463,464,465,466,467,468 width_16 busLabel_16">/16/</text><rect x="382" y="136.5" width="22" height="9" class="net_90,91,92,93,94,95,96,97,98,99,100,101,102,103,104,105,106,107,108,109,110,111,112,113,114,115,116,117,118,119,120,121,122,123,124,125,126,127,128,129,130,131,132,133,134,135,136,137 width_48 busLabel_48" style="fill: white; stroke: none"/><text x="381" y="144.5" class="net_90,91,92,93,94,95,96,97,98,99,100,101,102,103,104,105,106,107,108,109,110,111,112,113,114,115,116,117,118,119,120,121,122,123,124,125,126,127,128,129,130,131,132,133,134,135,136,137 width_48 busLabel_48">/48/</text><rect x="752" y="167.5" width="22" height="9" class="net_40,41,42,43,44,45,46,47,48,49,50,51,52,53,54,55 width_16 busLabel_16" style="fill: white; stroke: none"/><text x="751" y="175.5" class="net_40,41,42,43,44,45,46,47,48,49,50,51,52,53,54,55 width_16 busLabel_16">/16/</text><rect x="571" y="236.5" width="22" height="9" class="net_413,414,415,416,417,418,419,420,421,422,423,424,425,426,427,428,429,430,431,432,433,434,435,436 width_24 busLabel_24" style="fill: white; stroke: none"/><text x="570" y="244.5" class="net_413,414,415,416,417,418,419,420,421,422,423,424,425,426,427,428,429,430,431,432,433,434,435,436 width_24 busLabel_24">/24/</text></svg>