<svg xmlns="http://www.w3.org/2000/svg" xmlns:xlink="http://www.w3.org/1999/xlink" xmlns:s="https://github.com/nturley/netlistsvg" width="571" height="374"><style>svg {
  stroke:#000;
  fill:none;
}
text {
  fill:#000;
  stroke:none;
  font-size:10px;
  font-weight: bold;
  font-family: "Courier New", monospace;
}
line {
    stroke-linecap: round;
}
.nodelabel {
  text-anchor: middle;
}
.inputPortLabel {
  text-anchor: end;
}
.splitjoinBody {
  fill:#000;
}</style><g s:type="add" transform="translate(370,77)" s:width="25" s:height="25" id="cell_:12"><s:alias val="$add"/><circle r="12.5" cx="12.5" cy="12.5" fill="#ffffff" class="cell_:12"/><line x1="7.5" x2="17.5" y1="12.5" y2="12.5" fill="#ffffff" class="cell_:12"/><line x1="12.5" x2="12.5" y1="7.5" y2="17.5" fill="#ffffff" class="cell_:12"/><g s:x="2" s:y="5" s:pid="A"/><g s:x="2" s:y="20" s:pid="B"/><g s:x="26" s:y="12.5" s:pid="Y"/></g><g s:type="eq" transform="translate(237,282)" s:width="25" s:height="25" id="cell_:16"><s:alias val="$eq"/><s:alias val="$eqx"/><circle r="12.5" cx="12.5" cy="12.5" fill="#ffffff" class="cell_:16"/><line x1="7.5" x2="17.5" y1="10" y2="10" fill="#ffffff" class="cell_:16"/><line x1="7.5" x2="17.5" y1="15" y2="15" fill="#ffffff" class="cell_:16"/><g s:x="2" s:y="5" s:pid="A"/><g s:x="2" s:y="20" s:pid="B"/><g s:x="25" s:y="12.5" s:pid="Y"/></g><g s:type="mux" transform="translate(309,202)" s:width="20" s:height="40" id="cell_:17"><s:alias val="$pmux"/><s:alias val="$mux"/><s:alias val="$_MUX_"/><path d="M0,0 L20,10 L20,30 L0,40 Z" fill="#ffffff" class="cell_:17"/><text x="5" y="32" class="nodelabel cell_:17" s:attribute="">1</text><text x="5" y="13" class="nodelabel cell_:17" s:attribute="">0</text><g s:x="0" s:y="10" s:pid="A"/><g s:x="0" s:y="30" s:pid="B"/><g s:x="10" s:y="35" s:pid="S"/><g s:x="20" s:y="20" s:pid="Y"/></g><g s:type="mux-bus" transform="translate(502,59.5)" s:width="24" s:height="40" id="cell_:19"><s:alias val="$pmux-bus"/><s:alias val="$mux-bus"/><s:alias val="$_MUX_-bus"/><path d="M0,0 L20,10 L20,30 L0,40 Z" fill="#ffffff" class="cell_:19"/><path d="M4,2 L4,0 L22,9 L22,31 L4,40 L4,38" fill="#ffffff" class="cell_:19"/><path d="M8,2 L8,0 L24,8 L24,32 L8,40 L8,38" fill="#ffffff" class="cell_:19"/><text x="5" y="32" class="nodelabel cell_:19" s:attribute="">1</text><text x="5" y="13" class="nodelabel cell_:19" s:attribute="">0</text><g s:x="-1" s:y="10" s:pid="A"/><g s:x="-1" s:y="30" s:pid="B"/><g s:x="12" s:y="38" s:pid="S"/><g s:x="24.5" s:y="20" s:pid="Y"/></g><g s:type="mux" transform="translate(375,212)" s:width="20" s:height="40" id="cell_:20"><s:alias val="$pmux"/><s:alias val="$mux"/><s:alias val="$_MUX_"/><path d="M0,0 L20,10 L20,30 L0,40 Z" fill="#ffffff" class="cell_:20"/><text x="5" y="32" class="nodelabel cell_:20" s:attribute="">1</text><text x="5" y="13" class="nodelabel cell_:20" s:attribute="">0</text><g s:x="0" s:y="10" s:pid="A"/><g s:x="0" s:y="30" s:pid="B"/><g s:x="10" s:y="35" s:pid="S"/><g s:x="20" s:y="20" s:pid="Y"/></g><g s:type="dff-bus" transform="translate(78.33333333333333,63.5)" s:width="34" s:height="44" id="cell_:24"><s:alias val="$dff-bus"/><s:alias val="$_DFF_-bus"/><s:alias val="$_DFF_P_-bus"/><s:alias val="adff-bus"/><s:alias val="$adff-bus"/><s:alias val="$_DFF_-bus"/><s:alias val="$_DFF_P_-bus"/><s:alias val="sdff-bus"/><s:alias val="$sdff-bus"/><s:alias val="$_DFF_-bus"/><s:alias val="$_DFF_P_-bus"/><rect width="30" height="40" x="0" y="0" fill="#ffffff" class="cell_:24"/><path d="M0,35 L5,30 L0,25" fill="#ffffff" class="cell_:24"/><path d="M30,2 L32,2 L32,42 L2,42 L2,40" fill="#ffffff" class="cell_:24"/><path d="M32,4 L34,4 L34,44 L4,44 L4,42" fill="#ffffff" class="cell_:24"/><g s:x="35" s:y="10" s:pid="Q"/><g s:x="-1" s:y="30" s:pid="CLK"/><g s:x="-1" s:y="30" s:pid="C"/><g s:x="-1" s:y="10" s:pid="D"/><g s:x="17" s:y="44" s:pid="ARST"/><g s:x="17" s:y="44" s:pid="SRST"/></g><g s:type="dff" transform="translate(435,292)" s:width="30" s:height="40" id="cell_:25"><s:alias val="$dff"/><s:alias val="$_DFF_"/><s:alias val="$_DFF_P_"/><s:alias val="$adff"/><s:alias val="$_DFF_"/><s:alias val="$_DFF_P_"/><s:alias val="$sdff"/><s:alias val="$_DFF_"/><s:alias val="$_DFF_P_"/><rect width="30" height="40" x="0" y="0" fill="#ffffff" class="cell_:25"/><path d="M0,35 L5,30 L0,25" fill="#ffffff" class="cell_:25"/><g s:x="31" s:y="10" s:pid="Q"/><g s:x="-1" s:y="30" s:pid="CLK"/><g s:x="-1" s:y="30" s:pid="C"/><g s:x="-1" s:y="10" s:pid="D"/><g s:x="15" s:y="40" s:pid="ARST"/><g s:x="15" s:y="40" s:pid="SRST"/></g><g s:type="ne" transform="translate(237,149.5)" s:width="25" s:height="25" id="cell_:5"><s:alias val="$ne"/><s:alias val="$nex"/><circle r="12.5" cx="12.5" cy="12.5" fill="#ffffff" class="cell_:5"/><line x1="7.5" x2="17.5" y1="10" y2="10" fill="#ffffff" class="cell_:5"/><line x1="7.5" x2="17.5" y1="15" y2="15" fill="#ffffff" class="cell_:5"/><line x1="9" x2="16" y1="18" y2="7" fill="#ffffff" class="cell_:5"/><g s:x="2" s:y="5" s:pid="A"/><g s:x="2" s:y="20" s:pid="B"/><g s:x="25" s:y="12.5" s:pid="Y"/></g><g s:type="lt" transform="translate(237,73.5)" s:width="25" s:height="25" id="cell_:8"><s:alias val="$lt"/><circle r="12.5" cx="12.5" cy="12.5" fill="#ffffff" class="cell_:8"/><line x1="6" x2="17" y1="12" y2="7" fill="#ffffff" class="cell_:8"/><line x1="6" x2="17" y1="12" y2="17" fill="#ffffff" class="cell_:8"/><g s:x="2" s:y="5" s:pid="A"/><g s:x="2" s:y="20" s:pid="B"/><g s:x="25" s:y="12.5" s:pid="Y"/></g><g s:type="and" transform="translate(302.3333333333333,142)" s:width="30" s:height="25" id="cell_:9"><s:alias val="$and"/><s:alias val="$logic_and"/><s:alias val="$_AND_"/><s:alias val="$reduce_and"/><path d="M0,0 L0,25 L15,25 A15 12.5 0 0 0 15,0 Z" fill="#ffffff" class="cell_:9"/><g s:x="0" s:y="5" s:pid="A"/><g s:x="0" s:y="20" s:pid="B"/><g s:x="30" s:y="12.5" s:pid="Y"/></g><g s:type="inputExt" transform="translate(12,312)" s:width="30" s:height="20" id="cell_i_Clk"><text x="15" y="-4" class="nodelabel cell_i_Clk" s:attribute="ref">i_Clk</text><s:alias val="$_inputExt_"/><path d="M0,0 L0,20 L15,20 L30,10 L15,0 Z" fill="#ffffff" class="cell_i_Clk"/><g s:x="30" s:y="10" s:pid="Y"/></g><g s:type="inputExt" transform="translate(154,144.5)" s:width="30" s:height="20" id="cell_i_Switch"><text x="15" y="-4" class="nodelabel cell_i_Switch" s:attribute="ref">i_Switch</text><s:alias val="$_inputExt_"/><path d="M0,0 L0,20 L15,20 L30,10 L15,0 Z" fill="#ffffff" class="cell_i_Switch"/><g s:x="30" s:y="10" s:pid="Y"/></g><g s:type="outputExt" transform="translate(501,292)" s:width="30" s:height="20" id="cell_o_Switch"><text x="15" y="-4" class="nodelabel cell_o_Switch" s:attribute="ref">o_Switch</text><s:alias val="$_outputExt_"/><path d="M30,0 L30,20 L15,20 L0,10 L15,0 Z" fill="#ffffff" class="cell_o_Switch"/><g s:x="0" s:y="10" s:pid="A"/></g><g s:type="constant" transform="translate(302,87)" s:width="30" s:height="20" id="cell_1"><text x="15" y="-4" class="nodelabel cell_1" s:attribute="ref">1</text><s:alias val="$_constant_"/><rect width="30" height="20" fill="#ffffff" class="cell_1"/><g s:x="31" s:y="10" s:pid="Y"/></g><g s:type="constant" transform="translate(77,292)" s:width="30" s:height="20" id="cell_111101000010010000"><text x="15" y="-4" class="nodelabel cell_111101000010010000" s:attribute="ref">0x3d090</text><s:alias val="$_constant_"/><rect width="30" height="20" fill="#ffffff" class="cell_111101000010010000"/><g s:x="31" s:y="10" s:pid="Y"/></g><g s:type="constant" transform="translate(368,22)" s:width="30" s:height="20" id="cell_000000000000000000"><text x="15" y="-4" class="nodelabel cell_000000000000000000" s:attribute="ref">0x0</text><s:alias val="$_constant_"/><rect width="30" height="20" fill="#ffffff" class="cell_000000000000000000"/><g s:x="31" s:y="10" s:pid="Y"/></g><line x1="113.33333333333333" x2="139" y1="73.5" y2="73.5" class="net_5,6,7,8,9,10,11,12,13,14,15,16,17,18,19,20,21,22 width_18" style="stroke-width: 2"/><line x1="139" x2="139" y1="73.5" y2="32.5" class="net_5,6,7,8,9,10,11,12,13,14,15,16,17,18,19,20,21,22 width_18" style="stroke-width: 2"/><line x1="139" x2="343" y1="32.5" y2="32.5" class="net_5,6,7,8,9,10,11,12,13,14,15,16,17,18,19,20,21,22 width_18" style="stroke-width: 2"/><line x1="343" x2="343" y1="32.5" y2="82" class="net_5,6,7,8,9,10,11,12,13,14,15,16,17,18,19,20,21,22 width_18" style="stroke-width: 2"/><circle cx="139" cy="73.5" r="3" style="fill:#000" class="net_5,6,7,8,9,10,11,12,13,14,15,16,17,18,19,20,21,22 width_18"/><line x1="343" x2="372" y1="82" y2="82" class="net_5,6,7,8,9,10,11,12,13,14,15,16,17,18,19,20,21,22 width_18" style="stroke-width: 2"/><line x1="113.33333333333333" x2="139" y1="73.5" y2="73.5" class="net_5,6,7,8,9,10,11,12,13,14,15,16,17,18,19,20,21,22 width_18" style="stroke-width: 2"/><line x1="139" x2="139" y1="73.5" y2="282" class="net_5,6,7,8,9,10,11,12,13,14,15,16,17,18,19,20,21,22 width_18" style="stroke-width: 2"/><line x1="139" x2="212" y1="282" y2="282" class="net_5,6,7,8,9,10,11,12,13,14,15,16,17,18,19,20,21,22 width_18" style="stroke-width: 2"/><line x1="212" x2="212" y1="282" y2="287" class="net_5,6,7,8,9,10,11,12,13,14,15,16,17,18,19,20,21,22 width_18" style="stroke-width: 2"/><line x1="212" x2="239" y1="287" y2="287" class="net_5,6,7,8,9,10,11,12,13,14,15,16,17,18,19,20,21,22 width_18" style="stroke-width: 2"/><line x1="113.33333333333333" x2="212" y1="73.5" y2="73.5" class="net_5,6,7,8,9,10,11,12,13,14,15,16,17,18,19,20,21,22 width_18" style="stroke-width: 2"/><line x1="212" x2="212" y1="73.5" y2="78.5" class="net_5,6,7,8,9,10,11,12,13,14,15,16,17,18,19,20,21,22 width_18" style="stroke-width: 2"/><line x1="212" x2="239" y1="78.5" y2="78.5" class="net_5,6,7,8,9,10,11,12,13,14,15,16,17,18,19,20,21,22 width_18" style="stroke-width: 2"/><line x1="333" x2="372" y1="97" y2="97" class="net_65 width_1" style="stroke-width: 1"/><line x1="108" x2="239" y1="302" y2="302" class="net_66,67,68,69,70,71,72,73,74,75,76,77,78,79,80,81,82,83 width_18" style="stroke-width: 2"/><line x1="108" x2="129" y1="302" y2="302" class="net_66,67,68,69,70,71,72,73,74,75,76,77,78,79,80,81,82,83 width_18" style="stroke-width: 2"/><line x1="129" x2="129" y1="302" y2="93.5" class="net_66,67,68,69,70,71,72,73,74,75,76,77,78,79,80,81,82,83 width_18" style="stroke-width: 2"/><circle cx="129" cy="302" r="3" style="fill:#000" class="net_66,67,68,69,70,71,72,73,74,75,76,77,78,79,80,81,82,83 width_18"/><line x1="129" x2="239" y1="93.5" y2="93.5" class="net_66,67,68,69,70,71,72,73,74,75,76,77,78,79,80,81,82,83 width_18" style="stroke-width: 2"/><line x1="466" x2="476" y1="302" y2="302" class="net_4 width_1" style="stroke-width: 1"/><line x1="476" x2="476" y1="302" y2="342" class="net_4 width_1" style="stroke-width: 1"/><line x1="476" x2="282" y1="342" y2="342" class="net_4 width_1" style="stroke-width: 1"/><line x1="282" x2="282" y1="342" y2="212" class="net_4 width_1" style="stroke-width: 1"/><line x1="282" x2="309" y1="212" y2="212" class="net_4 width_1" style="stroke-width: 1"/><line x1="466" x2="476" y1="302" y2="302" class="net_4 width_1" style="stroke-width: 1"/><line x1="476" x2="476" y1="302" y2="342" class="net_4 width_1" style="stroke-width: 1"/><line x1="476" x2="343" y1="342" y2="342" class="net_4 width_1" style="stroke-width: 1"/><line x1="343" x2="343" y1="342" y2="242" class="net_4 width_1" style="stroke-width: 1"/><circle cx="343" cy="342" r="2" style="fill:#000" class="net_4 width_1"/><line x1="343" x2="375" y1="242" y2="242" class="net_4 width_1" style="stroke-width: 1"/><line x1="466" x2="476" y1="302" y2="302" class="net_4 width_1" style="stroke-width: 1"/><line x1="476" x2="476" y1="302" y2="272" class="net_4 width_1" style="stroke-width: 1"/><line x1="476" x2="212" y1="272" y2="272" class="net_4 width_1" style="stroke-width: 1"/><line x1="212" x2="212" y1="272" y2="169.5" class="net_4 width_1" style="stroke-width: 1"/><circle cx="476" cy="302" r="2" style="fill:#000" class="net_4 width_1"/><line x1="212" x2="239" y1="169.5" y2="169.5" class="net_4 width_1" style="stroke-width: 1"/><line x1="466" x2="501" y1="302" y2="302" class="net_4 width_1" style="stroke-width: 1"/><line x1="184" x2="212" y1="154.5" y2="154.5" class="net_3 width_1" style="stroke-width: 1"/><line x1="212" x2="212" y1="154.5" y2="138.5" class="net_3 width_1" style="stroke-width: 1"/><line x1="212" x2="272" y1="138.5" y2="138.5" class="net_3 width_1" style="stroke-width: 1"/><line x1="272" x2="272" y1="138.5" y2="232" class="net_3 width_1" style="stroke-width: 1"/><circle cx="212" cy="154.5" r="2" style="fill:#000" class="net_3 width_1"/><line x1="272" x2="309" y1="232" y2="232" class="net_3 width_1" style="stroke-width: 1"/><line x1="184" x2="239" y1="154.5" y2="154.5" class="net_3 width_1" style="stroke-width: 1"/><line x1="262" x2="292" y1="294.5" y2="294.5" class="net_41 width_1" style="stroke-width: 1"/><line x1="292" x2="292" y1="294.5" y2="262" class="net_41 width_1" style="stroke-width: 1"/><line x1="292" x2="319" y1="262" y2="262" class="net_41 width_1" style="stroke-width: 1"/><line x1="319" x2="319" y1="262" y2="237" class="net_41 width_1" style="stroke-width: 1"/><line x1="399" x2="476" y1="32" y2="32" class="net_84,85,86,87,88,89,90,91,92,93,94,95,96,97,98,99,100,101 width_18" style="stroke-width: 2"/><line x1="476" x2="476" y1="32" y2="69.5" class="net_84,85,86,87,88,89,90,91,92,93,94,95,96,97,98,99,100,101 width_18" style="stroke-width: 2"/><line x1="476" x2="501" y1="69.5" y2="69.5" class="net_84,85,86,87,88,89,90,91,92,93,94,95,96,97,98,99,100,101 width_18" style="stroke-width: 2"/><line x1="396" x2="501" y1="89.5" y2="89.5" class="net_23,24,25,26,27,28,29,30,31,32,33,34,35,36,37,38,39,40 width_18" style="stroke-width: 2"/><line x1="332.3333333333333" x2="514" y1="154.5" y2="154.5" class="net_43 width_1" style="stroke-width: 1"/><line x1="514" x2="514" y1="154.5" y2="97.5" class="net_43 width_1" style="stroke-width: 1"/><line x1="332.3333333333333" x2="353" y1="154.5" y2="154.5" class="net_43 width_1" style="stroke-width: 1"/><line x1="353" x2="353" y1="154.5" y2="262" class="net_43 width_1" style="stroke-width: 1"/><line x1="353" x2="385" y1="262" y2="262" class="net_43 width_1" style="stroke-width: 1"/><circle cx="353" cy="154.5" r="2" style="fill:#000" class="net_43 width_1"/><line x1="385" x2="385" y1="262" y2="247" class="net_43 width_1" style="stroke-width: 1"/><line x1="329" x2="375" y1="222" y2="222" class="net_42 width_1" style="stroke-width: 1"/><line x1="42" x2="62" y1="322" y2="322" class="net_2 width_1" style="stroke-width: 1"/><line x1="62" x2="62" y1="322" y2="93.5" class="net_2 width_1" style="stroke-width: 1"/><circle cx="62" cy="322" r="2" style="fill:#000" class="net_2 width_1"/><line x1="62" x2="77.33333333333333" y1="93.5" y2="93.5" class="net_2 width_1" style="stroke-width: 1"/><line x1="42" x2="434" y1="322" y2="322" class="net_2 width_1" style="stroke-width: 1"/><line x1="526.5" x2="559" y1="79.5" y2="79.5" class="net_44,45,46,47,48,49,50,51,52,53,54,55,56,57,58,59,60,61 width_18" style="stroke-width: 2"/><line x1="559" x2="559" y1="79.5" y2="356" class="net_44,45,46,47,48,49,50,51,52,53,54,55,56,57,58,59,60,61 width_18" style="stroke-width: 2"/><line x1="559" x2="52" y1="356" y2="356" class="net_44,45,46,47,48,49,50,51,52,53,54,55,56,57,58,59,60,61 width_18" style="stroke-width: 2"/><line x1="52" x2="52" y1="356" y2="73.5" class="net_44,45,46,47,48,49,50,51,52,53,54,55,56,57,58,59,60,61 width_18" style="stroke-width: 2"/><line x1="52" x2="77.33333333333333" y1="73.5" y2="73.5" class="net_44,45,46,47,48,49,50,51,52,53,54,55,56,57,58,59,60,61 width_18" style="stroke-width: 2"/><line x1="395" x2="409" y1="232" y2="232" class="net_62 width_1" style="stroke-width: 1"/><line x1="409" x2="409" y1="232" y2="302" class="net_62 width_1" style="stroke-width: 1"/><line x1="409" x2="434" y1="302" y2="302" class="net_62 width_1" style="stroke-width: 1"/><line x1="262" x2="282" y1="86" y2="86" class="net_64 width_1" style="stroke-width: 1"/><line x1="282" x2="282" y1="86" y2="147" class="net_64 width_1" style="stroke-width: 1"/><line x1="282" x2="302.3333333333333" y1="147" y2="147" class="net_64 width_1" style="stroke-width: 1"/><line x1="262" x2="302.3333333333333" y1="162" y2="162" class="net_63 width_1" style="stroke-width: 1"/><rect x="177" y="68.5" width="22" height="9" class="net_5,6,7,8,9,10,11,12,13,14,15,16,17,18,19,20,21,22 width_18 busLabel_18" style="fill: white; stroke: none"/><text x="176" y="76.5" class="net_5,6,7,8,9,10,11,12,13,14,15,16,17,18,19,20,21,22 width_18 busLabel_18">/18/</text><rect x="177" y="68.5" width="22" height="9" class="net_5,6,7,8,9,10,11,12,13,14,15,16,17,18,19,20,21,22 width_18 busLabel_18" style="fill: white; stroke: none"/><text x="176" y="76.5" class="net_5,6,7,8,9,10,11,12,13,14,15,16,17,18,19,20,21,22 width_18 busLabel_18">/18/</text><rect x="177" y="68.5" width="22" height="9" class="net_5,6,7,8,9,10,11,12,13,14,15,16,17,18,19,20,21,22 width_18 busLabel_18" style="fill: white; stroke: none"/><text x="176" y="76.5" class="net_5,6,7,8,9,10,11,12,13,14,15,16,17,18,19,20,21,22 width_18 busLabel_18">/18/</text><rect x="177" y="88.5" width="22" height="9" class="net_66,67,68,69,70,71,72,73,74,75,76,77,78,79,80,81,82,83 width_18 busLabel_18" style="fill: white; stroke: none"/><text x="176" y="96.5" class="net_66,67,68,69,70,71,72,73,74,75,76,77,78,79,80,81,82,83 width_18 busLabel_18">/18/</text><rect x="177" y="88.5" width="22" height="9" class="net_66,67,68,69,70,71,72,73,74,75,76,77,78,79,80,81,82,83 width_18 busLabel_18" style="fill: white; stroke: none"/><text x="176" y="96.5" class="net_66,67,68,69,70,71,72,73,74,75,76,77,78,79,80,81,82,83 width_18 busLabel_18">/18/</text><rect x="449" y="27" width="22" height="9" class="net_84,85,86,87,88,89,90,91,92,93,94,95,96,97,98,99,100,101 width_18 busLabel_18" style="fill: white; stroke: none"/><text x="448" y="35" class="net_84,85,86,87,88,89,90,91,92,93,94,95,96,97,98,99,100,101 width_18 busLabel_18">/18/</text><rect x="449" y="84.5" width="22" height="9" class="net_23,24,25,26,27,28,29,30,31,32,33,34,35,36,37,38,39,40 width_18 busLabel_18" style="fill: white; stroke: none"/><text x="448" y="92.5" class="net_23,24,25,26,27,28,29,30,31,32,33,34,35,36,37,38,39,40 width_18 busLabel_18">/18/</text><rect x="316.5" y="351" width="22" height="9" class="net_44,45,46,47,48,49,50,51,52,53,54,55,56,57,58,59,60,61 width_18 busLabel_18" style="fill: white; stroke: none"/><text x="315.5" y="359" class="net_44,45,46,47,48,49,50,51,52,53,54,55,56,57,58,59,60,61 width_18 busLabel_18">/18/</text></svg>