<svg xmlns="http://www.w3.org/2000/svg" xmlns:xlink="http://www.w3.org/1999/xlink" xmlns:s="https://github.com/nturley/netlistsvg" width="703.5" height="508"><style>svg {
  stroke:#000;
  fill:none;
}
text {
  fill:#000;
  stroke:none;
  font-size:10px;
  font-weight: bold;
  font-family: "Courier New", monospace;
}
line {
    stroke-linecap: round;
}
.nodelabel {
  text-anchor: middle;
}
.inputPortLabel {
  text-anchor: end;
}
.splitjoinBody {
  fill:#000;
}</style><g s:type="eq" transform="translate(435.3333333333333,410)" s:width="25" s:height="25" id="cell_$eq$forwarding_unit.v:20$3"><s:alias val="$eq"/><s:alias val="$eqx"/><circle r="12.5" cx="12.5" cy="12.5" fill="#ffffff" class="cell_$eq$forwarding_unit.v:20$3"/><line x1="7.5" x2="17.5" y1="10" y2="10" fill="#ffffff" class="cell_$eq$forwarding_unit.v:20$3"/><line x1="7.5" x2="17.5" y1="15" y2="15" fill="#ffffff" class="cell_$eq$forwarding_unit.v:20$3"/><g s:x="2" s:y="5" s:pid="A"/><g s:x="2" s:y="20" s:pid="B"/><g s:x="25" s:y="12.5" s:pid="Y"/></g><g s:type="eq" transform="translate(216.66666666666666,99)" s:width="25" s:height="25" id="cell_$eq$forwarding_unit.v:21$7"><s:alias val="$eq"/><s:alias val="$eqx"/><circle r="12.5" cx="12.5" cy="12.5" fill="#ffffff" class="cell_$eq$forwarding_unit.v:21$7"/><line x1="7.5" x2="17.5" y1="10" y2="10" fill="#ffffff" class="cell_$eq$forwarding_unit.v:21$7"/><line x1="7.5" x2="17.5" y1="15" y2="15" fill="#ffffff" class="cell_$eq$forwarding_unit.v:21$7"/><g s:x="2" s:y="5" s:pid="A"/><g s:x="2" s:y="20" s:pid="B"/><g s:x="25" s:y="12.5" s:pid="Y"/></g><g s:type="eq" transform="translate(435.3333333333333,470)" s:width="25" s:height="25" id="cell_$eq$forwarding_unit.v:24$13"><s:alias val="$eq"/><s:alias val="$eqx"/><circle r="12.5" cx="12.5" cy="12.5" fill="#ffffff" class="cell_$eq$forwarding_unit.v:24$13"/><line x1="7.5" x2="17.5" y1="10" y2="10" fill="#ffffff" class="cell_$eq$forwarding_unit.v:24$13"/><line x1="7.5" x2="17.5" y1="15" y2="15" fill="#ffffff" class="cell_$eq$forwarding_unit.v:24$13"/><g s:x="2" s:y="5" s:pid="A"/><g s:x="2" s:y="20" s:pid="B"/><g s:x="25" s:y="12.5" s:pid="Y"/></g><g s:type="eq" transform="translate(216.66666666666666,315)" s:width="25" s:height="25" id="cell_$eq$forwarding_unit.v:25$17"><s:alias val="$eq"/><s:alias val="$eqx"/><circle r="12.5" cx="12.5" cy="12.5" fill="#ffffff" class="cell_$eq$forwarding_unit.v:25$17"/><line x1="7.5" x2="17.5" y1="10" y2="10" fill="#ffffff" class="cell_$eq$forwarding_unit.v:25$17"/><line x1="7.5" x2="17.5" y1="15" y2="15" fill="#ffffff" class="cell_$eq$forwarding_unit.v:25$17"/><g s:x="2" s:y="5" s:pid="A"/><g s:x="2" s:y="20" s:pid="B"/><g s:x="25" s:y="12.5" s:pid="Y"/></g><g s:type="and" transform="translate(497,352.5)" s:width="30" s:height="25" id="cell_$logic_and$forwarding_unit.v:20$4"><s:alias val="$and"/><s:alias val="$logic_and"/><s:alias val="$_AND_"/><s:alias val="$reduce_and"/><path d="M0,0 L0,25 L15,25 A15 12.5 0 0 0 15,0 Z" fill="#ffffff" class="cell_$logic_and$forwarding_unit.v:20$4"/><g s:x="0" s:y="5" s:pid="A"/><g s:x="0" s:y="20" s:pid="B"/><g s:x="30" s:y="12.5" s:pid="Y"/></g><g s:type="and" transform="translate(284.3333333333333,34.5)" s:width="30" s:height="25" id="cell_$logic_and$forwarding_unit.v:21$8"><s:alias val="$and"/><s:alias val="$logic_and"/><s:alias val="$_AND_"/><s:alias val="$reduce_and"/><path d="M0,0 L0,25 L15,25 A15 12.5 0 0 0 15,0 Z" fill="#ffffff" class="cell_$logic_and$forwarding_unit.v:21$8"/><g s:x="0" s:y="5" s:pid="A"/><g s:x="0" s:y="20" s:pid="B"/><g s:x="30" s:y="12.5" s:pid="Y"/></g><g s:type="and" transform="translate(432,345)" s:width="30" s:height="25" id="cell_$logic_and$forwarding_unit.v:24$12"><s:alias val="$and"/><s:alias val="$logic_and"/><s:alias val="$_AND_"/><s:alias val="$reduce_and"/><path d="M0,0 L0,25 L15,25 A15 12.5 0 0 0 15,0 Z" fill="#ffffff" class="cell_$logic_and$forwarding_unit.v:24$12"/><g s:x="0" s:y="5" s:pid="A"/><g s:x="0" s:y="20" s:pid="B"/><g s:x="30" s:y="12.5" s:pid="Y"/></g><g s:type="and" transform="translate(497,462.5)" s:width="30" s:height="25" id="cell_$logic_and$forwarding_unit.v:24$14"><s:alias val="$and"/><s:alias val="$logic_and"/><s:alias val="$_AND_"/><s:alias val="$reduce_and"/><path d="M0,0 L0,25 L15,25 A15 12.5 0 0 0 15,0 Z" fill="#ffffff" class="cell_$logic_and$forwarding_unit.v:24$14"/><g s:x="0" s:y="5" s:pid="A"/><g s:x="0" s:y="20" s:pid="B"/><g s:x="30" s:y="12.5" s:pid="Y"/></g><g s:type="and" transform="translate(215,27)" s:width="30" s:height="25" id="cell_$logic_and$forwarding_unit.v:25$16"><s:alias val="$and"/><s:alias val="$logic_and"/><s:alias val="$_AND_"/><s:alias val="$reduce_and"/><path d="M0,0 L0,25 L15,25 A15 12.5 0 0 0 15,0 Z" fill="#ffffff" class="cell_$logic_and$forwarding_unit.v:25$16"/><g s:x="0" s:y="5" s:pid="A"/><g s:x="0" s:y="20" s:pid="B"/><g s:x="30" s:y="12.5" s:pid="Y"/></g><g s:type="and" transform="translate(284.3333333333333,307.5)" s:width="30" s:height="25" id="cell_$logic_and$forwarding_unit.v:25$18"><s:alias val="$and"/><s:alias val="$logic_and"/><s:alias val="$_AND_"/><s:alias val="$reduce_and"/><path d="M0,0 L0,25 L15,25 A15 12.5 0 0 0 15,0 Z" fill="#ffffff" class="cell_$logic_and$forwarding_unit.v:25$18"/><g s:x="0" s:y="5" s:pid="A"/><g s:x="0" s:y="20" s:pid="B"/><g s:x="30" s:y="12.5" s:pid="Y"/></g><g s:type="or" transform="translate(358,430)" s:width="30" s:height="25" id="cell_$ne$forwarding_unit.v:24$11"><s:alias val="$or"/><s:alias val="$logic_or"/><s:alias val="$_OR_"/><s:alias val="$reduce_or"/><s:alias val="$reduce_bool"/><path d="M0,0 A30 25 0 0 1 0,25 A30 25 0 0 0 30,12.5 A30 25 0 0 0 0,0" fill="#ffffff" class="cell_$ne$forwarding_unit.v:24$11"/><g s:x="2" s:y="5" s:pid="A"/><g s:x="2" s:y="20" s:pid="B"/><g s:x="30" s:y="12.5" s:pid="Y"/></g><g s:type="or" transform="translate(148,68)" s:width="30" s:height="25" id="cell_$ne$forwarding_unit.v:25$15"><s:alias val="$or"/><s:alias val="$logic_or"/><s:alias val="$_OR_"/><s:alias val="$reduce_or"/><s:alias val="$reduce_bool"/><path d="M0,0 A30 25 0 0 1 0,25 A30 25 0 0 0 30,12.5 A30 25 0 0 0 0,0" fill="#ffffff" class="cell_$ne$forwarding_unit.v:25$15"/><g s:x="2" s:y="5" s:pid="A"/><g s:x="2" s:y="20" s:pid="B"/><g s:x="30" s:y="12.5" s:pid="Y"/></g><g s:type="mux-bus" transform="translate(563,124.5)" s:width="24" s:height="40" id="cell_$ternary$forwarding_unit.v:20$10"><s:alias val="$pmux-bus"/><s:alias val="$mux-bus"/><s:alias val="$_MUX_-bus"/><path d="M0,0 L20,10 L20,30 L0,40 Z" fill="#ffffff" class="cell_$ternary$forwarding_unit.v:20$10"/><path d="M4,2 L4,0 L22,9 L22,31 L4,40 L4,38" fill="#ffffff" class="cell_$ternary$forwarding_unit.v:20$10"/><path d="M8,2 L8,0 L24,8 L24,32 L8,40 L8,38" fill="#ffffff" class="cell_$ternary$forwarding_unit.v:20$10"/><text x="5" y="32" class="nodelabel cell_$ternary$forwarding_unit.v:20$10" s:attribute="">1</text><text x="5" y="13" class="nodelabel cell_$ternary$forwarding_unit.v:20$10" s:attribute="">0</text><g s:x="-1" s:y="10" s:pid="A"/><g s:x="-1" s:y="30" s:pid="B"/><g s:x="12" s:y="38" s:pid="S"/><g s:x="24.5" s:y="20" s:pid="Y"/></g><g s:type="mux" transform="translate(360.3333333333333,104.5)" s:width="20" s:height="40" id="cell_$ternary$forwarding_unit.v:21$9"><s:alias val="$pmux"/><s:alias val="$mux"/><s:alias val="$_MUX_"/><path d="M0,0 L20,10 L20,30 L0,40 Z" fill="#ffffff" class="cell_$ternary$forwarding_unit.v:21$9"/><text x="5" y="32" class="nodelabel cell_$ternary$forwarding_unit.v:21$9" s:attribute="">1</text><text x="5" y="13" class="nodelabel cell_$ternary$forwarding_unit.v:21$9" s:attribute="">0</text><g s:x="0" s:y="10" s:pid="A"/><g s:x="0" s:y="30" s:pid="B"/><g s:x="10" s:y="35" s:pid="S"/><g s:x="20" s:y="20" s:pid="Y"/></g><g s:type="mux-bus" transform="translate(563,375)" s:width="24" s:height="40" id="cell_$ternary$forwarding_unit.v:24$20"><s:alias val="$pmux-bus"/><s:alias val="$mux-bus"/><s:alias val="$_MUX_-bus"/><path d="M0,0 L20,10 L20,30 L0,40 Z" fill="#ffffff" class="cell_$ternary$forwarding_unit.v:24$20"/><path d="M4,2 L4,0 L22,9 L22,31 L4,40 L4,38" fill="#ffffff" class="cell_$ternary$forwarding_unit.v:24$20"/><path d="M8,2 L8,0 L24,8 L24,32 L8,40 L8,38" fill="#ffffff" class="cell_$ternary$forwarding_unit.v:24$20"/><text x="5" y="32" class="nodelabel cell_$ternary$forwarding_unit.v:24$20" s:attribute="">1</text><text x="5" y="13" class="nodelabel cell_$ternary$forwarding_unit.v:24$20" s:attribute="">0</text><g s:x="-1" s:y="10" s:pid="A"/><g s:x="-1" s:y="30" s:pid="B"/><g s:x="12" s:y="38" s:pid="S"/><g s:x="24.5" s:y="20" s:pid="Y"/></g><g s:type="mux" transform="translate(360.3333333333333,232.5)" s:width="20" s:height="40" id="cell_$ternary$forwarding_unit.v:25$19"><s:alias val="$pmux"/><s:alias val="$mux"/><s:alias val="$_MUX_"/><path d="M0,0 L20,10 L20,30 L0,40 Z" fill="#ffffff" class="cell_$ternary$forwarding_unit.v:25$19"/><text x="5" y="32" class="nodelabel cell_$ternary$forwarding_unit.v:25$19" s:attribute="">1</text><text x="5" y="13" class="nodelabel cell_$ternary$forwarding_unit.v:25$19" s:attribute="">0</text><g s:x="0" s:y="10" s:pid="A"/><g s:x="0" s:y="30" s:pid="B"/><g s:x="10" s:y="35" s:pid="S"/><g s:x="20" s:y="20" s:pid="Y"/></g><g s:type="inputExt" transform="translate(77,155)" s:width="30" s:height="20" id="cell_ex_rs1"><text x="15" y="-4" class="nodelabel cell_ex_rs1" s:attribute="ref">ex_rs1</text><s:alias val="$_inputExt_"/><path d="M0,0 L0,20 L15,20 L30,10 L15,0 Z" fill="#ffffff" class="cell_ex_rs1"/><g s:x="30" s:y="10" s:pid="Y"/></g><g s:type="inputExt" transform="translate(77,325)" s:width="30" s:height="20" id="cell_ex_rs2"><text x="15" y="-4" class="nodelabel cell_ex_rs2" s:attribute="ref">ex_rs2</text><s:alias val="$_inputExt_"/><path d="M0,0 L0,20 L15,20 L30,10 L15,0 Z" fill="#ffffff" class="cell_ex_rs2"/><g s:x="30" s:y="10" s:pid="Y"/></g><g s:type="inputExt" transform="translate(213,385)" s:width="30" s:height="20" id="cell_mem_rd"><text x="15" y="-4" class="nodelabel cell_mem_rd" s:attribute="ref">mem_rd</text><s:alias val="$_inputExt_"/><path d="M0,0 L0,20 L15,20 L30,10 L15,0 Z" fill="#ffffff" class="cell_mem_rd"/><g s:x="30" s:y="10" s:pid="Y"/></g><g s:type="inputExt" transform="translate(355,340)" s:width="30" s:height="20" id="cell_mem_we"><text x="15" y="-4" class="nodelabel cell_mem_we" s:attribute="ref">mem_we</text><s:alias val="$_inputExt_"/><path d="M0,0 L0,20 L15,20 L30,10 L15,0 Z" fill="#ffffff" class="cell_mem_we"/><g s:x="30" s:y="10" s:pid="Y"/></g><g s:type="inputExt" transform="translate(12,43)" s:width="30" s:height="20" id="cell_wb_rd"><text x="15" y="-4" class="nodelabel cell_wb_rd" s:attribute="ref">wb_rd</text><s:alias val="$_inputExt_"/><path d="M0,0 L0,20 L15,20 L30,10 L15,0 Z" fill="#ffffff" class="cell_wb_rd"/><g s:x="30" s:y="10" s:pid="Y"/></g><g s:type="inputExt" transform="translate(148,22)" s:width="30" s:height="20" id="cell_wb_we"><text x="15" y="-4" class="nodelabel cell_wb_we" s:attribute="ref">wb_we</text><s:alias val="$_inputExt_"/><path d="M0,0 L0,20 L15,20 L30,10 L15,0 Z" fill="#ffffff" class="cell_wb_we"/><g s:x="30" s:y="10" s:pid="Y"/></g><g s:type="outputExt" transform="translate(661.5,134.5)" s:width="30" s:height="20" id="cell_fwd_a"><text x="15" y="-4" class="nodelabel cell_fwd_a" s:attribute="ref">fwd_a</text><s:alias val="$_outputExt_"/><path d="M30,0 L30,20 L15,20 L0,10 L15,0 Z" fill="#ffffff" class="cell_fwd_a"/><g s:x="0" s:y="10" s:pid="A"/></g><g s:type="outputExt" transform="translate(661.5,385)" s:width="30" s:height="20" id="cell_fwd_b"><text x="15" y="-4" class="nodelabel cell_fwd_b" s:attribute="ref">fwd_b</text><s:alias val="$_outputExt_"/><path d="M30,0 L30,20 L15,20 L0,10 L15,0 Z" fill="#ffffff" class="cell_fwd_b"/><g s:x="0" s:y="10" s:pid="A"/></g><g s:type="constant" transform="translate(284,104.5)" s:width="30" s:height="20" id="cell_0"><text x="15" y="-4" class="nodelabel cell_0" s:attribute="ref">0</text><s:alias val="$_constant_"/><rect width="30" height="20" fill="#ffffff" class="cell_0"/><g s:x="31" s:y="10" s:pid="Y"/></g><g s:type="constant" transform="translate(431,276)" s:width="30" s:height="20" id="cell_10"><text x="15" y="-4" class="nodelabel cell_10" s:attribute="ref">10</text><s:alias val="$_constant_"/><rect width="30" height="20" fill="#ffffff" class="cell_10"/><g s:x="31" s:y="10" s:pid="Y"/></g><g s:type="constant" transform="translate(284,252.5)" s:width="30" s:height="20" id="cell_1"><text x="15" y="-4" class="nodelabel cell_1" s:attribute="ref">1</text><s:alias val="$_constant_"/><rect width="30" height="20" fill="#ffffff" class="cell_1"/><g s:x="31" s:y="10" s:pid="Y"/></g><g s:type="join" transform="translate(442.3333333333333,114)" s:width="4" s:height="40" id="cell_$join$,40,42,"><rect width="5" height="40" class="splitjoinBody" s:generic="body"/><s:alias val="$_join_"/><g s:x="5" s:y="20" s:pid="out"/><g transform="translate(0,10)" s:x="0" s:y="10" s:pid="in0"><text x="-3" y="-4" class="inputPortLabel">0</text></g><g transform="translate(0,30)" s:x="0" s:y="10" s:pid="in0"><text x="-3" y="-4" class="inputPortLabel">1</text></g></g><g s:type="join" transform="translate(442.3333333333333,191)" s:width="4" s:height="40" id="cell_$join$,41,42,"><rect width="5" height="40" class="splitjoinBody" s:generic="body"/><s:alias val="$_join_"/><g s:x="5" s:y="20" s:pid="out"/><g transform="translate(0,10)" s:x="0" s:y="10" s:pid="in0"><text x="-3" y="-4" class="inputPortLabel">0</text></g><g transform="translate(0,30)" s:x="0" s:y="10" s:pid="in0"><text x="-3" y="-4" class="inputPortLabel">1</text></g></g><line x1="243" x2="259" y1="395" y2="395" class="net_12,13,14,15,16 width_5" style="stroke-width: 2"/><line x1="259" x2="259" y1="395" y2="415" class="net_12,13,14,15,16 width_5" style="stroke-width: 2"/><circle cx="259" cy="395" r="3" style="fill:#000" class="net_12,13,14,15,16 width_5"/><circle cx="259" cy="415" r="3" style="fill:#000" class="net_12,13,14,15,16 width_5"/><line x1="259" x2="437.3333333333333" y1="415" y2="415" class="net_12,13,14,15,16 width_5" style="stroke-width: 2"/><line x1="243" x2="421" y1="395" y2="395" class="net_12,13,14,15,16 width_5" style="stroke-width: 2"/><line x1="421" x2="421" y1="395" y2="475" class="net_12,13,14,15,16 width_5" style="stroke-width: 2"/><line x1="421" x2="437.3333333333333" y1="475" y2="475" class="net_12,13,14,15,16 width_5" style="stroke-width: 2"/><line x1="243" x2="259" y1="395" y2="395" class="net_12,13,14,15,16 width_5" style="stroke-width: 2"/><line x1="259" x2="259" y1="395" y2="435" class="net_12,13,14,15,16 width_5" style="stroke-width: 2"/><line x1="259" x2="360" y1="435" y2="435" class="net_12,13,14,15,16 width_5" style="stroke-width: 2"/><line x1="107" x2="123" y1="165" y2="165" class="net_2,3,4,5,6 width_5" style="stroke-width: 2"/><line x1="123" x2="123" y1="165" y2="182" class="net_2,3,4,5,6 width_5" style="stroke-width: 2"/><line x1="123" x2="188" y1="182" y2="182" class="net_2,3,4,5,6 width_5" style="stroke-width: 2"/><line x1="188" x2="188" y1="182" y2="466" class="net_2,3,4,5,6 width_5" style="stroke-width: 2"/><line x1="188" x2="411" y1="466" y2="466" class="net_2,3,4,5,6 width_5" style="stroke-width: 2"/><line x1="411" x2="411" y1="466" y2="430" class="net_2,3,4,5,6 width_5" style="stroke-width: 2"/><circle cx="123" cy="165" r="3" style="fill:#000" class="net_2,3,4,5,6 width_5"/><line x1="411" x2="437.3333333333333" y1="430" y2="430" class="net_2,3,4,5,6 width_5" style="stroke-width: 2"/><line x1="107" x2="188" y1="165" y2="165" class="net_2,3,4,5,6 width_5" style="stroke-width: 2"/><line x1="188" x2="188" y1="165" y2="119" class="net_2,3,4,5,6 width_5" style="stroke-width: 2"/><line x1="188" x2="218.66666666666666" y1="119" y2="119" class="net_2,3,4,5,6 width_5" style="stroke-width: 2"/><line x1="42" x2="52" y1="53" y2="53" class="net_18,19,20,21,22 width_5" style="stroke-width: 2"/><line x1="52" x2="52" y1="53" y2="104" class="net_18,19,20,21,22 width_5" style="stroke-width: 2"/><circle cx="52" cy="53" r="3" style="fill:#000" class="net_18,19,20,21,22 width_5"/><line x1="52" x2="218.66666666666666" y1="104" y2="104" class="net_18,19,20,21,22 width_5" style="stroke-width: 2"/><line x1="42" x2="198" y1="53" y2="53" class="net_18,19,20,21,22 width_5" style="stroke-width: 2"/><line x1="198" x2="198" y1="53" y2="320" class="net_18,19,20,21,22 width_5" style="stroke-width: 2"/><line x1="198" x2="218.66666666666666" y1="320" y2="320" class="net_18,19,20,21,22 width_5" style="stroke-width: 2"/><line x1="42" x2="52" y1="53" y2="53" class="net_18,19,20,21,22 width_5" style="stroke-width: 2"/><line x1="52" x2="52" y1="53" y2="73" class="net_18,19,20,21,22 width_5" style="stroke-width: 2"/><circle cx="52" cy="73" r="3" style="fill:#000" class="net_18,19,20,21,22 width_5"/><line x1="52" x2="150" y1="73" y2="73" class="net_18,19,20,21,22 width_5" style="stroke-width: 2"/><line x1="107" x2="123" y1="335" y2="335" class="net_7,8,9,10,11 width_5" style="stroke-width: 2"/><line x1="123" x2="123" y1="335" y2="490" class="net_7,8,9,10,11 width_5" style="stroke-width: 2"/><circle cx="123" cy="335" r="3" style="fill:#000" class="net_7,8,9,10,11 width_5"/><line x1="123" x2="437.3333333333333" y1="490" y2="490" class="net_7,8,9,10,11 width_5" style="stroke-width: 2"/><line x1="107" x2="218.66666666666666" y1="335" y2="335" class="net_7,8,9,10,11 width_5" style="stroke-width: 2"/><line x1="462" x2="497" y1="357.5" y2="357.5" class="net_32 width_1" style="stroke-width: 1"/><line x1="462" x2="482" y1="357.5" y2="357.5" class="net_32 width_1" style="stroke-width: 1"/><line x1="482" x2="482" y1="357.5" y2="467.5" class="net_32 width_1" style="stroke-width: 1"/><circle cx="482" cy="357.5" r="2" style="fill:#000" class="net_32 width_1"/><line x1="482" x2="497" y1="467.5" y2="467.5" class="net_32 width_1" style="stroke-width: 1"/><line x1="460.3333333333333" x2="472" y1="422.5" y2="422.5" class="net_28 width_1" style="stroke-width: 1"/><line x1="472" x2="472" y1="422.5" y2="372.5" class="net_28 width_1" style="stroke-width: 1"/><line x1="472" x2="497" y1="372.5" y2="372.5" class="net_28 width_1" style="stroke-width: 1"/><line x1="245" x2="284.3333333333333" y1="39.5" y2="39.5" class="net_34 width_1" style="stroke-width: 1"/><line x1="245" x2="269" y1="39.5" y2="39.5" class="net_34 width_1" style="stroke-width: 1"/><line x1="269" x2="269" y1="39.5" y2="312.5" class="net_34 width_1" style="stroke-width: 1"/><circle cx="269" cy="39.5" r="2" style="fill:#000" class="net_34 width_1"/><line x1="269" x2="284.3333333333333" y1="312.5" y2="312.5" class="net_34 width_1" style="stroke-width: 1"/><line x1="241.66666666666666" x2="259" y1="111.5" y2="111.5" class="net_29 width_1" style="stroke-width: 1"/><line x1="259" x2="259" y1="111.5" y2="54.5" class="net_29 width_1" style="stroke-width: 1"/><line x1="259" x2="284.3333333333333" y1="54.5" y2="54.5" class="net_29 width_1" style="stroke-width: 1"/><line x1="385" x2="432" y1="350" y2="350" class="net_17 width_1" style="stroke-width: 1"/><line x1="388" x2="401" y1="442.5" y2="442.5" class="net_36 width_1" style="stroke-width: 1"/><line x1="401" x2="401" y1="442.5" y2="365" class="net_36 width_1" style="stroke-width: 1"/><line x1="401" x2="432" y1="365" y2="365" class="net_36 width_1" style="stroke-width: 1"/><line x1="460.3333333333333" x2="497" y1="482.5" y2="482.5" class="net_30 width_1" style="stroke-width: 1"/><line x1="178" x2="215" y1="32" y2="32" class="net_23 width_1" style="stroke-width: 1"/><line x1="178" x2="188" y1="80.5" y2="80.5" class="net_38 width_1" style="stroke-width: 1"/><line x1="188" x2="188" y1="80.5" y2="47" class="net_38 width_1" style="stroke-width: 1"/><line x1="188" x2="215" y1="47" y2="47" class="net_38 width_1" style="stroke-width: 1"/><line x1="241.66666666666666" x2="284.3333333333333" y1="327.5" y2="327.5" class="net_31 width_1" style="stroke-width: 1"/><line x1="448.3333333333333" x2="562" y1="134.5" y2="134.5" class="net_40,42 width_2" style="stroke-width: 2"/><line x1="462" x2="537" y1="286" y2="286" class="net_43,44 width_2" style="stroke-width: 2"/><line x1="537" x2="537" y1="286" y2="154.5" class="net_43,44 width_2" style="stroke-width: 2"/><line x1="537" x2="562" y1="154.5" y2="154.5" class="net_43,44 width_2" style="stroke-width: 2"/><line x1="462" x2="472" y1="286" y2="286" class="net_43,44 width_2" style="stroke-width: 2"/><line x1="472" x2="472" y1="286" y2="306" class="net_43,44 width_2" style="stroke-width: 2"/><line x1="472" x2="537" y1="306" y2="306" class="net_43,44 width_2" style="stroke-width: 2"/><line x1="537" x2="537" y1="306" y2="405" class="net_43,44 width_2" style="stroke-width: 2"/><circle cx="472" cy="286" r="3" style="fill:#000" class="net_43,44 width_2"/><line x1="537" x2="562" y1="405" y2="405" class="net_43,44 width_2" style="stroke-width: 2"/><line x1="527" x2="575" y1="365" y2="365" class="net_33 width_1" style="stroke-width: 1"/><line x1="575" x2="575" y1="365" y2="162.5" class="net_33 width_1" style="stroke-width: 1"/><line x1="315" x2="360.3333333333333" y1="114.5" y2="114.5" class="net_42 width_1" style="stroke-width: 1"/><line x1="315" x2="335" y1="114.5" y2="114.5" class="net_42 width_1" style="stroke-width: 1"/><line x1="335" x2="335" y1="114.5" y2="242.5" class="net_42 width_1" style="stroke-width: 1"/><circle cx="335" cy="114.5" r="2" style="fill:#000" class="net_42 width_1"/><line x1="335" x2="360.3333333333333" y1="242.5" y2="242.5" class="net_42 width_1" style="stroke-width: 1"/><line x1="315" x2="335" y1="114.5" y2="114.5" class="net_42 width_1" style="stroke-width: 1"/><line x1="335" x2="335" y1="114.5" y2="221.5" class="net_42 width_1" style="stroke-width: 1"/><line x1="335" x2="401" y1="221.5" y2="221.5" class="net_42 width_1" style="stroke-width: 1"/><line x1="401" x2="401" y1="221.5" y2="144.5" class="net_42 width_1" style="stroke-width: 1"/><circle cx="335" cy="221.5" r="2" style="fill:#000" class="net_42 width_1"/><circle cx="401" cy="221.5" r="2" style="fill:#000" class="net_42 width_1"/><line x1="401" x2="442.3333333333333" y1="144.5" y2="144.5" class="net_42 width_1" style="stroke-width: 1"/><line x1="315" x2="335" y1="114.5" y2="114.5" class="net_42 width_1" style="stroke-width: 1"/><line x1="335" x2="335" y1="114.5" y2="221.5" class="net_42 width_1" style="stroke-width: 1"/><line x1="335" x2="442.3333333333333" y1="221.5" y2="221.5" class="net_42 width_1" style="stroke-width: 1"/><line x1="315" x2="325" y1="262.5" y2="262.5" class="net_46 width_1" style="stroke-width: 1"/><line x1="325" x2="325" y1="262.5" y2="134.5" class="net_46 width_1" style="stroke-width: 1"/><circle cx="325" cy="262.5" r="2" style="fill:#000" class="net_46 width_1"/><line x1="325" x2="360.3333333333333" y1="134.5" y2="134.5" class="net_46 width_1" style="stroke-width: 1"/><line x1="315" x2="360.3333333333333" y1="262.5" y2="262.5" class="net_46 width_1" style="stroke-width: 1"/><line x1="314.3333333333333" x2="345" y1="47" y2="47" class="net_35 width_1" style="stroke-width: 1"/><line x1="345" x2="345" y1="47" y2="154.5" class="net_35 width_1" style="stroke-width: 1"/><line x1="345" x2="370.3333333333333" y1="154.5" y2="154.5" class="net_35 width_1" style="stroke-width: 1"/><line x1="370.3333333333333" x2="370.3333333333333" y1="154.5" y2="139.5" class="net_35 width_1" style="stroke-width: 1"/><line x1="448.3333333333333" x2="547" y1="211.5" y2="211.5" class="net_41,42 width_2" style="stroke-width: 2"/><line x1="547" x2="547" y1="211.5" y2="385" class="net_41,42 width_2" style="stroke-width: 2"/><line x1="547" x2="562" y1="385" y2="385" class="net_41,42 width_2" style="stroke-width: 2"/><line x1="527" x2="575" y1="475" y2="475" class="net_37 width_1" style="stroke-width: 1"/><line x1="575" x2="575" y1="475" y2="413" class="net_37 width_1" style="stroke-width: 1"/><line x1="314.3333333333333" x2="370.3333333333333" y1="320" y2="320" class="net_39 width_1" style="stroke-width: 1"/><line x1="370.3333333333333" x2="370.3333333333333" y1="320" y2="267.5" class="net_39 width_1" style="stroke-width: 1"/><line x1="587.5" x2="661.5" y1="144.5" y2="144.5" class="net_24,25 width_2" style="stroke-width: 2"/><line x1="587.5" x2="661.5" y1="395" y2="395" class="net_26,27 width_2" style="stroke-width: 2"/><line x1="380.3333333333333" x2="442.3333333333333" y1="124.5" y2="124.5" class="net_40 width_1" style="stroke-width: 1"/><line x1="380.3333333333333" x2="411" y1="252.5" y2="252.5" class="net_41 width_1" style="stroke-width: 1"/><line x1="411" x2="411" y1="252.5" y2="201.5" class="net_41 width_1" style="stroke-width: 1"/><line x1="411" x2="442.3333333333333" y1="201.5" y2="201.5" class="net_41 width_1" style="stroke-width: 1"/><rect x="298.5" y="430" width="16" height="9" class="net_12,13,14,15,16 width_5 busLabel_5" style="fill: white; stroke: none"/><text x="297.5" y="438" class="net_12,13,14,15,16 width_5 busLabel_5">/5/</text><rect x="298.5" y="430" width="16" height="9" class="net_12,13,14,15,16 width_5 busLabel_5" style="fill: white; stroke: none"/><text x="297.5" y="438" class="net_12,13,14,15,16 width_5 busLabel_5">/5/</text><rect x="298.5" y="430" width="16" height="9" class="net_12,13,14,15,16 width_5 busLabel_5" style="fill: white; stroke: none"/><text x="297.5" y="438" class="net_12,13,14,15,16 width_5 busLabel_5">/5/</text><rect x="162" y="160" width="16" height="9" class="net_2,3,4,5,6 width_5 busLabel_5" style="fill: white; stroke: none"/><text x="161" y="168" class="net_2,3,4,5,6 width_5 busLabel_5">/5/</text><rect x="162" y="160" width="16" height="9" class="net_2,3,4,5,6 width_5 busLabel_5" style="fill: white; stroke: none"/><text x="161" y="168" class="net_2,3,4,5,6 width_5 busLabel_5">/5/</text><rect x="94" y="68" width="16" height="9" class="net_18,19,20,21,22 width_5 busLabel_5" style="fill: white; stroke: none"/><text x="93" y="76" class="net_18,19,20,21,22 width_5 busLabel_5">/5/</text><rect x="94" y="68" width="16" height="9" class="net_18,19,20,21,22 width_5 busLabel_5" style="fill: white; stroke: none"/><text x="93" y="76" class="net_18,19,20,21,22 width_5 busLabel_5">/5/</text><rect x="94" y="68" width="16" height="9" class="net_18,19,20,21,22 width_5 busLabel_5" style="fill: white; stroke: none"/><text x="93" y="76" class="net_18,19,20,21,22 width_5 busLabel_5">/5/</text><rect x="162" y="330" width="16" height="9" class="net_7,8,9,10,11 width_5 busLabel_5" style="fill: white; stroke: none"/><text x="161" y="338" class="net_7,8,9,10,11 width_5 busLabel_5">/5/</text><rect x="162" y="330" width="16" height="9" class="net_7,8,9,10,11 width_5 busLabel_5" style="fill: white; stroke: none"/><text x="161" y="338" class="net_7,8,9,10,11 width_5 busLabel_5">/5/</text><rect x="511" y="129.5" width="16" height="9" class="net_40,42 width_2 busLabel_2" style="fill: white; stroke: none"/><text x="510" y="137.5" class="net_40,42 width_2 busLabel_2">/2/</text><rect x="511" y="301" width="16" height="9" class="net_43,44 width_2 busLabel_2" style="fill: white; stroke: none"/><text x="510" y="309" class="net_43,44 width_2 busLabel_2">/2/</text><rect x="511" y="301" width="16" height="9" class="net_43,44 width_2 busLabel_2" style="fill: white; stroke: none"/><text x="510" y="309" class="net_43,44 width_2 busLabel_2">/2/</text><rect x="511" y="206.5" width="16" height="9" class="net_41,42 width_2 busLabel_2" style="fill: white; stroke: none"/><text x="510" y="214.5" class="net_41,42 width_2 busLabel_2">/2/</text><rect x="623.5" y="139.5" width="16" height="9" class="net_24,25 width_2 busLabel_2" style="fill: white; stroke: none"/><text x="622.5" y="147.5" class="net_24,25 width_2 busLabel_2">/2/</text><rect x="623.5" y="390" width="16" height="9" class="net_26,27 width_2 busLabel_2" style="fill: white; stroke: none"/><text x="622.5" y="398" class="net_26,27 width_2 busLabel_2">/2/</text></svg>