<svg xmlns="http://www.w3.org/2000/svg" xmlns:xlink="http://www.w3.org/1999/xlink" xmlns:s="https://github.com/nturley/netlistsvg" width="391" height="2303.5">
  <style>svg {
    stroke:#000;
    fill:none;
  }
  text {
    fill:#000;
    stroke:none;
    font-size:10px;
    font-weight: bold;
    font-family: "Courier New", monospace;
  }
  .nodelabel {
    text-anchor: middle;
  }
  .inputPortLabel {
    text-anchor: end;
  }
  .splitjoinBody {
    fill:#000;
  }</style>
  <g s:type="eq" transform="translate(84,2071.5)" s:width="25" s:height="25" id="cell_:15">
    <s:alias val="$eq"/>
    <circle r="12.5" cx="12.5" cy="12.5" class="cell_:15"/>
    <line x1="7.5" x2="17.5" y1="10" y2="10" class="cell_:15"/>
    <line x1="7.5" x2="17.5" y1="15" y2="15" class="cell_:15"/>
    <g s:x="3" s:y="5" s:pid="A"/>
    <g s:x="3" s:y="20" s:pid="B"/>
    <g s:x="25" s:y="12.5" s:pid="Y"/>
  </g>
  <g s:type="eq" transform="translate(84,2131.5)" s:width="25" s:height="25" id="cell_:28">
    <s:alias val="$eq"/>
    <circle r="12.5" cx="12.5" cy="12.5" class="cell_:28"/>
    <line x1="7.5" x2="17.5" y1="10" y2="10" class="cell_:28"/>
    <line x1="7.5" x2="17.5" y1="15" y2="15" class="cell_:28"/>
    <g s:x="3" s:y="5" s:pid="A"/>
    <g s:x="3" s:y="20" s:pid="B"/>
    <g s:x="25" s:y="12.5" s:pid="Y"/>
  </g>
  <g s:type="eq" transform="translate(84,2196.5)" s:width="25" s:height="25" id="cell_:33">
    <s:alias val="$eq"/>
    <circle r="12.5" cx="12.5" cy="12.5" class="cell_:33"/>
    <line x1="7.5" x2="17.5" y1="10" y2="10" class="cell_:33"/>
    <line x1="7.5" x2="17.5" y1="15" y2="15" class="cell_:33"/>
    <g s:x="3" s:y="5" s:pid="A"/>
    <g s:x="3" s:y="20" s:pid="B"/>
    <g s:x="25" s:y="12.5" s:pid="Y"/>
  </g>
  <g s:type="eq" transform="translate(84,2261.5)" s:width="25" s:height="25" id="cell_:46">
    <s:alias val="$eq"/>
    <circle r="12.5" cx="12.5" cy="12.5" class="cell_:46"/>
    <line x1="7.5" x2="17.5" y1="10" y2="10" class="cell_:46"/>
    <line x1="7.5" x2="17.5" y1="15" y2="15" class="cell_:46"/>
    <g s:x="3" s:y="5" s:pid="A"/>
    <g s:x="3" s:y="20" s:pid="B"/>
    <g s:x="25" s:y="12.5" s:pid="Y"/>
  </g>
  <g s:type="mux" transform="translate(294,22)" s:width="20" s:height="40" id="cell_:49">
    <s:alias val="$pmux"/>
    <s:alias val="$mux"/>
    <s:alias val="$_MUX_"/>
    <path d="M0,0 L20,10 L20,30 L0,40 Z" class="cell_:49"/>
    <g s:x="0" s:y="10" s:pid="A"/>
    <g s:x="0" s:y="30" s:pid="B"/>
    <g s:x="10" s:y="35" s:pid="S"/>
    <g s:x="20" s:y="20" s:pid="Y"/>
  </g>
  <g s:type="not" transform="translate(78,2016.5)" s:width="30" s:height="20" id="cell_:8">
    <s:alias val="$_NOT_"/>
    <s:alias val="$not"/>
    <s:alias val="$logic_not"/>
    <path d="M0,0 L0,20 L20,10 Z" class="cell_:8"/>
    <circle cx="23" cy="10" r="3" class="cell_:8"/>
    <g s:x="0" s:y="10" s:pid="A"/>
    <g s:x="25" s:y="10" s:pid="Y"/>
  </g>
  <g s:type="inputExt" transform="translate(12,52)" s:width="30" s:height="20" id="cell_instr">
    <text x="15" y="-4" class="nodelabel cell_instr" s:attribute="ref">instr</text>
    <s:alias val="$_inputExt_"/>
    <path d="M0,0 L0,20 L15,20 L30,10 L15,0 Z" class="cell_instr"/>
    <g s:x="28" s:y="10" s:pid="Y"/>
  </g>
  <g s:type="inputExt" transform="translate(12,2016.5)" s:width="30" s:height="20" id="cell_fmt">
    <text x="15" y="-4" class="nodelabel cell_fmt" s:attribute="ref">fmt</text>
    <s:alias val="$_inputExt_"/>
    <path d="M0,0 L0,20 L15,20 L30,10 L15,0 Z" class="cell_fmt"/>
    <g s:x="28" s:y="10" s:pid="Y"/>
  </g>
  <g s:type="outputExt" transform="translate(349,32)" s:width="30" s:height="20" id="cell_imm">
    <text x="15" y="-4" class="nodelabel cell_imm" s:attribute="ref">imm</text>
    <s:alias val="$_outputExt_"/>
    <path d="M30,0 L30,20 L15,20 L0,10 L15,0 Z" class="cell_imm"/>
    <g s:x="0" s:y="10" s:pid="A"/>
  </g>
  <g s:type="constant" transform="translate(12,117)" s:width="30" s:height="20" id="cell_1">
    <text x="15" y="-4" class="nodelabel cell_1" s:attribute="ref">1</text>
    <s:alias val="$_constant_"/>
    <rect width="30" height="20" class="cell_1"/>
    <g s:x="30" s:y="10" s:pid="Y"/>
  </g>
  <g s:type="constant" transform="translate(12,2141.5)" s:width="30" s:height="20" id="cell_10">
    <text x="15" y="-4" class="nodelabel cell_10" s:attribute="ref">10</text>
    <s:alias val="$_constant_"/>
    <rect width="30" height="20" class="cell_10"/>
    <g s:x="30" s:y="10" s:pid="Y"/>
  </g>
  <g s:type="constant" transform="translate(12,2206.5)" s:width="30" s:height="20" id="cell_11">
    <text x="15" y="-4" class="nodelabel cell_11" s:attribute="ref">11</text>
    <s:alias val="$_constant_"/>
    <rect width="30" height="20" class="cell_11"/>
    <g s:x="30" s:y="10" s:pid="Y"/>
  </g>
  <g s:type="constant" transform="translate(12,2271.5)" s:width="30" s:height="20" id="cell_100">
    <text x="15" y="-4" class="nodelabel cell_100" s:attribute="ref">100</text>
    <s:alias val="$_constant_"/>
    <rect width="30" height="20" class="cell_100"/>
    <g s:x="30" s:y="10" s:pid="Y"/>
  </g>
  <g s:type="constant" transform="translate(229,22)" s:width="30" s:height="20" id="cell_00000000000000000000000000000000">
    <text x="15" y="-4" class="nodelabel cell_00000000000000000000000000000000" s:attribute="ref">0x0</text>
    <s:alias val="$_constant_"/>
    <rect width="30" height="20" class="cell_00000000000000000000000000000000"/>
    <g s:x="30" s:y="10" s:pid="Y"/>
  </g>
  <g s:type="constant" transform="translate(79,1067)" s:width="30" s:height="20" id="cell_0">
    <text x="15" y="-4" class="nodelabel cell_0" s:attribute="ref">0</text>
    <s:alias val="$_constant_"/>
    <rect width="30" height="20" class="cell_0"/>
    <g s:x="30" s:y="10" s:pid="Y"/>
  </g>
  <g s:type="constant" transform="translate(79,1547)" s:width="30" s:height="20" id="cell_000000000000">
    <text x="15" y="-4" class="nodelabel cell_000000000000" s:attribute="ref">0x0</text>
    <s:alias val="$_constant_"/>
    <rect width="30" height="20" class="cell_000000000000"/>
    <g s:x="30" s:y="10" s:pid="Y"/>
  </g>
  <g s:type="join" transform="translate(229.40625,206.5)" s:width="4" s:height="40" id="cell_$join$,22,23,24,25,26,27,28,29,30,31,32,33,33,33,33,33,33,33,33,33,33,33,33,33,33,33,33,33,33,33,33,33,9,10,11,12,13,27,28,29,30,31,32,33,33,33,33,33,33,33,33,33,33,33,33,33,33,33,33,33,33,33,33,33,114,10,11,12,13,27,28,29,30,31,32,9,33,33,33,33,33,33,33,33,33,33,33,33,33,33,33,33,33,33,33,33,115,116,117,118,119,120,121,122,123,124,125,126,14,15,16,17,18,19,20,21,22,23,24,25,26,27,28,29,30,31,32,33,114,23,24,25,26,27,28,29,30,31,32,22,14,15,16,17,18,19,20,21,33,33,33,33,33,33,33,33,33,33,33,33,">
    <rect width="5" height="1700" class="splitjoinBody" s:generic="body"/>
    <s:alias val="$_join_"/>
    <g s:x="5" s:y="20" s:pid="out"/>
    <g transform="translate(0,10)" s:x="0" s:y="10" s:pid="in0">
      <text x="-3" y="-4" class="inputPortLabel">0:11</text>
    </g>
    <g transform="translate(0,30)" s:x="0" s:y="10" s:pid="in0">
      <text x="-3" y="-4" class="inputPortLabel">12</text>
    </g>
    <g transform="translate(0,50)" s:x="0" s:y="10" s:pid="in0">
      <text x="-3" y="-4" class="inputPortLabel">13</text>
    </g>
    <g transform="translate(0,70)" s:x="0" s:y="10" s:pid="in0">
      <text x="-3" y="-4" class="inputPortLabel">14</text>
    </g>
    <g transform="translate(0,90)" s:x="0" s:y="10" s:pid="in0">
      <text x="-3" y="-4" class="inputPortLabel">15</text>
    </g>
    <g transform="translate(0,110)" s:x="0" s:y="10" s:pid="in0">
      <text x="-3" y="-4" class="inputPortLabel">16</text>
    </g>
    <g transform="translate(0,130)" s:x="0" s:y="10" s:pid="in0">
      <text x="-3" y="-4" class="inputPortLabel">17</text>
    </g>
    <g transform="translate(0,150)" s:x="0" s:y="10" s:pid="in0">
      <text x="-3" y="-4" class="inputPortLabel">18</text>
    </g>
    <g transform="translate(0,170)" s:x="0" s:y="10" s:pid="in0">
      <text x="-3" y="-4" class="inputPortLabel">19</text>
    </g>
    <g transform="translate(0,190)" s:x="0" s:y="10" s:pid="in0">
      <text x="-3" y="-4" class="inputPortLabel">20</text>
    </g>
    <g transform="translate(0,210)" s:x="0" s:y="10" s:pid="in0">
      <text x="-3" y="-4" class="inputPortLabel">21</text>
    </g>
    <g transform="translate(0,230)" s:x="0" s:y="10" s:pid="in0">
      <text x="-3" y="-4" class="inputPortLabel">22</text>
    </g>
    <g transform="translate(0,250)" s:x="0" s:y="10" s:pid="in0">
      <text x="-3" y="-4" class="inputPortLabel">23</text>
    </g>
    <g transform="translate(0,270)" s:x="0" s:y="10" s:pid="in0">
      <text x="-3" y="-4" class="inputPortLabel">24</text>
    </g>
    <g transform="translate(0,290)" s:x="0" s:y="10" s:pid="in0">
      <text x="-3" y="-4" class="inputPortLabel">25</text>
    </g>
    <g transform="translate(0,310)" s:x="0" s:y="10" s:pid="in0">
      <text x="-3" y="-4" class="inputPortLabel">26</text>
    </g>
    <g transform="translate(0,330)" s:x="0" s:y="10" s:pid="in0">
      <text x="-3" y="-4" class="inputPortLabel">27</text>
    </g>
    <g transform="translate(0,350)" s:x="0" s:y="10" s:pid="in0">
      <text x="-3" y="-4" class="inputPortLabel">28</text>
    </g>
    <g transform="translate(0,370)" s:x="0" s:y="10" s:pid="in0">
      <text x="-3" y="-4" class="inputPortLabel">29</text>
    </g>
    <g transform="translate(0,390)" s:x="0" s:y="10" s:pid="in0">
      <text x="-3" y="-4" class="inputPortLabel">30</text>
    </g>
    <g transform="translate(0,410)" s:x="0" s:y="10" s:pid="in0">
      <text x="-3" y="-4" class="inputPortLabel">31</text>
    </g>
    <g transform="translate(0,430)" s:x="0" s:y="10" s:pid="in0">
      <text x="-3" y="-4" class="inputPortLabel">32:36</text>
    </g>
    <g transform="translate(0,450)" s:x="0" s:y="10" s:pid="in0">
      <text x="-3" y="-4" class="inputPortLabel">37:43</text>
    </g>
    <g transform="translate(0,470)" s:x="0" s:y="10" s:pid="in0">
      <text x="-3" y="-4" class="inputPortLabel">44</text>
    </g>
    <g transform="translate(0,490)" s:x="0" s:y="10" s:pid="in0">
      <text x="-3" y="-4" class="inputPortLabel">45</text>
    </g>
    <g transform="translate(0,510)" s:x="0" s:y="10" s:pid="in0">
      <text x="-3" y="-4" class="inputPortLabel">46</text>
    </g>
    <g transform="translate(0,530)" s:x="0" s:y="10" s:pid="in0">
      <text x="-3" y="-4" class="inputPortLabel">47</text>
    </g>
    <g transform="translate(0,550)" s:x="0" s:y="10" s:pid="in0">
      <text x="-3" y="-4" class="inputPortLabel">48</text>
    </g>
    <g transform="translate(0,570)" s:x="0" s:y="10" s:pid="in0">
      <text x="-3" y="-4" class="inputPortLabel">49</text>
    </g>
    <g transform="translate(0,590)" s:x="0" s:y="10" s:pid="in0">
      <text x="-3" y="-4" class="inputPortLabel">50</text>
    </g>
    <g transform="translate(0,610)" s:x="0" s:y="10" s:pid="in0">
      <text x="-3" y="-4" class="inputPortLabel">51</text>
    </g>
    <g transform="translate(0,630)" s:x="0" s:y="10" s:pid="in0">
      <text x="-3" y="-4" class="inputPortLabel">52</text>
    </g>
    <g transform="translate(0,650)" s:x="0" s:y="10" s:pid="in0">
      <text x="-3" y="-4" class="inputPortLabel">53</text>
    </g>
    <g transform="translate(0,670)" s:x="0" s:y="10" s:pid="in0">
      <text x="-3" y="-4" class="inputPortLabel">54</text>
    </g>
    <g transform="translate(0,690)" s:x="0" s:y="10" s:pid="in0">
      <text x="-3" y="-4" class="inputPortLabel">55</text>
    </g>
    <g transform="translate(0,710)" s:x="0" s:y="10" s:pid="in0">
      <text x="-3" y="-4" class="inputPortLabel">56</text>
    </g>
    <g transform="translate(0,730)" s:x="0" s:y="10" s:pid="in0">
      <text x="-3" y="-4" class="inputPortLabel">57</text>
    </g>
    <g transform="translate(0,750)" s:x="0" s:y="10" s:pid="in0">
      <text x="-3" y="-4" class="inputPortLabel">58</text>
    </g>
    <g transform="translate(0,770)" s:x="0" s:y="10" s:pid="in0">
      <text x="-3" y="-4" class="inputPortLabel">59</text>
    </g>
    <g transform="translate(0,790)" s:x="0" s:y="10" s:pid="in0">
      <text x="-3" y="-4" class="inputPortLabel">60</text>
    </g>
    <g transform="translate(0,810)" s:x="0" s:y="10" s:pid="in0">
      <text x="-3" y="-4" class="inputPortLabel">61</text>
    </g>
    <g transform="translate(0,830)" s:x="0" s:y="10" s:pid="in0">
      <text x="-3" y="-4" class="inputPortLabel">62</text>
    </g>
    <g transform="translate(0,850)" s:x="0" s:y="10" s:pid="in0">
      <text x="-3" y="-4" class="inputPortLabel">63</text>
    </g>
    <g transform="translate(0,870)" s:x="0" s:y="10" s:pid="in0">
      <text x="-3" y="-4" class="inputPortLabel">64</text>
    </g>
    <g transform="translate(0,890)" s:x="0" s:y="10" s:pid="in0">
      <text x="-3" y="-4" class="inputPortLabel">65:68</text>
    </g>
    <g transform="translate(0,910)" s:x="0" s:y="10" s:pid="in0">
      <text x="-3" y="-4" class="inputPortLabel">69:74</text>
    </g>
    <g transform="translate(0,930)" s:x="0" s:y="10" s:pid="in0">
      <text x="-3" y="-4" class="inputPortLabel">75</text>
    </g>
    <g transform="translate(0,950)" s:x="0" s:y="10" s:pid="in0">
      <text x="-3" y="-4" class="inputPortLabel">76</text>
    </g>
    <g transform="translate(0,970)" s:x="0" s:y="10" s:pid="in0">
      <text x="-3" y="-4" class="inputPortLabel">77</text>
    </g>
    <g transform="translate(0,990)" s:x="0" s:y="10" s:pid="in0">
      <text x="-3" y="-4" class="inputPortLabel">78</text>
    </g>
    <g transform="translate(0,1010)" s:x="0" s:y="10" s:pid="in0">
      <text x="-3" y="-4" class="inputPortLabel">79</text>
    </g>
    <g transform="translate(0,1030)" s:x="0" s:y="10" s:pid="in0">
      <text x="-3" y="-4" class="inputPortLabel">80</text>
    </g>
    <g transform="translate(0,1050)" s:x="0" s:y="10" s:pid="in0">
      <text x="-3" y="-4" class="inputPortLabel">81</text>
    </g>
    <g transform="translate(0,1070)" s:x="0" s:y="10" s:pid="in0">
      <text x="-3" y="-4" class="inputPortLabel">82</text>
    </g>
    <g transform="translate(0,1090)" s:x="0" s:y="10" s:pid="in0">
      <text x="-3" y="-4" class="inputPortLabel">83</text>
    </g>
    <g transform="translate(0,1110)" s:x="0" s:y="10" s:pid="in0">
      <text x="-3" y="-4" class="inputPortLabel">84</text>
    </g>
    <g transform="translate(0,1130)" s:x="0" s:y="10" s:pid="in0">
      <text x="-3" y="-4" class="inputPortLabel">85</text>
    </g>
    <g transform="translate(0,1150)" s:x="0" s:y="10" s:pid="in0">
      <text x="-3" y="-4" class="inputPortLabel">86</text>
    </g>
    <g transform="translate(0,1170)" s:x="0" s:y="10" s:pid="in0">
      <text x="-3" y="-4" class="inputPortLabel">87</text>
    </g>
    <g transform="translate(0,1190)" s:x="0" s:y="10" s:pid="in0">
      <text x="-3" y="-4" class="inputPortLabel">88</text>
    </g>
    <g transform="translate(0,1210)" s:x="0" s:y="10" s:pid="in0">
      <text x="-3" y="-4" class="inputPortLabel">89</text>
    </g>
    <g transform="translate(0,1230)" s:x="0" s:y="10" s:pid="in0">
      <text x="-3" y="-4" class="inputPortLabel">90</text>
    </g>
    <g transform="translate(0,1250)" s:x="0" s:y="10" s:pid="in0">
      <text x="-3" y="-4" class="inputPortLabel">91</text>
    </g>
    <g transform="translate(0,1270)" s:x="0" s:y="10" s:pid="in0">
      <text x="-3" y="-4" class="inputPortLabel">92</text>
    </g>
    <g transform="translate(0,1290)" s:x="0" s:y="10" s:pid="in0">
      <text x="-3" y="-4" class="inputPortLabel">93</text>
    </g>
    <g transform="translate(0,1310)" s:x="0" s:y="10" s:pid="in0">
      <text x="-3" y="-4" class="inputPortLabel">94</text>
    </g>
    <g transform="translate(0,1330)" s:x="0" s:y="10" s:pid="in0">
      <text x="-3" y="-4" class="inputPortLabel">95</text>
    </g>
    <g transform="translate(0,1350)" s:x="0" s:y="10" s:pid="in0">
      <text x="-3" y="-4" class="inputPortLabel">96:107</text>
    </g>
    <g transform="translate(0,1370)" s:x="0" s:y="10" s:pid="in0">
      <text x="-3" y="-4" class="inputPortLabel">108:127</text>
    </g>
    <g transform="translate(0,1390)" s:x="0" s:y="10" s:pid="in0">
      <text x="-3" y="-4" class="inputPortLabel">128</text>
    </g>
    <g transform="translate(0,1410)" s:x="0" s:y="10" s:pid="in0">
      <text x="-3" y="-4" class="inputPortLabel">129:138</text>
    </g>
    <g transform="translate(0,1430)" s:x="0" s:y="10" s:pid="in0">
      <text x="-3" y="-4" class="inputPortLabel">139</text>
    </g>
    <g transform="translate(0,1450)" s:x="0" s:y="10" s:pid="in0">
      <text x="-3" y="-4" class="inputPortLabel">140:147</text>
    </g>
    <g transform="translate(0,1470)" s:x="0" s:y="10" s:pid="in0">
      <text x="-3" y="-4" class="inputPortLabel">148</text>
    </g>
    <g transform="translate(0,1490)" s:x="0" s:y="10" s:pid="in0">
      <text x="-3" y="-4" class="inputPortLabel">149</text>
    </g>
    <g transform="translate(0,1510)" s:x="0" s:y="10" s:pid="in0">
      <text x="-3" y="-4" class="inputPortLabel">150</text>
    </g>
    <g transform="translate(0,1530)" s:x="0" s:y="10" s:pid="in0">
      <text x="-3" y="-4" class="inputPortLabel">151</text>
    </g>
    <g transform="translate(0,1550)" s:x="0" s:y="10" s:pid="in0">
      <text x="-3" y="-4" class="inputPortLabel">152</text>
    </g>
    <g transform="translate(0,1570)" s:x="0" s:y="10" s:pid="in0">
      <text x="-3" y="-4" class="inputPortLabel">153</text>
    </g>
    <g transform="translate(0,1590)" s:x="0" s:y="10" s:pid="in0">
      <text x="-3" y="-4" class="inputPortLabel">154</text>
    </g>
    <g transform="translate(0,1610)" s:x="0" s:y="10" s:pid="in0">
      <text x="-3" y="-4" class="inputPortLabel">155</text>
    </g>
    <g transform="translate(0,1630)" s:x="0" s:y="10" s:pid="in0">
      <text x="-3" y="-4" class="inputPortLabel">156</text>
    </g>
    <g transform="translate(0,1650)" s:x="0" s:y="10" s:pid="in0">
      <text x="-3" y="-4" class="inputPortLabel">157</text>
    </g>
    <g transform="translate(0,1670)" s:x="0" s:y="10" s:pid="in0">
      <text x="-3" y="-4" class="inputPortLabel">158</text>
    </g>
    <g transform="translate(0,1690)" s:x="0" s:y="10" s:pid="in0">
      <text x="-3" y="-4" class="inputPortLabel">159</text>
    </g>
  </g>
  <g s:type="join" transform="translate(235.5,2093.5)" s:width="4" s:height="40" id="cell_$join$,73,69,70,71,72,">
    <rect width="5" height="100" class="splitjoinBody" s:generic="body"/>
    <s:alias val="$_join_"/>
    <g s:x="5" s:y="20" s:pid="out"/>
    <g transform="translate(0,10)" s:x="0" s:y="10" s:pid="in0">
      <text x="-3" y="-4" class="inputPortLabel">0</text>
    </g>
    <g transform="translate(0,30)" s:x="0" s:y="10" s:pid="in0">
      <text x="-3" y="-4" class="inputPortLabel">1</text>
    </g>
    <g transform="translate(0,50)" s:x="0" s:y="10" s:pid="in0">
      <text x="-3" y="-4" class="inputPortLabel">2</text>
    </g>
    <g transform="translate(0,70)" s:x="0" s:y="10" s:pid="in0">
      <text x="-3" y="-4" class="inputPortLabel">3</text>
    </g>
    <g transform="translate(0,90)" s:x="0" s:y="10" s:pid="in0">
      <text x="-3" y="-4" class="inputPortLabel">4</text>
    </g>
  </g>
  <g s:type="split" transform="translate(104,74)" s:width="5" s:height="40" id="cell_$split$,2,3,4,5,6,7,8,9,10,11,12,13,14,15,16,17,18,19,20,21,22,23,24,25,26,27,28,29,30,31,32,33,">
    <rect width="5" height="220" class="splitjoinBody" s:generic="body"/>
    <s:alias val="$_split_"/>
    <g s:x="0" s:y="20" s:pid="in"/>
    <g transform="translate(4,10)" s:x="4" s:y="10" s:pid="out0">
      <text x="5" y="-4">20:31</text>
    </g>
    <g transform="translate(4,30)" s:x="4" s:y="10" s:pid="out0">
      <text x="5" y="-4">31</text>
    </g>
    <g transform="translate(4,50)" s:x="4" s:y="10" s:pid="out0">
      <text x="5" y="-4">7:11</text>
    </g>
    <g transform="translate(4,70)" s:x="4" s:y="10" s:pid="out0">
      <text x="5" y="-4">25:31</text>
    </g>
    <g transform="translate(4,90)" s:x="4" s:y="10" s:pid="out0">
      <text x="5" y="-4">8:11</text>
    </g>
    <g transform="translate(4,110)" s:x="4" s:y="10" s:pid="out0">
      <text x="5" y="-4">25:30</text>
    </g>
    <g transform="translate(4,130)" s:x="4" s:y="10" s:pid="out0">
      <text x="5" y="-4">7</text>
    </g>
    <g transform="translate(4,150)" s:x="4" s:y="10" s:pid="out0">
      <text x="5" y="-4">12:31</text>
    </g>
    <g transform="translate(4,170)" s:x="4" s:y="10" s:pid="out0">
      <text x="5" y="-4">21:30</text>
    </g>
    <g transform="translate(4,190)" s:x="4" s:y="10" s:pid="out0">
      <text x="5" y="-4">20</text>
    </g>
    <g transform="translate(4,210)" s:x="4" s:y="10" s:pid="out0">
      <text x="5" y="-4">12:19</text>
    </g>
  </g>
  <line x1="40" x2="52" y1="2026.5" y2="2026.5" class="net_34,35,36"/>
  <line x1="52" x2="52" y1="2026.5" y2="2076.5" class="net_34,35,36"/>
  <circle cx="52" cy="2026.5" r="2" style="fill:#000" class="net_34,35,36"/>
  <circle cx="52" cy="2076.5" r="2" style="fill:#000" class="net_34,35,36"/>
  <line x1="52" x2="87" y1="2076.5" y2="2076.5" class="net_34,35,36"/>
  <line x1="40" x2="52" y1="2026.5" y2="2026.5" class="net_34,35,36"/>
  <line x1="52" x2="52" y1="2026.5" y2="2136.5" class="net_34,35,36"/>
  <circle cx="52" cy="2136.5" r="2" style="fill:#000" class="net_34,35,36"/>
  <line x1="52" x2="87" y1="2136.5" y2="2136.5" class="net_34,35,36"/>
  <line x1="40" x2="52" y1="2026.5" y2="2026.5" class="net_34,35,36"/>
  <line x1="52" x2="52" y1="2026.5" y2="2201.5" class="net_34,35,36"/>
  <circle cx="52" cy="2201.5" r="2" style="fill:#000" class="net_34,35,36"/>
  <line x1="52" x2="87" y1="2201.5" y2="2201.5" class="net_34,35,36"/>
  <line x1="40" x2="52" y1="2026.5" y2="2026.5" class="net_34,35,36"/>
  <line x1="52" x2="52" y1="2026.5" y2="2266.5" class="net_34,35,36"/>
  <line x1="52" x2="87" y1="2266.5" y2="2266.5" class="net_34,35,36"/>
  <line x1="40" x2="78" y1="2026.5" y2="2026.5" class="net_34,35,36"/>
  <line x1="42" x2="62" y1="127" y2="127" class="net_74"/>
  <line x1="62" x2="62" y1="127" y2="2091.5" class="net_74"/>
  <line x1="62" x2="87" y1="2091.5" y2="2091.5" class="net_74"/>
  <line x1="42" x2="87" y1="2151.5" y2="2151.5" class="net_75,76"/>
  <line x1="42" x2="87" y1="2216.5" y2="2216.5" class="net_77,78"/>
  <line x1="42" x2="87" y1="2281.5" y2="2281.5" class="net_79,80,81"/>
  <line x1="259" x2="294" y1="32" y2="32" class="net_82,83,84,85,86,87,88,89,90,91,92,93,94,95,96,97,98,99,100,101,102,103,104,105,106,107,108,109,110,111,112,113"/>
  <line x1="235.40625" x2="269" y1="227" y2="227" class="net_22,23,24,25,26,27,28,29,30,31,32,33,33,33,33,33,33,33,33,33,33,33,33,33,33,33,33,33,33,33,33,33,9,10,11,12,13,27,28,29,30,31,32,33,33,33,33,33,33,33,33,33,33,33,33,33,33,33,33,33,33,33,33,33,114,10,11,12,13,27,28,29,30,31,32,9,33,33,33,33,33,33,33,33,33,33,33,33,33,33,33,33,33,33,33,33,115,116,117,118,119,120,121,122,123,124,125,126,14,15,16,17,18,19,20,21,22,23,24,25,26,27,28,29,30,31,32,33,114,23,24,25,26,27,28,29,30,31,32,22,14,15,16,17,18,19,20,21,33,33,33,33,33,33,33,33,33,33,33,33"/>
  <line x1="269" x2="269" y1="227" y2="52" class="net_22,23,24,25,26,27,28,29,30,31,32,33,33,33,33,33,33,33,33,33,33,33,33,33,33,33,33,33,33,33,33,33,9,10,11,12,13,27,28,29,30,31,32,33,33,33,33,33,33,33,33,33,33,33,33,33,33,33,33,33,33,33,33,33,114,10,11,12,13,27,28,29,30,31,32,9,33,33,33,33,33,33,33,33,33,33,33,33,33,33,33,33,33,33,33,33,115,116,117,118,119,120,121,122,123,124,125,126,14,15,16,17,18,19,20,21,22,23,24,25,26,27,28,29,30,31,32,33,114,23,24,25,26,27,28,29,30,31,32,22,14,15,16,17,18,19,20,21,33,33,33,33,33,33,33,33,33,33,33,33"/>
  <line x1="269" x2="294" y1="52" y2="52" class="net_22,23,24,25,26,27,28,29,30,31,32,33,33,33,33,33,33,33,33,33,33,33,33,33,33,33,33,33,33,33,33,33,9,10,11,12,13,27,28,29,30,31,32,33,33,33,33,33,33,33,33,33,33,33,33,33,33,33,33,33,33,33,33,33,114,10,11,12,13,27,28,29,30,31,32,9,33,33,33,33,33,33,33,33,33,33,33,33,33,33,33,33,33,33,33,33,115,116,117,118,119,120,121,122,123,124,125,126,14,15,16,17,18,19,20,21,22,23,24,25,26,27,28,29,30,31,32,33,114,23,24,25,26,27,28,29,30,31,32,22,14,15,16,17,18,19,20,21,33,33,33,33,33,33,33,33,33,33,33,33"/>
  <line x1="241.5" x2="304" y1="2114" y2="2114" class="net_73,69,70,71,72"/>
  <line x1="304" x2="304" y1="2114" y2="57" class="net_73,69,70,71,72"/>
  <line x1="314" x2="349" y1="42" y2="42" class="net_37,38,39,40,41,42,43,44,45,46,47,48,49,50,51,52,53,54,55,56,57,58,59,60,61,62,63,64,65,66,67,68"/>
  <line x1="108.5" x2="108.5" y1="84" y2="52" class="net_22,23,24,25,26,27,28,29,30,31,32,33"/>
  <line x1="108.5" x2="229.90625" y1="52" y2="52" class="net_22,23,24,25,26,27,28,29,30,31,32,33"/>
  <line x1="229.90625" x2="229.90625" y1="52" y2="216.5" class="net_22,23,24,25,26,27,28,29,30,31,32,33"/>
  <line x1="109" x2="219" y1="104.5" y2="104.5" class="net_33"/>
  <line x1="219" x2="219" y1="104.5" y2="194.5" class="net_33"/>
  <line x1="219" x2="229.90625" y1="194.5" y2="194.5" class="net_33"/>
  <circle cx="219" cy="104.5" r="2" style="fill:#000" class="net_33"/>
  <circle cx="219" cy="194.5" r="2" style="fill:#000" class="net_33"/>
  <line x1="229.90625" x2="229.90625" y1="194.5" y2="236.5" class="net_33"/>
  <line x1="109" x2="219" y1="104.5" y2="104.5" class="net_33"/>
  <line x1="219" x2="219" y1="104.5" y2="184.5" class="net_33"/>
  <line x1="219" x2="229.90625" y1="184.5" y2="184.5" class="net_33"/>
  <circle cx="219" cy="184.5" r="2" style="fill:#000" class="net_33"/>
  <line x1="229.90625" x2="229.90625" y1="184.5" y2="256.5" class="net_33"/>
  <line x1="109" x2="219" y1="104.5" y2="104.5" class="net_33"/>
  <line x1="219" x2="219" y1="104.5" y2="174.5" class="net_33"/>
  <line x1="219" x2="229.90625" y1="174.5" y2="174.5" class="net_33"/>
  <circle cx="219" cy="174.5" r="2" style="fill:#000" class="net_33"/>
  <line x1="229.90625" x2="229.90625" y1="174.5" y2="276.5" class="net_33"/>
  <line x1="109" x2="219" y1="104.5" y2="104.5" class="net_33"/>
  <line x1="219" x2="219" y1="104.5" y2="164.5" class="net_33"/>
  <line x1="219" x2="229.90625" y1="164.5" y2="164.5" class="net_33"/>
  <circle cx="219" cy="164.5" r="2" style="fill:#000" class="net_33"/>
  <line x1="229.90625" x2="229.90625" y1="164.5" y2="296.5" class="net_33"/>
  <line x1="109" x2="219" y1="104.5" y2="104.5" class="net_33"/>
  <line x1="219" x2="219" y1="104.5" y2="154.5" class="net_33"/>
  <line x1="219" x2="229.90625" y1="154.5" y2="154.5" class="net_33"/>
  <circle cx="219" cy="154.5" r="2" style="fill:#000" class="net_33"/>
  <line x1="229.90625" x2="229.90625" y1="154.5" y2="316.5" class="net_33"/>
  <line x1="109" x2="219" y1="104.5" y2="104.5" class="net_33"/>
  <line x1="219" x2="219" y1="104.5" y2="144.5" class="net_33"/>
  <line x1="219" x2="229.90625" y1="144.5" y2="144.5" class="net_33"/>
  <circle cx="219" cy="144.5" r="2" style="fill:#000" class="net_33"/>
  <line x1="229.90625" x2="229.90625" y1="144.5" y2="336.5" class="net_33"/>
  <line x1="109" x2="219" y1="104.5" y2="104.5" class="net_33"/>
  <line x1="219" x2="219" y1="104.5" y2="134.5" class="net_33"/>
  <line x1="219" x2="229.90625" y1="134.5" y2="134.5" class="net_33"/>
  <circle cx="219" cy="134.5" r="2" style="fill:#000" class="net_33"/>
  <line x1="229.90625" x2="229.90625" y1="134.5" y2="356.5" class="net_33"/>
  <line x1="109" x2="219" y1="104.5" y2="104.5" class="net_33"/>
  <line x1="219" x2="219" y1="104.5" y2="124.5" class="net_33"/>
  <line x1="219" x2="229.90625" y1="124.5" y2="124.5" class="net_33"/>
  <circle cx="219" cy="124.5" r="2" style="fill:#000" class="net_33"/>
  <line x1="229.90625" x2="229.90625" y1="124.5" y2="376.5" class="net_33"/>
  <line x1="109" x2="219" y1="104.5" y2="104.5" class="net_33"/>
  <line x1="219" x2="219" y1="104.5" y2="114.5" class="net_33"/>
  <line x1="219" x2="229.90625" y1="114.5" y2="114.5" class="net_33"/>
  <circle cx="219" cy="114.5" r="2" style="fill:#000" class="net_33"/>
  <line x1="229.90625" x2="229.90625" y1="114.5" y2="396.5" class="net_33"/>
  <line x1="109" x2="229.90625" y1="104.5" y2="104.5" class="net_33"/>
  <line x1="229.90625" x2="229.90625" y1="104.5" y2="416.5" class="net_33"/>
  <line x1="109" x2="219" y1="104.5" y2="104.5" class="net_33"/>
  <line x1="219" x2="219" y1="104.5" y2="437" class="net_33"/>
  <circle cx="219" cy="437" r="2" style="fill:#000" class="net_33"/>
  <line x1="219" x2="229.40625" y1="437" y2="437" class="net_33"/>
  <line x1="109" x2="219" y1="104.5" y2="104.5" class="net_33"/>
  <line x1="219" x2="219" y1="104.5" y2="457" class="net_33"/>
  <circle cx="219" cy="457" r="2" style="fill:#000" class="net_33"/>
  <line x1="219" x2="229.40625" y1="457" y2="457" class="net_33"/>
  <line x1="109" x2="219" y1="104.5" y2="104.5" class="net_33"/>
  <line x1="219" x2="219" y1="104.5" y2="477" class="net_33"/>
  <circle cx="219" cy="477" r="2" style="fill:#000" class="net_33"/>
  <line x1="219" x2="229.40625" y1="477" y2="477" class="net_33"/>
  <line x1="109" x2="219" y1="104.5" y2="104.5" class="net_33"/>
  <line x1="219" x2="219" y1="104.5" y2="497" class="net_33"/>
  <circle cx="219" cy="497" r="2" style="fill:#000" class="net_33"/>
  <line x1="219" x2="229.40625" y1="497" y2="497" class="net_33"/>
  <line x1="109" x2="219" y1="104.5" y2="104.5" class="net_33"/>
  <line x1="219" x2="219" y1="104.5" y2="517" class="net_33"/>
  <circle cx="219" cy="517" r="2" style="fill:#000" class="net_33"/>
  <line x1="219" x2="229.40625" y1="517" y2="517" class="net_33"/>
  <line x1="109" x2="219" y1="104.5" y2="104.5" class="net_33"/>
  <line x1="219" x2="219" y1="104.5" y2="537" class="net_33"/>
  <circle cx="219" cy="537" r="2" style="fill:#000" class="net_33"/>
  <line x1="219" x2="229.40625" y1="537" y2="537" class="net_33"/>
  <line x1="109" x2="219" y1="104.5" y2="104.5" class="net_33"/>
  <line x1="219" x2="219" y1="104.5" y2="557" class="net_33"/>
  <circle cx="219" cy="557" r="2" style="fill:#000" class="net_33"/>
  <line x1="219" x2="229.40625" y1="557" y2="557" class="net_33"/>
  <line x1="109" x2="219" y1="104.5" y2="104.5" class="net_33"/>
  <line x1="219" x2="219" y1="104.5" y2="577" class="net_33"/>
  <circle cx="219" cy="577" r="2" style="fill:#000" class="net_33"/>
  <line x1="219" x2="229.40625" y1="577" y2="577" class="net_33"/>
  <line x1="109" x2="219" y1="104.5" y2="104.5" class="net_33"/>
  <line x1="219" x2="219" y1="104.5" y2="597" class="net_33"/>
  <circle cx="219" cy="597" r="2" style="fill:#000" class="net_33"/>
  <line x1="219" x2="229.40625" y1="597" y2="597" class="net_33"/>
  <line x1="109" x2="219" y1="104.5" y2="104.5" class="net_33"/>
  <line x1="219" x2="219" y1="104.5" y2="617" class="net_33"/>
  <circle cx="219" cy="617" r="2" style="fill:#000" class="net_33"/>
  <line x1="219" x2="229.40625" y1="617" y2="617" class="net_33"/>
  <line x1="109" x2="219" y1="104.5" y2="104.5" class="net_33"/>
  <line x1="219" x2="219" y1="104.5" y2="677" class="net_33"/>
  <circle cx="219" cy="677" r="2" style="fill:#000" class="net_33"/>
  <line x1="219" x2="229.40625" y1="677" y2="677" class="net_33"/>
  <line x1="109" x2="219" y1="104.5" y2="104.5" class="net_33"/>
  <line x1="219" x2="219" y1="104.5" y2="697" class="net_33"/>
  <circle cx="219" cy="697" r="2" style="fill:#000" class="net_33"/>
  <line x1="219" x2="229.40625" y1="697" y2="697" class="net_33"/>
  <line x1="109" x2="219" y1="104.5" y2="104.5" class="net_33"/>
  <line x1="219" x2="219" y1="104.5" y2="717" class="net_33"/>
  <circle cx="219" cy="717" r="2" style="fill:#000" class="net_33"/>
  <line x1="219" x2="229.40625" y1="717" y2="717" class="net_33"/>
  <line x1="109" x2="219" y1="104.5" y2="104.5" class="net_33"/>
  <line x1="219" x2="219" y1="104.5" y2="737" class="net_33"/>
  <circle cx="219" cy="737" r="2" style="fill:#000" class="net_33"/>
  <line x1="219" x2="229.40625" y1="737" y2="737" class="net_33"/>
  <line x1="109" x2="219" y1="104.5" y2="104.5" class="net_33"/>
  <line x1="219" x2="219" y1="104.5" y2="757" class="net_33"/>
  <circle cx="219" cy="757" r="2" style="fill:#000" class="net_33"/>
  <line x1="219" x2="229.40625" y1="757" y2="757" class="net_33"/>
  <line x1="109" x2="219" y1="104.5" y2="104.5" class="net_33"/>
  <line x1="219" x2="219" y1="104.5" y2="777" class="net_33"/>
  <circle cx="219" cy="777" r="2" style="fill:#000" class="net_33"/>
  <line x1="219" x2="229.40625" y1="777" y2="777" class="net_33"/>
  <line x1="109" x2="219" y1="104.5" y2="104.5" class="net_33"/>
  <line x1="219" x2="219" y1="104.5" y2="797" class="net_33"/>
  <circle cx="219" cy="797" r="2" style="fill:#000" class="net_33"/>
  <line x1="219" x2="229.40625" y1="797" y2="797" class="net_33"/>
  <line x1="109" x2="219" y1="104.5" y2="104.5" class="net_33"/>
  <line x1="219" x2="219" y1="104.5" y2="817" class="net_33"/>
  <circle cx="219" cy="817" r="2" style="fill:#000" class="net_33"/>
  <line x1="219" x2="229.40625" y1="817" y2="817" class="net_33"/>
  <line x1="109" x2="219" y1="104.5" y2="104.5" class="net_33"/>
  <line x1="219" x2="219" y1="104.5" y2="837" class="net_33"/>
  <circle cx="219" cy="837" r="2" style="fill:#000" class="net_33"/>
  <line x1="219" x2="229.40625" y1="837" y2="837" class="net_33"/>
  <line x1="109" x2="219" y1="104.5" y2="104.5" class="net_33"/>
  <line x1="219" x2="219" y1="104.5" y2="857" class="net_33"/>
  <circle cx="219" cy="857" r="2" style="fill:#000" class="net_33"/>
  <line x1="219" x2="229.40625" y1="857" y2="857" class="net_33"/>
  <line x1="109" x2="219" y1="104.5" y2="104.5" class="net_33"/>
  <line x1="219" x2="219" y1="104.5" y2="877" class="net_33"/>
  <circle cx="219" cy="877" r="2" style="fill:#000" class="net_33"/>
  <line x1="219" x2="229.40625" y1="877" y2="877" class="net_33"/>
  <line x1="109" x2="219" y1="104.5" y2="104.5" class="net_33"/>
  <line x1="219" x2="219" y1="104.5" y2="897" class="net_33"/>
  <circle cx="219" cy="897" r="2" style="fill:#000" class="net_33"/>
  <line x1="219" x2="229.40625" y1="897" y2="897" class="net_33"/>
  <line x1="109" x2="219" y1="104.5" y2="104.5" class="net_33"/>
  <line x1="219" x2="219" y1="104.5" y2="917" class="net_33"/>
  <circle cx="219" cy="917" r="2" style="fill:#000" class="net_33"/>
  <line x1="219" x2="229.40625" y1="917" y2="917" class="net_33"/>
  <line x1="109" x2="219" y1="104.5" y2="104.5" class="net_33"/>
  <line x1="219" x2="219" y1="104.5" y2="937" class="net_33"/>
  <circle cx="219" cy="937" r="2" style="fill:#000" class="net_33"/>
  <line x1="219" x2="229.40625" y1="937" y2="937" class="net_33"/>
  <line x1="109" x2="219" y1="104.5" y2="104.5" class="net_33"/>
  <line x1="219" x2="219" y1="104.5" y2="957" class="net_33"/>
  <circle cx="219" cy="957" r="2" style="fill:#000" class="net_33"/>
  <line x1="219" x2="229.40625" y1="957" y2="957" class="net_33"/>
  <line x1="109" x2="219" y1="104.5" y2="104.5" class="net_33"/>
  <line x1="219" x2="219" y1="104.5" y2="977" class="net_33"/>
  <circle cx="219" cy="977" r="2" style="fill:#000" class="net_33"/>
  <line x1="219" x2="229.40625" y1="977" y2="977" class="net_33"/>
  <line x1="109" x2="219" y1="104.5" y2="104.5" class="net_33"/>
  <line x1="219" x2="219" y1="104.5" y2="997" class="net_33"/>
  <circle cx="219" cy="997" r="2" style="fill:#000" class="net_33"/>
  <line x1="219" x2="229.40625" y1="997" y2="997" class="net_33"/>
  <line x1="109" x2="219" y1="104.5" y2="104.5" class="net_33"/>
  <line x1="219" x2="219" y1="104.5" y2="1017" class="net_33"/>
  <circle cx="219" cy="1017" r="2" style="fill:#000" class="net_33"/>
  <line x1="219" x2="229.40625" y1="1017" y2="1017" class="net_33"/>
  <line x1="109" x2="219" y1="104.5" y2="104.5" class="net_33"/>
  <line x1="219" x2="219" y1="104.5" y2="1037" class="net_33"/>
  <circle cx="219" cy="1037" r="2" style="fill:#000" class="net_33"/>
  <line x1="219" x2="229.40625" y1="1037" y2="1037" class="net_33"/>
  <line x1="109" x2="219" y1="104.5" y2="104.5" class="net_33"/>
  <line x1="219" x2="219" y1="104.5" y2="1057" class="net_33"/>
  <circle cx="219" cy="1057" r="2" style="fill:#000" class="net_33"/>
  <line x1="219" x2="229.40625" y1="1057" y2="1057" class="net_33"/>
  <line x1="109" x2="219" y1="104.5" y2="104.5" class="net_33"/>
  <line x1="219" x2="219" y1="104.5" y2="1157" class="net_33"/>
  <circle cx="219" cy="1157" r="2" style="fill:#000" class="net_33"/>
  <line x1="219" x2="229.40625" y1="1157" y2="1157" class="net_33"/>
  <line x1="109" x2="219" y1="104.5" y2="104.5" class="net_33"/>
  <line x1="219" x2="219" y1="104.5" y2="1177" class="net_33"/>
  <circle cx="219" cy="1177" r="2" style="fill:#000" class="net_33"/>
  <line x1="219" x2="229.40625" y1="1177" y2="1177" class="net_33"/>
  <line x1="109" x2="219" y1="104.5" y2="104.5" class="net_33"/>
  <line x1="219" x2="219" y1="104.5" y2="1197" class="net_33"/>
  <circle cx="219" cy="1197" r="2" style="fill:#000" class="net_33"/>
  <line x1="219" x2="229.40625" y1="1197" y2="1197" class="net_33"/>
  <line x1="109" x2="219" y1="104.5" y2="104.5" class="net_33"/>
  <line x1="219" x2="219" y1="104.5" y2="1217" class="net_33"/>
  <circle cx="219" cy="1217" r="2" style="fill:#000" class="net_33"/>
  <line x1="219" x2="229.40625" y1="1217" y2="1217" class="net_33"/>
  <line x1="109" x2="219" y1="104.5" y2="104.5" class="net_33"/>
  <line x1="219" x2="219" y1="104.5" y2="1237" class="net_33"/>
  <circle cx="219" cy="1237" r="2" style="fill:#000" class="net_33"/>
  <line x1="219" x2="229.40625" y1="1237" y2="1237" class="net_33"/>
  <line x1="109" x2="219" y1="104.5" y2="104.5" class="net_33"/>
  <line x1="219" x2="219" y1="104.5" y2="1257" class="net_33"/>
  <circle cx="219" cy="1257" r="2" style="fill:#000" class="net_33"/>
  <line x1="219" x2="229.40625" y1="1257" y2="1257" class="net_33"/>
  <line x1="109" x2="219" y1="104.5" y2="104.5" class="net_33"/>
  <line x1="219" x2="219" y1="104.5" y2="1277" class="net_33"/>
  <circle cx="219" cy="1277" r="2" style="fill:#000" class="net_33"/>
  <line x1="219" x2="229.40625" y1="1277" y2="1277" class="net_33"/>
  <line x1="109" x2="219" y1="104.5" y2="104.5" class="net_33"/>
  <line x1="219" x2="219" y1="104.5" y2="1297" class="net_33"/>
  <circle cx="219" cy="1297" r="2" style="fill:#000" class="net_33"/>
  <line x1="219" x2="229.40625" y1="1297" y2="1297" class="net_33"/>
  <line x1="109" x2="219" y1="104.5" y2="104.5" class="net_33"/>
  <line x1="219" x2="219" y1="104.5" y2="1317" class="net_33"/>
  <circle cx="219" cy="1317" r="2" style="fill:#000" class="net_33"/>
  <line x1="219" x2="229.40625" y1="1317" y2="1317" class="net_33"/>
  <line x1="109" x2="219" y1="104.5" y2="104.5" class="net_33"/>
  <line x1="219" x2="219" y1="104.5" y2="1337" class="net_33"/>
  <circle cx="219" cy="1337" r="2" style="fill:#000" class="net_33"/>
  <line x1="219" x2="229.40625" y1="1337" y2="1337" class="net_33"/>
  <line x1="109" x2="219" y1="104.5" y2="104.5" class="net_33"/>
  <line x1="219" x2="219" y1="104.5" y2="1357" class="net_33"/>
  <circle cx="219" cy="1357" r="2" style="fill:#000" class="net_33"/>
  <line x1="219" x2="229.40625" y1="1357" y2="1357" class="net_33"/>
  <line x1="109" x2="219" y1="104.5" y2="104.5" class="net_33"/>
  <line x1="219" x2="219" y1="104.5" y2="1377" class="net_33"/>
  <circle cx="219" cy="1377" r="2" style="fill:#000" class="net_33"/>
  <line x1="219" x2="229.40625" y1="1377" y2="1377" class="net_33"/>
  <line x1="109" x2="219" y1="104.5" y2="104.5" class="net_33"/>
  <line x1="219" x2="219" y1="104.5" y2="1397" class="net_33"/>
  <circle cx="219" cy="1397" r="2" style="fill:#000" class="net_33"/>
  <line x1="219" x2="229.40625" y1="1397" y2="1397" class="net_33"/>
  <line x1="109" x2="219" y1="104.5" y2="104.5" class="net_33"/>
  <line x1="219" x2="219" y1="104.5" y2="1417" class="net_33"/>
  <circle cx="219" cy="1417" r="2" style="fill:#000" class="net_33"/>
  <line x1="219" x2="229.40625" y1="1417" y2="1417" class="net_33"/>
  <line x1="109" x2="219" y1="104.5" y2="104.5" class="net_33"/>
  <line x1="219" x2="219" y1="104.5" y2="1437" class="net_33"/>
  <circle cx="219" cy="1437" r="2" style="fill:#000" class="net_33"/>
  <line x1="219" x2="229.40625" y1="1437" y2="1437" class="net_33"/>
  <line x1="109" x2="219" y1="104.5" y2="104.5" class="net_33"/>
  <line x1="219" x2="219" y1="104.5" y2="1457" class="net_33"/>
  <circle cx="219" cy="1457" r="2" style="fill:#000" class="net_33"/>
  <line x1="219" x2="229.40625" y1="1457" y2="1457" class="net_33"/>
  <line x1="109" x2="219" y1="104.5" y2="104.5" class="net_33"/>
  <line x1="219" x2="219" y1="104.5" y2="1477" class="net_33"/>
  <circle cx="219" cy="1477" r="2" style="fill:#000" class="net_33"/>
  <line x1="219" x2="229.40625" y1="1477" y2="1477" class="net_33"/>
  <line x1="109" x2="219" y1="104.5" y2="104.5" class="net_33"/>
  <line x1="219" x2="219" y1="104.5" y2="1497" class="net_33"/>
  <circle cx="219" cy="1497" r="2" style="fill:#000" class="net_33"/>
  <line x1="219" x2="229.40625" y1="1497" y2="1497" class="net_33"/>
  <line x1="109" x2="219" y1="104.5" y2="104.5" class="net_33"/>
  <line x1="219" x2="219" y1="104.5" y2="1517" class="net_33"/>
  <circle cx="219" cy="1517" r="2" style="fill:#000" class="net_33"/>
  <line x1="219" x2="229.40625" y1="1517" y2="1517" class="net_33"/>
  <line x1="109" x2="219" y1="104.5" y2="104.5" class="net_33"/>
  <line x1="219" x2="219" y1="104.5" y2="1537" class="net_33"/>
  <circle cx="219" cy="1537" r="2" style="fill:#000" class="net_33"/>
  <line x1="219" x2="229.40625" y1="1537" y2="1537" class="net_33"/>
  <line x1="109" x2="219" y1="104.5" y2="104.5" class="net_33"/>
  <line x1="219" x2="219" y1="104.5" y2="1677" class="net_33"/>
  <circle cx="219" cy="1677" r="2" style="fill:#000" class="net_33"/>
  <line x1="219" x2="229.40625" y1="1677" y2="1677" class="net_33"/>
  <line x1="109" x2="219" y1="104.5" y2="104.5" class="net_33"/>
  <line x1="219" x2="219" y1="104.5" y2="2016.5" class="net_33"/>
  <line x1="219" x2="229.90625" y1="2016.5" y2="2016.5" class="net_33"/>
  <line x1="229.90625" x2="229.90625" y1="2016.5" y2="1697.5" class="net_33"/>
  <line x1="109" x2="219" y1="104.5" y2="104.5" class="net_33"/>
  <line x1="219" x2="219" y1="104.5" y2="2006.5" class="net_33"/>
  <line x1="219" x2="229.90625" y1="2006.5" y2="2006.5" class="net_33"/>
  <circle cx="219" cy="2006.5" r="2" style="fill:#000" class="net_33"/>
  <line x1="229.90625" x2="229.90625" y1="2006.5" y2="1717.5" class="net_33"/>
  <line x1="109" x2="219" y1="104.5" y2="104.5" class="net_33"/>
  <line x1="219" x2="219" y1="104.5" y2="1996.5" class="net_33"/>
  <line x1="219" x2="229.90625" y1="1996.5" y2="1996.5" class="net_33"/>
  <circle cx="219" cy="1996.5" r="2" style="fill:#000" class="net_33"/>
  <line x1="229.90625" x2="229.90625" y1="1996.5" y2="1737.5" class="net_33"/>
  <line x1="109" x2="219" y1="104.5" y2="104.5" class="net_33"/>
  <line x1="219" x2="219" y1="104.5" y2="1986.5" class="net_33"/>
  <line x1="219" x2="229.90625" y1="1986.5" y2="1986.5" class="net_33"/>
  <circle cx="219" cy="1986.5" r="2" style="fill:#000" class="net_33"/>
  <line x1="229.90625" x2="229.90625" y1="1986.5" y2="1757.5" class="net_33"/>
  <line x1="109" x2="219" y1="104.5" y2="104.5" class="net_33"/>
  <line x1="219" x2="219" y1="104.5" y2="1976.5" class="net_33"/>
  <line x1="219" x2="229.90625" y1="1976.5" y2="1976.5" class="net_33"/>
  <circle cx="219" cy="1976.5" r="2" style="fill:#000" class="net_33"/>
  <line x1="229.90625" x2="229.90625" y1="1976.5" y2="1777.5" class="net_33"/>
  <line x1="109" x2="219" y1="104.5" y2="104.5" class="net_33"/>
  <line x1="219" x2="219" y1="104.5" y2="1966.5" class="net_33"/>
  <line x1="219" x2="229.90625" y1="1966.5" y2="1966.5" class="net_33"/>
  <circle cx="219" cy="1966.5" r="2" style="fill:#000" class="net_33"/>
  <line x1="229.90625" x2="229.90625" y1="1966.5" y2="1797.5" class="net_33"/>
  <line x1="109" x2="219" y1="104.5" y2="104.5" class="net_33"/>
  <line x1="219" x2="219" y1="104.5" y2="1956.5" class="net_33"/>
  <line x1="219" x2="229.90625" y1="1956.5" y2="1956.5" class="net_33"/>
  <circle cx="219" cy="1956.5" r="2" style="fill:#000" class="net_33"/>
  <line x1="229.90625" x2="229.90625" y1="1956.5" y2="1817.5" class="net_33"/>
  <line x1="109" x2="219" y1="104.5" y2="104.5" class="net_33"/>
  <line x1="219" x2="219" y1="104.5" y2="1946.5" class="net_33"/>
  <line x1="219" x2="229.90625" y1="1946.5" y2="1946.5" class="net_33"/>
  <circle cx="219" cy="1946.5" r="2" style="fill:#000" class="net_33"/>
  <line x1="229.90625" x2="229.90625" y1="1946.5" y2="1837.5" class="net_33"/>
  <line x1="109" x2="219" y1="104.5" y2="104.5" class="net_33"/>
  <line x1="219" x2="219" y1="104.5" y2="1936.5" class="net_33"/>
  <line x1="219" x2="229.90625" y1="1936.5" y2="1936.5" class="net_33"/>
  <circle cx="219" cy="1936.5" r="2" style="fill:#000" class="net_33"/>
  <line x1="229.90625" x2="229.90625" y1="1936.5" y2="1857.5" class="net_33"/>
  <line x1="109" x2="219" y1="104.5" y2="104.5" class="net_33"/>
  <line x1="219" x2="219" y1="104.5" y2="1926.5" class="net_33"/>
  <line x1="219" x2="229.90625" y1="1926.5" y2="1926.5" class="net_33"/>
  <circle cx="219" cy="1926.5" r="2" style="fill:#000" class="net_33"/>
  <line x1="229.90625" x2="229.90625" y1="1926.5" y2="1877.5" class="net_33"/>
  <line x1="109" x2="219" y1="104.5" y2="104.5" class="net_33"/>
  <line x1="219" x2="219" y1="104.5" y2="1916.5" class="net_33"/>
  <line x1="219" x2="229.90625" y1="1916.5" y2="1916.5" class="net_33"/>
  <circle cx="219" cy="1916.5" r="2" style="fill:#000" class="net_33"/>
  <line x1="229.90625" x2="229.90625" y1="1916.5" y2="1897.5" class="net_33"/>
  <line x1="109" x2="209" y1="124.5" y2="124.5" class="net_9,10,11,12,13"/>
  <line x1="209" x2="209" y1="124.5" y2="637" class="net_9,10,11,12,13"/>
  <line x1="209" x2="229.40625" y1="637" y2="637" class="net_9,10,11,12,13"/>
  <line x1="109" x2="199" y1="144.5" y2="144.5" class="net_27,28,29,30,31,32,33"/>
  <line x1="199" x2="199" y1="144.5" y2="657" class="net_27,28,29,30,31,32,33"/>
  <line x1="199" x2="229.40625" y1="657" y2="657" class="net_27,28,29,30,31,32,33"/>
  <line x1="109" x2="229.40625" y1="1077" y2="1077" class="net_114"/>
  <line x1="109" x2="149" y1="1077" y2="1077" class="net_114"/>
  <line x1="149" x2="149" y1="1077" y2="1597" class="net_114"/>
  <circle cx="149" cy="1077" r="2" style="fill:#000" class="net_114"/>
  <line x1="149" x2="229.40625" y1="1597" y2="1597" class="net_114"/>
  <line x1="109" x2="189" y1="164.5" y2="164.5" class="net_10,11,12,13"/>
  <line x1="189" x2="189" y1="164.5" y2="1097" class="net_10,11,12,13"/>
  <line x1="189" x2="229.40625" y1="1097" y2="1097" class="net_10,11,12,13"/>
  <line x1="109" x2="179" y1="184.5" y2="184.5" class="net_27,28,29,30,31,32"/>
  <line x1="179" x2="179" y1="184.5" y2="1117" class="net_27,28,29,30,31,32"/>
  <line x1="179" x2="229.40625" y1="1117" y2="1117" class="net_27,28,29,30,31,32"/>
  <line x1="109" x2="169" y1="204.5" y2="204.5" class="net_9"/>
  <line x1="169" x2="169" y1="204.5" y2="1137" class="net_9"/>
  <line x1="169" x2="229.40625" y1="1137" y2="1137" class="net_9"/>
  <line x1="109" x2="229.40625" y1="1557" y2="1557" class="net_115,116,117,118,119,120,121,122,123,124,125,126"/>
  <line x1="109" x2="159" y1="224.5" y2="224.5" class="net_14,15,16,17,18,19,20,21,22,23,24,25,26,27,28,29,30,31,32,33"/>
  <line x1="159" x2="159" y1="224.5" y2="1577" class="net_14,15,16,17,18,19,20,21,22,23,24,25,26,27,28,29,30,31,32,33"/>
  <line x1="159" x2="229.40625" y1="1577" y2="1577" class="net_14,15,16,17,18,19,20,21,22,23,24,25,26,27,28,29,30,31,32,33"/>
  <line x1="109" x2="139" y1="244.5" y2="244.5" class="net_23,24,25,26,27,28,29,30,31,32"/>
  <line x1="139" x2="139" y1="244.5" y2="1617" class="net_23,24,25,26,27,28,29,30,31,32"/>
  <line x1="139" x2="229.40625" y1="1617" y2="1617" class="net_23,24,25,26,27,28,29,30,31,32"/>
  <line x1="109" x2="129" y1="264.5" y2="264.5" class="net_22"/>
  <line x1="129" x2="129" y1="264.5" y2="1637" class="net_22"/>
  <line x1="129" x2="229.40625" y1="1637" y2="1637" class="net_22"/>
  <line x1="108.5" x2="108.5" y1="285" y2="1047" class="net_14,15,16,17,18,19,20,21"/>
  <line x1="108.5" x2="119" y1="1047" y2="1047" class="net_14,15,16,17,18,19,20,21"/>
  <line x1="119" x2="119" y1="1047" y2="1657" class="net_14,15,16,17,18,19,20,21"/>
  <line x1="119" x2="229.40625" y1="1657" y2="1657" class="net_14,15,16,17,18,19,20,21"/>
  <line x1="103" x2="236" y1="2026.5" y2="2026.5" class="net_73"/>
  <line x1="236" x2="236" y1="2026.5" y2="2103.5" class="net_73"/>
  <line x1="109" x2="119" y1="2084" y2="2084" class="net_69"/>
  <line x1="119" x2="119" y1="2084" y2="2124" class="net_69"/>
  <line x1="119" x2="235.5" y1="2124" y2="2124" class="net_69"/>
  <line x1="109" x2="235.5" y1="2144" y2="2144" class="net_70"/>
  <line x1="109" x2="119" y1="2209" y2="2209" class="net_71"/>
  <line x1="119" x2="119" y1="2209" y2="2164" class="net_71"/>
  <line x1="119" x2="235.5" y1="2164" y2="2164" class="net_71"/>
  <line x1="109" x2="236" y1="2274" y2="2274" class="net_72"/>
  <line x1="236" x2="236" y1="2274" y2="2184.5" class="net_72"/>
  <line x1="40" x2="104.5" y1="62" y2="62" class="net_2,3,4,5,6,7,8,9,10,11,12,13,14,15,16,17,18,19,20,21,22,23,24,25,26,27,28,29,30,31,32,33"/>
  <line x1="104.5" x2="104.5" y1="62" y2="94" class="net_2,3,4,5,6,7,8,9,10,11,12,13,14,15,16,17,18,19,20,21,22,23,24,25,26,27,28,29,30,31,32,33"/>
</svg>
