<svg xmlns="http://www.w3.org/2000/svg" xmlns:xlink="http://www.w3.org/1999/xlink" xmlns:s="https://github.com/nturley/netlistsvg" width="423" height="337.5"><style>svg {
  stroke:#000;
  fill:none;
}
text {
  fill:#000;
  stroke:none;
  font-size:10px;
  font-weight: bold;
  font-family: "Courier New", monospace;
}
line {
    stroke-linecap: round;
}
.nodelabel {
  text-anchor: middle;
}
.inputPortLabel {
  text-anchor: end;
}
.splitjoinBody {
  fill:#000;
}</style><g s:type="add" transform="translate(104.66666666666667,26)" s:width="25" s:height="25" id="cell_:11"><s:alias val="$add"/><circle r="12.5" cx="12.5" cy="12.5" fill="#ffffff" class="cell_:11"/><line x1="7.5" x2="17.5" y1="12.5" y2="12.5" fill="#ffffff" class="cell_:11"/><line x1="12.5" x2="12.5" y1="7.5" y2="17.5" fill="#ffffff" class="cell_:11"/><g s:x="2" s:y="5" s:pid="A"/><g s:x="2" s:y="20" s:pid="B"/><g s:x="26" s:y="12.5" s:pid="Y"/></g><g s:type="mux-bus" transform="translate(235.33333333333334,76)" s:width="24" s:height="40" id="cell_:15"><s:alias val="$pmux-bus"/><s:alias val="$mux-bus"/><s:alias val="$_MUX_-bus"/><path d="M0,0 L20,10 L20,30 L0,40 Z" fill="#ffffff" class="cell_:15"/><path d="M4,2 L4,0 L22,9 L22,31 L4,40 L4,38" fill="#ffffff" class="cell_:15"/><path d="M8,2 L8,0 L24,8 L24,32 L8,40 L8,38" fill="#ffffff" class="cell_:15"/><text x="5" y="32" class="nodelabel cell_:15" s:attribute="">1</text><text x="5" y="13" class="nodelabel cell_:15" s:attribute="">0</text><g s:x="-1" s:y="10" s:pid="A"/><g s:x="-1" s:y="30" s:pid="B"/><g s:x="12" s:y="38" s:pid="S"/><g s:x="24.5" s:y="20" s:pid="Y"/></g><g s:type="mux" transform="translate(239.5,244.5)" s:width="20" s:height="40" id="cell_:19"><s:alias val="$pmux"/><s:alias val="$mux"/><s:alias val="$_MUX_"/><path d="M0,0 L20,10 L20,30 L0,40 Z" fill="#ffffff" class="cell_:19"/><text x="5" y="32" class="nodelabel cell_:19" s:attribute="">1</text><text x="5" y="13" class="nodelabel cell_:19" s:attribute="">0</text><g s:x="0" s:y="10" s:pid="A"/><g s:x="0" s:y="30" s:pid="B"/><g s:x="10" s:y="35" s:pid="S"/><g s:x="20" s:y="20" s:pid="Y"/></g><g s:type="dff" transform="translate(299,254.5)" s:width="30" s:height="40" id="cell_:20"><s:alias val="$dff"/><s:alias val="$_DFF_"/><s:alias val="$_DFF_P_"/><s:alias val="$adff"/><s:alias val="$_DFF_"/><s:alias val="$_DFF_P_"/><s:alias val="$sdff"/><s:alias val="$_DFF_"/><s:alias val="$_DFF_P_"/><rect width="30" height="40" x="0" y="0" fill="#ffffff" class="cell_:20"/><path d="M0,35 L5,30 L0,25" fill="#ffffff" class="cell_:20"/><g s:x="31" s:y="10" s:pid="Q"/><g s:x="-1" s:y="30" s:pid="CLK"/><g s:x="-1" s:y="30" s:pid="C"/><g s:x="-1" s:y="10" s:pid="D"/><g s:x="15" s:y="40" s:pid="ARST"/><g s:x="15" s:y="40" s:pid="SRST"/></g><g s:type="dff-bus" transform="translate(366,128.5)" s:width="34" s:height="44" id="cell_:21"><s:alias val="$dff-bus"/><s:alias val="$_DFF_-bus"/><s:alias val="$_DFF_P_-bus"/><s:alias val="adff-bus"/><s:alias val="$adff-bus"/><s:alias val="$_DFF_-bus"/><s:alias val="$_DFF_P_-bus"/><s:alias val="sdff-bus"/><s:alias val="$sdff-bus"/><s:alias val="$_DFF_-bus"/><s:alias val="$_DFF_P_-bus"/><rect width="30" height="40" x="0" y="0" fill="#ffffff" class="cell_:21"/><path d="M0,35 L5,30 L0,25" fill="#ffffff" class="cell_:21"/><path d="M30,2 L32,2 L32,42 L2,42 L2,40" fill="#ffffff" class="cell_:21"/><path d="M32,4 L34,4 L34,44 L4,44 L4,42" fill="#ffffff" class="cell_:21"/><g s:x="35" s:y="10" s:pid="Q"/><g s:x="-1" s:y="30" s:pid="CLK"/><g s:x="-1" s:y="30" s:pid="C"/><g s:x="-1" s:y="10" s:pid="D"/><g s:x="17" s:y="44" s:pid="ARST"/><g s:x="17" s:y="44" s:pid="SRST"/></g><g s:type="eq" transform="translate(171,147)" s:width="25" s:height="25" id="cell_:7"><s:alias val="$eq"/><s:alias val="$eqx"/><circle r="12.5" cx="12.5" cy="12.5" fill="#ffffff" class="cell_:7"/><line x1="7.5" x2="17.5" y1="10" y2="10" fill="#ffffff" class="cell_:7"/><line x1="7.5" x2="17.5" y1="15" y2="15" fill="#ffffff" class="cell_:7"/><g s:x="2" s:y="5" s:pid="A"/><g s:x="2" s:y="20" s:pid="B"/><g s:x="25" s:y="12.5" s:pid="Y"/></g><g s:type="not" transform="translate(168,264.5)" s:width="30" s:height="20" id="cell_:8"><s:alias val="$_NOT_"/><s:alias val="$not"/><s:alias val="$logic_not"/><path d="M0,0 L0,20 L20,10 Z" fill="#ffffff" class="cell_:8"/><circle cx="24" cy="10" r="3" fill="#ffffff" class="cell_:8"/><g s:x="-1" s:y="10" s:pid="A"/><g s:x="27" s:y="10" s:pid="Y"/></g><g s:type="inputExt" transform="translate(233,189.5)" s:width="30" s:height="20" id="cell_clk"><text x="15" y="-4" class="nodelabel cell_clk" s:attribute="ref">clk</text><s:alias val="$_inputExt_"/><path d="M0,0 L0,20 L15,20 L30,10 L15,0 Z" fill="#ffffff" class="cell_clk"/><g s:x="30" s:y="10" s:pid="Y"/></g><g s:type="outputExt" transform="translate(366,254.5)" s:width="30" s:height="20" id="cell_led"><text x="15" y="-4" class="nodelabel cell_led" s:attribute="ref">led</text><s:alias val="$_outputExt_"/><path d="M30,0 L30,20 L15,20 L0,10 L15,0 Z" fill="#ffffff" class="cell_led"/><g s:x="0" s:y="10" s:pid="A"/></g><g s:type="constant" transform="translate(12,36)" s:width="30" s:height="20" id="cell_1"><text x="15" y="-4" class="nodelabel cell_1" s:attribute="ref">1</text><s:alias val="$_constant_"/><rect width="30" height="20" fill="#ffffff" class="cell_1"/><g s:x="31" s:y="10" s:pid="Y"/></g><g s:type="constant" transform="translate(101,96)" s:width="30" s:height="20" id="cell_00000000000000000000000000"><text x="15" y="-4" class="nodelabel cell_00000000000000000000000000" s:attribute="ref">0x0</text><s:alias val="$_constant_"/><rect width="30" height="20" fill="#ffffff" class="cell_00000000000000000000000000"/><g s:x="31" s:y="10" s:pid="Y"/></g><g s:type="constant" transform="translate(12,157)" s:width="30" s:height="20" id="cell_10111110101111000001111111"><text x="15" y="-4" class="nodelabel cell_10111110101111000001111111" s:attribute="ref">0x2faf07f</text><s:alias val="$_constant_"/><rect width="30" height="20" fill="#ffffff" class="cell_10111110101111000001111111"/><g s:x="31" s:y="10" s:pid="Y"/></g><line x1="401" x2="411" y1="138.5" y2="138.5" class="net_4,5,6,7,8,9,10,11,12,13,14,15,16,17,18,19,20,21,22,23,24,25,26,27,28,29 width_26" style="stroke-width: 2"/><line x1="411" x2="411" y1="138.5" y2="16" class="net_4,5,6,7,8,9,10,11,12,13,14,15,16,17,18,19,20,21,22,23,24,25,26,27,28,29 width_26" style="stroke-width: 2"/><line x1="411" x2="76" y1="16" y2="16" class="net_4,5,6,7,8,9,10,11,12,13,14,15,16,17,18,19,20,21,22,23,24,25,26,27,28,29 width_26" style="stroke-width: 2"/><line x1="76" x2="76" y1="16" y2="31" class="net_4,5,6,7,8,9,10,11,12,13,14,15,16,17,18,19,20,21,22,23,24,25,26,27,28,29 width_26" style="stroke-width: 2"/><circle cx="411" cy="138.5" r="3" style="fill:#000" class="net_4,5,6,7,8,9,10,11,12,13,14,15,16,17,18,19,20,21,22,23,24,25,26,27,28,29 width_26"/><line x1="76" x2="106.66666666666667" y1="31" y2="31" class="net_4,5,6,7,8,9,10,11,12,13,14,15,16,17,18,19,20,21,22,23,24,25,26,27,28,29 width_26" style="stroke-width: 2"/><line x1="401" x2="411" y1="138.5" y2="138.5" class="net_4,5,6,7,8,9,10,11,12,13,14,15,16,17,18,19,20,21,22,23,24,25,26,27,28,29 width_26" style="stroke-width: 2"/><line x1="411" x2="411" y1="138.5" y2="319.5" class="net_4,5,6,7,8,9,10,11,12,13,14,15,16,17,18,19,20,21,22,23,24,25,26,27,28,29 width_26" style="stroke-width: 2"/><line x1="411" x2="142" y1="319.5" y2="319.5" class="net_4,5,6,7,8,9,10,11,12,13,14,15,16,17,18,19,20,21,22,23,24,25,26,27,28,29 width_26" style="stroke-width: 2"/><line x1="142" x2="142" y1="319.5" y2="152" class="net_4,5,6,7,8,9,10,11,12,13,14,15,16,17,18,19,20,21,22,23,24,25,26,27,28,29 width_26" style="stroke-width: 2"/><line x1="142" x2="173" y1="152" y2="152" class="net_4,5,6,7,8,9,10,11,12,13,14,15,16,17,18,19,20,21,22,23,24,25,26,27,28,29 width_26" style="stroke-width: 2"/><line x1="43" x2="106.66666666666667" y1="46" y2="46" class="net_85 width_1" style="stroke-width: 1"/><line x1="130.66666666666669" x2="208" y1="38.5" y2="38.5" class="net_30,31,32,33,34,35,36,37,38,39,40,41,42,43,44,45,46,47,48,49,50,51,52,53,54,55 width_26" style="stroke-width: 2"/><line x1="208" x2="208" y1="38.5" y2="86" class="net_30,31,32,33,34,35,36,37,38,39,40,41,42,43,44,45,46,47,48,49,50,51,52,53,54,55 width_26" style="stroke-width: 2"/><line x1="208" x2="234.33333333333334" y1="86" y2="86" class="net_30,31,32,33,34,35,36,37,38,39,40,41,42,43,44,45,46,47,48,49,50,51,52,53,54,55 width_26" style="stroke-width: 2"/><line x1="132" x2="234.33333333333334" y1="106" y2="106" class="net_86,87,88,89,90,91,92,93,94,95,96,97,98,99,100,101,102,103,104,105,106,107,108,109,110,111 width_26" style="stroke-width: 2"/><line x1="196" x2="247.33333333333334" y1="159.5" y2="159.5" class="net_56 width_1" style="stroke-width: 1"/><line x1="247.33333333333334" x2="247.33333333333334" y1="159.5" y2="114" class="net_56 width_1" style="stroke-width: 1"/><line x1="196" x2="208" y1="159.5" y2="159.5" class="net_56 width_1" style="stroke-width: 1"/><line x1="208" x2="208" y1="159.5" y2="294.5" class="net_56 width_1" style="stroke-width: 1"/><line x1="208" x2="249.5" y1="294.5" y2="294.5" class="net_56 width_1" style="stroke-width: 1"/><circle cx="208" cy="159.5" r="2" style="fill:#000" class="net_56 width_1"/><line x1="249.5" x2="249.5" y1="294.5" y2="279.5" class="net_56 width_1" style="stroke-width: 1"/><line x1="330" x2="340" y1="264.5" y2="264.5" class="net_3 width_1" style="stroke-width: 1"/><line x1="340" x2="340" y1="264.5" y2="169.5" class="net_3 width_1" style="stroke-width: 1"/><line x1="340" x2="218" y1="169.5" y2="169.5" class="net_3 width_1" style="stroke-width: 1"/><line x1="218" x2="218" y1="169.5" y2="254.5" class="net_3 width_1" style="stroke-width: 1"/><circle cx="340" cy="264.5" r="2" style="fill:#000" class="net_3 width_1"/><line x1="218" x2="239.5" y1="254.5" y2="254.5" class="net_3 width_1" style="stroke-width: 1"/><line x1="330" x2="340" y1="264.5" y2="264.5" class="net_3 width_1" style="stroke-width: 1"/><line x1="340" x2="340" y1="264.5" y2="304.5" class="net_3 width_1" style="stroke-width: 1"/><line x1="340" x2="152" y1="304.5" y2="304.5" class="net_3 width_1" style="stroke-width: 1"/><line x1="152" x2="152" y1="304.5" y2="274.5" class="net_3 width_1" style="stroke-width: 1"/><line x1="152" x2="167" y1="274.5" y2="274.5" class="net_3 width_1" style="stroke-width: 1"/><line x1="330" x2="366" y1="264.5" y2="264.5" class="net_3 width_1" style="stroke-width: 1"/><line x1="195" x2="239.5" y1="274.5" y2="274.5" class="net_83 width_1" style="stroke-width: 1"/><line x1="263" x2="273" y1="199.5" y2="199.5" class="net_2 width_1" style="stroke-width: 1"/><line x1="273" x2="273" y1="199.5" y2="284.5" class="net_2 width_1" style="stroke-width: 1"/><circle cx="273" cy="199.5" r="2" style="fill:#000" class="net_2 width_1"/><line x1="273" x2="298" y1="284.5" y2="284.5" class="net_2 width_1" style="stroke-width: 1"/><line x1="263" x2="273" y1="199.5" y2="199.5" class="net_2 width_1" style="stroke-width: 1"/><line x1="273" x2="273" y1="199.5" y2="158.5" class="net_2 width_1" style="stroke-width: 1"/><line x1="273" x2="365" y1="158.5" y2="158.5" class="net_2 width_1" style="stroke-width: 1"/><line x1="259.5" x2="298" y1="264.5" y2="264.5" class="net_84 width_1" style="stroke-width: 1"/><line x1="259.83333333333337" x2="340" y1="96" y2="96" class="net_57,58,59,60,61,62,63,64,65,66,67,68,69,70,71,72,73,74,75,76,77,78,79,80,81,82 width_26" style="stroke-width: 2"/><line x1="340" x2="340" y1="96" y2="138.5" class="net_57,58,59,60,61,62,63,64,65,66,67,68,69,70,71,72,73,74,75,76,77,78,79,80,81,82 width_26" style="stroke-width: 2"/><line x1="340" x2="365" y1="138.5" y2="138.5" class="net_57,58,59,60,61,62,63,64,65,66,67,68,69,70,71,72,73,74,75,76,77,78,79,80,81,82 width_26" style="stroke-width: 2"/><line x1="43" x2="173" y1="167" y2="167" class="net_112,113,114,115,116,117,118,119,120,121,122,123,124,125,126,127,128,129,130,131,132,133,134,135,136,137 width_26" style="stroke-width: 2"/><rect x="247" y="314.5" width="22" height="9" class="net_4,5,6,7,8,9,10,11,12,13,14,15,16,17,18,19,20,21,22,23,24,25,26,27,28,29 width_26 busLabel_26" style="fill: white; stroke: none"/><text x="246" y="322.5" class="net_4,5,6,7,8,9,10,11,12,13,14,15,16,17,18,19,20,21,22,23,24,25,26,27,28,29 width_26 busLabel_26">/26/</text><rect x="247" y="314.5" width="22" height="9" class="net_4,5,6,7,8,9,10,11,12,13,14,15,16,17,18,19,20,21,22,23,24,25,26,27,28,29 width_26 busLabel_26" style="fill: white; stroke: none"/><text x="246" y="322.5" class="net_4,5,6,7,8,9,10,11,12,13,14,15,16,17,18,19,20,21,22,23,24,25,26,27,28,29 width_26 busLabel_26">/26/</text><rect x="181.5" y="33.5" width="22" height="9" class="net_30,31,32,33,34,35,36,37,38,39,40,41,42,43,44,45,46,47,48,49,50,51,52,53,54,55 width_26 busLabel_26" style="fill: white; stroke: none"/><text x="180.5" y="41.5" class="net_30,31,32,33,34,35,36,37,38,39,40,41,42,43,44,45,46,47,48,49,50,51,52,53,54,55 width_26 busLabel_26">/26/</text><rect x="181.5" y="101" width="22" height="9" class="net_86,87,88,89,90,91,92,93,94,95,96,97,98,99,100,101,102,103,104,105,106,107,108,109,110,111 width_26 busLabel_26" style="fill: white; stroke: none"/><text x="180.5" y="109" class="net_86,87,88,89,90,91,92,93,94,95,96,97,98,99,100,101,102,103,104,105,106,107,108,109,110,111 width_26 busLabel_26">/26/</text><rect x="313" y="91" width="22" height="9" class="net_57,58,59,60,61,62,63,64,65,66,67,68,69,70,71,72,73,74,75,76,77,78,79,80,81,82 width_26 busLabel_26" style="fill: white; stroke: none"/><text x="312" y="99" class="net_57,58,59,60,61,62,63,64,65,66,67,68,69,70,71,72,73,74,75,76,77,78,79,80,81,82 width_26 busLabel_26">/26/</text><rect x="115.5" y="162" width="22" height="9" class="net_112,113,114,115,116,117,118,119,120,121,122,123,124,125,126,127,128,129,130,131,132,133,134,135,136,137 width_26 busLabel_26" style="fill: white; stroke: none"/><text x="114.5" y="170" class="net_112,113,114,115,116,117,118,119,120,121,122,123,124,125,126,127,128,129,130,131,132,133,134,135,136,137 width_26 busLabel_26">/26/</text></svg>