<svg xmlns="http://www.w3.org/2000/svg" xmlns:xlink="http://www.w3.org/1999/xlink" xmlns:s="https://github.com/nturley/netlistsvg" width="914.5" height="1370"><style>svg {
  stroke:#000;
  fill:none;
}
text {
  fill:#000;
  stroke:none;
  font-size:10px;
  font-weight: bold;
  font-family: "Courier New", monospace;
}
line {
    stroke-linecap: round;
}
.nodelabel {
  text-anchor: middle;
}
.inputPortLabel {
  text-anchor: end;
}
.splitjoinBody {
  fill:#000;
}</style><g s:type="not" transform="translate(702,1218)" s:width="30" s:height="20" id="cell_:19"><s:alias val="$_NOT_"/><s:alias val="$not"/><s:alias val="$logic_not"/><path d="M0,0 L0,20 L20,10 Z" fill="#ffffff" class="cell_:19"/><circle cx="24" cy="10" r="3" fill="#ffffff" class="cell_:19"/><g s:x="-1" s:y="10" s:pid="A"/><g s:x="27" s:y="10" s:pid="Y"/></g><g s:type="mux-bus" transform="translate(768,1147)" s:width="24" s:height="40" id="cell_:20"><s:alias val="$pmux-bus"/><s:alias val="$mux-bus"/><s:alias val="$_MUX_-bus"/><path d="M0,0 L20,10 L20,30 L0,40 Z" fill="#ffffff" class="cell_:20"/><path d="M4,2 L4,0 L22,9 L22,31 L4,40 L4,38" fill="#ffffff" class="cell_:20"/><path d="M8,2 L8,0 L24,8 L24,32 L8,40 L8,38" fill="#ffffff" class="cell_:20"/><text x="5" y="32" class="nodelabel cell_:20" s:attribute="">1</text><text x="5" y="13" class="nodelabel cell_:20" s:attribute="">0</text><g s:x="-1" s:y="10" s:pid="A"/><g s:x="-1" s:y="30" s:pid="B"/><g s:x="12" s:y="38" s:pid="S"/><g s:x="24.5" s:y="20" s:pid="Y"/></g><g s:type="not" transform="translate(702,1338)" s:width="30" s:height="20" id="cell_:28"><s:alias val="$_NOT_"/><s:alias val="$not"/><s:alias val="$logic_not"/><path d="M0,0 L0,20 L20,10 Z" fill="#ffffff" class="cell_:28"/><circle cx="24" cy="10" r="3" fill="#ffffff" class="cell_:28"/><g s:x="-1" s:y="10" s:pid="A"/><g s:x="27" s:y="10" s:pid="Y"/></g><g s:type="mux-bus" transform="translate(768,1267)" s:width="24" s:height="40" id="cell_:29"><s:alias val="$pmux-bus"/><s:alias val="$mux-bus"/><s:alias val="$_MUX_-bus"/><path d="M0,0 L20,10 L20,30 L0,40 Z" fill="#ffffff" class="cell_:29"/><path d="M4,2 L4,0 L22,9 L22,31 L4,40 L4,38" fill="#ffffff" class="cell_:29"/><path d="M8,2 L8,0 L24,8 L24,32 L8,40 L8,38" fill="#ffffff" class="cell_:29"/><text x="5" y="32" class="nodelabel cell_:29" s:attribute="">1</text><text x="5" y="13" class="nodelabel cell_:29" s:attribute="">0</text><g s:x="-1" s:y="10" s:pid="A"/><g s:x="-1" s:y="30" s:pid="B"/><g s:x="12" s:y="38" s:pid="S"/><g s:x="24.5" s:y="20" s:pid="Y"/></g><g s:type="or" transform="translate(119,12)" s:width="30" s:height="25" id="cell_:7"><s:alias val="$or"/><s:alias val="$logic_or"/><s:alias val="$_OR_"/><s:alias val="$reduce_or"/><s:alias val="$reduce_bool"/><path d="M0,0 A30 25 0 0 1 0,25 A30 25 0 0 0 30,12.5 A30 25 0 0 0 0,0" fill="#ffffff" class="cell_:7"/><g s:x="2" s:y="5" s:pid="A"/><g s:x="2" s:y="20" s:pid="B"/><g s:x="30" s:y="12.5" s:pid="Y"/></g><g s:type="and" transform="translate(192,951.5)" s:width="30" s:height="25" id="cell_:8"><s:alias val="$and"/><s:alias val="$logic_and"/><s:alias val="$_AND_"/><s:alias val="$reduce_and"/><path d="M0,0 L0,25 L15,25 A15 12.5 0 0 0 15,0 Z" fill="#ffffff" class="cell_:8"/><g s:x="0" s:y="5" s:pid="A"/><g s:x="0" s:y="20" s:pid="B"/><g s:x="30" s:y="12.5" s:pid="Y"/></g><g s:type="generic" transform="translate(482,1034)" s:width="30" s:height="40" id="cell_regs"><text x="15" y="-4" class="nodelabel cell_regs" s:attribute="ref">RAM</text><rect width="30" height="180" s:generic="body" fill="#ffffff" class="cell_regs"/><g transform="translate(0,10)" s:x="0" s:y="10" s:pid="in0" id="port_regs~RD_ADDR"><text x="-3" y="-4" class="inputPortLabel cell_regs">RD_ADDR</text></g><g transform="translate(0,30)" s:x="0" s:y="10" s:pid="in0" id="port_regs~RD_ARST"><text x="-3" y="-4" class="inputPortLabel cell_regs">RD_ARST</text></g><g transform="translate(0,50)" s:x="0" s:y="10" s:pid="in0" id="port_regs~RD_CLK"><text x="-3" y="-4" class="inputPortLabel cell_regs">RD_CLK</text></g><g transform="translate(0,70)" s:x="0" s:y="10" s:pid="in0" id="port_regs~RD_EN"><text x="-3" y="-4" class="inputPortLabel cell_regs">RD_EN</text></g><g transform="translate(0,90)" s:x="0" s:y="10" s:pid="in0" id="port_regs~RD_SRST"><text x="-3" y="-4" class="inputPortLabel cell_regs">RD_SRST</text></g><g transform="translate(0,110)" s:x="0" s:y="10" s:pid="in0" id="port_regs~WR_ADDR"><text x="-3" y="-4" class="inputPortLabel cell_regs">WR_ADDR</text></g><g transform="translate(0,130)" s:x="0" s:y="10" s:pid="in0" id="port_regs~WR_CLK"><text x="-3" y="-4" class="inputPortLabel cell_regs">WR_CLK</text></g><g transform="translate(0,150)" s:x="0" s:y="10" s:pid="in0" id="port_regs~WR_DATA"><text x="-3" y="-4" class="inputPortLabel cell_regs">WR_DATA</text></g><g transform="translate(0,170)" s:x="0" s:y="10" s:pid="in0" id="port_regs~WR_EN"><text x="-3" y="-4" class="inputPortLabel cell_regs">WR_EN</text></g><g transform="translate(30,10)" s:x="30" s:y="10" s:pid="out0" id="port_regs~RD_DATA"><text x="5" y="-4" style="fill:#000; stroke:none" class="cell_regs">RD_DATA</text></g></g><g s:type="inputExt" transform="translate(328,1125.5)" s:width="30" s:height="20" id="cell_clk"><text x="15" y="-4" class="nodelabel cell_clk" s:attribute="ref">clk</text><s:alias val="$_inputExt_"/><path d="M0,0 L0,20 L15,20 L30,10 L15,0 Z" fill="#ffffff" class="cell_clk"/><g s:x="30" s:y="10" s:pid="Y"/></g><g s:type="inputExt" transform="translate(116,961.5)" s:width="30" s:height="20" id="cell_we"><text x="15" y="-4" class="nodelabel cell_we" s:attribute="ref">we</text><s:alias val="$_inputExt_"/><path d="M0,0 L0,20 L15,20 L30,10 L15,0 Z" fill="#ffffff" class="cell_we"/><g s:x="30" s:y="10" s:pid="Y"/></g><g s:type="inputExt" transform="translate(12,1094.5)" s:width="30" s:height="20" id="cell_waddr"><text x="15" y="-4" class="nodelabel cell_waddr" s:attribute="ref">waddr</text><s:alias val="$_inputExt_"/><path d="M0,0 L0,20 L15,20 L30,10 L15,0 Z" fill="#ffffff" class="cell_waddr"/><g s:x="30" s:y="10" s:pid="Y"/></g><g s:type="inputExt" transform="translate(257,341.5)" s:width="30" s:height="20" id="cell_wdata"><text x="15" y="-4" class="nodelabel cell_wdata" s:attribute="ref">wdata</text><s:alias val="$_inputExt_"/><path d="M0,0 L0,20 L15,20 L30,10 L15,0 Z" fill="#ffffff" class="cell_wdata"/><g s:x="30" s:y="10" s:pid="Y"/></g><g s:type="inputExt" transform="translate(116,147)" s:width="30" s:height="20" id="cell_raddr1"><text x="15" y="-4" class="nodelabel cell_raddr1" s:attribute="ref">raddr1</text><s:alias val="$_inputExt_"/><path d="M0,0 L0,20 L15,20 L30,10 L15,0 Z" fill="#ffffff" class="cell_raddr1"/><g s:x="30" s:y="10" s:pid="Y"/></g><g s:type="inputExt" transform="translate(116,82)" s:width="30" s:height="20" id="cell_raddr2"><text x="15" y="-4" class="nodelabel cell_raddr2" s:attribute="ref">raddr2</text><s:alias val="$_inputExt_"/><path d="M0,0 L0,20 L15,20 L30,10 L15,0 Z" fill="#ffffff" class="cell_raddr2"/><g s:x="30" s:y="10" s:pid="Y"/></g><g s:type="outputExt" transform="translate(866.5,1157)" s:width="30" s:height="20" id="cell_rdata1"><text x="15" y="-4" class="nodelabel cell_rdata1" s:attribute="ref">rdata1</text><s:alias val="$_outputExt_"/><path d="M30,0 L30,20 L15,20 L0,10 L15,0 Z" fill="#ffffff" class="cell_rdata1"/><g s:x="0" s:y="10" s:pid="A"/></g><g s:type="outputExt" transform="translate(866.5,1277)" s:width="30" s:height="20" id="cell_rdata2"><text x="15" y="-4" class="nodelabel cell_rdata2" s:attribute="ref">rdata2</text><s:alias val="$_outputExt_"/><path d="M30,0 L30,20 L15,20 L0,10 L15,0 Z" fill="#ffffff" class="cell_rdata2"/><g s:x="0" s:y="10" s:pid="A"/></g><g s:type="constant" transform="translate(630,1287)" s:width="30" s:height="20" id="cell_00000000000000000000000000000000"><text x="15" y="-4" class="nodelabel cell_00000000000000000000000000000000" s:attribute="ref">0x0</text><s:alias val="$_constant_"/><rect width="30" height="20" fill="#ffffff" class="cell_00000000000000000000000000000000"/><g s:x="31" s:y="10" s:pid="Y"/></g><g s:type="constant" transform="translate(257,211.5)" s:width="30" s:height="20" id="cell_00"><text x="15" y="-4" class="nodelabel cell_00" s:attribute="ref">00</text><s:alias val="$_constant_"/><rect width="30" height="20" fill="#ffffff" class="cell_00"/><g s:x="31" s:y="10" s:pid="Y"/></g><g s:type="constant" transform="translate(257,276.5)" s:width="30" s:height="20" id="cell_11"><text x="15" y="-4" class="nodelabel cell_11" s:attribute="ref">11</text><s:alias val="$_constant_"/><rect width="30" height="20" fill="#ffffff" class="cell_11"/><g s:x="31" s:y="10" s:pid="Y"/></g><g s:type="join" transform="translate(276,126.5)" s:width="4" s:height="40" id="cell_$join$,46,47,48,49,50,41,42,43,44,45,"><rect width="5" height="40" class="splitjoinBody" s:generic="body"/><s:alias val="$_join_"/><g s:x="5" s:y="20" s:pid="out"/><g transform="translate(0,10)" s:x="0" s:y="10" s:pid="in0"><text x="-3" y="-4" class="inputPortLabel">0:4</text></g><g transform="translate(0,30)" s:x="0" s:y="10" s:pid="in0"><text x="-3" y="-4" class="inputPortLabel">5:9</text></g></g><g s:type="join" transform="translate(275.56,413.5)" s:width="4" s:height="40" id="cell_$join$,182,182,182,182,182,182,182,182,182,182,182,182,182,182,182,182,182,182,182,182,182,182,182,182,182,182,182,182,182,182,182,182,"><rect width="5" height="640" class="splitjoinBody" s:generic="body"/><s:alias val="$_join_"/><g s:x="5" s:y="20" s:pid="out"/><g transform="translate(0,10)" s:x="0" s:y="10" s:pid="in0"><text x="-3" y="-4" class="inputPortLabel">0</text></g><g transform="translate(0,30)" s:x="0" s:y="10" s:pid="in0"><text x="-3" y="-4" class="inputPortLabel">1</text></g><g transform="translate(0,50)" s:x="0" s:y="10" s:pid="in0"><text x="-3" y="-4" class="inputPortLabel">2</text></g><g transform="translate(0,70)" s:x="0" s:y="10" s:pid="in0"><text x="-3" y="-4" class="inputPortLabel">3</text></g><g transform="translate(0,90)" s:x="0" s:y="10" s:pid="in0"><text x="-3" y="-4" class="inputPortLabel">4</text></g><g transform="translate(0,110)" s:x="0" s:y="10" s:pid="in0"><text x="-3" y="-4" class="inputPortLabel">5</text></g><g transform="translate(0,130)" s:x="0" s:y="10" s:pid="in0"><text x="-3" y="-4" class="inputPortLabel">6</text></g><g transform="translate(0,150)" s:x="0" s:y="10" s:pid="in0"><text x="-3" y="-4" class="inputPortLabel">7</text></g><g transform="translate(0,170)" s:x="0" s:y="10" s:pid="in0"><text x="-3" y="-4" class="inputPortLabel">8</text></g><g transform="translate(0,190)" s:x="0" s:y="10" s:pid="in0"><text x="-3" y="-4" class="inputPortLabel">9</text></g><g transform="translate(0,210)" s:x="0" s:y="10" s:pid="in0"><text x="-3" y="-4" class="inputPortLabel">10</text></g><g transform="translate(0,230)" s:x="0" s:y="10" s:pid="in0"><text x="-3" y="-4" class="inputPortLabel">11</text></g><g transform="translate(0,250)" s:x="0" s:y="10" s:pid="in0"><text x="-3" y="-4" class="inputPortLabel">12</text></g><g transform="translate(0,270)" s:x="0" s:y="10" s:pid="in0"><text x="-3" y="-4" class="inputPortLabel">13</text></g><g transform="translate(0,290)" s:x="0" s:y="10" s:pid="in0"><text x="-3" y="-4" class="inputPortLabel">14</text></g><g transform="translate(0,310)" s:x="0" s:y="10" s:pid="in0"><text x="-3" y="-4" class="inputPortLabel">15</text></g><g transform="translate(0,330)" s:x="0" s:y="10" s:pid="in0"><text x="-3" y="-4" class="inputPortLabel">16</text></g><g transform="translate(0,350)" s:x="0" s:y="10" s:pid="in0"><text x="-3" y="-4" class="inputPortLabel">17</text></g><g transform="translate(0,370)" s:x="0" s:y="10" s:pid="in0"><text x="-3" y="-4" class="inputPortLabel">18</text></g><g transform="translate(0,390)" s:x="0" s:y="10" s:pid="in0"><text x="-3" y="-4" class="inputPortLabel">19</text></g><g transform="translate(0,410)" s:x="0" s:y="10" s:pid="in0"><text x="-3" y="-4" class="inputPortLabel">20</text></g><g transform="translate(0,430)" s:x="0" s:y="10" s:pid="in0"><text x="-3" y="-4" class="inputPortLabel">21</text></g><g transform="translate(0,450)" s:x="0" s:y="10" s:pid="in0"><text x="-3" y="-4" class="inputPortLabel">22</text></g><g transform="translate(0,470)" s:x="0" s:y="10" s:pid="in0"><text x="-3" y="-4" class="inputPortLabel">23</text></g><g transform="translate(0,490)" s:x="0" s:y="10" s:pid="in0"><text x="-3" y="-4" class="inputPortLabel">24</text></g><g transform="translate(0,510)" s:x="0" s:y="10" s:pid="in0"><text x="-3" y="-4" class="inputPortLabel">25</text></g><g transform="translate(0,530)" s:x="0" s:y="10" s:pid="in0"><text x="-3" y="-4" class="inputPortLabel">26</text></g><g transform="translate(0,550)" s:x="0" s:y="10" s:pid="in0"><text x="-3" y="-4" class="inputPortLabel">27</text></g><g transform="translate(0,570)" s:x="0" s:y="10" s:pid="in0"><text x="-3" y="-4" class="inputPortLabel">28</text></g><g transform="translate(0,590)" s:x="0" s:y="10" s:pid="in0"><text x="-3" y="-4" class="inputPortLabel">29</text></g><g transform="translate(0,610)" s:x="0" s:y="10" s:pid="in0"><text x="-3" y="-4" class="inputPortLabel">30</text></g><g transform="translate(0,630)" s:x="0" s:y="10" s:pid="in0"><text x="-3" y="-4" class="inputPortLabel">31</text></g></g><g s:type="split" transform="translate(630,1024)" s:width="5" s:height="40" id="cell_$split$,149,150,151,152,153,154,155,156,157,158,159,160,161,162,163,164,165,166,167,168,169,170,171,172,173,174,175,176,177,178,179,180,116,117,118,119,120,121,122,123,124,125,126,127,128,129,130,131,132,133,134,135,136,137,138,139,140,141,142,143,144,145,146,147,"><rect width="5" height="40" class="splitjoinBody" s:generic="body"/><s:alias val="$_split_"/><g s:x="0" s:y="20" s:pid="in"/><g transform="translate(4,10)" s:x="4" s:y="10" s:pid="out0"><text x="5" y="-4">32:63</text></g><g transform="translate(4,30)" s:x="4" s:y="10" s:pid="out0"><text x="5" y="-4">0:31</text></g></g><line x1="146" x2="172" y1="157" y2="157" class="net_41,42,43,44,45 width_5" style="stroke-width: 2"/><line x1="172" x2="172" y1="157" y2="1228" class="net_41,42,43,44,45 width_5" style="stroke-width: 2"/><circle cx="172" cy="157" r="3" style="fill:#000" class="net_41,42,43,44,45 width_5"/><line x1="172" x2="701" y1="1228" y2="1228" class="net_41,42,43,44,45 width_5" style="stroke-width: 2"/><line x1="146" x2="276" y1="157" y2="157" class="net_41,42,43,44,45 width_5" style="stroke-width: 2"/><line x1="635" x2="742" y1="1034.5" y2="1034.5" class="net_116,117,118,119,120,121,122,123,124,125,126,127,128,129,130,131,132,133,134,135,136,137,138,139,140,141,142,143,144,145,146,147 width_32" style="stroke-width: 2"/><line x1="742" x2="742" y1="1034.5" y2="1157" class="net_116,117,118,119,120,121,122,123,124,125,126,127,128,129,130,131,132,133,134,135,136,137,138,139,140,141,142,143,144,145,146,147 width_32" style="stroke-width: 2"/><line x1="742" x2="767" y1="1157" y2="1157" class="net_116,117,118,119,120,121,122,123,124,125,126,127,128,129,130,131,132,133,134,135,136,137,138,139,140,141,142,143,144,145,146,147 width_32" style="stroke-width: 2"/><line x1="661" x2="676" y1="1297" y2="1297" class="net_183,184,185,186,187,188,189,190,191,192,193,194,195,196,197,198,199,200,201,202,203,204,205,206,207,208,209,210,211,212,213,214 width_32" style="stroke-width: 2"/><line x1="676" x2="676" y1="1297" y2="1177" class="net_183,184,185,186,187,188,189,190,191,192,193,194,195,196,197,198,199,200,201,202,203,204,205,206,207,208,209,210,211,212,213,214 width_32" style="stroke-width: 2"/><circle cx="676" cy="1297" r="3" style="fill:#000" class="net_183,184,185,186,187,188,189,190,191,192,193,194,195,196,197,198,199,200,201,202,203,204,205,206,207,208,209,210,211,212,213,214 width_32"/><line x1="676" x2="767" y1="1177" y2="1177" class="net_183,184,185,186,187,188,189,190,191,192,193,194,195,196,197,198,199,200,201,202,203,204,205,206,207,208,209,210,211,212,213,214 width_32" style="stroke-width: 2"/><line x1="661" x2="767" y1="1297" y2="1297" class="net_183,184,185,186,187,188,189,190,191,192,193,194,195,196,197,198,199,200,201,202,203,204,205,206,207,208,209,210,211,212,213,214 width_32" style="stroke-width: 2"/><line x1="729" x2="780" y1="1228" y2="1228" class="net_115 width_1" style="stroke-width: 1"/><line x1="780" x2="780" y1="1228" y2="1185" class="net_115 width_1" style="stroke-width: 1"/><line x1="146" x2="162" y1="92" y2="92" class="net_46,47,48,49,50 width_5" style="stroke-width: 2"/><line x1="162" x2="162" y1="92" y2="1348" class="net_46,47,48,49,50 width_5" style="stroke-width: 2"/><circle cx="162" cy="92" r="3" style="fill:#000" class="net_46,47,48,49,50 width_5"/><line x1="162" x2="701" y1="1348" y2="1348" class="net_46,47,48,49,50 width_5" style="stroke-width: 2"/><line x1="146" x2="232" y1="92" y2="92" class="net_46,47,48,49,50 width_5" style="stroke-width: 2"/><line x1="232" x2="232" y1="92" y2="137" class="net_46,47,48,49,50 width_5" style="stroke-width: 2"/><line x1="232" x2="276" y1="137" y2="137" class="net_46,47,48,49,50 width_5" style="stroke-width: 2"/><line x1="635" x2="686" y1="1054.5" y2="1054.5" class="net_149,150,151,152,153,154,155,156,157,158,159,160,161,162,163,164,165,166,167,168,169,170,171,172,173,174,175,176,177,178,179,180 width_32" style="stroke-width: 2"/><line x1="686" x2="686" y1="1054.5" y2="1277" class="net_149,150,151,152,153,154,155,156,157,158,159,160,161,162,163,164,165,166,167,168,169,170,171,172,173,174,175,176,177,178,179,180 width_32" style="stroke-width: 2"/><line x1="686" x2="767" y1="1277" y2="1277" class="net_149,150,151,152,153,154,155,156,157,158,159,160,161,162,163,164,165,166,167,168,169,170,171,172,173,174,175,176,177,178,179,180 width_32" style="stroke-width: 2"/><line x1="729" x2="780" y1="1348" y2="1348" class="net_148 width_1" style="stroke-width: 1"/><line x1="780" x2="780" y1="1348" y2="1305" class="net_148 width_1" style="stroke-width: 1"/><line x1="42" x2="52" y1="1104.5" y2="1104.5" class="net_4,5,6,7,8 width_5" style="stroke-width: 2"/><line x1="52" x2="52" y1="1104.5" y2="17" class="net_4,5,6,7,8 width_5" style="stroke-width: 2"/><circle cx="52" cy="1104.5" r="3" style="fill:#000" class="net_4,5,6,7,8 width_5"/><line x1="52" x2="121" y1="17" y2="17" class="net_4,5,6,7,8 width_5" style="stroke-width: 2"/><line x1="42" x2="378" y1="1104.5" y2="1104.5" class="net_4,5,6,7,8 width_5" style="stroke-width: 2"/><line x1="378" x2="378" y1="1104.5" y2="1144.5" class="net_4,5,6,7,8 width_5" style="stroke-width: 2"/><line x1="378" x2="481" y1="1144.5" y2="1144.5" class="net_4,5,6,7,8 width_5" style="stroke-width: 2"/><line x1="149" x2="182" y1="24.5" y2="24.5" class="net_181 width_1" style="stroke-width: 1"/><line x1="182" x2="182" y1="24.5" y2="956.5" class="net_181 width_1" style="stroke-width: 1"/><line x1="182" x2="192" y1="956.5" y2="956.5" class="net_181 width_1" style="stroke-width: 1"/><line x1="146" x2="192" y1="971.5" y2="971.5" class="net_3 width_1" style="stroke-width: 1"/><line x1="282" x2="428" y1="147" y2="147" class="net_46,47,48,49,50,41,42,43,44,45 width_10" style="stroke-width: 2"/><line x1="428" x2="428" y1="147" y2="1044.5" class="net_46,47,48,49,50,41,42,43,44,45 width_10" style="stroke-width: 2"/><line x1="428" x2="482" y1="1044.5" y2="1044.5" class="net_46,47,48,49,50,41,42,43,44,45 width_10" style="stroke-width: 2"/><line x1="288" x2="318" y1="221.5" y2="221.5" class="net_247,248 width_2" style="stroke-width: 2"/><line x1="318" x2="318" y1="221.5" y2="201.5" class="net_247,248 width_2" style="stroke-width: 2"/><line x1="318" x2="418" y1="201.5" y2="201.5" class="net_247,248 width_2" style="stroke-width: 2"/><line x1="418" x2="418" y1="201.5" y2="1064.5" class="net_247,248 width_2" style="stroke-width: 2"/><circle cx="318" cy="221.5" r="3" style="fill:#000" class="net_247,248 width_2"/><line x1="418" x2="481" y1="1064.5" y2="1064.5" class="net_247,248 width_2" style="stroke-width: 2"/><line x1="288" x2="408" y1="221.5" y2="221.5" class="net_247,248 width_2" style="stroke-width: 2"/><line x1="408" x2="408" y1="221.5" y2="1084.5" class="net_247,248 width_2" style="stroke-width: 2"/><line x1="408" x2="481" y1="1084.5" y2="1084.5" class="net_247,248 width_2" style="stroke-width: 2"/><line x1="288" x2="318" y1="221.5" y2="221.5" class="net_247,248 width_2" style="stroke-width: 2"/><line x1="318" x2="318" y1="221.5" y2="1087.5" class="net_247,248 width_2" style="stroke-width: 2"/><line x1="318" x2="388" y1="1087.5" y2="1087.5" class="net_247,248 width_2" style="stroke-width: 2"/><line x1="388" x2="388" y1="1087.5" y2="1124.5" class="net_247,248 width_2" style="stroke-width: 2"/><line x1="388" x2="481" y1="1124.5" y2="1124.5" class="net_247,248 width_2" style="stroke-width: 2"/><line x1="288" x2="398" y1="286.5" y2="286.5" class="net_251,252 width_2" style="stroke-width: 2"/><line x1="398" x2="398" y1="286.5" y2="1104.5" class="net_251,252 width_2" style="stroke-width: 2"/><line x1="398" x2="481" y1="1104.5" y2="1104.5" class="net_251,252 width_2" style="stroke-width: 2"/><line x1="358" x2="368" y1="1135.5" y2="1135.5" class="net_2 width_1" style="stroke-width: 1"/><line x1="368" x2="368" y1="1135.5" y2="1164.5" class="net_2 width_1" style="stroke-width: 1"/><line x1="368" x2="481" y1="1164.5" y2="1164.5" class="net_2 width_1" style="stroke-width: 1"/><line x1="287" x2="308" y1="351.5" y2="351.5" class="net_9,10,11,12,13,14,15,16,17,18,19,20,21,22,23,24,25,26,27,28,29,30,31,32,33,34,35,36,37,38,39,40 width_32" style="stroke-width: 2"/><line x1="308" x2="308" y1="351.5" y2="1184.5" class="net_9,10,11,12,13,14,15,16,17,18,19,20,21,22,23,24,25,26,27,28,29,30,31,32,33,34,35,36,37,38,39,40 width_32" style="stroke-width: 2"/><line x1="308" x2="481" y1="1184.5" y2="1184.5" class="net_9,10,11,12,13,14,15,16,17,18,19,20,21,22,23,24,25,26,27,28,29,30,31,32,33,34,35,36,37,38,39,40 width_32" style="stroke-width: 2"/><line x1="281.56" x2="298" y1="734" y2="734" class="net_182,182,182,182,182,182,182,182,182,182,182,182,182,182,182,182,182,182,182,182,182,182,182,182,182,182,182,182,182,182,182,182 width_32" style="stroke-width: 2"/><line x1="298" x2="298" y1="734" y2="1204.5" class="net_182,182,182,182,182,182,182,182,182,182,182,182,182,182,182,182,182,182,182,182,182,182,182,182,182,182,182,182,182,182,182,182 width_32" style="stroke-width: 2"/><line x1="298" x2="481" y1="1204.5" y2="1204.5" class="net_182,182,182,182,182,182,182,182,182,182,182,182,182,182,182,182,182,182,182,182,182,182,182,182,182,182,182,182,182,182,182,182 width_32" style="stroke-width: 2"/><line x1="792.5" x2="866.5" y1="1167" y2="1167" class="net_51,52,53,54,55,56,57,58,59,60,61,62,63,64,65,66,67,68,69,70,71,72,73,74,75,76,77,78,79,80,81,82 width_32" style="stroke-width: 2"/><line x1="792.5" x2="866.5" y1="1287" y2="1287" class="net_83,84,85,86,87,88,89,90,91,92,93,94,95,96,97,98,99,100,101,102,103,104,105,106,107,108,109,110,111,112,113,114 width_32" style="stroke-width: 2"/><line x1="222" x2="232" y1="964" y2="964" class="net_182 width_1" style="stroke-width: 1"/><line x1="232" x2="232" y1="964" y2="401.5" class="net_182 width_1" style="stroke-width: 1"/><line x1="232" x2="276.06" y1="401.5" y2="401.5" class="net_182 width_1" style="stroke-width: 1"/><circle cx="232" cy="964" r="2" style="fill:#000" class="net_182 width_1"/><circle cx="232" cy="401.5" r="2" style="fill:#000" class="net_182 width_1"/><line x1="276.06" x2="276.06" y1="401.5" y2="423.5" class="net_182 width_1" style="stroke-width: 1"/><line x1="222" x2="232" y1="964" y2="964" class="net_182 width_1" style="stroke-width: 1"/><line x1="232" x2="232" y1="964" y2="391.5" class="net_182 width_1" style="stroke-width: 1"/><line x1="232" x2="276.06" y1="391.5" y2="391.5" class="net_182 width_1" style="stroke-width: 1"/><circle cx="232" cy="391.5" r="2" style="fill:#000" class="net_182 width_1"/><line x1="276.06" x2="276.06" y1="391.5" y2="443.5" class="net_182 width_1" style="stroke-width: 1"/><line x1="222" x2="232" y1="964" y2="964" class="net_182 width_1" style="stroke-width: 1"/><line x1="232" x2="232" y1="964" y2="381.5" class="net_182 width_1" style="stroke-width: 1"/><line x1="232" x2="276.06" y1="381.5" y2="381.5" class="net_182 width_1" style="stroke-width: 1"/><circle cx="232" cy="381.5" r="2" style="fill:#000" class="net_182 width_1"/><line x1="276.06" x2="276.06" y1="381.5" y2="463.5" class="net_182 width_1" style="stroke-width: 1"/><line x1="222" x2="232" y1="964" y2="964" class="net_182 width_1" style="stroke-width: 1"/><line x1="232" x2="232" y1="964" y2="371.5" class="net_182 width_1" style="stroke-width: 1"/><line x1="232" x2="276.06" y1="371.5" y2="371.5" class="net_182 width_1" style="stroke-width: 1"/><line x1="276.06" x2="276.06" y1="371.5" y2="483.5" class="net_182 width_1" style="stroke-width: 1"/><line x1="222" x2="232" y1="964" y2="964" class="net_182 width_1" style="stroke-width: 1"/><line x1="232" x2="232" y1="964" y2="504" class="net_182 width_1" style="stroke-width: 1"/><circle cx="232" cy="504" r="2" style="fill:#000" class="net_182 width_1"/><line x1="232" x2="275.56" y1="504" y2="504" class="net_182 width_1" style="stroke-width: 1"/><line x1="222" x2="232" y1="964" y2="964" class="net_182 width_1" style="stroke-width: 1"/><line x1="232" x2="232" y1="964" y2="524" class="net_182 width_1" style="stroke-width: 1"/><circle cx="232" cy="524" r="2" style="fill:#000" class="net_182 width_1"/><line x1="232" x2="275.56" y1="524" y2="524" class="net_182 width_1" style="stroke-width: 1"/><line x1="222" x2="232" y1="964" y2="964" class="net_182 width_1" style="stroke-width: 1"/><line x1="232" x2="232" y1="964" y2="544" class="net_182 width_1" style="stroke-width: 1"/><circle cx="232" cy="544" r="2" style="fill:#000" class="net_182 width_1"/><line x1="232" x2="275.56" y1="544" y2="544" class="net_182 width_1" style="stroke-width: 1"/><line x1="222" x2="232" y1="964" y2="964" class="net_182 width_1" style="stroke-width: 1"/><line x1="232" x2="232" y1="964" y2="564" class="net_182 width_1" style="stroke-width: 1"/><circle cx="232" cy="564" r="2" style="fill:#000" class="net_182 width_1"/><line x1="232" x2="275.56" y1="564" y2="564" class="net_182 width_1" style="stroke-width: 1"/><line x1="222" x2="232" y1="964" y2="964" class="net_182 width_1" style="stroke-width: 1"/><line x1="232" x2="232" y1="964" y2="584" class="net_182 width_1" style="stroke-width: 1"/><circle cx="232" cy="584" r="2" style="fill:#000" class="net_182 width_1"/><line x1="232" x2="275.56" y1="584" y2="584" class="net_182 width_1" style="stroke-width: 1"/><line x1="222" x2="232" y1="964" y2="964" class="net_182 width_1" style="stroke-width: 1"/><line x1="232" x2="232" y1="964" y2="604" class="net_182 width_1" style="stroke-width: 1"/><circle cx="232" cy="604" r="2" style="fill:#000" class="net_182 width_1"/><line x1="232" x2="275.56" y1="604" y2="604" class="net_182 width_1" style="stroke-width: 1"/><line x1="222" x2="232" y1="964" y2="964" class="net_182 width_1" style="stroke-width: 1"/><line x1="232" x2="232" y1="964" y2="624" class="net_182 width_1" style="stroke-width: 1"/><circle cx="232" cy="624" r="2" style="fill:#000" class="net_182 width_1"/><line x1="232" x2="275.56" y1="624" y2="624" class="net_182 width_1" style="stroke-width: 1"/><line x1="222" x2="232" y1="964" y2="964" class="net_182 width_1" style="stroke-width: 1"/><line x1="232" x2="232" y1="964" y2="644" class="net_182 width_1" style="stroke-width: 1"/><circle cx="232" cy="644" r="2" style="fill:#000" class="net_182 width_1"/><line x1="232" x2="275.56" y1="644" y2="644" class="net_182 width_1" style="stroke-width: 1"/><line x1="222" x2="232" y1="964" y2="964" class="net_182 width_1" style="stroke-width: 1"/><line x1="232" x2="232" y1="964" y2="664" class="net_182 width_1" style="stroke-width: 1"/><circle cx="232" cy="664" r="2" style="fill:#000" class="net_182 width_1"/><line x1="232" x2="275.56" y1="664" y2="664" class="net_182 width_1" style="stroke-width: 1"/><line x1="222" x2="232" y1="964" y2="964" class="net_182 width_1" style="stroke-width: 1"/><line x1="232" x2="232" y1="964" y2="684" class="net_182 width_1" style="stroke-width: 1"/><circle cx="232" cy="684" r="2" style="fill:#000" class="net_182 width_1"/><line x1="232" x2="275.56" y1="684" y2="684" class="net_182 width_1" style="stroke-width: 1"/><line x1="222" x2="232" y1="964" y2="964" class="net_182 width_1" style="stroke-width: 1"/><line x1="232" x2="232" y1="964" y2="704" class="net_182 width_1" style="stroke-width: 1"/><circle cx="232" cy="704" r="2" style="fill:#000" class="net_182 width_1"/><line x1="232" x2="275.56" y1="704" y2="704" class="net_182 width_1" style="stroke-width: 1"/><line x1="222" x2="232" y1="964" y2="964" class="net_182 width_1" style="stroke-width: 1"/><line x1="232" x2="232" y1="964" y2="724" class="net_182 width_1" style="stroke-width: 1"/><circle cx="232" cy="724" r="2" style="fill:#000" class="net_182 width_1"/><line x1="232" x2="275.56" y1="724" y2="724" class="net_182 width_1" style="stroke-width: 1"/><line x1="222" x2="232" y1="964" y2="964" class="net_182 width_1" style="stroke-width: 1"/><line x1="232" x2="232" y1="964" y2="744" class="net_182 width_1" style="stroke-width: 1"/><circle cx="232" cy="744" r="2" style="fill:#000" class="net_182 width_1"/><line x1="232" x2="275.56" y1="744" y2="744" class="net_182 width_1" style="stroke-width: 1"/><line x1="222" x2="232" y1="964" y2="964" class="net_182 width_1" style="stroke-width: 1"/><line x1="232" x2="232" y1="964" y2="764" class="net_182 width_1" style="stroke-width: 1"/><circle cx="232" cy="764" r="2" style="fill:#000" class="net_182 width_1"/><line x1="232" x2="275.56" y1="764" y2="764" class="net_182 width_1" style="stroke-width: 1"/><line x1="222" x2="232" y1="964" y2="964" class="net_182 width_1" style="stroke-width: 1"/><line x1="232" x2="232" y1="964" y2="784" class="net_182 width_1" style="stroke-width: 1"/><circle cx="232" cy="784" r="2" style="fill:#000" class="net_182 width_1"/><line x1="232" x2="275.56" y1="784" y2="784" class="net_182 width_1" style="stroke-width: 1"/><line x1="222" x2="232" y1="964" y2="964" class="net_182 width_1" style="stroke-width: 1"/><line x1="232" x2="232" y1="964" y2="804" class="net_182 width_1" style="stroke-width: 1"/><circle cx="232" cy="804" r="2" style="fill:#000" class="net_182 width_1"/><line x1="232" x2="275.56" y1="804" y2="804" class="net_182 width_1" style="stroke-width: 1"/><line x1="222" x2="232" y1="964" y2="964" class="net_182 width_1" style="stroke-width: 1"/><line x1="232" x2="232" y1="964" y2="824" class="net_182 width_1" style="stroke-width: 1"/><circle cx="232" cy="824" r="2" style="fill:#000" class="net_182 width_1"/><line x1="232" x2="275.56" y1="824" y2="824" class="net_182 width_1" style="stroke-width: 1"/><line x1="222" x2="232" y1="964" y2="964" class="net_182 width_1" style="stroke-width: 1"/><line x1="232" x2="232" y1="964" y2="844" class="net_182 width_1" style="stroke-width: 1"/><circle cx="232" cy="844" r="2" style="fill:#000" class="net_182 width_1"/><line x1="232" x2="275.56" y1="844" y2="844" class="net_182 width_1" style="stroke-width: 1"/><line x1="222" x2="232" y1="964" y2="964" class="net_182 width_1" style="stroke-width: 1"/><line x1="232" x2="232" y1="964" y2="864" class="net_182 width_1" style="stroke-width: 1"/><circle cx="232" cy="864" r="2" style="fill:#000" class="net_182 width_1"/><line x1="232" x2="275.56" y1="864" y2="864" class="net_182 width_1" style="stroke-width: 1"/><line x1="222" x2="232" y1="964" y2="964" class="net_182 width_1" style="stroke-width: 1"/><line x1="232" x2="232" y1="964" y2="884" class="net_182 width_1" style="stroke-width: 1"/><circle cx="232" cy="884" r="2" style="fill:#000" class="net_182 width_1"/><line x1="232" x2="275.56" y1="884" y2="884" class="net_182 width_1" style="stroke-width: 1"/><line x1="222" x2="232" y1="964" y2="964" class="net_182 width_1" style="stroke-width: 1"/><line x1="232" x2="232" y1="964" y2="904" class="net_182 width_1" style="stroke-width: 1"/><circle cx="232" cy="904" r="2" style="fill:#000" class="net_182 width_1"/><line x1="232" x2="275.56" y1="904" y2="904" class="net_182 width_1" style="stroke-width: 1"/><line x1="222" x2="232" y1="964" y2="964" class="net_182 width_1" style="stroke-width: 1"/><line x1="232" x2="232" y1="964" y2="924" class="net_182 width_1" style="stroke-width: 1"/><circle cx="232" cy="924" r="2" style="fill:#000" class="net_182 width_1"/><line x1="232" x2="275.56" y1="924" y2="924" class="net_182 width_1" style="stroke-width: 1"/><line x1="222" x2="232" y1="964" y2="964" class="net_182 width_1" style="stroke-width: 1"/><line x1="232" x2="232" y1="964" y2="944" class="net_182 width_1" style="stroke-width: 1"/><circle cx="232" cy="944" r="2" style="fill:#000" class="net_182 width_1"/><line x1="232" x2="275.56" y1="944" y2="944" class="net_182 width_1" style="stroke-width: 1"/><line x1="222" x2="275.56" y1="964" y2="964" class="net_182 width_1" style="stroke-width: 1"/><line x1="222" x2="232" y1="964" y2="964" class="net_182 width_1" style="stroke-width: 1"/><line x1="232" x2="232" y1="964" y2="1093.5" class="net_182 width_1" style="stroke-width: 1"/><line x1="232" x2="276.06" y1="1093.5" y2="1093.5" class="net_182 width_1" style="stroke-width: 1"/><line x1="276.06" x2="276.06" y1="1093.5" y2="984.5" class="net_182 width_1" style="stroke-width: 1"/><line x1="222" x2="232" y1="964" y2="964" class="net_182 width_1" style="stroke-width: 1"/><line x1="232" x2="232" y1="964" y2="1083.5" class="net_182 width_1" style="stroke-width: 1"/><line x1="232" x2="276.06" y1="1083.5" y2="1083.5" class="net_182 width_1" style="stroke-width: 1"/><circle cx="232" cy="1083.5" r="2" style="fill:#000" class="net_182 width_1"/><line x1="276.06" x2="276.06" y1="1083.5" y2="1004.5" class="net_182 width_1" style="stroke-width: 1"/><line x1="222" x2="232" y1="964" y2="964" class="net_182 width_1" style="stroke-width: 1"/><line x1="232" x2="232" y1="964" y2="1073.5" class="net_182 width_1" style="stroke-width: 1"/><line x1="232" x2="276.06" y1="1073.5" y2="1073.5" class="net_182 width_1" style="stroke-width: 1"/><circle cx="232" cy="1073.5" r="2" style="fill:#000" class="net_182 width_1"/><line x1="276.06" x2="276.06" y1="1073.5" y2="1024.5" class="net_182 width_1" style="stroke-width: 1"/><line x1="222" x2="232" y1="964" y2="964" class="net_182 width_1" style="stroke-width: 1"/><line x1="232" x2="232" y1="964" y2="1063.5" class="net_182 width_1" style="stroke-width: 1"/><line x1="232" x2="276.06" y1="1063.5" y2="1063.5" class="net_182 width_1" style="stroke-width: 1"/><circle cx="232" cy="1063.5" r="2" style="fill:#000" class="net_182 width_1"/><line x1="276.06" x2="276.06" y1="1063.5" y2="1044.5" class="net_182 width_1" style="stroke-width: 1"/><line x1="513" x2="630" y1="1044.5" y2="1044.5" class="net_149,150,151,152,153,154,155,156,157,158,159,160,161,162,163,164,165,166,167,168,169,170,171,172,173,174,175,176,177,178,179,180,116,117,118,119,120,121,122,123,124,125,126,127,128,129,130,131,132,133,134,135,136,137,138,139,140,141,142,143,144,145,146,147 width_64" style="stroke-width: 2"/><rect x="206" y="152" width="16" height="9" class="net_41,42,43,44,45 width_5 busLabel_5" style="fill: white; stroke: none"/><text x="205" y="160" class="net_41,42,43,44,45 width_5 busLabel_5">/5/</text><rect x="206" y="152" width="16" height="9" class="net_41,42,43,44,45 width_5 busLabel_5" style="fill: white; stroke: none"/><text x="205" y="160" class="net_41,42,43,44,45 width_5 busLabel_5">/5/</text><rect x="715.5" y="1029.5" width="22" height="9" class="net_116,117,118,119,120,121,122,123,124,125,126,127,128,129,130,131,132,133,134,135,136,137,138,139,140,141,142,143,144,145,146,147 width_32 busLabel_32" style="fill: white; stroke: none"/><text x="714.5" y="1037.5" class="net_116,117,118,119,120,121,122,123,124,125,126,127,128,129,130,131,132,133,134,135,136,137,138,139,140,141,142,143,144,145,146,147 width_32 busLabel_32">/32/</text><rect x="715.5" y="1292" width="22" height="9" class="net_183,184,185,186,187,188,189,190,191,192,193,194,195,196,197,198,199,200,201,202,203,204,205,206,207,208,209,210,211,212,213,214 width_32 busLabel_32" style="fill: white; stroke: none"/><text x="714.5" y="1300" class="net_183,184,185,186,187,188,189,190,191,192,193,194,195,196,197,198,199,200,201,202,203,204,205,206,207,208,209,210,211,212,213,214 width_32 busLabel_32">/32/</text><rect x="715.5" y="1292" width="22" height="9" class="net_183,184,185,186,187,188,189,190,191,192,193,194,195,196,197,198,199,200,201,202,203,204,205,206,207,208,209,210,211,212,213,214 width_32 busLabel_32" style="fill: white; stroke: none"/><text x="714.5" y="1300" class="net_183,184,185,186,187,188,189,190,191,192,193,194,195,196,197,198,199,200,201,202,203,204,205,206,207,208,209,210,211,212,213,214 width_32 busLabel_32">/32/</text><rect x="206" y="87" width="16" height="9" class="net_46,47,48,49,50 width_5 busLabel_5" style="fill: white; stroke: none"/><text x="205" y="95" class="net_46,47,48,49,50 width_5 busLabel_5">/5/</text><rect x="206" y="87" width="16" height="9" class="net_46,47,48,49,50 width_5 busLabel_5" style="fill: white; stroke: none"/><text x="205" y="95" class="net_46,47,48,49,50 width_5 busLabel_5">/5/</text><rect x="715.5" y="1272" width="22" height="9" class="net_149,150,151,152,153,154,155,156,157,158,159,160,161,162,163,164,165,166,167,168,169,170,171,172,173,174,175,176,177,178,179,180 width_32 busLabel_32" style="fill: white; stroke: none"/><text x="714.5" y="1280" class="net_149,150,151,152,153,154,155,156,157,158,159,160,161,162,163,164,165,166,167,168,169,170,171,172,173,174,175,176,177,178,179,180 width_32 busLabel_32">/32/</text><rect x="206" y="1099.5" width="16" height="9" class="net_4,5,6,7,8 width_5 busLabel_5" style="fill: white; stroke: none"/><text x="205" y="1107.5" class="net_4,5,6,7,8 width_5 busLabel_5">/5/</text><rect x="206" y="1099.5" width="16" height="9" class="net_4,5,6,7,8 width_5 busLabel_5" style="fill: white; stroke: none"/><text x="205" y="1107.5" class="net_4,5,6,7,8 width_5 busLabel_5">/5/</text><rect x="342" y="142" width="22" height="9" class="net_46,47,48,49,50,41,42,43,44,45 width_10 busLabel_10" style="fill: white; stroke: none"/><text x="341" y="150" class="net_46,47,48,49,50,41,42,43,44,45 width_10 busLabel_10">/10/</text><rect x="342" y="1082.5" width="16" height="9" class="net_247,248 width_2 busLabel_2" style="fill: white; stroke: none"/><text x="341" y="1090.5" class="net_247,248 width_2 busLabel_2">/2/</text><rect x="342" y="1082.5" width="16" height="9" class="net_247,248 width_2 busLabel_2" style="fill: white; stroke: none"/><text x="341" y="1090.5" class="net_247,248 width_2 busLabel_2">/2/</text><rect x="342" y="1082.5" width="16" height="9" class="net_247,248 width_2 busLabel_2" style="fill: white; stroke: none"/><text x="341" y="1090.5" class="net_247,248 width_2 busLabel_2">/2/</text><rect x="342" y="281.5" width="16" height="9" class="net_251,252 width_2 busLabel_2" style="fill: white; stroke: none"/><text x="341" y="289.5" class="net_251,252 width_2 busLabel_2">/2/</text><rect x="342" y="1179.5" width="22" height="9" class="net_9,10,11,12,13,14,15,16,17,18,19,20,21,22,23,24,25,26,27,28,29,30,31,32,33,34,35,36,37,38,39,40 width_32 busLabel_32" style="fill: white; stroke: none"/><text x="341" y="1187.5" class="net_9,10,11,12,13,14,15,16,17,18,19,20,21,22,23,24,25,26,27,28,29,30,31,32,33,34,35,36,37,38,39,40 width_32 busLabel_32">/32/</text><rect x="342" y="1199.5" width="22" height="9" class="net_182,182,182,182,182,182,182,182,182,182,182,182,182,182,182,182,182,182,182,182,182,182,182,182,182,182,182,182,182,182,182,182 width_32 busLabel_32" style="fill: white; stroke: none"/><text x="341" y="1207.5" class="net_182,182,182,182,182,182,182,182,182,182,182,182,182,182,182,182,182,182,182,182,182,182,182,182,182,182,182,182,182,182,182,182 width_32 busLabel_32">/32/</text><rect x="828.5" y="1162" width="22" height="9" class="net_51,52,53,54,55,56,57,58,59,60,61,62,63,64,65,66,67,68,69,70,71,72,73,74,75,76,77,78,79,80,81,82 width_32 busLabel_32" style="fill: white; stroke: none"/><text x="827.5" y="1170" class="net_51,52,53,54,55,56,57,58,59,60,61,62,63,64,65,66,67,68,69,70,71,72,73,74,75,76,77,78,79,80,81,82 width_32 busLabel_32">/32/</text><rect x="828.5" y="1282" width="22" height="9" class="net_83,84,85,86,87,88,89,90,91,92,93,94,95,96,97,98,99,100,101,102,103,104,105,106,107,108,109,110,111,112,113,114 width_32 busLabel_32" style="fill: white; stroke: none"/><text x="827.5" y="1290" class="net_83,84,85,86,87,88,89,90,91,92,93,94,95,96,97,98,99,100,101,102,103,104,105,106,107,108,109,110,111,112,113,114 width_32 busLabel_32">/32/</text><rect x="592" y="1039.5" width="22" height="9" class="net_149,150,151,152,153,154,155,156,157,158,159,160,161,162,163,164,165,166,167,168,169,170,171,172,173,174,175,176,177,178,179,180,116,117,118,119,120,121,122,123,124,125,126,127,128,129,130,131,132,133,134,135,136,137,138,139,140,141,142,143,144,145,146,147 width_64 busLabel_64" style="fill: white; stroke: none"/><text x="591" y="1047.5" class="net_149,150,151,152,153,154,155,156,157,158,159,160,161,162,163,164,165,166,167,168,169,170,171,172,173,174,175,176,177,178,179,180,116,117,118,119,120,121,122,123,124,125,126,127,128,129,130,131,132,133,134,135,136,137,138,139,140,141,142,143,144,145,146,147 width_64 busLabel_64">/64/</text></svg>