<svg xmlns="http://www.w3.org/2000/svg" xmlns:xlink="http://www.w3.org/1999/xlink" xmlns:s="https://github.com/nturley/netlistsvg" width="994.5" height="1282"><style>svg {
  stroke:#000;
  fill:none;
}
text {
  fill:#000;
  stroke:none;
  font-size:10px;
  font-weight: bold;
  font-family: "Courier New", monospace;
}
line {
    stroke-linecap: round;
}
.nodelabel {
  text-anchor: middle;
}
.inputPortLabel {
  text-anchor: end;
}
.splitjoinBody {
  fill:#000;
}</style><g s:type="not" transform="translate(777,91)" s:width="30" s:height="20" id="cell_$eq$regfile_rv32.v:31$44"><s:alias val="$_NOT_"/><s:alias val="$not"/><s:alias val="$logic_not"/><path d="M0,0 L0,20 L20,10 Z" fill="#ffffff" class="cell_$eq$regfile_rv32.v:31$44"/><circle cx="24" cy="10" r="3" fill="#ffffff" class="cell_$eq$regfile_rv32.v:31$44"/><g s:x="-1" s:y="10" s:pid="A"/><g s:x="27" s:y="10" s:pid="Y"/></g><g s:type="not" transform="translate(777,924)" s:width="30" s:height="20" id="cell_$eq$regfile_rv32.v:32$47"><s:alias val="$_NOT_"/><s:alias val="$not"/><s:alias val="$logic_not"/><path d="M0,0 L0,20 L20,10 Z" fill="#ffffff" class="cell_$eq$regfile_rv32.v:32$47"/><circle cx="24" cy="10" r="3" fill="#ffffff" class="cell_$eq$regfile_rv32.v:32$47"/><g s:x="-1" s:y="10" s:pid="A"/><g s:x="27" s:y="10" s:pid="Y"/></g><g s:type="and" transform="translate(183,525.5)" s:width="30" s:height="25" id="cell_$logic_and$regfile_rv32.v:28$40"><s:alias val="$and"/><s:alias val="$logic_and"/><s:alias val="$_AND_"/><s:alias val="$reduce_and"/><path d="M0,0 L0,25 L15,25 A15 12.5 0 0 0 15,0 Z" fill="#ffffff" class="cell_$logic_and$regfile_rv32.v:28$40"/><g s:x="0" s:y="5" s:pid="A"/><g s:x="0" s:y="20" s:pid="B"/><g s:x="30" s:y="12.5" s:pid="Y"/></g><g s:type="or" transform="translate(116,533)" s:width="30" s:height="25" id="cell_$ne$regfile_rv32.v:28$39"><s:alias val="$or"/><s:alias val="$logic_or"/><s:alias val="$_OR_"/><s:alias val="$reduce_or"/><s:alias val="$reduce_bool"/><path d="M0,0 A30 25 0 0 1 0,25 A30 25 0 0 0 30,12.5 A30 25 0 0 0 0,0" fill="#ffffff" class="cell_$ne$regfile_rv32.v:28$39"/><g s:x="2" s:y="5" s:pid="A"/><g s:x="2" s:y="20" s:pid="B"/><g s:x="30" s:y="12.5" s:pid="Y"/></g><g s:type="mux" transform="translate(252,1120.5)" s:width="20" s:height="40" id="cell_$procmux$116"><s:alias val="$pmux"/><s:alias val="$mux"/><s:alias val="$_MUX_"/><path d="M0,0 L20,10 L20,30 L0,40 Z" fill="#ffffff" class="cell_$procmux$116"/><text x="5" y="32" class="nodelabel cell_$procmux$116" s:attribute="">1</text><text x="5" y="13" class="nodelabel cell_$procmux$116" s:attribute="">0</text><g s:x="0" s:y="10" s:pid="A"/><g s:x="0" s:y="30" s:pid="B"/><g s:x="10" s:y="35" s:pid="S"/><g s:x="20" s:y="20" s:pid="Y"/></g><g s:type="mux-bus" transform="translate(328.5,429.5)" s:width="24" s:height="40" id="cell_$procmux$119"><s:alias val="$pmux-bus"/><s:alias val="$mux-bus"/><s:alias val="$_MUX_-bus"/><path d="M0,0 L20,10 L20,30 L0,40 Z" fill="#ffffff" class="cell_$procmux$119"/><path d="M4,2 L4,0 L22,9 L22,31 L4,40 L4,38" fill="#ffffff" class="cell_$procmux$119"/><path d="M8,2 L8,0 L24,8 L24,32 L8,40 L8,38" fill="#ffffff" class="cell_$procmux$119"/><text x="5" y="32" class="nodelabel cell_$procmux$119" s:attribute="">1</text><text x="5" y="13" class="nodelabel cell_$procmux$119" s:attribute="">0</text><g s:x="-1" s:y="10" s:pid="A"/><g s:x="-1" s:y="30" s:pid="B"/><g s:x="12" s:y="38" s:pid="S"/><g s:x="24.5" s:y="20" s:pid="Y"/></g><g s:type="mux-bus" transform="translate(328.5,23)" s:width="24" s:height="40" id="cell_$procmux$122"><s:alias val="$pmux-bus"/><s:alias val="$mux-bus"/><s:alias val="$_MUX_-bus"/><path d="M0,0 L20,10 L20,30 L0,40 Z" fill="#ffffff" class="cell_$procmux$122"/><path d="M4,2 L4,0 L22,9 L22,31 L4,40 L4,38" fill="#ffffff" class="cell_$procmux$122"/><path d="M8,2 L8,0 L24,8 L24,32 L8,40 L8,38" fill="#ffffff" class="cell_$procmux$122"/><text x="5" y="32" class="nodelabel cell_$procmux$122" s:attribute="">1</text><text x="5" y="13" class="nodelabel cell_$procmux$122" s:attribute="">0</text><g s:x="-1" s:y="10" s:pid="A"/><g s:x="-1" s:y="30" s:pid="B"/><g s:x="12" s:y="38" s:pid="S"/><g s:x="24.5" s:y="20" s:pid="Y"/></g><g s:type="mux-bus" transform="translate(848,788)" s:width="24" s:height="40" id="cell_$ternary$regfile_rv32.v:31$46"><s:alias val="$pmux-bus"/><s:alias val="$mux-bus"/><s:alias val="$_MUX_-bus"/><path d="M0,0 L20,10 L20,30 L0,40 Z" fill="#ffffff" class="cell_$ternary$regfile_rv32.v:31$46"/><path d="M4,2 L4,0 L22,9 L22,31 L4,40 L4,38" fill="#ffffff" class="cell_$ternary$regfile_rv32.v:31$46"/><path d="M8,2 L8,0 L24,8 L24,32 L8,40 L8,38" fill="#ffffff" class="cell_$ternary$regfile_rv32.v:31$46"/><text x="5" y="32" class="nodelabel cell_$ternary$regfile_rv32.v:31$46" s:attribute="">1</text><text x="5" y="13" class="nodelabel cell_$ternary$regfile_rv32.v:31$46" s:attribute="">0</text><g s:x="-1" s:y="10" s:pid="A"/><g s:x="-1" s:y="30" s:pid="B"/><g s:x="12" s:y="38" s:pid="S"/><g s:x="24.5" s:y="20" s:pid="Y"/></g><g s:type="mux-bus" transform="translate(848,853)" s:width="24" s:height="40" id="cell_$ternary$regfile_rv32.v:32$49"><s:alias val="$pmux-bus"/><s:alias val="$mux-bus"/><s:alias val="$_MUX_-bus"/><path d="M0,0 L20,10 L20,30 L0,40 Z" fill="#ffffff" class="cell_$ternary$regfile_rv32.v:32$49"/><path d="M4,2 L4,0 L22,9 L22,31 L4,40 L4,38" fill="#ffffff" class="cell_$ternary$regfile_rv32.v:32$49"/><path d="M8,2 L8,0 L24,8 L24,32 L8,40 L8,38" fill="#ffffff" class="cell_$ternary$regfile_rv32.v:32$49"/><text x="5" y="32" class="nodelabel cell_$ternary$regfile_rv32.v:32$49" s:attribute="">1</text><text x="5" y="13" class="nodelabel cell_$ternary$regfile_rv32.v:32$49" s:attribute="">0</text><g s:x="-1" s:y="10" s:pid="A"/><g s:x="-1" s:y="30" s:pid="B"/><g s:x="12" s:y="38" s:pid="S"/><g s:x="24.5" s:y="20" s:pid="Y"/></g><g s:type="generic" transform="translate(562,740)" s:width="30" s:height="40" id="cell_regs"><text x="15" y="-4" class="nodelabel cell_regs" s:attribute="ref">RAM</text><rect width="30" height="180" s:generic="body" fill="#ffffff" class="cell_regs"/><g transform="translate(0,10)" s:x="0" s:y="10" s:pid="in0" id="port_regs~RD_ADDR"><text x="-3" y="-4" class="inputPortLabel cell_regs">RD_ADDR</text></g><g transform="translate(0,30)" s:x="0" s:y="10" s:pid="in0" id="port_regs~RD_ARST"><text x="-3" y="-4" class="inputPortLabel cell_regs">RD_ARST</text></g><g transform="translate(0,50)" s:x="0" s:y="10" s:pid="in0" id="port_regs~RD_CLK"><text x="-3" y="-4" class="inputPortLabel cell_regs">RD_CLK</text></g><g transform="translate(0,70)" s:x="0" s:y="10" s:pid="in0" id="port_regs~RD_EN"><text x="-3" y="-4" class="inputPortLabel cell_regs">RD_EN</text></g><g transform="translate(0,90)" s:x="0" s:y="10" s:pid="in0" id="port_regs~RD_SRST"><text x="-3" y="-4" class="inputPortLabel cell_regs">RD_SRST</text></g><g transform="translate(0,110)" s:x="0" s:y="10" s:pid="in0" id="port_regs~WR_ADDR"><text x="-3" y="-4" class="inputPortLabel cell_regs">WR_ADDR</text></g><g transform="translate(0,130)" s:x="0" s:y="10" s:pid="in0" id="port_regs~WR_CLK"><text x="-3" y="-4" class="inputPortLabel cell_regs">WR_CLK</text></g><g transform="translate(0,150)" s:x="0" s:y="10" s:pid="in0" id="port_regs~WR_DATA"><text x="-3" y="-4" class="inputPortLabel cell_regs">WR_DATA</text></g><g transform="translate(0,170)" s:x="0" s:y="10" s:pid="in0" id="port_regs~WR_EN"><text x="-3" y="-4" class="inputPortLabel cell_regs">WR_EN</text></g><g transform="translate(30,10)" s:x="30" s:y="10" s:pid="out0" id="port_regs~RD_DATA"><text x="5" y="-4" style="fill:#000; stroke:none" class="cell_regs">RD_DATA</text></g></g><g s:type="inputExt" transform="translate(388,390.5)" s:width="30" s:height="20" id="cell_clk"><text x="15" y="-4" class="nodelabel cell_clk" s:attribute="ref">clk</text><s:alias val="$_inputExt_"/><path d="M0,0 L0,20 L15,20 L30,10 L15,0 Z" fill="#ffffff" class="cell_clk"/><g s:x="30" s:y="10" s:pid="Y"/></g><g s:type="inputExt" transform="translate(116,478)" s:width="30" s:height="20" id="cell_we"><text x="15" y="-4" class="nodelabel cell_we" s:attribute="ref">we</text><s:alias val="$_inputExt_"/><path d="M0,0 L0,20 L15,20 L30,10 L15,0 Z" fill="#ffffff" class="cell_we"/><g s:x="30" s:y="10" s:pid="Y"/></g><g s:type="inputExt" transform="translate(12,528)" s:width="30" s:height="20" id="cell_waddr"><text x="15" y="-4" class="nodelabel cell_waddr" s:attribute="ref">waddr</text><s:alias val="$_inputExt_"/><path d="M0,0 L0,20 L15,20 L30,10 L15,0 Z" fill="#ffffff" class="cell_waddr"/><g s:x="30" s:y="10" s:pid="Y"/></g><g s:type="inputExt" transform="translate(181,319.5)" s:width="30" s:height="20" id="cell_wdata"><text x="15" y="-4" class="nodelabel cell_wdata" s:attribute="ref">wdata</text><s:alias val="$_inputExt_"/><path d="M0,0 L0,20 L15,20 L30,10 L15,0 Z" fill="#ffffff" class="cell_wdata"/><g s:x="30" s:y="10" s:pid="Y"/></g><g s:type="inputExt" transform="translate(181,254.5)" s:width="30" s:height="20" id="cell_raddr1"><text x="15" y="-4" class="nodelabel cell_raddr1" s:attribute="ref">raddr1</text><s:alias val="$_inputExt_"/><path d="M0,0 L0,20 L15,20 L30,10 L15,0 Z" fill="#ffffff" class="cell_raddr1"/><g s:x="30" s:y="10" s:pid="Y"/></g><g s:type="outputExt" transform="translate(946.5,798)" s:width="30" s:height="20" id="cell_rdata1"><text x="15" y="-4" class="nodelabel cell_rdata1" s:attribute="ref">rdata1</text><s:alias val="$_outputExt_"/><path d="M30,0 L30,20 L15,20 L0,10 L15,0 Z" fill="#ffffff" class="cell_rdata1"/><g s:x="0" s:y="10" s:pid="A"/></g><g s:type="inputExt" transform="translate(181,470.5)" s:width="30" s:height="20" id="cell_raddr2"><text x="15" y="-4" class="nodelabel cell_raddr2" s:attribute="ref">raddr2</text><s:alias val="$_inputExt_"/><path d="M0,0 L0,20 L15,20 L30,10 L15,0 Z" fill="#ffffff" class="cell_raddr2"/><g s:x="30" s:y="10" s:pid="Y"/></g><g s:type="outputExt" transform="translate(946.5,863)" s:width="30" s:height="20" id="cell_rdata2"><text x="15" y="-4" class="nodelabel cell_rdata2" s:attribute="ref">rdata2</text><s:alias val="$_outputExt_"/><path d="M30,0 L30,20 L15,20 L0,10 L15,0 Z" fill="#ffffff" class="cell_rdata2"/><g s:x="0" s:y="10" s:pid="A"/></g><g s:type="constant" transform="translate(181,1075.5)" s:width="30" s:height="20" id="cell_0"><text x="15" y="-4" class="nodelabel cell_0" s:attribute="ref">0</text><s:alias val="$_constant_"/><rect width="30" height="20" fill="#ffffff" class="cell_0"/><g s:x="31" s:y="10" s:pid="Y"/></g><g s:type="constant" transform="translate(181,1140.5)" s:width="30" s:height="20" id="cell_1"><text x="15" y="-4" class="nodelabel cell_1" s:attribute="ref">1</text><s:alias val="$_constant_"/><rect width="30" height="20" fill="#ffffff" class="cell_1"/><g s:x="31" s:y="10" s:pid="Y"/></g><g s:type="constant" transform="translate(181,74)" s:width="30" s:height="20" id="cell_xxxxxxxxxxxxxxxxxxxxxxxxxxxxxxxx"><text x="15" y="-4" class="nodelabel cell_xxxxxxxxxxxxxxxxxxxxxxxxxxxxxxxx" s:attribute="ref">0xNaN</text><s:alias val="$_constant_"/><rect width="30" height="20" fill="#ffffff" class="cell_xxxxxxxxxxxxxxxxxxxxxxxxxxxxxxxx"/><g s:x="31" s:y="10" s:pid="Y"/></g><g s:type="constant" transform="translate(181,22)" s:width="30" s:height="20" id="cell_xxxxx"><text x="15" y="-4" class="nodelabel cell_xxxxx" s:attribute="ref">0xNaN</text><s:alias val="$_constant_"/><rect width="30" height="20" fill="#ffffff" class="cell_xxxxx"/><g s:x="31" s:y="10" s:pid="Y"/></g><g s:type="constant" transform="translate(710,873)" s:width="30" s:height="20" id="cell_00000000000000000000000000000000"><text x="15" y="-4" class="nodelabel cell_00000000000000000000000000000000" s:attribute="ref">0x0</text><s:alias val="$_constant_"/><rect width="30" height="20" fill="#ffffff" class="cell_00000000000000000000000000000000"/><g s:x="31" s:y="10" s:pid="Y"/></g><g s:type="constant" transform="translate(322,197)" s:width="30" s:height="20" id="cell_00"><text x="15" y="-4" class="nodelabel cell_00" s:attribute="ref">00</text><s:alias val="$_constant_"/><rect width="30" height="20" fill="#ffffff" class="cell_00"/><g s:x="31" s:y="10" s:pid="Y"/></g><g s:type="constant" transform="translate(322,262)" s:width="30" s:height="20" id="cell_xx"><text x="15" y="-4" class="nodelabel cell_xx" s:attribute="ref">xx</text><s:alias val="$_constant_"/><rect width="30" height="20" fill="#ffffff" class="cell_xx"/><g s:x="31" s:y="10" s:pid="Y"/></g><g s:type="constant" transform="translate(322,132)" s:width="30" s:height="20" id="cell_11"><text x="15" y="-4" class="nodelabel cell_11" s:attribute="ref">11</text><s:alias val="$_constant_"/><rect width="30" height="20" fill="#ffffff" class="cell_11"/><g s:x="31" s:y="10" s:pid="Y"/></g><g s:type="join" transform="translate(341,319)" s:width="4" s:height="40" id="cell_$join$,41,42,43,44,45,78,79,80,81,82,"><rect width="5" height="40" class="splitjoinBody" s:generic="body"/><s:alias val="$_join_"/><g s:x="5" s:y="20" s:pid="out"/><g transform="translate(0,10)" s:x="0" s:y="10" s:pid="in0"><text x="-3" y="-4" class="inputPortLabel">0:4</text></g><g transform="translate(0,30)" s:x="0" s:y="10" s:pid="in0"><text x="-3" y="-4" class="inputPortLabel">5:9</text></g></g><g s:type="join" transform="translate(340.56,590)" s:width="4" s:height="40" id="cell_$join$,119,119,119,119,119,119,119,119,119,119,119,119,119,119,119,119,119,119,119,119,119,119,119,119,119,119,119,119,119,119,119,119,"><rect width="5" height="640" class="splitjoinBody" s:generic="body"/><s:alias val="$_join_"/><g s:x="5" s:y="20" s:pid="out"/><g transform="translate(0,10)" s:x="0" s:y="10" s:pid="in0"><text x="-3" y="-4" class="inputPortLabel">0</text></g><g transform="translate(0,30)" s:x="0" s:y="10" s:pid="in0"><text x="-3" y="-4" class="inputPortLabel">1</text></g><g transform="translate(0,50)" s:x="0" s:y="10" s:pid="in0"><text x="-3" y="-4" class="inputPortLabel">2</text></g><g transform="translate(0,70)" s:x="0" s:y="10" s:pid="in0"><text x="-3" y="-4" class="inputPortLabel">3</text></g><g transform="translate(0,90)" s:x="0" s:y="10" s:pid="in0"><text x="-3" y="-4" class="inputPortLabel">4</text></g><g transform="translate(0,110)" s:x="0" s:y="10" s:pid="in0"><text x="-3" y="-4" class="inputPortLabel">5</text></g><g transform="translate(0,130)" s:x="0" s:y="10" s:pid="in0"><text x="-3" y="-4" class="inputPortLabel">6</text></g><g transform="translate(0,150)" s:x="0" s:y="10" s:pid="in0"><text x="-3" y="-4" class="inputPortLabel">7</text></g><g transform="translate(0,170)" s:x="0" s:y="10" s:pid="in0"><text x="-3" y="-4" class="inputPortLabel">8</text></g><g transform="translate(0,190)" s:x="0" s:y="10" s:pid="in0"><text x="-3" y="-4" class="inputPortLabel">9</text></g><g transform="translate(0,210)" s:x="0" s:y="10" s:pid="in0"><text x="-3" y="-4" class="inputPortLabel">10</text></g><g transform="translate(0,230)" s:x="0" s:y="10" s:pid="in0"><text x="-3" y="-4" class="inputPortLabel">11</text></g><g transform="translate(0,250)" s:x="0" s:y="10" s:pid="in0"><text x="-3" y="-4" class="inputPortLabel">12</text></g><g transform="translate(0,270)" s:x="0" s:y="10" s:pid="in0"><text x="-3" y="-4" class="inputPortLabel">13</text></g><g transform="translate(0,290)" s:x="0" s:y="10" s:pid="in0"><text x="-3" y="-4" class="inputPortLabel">14</text></g><g transform="translate(0,310)" s:x="0" s:y="10" s:pid="in0"><text x="-3" y="-4" class="inputPortLabel">15</text></g><g transform="translate(0,330)" s:x="0" s:y="10" s:pid="in0"><text x="-3" y="-4" class="inputPortLabel">16</text></g><g transform="translate(0,350)" s:x="0" s:y="10" s:pid="in0"><text x="-3" y="-4" class="inputPortLabel">17</text></g><g transform="translate(0,370)" s:x="0" s:y="10" s:pid="in0"><text x="-3" y="-4" class="inputPortLabel">18</text></g><g transform="translate(0,390)" s:x="0" s:y="10" s:pid="in0"><text x="-3" y="-4" class="inputPortLabel">19</text></g><g transform="translate(0,410)" s:x="0" s:y="10" s:pid="in0"><text x="-3" y="-4" class="inputPortLabel">20</text></g><g transform="translate(0,430)" s:x="0" s:y="10" s:pid="in0"><text x="-3" y="-4" class="inputPortLabel">21</text></g><g transform="translate(0,450)" s:x="0" s:y="10" s:pid="in0"><text x="-3" y="-4" class="inputPortLabel">22</text></g><g transform="translate(0,470)" s:x="0" s:y="10" s:pid="in0"><text x="-3" y="-4" class="inputPortLabel">23</text></g><g transform="translate(0,490)" s:x="0" s:y="10" s:pid="in0"><text x="-3" y="-4" class="inputPortLabel">24</text></g><g transform="translate(0,510)" s:x="0" s:y="10" s:pid="in0"><text x="-3" y="-4" class="inputPortLabel">25</text></g><g transform="translate(0,530)" s:x="0" s:y="10" s:pid="in0"><text x="-3" y="-4" class="inputPortLabel">26</text></g><g transform="translate(0,550)" s:x="0" s:y="10" s:pid="in0"><text x="-3" y="-4" class="inputPortLabel">27</text></g><g transform="translate(0,570)" s:x="0" s:y="10" s:pid="in0"><text x="-3" y="-4" class="inputPortLabel">28</text></g><g transform="translate(0,590)" s:x="0" s:y="10" s:pid="in0"><text x="-3" y="-4" class="inputPortLabel">29</text></g><g transform="translate(0,610)" s:x="0" s:y="10" s:pid="in0"><text x="-3" y="-4" class="inputPortLabel">30</text></g><g transform="translate(0,630)" s:x="0" s:y="10" s:pid="in0"><text x="-3" y="-4" class="inputPortLabel">31</text></g></g><g s:type="split" transform="translate(711,730)" s:width="5" s:height="40" id="cell_$split$,157,158,159,160,161,162,163,164,165,166,167,168,169,170,171,172,173,174,175,176,177,178,179,180,181,182,183,184,185,186,187,188,189,190,191,192,193,194,195,196,197,198,199,200,201,202,203,204,205,206,207,208,209,210,211,212,213,214,215,216,217,218,219,220,"><rect width="5" height="40" class="splitjoinBody" s:generic="body"/><s:alias val="$_split_"/><g s:x="0" s:y="20" s:pid="in"/><g transform="translate(4,10)" s:x="4" s:y="10" s:pid="out0"><text x="5" y="-4">0:31</text></g><g transform="translate(4,30)" s:x="4" s:y="10" s:pid="out0"><text x="5" y="-4">32:63</text></g></g><line x1="211" x2="227" y1="264.5" y2="264.5" class="net_41,42,43,44,45 width_5" style="stroke-width: 2"/><line x1="227" x2="227" y1="264.5" y2="101" class="net_41,42,43,44,45 width_5" style="stroke-width: 2"/><circle cx="227" cy="264.5" r="3" style="fill:#000" class="net_41,42,43,44,45 width_5"/><line x1="227" x2="776" y1="101" y2="101" class="net_41,42,43,44,45 width_5" style="stroke-width: 2"/><line x1="211" x2="302" y1="264.5" y2="264.5" class="net_41,42,43,44,45 width_5" style="stroke-width: 2"/><line x1="302" x2="302" y1="264.5" y2="329.5" class="net_41,42,43,44,45 width_5" style="stroke-width: 2"/><line x1="302" x2="341" y1="329.5" y2="329.5" class="net_41,42,43,44,45 width_5" style="stroke-width: 2"/><line x1="211" x2="428" y1="480.5" y2="480.5" class="net_78,79,80,81,82 width_5" style="stroke-width: 2"/><line x1="428" x2="428" y1="480.5" y2="934" class="net_78,79,80,81,82 width_5" style="stroke-width: 2"/><line x1="428" x2="776" y1="934" y2="934" class="net_78,79,80,81,82 width_5" style="stroke-width: 2"/><line x1="211" x2="227" y1="480.5" y2="480.5" class="net_78,79,80,81,82 width_5" style="stroke-width: 2"/><line x1="227" x2="227" y1="480.5" y2="349.5" class="net_78,79,80,81,82 width_5" style="stroke-width: 2"/><circle cx="227" cy="480.5" r="3" style="fill:#000" class="net_78,79,80,81,82 width_5"/><line x1="227" x2="341" y1="349.5" y2="349.5" class="net_78,79,80,81,82 width_5" style="stroke-width: 2"/><line x1="146" x2="156" y1="488" y2="488" class="net_3 width_1" style="stroke-width: 1"/><line x1="156" x2="156" y1="488" y2="530.5" class="net_3 width_1" style="stroke-width: 1"/><line x1="156" x2="183" y1="530.5" y2="530.5" class="net_3 width_1" style="stroke-width: 1"/><line x1="146" x2="183" y1="545.5" y2="545.5" class="net_117 width_1" style="stroke-width: 1"/><line x1="42" x2="118" y1="538" y2="538" class="net_4,5,6,7,8 width_5" style="stroke-width: 2"/><line x1="42" x2="52" y1="538" y2="538" class="net_4,5,6,7,8 width_5" style="stroke-width: 2"/><line x1="52" x2="52" y1="538" y2="53" class="net_4,5,6,7,8 width_5" style="stroke-width: 2"/><circle cx="52" cy="538" r="3" style="fill:#000" class="net_4,5,6,7,8 width_5"/><line x1="52" x2="327.5" y1="53" y2="53" class="net_4,5,6,7,8 width_5" style="stroke-width: 2"/><line x1="212" x2="227" y1="1085.5" y2="1085.5" class="net_221 width_1" style="stroke-width: 1"/><line x1="227" x2="227" y1="1085.5" y2="1130.5" class="net_221 width_1" style="stroke-width: 1"/><line x1="227" x2="252" y1="1130.5" y2="1130.5" class="net_221 width_1" style="stroke-width: 1"/><line x1="212" x2="252" y1="1150.5" y2="1150.5" class="net_222 width_1" style="stroke-width: 1"/><line x1="213" x2="237" y1="538" y2="538" class="net_118 width_1" style="stroke-width: 1"/><line x1="237" x2="237" y1="538" y2="1170.5" class="net_118 width_1" style="stroke-width: 1"/><line x1="237" x2="262" y1="1170.5" y2="1170.5" class="net_118 width_1" style="stroke-width: 1"/><circle cx="237" cy="538" r="2" style="fill:#000" class="net_118 width_1"/><line x1="262" x2="262" y1="1170.5" y2="1155.5" class="net_118 width_1" style="stroke-width: 1"/><line x1="213" x2="340.5" y1="538" y2="538" class="net_118 width_1" style="stroke-width: 1"/><line x1="340.5" x2="340.5" y1="538" y2="467.5" class="net_118 width_1" style="stroke-width: 1"/><line x1="213" x2="292" y1="538" y2="538" class="net_118 width_1" style="stroke-width: 1"/><line x1="292" x2="292" y1="538" y2="112" class="net_118 width_1" style="stroke-width: 1"/><line x1="292" x2="340.5" y1="112" y2="112" class="net_118 width_1" style="stroke-width: 1"/><circle cx="292" cy="538" r="2" style="fill:#000" class="net_118 width_1"/><line x1="340.5" x2="340.5" y1="112" y2="61" class="net_118 width_1" style="stroke-width: 1"/><line x1="212" x2="312" y1="84" y2="84" class="net_223,224,225,226,227,228,229,230,231,232,233,234,235,236,237,238,239,240,241,242,243,244,245,246,247,248,249,250,251,252,253,254 width_32" style="stroke-width: 2"/><line x1="312" x2="312" y1="84" y2="439.5" class="net_223,224,225,226,227,228,229,230,231,232,233,234,235,236,237,238,239,240,241,242,243,244,245,246,247,248,249,250,251,252,253,254 width_32" style="stroke-width: 2"/><line x1="312" x2="327.5" y1="439.5" y2="439.5" class="net_223,224,225,226,227,228,229,230,231,232,233,234,235,236,237,238,239,240,241,242,243,244,245,246,247,248,249,250,251,252,253,254 width_32" style="stroke-width: 2"/><line x1="211" x2="282" y1="329.5" y2="329.5" class="net_9,10,11,12,13,14,15,16,17,18,19,20,21,22,23,24,25,26,27,28,29,30,31,32,33,34,35,36,37,38,39,40 width_32" style="stroke-width: 2"/><line x1="282" x2="282" y1="329.5" y2="459.5" class="net_9,10,11,12,13,14,15,16,17,18,19,20,21,22,23,24,25,26,27,28,29,30,31,32,33,34,35,36,37,38,39,40 width_32" style="stroke-width: 2"/><line x1="282" x2="327.5" y1="459.5" y2="459.5" class="net_9,10,11,12,13,14,15,16,17,18,19,20,21,22,23,24,25,26,27,28,29,30,31,32,33,34,35,36,37,38,39,40 width_32" style="stroke-width: 2"/><line x1="212" x2="282" y1="32" y2="32" class="net_255,256,257,258,259 width_5" style="stroke-width: 2"/><line x1="282" x2="282" y1="32" y2="33" class="net_255,256,257,258,259 width_5" style="stroke-width: 2"/><line x1="282" x2="327.5" y1="33" y2="33" class="net_255,256,257,258,259 width_5" style="stroke-width: 2"/><line x1="716" x2="827" y1="740.5" y2="740.5" class="net_157,158,159,160,161,162,163,164,165,166,167,168,169,170,171,172,173,174,175,176,177,178,179,180,181,182,183,184,185,186,187,188 width_32" style="stroke-width: 2"/><line x1="827" x2="827" y1="740.5" y2="798" class="net_157,158,159,160,161,162,163,164,165,166,167,168,169,170,171,172,173,174,175,176,177,178,179,180,181,182,183,184,185,186,187,188 width_32" style="stroke-width: 2"/><line x1="827" x2="847" y1="798" y2="798" class="net_157,158,159,160,161,162,163,164,165,166,167,168,169,170,171,172,173,174,175,176,177,178,179,180,181,182,183,184,185,186,187,188 width_32" style="stroke-width: 2"/><line x1="741" x2="751" y1="883" y2="883" class="net_260,261,262,263,264,265,266,267,268,269,270,271,272,273,274,275,276,277,278,279,280,281,282,283,284,285,286,287,288,289,290,291 width_32" style="stroke-width: 2"/><line x1="751" x2="751" y1="883" y2="818" class="net_260,261,262,263,264,265,266,267,268,269,270,271,272,273,274,275,276,277,278,279,280,281,282,283,284,285,286,287,288,289,290,291 width_32" style="stroke-width: 2"/><circle cx="751" cy="883" r="3" style="fill:#000" class="net_260,261,262,263,264,265,266,267,268,269,270,271,272,273,274,275,276,277,278,279,280,281,282,283,284,285,286,287,288,289,290,291 width_32"/><line x1="751" x2="847" y1="818" y2="818" class="net_260,261,262,263,264,265,266,267,268,269,270,271,272,273,274,275,276,277,278,279,280,281,282,283,284,285,286,287,288,289,290,291 width_32" style="stroke-width: 2"/><line x1="741" x2="847" y1="883" y2="883" class="net_260,261,262,263,264,265,266,267,268,269,270,271,272,273,274,275,276,277,278,279,280,281,282,283,284,285,286,287,288,289,290,291 width_32" style="stroke-width: 2"/><line x1="804" x2="837" y1="101" y2="101" class="net_115 width_1" style="stroke-width: 1"/><line x1="837" x2="837" y1="101" y2="843" class="net_115 width_1" style="stroke-width: 1"/><line x1="837" x2="860" y1="843" y2="843" class="net_115 width_1" style="stroke-width: 1"/><line x1="860" x2="860" y1="843" y2="826" class="net_115 width_1" style="stroke-width: 1"/><line x1="716" x2="817" y1="760.5" y2="760.5" class="net_189,190,191,192,193,194,195,196,197,198,199,200,201,202,203,204,205,206,207,208,209,210,211,212,213,214,215,216,217,218,219,220 width_32" style="stroke-width: 2"/><line x1="817" x2="817" y1="760.5" y2="863" class="net_189,190,191,192,193,194,195,196,197,198,199,200,201,202,203,204,205,206,207,208,209,210,211,212,213,214,215,216,217,218,219,220 width_32" style="stroke-width: 2"/><line x1="817" x2="847" y1="863" y2="863" class="net_189,190,191,192,193,194,195,196,197,198,199,200,201,202,203,204,205,206,207,208,209,210,211,212,213,214,215,216,217,218,219,220 width_32" style="stroke-width: 2"/><line x1="804" x2="860" y1="934" y2="934" class="net_116 width_1" style="stroke-width: 1"/><line x1="860" x2="860" y1="934" y2="891" class="net_116 width_1" style="stroke-width: 1"/><line x1="347" x2="478" y1="339.5" y2="339.5" class="net_41,42,43,44,45,78,79,80,81,82 width_10" style="stroke-width: 2"/><line x1="478" x2="478" y1="339.5" y2="750.5" class="net_41,42,43,44,45,78,79,80,81,82 width_10" style="stroke-width: 2"/><line x1="478" x2="562" y1="750.5" y2="750.5" class="net_41,42,43,44,45,78,79,80,81,82 width_10" style="stroke-width: 2"/><line x1="353" x2="363" y1="207" y2="207" class="net_324,325 width_2" style="stroke-width: 2"/><line x1="363" x2="363" y1="207" y2="187" class="net_324,325 width_2" style="stroke-width: 2"/><line x1="363" x2="488" y1="187" y2="187" class="net_324,325 width_2" style="stroke-width: 2"/><line x1="488" x2="488" y1="187" y2="770.5" class="net_324,325 width_2" style="stroke-width: 2"/><circle cx="363" cy="207" r="3" style="fill:#000" class="net_324,325 width_2"/><line x1="488" x2="561" y1="770.5" y2="770.5" class="net_324,325 width_2" style="stroke-width: 2"/><line x1="353" x2="468" y1="207" y2="207" class="net_324,325 width_2" style="stroke-width: 2"/><line x1="468" x2="468" y1="207" y2="830.5" class="net_324,325 width_2" style="stroke-width: 2"/><line x1="468" x2="561" y1="830.5" y2="830.5" class="net_324,325 width_2" style="stroke-width: 2"/><line x1="353" x2="458" y1="272" y2="272" class="net_326,327 width_2" style="stroke-width: 2"/><line x1="458" x2="458" y1="272" y2="790.5" class="net_326,327 width_2" style="stroke-width: 2"/><line x1="458" x2="561" y1="790.5" y2="790.5" class="net_326,327 width_2" style="stroke-width: 2"/><line x1="353" x2="498" y1="142" y2="142" class="net_328,329 width_2" style="stroke-width: 2"/><line x1="498" x2="498" y1="142" y2="810.5" class="net_328,329 width_2" style="stroke-width: 2"/><line x1="498" x2="561" y1="810.5" y2="810.5" class="net_328,329 width_2" style="stroke-width: 2"/><line x1="353" x2="508" y1="43" y2="43" class="net_152,153,154,155,156 width_5" style="stroke-width: 2"/><line x1="508" x2="508" y1="43" y2="850.5" class="net_152,153,154,155,156 width_5" style="stroke-width: 2"/><line x1="508" x2="561" y1="850.5" y2="850.5" class="net_152,153,154,155,156 width_5" style="stroke-width: 2"/><line x1="418" x2="448" y1="400.5" y2="400.5" class="net_2 width_1" style="stroke-width: 1"/><line x1="448" x2="448" y1="400.5" y2="870.5" class="net_2 width_1" style="stroke-width: 1"/><line x1="448" x2="561" y1="870.5" y2="870.5" class="net_2 width_1" style="stroke-width: 1"/><line x1="353" x2="438" y1="449.5" y2="449.5" class="net_120,121,122,123,124,125,126,127,128,129,130,131,132,133,134,135,136,137,138,139,140,141,142,143,144,145,146,147,148,149,150,151 width_32" style="stroke-width: 2"/><line x1="438" x2="438" y1="449.5" y2="890.5" class="net_120,121,122,123,124,125,126,127,128,129,130,131,132,133,134,135,136,137,138,139,140,141,142,143,144,145,146,147,148,149,150,151 width_32" style="stroke-width: 2"/><line x1="438" x2="561" y1="890.5" y2="890.5" class="net_120,121,122,123,124,125,126,127,128,129,130,131,132,133,134,135,136,137,138,139,140,141,142,143,144,145,146,147,148,149,150,151 width_32" style="stroke-width: 2"/><line x1="346.56" x2="561" y1="910.5" y2="910.5" class="net_119,119,119,119,119,119,119,119,119,119,119,119,119,119,119,119,119,119,119,119,119,119,119,119,119,119,119,119,119,119,119,119 width_32" style="stroke-width: 2"/><line x1="872.5" x2="946.5" y1="808" y2="808" class="net_46,47,48,49,50,51,52,53,54,55,56,57,58,59,60,61,62,63,64,65,66,67,68,69,70,71,72,73,74,75,76,77 width_32" style="stroke-width: 2"/><line x1="872.5" x2="946.5" y1="873" y2="873" class="net_83,84,85,86,87,88,89,90,91,92,93,94,95,96,97,98,99,100,101,102,103,104,105,106,107,108,109,110,111,112,113,114 width_32" style="stroke-width: 2"/><line x1="272" x2="282" y1="1140.5" y2="1140.5" class="net_119 width_1" style="stroke-width: 1"/><line x1="282" x2="282" y1="1140.5" y2="578" class="net_119 width_1" style="stroke-width: 1"/><line x1="282" x2="341.06" y1="578" y2="578" class="net_119 width_1" style="stroke-width: 1"/><circle cx="282" cy="1140.5" r="2" style="fill:#000" class="net_119 width_1"/><circle cx="282" cy="578" r="2" style="fill:#000" class="net_119 width_1"/><line x1="341.06" x2="341.06" y1="578" y2="600" class="net_119 width_1" style="stroke-width: 1"/><line x1="272" x2="282" y1="1140.5" y2="1140.5" class="net_119 width_1" style="stroke-width: 1"/><line x1="282" x2="282" y1="1140.5" y2="568" class="net_119 width_1" style="stroke-width: 1"/><line x1="282" x2="341.06" y1="568" y2="568" class="net_119 width_1" style="stroke-width: 1"/><circle cx="282" cy="568" r="2" style="fill:#000" class="net_119 width_1"/><line x1="341.06" x2="341.06" y1="568" y2="620" class="net_119 width_1" style="stroke-width: 1"/><line x1="272" x2="282" y1="1140.5" y2="1140.5" class="net_119 width_1" style="stroke-width: 1"/><line x1="282" x2="282" y1="1140.5" y2="558" class="net_119 width_1" style="stroke-width: 1"/><line x1="282" x2="341.06" y1="558" y2="558" class="net_119 width_1" style="stroke-width: 1"/><circle cx="282" cy="558" r="2" style="fill:#000" class="net_119 width_1"/><line x1="341.06" x2="341.06" y1="558" y2="640" class="net_119 width_1" style="stroke-width: 1"/><line x1="272" x2="282" y1="1140.5" y2="1140.5" class="net_119 width_1" style="stroke-width: 1"/><line x1="282" x2="282" y1="1140.5" y2="548" class="net_119 width_1" style="stroke-width: 1"/><line x1="282" x2="341.06" y1="548" y2="548" class="net_119 width_1" style="stroke-width: 1"/><line x1="341.06" x2="341.06" y1="548" y2="660" class="net_119 width_1" style="stroke-width: 1"/><line x1="272" x2="282" y1="1140.5" y2="1140.5" class="net_119 width_1" style="stroke-width: 1"/><line x1="282" x2="282" y1="1140.5" y2="680.5" class="net_119 width_1" style="stroke-width: 1"/><circle cx="282" cy="680.5" r="2" style="fill:#000" class="net_119 width_1"/><line x1="282" x2="340.56" y1="680.5" y2="680.5" class="net_119 width_1" style="stroke-width: 1"/><line x1="272" x2="282" y1="1140.5" y2="1140.5" class="net_119 width_1" style="stroke-width: 1"/><line x1="282" x2="282" y1="1140.5" y2="700.5" class="net_119 width_1" style="stroke-width: 1"/><circle cx="282" cy="700.5" r="2" style="fill:#000" class="net_119 width_1"/><line x1="282" x2="340.56" y1="700.5" y2="700.5" class="net_119 width_1" style="stroke-width: 1"/><line x1="272" x2="282" y1="1140.5" y2="1140.5" class="net_119 width_1" style="stroke-width: 1"/><line x1="282" x2="282" y1="1140.5" y2="720.5" class="net_119 width_1" style="stroke-width: 1"/><circle cx="282" cy="720.5" r="2" style="fill:#000" class="net_119 width_1"/><line x1="282" x2="340.56" y1="720.5" y2="720.5" class="net_119 width_1" style="stroke-width: 1"/><line x1="272" x2="282" y1="1140.5" y2="1140.5" class="net_119 width_1" style="stroke-width: 1"/><line x1="282" x2="282" y1="1140.5" y2="740.5" class="net_119 width_1" style="stroke-width: 1"/><circle cx="282" cy="740.5" r="2" style="fill:#000" class="net_119 width_1"/><line x1="282" x2="340.56" y1="740.5" y2="740.5" class="net_119 width_1" style="stroke-width: 1"/><line x1="272" x2="282" y1="1140.5" y2="1140.5" class="net_119 width_1" style="stroke-width: 1"/><line x1="282" x2="282" y1="1140.5" y2="760.5" class="net_119 width_1" style="stroke-width: 1"/><circle cx="282" cy="760.5" r="2" style="fill:#000" class="net_119 width_1"/><line x1="282" x2="340.56" y1="760.5" y2="760.5" class="net_119 width_1" style="stroke-width: 1"/><line x1="272" x2="282" y1="1140.5" y2="1140.5" class="net_119 width_1" style="stroke-width: 1"/><line x1="282" x2="282" y1="1140.5" y2="780.5" class="net_119 width_1" style="stroke-width: 1"/><circle cx="282" cy="780.5" r="2" style="fill:#000" class="net_119 width_1"/><line x1="282" x2="340.56" y1="780.5" y2="780.5" class="net_119 width_1" style="stroke-width: 1"/><line x1="272" x2="282" y1="1140.5" y2="1140.5" class="net_119 width_1" style="stroke-width: 1"/><line x1="282" x2="282" y1="1140.5" y2="800.5" class="net_119 width_1" style="stroke-width: 1"/><circle cx="282" cy="800.5" r="2" style="fill:#000" class="net_119 width_1"/><line x1="282" x2="340.56" y1="800.5" y2="800.5" class="net_119 width_1" style="stroke-width: 1"/><line x1="272" x2="282" y1="1140.5" y2="1140.5" class="net_119 width_1" style="stroke-width: 1"/><line x1="282" x2="282" y1="1140.5" y2="820.5" class="net_119 width_1" style="stroke-width: 1"/><circle cx="282" cy="820.5" r="2" style="fill:#000" class="net_119 width_1"/><line x1="282" x2="340.56" y1="820.5" y2="820.5" class="net_119 width_1" style="stroke-width: 1"/><line x1="272" x2="282" y1="1140.5" y2="1140.5" class="net_119 width_1" style="stroke-width: 1"/><line x1="282" x2="282" y1="1140.5" y2="840.5" class="net_119 width_1" style="stroke-width: 1"/><circle cx="282" cy="840.5" r="2" style="fill:#000" class="net_119 width_1"/><line x1="282" x2="340.56" y1="840.5" y2="840.5" class="net_119 width_1" style="stroke-width: 1"/><line x1="272" x2="282" y1="1140.5" y2="1140.5" class="net_119 width_1" style="stroke-width: 1"/><line x1="282" x2="282" y1="1140.5" y2="860.5" class="net_119 width_1" style="stroke-width: 1"/><circle cx="282" cy="860.5" r="2" style="fill:#000" class="net_119 width_1"/><line x1="282" x2="340.56" y1="860.5" y2="860.5" class="net_119 width_1" style="stroke-width: 1"/><line x1="272" x2="282" y1="1140.5" y2="1140.5" class="net_119 width_1" style="stroke-width: 1"/><line x1="282" x2="282" y1="1140.5" y2="880.5" class="net_119 width_1" style="stroke-width: 1"/><circle cx="282" cy="880.5" r="2" style="fill:#000" class="net_119 width_1"/><line x1="282" x2="340.56" y1="880.5" y2="880.5" class="net_119 width_1" style="stroke-width: 1"/><line x1="272" x2="282" y1="1140.5" y2="1140.5" class="net_119 width_1" style="stroke-width: 1"/><line x1="282" x2="282" y1="1140.5" y2="900.5" class="net_119 width_1" style="stroke-width: 1"/><circle cx="282" cy="900.5" r="2" style="fill:#000" class="net_119 width_1"/><line x1="282" x2="340.56" y1="900.5" y2="900.5" class="net_119 width_1" style="stroke-width: 1"/><line x1="272" x2="282" y1="1140.5" y2="1140.5" class="net_119 width_1" style="stroke-width: 1"/><line x1="282" x2="282" y1="1140.5" y2="920.5" class="net_119 width_1" style="stroke-width: 1"/><circle cx="282" cy="920.5" r="2" style="fill:#000" class="net_119 width_1"/><line x1="282" x2="340.56" y1="920.5" y2="920.5" class="net_119 width_1" style="stroke-width: 1"/><line x1="272" x2="282" y1="1140.5" y2="1140.5" class="net_119 width_1" style="stroke-width: 1"/><line x1="282" x2="282" y1="1140.5" y2="940.5" class="net_119 width_1" style="stroke-width: 1"/><circle cx="282" cy="940.5" r="2" style="fill:#000" class="net_119 width_1"/><line x1="282" x2="340.56" y1="940.5" y2="940.5" class="net_119 width_1" style="stroke-width: 1"/><line x1="272" x2="282" y1="1140.5" y2="1140.5" class="net_119 width_1" style="stroke-width: 1"/><line x1="282" x2="282" y1="1140.5" y2="960.5" class="net_119 width_1" style="stroke-width: 1"/><circle cx="282" cy="960.5" r="2" style="fill:#000" class="net_119 width_1"/><line x1="282" x2="340.56" y1="960.5" y2="960.5" class="net_119 width_1" style="stroke-width: 1"/><line x1="272" x2="282" y1="1140.5" y2="1140.5" class="net_119 width_1" style="stroke-width: 1"/><line x1="282" x2="282" y1="1140.5" y2="980.5" class="net_119 width_1" style="stroke-width: 1"/><circle cx="282" cy="980.5" r="2" style="fill:#000" class="net_119 width_1"/><line x1="282" x2="340.56" y1="980.5" y2="980.5" class="net_119 width_1" style="stroke-width: 1"/><line x1="272" x2="282" y1="1140.5" y2="1140.5" class="net_119 width_1" style="stroke-width: 1"/><line x1="282" x2="282" y1="1140.5" y2="1000.5" class="net_119 width_1" style="stroke-width: 1"/><circle cx="282" cy="1000.5" r="2" style="fill:#000" class="net_119 width_1"/><line x1="282" x2="340.56" y1="1000.5" y2="1000.5" class="net_119 width_1" style="stroke-width: 1"/><line x1="272" x2="282" y1="1140.5" y2="1140.5" class="net_119 width_1" style="stroke-width: 1"/><line x1="282" x2="282" y1="1140.5" y2="1020.5" class="net_119 width_1" style="stroke-width: 1"/><circle cx="282" cy="1020.5" r="2" style="fill:#000" class="net_119 width_1"/><line x1="282" x2="340.56" y1="1020.5" y2="1020.5" class="net_119 width_1" style="stroke-width: 1"/><line x1="272" x2="282" y1="1140.5" y2="1140.5" class="net_119 width_1" style="stroke-width: 1"/><line x1="282" x2="282" y1="1140.5" y2="1040.5" class="net_119 width_1" style="stroke-width: 1"/><circle cx="282" cy="1040.5" r="2" style="fill:#000" class="net_119 width_1"/><line x1="282" x2="340.56" y1="1040.5" y2="1040.5" class="net_119 width_1" style="stroke-width: 1"/><line x1="272" x2="282" y1="1140.5" y2="1140.5" class="net_119 width_1" style="stroke-width: 1"/><line x1="282" x2="282" y1="1140.5" y2="1060.5" class="net_119 width_1" style="stroke-width: 1"/><circle cx="282" cy="1060.5" r="2" style="fill:#000" class="net_119 width_1"/><line x1="282" x2="340.56" y1="1060.5" y2="1060.5" class="net_119 width_1" style="stroke-width: 1"/><line x1="272" x2="282" y1="1140.5" y2="1140.5" class="net_119 width_1" style="stroke-width: 1"/><line x1="282" x2="282" y1="1140.5" y2="1080.5" class="net_119 width_1" style="stroke-width: 1"/><circle cx="282" cy="1080.5" r="2" style="fill:#000" class="net_119 width_1"/><line x1="282" x2="340.56" y1="1080.5" y2="1080.5" class="net_119 width_1" style="stroke-width: 1"/><line x1="272" x2="282" y1="1140.5" y2="1140.5" class="net_119 width_1" style="stroke-width: 1"/><line x1="282" x2="282" y1="1140.5" y2="1100.5" class="net_119 width_1" style="stroke-width: 1"/><circle cx="282" cy="1100.5" r="2" style="fill:#000" class="net_119 width_1"/><line x1="282" x2="340.56" y1="1100.5" y2="1100.5" class="net_119 width_1" style="stroke-width: 1"/><line x1="272" x2="282" y1="1140.5" y2="1140.5" class="net_119 width_1" style="stroke-width: 1"/><line x1="282" x2="282" y1="1140.5" y2="1120.5" class="net_119 width_1" style="stroke-width: 1"/><circle cx="282" cy="1120.5" r="2" style="fill:#000" class="net_119 width_1"/><line x1="282" x2="340.56" y1="1120.5" y2="1120.5" class="net_119 width_1" style="stroke-width: 1"/><line x1="272" x2="340.56" y1="1140.5" y2="1140.5" class="net_119 width_1" style="stroke-width: 1"/><line x1="272" x2="282" y1="1140.5" y2="1140.5" class="net_119 width_1" style="stroke-width: 1"/><line x1="282" x2="282" y1="1140.5" y2="1270" class="net_119 width_1" style="stroke-width: 1"/><line x1="282" x2="341.06" y1="1270" y2="1270" class="net_119 width_1" style="stroke-width: 1"/><line x1="341.06" x2="341.06" y1="1270" y2="1161" class="net_119 width_1" style="stroke-width: 1"/><line x1="272" x2="282" y1="1140.5" y2="1140.5" class="net_119 width_1" style="stroke-width: 1"/><line x1="282" x2="282" y1="1140.5" y2="1260" class="net_119 width_1" style="stroke-width: 1"/><line x1="282" x2="341.06" y1="1260" y2="1260" class="net_119 width_1" style="stroke-width: 1"/><circle cx="282" cy="1260" r="2" style="fill:#000" class="net_119 width_1"/><line x1="341.06" x2="341.06" y1="1260" y2="1181" class="net_119 width_1" style="stroke-width: 1"/><line x1="272" x2="282" y1="1140.5" y2="1140.5" class="net_119 width_1" style="stroke-width: 1"/><line x1="282" x2="282" y1="1140.5" y2="1250" class="net_119 width_1" style="stroke-width: 1"/><line x1="282" x2="341.06" y1="1250" y2="1250" class="net_119 width_1" style="stroke-width: 1"/><circle cx="282" cy="1250" r="2" style="fill:#000" class="net_119 width_1"/><line x1="341.06" x2="341.06" y1="1250" y2="1201" class="net_119 width_1" style="stroke-width: 1"/><line x1="272" x2="282" y1="1140.5" y2="1140.5" class="net_119 width_1" style="stroke-width: 1"/><line x1="282" x2="282" y1="1140.5" y2="1240" class="net_119 width_1" style="stroke-width: 1"/><line x1="282" x2="341.06" y1="1240" y2="1240" class="net_119 width_1" style="stroke-width: 1"/><circle cx="282" cy="1240" r="2" style="fill:#000" class="net_119 width_1"/><line x1="341.06" x2="341.06" y1="1240" y2="1221" class="net_119 width_1" style="stroke-width: 1"/><line x1="593" x2="711" y1="750.5" y2="750.5" class="net_157,158,159,160,161,162,163,164,165,166,167,168,169,170,171,172,173,174,175,176,177,178,179,180,181,182,183,184,185,186,187,188,189,190,191,192,193,194,195,196,197,198,199,200,201,202,203,204,205,206,207,208,209,210,211,212,213,214,215,216,217,218,219,220 width_64" style="stroke-width: 2"/><rect x="261" y="259.5" width="16" height="9" class="net_41,42,43,44,45 width_5 busLabel_5" style="fill: white; stroke: none"/><text x="260" y="267.5" class="net_41,42,43,44,45 width_5 busLabel_5">/5/</text><rect x="261" y="259.5" width="16" height="9" class="net_41,42,43,44,45 width_5 busLabel_5" style="fill: white; stroke: none"/><text x="260" y="267.5" class="net_41,42,43,44,45 width_5 busLabel_5">/5/</text><rect x="261" y="344.5" width="16" height="9" class="net_78,79,80,81,82 width_5 busLabel_5" style="fill: white; stroke: none"/><text x="260" y="352.5" class="net_78,79,80,81,82 width_5 busLabel_5">/5/</text><rect x="261" y="344.5" width="16" height="9" class="net_78,79,80,81,82 width_5 busLabel_5" style="fill: white; stroke: none"/><text x="260" y="352.5" class="net_78,79,80,81,82 width_5 busLabel_5">/5/</text><rect x="130" y="48" width="16" height="9" class="net_4,5,6,7,8 width_5 busLabel_5" style="fill: white; stroke: none"/><text x="129" y="56" class="net_4,5,6,7,8 width_5 busLabel_5">/5/</text><rect x="130" y="48" width="16" height="9" class="net_4,5,6,7,8 width_5 busLabel_5" style="fill: white; stroke: none"/><text x="129" y="56" class="net_4,5,6,7,8 width_5 busLabel_5">/5/</text><rect x="261" y="79" width="22" height="9" class="net_223,224,225,226,227,228,229,230,231,232,233,234,235,236,237,238,239,240,241,242,243,244,245,246,247,248,249,250,251,252,253,254 width_32 busLabel_32" style="fill: white; stroke: none"/><text x="260" y="87" class="net_223,224,225,226,227,228,229,230,231,232,233,234,235,236,237,238,239,240,241,242,243,244,245,246,247,248,249,250,251,252,253,254 width_32 busLabel_32">/32/</text><rect x="261" y="324.5" width="22" height="9" class="net_9,10,11,12,13,14,15,16,17,18,19,20,21,22,23,24,25,26,27,28,29,30,31,32,33,34,35,36,37,38,39,40 width_32 busLabel_32" style="fill: white; stroke: none"/><text x="260" y="332.5" class="net_9,10,11,12,13,14,15,16,17,18,19,20,21,22,23,24,25,26,27,28,29,30,31,32,33,34,35,36,37,38,39,40 width_32 busLabel_32">/32/</text><rect x="261" y="27" width="16" height="9" class="net_255,256,257,258,259 width_5 busLabel_5" style="fill: white; stroke: none"/><text x="260" y="35" class="net_255,256,257,258,259 width_5 busLabel_5">/5/</text><rect x="790.5" y="735.5" width="22" height="9" class="net_157,158,159,160,161,162,163,164,165,166,167,168,169,170,171,172,173,174,175,176,177,178,179,180,181,182,183,184,185,186,187,188 width_32 busLabel_32" style="fill: white; stroke: none"/><text x="789.5" y="743.5" class="net_157,158,159,160,161,162,163,164,165,166,167,168,169,170,171,172,173,174,175,176,177,178,179,180,181,182,183,184,185,186,187,188 width_32 busLabel_32">/32/</text><rect x="790.5" y="878" width="22" height="9" class="net_260,261,262,263,264,265,266,267,268,269,270,271,272,273,274,275,276,277,278,279,280,281,282,283,284,285,286,287,288,289,290,291 width_32 busLabel_32" style="fill: white; stroke: none"/><text x="789.5" y="886" class="net_260,261,262,263,264,265,266,267,268,269,270,271,272,273,274,275,276,277,278,279,280,281,282,283,284,285,286,287,288,289,290,291 width_32 busLabel_32">/32/</text><rect x="790.5" y="878" width="22" height="9" class="net_260,261,262,263,264,265,266,267,268,269,270,271,272,273,274,275,276,277,278,279,280,281,282,283,284,285,286,287,288,289,290,291 width_32 busLabel_32" style="fill: white; stroke: none"/><text x="789.5" y="886" class="net_260,261,262,263,264,265,266,267,268,269,270,271,272,273,274,275,276,277,278,279,280,281,282,283,284,285,286,287,288,289,290,291 width_32 busLabel_32">/32/</text><rect x="790.5" y="755.5" width="22" height="9" class="net_189,190,191,192,193,194,195,196,197,198,199,200,201,202,203,204,205,206,207,208,209,210,211,212,213,214,215,216,217,218,219,220 width_32 busLabel_32" style="fill: white; stroke: none"/><text x="789.5" y="763.5" class="net_189,190,191,192,193,194,195,196,197,198,199,200,201,202,203,204,205,206,207,208,209,210,211,212,213,214,215,216,217,218,219,220 width_32 busLabel_32">/32/</text><rect x="402" y="334.5" width="22" height="9" class="net_41,42,43,44,45,78,79,80,81,82 width_10 busLabel_10" style="fill: white; stroke: none"/><text x="401" y="342.5" class="net_41,42,43,44,45,78,79,80,81,82 width_10 busLabel_10">/10/</text><rect x="402" y="202" width="16" height="9" class="net_324,325 width_2 busLabel_2" style="fill: white; stroke: none"/><text x="401" y="210" class="net_324,325 width_2 busLabel_2">/2/</text><rect x="402" y="202" width="16" height="9" class="net_324,325 width_2 busLabel_2" style="fill: white; stroke: none"/><text x="401" y="210" class="net_324,325 width_2 busLabel_2">/2/</text><rect x="402" y="267" width="16" height="9" class="net_326,327 width_2 busLabel_2" style="fill: white; stroke: none"/><text x="401" y="275" class="net_326,327 width_2 busLabel_2">/2/</text><rect x="402" y="137" width="16" height="9" class="net_328,329 width_2 busLabel_2" style="fill: white; stroke: none"/><text x="401" y="145" class="net_328,329 width_2 busLabel_2">/2/</text><rect x="402" y="38" width="16" height="9" class="net_152,153,154,155,156 width_5 busLabel_5" style="fill: white; stroke: none"/><text x="401" y="46" class="net_152,153,154,155,156 width_5 busLabel_5">/5/</text><rect x="402" y="444.5" width="22" height="9" class="net_120,121,122,123,124,125,126,127,128,129,130,131,132,133,134,135,136,137,138,139,140,141,142,143,144,145,146,147,148,149,150,151 width_32 busLabel_32" style="fill: white; stroke: none"/><text x="401" y="452.5" class="net_120,121,122,123,124,125,126,127,128,129,130,131,132,133,134,135,136,137,138,139,140,141,142,143,144,145,146,147,148,149,150,151 width_32 busLabel_32">/32/</text><rect x="402" y="905.5" width="22" height="9" class="net_119,119,119,119,119,119,119,119,119,119,119,119,119,119,119,119,119,119,119,119,119,119,119,119,119,119,119,119,119,119,119,119 width_32 busLabel_32" style="fill: white; stroke: none"/><text x="401" y="913.5" class="net_119,119,119,119,119,119,119,119,119,119,119,119,119,119,119,119,119,119,119,119,119,119,119,119,119,119,119,119,119,119,119,119 width_32 busLabel_32">/32/</text><rect x="908.5" y="803" width="22" height="9" class="net_46,47,48,49,50,51,52,53,54,55,56,57,58,59,60,61,62,63,64,65,66,67,68,69,70,71,72,73,74,75,76,77 width_32 busLabel_32" style="fill: white; stroke: none"/><text x="907.5" y="811" class="net_46,47,48,49,50,51,52,53,54,55,56,57,58,59,60,61,62,63,64,65,66,67,68,69,70,71,72,73,74,75,76,77 width_32 busLabel_32">/32/</text><rect x="908.5" y="868" width="22" height="9" class="net_83,84,85,86,87,88,89,90,91,92,93,94,95,96,97,98,99,100,101,102,103,104,105,106,107,108,109,110,111,112,113,114 width_32 busLabel_32" style="fill: white; stroke: none"/><text x="907.5" y="876" class="net_83,84,85,86,87,88,89,90,91,92,93,94,95,96,97,98,99,100,101,102,103,104,105,106,107,108,109,110,111,112,113,114 width_32 busLabel_32">/32/</text><rect x="672" y="745.5" width="22" height="9" class="net_157,158,159,160,161,162,163,164,165,166,167,168,169,170,171,172,173,174,175,176,177,178,179,180,181,182,183,184,185,186,187,188,189,190,191,192,193,194,195,196,197,198,199,200,201,202,203,204,205,206,207,208,209,210,211,212,213,214,215,216,217,218,219,220 width_64 busLabel_64" style="fill: white; stroke: none"/><text x="671" y="753.5" class="net_157,158,159,160,161,162,163,164,165,166,167,168,169,170,171,172,173,174,175,176,177,178,179,180,181,182,183,184,185,186,187,188,189,190,191,192,193,194,195,196,197,198,199,200,201,202,203,204,205,206,207,208,209,210,211,212,213,214,215,216,217,218,219,220 width_64 busLabel_64">/64/</text></svg>