<svg xmlns="http://www.w3.org/2000/svg" xmlns:xlink="http://www.w3.org/1999/xlink" xmlns:s="https://github.com/nturley/netlistsvg" width="1087" height="1142.5">
  <style>svg {
    stroke:#000;
    fill:none;
  }
  text {
    fill:#000;
    stroke:none;
    font-size:10px;
    font-weight: bold;
    font-family: "Courier New", monospace;
  }
  .nodelabel {
    text-anchor: middle;
  }
  .inputPortLabel {
    text-anchor: end;
  }
  .splitjoinBody {
    fill:#000;
  }</style>
  <g s:type="add" transform="translate(608,771.5)" s:width="25" s:height="25" id="cell_$add$fifo_sync.v:47$18">
    <s:alias val="$add"/>
    <circle r="12.5" cx="12.5" cy="12.5" class="cell_$add$fifo_sync.v:47$18"/>
    <line x1="7.5" x2="17.5" y1="12.5" y2="12.5" class="cell_$add$fifo_sync.v:47$18"/>
    <line x1="12.5" x2="12.5" y1="7.5" y2="17.5" class="cell_$add$fifo_sync.v:47$18"/>
    <g s:x="3" s:y="5" s:pid="A"/>
    <g s:x="3" s:y="20" s:pid="B"/>
    <g s:x="25" s:y="12.5" s:pid="Y"/>
  </g>
  <g s:type="add" transform="translate(608,993)" s:width="25" s:height="25" id="cell_$add$fifo_sync.v:51$22">
    <s:alias val="$add"/>
    <circle r="12.5" cx="12.5" cy="12.5" class="cell_$add$fifo_sync.v:51$22"/>
    <line x1="7.5" x2="17.5" y1="12.5" y2="12.5" class="cell_$add$fifo_sync.v:51$22"/>
    <line x1="12.5" x2="12.5" y1="7.5" y2="17.5" class="cell_$add$fifo_sync.v:51$22"/>
    <g s:x="3" s:y="5" s:pid="A"/>
    <g s:x="3" s:y="20" s:pid="B"/>
    <g s:x="25" s:y="12.5" s:pid="Y"/>
  </g>
  <g s:type="eq" transform="translate(959.6666666666666,1056.5)" s:width="25" s:height="25" id="cell_$eq$fifo_sync.v:36$2">
    <s:alias val="$eq"/>
    <circle r="12.5" cx="12.5" cy="12.5" class="cell_$eq$fifo_sync.v:36$2"/>
    <line x1="7.5" x2="17.5" y1="10" y2="10" class="cell_$eq$fifo_sync.v:36$2"/>
    <line x1="7.5" x2="17.5" y1="15" y2="15" class="cell_$eq$fifo_sync.v:36$2"/>
    <g s:x="3" s:y="5" s:pid="A"/>
    <g s:x="3" s:y="20" s:pid="B"/>
    <g s:x="25" s:y="12.5" s:pid="Y"/>
  </g>
  <g s:type="eq" transform="translate(178.33333333333334,575.5)" s:width="25" s:height="25" id="cell_$eq$fifo_sync.v:38$4">
    <s:alias val="$eq"/>
    <circle r="12.5" cx="12.5" cy="12.5" class="cell_$eq$fifo_sync.v:38$4"/>
    <line x1="7.5" x2="17.5" y1="10" y2="10" class="cell_$eq$fifo_sync.v:38$4"/>
    <line x1="7.5" x2="17.5" y1="15" y2="15" class="cell_$eq$fifo_sync.v:38$4"/>
    <g s:x="3" s:y="5" s:pid="A"/>
    <g s:x="3" s:y="20" s:pid="B"/>
    <g s:x="25" s:y="12.5" s:pid="Y"/>
  </g>
  <g s:type="and" transform="translate(304,568)" s:width="30" s:height="25" id="cell_$logic_and$fifo_sync.v:37$5">
    <s:alias val="$and"/>
    <s:alias val="$logic_and"/>
    <s:alias val="$_AND_"/>
    <path d="M0,0 L0,25 L15,25 A15 12.5 0 0 0 15,0 Z" class="cell_$logic_and$fifo_sync.v:37$5"/>
    <g s:x="0" s:y="5" s:pid="A"/>
    <g s:x="0" s:y="20" s:pid="B"/>
    <g s:x="30" s:y="12.5" s:pid="Y"/>
  </g>
  <g s:type="and" transform="translate(438,295)" s:width="30" s:height="25" id="cell_$logic_and$fifo_sync.v:45$14">
    <s:alias val="$and"/>
    <s:alias val="$logic_and"/>
    <s:alias val="$_AND_"/>
    <path d="M0,0 L0,25 L15,25 A15 12.5 0 0 0 15,0 Z" class="cell_$logic_and$fifo_sync.v:45$14"/>
    <g s:x="0" s:y="5" s:pid="A"/>
    <g s:x="0" s:y="20" s:pid="B"/>
    <g s:x="30" s:y="12.5" s:pid="Y"/>
  </g>
  <g s:type="and" transform="translate(606,933)" s:width="30" s:height="25" id="cell_$logic_and$fifo_sync.v:49$20">
    <s:alias val="$and"/>
    <s:alias val="$logic_and"/>
    <s:alias val="$_AND_"/>
    <path d="M0,0 L0,25 L15,25 A15 12.5 0 0 0 15,0 Z" class="cell_$logic_and$fifo_sync.v:49$20"/>
    <g s:x="0" s:y="5" s:pid="A"/>
    <g s:x="0" s:y="20" s:pid="B"/>
    <g s:x="30" s:y="12.5" s:pid="Y"/>
  </g>
  <g s:type="not" transform="translate(369,305)" s:width="30" s:height="20" id="cell_$logic_not$fifo_sync.v:45$13">
    <s:alias val="$_NOT_"/>
    <s:alias val="$not"/>
    <s:alias val="$logic_not"/>
    <path d="M0,0 L0,20 L20,10 Z" class="cell_$logic_not$fifo_sync.v:45$13"/>
    <circle cx="23" cy="10" r="3" class="cell_$logic_not$fifo_sync.v:45$13"/>
    <g s:x="0" s:y="10" s:pid="A"/>
    <g s:x="25" s:y="10" s:pid="Y"/>
  </g>
  <g s:type="not" transform="translate(1023,1059)" s:width="30" s:height="20" id="cell_$logic_not$fifo_sync.v:49$19">
    <s:alias val="$_NOT_"/>
    <s:alias val="$not"/>
    <s:alias val="$logic_not"/>
    <path d="M0,0 L0,20 L20,10 Z" class="cell_$logic_not$fifo_sync.v:49$19"/>
    <circle cx="23" cy="10" r="3" class="cell_$logic_not$fifo_sync.v:49$19"/>
    <g s:x="0" s:y="10" s:pid="A"/>
    <g s:x="25" s:y="10" s:pid="Y"/>
  </g>
  <g s:type="generic" transform="translate(149,497.5)" s:width="30" s:height="40" id="cell_$ne$fifo_sync.v:37$3">
    <text x="15" y="-4" class="nodelabel cell_$ne$fifo_sync.v:37$3" s:attribute="ref">≠</text>
    <rect width="30" height="40" s:generic="body" class="cell_$ne$fifo_sync.v:37$3"/>
    <g transform="translate(0,10)" s:x="0" s:y="10" s:pid="in0" id="port_$ne$fifo_sync.v:37$3~A">
      <text x="-3" y="-4" class="inputPortLabel cell_$ne$fifo_sync.v:37$3">A</text>
    </g>
    <g transform="translate(0,30)" s:x="0" s:y="10" s:pid="in0" id="port_$ne$fifo_sync.v:37$3~B">
      <text x="-3" y="-4" class="inputPortLabel cell_$ne$fifo_sync.v:37$3">B</text>
    </g>
    <g transform="translate(30,10)" s:x="30" s:y="10" s:pid="out0" id="port_$ne$fifo_sync.v:37$3~Y">
      <text x="5" y="-4" style="fill:#000; stroke:none" class="cell_$ne$fifo_sync.v:37$3">Y</text>
    </g>
  </g>
  <g s:type="dff" transform="translate(893,696.5)" s:width="30" s:height="40" id="cell_$procdff$69">
    <s:alias val="$dff"/>
    <s:alias val="$_DFF_"/>
    <s:alias val="$_DFF_P_"/>
    <rect width="30" height="40" x="0" y="0" class="cell_$procdff$69"/>
    <path d="M0,35 L5,30 L0,25" class="cell_$procdff$69"/>
    <g s:x="30" s:y="10" s:pid="Q"/>
    <g s:x="0" s:y="30" s:pid="CLK"/>
    <g s:x="0" s:y="30" s:pid="C"/>
    <g s:x="0" s:y="10" s:pid="D"/>
  </g>
  <g s:type="dff" transform="translate(893,1066.5)" s:width="30" s:height="40" id="cell_$procdff$70">
    <s:alias val="$dff"/>
    <s:alias val="$_DFF_"/>
    <s:alias val="$_DFF_P_"/>
    <rect width="30" height="40" x="0" y="0" class="cell_$procdff$70"/>
    <path d="M0,35 L5,30 L0,25" class="cell_$procdff$70"/>
    <g s:x="30" s:y="10" s:pid="Q"/>
    <g s:x="0" s:y="30" s:pid="CLK"/>
    <g s:x="0" s:y="30" s:pid="C"/>
    <g s:x="0" s:y="10" s:pid="D"/>
  </g>
  <g s:type="dff" transform="translate(958,505.5)" s:width="30" s:height="40" id="cell_$procdff$71">
    <s:alias val="$dff"/>
    <s:alias val="$_DFF_"/>
    <s:alias val="$_DFF_P_"/>
    <rect width="30" height="40" x="0" y="0" class="cell_$procdff$71"/>
    <path d="M0,35 L5,30 L0,25" class="cell_$procdff$71"/>
    <g s:x="30" s:y="10" s:pid="Q"/>
    <g s:x="0" s:y="30" s:pid="CLK"/>
    <g s:x="0" s:y="30" s:pid="C"/>
    <g s:x="0" s:y="10" s:pid="D"/>
  </g>
  <g s:type="mux" transform="translate(1023,625.5)" s:width="20" s:height="40" id="cell_$procmux$27">
    <s:alias val="$pmux"/>
    <s:alias val="$mux"/>
    <s:alias val="$_MUX_"/>
    <path d="M0,0 L20,10 L20,30 L0,40 Z" class="cell_$procmux$27"/>
    <g s:x="0" s:y="10" s:pid="A"/>
    <g s:x="0" s:y="30" s:pid="B"/>
    <g s:x="10" s:y="35" s:pid="S"/>
    <g s:x="20" s:y="20" s:pid="Y"/>
  </g>
  <g s:type="mux" transform="translate(539.3333333333333,220)" s:width="20" s:height="40" id="cell_$procmux$33">
    <s:alias val="$pmux"/>
    <s:alias val="$mux"/>
    <s:alias val="$_MUX_"/>
    <path d="M0,0 L20,10 L20,30 L0,40 Z" class="cell_$procmux$33"/>
    <g s:x="0" s:y="10" s:pid="A"/>
    <g s:x="0" s:y="30" s:pid="B"/>
    <g s:x="10" s:y="35" s:pid="S"/>
    <g s:x="20" s:y="20" s:pid="Y"/>
  </g>
  <g s:type="mux" transform="translate(539.3333333333333,45)" s:width="20" s:height="40" id="cell_$procmux$39">
    <s:alias val="$pmux"/>
    <s:alias val="$mux"/>
    <s:alias val="$_MUX_"/>
    <path d="M0,0 L20,10 L20,30 L0,40 Z" class="cell_$procmux$39"/>
    <g s:x="0" s:y="10" s:pid="A"/>
    <g s:x="0" s:y="30" s:pid="B"/>
    <g s:x="10" s:y="35" s:pid="S"/>
    <g s:x="20" s:y="20" s:pid="Y"/>
  </g>
  <g s:type="mux" transform="translate(542.6666666666667,317.5)" s:width="20" s:height="40" id="cell_$procmux$45">
    <s:alias val="$pmux"/>
    <s:alias val="$mux"/>
    <s:alias val="$_MUX_"/>
    <path d="M0,0 L20,10 L20,30 L0,40 Z" class="cell_$procmux$45"/>
    <g s:x="0" s:y="10" s:pid="A"/>
    <g s:x="0" s:y="30" s:pid="B"/>
    <g s:x="10" s:y="35" s:pid="S"/>
    <g s:x="20" s:y="20" s:pid="Y"/>
  </g>
  <g s:type="mux" transform="translate(609.3333333333334,230)" s:width="20" s:height="40" id="cell_$procmux$48">
    <s:alias val="$pmux"/>
    <s:alias val="$mux"/>
    <s:alias val="$_MUX_"/>
    <path d="M0,0 L20,10 L20,30 L0,40 Z" class="cell_$procmux$48"/>
    <g s:x="0" s:y="10" s:pid="A"/>
    <g s:x="0" s:y="30" s:pid="B"/>
    <g s:x="10" s:y="35" s:pid="S"/>
    <g s:x="20" s:y="20" s:pid="Y"/>
  </g>
  <g s:type="mux" transform="translate(609.3333333333334,65)" s:width="20" s:height="40" id="cell_$procmux$51">
    <s:alias val="$pmux"/>
    <s:alias val="$mux"/>
    <s:alias val="$_MUX_"/>
    <path d="M0,0 L20,10 L20,30 L0,40 Z" class="cell_$procmux$51"/>
    <g s:x="0" s:y="10" s:pid="A"/>
    <g s:x="0" s:y="30" s:pid="B"/>
    <g s:x="10" s:y="35" s:pid="S"/>
    <g s:x="20" s:y="20" s:pid="Y"/>
  </g>
  <g s:type="mux" transform="translate(838,80)" s:width="20" s:height="40" id="cell_$procmux$53">
    <s:alias val="$pmux"/>
    <s:alias val="$mux"/>
    <s:alias val="$_MUX_"/>
    <path d="M0,0 L20,10 L20,30 L0,40 Z" class="cell_$procmux$53"/>
    <g s:x="0" s:y="10" s:pid="A"/>
    <g s:x="0" s:y="30" s:pid="B"/>
    <g s:x="10" s:y="35" s:pid="S"/>
    <g s:x="20" s:y="20" s:pid="Y"/>
  </g>
  <g s:type="mux" transform="translate(899.6666666666666,90)" s:width="20" s:height="40" id="cell_$procmux$56">
    <s:alias val="$pmux"/>
    <s:alias val="$mux"/>
    <s:alias val="$_MUX_"/>
    <path d="M0,0 L20,10 L20,30 L0,40 Z" class="cell_$procmux$56"/>
    <g s:x="0" s:y="10" s:pid="A"/>
    <g s:x="0" s:y="30" s:pid="B"/>
    <g s:x="10" s:y="35" s:pid="S"/>
    <g s:x="20" s:y="20" s:pid="Y"/>
  </g>
  <g s:type="mux" transform="translate(736,975.5)" s:width="20" s:height="40" id="cell_$procmux$58">
    <s:alias val="$pmux"/>
    <s:alias val="$mux"/>
    <s:alias val="$_MUX_"/>
    <path d="M0,0 L20,10 L20,30 L0,40 Z" class="cell_$procmux$58"/>
    <g s:x="0" s:y="10" s:pid="A"/>
    <g s:x="0" s:y="30" s:pid="B"/>
    <g s:x="10" s:y="35" s:pid="S"/>
    <g s:x="20" s:y="20" s:pid="Y"/>
  </g>
  <g s:type="mux" transform="translate(838,1046.5)" s:width="20" s:height="40" id="cell_$procmux$61">
    <s:alias val="$pmux"/>
    <s:alias val="$mux"/>
    <s:alias val="$_MUX_"/>
    <path d="M0,0 L20,10 L20,30 L0,40 Z" class="cell_$procmux$61"/>
    <g s:x="0" s:y="10" s:pid="A"/>
    <g s:x="0" s:y="30" s:pid="B"/>
    <g s:x="10" s:y="35" s:pid="S"/>
    <g s:x="20" s:y="20" s:pid="Y"/>
  </g>
  <g s:type="mux" transform="translate(736,828.5)" s:width="20" s:height="40" id="cell_$procmux$64">
    <s:alias val="$pmux"/>
    <s:alias val="$mux"/>
    <s:alias val="$_MUX_"/>
    <path d="M0,0 L20,10 L20,30 L0,40 Z" class="cell_$procmux$64"/>
    <g s:x="0" s:y="10" s:pid="A"/>
    <g s:x="0" s:y="30" s:pid="B"/>
    <g s:x="10" s:y="35" s:pid="S"/>
    <g s:x="20" s:y="20" s:pid="Y"/>
  </g>
  <g s:type="mux" transform="translate(838,838.5)" s:width="20" s:height="40" id="cell_$procmux$67">
    <s:alias val="$pmux"/>
    <s:alias val="$mux"/>
    <s:alias val="$_MUX_"/>
    <path d="M0,0 L20,10 L20,30 L0,40 Z" class="cell_$procmux$67"/>
    <g s:x="0" s:y="10" s:pid="A"/>
    <g s:x="0" s:y="30" s:pid="B"/>
    <g s:x="10" s:y="35" s:pid="S"/>
    <g s:x="20" s:y="20" s:pid="Y"/>
  </g>
  <g s:type="generic" transform="translate(729,99.5)" s:width="30" s:height="40" id="cell_ram">
    <text x="15" y="-4" class="nodelabel cell_ram" s:attribute="ref">RAM</text>
    <rect width="30" height="180" s:generic="body" class="cell_ram"/>
    <g transform="translate(0,10)" s:x="0" s:y="10" s:pid="in0" id="port_ram~RD_ADDR">
      <text x="-3" y="-4" class="inputPortLabel cell_ram">RD_ADDR</text>
    </g>
    <g transform="translate(0,30)" s:x="0" s:y="10" s:pid="in0" id="port_ram~RD_ARST">
      <text x="-3" y="-4" class="inputPortLabel cell_ram">RD_ARST</text>
    </g>
    <g transform="translate(0,50)" s:x="0" s:y="10" s:pid="in0" id="port_ram~RD_CLK">
      <text x="-3" y="-4" class="inputPortLabel cell_ram">RD_CLK</text>
    </g>
    <g transform="translate(0,70)" s:x="0" s:y="10" s:pid="in0" id="port_ram~RD_EN">
      <text x="-3" y="-4" class="inputPortLabel cell_ram">RD_EN</text>
    </g>
    <g transform="translate(0,90)" s:x="0" s:y="10" s:pid="in0" id="port_ram~RD_SRST">
      <text x="-3" y="-4" class="inputPortLabel cell_ram">RD_SRST</text>
    </g>
    <g transform="translate(0,110)" s:x="0" s:y="10" s:pid="in0" id="port_ram~WR_ADDR">
      <text x="-3" y="-4" class="inputPortLabel cell_ram">WR_ADDR</text>
    </g>
    <g transform="translate(0,130)" s:x="0" s:y="10" s:pid="in0" id="port_ram~WR_CLK">
      <text x="-3" y="-4" class="inputPortLabel cell_ram">WR_CLK</text>
    </g>
    <g transform="translate(0,150)" s:x="0" s:y="10" s:pid="in0" id="port_ram~WR_DATA">
      <text x="-3" y="-4" class="inputPortLabel cell_ram">WR_DATA</text>
    </g>
    <g transform="translate(0,170)" s:x="0" s:y="10" s:pid="in0" id="port_ram~WR_EN">
      <text x="-3" y="-4" class="inputPortLabel cell_ram">WR_EN</text>
    </g>
    <g transform="translate(30,10)" s:x="30" s:y="10" s:pid="out0" id="port_ram~RD_DATA">
      <text x="5" y="-4" style="fill:#000; stroke:none" class="cell_ram">RD_DATA</text>
    </g>
  </g>
  <g s:type="inputExt" transform="translate(606,716.5)" s:width="30" s:height="20" id="cell_clk">
    <text x="15" y="-4" class="nodelabel cell_clk" s:attribute="ref">clk</text>
    <s:alias val="$_inputExt_"/>
    <path d="M0,0 L0,20 L15,20 L30,10 L15,0 Z" class="cell_clk"/>
    <g s:x="28" s:y="10" s:pid="Y"/>
  </g>
  <g s:type="inputExt" transform="translate(434,367.5)" s:width="30" s:height="20" id="cell_rst">
    <text x="15" y="-4" class="nodelabel cell_rst" s:attribute="ref">rst</text>
    <s:alias val="$_inputExt_"/>
    <path d="M0,0 L0,20 L15,20 L30,10 L15,0 Z" class="cell_rst"/>
    <g s:x="28" s:y="10" s:pid="Y"/>
  </g>
  <g s:type="inputExt" transform="translate(369,250)" s:width="30" s:height="20" id="cell_wr_en">
    <text x="15" y="-4" class="nodelabel cell_wr_en" s:attribute="ref">wr_en</text>
    <s:alias val="$_inputExt_"/>
    <path d="M0,0 L0,20 L15,20 L30,10 L15,0 Z" class="cell_wr_en"/>
    <g s:x="28" s:y="10" s:pid="Y"/>
  </g>
  <g s:type="inputExt" transform="translate(434,240)" s:width="30" s:height="20" id="cell_wr_data">
    <text x="15" y="-4" class="nodelabel cell_wr_data" s:attribute="ref">wr_data</text>
    <s:alias val="$_inputExt_"/>
    <path d="M0,0 L0,20 L15,20 L30,10 L15,0 Z" class="cell_wr_data"/>
    <g s:x="28" s:y="10" s:pid="Y"/>
  </g>
  <g s:type="inputExt" transform="translate(536,928)" s:width="30" s:height="20" id="cell_rd_en">
    <text x="15" y="-4" class="nodelabel cell_rd_en" s:attribute="ref">rd_en</text>
    <s:alias val="$_inputExt_"/>
    <path d="M0,0 L0,20 L15,20 L30,10 L15,0 Z" class="cell_rd_en"/>
    <g s:x="28" s:y="10" s:pid="Y"/>
  </g>
  <g s:type="outputExt" transform="translate(1023,505.5)" s:width="30" s:height="20" id="cell_rd_data">
    <text x="15" y="-4" class="nodelabel cell_rd_data" s:attribute="ref">rd_data</text>
    <s:alias val="$_outputExt_"/>
    <path d="M30,0 L30,20 L15,20 L0,10 L15,0 Z" class="cell_rd_data"/>
    <g s:x="0" s:y="10" s:pid="A"/>
  </g>
  <g s:type="outputExt" transform="translate(1023,1004)" s:width="30" s:height="20" id="cell_empty">
    <text x="15" y="-4" class="nodelabel cell_empty" s:attribute="ref">empty</text>
    <s:alias val="$_outputExt_"/>
    <path d="M30,0 L30,20 L15,20 L0,10 L15,0 Z" class="cell_empty"/>
    <g s:x="0" s:y="10" s:pid="A"/>
  </g>
  <g s:type="outputExt" transform="translate(1023,570.5)" s:width="30" s:height="20" id="cell_full">
    <text x="15" y="-4" class="nodelabel cell_full" s:attribute="ref">full</text>
    <s:alias val="$_outputExt_"/>
    <path d="M30,0 L30,20 L15,20 L0,10 L15,0 Z" class="cell_full"/>
    <g s:x="0" s:y="10" s:pid="A"/>
  </g>
  <g s:type="constant" transform="translate(536,645.5)" s:width="30" s:height="20" id="cell_1">
    <text x="15" y="-4" class="nodelabel cell_1" s:attribute="ref">1</text>
    <s:alias val="$_constant_"/>
    <rect width="30" height="20" class="cell_1"/>
    <g s:x="30" s:y="10" s:pid="Y"/>
  </g>
  <g s:type="constant" transform="translate(434,175)" s:width="30" s:height="20" id="cell_0">
    <text x="15" y="-4" class="nodelabel cell_0" s:attribute="ref">0</text>
    <s:alias val="$_constant_"/>
    <rect width="30" height="20" class="cell_0"/>
    <g s:x="30" s:y="10" s:pid="Y"/>
  </g>
  <g s:type="constant" transform="translate(729,920.5)" s:width="30" s:height="20" id="cell_00000">
    <text x="15" y="-4" class="nodelabel cell_00000" s:attribute="ref">0x0</text>
    <s:alias val="$_constant_"/>
    <rect width="30" height="20" class="cell_00000"/>
    <g s:x="30" s:y="10" s:pid="Y"/>
  </g>
  <g s:type="join" transform="translate(609.7142857142857,400.5)" s:width="4" s:height="40" id="cell_$join$,81,81,81,81,81,81,81,81,">
    <rect width="5" height="160" class="splitjoinBody" s:generic="body"/>
    <s:alias val="$_join_"/>
    <g s:x="5" s:y="20" s:pid="out"/>
    <g transform="translate(0,10)" s:x="0" s:y="10" s:pid="in0">
      <text x="-3" y="-4" class="inputPortLabel">0</text>
    </g>
    <g transform="translate(0,30)" s:x="0" s:y="10" s:pid="in0">
      <text x="-3" y="-4" class="inputPortLabel">1</text>
    </g>
    <g transform="translate(0,50)" s:x="0" s:y="10" s:pid="in0">
      <text x="-3" y="-4" class="inputPortLabel">2</text>
    </g>
    <g transform="translate(0,70)" s:x="0" s:y="10" s:pid="in0">
      <text x="-3" y="-4" class="inputPortLabel">3</text>
    </g>
    <g transform="translate(0,90)" s:x="0" s:y="10" s:pid="in0">
      <text x="-3" y="-4" class="inputPortLabel">4</text>
    </g>
    <g transform="translate(0,110)" s:x="0" s:y="10" s:pid="in0">
      <text x="-3" y="-4" class="inputPortLabel">5</text>
    </g>
    <g transform="translate(0,130)" s:x="0" s:y="10" s:pid="in0">
      <text x="-3" y="-4" class="inputPortLabel">6</text>
    </g>
    <g transform="translate(0,150)" s:x="0" s:y="10" s:pid="in0">
      <text x="-3" y="-4" class="inputPortLabel">7</text>
    </g>
  </g>
  <g s:type="split" transform="translate(78,420.5)" s:width="5" s:height="40" id="cell_$split$,24,25,26,27,28,">
    <rect width="5" height="40" class="splitjoinBody" s:generic="body"/>
    <s:alias val="$_split_"/>
    <g s:x="0" s:y="20" s:pid="in"/>
    <g transform="translate(4,10)" s:x="4" s:y="10" s:pid="out0">
      <text x="5" y="-4">0:3</text>
    </g>
    <g transform="translate(4,30)" s:x="4" s:y="10" s:pid="out0">
      <text x="5" y="-4">4</text>
    </g>
  </g>
  <g s:type="split" transform="translate(78,497.5)" s:width="5" s:height="40" id="cell_$split$,34,35,36,37,38,">
    <rect width="5" height="40" class="splitjoinBody" s:generic="body"/>
    <s:alias val="$_split_"/>
    <g s:x="0" s:y="20" s:pid="in"/>
    <g transform="translate(4,10)" s:x="4" s:y="10" s:pid="out0">
      <text x="5" y="-4">0:3</text>
    </g>
    <g transform="translate(4,30)" s:x="4" s:y="10" s:pid="out0">
      <text x="5" y="-4">4</text>
    </g>
  </g>
  <g s:type="split" transform="translate(12,14)" s:width="5" s:height="40" id="cell_$split$,x,x,x,x,x,x,x,x,">
    <rect width="5" height="40" class="splitjoinBody" s:generic="body"/>
    <s:alias val="$_split_"/>
    <g s:x="0" s:y="20" s:pid="in"/>
    <g transform="translate(4,10)" s:x="4" s:y="10" s:pid="out0">
      <text x="5" y="-4">0:3</text>
    </g>
    <g transform="translate(4,30)" s:x="4" s:y="10" s:pid="out0">
      <text x="5" y="-4">0</text>
    </g>
  </g>
  <line x1="923" x2="943" y1="706.5" y2="706.5" class="net_24,25,26,27,28"/>
  <line x1="943" x2="943" y1="706.5" y2="686.5" class="net_24,25,26,27,28"/>
  <line x1="943" x2="596" y1="686.5" y2="686.5" class="net_24,25,26,27,28"/>
  <line x1="596" x2="596" y1="686.5" y2="776.5" class="net_24,25,26,27,28"/>
  <circle cx="943" cy="706.5" r="2" style="fill:#000" class="net_24,25,26,27,28"/>
  <line x1="596" x2="611" y1="776.5" y2="776.5" class="net_24,25,26,27,28"/>
  <line x1="923" x2="943" y1="706.5" y2="706.5" class="net_24,25,26,27,28"/>
  <line x1="943" x2="943" y1="706.5" y2="1061.5" class="net_24,25,26,27,28"/>
  <line x1="943" x2="962.6666666666666" y1="1061.5" y2="1061.5" class="net_24,25,26,27,28"/>
  <line x1="923" x2="943" y1="706.5" y2="706.5" class="net_24,25,26,27,28"/>
  <line x1="943" x2="943" y1="706.5" y2="900.5" class="net_24,25,26,27,28"/>
  <line x1="943" x2="666" y1="900.5" y2="900.5" class="net_24,25,26,27,28"/>
  <line x1="666" x2="666" y1="900.5" y2="838.5" class="net_24,25,26,27,28"/>
  <line x1="666" x2="736" y1="838.5" y2="838.5" class="net_24,25,26,27,28"/>
  <line x1="923" x2="943" y1="706.5" y2="706.5" class="net_24,25,26,27,28"/>
  <line x1="943" x2="943" y1="706.5" y2="900.5" class="net_24,25,26,27,28"/>
  <line x1="943" x2="878" y1="900.5" y2="900.5" class="net_24,25,26,27,28"/>
  <line x1="878" x2="878" y1="900.5" y2="806.5" class="net_24,25,26,27,28"/>
  <line x1="878" x2="58" y1="806.5" y2="806.5" class="net_24,25,26,27,28"/>
  <line x1="58" x2="58" y1="806.5" y2="441" class="net_24,25,26,27,28"/>
  <circle cx="878" cy="900.5" r="2" style="fill:#000" class="net_24,25,26,27,28"/>
  <circle cx="943" cy="900.5" r="2" style="fill:#000" class="net_24,25,26,27,28"/>
  <line x1="58" x2="78" y1="441" y2="441" class="net_24,25,26,27,28"/>
  <line x1="566" x2="576" y1="655.5" y2="655.5" class="net_120"/>
  <line x1="576" x2="576" y1="655.5" y2="791.5" class="net_120"/>
  <circle cx="576" cy="655.5" r="2" style="fill:#000" class="net_120"/>
  <circle cx="576" cy="791.5" r="2" style="fill:#000" class="net_120"/>
  <line x1="576" x2="611" y1="791.5" y2="791.5" class="net_120"/>
  <line x1="566" x2="576" y1="655.5" y2="655.5" class="net_120"/>
  <line x1="576" x2="576" y1="655.5" y2="1013" class="net_120"/>
  <line x1="576" x2="611" y1="1013" y2="1013" class="net_120"/>
  <line x1="566" x2="1023" y1="655.5" y2="655.5" class="net_120"/>
  <line x1="566" x2="576" y1="655.5" y2="655.5" class="net_120"/>
  <line x1="576" x2="576" y1="655.5" y2="170" class="net_120"/>
  <line x1="576" x2="729" y1="170" y2="170" class="net_120"/>
  <line x1="923" x2="933" y1="1076.5" y2="1076.5" class="net_34,35,36,37,38"/>
  <line x1="933" x2="933" y1="1076.5" y2="1035.5" class="net_34,35,36,37,38"/>
  <line x1="933" x2="596" y1="1035.5" y2="1035.5" class="net_34,35,36,37,38"/>
  <line x1="596" x2="596" y1="1035.5" y2="998" class="net_34,35,36,37,38"/>
  <circle cx="933" cy="1076.5" r="2" style="fill:#000" class="net_34,35,36,37,38"/>
  <line x1="596" x2="611" y1="998" y2="998" class="net_34,35,36,37,38"/>
  <line x1="923" x2="962.6666666666666" y1="1076.5" y2="1076.5" class="net_34,35,36,37,38"/>
  <line x1="923" x2="933" y1="1076.5" y2="1076.5" class="net_34,35,36,37,38"/>
  <line x1="933" x2="933" y1="1076.5" y2="1118.5" class="net_34,35,36,37,38"/>
  <line x1="933" x2="666" y1="1118.5" y2="1118.5" class="net_34,35,36,37,38"/>
  <line x1="666" x2="666" y1="1118.5" y2="985.5" class="net_34,35,36,37,38"/>
  <circle cx="666" cy="1118.5" r="2" style="fill:#000" class="net_34,35,36,37,38"/>
  <line x1="666" x2="736" y1="985.5" y2="985.5" class="net_34,35,36,37,38"/>
  <line x1="923" x2="933" y1="1076.5" y2="1076.5" class="net_34,35,36,37,38"/>
  <line x1="933" x2="933" y1="1076.5" y2="1118.5" class="net_34,35,36,37,38"/>
  <line x1="933" x2="48" y1="1118.5" y2="1118.5" class="net_34,35,36,37,38"/>
  <line x1="48" x2="48" y1="1118.5" y2="518" class="net_34,35,36,37,38"/>
  <line x1="48" x2="78" y1="518" y2="518" class="net_34,35,36,37,38"/>
  <line x1="83" x2="132" y1="431" y2="431" class="net_24,25,26,27"/>
  <line x1="132" x2="132" y1="431" y2="580.5" class="net_24,25,26,27"/>
  <circle cx="132" cy="431" r="2" style="fill:#000" class="net_24,25,26,27"/>
  <line x1="132" x2="181.33333333333334" y1="580.5" y2="580.5" class="net_24,25,26,27"/>
  <line x1="83" x2="132" y1="431" y2="431" class="net_24,25,26,27"/>
  <line x1="132" x2="132" y1="431" y2="75" class="net_24,25,26,27"/>
  <line x1="132" x2="539.3333333333333" y1="75" y2="75" class="net_24,25,26,27"/>
  <line x1="83" x2="112" y1="508" y2="508" class="net_34,35,36,37"/>
  <line x1="112" x2="112" y1="508" y2="595.5" class="net_34,35,36,37"/>
  <circle cx="112" cy="508" r="2" style="fill:#000" class="net_34,35,36,37"/>
  <line x1="112" x2="181.33333333333334" y1="595.5" y2="595.5" class="net_34,35,36,37"/>
  <line x1="83" x2="112" y1="508" y2="508" class="net_34,35,36,37"/>
  <line x1="112" x2="112" y1="508" y2="23" class="net_34,35,36,37"/>
  <line x1="112" x2="666" y1="23" y2="23" class="net_34,35,36,37"/>
  <line x1="666" x2="666" y1="23" y2="110" class="net_34,35,36,37"/>
  <line x1="666" x2="729" y1="110" y2="110" class="net_34,35,36,37"/>
  <line x1="180" x2="279" y1="508" y2="508" class="net_45"/>
  <line x1="279" x2="279" y1="508" y2="573" class="net_45"/>
  <line x1="279" x2="304" y1="573" y2="573" class="net_45"/>
  <line x1="203.33333333333334" x2="304" y1="588" y2="588" class="net_44"/>
  <line x1="397" x2="409" y1="260" y2="260" class="net_4"/>
  <line x1="409" x2="409" y1="260" y2="300" class="net_4"/>
  <line x1="409" x2="438" y1="300" y2="300" class="net_4"/>
  <line x1="394" x2="438" y1="315" y2="315" class="net_46"/>
  <line x1="564" x2="606" y1="938" y2="938" class="net_13"/>
  <line x1="1048" x2="1075" y1="1069" y2="1069" class="net_48"/>
  <line x1="1075" x2="1075" y1="1069" y2="1129.5" class="net_48"/>
  <line x1="1075" x2="586" y1="1129.5" y2="1129.5" class="net_48"/>
  <line x1="586" x2="586" y1="1129.5" y2="953" class="net_48"/>
  <line x1="586" x2="606" y1="953" y2="953" class="net_48"/>
  <line x1="334" x2="344" y1="580.5" y2="580.5" class="net_23"/>
  <line x1="344" x2="344" y1="580.5" y2="315" class="net_23"/>
  <circle cx="344" cy="580.5" r="2" style="fill:#000" class="net_23"/>
  <line x1="344" x2="369" y1="315" y2="315" class="net_23"/>
  <line x1="334" x2="1023" y1="580.5" y2="580.5" class="net_23"/>
  <line x1="984.6666666666666" x2="1023" y1="1069" y2="1069" class="net_22"/>
  <line x1="984.6666666666666" x2="998" y1="1069" y2="1069" class="net_22"/>
  <line x1="998" x2="998" y1="1069" y2="1014" class="net_22"/>
  <circle cx="998" cy="1069" r="2" style="fill:#000" class="net_22"/>
  <line x1="998" x2="1023" y1="1014" y2="1014" class="net_22"/>
  <line x1="83" x2="122" y1="451" y2="451" class="net_28"/>
  <line x1="122" x2="122" y1="451" y2="508" class="net_28"/>
  <line x1="122" x2="149" y1="508" y2="508" class="net_28"/>
  <line x1="83" x2="149" y1="528" y2="528" class="net_38"/>
  <line x1="634" x2="893" y1="726.5" y2="726.5" class="net_2"/>
  <line x1="634" x2="646" y1="726.5" y2="726.5" class="net_2"/>
  <line x1="646" x2="646" y1="726.5" y2="1096.5" class="net_2"/>
  <circle cx="646" cy="726.5" r="2" style="fill:#000" class="net_2"/>
  <line x1="646" x2="893" y1="1096.5" y2="1096.5" class="net_2"/>
  <line x1="634" x2="646" y1="726.5" y2="726.5" class="net_2"/>
  <line x1="646" x2="646" y1="726.5" y2="535.5" class="net_2"/>
  <circle cx="646" cy="535.5" r="2" style="fill:#000" class="net_2"/>
  <line x1="646" x2="958" y1="535.5" y2="535.5" class="net_2"/>
  <line x1="634" x2="646" y1="726.5" y2="726.5" class="net_2"/>
  <line x1="646" x2="646" y1="726.5" y2="230" class="net_2"/>
  <line x1="646" x2="729" y1="230" y2="230" class="net_2"/>
  <line x1="858" x2="868" y1="858.5" y2="858.5" class="net_50,51,52,53,54"/>
  <line x1="868" x2="868" y1="858.5" y2="706.5" class="net_50,51,52,53,54"/>
  <line x1="868" x2="893" y1="706.5" y2="706.5" class="net_50,51,52,53,54"/>
  <line x1="858" x2="868" y1="1066.5" y2="1066.5" class="net_55,56,57,58,59"/>
  <line x1="868" x2="868" y1="1066.5" y2="1076.5" class="net_55,56,57,58,59"/>
  <line x1="868" x2="893" y1="1076.5" y2="1076.5" class="net_55,56,57,58,59"/>
  <line x1="919.6666666666666" x2="933" y1="110" y2="110" class="net_60,61,62,63,64,65,66,67"/>
  <line x1="933" x2="933" y1="110" y2="515.5" class="net_60,61,62,63,64,65,66,67"/>
  <line x1="933" x2="958" y1="515.5" y2="515.5" class="net_60,61,62,63,64,65,66,67"/>
  <line x1="464" x2="516" y1="185" y2="185" class="net_122"/>
  <line x1="516" x2="516" y1="185" y2="624.5" class="net_122"/>
  <line x1="516" x2="998" y1="624.5" y2="624.5" class="net_122"/>
  <line x1="998" x2="998" y1="624.5" y2="635.5" class="net_122"/>
  <circle cx="516" cy="185" r="2" style="fill:#000" class="net_122"/>
  <line x1="998" x2="1023" y1="635.5" y2="635.5" class="net_122"/>
  <line x1="464" x2="516" y1="185" y2="185" class="net_122"/>
  <line x1="516" x2="516" y1="185" y2="347.5" class="net_122"/>
  <circle cx="516" cy="347.5" r="2" style="fill:#000" class="net_122"/>
  <line x1="516" x2="542.6666666666667" y1="347.5" y2="347.5" class="net_122"/>
  <line x1="464" x2="516" y1="185" y2="185" class="net_122"/>
  <line x1="516" x2="516" y1="185" y2="34" class="net_122"/>
  <line x1="516" x2="656" y1="34" y2="34" class="net_122"/>
  <line x1="656" x2="656" y1="34" y2="130" class="net_122"/>
  <line x1="656" x2="729" y1="130" y2="130" class="net_122"/>
  <line x1="464" x2="656" y1="185" y2="185" class="net_122"/>
  <line x1="656" x2="656" y1="185" y2="190" class="net_122"/>
  <line x1="656" x2="729" y1="190" y2="190" class="net_122"/>
  <line x1="468" x2="506" y1="307.5" y2="307.5" class="net_47"/>
  <line x1="506" x2="506" y1="307.5" y2="675.5" class="net_47"/>
  <line x1="506" x2="1033" y1="675.5" y2="675.5" class="net_47"/>
  <circle cx="506" cy="307.5" r="2" style="fill:#000" class="net_47"/>
  <circle cx="506" cy="675.5" r="2" style="fill:#000" class="net_47"/>
  <line x1="1033" x2="1033" y1="675.5" y2="660.5" class="net_47"/>
  <line x1="468" x2="549.3333333333333" y1="307.5" y2="307.5" class="net_47"/>
  <line x1="549.3333333333333" x2="549.3333333333333" y1="307.5" y2="255" class="net_47"/>
  <line x1="468" x2="506" y1="307.5" y2="307.5" class="net_47"/>
  <line x1="506" x2="506" y1="307.5" y2="210" class="net_47"/>
  <line x1="506" x2="549.3333333333333" y1="210" y2="210" class="net_47"/>
  <line x1="549.3333333333333" x2="549.3333333333333" y1="210" y2="80" class="net_47"/>
  <line x1="468" x2="506" y1="307.5" y2="307.5" class="net_47"/>
  <line x1="506" x2="506" y1="307.5" y2="878.5" class="net_47"/>
  <line x1="506" x2="746" y1="878.5" y2="878.5" class="net_47"/>
  <line x1="746" x2="746" y1="878.5" y2="863.5" class="net_47"/>
  <line x1="526" x2="526" y1="130" y2="230" class="net_x,x,x,x,x,x,x,x"/>
  <line x1="526" x2="539.3333333333333" y1="230" y2="230" class="net_x,x,x,x,x,x,x,x"/>
  <line x1="526" x2="526" y1="130" y2="199" class="net_x,x,x,x,x,x,x,x"/>
  <line x1="526" x2="586" y1="199" y2="199" class="net_x,x,x,x,x,x,x,x"/>
  <line x1="586" x2="586" y1="199" y2="260" class="net_x,x,x,x,x,x,x,x"/>
  <circle cx="526" cy="199" r="2" style="fill:#000" class="net_x,x,x,x,x,x,x,x"/>
  <line x1="586" x2="609.3333333333334" y1="260" y2="260" class="net_x,x,x,x,x,x,x,x"/>
  <line x1="462" x2="539.3333333333333" y1="250" y2="250" class="net_5,6,7,8,9,10,11,12"/>
  <line x1="526" x2="526" y1="95" y2="55" class="net_x,x,x,x"/>
  <line x1="526" x2="539.3333333333333" y1="55" y2="55" class="net_x,x,x,x"/>
  <line x1="526" x2="609.3333333333334" y1="95" y2="95" class="net_x,x,x,x"/>
  <line x1="1043" x2="1075" y1="645.5" y2="645.5" class="net_68"/>
  <line x1="1075" x2="1075" y1="645.5" y2="12" class="net_68"/>
  <line x1="1075" x2="496" y1="12" y2="12" class="net_68"/>
  <line x1="496" x2="496" y1="12" y2="327.5" class="net_68"/>
  <line x1="496" x2="542.6666666666667" y1="327.5" y2="327.5" class="net_68"/>
  <line x1="462" x2="486" y1="377.5" y2="377.5" class="net_3"/>
  <line x1="486" x2="486" y1="377.5" y2="367.5" class="net_3"/>
  <line x1="486" x2="552.6666666666667" y1="367.5" y2="367.5" class="net_3"/>
  <circle cx="486" cy="377.5" r="2" style="fill:#000" class="net_3"/>
  <circle cx="486" cy="367.5" r="2" style="fill:#000" class="net_3"/>
  <line x1="552.6666666666667" x2="552.6666666666667" y1="367.5" y2="352.5" class="net_3"/>
  <line x1="462" x2="596" y1="377.5" y2="377.5" class="net_3"/>
  <line x1="596" x2="596" y1="377.5" y2="367.5" class="net_3"/>
  <line x1="596" x2="619.3333333333334" y1="367.5" y2="367.5" class="net_3"/>
  <circle cx="596" cy="377.5" r="2" style="fill:#000" class="net_3"/>
  <line x1="619.3333333333334" x2="619.3333333333334" y1="367.5" y2="265" class="net_3"/>
  <line x1="462" x2="486" y1="377.5" y2="377.5" class="net_3"/>
  <line x1="486" x2="486" y1="377.5" y2="160" class="net_3"/>
  <line x1="486" x2="619.3333333333334" y1="160" y2="160" class="net_3"/>
  <line x1="619.3333333333334" x2="619.3333333333334" y1="160" y2="100" class="net_3"/>
  <line x1="462" x2="909.6666666666666" y1="377.5" y2="377.5" class="net_3"/>
  <line x1="909.6666666666666" x2="909.6666666666666" y1="377.5" y2="125" class="net_3"/>
  <line x1="462" x2="486" y1="377.5" y2="377.5" class="net_3"/>
  <line x1="486" x2="486" y1="377.5" y2="1107.5" class="net_3"/>
  <line x1="486" x2="848" y1="1107.5" y2="1107.5" class="net_3"/>
  <line x1="848" x2="848" y1="1107.5" y2="1081.5" class="net_3"/>
  <line x1="462" x2="486" y1="377.5" y2="377.5" class="net_3"/>
  <line x1="486" x2="486" y1="377.5" y2="889.5" class="net_3"/>
  <line x1="486" x2="848" y1="889.5" y2="889.5" class="net_3"/>
  <circle cx="486" cy="889.5" r="2" style="fill:#000" class="net_3"/>
  <line x1="848" x2="848" y1="889.5" y2="873.5" class="net_3"/>
  <line x1="559.3333333333333" x2="609.3333333333334" y1="240" y2="240" class="net_69,70,71,72,73,74,75,76"/>
  <line x1="559.3333333333333" x2="576" y1="65" y2="65" class="net_77,78,79,80"/>
  <line x1="576" x2="576" y1="65" y2="75" class="net_77,78,79,80"/>
  <line x1="576" x2="609.3333333333334" y1="75" y2="75" class="net_77,78,79,80"/>
  <line x1="988" x2="998" y1="515.5" y2="515.5" class="net_14,15,16,17,18,19,20,21"/>
  <line x1="998" x2="998" y1="515.5" y2="495.5" class="net_14,15,16,17,18,19,20,21"/>
  <line x1="998" x2="943" y1="495.5" y2="495.5" class="net_14,15,16,17,18,19,20,21"/>
  <line x1="943" x2="943" y1="495.5" y2="70" class="net_14,15,16,17,18,19,20,21"/>
  <line x1="943" x2="823" y1="70" y2="70" class="net_14,15,16,17,18,19,20,21"/>
  <line x1="823" x2="823" y1="70" y2="90" class="net_14,15,16,17,18,19,20,21"/>
  <circle cx="943" cy="495.5" r="2" style="fill:#000" class="net_14,15,16,17,18,19,20,21"/>
  <circle cx="998" cy="515.5" r="2" style="fill:#000" class="net_14,15,16,17,18,19,20,21"/>
  <line x1="823" x2="838" y1="90" y2="90" class="net_14,15,16,17,18,19,20,21"/>
  <line x1="988" x2="998" y1="515.5" y2="515.5" class="net_14,15,16,17,18,19,20,21"/>
  <line x1="998" x2="998" y1="515.5" y2="495.5" class="net_14,15,16,17,18,19,20,21"/>
  <line x1="998" x2="878" y1="495.5" y2="495.5" class="net_14,15,16,17,18,19,20,21"/>
  <line x1="878" x2="878" y1="495.5" y2="120" class="net_14,15,16,17,18,19,20,21"/>
  <line x1="878" x2="899.6666666666666" y1="120" y2="120" class="net_14,15,16,17,18,19,20,21"/>
  <line x1="988" x2="1023" y1="515.5" y2="515.5" class="net_14,15,16,17,18,19,20,21"/>
  <line x1="760" x2="838" y1="110" y2="110" class="net_94,95,96,97,98,99,100,101"/>
  <line x1="636" x2="656" y1="945.5" y2="945.5" class="net_49"/>
  <line x1="656" x2="656" y1="945.5" y2="817.5" class="net_49"/>
  <line x1="656" x2="848" y1="817.5" y2="817.5" class="net_49"/>
  <circle cx="656" cy="945.5" r="2" style="fill:#000" class="net_49"/>
  <line x1="848" x2="848" y1="817.5" y2="115" class="net_49"/>
  <line x1="636" x2="656" y1="945.5" y2="945.5" class="net_49"/>
  <line x1="656" x2="656" y1="945.5" y2="1025.5" class="net_49"/>
  <line x1="656" x2="746" y1="1025.5" y2="1025.5" class="net_49"/>
  <line x1="746" x2="746" y1="1025.5" y2="1010.5" class="net_49"/>
  <line x1="858" x2="899.6666666666666" y1="100" y2="100" class="net_102,103,104,105,106,107,108,109"/>
  <line x1="633" x2="736" y1="1005.5" y2="1005.5" class="net_39,40,41,42,43"/>
  <line x1="756" x2="813" y1="995.5" y2="995.5" class="net_110,111,112,113,114"/>
  <line x1="813" x2="813" y1="995.5" y2="1056.5" class="net_110,111,112,113,114"/>
  <line x1="813" x2="838" y1="1056.5" y2="1056.5" class="net_110,111,112,113,114"/>
  <line x1="759" x2="823" y1="930.5" y2="930.5" class="net_125,126,127,128,129"/>
  <line x1="823" x2="823" y1="930.5" y2="1076.5" class="net_125,126,127,128,129"/>
  <circle cx="823" cy="930.5" r="2" style="fill:#000" class="net_125,126,127,128,129"/>
  <line x1="823" x2="838" y1="1076.5" y2="1076.5" class="net_125,126,127,128,129"/>
  <line x1="759" x2="823" y1="930.5" y2="930.5" class="net_125,126,127,128,129"/>
  <line x1="823" x2="823" y1="930.5" y2="868.5" class="net_125,126,127,128,129"/>
  <line x1="823" x2="838" y1="868.5" y2="868.5" class="net_125,126,127,128,129"/>
  <line x1="633" x2="676" y1="784" y2="784" class="net_29,30,31,32,33"/>
  <line x1="676" x2="676" y1="784" y2="858.5" class="net_29,30,31,32,33"/>
  <line x1="676" x2="736" y1="858.5" y2="858.5" class="net_29,30,31,32,33"/>
  <line x1="756" x2="838" y1="848.5" y2="848.5" class="net_115,116,117,118,119"/>
  <line x1="629.3333333333334" x2="646" y1="85" y2="85" class="net_90,91,92,93"/>
  <line x1="646" x2="646" y1="85" y2="210" class="net_90,91,92,93"/>
  <line x1="646" x2="729" y1="210" y2="210" class="net_90,91,92,93"/>
  <line x1="629.3333333333334" x2="729" y1="250" y2="250" class="net_82,83,84,85,86,87,88,89"/>
  <line x1="615.7142857142857" x2="656" y1="421" y2="421" class="net_81,81,81,81,81,81,81,81"/>
  <line x1="656" x2="656" y1="421" y2="270" class="net_81,81,81,81,81,81,81,81"/>
  <line x1="656" x2="729" y1="270" y2="270" class="net_81,81,81,81,81,81,81,81"/>
  <line x1="562.6666666666667" x2="586" y1="337.5" y2="337.5" class="net_81"/>
  <line x1="586" x2="586" y1="337.5" y2="388.5" class="net_81"/>
  <line x1="586" x2="610.2142857142857" y1="388.5" y2="388.5" class="net_81"/>
  <circle cx="586" cy="388.5" r="2" style="fill:#000" class="net_81"/>
  <line x1="610.2142857142857" x2="610.2142857142857" y1="388.5" y2="410.5" class="net_81"/>
  <line x1="562.6666666666667" x2="586" y1="337.5" y2="337.5" class="net_81"/>
  <line x1="586" x2="586" y1="337.5" y2="431" class="net_81"/>
  <circle cx="586" cy="431" r="2" style="fill:#000" class="net_81"/>
  <line x1="586" x2="609.7142857142857" y1="431" y2="431" class="net_81"/>
  <line x1="562.6666666666667" x2="586" y1="337.5" y2="337.5" class="net_81"/>
  <line x1="586" x2="586" y1="337.5" y2="451" class="net_81"/>
  <circle cx="586" cy="451" r="2" style="fill:#000" class="net_81"/>
  <line x1="586" x2="609.7142857142857" y1="451" y2="451" class="net_81"/>
  <line x1="562.6666666666667" x2="586" y1="337.5" y2="337.5" class="net_81"/>
  <line x1="586" x2="586" y1="337.5" y2="471" class="net_81"/>
  <circle cx="586" cy="471" r="2" style="fill:#000" class="net_81"/>
  <line x1="586" x2="609.7142857142857" y1="471" y2="471" class="net_81"/>
  <line x1="562.6666666666667" x2="586" y1="337.5" y2="337.5" class="net_81"/>
  <line x1="586" x2="586" y1="337.5" y2="491" class="net_81"/>
  <circle cx="586" cy="491" r="2" style="fill:#000" class="net_81"/>
  <line x1="586" x2="609.7142857142857" y1="491" y2="491" class="net_81"/>
  <line x1="562.6666666666667" x2="586" y1="337.5" y2="337.5" class="net_81"/>
  <line x1="586" x2="586" y1="337.5" y2="511" class="net_81"/>
  <circle cx="586" cy="511" r="2" style="fill:#000" class="net_81"/>
  <line x1="586" x2="609.7142857142857" y1="511" y2="511" class="net_81"/>
  <line x1="562.6666666666667" x2="586" y1="337.5" y2="337.5" class="net_81"/>
  <line x1="586" x2="586" y1="337.5" y2="531" class="net_81"/>
  <circle cx="586" cy="531" r="2" style="fill:#000" class="net_81"/>
  <line x1="586" x2="609.7142857142857" y1="531" y2="531" class="net_81"/>
  <line x1="562.6666666666667" x2="586" y1="337.5" y2="337.5" class="net_81"/>
  <line x1="586" x2="586" y1="337.5" y2="570.5" class="net_81"/>
  <line x1="586" x2="610.2142857142857" y1="570.5" y2="570.5" class="net_81"/>
  <line x1="610.2142857142857" x2="610.2142857142857" y1="570.5" y2="551.5" class="net_81"/>
</svg>
