<svg xmlns="http://www.w3.org/2000/svg" xmlns:xlink="http://www.w3.org/1999/xlink" xmlns:s="https://github.com/nturley/netlistsvg" width="718" height="1038.5"><style>svg {
  stroke:#000;
  fill:none;
}
text {
  fill:#000;
  stroke:none;
  font-size:10px;
  font-weight: bold;
  font-family: "Courier New", monospace;
}
line {
    stroke-linecap: round;
}
.nodelabel {
  text-anchor: middle;
}
.inputPortLabel {
  text-anchor: end;
}
.splitjoinBody {
  fill:#000;
}</style><g s:type="add" transform="translate(528,439.5)" s:width="25" s:height="25" id="cell_$add$../vga_driver/vga_controller.v:56$14"><s:alias val="$add"/><circle r="12.5" cx="12.5" cy="12.5" fill="#ffffff" class="cell_$add$../vga_driver/vga_controller.v:56$14"/><line x1="7.5" x2="17.5" y1="12.5" y2="12.5" fill="#ffffff" class="cell_$add$../vga_driver/vga_controller.v:56$14"/><line x1="12.5" x2="12.5" y1="7.5" y2="17.5" fill="#ffffff" class="cell_$add$../vga_driver/vga_controller.v:56$14"/><g s:x="2" s:y="5" s:pid="A"/><g s:x="2" s:y="20" s:pid="B"/><g s:x="26" s:y="12.5" s:pid="Y"/></g><g s:type="add" transform="translate(389.6666666666667,767.5)" s:width="25" s:height="25" id="cell_$add$../vga_driver/vga_controller.v:64$16"><s:alias val="$add"/><circle r="12.5" cx="12.5" cy="12.5" fill="#ffffff" class="cell_$add$../vga_driver/vga_controller.v:64$16"/><line x1="7.5" x2="17.5" y1="12.5" y2="12.5" fill="#ffffff" class="cell_$add$../vga_driver/vga_controller.v:64$16"/><line x1="12.5" x2="12.5" y1="7.5" y2="17.5" fill="#ffffff" class="cell_$add$../vga_driver/vga_controller.v:64$16"/><g s:x="2" s:y="5" s:pid="A"/><g s:x="2" s:y="20" s:pid="B"/><g s:x="26" s:y="12.5" s:pid="Y"/></g><g s:type="eq" transform="translate(589,672.5)" s:width="25" s:height="25" id="cell_$eq$../vga_driver/vga_controller.v:35$1"><s:alias val="$eq"/><s:alias val="$eqx"/><circle r="12.5" cx="12.5" cy="12.5" fill="#ffffff" class="cell_$eq$../vga_driver/vga_controller.v:35$1"/><line x1="7.5" x2="17.5" y1="10" y2="10" fill="#ffffff" class="cell_$eq$../vga_driver/vga_controller.v:35$1"/><line x1="7.5" x2="17.5" y1="15" y2="15" fill="#ffffff" class="cell_$eq$../vga_driver/vga_controller.v:35$1"/><g s:x="2" s:y="5" s:pid="A"/><g s:x="2" s:y="20" s:pid="B"/><g s:x="25" s:y="12.5" s:pid="Y"/></g><g s:type="eq" transform="translate(464,841)" s:width="25" s:height="25" id="cell_$eq$../vga_driver/vga_controller.v:36$2"><s:alias val="$eq"/><s:alias val="$eqx"/><circle r="12.5" cx="12.5" cy="12.5" fill="#ffffff" class="cell_$eq$../vga_driver/vga_controller.v:36$2"/><line x1="7.5" x2="17.5" y1="10" y2="10" fill="#ffffff" class="cell_$eq$../vga_driver/vga_controller.v:36$2"/><line x1="7.5" x2="17.5" y1="15" y2="15" fill="#ffffff" class="cell_$eq$../vga_driver/vga_controller.v:36$2"/><g s:x="2" s:y="5" s:pid="A"/><g s:x="2" s:y="20" s:pid="B"/><g s:x="25" s:y="12.5" s:pid="Y"/></g><g s:type="ge" transform="translate(221,196.5)" s:width="25" s:height="25" id="cell_$ge$../vga_driver/vga_controller.v:37$3"><s:alias val="$ge"/><circle r="12" cx="12" cy="12" fill="#ffffff" class="cell_$ge$../vga_driver/vga_controller.v:37$3"/><line x1="8" x2="19" y1="6" y2="11" fill="#ffffff" class="cell_$ge$../vga_driver/vga_controller.v:37$3"/><line x1="8" x2="19" y1="16" y2="11" fill="#ffffff" class="cell_$ge$../vga_driver/vga_controller.v:37$3"/><line x1="8" x2="19" y1="19" y2="14" fill="#ffffff" class="cell_$ge$../vga_driver/vga_controller.v:37$3"/><g s:x="2" s:y="5" s:pid="A"/><g s:x="2" s:y="20" s:pid="B"/><g s:x="25" s:y="12.5" s:pid="Y"/></g><g s:type="ge" transform="translate(287,315.5)" s:width="25" s:height="25" id="cell_$ge$../vga_driver/vga_controller.v:38$6"><s:alias val="$ge"/><circle r="12" cx="12" cy="12" fill="#ffffff" class="cell_$ge$../vga_driver/vga_controller.v:38$6"/><line x1="8" x2="19" y1="6" y2="11" fill="#ffffff" class="cell_$ge$../vga_driver/vga_controller.v:38$6"/><line x1="8" x2="19" y1="16" y2="11" fill="#ffffff" class="cell_$ge$../vga_driver/vga_controller.v:38$6"/><line x1="8" x2="19" y1="19" y2="14" fill="#ffffff" class="cell_$ge$../vga_driver/vga_controller.v:38$6"/><g s:x="2" s:y="5" s:pid="A"/><g s:x="2" s:y="20" s:pid="B"/><g s:x="25" s:y="12.5" s:pid="Y"/></g><g s:type="gt" transform="translate(589,158)" s:width="25" s:height="25" id="cell_$gt$../vga_driver/vga_controller.v:43$10"><s:alias val="$gt"/><circle r="12" cx="12" cy="12" fill="#ffffff" class="cell_$gt$../vga_driver/vga_controller.v:43$10"/><line x1="8" x2="19" y1="7" y2="12" fill="#ffffff" class="cell_$gt$../vga_driver/vga_controller.v:43$10"/><line x1="8" x2="19" y1="17" y2="12" fill="#ffffff" class="cell_$gt$../vga_driver/vga_controller.v:43$10"/><g s:x="2" s:y="5" s:pid="A"/><g s:x="2" s:y="20" s:pid="B"/><g s:x="25" s:y="12.5" s:pid="Y"/></g><g s:type="gt" transform="translate(589,923)" s:width="25" s:height="25" id="cell_$gt$../vga_driver/vga_controller.v:44$11"><s:alias val="$gt"/><circle r="12" cx="12" cy="12" fill="#ffffff" class="cell_$gt$../vga_driver/vga_controller.v:44$11"/><line x1="8" x2="19" y1="7" y2="12" fill="#ffffff" class="cell_$gt$../vga_driver/vga_controller.v:44$11"/><line x1="8" x2="19" y1="17" y2="12" fill="#ffffff" class="cell_$gt$../vga_driver/vga_controller.v:44$11"/><g s:x="2" s:y="5" s:pid="A"/><g s:x="2" s:y="20" s:pid="B"/><g s:x="25" s:y="12.5" s:pid="Y"/></g><g s:type="and" transform="translate(285.3333333333333,204)" s:width="30" s:height="25" id="cell_$logic_and$../vga_driver/vga_controller.v:37$5"><s:alias val="$and"/><s:alias val="$logic_and"/><s:alias val="$_AND_"/><s:alias val="$reduce_and"/><path d="M0,0 L0,25 L15,25 A15 12.5 0 0 0 15,0 Z" fill="#ffffff" class="cell_$logic_and$../vga_driver/vga_controller.v:37$5"/><g s:x="0" s:y="5" s:pid="A"/><g s:x="0" s:y="20" s:pid="B"/><g s:x="30" s:y="12.5" s:pid="Y"/></g><g s:type="and" transform="translate(388,211.5)" s:width="30" s:height="25" id="cell_$logic_and$../vga_driver/vga_controller.v:37$7"><s:alias val="$and"/><s:alias val="$logic_and"/><s:alias val="$_AND_"/><s:alias val="$reduce_and"/><path d="M0,0 L0,25 L15,25 A15 12.5 0 0 0 15,0 Z" fill="#ffffff" class="cell_$logic_and$../vga_driver/vga_controller.v:37$7"/><g s:x="0" s:y="5" s:pid="A"/><g s:x="0" s:y="20" s:pid="B"/><g s:x="30" s:y="12.5" s:pid="Y"/></g><g s:type="and" transform="translate(462.3333333333333,219)" s:width="30" s:height="25" id="cell_$logic_and$../vga_driver/vga_controller.v:37$9"><s:alias val="$and"/><s:alias val="$logic_and"/><s:alias val="$_AND_"/><s:alias val="$reduce_and"/><path d="M0,0 L0,25 L15,25 A15 12.5 0 0 0 15,0 Z" fill="#ffffff" class="cell_$logic_and$../vga_driver/vga_controller.v:37$9"/><g s:x="0" s:y="5" s:pid="A"/><g s:x="0" s:y="20" s:pid="B"/><g s:x="30" s:y="12.5" s:pid="Y"/></g><g s:type="lt" transform="translate(221,256.5)" s:width="25" s:height="25" id="cell_$lt$../vga_driver/vga_controller.v:37$4"><s:alias val="$lt"/><circle r="12.5" cx="12.5" cy="12.5" fill="#ffffff" class="cell_$lt$../vga_driver/vga_controller.v:37$4"/><line x1="6" x2="17" y1="12" y2="7" fill="#ffffff" class="cell_$lt$../vga_driver/vga_controller.v:37$4"/><line x1="6" x2="17" y1="12" y2="17" fill="#ffffff" class="cell_$lt$../vga_driver/vga_controller.v:37$4"/><g s:x="2" s:y="5" s:pid="A"/><g s:x="2" s:y="20" s:pid="B"/><g s:x="25" s:y="12.5" s:pid="Y"/></g><g s:type="lt" transform="translate(389.6666666666667,357.5)" s:width="25" s:height="25" id="cell_$lt$../vga_driver/vga_controller.v:38$8"><s:alias val="$lt"/><circle r="12.5" cx="12.5" cy="12.5" fill="#ffffff" class="cell_$lt$../vga_driver/vga_controller.v:38$8"/><line x1="6" x2="17" y1="12" y2="7" fill="#ffffff" class="cell_$lt$../vga_driver/vga_controller.v:38$8"/><line x1="6" x2="17" y1="12" y2="17" fill="#ffffff" class="cell_$lt$../vga_driver/vga_controller.v:38$8"/><g s:x="2" s:y="5" s:pid="A"/><g s:x="2" s:y="20" s:pid="B"/><g s:x="25" s:y="12.5" s:pid="Y"/></g><g s:type="dff-bus" transform="translate(149,495.5)" s:width="34" s:height="44" id="cell_$procdff$6190"><s:alias val="$dff-bus"/><s:alias val="$_DFF_-bus"/><s:alias val="$_DFF_P_-bus"/><s:alias val="adff-bus"/><s:alias val="$adff-bus"/><s:alias val="$_DFF_-bus"/><s:alias val="$_DFF_P_-bus"/><s:alias val="sdff-bus"/><s:alias val="$sdff-bus"/><s:alias val="$_DFF_-bus"/><s:alias val="$_DFF_P_-bus"/><rect width="30" height="40" x="0" y="0" fill="#ffffff" class="cell_$procdff$6190"/><path d="M0,35 L5,30 L0,25" fill="#ffffff" class="cell_$procdff$6190"/><path d="M30,2 L32,2 L32,42 L2,42 L2,40" fill="#ffffff" class="cell_$procdff$6190"/><path d="M32,4 L34,4 L34,44 L4,44 L4,42" fill="#ffffff" class="cell_$procdff$6190"/><g s:x="35" s:y="10" s:pid="Q"/><g s:x="-1" s:y="30" s:pid="CLK"/><g s:x="-1" s:y="30" s:pid="C"/><g s:x="-1" s:y="10" s:pid="D"/><g s:x="17" s:y="44" s:pid="ARST"/><g s:x="17" s:y="44" s:pid="SRST"/></g><g s:type="dff-bus" transform="translate(78,153)" s:width="34" s:height="44" id="cell_$procdff$6191"><s:alias val="$dff-bus"/><s:alias val="$_DFF_-bus"/><s:alias val="$_DFF_P_-bus"/><s:alias val="adff-bus"/><s:alias val="$adff-bus"/><s:alias val="$_DFF_-bus"/><s:alias val="$_DFF_P_-bus"/><s:alias val="sdff-bus"/><s:alias val="$sdff-bus"/><s:alias val="$_DFF_-bus"/><s:alias val="$_DFF_P_-bus"/><rect width="30" height="40" x="0" y="0" fill="#ffffff" class="cell_$procdff$6191"/><path d="M0,35 L5,30 L0,25" fill="#ffffff" class="cell_$procdff$6191"/><path d="M30,2 L32,2 L32,42 L2,42 L2,40" fill="#ffffff" class="cell_$procdff$6191"/><path d="M32,4 L34,4 L34,44 L4,44 L4,42" fill="#ffffff" class="cell_$procdff$6191"/><g s:x="35" s:y="10" s:pid="Q"/><g s:x="-1" s:y="30" s:pid="CLK"/><g s:x="-1" s:y="30" s:pid="C"/><g s:x="-1" s:y="10" s:pid="D"/><g s:x="17" s:y="44" s:pid="ARST"/><g s:x="17" s:y="44" s:pid="SRST"/></g><g s:type="mux-bus" transform="translate(529,770)" s:width="24" s:height="40" id="cell_$procmux$6183"><s:alias val="$pmux-bus"/><s:alias val="$mux-bus"/><s:alias val="$_MUX_-bus"/><path d="M0,0 L20,10 L20,30 L0,40 Z" fill="#ffffff" class="cell_$procmux$6183"/><path d="M4,2 L4,0 L22,9 L22,31 L4,40 L4,38" fill="#ffffff" class="cell_$procmux$6183"/><path d="M8,2 L8,0 L24,8 L24,32 L8,40 L8,38" fill="#ffffff" class="cell_$procmux$6183"/><text x="5" y="32" class="nodelabel cell_$procmux$6183" s:attribute="">1</text><text x="5" y="13" class="nodelabel cell_$procmux$6183" s:attribute="">0</text><g s:x="-1" s:y="10" s:pid="A"/><g s:x="-1" s:y="30" s:pid="B"/><g s:x="12" s:y="38" s:pid="S"/><g s:x="24.5" s:y="20" s:pid="Y"/></g><g s:type="mux-bus" transform="translate(655,760)" s:width="24" s:height="40" id="cell_$procmux$6185"><s:alias val="$pmux-bus"/><s:alias val="$mux-bus"/><s:alias val="$_MUX_-bus"/><path d="M0,0 L20,10 L20,30 L0,40 Z" fill="#ffffff" class="cell_$procmux$6185"/><path d="M4,2 L4,0 L22,9 L22,31 L4,40 L4,38" fill="#ffffff" class="cell_$procmux$6185"/><path d="M8,2 L8,0 L24,8 L24,32 L8,40 L8,38" fill="#ffffff" class="cell_$procmux$6185"/><text x="5" y="32" class="nodelabel cell_$procmux$6185" s:attribute="">1</text><text x="5" y="13" class="nodelabel cell_$procmux$6185" s:attribute="">0</text><g s:x="-1" s:y="10" s:pid="A"/><g s:x="-1" s:y="30" s:pid="B"/><g s:x="12" s:y="38" s:pid="S"/><g s:x="24.5" s:y="20" s:pid="Y"/></g><g s:type="mux-bus" transform="translate(655,442)" s:width="24" s:height="40" id="cell_$procmux$6188"><s:alias val="$pmux-bus"/><s:alias val="$mux-bus"/><s:alias val="$_MUX_-bus"/><path d="M0,0 L20,10 L20,30 L0,40 Z" fill="#ffffff" class="cell_$procmux$6188"/><path d="M4,2 L4,0 L22,9 L22,31 L4,40 L4,38" fill="#ffffff" class="cell_$procmux$6188"/><path d="M8,2 L8,0 L24,8 L24,32 L8,40 L8,38" fill="#ffffff" class="cell_$procmux$6188"/><text x="5" y="32" class="nodelabel cell_$procmux$6188" s:attribute="">1</text><text x="5" y="13" class="nodelabel cell_$procmux$6188" s:attribute="">0</text><g s:x="-1" s:y="10" s:pid="A"/><g s:x="-1" s:y="30" s:pid="B"/><g s:x="12" s:y="38" s:pid="S"/><g s:x="24.5" s:y="20" s:pid="Y"/></g><g s:type="mux-bus" transform="translate(529,67)" s:width="24" s:height="40" id="cell_$ternary$../vga_driver/vga_controller.v:45$12"><s:alias val="$pmux-bus"/><s:alias val="$mux-bus"/><s:alias val="$_MUX_-bus"/><path d="M0,0 L20,10 L20,30 L0,40 Z" fill="#ffffff" class="cell_$ternary$../vga_driver/vga_controller.v:45$12"/><path d="M4,2 L4,0 L22,9 L22,31 L4,40 L4,38" fill="#ffffff" class="cell_$ternary$../vga_driver/vga_controller.v:45$12"/><path d="M8,2 L8,0 L24,8 L24,32 L8,40 L8,38" fill="#ffffff" class="cell_$ternary$../vga_driver/vga_controller.v:45$12"/><text x="5" y="32" class="nodelabel cell_$ternary$../vga_driver/vga_controller.v:45$12" s:attribute="">1</text><text x="5" y="13" class="nodelabel cell_$ternary$../vga_driver/vga_controller.v:45$12" s:attribute="">0</text><g s:x="-1" s:y="10" s:pid="A"/><g s:x="-1" s:y="30" s:pid="B"/><g s:x="12" s:y="38" s:pid="S"/><g s:x="24.5" s:y="20" s:pid="Y"/></g><g s:type="inputExt" transform="translate(12,173)" s:width="30" s:height="20" id="cell_clk"><text x="15" y="-4" class="nodelabel cell_clk" s:attribute="ref">clk</text><s:alias val="$_inputExt_"/><path d="M0,0 L0,20 L15,20 L30,10 L15,0 Z" fill="#ffffff" class="cell_clk"/><g s:x="30" s:y="10" s:pid="Y"/></g><g s:type="inputExt" transform="translate(386,132)" s:width="30" s:height="20" id="cell_rgb_in"><text x="15" y="-4" class="nodelabel cell_rgb_in" s:attribute="ref">rgb_in</text><s:alias val="$_inputExt_"/><path d="M0,0 L0,20 L15,20 L30,10 L15,0 Z" fill="#ffffff" class="cell_rgb_in"/><g s:x="30" s:y="10" s:pid="Y"/></g><g s:type="outputExt" transform="translate(654,77)" s:width="30" s:height="20" id="cell_rgb_out"><text x="15" y="-4" class="nodelabel cell_rgb_out" s:attribute="ref">rgb_out</text><s:alias val="$_outputExt_"/><path d="M30,0 L30,20 L15,20 L0,10 L15,0 Z" fill="#ffffff" class="cell_rgb_out"/><g s:x="0" s:y="10" s:pid="A"/></g><g s:type="outputExt" transform="translate(655,160.5)" s:width="30" s:height="20" id="cell_hsync"><text x="15" y="-4" class="nodelabel cell_hsync" s:attribute="ref">hsync</text><s:alias val="$_outputExt_"/><path d="M30,0 L30,20 L15,20 L0,10 L15,0 Z" fill="#ffffff" class="cell_hsync"/><g s:x="0" s:y="10" s:pid="A"/></g><g s:type="outputExt" transform="translate(655,925.5)" s:width="30" s:height="20" id="cell_vsync"><text x="15" y="-4" class="nodelabel cell_vsync" s:attribute="ref">vsync</text><s:alias val="$_outputExt_"/><path d="M30,0 L30,20 L15,20 L0,10 L15,0 Z" fill="#ffffff" class="cell_vsync"/><g s:x="0" s:y="10" s:pid="A"/></g><g s:type="outputExt" transform="translate(655,705)" s:width="30" s:height="20" id="cell_hpos"><text x="15" y="-4" class="nodelabel cell_hpos" s:attribute="ref">hpos</text><s:alias val="$_outputExt_"/><path d="M30,0 L30,20 L15,20 L0,10 L15,0 Z" fill="#ffffff" class="cell_hpos"/><g s:x="0" s:y="10" s:pid="A"/></g><g s:type="outputExt" transform="translate(655,990.5)" s:width="30" s:height="20" id="cell_vpos"><text x="15" y="-4" class="nodelabel cell_vpos" s:attribute="ref">vpos</text><s:alias val="$_outputExt_"/><path d="M30,0 L30,20 L15,20 L0,10 L15,0 Z" fill="#ffffff" class="cell_vpos"/><g s:x="0" s:y="10" s:pid="A"/></g><g s:type="constant" transform="translate(285,526.5)" s:width="30" s:height="20" id="cell_1"><text x="15" y="-4" class="nodelabel cell_1" s:attribute="ref">1</text><s:alias val="$_constant_"/><rect width="30" height="20" fill="#ffffff" class="cell_1"/><g s:x="31" s:y="10" s:pid="Y"/></g><g s:type="constant" transform="translate(462,698.5)" s:width="30" s:height="20" id="cell_1100011111"><text x="15" y="-4" class="nodelabel cell_1100011111" s:attribute="ref">0x31f</text><s:alias val="$_constant_"/><rect width="30" height="20" fill="#ffffff" class="cell_1100011111"/><g s:x="31" s:y="10" s:pid="Y"/></g><g s:type="constant" transform="translate(285,897)" s:width="30" s:height="20" id="cell_1000001100"><text x="15" y="-4" class="nodelabel cell_1000001100" s:attribute="ref">0x20c</text><s:alias val="$_constant_"/><rect width="30" height="20" fill="#ffffff" class="cell_1000001100"/><g s:x="31" s:y="10" s:pid="Y"/></g><g s:type="constant" transform="translate(82,36)" s:width="30" s:height="20" id="cell_10001111"><text x="15" y="-4" class="nodelabel cell_10001111" s:attribute="ref">0x8f</text><s:alias val="$_constant_"/><rect width="30" height="20" fill="#ffffff" class="cell_10001111"/><g s:x="31" s:y="10" s:pid="Y"/></g><g s:type="constant" transform="translate(153,332.5)" s:width="30" s:height="20" id="cell_100010"><text x="15" y="-4" class="nodelabel cell_100010" s:attribute="ref">0x22</text><s:alias val="$_constant_"/><rect width="30" height="20" fill="#ffffff" class="cell_100010"/><g s:x="31" s:y="10" s:pid="Y"/></g><g s:type="constant" transform="translate(462,289)" s:width="30" s:height="20" id="cell_1011111"><text x="15" y="-4" class="nodelabel cell_1011111" s:attribute="ref">0x5f</text><s:alias val="$_constant_"/><rect width="30" height="20" fill="#ffffff" class="cell_1011111"/><g s:x="31" s:y="10" s:pid="Y"/></g><g s:type="constant" transform="translate(82,271.5)" s:width="30" s:height="20" id="cell_1100001111"><text x="15" y="-4" class="nodelabel cell_1100001111" s:attribute="ref">0x30f</text><s:alias val="$_constant_"/><rect width="30" height="20" fill="#ffffff" class="cell_1100001111"/><g s:x="31" s:y="10" s:pid="Y"/></g><g s:type="constant" transform="translate(219,413.5)" s:width="30" s:height="20" id="cell_1000000010"><text x="15" y="-4" class="nodelabel cell_1000000010" s:attribute="ref">0x202</text><s:alias val="$_constant_"/><rect width="30" height="20" fill="#ffffff" class="cell_1000000010"/><g s:x="31" s:y="10" s:pid="Y"/></g><g s:type="constant" transform="translate(386,622.5)" s:width="30" s:height="20" id="cell_00000000000"><text x="15" y="-4" class="nodelabel cell_00000000000" s:attribute="ref">0x0</text><s:alias val="$_constant_"/><rect width="30" height="20" fill="#ffffff" class="cell_00000000000"/><g s:x="31" s:y="10" s:pid="Y"/></g><g s:type="constant" transform="translate(386,67)" s:width="30" s:height="20" id="cell_000"><text x="15" y="-4" class="nodelabel cell_000" s:attribute="ref">000</text><s:alias val="$_constant_"/><rect width="30" height="20" fill="#ffffff" class="cell_000"/><g s:x="31" s:y="10" s:pid="Y"/></g><line x1="113" x2="123" y1="163" y2="163" class="net_11,12,13,14,15,16,17,18,19,20,21 width_11" style="stroke-width: 2"/><line x1="123" x2="123" y1="163" y2="444.5" class="net_11,12,13,14,15,16,17,18,19,20,21 width_11" style="stroke-width: 2"/><circle cx="123" cy="163" r="3" style="fill:#000" class="net_11,12,13,14,15,16,17,18,19,20,21 width_11"/><line x1="123" x2="530" y1="444.5" y2="444.5" class="net_11,12,13,14,15,16,17,18,19,20,21 width_11" style="stroke-width: 2"/><line x1="113" x2="123" y1="163" y2="163" class="net_11,12,13,14,15,16,17,18,19,20,21 width_11" style="stroke-width: 2"/><line x1="123" x2="123" y1="163" y2="444.5" class="net_11,12,13,14,15,16,17,18,19,20,21 width_11" style="stroke-width: 2"/><line x1="123" x2="204" y1="444.5" y2="444.5" class="net_11,12,13,14,15,16,17,18,19,20,21 width_11" style="stroke-width: 2"/><line x1="204" x2="204" y1="444.5" y2="488.5" class="net_11,12,13,14,15,16,17,18,19,20,21 width_11" style="stroke-width: 2"/><line x1="204" x2="356" y1="488.5" y2="488.5" class="net_11,12,13,14,15,16,17,18,19,20,21 width_11" style="stroke-width: 2"/><line x1="356" x2="356" y1="488.5" y2="677.5" class="net_11,12,13,14,15,16,17,18,19,20,21 width_11" style="stroke-width: 2"/><circle cx="204" cy="444.5" r="3" style="fill:#000" class="net_11,12,13,14,15,16,17,18,19,20,21 width_11"/><line x1="356" x2="591" y1="677.5" y2="677.5" class="net_11,12,13,14,15,16,17,18,19,20,21 width_11" style="stroke-width: 2"/><line x1="113" x2="123" y1="163" y2="163" class="net_11,12,13,14,15,16,17,18,19,20,21 width_11" style="stroke-width: 2"/><line x1="123" x2="123" y1="163" y2="201.5" class="net_11,12,13,14,15,16,17,18,19,20,21 width_11" style="stroke-width: 2"/><circle cx="123" cy="201.5" r="3" style="fill:#000" class="net_11,12,13,14,15,16,17,18,19,20,21 width_11"/><line x1="123" x2="223" y1="201.5" y2="201.5" class="net_11,12,13,14,15,16,17,18,19,20,21 width_11" style="stroke-width: 2"/><line x1="113" x2="591" y1="163" y2="163" class="net_11,12,13,14,15,16,17,18,19,20,21 width_11" style="stroke-width: 2"/><line x1="113" x2="123" y1="163" y2="163" class="net_11,12,13,14,15,16,17,18,19,20,21 width_11" style="stroke-width: 2"/><line x1="123" x2="123" y1="163" y2="261.5" class="net_11,12,13,14,15,16,17,18,19,20,21 width_11" style="stroke-width: 2"/><circle cx="123" cy="261.5" r="3" style="fill:#000" class="net_11,12,13,14,15,16,17,18,19,20,21 width_11"/><line x1="123" x2="223" y1="261.5" y2="261.5" class="net_11,12,13,14,15,16,17,18,19,20,21 width_11" style="stroke-width: 2"/><line x1="113" x2="123" y1="163" y2="163" class="net_11,12,13,14,15,16,17,18,19,20,21 width_11" style="stroke-width: 2"/><line x1="123" x2="123" y1="163" y2="444.5" class="net_11,12,13,14,15,16,17,18,19,20,21 width_11" style="stroke-width: 2"/><line x1="123" x2="260" y1="444.5" y2="444.5" class="net_11,12,13,14,15,16,17,18,19,20,21 width_11" style="stroke-width: 2"/><line x1="260" x2="260" y1="444.5" y2="461.5" class="net_11,12,13,14,15,16,17,18,19,20,21 width_11" style="stroke-width: 2"/><line x1="260" x2="376" y1="461.5" y2="461.5" class="net_11,12,13,14,15,16,17,18,19,20,21 width_11" style="stroke-width: 2"/><line x1="376" x2="376" y1="461.5" y2="551.5" class="net_11,12,13,14,15,16,17,18,19,20,21 width_11" style="stroke-width: 2"/><line x1="376" x2="452" y1="551.5" y2="551.5" class="net_11,12,13,14,15,16,17,18,19,20,21 width_11" style="stroke-width: 2"/><line x1="452" x2="452" y1="551.5" y2="649.5" class="net_11,12,13,14,15,16,17,18,19,20,21 width_11" style="stroke-width: 2"/><line x1="452" x2="644" y1="649.5" y2="649.5" class="net_11,12,13,14,15,16,17,18,19,20,21 width_11" style="stroke-width: 2"/><line x1="644" x2="644" y1="649.5" y2="715" class="net_11,12,13,14,15,16,17,18,19,20,21 width_11" style="stroke-width: 2"/><circle cx="260" cy="444.5" r="3" style="fill:#000" class="net_11,12,13,14,15,16,17,18,19,20,21 width_11"/><line x1="644" x2="655" y1="715" y2="715" class="net_11,12,13,14,15,16,17,18,19,20,21 width_11" style="stroke-width: 2"/><line x1="316" x2="503" y1="536.5" y2="536.5" class="net_97 width_1" style="stroke-width: 1"/><line x1="503" x2="503" y1="536.5" y2="459.5" class="net_97 width_1" style="stroke-width: 1"/><line x1="503" x2="530" y1="459.5" y2="459.5" class="net_97 width_1" style="stroke-width: 1"/><line x1="316" x2="336" y1="536.5" y2="536.5" class="net_97 width_1" style="stroke-width: 1"/><line x1="336" x2="336" y1="536.5" y2="787.5" class="net_97 width_1" style="stroke-width: 1"/><circle cx="336" cy="536.5" r="2" style="fill:#000" class="net_97 width_1"/><circle cx="336" cy="787.5" r="2" style="fill:#000" class="net_97 width_1"/><line x1="336" x2="391.6666666666667" y1="787.5" y2="787.5" class="net_97 width_1" style="stroke-width: 1"/><line x1="316" x2="336" y1="536.5" y2="536.5" class="net_97 width_1" style="stroke-width: 1"/><line x1="336" x2="336" y1="536.5" y2="944" class="net_97 width_1" style="stroke-width: 1"/><line x1="336" x2="564" y1="944" y2="944" class="net_97 width_1" style="stroke-width: 1"/><line x1="564" x2="564" y1="944" y2="943" class="net_97 width_1" style="stroke-width: 1"/><line x1="564" x2="591" y1="943" y2="943" class="net_97 width_1" style="stroke-width: 1"/><line x1="184" x2="346" y1="505.5" y2="505.5" class="net_22,23,24,25,26,27,28,29,30,31,32 width_11" style="stroke-width: 2"/><line x1="346" x2="346" y1="505.5" y2="772.5" class="net_22,23,24,25,26,27,28,29,30,31,32 width_11" style="stroke-width: 2"/><line x1="346" x2="391.6666666666667" y1="772.5" y2="772.5" class="net_22,23,24,25,26,27,28,29,30,31,32 width_11" style="stroke-width: 2"/><line x1="184" x2="194" y1="505.5" y2="505.5" class="net_22,23,24,25,26,27,28,29,30,31,32 width_11" style="stroke-width: 2"/><line x1="194" x2="194" y1="505.5" y2="846" class="net_22,23,24,25,26,27,28,29,30,31,32 width_11" style="stroke-width: 2"/><circle cx="194" cy="505.5" r="3" style="fill:#000" class="net_22,23,24,25,26,27,28,29,30,31,32 width_11"/><line x1="194" x2="466" y1="846" y2="846" class="net_22,23,24,25,26,27,28,29,30,31,32 width_11" style="stroke-width: 2"/><line x1="184" x2="194" y1="505.5" y2="505.5" class="net_22,23,24,25,26,27,28,29,30,31,32 width_11" style="stroke-width: 2"/><line x1="194" x2="194" y1="505.5" y2="320.5" class="net_22,23,24,25,26,27,28,29,30,31,32 width_11" style="stroke-width: 2"/><line x1="194" x2="289" y1="320.5" y2="320.5" class="net_22,23,24,25,26,27,28,29,30,31,32 width_11" style="stroke-width: 2"/><line x1="184" x2="194" y1="505.5" y2="505.5" class="net_22,23,24,25,26,27,28,29,30,31,32 width_11" style="stroke-width: 2"/><line x1="194" x2="194" y1="505.5" y2="846" class="net_22,23,24,25,26,27,28,29,30,31,32 width_11" style="stroke-width: 2"/><line x1="194" x2="260" y1="846" y2="846" class="net_22,23,24,25,26,27,28,29,30,31,32 width_11" style="stroke-width: 2"/><line x1="260" x2="260" y1="846" y2="928" class="net_22,23,24,25,26,27,28,29,30,31,32 width_11" style="stroke-width: 2"/><circle cx="260" cy="846" r="3" style="fill:#000" class="net_22,23,24,25,26,27,28,29,30,31,32 width_11"/><line x1="260" x2="591" y1="928" y2="928" class="net_22,23,24,25,26,27,28,29,30,31,32 width_11" style="stroke-width: 2"/><line x1="184" x2="194" y1="505.5" y2="505.5" class="net_22,23,24,25,26,27,28,29,30,31,32 width_11" style="stroke-width: 2"/><line x1="194" x2="194" y1="505.5" y2="362.5" class="net_22,23,24,25,26,27,28,29,30,31,32 width_11" style="stroke-width: 2"/><circle cx="194" cy="362.5" r="3" style="fill:#000" class="net_22,23,24,25,26,27,28,29,30,31,32 width_11"/><line x1="194" x2="391.6666666666667" y1="362.5" y2="362.5" class="net_22,23,24,25,26,27,28,29,30,31,32 width_11" style="stroke-width: 2"/><line x1="184" x2="194" y1="505.5" y2="505.5" class="net_22,23,24,25,26,27,28,29,30,31,32 width_11" style="stroke-width: 2"/><line x1="194" x2="194" y1="505.5" y2="473.5" class="net_22,23,24,25,26,27,28,29,30,31,32 width_11" style="stroke-width: 2"/><line x1="194" x2="366" y1="473.5" y2="473.5" class="net_22,23,24,25,26,27,28,29,30,31,32 width_11" style="stroke-width: 2"/><line x1="366" x2="366" y1="473.5" y2="571.5" class="net_22,23,24,25,26,27,28,29,30,31,32 width_11" style="stroke-width: 2"/><line x1="366" x2="442" y1="571.5" y2="571.5" class="net_22,23,24,25,26,27,28,29,30,31,32 width_11" style="stroke-width: 2"/><line x1="442" x2="442" y1="571.5" y2="661.5" class="net_22,23,24,25,26,27,28,29,30,31,32 width_11" style="stroke-width: 2"/><line x1="442" x2="634" y1="661.5" y2="661.5" class="net_22,23,24,25,26,27,28,29,30,31,32 width_11" style="stroke-width: 2"/><line x1="634" x2="634" y1="661.5" y2="770" class="net_22,23,24,25,26,27,28,29,30,31,32 width_11" style="stroke-width: 2"/><circle cx="194" cy="473.5" r="3" style="fill:#000" class="net_22,23,24,25,26,27,28,29,30,31,32 width_11"/><line x1="634" x2="654" y1="770" y2="770" class="net_22,23,24,25,26,27,28,29,30,31,32 width_11" style="stroke-width: 2"/><line x1="184" x2="194" y1="505.5" y2="505.5" class="net_22,23,24,25,26,27,28,29,30,31,32 width_11" style="stroke-width: 2"/><line x1="194" x2="194" y1="505.5" y2="846" class="net_22,23,24,25,26,27,28,29,30,31,32 width_11" style="stroke-width: 2"/><line x1="194" x2="260" y1="846" y2="846" class="net_22,23,24,25,26,27,28,29,30,31,32 width_11" style="stroke-width: 2"/><line x1="260" x2="260" y1="846" y2="928" class="net_22,23,24,25,26,27,28,29,30,31,32 width_11" style="stroke-width: 2"/><line x1="260" x2="326" y1="928" y2="928" class="net_22,23,24,25,26,27,28,29,30,31,32 width_11" style="stroke-width: 2"/><line x1="326" x2="326" y1="928" y2="1000.5" class="net_22,23,24,25,26,27,28,29,30,31,32 width_11" style="stroke-width: 2"/><circle cx="326" cy="928" r="3" style="fill:#000" class="net_22,23,24,25,26,27,28,29,30,31,32 width_11"/><line x1="326" x2="655" y1="1000.5" y2="1000.5" class="net_22,23,24,25,26,27,28,29,30,31,32 width_11" style="stroke-width: 2"/><line x1="493" x2="564" y1="708.5" y2="708.5" class="net_99,100,101,102,103,104,105,106,107,108 width_10" style="stroke-width: 2"/><line x1="564" x2="564" y1="708.5" y2="692.5" class="net_99,100,101,102,103,104,105,106,107,108 width_10" style="stroke-width: 2"/><line x1="564" x2="591" y1="692.5" y2="692.5" class="net_99,100,101,102,103,104,105,106,107,108 width_10" style="stroke-width: 2"/><line x1="316" x2="432" y1="907" y2="907" class="net_109,110,111,112,113,114,115,116,117,118 width_10" style="stroke-width: 2"/><line x1="432" x2="432" y1="907" y2="861" class="net_109,110,111,112,113,114,115,116,117,118 width_10" style="stroke-width: 2"/><line x1="432" x2="466" y1="861" y2="861" class="net_109,110,111,112,113,114,115,116,117,118 width_10" style="stroke-width: 2"/><line x1="113" x2="133" y1="46" y2="46" class="net_119,120,121,122,123,124,125,126 width_8" style="stroke-width: 2"/><line x1="133" x2="133" y1="46" y2="221.5" class="net_119,120,121,122,123,124,125,126 width_8" style="stroke-width: 2"/><line x1="133" x2="194" y1="221.5" y2="221.5" class="net_119,120,121,122,123,124,125,126 width_8" style="stroke-width: 2"/><line x1="194" x2="194" y1="221.5" y2="216.5" class="net_119,120,121,122,123,124,125,126 width_8" style="stroke-width: 2"/><line x1="194" x2="223" y1="216.5" y2="216.5" class="net_119,120,121,122,123,124,125,126 width_8" style="stroke-width: 2"/><line x1="184" x2="260" y1="342.5" y2="342.5" class="net_127,128,129,130,131,132 width_6" style="stroke-width: 2"/><line x1="260" x2="260" y1="342.5" y2="335.5" class="net_127,128,129,130,131,132 width_6" style="stroke-width: 2"/><line x1="260" x2="289" y1="335.5" y2="335.5" class="net_127,128,129,130,131,132 width_6" style="stroke-width: 2"/><line x1="493" x2="564" y1="299" y2="299" class="net_133,134,135,136,137,138,139 width_7" style="stroke-width: 2"/><line x1="564" x2="564" y1="299" y2="178" class="net_133,134,135,136,137,138,139 width_7" style="stroke-width: 2"/><line x1="564" x2="591" y1="178" y2="178" class="net_133,134,135,136,137,138,139 width_7" style="stroke-width: 2"/><line x1="246" x2="285.3333333333333" y1="209" y2="209" class="net_57 width_1" style="stroke-width: 1"/><line x1="246" x2="260" y1="269" y2="269" class="net_59 width_1" style="stroke-width: 1"/><line x1="260" x2="260" y1="269" y2="224" class="net_59 width_1" style="stroke-width: 1"/><line x1="260" x2="285.3333333333333" y1="224" y2="224" class="net_59 width_1" style="stroke-width: 1"/><line x1="315.3333333333333" x2="388" y1="216.5" y2="216.5" class="net_60 width_1" style="stroke-width: 1"/><line x1="312" x2="326" y1="328" y2="328" class="net_58 width_1" style="stroke-width: 1"/><line x1="326" x2="326" y1="328" y2="231.5" class="net_58 width_1" style="stroke-width: 1"/><line x1="326" x2="388" y1="231.5" y2="231.5" class="net_58 width_1" style="stroke-width: 1"/><line x1="418" x2="462.3333333333333" y1="224" y2="224" class="net_61 width_1" style="stroke-width: 1"/><line x1="414.6666666666667" x2="432" y1="370" y2="370" class="net_62 width_1" style="stroke-width: 1"/><line x1="432" x2="432" y1="370" y2="239" class="net_62 width_1" style="stroke-width: 1"/><line x1="432" x2="462.3333333333333" y1="239" y2="239" class="net_62 width_1" style="stroke-width: 1"/><line x1="113" x2="194" y1="281.5" y2="281.5" class="net_141,142,143,144,145,146,147,148,149,150 width_10" style="stroke-width: 2"/><line x1="194" x2="194" y1="281.5" y2="276.5" class="net_141,142,143,144,145,146,147,148,149,150 width_10" style="stroke-width: 2"/><line x1="194" x2="223" y1="276.5" y2="276.5" class="net_141,142,143,144,145,146,147,148,149,150 width_10" style="stroke-width: 2"/><line x1="250" x2="326" y1="423.5" y2="423.5" class="net_151,152,153,154,155,156,157,158,159,160 width_10" style="stroke-width: 2"/><line x1="326" x2="326" y1="423.5" y2="377.5" class="net_151,152,153,154,155,156,157,158,159,160 width_10" style="stroke-width: 2"/><line x1="326" x2="391.6666666666667" y1="377.5" y2="377.5" class="net_151,152,153,154,155,156,157,158,159,160 width_10" style="stroke-width: 2"/><line x1="42" x2="52" y1="183" y2="183" class="net_2 width_1" style="stroke-width: 1"/><line x1="52" x2="52" y1="183" y2="525.5" class="net_2 width_1" style="stroke-width: 1"/><circle cx="52" cy="183" r="2" style="fill:#000" class="net_2 width_1"/><line x1="52" x2="148" y1="525.5" y2="525.5" class="net_2 width_1" style="stroke-width: 1"/><line x1="42" x2="77" y1="183" y2="183" class="net_2 width_1" style="stroke-width: 1"/><line x1="679.5" x2="706" y1="780" y2="780" class="net_64,65,66,67,68,69,70,71,72,73,74 width_11" style="stroke-width: 2"/><line x1="706" x2="706" y1="780" y2="1020.5" class="net_64,65,66,67,68,69,70,71,72,73,74 width_11" style="stroke-width: 2"/><line x1="706" x2="133" y1="1020.5" y2="1020.5" class="net_64,65,66,67,68,69,70,71,72,73,74 width_11" style="stroke-width: 2"/><line x1="133" x2="133" y1="1020.5" y2="505.5" class="net_64,65,66,67,68,69,70,71,72,73,74 width_11" style="stroke-width: 2"/><line x1="133" x2="148" y1="505.5" y2="505.5" class="net_64,65,66,67,68,69,70,71,72,73,74 width_11" style="stroke-width: 2"/><line x1="679.5" x2="706" y1="462" y2="462" class="net_75,76,77,78,79,80,81,82,83,84,85 width_11" style="stroke-width: 2"/><line x1="706" x2="706" y1="462" y2="16" class="net_75,76,77,78,79,80,81,82,83,84,85 width_11" style="stroke-width: 2"/><line x1="706" x2="52" y1="16" y2="16" class="net_75,76,77,78,79,80,81,82,83,84,85 width_11" style="stroke-width: 2"/><line x1="52" x2="52" y1="16" y2="163" class="net_75,76,77,78,79,80,81,82,83,84,85 width_11" style="stroke-width: 2"/><line x1="52" x2="77" y1="163" y2="163" class="net_75,76,77,78,79,80,81,82,83,84,85 width_11" style="stroke-width: 2"/><line x1="415.6666666666667" x2="528" y1="780" y2="780" class="net_44,45,46,47,48,49,50,51,52,53,54 width_11" style="stroke-width: 2"/><line x1="417" x2="432" y1="632.5" y2="632.5" class="net_161,162,163,164,165,166,167,168,169,170,171 width_11" style="stroke-width: 2"/><line x1="432" x2="432" y1="632.5" y2="800" class="net_161,162,163,164,165,166,167,168,169,170,171 width_11" style="stroke-width: 2"/><circle cx="432" cy="632.5" r="3" style="fill:#000" class="net_161,162,163,164,165,166,167,168,169,170,171 width_11"/><line x1="432" x2="528" y1="800" y2="800" class="net_161,162,163,164,165,166,167,168,169,170,171 width_11" style="stroke-width: 2"/><line x1="417" x2="624" y1="632.5" y2="632.5" class="net_161,162,163,164,165,166,167,168,169,170,171 width_11" style="stroke-width: 2"/><line x1="624" x2="624" y1="632.5" y2="472" class="net_161,162,163,164,165,166,167,168,169,170,171 width_11" style="stroke-width: 2"/><line x1="624" x2="654" y1="472" y2="472" class="net_161,162,163,164,165,166,167,168,169,170,171 width_11" style="stroke-width: 2"/><line x1="489" x2="541" y1="853.5" y2="853.5" class="net_56 width_1" style="stroke-width: 1"/><line x1="541" x2="541" y1="853.5" y2="808" class="net_56 width_1" style="stroke-width: 1"/><line x1="553.5" x2="654" y1="790" y2="790" class="net_86,87,88,89,90,91,92,93,94,95,96 width_11" style="stroke-width: 2"/><line x1="614" x2="624" y1="685" y2="685" class="net_55 width_1" style="stroke-width: 1"/><line x1="624" x2="624" y1="685" y2="810" class="net_55 width_1" style="stroke-width: 1"/><line x1="624" x2="667" y1="810" y2="810" class="net_55 width_1" style="stroke-width: 1"/><circle cx="624" cy="685" r="2" style="fill:#000" class="net_55 width_1"/><line x1="667" x2="667" y1="810" y2="798" class="net_55 width_1" style="stroke-width: 1"/><line x1="614" x2="667" y1="685" y2="685" class="net_55 width_1" style="stroke-width: 1"/><line x1="667" x2="667" y1="685" y2="480" class="net_55 width_1" style="stroke-width: 1"/><line x1="554" x2="654" y1="452" y2="452" class="net_33,34,35,36,37,38,39,40,41,42,43 width_11" style="stroke-width: 2"/><line x1="417" x2="528" y1="77" y2="77" class="net_183,184,185 width_3" style="stroke-width: 2"/><line x1="416" x2="503" y1="142" y2="142" class="net_3,4,5 width_3" style="stroke-width: 2"/><line x1="503" x2="503" y1="142" y2="97" class="net_3,4,5 width_3" style="stroke-width: 2"/><line x1="503" x2="528" y1="97" y2="97" class="net_3,4,5 width_3" style="stroke-width: 2"/><line x1="492.3333333333333" x2="541" y1="231.5" y2="231.5" class="net_63 width_1" style="stroke-width: 1"/><line x1="541" x2="541" y1="231.5" y2="105" class="net_63 width_1" style="stroke-width: 1"/><line x1="553.5" x2="654" y1="87" y2="87" class="net_6,7,8 width_3" style="stroke-width: 2"/><line x1="614" x2="655" y1="170.5" y2="170.5" class="net_9 width_1" style="stroke-width: 1"/><line x1="614" x2="655" y1="935.5" y2="935.5" class="net_10 width_1" style="stroke-width: 1"/><rect x="403" y="546.5" width="22" height="9" class="net_11,12,13,14,15,16,17,18,19,20,21 width_11 busLabel_11" style="fill: white; stroke: none"/><text x="402" y="554.5" class="net_11,12,13,14,15,16,17,18,19,20,21 width_11 busLabel_11">/11/</text><rect x="403" y="546.5" width="22" height="9" class="net_11,12,13,14,15,16,17,18,19,20,21 width_11 busLabel_11" style="fill: white; stroke: none"/><text x="402" y="554.5" class="net_11,12,13,14,15,16,17,18,19,20,21 width_11 busLabel_11">/11/</text><rect x="403" y="546.5" width="22" height="9" class="net_11,12,13,14,15,16,17,18,19,20,21 width_11 busLabel_11" style="fill: white; stroke: none"/><text x="402" y="554.5" class="net_11,12,13,14,15,16,17,18,19,20,21 width_11 busLabel_11">/11/</text><rect x="403" y="546.5" width="22" height="9" class="net_11,12,13,14,15,16,17,18,19,20,21 width_11 busLabel_11" style="fill: white; stroke: none"/><text x="402" y="554.5" class="net_11,12,13,14,15,16,17,18,19,20,21 width_11 busLabel_11">/11/</text><rect x="403" y="546.5" width="22" height="9" class="net_11,12,13,14,15,16,17,18,19,20,21 width_11 busLabel_11" style="fill: white; stroke: none"/><text x="402" y="554.5" class="net_11,12,13,14,15,16,17,18,19,20,21 width_11 busLabel_11">/11/</text><rect x="403" y="546.5" width="22" height="9" class="net_11,12,13,14,15,16,17,18,19,20,21 width_11 busLabel_11" style="fill: white; stroke: none"/><text x="402" y="554.5" class="net_11,12,13,14,15,16,17,18,19,20,21 width_11 busLabel_11">/11/</text><rect x="403" y="995.5" width="22" height="9" class="net_22,23,24,25,26,27,28,29,30,31,32 width_11 busLabel_11" style="fill: white; stroke: none"/><text x="402" y="1003.5" class="net_22,23,24,25,26,27,28,29,30,31,32 width_11 busLabel_11">/11/</text><rect x="403" y="995.5" width="22" height="9" class="net_22,23,24,25,26,27,28,29,30,31,32 width_11 busLabel_11" style="fill: white; stroke: none"/><text x="402" y="1003.5" class="net_22,23,24,25,26,27,28,29,30,31,32 width_11 busLabel_11">/11/</text><rect x="403" y="995.5" width="22" height="9" class="net_22,23,24,25,26,27,28,29,30,31,32 width_11 busLabel_11" style="fill: white; stroke: none"/><text x="402" y="1003.5" class="net_22,23,24,25,26,27,28,29,30,31,32 width_11 busLabel_11">/11/</text><rect x="403" y="995.5" width="22" height="9" class="net_22,23,24,25,26,27,28,29,30,31,32 width_11 busLabel_11" style="fill: white; stroke: none"/><text x="402" y="1003.5" class="net_22,23,24,25,26,27,28,29,30,31,32 width_11 busLabel_11">/11/</text><rect x="403" y="995.5" width="22" height="9" class="net_22,23,24,25,26,27,28,29,30,31,32 width_11 busLabel_11" style="fill: white; stroke: none"/><text x="402" y="1003.5" class="net_22,23,24,25,26,27,28,29,30,31,32 width_11 busLabel_11">/11/</text><rect x="403" y="995.5" width="22" height="9" class="net_22,23,24,25,26,27,28,29,30,31,32 width_11 busLabel_11" style="fill: white; stroke: none"/><text x="402" y="1003.5" class="net_22,23,24,25,26,27,28,29,30,31,32 width_11 busLabel_11">/11/</text><rect x="403" y="995.5" width="22" height="9" class="net_22,23,24,25,26,27,28,29,30,31,32 width_11 busLabel_11" style="fill: white; stroke: none"/><text x="402" y="1003.5" class="net_22,23,24,25,26,27,28,29,30,31,32 width_11 busLabel_11">/11/</text><rect x="540" y="703.5" width="22" height="9" class="net_99,100,101,102,103,104,105,106,107,108 width_10 busLabel_10" style="fill: white; stroke: none"/><text x="539" y="711.5" class="net_99,100,101,102,103,104,105,106,107,108 width_10 busLabel_10">/10/</text><rect x="403" y="902" width="22" height="9" class="net_109,110,111,112,113,114,115,116,117,118 width_10 busLabel_10" style="fill: white; stroke: none"/><text x="402" y="910" class="net_109,110,111,112,113,114,115,116,117,118 width_10 busLabel_10">/10/</text><rect x="165" y="216.5" width="16" height="9" class="net_119,120,121,122,123,124,125,126 width_8 busLabel_8" style="fill: white; stroke: none"/><text x="164" y="224.5" class="net_119,120,121,122,123,124,125,126 width_8 busLabel_8">/8/</text><rect x="233.5" y="337.5" width="16" height="9" class="net_127,128,129,130,131,132 width_6 busLabel_6" style="fill: white; stroke: none"/><text x="232.5" y="345.5" class="net_127,128,129,130,131,132 width_6 busLabel_6">/6/</text><rect x="540" y="294" width="16" height="9" class="net_133,134,135,136,137,138,139 width_7 busLabel_7" style="fill: white; stroke: none"/><text x="539" y="302" class="net_133,134,135,136,137,138,139 width_7 busLabel_7">/7/</text><rect x="165" y="276.5" width="22" height="9" class="net_141,142,143,144,145,146,147,148,149,150 width_10 busLabel_10" style="fill: white; stroke: none"/><text x="164" y="284.5" class="net_141,142,143,144,145,146,147,148,149,150 width_10 busLabel_10">/10/</text><rect x="299.5" y="418.5" width="22" height="9" class="net_151,152,153,154,155,156,157,158,159,160 width_10 busLabel_10" style="fill: white; stroke: none"/><text x="298.5" y="426.5" class="net_151,152,153,154,155,156,157,158,159,160 width_10 busLabel_10">/10/</text><rect x="403" y="1015.5" width="22" height="9" class="net_64,65,66,67,68,69,70,71,72,73,74 width_11 busLabel_11" style="fill: white; stroke: none"/><text x="402" y="1023.5" class="net_64,65,66,67,68,69,70,71,72,73,74 width_11 busLabel_11">/11/</text><rect x="403" y="11" width="22" height="9" class="net_75,76,77,78,79,80,81,82,83,84,85 width_11 busLabel_11" style="fill: white; stroke: none"/><text x="402" y="19" class="net_75,76,77,78,79,80,81,82,83,84,85 width_11 busLabel_11">/11/</text><rect x="476.5" y="775" width="22" height="9" class="net_44,45,46,47,48,49,50,51,52,53,54 width_11 busLabel_11" style="fill: white; stroke: none"/><text x="475.5" y="783" class="net_44,45,46,47,48,49,50,51,52,53,54 width_11 busLabel_11">/11/</text><rect x="540" y="627.5" width="22" height="9" class="net_161,162,163,164,165,166,167,168,169,170,171 width_11 busLabel_11" style="fill: white; stroke: none"/><text x="539" y="635.5" class="net_161,162,163,164,165,166,167,168,169,170,171 width_11 busLabel_11">/11/</text><rect x="540" y="627.5" width="22" height="9" class="net_161,162,163,164,165,166,167,168,169,170,171 width_11 busLabel_11" style="fill: white; stroke: none"/><text x="539" y="635.5" class="net_161,162,163,164,165,166,167,168,169,170,171 width_11 busLabel_11">/11/</text><rect x="600.5" y="785" width="22" height="9" class="net_86,87,88,89,90,91,92,93,94,95,96 width_11 busLabel_11" style="fill: white; stroke: none"/><text x="599.5" y="793" class="net_86,87,88,89,90,91,92,93,94,95,96 width_11 busLabel_11">/11/</text><rect x="600.5" y="447" width="22" height="9" class="net_33,34,35,36,37,38,39,40,41,42,43 width_11 busLabel_11" style="fill: white; stroke: none"/><text x="599.5" y="455" class="net_33,34,35,36,37,38,39,40,41,42,43 width_11 busLabel_11">/11/</text><rect x="476.5" y="72" width="16" height="9" class="net_183,184,185 width_3 busLabel_3" style="fill: white; stroke: none"/><text x="475.5" y="80" class="net_183,184,185 width_3 busLabel_3">/3/</text><rect x="476.5" y="137" width="16" height="9" class="net_3,4,5 width_3 busLabel_3" style="fill: white; stroke: none"/><text x="475.5" y="145" class="net_3,4,5 width_3 busLabel_3">/3/</text><rect x="600.5" y="82" width="16" height="9" class="net_6,7,8 width_3 busLabel_3" style="fill: white; stroke: none"/><text x="599.5" y="90" class="net_6,7,8 width_3 busLabel_3">/3/</text></svg>