<svg xmlns="http://www.w3.org/2000/svg" xmlns:xlink="http://www.w3.org/1999/xlink" xmlns:s="https://github.com/nturley/netlistsvg" width="424" height="263.5">
  <style>svg {
    stroke:#000;
    fill:none;
  }
  text {
    fill:#000;
    stroke:none;
    font-size:10px;
    font-weight: bold;
    font-family: "Courier New", monospace;
  }
  .nodelabel {
    text-anchor: middle;
  }
  .inputPortLabel {
    text-anchor: end;
  }
  .splitjoinBody {
    fill:#000;
  }</style>
  <g s:type="dff" transform="translate(275,52)" s:width="30" s:height="40" id="cell_$procdff$6">
    <s:alias val="$dff"/>
    <s:alias val="$_DFF_"/>
    <s:alias val="$_DFF_P_"/>
    <rect width="30" height="40" x="0" y="0" class="cell_$procdff$6"/>
    <path d="M0,35 L5,30 L0,25" class="cell_$procdff$6"/>
    <g s:x="30" s:y="10" s:pid="Q"/>
    <g s:x="0" s:y="30" s:pid="CLK"/>
    <g s:x="0" s:y="30" s:pid="C"/>
    <g s:x="0" s:y="10" s:pid="D"/>
  </g>
  <g s:type="mux" transform="translate(213.33333333333334,42)" s:width="20" s:height="40" id="cell_$procmux$4">
    <s:alias val="$pmux"/>
    <s:alias val="$mux"/>
    <s:alias val="$_MUX_"/>
    <path d="M0,0 L20,10 L20,30 L0,40 Z" class="cell_$procmux$4"/>
    <g s:x="0" s:y="10" s:pid="A"/>
    <g s:x="0" s:y="30" s:pid="B"/>
    <g s:x="10" s:y="35" s:pid="S"/>
    <g s:x="20" s:y="20" s:pid="Y"/>
  </g>
  <g s:type="inputExt" transform="translate(210,211.5)" s:width="30" s:height="20" id="cell_clk">
    <text x="15" y="-4" class="nodelabel cell_clk" s:attribute="ref">clk</text>
    <s:alias val="$_inputExt_"/>
    <path d="M0,0 L0,20 L15,20 L30,10 L15,0 Z" class="cell_clk"/>
    <g s:x="28" s:y="10" s:pid="Y"/>
  </g>
  <g s:type="inputExt" transform="translate(121,181.5)" s:width="30" s:height="20" id="cell_load">
    <text x="15" y="-4" class="nodelabel cell_load" s:attribute="ref">load</text>
    <s:alias val="$_inputExt_"/>
    <path d="M0,0 L0,20 L15,20 L30,10 L15,0 Z" class="cell_load"/>
    <g s:x="28" s:y="10" s:pid="Y"/>
  </g>
  <g s:type="inputExt" transform="translate(121,116.5)" s:width="30" s:height="20" id="cell_load_data">
    <text x="15" y="-4" class="nodelabel cell_load_data" s:attribute="ref">load_data</text>
    <s:alias val="$_inputExt_"/>
    <path d="M0,0 L0,20 L15,20 L30,10 L15,0 Z" class="cell_load_data"/>
    <g s:x="28" s:y="10" s:pid="Y"/>
  </g>
  <g s:type="inputExt" transform="translate(32,32)" s:width="30" s:height="20" id="cell_serial_in">
    <text x="15" y="-4" class="nodelabel cell_serial_in" s:attribute="ref">serial_in</text>
    <s:alias val="$_inputExt_"/>
    <path d="M0,0 L0,20 L15,20 L30,10 L15,0 Z" class="cell_serial_in"/>
    <g s:x="28" s:y="10" s:pid="Y"/>
  </g>
  <g s:type="outputExt" transform="translate(340,52)" s:width="30" s:height="20" id="cell_parallel_out">
    <text x="15" y="-4" class="nodelabel cell_parallel_out" s:attribute="ref">parallel_out</text>
    <s:alias val="$_outputExt_"/>
    <path d="M30,0 L30,20 L15,20 L0,10 L15,0 Z" class="cell_parallel_out"/>
    <g s:x="0" s:y="10" s:pid="A"/>
  </g>
  <g s:type="outputExt" transform="translate(340,231.5)" s:width="30" s:height="20" id="cell_serial_out">
    <text x="15" y="-4" class="nodelabel cell_serial_out" s:attribute="ref">serial_out</text>
    <s:alias val="$_outputExt_"/>
    <path d="M30,0 L30,20 L15,20 L0,10 L15,0 Z" class="cell_serial_out"/>
    <g s:x="0" s:y="10" s:pid="A"/>
  </g>
  <g s:type="join" transform="translate(140,31.5)" s:width="4" s:height="40" id="cell_$join$,12,13,14,15,16,17,18,19,">
    <rect width="5" height="40" class="splitjoinBody" s:generic="body"/>
    <s:alias val="$_join_"/>
    <g s:x="5" s:y="20" s:pid="out"/>
    <g transform="translate(0,10)" s:x="0" s:y="10" s:pid="in0">
      <text x="-3" y="-4" class="inputPortLabel">0</text>
    </g>
    <g transform="translate(0,30)" s:x="0" s:y="10" s:pid="in0">
      <text x="-3" y="-4" class="inputPortLabel">1:7</text>
    </g>
  </g>
  <g s:type="split" transform="translate(57,211)" s:width="5" s:height="40" id="cell_$split$,13,14,15,16,17,18,19,20,">
    <rect width="5" height="40" class="splitjoinBody" s:generic="body"/>
    <s:alias val="$_split_"/>
    <g s:x="0" s:y="20" s:pid="in"/>
    <g transform="translate(4,10)" s:x="4" s:y="10" s:pid="out0">
      <text x="5" y="-4">0:6</text>
    </g>
    <g transform="translate(4,30)" s:x="4" s:y="10" s:pid="out0">
      <text x="5" y="-4">7</text>
    </g>
  </g>
  <line x1="238" x2="250" y1="221.5" y2="221.5" class="net_2"/>
  <line x1="250" x2="250" y1="221.5" y2="82" class="net_2"/>
  <line x1="250" x2="275" y1="82" y2="82" class="net_2"/>
  <line x1="233.33333333333334" x2="275" y1="62" y2="62" class="net_21,22,23,24,25,26,27,28"/>
  <line x1="146" x2="213.33333333333334" y1="52" y2="52" class="net_12,13,14,15,16,17,18,19"/>
  <line x1="149" x2="185" y1="126.5" y2="126.5" class="net_4,5,6,7,8,9,10,11"/>
  <line x1="185" x2="185" y1="126.5" y2="72" class="net_4,5,6,7,8,9,10,11"/>
  <line x1="185" x2="213.33333333333334" y1="72" y2="72" class="net_4,5,6,7,8,9,10,11"/>
  <line x1="149" x2="223.33333333333334" y1="191.5" y2="191.5" class="net_3"/>
  <line x1="223.33333333333334" x2="223.33333333333334" y1="191.5" y2="77" class="net_3"/>
  <line x1="305" x2="340" y1="62" y2="62" class="net_13,14,15,16,17,18,19,20"/>
  <line x1="305" x2="315" y1="62" y2="62" class="net_13,14,15,16,17,18,19,20"/>
  <line x1="315" x2="315" y1="62" y2="12" class="net_13,14,15,16,17,18,19,20"/>
  <line x1="315" x2="12" y1="12" y2="12" class="net_13,14,15,16,17,18,19,20"/>
  <line x1="12" x2="12" y1="12" y2="231.5" class="net_13,14,15,16,17,18,19,20"/>
  <circle cx="315" cy="62" r="2" style="fill:#000" class="net_13,14,15,16,17,18,19,20"/>
  <line x1="12" x2="57" y1="231.5" y2="231.5" class="net_13,14,15,16,17,18,19,20"/>
  <line x1="62" x2="340" y1="241.5" y2="241.5" class="net_20"/>
  <line x1="60" x2="140" y1="42" y2="42" class="net_12"/>
  <line x1="62" x2="96" y1="221.5" y2="221.5" class="net_13,14,15,16,17,18,19"/>
  <line x1="96" x2="96" y1="221.5" y2="62" class="net_13,14,15,16,17,18,19"/>
  <line x1="96" x2="140" y1="62" y2="62" class="net_13,14,15,16,17,18,19"/>
</svg>
