<svg xmlns="http://www.w3.org/2000/svg" xmlns:xlink="http://www.w3.org/1999/xlink" xmlns:s="https://github.com/nturley/netlistsvg" width="577" height="381"><style>svg {
  stroke:#000;
  fill:none;
}
text {
  fill:#000;
  stroke:none;
  font-size:10px;
  font-weight: bold;
  font-family: "Courier New", monospace;
}
.nodelabel {
  text-anchor: middle;
}
.inputPortLabel {
  text-anchor: end;
}
.splitjoinBody {
  fill:#000;
}</style><g s:type="add" transform="translate(378.6666666666667,294)" s:width="25" s:height="25" id="cell_:12"><s:alias val="$add"/><circle r="12.5" cx="12.5" cy="12.5" class="cell_:12"/><line x1="7.5" x2="17.5" y1="12.5" y2="12.5" class="cell_:12"/><line x1="12.5" x2="12.5" y1="7.5" y2="17.5" class="cell_:12"/><g s:x="3" s:y="5" s:pid="A"/><g s:x="3" s:y="20" s:pid="B"/><g s:x="25" s:y="12.5" s:pid="Y"/></g><g s:type="eq" transform="translate(252,133.5)" s:width="25" s:height="25" id="cell_:16"><s:alias val="$eq"/><circle r="12.5" cx="12.5" cy="12.5" class="cell_:16"/><line x1="7.5" x2="17.5" y1="10" y2="10" class="cell_:16"/><line x1="7.5" x2="17.5" y1="15" y2="15" class="cell_:16"/><g s:x="3" s:y="5" s:pid="A"/><g s:x="3" s:y="20" s:pid="B"/><g s:x="25" s:y="12.5" s:pid="Y"/></g><g s:type="mux" transform="translate(318.6666666666667,22)" s:width="20" s:height="40" id="cell_:17"><s:alias val="$pmux"/><s:alias val="$mux"/><s:alias val="$_MUX_"/><path d="M0,0 L20,10 L20,30 L0,40 Z" class="cell_:17"/><g s:x="0" s:y="10" s:pid="A"/><g s:x="0" s:y="30" s:pid="B"/><g s:x="10" s:y="35" s:pid="S"/><g s:x="20" s:y="20" s:pid="Y"/></g><g s:type="generic" transform="translate(515,188.5)" s:width="30" s:height="40" id="cell_:19"><text x="15" y="-4" class="nodelabel cell_:19" s:attribute="ref">$mux-bus</text><rect width="30" height="60" s:generic="body" class="cell_:19"/><g transform="translate(0,10)" s:x="0" s:y="10" s:pid="in0" id="port_:19~A"><text x="-3" y="-4" class="inputPortLabel cell_:19">A</text></g><g transform="translate(0,30)" s:x="0" s:y="10" s:pid="in0" id="port_:19~B"><text x="-3" y="-4" class="inputPortLabel cell_:19">B</text></g><g transform="translate(0,50)" s:x="0" s:y="10" s:pid="in0" id="port_:19~S"><text x="-3" y="-4" class="inputPortLabel cell_:19">S</text></g><g transform="translate(30,10)" s:x="30" s:y="10" s:pid="out0" id="port_:19~Y"><text x="5" y="-4" style="fill:#000; stroke:none" class="cell_:19">Y</text></g></g><g s:type="mux" transform="translate(383.6666666666667,109)" s:width="20" s:height="40" id="cell_:20"><s:alias val="$pmux"/><s:alias val="$mux"/><s:alias val="$_MUX_"/><path d="M0,0 L20,10 L20,30 L0,40 Z" class="cell_:20"/><g s:x="0" s:y="10" s:pid="A"/><g s:x="0" s:y="30" s:pid="B"/><g s:x="10" s:y="35" s:pid="S"/><g s:x="20" s:y="20" s:pid="Y"/></g><g s:type="generic" transform="translate(96,208.5)" s:width="30" s:height="40" id="cell_:24"><text x="15" y="-4" class="nodelabel cell_:24" s:attribute="ref">$dff-bus</text><rect width="30" height="40" s:generic="body" class="cell_:24"/><g transform="translate(0,10)" s:x="0" s:y="10" s:pid="in0" id="port_:24~CLK"><text x="-3" y="-4" class="inputPortLabel cell_:24">CLK</text></g><g transform="translate(0,30)" s:x="0" s:y="10" s:pid="in0" id="port_:24~D"><text x="-3" y="-4" class="inputPortLabel cell_:24">D</text></g><g transform="translate(30,10)" s:x="30" s:y="10" s:pid="out0" id="port_:24~Q"><text x="5" y="-4" style="fill:#000; stroke:none" class="cell_:24">Q</text></g></g><g s:type="dff" transform="translate(442,119)" s:width="30" s:height="40" id="cell_:25"><s:alias val="$dff"/><s:alias val="$_DFF_"/><s:alias val="$_DFF_P_"/><rect width="30" height="40" x="0" y="0" class="cell_:25"/><path d="M0,35 L5,30 L0,25" class="cell_:25"/><g s:x="30" s:y="10" s:pid="Q"/><g s:x="0" s:y="30" s:pid="CLK"/><g s:x="0" s:y="30" s:pid="C"/><g s:x="0" s:y="10" s:pid="D"/></g><g s:type="ne" transform="translate(252,63)" s:width="25" s:height="25" id="cell_:5"><s:alias val="$ne"/><circle r="12.5" cx="12.5" cy="12.5" class="cell_:5"/><line x1="7.5" x2="17.5" y1="10" y2="10" class="cell_:5"/><line x1="7.5" x2="17.5" y1="15" y2="15" class="cell_:5"/><line x1="6" x2="19" y1="20" y2="5" class="cell_:5"/><g s:x="3" s:y="5" s:pid="A"/><g s:x="3" s:y="20" s:pid="B"/><g s:x="25" s:y="12.5" s:pid="Y"/></g><g s:type="lt" transform="translate(252,219)" s:width="25" s:height="25" id="cell_:8"><s:alias val="$lt"/><circle r="12.5" cx="12.5" cy="12.5" class="cell_:8"/><line x1="7.5" x2="17.5" y1="12.5" y2="7.5" class="cell_:8"/><line x1="7.5" x2="17.5" y1="12.5" y2="17.5" class="cell_:8"/><g s:x="3" s:y="5" s:pid="A"/><g s:x="3" s:y="20" s:pid="B"/><g s:x="25" s:y="12.5" s:pid="Y"/></g><g s:type="and" transform="translate(312,226.5)" s:width="30" s:height="25" id="cell_:9"><s:alias val="$and"/><s:alias val="$reduce_and"/><s:alias val="$logic_and"/><s:alias val="$_AND_"/><path d="M0,0 L0,25 L15,25 A15 12.5 0 0 0 15,0 Z" class="cell_:9"/><text x="13" y="15" class="nodelabel" style="font-size:7px">AND</text><g s:x="0" s:y="5" s:pid="A"/><g s:x="0" s:y="20" s:pid="B"/><g s:x="30" s:y="12.5" s:pid="Y"/></g><g s:type="inputExt" transform="translate(12,209)" s:width="30" s:height="20" id="cell_i_Clk"><text x="15" y="-4" class="nodelabel cell_i_Clk" s:attribute="ref">i_Clk</text><s:alias val="$_inputExt_"/><path d="M0,0 L0,20 L15,20 L30,10 L15,0 Z" class="cell_i_Clk"/><g s:x="28" s:y="10" s:pid="Y"/></g><g s:type="inputExt" transform="translate(169,58)" s:width="30" s:height="20" id="cell_i_Switch"><text x="15" y="-4" class="nodelabel cell_i_Switch" s:attribute="ref">i_Switch</text><s:alias val="$_inputExt_"/><path d="M0,0 L0,20 L15,20 L30,10 L15,0 Z" class="cell_i_Switch"/><g s:x="28" s:y="10" s:pid="Y"/></g><g s:type="outputExt" transform="translate(507,119)" s:width="30" s:height="20" id="cell_o_Switch"><text x="15" y="-4" class="nodelabel cell_o_Switch" s:attribute="ref">o_Switch</text><s:alias val="$_outputExt_"/><path d="M30,0 L30,20 L15,20 L0,10 L15,0 Z" class="cell_o_Switch"/><g s:x="0" s:y="10" s:pid="A"/></g><g s:type="constant" transform="translate(312,304)" s:width="30" s:height="20" id="cell_1"><text x="15" y="-4" class="nodelabel cell_1" s:attribute="ref">1</text><s:alias val="$_constant_"/><rect width="30" height="20" class="cell_1"/><g s:x="30" s:y="10" s:pid="Y"/></g><g s:type="constant" transform="translate(92,143.5)" s:width="30" s:height="20" id="cell_111101000010010000"><text x="15" y="-4" class="nodelabel cell_111101000010010000" s:attribute="ref">0x3d090</text><s:alias val="$_constant_"/><rect width="30" height="20" class="cell_111101000010010000"/><g s:x="30" s:y="10" s:pid="Y"/></g><g s:type="constant" transform="translate(377,189)" s:width="30" s:height="20" id="cell_000000000000000000"><text x="15" y="-4" class="nodelabel cell_000000000000000000" s:attribute="ref">0x0</text><s:alias val="$_constant_"/><rect width="30" height="20" class="cell_000000000000000000"/><g s:x="30" s:y="10" s:pid="Y"/></g><line x1="127" x2="144" y1="219" y2="219" class="net_5,6,7,8,9,10,11,12,13,14,15,16,17,18,19,20,21,22 width_18" style="stroke-width: 2"/><line x1="144" x2="144" y1="219" y2="283" class="net_5,6,7,8,9,10,11,12,13,14,15,16,17,18,19,20,21,22 width_18" style="stroke-width: 2"/><line x1="144" x2="352" y1="283" y2="283" class="net_5,6,7,8,9,10,11,12,13,14,15,16,17,18,19,20,21,22 width_18" style="stroke-width: 2"/><line x1="352" x2="352" y1="283" y2="299" class="net_5,6,7,8,9,10,11,12,13,14,15,16,17,18,19,20,21,22 width_18" style="stroke-width: 2"/><circle cx="144" cy="219" r="3" style="fill:#000" class="net_5,6,7,8,9,10,11,12,13,14,15,16,17,18,19,20,21,22 width_18"/><line x1="352" x2="381.6666666666667" y1="299" y2="299" class="net_5,6,7,8,9,10,11,12,13,14,15,16,17,18,19,20,21,22 width_18" style="stroke-width: 2"/><line x1="127" x2="144" y1="219" y2="219" class="net_5,6,7,8,9,10,11,12,13,14,15,16,17,18,19,20,21,22 width_18" style="stroke-width: 2"/><line x1="144" x2="144" y1="219" y2="133.5" class="net_5,6,7,8,9,10,11,12,13,14,15,16,17,18,19,20,21,22 width_18" style="stroke-width: 2"/><line x1="144" x2="227" y1="133.5" y2="133.5" class="net_5,6,7,8,9,10,11,12,13,14,15,16,17,18,19,20,21,22 width_18" style="stroke-width: 2"/><line x1="227" x2="227" y1="133.5" y2="138.5" class="net_5,6,7,8,9,10,11,12,13,14,15,16,17,18,19,20,21,22 width_18" style="stroke-width: 2"/><line x1="227" x2="255" y1="138.5" y2="138.5" class="net_5,6,7,8,9,10,11,12,13,14,15,16,17,18,19,20,21,22 width_18" style="stroke-width: 2"/><line x1="127" x2="227" y1="219" y2="219" class="net_5,6,7,8,9,10,11,12,13,14,15,16,17,18,19,20,21,22 width_18" style="stroke-width: 2"/><line x1="227" x2="227" y1="219" y2="224" class="net_5,6,7,8,9,10,11,12,13,14,15,16,17,18,19,20,21,22 width_18" style="stroke-width: 2"/><line x1="227" x2="255" y1="224" y2="224" class="net_5,6,7,8,9,10,11,12,13,14,15,16,17,18,19,20,21,22 width_18" style="stroke-width: 2"/><line x1="342" x2="381.6666666666667" y1="314" y2="314" class="net_65 width_1" style="stroke-width: 1"/><line x1="122" x2="255" y1="153.5" y2="153.5" class="net_66,67,68,69,70,71,72,73,74,75,76,77,78,79,80,81,82,83 width_18" style="stroke-width: 2"/><line x1="122" x2="154" y1="153.5" y2="153.5" class="net_66,67,68,69,70,71,72,73,74,75,76,77,78,79,80,81,82,83 width_18" style="stroke-width: 2"/><line x1="154" x2="154" y1="153.5" y2="239" class="net_66,67,68,69,70,71,72,73,74,75,76,77,78,79,80,81,82,83 width_18" style="stroke-width: 2"/><circle cx="154" cy="153.5" r="3" style="fill:#000" class="net_66,67,68,69,70,71,72,73,74,75,76,77,78,79,80,81,82,83 width_18"/><line x1="154" x2="255" y1="239" y2="239" class="net_66,67,68,69,70,71,72,73,74,75,76,77,78,79,80,81,82,83 width_18" style="stroke-width: 2"/><line x1="472" x2="482" y1="129" y2="129" class="net_4 width_1" style="stroke-width: 1"/><line x1="482" x2="482" y1="129" y2="12" class="net_4 width_1" style="stroke-width: 1"/><line x1="482" x2="287" y1="12" y2="12" class="net_4 width_1" style="stroke-width: 1"/><line x1="287" x2="287" y1="12" y2="32" class="net_4 width_1" style="stroke-width: 1"/><circle cx="287" cy="12" r="2" style="fill:#000" class="net_4 width_1"/><circle cx="482" cy="129" r="2" style="fill:#000" class="net_4 width_1"/><line x1="287" x2="318.6666666666667" y1="32" y2="32" class="net_4 width_1" style="stroke-width: 1"/><line x1="472" x2="482" y1="129" y2="129" class="net_4 width_1" style="stroke-width: 1"/><line x1="482" x2="482" y1="129" y2="169" class="net_4 width_1" style="stroke-width: 1"/><line x1="482" x2="352" y1="169" y2="169" class="net_4 width_1" style="stroke-width: 1"/><line x1="352" x2="352" y1="169" y2="139" class="net_4 width_1" style="stroke-width: 1"/><line x1="352" x2="383.6666666666667" y1="139" y2="139" class="net_4 width_1" style="stroke-width: 1"/><line x1="472" x2="482" y1="129" y2="129" class="net_4 width_1" style="stroke-width: 1"/><line x1="482" x2="482" y1="129" y2="12" class="net_4 width_1" style="stroke-width: 1"/><line x1="482" x2="227" y1="12" y2="12" class="net_4 width_1" style="stroke-width: 1"/><line x1="227" x2="227" y1="12" y2="83" class="net_4 width_1" style="stroke-width: 1"/><line x1="227" x2="255" y1="83" y2="83" class="net_4 width_1" style="stroke-width: 1"/><line x1="472" x2="507" y1="129" y2="129" class="net_4 width_1" style="stroke-width: 1"/><line x1="197" x2="237" y1="68" y2="68" class="net_3 width_1" style="stroke-width: 1"/><line x1="237" x2="237" y1="68" y2="52" class="net_3 width_1" style="stroke-width: 1"/><circle cx="237" cy="68" r="2" style="fill:#000" class="net_3 width_1"/><line x1="237" x2="318.6666666666667" y1="52" y2="52" class="net_3 width_1" style="stroke-width: 1"/><line x1="197" x2="255" y1="68" y2="68" class="net_3 width_1" style="stroke-width: 1"/><line x1="277" x2="328.6666666666667" y1="146" y2="146" class="net_41 width_1" style="stroke-width: 1"/><line x1="328.6666666666667" x2="328.6666666666667" y1="146" y2="57" class="net_41 width_1" style="stroke-width: 1"/><line x1="407" x2="515" y1="199" y2="199" class="net_84,85,86,87,88,89,90,91,92,93,94,95,96,97,98,99,100,101 width_18" style="stroke-width: 2"/><line x1="403.6666666666667" x2="417" y1="306.5" y2="306.5" class="net_23,24,25,26,27,28,29,30,31,32,33,34,35,36,37,38,39,40 width_18" style="stroke-width: 2"/><line x1="417" x2="417" y1="306.5" y2="219" class="net_23,24,25,26,27,28,29,30,31,32,33,34,35,36,37,38,39,40 width_18" style="stroke-width: 2"/><line x1="417" x2="514" y1="219" y2="219" class="net_23,24,25,26,27,28,29,30,31,32,33,34,35,36,37,38,39,40 width_18" style="stroke-width: 2"/><line x1="342" x2="514" y1="239" y2="239" class="net_43 width_1" style="stroke-width: 1"/><line x1="342" x2="362" y1="239" y2="239" class="net_43 width_1" style="stroke-width: 1"/><line x1="362" x2="362" y1="239" y2="159" class="net_43 width_1" style="stroke-width: 1"/><line x1="362" x2="393.6666666666667" y1="159" y2="159" class="net_43 width_1" style="stroke-width: 1"/><circle cx="362" cy="239" r="2" style="fill:#000" class="net_43 width_1"/><line x1="393.6666666666667" x2="393.6666666666667" y1="159" y2="144" class="net_43 width_1" style="stroke-width: 1"/><line x1="338.6666666666667" x2="352" y1="42" y2="42" class="net_42 width_1" style="stroke-width: 1"/><line x1="352" x2="352" y1="42" y2="119" class="net_42 width_1" style="stroke-width: 1"/><line x1="352" x2="383.6666666666667" y1="119" y2="119" class="net_42 width_1" style="stroke-width: 1"/><line x1="40" x2="96" y1="219" y2="219" class="net_2 width_1" style="stroke-width: 1"/><line x1="40" x2="52" y1="219" y2="219" class="net_2 width_1" style="stroke-width: 1"/><line x1="52" x2="52" y1="219" y2="98" class="net_2 width_1" style="stroke-width: 1"/><line x1="52" x2="417" y1="98" y2="98" class="net_2 width_1" style="stroke-width: 1"/><line x1="417" x2="417" y1="98" y2="149" class="net_2 width_1" style="stroke-width: 1"/><circle cx="52" cy="219" r="2" style="fill:#000" class="net_2 width_1"/><line x1="417" x2="442" y1="149" y2="149" class="net_2 width_1" style="stroke-width: 1"/><line x1="546" x2="565" y1="199" y2="199" class="net_44,45,46,47,48,49,50,51,52,53,54,55,56,57,58,59,60,61 width_18" style="stroke-width: 2"/><line x1="565" x2="565" y1="199" y2="363" class="net_44,45,46,47,48,49,50,51,52,53,54,55,56,57,58,59,60,61 width_18" style="stroke-width: 2"/><line x1="565" x2="52" y1="363" y2="363" class="net_44,45,46,47,48,49,50,51,52,53,54,55,56,57,58,59,60,61 width_18" style="stroke-width: 2"/><line x1="52" x2="52" y1="363" y2="239" class="net_44,45,46,47,48,49,50,51,52,53,54,55,56,57,58,59,60,61 width_18" style="stroke-width: 2"/><line x1="52" x2="95" y1="239" y2="239" class="net_44,45,46,47,48,49,50,51,52,53,54,55,56,57,58,59,60,61 width_18" style="stroke-width: 2"/><line x1="403.6666666666667" x2="442" y1="129" y2="129" class="net_62 width_1" style="stroke-width: 1"/><line x1="277" x2="312" y1="231.5" y2="231.5" class="net_64 width_1" style="stroke-width: 1"/><line x1="277" x2="287" y1="75.5" y2="75.5" class="net_63 width_1" style="stroke-width: 1"/><line x1="287" x2="287" y1="75.5" y2="246.5" class="net_63 width_1" style="stroke-width: 1"/><line x1="287" x2="312" y1="246.5" y2="246.5" class="net_63 width_1" style="stroke-width: 1"/><rect x="192" y="214" width="22" height="9" class="net_5,6,7,8,9,10,11,12,13,14,15,16,17,18,19,20,21,22 width_18 busLabel_18" style="fill: white; stroke: none"/><text x="191" y="222" class="net_5,6,7,8,9,10,11,12,13,14,15,16,17,18,19,20,21,22 width_18 busLabel_18">/18/</text><rect x="192" y="214" width="22" height="9" class="net_5,6,7,8,9,10,11,12,13,14,15,16,17,18,19,20,21,22 width_18 busLabel_18" style="fill: white; stroke: none"/><text x="191" y="222" class="net_5,6,7,8,9,10,11,12,13,14,15,16,17,18,19,20,21,22 width_18 busLabel_18">/18/</text><rect x="192" y="214" width="22" height="9" class="net_5,6,7,8,9,10,11,12,13,14,15,16,17,18,19,20,21,22 width_18 busLabel_18" style="fill: white; stroke: none"/><text x="191" y="222" class="net_5,6,7,8,9,10,11,12,13,14,15,16,17,18,19,20,21,22 width_18 busLabel_18">/18/</text><rect x="192" y="234" width="22" height="9" class="net_66,67,68,69,70,71,72,73,74,75,76,77,78,79,80,81,82,83 width_18 busLabel_18" style="fill: white; stroke: none"/><text x="191" y="242" class="net_66,67,68,69,70,71,72,73,74,75,76,77,78,79,80,81,82,83 width_18 busLabel_18">/18/</text><rect x="192" y="234" width="22" height="9" class="net_66,67,68,69,70,71,72,73,74,75,76,77,78,79,80,81,82,83 width_18 busLabel_18" style="fill: white; stroke: none"/><text x="191" y="242" class="net_66,67,68,69,70,71,72,73,74,75,76,77,78,79,80,81,82,83 width_18 busLabel_18">/18/</text><rect x="456" y="194" width="22" height="9" class="net_84,85,86,87,88,89,90,91,92,93,94,95,96,97,98,99,100,101 width_18 busLabel_18" style="fill: white; stroke: none"/><text x="455" y="202" class="net_84,85,86,87,88,89,90,91,92,93,94,95,96,97,98,99,100,101 width_18 busLabel_18">/18/</text><rect x="456" y="214" width="22" height="9" class="net_23,24,25,26,27,28,29,30,31,32,33,34,35,36,37,38,39,40 width_18 busLabel_18" style="fill: white; stroke: none"/><text x="455" y="222" class="net_23,24,25,26,27,28,29,30,31,32,33,34,35,36,37,38,39,40 width_18 busLabel_18">/18/</text><rect x="326" y="358" width="22" height="9" class="net_44,45,46,47,48,49,50,51,52,53,54,55,56,57,58,59,60,61 width_18 busLabel_18" style="fill: white; stroke: none"/><text x="325" y="366" class="net_44,45,46,47,48,49,50,51,52,53,54,55,56,57,58,59,60,61 width_18 busLabel_18">/18/</text></svg>