<svg xmlns="http://www.w3.org/2000/svg" xmlns:xlink="http://www.w3.org/1999/xlink" xmlns:s="https://github.com/nturley/netlistsvg" width="631" height="393.5"><style>svg {
  stroke:#000;
  fill:none;
}
text {
  fill:#000;
  stroke:none;
  font-size:10px;
  font-weight: bold;
  font-family: "Courier New", monospace;
}
.nodelabel {
  text-anchor: middle;
}
.inputPortLabel {
  text-anchor: end;
}
.splitjoinBody {
  fill:#000;
}</style><g s:type="add" transform="translate(406.6666666666667,290.5)" s:width="25" s:height="25" id="cell_$add$Debounce.v:20$5"><s:alias val="$add"/><circle r="12.5" cx="12.5" cy="12.5" class="cell_$add$Debounce.v:20$5"/><line x1="7.5" x2="17.5" y1="12.5" y2="12.5" class="cell_$add$Debounce.v:20$5"/><line x1="12.5" x2="12.5" y1="7.5" y2="17.5" class="cell_$add$Debounce.v:20$5"/><g s:x="3" s:y="5" s:pid="A"/><g s:x="3" s:y="20" s:pid="B"/><g s:x="25" s:y="12.5" s:pid="Y"/></g><g s:type="eq" transform="translate(280,109)" s:width="25" s:height="25" id="cell_$eq$Debounce.v:21$6"><s:alias val="$eq"/><circle r="12.5" cx="12.5" cy="12.5" class="cell_$eq$Debounce.v:21$6"/><line x1="7.5" x2="17.5" y1="10" y2="10" class="cell_$eq$Debounce.v:21$6"/><line x1="7.5" x2="17.5" y1="15" y2="15" class="cell_$eq$Debounce.v:21$6"/><g s:x="3" s:y="5" s:pid="A"/><g s:x="3" s:y="20" s:pid="B"/><g s:x="25" s:y="12.5" s:pid="Y"/></g><g s:type="and" transform="translate(340,187)" s:width="30" s:height="25" id="cell_$logic_and$Debounce.v:19$4"><s:alias val="$and"/><s:alias val="$reduce_and"/><s:alias val="$logic_and"/><s:alias val="$_AND_"/><path d="M0,0 L0,25 L15,25 A15 12.5 0 0 0 15,0 Z" class="cell_$logic_and$Debounce.v:19$4"/><text x="13" y="15" class="nodelabel" style="font-size:7px">AND</text><g s:x="0" s:y="5" s:pid="A"/><g s:x="0" s:y="20" s:pid="B"/><g s:x="30" s:y="12.5" s:pid="Y"/></g><g s:type="lt" transform="translate(280,194.5)" s:width="25" s:height="25" id="cell_$lt$Debounce.v:19$3"><s:alias val="$lt"/><circle r="12.5" cx="12.5" cy="12.5" class="cell_$lt$Debounce.v:19$3"/><line x1="7.5" x2="17.5" y1="12.5" y2="7.5" class="cell_$lt$Debounce.v:19$3"/><line x1="7.5" x2="17.5" y1="12.5" y2="17.5" class="cell_$lt$Debounce.v:19$3"/><g s:x="3" s:y="5" s:pid="A"/><g s:x="3" s:y="20" s:pid="B"/><g s:x="25" s:y="12.5" s:pid="Y"/></g><g s:type="ne" transform="translate(280,63)" s:width="25" s:height="25" id="cell_$ne$Debounce.v:19$2"><s:alias val="$ne"/><circle r="12.5" cx="12.5" cy="12.5" class="cell_$ne$Debounce.v:19$2"/><line x1="7.5" x2="17.5" y1="10" y2="10" class="cell_$ne$Debounce.v:19$2"/><line x1="7.5" x2="17.5" y1="15" y2="15" class="cell_$ne$Debounce.v:19$2"/><line x1="6" x2="19" y1="20" y2="5" class="cell_$ne$Debounce.v:19$2"/><g s:x="3" s:y="5" s:pid="A"/><g s:x="3" s:y="20" s:pid="B"/><g s:x="25" s:y="12.5" s:pid="Y"/></g><g s:type="generic" transform="translate(96,189)" s:width="30" s:height="40" id="cell_$procdff$20"><text x="15" y="-4" class="nodelabel cell_$procdff$20" s:attribute="ref">$dff-bus</text><rect width="30" height="40" s:generic="body" class="cell_$procdff$20"/><g transform="translate(0,10)" s:x="0" s:y="10" s:pid="in0" id="port_$procdff$20~CLK"><text x="-3" y="-4" class="inputPortLabel cell_$procdff$20">CLK</text></g><g transform="translate(0,30)" s:x="0" s:y="10" s:pid="in0" id="port_$procdff$20~D"><text x="-3" y="-4" class="inputPortLabel cell_$procdff$20">D</text></g><g transform="translate(30,10)" s:x="30" s:y="10" s:pid="out0" id="port_$procdff$20~Q"><text x="5" y="-4" style="fill:#000; stroke:none" class="cell_$procdff$20">Q</text></g></g><g s:type="dff" transform="translate(470,68)" s:width="30" s:height="40" id="cell_$procdff$21"><s:alias val="$dff"/><s:alias val="$_DFF_"/><s:alias val="$_DFF_P_"/><rect width="30" height="40" x="0" y="0" class="cell_$procdff$21"/><path d="M0,35 L5,30 L0,25" class="cell_$procdff$21"/><g s:x="30" s:y="10" s:pid="Q"/><g s:x="0" s:y="30" s:pid="CLK"/><g s:x="0" s:y="30" s:pid="C"/><g s:x="0" s:y="10" s:pid="D"/></g><g s:type="generic" transform="translate(543,229)" s:width="30" s:height="40" id="cell_$procmux$12"><text x="15" y="-4" class="nodelabel cell_$procmux$12" s:attribute="ref">$mux-bus</text><rect width="30" height="60" s:generic="body" class="cell_$procmux$12"/><g transform="translate(0,10)" s:x="0" s:y="10" s:pid="in0" id="port_$procmux$12~A"><text x="-3" y="-4" class="inputPortLabel cell_$procmux$12">A</text></g><g transform="translate(0,30)" s:x="0" s:y="10" s:pid="in0" id="port_$procmux$12~B"><text x="-3" y="-4" class="inputPortLabel cell_$procmux$12">B</text></g><g transform="translate(0,50)" s:x="0" s:y="10" s:pid="in0" id="port_$procmux$12~S"><text x="-3" y="-4" class="inputPortLabel cell_$procmux$12">S</text></g><g transform="translate(30,10)" s:x="30" s:y="10" s:pid="out0" id="port_$procmux$12~Y"><text x="5" y="-4" style="fill:#000; stroke:none" class="cell_$procmux$12">Y</text></g></g><g s:type="mux" transform="translate(346.6666666666667,22)" s:width="20" s:height="40" id="cell_$procmux$15"><s:alias val="$pmux"/><s:alias val="$mux"/><s:alias val="$_MUX_"/><path d="M0,0 L20,10 L20,30 L0,40 Z" class="cell_$procmux$15"/><g s:x="0" s:y="10" s:pid="A"/><g s:x="0" s:y="30" s:pid="B"/><g s:x="10" s:y="35" s:pid="S"/><g s:x="20" s:y="20" s:pid="Y"/></g><g s:type="mux" transform="translate(411.6666666666667,109)" s:width="20" s:height="40" id="cell_$procmux$18"><s:alias val="$pmux"/><s:alias val="$mux"/><s:alias val="$_MUX_"/><path d="M0,0 L20,10 L20,30 L0,40 Z" class="cell_$procmux$18"/><g s:x="0" s:y="10" s:pid="A"/><g s:x="0" s:y="30" s:pid="B"/><g s:x="10" s:y="35" s:pid="S"/><g s:x="20" s:y="20" s:pid="Y"/></g><g s:type="inputExt" transform="translate(12,88)" s:width="30" s:height="20" id="cell_i_Clk"><text x="15" y="-4" class="nodelabel cell_i_Clk" s:attribute="ref">i_Clk</text><s:alias val="$_inputExt_"/><path d="M0,0 L0,20 L15,20 L30,10 L15,0 Z" class="cell_i_Clk"/><g s:x="28" s:y="10" s:pid="Y"/></g><g s:type="inputExt" transform="translate(197,42)" s:width="30" s:height="20" id="cell_i_Switch"><text x="15" y="-4" class="nodelabel cell_i_Switch" s:attribute="ref">i_Switch</text><s:alias val="$_inputExt_"/><path d="M0,0 L0,20 L15,20 L30,10 L15,0 Z" class="cell_i_Switch"/><g s:x="28" s:y="10" s:pid="Y"/></g><g s:type="outputExt" transform="translate(543,68)" s:width="30" s:height="20" id="cell_o_Switch"><text x="15" y="-4" class="nodelabel cell_o_Switch" s:attribute="ref">o_Switch</text><s:alias val="$_outputExt_"/><path d="M30,0 L30,20 L15,20 L0,10 L15,0 Z" class="cell_o_Switch"/><g s:x="0" s:y="10" s:pid="A"/></g><g s:type="constant" transform="translate(340,316.5)" s:width="30" s:height="20" id="cell_1"><text x="15" y="-4" class="nodelabel cell_1" s:attribute="ref">1</text><s:alias val="$_constant_"/><rect width="30" height="20" class="cell_1"/><g s:x="30" s:y="10" s:pid="Y"/></g><g s:type="constant" transform="translate(96,124)" s:width="30" s:height="20" id="cell_111101000010010000"><text x="15" y="-4" class="nodelabel cell_111101000010010000" s:attribute="ref">0x3d090</text><s:alias val="$_constant_"/><rect width="30" height="20" class="cell_111101000010010000"/><g s:x="30" s:y="10" s:pid="Y"/></g><g s:type="constant" transform="translate(405,229.5)" s:width="30" s:height="20" id="cell_00000000000000000000000000000000"><text x="15" y="-4" class="nodelabel cell_00000000000000000000000000000000" s:attribute="ref">0x0</text><s:alias val="$_constant_"/><rect width="30" height="20" class="cell_00000000000000000000000000000000"/><g s:x="30" s:y="10" s:pid="Y"/></g><line x1="127" x2="172" y1="199.5" y2="199.5" class="net_5,6,7,8,9,10,11,12,13,14,15,16,17,18,19,20,21,22,23,24,25,26,27,28,29,30,31,32,33,34,35,36 width_32" style="stroke-width: 2"/><line x1="172" x2="172" y1="199.5" y2="295.5" class="net_5,6,7,8,9,10,11,12,13,14,15,16,17,18,19,20,21,22,23,24,25,26,27,28,29,30,31,32,33,34,35,36 width_32" style="stroke-width: 2"/><circle cx="172" cy="199.5" r="3" style="fill:#000" class="net_5,6,7,8,9,10,11,12,13,14,15,16,17,18,19,20,21,22,23,24,25,26,27,28,29,30,31,32,33,34,35,36 width_32"/><line x1="172" x2="409.6666666666667" y1="295.5" y2="295.5" class="net_5,6,7,8,9,10,11,12,13,14,15,16,17,18,19,20,21,22,23,24,25,26,27,28,29,30,31,32,33,34,35,36 width_32" style="stroke-width: 2"/><line x1="127" x2="172" y1="199.5" y2="199.5" class="net_5,6,7,8,9,10,11,12,13,14,15,16,17,18,19,20,21,22,23,24,25,26,27,28,29,30,31,32,33,34,35,36 width_32" style="stroke-width: 2"/><line x1="172" x2="172" y1="199.5" y2="114" class="net_5,6,7,8,9,10,11,12,13,14,15,16,17,18,19,20,21,22,23,24,25,26,27,28,29,30,31,32,33,34,35,36 width_32" style="stroke-width: 2"/><line x1="172" x2="283" y1="114" y2="114" class="net_5,6,7,8,9,10,11,12,13,14,15,16,17,18,19,20,21,22,23,24,25,26,27,28,29,30,31,32,33,34,35,36 width_32" style="stroke-width: 2"/><line x1="127" x2="283" y1="199.5" y2="199.5" class="net_5,6,7,8,9,10,11,12,13,14,15,16,17,18,19,20,21,22,23,24,25,26,27,28,29,30,31,32,33,34,35,36 width_32" style="stroke-width: 2"/><line x1="370" x2="380" y1="326.5" y2="326.5" class="net_107 width_1" style="stroke-width: 1"/><line x1="380" x2="380" y1="326.5" y2="310.5" class="net_107 width_1" style="stroke-width: 1"/><line x1="380" x2="409.6666666666667" y1="310.5" y2="310.5" class="net_107 width_1" style="stroke-width: 1"/><line x1="126" x2="255" y1="134" y2="134" class="net_108,109,110,111,112,113,114,115,116,117,118,119,120,121,122,123,124,125 width_18" style="stroke-width: 2"/><line x1="255" x2="255" y1="134" y2="129" class="net_108,109,110,111,112,113,114,115,116,117,118,119,120,121,122,123,124,125 width_18" style="stroke-width: 2"/><line x1="255" x2="283" y1="129" y2="129" class="net_108,109,110,111,112,113,114,115,116,117,118,119,120,121,122,123,124,125 width_18" style="stroke-width: 2"/><line x1="126" x2="182" y1="134" y2="134" class="net_108,109,110,111,112,113,114,115,116,117,118,119,120,121,122,123,124,125 width_18" style="stroke-width: 2"/><line x1="182" x2="182" y1="134" y2="219.5" class="net_108,109,110,111,112,113,114,115,116,117,118,119,120,121,122,123,124,125 width_18" style="stroke-width: 2"/><line x1="182" x2="255" y1="219.5" y2="219.5" class="net_108,109,110,111,112,113,114,115,116,117,118,119,120,121,122,123,124,125 width_18" style="stroke-width: 2"/><line x1="255" x2="255" y1="219.5" y2="214.5" class="net_108,109,110,111,112,113,114,115,116,117,118,119,120,121,122,123,124,125 width_18" style="stroke-width: 2"/><circle cx="182" cy="134" r="3" style="fill:#000" class="net_108,109,110,111,112,113,114,115,116,117,118,119,120,121,122,123,124,125 width_18"/><line x1="255" x2="283" y1="214.5" y2="214.5" class="net_108,109,110,111,112,113,114,115,116,117,118,119,120,121,122,123,124,125 width_18" style="stroke-width: 2"/><line x1="305" x2="315" y1="75.5" y2="75.5" class="net_70 width_1" style="stroke-width: 1"/><line x1="315" x2="315" y1="75.5" y2="192" class="net_70 width_1" style="stroke-width: 1"/><line x1="315" x2="340" y1="192" y2="192" class="net_70 width_1" style="stroke-width: 1"/><line x1="305" x2="340" y1="207" y2="207" class="net_71 width_1" style="stroke-width: 1"/><line x1="225" x2="265" y1="52" y2="52" class="net_3 width_1" style="stroke-width: 1"/><line x1="265" x2="265" y1="52" y2="68" class="net_3 width_1" style="stroke-width: 1"/><circle cx="265" cy="52" r="2" style="fill:#000" class="net_3 width_1"/><line x1="265" x2="283" y1="68" y2="68" class="net_3 width_1" style="stroke-width: 1"/><line x1="225" x2="346.6666666666667" y1="52" y2="52" class="net_3 width_1" style="stroke-width: 1"/><line x1="500" x2="510" y1="78" y2="78" class="net_4 width_1" style="stroke-width: 1"/><line x1="510" x2="510" y1="78" y2="12" class="net_4 width_1" style="stroke-width: 1"/><line x1="510" x2="255" y1="12" y2="12" class="net_4 width_1" style="stroke-width: 1"/><line x1="255" x2="255" y1="12" y2="83" class="net_4 width_1" style="stroke-width: 1"/><line x1="255" x2="283" y1="83" y2="83" class="net_4 width_1" style="stroke-width: 1"/><line x1="500" x2="510" y1="78" y2="78" class="net_4 width_1" style="stroke-width: 1"/><line x1="510" x2="510" y1="78" y2="12" class="net_4 width_1" style="stroke-width: 1"/><line x1="510" x2="315" y1="12" y2="12" class="net_4 width_1" style="stroke-width: 1"/><line x1="315" x2="315" y1="12" y2="32" class="net_4 width_1" style="stroke-width: 1"/><circle cx="315" cy="12" r="2" style="fill:#000" class="net_4 width_1"/><circle cx="510" cy="78" r="2" style="fill:#000" class="net_4 width_1"/><line x1="315" x2="346.6666666666667" y1="32" y2="32" class="net_4 width_1" style="stroke-width: 1"/><line x1="500" x2="510" y1="78" y2="78" class="net_4 width_1" style="stroke-width: 1"/><line x1="510" x2="510" y1="78" y2="209.5" class="net_4 width_1" style="stroke-width: 1"/><line x1="510" x2="390" y1="209.5" y2="209.5" class="net_4 width_1" style="stroke-width: 1"/><line x1="390" x2="390" y1="209.5" y2="139" class="net_4 width_1" style="stroke-width: 1"/><line x1="390" x2="411.6666666666667" y1="139" y2="139" class="net_4 width_1" style="stroke-width: 1"/><line x1="500" x2="543" y1="78" y2="78" class="net_4 width_1" style="stroke-width: 1"/><line x1="40" x2="52" y1="98" y2="98" class="net_2 width_1" style="stroke-width: 1"/><line x1="52" x2="52" y1="98" y2="199.5" class="net_2 width_1" style="stroke-width: 1"/><circle cx="52" cy="98" r="2" style="fill:#000" class="net_2 width_1"/><line x1="52" x2="96" y1="199.5" y2="199.5" class="net_2 width_1" style="stroke-width: 1"/><line x1="40" x2="470" y1="98" y2="98" class="net_2 width_1" style="stroke-width: 1"/><line x1="574" x2="619" y1="239.5" y2="239.5" class="net_73,74,75,76,77,78,79,80,81,82,83,84,85,86,87,88,89,90,91,92,93,94,95,96,97,98,99,100,101,102,103,104 width_32" style="stroke-width: 2"/><line x1="619" x2="619" y1="239.5" y2="375.5" class="net_73,74,75,76,77,78,79,80,81,82,83,84,85,86,87,88,89,90,91,92,93,94,95,96,97,98,99,100,101,102,103,104 width_32" style="stroke-width: 2"/><line x1="619" x2="52" y1="375.5" y2="375.5" class="net_73,74,75,76,77,78,79,80,81,82,83,84,85,86,87,88,89,90,91,92,93,94,95,96,97,98,99,100,101,102,103,104 width_32" style="stroke-width: 2"/><line x1="52" x2="52" y1="375.5" y2="219.5" class="net_73,74,75,76,77,78,79,80,81,82,83,84,85,86,87,88,89,90,91,92,93,94,95,96,97,98,99,100,101,102,103,104 width_32" style="stroke-width: 2"/><line x1="52" x2="95" y1="219.5" y2="219.5" class="net_73,74,75,76,77,78,79,80,81,82,83,84,85,86,87,88,89,90,91,92,93,94,95,96,97,98,99,100,101,102,103,104 width_32" style="stroke-width: 2"/><line x1="431.6666666666667" x2="445" y1="129" y2="129" class="net_105 width_1" style="stroke-width: 1"/><line x1="445" x2="445" y1="129" y2="78" class="net_105 width_1" style="stroke-width: 1"/><line x1="445" x2="470" y1="78" y2="78" class="net_105 width_1" style="stroke-width: 1"/><line x1="435" x2="543" y1="239.5" y2="239.5" class="net_144,145,146,147,148,149,150,151,152,153,154,155,156,157,158,159,160,161,162,163,164,165,166,167,168,169,170,171,172,173,174,175 width_32" style="stroke-width: 2"/><line x1="431.6666666666667" x2="445" y1="303" y2="303" class="net_37,38,39,40,41,42,43,44,45,46,47,48,49,50,51,52,53,54,55,56,57,58,59,60,61,62,63,64,65,66,67,68 width_32" style="stroke-width: 2"/><line x1="445" x2="445" y1="303" y2="259.5" class="net_37,38,39,40,41,42,43,44,45,46,47,48,49,50,51,52,53,54,55,56,57,58,59,60,61,62,63,64,65,66,67,68 width_32" style="stroke-width: 2"/><line x1="445" x2="542" y1="259.5" y2="259.5" class="net_37,38,39,40,41,42,43,44,45,46,47,48,49,50,51,52,53,54,55,56,57,58,59,60,61,62,63,64,65,66,67,68 width_32" style="stroke-width: 2"/><line x1="370" x2="380" y1="199.5" y2="199.5" class="net_72 width_1" style="stroke-width: 1"/><line x1="380" x2="380" y1="199.5" y2="279.5" class="net_72 width_1" style="stroke-width: 1"/><circle cx="380" cy="199.5" r="2" style="fill:#000" class="net_72 width_1"/><line x1="380" x2="542" y1="279.5" y2="279.5" class="net_72 width_1" style="stroke-width: 1"/><line x1="370" x2="421.6666666666667" y1="199.5" y2="199.5" class="net_72 width_1" style="stroke-width: 1"/><line x1="421.6666666666667" x2="421.6666666666667" y1="199.5" y2="144" class="net_72 width_1" style="stroke-width: 1"/><line x1="305" x2="356.6666666666667" y1="121.5" y2="121.5" class="net_69 width_1" style="stroke-width: 1"/><line x1="356.6666666666667" x2="356.6666666666667" y1="121.5" y2="57" class="net_69 width_1" style="stroke-width: 1"/><line x1="366.6666666666667" x2="380" y1="42" y2="42" class="net_106 width_1" style="stroke-width: 1"/><line x1="380" x2="380" y1="42" y2="119" class="net_106 width_1" style="stroke-width: 1"/><line x1="380" x2="411.6666666666667" y1="119" y2="119" class="net_106 width_1" style="stroke-width: 1"/><rect x="220" y="194.5" width="22" height="9" class="net_5,6,7,8,9,10,11,12,13,14,15,16,17,18,19,20,21,22,23,24,25,26,27,28,29,30,31,32,33,34,35,36 width_32 busLabel_32" style="fill: white; stroke: none"/><text x="219" y="202.5" class="net_5,6,7,8,9,10,11,12,13,14,15,16,17,18,19,20,21,22,23,24,25,26,27,28,29,30,31,32,33,34,35,36 width_32 busLabel_32">/32/</text><rect x="220" y="194.5" width="22" height="9" class="net_5,6,7,8,9,10,11,12,13,14,15,16,17,18,19,20,21,22,23,24,25,26,27,28,29,30,31,32,33,34,35,36 width_32 busLabel_32" style="fill: white; stroke: none"/><text x="219" y="202.5" class="net_5,6,7,8,9,10,11,12,13,14,15,16,17,18,19,20,21,22,23,24,25,26,27,28,29,30,31,32,33,34,35,36 width_32 busLabel_32">/32/</text><rect x="220" y="194.5" width="22" height="9" class="net_5,6,7,8,9,10,11,12,13,14,15,16,17,18,19,20,21,22,23,24,25,26,27,28,29,30,31,32,33,34,35,36 width_32 busLabel_32" style="fill: white; stroke: none"/><text x="219" y="202.5" class="net_5,6,7,8,9,10,11,12,13,14,15,16,17,18,19,20,21,22,23,24,25,26,27,28,29,30,31,32,33,34,35,36 width_32 busLabel_32">/32/</text><rect x="220" y="214.5" width="22" height="9" class="net_108,109,110,111,112,113,114,115,116,117,118,119,120,121,122,123,124,125 width_18 busLabel_18" style="fill: white; stroke: none"/><text x="219" y="222.5" class="net_108,109,110,111,112,113,114,115,116,117,118,119,120,121,122,123,124,125 width_18 busLabel_18">/18/</text><rect x="220" y="214.5" width="22" height="9" class="net_108,109,110,111,112,113,114,115,116,117,118,119,120,121,122,123,124,125 width_18 busLabel_18" style="fill: white; stroke: none"/><text x="219" y="222.5" class="net_108,109,110,111,112,113,114,115,116,117,118,119,120,121,122,123,124,125 width_18 busLabel_18">/18/</text><rect x="354" y="370.5" width="22" height="9" class="net_73,74,75,76,77,78,79,80,81,82,83,84,85,86,87,88,89,90,91,92,93,94,95,96,97,98,99,100,101,102,103,104 width_32 busLabel_32" style="fill: white; stroke: none"/><text x="353" y="378.5" class="net_73,74,75,76,77,78,79,80,81,82,83,84,85,86,87,88,89,90,91,92,93,94,95,96,97,98,99,100,101,102,103,104 width_32 busLabel_32">/32/</text><rect x="484" y="234.5" width="22" height="9" class="net_144,145,146,147,148,149,150,151,152,153,154,155,156,157,158,159,160,161,162,163,164,165,166,167,168,169,170,171,172,173,174,175 width_32 busLabel_32" style="fill: white; stroke: none"/><text x="483" y="242.5" class="net_144,145,146,147,148,149,150,151,152,153,154,155,156,157,158,159,160,161,162,163,164,165,166,167,168,169,170,171,172,173,174,175 width_32 busLabel_32">/32/</text><rect x="484" y="254.5" width="22" height="9" class="net_37,38,39,40,41,42,43,44,45,46,47,48,49,50,51,52,53,54,55,56,57,58,59,60,61,62,63,64,65,66,67,68 width_32 busLabel_32" style="fill: white; stroke: none"/><text x="483" y="262.5" class="net_37,38,39,40,41,42,43,44,45,46,47,48,49,50,51,52,53,54,55,56,57,58,59,60,61,62,63,64,65,66,67,68 width_32 busLabel_32">/32/</text></svg>