<svg xmlns="http://www.w3.org/2000/svg" xmlns:xlink="http://www.w3.org/1999/xlink" xmlns:s="https://github.com/nturley/netlistsvg" width="708" height="1225"><style>svg {
  stroke:#000;
  fill:none;
}
text {
  fill:#000;
  stroke:none;
  font-size:10px;
  font-weight: bold;
  font-family: "Courier New", monospace;
}
line {
    stroke-linecap: round;
}
.nodelabel {
  text-anchor: middle;
}
.inputPortLabel {
  text-anchor: end;
}
.splitjoinBody {
  fill:#000;
}</style><g s:type="eq" transform="translate(574,917.5)" s:width="25" s:height="25" id="cell_:12"><s:alias val="$eq"/><s:alias val="$eqx"/><circle r="12.5" cx="12.5" cy="12.5" fill="#ffffff" class="cell_:12"/><line x1="7.5" x2="17.5" y1="10" y2="10" fill="#ffffff" class="cell_:12"/><line x1="7.5" x2="17.5" y1="15" y2="15" fill="#ffffff" class="cell_:12"/><g s:x="2" s:y="5" s:pid="A"/><g s:x="2" s:y="20" s:pid="B"/><g s:x="25" s:y="12.5" s:pid="Y"/></g><g s:type="ge" transform="translate(226,392.5)" s:width="25" s:height="25" id="cell_:15"><s:alias val="$ge"/><circle r="12" cx="12" cy="12" fill="#ffffff" class="cell_:15"/><line x1="8" x2="19" y1="6" y2="11" fill="#ffffff" class="cell_:15"/><line x1="8" x2="19" y1="16" y2="11" fill="#ffffff" class="cell_:15"/><line x1="8" x2="19" y1="19" y2="14" fill="#ffffff" class="cell_:15"/><g s:x="2" s:y="5" s:pid="A"/><g s:x="2" s:y="20" s:pid="B"/><g s:x="25" s:y="12.5" s:pid="Y"/></g><g s:type="lt" transform="translate(226,327.5)" s:width="25" s:height="25" id="cell_:18"><s:alias val="$lt"/><circle r="12.5" cx="12.5" cy="12.5" fill="#ffffff" class="cell_:18"/><line x1="6" x2="17" y1="12" y2="7" fill="#ffffff" class="cell_:18"/><line x1="6" x2="17" y1="12" y2="17" fill="#ffffff" class="cell_:18"/><g s:x="2" s:y="5" s:pid="A"/><g s:x="2" s:y="20" s:pid="B"/><g s:x="25" s:y="12.5" s:pid="Y"/></g><g s:type="and" transform="translate(290.3333333333333,385)" s:width="30" s:height="25" id="cell_:19"><s:alias val="$and"/><s:alias val="$logic_and"/><s:alias val="$_AND_"/><s:alias val="$reduce_and"/><path d="M0,0 L0,25 L15,25 A15 12.5 0 0 0 15,0 Z" fill="#ffffff" class="cell_:19"/><g s:x="0" s:y="5" s:pid="A"/><g s:x="0" s:y="20" s:pid="B"/><g s:x="30" s:y="12.5" s:pid="Y"/></g><g s:type="ge" transform="translate(292,258.5)" s:width="25" s:height="25" id="cell_:22"><s:alias val="$ge"/><circle r="12" cx="12" cy="12" fill="#ffffff" class="cell_:22"/><line x1="8" x2="19" y1="6" y2="11" fill="#ffffff" class="cell_:22"/><line x1="8" x2="19" y1="16" y2="11" fill="#ffffff" class="cell_:22"/><line x1="8" x2="19" y1="19" y2="14" fill="#ffffff" class="cell_:22"/><g s:x="2" s:y="5" s:pid="A"/><g s:x="2" s:y="20" s:pid="B"/><g s:x="25" s:y="12.5" s:pid="Y"/></g><g s:type="and" transform="translate(358,377.5)" s:width="30" s:height="25" id="cell_:23"><s:alias val="$and"/><s:alias val="$logic_and"/><s:alias val="$_AND_"/><s:alias val="$reduce_and"/><path d="M0,0 L0,25 L15,25 A15 12.5 0 0 0 15,0 Z" fill="#ffffff" class="cell_:23"/><g s:x="0" s:y="5" s:pid="A"/><g s:x="0" s:y="20" s:pid="B"/><g s:x="30" s:y="12.5" s:pid="Y"/></g><g s:type="lt" transform="translate(359.6666666666667,189.5)" s:width="25" s:height="25" id="cell_:26"><s:alias val="$lt"/><circle r="12.5" cx="12.5" cy="12.5" fill="#ffffff" class="cell_:26"/><line x1="6" x2="17" y1="12" y2="7" fill="#ffffff" class="cell_:26"/><line x1="6" x2="17" y1="12" y2="17" fill="#ffffff" class="cell_:26"/><g s:x="2" s:y="5" s:pid="A"/><g s:x="2" s:y="20" s:pid="B"/><g s:x="25" s:y="12.5" s:pid="Y"/></g><g s:type="and" transform="translate(442.3333333333333,370)" s:width="30" s:height="25" id="cell_:27"><s:alias val="$and"/><s:alias val="$logic_and"/><s:alias val="$_AND_"/><s:alias val="$reduce_and"/><path d="M0,0 L0,25 L15,25 A15 12.5 0 0 0 15,0 Z" fill="#ffffff" class="cell_:27"/><g s:x="0" s:y="5" s:pid="A"/><g s:x="0" s:y="20" s:pid="B"/><g s:x="30" s:y="12.5" s:pid="Y"/></g><g s:type="gt" transform="translate(514,1183)" s:width="25" s:height="25" id="cell_:31"><s:alias val="$gt"/><circle r="12" cx="12" cy="12" fill="#ffffff" class="cell_:31"/><line x1="8" x2="19" y1="7" y2="12" fill="#ffffff" class="cell_:31"/><line x1="8" x2="19" y1="17" y2="12" fill="#ffffff" class="cell_:31"/><g s:x="2" s:y="5" s:pid="A"/><g s:x="2" s:y="20" s:pid="B"/><g s:x="25" s:y="12.5" s:pid="Y"/></g><g s:type="mux" transform="translate(575.6666666666666,1073)" s:width="20" s:height="40" id="cell_:32"><s:alias val="$pmux"/><s:alias val="$mux"/><s:alias val="$_MUX_"/><path d="M0,0 L20,10 L20,30 L0,40 Z" fill="#ffffff" class="cell_:32"/><text x="5" y="32" class="nodelabel cell_:32" s:attribute="">1</text><text x="5" y="13" class="nodelabel cell_:32" s:attribute="">0</text><g s:x="0" s:y="10" s:pid="A"/><g s:x="0" s:y="30" s:pid="B"/><g s:x="10" s:y="35" s:pid="S"/><g s:x="20" s:y="20" s:pid="Y"/></g><g s:type="gt" transform="translate(514,1050.5)" s:width="25" s:height="25" id="cell_:37"><s:alias val="$gt"/><circle r="12" cx="12" cy="12" fill="#ffffff" class="cell_:37"/><line x1="8" x2="19" y1="7" y2="12" fill="#ffffff" class="cell_:37"/><line x1="8" x2="19" y1="17" y2="12" fill="#ffffff" class="cell_:37"/><g s:x="2" s:y="5" s:pid="A"/><g s:x="2" s:y="20" s:pid="B"/><g s:x="25" s:y="12.5" s:pid="Y"/></g><g s:type="mux" transform="translate(575.6666666666666,995.5)" s:width="20" s:height="40" id="cell_:38"><s:alias val="$pmux"/><s:alias val="$mux"/><s:alias val="$_MUX_"/><path d="M0,0 L20,10 L20,30 L0,40 Z" fill="#ffffff" class="cell_:38"/><text x="5" y="32" class="nodelabel cell_:38" s:attribute="">1</text><text x="5" y="13" class="nodelabel cell_:38" s:attribute="">0</text><g s:x="0" s:y="10" s:pid="A"/><g s:x="0" s:y="30" s:pid="B"/><g s:x="10" s:y="35" s:pid="S"/><g s:x="20" s:y="20" s:pid="Y"/></g><g s:type="mux-bus" transform="translate(514.5,114.5)" s:width="24" s:height="40" id="cell_:40"><s:alias val="$pmux-bus"/><s:alias val="$mux-bus"/><s:alias val="$_MUX_-bus"/><path d="M0,0 L20,10 L20,30 L0,40 Z" fill="#ffffff" class="cell_:40"/><path d="M4,2 L4,0 L22,9 L22,31 L4,40 L4,38" fill="#ffffff" class="cell_:40"/><path d="M8,2 L8,0 L24,8 L24,32 L8,40 L8,38" fill="#ffffff" class="cell_:40"/><text x="5" y="32" class="nodelabel cell_:40" s:attribute="">1</text><text x="5" y="13" class="nodelabel cell_:40" s:attribute="">0</text><g s:x="-1" s:y="10" s:pid="A"/><g s:x="-1" s:y="30" s:pid="B"/><g s:x="12" s:y="38" s:pid="S"/><g s:x="24.5" s:y="20" s:pid="Y"/></g><g s:type="add" transform="translate(513,864)" s:width="25" s:height="25" id="cell_:49"><s:alias val="$add"/><circle r="12.5" cx="12.5" cy="12.5" fill="#ffffff" class="cell_:49"/><line x1="7.5" x2="17.5" y1="12.5" y2="12.5" fill="#ffffff" class="cell_:49"/><line x1="12.5" x2="12.5" y1="7.5" y2="17.5" fill="#ffffff" class="cell_:49"/><g s:x="2" s:y="5" s:pid="A"/><g s:x="2" s:y="20" s:pid="B"/><g s:x="26" s:y="12.5" s:pid="Y"/></g><g s:type="mux-bus" transform="translate(635,866.5)" s:width="24" s:height="40" id="cell_:52"><s:alias val="$pmux-bus"/><s:alias val="$mux-bus"/><s:alias val="$_MUX_-bus"/><path d="M0,0 L20,10 L20,30 L0,40 Z" fill="#ffffff" class="cell_:52"/><path d="M4,2 L4,0 L22,9 L22,31 L4,40 L4,38" fill="#ffffff" class="cell_:52"/><path d="M8,2 L8,0 L24,8 L24,32 L8,40 L8,38" fill="#ffffff" class="cell_:52"/><text x="5" y="32" class="nodelabel cell_:52" s:attribute="">1</text><text x="5" y="13" class="nodelabel cell_:52" s:attribute="">0</text><g s:x="-1" s:y="10" s:pid="A"/><g s:x="-1" s:y="30" s:pid="B"/><g s:x="12" s:y="38" s:pid="S"/><g s:x="24.5" s:y="20" s:pid="Y"/></g><g s:type="add" transform="translate(359.6666666666667,658.5)" s:width="25" s:height="25" id="cell_:61"><s:alias val="$add"/><circle r="12.5" cx="12.5" cy="12.5" fill="#ffffff" class="cell_:61"/><line x1="7.5" x2="17.5" y1="12.5" y2="12.5" fill="#ffffff" class="cell_:61"/><line x1="12.5" x2="12.5" y1="7.5" y2="17.5" fill="#ffffff" class="cell_:61"/><g s:x="2" s:y="5" s:pid="A"/><g s:x="2" s:y="20" s:pid="B"/><g s:x="26" s:y="12.5" s:pid="Y"/></g><g s:type="mux-bus" transform="translate(514.5,664.5)" s:width="24" s:height="40" id="cell_:64"><s:alias val="$pmux-bus"/><s:alias val="$mux-bus"/><s:alias val="$_MUX_-bus"/><path d="M0,0 L20,10 L20,30 L0,40 Z" fill="#ffffff" class="cell_:64"/><path d="M4,2 L4,0 L22,9 L22,31 L4,40 L4,38" fill="#ffffff" class="cell_:64"/><path d="M8,2 L8,0 L24,8 L24,32 L8,40 L8,38" fill="#ffffff" class="cell_:64"/><text x="5" y="32" class="nodelabel cell_:64" s:attribute="">1</text><text x="5" y="13" class="nodelabel cell_:64" s:attribute="">0</text><g s:x="-1" s:y="10" s:pid="A"/><g s:x="-1" s:y="30" s:pid="B"/><g s:x="12" s:y="38" s:pid="S"/><g s:x="24.5" s:y="20" s:pid="Y"/></g><g s:type="dff-bus" transform="translate(78,1162)" s:width="34" s:height="44" id="cell_:67"><s:alias val="$dff-bus"/><s:alias val="$_DFF_-bus"/><s:alias val="$_DFF_P_-bus"/><s:alias val="adff-bus"/><s:alias val="$adff-bus"/><s:alias val="$_DFF_-bus"/><s:alias val="$_DFF_P_-bus"/><s:alias val="sdff-bus"/><s:alias val="$sdff-bus"/><s:alias val="$_DFF_-bus"/><s:alias val="$_DFF_P_-bus"/><rect width="30" height="40" x="0" y="0" fill="#ffffff" class="cell_:67"/><path d="M0,35 L5,30 L0,25" fill="#ffffff" class="cell_:67"/><path d="M30,2 L32,2 L32,42 L2,42 L2,40" fill="#ffffff" class="cell_:67"/><path d="M32,4 L34,4 L34,44 L4,44 L4,42" fill="#ffffff" class="cell_:67"/><g s:x="35" s:y="10" s:pid="Q"/><g s:x="-1" s:y="30" s:pid="CLK"/><g s:x="-1" s:y="30" s:pid="C"/><g s:x="-1" s:y="10" s:pid="D"/><g s:x="17" s:y="44" s:pid="ARST"/><g s:x="17" s:y="44" s:pid="SRST"/></g><g s:type="mux-bus" transform="translate(635,654.5)" s:width="24" s:height="40" id="cell_:68"><s:alias val="$pmux-bus"/><s:alias val="$mux-bus"/><s:alias val="$_MUX_-bus"/><path d="M0,0 L20,10 L20,30 L0,40 Z" fill="#ffffff" class="cell_:68"/><path d="M4,2 L4,0 L22,9 L22,31 L4,40 L4,38" fill="#ffffff" class="cell_:68"/><path d="M8,2 L8,0 L24,8 L24,32 L8,40 L8,38" fill="#ffffff" class="cell_:68"/><text x="5" y="32" class="nodelabel cell_:68" s:attribute="">1</text><text x="5" y="13" class="nodelabel cell_:68" s:attribute="">0</text><g s:x="-1" s:y="10" s:pid="A"/><g s:x="-1" s:y="30" s:pid="B"/><g s:x="12" s:y="38" s:pid="S"/><g s:x="24.5" s:y="20" s:pid="Y"/></g><g s:type="dff-bus" transform="translate(149,453.5)" s:width="34" s:height="44" id="cell_:69"><s:alias val="$dff-bus"/><s:alias val="$_DFF_-bus"/><s:alias val="$_DFF_P_-bus"/><s:alias val="adff-bus"/><s:alias val="$adff-bus"/><s:alias val="$_DFF_-bus"/><s:alias val="$_DFF_P_-bus"/><s:alias val="sdff-bus"/><s:alias val="$sdff-bus"/><s:alias val="$_DFF_-bus"/><s:alias val="$_DFF_P_-bus"/><rect width="30" height="40" x="0" y="0" fill="#ffffff" class="cell_:69"/><path d="M0,35 L5,30 L0,25" fill="#ffffff" class="cell_:69"/><path d="M30,2 L32,2 L32,42 L2,42 L2,40" fill="#ffffff" class="cell_:69"/><path d="M32,4 L34,4 L34,44 L4,44 L4,42" fill="#ffffff" class="cell_:69"/><g s:x="35" s:y="10" s:pid="Q"/><g s:x="-1" s:y="30" s:pid="CLK"/><g s:x="-1" s:y="30" s:pid="C"/><g s:x="-1" s:y="10" s:pid="D"/><g s:x="17" s:y="44" s:pid="ARST"/><g s:x="17" s:y="44" s:pid="SRST"/></g><g s:type="eq" transform="translate(444,735.5)" s:width="25" s:height="25" id="cell_:9"><s:alias val="$eq"/><s:alias val="$eqx"/><circle r="12.5" cx="12.5" cy="12.5" fill="#ffffff" class="cell_:9"/><line x1="7.5" x2="17.5" y1="10" y2="10" fill="#ffffff" class="cell_:9"/><line x1="7.5" x2="17.5" y1="15" y2="15" fill="#ffffff" class="cell_:9"/><g s:x="2" s:y="5" s:pid="A"/><g s:x="2" s:y="20" s:pid="B"/><g s:x="25" s:y="12.5" s:pid="Y"/></g><g s:type="inputExt" transform="translate(12,1182)" s:width="30" s:height="20" id="cell_clk"><text x="15" y="-4" class="nodelabel cell_clk" s:attribute="ref">clk</text><s:alias val="$_inputExt_"/><path d="M0,0 L0,20 L15,20 L30,10 L15,0 Z" fill="#ffffff" class="cell_clk"/><g s:x="30" s:y="10" s:pid="Y"/></g><g s:type="inputExt" transform="translate(356,134.5)" s:width="30" s:height="20" id="cell_rgb_in"><text x="15" y="-4" class="nodelabel cell_rgb_in" s:attribute="ref">rgb_in</text><s:alias val="$_inputExt_"/><path d="M0,0 L0,20 L15,20 L30,10 L15,0 Z" fill="#ffffff" class="cell_rgb_in"/><g s:x="30" s:y="10" s:pid="Y"/></g><g s:type="outputExt" transform="translate(634,124.5)" s:width="30" s:height="20" id="cell_rgb_out"><text x="15" y="-4" class="nodelabel cell_rgb_out" s:attribute="ref">rgb_out</text><s:alias val="$_outputExt_"/><path d="M30,0 L30,20 L15,20 L0,10 L15,0 Z" fill="#ffffff" class="cell_rgb_out"/><g s:x="0" s:y="10" s:pid="A"/></g><g s:type="outputExt" transform="translate(635,1083)" s:width="30" s:height="20" id="cell_hsync"><text x="15" y="-4" class="nodelabel cell_hsync" s:attribute="ref">hsync</text><s:alias val="$_outputExt_"/><path d="M30,0 L30,20 L15,20 L0,10 L15,0 Z" fill="#ffffff" class="cell_hsync"/><g s:x="0" s:y="10" s:pid="A"/></g><g s:type="outputExt" transform="translate(635,1005.5)" s:width="30" s:height="20" id="cell_vsync"><text x="15" y="-4" class="nodelabel cell_vsync" s:attribute="ref">vsync</text><s:alias val="$_outputExt_"/><path d="M30,0 L30,20 L15,20 L0,10 L15,0 Z" fill="#ffffff" class="cell_vsync"/><g s:x="0" s:y="10" s:pid="A"/></g><g s:type="outputExt" transform="translate(635,799.5)" s:width="30" s:height="20" id="cell_hpos"><text x="15" y="-4" class="nodelabel cell_hpos" s:attribute="ref">hpos</text><s:alias val="$_outputExt_"/><path d="M30,0 L30,20 L15,20 L0,10 L15,0 Z" fill="#ffffff" class="cell_hpos"/><g s:x="0" s:y="10" s:pid="A"/></g><g s:type="outputExt" transform="translate(635,39.5)" s:width="30" s:height="20" id="cell_vpos"><text x="15" y="-4" class="nodelabel cell_vpos" s:attribute="ref">vpos</text><s:alias val="$_outputExt_"/><path d="M30,0 L30,20 L15,20 L0,10 L15,0 Z" fill="#ffffff" class="cell_vpos"/><g s:x="0" s:y="10" s:pid="A"/></g><g s:type="constant" transform="translate(442,927.5)" s:width="30" s:height="20" id="cell_1100011111"><text x="15" y="-4" class="nodelabel cell_1100011111" s:attribute="ref">0x31f</text><s:alias val="$_constant_"/><rect width="30" height="20" fill="#ffffff" class="cell_1100011111"/><g s:x="31" s:y="10" s:pid="Y"/></g><g s:type="constant" transform="translate(82,402.5)" s:width="30" s:height="20" id="cell_10001111"><text x="15" y="-4" class="nodelabel cell_10001111" s:attribute="ref">0x8f</text><s:alias val="$_constant_"/><rect width="30" height="20" fill="#ffffff" class="cell_10001111"/><g s:x="31" s:y="10" s:pid="Y"/></g><g s:type="constant" transform="translate(82,337.5)" s:width="30" s:height="20" id="cell_1100001111"><text x="15" y="-4" class="nodelabel cell_1100001111" s:attribute="ref">0x30f</text><s:alias val="$_constant_"/><rect width="30" height="20" fill="#ffffff" class="cell_1100001111"/><g s:x="31" s:y="10" s:pid="Y"/></g><g s:type="constant" transform="translate(153,268.5)" s:width="30" s:height="20" id="cell_100010"><text x="15" y="-4" class="nodelabel cell_100010" s:attribute="ref">0x22</text><s:alias val="$_constant_"/><rect width="30" height="20" fill="#ffffff" class="cell_100010"/><g s:x="31" s:y="10" s:pid="Y"/></g><g s:type="constant" transform="translate(224,199.5)" s:width="30" s:height="20" id="cell_1000000010"><text x="15" y="-4" class="nodelabel cell_1000000010" s:attribute="ref">0x202</text><s:alias val="$_constant_"/><rect width="30" height="20" fill="#ffffff" class="cell_1000000010"/><g s:x="31" s:y="10" s:pid="Y"/></g><g s:type="constant" transform="translate(356,1193)" s:width="30" s:height="20" id="cell_1011111"><text x="15" y="-4" class="nodelabel cell_1011111" s:attribute="ref">0x5f</text><s:alias val="$_constant_"/><rect width="30" height="20" fill="#ffffff" class="cell_1011111"/><g s:x="31" s:y="10" s:pid="Y"/></g><g s:type="constant" transform="translate(508,995.5)" s:width="30" s:height="20" id="cell_0"><text x="15" y="-4" class="nodelabel cell_0" s:attribute="ref">0</text><s:alias val="$_constant_"/><rect width="30" height="20" fill="#ffffff" class="cell_0"/><g s:x="31" s:y="10" s:pid="Y"/></g><g s:type="constant" transform="translate(290,1093)" s:width="30" s:height="20" id="cell_1"><text x="15" y="-4" class="nodelabel cell_1" s:attribute="ref">1</text><s:alias val="$_constant_"/><rect width="30" height="20" fill="#ffffff" class="cell_1"/><g s:x="31" s:y="10" s:pid="Y"/></g><g s:type="constant" transform="translate(356,69.5)" s:width="30" s:height="20" id="cell_000"><text x="15" y="-4" class="nodelabel cell_000" s:attribute="ref">000</text><s:alias val="$_constant_"/><rect width="30" height="20" fill="#ffffff" class="cell_000"/><g s:x="31" s:y="10" s:pid="Y"/></g><g s:type="constant" transform="translate(356,842)" s:width="30" s:height="20" id="cell_0000000000"><text x="15" y="-4" class="nodelabel cell_0000000000" s:attribute="ref">0x0</text><s:alias val="$_constant_"/><rect width="30" height="20" fill="#ffffff" class="cell_0000000000"/><g s:x="31" s:y="10" s:pid="Y"/></g><g s:type="constant" transform="translate(290,745.5)" s:width="30" s:height="20" id="cell_1000001100"><text x="15" y="-4" class="nodelabel cell_1000001100" s:attribute="ref">0x20c</text><s:alias val="$_constant_"/><rect width="30" height="20" fill="#ffffff" class="cell_1000001100"/><g s:x="31" s:y="10" s:pid="Y"/></g><g s:type="constant" transform="translate(356,558.5)" s:width="30" s:height="20" id="cell_0000000000000000000000"><text x="15" y="-4" class="nodelabel cell_0000000000000000000000" s:attribute="ref">0x0</text><s:alias val="$_constant_"/><rect width="30" height="20" fill="#ffffff" class="cell_0000000000000000000000"/><g s:x="31" s:y="10" s:pid="Y"/></g><g s:type="join" transform="translate(527,789)" s:width="4" s:height="40" id="cell_$join$,11,12,13,14,15,16,17,18,19,20,183,184,185,186,187,188,189,190,191,192,193,194,195,196,197,198,199,200,201,202,203,204,"><rect width="5" height="40" class="splitjoinBody" s:generic="body"/><s:alias val="$_join_"/><g s:x="5" s:y="20" s:pid="out"/><g transform="translate(0,10)" s:x="0" s:y="10" s:pid="in0"><text x="-3" y="-4" class="inputPortLabel">0:9</text></g><g transform="translate(0,30)" s:x="0" s:y="10" s:pid="in0"><text x="-3" y="-4" class="inputPortLabel">10:31</text></g></g><g s:type="join" transform="translate(527,29)" s:width="4" s:height="40" id="cell_$join$,21,22,23,24,25,26,27,28,29,30,183,184,185,186,187,188,189,190,191,192,193,194,195,196,197,198,199,200,201,202,203,204,"><rect width="5" height="40" class="splitjoinBody" s:generic="body"/><s:alias val="$_join_"/><g s:x="5" s:y="20" s:pid="out"/><g transform="translate(0,10)" s:x="0" s:y="10" s:pid="in0"><text x="-3" y="-4" class="inputPortLabel">0:9</text></g><g transform="translate(0,30)" s:x="0" s:y="10" s:pid="in0"><text x="-3" y="-4" class="inputPortLabel">10:31</text></g></g><line x1="113" x2="194" y1="1172" y2="1172" class="net_11,12,13,14,15,16,17,18,19,20 width_10" style="stroke-width: 2"/><line x1="194" x2="194" y1="1172" y2="906.5" class="net_11,12,13,14,15,16,17,18,19,20 width_10" style="stroke-width: 2"/><line x1="194" x2="549" y1="906.5" y2="906.5" class="net_11,12,13,14,15,16,17,18,19,20 width_10" style="stroke-width: 2"/><line x1="549" x2="549" y1="906.5" y2="922.5" class="net_11,12,13,14,15,16,17,18,19,20 width_10" style="stroke-width: 2"/><line x1="549" x2="576" y1="922.5" y2="922.5" class="net_11,12,13,14,15,16,17,18,19,20 width_10" style="stroke-width: 2"/><line x1="113" x2="123" y1="1172" y2="1172" class="net_11,12,13,14,15,16,17,18,19,20 width_10" style="stroke-width: 2"/><line x1="123" x2="123" y1="1172" y2="392.5" class="net_11,12,13,14,15,16,17,18,19,20 width_10" style="stroke-width: 2"/><line x1="123" x2="214" y1="392.5" y2="392.5" class="net_11,12,13,14,15,16,17,18,19,20 width_10" style="stroke-width: 2"/><line x1="214" x2="214" y1="392.5" y2="397.5" class="net_11,12,13,14,15,16,17,18,19,20 width_10" style="stroke-width: 2"/><circle cx="123" cy="1172" r="3" style="fill:#000" class="net_11,12,13,14,15,16,17,18,19,20 width_10"/><circle cx="123" cy="392.5" r="3" style="fill:#000" class="net_11,12,13,14,15,16,17,18,19,20 width_10"/><line x1="214" x2="228" y1="397.5" y2="397.5" class="net_11,12,13,14,15,16,17,18,19,20 width_10" style="stroke-width: 2"/><line x1="113" x2="123" y1="1172" y2="1172" class="net_11,12,13,14,15,16,17,18,19,20 width_10" style="stroke-width: 2"/><line x1="123" x2="123" y1="1172" y2="327.5" class="net_11,12,13,14,15,16,17,18,19,20 width_10" style="stroke-width: 2"/><line x1="123" x2="214" y1="327.5" y2="327.5" class="net_11,12,13,14,15,16,17,18,19,20 width_10" style="stroke-width: 2"/><line x1="214" x2="214" y1="327.5" y2="332.5" class="net_11,12,13,14,15,16,17,18,19,20 width_10" style="stroke-width: 2"/><line x1="214" x2="228" y1="332.5" y2="332.5" class="net_11,12,13,14,15,16,17,18,19,20 width_10" style="stroke-width: 2"/><line x1="113" x2="483" y1="1172" y2="1172" class="net_11,12,13,14,15,16,17,18,19,20 width_10" style="stroke-width: 2"/><line x1="483" x2="483" y1="1172" y2="1188" class="net_11,12,13,14,15,16,17,18,19,20 width_10" style="stroke-width: 2"/><line x1="483" x2="516" y1="1188" y2="1188" class="net_11,12,13,14,15,16,17,18,19,20 width_10" style="stroke-width: 2"/><line x1="113" x2="194" y1="1172" y2="1172" class="net_11,12,13,14,15,16,17,18,19,20 width_10" style="stroke-width: 2"/><line x1="194" x2="194" y1="1172" y2="906.5" class="net_11,12,13,14,15,16,17,18,19,20 width_10" style="stroke-width: 2"/><line x1="194" x2="265" y1="906.5" y2="906.5" class="net_11,12,13,14,15,16,17,18,19,20 width_10" style="stroke-width: 2"/><line x1="265" x2="265" y1="906.5" y2="873" class="net_11,12,13,14,15,16,17,18,19,20 width_10" style="stroke-width: 2"/><line x1="265" x2="483" y1="873" y2="873" class="net_11,12,13,14,15,16,17,18,19,20 width_10" style="stroke-width: 2"/><line x1="483" x2="483" y1="873" y2="869" class="net_11,12,13,14,15,16,17,18,19,20 width_10" style="stroke-width: 2"/><circle cx="265" cy="873" r="3" style="fill:#000" class="net_11,12,13,14,15,16,17,18,19,20 width_10"/><line x1="483" x2="515" y1="869" y2="869" class="net_11,12,13,14,15,16,17,18,19,20 width_10" style="stroke-width: 2"/><line x1="113" x2="194" y1="1172" y2="1172" class="net_11,12,13,14,15,16,17,18,19,20 width_10" style="stroke-width: 2"/><line x1="194" x2="194" y1="1172" y2="906.5" class="net_11,12,13,14,15,16,17,18,19,20 width_10" style="stroke-width: 2"/><line x1="194" x2="265" y1="906.5" y2="906.5" class="net_11,12,13,14,15,16,17,18,19,20 width_10" style="stroke-width: 2"/><line x1="265" x2="265" y1="906.5" y2="804.5" class="net_11,12,13,14,15,16,17,18,19,20 width_10" style="stroke-width: 2"/><line x1="265" x2="483" y1="804.5" y2="804.5" class="net_11,12,13,14,15,16,17,18,19,20 width_10" style="stroke-width: 2"/><line x1="483" x2="483" y1="804.5" y2="799.5" class="net_11,12,13,14,15,16,17,18,19,20 width_10" style="stroke-width: 2"/><circle cx="194" cy="1172" r="3" style="fill:#000" class="net_11,12,13,14,15,16,17,18,19,20 width_10"/><circle cx="265" cy="906.5" r="3" style="fill:#000" class="net_11,12,13,14,15,16,17,18,19,20 width_10"/><line x1="483" x2="527" y1="799.5" y2="799.5" class="net_11,12,13,14,15,16,17,18,19,20 width_10" style="stroke-width: 2"/><line x1="473" x2="576" y1="937.5" y2="937.5" class="net_92,93,94,95,96,97,98,99,100,101 width_10" style="stroke-width: 2"/><line x1="113" x2="228" y1="412.5" y2="412.5" class="net_102,103,104,105,106,107,108,109 width_8" style="stroke-width: 2"/><line x1="113" x2="228" y1="347.5" y2="347.5" class="net_110,111,112,113,114,115,116,117,118,119 width_10" style="stroke-width: 2"/><line x1="251" x2="265" y1="340" y2="340" class="net_33 width_1" style="stroke-width: 1"/><line x1="265" x2="265" y1="340" y2="390" class="net_33 width_1" style="stroke-width: 1"/><line x1="265" x2="290.3333333333333" y1="390" y2="390" class="net_33 width_1" style="stroke-width: 1"/><line x1="251" x2="290.3333333333333" y1="405" y2="405" class="net_32 width_1" style="stroke-width: 1"/><line x1="184" x2="204" y1="463.5" y2="463.5" class="net_21,22,23,24,25,26,27,28,29,30 width_10" style="stroke-width: 2"/><line x1="204" x2="204" y1="463.5" y2="258.5" class="net_21,22,23,24,25,26,27,28,29,30 width_10" style="stroke-width: 2"/><line x1="204" x2="265" y1="258.5" y2="258.5" class="net_21,22,23,24,25,26,27,28,29,30 width_10" style="stroke-width: 2"/><line x1="265" x2="265" y1="258.5" y2="263.5" class="net_21,22,23,24,25,26,27,28,29,30 width_10" style="stroke-width: 2"/><circle cx="204" cy="463.5" r="3" style="fill:#000" class="net_21,22,23,24,25,26,27,28,29,30 width_10"/><circle cx="204" cy="258.5" r="3" style="fill:#000" class="net_21,22,23,24,25,26,27,28,29,30 width_10"/><line x1="265" x2="294" y1="263.5" y2="263.5" class="net_21,22,23,24,25,26,27,28,29,30 width_10" style="stroke-width: 2"/><line x1="184" x2="204" y1="463.5" y2="463.5" class="net_21,22,23,24,25,26,27,28,29,30 width_10" style="stroke-width: 2"/><line x1="204" x2="204" y1="463.5" y2="148.5" class="net_21,22,23,24,25,26,27,28,29,30 width_10" style="stroke-width: 2"/><line x1="204" x2="331" y1="148.5" y2="148.5" class="net_21,22,23,24,25,26,27,28,29,30 width_10" style="stroke-width: 2"/><line x1="331" x2="331" y1="148.5" y2="194.5" class="net_21,22,23,24,25,26,27,28,29,30 width_10" style="stroke-width: 2"/><circle cx="204" cy="148.5" r="3" style="fill:#000" class="net_21,22,23,24,25,26,27,28,29,30 width_10"/><line x1="331" x2="361.6666666666667" y1="194.5" y2="194.5" class="net_21,22,23,24,25,26,27,28,29,30 width_10" style="stroke-width: 2"/><line x1="184" x2="204" y1="463.5" y2="463.5" class="net_21,22,23,24,25,26,27,28,29,30 width_10" style="stroke-width: 2"/><line x1="204" x2="204" y1="463.5" y2="1152" class="net_21,22,23,24,25,26,27,28,29,30 width_10" style="stroke-width: 2"/><line x1="204" x2="341" y1="1152" y2="1152" class="net_21,22,23,24,25,26,27,28,29,30 width_10" style="stroke-width: 2"/><line x1="341" x2="341" y1="1152" y2="1055.5" class="net_21,22,23,24,25,26,27,28,29,30 width_10" style="stroke-width: 2"/><line x1="341" x2="516" y1="1055.5" y2="1055.5" class="net_21,22,23,24,25,26,27,28,29,30 width_10" style="stroke-width: 2"/><line x1="184" x2="204" y1="463.5" y2="463.5" class="net_21,22,23,24,25,26,27,28,29,30 width_10" style="stroke-width: 2"/><line x1="204" x2="204" y1="463.5" y2="663.5" class="net_21,22,23,24,25,26,27,28,29,30 width_10" style="stroke-width: 2"/><circle cx="204" cy="663.5" r="3" style="fill:#000" class="net_21,22,23,24,25,26,27,28,29,30 width_10"/><line x1="204" x2="361.6666666666667" y1="663.5" y2="663.5" class="net_21,22,23,24,25,26,27,28,29,30 width_10" style="stroke-width: 2"/><line x1="184" x2="204" y1="463.5" y2="463.5" class="net_21,22,23,24,25,26,27,28,29,30 width_10" style="stroke-width: 2"/><line x1="204" x2="204" y1="463.5" y2="617.5" class="net_21,22,23,24,25,26,27,28,29,30 width_10" style="stroke-width: 2"/><line x1="204" x2="609" y1="617.5" y2="617.5" class="net_21,22,23,24,25,26,27,28,29,30 width_10" style="stroke-width: 2"/><line x1="609" x2="609" y1="617.5" y2="664.5" class="net_21,22,23,24,25,26,27,28,29,30 width_10" style="stroke-width: 2"/><circle cx="204" cy="617.5" r="3" style="fill:#000" class="net_21,22,23,24,25,26,27,28,29,30 width_10"/><line x1="609" x2="634" y1="664.5" y2="664.5" class="net_21,22,23,24,25,26,27,28,29,30 width_10" style="stroke-width: 2"/><line x1="184" x2="204" y1="463.5" y2="463.5" class="net_21,22,23,24,25,26,27,28,29,30 width_10" style="stroke-width: 2"/><line x1="204" x2="204" y1="463.5" y2="694.5" class="net_21,22,23,24,25,26,27,28,29,30 width_10" style="stroke-width: 2"/><line x1="204" x2="402" y1="694.5" y2="694.5" class="net_21,22,23,24,25,26,27,28,29,30 width_10" style="stroke-width: 2"/><line x1="402" x2="402" y1="694.5" y2="740.5" class="net_21,22,23,24,25,26,27,28,29,30 width_10" style="stroke-width: 2"/><circle cx="204" cy="694.5" r="3" style="fill:#000" class="net_21,22,23,24,25,26,27,28,29,30 width_10"/><line x1="402" x2="446" y1="740.5" y2="740.5" class="net_21,22,23,24,25,26,27,28,29,30 width_10" style="stroke-width: 2"/><line x1="184" x2="204" y1="463.5" y2="463.5" class="net_21,22,23,24,25,26,27,28,29,30 width_10" style="stroke-width: 2"/><line x1="204" x2="204" y1="463.5" y2="44.5" class="net_21,22,23,24,25,26,27,28,29,30 width_10" style="stroke-width: 2"/><line x1="204" x2="483" y1="44.5" y2="44.5" class="net_21,22,23,24,25,26,27,28,29,30 width_10" style="stroke-width: 2"/><line x1="483" x2="483" y1="44.5" y2="39.5" class="net_21,22,23,24,25,26,27,28,29,30 width_10" style="stroke-width: 2"/><line x1="483" x2="527" y1="39.5" y2="39.5" class="net_21,22,23,24,25,26,27,28,29,30 width_10" style="stroke-width: 2"/><line x1="184" x2="294" y1="278.5" y2="278.5" class="net_120,121,122,123,124,125 width_6" style="stroke-width: 2"/><line x1="317" x2="331" y1="271" y2="271" class="net_35 width_1" style="stroke-width: 1"/><line x1="331" x2="331" y1="271" y2="382.5" class="net_35 width_1" style="stroke-width: 1"/><line x1="331" x2="358" y1="382.5" y2="382.5" class="net_35 width_1" style="stroke-width: 1"/><line x1="320.3333333333333" x2="358" y1="397.5" y2="397.5" class="net_34 width_1" style="stroke-width: 1"/><line x1="255" x2="361.6666666666667" y1="209.5" y2="209.5" class="net_126,127,128,129,130,131,132,133,134,135 width_10" style="stroke-width: 2"/><line x1="384.6666666666667" x2="432" y1="202" y2="202" class="net_37 width_1" style="stroke-width: 1"/><line x1="432" x2="432" y1="202" y2="375" class="net_37 width_1" style="stroke-width: 1"/><line x1="432" x2="442.3333333333333" y1="375" y2="375" class="net_37 width_1" style="stroke-width: 1"/><line x1="388" x2="442.3333333333333" y1="390" y2="390" class="net_36 width_1" style="stroke-width: 1"/><line x1="387" x2="516" y1="1203" y2="1203" class="net_136,137,138,139,140,141,142 width_7" style="stroke-width: 2"/><line x1="539" x2="549" y1="1005.5" y2="1005.5" class="net_143 width_1" style="stroke-width: 1"/><line x1="549" x2="549" y1="1005.5" y2="1083" class="net_143 width_1" style="stroke-width: 1"/><circle cx="549" cy="1005.5" r="2" style="fill:#000" class="net_143 width_1"/><line x1="549" x2="575.6666666666666" y1="1083" y2="1083" class="net_143 width_1" style="stroke-width: 1"/><line x1="539" x2="575.6666666666666" y1="1005.5" y2="1005.5" class="net_143 width_1" style="stroke-width: 1"/><line x1="321" x2="575.6666666666666" y1="1103" y2="1103" class="net_144 width_1" style="stroke-width: 1"/><line x1="321" x2="483" y1="1103" y2="1103" class="net_144 width_1" style="stroke-width: 1"/><line x1="483" x2="483" y1="1103" y2="1070.5" class="net_144 width_1" style="stroke-width: 1"/><circle cx="483" cy="1103" r="2" style="fill:#000" class="net_144 width_1"/><line x1="483" x2="516" y1="1070.5" y2="1070.5" class="net_144 width_1" style="stroke-width: 1"/><line x1="321" x2="331" y1="1103" y2="1103" class="net_144 width_1" style="stroke-width: 1"/><line x1="331" x2="331" y1="1103" y2="974.5" class="net_144 width_1" style="stroke-width: 1"/><line x1="331" x2="559" y1="974.5" y2="974.5" class="net_144 width_1" style="stroke-width: 1"/><line x1="559" x2="559" y1="974.5" y2="1025.5" class="net_144 width_1" style="stroke-width: 1"/><circle cx="331" cy="1103" r="2" style="fill:#000" class="net_144 width_1"/><circle cx="331" cy="974.5" r="2" style="fill:#000" class="net_144 width_1"/><line x1="559" x2="575.6666666666666" y1="1025.5" y2="1025.5" class="net_144 width_1" style="stroke-width: 1"/><line x1="321" x2="331" y1="1103" y2="1103" class="net_144 width_1" style="stroke-width: 1"/><line x1="331" x2="331" y1="1103" y2="884" class="net_144 width_1" style="stroke-width: 1"/><circle cx="331" cy="884" r="2" style="fill:#000" class="net_144 width_1"/><line x1="331" x2="515" y1="884" y2="884" class="net_144 width_1" style="stroke-width: 1"/><line x1="321" x2="331" y1="1103" y2="1103" class="net_144 width_1" style="stroke-width: 1"/><line x1="331" x2="331" y1="1103" y2="678.5" class="net_144 width_1" style="stroke-width: 1"/><line x1="331" x2="361.6666666666667" y1="678.5" y2="678.5" class="net_144 width_1" style="stroke-width: 1"/><line x1="539" x2="585.6666666666666" y1="1195.5" y2="1195.5" class="net_39 width_1" style="stroke-width: 1"/><line x1="585.6666666666666" x2="585.6666666666666" y1="1195.5" y2="1108" class="net_39 width_1" style="stroke-width: 1"/><line x1="539" x2="585.6666666666666" y1="1063" y2="1063" class="net_40 width_1" style="stroke-width: 1"/><line x1="585.6666666666666" x2="585.6666666666666" y1="1063" y2="1030.5" class="net_40 width_1" style="stroke-width: 1"/><line x1="387" x2="483" y1="79.5" y2="79.5" class="net_148,149,150 width_3" style="stroke-width: 2"/><line x1="483" x2="483" y1="79.5" y2="124.5" class="net_148,149,150 width_3" style="stroke-width: 2"/><line x1="483" x2="513.5" y1="124.5" y2="124.5" class="net_148,149,150 width_3" style="stroke-width: 2"/><line x1="386" x2="513.5" y1="144.5" y2="144.5" class="net_3,4,5 width_3" style="stroke-width: 2"/><line x1="472.3333333333333" x2="526.5" y1="382.5" y2="382.5" class="net_38 width_1" style="stroke-width: 1"/><line x1="526.5" x2="526.5" y1="382.5" y2="152.5" class="net_38 width_1" style="stroke-width: 1"/><line x1="539" x2="634" y1="876.5" y2="876.5" class="net_41,42,43,44,45,46,47,48,49,50 width_10" style="stroke-width: 2"/><line x1="387" x2="412" y1="852" y2="852" class="net_152,153,154,155,156,157,158,159,160,161 width_10" style="stroke-width: 2"/><line x1="412" x2="412" y1="852" y2="958.5" class="net_152,153,154,155,156,157,158,159,160,161 width_10" style="stroke-width: 2"/><line x1="412" x2="619" y1="958.5" y2="958.5" class="net_152,153,154,155,156,157,158,159,160,161 width_10" style="stroke-width: 2"/><line x1="619" x2="619" y1="958.5" y2="896.5" class="net_152,153,154,155,156,157,158,159,160,161 width_10" style="stroke-width: 2"/><circle cx="412" cy="852" r="3" style="fill:#000" class="net_152,153,154,155,156,157,158,159,160,161 width_10"/><line x1="619" x2="634" y1="896.5" y2="896.5" class="net_152,153,154,155,156,157,158,159,160,161 width_10" style="stroke-width: 2"/><line x1="387" x2="412" y1="852" y2="852" class="net_152,153,154,155,156,157,158,159,160,161 width_10" style="stroke-width: 2"/><line x1="412" x2="412" y1="852" y2="694.5" class="net_152,153,154,155,156,157,158,159,160,161 width_10" style="stroke-width: 2"/><line x1="412" x2="513.5" y1="694.5" y2="694.5" class="net_152,153,154,155,156,157,158,159,160,161 width_10" style="stroke-width: 2"/><line x1="599" x2="647" y1="930" y2="930" class="net_31 width_1" style="stroke-width: 1"/><line x1="647" x2="647" y1="930" y2="904.5" class="net_31 width_1" style="stroke-width: 1"/><line x1="599" x2="609" y1="930" y2="930" class="net_31 width_1" style="stroke-width: 1"/><line x1="609" x2="609" y1="930" y2="779.5" class="net_31 width_1" style="stroke-width: 1"/><line x1="609" x2="647" y1="779.5" y2="779.5" class="net_31 width_1" style="stroke-width: 1"/><circle cx="609" cy="930" r="2" style="fill:#000" class="net_31 width_1"/><line x1="647" x2="647" y1="779.5" y2="692.5" class="net_31 width_1" style="stroke-width: 1"/><line x1="385.6666666666667" x2="483" y1="671" y2="671" class="net_61,62,63,64,65,66,67,68,69,70 width_10" style="stroke-width: 2"/><line x1="483" x2="483" y1="671" y2="674.5" class="net_61,62,63,64,65,66,67,68,69,70 width_10" style="stroke-width: 2"/><line x1="483" x2="513.5" y1="674.5" y2="674.5" class="net_61,62,63,64,65,66,67,68,69,70 width_10" style="stroke-width: 2"/><line x1="469" x2="526.5" y1="748" y2="748" class="net_71 width_1" style="stroke-width: 1"/><line x1="526.5" x2="526.5" y1="748" y2="702.5" class="net_71 width_1" style="stroke-width: 1"/><line x1="42" x2="77" y1="1192" y2="1192" class="net_2 width_1" style="stroke-width: 1"/><line x1="42" x2="62" y1="1192" y2="1192" class="net_2 width_1" style="stroke-width: 1"/><line x1="62" x2="62" y1="1192" y2="483.5" class="net_2 width_1" style="stroke-width: 1"/><circle cx="62" cy="1192" r="2" style="fill:#000" class="net_2 width_1"/><line x1="62" x2="148" y1="483.5" y2="483.5" class="net_2 width_1" style="stroke-width: 1"/><line x1="659.5" x2="696" y1="886.5" y2="886.5" class="net_51,52,53,54,55,56,57,58,59,60 width_10" style="stroke-width: 2"/><line x1="696" x2="696" y1="886.5" y2="16" class="net_51,52,53,54,55,56,57,58,59,60 width_10" style="stroke-width: 2"/><line x1="696" x2="52" y1="16" y2="16" class="net_51,52,53,54,55,56,57,58,59,60 width_10" style="stroke-width: 2"/><line x1="52" x2="52" y1="16" y2="1172" class="net_51,52,53,54,55,56,57,58,59,60 width_10" style="stroke-width: 2"/><line x1="52" x2="77" y1="1172" y2="1172" class="net_51,52,53,54,55,56,57,58,59,60 width_10" style="stroke-width: 2"/><line x1="539" x2="634" y1="684.5" y2="684.5" class="net_72,73,74,75,76,77,78,79,80,81 width_10" style="stroke-width: 2"/><line x1="659.5" x2="686" y1="674.5" y2="674.5" class="net_82,83,84,85,86,87,88,89,90,91 width_10" style="stroke-width: 2"/><line x1="686" x2="686" y1="674.5" y2="507.5" class="net_82,83,84,85,86,87,88,89,90,91 width_10" style="stroke-width: 2"/><line x1="686" x2="133" y1="507.5" y2="507.5" class="net_82,83,84,85,86,87,88,89,90,91 width_10" style="stroke-width: 2"/><line x1="133" x2="133" y1="507.5" y2="463.5" class="net_82,83,84,85,86,87,88,89,90,91 width_10" style="stroke-width: 2"/><line x1="133" x2="148" y1="463.5" y2="463.5" class="net_82,83,84,85,86,87,88,89,90,91 width_10" style="stroke-width: 2"/><line x1="321" x2="446" y1="755.5" y2="755.5" class="net_173,174,175,176,177,178,179,180,181,182 width_10" style="stroke-width: 2"/><line x1="539" x2="634" y1="134.5" y2="134.5" class="net_6,7,8 width_3" style="stroke-width: 2"/><line x1="595.6666666666666" x2="635" y1="1093" y2="1093" class="net_9 width_1" style="stroke-width: 1"/><line x1="595.6666666666666" x2="635" y1="1015.5" y2="1015.5" class="net_10 width_1" style="stroke-width: 1"/><line x1="533" x2="635" y1="809.5" y2="809.5" class="net_11,12,13,14,15,16,17,18,19,20,183,184,185,186,187,188,189,190,191,192,193,194,195,196,197,198,199,200,201,202,203,204 width_32" style="stroke-width: 2"/><line x1="533" x2="635" y1="49.5" y2="49.5" class="net_21,22,23,24,25,26,27,28,29,30,183,184,185,186,187,188,189,190,191,192,193,194,195,196,197,198,199,200,201,202,203,204 width_32" style="stroke-width: 2"/><line x1="387" x2="422" y1="568.5" y2="568.5" class="net_183,184,185,186,187,188,189,190,191,192,193,194,195,196,197,198,199,200,201,202,203,204 width_22" style="stroke-width: 2"/><line x1="422" x2="422" y1="568.5" y2="819.5" class="net_183,184,185,186,187,188,189,190,191,192,193,194,195,196,197,198,199,200,201,202,203,204 width_22" style="stroke-width: 2"/><circle cx="422" cy="568.5" r="3" style="fill:#000" class="net_183,184,185,186,187,188,189,190,191,192,193,194,195,196,197,198,199,200,201,202,203,204 width_22"/><line x1="422" x2="527" y1="819.5" y2="819.5" class="net_183,184,185,186,187,188,189,190,191,192,193,194,195,196,197,198,199,200,201,202,203,204 width_22" style="stroke-width: 2"/><line x1="387" x2="422" y1="568.5" y2="568.5" class="net_183,184,185,186,187,188,189,190,191,192,193,194,195,196,197,198,199,200,201,202,203,204 width_22" style="stroke-width: 2"/><line x1="422" x2="422" y1="568.5" y2="59.5" class="net_183,184,185,186,187,188,189,190,191,192,193,194,195,196,197,198,199,200,201,202,203,204 width_22" style="stroke-width: 2"/><line x1="422" x2="527" y1="59.5" y2="59.5" class="net_183,184,185,186,187,188,189,190,191,192,193,194,195,196,197,198,199,200,201,202,203,204 width_22" style="stroke-width: 2"/><rect x="304.5" y="799.5" width="22" height="9" class="net_11,12,13,14,15,16,17,18,19,20 width_10 busLabel_10" style="fill: white; stroke: none"/><text x="303.5" y="807.5" class="net_11,12,13,14,15,16,17,18,19,20 width_10 busLabel_10">/10/</text><rect x="304.5" y="799.5" width="22" height="9" class="net_11,12,13,14,15,16,17,18,19,20 width_10 busLabel_10" style="fill: white; stroke: none"/><text x="303.5" y="807.5" class="net_11,12,13,14,15,16,17,18,19,20 width_10 busLabel_10">/10/</text><rect x="304.5" y="799.5" width="22" height="9" class="net_11,12,13,14,15,16,17,18,19,20 width_10 busLabel_10" style="fill: white; stroke: none"/><text x="303.5" y="807.5" class="net_11,12,13,14,15,16,17,18,19,20 width_10 busLabel_10">/10/</text><rect x="304.5" y="799.5" width="22" height="9" class="net_11,12,13,14,15,16,17,18,19,20 width_10 busLabel_10" style="fill: white; stroke: none"/><text x="303.5" y="807.5" class="net_11,12,13,14,15,16,17,18,19,20 width_10 busLabel_10">/10/</text><rect x="304.5" y="799.5" width="22" height="9" class="net_11,12,13,14,15,16,17,18,19,20 width_10 busLabel_10" style="fill: white; stroke: none"/><text x="303.5" y="807.5" class="net_11,12,13,14,15,16,17,18,19,20 width_10 busLabel_10">/10/</text><rect x="304.5" y="799.5" width="22" height="9" class="net_11,12,13,14,15,16,17,18,19,20 width_10 busLabel_10" style="fill: white; stroke: none"/><text x="303.5" y="807.5" class="net_11,12,13,14,15,16,17,18,19,20 width_10 busLabel_10">/10/</text><rect x="522.5" y="932.5" width="22" height="9" class="net_92,93,94,95,96,97,98,99,100,101 width_10 busLabel_10" style="fill: white; stroke: none"/><text x="521.5" y="940.5" class="net_92,93,94,95,96,97,98,99,100,101 width_10 busLabel_10">/10/</text><rect x="165" y="407.5" width="16" height="9" class="net_102,103,104,105,106,107,108,109 width_8 busLabel_8" style="fill: white; stroke: none"/><text x="164" y="415.5" class="net_102,103,104,105,106,107,108,109 width_8 busLabel_8">/8/</text><rect x="165" y="342.5" width="22" height="9" class="net_110,111,112,113,114,115,116,117,118,119 width_10 busLabel_10" style="fill: white; stroke: none"/><text x="164" y="350.5" class="net_110,111,112,113,114,115,116,117,118,119 width_10 busLabel_10">/10/</text><rect x="304.5" y="39.5" width="22" height="9" class="net_21,22,23,24,25,26,27,28,29,30 width_10 busLabel_10" style="fill: white; stroke: none"/><text x="303.5" y="47.5" class="net_21,22,23,24,25,26,27,28,29,30 width_10 busLabel_10">/10/</text><rect x="304.5" y="39.5" width="22" height="9" class="net_21,22,23,24,25,26,27,28,29,30 width_10 busLabel_10" style="fill: white; stroke: none"/><text x="303.5" y="47.5" class="net_21,22,23,24,25,26,27,28,29,30 width_10 busLabel_10">/10/</text><rect x="304.5" y="39.5" width="22" height="9" class="net_21,22,23,24,25,26,27,28,29,30 width_10 busLabel_10" style="fill: white; stroke: none"/><text x="303.5" y="47.5" class="net_21,22,23,24,25,26,27,28,29,30 width_10 busLabel_10">/10/</text><rect x="304.5" y="39.5" width="22" height="9" class="net_21,22,23,24,25,26,27,28,29,30 width_10 busLabel_10" style="fill: white; stroke: none"/><text x="303.5" y="47.5" class="net_21,22,23,24,25,26,27,28,29,30 width_10 busLabel_10">/10/</text><rect x="304.5" y="39.5" width="22" height="9" class="net_21,22,23,24,25,26,27,28,29,30 width_10 busLabel_10" style="fill: white; stroke: none"/><text x="303.5" y="47.5" class="net_21,22,23,24,25,26,27,28,29,30 width_10 busLabel_10">/10/</text><rect x="304.5" y="39.5" width="22" height="9" class="net_21,22,23,24,25,26,27,28,29,30 width_10 busLabel_10" style="fill: white; stroke: none"/><text x="303.5" y="47.5" class="net_21,22,23,24,25,26,27,28,29,30 width_10 busLabel_10">/10/</text><rect x="304.5" y="39.5" width="22" height="9" class="net_21,22,23,24,25,26,27,28,29,30 width_10 busLabel_10" style="fill: white; stroke: none"/><text x="303.5" y="47.5" class="net_21,22,23,24,25,26,27,28,29,30 width_10 busLabel_10">/10/</text><rect x="238.5" y="273.5" width="16" height="9" class="net_120,121,122,123,124,125 width_6 busLabel_6" style="fill: white; stroke: none"/><text x="237.5" y="281.5" class="net_120,121,122,123,124,125 width_6 busLabel_6">/6/</text><rect x="304.5" y="204.5" width="22" height="9" class="net_126,127,128,129,130,131,132,133,134,135 width_10 busLabel_10" style="fill: white; stroke: none"/><text x="303.5" y="212.5" class="net_126,127,128,129,130,131,132,133,134,135 width_10 busLabel_10">/10/</text><rect x="456.5" y="1198" width="16" height="9" class="net_136,137,138,139,140,141,142 width_7 busLabel_7" style="fill: white; stroke: none"/><text x="455.5" y="1206" class="net_136,137,138,139,140,141,142 width_7 busLabel_7">/7/</text><rect x="456.5" y="74.5" width="16" height="9" class="net_148,149,150 width_3 busLabel_3" style="fill: white; stroke: none"/><text x="455.5" y="82.5" class="net_148,149,150 width_3 busLabel_3">/3/</text><rect x="456.5" y="139.5" width="16" height="9" class="net_3,4,5 width_3 busLabel_3" style="fill: white; stroke: none"/><text x="455.5" y="147.5" class="net_3,4,5 width_3 busLabel_3">/3/</text><rect x="585.5" y="871.5" width="22" height="9" class="net_41,42,43,44,45,46,47,48,49,50 width_10 busLabel_10" style="fill: white; stroke: none"/><text x="584.5" y="879.5" class="net_41,42,43,44,45,46,47,48,49,50 width_10 busLabel_10">/10/</text><rect x="456.5" y="689.5" width="22" height="9" class="net_152,153,154,155,156,157,158,159,160,161 width_10 busLabel_10" style="fill: white; stroke: none"/><text x="455.5" y="697.5" class="net_152,153,154,155,156,157,158,159,160,161 width_10 busLabel_10">/10/</text><rect x="456.5" y="689.5" width="22" height="9" class="net_152,153,154,155,156,157,158,159,160,161 width_10 busLabel_10" style="fill: white; stroke: none"/><text x="455.5" y="697.5" class="net_152,153,154,155,156,157,158,159,160,161 width_10 busLabel_10">/10/</text><rect x="456.5" y="666" width="22" height="9" class="net_61,62,63,64,65,66,67,68,69,70 width_10 busLabel_10" style="fill: white; stroke: none"/><text x="455.5" y="674" class="net_61,62,63,64,65,66,67,68,69,70 width_10 busLabel_10">/10/</text><rect x="373" y="11" width="22" height="9" class="net_51,52,53,54,55,56,57,58,59,60 width_10 busLabel_10" style="fill: white; stroke: none"/><text x="372" y="19" class="net_51,52,53,54,55,56,57,58,59,60 width_10 busLabel_10">/10/</text><rect x="585.5" y="679.5" width="22" height="9" class="net_72,73,74,75,76,77,78,79,80,81 width_10 busLabel_10" style="fill: white; stroke: none"/><text x="584.5" y="687.5" class="net_72,73,74,75,76,77,78,79,80,81 width_10 busLabel_10">/10/</text><rect x="373" y="502.5" width="22" height="9" class="net_82,83,84,85,86,87,88,89,90,91 width_10 busLabel_10" style="fill: white; stroke: none"/><text x="372" y="510.5" class="net_82,83,84,85,86,87,88,89,90,91 width_10 busLabel_10">/10/</text><rect x="373" y="750.5" width="22" height="9" class="net_173,174,175,176,177,178,179,180,181,182 width_10 busLabel_10" style="fill: white; stroke: none"/><text x="372" y="758.5" class="net_173,174,175,176,177,178,179,180,181,182 width_10 busLabel_10">/10/</text><rect x="585.5" y="129.5" width="16" height="9" class="net_6,7,8 width_3 busLabel_3" style="fill: white; stroke: none"/><text x="584.5" y="137.5" class="net_6,7,8 width_3 busLabel_3">/3/</text><rect x="585.5" y="804.5" width="22" height="9" class="net_11,12,13,14,15,16,17,18,19,20,183,184,185,186,187,188,189,190,191,192,193,194,195,196,197,198,199,200,201,202,203,204 width_32 busLabel_32" style="fill: white; stroke: none"/><text x="584.5" y="812.5" class="net_11,12,13,14,15,16,17,18,19,20,183,184,185,186,187,188,189,190,191,192,193,194,195,196,197,198,199,200,201,202,203,204 width_32 busLabel_32">/32/</text><rect x="585.5" y="44.5" width="22" height="9" class="net_21,22,23,24,25,26,27,28,29,30,183,184,185,186,187,188,189,190,191,192,193,194,195,196,197,198,199,200,201,202,203,204 width_32 busLabel_32" style="fill: white; stroke: none"/><text x="584.5" y="52.5" class="net_21,22,23,24,25,26,27,28,29,30,183,184,185,186,187,188,189,190,191,192,193,194,195,196,197,198,199,200,201,202,203,204 width_32 busLabel_32">/32/</text><rect x="456.5" y="54.5" width="22" height="9" class="net_183,184,185,186,187,188,189,190,191,192,193,194,195,196,197,198,199,200,201,202,203,204 width_22 busLabel_22" style="fill: white; stroke: none"/><text x="455.5" y="62.5" class="net_183,184,185,186,187,188,189,190,191,192,193,194,195,196,197,198,199,200,201,202,203,204 width_22 busLabel_22">/22/</text><rect x="456.5" y="54.5" width="22" height="9" class="net_183,184,185,186,187,188,189,190,191,192,193,194,195,196,197,198,199,200,201,202,203,204 width_22 busLabel_22" style="fill: white; stroke: none"/><text x="455.5" y="62.5" class="net_183,184,185,186,187,188,189,190,191,192,193,194,195,196,197,198,199,200,201,202,203,204 width_22 busLabel_22">/22/</text></svg>