<svg xmlns="http://www.w3.org/2000/svg" xmlns:xlink="http://www.w3.org/1999/xlink" xmlns:s="https://github.com/nturley/netlistsvg" width="317" height="159"><style>svg {
  stroke:#000;
  fill:none;
}
text {
  fill:#000;
  stroke:none;
  font-size:10px;
  font-weight: bold;
  font-family: "Courier New", monospace;
}
line {
    stroke-linecap: round;
}
.nodelabel {
  text-anchor: middle;
}
.inputPortLabel {
  text-anchor: end;
}
.splitjoinBody {
  fill:#000;
}</style><g s:type="add" transform="translate(253,31)" s:width="25" s:height="25" id="cell_$add$pwm_led.v:17$2"><s:alias val="$add"/><circle r="12.5" cx="12.5" cy="12.5" fill="#ffffff" class="cell_$add$pwm_led.v:17$2"/><line x1="7.5" x2="17.5" y1="12.5" y2="12.5" fill="#ffffff" class="cell_$add$pwm_led.v:17$2"/><line x1="12.5" x2="12.5" y1="7.5" y2="17.5" fill="#ffffff" class="cell_$add$pwm_led.v:17$2"/><g s:x="2" s:y="5" s:pid="A"/><g s:x="2" s:y="20" s:pid="B"/><g s:x="26" s:y="12.5" s:pid="Y"/></g><g s:type="lt" transform="translate(189,112)" s:width="25" s:height="25" id="cell_$lt$pwm_led.v:20$3"><s:alias val="$lt"/><circle r="12.5" cx="12.5" cy="12.5" fill="#ffffff" class="cell_$lt$pwm_led.v:20$3"/><line x1="6" x2="17" y1="12" y2="7" fill="#ffffff" class="cell_$lt$pwm_led.v:20$3"/><line x1="6" x2="17" y1="12" y2="17" fill="#ffffff" class="cell_$lt$pwm_led.v:20$3"/><g s:x="2" s:y="5" s:pid="A"/><g s:x="2" s:y="20" s:pid="B"/><g s:x="25" s:y="12.5" s:pid="Y"/></g><g s:type="dff-bus" transform="translate(78,26)" s:width="34" s:height="44" id="cell_$procdff$5"><s:alias val="$dff-bus"/><s:alias val="$_DFF_-bus"/><s:alias val="$_DFF_P_-bus"/><s:alias val="adff-bus"/><s:alias val="$adff-bus"/><s:alias val="$_DFF_-bus"/><s:alias val="$_DFF_P_-bus"/><s:alias val="sdff-bus"/><s:alias val="$sdff-bus"/><s:alias val="$_DFF_-bus"/><s:alias val="$_DFF_P_-bus"/><rect width="30" height="40" x="0" y="0" fill="#ffffff" class="cell_$procdff$5"/><path d="M0,35 L5,30 L0,25" fill="#ffffff" class="cell_$procdff$5"/><path d="M30,2 L32,2 L32,42 L2,42 L2,40" fill="#ffffff" class="cell_$procdff$5"/><path d="M32,4 L34,4 L34,44 L4,44 L4,42" fill="#ffffff" class="cell_$procdff$5"/><g s:x="35" s:y="10" s:pid="Q"/><g s:x="-1" s:y="30" s:pid="CLK"/><g s:x="-1" s:y="30" s:pid="C"/><g s:x="-1" s:y="10" s:pid="D"/><g s:x="17" s:y="44" s:pid="ARST"/><g s:x="17" s:y="44" s:pid="SRST"/></g><g s:type="inputExt" transform="translate(12,46)" s:width="30" s:height="20" id="cell_clk"><text x="15" y="-4" class="nodelabel cell_clk" s:attribute="ref">clk</text><s:alias val="$_inputExt_"/><path d="M0,0 L0,20 L15,20 L30,10 L15,0 Z" fill="#ffffff" class="cell_clk"/><g s:x="30" s:y="10" s:pid="Y"/></g><g s:type="inputExt" transform="translate(82,127)" s:width="30" s:height="20" id="cell_duty"><text x="15" y="-4" class="nodelabel cell_duty" s:attribute="ref">duty</text><s:alias val="$_inputExt_"/><path d="M0,0 L0,20 L15,20 L30,10 L15,0 Z" fill="#ffffff" class="cell_duty"/><g s:x="30" s:y="10" s:pid="Y"/></g><g s:type="outputExt" transform="translate(253,114.5)" s:width="30" s:height="20" id="cell_pwm_out"><text x="15" y="-4" class="nodelabel cell_pwm_out" s:attribute="ref">pwm_out</text><s:alias val="$_outputExt_"/><path d="M30,0 L30,20 L15,20 L0,10 L15,0 Z" fill="#ffffff" class="cell_pwm_out"/><g s:x="0" s:y="10" s:pid="A"/></g><g s:type="constant" transform="translate(187,57)" s:width="30" s:height="20" id="cell_1"><text x="15" y="-4" class="nodelabel cell_1" s:attribute="ref">1</text><s:alias val="$_constant_"/><rect width="30" height="20" fill="#ffffff" class="cell_1"/><g s:x="31" s:y="10" s:pid="Y"/></g><line x1="113" x2="255" y1="36" y2="36" class="net_12,13,14,15,16,17,18,19 width_8" style="stroke-width: 2"/><line x1="113" x2="123" y1="36" y2="36" class="net_12,13,14,15,16,17,18,19 width_8" style="stroke-width: 2"/><line x1="123" x2="123" y1="36" y2="117" class="net_12,13,14,15,16,17,18,19 width_8" style="stroke-width: 2"/><circle cx="123" cy="36" r="3" style="fill:#000" class="net_12,13,14,15,16,17,18,19 width_8"/><line x1="123" x2="191" y1="117" y2="117" class="net_12,13,14,15,16,17,18,19 width_8" style="stroke-width: 2"/><line x1="218" x2="228" y1="67" y2="67" class="net_28 width_1" style="stroke-width: 1"/><line x1="228" x2="228" y1="67" y2="51" class="net_28 width_1" style="stroke-width: 1"/><line x1="228" x2="255" y1="51" y2="51" class="net_28 width_1" style="stroke-width: 1"/><line x1="112" x2="162" y1="137" y2="137" class="net_3,4,5,6,7,8,9,10 width_8" style="stroke-width: 2"/><line x1="162" x2="162" y1="137" y2="132" class="net_3,4,5,6,7,8,9,10 width_8" style="stroke-width: 2"/><line x1="162" x2="191" y1="132" y2="132" class="net_3,4,5,6,7,8,9,10 width_8" style="stroke-width: 2"/><line x1="42" x2="77" y1="56" y2="56" class="net_2 width_1" style="stroke-width: 1"/><line x1="279" x2="305" y1="43.5" y2="43.5" class="net_20,21,22,23,24,25,26,27 width_8" style="stroke-width: 2"/><line x1="305" x2="305" y1="43.5" y2="16" class="net_20,21,22,23,24,25,26,27 width_8" style="stroke-width: 2"/><line x1="305" x2="52" y1="16" y2="16" class="net_20,21,22,23,24,25,26,27 width_8" style="stroke-width: 2"/><line x1="52" x2="52" y1="16" y2="36" class="net_20,21,22,23,24,25,26,27 width_8" style="stroke-width: 2"/><line x1="52" x2="77" y1="36" y2="36" class="net_20,21,22,23,24,25,26,27 width_8" style="stroke-width: 2"/><line x1="214" x2="253" y1="124.5" y2="124.5" class="net_11 width_1" style="stroke-width: 1"/><rect x="149" y="112" width="16" height="9" class="net_12,13,14,15,16,17,18,19 width_8 busLabel_8" style="fill: white; stroke: none"/><text x="148" y="120" class="net_12,13,14,15,16,17,18,19 width_8 busLabel_8">/8/</text><rect x="149" y="112" width="16" height="9" class="net_12,13,14,15,16,17,18,19 width_8 busLabel_8" style="fill: white; stroke: none"/><text x="148" y="120" class="net_12,13,14,15,16,17,18,19 width_8 busLabel_8">/8/</text><rect x="149" y="132" width="16" height="9" class="net_3,4,5,6,7,8,9,10 width_8 busLabel_8" style="fill: white; stroke: none"/><text x="148" y="140" class="net_3,4,5,6,7,8,9,10 width_8 busLabel_8">/8/</text><rect x="149" y="11" width="16" height="9" class="net_20,21,22,23,24,25,26,27 width_8 busLabel_8" style="fill: white; stroke: none"/><text x="148" y="19" class="net_20,21,22,23,24,25,26,27 width_8 busLabel_8">/8/</text></svg>