<svg xmlns="http://www.w3.org/2000/svg" xmlns:xlink="http://www.w3.org/1999/xlink" xmlns:s="https://github.com/nturley/netlistsvg" width="719" height="216.5"><style>svg {
  stroke:#000;
  fill:none;
}
text {
  fill:#000;
  stroke:none;
  font-size:10px;
  font-weight: bold;
  font-family: "Courier New", monospace;
}
.nodelabel {
  text-anchor: middle;
}
.inputPortLabel {
  text-anchor: end;
}
.splitjoinBody {
  fill:#000;
}</style><g s:type="generic" transform="translate(442,37)" s:width="30" s:height="40" id="cell_$procdff$6"><text x="15" y="-4" class="nodelabel cell_$procdff$6" s:attribute="ref">$dff-bus</text><rect width="30" height="40" s:generic="body" class="cell_$procdff$6"/><g transform="translate(0,10)" s:x="0" s:y="10" s:pid="in0" id="port_$procdff$6~CLK"><text x="-3" y="-4" class="inputPortLabel cell_$procdff$6">CLK</text></g><g transform="translate(0,30)" s:x="0" s:y="10" s:pid="in0" id="port_$procdff$6~D"><text x="-3" y="-4" class="inputPortLabel cell_$procdff$6">D</text></g><g transform="translate(30,10)" s:x="30" s:y="10" s:pid="out0" id="port_$procdff$6~Q"><text x="5" y="-4" style="fill:#000; stroke:none" class="cell_$procdff$6">Q</text></g></g><g s:type="generic" transform="translate(263,86)" s:width="30" s:height="40" id="cell_$procmux$4"><text x="15" y="-4" class="nodelabel cell_$procmux$4" s:attribute="ref">$mux-bus</text><rect width="30" height="60" s:generic="body" class="cell_$procmux$4"/><g transform="translate(0,10)" s:x="0" s:y="10" s:pid="in0" id="port_$procmux$4~A"><text x="-3" y="-4" class="inputPortLabel cell_$procmux$4">A</text></g><g transform="translate(0,30)" s:x="0" s:y="10" s:pid="in0" id="port_$procmux$4~B"><text x="-3" y="-4" class="inputPortLabel cell_$procmux$4">B</text></g><g transform="translate(0,50)" s:x="0" s:y="10" s:pid="in0" id="port_$procmux$4~S"><text x="-3" y="-4" class="inputPortLabel cell_$procmux$4">S</text></g><g transform="translate(30,10)" s:x="30" s:y="10" s:pid="out0" id="port_$procmux$4~Y"><text x="5" y="-4" style="fill:#000; stroke:none" class="cell_$procmux$4">Y</text></g></g><g s:type="inputExt" transform="translate(358,37.5)" s:width="30" s:height="20" id="cell_clk"><text x="15" y="-4" class="nodelabel cell_clk" s:attribute="ref">clk</text><s:alias val="$_inputExt_"/><path d="M0,0 L0,20 L15,20 L30,10 L15,0 Z" class="cell_clk"/><g s:x="28" s:y="10" s:pid="Y"/></g><g s:type="inputExt" transform="translate(190,167.5)" s:width="30" s:height="20" id="cell_load"><text x="15" y="-4" class="nodelabel cell_load" s:attribute="ref">load</text><s:alias val="$_inputExt_"/><path d="M0,0 L0,20 L15,20 L30,10 L15,0 Z" class="cell_load"/><g s:x="28" s:y="10" s:pid="Y"/></g><g s:type="inputExt" transform="translate(101,106.5)" s:width="30" s:height="20" id="cell_load_data"><text x="15" y="-4" class="nodelabel cell_load_data" s:attribute="ref">load_data</text><s:alias val="$_inputExt_"/><path d="M0,0 L0,20 L15,20 L30,10 L15,0 Z" class="cell_load_data"/><g s:x="28" s:y="10" s:pid="Y"/></g><g s:type="inputExt" transform="translate(12,22)" s:width="30" s:height="20" id="cell_serial_in"><text x="15" y="-4" class="nodelabel cell_serial_in" s:attribute="ref">serial_in</text><s:alias val="$_inputExt_"/><path d="M0,0 L0,20 L15,20 L30,10 L15,0 Z" class="cell_serial_in"/><g s:x="28" s:y="10" s:pid="Y"/></g><g s:type="outputExt" transform="translate(635,37.5)" s:width="30" s:height="20" id="cell_parallel_out"><text x="15" y="-4" class="nodelabel cell_parallel_out" s:attribute="ref">parallel_out</text><s:alias val="$_outputExt_"/><path d="M30,0 L30,20 L15,20 L0,10 L15,0 Z" class="cell_parallel_out"/><g s:x="0" s:y="10" s:pid="A"/></g><g s:type="outputExt" transform="translate(635,102.5)" s:width="30" s:height="20" id="cell_serial_out"><text x="15" y="-4" class="nodelabel cell_serial_out" s:attribute="ref">serial_out</text><s:alias val="$_outputExt_"/><path d="M30,0 L30,20 L15,20 L0,10 L15,0 Z" class="cell_serial_out"/><g s:x="0" s:y="10" s:pid="A"/></g><g s:type="join" transform="translate(126.33333333333333,21.5)" s:width="4" s:height="40" id="cell_$join$,12,13,14,15,16,17,18,19,"><rect width="5" height="40" class="splitjoinBody" s:generic="body"/><s:alias val="$_join_"/><g s:x="5" s:y="20" s:pid="out"/><g transform="translate(0,10)" s:x="0" s:y="10" s:pid="in0"><text x="-3" y="-4" class="inputPortLabel">0</text></g><g transform="translate(0,30)" s:x="0" s:y="10" s:pid="in0"><text x="-3" y="-4" class="inputPortLabel">1:7</text></g></g><g s:type="split" transform="translate(576,82)" s:width="5" s:height="40" id="cell_$split$,13,14,15,16,17,18,19,20,"><rect width="5" height="40" class="splitjoinBody" s:generic="body"/><s:alias val="$_split_"/><g s:x="0" s:y="20" s:pid="in"/><g transform="translate(4,10)" s:x="4" s:y="10" s:pid="out0"><text x="5" y="-4">0:6</text></g><g transform="translate(4,30)" s:x="4" s:y="10" s:pid="out0"><text x="5" y="-4">7</text></g></g><line x1="386" x2="442" y1="47.5" y2="47.5" class="net_2 width_1" style="stroke-width: 1"/><line x1="294" x2="398" y1="96.5" y2="96.5" class="net_21,22,23,24,25,26,27,28 width_8" style="stroke-width: 2"/><line x1="398" x2="398" y1="96.5" y2="67.5" class="net_21,22,23,24,25,26,27,28 width_8" style="stroke-width: 2"/><line x1="398" x2="441" y1="67.5" y2="67.5" class="net_21,22,23,24,25,26,27,28 width_8" style="stroke-width: 2"/><line x1="132.33333333333331" x2="230" y1="42" y2="42" class="net_12,13,14,15,16,17,18,19 width_8" style="stroke-width: 2"/><line x1="230" x2="230" y1="42" y2="96.5" class="net_12,13,14,15,16,17,18,19 width_8" style="stroke-width: 2"/><line x1="230" x2="263" y1="96.5" y2="96.5" class="net_12,13,14,15,16,17,18,19 width_8" style="stroke-width: 2"/><line x1="129" x2="262" y1="116.5" y2="116.5" class="net_4,5,6,7,8,9,10,11 width_8" style="stroke-width: 2"/><line x1="218" x2="230" y1="177.5" y2="177.5" class="net_3 width_1" style="stroke-width: 1"/><line x1="230" x2="230" y1="177.5" y2="136.5" class="net_3 width_1" style="stroke-width: 1"/><line x1="230" x2="262" y1="136.5" y2="136.5" class="net_3 width_1" style="stroke-width: 1"/><line x1="473" x2="635" y1="47.5" y2="47.5" class="net_13,14,15,16,17,18,19,20 width_8" style="stroke-width: 2"/><line x1="473" x2="512" y1="47.5" y2="47.5" class="net_13,14,15,16,17,18,19,20 width_8" style="stroke-width: 2"/><line x1="512" x2="512" y1="47.5" y2="102.5" class="net_13,14,15,16,17,18,19,20 width_8" style="stroke-width: 2"/><circle cx="512" cy="47.5" r="3" style="fill:#000" class="net_13,14,15,16,17,18,19,20 width_8"/><line x1="512" x2="576" y1="102.5" y2="102.5" class="net_13,14,15,16,17,18,19,20 width_8" style="stroke-width: 2"/><line x1="581" x2="635" y1="112.5" y2="112.5" class="net_20 width_1" style="stroke-width: 1"/><line x1="40" x2="126.33333333333333" y1="32" y2="32" class="net_12 width_1" style="stroke-width: 1"/><line x1="581" x2="610" y1="92.5" y2="92.5" class="net_13,14,15,16,17,18,19 width_7" style="stroke-width: 2"/><line x1="610" x2="610" y1="92.5" y2="198.5" class="net_13,14,15,16,17,18,19 width_7" style="stroke-width: 2"/><line x1="610" x2="76" y1="198.5" y2="198.5" class="net_13,14,15,16,17,18,19 width_7" style="stroke-width: 2"/><line x1="76" x2="76" y1="198.5" y2="52" class="net_13,14,15,16,17,18,19 width_7" style="stroke-width: 2"/><line x1="76" x2="126.33333333333333" y1="52" y2="52" class="net_13,14,15,16,17,18,19 width_7" style="stroke-width: 2"/><rect x="372" y="91.5" width="16" height="9" class="net_21,22,23,24,25,26,27,28 width_8 busLabel_8" style="fill: white; stroke: none"/><text x="371" y="99.5" class="net_21,22,23,24,25,26,27,28 width_8 busLabel_8">/8/</text><rect x="204" y="37" width="16" height="9" class="net_12,13,14,15,16,17,18,19 width_8 busLabel_8" style="fill: white; stroke: none"/><text x="203" y="45" class="net_12,13,14,15,16,17,18,19 width_8 busLabel_8">/8/</text><rect x="204" y="111.5" width="16" height="9" class="net_4,5,6,7,8,9,10,11 width_8 busLabel_8" style="fill: white; stroke: none"/><text x="203" y="119.5" class="net_4,5,6,7,8,9,10,11 width_8 busLabel_8">/8/</text><rect x="538" y="97.5" width="16" height="9" class="net_13,14,15,16,17,18,19,20 width_8 busLabel_8" style="fill: white; stroke: none"/><text x="537" y="105.5" class="net_13,14,15,16,17,18,19,20 width_8 busLabel_8">/8/</text><rect x="538" y="97.5" width="16" height="9" class="net_13,14,15,16,17,18,19,20 width_8 busLabel_8" style="fill: white; stroke: none"/><text x="537" y="105.5" class="net_13,14,15,16,17,18,19,20 width_8 busLabel_8">/8/</text><rect x="372" y="193.5" width="16" height="9" class="net_13,14,15,16,17,18,19 width_7 busLabel_7" style="fill: white; stroke: none"/><text x="371" y="201.5" class="net_13,14,15,16,17,18,19 width_7 busLabel_7">/7/</text></svg>