<svg xmlns="http://www.w3.org/2000/svg" xmlns:xlink="http://www.w3.org/1999/xlink" xmlns:s="https://github.com/nturley/netlistsvg" width="321" height="141.5">
  <style>svg {
    stroke:#000;
    fill:none;
  }
  text {
    fill:#000;
    stroke:none;
    font-size:10px;
    font-weight: bold;
    font-family: "Courier New", monospace;
  }
  .nodelabel {
    text-anchor: middle;
  }
  .inputPortLabel {
    text-anchor: end;
  }
  .splitjoinBody {
    fill:#000;
  }</style>
  <g s:type="add" transform="translate(80.33333333333333,22)" s:width="25" s:height="25" id="cell_$add$pwm_led.v:17$2">
    <s:alias val="$add"/>
    <circle r="12.5" cx="12.5" cy="12.5" class="cell_$add$pwm_led.v:17$2"/>
    <line x1="7.5" x2="17.5" y1="12.5" y2="12.5" class="cell_$add$pwm_led.v:17$2"/>
    <line x1="12.5" x2="12.5" y1="7.5" y2="17.5" class="cell_$add$pwm_led.v:17$2"/>
    <g s:x="3" s:y="5" s:pid="A"/>
    <g s:x="3" s:y="20" s:pid="B"/>
    <g s:x="25" s:y="12.5" s:pid="Y"/>
  </g>
  <g s:type="lt" transform="translate(207,29.5)" s:width="25" s:height="25" id="cell_$lt$pwm_led.v:20$3">
    <s:alias val="$lt"/>
    <circle r="12.5" cx="12.5" cy="12.5" class="cell_$lt$pwm_led.v:20$3"/>
    <line x1="7.5" x2="17.5" y1="12.5" y2="7.5" class="cell_$lt$pwm_led.v:20$3"/>
    <line x1="7.5" x2="17.5" y1="12.5" y2="17.5" class="cell_$lt$pwm_led.v:20$3"/>
    <g s:x="3" s:y="5" s:pid="A"/>
    <g s:x="3" s:y="20" s:pid="B"/>
    <g s:x="25" s:y="12.5" s:pid="Y"/>
  </g>
  <g s:type="dff" transform="translate(142,24.5)" s:width="30" s:height="40" id="cell_$procdff$5">
    <s:alias val="$dff"/>
    <s:alias val="$_DFF_"/>
    <s:alias val="$_DFF_P_"/>
    <rect width="30" height="40" x="0" y="0" class="cell_$procdff$5"/>
    <path d="M0,35 L5,30 L0,25" class="cell_$procdff$5"/>
    <g s:x="30" s:y="10" s:pid="Q"/>
    <g s:x="0" s:y="30" s:pid="CLK"/>
    <g s:x="0" s:y="30" s:pid="C"/>
    <g s:x="0" s:y="10" s:pid="D"/>
  </g>
  <g s:type="inputExt" transform="translate(77,92)" s:width="30" s:height="20" id="cell_clk">
    <text x="15" y="-4" class="nodelabel cell_clk" s:attribute="ref">clk</text>
    <s:alias val="$_inputExt_"/>
    <path d="M0,0 L0,20 L15,20 L30,10 L15,0 Z" class="cell_clk"/>
    <g s:x="28" s:y="10" s:pid="Y"/>
  </g>
  <g s:type="inputExt" transform="translate(142,109.5)" s:width="30" s:height="20" id="cell_duty">
    <text x="15" y="-4" class="nodelabel cell_duty" s:attribute="ref">duty</text>
    <s:alias val="$_inputExt_"/>
    <path d="M0,0 L0,20 L15,20 L30,10 L15,0 Z" class="cell_duty"/>
    <g s:x="28" s:y="10" s:pid="Y"/>
  </g>
  <g s:type="outputExt" transform="translate(267,32)" s:width="30" s:height="20" id="cell_pwm_out">
    <text x="15" y="-4" class="nodelabel cell_pwm_out" s:attribute="ref">pwm_out</text>
    <s:alias val="$_outputExt_"/>
    <path d="M30,0 L30,20 L15,20 L0,10 L15,0 Z" class="cell_pwm_out"/>
    <g s:x="0" s:y="10" s:pid="A"/>
  </g>
  <g s:type="constant" transform="translate(12,32)" s:width="30" s:height="20" id="cell_1">
    <text x="15" y="-4" class="nodelabel cell_1" s:attribute="ref">1</text>
    <s:alias val="$_constant_"/>
    <rect width="30" height="20" class="cell_1"/>
    <g s:x="30" s:y="10" s:pid="Y"/>
  </g>
  <line x1="172" x2="182" y1="34.5" y2="34.5" class="net_12,13,14,15,16,17,18,19"/>
  <line x1="182" x2="182" y1="34.5" y2="12" class="net_12,13,14,15,16,17,18,19"/>
  <line x1="182" x2="52" y1="12" y2="12" class="net_12,13,14,15,16,17,18,19"/>
  <line x1="52" x2="52" y1="12" y2="27" class="net_12,13,14,15,16,17,18,19"/>
  <circle cx="182" cy="34.5" r="2" style="fill:#000" class="net_12,13,14,15,16,17,18,19"/>
  <line x1="52" x2="83.33333333333333" y1="27" y2="27" class="net_12,13,14,15,16,17,18,19"/>
  <line x1="172" x2="210" y1="34.5" y2="34.5" class="net_12,13,14,15,16,17,18,19"/>
  <line x1="42" x2="83.33333333333333" y1="42" y2="42" class="net_28"/>
  <line x1="170" x2="182" y1="119.5" y2="119.5" class="net_3,4,5,6,7,8,9,10"/>
  <line x1="182" x2="182" y1="119.5" y2="49.5" class="net_3,4,5,6,7,8,9,10"/>
  <line x1="182" x2="210" y1="49.5" y2="49.5" class="net_3,4,5,6,7,8,9,10"/>
  <line x1="105" x2="117" y1="102" y2="102" class="net_2"/>
  <line x1="117" x2="117" y1="102" y2="54.5" class="net_2"/>
  <line x1="117" x2="142" y1="54.5" y2="54.5" class="net_2"/>
  <line x1="105.33333333333333" x2="142" y1="34.5" y2="34.5" class="net_20,21,22,23,24,25,26,27"/>
  <line x1="232" x2="267" y1="42" y2="42" class="net_11"/>
</svg>
