<svg xmlns="http://www.w3.org/2000/svg" xmlns:xlink="http://www.w3.org/1999/xlink" xmlns:s="https://github.com/nturley/netlistsvg" width="493" height="294.5">
  <style>svg {
    stroke:#000;
    fill:none;
  }
  text {
    fill:#000;
    stroke:none;
    font-size:10px;
    font-weight: bold;
    font-family: "Courier New", monospace;
  }
  .nodelabel {
    text-anchor: middle;
  }
  .inputPortLabel {
    text-anchor: end;
  }
  .splitjoinBody {
    fill:#000;
  }</style>
  <g s:type="add" transform="translate(313.3333333333333,159.5)" s:width="25" s:height="25" id="cell_$add$blink_led.v:24$4">
    <s:alias val="$add"/>
    <circle r="12.5" cx="12.5" cy="12.5" class="cell_$add$blink_led.v:24$4"/>
    <line x1="7.5" x2="17.5" y1="12.5" y2="12.5" class="cell_$add$blink_led.v:24$4"/>
    <line x1="12.5" x2="12.5" y1="7.5" y2="17.5" class="cell_$add$blink_led.v:24$4"/>
    <g s:x="3" s:y="5" s:pid="A"/>
    <g s:x="3" s:y="20" s:pid="B"/>
    <g s:x="25" s:y="12.5" s:pid="Y"/>
  </g>
  <g s:type="eq" transform="translate(104.33333333333333,92)" s:width="25" s:height="25" id="cell_$eq$blink_led.v:20$2">
    <s:alias val="$eq"/>
    <circle r="12.5" cx="12.5" cy="12.5" class="cell_$eq$blink_led.v:20$2"/>
    <line x1="7.5" x2="17.5" y1="10" y2="10" class="cell_$eq$blink_led.v:20$2"/>
    <line x1="7.5" x2="17.5" y1="15" y2="15" class="cell_$eq$blink_led.v:20$2"/>
    <g s:x="3" s:y="5" s:pid="A"/>
    <g s:x="3" s:y="20" s:pid="B"/>
    <g s:x="25" s:y="12.5" s:pid="Y"/>
  </g>
  <g s:type="not" transform="translate(101,42)" s:width="30" s:height="20" id="cell_$not$blink_led.v:22$3">
    <s:alias val="$_NOT_"/>
    <s:alias val="$not"/>
    <s:alias val="$logic_not"/>
    <path d="M0,0 L0,20 L20,10 Z" class="cell_$not$blink_led.v:22$3"/>
    <circle cx="23" cy="10" r="3" class="cell_$not$blink_led.v:22$3"/>
    <g s:x="0" s:y="10" s:pid="A"/>
    <g s:x="25" s:y="10" s:pid="Y"/>
  </g>
  <g s:type="not" transform="translate(376,97)" s:width="30" s:height="20" id="cell_$not$blink_led.v:29$6">
    <s:alias val="$_NOT_"/>
    <s:alias val="$not"/>
    <s:alias val="$logic_not"/>
    <path d="M0,0 L0,20 L20,10 Z" class="cell_$not$blink_led.v:29$6"/>
    <circle cx="23" cy="10" r="3" class="cell_$not$blink_led.v:29$6"/>
    <g s:x="0" s:y="10" s:pid="A"/>
    <g s:x="25" s:y="10" s:pid="Y"/>
  </g>
  <g s:type="dff" transform="translate(234,32)" s:width="30" s:height="40" id="cell_$procdff$15">
    <s:alias val="$dff"/>
    <s:alias val="$_DFF_"/>
    <s:alias val="$_DFF_P_"/>
    <rect width="30" height="40" x="0" y="0" class="cell_$procdff$15"/>
    <path d="M0,35 L5,30 L0,25" class="cell_$procdff$15"/>
    <g s:x="30" s:y="10" s:pid="Q"/>
    <g s:x="0" s:y="30" s:pid="CLK"/>
    <g s:x="0" s:y="30" s:pid="C"/>
    <g s:x="0" s:y="10" s:pid="D"/>
  </g>
  <g s:type="dff" transform="translate(441,172)" s:width="30" s:height="40" id="cell_$procdff$16">
    <s:alias val="$dff"/>
    <s:alias val="$_DFF_"/>
    <s:alias val="$_DFF_P_"/>
    <rect width="30" height="40" x="0" y="0" class="cell_$procdff$16"/>
    <path d="M0,35 L5,30 L0,25" class="cell_$procdff$16"/>
    <g s:x="30" s:y="10" s:pid="Q"/>
    <g s:x="0" s:y="30" s:pid="CLK"/>
    <g s:x="0" s:y="30" s:pid="C"/>
    <g s:x="0" s:y="10" s:pid="D"/>
  </g>
  <g s:type="mux" transform="translate(379.3333333333333,162)" s:width="20" s:height="40" id="cell_$procmux$10">
    <s:alias val="$pmux"/>
    <s:alias val="$mux"/>
    <s:alias val="$_MUX_"/>
    <path d="M0,0 L20,10 L20,30 L0,40 Z" class="cell_$procmux$10"/>
    <g s:x="0" s:y="10" s:pid="A"/>
    <g s:x="0" s:y="30" s:pid="B"/>
    <g s:x="10" s:y="35" s:pid="S"/>
    <g s:x="20" s:y="20" s:pid="Y"/>
  </g>
  <g s:type="mux" transform="translate(172.66666666666666,22)" s:width="20" s:height="40" id="cell_$procmux$13">
    <s:alias val="$pmux"/>
    <s:alias val="$mux"/>
    <s:alias val="$_MUX_"/>
    <path d="M0,0 L20,10 L20,30 L0,40 Z" class="cell_$procmux$13"/>
    <g s:x="0" s:y="10" s:pid="A"/>
    <g s:x="0" s:y="30" s:pid="B"/>
    <g s:x="10" s:y="35" s:pid="S"/>
    <g s:x="20" s:y="20" s:pid="Y"/>
  </g>
  <g s:type="reduce_xor" transform="translate(308,94.5)" s:width="33" s:height="25" id="cell_$xor$blink_led.v:29$5">
    <s:alias val="$xor"/>
    <s:alias val="$reduce_xor"/>
    <s:alias val="$_XOR_"/>
    <path d="M3,0 A30 25 0 0 1 3,25 A30 25 0 0 0 33,12.5 A30 25 0 0 0 3,0" class="cell_$xor$blink_led.v:29$5"/>
    <path d="M0,0 A30 25 0 0 1 0,25" class="cell_$xor$blink_led.v:29$5"/>
    <g s:x="3" s:y="5" s:pid="A"/>
    <g s:x="3" s:y="20" s:pid="B"/>
    <g s:x="33" s:y="12.5" s:pid="Y"/>
  </g>
  <g s:type="inputExt" transform="translate(166,124.5)" s:width="30" s:height="20" id="cell_clk">
    <text x="15" y="-4" class="nodelabel cell_clk" s:attribute="ref">clk</text>
    <s:alias val="$_inputExt_"/>
    <path d="M0,0 L0,20 L15,20 L30,10 L15,0 Z" class="cell_clk"/>
    <g s:x="28" s:y="10" s:pid="Y"/>
  </g>
  <g s:type="inputExt" transform="translate(231,104.5)" s:width="30" s:height="20" id="cell_button1">
    <text x="15" y="-4" class="nodelabel cell_button1" s:attribute="ref">button1</text>
    <s:alias val="$_inputExt_"/>
    <path d="M0,0 L0,20 L15,20 L30,10 L15,0 Z" class="cell_button1"/>
    <g s:x="28" s:y="10" s:pid="Y"/>
  </g>
  <g s:type="outputExt" transform="translate(441,32)" s:width="30" s:height="20" id="cell_led">
    <text x="15" y="-4" class="nodelabel cell_led" s:attribute="ref">led</text>
    <s:alias val="$_outputExt_"/>
    <path d="M30,0 L30,20 L15,20 L0,10 L15,0 Z" class="cell_led"/>
    <g s:x="0" s:y="10" s:pid="A"/>
  </g>
  <g s:type="outputExt" transform="translate(441,97)" s:width="30" s:height="20" id="cell_led2">
    <text x="15" y="-4" class="nodelabel cell_led2" s:attribute="ref">led2</text>
    <s:alias val="$_outputExt_"/>
    <path d="M30,0 L30,20 L15,20 L0,10 L15,0 Z" class="cell_led2"/>
    <g s:x="0" s:y="10" s:pid="A"/>
  </g>
  <g s:type="constant" transform="translate(231,169.5)" s:width="30" s:height="20" id="cell_1">
    <text x="15" y="-4" class="nodelabel cell_1" s:attribute="ref">1</text>
    <s:alias val="$_constant_"/>
    <rect width="30" height="20" class="cell_1"/>
    <g s:x="30" s:y="10" s:pid="Y"/>
  </g>
  <g s:type="constant" transform="translate(12,102)" s:width="30" s:height="20" id="cell_10111110101111000001111111">
    <text x="15" y="-4" class="nodelabel cell_10111110101111000001111111" s:attribute="ref">0x2faf07f</text>
    <s:alias val="$_constant_"/>
    <rect width="30" height="20" class="cell_10111110101111000001111111"/>
    <g s:x="30" s:y="10" s:pid="Y"/>
  </g>
  <g s:type="constant" transform="translate(311,229.5)" s:width="30" s:height="20" id="cell_00000000000000000000000000000000">
    <text x="15" y="-4" class="nodelabel cell_00000000000000000000000000000000" s:attribute="ref">0x0</text>
    <s:alias val="$_constant_"/>
    <rect width="30" height="20" class="cell_00000000000000000000000000000000"/>
    <g s:x="30" s:y="10" s:pid="Y"/>
  </g>
  <line x1="471" x2="481" y1="182" y2="182" class="net_6,7,8,9,10,11,12,13,14,15,16,17,18,19,20,21,22,23,24,25,26,27,28,29,30,31,32,33,34,35,36,37"/>
  <line x1="481" x2="481" y1="182" y2="149.5" class="net_6,7,8,9,10,11,12,13,14,15,16,17,18,19,20,21,22,23,24,25,26,27,28,29,30,31,32,33,34,35,36,37"/>
  <line x1="481" x2="283" y1="149.5" y2="149.5" class="net_6,7,8,9,10,11,12,13,14,15,16,17,18,19,20,21,22,23,24,25,26,27,28,29,30,31,32,33,34,35,36,37"/>
  <line x1="283" x2="283" y1="149.5" y2="164.5" class="net_6,7,8,9,10,11,12,13,14,15,16,17,18,19,20,21,22,23,24,25,26,27,28,29,30,31,32,33,34,35,36,37"/>
  <circle cx="481" cy="182" r="2" style="fill:#000" class="net_6,7,8,9,10,11,12,13,14,15,16,17,18,19,20,21,22,23,24,25,26,27,28,29,30,31,32,33,34,35,36,37"/>
  <line x1="283" x2="316.3333333333333" y1="164.5" y2="164.5" class="net_6,7,8,9,10,11,12,13,14,15,16,17,18,19,20,21,22,23,24,25,26,27,28,29,30,31,32,33,34,35,36,37"/>
  <line x1="471" x2="481" y1="182" y2="182" class="net_6,7,8,9,10,11,12,13,14,15,16,17,18,19,20,21,22,23,24,25,26,27,28,29,30,31,32,33,34,35,36,37"/>
  <line x1="481" x2="481" y1="182" y2="281.5" class="net_6,7,8,9,10,11,12,13,14,15,16,17,18,19,20,21,22,23,24,25,26,27,28,29,30,31,32,33,34,35,36,37"/>
  <line x1="481" x2="76" y1="281.5" y2="281.5" class="net_6,7,8,9,10,11,12,13,14,15,16,17,18,19,20,21,22,23,24,25,26,27,28,29,30,31,32,33,34,35,36,37"/>
  <line x1="76" x2="76" y1="281.5" y2="97" class="net_6,7,8,9,10,11,12,13,14,15,16,17,18,19,20,21,22,23,24,25,26,27,28,29,30,31,32,33,34,35,36,37"/>
  <line x1="76" x2="107.33333333333333" y1="97" y2="97" class="net_6,7,8,9,10,11,12,13,14,15,16,17,18,19,20,21,22,23,24,25,26,27,28,29,30,31,32,33,34,35,36,37"/>
  <line x1="261" x2="316.3333333333333" y1="179.5" y2="179.5" class="net_106"/>
  <line x1="42" x2="107.33333333333333" y1="112" y2="112" class="net_107,108,109,110,111,112,113,114,115,116,117,118,119,120,121,122,123,124,125,126,127,128,129,130,131,132"/>
  <line x1="264" x2="283" y1="42" y2="42" class="net_4"/>
  <line x1="283" x2="283" y1="42" y2="82" class="net_4"/>
  <line x1="283" x2="76" y1="82" y2="82" class="net_4"/>
  <line x1="76" x2="76" y1="82" y2="52" class="net_4"/>
  <circle cx="283" cy="82" r="2" style="fill:#000" class="net_4"/>
  <line x1="76" x2="101" y1="52" y2="52" class="net_4"/>
  <line x1="264" x2="283" y1="42" y2="42" class="net_4"/>
  <line x1="283" x2="283" y1="42" y2="12" class="net_4"/>
  <line x1="283" x2="141" y1="12" y2="12" class="net_4"/>
  <line x1="141" x2="141" y1="12" y2="32" class="net_4"/>
  <circle cx="283" cy="42" r="2" style="fill:#000" class="net_4"/>
  <line x1="141" x2="172.66666666666666" y1="32" y2="32" class="net_4"/>
  <line x1="264" x2="283" y1="42" y2="42" class="net_4"/>
  <line x1="283" x2="283" y1="42" y2="99.5" class="net_4"/>
  <line x1="283" x2="311" y1="99.5" y2="99.5" class="net_4"/>
  <line x1="264" x2="441" y1="42" y2="42" class="net_4"/>
  <line x1="341" x2="376" y1="107" y2="107" class="net_72"/>
  <line x1="194" x2="206" y1="134.5" y2="134.5" class="net_2"/>
  <line x1="206" x2="206" y1="134.5" y2="62" class="net_2"/>
  <circle cx="206" cy="134.5" r="2" style="fill:#000" class="net_2"/>
  <line x1="206" x2="234" y1="62" y2="62" class="net_2"/>
  <line x1="194" x2="206" y1="134.5" y2="134.5" class="net_2"/>
  <line x1="206" x2="206" y1="134.5" y2="270.5" class="net_2"/>
  <line x1="206" x2="416" y1="270.5" y2="270.5" class="net_2"/>
  <line x1="416" x2="416" y1="270.5" y2="202" class="net_2"/>
  <line x1="416" x2="441" y1="202" y2="202" class="net_2"/>
  <line x1="192.66666666666666" x2="234" y1="42" y2="42" class="net_73"/>
  <line x1="399.3333333333333" x2="441" y1="182" y2="182" class="net_74,75,76,77,78,79,80,81,82,83,84,85,86,87,88,89,90,91,92,93,94,95,96,97,98,99,100,101,102,103,104,105"/>
  <line x1="338.3333333333333" x2="379.3333333333333" y1="172" y2="172" class="net_38,39,40,41,42,43,44,45,46,47,48,49,50,51,52,53,54,55,56,57,58,59,60,61,62,63,64,65,66,67,68,69"/>
  <line x1="341" x2="351" y1="239.5" y2="239.5" class="net_133,134,135,136,137,138,139,140,141,142,143,144,145,146,147,148,149,150,151,152,153,154,155,156,157,158,159,160,161,162,163,164"/>
  <line x1="351" x2="351" y1="239.5" y2="192" class="net_133,134,135,136,137,138,139,140,141,142,143,144,145,146,147,148,149,150,151,152,153,154,155,156,157,158,159,160,161,162,163,164"/>
  <line x1="351" x2="379.3333333333333" y1="192" y2="192" class="net_133,134,135,136,137,138,139,140,141,142,143,144,145,146,147,148,149,150,151,152,153,154,155,156,157,158,159,160,161,162,163,164"/>
  <line x1="129.33333333333331" x2="141" y1="104.5" y2="104.5" class="net_70"/>
  <line x1="141" x2="141" y1="104.5" y2="259.5" class="net_70"/>
  <line x1="141" x2="389.3333333333333" y1="259.5" y2="259.5" class="net_70"/>
  <circle cx="141" cy="104.5" r="2" style="fill:#000" class="net_70"/>
  <line x1="389.3333333333333" x2="389.3333333333333" y1="259.5" y2="197" class="net_70"/>
  <line x1="129.33333333333331" x2="182.66666666666666" y1="104.5" y2="104.5" class="net_70"/>
  <line x1="182.66666666666666" x2="182.66666666666666" y1="104.5" y2="57" class="net_70"/>
  <line x1="126" x2="172.66666666666666" y1="52" y2="52" class="net_71"/>
  <line x1="259" x2="311" y1="114.5" y2="114.5" class="net_3"/>
  <line x1="401" x2="441" y1="107" y2="107" class="net_5"/>
</svg>
