<svg xmlns="http://www.w3.org/2000/svg" xmlns:xlink="http://www.w3.org/1999/xlink" xmlns:s="https://github.com/nturley/netlistsvg" width="713.5" height="536.5"><style>svg {
  stroke:#000;
  fill:none;
}
text {
  fill:#000;
  stroke:none;
  font-size:10px;
  font-weight: bold;
  font-family: "Courier New", monospace;
}
line {
    stroke-linecap: round;
}
.nodelabel {
  text-anchor: middle;
}
.inputPortLabel {
  text-anchor: end;
}
.splitjoinBody {
  fill:#000;
}</style><g s:type="eq" transform="translate(231.66666666666666,117)" s:width="25" s:height="25" id="cell_:13"><s:alias val="$eq"/><s:alias val="$eqx"/><circle r="12.5" cx="12.5" cy="12.5" fill="#ffffff" class="cell_:13"/><line x1="7.5" x2="17.5" y1="10" y2="10" fill="#ffffff" class="cell_:13"/><line x1="7.5" x2="17.5" y1="15" y2="15" fill="#ffffff" class="cell_:13"/><g s:x="2" s:y="5" s:pid="A"/><g s:x="2" s:y="20" s:pid="B"/><g s:x="25" s:y="12.5" s:pid="Y"/></g><g s:type="and" transform="translate(299.3333333333333,49.5)" s:width="30" s:height="25" id="cell_:14"><s:alias val="$and"/><s:alias val="$logic_and"/><s:alias val="$_AND_"/><s:alias val="$reduce_and"/><path d="M0,0 L0,25 L15,25 A15 12.5 0 0 0 15,0 Z" fill="#ffffff" class="cell_:14"/><g s:x="0" s:y="5" s:pid="A"/><g s:x="0" s:y="20" s:pid="B"/><g s:x="30" s:y="12.5" s:pid="Y"/></g><g s:type="mux" transform="translate(370.3333333333333,12)" s:width="20" s:height="40" id="cell_:15"><s:alias val="$pmux"/><s:alias val="$mux"/><s:alias val="$_MUX_"/><path d="M0,0 L20,10 L20,30 L0,40 Z" fill="#ffffff" class="cell_:15"/><text x="5" y="32" class="nodelabel cell_:15" s:attribute="">1</text><text x="5" y="13" class="nodelabel cell_:15" s:attribute="">0</text><g s:x="0" s:y="10" s:pid="A"/><g s:x="0" s:y="30" s:pid="B"/><g s:x="10" s:y="35" s:pid="S"/><g s:x="20" s:y="20" s:pid="Y"/></g><g s:type="or" transform="translate(368,308.5)" s:width="30" s:height="25" id="cell_:19"><s:alias val="$or"/><s:alias val="$logic_or"/><s:alias val="$_OR_"/><s:alias val="$reduce_or"/><s:alias val="$reduce_bool"/><path d="M0,0 A30 25 0 0 1 0,25 A30 25 0 0 0 30,12.5 A30 25 0 0 0 0,0" fill="#ffffff" class="cell_:19"/><g s:x="2" s:y="5" s:pid="A"/><g s:x="2" s:y="20" s:pid="B"/><g s:x="30" s:y="12.5" s:pid="Y"/></g><g s:type="and" transform="translate(437,316)" s:width="30" s:height="25" id="cell_:20"><s:alias val="$and"/><s:alias val="$logic_and"/><s:alias val="$_AND_"/><s:alias val="$reduce_and"/><path d="M0,0 L0,25 L15,25 A15 12.5 0 0 0 15,0 Z" fill="#ffffff" class="cell_:20"/><g s:x="0" s:y="5" s:pid="A"/><g s:x="0" s:y="20" s:pid="B"/><g s:x="30" s:y="12.5" s:pid="Y"/></g><g s:type="eq" transform="translate(440.3333333333333,464.5)" s:width="25" s:height="25" id="cell_:21"><s:alias val="$eq"/><s:alias val="$eqx"/><circle r="12.5" cx="12.5" cy="12.5" fill="#ffffff" class="cell_:21"/><line x1="7.5" x2="17.5" y1="10" y2="10" fill="#ffffff" class="cell_:21"/><line x1="7.5" x2="17.5" y1="15" y2="15" fill="#ffffff" class="cell_:21"/><g s:x="2" s:y="5" s:pid="A"/><g s:x="2" s:y="20" s:pid="B"/><g s:x="25" s:y="12.5" s:pid="Y"/></g><g s:type="and" transform="translate(502,472)" s:width="30" s:height="25" id="cell_:22"><s:alias val="$and"/><s:alias val="$logic_and"/><s:alias val="$_AND_"/><s:alias val="$reduce_and"/><path d="M0,0 L0,25 L15,25 A15 12.5 0 0 0 15,0 Z" fill="#ffffff" class="cell_:22"/><g s:x="0" s:y="5" s:pid="A"/><g s:x="0" s:y="20" s:pid="B"/><g s:x="30" s:y="12.5" s:pid="Y"/></g><g s:type="mux-bus" transform="translate(573,119.5)" s:width="24" s:height="40" id="cell_:23"><s:alias val="$pmux-bus"/><s:alias val="$mux-bus"/><s:alias val="$_MUX_-bus"/><path d="M0,0 L20,10 L20,30 L0,40 Z" fill="#ffffff" class="cell_:23"/><path d="M4,2 L4,0 L22,9 L22,31 L4,40 L4,38" fill="#ffffff" class="cell_:23"/><path d="M8,2 L8,0 L24,8 L24,32 L8,40 L8,38" fill="#ffffff" class="cell_:23"/><text x="5" y="32" class="nodelabel cell_:23" s:attribute="">1</text><text x="5" y="13" class="nodelabel cell_:23" s:attribute="">0</text><g s:x="-1" s:y="10" s:pid="A"/><g s:x="-1" s:y="30" s:pid="B"/><g s:x="12" s:y="38" s:pid="S"/><g s:x="24.5" s:y="20" s:pid="Y"/></g><g s:type="or" transform="translate(148,49.5)" s:width="30" s:height="25" id="cell_:26"><s:alias val="$or"/><s:alias val="$logic_or"/><s:alias val="$_OR_"/><s:alias val="$reduce_or"/><s:alias val="$reduce_bool"/><path d="M0,0 A30 25 0 0 1 0,25 A30 25 0 0 0 30,12.5 A30 25 0 0 0 0,0" fill="#ffffff" class="cell_:26"/><g s:x="2" s:y="5" s:pid="A"/><g s:x="2" s:y="20" s:pid="B"/><g s:x="30" s:y="12.5" s:pid="Y"/></g><g s:type="and" transform="translate(230,57)" s:width="30" s:height="25" id="cell_:27"><s:alias val="$and"/><s:alias val="$logic_and"/><s:alias val="$_AND_"/><s:alias val="$reduce_and"/><path d="M0,0 L0,25 L15,25 A15 12.5 0 0 0 15,0 Z" fill="#ffffff" class="cell_:27"/><g s:x="0" s:y="5" s:pid="A"/><g s:x="0" s:y="20" s:pid="B"/><g s:x="30" s:y="12.5" s:pid="Y"/></g><g s:type="eq" transform="translate(231.66666666666666,177)" s:width="25" s:height="25" id="cell_:28"><s:alias val="$eq"/><s:alias val="$eqx"/><circle r="12.5" cx="12.5" cy="12.5" fill="#ffffff" class="cell_:28"/><line x1="7.5" x2="17.5" y1="10" y2="10" fill="#ffffff" class="cell_:28"/><line x1="7.5" x2="17.5" y1="15" y2="15" fill="#ffffff" class="cell_:28"/><g s:x="2" s:y="5" s:pid="A"/><g s:x="2" s:y="20" s:pid="B"/><g s:x="25" s:y="12.5" s:pid="Y"/></g><g s:type="and" transform="translate(299.3333333333333,184.5)" s:width="30" s:height="25" id="cell_:29"><s:alias val="$and"/><s:alias val="$logic_and"/><s:alias val="$_AND_"/><s:alias val="$reduce_and"/><path d="M0,0 L0,25 L15,25 A15 12.5 0 0 0 15,0 Z" fill="#ffffff" class="cell_:29"/><g s:x="0" s:y="5" s:pid="A"/><g s:x="0" s:y="20" s:pid="B"/><g s:x="30" s:y="12.5" s:pid="Y"/></g><g s:type="mux" transform="translate(370.3333333333333,99.5)" s:width="20" s:height="40" id="cell_:30"><s:alias val="$pmux"/><s:alias val="$mux"/><s:alias val="$_MUX_"/><path d="M0,0 L20,10 L20,30 L0,40 Z" fill="#ffffff" class="cell_:30"/><text x="5" y="32" class="nodelabel cell_:30" s:attribute="">1</text><text x="5" y="13" class="nodelabel cell_:30" s:attribute="">0</text><g s:x="0" s:y="10" s:pid="A"/><g s:x="0" s:y="30" s:pid="B"/><g s:x="10" s:y="35" s:pid="S"/><g s:x="20" s:y="20" s:pid="Y"/></g><g s:type="eq" transform="translate(440.3333333333333,404.5)" s:width="25" s:height="25" id="cell_:6"><s:alias val="$eq"/><s:alias val="$eqx"/><circle r="12.5" cx="12.5" cy="12.5" fill="#ffffff" class="cell_:6"/><line x1="7.5" x2="17.5" y1="10" y2="10" fill="#ffffff" class="cell_:6"/><line x1="7.5" x2="17.5" y1="15" y2="15" fill="#ffffff" class="cell_:6"/><g s:x="2" s:y="5" s:pid="A"/><g s:x="2" s:y="20" s:pid="B"/><g s:x="25" s:y="12.5" s:pid="Y"/></g><g s:type="and" transform="translate(502,308.5)" s:width="30" s:height="25" id="cell_:7"><s:alias val="$and"/><s:alias val="$logic_and"/><s:alias val="$_AND_"/><s:alias val="$reduce_and"/><path d="M0,0 L0,25 L15,25 A15 12.5 0 0 0 15,0 Z" fill="#ffffff" class="cell_:7"/><g s:x="0" s:y="5" s:pid="A"/><g s:x="0" s:y="20" s:pid="B"/><g s:x="30" s:y="12.5" s:pid="Y"/></g><g s:type="mux-bus" transform="translate(573,32)" s:width="24" s:height="40" id="cell_:8"><s:alias val="$pmux-bus"/><s:alias val="$mux-bus"/><s:alias val="$_MUX_-bus"/><path d="M0,0 L20,10 L20,30 L0,40 Z" fill="#ffffff" class="cell_:8"/><path d="M4,2 L4,0 L22,9 L22,31 L4,40 L4,38" fill="#ffffff" class="cell_:8"/><path d="M8,2 L8,0 L24,8 L24,32 L8,40 L8,38" fill="#ffffff" class="cell_:8"/><text x="5" y="32" class="nodelabel cell_:8" s:attribute="">1</text><text x="5" y="13" class="nodelabel cell_:8" s:attribute="">0</text><g s:x="-1" s:y="10" s:pid="A"/><g s:x="-1" s:y="30" s:pid="B"/><g s:x="12" s:y="38" s:pid="S"/><g s:x="24.5" s:y="20" s:pid="Y"/></g><g s:type="inputExt" transform="translate(77,253)" s:width="30" s:height="20" id="cell_ex_rs1"><text x="15" y="-4" class="nodelabel cell_ex_rs1" s:attribute="ref">ex_rs1</text><s:alias val="$_inputExt_"/><path d="M0,0 L0,20 L15,20 L30,10 L15,0 Z" fill="#ffffff" class="cell_ex_rs1"/><g s:x="30" s:y="10" s:pid="Y"/></g><g s:type="inputExt" transform="translate(77,491.5)" s:width="30" s:height="20" id="cell_ex_rs2"><text x="15" y="-4" class="nodelabel cell_ex_rs2" s:attribute="ref">ex_rs2</text><s:alias val="$_inputExt_"/><path d="M0,0 L0,20 L15,20 L30,10 L15,0 Z" fill="#ffffff" class="cell_ex_rs2"/><g s:x="30" s:y="10" s:pid="Y"/></g><g s:type="inputExt" transform="translate(228,399.5)" s:width="30" s:height="20" id="cell_mem_rd"><text x="15" y="-4" class="nodelabel cell_mem_rd" s:attribute="ref">mem_rd</text><s:alias val="$_inputExt_"/><path d="M0,0 L0,20 L15,20 L30,10 L15,0 Z" fill="#ffffff" class="cell_mem_rd"/><g s:x="30" s:y="10" s:pid="Y"/></g><g s:type="inputExt" transform="translate(365,378.5)" s:width="30" s:height="20" id="cell_mem_we"><text x="15" y="-4" class="nodelabel cell_mem_we" s:attribute="ref">mem_we</text><s:alias val="$_inputExt_"/><path d="M0,0 L0,20 L15,20 L30,10 L15,0 Z" fill="#ffffff" class="cell_mem_we"/><g s:x="30" s:y="10" s:pid="Y"/></g><g s:type="inputExt" transform="translate(12,172)" s:width="30" s:height="20" id="cell_wb_rd"><text x="15" y="-4" class="nodelabel cell_wb_rd" s:attribute="ref">wb_rd</text><s:alias val="$_inputExt_"/><path d="M0,0 L0,20 L15,20 L30,10 L15,0 Z" fill="#ffffff" class="cell_wb_rd"/><g s:x="30" s:y="10" s:pid="Y"/></g><g s:type="inputExt" transform="translate(148,119.5)" s:width="30" s:height="20" id="cell_wb_we"><text x="15" y="-4" class="nodelabel cell_wb_we" s:attribute="ref">wb_we</text><s:alias val="$_inputExt_"/><path d="M0,0 L0,20 L15,20 L30,10 L15,0 Z" fill="#ffffff" class="cell_wb_we"/><g s:x="30" s:y="10" s:pid="Y"/></g><g s:type="outputExt" transform="translate(671.5,42)" s:width="30" s:height="20" id="cell_fwd_a"><text x="15" y="-4" class="nodelabel cell_fwd_a" s:attribute="ref">fwd_a</text><s:alias val="$_outputExt_"/><path d="M30,0 L30,20 L15,20 L0,10 L15,0 Z" fill="#ffffff" class="cell_fwd_a"/><g s:x="0" s:y="10" s:pid="A"/></g><g s:type="outputExt" transform="translate(671.5,129.5)" s:width="30" s:height="20" id="cell_fwd_b"><text x="15" y="-4" class="nodelabel cell_fwd_b" s:attribute="ref">fwd_b</text><s:alias val="$_outputExt_"/><path d="M30,0 L30,20 L15,20 L0,10 L15,0 Z" fill="#ffffff" class="cell_fwd_b"/><g s:x="0" s:y="10" s:pid="A"/></g><g s:type="constant" transform="translate(299,254.5)" s:width="30" s:height="20" id="cell_0"><text x="15" y="-4" class="nodelabel cell_0" s:attribute="ref">0</text><s:alias val="$_constant_"/><rect width="30" height="20" fill="#ffffff" class="cell_0"/><g s:x="31" s:y="10" s:pid="Y"/></g><g s:type="constant" transform="translate(299,119.5)" s:width="30" s:height="20" id="cell_1"><text x="15" y="-4" class="nodelabel cell_1" s:attribute="ref">1</text><s:alias val="$_constant_"/><rect width="30" height="20" fill="#ffffff" class="cell_1"/><g s:x="31" s:y="10" s:pid="Y"/></g><g s:type="constant" transform="translate(436,194)" s:width="30" s:height="20" id="cell_10"><text x="15" y="-4" class="nodelabel cell_10" s:attribute="ref">10</text><s:alias val="$_constant_"/><rect width="30" height="20" fill="#ffffff" class="cell_10"/><g s:x="31" s:y="10" s:pid="Y"/></g><g s:type="join" transform="translate(447.3333333333333,109)" s:width="4" s:height="40" id="cell_$join$,36,42,"><rect width="5" height="40" class="splitjoinBody" s:generic="body"/><s:alias val="$_join_"/><g s:x="5" s:y="20" s:pid="out"/><g transform="translate(0,10)" s:x="0" s:y="10" s:pid="in0"><text x="-3" y="-4" class="inputPortLabel">0</text></g><g transform="translate(0,30)" s:x="0" s:y="10" s:pid="in0"><text x="-3" y="-4" class="inputPortLabel">1</text></g></g><g s:type="join" transform="translate(447.3333333333333,21.5)" s:width="4" s:height="40" id="cell_$join$,31,42,"><rect width="5" height="40" class="splitjoinBody" s:generic="body"/><s:alias val="$_join_"/><g s:x="5" s:y="20" s:pid="out"/><g transform="translate(0,10)" s:x="0" s:y="10" s:pid="in0"><text x="-3" y="-4" class="inputPortLabel">0</text></g><g transform="translate(0,30)" s:x="0" s:y="10" s:pid="in0"><text x="-3" y="-4" class="inputPortLabel">1</text></g></g><line x1="42" x2="52" y1="182" y2="182" class="net_18,19,20,21,22 width_5" style="stroke-width: 2"/><line x1="52" x2="52" y1="182" y2="202" class="net_18,19,20,21,22 width_5" style="stroke-width: 2"/><line x1="52" x2="198" y1="202" y2="202" class="net_18,19,20,21,22 width_5" style="stroke-width: 2"/><line x1="198" x2="198" y1="202" y2="122" class="net_18,19,20,21,22 width_5" style="stroke-width: 2"/><circle cx="52" cy="182" r="3" style="fill:#000" class="net_18,19,20,21,22 width_5"/><line x1="198" x2="233.66666666666666" y1="122" y2="122" class="net_18,19,20,21,22 width_5" style="stroke-width: 2"/><line x1="42" x2="52" y1="182" y2="182" class="net_18,19,20,21,22 width_5" style="stroke-width: 2"/><line x1="52" x2="52" y1="182" y2="54.5" class="net_18,19,20,21,22 width_5" style="stroke-width: 2"/><line x1="52" x2="150" y1="54.5" y2="54.5" class="net_18,19,20,21,22 width_5" style="stroke-width: 2"/><line x1="42" x2="233.66666666666666" y1="182" y2="182" class="net_18,19,20,21,22 width_5" style="stroke-width: 2"/><line x1="107" x2="208" y1="263" y2="263" class="net_2,3,4,5,6 width_5" style="stroke-width: 2"/><line x1="208" x2="208" y1="263" y2="137" class="net_2,3,4,5,6 width_5" style="stroke-width: 2"/><line x1="208" x2="233.66666666666666" y1="137" y2="137" class="net_2,3,4,5,6 width_5" style="stroke-width: 2"/><line x1="107" x2="123" y1="263" y2="263" class="net_2,3,4,5,6 width_5" style="stroke-width: 2"/><line x1="123" x2="123" y1="263" y2="486.5" class="net_2,3,4,5,6 width_5" style="stroke-width: 2"/><line x1="123" x2="411" y1="486.5" y2="486.5" class="net_2,3,4,5,6 width_5" style="stroke-width: 2"/><line x1="411" x2="411" y1="486.5" y2="424.5" class="net_2,3,4,5,6 width_5" style="stroke-width: 2"/><circle cx="123" cy="263" r="3" style="fill:#000" class="net_2,3,4,5,6 width_5"/><line x1="411" x2="442.3333333333333" y1="424.5" y2="424.5" class="net_2,3,4,5,6 width_5" style="stroke-width: 2"/><line x1="256.66666666666663" x2="274" y1="129.5" y2="129.5" class="net_28 width_1" style="stroke-width: 1"/><line x1="274" x2="274" y1="129.5" y2="54.5" class="net_28 width_1" style="stroke-width: 1"/><line x1="274" x2="299.3333333333333" y1="54.5" y2="54.5" class="net_28 width_1" style="stroke-width: 1"/><line x1="260" x2="299.3333333333333" y1="69.5" y2="69.5" class="net_29 width_1" style="stroke-width: 1"/><line x1="260" x2="284" y1="69.5" y2="69.5" class="net_29 width_1" style="stroke-width: 1"/><line x1="284" x2="284" y1="69.5" y2="204.5" class="net_29 width_1" style="stroke-width: 1"/><circle cx="284" cy="69.5" r="2" style="fill:#000" class="net_29 width_1"/><line x1="284" x2="299.3333333333333" y1="204.5" y2="204.5" class="net_29 width_1" style="stroke-width: 1"/><line x1="330" x2="340" y1="264.5" y2="264.5" class="net_42 width_1" style="stroke-width: 1"/><line x1="340" x2="340" y1="264.5" y2="22" class="net_42 width_1" style="stroke-width: 1"/><circle cx="340" cy="264.5" r="2" style="fill:#000" class="net_42 width_1"/><line x1="340" x2="370.3333333333333" y1="22" y2="22" class="net_42 width_1" style="stroke-width: 1"/><line x1="330" x2="340" y1="264.5" y2="264.5" class="net_42 width_1" style="stroke-width: 1"/><line x1="340" x2="340" y1="264.5" y2="109.5" class="net_42 width_1" style="stroke-width: 1"/><circle cx="340" cy="109.5" r="2" style="fill:#000" class="net_42 width_1"/><line x1="340" x2="370.3333333333333" y1="109.5" y2="109.5" class="net_42 width_1" style="stroke-width: 1"/><line x1="330" x2="411" y1="264.5" y2="264.5" class="net_42 width_1" style="stroke-width: 1"/><line x1="411" x2="411" y1="264.5" y2="139.5" class="net_42 width_1" style="stroke-width: 1"/><circle cx="411" cy="139.5" r="2" style="fill:#000" class="net_42 width_1"/><line x1="411" x2="447.3333333333333" y1="139.5" y2="139.5" class="net_42 width_1" style="stroke-width: 1"/><line x1="330" x2="411" y1="264.5" y2="264.5" class="net_42 width_1" style="stroke-width: 1"/><line x1="411" x2="411" y1="264.5" y2="52" class="net_42 width_1" style="stroke-width: 1"/><line x1="411" x2="447.3333333333333" y1="52" y2="52" class="net_42 width_1" style="stroke-width: 1"/><line x1="330" x2="350" y1="129.5" y2="129.5" class="net_43 width_1" style="stroke-width: 1"/><line x1="350" x2="350" y1="129.5" y2="42" class="net_43 width_1" style="stroke-width: 1"/><circle cx="350" cy="129.5" r="2" style="fill:#000" class="net_43 width_1"/><line x1="350" x2="370.3333333333333" y1="42" y2="42" class="net_43 width_1" style="stroke-width: 1"/><line x1="330" x2="370.3333333333333" y1="129.5" y2="129.5" class="net_43 width_1" style="stroke-width: 1"/><line x1="329.3333333333333" x2="380.3333333333333" y1="62" y2="62" class="net_30 width_1" style="stroke-width: 1"/><line x1="380.3333333333333" x2="380.3333333333333" y1="62" y2="47" class="net_30 width_1" style="stroke-width: 1"/><line x1="258" x2="274" y1="409.5" y2="409.5" class="net_12,13,14,15,16 width_5" style="stroke-width: 2"/><line x1="274" x2="274" y1="409.5" y2="313.5" class="net_12,13,14,15,16 width_5" style="stroke-width: 2"/><circle cx="274" cy="409.5" r="3" style="fill:#000" class="net_12,13,14,15,16 width_5"/><line x1="274" x2="370" y1="313.5" y2="313.5" class="net_12,13,14,15,16 width_5" style="stroke-width: 2"/><line x1="258" x2="274" y1="409.5" y2="409.5" class="net_12,13,14,15,16 width_5" style="stroke-width: 2"/><line x1="274" x2="274" y1="409.5" y2="469.5" class="net_12,13,14,15,16 width_5" style="stroke-width: 2"/><line x1="274" x2="442.3333333333333" y1="469.5" y2="469.5" class="net_12,13,14,15,16 width_5" style="stroke-width: 2"/><line x1="258" x2="442.3333333333333" y1="409.5" y2="409.5" class="net_12,13,14,15,16 width_5" style="stroke-width: 2"/><line x1="398" x2="437" y1="321" y2="321" class="net_32 width_1" style="stroke-width: 1"/><line x1="395" x2="411" y1="388.5" y2="388.5" class="net_17 width_1" style="stroke-width: 1"/><line x1="411" x2="411" y1="388.5" y2="336" class="net_17 width_1" style="stroke-width: 1"/><line x1="411" x2="437" y1="336" y2="336" class="net_17 width_1" style="stroke-width: 1"/><line x1="107" x2="123" y1="501.5" y2="501.5" class="net_7,8,9,10,11 width_5" style="stroke-width: 2"/><line x1="123" x2="123" y1="501.5" y2="518.5" class="net_7,8,9,10,11 width_5" style="stroke-width: 2"/><line x1="123" x2="421" y1="518.5" y2="518.5" class="net_7,8,9,10,11 width_5" style="stroke-width: 2"/><line x1="421" x2="421" y1="518.5" y2="484.5" class="net_7,8,9,10,11 width_5" style="stroke-width: 2"/><circle cx="123" cy="501.5" r="3" style="fill:#000" class="net_7,8,9,10,11 width_5"/><line x1="421" x2="442.3333333333333" y1="484.5" y2="484.5" class="net_7,8,9,10,11 width_5" style="stroke-width: 2"/><line x1="107" x2="218" y1="501.5" y2="501.5" class="net_7,8,9,10,11 width_5" style="stroke-width: 2"/><line x1="218" x2="218" y1="501.5" y2="197" class="net_7,8,9,10,11 width_5" style="stroke-width: 2"/><line x1="218" x2="233.66666666666666" y1="197" y2="197" class="net_7,8,9,10,11 width_5" style="stroke-width: 2"/><line x1="465.3333333333333" x2="502" y1="477" y2="477" class="net_34 width_1" style="stroke-width: 1"/><line x1="467" x2="487" y1="328.5" y2="328.5" class="net_33 width_1" style="stroke-width: 1"/><line x1="487" x2="487" y1="328.5" y2="492" class="net_33 width_1" style="stroke-width: 1"/><circle cx="487" cy="328.5" r="2" style="fill:#000" class="net_33 width_1"/><line x1="487" x2="502" y1="492" y2="492" class="net_33 width_1" style="stroke-width: 1"/><line x1="467" x2="502" y1="328.5" y2="328.5" class="net_33 width_1" style="stroke-width: 1"/><line x1="453.3333333333333" x2="572" y1="129.5" y2="129.5" class="net_36,42 width_2" style="stroke-width: 2"/><line x1="467" x2="477" y1="204" y2="204" class="net_45,46 width_2" style="stroke-width: 2"/><line x1="477" x2="477" y1="204" y2="224" class="net_45,46 width_2" style="stroke-width: 2"/><line x1="477" x2="562" y1="224" y2="224" class="net_45,46 width_2" style="stroke-width: 2"/><line x1="562" x2="562" y1="224" y2="149.5" class="net_45,46 width_2" style="stroke-width: 2"/><circle cx="477" cy="204" r="3" style="fill:#000" class="net_45,46 width_2"/><line x1="562" x2="572" y1="149.5" y2="149.5" class="net_45,46 width_2" style="stroke-width: 2"/><line x1="467" x2="542" y1="204" y2="204" class="net_45,46 width_2" style="stroke-width: 2"/><line x1="542" x2="542" y1="204" y2="62" class="net_45,46 width_2" style="stroke-width: 2"/><line x1="542" x2="572" y1="62" y2="62" class="net_45,46 width_2" style="stroke-width: 2"/><line x1="532" x2="585" y1="484.5" y2="484.5" class="net_35 width_1" style="stroke-width: 1"/><line x1="585" x2="585" y1="484.5" y2="157.5" class="net_35 width_1" style="stroke-width: 1"/><line x1="178" x2="230" y1="62" y2="62" class="net_37 width_1" style="stroke-width: 1"/><line x1="178" x2="188" y1="129.5" y2="129.5" class="net_23 width_1" style="stroke-width: 1"/><line x1="188" x2="188" y1="129.5" y2="77" class="net_23 width_1" style="stroke-width: 1"/><line x1="188" x2="230" y1="77" y2="77" class="net_23 width_1" style="stroke-width: 1"/><line x1="256.66666666666663" x2="299.3333333333333" y1="189.5" y2="189.5" class="net_38 width_1" style="stroke-width: 1"/><line x1="329.3333333333333" x2="380.3333333333333" y1="197" y2="197" class="net_39 width_1" style="stroke-width: 1"/><line x1="380.3333333333333" x2="380.3333333333333" y1="197" y2="134.5" class="net_39 width_1" style="stroke-width: 1"/><line x1="465.3333333333333" x2="477" y1="417" y2="417" class="net_40 width_1" style="stroke-width: 1"/><line x1="477" x2="477" y1="417" y2="313.5" class="net_40 width_1" style="stroke-width: 1"/><line x1="477" x2="502" y1="313.5" y2="313.5" class="net_40 width_1" style="stroke-width: 1"/><line x1="453.3333333333333" x2="572" y1="42" y2="42" class="net_31,42 width_2" style="stroke-width: 2"/><line x1="532" x2="552" y1="321" y2="321" class="net_41 width_1" style="stroke-width: 1"/><line x1="552" x2="552" y1="321" y2="82" class="net_41 width_1" style="stroke-width: 1"/><line x1="552" x2="585" y1="82" y2="82" class="net_41 width_1" style="stroke-width: 1"/><line x1="585" x2="585" y1="82" y2="70" class="net_41 width_1" style="stroke-width: 1"/><line x1="597.5" x2="671.5" y1="52" y2="52" class="net_24,25 width_2" style="stroke-width: 2"/><line x1="597.5" x2="671.5" y1="139.5" y2="139.5" class="net_26,27 width_2" style="stroke-width: 2"/><line x1="390.3333333333333" x2="447.3333333333333" y1="119.5" y2="119.5" class="net_36 width_1" style="stroke-width: 1"/><line x1="390.3333333333333" x2="447.3333333333333" y1="32" y2="32" class="net_31 width_1" style="stroke-width: 1"/><rect x="94" y="177" width="16" height="9" class="net_18,19,20,21,22 width_5 busLabel_5" style="fill: white; stroke: none"/><text x="93" y="185" class="net_18,19,20,21,22 width_5 busLabel_5">/5/</text><rect x="94" y="177" width="16" height="9" class="net_18,19,20,21,22 width_5 busLabel_5" style="fill: white; stroke: none"/><text x="93" y="185" class="net_18,19,20,21,22 width_5 busLabel_5">/5/</text><rect x="94" y="177" width="16" height="9" class="net_18,19,20,21,22 width_5 busLabel_5" style="fill: white; stroke: none"/><text x="93" y="185" class="net_18,19,20,21,22 width_5 busLabel_5">/5/</text><rect x="245" y="481.5" width="16" height="9" class="net_2,3,4,5,6 width_5 busLabel_5" style="fill: white; stroke: none"/><text x="244" y="489.5" class="net_2,3,4,5,6 width_5 busLabel_5">/5/</text><rect x="245" y="481.5" width="16" height="9" class="net_2,3,4,5,6 width_5 busLabel_5" style="fill: white; stroke: none"/><text x="244" y="489.5" class="net_2,3,4,5,6 width_5 busLabel_5">/5/</text><rect x="313.5" y="404.5" width="16" height="9" class="net_12,13,14,15,16 width_5 busLabel_5" style="fill: white; stroke: none"/><text x="312.5" y="412.5" class="net_12,13,14,15,16 width_5 busLabel_5">/5/</text><rect x="313.5" y="404.5" width="16" height="9" class="net_12,13,14,15,16 width_5 busLabel_5" style="fill: white; stroke: none"/><text x="312.5" y="412.5" class="net_12,13,14,15,16 width_5 busLabel_5">/5/</text><rect x="313.5" y="404.5" width="16" height="9" class="net_12,13,14,15,16 width_5 busLabel_5" style="fill: white; stroke: none"/><text x="312.5" y="412.5" class="net_12,13,14,15,16 width_5 busLabel_5">/5/</text><rect x="162" y="496.5" width="16" height="9" class="net_7,8,9,10,11 width_5 busLabel_5" style="fill: white; stroke: none"/><text x="161" y="504.5" class="net_7,8,9,10,11 width_5 busLabel_5">/5/</text><rect x="162" y="496.5" width="16" height="9" class="net_7,8,9,10,11 width_5 busLabel_5" style="fill: white; stroke: none"/><text x="161" y="504.5" class="net_7,8,9,10,11 width_5 busLabel_5">/5/</text><rect x="516" y="124.5" width="16" height="9" class="net_36,42 width_2 busLabel_2" style="fill: white; stroke: none"/><text x="515" y="132.5" class="net_36,42 width_2 busLabel_2">/2/</text><rect x="516" y="199" width="16" height="9" class="net_45,46 width_2 busLabel_2" style="fill: white; stroke: none"/><text x="515" y="207" class="net_45,46 width_2 busLabel_2">/2/</text><rect x="516" y="199" width="16" height="9" class="net_45,46 width_2 busLabel_2" style="fill: white; stroke: none"/><text x="515" y="207" class="net_45,46 width_2 busLabel_2">/2/</text><rect x="516" y="37" width="16" height="9" class="net_31,42 width_2 busLabel_2" style="fill: white; stroke: none"/><text x="515" y="45" class="net_31,42 width_2 busLabel_2">/2/</text><rect x="633.5" y="47" width="16" height="9" class="net_24,25 width_2 busLabel_2" style="fill: white; stroke: none"/><text x="632.5" y="55" class="net_24,25 width_2 busLabel_2">/2/</text><rect x="633.5" y="134.5" width="16" height="9" class="net_26,27 width_2 busLabel_2" style="fill: white; stroke: none"/><text x="632.5" y="142.5" class="net_26,27 width_2 busLabel_2">/2/</text></svg>