<svg xmlns="http://www.w3.org/2000/svg" xmlns:xlink="http://www.w3.org/1999/xlink" xmlns:s="https://github.com/nturley/netlistsvg" width="1051" height="243"><style>svg {
  stroke:#000;
  fill:none;
}
text {
  fill:#000;
  stroke:none;
  font-size:10px;
  font-weight: bold;
  font-family: "Courier New", monospace;
}
line {
    stroke-linecap: round;
}
.nodelabel {
  text-anchor: middle;
}
.inputPortLabel {
  text-anchor: end;
}
.splitjoinBody {
  fill:#000;
}</style><g s:type="dff-bus" transform="translate(888,187)" s:width="34" s:height="44" id="cell_$procdff$12"><s:alias val="$dff-bus"/><s:alias val="$_DFF_-bus"/><s:alias val="$_DFF_P_-bus"/><s:alias val="adff-bus"/><s:alias val="$adff-bus"/><s:alias val="$_DFF_-bus"/><s:alias val="$_DFF_P_-bus"/><s:alias val="sdff-bus"/><s:alias val="$sdff-bus"/><s:alias val="$_DFF_-bus"/><s:alias val="$_DFF_P_-bus"/><rect width="30" height="40" x="0" y="0" fill="#ffffff" class="cell_$procdff$12"/><path d="M0,35 L5,30 L0,25" fill="#ffffff" class="cell_$procdff$12"/><path d="M30,2 L32,2 L32,42 L2,42 L2,40" fill="#ffffff" class="cell_$procdff$12"/><path d="M32,4 L34,4 L34,44 L4,44 L4,42" fill="#ffffff" class="cell_$procdff$12"/><g s:x="35" s:y="10" s:pid="Q"/><g s:x="-1" s:y="30" s:pid="CLK"/><g s:x="-1" s:y="30" s:pid="C"/><g s:x="-1" s:y="10" s:pid="D"/><g s:x="17" s:y="44" s:pid="ARST"/><g s:x="17" s:y="44" s:pid="SRST"/></g><g s:type="mux-bus" transform="translate(788.5,83.5)" s:width="24" s:height="40" id="cell_$procmux$7"><s:alias val="$pmux-bus"/><s:alias val="$mux-bus"/><s:alias val="$_MUX_-bus"/><path d="M0,0 L20,10 L20,30 L0,40 Z" fill="#ffffff" class="cell_$procmux$7"/><path d="M4,2 L4,0 L22,9 L22,31 L4,40 L4,38" fill="#ffffff" class="cell_$procmux$7"/><path d="M8,2 L8,0 L24,8 L24,32 L8,40 L8,38" fill="#ffffff" class="cell_$procmux$7"/><text x="5" y="32" class="nodelabel cell_$procmux$7" s:attribute="">1</text><text x="5" y="13" class="nodelabel cell_$procmux$7" s:attribute="">0</text><g s:x="-1" s:y="10" s:pid="A"/><g s:x="-1" s:y="30" s:pid="B"/><g s:x="12" s:y="38" s:pid="S"/><g s:x="24.5" s:y="20" s:pid="Y"/></g><a xlink:href="../building_blocks-shift_register/shift_register_v.svg"><g s:type="sub_odd" transform="translate(211,22)" s:width="30" s:height="40" id="cell_inner"><text x="195.25" y="-4" class="nodelabel cell_inner" s:attribute="ref">shift_register</text><rect width="390.5" height="177.5" s:generic="body" fill="#e9e9e9" rx="4" class="cell_inner" pointer-events="all"/><g s:type="dff-bus" transform="translate(219.5,48.5)" s:width="34" s:height="44" id="cell_$procdff$13"><s:alias val="$dff-bus"/><s:alias val="$_DFF_-bus"/><s:alias val="$_DFF_P_-bus"/><s:alias val="adff-bus"/><s:alias val="$adff-bus"/><s:alias val="$_DFF_-bus"/><s:alias val="$_DFF_P_-bus"/><s:alias val="sdff-bus"/><s:alias val="$sdff-bus"/><s:alias val="$_DFF_-bus"/><s:alias val="$_DFF_P_-bus"/><rect width="30" height="40" x="0" y="0" fill="#ffffff" class="cell_$procdff$13"/><path d="M0,35 L5,30 L0,25" fill="#ffffff" class="cell_$procdff$13"/><path d="M30,2 L32,2 L32,42 L2,42 L2,40" fill="#ffffff" class="cell_$procdff$13"/><path d="M32,4 L34,4 L34,44 L4,44 L4,42" fill="#ffffff" class="cell_$procdff$13"/><g s:x="35" s:y="10" s:pid="Q"/><g s:x="-1" s:y="30" s:pid="CLK"/><g s:x="-1" s:y="30" s:pid="C"/><g s:x="-1" s:y="10" s:pid="D"/><g s:x="17" s:y="44" s:pid="ARST"/><g s:x="17" s:y="44" s:pid="SRST"/></g><g s:type="mux-bus" transform="translate(120,38.5)" s:width="24" s:height="40" id="cell_$procmux$10"><s:alias val="$pmux-bus"/><s:alias val="$mux-bus"/><s:alias val="$_MUX_-bus"/><path d="M0,0 L20,10 L20,30 L0,40 Z" fill="#ffffff" class="cell_$procmux$10"/><path d="M4,2 L4,0 L22,9 L22,31 L4,40 L4,38" fill="#ffffff" class="cell_$procmux$10"/><path d="M8,2 L8,0 L24,8 L24,32 L8,40 L8,38" fill="#ffffff" class="cell_$procmux$10"/><text x="5" y="32" class="nodelabel cell_$procmux$10" s:attribute="">1</text><text x="5" y="13" class="nodelabel cell_$procmux$10" s:attribute="">0</text><g s:x="-1" s:y="10" s:pid="A"/><g s:x="-1" s:y="30" s:pid="B"/><g s:x="12" s:y="38" s:pid="S"/><g s:x="24.5" s:y="20" s:pid="Y"/></g><g s:type="join" transform="translate(39,28)" s:width="4" s:height="40" id="cell_$join$,20,21,22,23,24,25,26,27,28,29,30,31,32,33,34,35,"><rect width="5" height="40" class="splitjoinBody" s:generic="body"/><s:alias val="$_join_"/><g s:x="5" s:y="20" s:pid="out"/><g transform="translate(0,10)" s:x="0" s:y="10" s:pid="in0"><text x="-3" y="-4" class="inputPortLabel">0</text></g><g transform="translate(0,30)" s:x="0" s:y="10" s:pid="in0"><text x="-3" y="-4" class="inputPortLabel">1:15</text></g></g><g s:type="split" transform="translate(328.5,38)" s:width="5" s:height="40" id="cell_$split$,21,22,23,24,25,26,27,28,29,30,31,32,33,34,35,36,"><rect width="5" height="40" class="splitjoinBody" s:generic="body"/><s:alias val="$_split_"/><g s:x="0" s:y="20" s:pid="in"/><g transform="translate(4,10)" s:x="4" s:y="10" s:pid="out0"><text x="5" y="-4">0:14</text></g><g transform="translate(4,30)" s:x="4" s:y="10" s:pid="out0"><text x="5" y="-4">15</text></g></g><line x1="0" x2="193.5" y1="153" y2="153" class="net_2"/><line x1="193.5" x2="193.5" y1="153" y2="78.5" class="net_2"/><line x1="193.5" x2="218.5" y1="78.5" y2="78.5" class="net_2"/><line x1="144.5" x2="218.5" y1="58.5" y2="58.5" class="net_37,38,39,40,41,42,43,44,45,46,47,48,49,50,51,52"/><line x1="45" x2="119" y1="48.5" y2="48.5" class="net_20,21,22,23,24,25,26,27,28,29,30,31,32,33,34,35"/><line x1="0" x2="94" y1="107" y2="107" class="net_4,5,6,7,8,9,10,11,12,13,14,15,16,17,18,19"/><line x1="94" x2="94" y1="107" y2="68.5" class="net_4,5,6,7,8,9,10,11,12,13,14,15,16,17,18,19"/><line x1="94" x2="119" y1="68.5" y2="68.5" class="net_4,5,6,7,8,9,10,11,12,13,14,15,16,17,18,19"/><line x1="0" x2="132" y1="130" y2="130" class="net_3"/><line x1="132" x2="132" y1="130" y2="76.5" class="net_3"/><line x1="254.5" x2="264.5" y1="58.5" y2="58.5" class="net_21,22,23,24,25,26,27,28,29,30,31,32,33,34,35,36"/><line x1="264.5" x2="264.5" y1="58.5" y2="91.5" class="net_21,22,23,24,25,26,27,28,29,30,31,32,33,34,35,36"/><circle cx="264.5" cy="58.5" r="2" style="fill:#000" class="net_21,22,23,24,25,26,27,28,29,30,31,32,33,34,35,36"/><line x1="264.5" x2="390.5" y1="91.5" y2="91.5" class="net_21,22,23,24,25,26,27,28,29,30,31,32,33,34,35,36"/><line x1="254.5" x2="328.5" y1="58.5" y2="58.5" class="net_21,22,23,24,25,26,27,28,29,30,31,32,33,34,35,36"/><line x1="333.5" x2="390.5" y1="68.5" y2="68.5" class="net_36"/><line x1="0" x2="39" y1="38.5" y2="38.5" class="net_20"/><line x1="333.5" x2="368.5" y1="48.5" y2="48.5" class="net_21,22,23,24,25,26,27,28,29,30,31,32,33,34,35"/><line x1="368.5" x2="368.5" y1="48.5" y2="16" class="net_21,22,23,24,25,26,27,28,29,30,31,32,33,34,35"/><line x1="368.5" x2="22" y1="16" y2="16" class="net_21,22,23,24,25,26,27,28,29,30,31,32,33,34,35"/><line x1="22" x2="22" y1="16" y2="58.5" class="net_21,22,23,24,25,26,27,28,29,30,31,32,33,34,35"/><line x1="22" x2="39" y1="58.5" y2="58.5" class="net_21,22,23,24,25,26,27,28,29,30,31,32,33,34,35"/><g transform="translate(-1,152.5)" s:x="0" s:y="10" s:pid="in0" id="port_inner~clk"><text x="-3" y="-4" class="inputPortLabel cell_inner">clk</text></g><g transform="translate(-1,129.5)" s:x="0" s:y="10" s:pid="in0" id="port_inner~load"><text x="-3" y="-4" class="inputPortLabel cell_inner">load</text></g><g transform="translate(-1,106.5)" s:x="0" s:y="10" s:pid="in0" id="port_inner~load_data"><text x="-3" y="-4" class="inputPortLabel cell_inner">load_data</text></g><g transform="translate(-1,38)" s:x="0" s:y="10" s:pid="in0" id="port_inner~serial_in"><text x="-3" y="-4" class="inputPortLabel cell_inner">serial_in</text></g><g transform="translate(390.5,91)" s:x="30" s:y="10" s:pid="out0" id="port_inner~parallel_out"><text x="5" y="-4" style="fill:#000; stroke:none" class="cell_inner">parallel_out</text></g><g transform="translate(390.5,68)" s:x="30" s:y="10" s:pid="out0" id="port_inner~serial_out"><text x="5" y="-4" style="fill:#000; stroke:none" class="cell_inner">serial_out</text></g></g></a><g s:type="inputExt" transform="translate(78,207)" s:width="30" s:height="20" id="cell_inClock"><text x="15" y="-4" class="nodelabel cell_inClock" s:attribute="ref">inClock</text><s:alias val="$_inputExt_"/><path d="M0,0 L0,20 L15,20 L30,10 L15,0 Z" fill="#ffffff" class="cell_inClock"/><g s:x="30" s:y="10" s:pid="Y"/></g><g s:type="inputExt" transform="translate(78,32)" s:width="30" s:height="20" id="cell_inData"><text x="15" y="-4" class="nodelabel cell_inData" s:attribute="ref">inData</text><s:alias val="$_inputExt_"/><path d="M0,0 L0,20 L15,20 L30,10 L15,0 Z" fill="#ffffff" class="cell_inData"/><g s:x="30" s:y="10" s:pid="Y"/></g><g s:type="inputExt" transform="translate(710.5,187)" s:width="30" s:height="20" id="cell_inPrint"><text x="15" y="-4" class="nodelabel cell_inPrint" s:attribute="ref">inPrint</text><s:alias val="$_inputExt_"/><path d="M0,0 L0,20 L15,20 L30,10 L15,0 Z" fill="#ffffff" class="cell_inPrint"/><g s:x="30" s:y="10" s:pid="Y"/></g><g s:type="outputExt" transform="translate(997,187)" s:width="30" s:height="20" id="cell_outData"><text x="15" y="-4" class="nodelabel cell_outData" s:attribute="ref">outData</text><s:alias val="$_outputExt_"/><path d="M30,0 L30,20 L15,20 L0,10 L15,0 Z" fill="#ffffff" class="cell_outData"/><g s:x="0" s:y="10" s:pid="A"/></g><g s:type="constant" transform="translate(78,142)" s:width="30" s:height="20" id="cell_0"><text x="15" y="-4" class="nodelabel cell_0" s:attribute="ref">0</text><s:alias val="$_constant_"/><rect width="30" height="20" fill="#ffffff" class="cell_0"/><g s:x="31" s:y="10" s:pid="Y"/></g><g s:type="constant" transform="translate(12,81)" s:width="30" s:height="20" id="cell_0000000000000000"><text x="15" y="-4" class="nodelabel cell_0000000000000000" s:attribute="ref">0x0</text><s:alias val="$_constant_"/><rect width="30" height="20" fill="#ffffff" class="cell_0000000000000000"/><g s:x="31" s:y="10" s:pid="Y"/></g><line x1="108" x2="887" y1="217" y2="217" class="net_2 width_1" style="stroke-width: 1"/><line x1="108" x2="130" y1="217" y2="217" class="net_2 width_1" style="stroke-width: 1"/><line x1="130" x2="130" y1="217" y2="175" class="net_2 width_1" style="stroke-width: 1"/><circle cx="130" cy="217" r="2" style="fill:#000" class="net_2 width_1"/><line x1="130" x2="210" y1="175" y2="175" class="net_2 width_1" style="stroke-width: 1"/><line x1="813" x2="862" y1="103.5" y2="103.5" class="net_21,22,23,24,25,26,27,28,29,30,31,32,33,34,35,36 width_16" style="stroke-width: 2"/><line x1="862" x2="862" y1="103.5" y2="197" class="net_21,22,23,24,25,26,27,28,29,30,31,32,33,34,35,36 width_16" style="stroke-width: 2"/><line x1="862" x2="887" y1="197" y2="197" class="net_21,22,23,24,25,26,27,28,29,30,31,32,33,34,35,36 width_16" style="stroke-width: 2"/><line x1="923" x2="933" y1="197" y2="197" class="net_5,6,7,8,9,10,11,12,13,14,15,16,17,18,19,20 width_16" style="stroke-width: 2"/><line x1="933" x2="933" y1="197" y2="73.5" class="net_5,6,7,8,9,10,11,12,13,14,15,16,17,18,19,20 width_16" style="stroke-width: 2"/><line x1="933" x2="762.5" y1="73.5" y2="73.5" class="net_5,6,7,8,9,10,11,12,13,14,15,16,17,18,19,20 width_16" style="stroke-width: 2"/><line x1="762.5" x2="762.5" y1="73.5" y2="93.5" class="net_5,6,7,8,9,10,11,12,13,14,15,16,17,18,19,20 width_16" style="stroke-width: 2"/><circle cx="933" cy="197" r="3" style="fill:#000" class="net_5,6,7,8,9,10,11,12,13,14,15,16,17,18,19,20 width_16"/><line x1="762.5" x2="787.5" y1="93.5" y2="93.5" class="net_5,6,7,8,9,10,11,12,13,14,15,16,17,18,19,20 width_16" style="stroke-width: 2"/><line x1="923" x2="997" y1="197" y2="197" class="net_5,6,7,8,9,10,11,12,13,14,15,16,17,18,19,20 width_16" style="stroke-width: 2"/><line x1="602.5" x2="787.5" y1="113.5" y2="113.5" class="net_37,38,39,40,41,42,43,44,45,46,47,48,49,50,51,52 width_16" style="stroke-width: 2"/><line x1="740.5" x2="800.5" y1="197" y2="197" class="net_4 width_1" style="stroke-width: 1"/><line x1="800.5" x2="800.5" y1="197" y2="121.5" class="net_4 width_1" style="stroke-width: 1"/><line x1="109" x2="210" y1="152" y2="152" class="net_53 width_1" style="stroke-width: 1"/><line x1="43" x2="130" y1="91" y2="91" class="net_54,55,56,57,58,59,60,61,62,63,64,65,66,67,68,69 width_16" style="stroke-width: 2"/><line x1="130" x2="130" y1="91" y2="129" class="net_54,55,56,57,58,59,60,61,62,63,64,65,66,67,68,69 width_16" style="stroke-width: 2"/><line x1="130" x2="210" y1="129" y2="129" class="net_54,55,56,57,58,59,60,61,62,63,64,65,66,67,68,69 width_16" style="stroke-width: 2"/><line x1="108" x2="130" y1="42" y2="42" class="net_3 width_1" style="stroke-width: 1"/><line x1="130" x2="130" y1="42" y2="60.5" class="net_3 width_1" style="stroke-width: 1"/><line x1="130" x2="210" y1="60.5" y2="60.5" class="net_3 width_1" style="stroke-width: 1"/><rect x="849" y="98.5" width="22" height="9" class="net_21,22,23,24,25,26,27,28,29,30,31,32,33,34,35,36 width_16 busLabel_16" style="fill: white; stroke: none"/><text x="848" y="106.5" class="net_21,22,23,24,25,26,27,28,29,30,31,32,33,34,35,36 width_16 busLabel_16">/16/</text><rect x="959" y="192" width="22" height="9" class="net_5,6,7,8,9,10,11,12,13,14,15,16,17,18,19,20 width_16 busLabel_16" style="fill: white; stroke: none"/><text x="958" y="200" class="net_5,6,7,8,9,10,11,12,13,14,15,16,17,18,19,20 width_16 busLabel_16">/16/</text><rect x="959" y="192" width="22" height="9" class="net_5,6,7,8,9,10,11,12,13,14,15,16,17,18,19,20 width_16 busLabel_16" style="fill: white; stroke: none"/><text x="958" y="200" class="net_5,6,7,8,9,10,11,12,13,14,15,16,17,18,19,20 width_16 busLabel_16">/16/</text><rect x="730.5" y="108.5" width="22" height="9" class="net_37,38,39,40,41,42,43,44,45,46,47,48,49,50,51,52 width_16 busLabel_16" style="fill: white; stroke: none"/><text x="729.5" y="116.5" class="net_37,38,39,40,41,42,43,44,45,46,47,48,49,50,51,52 width_16 busLabel_16">/16/</text><rect x="98" y="86" width="22" height="9" class="net_54,55,56,57,58,59,60,61,62,63,64,65,66,67,68,69 width_16 busLabel_16" style="fill: white; stroke: none"/><text x="97" y="94" class="net_54,55,56,57,58,59,60,61,62,63,64,65,66,67,68,69 width_16 busLabel_16">/16/</text></svg>