<svg xmlns="http://www.w3.org/2000/svg" xmlns:xlink="http://www.w3.org/1999/xlink" xmlns:s="https://github.com/nturley/netlistsvg" width="359" height="595">
  <style>svg {
    stroke:#000;
    fill:none;
  }
  text {
    fill:#000;
    stroke:none;
    font-size:10px;
    font-weight: bold;
    font-family: "Courier New", monospace;
  }
  .nodelabel {
    text-anchor: middle;
  }
  .inputPortLabel {
    text-anchor: end;
  }
  .splitjoinBody {
    fill:#000;
  }</style>
  <g s:type="and" transform="translate(82,558)" s:width="30" s:height="25" id="cell_:10">
    <s:alias val="$and"/>
    <s:alias val="$logic_and"/>
    <s:alias val="$_AND_"/>
    <path d="M0,0 L0,25 L15,25 A15 12.5 0 0 0 15,0 Z" class="cell_:10"/>
    <g s:x="0" s:y="5" s:pid="A"/>
    <g s:x="0" s:y="20" s:pid="B"/>
    <g s:x="30" s:y="12.5" s:pid="Y"/>
  </g>
  <g s:type="mux" transform="translate(161.66666666666666,485.5)" s:width="20" s:height="40" id="cell_:13">
    <s:alias val="$pmux"/>
    <s:alias val="$mux"/>
    <s:alias val="$_MUX_"/>
    <path d="M0,0 L20,10 L20,30 L0,40 Z" class="cell_:13"/>
    <g s:x="0" s:y="10" s:pid="A"/>
    <g s:x="0" s:y="30" s:pid="B"/>
    <g s:x="10" s:y="35" s:pid="S"/>
    <g s:x="20" s:y="20" s:pid="Y"/>
  </g>
  <g s:type="mux" transform="translate(85.33333333333333,67)" s:width="20" s:height="40" id="cell_:29">
    <s:alias val="$pmux"/>
    <s:alias val="$mux"/>
    <s:alias val="$_MUX_"/>
    <path d="M0,0 L20,10 L20,30 L0,40 Z" class="cell_:29"/>
    <g s:x="0" s:y="10" s:pid="A"/>
    <g s:x="0" s:y="30" s:pid="B"/>
    <g s:x="10" s:y="35" s:pid="S"/>
    <g s:x="20" s:y="20" s:pid="Y"/>
  </g>
  <g s:type="generic" transform="translate(160,312)" s:width="30" s:height="40" id="cell_:35">
    <text x="15" y="-4" class="nodelabel cell_:35" s:attribute="ref">$dlatch</text>
    <rect width="30" height="40" s:generic="body" class="cell_:35"/>
    <g transform="translate(0,10)" s:x="0" s:y="10" s:pid="in0" id="port_:35~D">
      <text x="-3" y="-4" class="inputPortLabel cell_:35">D</text>
    </g>
    <g transform="translate(0,30)" s:x="0" s:y="10" s:pid="in0" id="port_:35~EN">
      <text x="-3" y="-4" class="inputPortLabel cell_:35">EN</text>
    </g>
    <g transform="translate(30,10)" s:x="30" s:y="10" s:pid="out0" id="port_:35~Q">
      <text x="5" y="-4" style="fill:#000; stroke:none" class="cell_:35">Q</text>
    </g>
  </g>
  <g s:type="dff" transform="translate(158.33333333333334,227)" s:width="30" s:height="40" id="cell_:36">
    <s:alias val="$dff"/>
    <s:alias val="$_DFF_"/>
    <s:alias val="$_DFF_P_"/>
    <rect width="30" height="40" x="0" y="0" class="cell_:36"/>
    <path d="M0,35 L5,30 L0,25" class="cell_:36"/>
    <g s:x="30" s:y="10" s:pid="Q"/>
    <g s:x="0" s:y="30" s:pid="CLK"/>
    <g s:x="0" s:y="30" s:pid="C"/>
    <g s:x="0" s:y="10" s:pid="D"/>
  </g>
  <g s:type="dff" transform="translate(158.33333333333334,152)" s:width="30" s:height="40" id="cell_:37">
    <s:alias val="$dff"/>
    <s:alias val="$_DFF_"/>
    <s:alias val="$_DFF_P_"/>
    <rect width="30" height="40" x="0" y="0" class="cell_:37"/>
    <path d="M0,35 L5,30 L0,25" class="cell_:37"/>
    <g s:x="30" s:y="10" s:pid="Q"/>
    <g s:x="0" s:y="30" s:pid="CLK"/>
    <g s:x="0" s:y="30" s:pid="C"/>
    <g s:x="0" s:y="10" s:pid="D"/>
  </g>
  <g s:type="dff" transform="translate(158.33333333333334,77)" s:width="30" s:height="40" id="cell_:38">
    <s:alias val="$dff"/>
    <s:alias val="$_DFF_"/>
    <s:alias val="$_DFF_P_"/>
    <rect width="30" height="40" x="0" y="0" class="cell_:38"/>
    <path d="M0,35 L5,30 L0,25" class="cell_:38"/>
    <g s:x="30" s:y="10" s:pid="Q"/>
    <g s:x="0" s:y="30" s:pid="CLK"/>
    <g s:x="0" s:y="30" s:pid="C"/>
    <g s:x="0" s:y="10" s:pid="D"/>
  </g>
  <g s:type="generic" transform="translate(160,400)" s:width="30" s:height="40" id="cell_:39">
    <text x="15" y="-4" class="nodelabel cell_:39" s:attribute="ref">$dlatch</text>
    <rect width="30" height="40" s:generic="body" class="cell_:39"/>
    <g transform="translate(0,10)" s:x="0" s:y="10" s:pid="in0" id="port_:39~D">
      <text x="-3" y="-4" class="inputPortLabel cell_:39">D</text>
    </g>
    <g transform="translate(0,30)" s:x="0" s:y="10" s:pid="in0" id="port_:39~EN">
      <text x="-3" y="-4" class="inputPortLabel cell_:39">EN</text>
    </g>
    <g transform="translate(30,10)" s:x="30" s:y="10" s:pid="out0" id="port_:39~Q">
      <text x="5" y="-4" style="fill:#000; stroke:none" class="cell_:39">Q</text>
    </g>
  </g>
  <g s:type="inputExt" transform="translate(12,332.5)" s:width="30" s:height="20" id="cell_a">
    <text x="15" y="-4" class="nodelabel cell_a" s:attribute="ref">a</text>
    <s:alias val="$_inputExt_"/>
    <path d="M0,0 L0,20 L15,20 L30,10 L15,0 Z" class="cell_a"/>
    <g s:x="28" s:y="10" s:pid="Y"/>
  </g>
  <g s:type="inputExt" transform="translate(12,553)" s:width="30" s:height="20" id="cell_b">
    <text x="15" y="-4" class="nodelabel cell_b" s:attribute="ref">b</text>
    <s:alias val="$_inputExt_"/>
    <path d="M0,0 L0,20 L15,20 L30,10 L15,0 Z" class="cell_b"/>
    <g s:x="28" s:y="10" s:pid="Y"/>
  </g>
  <g s:type="inputExt" transform="translate(82,172)" s:width="30" s:height="20" id="cell_clk">
    <text x="15" y="-4" class="nodelabel cell_clk" s:attribute="ref">clk</text>
    <s:alias val="$_inputExt_"/>
    <path d="M0,0 L0,20 L15,20 L30,10 L15,0 Z" class="cell_clk"/>
    <g s:x="28" s:y="10" s:pid="Y"/>
  </g>
  <g s:type="inputExt" transform="translate(12,22)" s:width="30" s:height="20" id="cell_rst">
    <text x="15" y="-4" class="nodelabel cell_rst" s:attribute="ref">rst</text>
    <s:alias val="$_inputExt_"/>
    <path d="M0,0 L0,20 L15,20 L30,10 L15,0 Z" class="cell_rst"/>
    <g s:x="28" s:y="10" s:pid="Y"/>
  </g>
  <g s:type="inputExt" transform="translate(82,420.5)" s:width="30" s:height="20" id="cell_en">
    <text x="15" y="-4" class="nodelabel cell_en" s:attribute="ref">en</text>
    <s:alias val="$_inputExt_"/>
    <path d="M0,0 L0,20 L15,20 L30,10 L15,0 Z" class="cell_en"/>
    <g s:x="28" s:y="10" s:pid="Y"/>
  </g>
  <g s:type="outputExt" transform="translate(233,560.5)" s:width="30" s:height="20" id="cell_comb_op_and">
    <text x="15" y="-4" class="nodelabel cell_comb_op_and" s:attribute="ref">comb_op_and</text>
    <s:alias val="$_outputExt_"/>
    <path d="M30,0 L30,20 L15,20 L0,10 L15,0 Z" class="cell_comb_op_and"/>
    <g s:x="0" s:y="10" s:pid="A"/>
  </g>
  <g s:type="outputExt" transform="translate(233,495.5)" s:width="30" s:height="20" id="cell_comb_proc_good_and">
    <text x="15" y="-4" class="nodelabel cell_comb_proc_good_and" s:attribute="ref">comb_proc_good_and</text>
    <s:alias val="$_outputExt_"/>
    <path d="M30,0 L30,20 L15,20 L0,10 L15,0 Z" class="cell_comb_proc_good_and"/>
    <g s:x="0" s:y="10" s:pid="A"/>
  </g>
  <g s:type="outputExt" transform="translate(233,312.5)" s:width="30" s:height="20" id="cell_comb_proc_latch_and">
    <text x="15" y="-4" class="nodelabel cell_comb_proc_latch_and" s:attribute="ref">comb_proc_latch_and</text>
    <s:alias val="$_outputExt_"/>
    <path d="M30,0 L30,20 L15,20 L0,10 L15,0 Z" class="cell_comb_proc_latch_and"/>
    <g s:x="0" s:y="10" s:pid="A"/>
  </g>
  <g s:type="outputExt" transform="translate(233,227)" s:width="30" s:height="20" id="cell_seq_no_init_a">
    <text x="15" y="-4" class="nodelabel cell_seq_no_init_a" s:attribute="ref">seq_no_init_a</text>
    <s:alias val="$_outputExt_"/>
    <path d="M30,0 L30,20 L15,20 L0,10 L15,0 Z" class="cell_seq_no_init_a"/>
    <g s:x="0" s:y="10" s:pid="A"/>
  </g>
  <g s:type="outputExt" transform="translate(233,152)" s:width="30" s:height="20" id="cell_seq_decl_init_a">
    <text x="15" y="-4" class="nodelabel cell_seq_decl_init_a" s:attribute="ref">seq_decl_init_a</text>
    <s:alias val="$_outputExt_"/>
    <path d="M30,0 L30,20 L15,20 L0,10 L15,0 Z" class="cell_seq_decl_init_a"/>
    <g s:x="0" s:y="10" s:pid="A"/>
  </g>
  <g s:type="outputExt" transform="translate(233,77)" s:width="30" s:height="20" id="cell_seq_sync_reset_a">
    <text x="15" y="-4" class="nodelabel cell_seq_sync_reset_a" s:attribute="ref">seq_sync_reset_a</text>
    <s:alias val="$_outputExt_"/>
    <path d="M30,0 L30,20 L15,20 L0,10 L15,0 Z" class="cell_seq_sync_reset_a"/>
    <g s:x="0" s:y="10" s:pid="A"/>
  </g>
  <g s:type="outputExt" transform="translate(233,400.5)" s:width="30" s:height="20" id="cell_latch_intentional_a">
    <text x="15" y="-4" class="nodelabel cell_latch_intentional_a" s:attribute="ref">latch_intentional_a</text>
    <s:alias val="$_outputExt_"/>
    <path d="M30,0 L30,20 L15,20 L0,10 L15,0 Z" class="cell_latch_intentional_a"/>
    <g s:x="0" s:y="10" s:pid="A"/>
  </g>
  <g s:type="constant" transform="translate(82,485.5)" s:width="30" s:height="20" id="cell_0">
    <text x="15" y="-4" class="nodelabel cell_0" s:attribute="ref">0</text>
    <s:alias val="$_constant_"/>
    <rect width="30" height="20" class="cell_0"/>
    <g s:x="30" s:y="10" s:pid="Y"/>
  </g>
  <g s:type="constant" transform="translate(12,87)" s:width="30" s:height="20" id="cell_1">
    <text x="15" y="-4" class="nodelabel cell_1" s:attribute="ref">1</text>
    <s:alias val="$_constant_"/>
    <rect width="30" height="20" class="cell_1"/>
    <g s:x="30" s:y="10" s:pid="Y"/>
  </g>
  <line x1="40" x2="82" y1="563" y2="563" class="net_3"/>
  <line x1="40" x2="72" y1="563" y2="563" class="net_3"/>
  <line x1="72" x2="72" y1="563" y2="322.5" class="net_3"/>
  <circle cx="72" cy="563" r="2" style="fill:#000" class="net_3"/>
  <line x1="72" x2="160" y1="322.5" y2="322.5" class="net_3"/>
  <line x1="40" x2="62" y1="342.5" y2="342.5" class="net_2"/>
  <line x1="62" x2="62" y1="342.5" y2="578" class="net_2"/>
  <circle cx="62" cy="342.5" r="2" style="fill:#000" class="net_2"/>
  <line x1="62" x2="82" y1="578" y2="578" class="net_2"/>
  <line x1="40" x2="62" y1="342.5" y2="342.5" class="net_2"/>
  <line x1="62" x2="62" y1="342.5" y2="77" class="net_2"/>
  <line x1="62" x2="85.33333333333333" y1="77" y2="77" class="net_2"/>
  <line x1="40" x2="160" y1="342.5" y2="342.5" class="net_2"/>
  <line x1="40" x2="62" y1="342.5" y2="342.5" class="net_2"/>
  <line x1="62" x2="62" y1="342.5" y2="237" class="net_2"/>
  <circle cx="62" cy="237" r="2" style="fill:#000" class="net_2"/>
  <line x1="62" x2="158.33333333333334" y1="237" y2="237" class="net_2"/>
  <line x1="40" x2="62" y1="342.5" y2="342.5" class="net_2"/>
  <line x1="62" x2="62" y1="342.5" y2="151" class="net_2"/>
  <line x1="62" x2="132" y1="151" y2="151" class="net_2"/>
  <line x1="132" x2="132" y1="151" y2="162" class="net_2"/>
  <circle cx="62" cy="151" r="2" style="fill:#000" class="net_2"/>
  <line x1="132" x2="158.33333333333334" y1="162" y2="162" class="net_2"/>
  <line x1="40" x2="122" y1="342.5" y2="342.5" class="net_2"/>
  <line x1="122" x2="122" y1="342.5" y2="410.5" class="net_2"/>
  <circle cx="122" cy="342.5" r="2" style="fill:#000" class="net_2"/>
  <line x1="122" x2="160" y1="410.5" y2="410.5" class="net_2"/>
  <line x1="112" x2="161.66666666666666" y1="495.5" y2="495.5" class="net_15"/>
  <line x1="42" x2="52" y1="97" y2="97" class="net_16"/>
  <line x1="52" x2="52" y1="97" y2="515.5" class="net_16"/>
  <circle cx="52" cy="97" r="2" style="fill:#000" class="net_16"/>
  <line x1="52" x2="161.66666666666666" y1="515.5" y2="515.5" class="net_16"/>
  <line x1="42" x2="85.33333333333333" y1="97" y2="97" class="net_16"/>
  <line x1="112" x2="122" y1="570.5" y2="570.5" class="net_7"/>
  <line x1="122" x2="122" y1="570.5" y2="560.5" class="net_7"/>
  <line x1="122" x2="171.66666666666666" y1="560.5" y2="560.5" class="net_7"/>
  <circle cx="122" cy="570.5" r="2" style="fill:#000" class="net_7"/>
  <line x1="171.66666666666666" x2="171.66666666666666" y1="560.5" y2="520.5" class="net_7"/>
  <line x1="112" x2="233" y1="570.5" y2="570.5" class="net_7"/>
  <line x1="40" x2="72" y1="32" y2="32" class="net_5"/>
  <line x1="72" x2="72" y1="32" y2="141" class="net_5"/>
  <line x1="72" x2="95.33333333333333" y1="141" y2="141" class="net_5"/>
  <line x1="95.33333333333333" x2="95.33333333333333" y1="141" y2="102" class="net_5"/>
  <line x1="110" x2="122" y1="182" y2="182" class="net_4"/>
  <line x1="122" x2="122" y1="182" y2="257" class="net_4"/>
  <circle cx="122" cy="182" r="2" style="fill:#000" class="net_4"/>
  <line x1="122" x2="158.33333333333334" y1="257" y2="257" class="net_4"/>
  <line x1="110" x2="158.33333333333334" y1="182" y2="182" class="net_4"/>
  <line x1="110" x2="122" y1="182" y2="182" class="net_4"/>
  <line x1="122" x2="122" y1="182" y2="107" class="net_4"/>
  <line x1="122" x2="158.33333333333334" y1="107" y2="107" class="net_4"/>
  <line x1="105.33333333333333" x2="158.33333333333334" y1="87" y2="87" class="net_14"/>
  <line x1="110" x2="160" y1="430.5" y2="430.5" class="net_6"/>
  <line x1="181.66666666666666" x2="233" y1="505.5" y2="505.5" class="net_8"/>
  <line x1="191" x2="233" y1="322.5" y2="322.5" class="net_9"/>
  <line x1="188.33333333333334" x2="233" y1="237" y2="237" class="net_10"/>
  <line x1="188.33333333333334" x2="233" y1="162" y2="162" class="net_11"/>
  <line x1="188.33333333333334" x2="233" y1="87" y2="87" class="net_12"/>
  <line x1="191" x2="233" y1="410.5" y2="410.5" class="net_13"/>
</svg>
