<svg xmlns="http://www.w3.org/2000/svg" xmlns:xlink="http://www.w3.org/1999/xlink" xmlns:s="https://github.com/nturley/netlistsvg" width="1669" height="417"><style>svg {
  stroke:#000;
  fill:none;
}
text {
  fill:#000;
  stroke:none;
  font-size:10px;
  font-weight: bold;
  font-family: "Courier New", monospace;
}
line {
    stroke-linecap: round;
}
.nodelabel {
  text-anchor: middle;
}
.inputPortLabel {
  text-anchor: end;
}
.splitjoinBody {
  fill:#000;
}</style><g s:type="dff-bus" transform="translate(263,246)" s:width="34" s:height="44" id="cell_$procdff$5665"><s:alias val="$dff-bus"/><s:alias val="$_DFF_-bus"/><s:alias val="$_DFF_P_-bus"/><s:alias val="adff-bus"/><s:alias val="$adff-bus"/><s:alias val="$_DFF_-bus"/><s:alias val="$_DFF_P_-bus"/><s:alias val="sdff-bus"/><s:alias val="$sdff-bus"/><s:alias val="$_DFF_-bus"/><s:alias val="$_DFF_P_-bus"/><rect width="30" height="40" x="0" y="0" fill="#ffffff" class="cell_$procdff$5665"/><path d="M0,35 L5,30 L0,25" fill="#ffffff" class="cell_$procdff$5665"/><path d="M30,2 L32,2 L32,42 L2,42 L2,40" fill="#ffffff" class="cell_$procdff$5665"/><path d="M32,4 L34,4 L34,44 L4,44 L4,42" fill="#ffffff" class="cell_$procdff$5665"/><g s:x="35" s:y="10" s:pid="Q"/><g s:x="-1" s:y="30" s:pid="CLK"/><g s:x="-1" s:y="30" s:pid="C"/><g s:x="-1" s:y="10" s:pid="D"/><g s:x="17" s:y="44" s:pid="ARST"/><g s:x="17" s:y="44" s:pid="SRST"/></g><g s:type="dff-bus" transform="translate(263,103.5)" s:width="34" s:height="44" id="cell_$procdff$5666"><s:alias val="$dff-bus"/><s:alias val="$_DFF_-bus"/><s:alias val="$_DFF_P_-bus"/><s:alias val="adff-bus"/><s:alias val="$adff-bus"/><s:alias val="$_DFF_-bus"/><s:alias val="$_DFF_P_-bus"/><s:alias val="sdff-bus"/><s:alias val="$sdff-bus"/><s:alias val="$_DFF_-bus"/><s:alias val="$_DFF_P_-bus"/><rect width="30" height="40" x="0" y="0" fill="#ffffff" class="cell_$procdff$5666"/><path d="M0,35 L5,30 L0,25" fill="#ffffff" class="cell_$procdff$5666"/><path d="M30,2 L32,2 L32,42 L2,42 L2,40" fill="#ffffff" class="cell_$procdff$5666"/><path d="M32,4 L34,4 L34,44 L4,44 L4,42" fill="#ffffff" class="cell_$procdff$5666"/><g s:x="35" s:y="10" s:pid="Q"/><g s:x="-1" s:y="30" s:pid="CLK"/><g s:x="-1" s:y="30" s:pid="C"/><g s:x="-1" s:y="10" s:pid="D"/><g s:x="17" s:y="44" s:pid="ARST"/><g s:x="17" s:y="44" s:pid="SRST"/></g><g s:type="sub_odd" transform="translate(482,22)" s:width="30" s:height="40" id="cell_rom_inst"><text x="486.5" y="-4" class="nodelabel cell_rom_inst" s:attribute="ref">rom_lut</text><rect width="973" height="383" s:generic="body" fill="#e9e9e9" rx="4" class="cell_rom_inst"/><g s:type="neg" transform="translate(687.5,89)" s:width="25" s:height="25" id="cell_$neg$rom_lut.v:209$4633"><s:alias val="$neg"/><circle r="12.5" cx="12.5" cy="12.5" fill="#ffffff" class="cell_$neg$rom_lut.v:209$4633"/><line x1="7.5" x2="17.5" y1="12.5" y2="12.5" fill="#ffffff" class="cell_$neg$rom_lut.v:209$4633"/><g s:x="0" s:y="12.5" s:pid="A"/><g s:x="25" s:y="12.5" s:pid="Y"/></g><g s:type="dff-bus" transform="translate(887,34.5)" s:width="34" s:height="44" id="cell_$procdff$5667"><s:alias val="$dff-bus"/><s:alias val="$_DFF_-bus"/><s:alias val="$_DFF_P_-bus"/><s:alias val="adff-bus"/><s:alias val="$adff-bus"/><s:alias val="$_DFF_-bus"/><s:alias val="$_DFF_P_-bus"/><s:alias val="sdff-bus"/><s:alias val="$sdff-bus"/><s:alias val="$_DFF_-bus"/><s:alias val="$_DFF_P_-bus"/><rect width="30" height="40" x="0" y="0" fill="#ffffff" class="cell_$procdff$5667"/><path d="M0,35 L5,30 L0,25" fill="#ffffff" class="cell_$procdff$5667"/><path d="M30,2 L32,2 L32,42 L2,42 L2,40" fill="#ffffff" class="cell_$procdff$5667"/><path d="M32,4 L34,4 L34,44 L4,44 L4,42" fill="#ffffff" class="cell_$procdff$5667"/><g s:x="35" s:y="10" s:pid="Q"/><g s:x="-1" s:y="30" s:pid="CLK"/><g s:x="-1" s:y="30" s:pid="C"/><g s:x="-1" s:y="10" s:pid="D"/><g s:x="17" s:y="44" s:pid="ARST"/><g s:x="17" s:y="44" s:pid="SRST"/></g><g s:type="mux-bus" transform="translate(787.5,24.5)" s:width="24" s:height="40" id="cell_$procmux$5660"><s:alias val="$pmux-bus"/><s:alias val="$mux-bus"/><s:alias val="$_MUX_-bus"/><path d="M0,0 L20,10 L20,30 L0,40 Z" fill="#ffffff" class="cell_$procmux$5660"/><path d="M4,2 L4,0 L22,9 L22,31 L4,40 L4,38" fill="#ffffff" class="cell_$procmux$5660"/><path d="M8,2 L8,0 L24,8 L24,32 L8,40 L8,38" fill="#ffffff" class="cell_$procmux$5660"/><text x="5" y="32" class="nodelabel cell_$procmux$5660" s:attribute="">1</text><text x="5" y="13" class="nodelabel cell_$procmux$5660" s:attribute="">0</text><g s:x="-1" s:y="10" s:pid="A"/><g s:x="-1" s:y="30" s:pid="B"/><g s:x="12" s:y="38" s:pid="S"/><g s:x="24.5" s:y="20" s:pid="Y"/></g><g s:type="mux-bus" transform="translate(256,102.5)" s:width="24" s:height="40" id="cell_$procmux$5663"><s:alias val="$pmux-bus"/><s:alias val="$mux-bus"/><s:alias val="$_MUX_-bus"/><path d="M0,0 L20,10 L20,30 L0,40 Z" fill="#ffffff" class="cell_$procmux$5663"/><path d="M4,2 L4,0 L22,9 L22,31 L4,40 L4,38" fill="#ffffff" class="cell_$procmux$5663"/><path d="M8,2 L8,0 L24,8 L24,32 L8,40 L8,38" fill="#ffffff" class="cell_$procmux$5663"/><text x="5" y="32" class="nodelabel cell_$procmux$5663" s:attribute="">1</text><text x="5" y="13" class="nodelabel cell_$procmux$5663" s:attribute="">0</text><g s:x="-1" s:y="10" s:pid="A"/><g s:x="-1" s:y="30" s:pid="B"/><g s:x="12" s:y="38" s:pid="S"/><g s:x="24.5" s:y="20" s:pid="Y"/></g><g s:type="sub" transform="translate(156,153.5)" s:width="25" s:height="25" id="cell_$sub$rom_lut.v:200$4631"><s:alias val="$sub"/><circle r="12.5" cx="12.5" cy="12.5" fill="#ffffff" class="cell_$sub$rom_lut.v:200$4631"/><line x1="7.5" x2="17.5" y1="12.5" y2="12.5" fill="#ffffff" class="cell_$sub$rom_lut.v:200$4631"/><g s:x="2" s:y="5" s:pid="A"/><g s:x="2" s:y="20" s:pid="B"/><g s:x="25" s:y="12.5" s:pid="Y"/></g><g s:type="generic" transform="translate(539.5,91)" s:width="30" s:height="40" id="cell_rom"><text x="15" y="-4" class="nodelabel cell_rom" s:attribute="ref">RAM</text><rect width="30" height="180" s:generic="body" fill="#ffffff" class="cell_rom"/><g transform="translate(0,10)" s:x="0" s:y="10" s:pid="in0" id="port_rom~RD_ADDR"><text x="-3" y="-4" class="inputPortLabel cell_rom">RD_ADDR</text></g><g transform="translate(0,30)" s:x="0" s:y="10" s:pid="in0" id="port_rom~RD_ARST"><text x="-3" y="-4" class="inputPortLabel cell_rom">RD_ARST</text></g><g transform="translate(0,50)" s:x="0" s:y="10" s:pid="in0" id="port_rom~RD_CLK"><text x="-3" y="-4" class="inputPortLabel cell_rom">RD_CLK</text></g><g transform="translate(0,70)" s:x="0" s:y="10" s:pid="in0" id="port_rom~RD_EN"><text x="-3" y="-4" class="inputPortLabel cell_rom">RD_EN</text></g><g transform="translate(0,90)" s:x="0" s:y="10" s:pid="in0" id="port_rom~RD_SRST"><text x="-3" y="-4" class="inputPortLabel cell_rom">RD_SRST</text></g><g transform="translate(0,110)" s:x="0" s:y="10" s:pid="in0" id="port_rom~WR_ADDR"><text x="-3" y="-4" class="inputPortLabel cell_rom">WR_ADDR</text></g><g transform="translate(0,130)" s:x="0" s:y="10" s:pid="in0" id="port_rom~WR_CLK"><text x="-3" y="-4" class="inputPortLabel cell_rom">WR_CLK</text></g><g transform="translate(0,150)" s:x="0" s:y="10" s:pid="in0" id="port_rom~WR_DATA"><text x="-3" y="-4" class="inputPortLabel cell_rom">WR_DATA</text></g><g transform="translate(0,170)" s:x="0" s:y="10" s:pid="in0" id="port_rom~WR_EN"><text x="-3" y="-4" class="inputPortLabel cell_rom">WR_EN</text></g><g transform="translate(30,10)" s:x="30" s:y="10" s:pid="out0" id="port_rom~RD_DATA"><text x="5" y="-4" style="fill:#000; stroke:none" class="cell_rom">RD_DATA</text></g></g><g s:type="constant" transform="translate(414.5,152.5)" s:width="30" s:height="20" id="cell_0"><text x="15" y="-4" class="nodelabel cell_0" s:attribute="ref">0</text><s:alias val="$_constant_"/><rect width="30" height="20" fill="#ffffff" class="cell_0"/><g s:x="31" s:y="10" s:pid="Y"/></g><g s:type="constant" transform="translate(51,148.5)" s:width="30" s:height="20" id="cell_11111"><text x="15" y="-4" class="nodelabel cell_11111" s:attribute="ref">0x1f</text><s:alias val="$_constant_"/><rect width="30" height="20" fill="#ffffff" class="cell_11111"/><g s:x="31" s:y="10" s:pid="Y"/></g><g s:type="constant" transform="translate(414.5,217.5)" s:width="30" s:height="20" id="cell_x"><text x="15" y="-4" class="nodelabel cell_x" s:attribute="ref">x</text><s:alias val="$_constant_"/><rect width="30" height="20" fill="#ffffff" class="cell_x"/><g s:x="31" s:y="10" s:pid="Y"/></g><g s:type="constant" transform="translate(414.5,282.5)" s:width="30" s:height="20" id="cell_1"><text x="15" y="-4" class="nodelabel cell_1" s:attribute="ref">1</text><s:alias val="$_constant_"/><rect width="30" height="20" fill="#ffffff" class="cell_1"/><g s:x="31" s:y="10" s:pid="Y"/></g><g s:type="join" transform="translate(706.5,14)" s:width="4" s:height="40" id="cell_$join$,24,25,26,27,28,29,30,31,32,63,"><rect width="5" height="40" class="splitjoinBody" s:generic="body"/><s:alias val="$_join_"/><g s:x="5" s:y="20" s:pid="out"/><g transform="translate(0,10)" s:x="0" s:y="10" s:pid="in0"><text x="-3" y="-4" class="inputPortLabel">0:8</text></g><g transform="translate(0,30)" s:x="0" s:y="10" s:pid="in0"><text x="-3" y="-4" class="inputPortLabel">9</text></g></g><g s:type="join" transform="translate(373.5,81)" s:width="4" s:height="40" id="cell_$join$,10,11,12,13,58,59,60,61,62,"><rect width="5" height="40" class="splitjoinBody" s:generic="body"/><s:alias val="$_join_"/><g s:x="5" s:y="20" s:pid="out"/><g transform="translate(0,10)" s:x="0" s:y="10" s:pid="in0"><text x="-3" y="-4" class="inputPortLabel">0:3</text></g><g transform="translate(0,30)" s:x="0" s:y="10" s:pid="in0"><text x="-3" y="-4" class="inputPortLabel">4:8</text></g></g><g s:type="split" transform="translate(67,203.5)" s:width="5" s:height="40" id="cell_$split$,3,4,5,6,7,8,9,"><rect width="5" height="60" class="splitjoinBody" s:generic="body"/><s:alias val="$_split_"/><g s:x="0" s:y="20" s:pid="in"/><g transform="translate(4,10)" s:x="4" s:y="10" s:pid="out0"><text x="5" y="-4">6</text></g><g transform="translate(4,30)" s:x="4" s:y="10" s:pid="out0"><text x="5" y="-4">0:4</text></g><g transform="translate(4,50)" s:x="4" s:y="10" s:pid="out0"><text x="5" y="-4">5</text></g></g><line x1="570.5" x2="687.5" y1="101.5" y2="101.5" class="net_24,25,26,27,28,29,30,31,32"/><line x1="570.5" x2="623.5" y1="101.5" y2="101.5" class="net_24,25,26,27,28,29,30,31,32"/><line x1="623.5" x2="623.5" y1="101.5" y2="24.5" class="net_24,25,26,27,28,29,30,31,32"/><circle cx="623.5" cy="101.5" r="2" style="fill:#000" class="net_24,25,26,27,28,29,30,31,32"/><line x1="623.5" x2="706.5" y1="24.5" y2="24.5" class="net_24,25,26,27,28,29,30,31,32"/><line x1="0" x2="861" y1="358.5" y2="358.5" class="net_2"/><line x1="861" x2="861" y1="358.5" y2="64.5" class="net_2"/><line x1="861" x2="886" y1="64.5" y2="64.5" class="net_2"/><line x1="812" x2="886" y1="44.5" y2="44.5" class="net_43,44,45,46,47,48,49,50,51,52"/><line x1="712.5" x2="786.5" y1="34.5" y2="34.5" class="net_24,25,26,27,28,29,30,31,32,63"/><line x1="712.5" x2="761.5" y1="101.5" y2="101.5" class="net_33,34,35,36,37,38,39,40,41,42"/><line x1="761.5" x2="761.5" y1="101.5" y2="54.5" class="net_33,34,35,36,37,38,39,40,41,42"/><line x1="761.5" x2="786.5" y1="54.5" y2="54.5" class="net_33,34,35,36,37,38,39,40,41,42"/><line x1="72" x2="92" y1="214" y2="214" class="net_9"/><line x1="92" x2="92" y1="214" y2="347.5" class="net_9"/><line x1="92" x2="799.5" y1="347.5" y2="347.5" class="net_9"/><line x1="799.5" x2="799.5" y1="347.5" y2="62.5" class="net_9"/><line x1="72" x2="102" y1="234" y2="234" class="net_3,4,5,6,7"/><line x1="102" x2="102" y1="234" y2="112.5" class="net_3,4,5,6,7"/><circle cx="102" cy="234" r="2" style="fill:#000" class="net_3,4,5,6,7"/><line x1="102" x2="255" y1="112.5" y2="112.5" class="net_3,4,5,6,7"/><line x1="72" x2="131" y1="234" y2="234" class="net_3,4,5,6,7"/><line x1="131" x2="131" y1="234" y2="173.5" class="net_3,4,5,6,7"/><line x1="131" x2="158" y1="173.5" y2="173.5" class="net_3,4,5,6,7"/><line x1="181" x2="230" y1="166" y2="166" class="net_53,54,55,56,57"/><line x1="230" x2="230" y1="166" y2="132.5" class="net_53,54,55,56,57"/><line x1="230" x2="255" y1="132.5" y2="132.5" class="net_53,54,55,56,57"/><line x1="72" x2="268" y1="254" y2="254" class="net_8"/><line x1="268" x2="268" y1="254" y2="140.5" class="net_8"/><line x1="82" x2="158" y1="158.5" y2="158.5" class="net_64,65,66,67,68"/><line x1="379.5" x2="539.5" y1="101.5" y2="101.5" class="net_10,11,12,13,58,59,60,61,62"/><line x1="445.5" x2="455.5" y1="162.5" y2="162.5" class="net_63"/><line x1="455.5" x2="455.5" y1="162.5" y2="121.5" class="net_63"/><circle cx="455.5" cy="162.5" r="2" style="fill:#000" class="net_63"/><circle cx="455.5" cy="121.5" r="2" style="fill:#000" class="net_63"/><line x1="455.5" x2="538.5" y1="121.5" y2="121.5" class="net_63"/><line x1="445.5" x2="455.5" y1="162.5" y2="162.5" class="net_63"/><line x1="455.5" x2="455.5" y1="162.5" y2="181.5" class="net_63"/><line x1="455.5" x2="538.5" y1="181.5" y2="181.5" class="net_63"/><line x1="445.5" x2="455.5" y1="162.5" y2="162.5" class="net_63"/><line x1="455.5" x2="455.5" y1="162.5" y2="44.5" class="net_63"/><line x1="455.5" x2="706.5" y1="44.5" y2="44.5" class="net_63"/><line x1="445.5" x2="465.5" y1="227.5" y2="227.5" class="net_70"/><line x1="465.5" x2="465.5" y1="227.5" y2="141.5" class="net_70"/><line x1="465.5" x2="538.5" y1="141.5" y2="141.5" class="net_70"/><line x1="445.5" x2="475.5" y1="292.5" y2="292.5" class="net_71"/><line x1="475.5" x2="475.5" y1="292.5" y2="161.5" class="net_71"/><line x1="475.5" x2="538.5" y1="161.5" y2="161.5" class="net_71"/><line x1="485.5" x2="485.5" y1="261.5" y2="201.5" class="net_"/><line x1="485.5" x2="538.5" y1="201.5" y2="201.5" class="net_"/><line x1="485.5" x2="485.5" y1="261.5" y2="221.5" class="net_"/><circle cx="485.5" cy="221.5" r="2" style="fill:#000" class="net_"/><line x1="485.5" x2="538.5" y1="221.5" y2="221.5" class="net_"/><line x1="485.5" x2="485.5" y1="261.5" y2="241.5" class="net_"/><circle cx="485.5" cy="241.5" r="2" style="fill:#000" class="net_"/><line x1="485.5" x2="538.5" y1="241.5" y2="241.5" class="net_"/><line x1="485.5" x2="485.5" y1="261.5" y2="261.5" class="net_"/><line x1="485.5" x2="538.5" y1="261.5" y2="261.5" class="net_"/><line x1="922" x2="973" y1="44.5" y2="44.5" class="net_14,15,16,17,18,19,20,21,22,23"/><line x1="0" x2="373.5" y1="91.5" y2="91.5" class="net_10,11,12,13"/><line x1="280.5" x2="329.5" y1="122.5" y2="122.5" class="net_58,59,60,61,62"/><line x1="329.5" x2="329.5" y1="122.5" y2="111.5" class="net_58,59,60,61,62"/><line x1="329.5" x2="373.5" y1="111.5" y2="111.5" class="net_58,59,60,61,62"/><line x1="0" x2="67" y1="234" y2="234" class="net_3,4,5,6,7,8,9"/><g transform="translate(-1,358)" s:x="0" s:y="10" s:pid="in0" id="port_rom_inst~clock"><text x="-3" y="-4" class="inputPortLabel cell_rom_inst">clock</text></g><g transform="translate(-1,91)" s:x="0" s:y="10" s:pid="in0" id="port_rom_inst~nibble_product_idx"><text x="-3" y="-4" class="inputPortLabel cell_rom_inst">nibble_product_idx</text></g><g transform="translate(-1,233.5)" s:x="0" s:y="10" s:pid="in0" id="port_rom_inst~read_angle_idx"><text x="-3" y="-4" class="inputPortLabel cell_rom_inst">read_angle_idx</text></g><g transform="translate(973,44)" s:x="30" s:y="10" s:pid="out0" id="port_rom_inst~data_out"><text x="5" y="-4" style="fill:#000; stroke:none" class="cell_rom_inst">data_out</text></g></g><g s:type="inputExt" transform="translate(155,370.5)" s:width="30" s:height="20" id="cell_inClock50Mhz"><text x="15" y="-4" class="nodelabel cell_inClock50Mhz" s:attribute="ref">inClock50Mhz</text><s:alias val="$_inputExt_"/><path d="M0,0 L0,20 L15,20 L30,10 L15,0 Z" fill="#ffffff" class="cell_inClock50Mhz"/><g s:x="30" s:y="10" s:pid="Y"/></g><g s:type="inputExt" transform="translate(12,246)" s:width="30" s:height="20" id="cell_inAngleIdxToRead"><text x="15" y="-4" class="nodelabel cell_inAngleIdxToRead" s:attribute="ref">inAngleIdxToRead</text><s:alias val="$_inputExt_"/><path d="M0,0 L0,20 L15,20 L30,10 L15,0 Z" fill="#ffffff" class="cell_inAngleIdxToRead"/><g s:x="30" s:y="10" s:pid="Y"/></g><g s:type="inputExt" transform="translate(12,103.5)" s:width="30" s:height="20" id="cell_inNibbleProductIdx"><text x="15" y="-4" class="nodelabel cell_inNibbleProductIdx" s:attribute="ref">inNibbleProductIdx</text><s:alias val="$_inputExt_"/><path d="M0,0 L0,20 L15,20 L30,10 L15,0 Z" fill="#ffffff" class="cell_inNibbleProductIdx"/><g s:x="30" s:y="10" s:pid="Y"/></g><g s:type="outputExt" transform="translate(1579,56.5)" s:width="30" s:height="20" id="cell_outReadMemory"><text x="15" y="-4" class="nodelabel cell_outReadMemory" s:attribute="ref">outReadMemory</text><s:alias val="$_outputExt_"/><path d="M30,0 L30,20 L15,20 L0,10 L15,0 Z" fill="#ffffff" class="cell_outReadMemory"/><g s:x="0" s:y="10" s:pid="A"/></g><line x1="185" x2="237" y1="380.5" y2="380.5" class="net_2 width_1" style="stroke-width: 1"/><line x1="237" x2="237" y1="380.5" y2="276" class="net_2 width_1" style="stroke-width: 1"/><circle cx="237" cy="380.5" r="2" style="fill:#000" class="net_2 width_1"/><circle cx="237" cy="276" r="2" style="fill:#000" class="net_2 width_1"/><line x1="237" x2="262" y1="276" y2="276" class="net_2 width_1" style="stroke-width: 1"/><line x1="185" x2="237" y1="380.5" y2="380.5" class="net_2 width_1" style="stroke-width: 1"/><line x1="237" x2="237" y1="380.5" y2="133.5" class="net_2 width_1" style="stroke-width: 1"/><line x1="237" x2="262" y1="133.5" y2="133.5" class="net_2 width_1" style="stroke-width: 1"/><line x1="185" x2="481" y1="380.5" y2="380.5" class="net_2 width_1" style="stroke-width: 1"/><line x1="42" x2="262" y1="256" y2="256" class="net_3,4,5,6,7,8,9 width_7" style="stroke-width: 2"/><line x1="42" x2="262" y1="113.5" y2="113.5" class="net_10,11,12,13 width_4" style="stroke-width: 2"/><line x1="298" x2="481" y1="113.5" y2="113.5" class="net_31,32,33,34 width_4" style="stroke-width: 2"/><line x1="298" x2="481" y1="256" y2="256" class="net_24,25,26,27,28,29,30 width_7" style="stroke-width: 2"/><line x1="1456" x2="1579" y1="66.5" y2="66.5" class="net_14,15,16,17,18,19,20,21,22,23 width_10" style="stroke-width: 2"/><rect x="190" y="251" width="16" height="9" class="net_3,4,5,6,7,8,9 width_7 busLabel_7" style="fill: white; stroke: none"/><text x="189" y="259" class="net_3,4,5,6,7,8,9 width_7 busLabel_7">/7/</text><rect x="190" y="108.5" width="16" height="9" class="net_10,11,12,13 width_4 busLabel_4" style="fill: white; stroke: none"/><text x="189" y="116.5" class="net_10,11,12,13 width_4 busLabel_4">/4/</text><rect x="334" y="108.5" width="16" height="9" class="net_31,32,33,34 width_4 busLabel_4" style="fill: white; stroke: none"/><text x="333" y="116.5" class="net_31,32,33,34 width_4 busLabel_4">/4/</text><rect x="334" y="251" width="16" height="9" class="net_24,25,26,27,28,29,30 width_7 busLabel_7" style="fill: white; stroke: none"/><text x="333" y="259" class="net_24,25,26,27,28,29,30 width_7 busLabel_7">/7/</text><rect x="1541" y="61.5" width="22" height="9" class="net_14,15,16,17,18,19,20,21,22,23 width_10 busLabel_10" style="fill: white; stroke: none"/><text x="1540" y="69.5" class="net_14,15,16,17,18,19,20,21,22,23 width_10 busLabel_10">/10/</text></svg>