<svg xmlns="http://www.w3.org/2000/svg" xmlns:xlink="http://www.w3.org/1999/xlink" xmlns:s="https://github.com/nturley/netlistsvg" width="1231.5" height="502"><style>svg {
  stroke:#000;
  fill:none;
}
text {
  fill:#000;
  stroke:none;
  font-size:10px;
  font-weight: bold;
  font-family: "Courier New", monospace;
}
line {
    stroke-linecap: round;
}
.nodelabel {
  text-anchor: middle;
}
.inputPortLabel {
  text-anchor: end;
}
.splitjoinBody {
  fill:#000;
}</style><g s:type="eq" transform="translate(1065.5,178)" s:width="25" s:height="25" id="cell_:11"><s:alias val="$eq"/><s:alias val="$eqx"/><circle r="12.5" cx="12.5" cy="12.5" fill="#ffffff" class="cell_:11"/><line x1="7.5" x2="17.5" y1="10" y2="10" fill="#ffffff" class="cell_:11"/><line x1="7.5" x2="17.5" y1="15" y2="15" fill="#ffffff" class="cell_:11"/><g s:x="2" s:y="5" s:pid="A"/><g s:x="2" s:y="20" s:pid="B"/><g s:x="25" s:y="12.5" s:pid="Y"/></g><g s:type="add" transform="translate(1004.5,57)" s:width="25" s:height="25" id="cell_:15"><s:alias val="$add"/><circle r="12.5" cx="12.5" cy="12.5" fill="#ffffff" class="cell_:15"/><line x1="7.5" x2="17.5" y1="12.5" y2="12.5" fill="#ffffff" class="cell_:15"/><line x1="12.5" x2="12.5" y1="7.5" y2="17.5" fill="#ffffff" class="cell_:15"/><g s:x="2" s:y="5" s:pid="A"/><g s:x="2" s:y="20" s:pid="B"/><g s:x="26" s:y="12.5" s:pid="Y"/></g><g s:type="mux-bus" transform="translate(1126.5,59.5)" s:width="24" s:height="40" id="cell_:19"><s:alias val="$pmux-bus"/><s:alias val="$mux-bus"/><s:alias val="$_MUX_-bus"/><path d="M0,0 L20,10 L20,30 L0,40 Z" fill="#ffffff" class="cell_:19"/><path d="M4,2 L4,0 L22,9 L22,31 L4,40 L4,38" fill="#ffffff" class="cell_:19"/><path d="M8,2 L8,0 L24,8 L24,32 L8,40 L8,38" fill="#ffffff" class="cell_:19"/><text x="5" y="32" class="nodelabel cell_:19" s:attribute="">1</text><text x="5" y="13" class="nodelabel cell_:19" s:attribute="">0</text><g s:x="-1" s:y="10" s:pid="A"/><g s:x="-1" s:y="30" s:pid="B"/><g s:x="12" s:y="38" s:pid="S"/><g s:x="24.5" s:y="20" s:pid="Y"/></g><g s:type="dff-bus" transform="translate(863.5,52)" s:width="34" s:height="44" id="cell_:24"><s:alias val="$dff-bus"/><s:alias val="$_DFF_-bus"/><s:alias val="$_DFF_P_-bus"/><s:alias val="adff-bus"/><s:alias val="$adff-bus"/><s:alias val="$_DFF_-bus"/><s:alias val="$_DFF_P_-bus"/><s:alias val="sdff-bus"/><s:alias val="$sdff-bus"/><s:alias val="$_DFF_-bus"/><s:alias val="$_DFF_P_-bus"/><rect width="30" height="40" x="0" y="0" fill="#ffffff" class="cell_:24"/><path d="M0,35 L5,30 L0,25" fill="#ffffff" class="cell_:24"/><path d="M30,2 L32,2 L32,42 L2,42 L2,40" fill="#ffffff" class="cell_:24"/><path d="M32,4 L34,4 L34,44 L4,44 L4,42" fill="#ffffff" class="cell_:24"/><g s:x="35" s:y="10" s:pid="Q"/><g s:x="-1" s:y="30" s:pid="CLK"/><g s:x="-1" s:y="30" s:pid="C"/><g s:x="-1" s:y="10" s:pid="D"/><g s:x="17" s:y="44" s:pid="ARST"/><g s:x="17" s:y="44" s:pid="SRST"/></g><a xlink:href="../building_blocks-timer/Timer.svg"><g s:type="sub_odd" transform="translate(216,30)" s:width="30" s:height="40" id="cell_inner_timer"><text x="262.75" y="-4" class="nodelabel cell_inner_timer" s:attribute="ref">Timer</text><rect width="525.5" height="383.5" s:generic="body" fill="#e9e9e9" rx="4" class="cell_inner_timer" pointer-events="all"/><g s:type="mux-bus" transform="translate(462.5,175.5)" s:width="24" s:height="40" id="cell_:31"><s:alias val="$pmux-bus"/><s:alias val="$mux-bus"/><s:alias val="$_MUX_-bus"/><path d="M0,0 L20,10 L20,30 L0,40 Z" fill="#ffffff" class="cell_:31"/><path d="M4,2 L4,0 L22,9 L22,31 L4,40 L4,38" fill="#ffffff" class="cell_:31"/><path d="M8,2 L8,0 L24,8 L24,32 L8,40 L8,38" fill="#ffffff" class="cell_:31"/><text x="5" y="32" class="nodelabel cell_:31" s:attribute="">1</text><text x="5" y="13" class="nodelabel cell_:31" s:attribute="">0</text><g s:x="-1" s:y="10" s:pid="A"/><g s:x="-1" s:y="30" s:pid="B"/><g s:x="12" s:y="38" s:pid="S"/><g s:x="24.5" s:y="20" s:pid="Y"/></g><g s:type="eq" transform="translate(149,339)" s:width="25" s:height="25" id="cell_:34"><s:alias val="$eq"/><s:alias val="$eqx"/><circle r="12.5" cx="12.5" cy="12.5" fill="#ffffff" class="cell_:34"/><line x1="7.5" x2="17.5" y1="10" y2="10" fill="#ffffff" class="cell_:34"/><line x1="7.5" x2="17.5" y1="15" y2="15" fill="#ffffff" class="cell_:34"/><g s:x="2" s:y="5" s:pid="A"/><g s:x="2" s:y="20" s:pid="B"/><g s:x="25" s:y="12.5" s:pid="Y"/></g><g s:type="add" transform="translate(86.66666666666667,163)" s:width="25" s:height="25" id="cell_:37"><s:alias val="$add"/><circle r="12.5" cx="12.5" cy="12.5" fill="#ffffff" class="cell_:37"/><line x1="7.5" x2="17.5" y1="12.5" y2="12.5" fill="#ffffff" class="cell_:37"/><line x1="12.5" x2="12.5" y1="7.5" y2="17.5" fill="#ffffff" class="cell_:37"/><g s:x="2" s:y="5" s:pid="A"/><g s:x="2" s:y="20" s:pid="B"/><g s:x="26" s:y="12.5" s:pid="Y"/></g><g s:type="eq" transform="translate(271.5,97)" s:width="25" s:height="25" id="cell_:41"><s:alias val="$eq"/><s:alias val="$eqx"/><circle r="12.5" cx="12.5" cy="12.5" fill="#ffffff" class="cell_:41"/><line x1="7.5" x2="17.5" y1="10" y2="10" fill="#ffffff" class="cell_:41"/><line x1="7.5" x2="17.5" y1="15" y2="15" fill="#ffffff" class="cell_:41"/><g s:x="2" s:y="5" s:pid="A"/><g s:x="2" s:y="20" s:pid="B"/><g s:x="25" s:y="12.5" s:pid="Y"/></g><g s:type="mux" transform="translate(345.8333333333333,22)" s:width="20" s:height="40" id="cell_:43"><s:alias val="$pmux"/><s:alias val="$mux"/><s:alias val="$_MUX_"/><path d="M0,0 L20,10 L20,30 L0,40 Z" fill="#ffffff" class="cell_:43"/><text x="5" y="32" class="nodelabel cell_:43" s:attribute="">1</text><text x="5" y="13" class="nodelabel cell_:43" s:attribute="">0</text><g s:x="0" s:y="10" s:pid="A"/><g s:x="0" s:y="30" s:pid="B"/><g s:x="10" s:y="35" s:pid="S"/><g s:x="20" s:y="20" s:pid="Y"/></g><g s:type="mux" transform="translate(406.5,32)" s:width="20" s:height="40" id="cell_:45"><s:alias val="$pmux"/><s:alias val="$mux"/><s:alias val="$_MUX_"/><path d="M0,0 L20,10 L20,30 L0,40 Z" fill="#ffffff" class="cell_:45"/><text x="5" y="32" class="nodelabel cell_:45" s:attribute="">1</text><text x="5" y="13" class="nodelabel cell_:45" s:attribute="">0</text><g s:x="0" s:y="10" s:pid="A"/><g s:x="0" s:y="30" s:pid="B"/><g s:x="10" s:y="35" s:pid="S"/><g s:x="20" s:y="20" s:pid="Y"/></g><g s:type="mux-bus" transform="translate(210,165.5)" s:width="24" s:height="40" id="cell_:47"><s:alias val="$pmux-bus"/><s:alias val="$mux-bus"/><s:alias val="$_MUX_-bus"/><path d="M0,0 L20,10 L20,30 L0,40 Z" fill="#ffffff" class="cell_:47"/><path d="M4,2 L4,0 L22,9 L22,31 L4,40 L4,38" fill="#ffffff" class="cell_:47"/><path d="M8,2 L8,0 L24,8 L24,32 L8,40 L8,38" fill="#ffffff" class="cell_:47"/><text x="5" y="32" class="nodelabel cell_:47" s:attribute="">1</text><text x="5" y="13" class="nodelabel cell_:47" s:attribute="">0</text><g s:x="-1" s:y="10" s:pid="A"/><g s:x="-1" s:y="30" s:pid="B"/><g s:x="12" s:y="38" s:pid="S"/><g s:x="24.5" s:y="20" s:pid="Y"/></g><g s:type="dff" transform="translate(462.5,42)" s:width="30" s:height="40" id="cell_:51"><s:alias val="$dff"/><s:alias val="$_DFF_"/><s:alias val="$_DFF_P_"/><s:alias val="$adff"/><s:alias val="$_DFF_"/><s:alias val="$_DFF_P_"/><s:alias val="$sdff"/><s:alias val="$_DFF_"/><s:alias val="$_DFF_P_"/><rect width="30" height="40" x="0" y="0" fill="#ffffff" class="cell_:51"/><path d="M0,35 L5,30 L0,25" fill="#ffffff" class="cell_:51"/><g s:x="31" s:y="10" s:pid="Q"/><g s:x="-1" s:y="30" s:pid="CLK"/><g s:x="-1" s:y="30" s:pid="C"/><g s:x="-1" s:y="10" s:pid="D"/><g s:x="15" s:y="40" s:pid="ARST"/><g s:x="15" s:y="40" s:pid="SRST"/></g><g s:type="dff-bus" transform="translate(336.5,175.5)" s:width="34" s:height="44" id="cell_:52"><s:alias val="$dff-bus"/><s:alias val="$_DFF_-bus"/><s:alias val="$_DFF_P_-bus"/><s:alias val="adff-bus"/><s:alias val="$adff-bus"/><s:alias val="$_DFF_-bus"/><s:alias val="$_DFF_P_-bus"/><s:alias val="sdff-bus"/><s:alias val="$sdff-bus"/><s:alias val="$_DFF_-bus"/><s:alias val="$_DFF_P_-bus"/><rect width="30" height="40" x="0" y="0" fill="#ffffff" class="cell_:52"/><path d="M0,35 L5,30 L0,25" fill="#ffffff" class="cell_:52"/><path d="M30,2 L32,2 L32,42 L2,42 L2,40" fill="#ffffff" class="cell_:52"/><path d="M32,4 L34,4 L34,44 L4,44 L4,42" fill="#ffffff" class="cell_:52"/><g s:x="35" s:y="10" s:pid="Q"/><g s:x="-1" s:y="30" s:pid="CLK"/><g s:x="-1" s:y="30" s:pid="C"/><g s:x="-1" s:y="10" s:pid="D"/><g s:x="17" s:y="44" s:pid="ARST"/><g s:x="17" s:y="44" s:pid="SRST"/></g><g s:type="constant" transform="translate(83,233)" s:width="30" s:height="20" id="cell_00000000000000000000000000"><text x="15" y="-4" class="nodelabel cell_00000000000000000000000000" s:attribute="ref">0x0</text><s:alias val="$_constant_"/><rect width="30" height="20" fill="#ffffff" class="cell_00000000000000000000000000"/><g s:x="31" s:y="10" s:pid="Y"/></g><g s:type="constant" transform="translate(12,122)" s:width="30" s:height="20" id="cell_1"><text x="15" y="-4" class="nodelabel cell_1" s:attribute="ref">1</text><s:alias val="$_constant_"/><rect width="30" height="20" fill="#ffffff" class="cell_1"/><g s:x="31" s:y="10" s:pid="Y"/></g><g s:type="constant" transform="translate(269.5,42)" s:width="30" s:height="20" id="cell_0"><text x="15" y="-4" class="nodelabel cell_0" s:attribute="ref">0</text><s:alias val="$_constant_"/><rect width="30" height="20" fill="#ffffff" class="cell_0"/><g s:x="31" s:y="10" s:pid="Y"/></g><line x1="371.5" x2="461.5" y1="185.5" y2="185.5" class="net_31,32,33,34,35,36,37,38,39,40,41,42,43,44,45,46,47,48,49,50,51,52,53,54,55,56"/><line x1="114" x2="124" y1="243" y2="243" class="net_139,140,141,142,143,144,145,146,147,148,149,150,151,152,153,154,155,156,157,158,159,160,161,162,163,164"/><line x1="124" x2="124" y1="243" y2="278" class="net_139,140,141,142,143,144,145,146,147,148,149,150,151,152,153,154,155,156,157,158,159,160,161,162,163,164"/><line x1="124" x2="436.5" y1="278" y2="278" class="net_139,140,141,142,143,144,145,146,147,148,149,150,151,152,153,154,155,156,157,158,159,160,161,162,163,164"/><line x1="436.5" x2="436.5" y1="278" y2="205.5" class="net_139,140,141,142,143,144,145,146,147,148,149,150,151,152,153,154,155,156,157,158,159,160,161,162,163,164"/><circle cx="124" cy="243" r="2" style="fill:#000" class="net_139,140,141,142,143,144,145,146,147,148,149,150,151,152,153,154,155,156,157,158,159,160,161,162,163,164"/><line x1="436.5" x2="461.5" y1="205.5" y2="205.5" class="net_139,140,141,142,143,144,145,146,147,148,149,150,151,152,153,154,155,156,157,158,159,160,161,162,163,164"/><line x1="114" x2="184" y1="243" y2="243" class="net_139,140,141,142,143,144,145,146,147,148,149,150,151,152,153,154,155,156,157,158,159,160,161,162,163,164"/><line x1="184" x2="184" y1="243" y2="195.5" class="net_139,140,141,142,143,144,145,146,147,148,149,150,151,152,153,154,155,156,157,158,159,160,161,162,163,164"/><line x1="184" x2="209" y1="195.5" y2="195.5" class="net_139,140,141,142,143,144,145,146,147,148,149,150,151,152,153,154,155,156,157,158,159,160,161,162,163,164"/><line x1="0" x2="474.5" y1="294" y2="294" class="net_3"/><line x1="474.5" x2="474.5" y1="294" y2="213.5" class="net_3"/><line x1="487" x2="503.5" y1="195.5" y2="195.5" class="net_57,58,59,60,61,62,63,64,65,66,67,68,69,70,71,72,73,74,75,76,77,78,79,80,81,82"/><line x1="503.5" x2="503.5" y1="195.5" y2="309" class="net_57,58,59,60,61,62,63,64,65,66,67,68,69,70,71,72,73,74,75,76,77,78,79,80,81,82"/><line x1="503.5" x2="310.5" y1="309" y2="309" class="net_57,58,59,60,61,62,63,64,65,66,67,68,69,70,71,72,73,74,75,76,77,78,79,80,81,82"/><line x1="310.5" x2="310.5" y1="309" y2="329" class="net_57,58,59,60,61,62,63,64,65,66,67,68,69,70,71,72,73,74,75,76,77,78,79,80,81,82"/><line x1="310.5" x2="124" y1="329" y2="329" class="net_57,58,59,60,61,62,63,64,65,66,67,68,69,70,71,72,73,74,75,76,77,78,79,80,81,82"/><line x1="124" x2="124" y1="329" y2="344" class="net_57,58,59,60,61,62,63,64,65,66,67,68,69,70,71,72,73,74,75,76,77,78,79,80,81,82"/><circle cx="310.5" cy="309" r="2" style="fill:#000" class="net_57,58,59,60,61,62,63,64,65,66,67,68,69,70,71,72,73,74,75,76,77,78,79,80,81,82"/><line x1="124" x2="151" y1="344" y2="344" class="net_57,58,59,60,61,62,63,64,65,66,67,68,69,70,71,72,73,74,75,76,77,78,79,80,81,82"/><line x1="487" x2="503.5" y1="195.5" y2="195.5" class="net_57,58,59,60,61,62,63,64,65,66,67,68,69,70,71,72,73,74,75,76,77,78,79,80,81,82"/><line x1="503.5" x2="503.5" y1="195.5" y2="309" class="net_57,58,59,60,61,62,63,64,65,66,67,68,69,70,71,72,73,74,75,76,77,78,79,80,81,82"/><line x1="503.5" x2="63" y1="309" y2="309" class="net_57,58,59,60,61,62,63,64,65,66,67,68,69,70,71,72,73,74,75,76,77,78,79,80,81,82"/><line x1="63" x2="63" y1="309" y2="168" class="net_57,58,59,60,61,62,63,64,65,66,67,68,69,70,71,72,73,74,75,76,77,78,79,80,81,82"/><line x1="63" x2="88.66666666666667" y1="168" y2="168" class="net_57,58,59,60,61,62,63,64,65,66,67,68,69,70,71,72,73,74,75,76,77,78,79,80,81,82"/><line x1="0" x2="151" y1="359" y2="359" class="net_4,5,6,7,8,9,10,11,12,13,14,15,16,17,18,19,20,21,22,23,24,25,26,27,28,29"/><line x1="43" x2="73" y1="132" y2="132" class="net_165"/><line x1="73" x2="73" y1="132" y2="183" class="net_165"/><circle cx="73" cy="132" r="2" style="fill:#000" class="net_165"/><line x1="73" x2="88.66666666666667" y1="183" y2="183" class="net_165"/><line x1="43" x2="244.5" y1="132" y2="132" class="net_165"/><line x1="244.5" x2="244.5" y1="132" y2="117" class="net_165"/><circle cx="244.5" cy="132" r="2" style="fill:#000" class="net_165"/><line x1="244.5" x2="273.5" y1="117" y2="117" class="net_165"/><line x1="43" x2="381.5" y1="132" y2="132" class="net_165"/><line x1="381.5" x2="381.5" y1="132" y2="62" class="net_165"/><line x1="381.5" x2="406.5" y1="62" y2="62" class="net_165"/><line x1="112.66666666666667" x2="124" y1="175.5" y2="175.5" class="net_84,85,86,87,88,89,90,91,92,93,94,95,96,97,98,99,100,101,102,103,104,105,106,107,108,109"/><line x1="124" x2="124" y1="175.5" y2="102" class="net_84,85,86,87,88,89,90,91,92,93,94,95,96,97,98,99,100,101,102,103,104,105,106,107,108,109"/><circle cx="124" cy="175.5" r="2" style="fill:#000" class="net_84,85,86,87,88,89,90,91,92,93,94,95,96,97,98,99,100,101,102,103,104,105,106,107,108,109"/><line x1="124" x2="273.5" y1="102" y2="102" class="net_84,85,86,87,88,89,90,91,92,93,94,95,96,97,98,99,100,101,102,103,104,105,106,107,108,109"/><line x1="112.66666666666667" x2="209" y1="175.5" y2="175.5" class="net_84,85,86,87,88,89,90,91,92,93,94,95,96,97,98,99,100,101,102,103,104,105,106,107,108,109"/><line x1="493.5" x2="503.5" y1="52" y2="52" class="net_30"/><line x1="503.5" x2="503.5" y1="52" y2="12" class="net_30"/><line x1="503.5" x2="310.5" y1="12" y2="12" class="net_30"/><line x1="310.5" x2="310.5" y1="12" y2="32" class="net_30"/><circle cx="503.5" cy="52" r="2" style="fill:#000" class="net_30"/><line x1="310.5" x2="345.8333333333333" y1="32" y2="32" class="net_30"/><line x1="493.5" x2="525.5" y1="52" y2="52" class="net_30"/><line x1="300.5" x2="345.8333333333333" y1="52" y2="52" class="net_167"/><line x1="296.5" x2="355.8333333333333" y1="109.5" y2="109.5" class="net_110"/><line x1="355.8333333333333" x2="355.8333333333333" y1="109.5" y2="57" class="net_110"/><line x1="365.8333333333333" x2="406.5" y1="42" y2="42" class="net_111"/><line x1="174" x2="184" y1="351.5" y2="351.5" class="net_83"/><line x1="184" x2="184" y1="351.5" y2="361.5" class="net_83"/><line x1="184" x2="416.5" y1="361.5" y2="361.5" class="net_83"/><circle cx="184" cy="351.5" r="2" style="fill:#000" class="net_83"/><line x1="416.5" x2="416.5" y1="361.5" y2="67" class="net_83"/><line x1="174" x2="222" y1="351.5" y2="351.5" class="net_83"/><line x1="222" x2="222" y1="351.5" y2="203.5" class="net_83"/><line x1="0" x2="436.5" y1="152" y2="152" class="net_2"/><line x1="436.5" x2="436.5" y1="152" y2="72" class="net_2"/><line x1="436.5" x2="461.5" y1="72" y2="72" class="net_2"/><line x1="0" x2="53" y1="152" y2="152" class="net_2"/><line x1="53" x2="53" y1="152" y2="263" class="net_2"/><line x1="53" x2="310.5" y1="263" y2="263" class="net_2"/><line x1="310.5" x2="310.5" y1="263" y2="205.5" class="net_2"/><circle cx="53" cy="152" r="2" style="fill:#000" class="net_2"/><line x1="310.5" x2="335.5" y1="205.5" y2="205.5" class="net_2"/><line x1="426.5" x2="461.5" y1="52" y2="52" class="net_112"/><line x1="234.5" x2="335.5" y1="185.5" y2="185.5" class="net_113,114,115,116,117,118,119,120,121,122,123,124,125,126,127,128,129,130,131,132,133,134,135,136,137,138"/><g transform="translate(-1,151.5)" s:x="0" s:y="10" s:pid="in0" id="port_inner_timer~clock"><text x="-3" y="-4" class="inputPortLabel cell_inner_timer">clock</text></g><g transform="translate(-1,358.5)" s:x="0" s:y="10" s:pid="in0" id="port_inner_timer~maxlimit"><text x="-3" y="-4" class="inputPortLabel cell_inner_timer">maxlimit</text></g><g transform="translate(-1,293.5)" s:x="0" s:y="10" s:pid="in0" id="port_inner_timer~reset"><text x="-3" y="-4" class="inputPortLabel cell_inner_timer">reset</text></g><g transform="translate(525.5,51.5)" s:x="30" s:y="10" s:pid="out0" id="port_inner_timer~timertriggered"><text x="5" y="-4" style="fill:#000; stroke:none" class="cell_inner_timer">timertriggered</text></g></g></a><g s:type="inputExt" transform="translate(101,172)" s:width="30" s:height="20" id="cell_clock"><text x="15" y="-4" class="nodelabel cell_clock" s:attribute="ref">clock</text><s:alias val="$_inputExt_"/><path d="M0,0 L0,20 L15,20 L30,10 L15,0 Z" fill="#ffffff" class="cell_clock"/><g s:x="30" s:y="10" s:pid="Y"/></g><g s:type="inputExt" transform="translate(101,440)" s:width="30" s:height="20" id="cell_reset"><text x="15" y="-4" class="nodelabel cell_reset" s:attribute="ref">reset</text><s:alias val="$_inputExt_"/><path d="M0,0 L0,20 L15,20 L30,10 L15,0 Z" fill="#ffffff" class="cell_reset"/><g s:x="30" s:y="10" s:pid="Y"/></g><g s:type="outputExt" transform="translate(1125.5,254)" s:width="30" s:height="20" id="cell_timerTriggered"><text x="15" y="-4" class="nodelabel cell_timerTriggered" s:attribute="ref">timerTriggered</text><s:alias val="$_outputExt_"/><path d="M30,0 L30,20 L15,20 L0,10 L15,0 Z" fill="#ffffff" class="cell_timerTriggered"/><g s:x="0" s:y="10" s:pid="A"/></g><g s:type="outputExt" transform="translate(1126.5,319)" s:width="30" s:height="20" id="cell_counter"><text x="15" y="-4" class="nodelabel cell_counter" s:attribute="ref">counter</text><s:alias val="$_outputExt_"/><path d="M30,0 L30,20 L15,20 L0,10 L15,0 Z" fill="#ffffff" class="cell_counter"/><g s:x="0" s:y="10" s:pid="A"/></g><g s:type="constant" transform="translate(933.5,234)" s:width="30" s:height="20" id="cell_1010"><text x="15" y="-4" class="nodelabel cell_1010" s:attribute="ref">0xa</text><s:alias val="$_constant_"/><rect width="30" height="20" fill="#ffffff" class="cell_1010"/><g s:x="31" s:y="10" s:pid="Y"/></g><g s:type="constant" transform="translate(933.5,113)" s:width="30" s:height="20" id="cell_1"><text x="15" y="-4" class="nodelabel cell_1" s:attribute="ref">1</text><s:alias val="$_constant_"/><rect width="30" height="20" fill="#ffffff" class="cell_1"/><g s:x="31" s:y="10" s:pid="Y"/></g><g s:type="constant" transform="translate(999.5,127)" s:width="30" s:height="20" id="cell_0000000000000000000000000000000"><text x="15" y="-4" class="nodelabel cell_0000000000000000000000000000000" s:attribute="ref">0x0</text><s:alias val="$_constant_"/><rect width="30" height="20" fill="#ffffff" class="cell_0000000000000000000000000000000"/><g s:x="31" s:y="10" s:pid="Y"/></g><g s:type="constant" transform="translate(12,379)" s:width="30" s:height="20" id="cell_10111110101111000010000000"><text x="15" y="-4" class="nodelabel cell_10111110101111000010000000" s:attribute="ref">0x2faf080</text><s:alias val="$_constant_"/><rect width="30" height="20" fill="#ffffff" class="cell_10111110101111000010000000"/><g s:x="31" s:y="10" s:pid="Y"/></g><g s:type="constant" transform="translate(867.5,470)" s:width="30" s:height="20" id="cell_000000000000000000000000000000000"><text x="15" y="-4" class="nodelabel cell_000000000000000000000000000000000" s:attribute="ref">0x0</text><s:alias val="$_constant_"/><rect width="30" height="20" fill="#ffffff" class="cell_000000000000000000000000000000000"/><g s:x="31" s:y="10" s:pid="Y"/></g><g s:type="join" transform="translate(1024.5,308.5)" s:width="4" s:height="40" id="cell_$join$,5,6,7,8,9,10,11,12,13,14,15,16,17,18,19,20,21,22,23,24,25,26,27,28,29,30,31,32,33,34,35,161,162,163,164,165,166,167,168,169,170,171,172,173,174,175,176,177,178,179,180,181,182,183,184,185,186,187,188,189,190,191,192,193,"><rect width="5" height="40" class="splitjoinBody" s:generic="body"/><s:alias val="$_join_"/><g s:x="5" s:y="20" s:pid="out"/><g transform="translate(0,10)" s:x="0" s:y="10" s:pid="in0"><text x="-3" y="-4" class="inputPortLabel">0:30</text></g><g transform="translate(0,30)" s:x="0" s:y="10" s:pid="in0"><text x="-3" y="-4" class="inputPortLabel">31:63</text></g></g><line x1="898.5" x2="908.5" y1="62" y2="62" class="net_5,6,7,8,9,10,11,12,13,14,15,16,17,18,19,20,21,22,23,24,25,26,27,28,29,30,31,32,33,34,35 width_31" style="stroke-width: 2"/><line x1="908.5" x2="908.5" y1="62" y2="183" class="net_5,6,7,8,9,10,11,12,13,14,15,16,17,18,19,20,21,22,23,24,25,26,27,28,29,30,31,32,33,34,35 width_31" style="stroke-width: 2"/><circle cx="908.5" cy="62" r="3" style="fill:#000" class="net_5,6,7,8,9,10,11,12,13,14,15,16,17,18,19,20,21,22,23,24,25,26,27,28,29,30,31,32,33,34,35 width_31"/><circle cx="908.5" cy="183" r="3" style="fill:#000" class="net_5,6,7,8,9,10,11,12,13,14,15,16,17,18,19,20,21,22,23,24,25,26,27,28,29,30,31,32,33,34,35 width_31"/><line x1="908.5" x2="1067.5" y1="183" y2="183" class="net_5,6,7,8,9,10,11,12,13,14,15,16,17,18,19,20,21,22,23,24,25,26,27,28,29,30,31,32,33,34,35 width_31" style="stroke-width: 2"/><line x1="898.5" x2="1006.5" y1="62" y2="62" class="net_5,6,7,8,9,10,11,12,13,14,15,16,17,18,19,20,21,22,23,24,25,26,27,28,29,30,31,32,33,34,35 width_31" style="stroke-width: 2"/><line x1="898.5" x2="908.5" y1="62" y2="62" class="net_5,6,7,8,9,10,11,12,13,14,15,16,17,18,19,20,21,22,23,24,25,26,27,28,29,30,31,32,33,34,35 width_31" style="stroke-width: 2"/><line x1="908.5" x2="908.5" y1="62" y2="319" class="net_5,6,7,8,9,10,11,12,13,14,15,16,17,18,19,20,21,22,23,24,25,26,27,28,29,30,31,32,33,34,35 width_31" style="stroke-width: 2"/><line x1="908.5" x2="1024.5" y1="319" y2="319" class="net_5,6,7,8,9,10,11,12,13,14,15,16,17,18,19,20,21,22,23,24,25,26,27,28,29,30,31,32,33,34,35 width_31" style="stroke-width: 2"/><line x1="964.5" x2="1040.5" y1="244" y2="244" class="net_99,100,101,102 width_4" style="stroke-width: 2"/><line x1="1040.5" x2="1040.5" y1="244" y2="198" class="net_99,100,101,102 width_4" style="stroke-width: 2"/><line x1="1040.5" x2="1067.5" y1="198" y2="198" class="net_99,100,101,102 width_4" style="stroke-width: 2"/><line x1="964.5" x2="974.5" y1="123" y2="123" class="net_103 width_1" style="stroke-width: 1"/><line x1="974.5" x2="974.5" y1="123" y2="77" class="net_103 width_1" style="stroke-width: 1"/><line x1="974.5" x2="1006.5" y1="77" y2="77" class="net_103 width_1" style="stroke-width: 1"/><line x1="1030.5" x2="1125.5" y1="69.5" y2="69.5" class="net_37,38,39,40,41,42,43,44,45,46,47,48,49,50,51,52,53,54,55,56,57,58,59,60,61,62,63,64,65,66,67 width_31" style="stroke-width: 2"/><line x1="1030.5" x2="1100.5" y1="137" y2="137" class="net_104,105,106,107,108,109,110,111,112,113,114,115,116,117,118,119,120,121,122,123,124,125,126,127,128,129,130,131,132,133,134 width_31" style="stroke-width: 2"/><line x1="1100.5" x2="1100.5" y1="137" y2="89.5" class="net_104,105,106,107,108,109,110,111,112,113,114,115,116,117,118,119,120,121,122,123,124,125,126,127,128,129,130,131,132,133,134 width_31" style="stroke-width: 2"/><line x1="1100.5" x2="1125.5" y1="89.5" y2="89.5" class="net_104,105,106,107,108,109,110,111,112,113,114,115,116,117,118,119,120,121,122,123,124,125,126,127,128,129,130,131,132,133,134 width_31" style="stroke-width: 2"/><line x1="1090.5" x2="1138.5" y1="190.5" y2="190.5" class="net_36 width_1" style="stroke-width: 1"/><line x1="1138.5" x2="1138.5" y1="190.5" y2="97.5" class="net_36 width_1" style="stroke-width: 1"/><line x1="131" x2="880.5" y1="450" y2="450" class="net_3 width_1" style="stroke-width: 1"/><line x1="880.5" x2="880.5" y1="450" y2="96" class="net_3 width_1" style="stroke-width: 1"/><line x1="131" x2="141" y1="450" y2="450" class="net_3 width_1" style="stroke-width: 1"/><line x1="141" x2="141" y1="450" y2="324" class="net_3 width_1" style="stroke-width: 1"/><circle cx="141" cy="450" r="2" style="fill:#000" class="net_3 width_1"/><line x1="141" x2="215" y1="324" y2="324" class="net_3 width_1" style="stroke-width: 1"/><line x1="742.5" x2="862.5" y1="82" y2="82" class="net_4 width_1" style="stroke-width: 1"/><line x1="742.5" x2="837.5" y1="82" y2="82" class="net_4 width_1" style="stroke-width: 1"/><line x1="837.5" x2="837.5" y1="82" y2="264" class="net_4 width_1" style="stroke-width: 1"/><circle cx="837.5" cy="82" r="2" style="fill:#000" class="net_4 width_1"/><line x1="837.5" x2="1125.5" y1="264" y2="264" class="net_4 width_1" style="stroke-width: 1"/><line x1="1151" x2="1219.5" y1="79.5" y2="79.5" class="net_68,69,70,71,72,73,74,75,76,77,78,79,80,81,82,83,84,85,86,87,88,89,90,91,92,93,94,95,96,97,98 width_31" style="stroke-width: 2"/><line x1="1219.5" x2="1219.5" y1="79.5" y2="16" class="net_68,69,70,71,72,73,74,75,76,77,78,79,80,81,82,83,84,85,86,87,88,89,90,91,92,93,94,95,96,97,98 width_31" style="stroke-width: 2"/><line x1="1219.5" x2="837.5" y1="16" y2="16" class="net_68,69,70,71,72,73,74,75,76,77,78,79,80,81,82,83,84,85,86,87,88,89,90,91,92,93,94,95,96,97,98 width_31" style="stroke-width: 2"/><line x1="837.5" x2="837.5" y1="16" y2="62" class="net_68,69,70,71,72,73,74,75,76,77,78,79,80,81,82,83,84,85,86,87,88,89,90,91,92,93,94,95,96,97,98 width_31" style="stroke-width: 2"/><line x1="837.5" x2="862.5" y1="62" y2="62" class="net_68,69,70,71,72,73,74,75,76,77,78,79,80,81,82,83,84,85,86,87,88,89,90,91,92,93,94,95,96,97,98 width_31" style="stroke-width: 2"/><line x1="131" x2="215" y1="182" y2="182" class="net_2 width_1" style="stroke-width: 1"/><line x1="43" x2="215" y1="389" y2="389" class="net_135,136,137,138,139,140,141,142,143,144,145,146,147,148,149,150,151,152,153,154,155,156,157,158,159,160 width_26" style="stroke-width: 2"/><line x1="1030.5" x2="1126.5" y1="329" y2="329" class="net_5,6,7,8,9,10,11,12,13,14,15,16,17,18,19,20,21,22,23,24,25,26,27,28,29,30,31,32,33,34,35,161,162,163,164,165,166,167,168,169,170,171,172,173,174,175,176,177,178,179,180,181,182,183,184,185,186,187,188,189,190,191,192,193 width_64" style="stroke-width: 2"/><line x1="898.5" x2="974.5" y1="480" y2="480" class="net_161,162,163,164,165,166,167,168,169,170,171,172,173,174,175,176,177,178,179,180,181,182,183,184,185,186,187,188,189,190,191,192,193 width_33" style="stroke-width: 2"/><line x1="974.5" x2="974.5" y1="480" y2="339" class="net_161,162,163,164,165,166,167,168,169,170,171,172,173,174,175,176,177,178,179,180,181,182,183,184,185,186,187,188,189,190,191,192,193 width_33" style="stroke-width: 2"/><line x1="974.5" x2="1024.5" y1="339" y2="339" class="net_161,162,163,164,165,166,167,168,169,170,171,172,173,174,175,176,177,178,179,180,181,182,183,184,185,186,187,188,189,190,191,192,193 width_33" style="stroke-width: 2"/><rect x="948" y="314" width="22" height="9" class="net_5,6,7,8,9,10,11,12,13,14,15,16,17,18,19,20,21,22,23,24,25,26,27,28,29,30,31,32,33,34,35 width_31 busLabel_31" style="fill: white; stroke: none"/><text x="947" y="322" class="net_5,6,7,8,9,10,11,12,13,14,15,16,17,18,19,20,21,22,23,24,25,26,27,28,29,30,31,32,33,34,35 width_31 busLabel_31">/31/</text><rect x="948" y="314" width="22" height="9" class="net_5,6,7,8,9,10,11,12,13,14,15,16,17,18,19,20,21,22,23,24,25,26,27,28,29,30,31,32,33,34,35 width_31 busLabel_31" style="fill: white; stroke: none"/><text x="947" y="322" class="net_5,6,7,8,9,10,11,12,13,14,15,16,17,18,19,20,21,22,23,24,25,26,27,28,29,30,31,32,33,34,35 width_31 busLabel_31">/31/</text><rect x="948" y="314" width="22" height="9" class="net_5,6,7,8,9,10,11,12,13,14,15,16,17,18,19,20,21,22,23,24,25,26,27,28,29,30,31,32,33,34,35 width_31 busLabel_31" style="fill: white; stroke: none"/><text x="947" y="322" class="net_5,6,7,8,9,10,11,12,13,14,15,16,17,18,19,20,21,22,23,24,25,26,27,28,29,30,31,32,33,34,35 width_31 busLabel_31">/31/</text><rect x="1014" y="239" width="16" height="9" class="net_99,100,101,102 width_4 busLabel_4" style="fill: white; stroke: none"/><text x="1013" y="247" class="net_99,100,101,102 width_4 busLabel_4">/4/</text><rect x="1077" y="64.5" width="22" height="9" class="net_37,38,39,40,41,42,43,44,45,46,47,48,49,50,51,52,53,54,55,56,57,58,59,60,61,62,63,64,65,66,67 width_31 busLabel_31" style="fill: white; stroke: none"/><text x="1076" y="72.5" class="net_37,38,39,40,41,42,43,44,45,46,47,48,49,50,51,52,53,54,55,56,57,58,59,60,61,62,63,64,65,66,67 width_31 busLabel_31">/31/</text><rect x="1077" y="132" width="22" height="9" class="net_104,105,106,107,108,109,110,111,112,113,114,115,116,117,118,119,120,121,122,123,124,125,126,127,128,129,130,131,132,133,134 width_31 busLabel_31" style="fill: white; stroke: none"/><text x="1076" y="140" class="net_104,105,106,107,108,109,110,111,112,113,114,115,116,117,118,119,120,121,122,123,124,125,126,127,128,129,130,131,132,133,134 width_31 busLabel_31">/31/</text><rect x="1014" y="11" width="22" height="9" class="net_68,69,70,71,72,73,74,75,76,77,78,79,80,81,82,83,84,85,86,87,88,89,90,91,92,93,94,95,96,97,98 width_31 busLabel_31" style="fill: white; stroke: none"/><text x="1013" y="19" class="net_68,69,70,71,72,73,74,75,76,77,78,79,80,81,82,83,84,85,86,87,88,89,90,91,92,93,94,95,96,97,98 width_31 busLabel_31">/31/</text><rect x="115" y="384" width="22" height="9" class="net_135,136,137,138,139,140,141,142,143,144,145,146,147,148,149,150,151,152,153,154,155,156,157,158,159,160 width_26 busLabel_26" style="fill: white; stroke: none"/><text x="114" y="392" class="net_135,136,137,138,139,140,141,142,143,144,145,146,147,148,149,150,151,152,153,154,155,156,157,158,159,160 width_26 busLabel_26">/26/</text><rect x="1077" y="324" width="22" height="9" class="net_5,6,7,8,9,10,11,12,13,14,15,16,17,18,19,20,21,22,23,24,25,26,27,28,29,30,31,32,33,34,35,161,162,163,164,165,166,167,168,169,170,171,172,173,174,175,176,177,178,179,180,181,182,183,184,185,186,187,188,189,190,191,192,193 width_64 busLabel_64" style="fill: white; stroke: none"/><text x="1076" y="332" class="net_5,6,7,8,9,10,11,12,13,14,15,16,17,18,19,20,21,22,23,24,25,26,27,28,29,30,31,32,33,34,35,161,162,163,164,165,166,167,168,169,170,171,172,173,174,175,176,177,178,179,180,181,182,183,184,185,186,187,188,189,190,191,192,193 width_64 busLabel_64">/64/</text><rect x="948" y="475" width="22" height="9" class="net_161,162,163,164,165,166,167,168,169,170,171,172,173,174,175,176,177,178,179,180,181,182,183,184,185,186,187,188,189,190,191,192,193 width_33 busLabel_33" style="fill: white; stroke: none"/><text x="947" y="483" class="net_161,162,163,164,165,166,167,168,169,170,171,172,173,174,175,176,177,178,179,180,181,182,183,184,185,186,187,188,189,190,191,192,193 width_33 busLabel_33">/33/</text></svg>