<svg xmlns="http://www.w3.org/2000/svg" xmlns:xlink="http://www.w3.org/1999/xlink" xmlns:s="https://github.com/nturley/netlistsvg" width="527" height="534">
  <style>svg {
    stroke:#000;
    fill:none;
  }
  text {
    fill:#000;
    stroke:none;
    font-size:10px;
    font-weight: bold;
    font-family: "Courier New", monospace;
  }
  .nodelabel {
    text-anchor: middle;
  }
  .inputPortLabel {
    text-anchor: end;
  }
  .splitjoinBody {
    fill:#000;
  }</style>
  <g s:type="eq" transform="translate(296.6666666666667,356)" s:width="25" s:height="25" id="cell_$eq$forwarding_unit.v:20$3">
    <s:alias val="$eq"/>
    <circle r="12.5" cx="12.5" cy="12.5" class="cell_$eq$forwarding_unit.v:20$3"/>
    <line x1="7.5" x2="17.5" y1="10" y2="10" class="cell_$eq$forwarding_unit.v:20$3"/>
    <line x1="7.5" x2="17.5" y1="15" y2="15" class="cell_$eq$forwarding_unit.v:20$3"/>
    <g s:x="3" s:y="5" s:pid="A"/>
    <g s:x="3" s:y="20" s:pid="B"/>
    <g s:x="25" s:y="12.5" s:pid="Y"/>
  </g>
  <g s:type="eq" transform="translate(151.66666666666666,68)" s:width="25" s:height="25" id="cell_$eq$forwarding_unit.v:21$7">
    <s:alias val="$eq"/>
    <circle r="12.5" cx="12.5" cy="12.5" class="cell_$eq$forwarding_unit.v:21$7"/>
    <line x1="7.5" x2="17.5" y1="10" y2="10" class="cell_$eq$forwarding_unit.v:21$7"/>
    <line x1="7.5" x2="17.5" y1="15" y2="15" class="cell_$eq$forwarding_unit.v:21$7"/>
    <g s:x="3" s:y="5" s:pid="A"/>
    <g s:x="3" s:y="20" s:pid="B"/>
    <g s:x="25" s:y="12.5" s:pid="Y"/>
  </g>
  <g s:type="eq" transform="translate(296.6666666666667,416)" s:width="25" s:height="25" id="cell_$eq$forwarding_unit.v:24$13">
    <s:alias val="$eq"/>
    <circle r="12.5" cx="12.5" cy="12.5" class="cell_$eq$forwarding_unit.v:24$13"/>
    <line x1="7.5" x2="17.5" y1="10" y2="10" class="cell_$eq$forwarding_unit.v:24$13"/>
    <line x1="7.5" x2="17.5" y1="15" y2="15" class="cell_$eq$forwarding_unit.v:24$13"/>
    <g s:x="3" s:y="5" s:pid="A"/>
    <g s:x="3" s:y="20" s:pid="B"/>
    <g s:x="25" s:y="12.5" s:pid="Y"/>
  </g>
  <g s:type="eq" transform="translate(151.66666666666666,281.5)" s:width="25" s:height="25" id="cell_$eq$forwarding_unit.v:25$17">
    <s:alias val="$eq"/>
    <circle r="12.5" cx="12.5" cy="12.5" class="cell_$eq$forwarding_unit.v:25$17"/>
    <line x1="7.5" x2="17.5" y1="10" y2="10" class="cell_$eq$forwarding_unit.v:25$17"/>
    <line x1="7.5" x2="17.5" y1="15" y2="15" class="cell_$eq$forwarding_unit.v:25$17"/>
    <g s:x="3" s:y="5" s:pid="A"/>
    <g s:x="3" s:y="20" s:pid="B"/>
    <g s:x="25" s:y="12.5" s:pid="Y"/>
  </g>
  <g s:type="and" transform="translate(360,348.5)" s:width="30" s:height="25" id="cell_$logic_and$forwarding_unit.v:20$4">
    <s:alias val="$and"/>
    <s:alias val="$reduce_and"/>
    <s:alias val="$logic_and"/>
    <s:alias val="$_AND_"/>
    <path d="M0,0 L0,25 L15,25 A15 12.5 0 0 0 15,0 Z" class="cell_$logic_and$forwarding_unit.v:20$4"/>
    <text x="13" y="15" class="nodelabel" style="font-size:7px">AND</text>
    <g s:x="0" s:y="5" s:pid="A"/>
    <g s:x="0" s:y="20" s:pid="B"/>
    <g s:x="30" s:y="12.5" s:pid="Y"/>
  </g>
  <g s:type="and" transform="translate(221,149)" s:width="30" s:height="25" id="cell_$logic_and$forwarding_unit.v:21$8">
    <s:alias val="$and"/>
    <s:alias val="$reduce_and"/>
    <s:alias val="$logic_and"/>
    <s:alias val="$_AND_"/>
    <path d="M0,0 L0,25 L15,25 A15 12.5 0 0 0 15,0 Z" class="cell_$logic_and$forwarding_unit.v:21$8"/>
    <text x="13" y="15" class="nodelabel" style="font-size:7px">AND</text>
    <g s:x="0" s:y="5" s:pid="A"/>
    <g s:x="0" s:y="20" s:pid="B"/>
    <g s:x="30" s:y="12.5" s:pid="Y"/>
  </g>
  <g s:type="and" transform="translate(295,489.5)" s:width="30" s:height="25" id="cell_$logic_and$forwarding_unit.v:24$12">
    <s:alias val="$and"/>
    <s:alias val="$reduce_and"/>
    <s:alias val="$logic_and"/>
    <s:alias val="$_AND_"/>
    <path d="M0,0 L0,25 L15,25 A15 12.5 0 0 0 15,0 Z" class="cell_$logic_and$forwarding_unit.v:24$12"/>
    <text x="13" y="15" class="nodelabel" style="font-size:7px">AND</text>
    <g s:x="0" s:y="5" s:pid="A"/>
    <g s:x="0" s:y="20" s:pid="B"/>
    <g s:x="30" s:y="12.5" s:pid="Y"/>
  </g>
  <g s:type="and" transform="translate(360,497)" s:width="30" s:height="25" id="cell_$logic_and$forwarding_unit.v:24$14">
    <s:alias val="$and"/>
    <s:alias val="$reduce_and"/>
    <s:alias val="$logic_and"/>
    <s:alias val="$_AND_"/>
    <path d="M0,0 L0,25 L15,25 A15 12.5 0 0 0 15,0 Z" class="cell_$logic_and$forwarding_unit.v:24$14"/>
    <text x="13" y="15" class="nodelabel" style="font-size:7px">AND</text>
    <g s:x="0" s:y="5" s:pid="A"/>
    <g s:x="0" s:y="20" s:pid="B"/>
    <g s:x="30" s:y="12.5" s:pid="Y"/>
  </g>
  <g s:type="and" transform="translate(150,141.5)" s:width="30" s:height="25" id="cell_$logic_and$forwarding_unit.v:25$16">
    <s:alias val="$and"/>
    <s:alias val="$reduce_and"/>
    <s:alias val="$logic_and"/>
    <s:alias val="$_AND_"/>
    <path d="M0,0 L0,25 L15,25 A15 12.5 0 0 0 15,0 Z" class="cell_$logic_and$forwarding_unit.v:25$16"/>
    <text x="13" y="15" class="nodelabel" style="font-size:7px">AND</text>
    <g s:x="0" s:y="5" s:pid="A"/>
    <g s:x="0" s:y="20" s:pid="B"/>
    <g s:x="30" s:y="12.5" s:pid="Y"/>
  </g>
  <g s:type="and" transform="translate(221,274)" s:width="30" s:height="25" id="cell_$logic_and$forwarding_unit.v:25$18">
    <s:alias val="$and"/>
    <s:alias val="$reduce_and"/>
    <s:alias val="$logic_and"/>
    <s:alias val="$_AND_"/>
    <path d="M0,0 L0,25 L15,25 A15 12.5 0 0 0 15,0 Z" class="cell_$logic_and$forwarding_unit.v:25$18"/>
    <text x="13" y="15" class="nodelabel" style="font-size:7px">AND</text>
    <g s:x="0" s:y="5" s:pid="A"/>
    <g s:x="0" s:y="20" s:pid="B"/>
    <g s:x="30" s:y="12.5" s:pid="Y"/>
  </g>
  <g s:type="or" transform="translate(222,497)" s:width="30" s:height="25" id="cell_$ne$forwarding_unit.v:24$11">
    <s:alias val="$or"/>
    <s:alias val="$reduce_or"/>
    <s:alias val="$reduce_bool"/>
    <s:alias val="$logic_or"/>
    <s:alias val="$_OR_"/>
    <path d="M0,25 L0,25 L15,25 A15 12.5 0 0 0 15,0 L0,0" class="cell_$ne$forwarding_unit.v:24$11"/>
    <path d="M0,0 A30 25 0 0 1 0,25" class="cell_$ne$forwarding_unit.v:24$11"/>
    <text x="17" y="15" class="nodelabel" style="font-size:7px">OR</text>
    <g s:x="3" s:y="5" s:pid="A"/>
    <g s:x="3" s:y="20" s:pid="B"/>
    <g s:x="30" s:y="12.5" s:pid="Y"/>
  </g>
  <g s:type="or" transform="translate(80,149)" s:width="30" s:height="25" id="cell_$ne$forwarding_unit.v:25$15">
    <s:alias val="$or"/>
    <s:alias val="$reduce_or"/>
    <s:alias val="$reduce_bool"/>
    <s:alias val="$logic_or"/>
    <s:alias val="$_OR_"/>
    <path d="M0,25 L0,25 L15,25 A15 12.5 0 0 0 15,0 L0,0" class="cell_$ne$forwarding_unit.v:25$15"/>
    <path d="M0,0 A30 25 0 0 1 0,25" class="cell_$ne$forwarding_unit.v:25$15"/>
    <text x="17" y="15" class="nodelabel" style="font-size:7px">OR</text>
    <g s:x="3" s:y="5" s:pid="A"/>
    <g s:x="3" s:y="20" s:pid="B"/>
    <g s:x="30" s:y="12.5" s:pid="Y"/>
  </g>
  <g s:type="mux" transform="translate(430,273.5)" s:width="20" s:height="40" id="cell_$ternary$forwarding_unit.v:20$10">
    <s:alias val="$pmux"/>
    <s:alias val="$mux"/>
    <s:alias val="$_MUX_"/>
    <path d="M0,0 L20,10 L20,30 L0,40 Z" class="cell_$ternary$forwarding_unit.v:20$10"/>
    <g s:x="0" s:y="10" s:pid="A"/>
    <g s:x="0" s:y="30" s:pid="B"/>
    <g s:x="10" s:y="35" s:pid="S"/>
    <g s:x="20" s:y="20" s:pid="Y"/>
  </g>
  <g s:type="mux" transform="translate(298.3333333333333,23)" s:width="20" s:height="40" id="cell_$ternary$forwarding_unit.v:21$9">
    <s:alias val="$pmux"/>
    <s:alias val="$mux"/>
    <s:alias val="$_MUX_"/>
    <path d="M0,0 L20,10 L20,30 L0,40 Z" class="cell_$ternary$forwarding_unit.v:21$9"/>
    <g s:x="0" s:y="10" s:pid="A"/>
    <g s:x="0" s:y="30" s:pid="B"/>
    <g s:x="10" s:y="35" s:pid="S"/>
    <g s:x="20" s:y="20" s:pid="Y"/>
  </g>
  <g s:type="mux" transform="translate(430,459.5)" s:width="20" s:height="40" id="cell_$ternary$forwarding_unit.v:24$20">
    <s:alias val="$pmux"/>
    <s:alias val="$mux"/>
    <s:alias val="$_MUX_"/>
    <path d="M0,0 L20,10 L20,30 L0,40 Z" class="cell_$ternary$forwarding_unit.v:24$20"/>
    <g s:x="0" s:y="10" s:pid="A"/>
    <g s:x="0" s:y="30" s:pid="B"/>
    <g s:x="10" s:y="35" s:pid="S"/>
    <g s:x="20" s:y="20" s:pid="Y"/>
  </g>
  <g s:type="mux" transform="translate(298.3333333333333,199)" s:width="20" s:height="40" id="cell_$ternary$forwarding_unit.v:25$19">
    <s:alias val="$pmux"/>
    <s:alias val="$mux"/>
    <s:alias val="$_MUX_"/>
    <path d="M0,0 L20,10 L20,30 L0,40 Z" class="cell_$ternary$forwarding_unit.v:25$19"/>
    <g s:x="0" s:y="10" s:pid="A"/>
    <g s:x="0" s:y="30" s:pid="B"/>
    <g s:x="10" s:y="35" s:pid="S"/>
    <g s:x="20" s:y="20" s:pid="Y"/>
  </g>
  <g s:type="inputExt" transform="translate(77,43)" s:width="30" s:height="20" id="cell_ex_rs1">
    <text x="15" y="-4" class="nodelabel cell_ex_rs1" s:attribute="ref">ex_rs1</text>
    <s:alias val="$_inputExt_"/>
    <path d="M0,0 L0,20 L15,20 L30,10 L15,0 Z" class="cell_ex_rs1"/>
    <g s:x="28" s:y="10" s:pid="Y"/>
  </g>
  <g s:type="inputExt" transform="translate(77,380)" s:width="30" s:height="20" id="cell_ex_rs2">
    <text x="15" y="-4" class="nodelabel cell_ex_rs2" s:attribute="ref">ex_rs2</text>
    <s:alias val="$_inputExt_"/>
    <path d="M0,0 L0,20 L15,20 L30,10 L15,0 Z" class="cell_ex_rs2"/>
    <g s:x="28" s:y="10" s:pid="Y"/>
  </g>
  <g s:type="inputExt" transform="translate(148,411)" s:width="30" s:height="20" id="cell_mem_rd">
    <text x="15" y="-4" class="nodelabel cell_mem_rd" s:attribute="ref">mem_rd</text>
    <s:alias val="$_inputExt_"/>
    <path d="M0,0 L0,20 L15,20 L30,10 L15,0 Z" class="cell_mem_rd"/>
    <g s:x="28" s:y="10" s:pid="Y"/>
  </g>
  <g s:type="inputExt" transform="translate(219,442)" s:width="30" s:height="20" id="cell_mem_we">
    <text x="15" y="-4" class="nodelabel cell_mem_we" s:attribute="ref">mem_we</text>
    <s:alias val="$_inputExt_"/>
    <path d="M0,0 L0,20 L15,20 L30,10 L15,0 Z" class="cell_mem_we"/>
    <g s:x="28" s:y="10" s:pid="Y"/>
  </g>
  <g s:type="inputExt" transform="translate(12,144)" s:width="30" s:height="20" id="cell_wb_rd">
    <text x="15" y="-4" class="nodelabel cell_wb_rd" s:attribute="ref">wb_rd</text>
    <s:alias val="$_inputExt_"/>
    <path d="M0,0 L0,20 L15,20 L30,10 L15,0 Z" class="cell_wb_rd"/>
    <g s:x="28" s:y="10" s:pid="Y"/>
  </g>
  <g s:type="inputExt" transform="translate(77,94)" s:width="30" s:height="20" id="cell_wb_we">
    <text x="15" y="-4" class="nodelabel cell_wb_we" s:attribute="ref">wb_we</text>
    <s:alias val="$_inputExt_"/>
    <path d="M0,0 L0,20 L15,20 L30,10 L15,0 Z" class="cell_wb_we"/>
    <g s:x="28" s:y="10" s:pid="Y"/>
  </g>
  <g s:type="outputExt" transform="translate(485,283.5)" s:width="30" s:height="20" id="cell_fwd_a">
    <text x="15" y="-4" class="nodelabel cell_fwd_a" s:attribute="ref">fwd_a</text>
    <s:alias val="$_outputExt_"/>
    <path d="M30,0 L30,20 L15,20 L0,10 L15,0 Z" class="cell_fwd_a"/>
    <g s:x="0" s:y="10" s:pid="A"/>
  </g>
  <g s:type="outputExt" transform="translate(485,469.5)" s:width="30" s:height="20" id="cell_fwd_b">
    <text x="15" y="-4" class="nodelabel cell_fwd_b" s:attribute="ref">fwd_b</text>
    <s:alias val="$_outputExt_"/>
    <path d="M30,0 L30,20 L15,20 L0,10 L15,0 Z" class="cell_fwd_b"/>
    <g s:x="0" s:y="10" s:pid="A"/>
  </g>
  <g s:type="constant" transform="translate(219,23)" s:width="30" s:height="20" id="cell_0">
    <text x="15" y="-4" class="nodelabel cell_0" s:attribute="ref">0</text>
    <s:alias val="$_constant_"/>
    <rect width="30" height="20" class="cell_0"/>
    <g s:x="30" s:y="10" s:pid="Y"/>
  </g>
  <g s:type="constant" transform="translate(360,293.5)" s:width="30" s:height="20" id="cell_10">
    <text x="15" y="-4" class="nodelabel cell_10" s:attribute="ref">10</text>
    <s:alias val="$_constant_"/>
    <rect width="30" height="20" class="cell_10"/>
    <g s:x="30" s:y="10" s:pid="Y"/>
  </g>
  <g s:type="constant" transform="translate(219,219)" s:width="30" s:height="20" id="cell_1">
    <text x="15" y="-4" class="nodelabel cell_1" s:attribute="ref">1</text>
    <s:alias val="$_constant_"/>
    <rect width="30" height="20" class="cell_1"/>
    <g s:x="30" s:y="10" s:pid="Y"/>
  </g>
  <g s:type="join" transform="translate(371,32.5)" s:width="4" s:height="40" id="cell_$join$,40,42,">
    <rect width="5" height="40" class="splitjoinBody" s:generic="body"/>
    <s:alias val="$_join_"/>
    <g s:x="5" s:y="20" s:pid="out"/>
    <g transform="translate(0,10)" s:x="0" s:y="10" s:pid="in0">
      <text x="-3" y="-4" class="inputPortLabel">0</text>
    </g>
    <g transform="translate(0,30)" s:x="0" s:y="10" s:pid="in0">
      <text x="-3" y="-4" class="inputPortLabel">1</text>
    </g>
  </g>
  <g s:type="join" transform="translate(371,208.5)" s:width="4" s:height="40" id="cell_$join$,41,42,">
    <rect width="5" height="40" class="splitjoinBody" s:generic="body"/>
    <s:alias val="$_join_"/>
    <g s:x="5" s:y="20" s:pid="out"/>
    <g transform="translate(0,10)" s:x="0" s:y="10" s:pid="in0">
      <text x="-3" y="-4" class="inputPortLabel">0</text>
    </g>
    <g transform="translate(0,30)" s:x="0" s:y="10" s:pid="in0">
      <text x="-3" y="-4" class="inputPortLabel">1</text>
    </g>
  </g>
  <line x1="176" x2="275" y1="421" y2="421" class="net_12,13,14,15,16"/>
  <line x1="275" x2="275" y1="421" y2="361" class="net_12,13,14,15,16"/>
  <circle cx="275" cy="421" r="2" style="fill:#000" class="net_12,13,14,15,16"/>
  <line x1="275" x2="299.6666666666667" y1="361" y2="361" class="net_12,13,14,15,16"/>
  <line x1="176" x2="299.6666666666667" y1="421" y2="421" class="net_12,13,14,15,16"/>
  <line x1="176" x2="194" y1="421" y2="421" class="net_12,13,14,15,16"/>
  <line x1="194" x2="194" y1="421" y2="502" class="net_12,13,14,15,16"/>
  <circle cx="194" cy="421" r="2" style="fill:#000" class="net_12,13,14,15,16"/>
  <line x1="194" x2="225" y1="502" y2="502" class="net_12,13,14,15,16"/>
  <line x1="105" x2="265" y1="53" y2="53" class="net_2,3,4,5,6"/>
  <line x1="265" x2="265" y1="53" y2="376" class="net_2,3,4,5,6"/>
  <line x1="265" x2="299.6666666666667" y1="376" y2="376" class="net_2,3,4,5,6"/>
  <line x1="105" x2="123" y1="53" y2="53" class="net_2,3,4,5,6"/>
  <line x1="123" x2="123" y1="53" y2="88" class="net_2,3,4,5,6"/>
  <circle cx="123" cy="53" r="2" style="fill:#000" class="net_2,3,4,5,6"/>
  <line x1="123" x2="154.66666666666666" y1="88" y2="88" class="net_2,3,4,5,6"/>
  <line x1="40" x2="52" y1="154" y2="154" class="net_18,19,20,21,22"/>
  <line x1="52" x2="52" y1="154" y2="73" class="net_18,19,20,21,22"/>
  <circle cx="52" cy="154" r="2" style="fill:#000" class="net_18,19,20,21,22"/>
  <line x1="52" x2="154.66666666666666" y1="73" y2="73" class="net_18,19,20,21,22"/>
  <line x1="40" x2="52" y1="154" y2="154" class="net_18,19,20,21,22"/>
  <line x1="52" x2="52" y1="154" y2="286.5" class="net_18,19,20,21,22"/>
  <line x1="52" x2="154.66666666666666" y1="286.5" y2="286.5" class="net_18,19,20,21,22"/>
  <line x1="40" x2="83" y1="154" y2="154" class="net_18,19,20,21,22"/>
  <line x1="105" x2="265" y1="390" y2="390" class="net_7,8,9,10,11"/>
  <line x1="265" x2="265" y1="390" y2="436" class="net_7,8,9,10,11"/>
  <line x1="265" x2="299.6666666666667" y1="436" y2="436" class="net_7,8,9,10,11"/>
  <line x1="105" x2="123" y1="390" y2="390" class="net_7,8,9,10,11"/>
  <line x1="123" x2="123" y1="390" y2="301.5" class="net_7,8,9,10,11"/>
  <circle cx="123" cy="390" r="2" style="fill:#000" class="net_7,8,9,10,11"/>
  <line x1="123" x2="154.66666666666666" y1="301.5" y2="301.5" class="net_7,8,9,10,11"/>
  <line x1="325" x2="345" y1="502" y2="502" class="net_32"/>
  <line x1="345" x2="345" y1="502" y2="353.5" class="net_32"/>
  <circle cx="345" cy="502" r="2" style="fill:#000" class="net_32"/>
  <line x1="345" x2="360" y1="353.5" y2="353.5" class="net_32"/>
  <line x1="325" x2="360" y1="502" y2="502" class="net_32"/>
  <line x1="321.6666666666667" x2="360" y1="368.5" y2="368.5" class="net_28"/>
  <line x1="180" x2="221" y1="154" y2="154" class="net_34"/>
  <line x1="180" x2="194" y1="154" y2="154" class="net_34"/>
  <line x1="194" x2="194" y1="154" y2="279" class="net_34"/>
  <circle cx="194" cy="154" r="2" style="fill:#000" class="net_34"/>
  <line x1="194" x2="221" y1="279" y2="279" class="net_34"/>
  <line x1="176.66666666666666" x2="204" y1="80.5" y2="80.5" class="net_29"/>
  <line x1="204" x2="204" y1="80.5" y2="169" class="net_29"/>
  <line x1="204" x2="221" y1="169" y2="169" class="net_29"/>
  <line x1="247" x2="265" y1="452" y2="452" class="net_17"/>
  <line x1="265" x2="265" y1="452" y2="494.5" class="net_17"/>
  <line x1="265" x2="295" y1="494.5" y2="494.5" class="net_17"/>
  <line x1="252" x2="295" y1="509.5" y2="509.5" class="net_36"/>
  <line x1="321.6666666666667" x2="335" y1="428.5" y2="428.5" class="net_30"/>
  <line x1="335" x2="335" y1="428.5" y2="517" class="net_30"/>
  <line x1="335" x2="360" y1="517" y2="517" class="net_30"/>
  <line x1="105" x2="123" y1="104" y2="104" class="net_23"/>
  <line x1="123" x2="123" y1="104" y2="146.5" class="net_23"/>
  <line x1="123" x2="150" y1="146.5" y2="146.5" class="net_23"/>
  <line x1="110" x2="150" y1="161.5" y2="161.5" class="net_38"/>
  <line x1="176.66666666666666" x2="221" y1="294" y2="294" class="net_31"/>
  <line x1="377" x2="420" y1="53" y2="53" class="net_40,42"/>
  <line x1="420" x2="420" y1="53" y2="283.5" class="net_40,42"/>
  <line x1="420" x2="430" y1="283.5" y2="283.5" class="net_40,42"/>
  <line x1="390" x2="430" y1="303.5" y2="303.5" class="net_43,44"/>
  <line x1="390" x2="400" y1="303.5" y2="303.5" class="net_43,44"/>
  <line x1="400" x2="400" y1="303.5" y2="489.5" class="net_43,44"/>
  <circle cx="400" cy="303.5" r="2" style="fill:#000" class="net_43,44"/>
  <line x1="400" x2="430" y1="489.5" y2="489.5" class="net_43,44"/>
  <line x1="390" x2="440" y1="361" y2="361" class="net_33"/>
  <line x1="440" x2="440" y1="361" y2="308.5" class="net_33"/>
  <line x1="249" x2="298.3333333333333" y1="33" y2="33" class="net_42"/>
  <line x1="249" x2="285" y1="33" y2="33" class="net_42"/>
  <line x1="285" x2="285" y1="33" y2="209" class="net_42"/>
  <circle cx="285" cy="33" r="2" style="fill:#000" class="net_42"/>
  <line x1="285" x2="298.3333333333333" y1="209" y2="209" class="net_42"/>
  <line x1="249" x2="285" y1="33" y2="33" class="net_42"/>
  <line x1="285" x2="285" y1="33" y2="12" class="net_42"/>
  <line x1="285" x2="335" y1="12" y2="12" class="net_42"/>
  <line x1="335" x2="335" y1="12" y2="63" class="net_42"/>
  <circle cx="335" cy="63" r="2" style="fill:#000" class="net_42"/>
  <line x1="335" x2="371" y1="63" y2="63" class="net_42"/>
  <line x1="249" x2="285" y1="33" y2="33" class="net_42"/>
  <line x1="285" x2="285" y1="33" y2="12" class="net_42"/>
  <line x1="285" x2="335" y1="12" y2="12" class="net_42"/>
  <line x1="335" x2="335" y1="12" y2="239" class="net_42"/>
  <line x1="335" x2="371" y1="239" y2="239" class="net_42"/>
  <line x1="249" x2="275" y1="229" y2="229" class="net_46"/>
  <line x1="275" x2="275" y1="229" y2="53" class="net_46"/>
  <circle cx="275" cy="229" r="2" style="fill:#000" class="net_46"/>
  <line x1="275" x2="298.3333333333333" y1="53" y2="53" class="net_46"/>
  <line x1="249" x2="298.3333333333333" y1="229" y2="229" class="net_46"/>
  <line x1="251" x2="308.3333333333333" y1="161.5" y2="161.5" class="net_35"/>
  <line x1="308.3333333333333" x2="308.3333333333333" y1="161.5" y2="58" class="net_35"/>
  <line x1="377" x2="410" y1="229" y2="229" class="net_41,42"/>
  <line x1="410" x2="410" y1="229" y2="469.5" class="net_41,42"/>
  <line x1="410" x2="430" y1="469.5" y2="469.5" class="net_41,42"/>
  <line x1="390" x2="440" y1="509.5" y2="509.5" class="net_37"/>
  <line x1="440" x2="440" y1="509.5" y2="494.5" class="net_37"/>
  <line x1="251" x2="308.3333333333333" y1="286.5" y2="286.5" class="net_39"/>
  <line x1="308.3333333333333" x2="308.3333333333333" y1="286.5" y2="234" class="net_39"/>
  <line x1="450" x2="485" y1="293.5" y2="293.5" class="net_24,25"/>
  <line x1="450" x2="485" y1="479.5" y2="479.5" class="net_26,27"/>
  <line x1="318.3333333333333" x2="371" y1="43" y2="43" class="net_40"/>
  <line x1="318.3333333333333" x2="371" y1="219" y2="219" class="net_41"/>
</svg>
