<svg xmlns="http://www.w3.org/2000/svg" xmlns:xlink="http://www.w3.org/1999/xlink" xmlns:s="https://github.com/nturley/netlistsvg" width="467" height="1701">
  <style>svg {
    stroke:#000;
    fill:none;
  }
  text {
    fill:#000;
    stroke:none;
    font-size:10px;
    font-weight: bold;
    font-family: "Courier New", monospace;
  }
  .nodelabel {
    text-anchor: middle;
  }
  .inputPortLabel {
    text-anchor: end;
  }
  .splitjoinBody {
    fill:#000;
  }</style>
  <g s:type="add" transform="translate(323,1339)" s:width="25" s:height="25" id="cell_$add$glossary.v:64$21">
    <s:alias val="$add"/>
    <circle r="12.5" cx="12.5" cy="12.5" class="cell_$add$glossary.v:64$21"/>
    <line x1="7.5" x2="17.5" y1="12.5" y2="12.5" class="cell_$add$glossary.v:64$21"/>
    <line x1="12.5" x2="12.5" y1="7.5" y2="17.5" class="cell_$add$glossary.v:64$21"/>
    <g s:x="3" s:y="5" s:pid="A"/>
    <g s:x="3" s:y="20" s:pid="B"/>
    <g s:x="25" s:y="12.5" s:pid="Y"/>
  </g>
  <g s:type="add" transform="translate(170.33333333333334,210)" s:width="25" s:height="25" id="cell_$add$glossary.v:87$31">
    <s:alias val="$add"/>
    <circle r="12.5" cx="12.5" cy="12.5" class="cell_$add$glossary.v:87$31"/>
    <line x1="7.5" x2="17.5" y1="12.5" y2="12.5" class="cell_$add$glossary.v:87$31"/>
    <line x1="12.5" x2="12.5" y1="7.5" y2="17.5" class="cell_$add$glossary.v:87$31"/>
    <g s:x="3" s:y="5" s:pid="A"/>
    <g s:x="3" s:y="20" s:pid="B"/>
    <g s:x="25" s:y="12.5" s:pid="Y"/>
  </g>
  <g s:type="and" transform="translate(248,1209)" s:width="30" s:height="25" id="cell_$and$glossary.v:50$5">
    <s:alias val="$and"/>
    <s:alias val="$reduce_and"/>
    <s:alias val="$logic_and"/>
    <s:alias val="$_AND_"/>
    <path d="M0,0 L0,25 L15,25 A15 12.5 0 0 0 15,0 Z" class="cell_$and$glossary.v:50$5"/>
    <text x="13" y="15" class="nodelabel" style="font-size:7px">AND</text>
    <g s:x="0" s:y="5" s:pid="A"/>
    <g s:x="0" s:y="20" s:pid="B"/>
    <g s:x="30" s:y="12.5" s:pid="Y"/>
  </g>
  <g s:type="not" transform="translate(248.5,179)" s:width="30" s:height="20" id="cell_$eq$glossary.v:59$15">
    <s:alias val="$_NOT_"/>
    <s:alias val="$not"/>
    <s:alias val="$logic_not"/>
    <path d="M0,0 L0,20 L20,10 Z" class="cell_$eq$glossary.v:59$15"/>
    <circle cx="23" cy="10" r="3" class="cell_$eq$glossary.v:59$15"/>
    <text x="8" y="12" class="nodelabel" style="font-size:6px">NOT</text>
    <g s:x="0" s:y="10" s:pid="A"/>
    <g s:x="25" s:y="10" s:pid="Y"/>
  </g>
  <g s:type="eq" transform="translate(168.66666666666666,154)" s:width="25" s:height="25" id="cell_$eq$glossary.v:60$16">
    <s:alias val="$eq"/>
    <circle r="12.5" cx="12.5" cy="12.5" class="cell_$eq$glossary.v:60$16"/>
    <line x1="7.5" x2="17.5" y1="10" y2="10" class="cell_$eq$glossary.v:60$16"/>
    <line x1="7.5" x2="17.5" y1="15" y2="15" class="cell_$eq$glossary.v:60$16"/>
    <g s:x="3" s:y="5" s:pid="A"/>
    <g s:x="3" s:y="20" s:pid="B"/>
    <g s:x="25" s:y="12.5" s:pid="Y"/>
  </g>
  <g s:type="eq" transform="translate(78.66666666666667,12)" s:width="25" s:height="25" id="cell_$eq$glossary.v:61$17">
    <s:alias val="$eq"/>
    <circle r="12.5" cx="12.5" cy="12.5" class="cell_$eq$glossary.v:61$17"/>
    <line x1="7.5" x2="17.5" y1="10" y2="10" class="cell_$eq$glossary.v:61$17"/>
    <line x1="7.5" x2="17.5" y1="15" y2="15" class="cell_$eq$glossary.v:61$17"/>
    <g s:x="3" s:y="5" s:pid="A"/>
    <g s:x="3" s:y="20" s:pid="B"/>
    <g s:x="25" s:y="12.5" s:pid="Y"/>
  </g>
  <g s:type="eq" transform="translate(323,1404)" s:width="25" s:height="25" id="cell_$eq$glossary.v:66$23">
    <s:alias val="$eq"/>
    <circle r="12.5" cx="12.5" cy="12.5" class="cell_$eq$glossary.v:66$23"/>
    <line x1="7.5" x2="17.5" y1="10" y2="10" class="cell_$eq$glossary.v:66$23"/>
    <line x1="7.5" x2="17.5" y1="15" y2="15" class="cell_$eq$glossary.v:66$23"/>
    <g s:x="3" s:y="5" s:pid="A"/>
    <g s:x="3" s:y="20" s:pid="B"/>
    <g s:x="25" s:y="12.5" s:pid="Y"/>
  </g>
  <g s:type="lt" transform="translate(323,1469)" s:width="25" s:height="25" id="cell_$lt$glossary.v:67$24">
    <s:alias val="$lt"/>
    <circle r="12.5" cx="12.5" cy="12.5" class="cell_$lt$glossary.v:67$24"/>
    <line x1="7.5" x2="17.5" y1="12.5" y2="7.5" class="cell_$lt$glossary.v:67$24"/>
    <line x1="7.5" x2="17.5" y1="12.5" y2="17.5" class="cell_$lt$glossary.v:67$24"/>
    <g s:x="3" s:y="5" s:pid="A"/>
    <g s:x="3" s:y="20" s:pid="B"/>
    <g s:x="25" s:y="12.5" s:pid="Y"/>
  </g>
  <g s:type="not" transform="translate(316.5,501)" s:width="30" s:height="20" id="cell_$not$glossary.v:48$3">
    <s:alias val="$_NOT_"/>
    <s:alias val="$not"/>
    <s:alias val="$logic_not"/>
    <path d="M0,0 L0,20 L20,10 Z" class="cell_$not$glossary.v:48$3"/>
    <circle cx="23" cy="10" r="3" class="cell_$not$glossary.v:48$3"/>
    <text x="8" y="12" class="nodelabel" style="font-size:6px">NOT</text>
    <g s:x="0" s:y="10" s:pid="A"/>
    <g s:x="25" s:y="10" s:pid="Y"/>
  </g>
  <g s:type="not" transform="translate(316.5,1146.5)" s:width="30" s:height="20" id="cell_$not$glossary.v:50$6">
    <s:alias val="$_NOT_"/>
    <s:alias val="$not"/>
    <s:alias val="$logic_not"/>
    <path d="M0,0 L0,20 L20,10 Z" class="cell_$not$glossary.v:50$6"/>
    <circle cx="23" cy="10" r="3" class="cell_$not$glossary.v:50$6"/>
    <text x="8" y="12" class="nodelabel" style="font-size:6px">NOT</text>
    <g s:x="0" s:y="10" s:pid="A"/>
    <g s:x="25" s:y="10" s:pid="Y"/>
  </g>
  <g s:type="not" transform="translate(316.5,951.5)" s:width="30" s:height="20" id="cell_$not$glossary.v:51$8">
    <s:alias val="$_NOT_"/>
    <s:alias val="$not"/>
    <s:alias val="$logic_not"/>
    <path d="M0,0 L0,20 L20,10 Z" class="cell_$not$glossary.v:51$8"/>
    <circle cx="23" cy="10" r="3" class="cell_$not$glossary.v:51$8"/>
    <text x="8" y="12" class="nodelabel" style="font-size:6px">NOT</text>
    <g s:x="0" s:y="10" s:pid="A"/>
    <g s:x="25" s:y="10" s:pid="Y"/>
  </g>
  <g s:type="not" transform="translate(316.5,1081.5)" s:width="30" s:height="20" id="cell_$not$glossary.v:52$10">
    <s:alias val="$_NOT_"/>
    <s:alias val="$not"/>
    <s:alias val="$logic_not"/>
    <path d="M0,0 L0,20 L20,10 Z" class="cell_$not$glossary.v:52$10"/>
    <circle cx="23" cy="10" r="3" class="cell_$not$glossary.v:52$10"/>
    <text x="8" y="12" class="nodelabel" style="font-size:6px">NOT</text>
    <g s:x="0" s:y="10" s:pid="A"/>
    <g s:x="25" s:y="10" s:pid="Y"/>
  </g>
  <g s:type="or" transform="translate(248,949)" s:width="30" s:height="25" id="cell_$or$glossary.v:51$7">
    <s:alias val="$or"/>
    <s:alias val="$reduce_or"/>
    <s:alias val="$reduce_bool"/>
    <s:alias val="$logic_or"/>
    <s:alias val="$_OR_"/>
    <path d="M0,25 L0,25 L15,25 A15 12.5 0 0 0 15,0 L0,0" class="cell_$or$glossary.v:51$7"/>
    <path d="M0,0 A30 25 0 0 1 0,25" class="cell_$or$glossary.v:51$7"/>
    <text x="17" y="15" class="nodelabel" style="font-size:7px">OR</text>
    <g s:x="3" s:y="5" s:pid="A"/>
    <g s:x="3" s:y="20" s:pid="B"/>
    <g s:x="30" s:y="12.5" s:pid="Y"/>
  </g>
  <g s:type="dff" transform="translate(318,270)" s:width="30" s:height="40" id="cell_$procdff$46">
    <s:alias val="$dff"/>
    <s:alias val="$_DFF_"/>
    <s:alias val="$_DFF_P_"/>
    <rect width="30" height="40" x="0" y="0" class="cell_$procdff$46"/>
    <path d="M0,35 L5,30 L0,25" class="cell_$procdff$46"/>
    <g s:x="30" s:y="10" s:pid="Q"/>
    <g s:x="0" s:y="30" s:pid="CLK"/>
    <g s:x="0" s:y="30" s:pid="C"/>
    <g s:x="0" s:y="10" s:pid="D"/>
  </g>
  <g s:type="dff" transform="translate(318,351)" s:width="30" s:height="40" id="cell_$procdff$47">
    <s:alias val="$dff"/>
    <s:alias val="$_DFF_"/>
    <s:alias val="$_DFF_P_"/>
    <rect width="30" height="40" x="0" y="0" class="cell_$procdff$47"/>
    <path d="M0,35 L5,30 L0,25" class="cell_$procdff$47"/>
    <g s:x="30" s:y="10" s:pid="Q"/>
    <g s:x="0" s:y="30" s:pid="CLK"/>
    <g s:x="0" s:y="30" s:pid="C"/>
    <g s:x="0" s:y="10" s:pid="D"/>
  </g>
  <g s:type="dff" transform="translate(318,657)" s:width="30" s:height="40" id="cell_$procdff$48">
    <s:alias val="$dff"/>
    <s:alias val="$_DFF_"/>
    <s:alias val="$_DFF_P_"/>
    <rect width="30" height="40" x="0" y="0" class="cell_$procdff$48"/>
    <path d="M0,35 L5,30 L0,25" class="cell_$procdff$48"/>
    <g s:x="30" s:y="10" s:pid="Q"/>
    <g s:x="0" s:y="30" s:pid="CLK"/>
    <g s:x="0" s:y="30" s:pid="C"/>
    <g s:x="0" s:y="10" s:pid="D"/>
  </g>
  <g s:type="dff" transform="translate(318,426)" s:width="30" s:height="40" id="cell_$procdff$49">
    <s:alias val="$dff"/>
    <s:alias val="$_DFF_"/>
    <s:alias val="$_DFF_P_"/>
    <rect width="30" height="40" x="0" y="0" class="cell_$procdff$49"/>
    <path d="M0,35 L5,30 L0,25" class="cell_$procdff$49"/>
    <g s:x="30" s:y="10" s:pid="Q"/>
    <g s:x="0" s:y="30" s:pid="CLK"/>
    <g s:x="0" s:y="30" s:pid="C"/>
    <g s:x="0" s:y="10" s:pid="D"/>
  </g>
  <g s:type="mux" transform="translate(251.33333333333334,260)" s:width="20" s:height="40" id="cell_$procmux$39">
    <s:alias val="$pmux"/>
    <s:alias val="$mux"/>
    <s:alias val="$_MUX_"/>
    <path d="M0,0 L20,10 L20,30 L0,40 Z" class="cell_$procmux$39"/>
    <g s:x="0" s:y="10" s:pid="A"/>
    <g s:x="0" s:y="30" s:pid="B"/>
    <g s:x="10" s:y="35" s:pid="S"/>
    <g s:x="20" s:y="20" s:pid="Y"/>
  </g>
  <g s:type="mux" transform="translate(251.33333333333334,341)" s:width="20" s:height="40" id="cell_$procmux$42">
    <s:alias val="$pmux"/>
    <s:alias val="$mux"/>
    <s:alias val="$_MUX_"/>
    <path d="M0,0 L20,10 L20,30 L0,40 Z" class="cell_$procmux$42"/>
    <g s:x="0" s:y="10" s:pid="A"/>
    <g s:x="0" s:y="30" s:pid="B"/>
    <g s:x="10" s:y="35" s:pid="S"/>
    <g s:x="20" s:y="20" s:pid="Y"/>
  </g>
  <g s:type="mux" transform="translate(255.66666666666666,647)" s:width="20" s:height="40" id="cell_$procmux$44">
    <s:alias val="$pmux"/>
    <s:alias val="$mux"/>
    <s:alias val="$_MUX_"/>
    <path d="M0,0 L20,10 L20,30 L0,40 Z" class="cell_$procmux$44"/>
    <g s:x="0" s:y="10" s:pid="A"/>
    <g s:x="0" s:y="30" s:pid="B"/>
    <g s:x="10" s:y="35" s:pid="S"/>
    <g s:x="20" s:y="20" s:pid="Y"/>
  </g>
  <g s:type="and" transform="translate(316.5,1664)" s:width="30" s:height="25" id="cell_$reduce_and$glossary.v:55$12">
    <s:alias val="$and"/>
    <s:alias val="$reduce_and"/>
    <s:alias val="$logic_and"/>
    <s:alias val="$_AND_"/>
    <path d="M0,0 L0,25 L15,25 A15 12.5 0 0 0 15,0 Z" class="cell_$reduce_and$glossary.v:55$12"/>
    <text x="13" y="15" class="nodelabel" style="font-size:7px">AND</text>
    <g s:x="0" s:y="5" s:pid="A"/>
    <g s:x="0" s:y="20" s:pid="B"/>
    <g s:x="30" s:y="12.5" s:pid="Y"/>
  </g>
  <g s:type="or" transform="translate(316.5,1599)" s:width="30" s:height="25" id="cell_$reduce_or$glossary.v:54$11">
    <s:alias val="$or"/>
    <s:alias val="$reduce_or"/>
    <s:alias val="$reduce_bool"/>
    <s:alias val="$logic_or"/>
    <s:alias val="$_OR_"/>
    <path d="M0,25 L0,25 L15,25 A15 12.5 0 0 0 15,0 L0,0" class="cell_$reduce_or$glossary.v:54$11"/>
    <path d="M0,0 A30 25 0 0 1 0,25" class="cell_$reduce_or$glossary.v:54$11"/>
    <text x="17" y="15" class="nodelabel" style="font-size:7px">OR</text>
    <g s:x="3" s:y="5" s:pid="A"/>
    <g s:x="3" s:y="20" s:pid="B"/>
    <g s:x="30" s:y="12.5" s:pid="Y"/>
  </g>
  <g s:type="reduce_xor" transform="translate(315,1534)" s:width="33" s:height="25" id="cell_$reduce_xor$glossary.v:56$13">
    <s:alias val="$xor"/>
    <s:alias val="$reduce_xor"/>
    <s:alias val="$_XOR_"/>
    <path d="M3,0 A30 25 0 0 1 3,25 A30 25 0 0 0 33,12.5 A30 25 0 0 0 3,0" class="cell_$reduce_xor$glossary.v:56$13"/>
    <path d="M0,0 A30 25 0 0 1 0,25" class="cell_$reduce_xor$glossary.v:56$13"/>
    <text x="18" y="15" class="nodelabel" style="font-size:7px">XOR</text>
    <g s:x="3" s:y="5" s:pid="A"/>
    <g s:x="3" s:y="20" s:pid="B"/>
    <g s:x="33" s:y="12.5" s:pid="Y"/>
  </g>
  <g s:type="sub" transform="translate(323,1274)" s:width="25" s:height="25" id="cell_$sub$glossary.v:65$22">
    <s:alias val="$sub"/>
    <circle r="12.5" cx="12.5" cy="12.5" class="cell_$sub$glossary.v:65$22"/>
    <line x1="7.5" x2="17.5" y1="12.5" y2="12.5" class="cell_$sub$glossary.v:65$22"/>
    <g s:x="3" s:y="5" s:pid="A"/>
    <g s:x="3" s:y="20" s:pid="B"/>
    <g s:x="25" s:y="12.5" s:pid="Y"/>
  </g>
  <g s:type="mux" transform="translate(325.6666666666667,556)" s:width="20" s:height="40" id="cell_$ternary$glossary.v:58$14">
    <s:alias val="$pmux"/>
    <s:alias val="$mux"/>
    <s:alias val="$_MUX_"/>
    <path d="M0,0 L20,10 L20,30 L0,40 Z" class="cell_$ternary$glossary.v:58$14"/>
    <g s:x="0" s:y="10" s:pid="A"/>
    <g s:x="0" s:y="30" s:pid="B"/>
    <g s:x="10" s:y="35" s:pid="S"/>
    <g s:x="20" s:y="20" s:pid="Y"/>
  </g>
  <g s:type="mux" transform="translate(325.6666666666667,103)" s:width="20" s:height="40" id="cell_$ternary$glossary.v:59$20">
    <s:alias val="$pmux"/>
    <s:alias val="$mux"/>
    <s:alias val="$_MUX_"/>
    <path d="M0,0 L20,10 L20,30 L0,40 Z" class="cell_$ternary$glossary.v:59$20"/>
    <g s:x="0" s:y="10" s:pid="A"/>
    <g s:x="0" s:y="30" s:pid="B"/>
    <g s:x="10" s:y="35" s:pid="S"/>
    <g s:x="20" s:y="20" s:pid="Y"/>
  </g>
  <g s:type="mux" transform="translate(251.33333333333334,59.5)" s:width="20" s:height="40" id="cell_$ternary$glossary.v:60$19">
    <s:alias val="$pmux"/>
    <s:alias val="$mux"/>
    <s:alias val="$_MUX_"/>
    <path d="M0,0 L20,10 L20,30 L0,40 Z" class="cell_$ternary$glossary.v:60$19"/>
    <g s:x="0" s:y="10" s:pid="A"/>
    <g s:x="0" s:y="30" s:pid="B"/>
    <g s:x="10" s:y="35" s:pid="S"/>
    <g s:x="20" s:y="20" s:pid="Y"/>
  </g>
  <g s:type="mux" transform="translate(170.33333333333334,39.5)" s:width="20" s:height="40" id="cell_$ternary$glossary.v:61$18">
    <s:alias val="$pmux"/>
    <s:alias val="$mux"/>
    <s:alias val="$_MUX_"/>
    <path d="M0,0 L20,10 L20,30 L0,40 Z" class="cell_$ternary$glossary.v:61$18"/>
    <g s:x="0" s:y="10" s:pid="A"/>
    <g s:x="0" s:y="30" s:pid="B"/>
    <g s:x="10" s:y="35" s:pid="S"/>
    <g s:x="20" s:y="20" s:pid="Y"/>
  </g>
  <g s:type="reduce_xor" transform="translate(247,1079)" s:width="33" s:height="25" id="cell_$xor$glossary.v:52$9">
    <s:alias val="$xor"/>
    <s:alias val="$reduce_xor"/>
    <s:alias val="$_XOR_"/>
    <path d="M3,0 A30 25 0 0 1 3,25 A30 25 0 0 0 33,12.5 A30 25 0 0 0 3,0" class="cell_$xor$glossary.v:52$9"/>
    <path d="M0,0 A30 25 0 0 1 0,25" class="cell_$xor$glossary.v:52$9"/>
    <text x="18" y="15" class="nodelabel" style="font-size:7px">XOR</text>
    <g s:x="3" s:y="5" s:pid="A"/>
    <g s:x="3" s:y="20" s:pid="B"/>
    <g s:x="33" s:y="12.5" s:pid="Y"/>
  </g>
  <g s:type="inputExt" transform="translate(167,667)" s:width="30" s:height="20" id="cell_a">
    <text x="15" y="-4" class="nodelabel cell_a" s:attribute="ref">a</text>
    <s:alias val="$_inputExt_"/>
    <path d="M0,0 L0,20 L15,20 L30,10 L15,0 Z" class="cell_a"/>
    <g s:x="28" s:y="10" s:pid="Y"/>
  </g>
  <g s:type="inputExt" transform="translate(167,1089)" s:width="30" s:height="20" id="cell_b">
    <text x="15" y="-4" class="nodelabel cell_b" s:attribute="ref">b</text>
    <s:alias val="$_inputExt_"/>
    <path d="M0,0 L0,20 L15,20 L30,10 L15,0 Z" class="cell_b"/>
    <g s:x="28" s:y="10" s:pid="Y"/>
  </g>
  <g s:type="inputExt" transform="translate(250,607)" s:width="30" s:height="20" id="cell_sel">
    <text x="15" y="-4" class="nodelabel cell_sel" s:attribute="ref">sel</text>
    <s:alias val="$_inputExt_"/>
    <path d="M0,0 L0,20 L15,20 L30,10 L15,0 Z" class="cell_sel"/>
    <g s:x="28" s:y="10" s:pid="Y"/>
  </g>
  <g s:type="inputExt" transform="translate(12,179)" s:width="30" s:height="20" id="cell_sel4">
    <text x="15" y="-4" class="nodelabel cell_sel4" s:attribute="ref">sel4</text>
    <s:alias val="$_inputExt_"/>
    <path d="M0,0 L0,20 L15,20 L30,10 L15,0 Z" class="cell_sel4"/>
    <g s:x="28" s:y="10" s:pid="Y"/>
  </g>
  <g s:type="inputExt" transform="translate(12,1594)" s:width="30" s:height="20" id="cell_av">
    <text x="15" y="-4" class="nodelabel cell_av" s:attribute="ref">av</text>
    <s:alias val="$_inputExt_"/>
    <path d="M0,0 L0,20 L15,20 L30,10 L15,0 Z" class="cell_av"/>
    <g s:x="28" s:y="10" s:pid="Y"/>
  </g>
  <g s:type="inputExt" transform="translate(250,1414)" s:width="30" s:height="20" id="cell_bv">
    <text x="15" y="-4" class="nodelabel cell_bv" s:attribute="ref">bv</text>
    <s:alias val="$_inputExt_"/>
    <path d="M0,0 L0,20 L15,20 L30,10 L15,0 Z" class="cell_bv"/>
    <g s:x="28" s:y="10" s:pid="Y"/>
  </g>
  <g s:type="inputExt" transform="translate(250,446)" s:width="30" s:height="20" id="cell_clk">
    <text x="15" y="-4" class="nodelabel cell_clk" s:attribute="ref">clk</text>
    <s:alias val="$_inputExt_"/>
    <path d="M0,0 L0,20 L15,20 L30,10 L15,0 Z" class="cell_clk"/>
    <g s:x="28" s:y="10" s:pid="Y"/>
  </g>
  <g s:type="inputExt" transform="translate(167,416)" s:width="30" s:height="20" id="cell_rst">
    <text x="15" y="-4" class="nodelabel cell_rst" s:attribute="ref">rst</text>
    <s:alias val="$_inputExt_"/>
    <path d="M0,0 L0,20 L15,20 L30,10 L15,0 Z" class="cell_rst"/>
    <g s:x="28" s:y="10" s:pid="Y"/>
  </g>
  <g s:type="inputExt" transform="translate(167,821.5)" s:width="30" s:height="20" id="cell_en">
    <text x="15" y="-4" class="nodelabel cell_en" s:attribute="ref">en</text>
    <s:alias val="$_inputExt_"/>
    <path d="M0,0 L0,20 L15,20 L30,10 L15,0 Z" class="cell_en"/>
    <g s:x="28" s:y="10" s:pid="Y"/>
  </g>
  <g s:type="outputExt" transform="translate(383,1211.5)" s:width="30" s:height="20" id="cell_o_and">
    <text x="15" y="-4" class="nodelabel cell_o_and" s:attribute="ref">o_and</text>
    <s:alias val="$_outputExt_"/>
    <path d="M30,0 L30,20 L15,20 L0,10 L15,0 Z" class="cell_o_and"/>
    <g s:x="0" s:y="10" s:pid="A"/>
  </g>
  <g s:type="outputExt" transform="translate(383,886.5)" s:width="30" s:height="20" id="cell_o_or">
    <text x="15" y="-4" class="nodelabel cell_o_or" s:attribute="ref">o_or</text>
    <s:alias val="$_outputExt_"/>
    <path d="M30,0 L30,20 L15,20 L0,10 L15,0 Z" class="cell_o_or"/>
    <g s:x="0" s:y="10" s:pid="A"/>
  </g>
  <g s:type="outputExt" transform="translate(383,501)" s:width="30" s:height="20" id="cell_o_not">
    <text x="15" y="-4" class="nodelabel cell_o_not" s:attribute="ref">o_not</text>
    <s:alias val="$_outputExt_"/>
    <path d="M30,0 L30,20 L15,20 L0,10 L15,0 Z" class="cell_o_not"/>
    <g s:x="0" s:y="10" s:pid="A"/>
  </g>
  <g s:type="outputExt" transform="translate(383,1016.5)" s:width="30" s:height="20" id="cell_o_xor">
    <text x="15" y="-4" class="nodelabel cell_o_xor" s:attribute="ref">o_xor</text>
    <s:alias val="$_outputExt_"/>
    <path d="M30,0 L30,20 L15,20 L0,10 L15,0 Z" class="cell_o_xor"/>
    <g s:x="0" s:y="10" s:pid="A"/>
  </g>
  <g s:type="outputExt" transform="translate(383,1146.5)" s:width="30" s:height="20" id="cell_o_nand">
    <text x="15" y="-4" class="nodelabel cell_o_nand" s:attribute="ref">o_nand</text>
    <s:alias val="$_outputExt_"/>
    <path d="M30,0 L30,20 L15,20 L0,10 L15,0 Z" class="cell_o_nand"/>
    <g s:x="0" s:y="10" s:pid="A"/>
  </g>
  <g s:type="outputExt" transform="translate(383,951.5)" s:width="30" s:height="20" id="cell_o_nor">
    <text x="15" y="-4" class="nodelabel cell_o_nor" s:attribute="ref">o_nor</text>
    <s:alias val="$_outputExt_"/>
    <path d="M30,0 L30,20 L15,20 L0,10 L15,0 Z" class="cell_o_nor"/>
    <g s:x="0" s:y="10" s:pid="A"/>
  </g>
  <g s:type="outputExt" transform="translate(383,1081.5)" s:width="30" s:height="20" id="cell_o_xnor">
    <text x="15" y="-4" class="nodelabel cell_o_xnor" s:attribute="ref">o_xnor</text>
    <s:alias val="$_outputExt_"/>
    <path d="M30,0 L30,20 L15,20 L0,10 L15,0 Z" class="cell_o_xnor"/>
    <g s:x="0" s:y="10" s:pid="A"/>
  </g>
  <g s:type="outputExt" transform="translate(383,1601.5)" s:width="30" s:height="20" id="cell_o_reduce_or">
    <text x="15" y="-4" class="nodelabel cell_o_reduce_or" s:attribute="ref">o_reduce_or</text>
    <s:alias val="$_outputExt_"/>
    <path d="M30,0 L30,20 L15,20 L0,10 L15,0 Z" class="cell_o_reduce_or"/>
    <g s:x="0" s:y="10" s:pid="A"/>
  </g>
  <g s:type="outputExt" transform="translate(383,1666.5)" s:width="30" s:height="20" id="cell_o_reduce_and">
    <text x="15" y="-4" class="nodelabel cell_o_reduce_and" s:attribute="ref">o_reduce_and</text>
    <s:alias val="$_outputExt_"/>
    <path d="M30,0 L30,20 L15,20 L0,10 L15,0 Z" class="cell_o_reduce_and"/>
    <g s:x="0" s:y="10" s:pid="A"/>
  </g>
  <g s:type="outputExt" transform="translate(383,1536.5)" s:width="30" s:height="20" id="cell_o_reduce_xor">
    <text x="15" y="-4" class="nodelabel cell_o_reduce_xor" s:attribute="ref">o_reduce_xor</text>
    <s:alias val="$_outputExt_"/>
    <path d="M30,0 L30,20 L15,20 L0,10 L15,0 Z" class="cell_o_reduce_xor"/>
    <g s:x="0" s:y="10" s:pid="A"/>
  </g>
  <g s:type="outputExt" transform="translate(383,566)" s:width="30" s:height="20" id="cell_o_mux2">
    <text x="15" y="-4" class="nodelabel cell_o_mux2" s:attribute="ref">o_mux2</text>
    <s:alias val="$_outputExt_"/>
    <path d="M30,0 L30,20 L15,20 L0,10 L15,0 Z" class="cell_o_mux2"/>
    <g s:x="0" s:y="10" s:pid="A"/>
  </g>
  <g s:type="outputExt" transform="translate(383,113)" s:width="30" s:height="20" id="cell_o_mux4">
    <text x="15" y="-4" class="nodelabel cell_o_mux4" s:attribute="ref">o_mux4</text>
    <s:alias val="$_outputExt_"/>
    <path d="M30,0 L30,20 L15,20 L0,10 L15,0 Z" class="cell_o_mux4"/>
    <g s:x="0" s:y="10" s:pid="A"/>
  </g>
  <g s:type="outputExt" transform="translate(383,1341.5)" s:width="30" s:height="20" id="cell_o_add">
    <text x="15" y="-4" class="nodelabel cell_o_add" s:attribute="ref">o_add</text>
    <s:alias val="$_outputExt_"/>
    <path d="M30,0 L30,20 L15,20 L0,10 L15,0 Z" class="cell_o_add"/>
    <g s:x="0" s:y="10" s:pid="A"/>
  </g>
  <g s:type="outputExt" transform="translate(383,1276.5)" s:width="30" s:height="20" id="cell_o_sub">
    <text x="15" y="-4" class="nodelabel cell_o_sub" s:attribute="ref">o_sub</text>
    <s:alias val="$_outputExt_"/>
    <path d="M30,0 L30,20 L15,20 L0,10 L15,0 Z" class="cell_o_sub"/>
    <g s:x="0" s:y="10" s:pid="A"/>
  </g>
  <g s:type="outputExt" transform="translate(383,1406.5)" s:width="30" s:height="20" id="cell_o_eq">
    <text x="15" y="-4" class="nodelabel cell_o_eq" s:attribute="ref">o_eq</text>
    <s:alias val="$_outputExt_"/>
    <path d="M30,0 L30,20 L15,20 L0,10 L15,0 Z" class="cell_o_eq"/>
    <g s:x="0" s:y="10" s:pid="A"/>
  </g>
  <g s:type="outputExt" transform="translate(383,1471.5)" s:width="30" s:height="20" id="cell_o_lt">
    <text x="15" y="-4" class="nodelabel cell_o_lt" s:attribute="ref">o_lt</text>
    <s:alias val="$_outputExt_"/>
    <path d="M30,0 L30,20 L15,20 L0,10 L15,0 Z" class="cell_o_lt"/>
    <g s:x="0" s:y="10" s:pid="A"/>
  </g>
  <g s:type="outputExt" transform="translate(383,744.5)" s:width="30" s:height="20" id="cell_o_shl">
    <text x="15" y="-4" class="nodelabel cell_o_shl" s:attribute="ref">o_shl</text>
    <s:alias val="$_outputExt_"/>
    <path d="M30,0 L30,20 L15,20 L0,10 L15,0 Z" class="cell_o_shl"/>
    <g s:x="0" s:y="10" s:pid="A"/>
  </g>
  <g s:type="outputExt" transform="translate(383,821.5)" s:width="30" s:height="20" id="cell_o_shr">
    <text x="15" y="-4" class="nodelabel cell_o_shr" s:attribute="ref">o_shr</text>
    <s:alias val="$_outputExt_"/>
    <path d="M30,0 L30,20 L15,20 L0,10 L15,0 Z" class="cell_o_shr"/>
    <g s:x="0" s:y="10" s:pid="A"/>
  </g>
  <g s:type="outputExt" transform="translate(383,426)" s:width="30" s:height="20" id="cell_o_dff">
    <text x="15" y="-4" class="nodelabel cell_o_dff" s:attribute="ref">o_dff</text>
    <s:alias val="$_outputExt_"/>
    <path d="M30,0 L30,20 L15,20 L0,10 L15,0 Z" class="cell_o_dff"/>
    <g s:x="0" s:y="10" s:pid="A"/>
  </g>
  <g s:type="outputExt" transform="translate(383,657)" s:width="30" s:height="20" id="cell_o_dffe">
    <text x="15" y="-4" class="nodelabel cell_o_dffe" s:attribute="ref">o_dffe</text>
    <s:alias val="$_outputExt_"/>
    <path d="M30,0 L30,20 L15,20 L0,10 L15,0 Z" class="cell_o_dffe"/>
    <g s:x="0" s:y="10" s:pid="A"/>
  </g>
  <g s:type="outputExt" transform="translate(383,351)" s:width="30" s:height="20" id="cell_o_dffr">
    <text x="15" y="-4" class="nodelabel cell_o_dffr" s:attribute="ref">o_dffr</text>
    <s:alias val="$_outputExt_"/>
    <path d="M30,0 L30,20 L15,20 L0,10 L15,0 Z" class="cell_o_dffr"/>
    <g s:x="0" s:y="10" s:pid="A"/>
  </g>
  <g s:type="outputExt" transform="translate(383,270)" s:width="30" s:height="20" id="cell_o_counter">
    <text x="15" y="-4" class="nodelabel cell_o_counter" s:attribute="ref">o_counter</text>
    <s:alias val="$_outputExt_"/>
    <path d="M30,0 L30,20 L15,20 L0,10 L15,0 Z" class="cell_o_counter"/>
    <g s:x="0" s:y="10" s:pid="A"/>
  </g>
  <g s:type="constant" transform="translate(77,220)" s:width="30" s:height="20" id="cell_1">
    <text x="15" y="-4" class="nodelabel cell_1" s:attribute="ref">1</text>
    <s:alias val="$_constant_"/>
    <rect width="30" height="20" class="cell_1"/>
    <g s:x="30" s:y="10" s:pid="Y"/>
  </g>
  <g s:type="constant" transform="translate(12,22)" s:width="30" s:height="20" id="cell_10">
    <text x="15" y="-4" class="nodelabel cell_10" s:attribute="ref">10</text>
    <s:alias val="$_constant_"/>
    <rect width="30" height="20" class="cell_10"/>
    <g s:x="30" s:y="10" s:pid="Y"/>
  </g>
  <g s:type="constant" transform="translate(167,280)" s:width="30" s:height="20" id="cell_0000">
    <text x="15" y="-4" class="nodelabel cell_0000" s:attribute="ref">0x0</text>
    <s:alias val="$_constant_"/>
    <rect width="30" height="20" class="cell_0000"/>
    <g s:x="30" s:y="10" s:pid="Y"/>
  </g>
  <g s:type="constant" transform="translate(167,602)" s:width="30" s:height="20" id="cell_0">
    <text x="15" y="-4" class="nodelabel cell_0" s:attribute="ref">0</text>
    <s:alias val="$_constant_"/>
    <rect width="30" height="20" class="cell_0"/>
    <g s:x="30" s:y="10" s:pid="Y"/>
  </g>
  <g s:type="join" transform="translate(331,734)" s:width="4" s:height="40" id="cell_$join$,70,7,8,9,">
    <rect width="5" height="40" class="splitjoinBody" s:generic="body"/>
    <s:alias val="$_join_"/>
    <g s:x="5" s:y="20" s:pid="out"/>
    <g transform="translate(0,10)" s:x="0" s:y="10" s:pid="in0">
      <text x="-3" y="-4" class="inputPortLabel">0</text>
    </g>
    <g transform="translate(0,30)" s:x="0" s:y="10" s:pid="in0">
      <text x="-3" y="-4" class="inputPortLabel">1:3</text>
    </g>
  </g>
  <g s:type="join" transform="translate(334,811)" s:width="4" s:height="40" id="cell_$join$,8,9,10,70,">
    <rect width="5" height="40" class="splitjoinBody" s:generic="body"/>
    <s:alias val="$_join_"/>
    <g s:x="5" s:y="20" s:pid="out"/>
    <g transform="translate(0,10)" s:x="0" s:y="10" s:pid="in0">
      <text x="-3" y="-4" class="inputPortLabel">0:2</text>
    </g>
    <g transform="translate(0,30)" s:x="0" s:y="10" s:pid="in0">
      <text x="-3" y="-4" class="inputPortLabel">3</text>
    </g>
  </g>
  <g s:type="split" transform="translate(92.8,59)" s:width="5" s:height="40" id="cell_$split$,7,8,9,10,">
    <rect width="5" height="120" class="splitjoinBody" s:generic="body"/>
    <s:alias val="$_split_"/>
    <g s:x="0" s:y="20" s:pid="in"/>
    <g transform="translate(4,10)" s:x="4" s:y="10" s:pid="out0">
      <text x="5" y="-4">0</text>
    </g>
    <g transform="translate(4,30)" s:x="4" s:y="10" s:pid="out0">
      <text x="5" y="-4">1</text>
    </g>
    <g transform="translate(4,50)" s:x="4" s:y="10" s:pid="out0">
      <text x="5" y="-4">3</text>
    </g>
    <g transform="translate(4,70)" s:x="4" s:y="10" s:pid="out0">
      <text x="5" y="-4">2</text>
    </g>
    <g transform="translate(4,90)" s:x="4" s:y="10" s:pid="out0">
      <text x="5" y="-4">0:2</text>
    </g>
    <g transform="translate(4,110)" s:x="4" s:y="10" s:pid="out0">
      <text x="5" y="-4">1:3</text>
    </g>
  </g>
  <line x1="40" x2="207" y1="1604" y2="1604" class="net_7,8,9,10"/>
  <line x1="207" x2="207" y1="1604" y2="1344" class="net_7,8,9,10"/>
  <line x1="207" x2="326" y1="1344" y2="1344" class="net_7,8,9,10"/>
  <line x1="40" x2="207" y1="1604" y2="1604" class="net_7,8,9,10"/>
  <line x1="207" x2="207" y1="1604" y2="1344" class="net_7,8,9,10"/>
  <line x1="207" x2="290" y1="1344" y2="1344" class="net_7,8,9,10"/>
  <line x1="290" x2="290" y1="1344" y2="1409" class="net_7,8,9,10"/>
  <line x1="290" x2="326" y1="1409" y2="1409" class="net_7,8,9,10"/>
  <line x1="40" x2="290" y1="1604" y2="1604" class="net_7,8,9,10"/>
  <line x1="290" x2="290" y1="1604" y2="1474" class="net_7,8,9,10"/>
  <circle cx="290" cy="1604" r="2" style="fill:#000" class="net_7,8,9,10"/>
  <line x1="290" x2="326" y1="1474" y2="1474" class="net_7,8,9,10"/>
  <line x1="40" x2="290" y1="1604" y2="1604" class="net_7,8,9,10"/>
  <line x1="290" x2="290" y1="1604" y2="1669" class="net_7,8,9,10"/>
  <line x1="290" x2="316.5" y1="1669" y2="1669" class="net_7,8,9,10"/>
  <line x1="40" x2="319.5" y1="1604" y2="1604" class="net_7,8,9,10"/>
  <line x1="40" x2="290" y1="1604" y2="1604" class="net_7,8,9,10"/>
  <line x1="290" x2="290" y1="1604" y2="1539" class="net_7,8,9,10"/>
  <circle cx="290" cy="1539" r="2" style="fill:#000" class="net_7,8,9,10"/>
  <line x1="290" x2="318" y1="1539" y2="1539" class="net_7,8,9,10"/>
  <line x1="40" x2="207" y1="1604" y2="1604" class="net_7,8,9,10"/>
  <line x1="207" x2="207" y1="1604" y2="1344" class="net_7,8,9,10"/>
  <line x1="207" x2="290" y1="1344" y2="1344" class="net_7,8,9,10"/>
  <line x1="290" x2="290" y1="1344" y2="1279" class="net_7,8,9,10"/>
  <circle cx="207" cy="1604" r="2" style="fill:#000" class="net_7,8,9,10"/>
  <circle cx="290" cy="1344" r="2" style="fill:#000" class="net_7,8,9,10"/>
  <line x1="290" x2="326" y1="1279" y2="1279" class="net_7,8,9,10"/>
  <line x1="40" x2="62" y1="1604" y2="1604" class="net_7,8,9,10"/>
  <line x1="62" x2="62" y1="1604" y2="79.5" class="net_7,8,9,10"/>
  <circle cx="62" cy="1604" r="2" style="fill:#000" class="net_7,8,9,10"/>
  <line x1="62" x2="92.8" y1="79.5" y2="79.5" class="net_7,8,9,10"/>
  <line x1="278" x2="300" y1="1424" y2="1424" class="net_11,12,13,14"/>
  <line x1="300" x2="300" y1="1424" y2="1359" class="net_11,12,13,14"/>
  <circle cx="300" cy="1424" r="2" style="fill:#000" class="net_11,12,13,14"/>
  <circle cx="300" cy="1359" r="2" style="fill:#000" class="net_11,12,13,14"/>
  <line x1="300" x2="326" y1="1359" y2="1359" class="net_11,12,13,14"/>
  <line x1="278" x2="326" y1="1424" y2="1424" class="net_11,12,13,14"/>
  <line x1="278" x2="300" y1="1424" y2="1424" class="net_11,12,13,14"/>
  <line x1="300" x2="300" y1="1424" y2="1489" class="net_11,12,13,14"/>
  <line x1="300" x2="326" y1="1489" y2="1489" class="net_11,12,13,14"/>
  <line x1="278" x2="300" y1="1424" y2="1424" class="net_11,12,13,14"/>
  <line x1="300" x2="300" y1="1424" y2="1294" class="net_11,12,13,14"/>
  <line x1="300" x2="326" y1="1294" y2="1294" class="net_11,12,13,14"/>
  <line x1="348" x2="358" y1="280" y2="280" class="net_43,44,45,46"/>
  <line x1="358" x2="358" y1="280" y2="320" class="net_43,44,45,46"/>
  <line x1="358" x2="157" y1="320" y2="320" class="net_43,44,45,46"/>
  <line x1="157" x2="157" y1="320" y2="215" class="net_43,44,45,46"/>
  <circle cx="358" cy="280" r="2" style="fill:#000" class="net_43,44,45,46"/>
  <line x1="157" x2="173.33333333333334" y1="215" y2="215" class="net_43,44,45,46"/>
  <line x1="348" x2="383" y1="280" y2="280" class="net_43,44,45,46"/>
  <line x1="107" x2="173.33333333333334" y1="230" y2="230" class="net_62"/>
  <line x1="107" x2="147" y1="230" y2="230" class="net_62"/>
  <line x1="147" x2="147" y1="230" y2="174" class="net_62"/>
  <circle cx="147" cy="230" r="2" style="fill:#000" class="net_62"/>
  <line x1="147" x2="171.66666666666666" y1="174" y2="174" class="net_62"/>
  <line x1="195" x2="227" y1="677" y2="677" class="net_2"/>
  <line x1="227" x2="227" y1="677" y2="1214" class="net_2"/>
  <circle cx="227" cy="677" r="2" style="fill:#000" class="net_2"/>
  <line x1="227" x2="248" y1="1214" y2="1214" class="net_2"/>
  <line x1="195" x2="227" y1="677" y2="677" class="net_2"/>
  <line x1="227" x2="227" y1="677" y2="511" class="net_2"/>
  <circle cx="227" cy="511" r="2" style="fill:#000" class="net_2"/>
  <line x1="227" x2="316.5" y1="511" y2="511" class="net_2"/>
  <line x1="195" x2="227" y1="677" y2="677" class="net_2"/>
  <line x1="227" x2="227" y1="677" y2="954" class="net_2"/>
  <circle cx="227" cy="954" r="2" style="fill:#000" class="net_2"/>
  <line x1="227" x2="251" y1="954" y2="954" class="net_2"/>
  <line x1="195" x2="227" y1="677" y2="677" class="net_2"/>
  <line x1="227" x2="227" y1="677" y2="415" class="net_2"/>
  <line x1="227" x2="300" y1="415" y2="415" class="net_2"/>
  <line x1="300" x2="300" y1="415" y2="436" class="net_2"/>
  <circle cx="227" cy="415" r="2" style="fill:#000" class="net_2"/>
  <line x1="300" x2="318" y1="436" y2="436" class="net_2"/>
  <line x1="195" x2="227" y1="677" y2="677" class="net_2"/>
  <line x1="227" x2="227" y1="677" y2="351" class="net_2"/>
  <line x1="227" x2="251.33333333333334" y1="351" y2="351" class="net_2"/>
  <line x1="195" x2="255.66666666666666" y1="677" y2="677" class="net_2"/>
  <line x1="195" x2="227" y1="677" y2="677" class="net_2"/>
  <line x1="227" x2="227" y1="677" y2="586" class="net_2"/>
  <circle cx="227" cy="586" r="2" style="fill:#000" class="net_2"/>
  <line x1="227" x2="325.6666666666667" y1="586" y2="586" class="net_2"/>
  <line x1="195" x2="227" y1="677" y2="677" class="net_2"/>
  <line x1="227" x2="227" y1="677" y2="1084" class="net_2"/>
  <circle cx="227" cy="1084" r="2" style="fill:#000" class="net_2"/>
  <line x1="227" x2="250" y1="1084" y2="1084" class="net_2"/>
  <line x1="195" x2="207" y1="1099" y2="1099" class="net_3"/>
  <line x1="207" x2="207" y1="1099" y2="1229" class="net_3"/>
  <circle cx="207" cy="1099" r="2" style="fill:#000" class="net_3"/>
  <line x1="207" x2="248" y1="1229" y2="1229" class="net_3"/>
  <line x1="195" x2="207" y1="1099" y2="1099" class="net_3"/>
  <line x1="207" x2="207" y1="1099" y2="969" class="net_3"/>
  <circle cx="207" cy="969" r="2" style="fill:#000" class="net_3"/>
  <line x1="207" x2="251" y1="969" y2="969" class="net_3"/>
  <line x1="195" x2="207" y1="1099" y2="1099" class="net_3"/>
  <line x1="207" x2="207" y1="1099" y2="566" class="net_3"/>
  <line x1="207" x2="325.6666666666667" y1="566" y2="566" class="net_3"/>
  <line x1="195" x2="250" y1="1099" y2="1099" class="net_3"/>
  <line x1="40" x2="248.5" y1="189" y2="189" class="net_5,6"/>
  <line x1="40" x2="137" y1="189" y2="189" class="net_5,6"/>
  <line x1="137" x2="137" y1="189" y2="159" class="net_5,6"/>
  <circle cx="137" cy="189" r="2" style="fill:#000" class="net_5,6"/>
  <line x1="137" x2="171.66666666666666" y1="159" y2="159" class="net_5,6"/>
  <line x1="40" x2="52" y1="189" y2="189" class="net_5,6"/>
  <line x1="52" x2="52" y1="189" y2="17" class="net_5,6"/>
  <circle cx="52" cy="189" r="2" style="fill:#000" class="net_5,6"/>
  <line x1="52" x2="81.66666666666667" y1="17" y2="17" class="net_5,6"/>
  <line x1="42" x2="81.66666666666667" y1="32" y2="32" class="net_64,65"/>
  <line x1="278" x2="290" y1="1221.5" y2="1221.5" class="net_18"/>
  <line x1="290" x2="290" y1="1221.5" y2="1156.5" class="net_18"/>
  <circle cx="290" cy="1221.5" r="2" style="fill:#000" class="net_18"/>
  <line x1="290" x2="316.5" y1="1156.5" y2="1156.5" class="net_18"/>
  <line x1="278" x2="383" y1="1221.5" y2="1221.5" class="net_18"/>
  <line x1="278" x2="316.5" y1="961.5" y2="961.5" class="net_19"/>
  <line x1="278" x2="290" y1="961.5" y2="961.5" class="net_19"/>
  <line x1="290" x2="290" y1="961.5" y2="896.5" class="net_19"/>
  <circle cx="290" cy="961.5" r="2" style="fill:#000" class="net_19"/>
  <line x1="290" x2="383" y1="896.5" y2="896.5" class="net_19"/>
  <line x1="280" x2="316.5" y1="1091.5" y2="1091.5" class="net_21"/>
  <line x1="280" x2="290" y1="1091.5" y2="1091.5" class="net_21"/>
  <line x1="290" x2="290" y1="1091.5" y2="1026.5" class="net_21"/>
  <circle cx="290" cy="1091.5" r="2" style="fill:#000" class="net_21"/>
  <line x1="290" x2="383" y1="1026.5" y2="1026.5" class="net_21"/>
  <line x1="278" x2="290" y1="456" y2="456" class="net_15"/>
  <line x1="290" x2="290" y1="456" y2="300" class="net_15"/>
  <circle cx="290" cy="456" r="2" style="fill:#000" class="net_15"/>
  <line x1="290" x2="318" y1="300" y2="300" class="net_15"/>
  <line x1="278" x2="290" y1="456" y2="456" class="net_15"/>
  <line x1="290" x2="290" y1="456" y2="381" class="net_15"/>
  <circle cx="290" cy="381" r="2" style="fill:#000" class="net_15"/>
  <line x1="290" x2="318" y1="381" y2="381" class="net_15"/>
  <line x1="278" x2="290" y1="456" y2="456" class="net_15"/>
  <line x1="290" x2="290" y1="456" y2="687" class="net_15"/>
  <line x1="290" x2="318" y1="687" y2="687" class="net_15"/>
  <line x1="278" x2="318" y1="456" y2="456" class="net_15"/>
  <line x1="271.33333333333337" x2="318" y1="280" y2="280" class="net_54,55,56,57"/>
  <line x1="271.33333333333337" x2="318" y1="361" y2="361" class="net_58"/>
  <line x1="275.66666666666663" x2="318" y1="667" y2="667" class="net_59"/>
  <line x1="195.33333333333334" x2="207" y1="222.5" y2="222.5" class="net_47,48,49,50"/>
  <line x1="207" x2="207" y1="222.5" y2="270" class="net_47,48,49,50"/>
  <line x1="207" x2="251.33333333333334" y1="270" y2="270" class="net_47,48,49,50"/>
  <line x1="197" x2="251.33333333333334" y1="290" y2="290" class="net_66,67,68,69"/>
  <line x1="195" x2="207" y1="426" y2="426" class="net_16"/>
  <line x1="207" x2="207" y1="426" y2="331" class="net_16"/>
  <line x1="207" x2="261.33333333333337" y1="331" y2="331" class="net_16"/>
  <circle cx="207" cy="426" r="2" style="fill:#000" class="net_16"/>
  <line x1="261.33333333333337" x2="261.33333333333337" y1="331" y2="295" class="net_16"/>
  <line x1="195" x2="261.33333333333337" y1="426" y2="426" class="net_16"/>
  <line x1="261.33333333333337" x2="261.33333333333337" y1="426" y2="376" class="net_16"/>
  <line x1="197" x2="217" y1="612" y2="612" class="net_70"/>
  <line x1="217" x2="217" y1="612" y2="371" class="net_70"/>
  <circle cx="217" cy="612" r="2" style="fill:#000" class="net_70"/>
  <line x1="217" x2="251.33333333333334" y1="371" y2="371" class="net_70"/>
  <line x1="197" x2="217" y1="612" y2="612" class="net_70"/>
  <line x1="217" x2="217" y1="612" y2="744.5" class="net_70"/>
  <circle cx="217" cy="744.5" r="2" style="fill:#000" class="net_70"/>
  <line x1="217" x2="331" y1="744.5" y2="744.5" class="net_70"/>
  <line x1="197" x2="217" y1="612" y2="612" class="net_70"/>
  <line x1="217" x2="217" y1="612" y2="841.5" class="net_70"/>
  <line x1="217" x2="334" y1="841.5" y2="841.5" class="net_70"/>
  <line x1="348" x2="358" y1="667" y2="667" class="net_41"/>
  <line x1="358" x2="358" y1="667" y2="637" class="net_41"/>
  <line x1="358" x2="237" y1="637" y2="637" class="net_41"/>
  <line x1="237" x2="237" y1="637" y2="657" class="net_41"/>
  <circle cx="358" cy="667" r="2" style="fill:#000" class="net_41"/>
  <line x1="237" x2="255.66666666666666" y1="657" y2="657" class="net_41"/>
  <line x1="348" x2="383" y1="667" y2="667" class="net_41"/>
  <line x1="195" x2="265.66666666666663" y1="831.5" y2="831.5" class="net_17"/>
  <line x1="265.66666666666663" x2="265.66666666666663" y1="831.5" y2="682" class="net_17"/>
  <line x1="278" x2="335.6666666666667" y1="617" y2="617" class="net_4"/>
  <line x1="335.6666666666667" x2="335.6666666666667" y1="617" y2="591" class="net_4"/>
  <line x1="271.33333333333337" x2="290" y1="79.5" y2="79.5" class="net_60"/>
  <line x1="290" x2="290" y1="79.5" y2="113" class="net_60"/>
  <line x1="290" x2="325.6666666666667" y1="113" y2="113" class="net_60"/>
  <line x1="97.3" x2="97.3" y1="69" y2="47" class="net_7"/>
  <line x1="97.3" x2="137" y1="47" y2="47" class="net_7"/>
  <line x1="137" x2="137" y1="47" y2="133" class="net_7"/>
  <line x1="137" x2="325.6666666666667" y1="133" y2="133" class="net_7"/>
  <line x1="273.5" x2="335.6666666666667" y1="189" y2="189" class="net_51"/>
  <line x1="335.6666666666667" x2="335.6666666666667" y1="189" y2="138" class="net_51"/>
  <line x1="190.33333333333334" x2="207" y1="59.5" y2="59.5" class="net_61"/>
  <line x1="207" x2="207" y1="59.5" y2="69.5" class="net_61"/>
  <line x1="207" x2="251.33333333333334" y1="69.5" y2="69.5" class="net_61"/>
  <line x1="97.8" x2="251.33333333333334" y1="89.5" y2="89.5" class="net_8"/>
  <line x1="193.66666666666666" x2="261.33333333333337" y1="166.5" y2="166.5" class="net_52"/>
  <line x1="261.33333333333337" x2="261.33333333333337" y1="166.5" y2="94.5" class="net_52"/>
  <line x1="97.8" x2="117" y1="109.5" y2="109.5" class="net_10"/>
  <line x1="117" x2="117" y1="109.5" y2="49.5" class="net_10"/>
  <line x1="117" x2="170.33333333333334" y1="49.5" y2="49.5" class="net_10"/>
  <line x1="97.8" x2="127" y1="129.5" y2="129.5" class="net_9"/>
  <line x1="127" x2="127" y1="129.5" y2="69.5" class="net_9"/>
  <line x1="127" x2="170.33333333333334" y1="69.5" y2="69.5" class="net_9"/>
  <line x1="103.66666666666667" x2="147" y1="24.5" y2="24.5" class="net_53"/>
  <line x1="147" x2="147" y1="24.5" y2="144" class="net_53"/>
  <line x1="147" x2="180.33333333333334" y1="144" y2="144" class="net_53"/>
  <line x1="180.33333333333334" x2="180.33333333333334" y1="144" y2="74.5" class="net_53"/>
  <line x1="341.5" x2="383" y1="511" y2="511" class="net_20"/>
  <line x1="341.5" x2="383" y1="1156.5" y2="1156.5" class="net_22"/>
  <line x1="341.5" x2="383" y1="961.5" y2="961.5" class="net_23"/>
  <line x1="341.5" x2="383" y1="1091.5" y2="1091.5" class="net_24"/>
  <line x1="346.5" x2="383" y1="1611.5" y2="1611.5" class="net_25"/>
  <line x1="346.5" x2="383" y1="1676.5" y2="1676.5" class="net_26"/>
  <line x1="348" x2="383" y1="1546.5" y2="1546.5" class="net_27"/>
  <line x1="345.6666666666667" x2="383" y1="576" y2="576" class="net_28"/>
  <line x1="345.6666666666667" x2="383" y1="123" y2="123" class="net_29"/>
  <line x1="348" x2="383" y1="1351.5" y2="1351.5" class="net_30,31,32,33"/>
  <line x1="348" x2="383" y1="1286.5" y2="1286.5" class="net_34,35,36,37"/>
  <line x1="348" x2="383" y1="1416.5" y2="1416.5" class="net_38"/>
  <line x1="348" x2="383" y1="1481.5" y2="1481.5" class="net_39"/>
  <line x1="337" x2="383" y1="754.5" y2="754.5" class="net_70,7,8,9"/>
  <line x1="340" x2="383" y1="831.5" y2="831.5" class="net_8,9,10,70"/>
  <line x1="348" x2="383" y1="436" y2="436" class="net_40"/>
  <line x1="348" x2="383" y1="361" y2="361" class="net_42"/>
  <line x1="97.8" x2="127" y1="149.5" y2="149.5" class="net_7,8,9"/>
  <line x1="127" x2="127" y1="149.5" y2="764.5" class="net_7,8,9"/>
  <line x1="127" x2="331" y1="764.5" y2="764.5" class="net_7,8,9"/>
  <line x1="97.3" x2="97.3" y1="170" y2="200" class="net_8,9,10"/>
  <line x1="97.3" x2="117" y1="200" y2="200" class="net_8,9,10"/>
  <line x1="117" x2="117" y1="200" y2="800.5" class="net_8,9,10"/>
  <line x1="117" x2="290" y1="800.5" y2="800.5" class="net_8,9,10"/>
  <line x1="290" x2="290" y1="800.5" y2="821.5" class="net_8,9,10"/>
  <line x1="290" x2="334" y1="821.5" y2="821.5" class="net_8,9,10"/>
</svg>
