<svg xmlns="http://www.w3.org/2000/svg" xmlns:xlink="http://www.w3.org/1999/xlink" xmlns:s="https://github.com/nturley/netlistsvg" width="784" height="1377">
  <style>svg {
    stroke:#000;
    fill:none;
  }
  text {
    fill:#000;
    stroke:none;
    font-size:10px;
    font-weight: bold;
    font-family: "Courier New", monospace;
  }
  .nodelabel {
    text-anchor: middle;
  }
  .inputPortLabel {
    text-anchor: end;
  }
  .splitjoinBody {
    fill:#000;
  }</style>
  <g s:type="not" transform="translate(616,80.5)" s:width="30" s:height="20" id="cell_:22">
    <s:alias val="$_NOT_"/>
    <s:alias val="$not"/>
    <s:alias val="$logic_not"/>
    <path d="M0,0 L0,20 L20,10 Z" class="cell_:22"/>
    <circle cx="23" cy="10" r="3" class="cell_:22"/>
    <g s:x="0" s:y="10" s:pid="A"/>
    <g s:x="25" s:y="10" s:pid="Y"/>
  </g>
  <g s:type="mux" transform="translate(681,27)" s:width="20" s:height="40" id="cell_:23">
    <s:alias val="$pmux"/>
    <s:alias val="$mux"/>
    <s:alias val="$_MUX_"/>
    <path d="M0,0 L20,10 L20,30 L0,40 Z" class="cell_:23"/>
    <g s:x="0" s:y="10" s:pid="A"/>
    <g s:x="0" s:y="30" s:pid="B"/>
    <g s:x="10" s:y="35" s:pid="S"/>
    <g s:x="20" s:y="20" s:pid="Y"/>
  </g>
  <g s:type="eq" transform="translate(433,12)" s:width="25" s:height="25" id="cell_:24">
    <s:alias val="$eq"/>
    <circle r="12.5" cx="12.5" cy="12.5" class="cell_:24"/>
    <line x1="7.5" x2="17.5" y1="10" y2="10" class="cell_:24"/>
    <line x1="7.5" x2="17.5" y1="15" y2="15" class="cell_:24"/>
    <g s:x="3" s:y="5" s:pid="A"/>
    <g s:x="3" s:y="20" s:pid="B"/>
    <g s:x="25" s:y="12.5" s:pid="Y"/>
  </g>
  <g s:type="and" transform="translate(542,58)" s:width="30" s:height="25" id="cell_:25">
    <s:alias val="$and"/>
    <s:alias val="$logic_and"/>
    <s:alias val="$_AND_"/>
    <path d="M0,0 L0,25 L15,25 A15 12.5 0 0 0 15,0 Z" class="cell_:25"/>
    <g s:x="0" s:y="5" s:pid="A"/>
    <g s:x="0" s:y="20" s:pid="B"/>
    <g s:x="30" s:y="12.5" s:pid="Y"/>
  </g>
  <g s:type="mux" transform="translate(619.3333333333334,17)" s:width="20" s:height="40" id="cell_:26">
    <s:alias val="$pmux"/>
    <s:alias val="$mux"/>
    <s:alias val="$_MUX_"/>
    <path d="M0,0 L20,10 L20,30 L0,40 Z" class="cell_:26"/>
    <g s:x="0" s:y="10" s:pid="A"/>
    <g s:x="0" s:y="30" s:pid="B"/>
    <g s:x="10" s:y="35" s:pid="S"/>
    <g s:x="20" s:y="20" s:pid="Y"/>
  </g>
  <g s:type="not" transform="translate(616,1345)" s:width="30" s:height="20" id="cell_:34">
    <s:alias val="$_NOT_"/>
    <s:alias val="$not"/>
    <s:alias val="$logic_not"/>
    <path d="M0,0 L0,20 L20,10 Z" class="cell_:34"/>
    <circle cx="23" cy="10" r="3" class="cell_:34"/>
    <g s:x="0" s:y="10" s:pid="A"/>
    <g s:x="25" s:y="10" s:pid="Y"/>
  </g>
  <g s:type="mux" transform="translate(681,125.5)" s:width="20" s:height="40" id="cell_:35">
    <s:alias val="$pmux"/>
    <s:alias val="$mux"/>
    <s:alias val="$_MUX_"/>
    <path d="M0,0 L20,10 L20,30 L0,40 Z" class="cell_:35"/>
    <g s:x="0" s:y="10" s:pid="A"/>
    <g s:x="0" s:y="30" s:pid="B"/>
    <g s:x="10" s:y="35" s:pid="S"/>
    <g s:x="20" s:y="20" s:pid="Y"/>
  </g>
  <g s:type="eq" transform="translate(433,1308)" s:width="25" s:height="25" id="cell_:36">
    <s:alias val="$eq"/>
    <circle r="12.5" cx="12.5" cy="12.5" class="cell_:36"/>
    <line x1="7.5" x2="17.5" y1="10" y2="10" class="cell_:36"/>
    <line x1="7.5" x2="17.5" y1="15" y2="15" class="cell_:36"/>
    <g s:x="3" s:y="5" s:pid="A"/>
    <g s:x="3" s:y="20" s:pid="B"/>
    <g s:x="25" s:y="12.5" s:pid="Y"/>
  </g>
  <g s:type="and" transform="translate(542,1315.5)" s:width="30" s:height="25" id="cell_:37">
    <s:alias val="$and"/>
    <s:alias val="$logic_and"/>
    <s:alias val="$_AND_"/>
    <path d="M0,0 L0,25 L15,25 A15 12.5 0 0 0 15,0 Z" class="cell_:37"/>
    <g s:x="0" s:y="5" s:pid="A"/>
    <g s:x="0" s:y="20" s:pid="B"/>
    <g s:x="30" s:y="12.5" s:pid="Y"/>
  </g>
  <g s:type="mux" transform="translate(619.3333333333334,200.5)" s:width="20" s:height="40" id="cell_:38">
    <s:alias val="$pmux"/>
    <s:alias val="$mux"/>
    <s:alias val="$_MUX_"/>
    <path d="M0,0 L20,10 L20,30 L0,40 Z" class="cell_:38"/>
    <g s:x="0" s:y="10" s:pid="A"/>
    <g s:x="0" s:y="30" s:pid="B"/>
    <g s:x="10" s:y="35" s:pid="S"/>
    <g s:x="20" s:y="20" s:pid="Y"/>
  </g>
  <g s:type="generic" transform="translate(84,1177)" s:width="30" s:height="40" id="cell_:5">
    <text x="15" y="-4" class="nodelabel cell_:5" s:attribute="ref">≠0</text>
    <rect width="30" height="20" s:generic="body" class="cell_:5"/>
    <g transform="translate(0,10)" s:x="0" s:y="10" s:pid="in0" id="port_:5~A">
      <text x="-3" y="-4" class="inputPortLabel cell_:5">A</text>
    </g>
    <g transform="translate(30,10)" s:x="30" s:y="10" s:pid="out0" id="port_:5~Y">
      <text x="5" y="-4" style="fill:#000; stroke:none" class="cell_:5">Y</text>
    </g>
  </g>
  <g s:type="and" transform="translate(157,1182.5)" s:width="30" s:height="25" id="cell_:6">
    <s:alias val="$and"/>
    <s:alias val="$logic_and"/>
    <s:alias val="$_AND_"/>
    <path d="M0,0 L0,25 L15,25 A15 12.5 0 0 0 15,0 Z" class="cell_:6"/>
    <g s:x="0" s:y="5" s:pid="A"/>
    <g s:x="0" s:y="20" s:pid="B"/>
    <g s:x="30" s:y="12.5" s:pid="Y"/>
  </g>
  <g s:type="mux" transform="translate(227.33333333333334,1062.5)" s:width="20" s:height="40" id="cell_:7">
    <s:alias val="$pmux"/>
    <s:alias val="$mux"/>
    <s:alias val="$_MUX_"/>
    <path d="M0,0 L20,10 L20,30 L0,40 Z" class="cell_:7"/>
    <g s:x="0" s:y="10" s:pid="A"/>
    <g s:x="0" s:y="30" s:pid="B"/>
    <g s:x="10" s:y="35" s:pid="S"/>
    <g s:x="20" s:y="20" s:pid="Y"/>
  </g>
  <g s:type="generic" transform="translate(431,190)" s:width="30" s:height="40" id="cell_regs">
    <text x="15" y="-4" class="nodelabel cell_regs" s:attribute="ref">RAM</text>
    <rect width="30" height="180" s:generic="body" class="cell_regs"/>
    <g transform="translate(0,10)" s:x="0" s:y="10" s:pid="in0" id="port_regs~RD_ADDR">
      <text x="-3" y="-4" class="inputPortLabel cell_regs">RD_ADDR</text>
    </g>
    <g transform="translate(0,30)" s:x="0" s:y="10" s:pid="in0" id="port_regs~RD_ARST">
      <text x="-3" y="-4" class="inputPortLabel cell_regs">RD_ARST</text>
    </g>
    <g transform="translate(0,50)" s:x="0" s:y="10" s:pid="in0" id="port_regs~RD_CLK">
      <text x="-3" y="-4" class="inputPortLabel cell_regs">RD_CLK</text>
    </g>
    <g transform="translate(0,70)" s:x="0" s:y="10" s:pid="in0" id="port_regs~RD_EN">
      <text x="-3" y="-4" class="inputPortLabel cell_regs">RD_EN</text>
    </g>
    <g transform="translate(0,90)" s:x="0" s:y="10" s:pid="in0" id="port_regs~RD_SRST">
      <text x="-3" y="-4" class="inputPortLabel cell_regs">RD_SRST</text>
    </g>
    <g transform="translate(0,110)" s:x="0" s:y="10" s:pid="in0" id="port_regs~WR_ADDR">
      <text x="-3" y="-4" class="inputPortLabel cell_regs">WR_ADDR</text>
    </g>
    <g transform="translate(0,130)" s:x="0" s:y="10" s:pid="in0" id="port_regs~WR_CLK">
      <text x="-3" y="-4" class="inputPortLabel cell_regs">WR_CLK</text>
    </g>
    <g transform="translate(0,150)" s:x="0" s:y="10" s:pid="in0" id="port_regs~WR_DATA">
      <text x="-3" y="-4" class="inputPortLabel cell_regs">WR_DATA</text>
    </g>
    <g transform="translate(0,170)" s:x="0" s:y="10" s:pid="in0" id="port_regs~WR_EN">
      <text x="-3" y="-4" class="inputPortLabel cell_regs">WR_EN</text>
    </g>
    <g transform="translate(30,10)" s:x="30" s:y="10" s:pid="out0" id="port_regs~RD_DATA">
      <text x="5" y="-4" style="fill:#000; stroke:none" class="cell_regs">RD_DATA</text>
    </g>
  </g>
  <g s:type="inputExt" transform="translate(298,395)" s:width="30" s:height="20" id="cell_clk">
    <text x="15" y="-4" class="nodelabel cell_clk" s:attribute="ref">clk</text>
    <s:alias val="$_inputExt_"/>
    <path d="M0,0 L0,20 L15,20 L30,10 L15,0 Z" class="cell_clk"/>
    <g s:x="28" s:y="10" s:pid="Y"/>
  </g>
  <g s:type="inputExt" transform="translate(84,1245)" s:width="30" s:height="20" id="cell_we">
    <text x="15" y="-4" class="nodelabel cell_we" s:attribute="ref">we</text>
    <s:alias val="$_inputExt_"/>
    <path d="M0,0 L0,20 L15,20 L30,10 L15,0 Z" class="cell_we"/>
    <g s:x="28" s:y="10" s:pid="Y"/>
  </g>
  <g s:type="inputExt" transform="translate(12,1177.5)" s:width="30" s:height="20" id="cell_waddr">
    <text x="15" y="-4" class="nodelabel cell_waddr" s:attribute="ref">waddr</text>
    <s:alias val="$_inputExt_"/>
    <path d="M0,0 L0,20 L15,20 L30,10 L15,0 Z" class="cell_waddr"/>
    <g s:x="28" s:y="10" s:pid="Y"/>
  </g>
  <g s:type="inputExt" transform="translate(298,460)" s:width="30" s:height="20" id="cell_wdata">
    <text x="15" y="-4" class="nodelabel cell_wdata" s:attribute="ref">wdata</text>
    <s:alias val="$_inputExt_"/>
    <path d="M0,0 L0,20 L15,20 L30,10 L15,0 Z" class="cell_wdata"/>
    <g s:x="28" s:y="10" s:pid="Y"/>
  </g>
  <g s:type="inputExt" transform="translate(222,200.5)" s:width="30" s:height="20" id="cell_raddr1">
    <text x="15" y="-4" class="nodelabel cell_raddr1" s:attribute="ref">raddr1</text>
    <s:alias val="$_inputExt_"/>
    <path d="M0,0 L0,20 L15,20 L30,10 L15,0 Z" class="cell_raddr1"/>
    <g s:x="28" s:y="10" s:pid="Y"/>
  </g>
  <g s:type="inputExt" transform="translate(222,1303)" s:width="30" s:height="20" id="cell_raddr2">
    <text x="15" y="-4" class="nodelabel cell_raddr2" s:attribute="ref">raddr2</text>
    <s:alias val="$_inputExt_"/>
    <path d="M0,0 L0,20 L15,20 L30,10 L15,0 Z" class="cell_raddr2"/>
    <g s:x="28" s:y="10" s:pid="Y"/>
  </g>
  <g s:type="outputExt" transform="translate(736,37)" s:width="30" s:height="20" id="cell_rdata1">
    <text x="15" y="-4" class="nodelabel cell_rdata1" s:attribute="ref">rdata1</text>
    <s:alias val="$_outputExt_"/>
    <path d="M30,0 L30,20 L15,20 L0,10 L15,0 Z" class="cell_rdata1"/>
    <g s:x="0" s:y="10" s:pid="A"/>
  </g>
  <g s:type="outputExt" transform="translate(736,135.5)" s:width="30" s:height="20" id="cell_rdata2">
    <text x="15" y="-4" class="nodelabel cell_rdata2" s:attribute="ref">rdata2</text>
    <s:alias val="$_outputExt_"/>
    <path d="M30,0 L30,20 L15,20 L0,10 L15,0 Z" class="cell_rdata2"/>
    <g s:x="0" s:y="10" s:pid="A"/>
  </g>
  <g s:type="constant" transform="translate(616,145.5)" s:width="30" s:height="20" id="cell_00000000000000000000000000000000">
    <text x="15" y="-4" class="nodelabel cell_00000000000000000000000000000000" s:attribute="ref">0x0</text>
    <s:alias val="$_constant_"/>
    <rect width="30" height="20" class="cell_00000000000000000000000000000000"/>
    <g s:x="30" s:y="10" s:pid="Y"/>
  </g>
  <g s:type="constant" transform="translate(157,1062.5)" s:width="30" s:height="20" id="cell_0">
    <text x="15" y="-4" class="nodelabel cell_0" s:attribute="ref">0</text>
    <s:alias val="$_constant_"/>
    <rect width="30" height="20" class="cell_0"/>
    <g s:x="30" s:y="10" s:pid="Y"/>
  </g>
  <g s:type="constant" transform="translate(157,1127.5)" s:width="30" s:height="20" id="cell_1">
    <text x="15" y="-4" class="nodelabel cell_1" s:attribute="ref">1</text>
    <s:alias val="$_constant_"/>
    <rect width="30" height="20" class="cell_1"/>
    <g s:x="30" s:y="10" s:pid="Y"/>
  </g>
  <g s:type="constant" transform="translate(298,265)" s:width="30" s:height="20" id="cell_00">
    <text x="15" y="-4" class="nodelabel cell_00" s:attribute="ref">00</text>
    <s:alias val="$_constant_"/>
    <rect width="30" height="20" class="cell_00"/>
    <g s:x="30" s:y="10" s:pid="Y"/>
  </g>
  <g s:type="constant" transform="translate(298,330)" s:width="30" s:height="20" id="cell_11">
    <text x="15" y="-4" class="nodelabel cell_11" s:attribute="ref">11</text>
    <s:alias val="$_constant_"/>
    <rect width="30" height="20" class="cell_11"/>
    <g s:x="30" s:y="10" s:pid="Y"/>
  </g>
  <g s:type="join" transform="translate(317,180)" s:width="4" s:height="40" id="cell_$join$,46,47,48,49,50,41,42,43,44,45,">
    <rect width="5" height="40" class="splitjoinBody" s:generic="body"/>
    <s:alias val="$_join_"/>
    <g s:x="5" s:y="20" s:pid="out"/>
    <g transform="translate(0,10)" s:x="0" s:y="10" s:pid="in0">
      <text x="-3" y="-4" class="inputPortLabel">0:4</text>
    </g>
    <g transform="translate(0,30)" s:x="0" s:y="10" s:pid="in0">
      <text x="-3" y="-4" class="inputPortLabel">5:9</text>
    </g>
  </g>
  <g s:type="join" transform="translate(316.52,532)" s:width="4" s:height="40" id="cell_$join$,149,149,149,149,149,149,149,149,149,149,149,149,149,149,149,149,149,149,149,149,149,149,149,149,149,149,149,149,149,149,149,149,">
    <rect width="5" height="640" class="splitjoinBody" s:generic="body"/>
    <s:alias val="$_join_"/>
    <g s:x="5" s:y="20" s:pid="out"/>
    <g transform="translate(0,10)" s:x="0" s:y="10" s:pid="in0">
      <text x="-3" y="-4" class="inputPortLabel">0</text>
    </g>
    <g transform="translate(0,30)" s:x="0" s:y="10" s:pid="in0">
      <text x="-3" y="-4" class="inputPortLabel">1</text>
    </g>
    <g transform="translate(0,50)" s:x="0" s:y="10" s:pid="in0">
      <text x="-3" y="-4" class="inputPortLabel">2</text>
    </g>
    <g transform="translate(0,70)" s:x="0" s:y="10" s:pid="in0">
      <text x="-3" y="-4" class="inputPortLabel">3</text>
    </g>
    <g transform="translate(0,90)" s:x="0" s:y="10" s:pid="in0">
      <text x="-3" y="-4" class="inputPortLabel">4</text>
    </g>
    <g transform="translate(0,110)" s:x="0" s:y="10" s:pid="in0">
      <text x="-3" y="-4" class="inputPortLabel">5</text>
    </g>
    <g transform="translate(0,130)" s:x="0" s:y="10" s:pid="in0">
      <text x="-3" y="-4" class="inputPortLabel">6</text>
    </g>
    <g transform="translate(0,150)" s:x="0" s:y="10" s:pid="in0">
      <text x="-3" y="-4" class="inputPortLabel">7</text>
    </g>
    <g transform="translate(0,170)" s:x="0" s:y="10" s:pid="in0">
      <text x="-3" y="-4" class="inputPortLabel">8</text>
    </g>
    <g transform="translate(0,190)" s:x="0" s:y="10" s:pid="in0">
      <text x="-3" y="-4" class="inputPortLabel">9</text>
    </g>
    <g transform="translate(0,210)" s:x="0" s:y="10" s:pid="in0">
      <text x="-3" y="-4" class="inputPortLabel">10</text>
    </g>
    <g transform="translate(0,230)" s:x="0" s:y="10" s:pid="in0">
      <text x="-3" y="-4" class="inputPortLabel">11</text>
    </g>
    <g transform="translate(0,250)" s:x="0" s:y="10" s:pid="in0">
      <text x="-3" y="-4" class="inputPortLabel">12</text>
    </g>
    <g transform="translate(0,270)" s:x="0" s:y="10" s:pid="in0">
      <text x="-3" y="-4" class="inputPortLabel">13</text>
    </g>
    <g transform="translate(0,290)" s:x="0" s:y="10" s:pid="in0">
      <text x="-3" y="-4" class="inputPortLabel">14</text>
    </g>
    <g transform="translate(0,310)" s:x="0" s:y="10" s:pid="in0">
      <text x="-3" y="-4" class="inputPortLabel">15</text>
    </g>
    <g transform="translate(0,330)" s:x="0" s:y="10" s:pid="in0">
      <text x="-3" y="-4" class="inputPortLabel">16</text>
    </g>
    <g transform="translate(0,350)" s:x="0" s:y="10" s:pid="in0">
      <text x="-3" y="-4" class="inputPortLabel">17</text>
    </g>
    <g transform="translate(0,370)" s:x="0" s:y="10" s:pid="in0">
      <text x="-3" y="-4" class="inputPortLabel">18</text>
    </g>
    <g transform="translate(0,390)" s:x="0" s:y="10" s:pid="in0">
      <text x="-3" y="-4" class="inputPortLabel">19</text>
    </g>
    <g transform="translate(0,410)" s:x="0" s:y="10" s:pid="in0">
      <text x="-3" y="-4" class="inputPortLabel">20</text>
    </g>
    <g transform="translate(0,430)" s:x="0" s:y="10" s:pid="in0">
      <text x="-3" y="-4" class="inputPortLabel">21</text>
    </g>
    <g transform="translate(0,450)" s:x="0" s:y="10" s:pid="in0">
      <text x="-3" y="-4" class="inputPortLabel">22</text>
    </g>
    <g transform="translate(0,470)" s:x="0" s:y="10" s:pid="in0">
      <text x="-3" y="-4" class="inputPortLabel">23</text>
    </g>
    <g transform="translate(0,490)" s:x="0" s:y="10" s:pid="in0">
      <text x="-3" y="-4" class="inputPortLabel">24</text>
    </g>
    <g transform="translate(0,510)" s:x="0" s:y="10" s:pid="in0">
      <text x="-3" y="-4" class="inputPortLabel">25</text>
    </g>
    <g transform="translate(0,530)" s:x="0" s:y="10" s:pid="in0">
      <text x="-3" y="-4" class="inputPortLabel">26</text>
    </g>
    <g transform="translate(0,550)" s:x="0" s:y="10" s:pid="in0">
      <text x="-3" y="-4" class="inputPortLabel">27</text>
    </g>
    <g transform="translate(0,570)" s:x="0" s:y="10" s:pid="in0">
      <text x="-3" y="-4" class="inputPortLabel">28</text>
    </g>
    <g transform="translate(0,590)" s:x="0" s:y="10" s:pid="in0">
      <text x="-3" y="-4" class="inputPortLabel">29</text>
    </g>
    <g transform="translate(0,610)" s:x="0" s:y="10" s:pid="in0">
      <text x="-3" y="-4" class="inputPortLabel">30</text>
    </g>
    <g transform="translate(0,630)" s:x="0" s:y="10" s:pid="in0">
      <text x="-3" y="-4" class="inputPortLabel">31</text>
    </g>
  </g>
  <g s:type="split" transform="translate(540,180)" s:width="5" s:height="40" id="cell_$split$,218,219,220,221,222,223,224,225,226,227,228,229,230,231,232,233,234,235,236,237,238,239,240,241,242,243,244,245,246,247,248,249,151,152,153,154,155,156,157,158,159,160,161,162,163,164,165,166,167,168,169,170,171,172,173,174,175,176,177,178,179,180,181,182,">
    <rect width="5" height="40" class="splitjoinBody" s:generic="body"/>
    <s:alias val="$_split_"/>
    <g s:x="0" s:y="20" s:pid="in"/>
    <g transform="translate(4,10)" s:x="4" s:y="10" s:pid="out0">
      <text x="5" y="-4">32:63</text>
    </g>
    <g transform="translate(4,30)" s:x="4" s:y="10" s:pid="out0">
      <text x="5" y="-4">0:31</text>
    </g>
  </g>
  <line x1="250" x2="268" y1="210.5" y2="210.5" class="net_41,42,43,44,45"/>
  <line x1="268" x2="268" y1="210.5" y2="1286" class="net_41,42,43,44,45"/>
  <line x1="268" x2="596" y1="1286" y2="1286" class="net_41,42,43,44,45"/>
  <line x1="596" x2="596" y1="1286" y2="90.5" class="net_41,42,43,44,45"/>
  <circle cx="268" cy="210.5" r="2" style="fill:#000" class="net_41,42,43,44,45"/>
  <line x1="596" x2="616" y1="90.5" y2="90.5" class="net_41,42,43,44,45"/>
  <line x1="250" x2="268" y1="210.5" y2="210.5" class="net_41,42,43,44,45"/>
  <line x1="268" x2="268" y1="210.5" y2="17" class="net_41,42,43,44,45"/>
  <line x1="268" x2="436" y1="17" y2="17" class="net_41,42,43,44,45"/>
  <line x1="250" x2="317" y1="210.5" y2="210.5" class="net_41,42,43,44,45"/>
  <line x1="639.3333333333334" x2="681" y1="37" y2="37" class="net_116,117,118,119,120,121,122,123,124,125,126,127,128,129,130,131,132,133,134,135,136,137,138,139,140,141,142,143,144,145,146,147"/>
  <line x1="646" x2="656" y1="155.5" y2="155.5" class="net_252,253,254,255,256,257,258,259,260,261,262,263,264,265,266,267,268,269,270,271,272,273,274,275,276,277,278,279,280,281,282,283"/>
  <line x1="656" x2="656" y1="155.5" y2="57" class="net_252,253,254,255,256,257,258,259,260,261,262,263,264,265,266,267,268,269,270,271,272,273,274,275,276,277,278,279,280,281,282,283"/>
  <circle cx="656" cy="155.5" r="2" style="fill:#000" class="net_252,253,254,255,256,257,258,259,260,261,262,263,264,265,266,267,268,269,270,271,272,273,274,275,276,277,278,279,280,281,282,283"/>
  <line x1="656" x2="681" y1="57" y2="57" class="net_252,253,254,255,256,257,258,259,260,261,262,263,264,265,266,267,268,269,270,271,272,273,274,275,276,277,278,279,280,281,282,283"/>
  <line x1="646" x2="681" y1="155.5" y2="155.5" class="net_252,253,254,255,256,257,258,259,260,261,262,263,264,265,266,267,268,269,270,271,272,273,274,275,276,277,278,279,280,281,282,283"/>
  <line x1="641" x2="691" y1="90.5" y2="90.5" class="net_115"/>
  <line x1="691" x2="691" y1="90.5" y2="62" class="net_115"/>
  <line x1="40" x2="52" y1="1187.5" y2="1187.5" class="net_4,5,6,7,8"/>
  <line x1="52" x2="52" y1="1187.5" y2="32" class="net_4,5,6,7,8"/>
  <circle cx="52" cy="1187.5" r="2" style="fill:#000" class="net_4,5,6,7,8"/>
  <line x1="52" x2="436" y1="32" y2="32" class="net_4,5,6,7,8"/>
  <line x1="40" x2="52" y1="1187.5" y2="1187.5" class="net_4,5,6,7,8"/>
  <line x1="52" x2="52" y1="1187.5" y2="1275" class="net_4,5,6,7,8"/>
  <line x1="52" x2="197" y1="1275" y2="1275" class="net_4,5,6,7,8"/>
  <line x1="197" x2="197" y1="1275" y2="1333" class="net_4,5,6,7,8"/>
  <line x1="197" x2="338" y1="1333" y2="1333" class="net_4,5,6,7,8"/>
  <line x1="338" x2="338" y1="1333" y2="1328" class="net_4,5,6,7,8"/>
  <circle cx="197" cy="1275" r="2" style="fill:#000" class="net_4,5,6,7,8"/>
  <line x1="338" x2="436" y1="1328" y2="1328" class="net_4,5,6,7,8"/>
  <line x1="40" x2="84" y1="1187.5" y2="1187.5" class="net_4,5,6,7,8"/>
  <line x1="40" x2="52" y1="1187.5" y2="1187.5" class="net_4,5,6,7,8"/>
  <line x1="52" x2="52" y1="1187.5" y2="1275" class="net_4,5,6,7,8"/>
  <line x1="52" x2="368" y1="1275" y2="1275" class="net_4,5,6,7,8"/>
  <line x1="368" x2="368" y1="1275" y2="300.5" class="net_4,5,6,7,8"/>
  <line x1="368" x2="431" y1="300.5" y2="300.5" class="net_4,5,6,7,8"/>
  <line x1="458" x2="515" y1="24.5" y2="24.5" class="net_148"/>
  <line x1="515" x2="515" y1="24.5" y2="63" class="net_148"/>
  <line x1="515" x2="542" y1="63" y2="63" class="net_148"/>
  <line x1="247.33333333333334" x2="288" y1="1082.5" y2="1082.5" class="net_149"/>
  <line x1="288" x2="288" y1="1082.5" y2="78" class="net_149"/>
  <circle cx="288" cy="1082.5" r="2" style="fill:#000" class="net_149"/>
  <line x1="288" x2="542" y1="78" y2="78" class="net_149"/>
  <line x1="247.33333333333334" x2="288" y1="1082.5" y2="1082.5" class="net_149"/>
  <line x1="288" x2="288" y1="1082.5" y2="1344" class="net_149"/>
  <line x1="288" x2="515" y1="1344" y2="1344" class="net_149"/>
  <line x1="515" x2="515" y1="1344" y2="1335.5" class="net_149"/>
  <line x1="515" x2="542" y1="1335.5" y2="1335.5" class="net_149"/>
  <line x1="247.33333333333334" x2="288" y1="1082.5" y2="1082.5" class="net_149"/>
  <line x1="288" x2="288" y1="1082.5" y2="520" class="net_149"/>
  <line x1="288" x2="317.02" y1="520" y2="520" class="net_149"/>
  <circle cx="288" cy="520" r="2" style="fill:#000" class="net_149"/>
  <line x1="317.02" x2="317.02" y1="520" y2="542" class="net_149"/>
  <line x1="247.33333333333334" x2="288" y1="1082.5" y2="1082.5" class="net_149"/>
  <line x1="288" x2="288" y1="1082.5" y2="510" class="net_149"/>
  <line x1="288" x2="317.02" y1="510" y2="510" class="net_149"/>
  <circle cx="288" cy="510" r="2" style="fill:#000" class="net_149"/>
  <line x1="317.02" x2="317.02" y1="510" y2="562" class="net_149"/>
  <line x1="247.33333333333334" x2="288" y1="1082.5" y2="1082.5" class="net_149"/>
  <line x1="288" x2="288" y1="1082.5" y2="500" class="net_149"/>
  <line x1="288" x2="317.02" y1="500" y2="500" class="net_149"/>
  <circle cx="288" cy="500" r="2" style="fill:#000" class="net_149"/>
  <line x1="317.02" x2="317.02" y1="500" y2="582" class="net_149"/>
  <line x1="247.33333333333334" x2="288" y1="1082.5" y2="1082.5" class="net_149"/>
  <line x1="288" x2="288" y1="1082.5" y2="490" class="net_149"/>
  <line x1="288" x2="317.02" y1="490" y2="490" class="net_149"/>
  <circle cx="288" cy="490" r="2" style="fill:#000" class="net_149"/>
  <line x1="317.02" x2="317.02" y1="490" y2="602" class="net_149"/>
  <line x1="247.33333333333334" x2="288" y1="1082.5" y2="1082.5" class="net_149"/>
  <line x1="288" x2="288" y1="1082.5" y2="622.5" class="net_149"/>
  <circle cx="288" cy="622.5" r="2" style="fill:#000" class="net_149"/>
  <line x1="288" x2="316.52" y1="622.5" y2="622.5" class="net_149"/>
  <line x1="247.33333333333334" x2="288" y1="1082.5" y2="1082.5" class="net_149"/>
  <line x1="288" x2="288" y1="1082.5" y2="642.5" class="net_149"/>
  <circle cx="288" cy="642.5" r="2" style="fill:#000" class="net_149"/>
  <line x1="288" x2="316.52" y1="642.5" y2="642.5" class="net_149"/>
  <line x1="247.33333333333334" x2="288" y1="1082.5" y2="1082.5" class="net_149"/>
  <line x1="288" x2="288" y1="1082.5" y2="662.5" class="net_149"/>
  <circle cx="288" cy="662.5" r="2" style="fill:#000" class="net_149"/>
  <line x1="288" x2="316.52" y1="662.5" y2="662.5" class="net_149"/>
  <line x1="247.33333333333334" x2="288" y1="1082.5" y2="1082.5" class="net_149"/>
  <line x1="288" x2="288" y1="1082.5" y2="682.5" class="net_149"/>
  <circle cx="288" cy="682.5" r="2" style="fill:#000" class="net_149"/>
  <line x1="288" x2="316.52" y1="682.5" y2="682.5" class="net_149"/>
  <line x1="247.33333333333334" x2="288" y1="1082.5" y2="1082.5" class="net_149"/>
  <line x1="288" x2="288" y1="1082.5" y2="702.5" class="net_149"/>
  <circle cx="288" cy="702.5" r="2" style="fill:#000" class="net_149"/>
  <line x1="288" x2="316.52" y1="702.5" y2="702.5" class="net_149"/>
  <line x1="247.33333333333334" x2="288" y1="1082.5" y2="1082.5" class="net_149"/>
  <line x1="288" x2="288" y1="1082.5" y2="722.5" class="net_149"/>
  <circle cx="288" cy="722.5" r="2" style="fill:#000" class="net_149"/>
  <line x1="288" x2="316.52" y1="722.5" y2="722.5" class="net_149"/>
  <line x1="247.33333333333334" x2="288" y1="1082.5" y2="1082.5" class="net_149"/>
  <line x1="288" x2="288" y1="1082.5" y2="742.5" class="net_149"/>
  <circle cx="288" cy="742.5" r="2" style="fill:#000" class="net_149"/>
  <line x1="288" x2="316.52" y1="742.5" y2="742.5" class="net_149"/>
  <line x1="247.33333333333334" x2="288" y1="1082.5" y2="1082.5" class="net_149"/>
  <line x1="288" x2="288" y1="1082.5" y2="762.5" class="net_149"/>
  <circle cx="288" cy="762.5" r="2" style="fill:#000" class="net_149"/>
  <line x1="288" x2="316.52" y1="762.5" y2="762.5" class="net_149"/>
  <line x1="247.33333333333334" x2="288" y1="1082.5" y2="1082.5" class="net_149"/>
  <line x1="288" x2="288" y1="1082.5" y2="782.5" class="net_149"/>
  <circle cx="288" cy="782.5" r="2" style="fill:#000" class="net_149"/>
  <line x1="288" x2="316.52" y1="782.5" y2="782.5" class="net_149"/>
  <line x1="247.33333333333334" x2="288" y1="1082.5" y2="1082.5" class="net_149"/>
  <line x1="288" x2="288" y1="1082.5" y2="802.5" class="net_149"/>
  <circle cx="288" cy="802.5" r="2" style="fill:#000" class="net_149"/>
  <line x1="288" x2="316.52" y1="802.5" y2="802.5" class="net_149"/>
  <line x1="247.33333333333334" x2="288" y1="1082.5" y2="1082.5" class="net_149"/>
  <line x1="288" x2="288" y1="1082.5" y2="822.5" class="net_149"/>
  <circle cx="288" cy="822.5" r="2" style="fill:#000" class="net_149"/>
  <line x1="288" x2="316.52" y1="822.5" y2="822.5" class="net_149"/>
  <line x1="247.33333333333334" x2="288" y1="1082.5" y2="1082.5" class="net_149"/>
  <line x1="288" x2="288" y1="1082.5" y2="842.5" class="net_149"/>
  <circle cx="288" cy="842.5" r="2" style="fill:#000" class="net_149"/>
  <line x1="288" x2="316.52" y1="842.5" y2="842.5" class="net_149"/>
  <line x1="247.33333333333334" x2="288" y1="1082.5" y2="1082.5" class="net_149"/>
  <line x1="288" x2="288" y1="1082.5" y2="862.5" class="net_149"/>
  <circle cx="288" cy="862.5" r="2" style="fill:#000" class="net_149"/>
  <line x1="288" x2="316.52" y1="862.5" y2="862.5" class="net_149"/>
  <line x1="247.33333333333334" x2="288" y1="1082.5" y2="1082.5" class="net_149"/>
  <line x1="288" x2="288" y1="1082.5" y2="882.5" class="net_149"/>
  <circle cx="288" cy="882.5" r="2" style="fill:#000" class="net_149"/>
  <line x1="288" x2="316.52" y1="882.5" y2="882.5" class="net_149"/>
  <line x1="247.33333333333334" x2="288" y1="1082.5" y2="1082.5" class="net_149"/>
  <line x1="288" x2="288" y1="1082.5" y2="902.5" class="net_149"/>
  <circle cx="288" cy="902.5" r="2" style="fill:#000" class="net_149"/>
  <line x1="288" x2="316.52" y1="902.5" y2="902.5" class="net_149"/>
  <line x1="247.33333333333334" x2="288" y1="1082.5" y2="1082.5" class="net_149"/>
  <line x1="288" x2="288" y1="1082.5" y2="922.5" class="net_149"/>
  <circle cx="288" cy="922.5" r="2" style="fill:#000" class="net_149"/>
  <line x1="288" x2="316.52" y1="922.5" y2="922.5" class="net_149"/>
  <line x1="247.33333333333334" x2="288" y1="1082.5" y2="1082.5" class="net_149"/>
  <line x1="288" x2="288" y1="1082.5" y2="942.5" class="net_149"/>
  <circle cx="288" cy="942.5" r="2" style="fill:#000" class="net_149"/>
  <line x1="288" x2="316.52" y1="942.5" y2="942.5" class="net_149"/>
  <line x1="247.33333333333334" x2="288" y1="1082.5" y2="1082.5" class="net_149"/>
  <line x1="288" x2="288" y1="1082.5" y2="962.5" class="net_149"/>
  <circle cx="288" cy="962.5" r="2" style="fill:#000" class="net_149"/>
  <line x1="288" x2="316.52" y1="962.5" y2="962.5" class="net_149"/>
  <line x1="247.33333333333334" x2="288" y1="1082.5" y2="1082.5" class="net_149"/>
  <line x1="288" x2="288" y1="1082.5" y2="982.5" class="net_149"/>
  <circle cx="288" cy="982.5" r="2" style="fill:#000" class="net_149"/>
  <line x1="288" x2="316.52" y1="982.5" y2="982.5" class="net_149"/>
  <line x1="247.33333333333334" x2="288" y1="1082.5" y2="1082.5" class="net_149"/>
  <line x1="288" x2="288" y1="1082.5" y2="1002.5" class="net_149"/>
  <circle cx="288" cy="1002.5" r="2" style="fill:#000" class="net_149"/>
  <line x1="288" x2="316.52" y1="1002.5" y2="1002.5" class="net_149"/>
  <line x1="247.33333333333334" x2="288" y1="1082.5" y2="1082.5" class="net_149"/>
  <line x1="288" x2="288" y1="1082.5" y2="1022.5" class="net_149"/>
  <circle cx="288" cy="1022.5" r="2" style="fill:#000" class="net_149"/>
  <line x1="288" x2="316.52" y1="1022.5" y2="1022.5" class="net_149"/>
  <line x1="247.33333333333334" x2="288" y1="1082.5" y2="1082.5" class="net_149"/>
  <line x1="288" x2="288" y1="1082.5" y2="1042.5" class="net_149"/>
  <circle cx="288" cy="1042.5" r="2" style="fill:#000" class="net_149"/>
  <line x1="288" x2="316.52" y1="1042.5" y2="1042.5" class="net_149"/>
  <line x1="247.33333333333334" x2="288" y1="1082.5" y2="1082.5" class="net_149"/>
  <line x1="288" x2="288" y1="1082.5" y2="1062.5" class="net_149"/>
  <circle cx="288" cy="1062.5" r="2" style="fill:#000" class="net_149"/>
  <line x1="288" x2="316.52" y1="1062.5" y2="1062.5" class="net_149"/>
  <line x1="247.33333333333334" x2="316.52" y1="1082.5" y2="1082.5" class="net_149"/>
  <line x1="247.33333333333334" x2="288" y1="1082.5" y2="1082.5" class="net_149"/>
  <line x1="288" x2="288" y1="1082.5" y2="1212" class="net_149"/>
  <line x1="288" x2="317.02" y1="1212" y2="1212" class="net_149"/>
  <circle cx="288" cy="1212" r="2" style="fill:#000" class="net_149"/>
  <line x1="317.02" x2="317.02" y1="1212" y2="1103" class="net_149"/>
  <line x1="247.33333333333334" x2="288" y1="1082.5" y2="1082.5" class="net_149"/>
  <line x1="288" x2="288" y1="1082.5" y2="1202" class="net_149"/>
  <line x1="288" x2="317.02" y1="1202" y2="1202" class="net_149"/>
  <circle cx="288" cy="1202" r="2" style="fill:#000" class="net_149"/>
  <line x1="317.02" x2="317.02" y1="1202" y2="1123" class="net_149"/>
  <line x1="247.33333333333334" x2="288" y1="1082.5" y2="1082.5" class="net_149"/>
  <line x1="288" x2="288" y1="1082.5" y2="1192" class="net_149"/>
  <line x1="288" x2="317.02" y1="1192" y2="1192" class="net_149"/>
  <circle cx="288" cy="1192" r="2" style="fill:#000" class="net_149"/>
  <line x1="317.02" x2="317.02" y1="1192" y2="1143" class="net_149"/>
  <line x1="247.33333333333334" x2="288" y1="1082.5" y2="1082.5" class="net_149"/>
  <line x1="288" x2="288" y1="1082.5" y2="1182" class="net_149"/>
  <line x1="288" x2="317.02" y1="1182" y2="1182" class="net_149"/>
  <circle cx="288" cy="1182" r="2" style="fill:#000" class="net_149"/>
  <line x1="317.02" x2="317.02" y1="1182" y2="1163" class="net_149"/>
  <line x1="545" x2="586" y1="190.5" y2="190.5" class="net_151,152,153,154,155,156,157,158,159,160,161,162,163,164,165,166,167,168,169,170,171,172,173,174,175,176,177,178,179,180,181,182"/>
  <line x1="586" x2="586" y1="190.5" y2="27" class="net_151,152,153,154,155,156,157,158,159,160,161,162,163,164,165,166,167,168,169,170,171,172,173,174,175,176,177,178,179,180,181,182"/>
  <line x1="586" x2="619.3333333333334" y1="27" y2="27" class="net_151,152,153,154,155,156,157,158,159,160,161,162,163,164,165,166,167,168,169,170,171,172,173,174,175,176,177,178,179,180,181,182"/>
  <line x1="326" x2="358" y1="470" y2="470" class="net_9,10,11,12,13,14,15,16,17,18,19,20,21,22,23,24,25,26,27,28,29,30,31,32,33,34,35,36,37,38,39,40"/>
  <line x1="358" x2="358" y1="470" y2="47" class="net_9,10,11,12,13,14,15,16,17,18,19,20,21,22,23,24,25,26,27,28,29,30,31,32,33,34,35,36,37,38,39,40"/>
  <circle cx="358" cy="470" r="2" style="fill:#000" class="net_9,10,11,12,13,14,15,16,17,18,19,20,21,22,23,24,25,26,27,28,29,30,31,32,33,34,35,36,37,38,39,40"/>
  <line x1="358" x2="619.3333333333334" y1="47" y2="47" class="net_9,10,11,12,13,14,15,16,17,18,19,20,21,22,23,24,25,26,27,28,29,30,31,32,33,34,35,36,37,38,39,40"/>
  <line x1="326" x2="358" y1="470" y2="470" class="net_9,10,11,12,13,14,15,16,17,18,19,20,21,22,23,24,25,26,27,28,29,30,31,32,33,34,35,36,37,38,39,40"/>
  <line x1="358" x2="358" y1="470" y2="1297" class="net_9,10,11,12,13,14,15,16,17,18,19,20,21,22,23,24,25,26,27,28,29,30,31,32,33,34,35,36,37,38,39,40"/>
  <line x1="358" x2="606" y1="1297" y2="1297" class="net_9,10,11,12,13,14,15,16,17,18,19,20,21,22,23,24,25,26,27,28,29,30,31,32,33,34,35,36,37,38,39,40"/>
  <line x1="606" x2="606" y1="1297" y2="230.5" class="net_9,10,11,12,13,14,15,16,17,18,19,20,21,22,23,24,25,26,27,28,29,30,31,32,33,34,35,36,37,38,39,40"/>
  <line x1="606" x2="619.3333333333334" y1="230.5" y2="230.5" class="net_9,10,11,12,13,14,15,16,17,18,19,20,21,22,23,24,25,26,27,28,29,30,31,32,33,34,35,36,37,38,39,40"/>
  <line x1="326" x2="358" y1="470" y2="470" class="net_9,10,11,12,13,14,15,16,17,18,19,20,21,22,23,24,25,26,27,28,29,30,31,32,33,34,35,36,37,38,39,40"/>
  <line x1="358" x2="358" y1="470" y2="340.5" class="net_9,10,11,12,13,14,15,16,17,18,19,20,21,22,23,24,25,26,27,28,29,30,31,32,33,34,35,36,37,38,39,40"/>
  <circle cx="358" cy="340.5" r="2" style="fill:#000" class="net_9,10,11,12,13,14,15,16,17,18,19,20,21,22,23,24,25,26,27,28,29,30,31,32,33,34,35,36,37,38,39,40"/>
  <line x1="358" x2="431" y1="340.5" y2="340.5" class="net_9,10,11,12,13,14,15,16,17,18,19,20,21,22,23,24,25,26,27,28,29,30,31,32,33,34,35,36,37,38,39,40"/>
  <line x1="572" x2="629.3333333333334" y1="70.5" y2="70.5" class="net_150"/>
  <line x1="629.3333333333334" x2="629.3333333333334" y1="70.5" y2="52" class="net_150"/>
  <line x1="250" x2="278" y1="1313" y2="1313" class="net_46,47,48,49,50"/>
  <line x1="278" x2="278" y1="1313" y2="1355" class="net_46,47,48,49,50"/>
  <circle cx="278" cy="1313" r="2" style="fill:#000" class="net_46,47,48,49,50"/>
  <line x1="278" x2="616" y1="1355" y2="1355" class="net_46,47,48,49,50"/>
  <line x1="250" x2="436" y1="1313" y2="1313" class="net_46,47,48,49,50"/>
  <line x1="250" x2="278" y1="1313" y2="1313" class="net_46,47,48,49,50"/>
  <line x1="278" x2="278" y1="1313" y2="190.5" class="net_46,47,48,49,50"/>
  <line x1="278" x2="317" y1="190.5" y2="190.5" class="net_46,47,48,49,50"/>
  <line x1="639.3333333333334" x2="666" y1="220.5" y2="220.5" class="net_184,185,186,187,188,189,190,191,192,193,194,195,196,197,198,199,200,201,202,203,204,205,206,207,208,209,210,211,212,213,214,215"/>
  <line x1="666" x2="666" y1="220.5" y2="135.5" class="net_184,185,186,187,188,189,190,191,192,193,194,195,196,197,198,199,200,201,202,203,204,205,206,207,208,209,210,211,212,213,214,215"/>
  <line x1="666" x2="681" y1="135.5" y2="135.5" class="net_184,185,186,187,188,189,190,191,192,193,194,195,196,197,198,199,200,201,202,203,204,205,206,207,208,209,210,211,212,213,214,215"/>
  <line x1="641" x2="691" y1="1355" y2="1355" class="net_183"/>
  <line x1="691" x2="691" y1="1355" y2="160.5" class="net_183"/>
  <line x1="458" x2="542" y1="1320.5" y2="1320.5" class="net_216"/>
  <line x1="545" x2="619.3333333333334" y1="210.5" y2="210.5" class="net_218,219,220,221,222,223,224,225,226,227,228,229,230,231,232,233,234,235,236,237,238,239,240,241,242,243,244,245,246,247,248,249"/>
  <line x1="572" x2="629.3333333333334" y1="1328" y2="1328" class="net_217"/>
  <line x1="629.3333333333334" x2="629.3333333333334" y1="1328" y2="235.5" class="net_217"/>
  <line x1="115" x2="157" y1="1187.5" y2="1187.5" class="net_250"/>
  <line x1="112" x2="132" y1="1255" y2="1255" class="net_3"/>
  <line x1="132" x2="132" y1="1255" y2="1202.5" class="net_3"/>
  <line x1="132" x2="157" y1="1202.5" y2="1202.5" class="net_3"/>
  <line x1="187" x2="227.33333333333334" y1="1072.5" y2="1072.5" class="net_316"/>
  <line x1="187" x2="197" y1="1137.5" y2="1137.5" class="net_317"/>
  <line x1="197" x2="197" y1="1137.5" y2="1092.5" class="net_317"/>
  <line x1="197" x2="227.33333333333334" y1="1092.5" y2="1092.5" class="net_317"/>
  <line x1="187" x2="237.33333333333334" y1="1195" y2="1195" class="net_251"/>
  <line x1="237.33333333333334" x2="237.33333333333334" y1="1195" y2="1097.5" class="net_251"/>
  <line x1="323" x2="431" y1="200.5" y2="200.5" class="net_46,47,48,49,50,41,42,43,44,45"/>
  <line x1="328" x2="368" y1="275" y2="275" class="net_318,319"/>
  <line x1="368" x2="368" y1="275" y2="220.5" class="net_318,319"/>
  <circle cx="368" cy="275" r="2" style="fill:#000" class="net_318,319"/>
  <line x1="368" x2="431" y1="220.5" y2="220.5" class="net_318,319"/>
  <line x1="328" x2="368" y1="275" y2="275" class="net_318,319"/>
  <line x1="368" x2="368" y1="275" y2="240.5" class="net_318,319"/>
  <circle cx="368" cy="240.5" r="2" style="fill:#000" class="net_318,319"/>
  <line x1="368" x2="431" y1="240.5" y2="240.5" class="net_318,319"/>
  <line x1="328" x2="368" y1="275" y2="275" class="net_318,319"/>
  <line x1="368" x2="368" y1="275" y2="280.5" class="net_318,319"/>
  <line x1="368" x2="431" y1="280.5" y2="280.5" class="net_318,319"/>
  <line x1="328" x2="338" y1="340" y2="340" class="net_322,323"/>
  <line x1="338" x2="338" y1="340" y2="260.5" class="net_322,323"/>
  <line x1="338" x2="431" y1="260.5" y2="260.5" class="net_322,323"/>
  <line x1="326" x2="348" y1="405" y2="405" class="net_2"/>
  <line x1="348" x2="348" y1="405" y2="320.5" class="net_2"/>
  <line x1="348" x2="431" y1="320.5" y2="320.5" class="net_2"/>
  <line x1="322.52" x2="378" y1="552.5" y2="552.5" class="net_149,149,149,149,149,149,149,149,149,149,149,149,149,149,149,149,149,149,149,149,149,149,149,149,149,149,149,149,149,149,149,149"/>
  <line x1="378" x2="378" y1="552.5" y2="360.5" class="net_149,149,149,149,149,149,149,149,149,149,149,149,149,149,149,149,149,149,149,149,149,149,149,149,149,149,149,149,149,149,149,149"/>
  <line x1="378" x2="431" y1="360.5" y2="360.5" class="net_149,149,149,149,149,149,149,149,149,149,149,149,149,149,149,149,149,149,149,149,149,149,149,149,149,149,149,149,149,149,149,149"/>
  <line x1="701" x2="736" y1="47" y2="47" class="net_51,52,53,54,55,56,57,58,59,60,61,62,63,64,65,66,67,68,69,70,71,72,73,74,75,76,77,78,79,80,81,82"/>
  <line x1="701" x2="736" y1="145.5" y2="145.5" class="net_83,84,85,86,87,88,89,90,91,92,93,94,95,96,97,98,99,100,101,102,103,104,105,106,107,108,109,110,111,112,113,114"/>
  <line x1="462" x2="540" y1="200.5" y2="200.5" class="net_218,219,220,221,222,223,224,225,226,227,228,229,230,231,232,233,234,235,236,237,238,239,240,241,242,243,244,245,246,247,248,249,151,152,153,154,155,156,157,158,159,160,161,162,163,164,165,166,167,168,169,170,171,172,173,174,175,176,177,178,179,180,181,182"/>
</svg>
