<svg xmlns="http://www.w3.org/2000/svg" xmlns:xlink="http://www.w3.org/1999/xlink" xmlns:s="https://github.com/nturley/netlistsvg" width="1926" height="640"><style>svg {
  stroke:#000;
  fill:none;
}
text {
  fill:#000;
  stroke:none;
  font-size:10px;
  font-weight: bold;
  font-family: "Courier New", monospace;
}
line {
    stroke-linecap: round;
}
.nodelabel {
  text-anchor: middle;
}
.inputPortLabel {
  text-anchor: end;
}
.splitjoinBody {
  fill:#000;
}</style><g s:type="dff-bus" transform="translate(263,191)" s:width="34" s:height="44" id="cell_:10"><s:alias val="$dff-bus"/><s:alias val="$_DFF_-bus"/><s:alias val="$_DFF_P_-bus"/><s:alias val="adff-bus"/><s:alias val="$adff-bus"/><s:alias val="$_DFF_-bus"/><s:alias val="$_DFF_P_-bus"/><s:alias val="sdff-bus"/><s:alias val="$sdff-bus"/><s:alias val="$_DFF_-bus"/><s:alias val="$_DFF_P_-bus"/><rect width="30" height="40" x="0" y="0" fill="#ffffff" class="cell_:10"/><path d="M0,35 L5,30 L0,25" fill="#ffffff" class="cell_:10"/><path d="M30,2 L32,2 L32,42 L2,42 L2,40" fill="#ffffff" class="cell_:10"/><path d="M32,4 L34,4 L34,44 L4,44 L4,42" fill="#ffffff" class="cell_:10"/><g s:x="35" s:y="10" s:pid="Q"/><g s:x="-1" s:y="30" s:pid="CLK"/><g s:x="-1" s:y="30" s:pid="C"/><g s:x="-1" s:y="10" s:pid="D"/><g s:x="17" s:y="44" s:pid="ARST"/><g s:x="17" s:y="44" s:pid="SRST"/></g><g s:type="dff-bus" transform="translate(263,584)" s:width="34" s:height="44" id="cell_:9"><s:alias val="$dff-bus"/><s:alias val="$_DFF_-bus"/><s:alias val="$_DFF_P_-bus"/><s:alias val="adff-bus"/><s:alias val="$adff-bus"/><s:alias val="$_DFF_-bus"/><s:alias val="$_DFF_P_-bus"/><s:alias val="sdff-bus"/><s:alias val="$sdff-bus"/><s:alias val="$_DFF_-bus"/><s:alias val="$_DFF_P_-bus"/><rect width="30" height="40" x="0" y="0" fill="#ffffff" class="cell_:9"/><path d="M0,35 L5,30 L0,25" fill="#ffffff" class="cell_:9"/><path d="M30,2 L32,2 L32,42 L2,42 L2,40" fill="#ffffff" class="cell_:9"/><path d="M32,4 L34,4 L34,44 L4,44 L4,42" fill="#ffffff" class="cell_:9"/><g s:x="35" s:y="10" s:pid="Q"/><g s:x="-1" s:y="30" s:pid="CLK"/><g s:x="-1" s:y="30" s:pid="C"/><g s:x="-1" s:y="10" s:pid="D"/><g s:x="17" s:y="44" s:pid="ARST"/><g s:x="17" s:y="44" s:pid="SRST"/></g><a xlink:href="https://github.com/naelolaiz/learning_fpga/blob/7649af5a0b577ad4f4f995c014088904c09ec094/building_blocks/rom_lut/ROM_LUT.vhd"><g s:type="sub_odd" transform="translate(482,22)" s:width="30" s:height="40" id="cell_rom_instance"><text x="621" y="-4" class="nodelabel cell_rom_instance" s:attribute="ref">single_clock_rom</text><rect width="1242" height="596.5" s:generic="body" fill="#e9e9e9" rx="4" class="cell_rom_instance" pointer-events="all"/><g s:type="sub" transform="translate(186,404.5)" s:width="25" s:height="25" id="cell_:20"><s:alias val="$sub"/><circle r="12.5" cx="12.5" cy="12.5" fill="#ffffff" class="cell_:20"/><line x1="7.5" x2="17.5" y1="12.5" y2="12.5" fill="#ffffff" class="cell_:20"/><g s:x="2" s:y="5" s:pid="A"/><g s:x="2" s:y="20" s:pid="B"/><g s:x="25" s:y="12.5" s:pid="Y"/></g><g s:type="not" transform="translate(247,519)" s:width="30" s:height="20" id="cell_:24"><s:alias val="$_NOT_"/><s:alias val="$not"/><s:alias val="$logic_not"/><path d="M0,0 L0,20 L20,10 Z" fill="#ffffff" class="cell_:24"/><circle cx="24" cy="10" r="3" fill="#ffffff" class="cell_:24"/><g s:x="-1" s:y="10" s:pid="A"/><g s:x="27" s:y="10" s:pid="Y"/></g><g s:type="mux-bus" transform="translate(415.3333333333333,397)" s:width="24" s:height="40" id="cell_:26"><s:alias val="$pmux-bus"/><s:alias val="$mux-bus"/><s:alias val="$_MUX_-bus"/><path d="M0,0 L20,10 L20,30 L0,40 Z" fill="#ffffff" class="cell_:26"/><path d="M4,2 L4,0 L22,9 L22,31 L4,40 L4,38" fill="#ffffff" class="cell_:26"/><path d="M8,2 L8,0 L24,8 L24,32 L8,40 L8,38" fill="#ffffff" class="cell_:26"/><text x="5" y="32" class="nodelabel cell_:26" s:attribute="">1</text><text x="5" y="13" class="nodelabel cell_:26" s:attribute="">0</text><g s:x="-1" s:y="10" s:pid="A"/><g s:x="-1" s:y="30" s:pid="B"/><g s:x="12" s:y="38" s:pid="S"/><g s:x="24.5" s:y="20" s:pid="Y"/></g><g s:type="sub" transform="translate(938,123)" s:width="25" s:height="25" id="cell_:42"><s:alias val="$sub"/><circle r="12.5" cx="12.5" cy="12.5" fill="#ffffff" class="cell_:42"/><line x1="7.5" x2="17.5" y1="12.5" y2="12.5" fill="#ffffff" class="cell_:42"/><g s:x="2" s:y="5" s:pid="A"/><g s:x="2" s:y="20" s:pid="B"/><g s:x="25" s:y="12.5" s:pid="Y"/></g><g s:type="sub" transform="translate(516,213)" s:width="25" s:height="25" id="cell_:47"><s:alias val="$sub"/><circle r="12.5" cx="12.5" cy="12.5" fill="#ffffff" class="cell_:47"/><line x1="7.5" x2="17.5" y1="12.5" y2="12.5" fill="#ffffff" class="cell_:47"/><g s:x="2" s:y="5" s:pid="A"/><g s:x="2" s:y="20" s:pid="B"/><g s:x="25" s:y="12.5" s:pid="Y"/></g><g s:type="sub" transform="translate(516,153)" s:width="25" s:height="25" id="cell_:51"><s:alias val="$sub"/><circle r="12.5" cx="12.5" cy="12.5" fill="#ffffff" class="cell_:51"/><line x1="7.5" x2="17.5" y1="12.5" y2="12.5" fill="#ffffff" class="cell_:51"/><g s:x="2" s:y="5" s:pid="A"/><g s:x="2" s:y="20" s:pid="B"/><g s:x="25" s:y="12.5" s:pid="Y"/></g><g s:type="not" transform="translate(999,495.5)" s:width="30" s:height="20" id="cell_:58"><s:alias val="$_NOT_"/><s:alias val="$not"/><s:alias val="$logic_not"/><path d="M0,0 L0,20 L20,10 Z" fill="#ffffff" class="cell_:58"/><circle cx="24" cy="10" r="3" fill="#ffffff" class="cell_:58"/><g s:x="-1" s:y="10" s:pid="A"/><g s:x="27" s:y="10" s:pid="Y"/></g><g s:type="mux-bus" transform="translate(1175,46)" s:width="24" s:height="40" id="cell_:60"><s:alias val="$pmux-bus"/><s:alias val="$mux-bus"/><s:alias val="$_MUX_-bus"/><path d="M0,0 L20,10 L20,30 L0,40 Z" fill="#ffffff" class="cell_:60"/><path d="M4,2 L4,0 L22,9 L22,31 L4,40 L4,38" fill="#ffffff" class="cell_:60"/><path d="M8,2 L8,0 L24,8 L24,32 L8,40 L8,38" fill="#ffffff" class="cell_:60"/><text x="5" y="32" class="nodelabel cell_:60" s:attribute="">1</text><text x="5" y="13" class="nodelabel cell_:60" s:attribute="">0</text><g s:x="-1" s:y="10" s:pid="A"/><g s:x="-1" s:y="30" s:pid="B"/><g s:x="12" s:y="38" s:pid="S"/><g s:x="24.5" s:y="20" s:pid="Y"/></g><g s:type="dff-bus" transform="translate(1065,46)" s:width="34" s:height="44" id="cell_:64"><s:alias val="$dff-bus"/><s:alias val="$_DFF_-bus"/><s:alias val="$_DFF_P_-bus"/><s:alias val="adff-bus"/><s:alias val="$adff-bus"/><s:alias val="$_DFF_-bus"/><s:alias val="$_DFF_P_-bus"/><s:alias val="sdff-bus"/><s:alias val="$sdff-bus"/><s:alias val="$_DFF_-bus"/><s:alias val="$_DFF_P_-bus"/><rect width="30" height="40" x="0" y="0" fill="#ffffff" class="cell_:64"/><path d="M0,35 L5,30 L0,25" fill="#ffffff" class="cell_:64"/><path d="M30,2 L32,2 L32,42 L2,42 L2,40" fill="#ffffff" class="cell_:64"/><path d="M32,4 L34,4 L34,44 L4,44 L4,42" fill="#ffffff" class="cell_:64"/><g s:x="35" s:y="10" s:pid="Q"/><g s:x="-1" s:y="30" s:pid="CLK"/><g s:x="-1" s:y="30" s:pid="C"/><g s:x="-1" s:y="10" s:pid="D"/><g s:x="17" s:y="44" s:pid="ARST"/><g s:x="17" s:y="44" s:pid="SRST"/></g><g s:type="dff-bus" transform="translate(1175,516.5)" s:width="34" s:height="44" id="cell_:65"><s:alias val="$dff-bus"/><s:alias val="$_DFF_-bus"/><s:alias val="$_DFF_P_-bus"/><s:alias val="adff-bus"/><s:alias val="$adff-bus"/><s:alias val="$_DFF_-bus"/><s:alias val="$_DFF_P_-bus"/><s:alias val="sdff-bus"/><s:alias val="$sdff-bus"/><s:alias val="$_DFF_-bus"/><s:alias val="$_DFF_P_-bus"/><rect width="30" height="40" x="0" y="0" fill="#ffffff" class="cell_:65"/><path d="M0,35 L5,30 L0,25" fill="#ffffff" class="cell_:65"/><path d="M30,2 L32,2 L32,42 L2,42 L2,40" fill="#ffffff" class="cell_:65"/><path d="M32,4 L34,4 L34,44 L4,44 L4,42" fill="#ffffff" class="cell_:65"/><g s:x="35" s:y="10" s:pid="Q"/><g s:x="-1" s:y="30" s:pid="CLK"/><g s:x="-1" s:y="30" s:pid="C"/><g s:x="-1" s:y="10" s:pid="D"/><g s:x="17" s:y="44" s:pid="ARST"/><g s:x="17" s:y="44" s:pid="SRST"/></g><g s:type="generic" transform="translate(790,165)" s:width="30" s:height="40" id="cell_:66"><text x="15" y="-4" class="nodelabel cell_:66" s:attribute="ref">RAM</text><rect width="30" height="180" s:generic="body" fill="#ffffff" class="cell_:66"/><g transform="translate(0,10)" s:x="0" s:y="10" s:pid="in0" id="port_:66~RD_ADDR"><text x="-3" y="-4" class="inputPortLabel cell_:66">RD_ADDR</text></g><g transform="translate(0,30)" s:x="0" s:y="10" s:pid="in0" id="port_:66~RD_ARST"><text x="-3" y="-4" class="inputPortLabel cell_:66">RD_ARST</text></g><g transform="translate(0,50)" s:x="0" s:y="10" s:pid="in0" id="port_:66~RD_CLK"><text x="-3" y="-4" class="inputPortLabel cell_:66">RD_CLK</text></g><g transform="translate(0,70)" s:x="0" s:y="10" s:pid="in0" id="port_:66~RD_EN"><text x="-3" y="-4" class="inputPortLabel cell_:66">RD_EN</text></g><g transform="translate(0,90)" s:x="0" s:y="10" s:pid="in0" id="port_:66~RD_SRST"><text x="-3" y="-4" class="inputPortLabel cell_:66">RD_SRST</text></g><g transform="translate(0,110)" s:x="0" s:y="10" s:pid="in0" id="port_:66~WR_ADDR"><text x="-3" y="-4" class="inputPortLabel cell_:66">WR_ADDR</text></g><g transform="translate(0,130)" s:x="0" s:y="10" s:pid="in0" id="port_:66~WR_CLK"><text x="-3" y="-4" class="inputPortLabel cell_:66">WR_CLK</text></g><g transform="translate(0,150)" s:x="0" s:y="10" s:pid="in0" id="port_:66~WR_DATA"><text x="-3" y="-4" class="inputPortLabel cell_:66">WR_DATA</text></g><g transform="translate(0,170)" s:x="0" s:y="10" s:pid="in0" id="port_:66~WR_EN"><text x="-3" y="-4" class="inputPortLabel cell_:66">WR_EN</text></g><g transform="translate(30,10)" s:x="30" s:y="10" s:pid="out0" id="port_:66~RD_DATA"><text x="5" y="-4" style="fill:#000; stroke:none" class="cell_:66">RD_DATA</text></g></g><g s:type="constant" transform="translate(81,208)" s:width="30" s:height="20" id="cell_11111"><text x="15" y="-4" class="nodelabel cell_11111" s:attribute="ref">0x1f</text><s:alias val="$_constant_"/><rect width="30" height="20" fill="#ffffff" class="cell_11111"/><g s:x="31" s:y="10" s:pid="Y"/></g><g s:type="constant" transform="translate(675,226.5)" s:width="30" s:height="20" id="cell_0"><text x="15" y="-4" class="nodelabel cell_0" s:attribute="ref">0</text><s:alias val="$_constant_"/><rect width="30" height="20" fill="#ffffff" class="cell_0"/><g s:x="31" s:y="10" s:pid="Y"/></g><g s:type="constant" transform="translate(411,148)" s:width="30" s:height="20" id="cell_1111"><text x="15" y="-4" class="nodelabel cell_1111" s:attribute="ref">0xf</text><s:alias val="$_constant_"/><rect width="30" height="20" fill="#ffffff" class="cell_1111"/><g s:x="31" s:y="10" s:pid="Y"/></g><g s:type="constant" transform="translate(675,291.5)" s:width="30" s:height="20" id="cell_1"><text x="15" y="-4" class="nodelabel cell_1" s:attribute="ref">1</text><s:alias val="$_constant_"/><rect width="30" height="20" fill="#ffffff" class="cell_1"/><g s:x="31" s:y="10" s:pid="Y"/></g><g s:type="join" transform="translate(331,406.5)" s:width="4" s:height="40" id="cell_$join$,24,25,26,27,28,3,4,5,6,7,"><rect width="5" height="40" class="splitjoinBody" s:generic="body"/><s:alias val="$_join_"/><g s:x="5" s:y="20" s:pid="out"/><g transform="translate(0,10)" s:x="0" s:y="10" s:pid="in0"><text x="-3" y="-4" class="inputPortLabel">0:4</text></g><g transform="translate(0,30)" s:x="0" s:y="10" s:pid="in0"><text x="-3" y="-4" class="inputPortLabel">5:9</text></g></g><g s:type="join" transform="translate(325.3333333333333,497.5)" s:width="4" s:height="40" id="cell_$join$,8,29,"><rect width="5" height="40" class="splitjoinBody" s:generic="body"/><s:alias val="$_join_"/><g s:x="5" s:y="20" s:pid="out"/><g transform="translate(0,10)" s:x="0" s:y="10" s:pid="in0"><text x="-3" y="-4" class="inputPortLabel">0</text></g><g transform="translate(0,30)" s:x="0" s:y="10" s:pid="in0"><text x="-3" y="-4" class="inputPortLabel">1</text></g></g><g s:type="join" transform="translate(1083,125)" s:width="4" s:height="40" id="cell_$join$,49,50,51,52,53,54,55,56,57,58,40,41,42,43,44,45,46,47,48,84,"><rect width="5" height="60" class="splitjoinBody" s:generic="body"/><s:alias val="$_join_"/><g s:x="5" s:y="20" s:pid="out"/><g transform="translate(0,10)" s:x="0" s:y="10" s:pid="in0"><text x="-3" y="-4" class="inputPortLabel">0:9</text></g><g transform="translate(0,30)" s:x="0" s:y="10" s:pid="in0"><text x="-3" y="-4" class="inputPortLabel">10:18</text></g><g transform="translate(0,50)" s:x="0" s:y="10" s:pid="in0"><text x="-3" y="-4" class="inputPortLabel">19</text></g></g><g s:type="join" transform="translate(1081,474)" s:width="4" s:height="40" id="cell_$join$,9,68,"><rect width="5" height="40" class="splitjoinBody" s:generic="body"/><s:alias val="$_join_"/><g s:x="5" s:y="20" s:pid="out"/><g transform="translate(0,10)" s:x="0" s:y="10" s:pid="in0"><text x="-3" y="-4" class="inputPortLabel">0</text></g><g transform="translate(0,30)" s:x="0" s:y="10" s:pid="in0"><text x="-3" y="-4" class="inputPortLabel">1</text></g></g><g s:type="join" transform="translate(634,155)" s:width="4" s:height="40" id="cell_$join$,64,65,66,67,59,60,61,62,63,"><rect width="5" height="40" class="splitjoinBody" s:generic="body"/><s:alias val="$_join_"/><g s:x="5" s:y="20" s:pid="out"/><g transform="translate(0,10)" s:x="0" s:y="10" s:pid="in0"><text x="-3" y="-4" class="inputPortLabel">0:3</text></g><g transform="translate(0,30)" s:x="0" s:y="10" s:pid="in0"><text x="-3" y="-4" class="inputPortLabel">4:8</text></g></g><g s:type="split" transform="translate(88,434)" s:width="5" s:height="40" id="cell_$split$,3,4,5,6,7,8,9,"><rect width="5" height="60" class="splitjoinBody" s:generic="body"/><s:alias val="$_split_"/><g s:x="0" s:y="20" s:pid="in"/><g transform="translate(4,10)" s:x="4" s:y="10" s:pid="out0"><text x="5" y="-4">0:4</text></g><g transform="translate(4,30)" s:x="4" s:y="10" s:pid="out0"><text x="5" y="-4">5</text></g><g transform="translate(4,50)" s:x="4" s:y="10" s:pid="out0"><text x="5" y="-4">6</text></g></g><line x1="112" x2="122" y1="218" y2="218" class="net_79,80,81,82,83"/><line x1="122" x2="122" y1="218" y2="409.5" class="net_79,80,81,82,83"/><circle cx="122" cy="218" r="2" style="fill:#000" class="net_79,80,81,82,83"/><line x1="122" x2="188" y1="409.5" y2="409.5" class="net_79,80,81,82,83"/><line x1="112" x2="518" y1="218" y2="218" class="net_79,80,81,82,83"/><line x1="93" x2="132" y1="444.5" y2="444.5" class="net_3,4,5,6,7"/><line x1="132" x2="132" y1="444.5" y2="429.5" class="net_3,4,5,6,7"/><line x1="132" x2="161" y1="429.5" y2="429.5" class="net_3,4,5,6,7"/><line x1="161" x2="161" y1="429.5" y2="424.5" class="net_3,4,5,6,7"/><circle cx="132" cy="444.5" r="2" style="fill:#000" class="net_3,4,5,6,7"/><line x1="161" x2="188" y1="424.5" y2="424.5" class="net_3,4,5,6,7"/><line x1="93" x2="132" y1="444.5" y2="444.5" class="net_3,4,5,6,7"/><line x1="132" x2="132" y1="444.5" y2="468.5" class="net_3,4,5,6,7"/><line x1="132" x2="287" y1="468.5" y2="468.5" class="net_3,4,5,6,7"/><line x1="287" x2="287" y1="468.5" y2="437" class="net_3,4,5,6,7"/><line x1="287" x2="331" y1="437" y2="437" class="net_3,4,5,6,7"/><line x1="93" x2="122" y1="464.5" y2="464.5" class="net_8"/><line x1="122" x2="122" y1="464.5" y2="508" class="net_8"/><line x1="122" x2="221" y1="508" y2="508" class="net_8"/><line x1="221" x2="221" y1="508" y2="529" class="net_8"/><circle cx="221" cy="508" r="2" style="fill:#000" class="net_8"/><line x1="221" x2="246" y1="529" y2="529" class="net_8"/><line x1="93" x2="122" y1="464.5" y2="464.5" class="net_8"/><line x1="122" x2="122" y1="464.5" y2="508" class="net_8"/><line x1="122" x2="325.3333333333333" y1="508" y2="508" class="net_8"/><line x1="1210" x2="1220" y1="526.5" y2="526.5" class="net_30,31,32,33,34"/><line x1="1220" x2="1220" y1="526.5" y2="387" class="net_30,31,32,33,34"/><line x1="1220" x2="386" y1="387" y2="387" class="net_30,31,32,33,34"/><line x1="386" x2="386" y1="387" y2="407" class="net_30,31,32,33,34"/><line x1="386" x2="414.3333333333333" y1="407" y2="407" class="net_30,31,32,33,34"/><line x1="337" x2="414.3333333333333" y1="427" y2="427" class="net_24,25,26,27,28,3,4,5,6,7"/><line x1="331.3333333333333" x2="427.3333333333333" y1="518" y2="518" class="net_8,29"/><line x1="427.3333333333333" x2="427.3333333333333" y1="518" y2="435" class="net_8,29"/><line x1="821" x2="874" y1="175.5" y2="175.5" class="net_40,41,42,43,44,45,46,47,48"/><line x1="874" x2="874" y1="175.5" y2="128" class="net_40,41,42,43,44,45,46,47,48"/><circle cx="874" cy="175.5" r="2" style="fill:#000" class="net_40,41,42,43,44,45,46,47,48"/><line x1="874" x2="940" y1="128" y2="128" class="net_40,41,42,43,44,45,46,47,48"/><line x1="821" x2="874" y1="175.5" y2="175.5" class="net_40,41,42,43,44,45,46,47,48"/><line x1="874" x2="874" y1="175.5" y2="187" class="net_40,41,42,43,44,45,46,47,48"/><line x1="874" x2="1039" y1="187" y2="187" class="net_40,41,42,43,44,45,46,47,48"/><line x1="1039" x2="1039" y1="187" y2="155.5" class="net_40,41,42,43,44,45,46,47,48"/><line x1="1039" x2="1083" y1="155.5" y2="155.5" class="net_40,41,42,43,44,45,46,47,48"/><line x1="706" x2="716" y1="236.5" y2="236.5" class="net_84"/><line x1="716" x2="716" y1="236.5" y2="144" class="net_84"/><line x1="716" x2="913" y1="144" y2="144" class="net_84"/><line x1="913" x2="913" y1="144" y2="143" class="net_84"/><circle cx="716" cy="236.5" r="2" style="fill:#000" class="net_84"/><line x1="913" x2="940" y1="143" y2="143" class="net_84"/><line x1="706" x2="716" y1="236.5" y2="236.5" class="net_84"/><line x1="716" x2="716" y1="236.5" y2="195.5" class="net_84"/><circle cx="716" cy="195.5" r="2" style="fill:#000" class="net_84"/><line x1="716" x2="789" y1="195.5" y2="195.5" class="net_84"/><line x1="706" x2="716" y1="236.5" y2="236.5" class="net_84"/><line x1="716" x2="716" y1="236.5" y2="215.5" class="net_84"/><circle cx="716" cy="215.5" r="2" style="fill:#000" class="net_84"/><line x1="716" x2="789" y1="215.5" y2="215.5" class="net_84"/><line x1="706" x2="716" y1="236.5" y2="236.5" class="net_84"/><line x1="716" x2="716" y1="236.5" y2="255.5" class="net_84"/><line x1="716" x2="789" y1="255.5" y2="255.5" class="net_84"/><line x1="706" x2="716" y1="236.5" y2="236.5" class="net_84"/><line x1="716" x2="716" y1="236.5" y2="144" class="net_84"/><line x1="716" x2="884" y1="144" y2="144" class="net_84"/><line x1="884" x2="884" y1="144" y2="203" class="net_84"/><line x1="884" x2="1049" y1="203" y2="203" class="net_84"/><line x1="1049" x2="1049" y1="203" y2="175.5" class="net_84"/><circle cx="884" cy="144" r="2" style="fill:#000" class="net_84"/><line x1="1049" x2="1083" y1="175.5" y2="175.5" class="net_84"/><line x1="439.8333333333333" x2="452" y1="417" y2="417" class="net_35,36,37,38,39"/><line x1="452" x2="452" y1="417" y2="233" class="net_35,36,37,38,39"/><circle cx="452" cy="417" r="2" style="fill:#000" class="net_35,36,37,38,39"/><line x1="452" x2="518" y1="233" y2="233" class="net_35,36,37,38,39"/><line x1="439.8333333333333" x2="452" y1="417" y2="417" class="net_35,36,37,38,39"/><line x1="452" x2="452" y1="417" y2="526.5" class="net_35,36,37,38,39"/><line x1="452" x2="1174" y1="526.5" y2="526.5" class="net_35,36,37,38,39"/><line x1="442" x2="518" y1="158" y2="158" class="net_90,91,92,93"/><line x1="0" x2="491" y1="179" y2="179" class="net_10,11,12,13"/><line x1="491" x2="491" y1="179" y2="173" class="net_10,11,12,13"/><line x1="491" x2="518" y1="173" y2="173" class="net_10,11,12,13"/><line x1="93" x2="973" y1="484.5" y2="484.5" class="net_9"/><line x1="973" x2="973" y1="484.5" y2="505.5" class="net_9"/><circle cx="973" cy="484.5" r="2" style="fill:#000" class="net_9"/><line x1="973" x2="998" y1="505.5" y2="505.5" class="net_9"/><line x1="93" x2="1081" y1="484.5" y2="484.5" class="net_9"/><line x1="1100" x2="1174" y1="56" y2="56" class="net_14,15,16,17,18,19,20,21,22,23"/><line x1="1100" x2="1110" y1="56" y2="56" class="net_14,15,16,17,18,19,20,21,22,23"/><line x1="1110" x2="1110" y1="56" y2="16" class="net_14,15,16,17,18,19,20,21,22,23"/><circle cx="1110" cy="56" r="2" style="fill:#000" class="net_14,15,16,17,18,19,20,21,22,23"/><line x1="1110" x2="1242" y1="16" y2="16" class="net_14,15,16,17,18,19,20,21,22,23"/><line x1="1089" x2="1149" y1="155.5" y2="155.5" class="net_49,50,51,52,53,54,55,56,57,58,40,41,42,43,44,45,46,47,48,84"/><line x1="1149" x2="1149" y1="155.5" y2="76" class="net_49,50,51,52,53,54,55,56,57,58,40,41,42,43,44,45,46,47,48,84"/><line x1="1149" x2="1174" y1="76" y2="76" class="net_49,50,51,52,53,54,55,56,57,58,40,41,42,43,44,45,46,47,48,84"/><line x1="1087" x2="1187" y1="494.5" y2="494.5" class="net_9,68"/><line x1="1187" x2="1187" y1="494.5" y2="84" class="net_9,68"/><line x1="0" x2="22" y1="549" y2="549" class="net_2"/><line x1="22" x2="22" y1="549" y2="76" class="net_2"/><circle cx="22" cy="549" r="2" style="fill:#000" class="net_2"/><line x1="22" x2="1064" y1="76" y2="76" class="net_2"/><line x1="0" x2="1149" y1="549" y2="549" class="net_2"/><line x1="1149" x2="1149" y1="549" y2="546.5" class="net_2"/><line x1="1149" x2="1174" y1="546.5" y2="546.5" class="net_2"/><line x1="1199.5" x2="1220" y1="66" y2="66" class="net_69,70,71,72,73,74,75,76,77,78"/><line x1="1220" x2="1220" y1="66" y2="36" class="net_69,70,71,72,73,74,75,76,77,78"/><line x1="1220" x2="1049" y1="36" y2="36" class="net_69,70,71,72,73,74,75,76,77,78"/><line x1="1049" x2="1049" y1="36" y2="56" class="net_69,70,71,72,73,74,75,76,77,78"/><line x1="1049" x2="1064" y1="56" y2="56" class="net_69,70,71,72,73,74,75,76,77,78"/><line x1="640" x2="790" y1="175.5" y2="175.5" class="net_64,65,66,67,59,60,61,62,63"/><line x1="706" x2="726" y1="301.5" y2="301.5" class="net_97"/><line x1="726" x2="726" y1="301.5" y2="235.5" class="net_97"/><line x1="726" x2="789" y1="235.5" y2="235.5" class="net_97"/><line x1="736" x2="736" y1="335.5" y2="275.5" class="net_"/><line x1="736" x2="789" y1="275.5" y2="275.5" class="net_"/><line x1="736" x2="736" y1="335.5" y2="295.5" class="net_"/><circle cx="736" cy="295.5" r="2" style="fill:#000" class="net_"/><line x1="736" x2="789" y1="295.5" y2="295.5" class="net_"/><line x1="736" x2="736" y1="335.5" y2="315.5" class="net_"/><circle cx="736" cy="315.5" r="2" style="fill:#000" class="net_"/><line x1="736" x2="789" y1="315.5" y2="315.5" class="net_"/><line x1="736" x2="736" y1="335.5" y2="335.5" class="net_"/><line x1="736" x2="789" y1="335.5" y2="335.5" class="net_"/><line x1="211" x2="331" y1="417" y2="417" class="net_24,25,26,27,28"/><line x1="274" x2="287" y1="529" y2="529" class="net_29"/><line x1="287" x2="287" y1="529" y2="528" class="net_29"/><line x1="287" x2="325.3333333333333" y1="528" y2="528" class="net_29"/><line x1="963" x2="1083" y1="135.5" y2="135.5" class="net_49,50,51,52,53,54,55,56,57,58"/><line x1="1026" x2="1039" y1="505.5" y2="505.5" class="net_68"/><line x1="1039" x2="1039" y1="505.5" y2="504.5" class="net_68"/><line x1="1039" x2="1081" y1="504.5" y2="504.5" class="net_68"/><line x1="541" x2="634" y1="165.5" y2="165.5" class="net_64,65,66,67"/><line x1="541" x2="590" y1="225.5" y2="225.5" class="net_59,60,61,62,63"/><line x1="590" x2="590" y1="225.5" y2="185.5" class="net_59,60,61,62,63"/><line x1="590" x2="634" y1="185.5" y2="185.5" class="net_59,60,61,62,63"/><line x1="0" x2="32" y1="572" y2="572" class="net_3,4,5,6,7,8,9"/><line x1="32" x2="32" y1="572" y2="464.5" class="net_3,4,5,6,7,8,9"/><line x1="32" x2="88" y1="464.5" y2="464.5" class="net_3,4,5,6,7,8,9"/><g transform="translate(-1,548.5)" s:x="0" s:y="10" s:pid="in0" id="port_rom_instance~clock"><text x="-3" y="-4" class="inputPortLabel cell_rom_instance">clock</text></g><g transform="translate(-1,178.5)" s:x="0" s:y="10" s:pid="in0" id="port_rom_instance~nibble_product_idx"><text x="-3" y="-4" class="inputPortLabel cell_rom_instance">nibble_product_idx</text></g><g transform="translate(-1,571.5)" s:x="0" s:y="10" s:pid="in0" id="port_rom_instance~read_angle_idx"><text x="-3" y="-4" class="inputPortLabel cell_rom_instance">read_angle_idx</text></g><g transform="translate(1242,15.5)" s:x="30" s:y="10" s:pid="out0" id="port_rom_instance~output"><text x="5" y="-4" style="fill:#000; stroke:none" class="cell_rom_instance">output</text></g></g></a><g s:type="inputExt" transform="translate(155,535)" s:width="30" s:height="20" id="cell_inClock50Mhz"><text x="15" y="-4" class="nodelabel cell_inClock50Mhz" s:attribute="ref">inClock50Mhz</text><s:alias val="$_inputExt_"/><path d="M0,0 L0,20 L15,20 L30,10 L15,0 Z" fill="#ffffff" class="cell_inClock50Mhz"/><g s:x="30" s:y="10" s:pid="Y"/></g><g s:type="inputExt" transform="translate(12,584)" s:width="30" s:height="20" id="cell_inAngleIdxToRead"><text x="15" y="-4" class="nodelabel cell_inAngleIdxToRead" s:attribute="ref">inAngleIdxToRead</text><s:alias val="$_inputExt_"/><path d="M0,0 L0,20 L15,20 L30,10 L15,0 Z" fill="#ffffff" class="cell_inAngleIdxToRead"/><g s:x="30" s:y="10" s:pid="Y"/></g><g s:type="inputExt" transform="translate(12,191)" s:width="30" s:height="20" id="cell_inNibbleProductIdx"><text x="15" y="-4" class="nodelabel cell_inNibbleProductIdx" s:attribute="ref">inNibbleProductIdx</text><s:alias val="$_inputExt_"/><path d="M0,0 L0,20 L15,20 L30,10 L15,0 Z" fill="#ffffff" class="cell_inNibbleProductIdx"/><g s:x="30" s:y="10" s:pid="Y"/></g><g s:type="outputExt" transform="translate(1836,28)" s:width="30" s:height="20" id="cell_outReadMemory"><text x="15" y="-4" class="nodelabel cell_outReadMemory" s:attribute="ref">outReadMemory</text><s:alias val="$_outputExt_"/><path d="M30,0 L30,20 L15,20 L0,10 L15,0 Z" fill="#ffffff" class="cell_outReadMemory"/><g s:x="0" s:y="10" s:pid="A"/></g><line x1="185" x2="237" y1="545" y2="545" class="net_2 width_1" style="stroke-width: 1"/><line x1="237" x2="237" y1="545" y2="221" class="net_2 width_1" style="stroke-width: 1"/><circle cx="237" cy="545" r="2" style="fill:#000" class="net_2 width_1"/><line x1="237" x2="262" y1="221" y2="221" class="net_2 width_1" style="stroke-width: 1"/><line x1="185" x2="237" y1="545" y2="545" class="net_2 width_1" style="stroke-width: 1"/><line x1="237" x2="237" y1="545" y2="614" class="net_2 width_1" style="stroke-width: 1"/><line x1="237" x2="262" y1="614" y2="614" class="net_2 width_1" style="stroke-width: 1"/><line x1="185" x2="347" y1="545" y2="545" class="net_2 width_1" style="stroke-width: 1"/><line x1="347" x2="347" y1="545" y2="571" class="net_2 width_1" style="stroke-width: 1"/><line x1="347" x2="481" y1="571" y2="571" class="net_2 width_1" style="stroke-width: 1"/><line x1="42" x2="262" y1="201" y2="201" class="net_10,11,12,13 width_4" style="stroke-width: 2"/><line x1="42" x2="262" y1="594" y2="594" class="net_3,4,5,6,7,8,9 width_7" style="stroke-width: 2"/><line x1="298" x2="481" y1="201" y2="201" class="net_24,25,26,27 width_4" style="stroke-width: 2"/><line x1="298" x2="481" y1="594" y2="594" class="net_28,29,30,31,32,33,34 width_7" style="stroke-width: 2"/><line x1="1725" x2="1836" y1="38" y2="38" class="net_14,15,16,17,18,19,20,21,22,23 width_10" style="stroke-width: 2"/><rect x="190" y="196" width="16" height="9" class="net_10,11,12,13 width_4 busLabel_4" style="fill: white; stroke: none"/><text x="189" y="204" class="net_10,11,12,13 width_4 busLabel_4">/4/</text><rect x="190" y="589" width="16" height="9" class="net_3,4,5,6,7,8,9 width_7 busLabel_7" style="fill: white; stroke: none"/><text x="189" y="597" class="net_3,4,5,6,7,8,9 width_7 busLabel_7">/7/</text><rect x="334" y="196" width="16" height="9" class="net_24,25,26,27 width_4 busLabel_4" style="fill: white; stroke: none"/><text x="333" y="204" class="net_24,25,26,27 width_4 busLabel_4">/4/</text><rect x="334" y="589" width="16" height="9" class="net_28,29,30,31,32,33,34 width_7 busLabel_7" style="fill: white; stroke: none"/><text x="333" y="597" class="net_28,29,30,31,32,33,34 width_7 busLabel_7">/7/</text><rect x="1798" y="33" width="22" height="9" class="net_14,15,16,17,18,19,20,21,22,23 width_10 busLabel_10" style="fill: white; stroke: none"/><text x="1797" y="41" class="net_14,15,16,17,18,19,20,21,22,23 width_10 busLabel_10">/10/</text></svg>