<svg xmlns="http://www.w3.org/2000/svg" xmlns:xlink="http://www.w3.org/1999/xlink" xmlns:s="https://github.com/nturley/netlistsvg" width="1044" height="885.5">
  <style>svg {
    stroke:#000;
    fill:none;
  }
  text {
    fill:#000;
    stroke:none;
    font-size:10px;
    font-weight: bold;
    font-family: "Courier New", monospace;
  }
  .nodelabel {
    text-anchor: middle;
  }
  .inputPortLabel {
    text-anchor: end;
  }
  .splitjoinBody {
    fill:#000;
  }</style>
  <g s:type="add" transform="translate(89.33333333333333,509)" s:width="25" s:height="25" id="cell_$add$counter.v:36$4">
    <s:alias val="$add"/>
    <circle r="12.5" cx="12.5" cy="12.5" class="cell_$add$counter.v:36$4"/>
    <line x1="7.5" x2="17.5" y1="12.5" y2="12.5" class="cell_$add$counter.v:36$4"/>
    <line x1="12.5" x2="12.5" y1="7.5" y2="17.5" class="cell_$add$counter.v:36$4"/>
    <g s:x="3" s:y="5" s:pid="A"/>
    <g s:x="3" s:y="20" s:pid="B"/>
    <g s:x="25" s:y="12.5" s:pid="Y"/>
  </g>
  <g s:type="add" transform="translate(708,77)" s:width="25" s:height="25" id="cell_$add$counter.v:38$5">
    <s:alias val="$add"/>
    <circle r="12.5" cx="12.5" cy="12.5" class="cell_$add$counter.v:38$5"/>
    <line x1="7.5" x2="17.5" y1="12.5" y2="12.5" class="cell_$add$counter.v:38$5"/>
    <line x1="12.5" x2="12.5" y1="7.5" y2="17.5" class="cell_$add$counter.v:38$5"/>
    <g s:x="3" s:y="5" s:pid="A"/>
    <g s:x="3" s:y="20" s:pid="B"/>
    <g s:x="25" s:y="12.5" s:pid="Y"/>
  </g>
  <g s:type="add" transform="translate(405,680)" s:width="25" s:height="25" id="cell_$add$counter.v:44$7">
    <s:alias val="$add"/>
    <circle r="12.5" cx="12.5" cy="12.5" class="cell_$add$counter.v:44$7"/>
    <line x1="7.5" x2="17.5" y1="12.5" y2="12.5" class="cell_$add$counter.v:44$7"/>
    <line x1="12.5" x2="12.5" y1="7.5" y2="17.5" class="cell_$add$counter.v:44$7"/>
    <g s:x="3" s:y="5" s:pid="A"/>
    <g s:x="3" s:y="20" s:pid="B"/>
    <g s:x="25" s:y="12.5" s:pid="Y"/>
  </g>
  <g s:type="add" transform="translate(708,535)" s:width="25" s:height="25" id="cell_$add$counter.v:46$8">
    <s:alias val="$add"/>
    <circle r="12.5" cx="12.5" cy="12.5" class="cell_$add$counter.v:46$8"/>
    <line x1="7.5" x2="17.5" y1="12.5" y2="12.5" class="cell_$add$counter.v:46$8"/>
    <line x1="12.5" x2="12.5" y1="7.5" y2="17.5" class="cell_$add$counter.v:46$8"/>
    <g s:x="3" s:y="5" s:pid="A"/>
    <g s:x="3" s:y="20" s:pid="B"/>
    <g s:x="25" s:y="12.5" s:pid="Y"/>
  </g>
  <g s:type="add" transform="translate(535.6666666666666,744.5)" s:width="25" s:height="25" id="cell_$add$counter.v:61$11">
    <s:alias val="$add"/>
    <circle r="12.5" cx="12.5" cy="12.5" class="cell_$add$counter.v:61$11"/>
    <line x1="7.5" x2="17.5" y1="12.5" y2="12.5" class="cell_$add$counter.v:61$11"/>
    <line x1="12.5" x2="12.5" y1="7.5" y2="17.5" class="cell_$add$counter.v:61$11"/>
    <g s:x="3" s:y="5" s:pid="A"/>
    <g s:x="3" s:y="20" s:pid="B"/>
    <g s:x="25" s:y="12.5" s:pid="Y"/>
  </g>
  <g s:type="mem_v2" transform="translate(844,720)" s:width="60" s:height="80" id="cell_$auto$proc_rom.cc:155:do_switch$19">
    <s:alias val="$mem_v2"/>
    <s:alias val="$mem"/>
    <rect width="60" height="80" x="0" y="0" class="cell_$auto$proc_rom.cc:155:do_switch$19"/>
    <text x="30" y="44" class="nodelabel" style="font-size:14px">RAM</text>
    <g s:x="0" s:y="15" s:pid="WR_DATA"/>
    <g s:x="0" s:y="30" s:pid="WR_ADDR"/>
    <g s:x="0" s:y="45" s:pid="WR_EN"/>
    <g s:x="0" s:y="60" s:pid="WR_CLK"/>
    <g s:x="60" s:y="15" s:pid="RD_DATA"/>
    <g s:x="60" s:y="30" s:pid="RD_ADDR"/>
    <g s:x="60" s:y="45" s:pid="RD_EN"/>
    <g s:x="60" s:y="60" s:pid="RD_CLK"/>
    <g s:x="60" s:y="70" s:pid="RD_ARST"/>
    <g s:x="60" s:y="80" s:pid="RD_SRST"/>
  </g>
  <g s:type="eq" transform="translate(159,175.5)" s:width="25" s:height="25" id="cell_$eq$counter.v:31$2">
    <s:alias val="$eq"/>
    <circle r="12.5" cx="12.5" cy="12.5" class="cell_$eq$counter.v:31$2"/>
    <line x1="7.5" x2="17.5" y1="10" y2="10" class="cell_$eq$counter.v:31$2"/>
    <line x1="7.5" x2="17.5" y1="15" y2="15" class="cell_$eq$counter.v:31$2"/>
    <g s:x="3" s:y="5" s:pid="A"/>
    <g s:x="3" s:y="20" s:pid="B"/>
    <g s:x="25" s:y="12.5" s:pid="Y"/>
  </g>
  <g s:type="eq" transform="translate(89.33333333333333,384)" s:width="25" s:height="25" id="cell_$eq$counter.v:33$3">
    <s:alias val="$eq"/>
    <circle r="12.5" cx="12.5" cy="12.5" class="cell_$eq$counter.v:33$3"/>
    <line x1="7.5" x2="17.5" y1="10" y2="10" class="cell_$eq$counter.v:33$3"/>
    <line x1="7.5" x2="17.5" y1="15" y2="15" class="cell_$eq$counter.v:33$3"/>
    <g s:x="3" s:y="5" s:pid="A"/>
    <g s:x="3" s:y="20" s:pid="B"/>
    <g s:x="25" s:y="12.5" s:pid="Y"/>
  </g>
  <g s:type="eq" transform="translate(405,580)" s:width="25" s:height="25" id="cell_$eq$counter.v:42$6">
    <s:alias val="$eq"/>
    <circle r="12.5" cx="12.5" cy="12.5" class="cell_$eq$counter.v:42$6"/>
    <line x1="7.5" x2="17.5" y1="10" y2="10" class="cell_$eq$counter.v:42$6"/>
    <line x1="7.5" x2="17.5" y1="15" y2="15" class="cell_$eq$counter.v:42$6"/>
    <g s:x="3" s:y="5" s:pid="A"/>
    <g s:x="3" s:y="20" s:pid="B"/>
    <g s:x="25" s:y="12.5" s:pid="Y"/>
  </g>
  <g s:type="generic" transform="translate(374,819.5)" s:width="30" s:height="40" id="cell_$mul$counter.v:61$10">
    <text x="15" y="-4" class="nodelabel cell_$mul$counter.v:61$10" s:attribute="ref">*</text>
    <rect width="30" height="40" s:generic="body" class="cell_$mul$counter.v:61$10"/>
    <g transform="translate(0,10)" s:x="0" s:y="10" s:pid="in0" id="port_$mul$counter.v:61$10~A">
      <text x="-3" y="-4" class="inputPortLabel cell_$mul$counter.v:61$10">A</text>
    </g>
    <g transform="translate(0,30)" s:x="0" s:y="10" s:pid="in0" id="port_$mul$counter.v:61$10~B">
      <text x="-3" y="-4" class="inputPortLabel cell_$mul$counter.v:61$10">B</text>
    </g>
    <g transform="translate(30,10)" s:x="30" s:y="10" s:pid="out0" id="port_$mul$counter.v:61$10~Y">
      <text x="5" y="-4" style="fill:#000; stroke:none" class="cell_$mul$counter.v:61$10">Y</text>
    </g>
  </g>
  <g s:type="dff" transform="translate(944,590)" s:width="30" s:height="40" id="cell_$procdff$43">
    <s:alias val="$dff"/>
    <s:alias val="$_DFF_"/>
    <s:alias val="$_DFF_P_"/>
    <rect width="30" height="40" x="0" y="0" class="cell_$procdff$43"/>
    <path d="M0,35 L5,30 L0,25" class="cell_$procdff$43"/>
    <g s:x="30" s:y="10" s:pid="Q"/>
    <g s:x="0" s:y="30" s:pid="CLK"/>
    <g s:x="0" s:y="30" s:pid="C"/>
    <g s:x="0" s:y="10" s:pid="D"/>
  </g>
  <g s:type="dff" transform="translate(944,89.5)" s:width="30" s:height="40" id="cell_$procdff$44">
    <s:alias val="$dff"/>
    <s:alias val="$_DFF_"/>
    <s:alias val="$_DFF_P_"/>
    <rect width="30" height="40" x="0" y="0" class="cell_$procdff$44"/>
    <path d="M0,35 L5,30 L0,25" class="cell_$procdff$44"/>
    <g s:x="30" s:y="10" s:pid="Q"/>
    <g s:x="0" s:y="30" s:pid="CLK"/>
    <g s:x="0" s:y="30" s:pid="C"/>
    <g s:x="0" s:y="10" s:pid="D"/>
  </g>
  <g s:type="dff" transform="translate(599,672.5)" s:width="30" s:height="40" id="cell_$procdff$45">
    <s:alias val="$dff"/>
    <s:alias val="$_DFF_"/>
    <s:alias val="$_DFF_P_"/>
    <rect width="30" height="40" x="0" y="0" class="cell_$procdff$45"/>
    <path d="M0,35 L5,30 L0,25" class="cell_$procdff$45"/>
    <g s:x="30" s:y="10" s:pid="Q"/>
    <g s:x="0" s:y="30" s:pid="CLK"/>
    <g s:x="0" s:y="30" s:pid="C"/>
    <g s:x="0" s:y="10" s:pid="D"/>
  </g>
  <g s:type="dff" transform="translate(288.5,434)" s:width="30" s:height="40" id="cell_$procdff$46">
    <s:alias val="$dff"/>
    <s:alias val="$_DFF_"/>
    <s:alias val="$_DFF_P_"/>
    <rect width="30" height="40" x="0" y="0" class="cell_$procdff$46"/>
    <path d="M0,35 L5,30 L0,25" class="cell_$procdff$46"/>
    <g s:x="30" s:y="10" s:pid="Q"/>
    <g s:x="0" s:y="30" s:pid="CLK"/>
    <g s:x="0" s:y="30" s:pid="C"/>
    <g s:x="0" s:y="10" s:pid="D"/>
  </g>
  <g s:type="mux" transform="translate(857.3333333333334,209)" s:width="20" s:height="40" id="cell_$procmux$24">
    <s:alias val="$pmux"/>
    <s:alias val="$mux"/>
    <s:alias val="$_MUX_"/>
    <path d="M0,0 L20,10 L20,30 L0,40 Z" class="cell_$procmux$24"/>
    <g s:x="0" s:y="10" s:pid="A"/>
    <g s:x="0" s:y="30" s:pid="B"/>
    <g s:x="10" s:y="35" s:pid="S"/>
    <g s:x="20" s:y="20" s:pid="Y"/>
  </g>
  <g s:type="eq" transform="translate(604,199)" s:width="25" s:height="25" id="cell_$procmux$25_CMP0">
    <s:alias val="$eq"/>
    <circle r="12.5" cx="12.5" cy="12.5" class="cell_$procmux$25_CMP0"/>
    <line x1="7.5" x2="17.5" y1="10" y2="10" class="cell_$procmux$25_CMP0"/>
    <line x1="7.5" x2="17.5" y1="15" y2="15" class="cell_$procmux$25_CMP0"/>
    <g s:x="3" s:y="5" s:pid="A"/>
    <g s:x="3" s:y="20" s:pid="B"/>
    <g s:x="25" s:y="12.5" s:pid="Y"/>
  </g>
  <g s:type="eq" transform="translate(604,347)" s:width="25" s:height="25" id="cell_$procmux$26_CMP0">
    <s:alias val="$eq"/>
    <circle r="12.5" cx="12.5" cy="12.5" class="cell_$procmux$26_CMP0"/>
    <line x1="7.5" x2="17.5" y1="10" y2="10" class="cell_$procmux$26_CMP0"/>
    <line x1="7.5" x2="17.5" y1="15" y2="15" class="cell_$procmux$26_CMP0"/>
    <g s:x="3" s:y="5" s:pid="A"/>
    <g s:x="3" s:y="20" s:pid="B"/>
    <g s:x="25" s:y="12.5" s:pid="Y"/>
  </g>
  <g s:type="not" transform="translate(599,434)" s:width="30" s:height="20" id="cell_$procmux$27_CMP0">
    <s:alias val="$_NOT_"/>
    <s:alias val="$not"/>
    <s:alias val="$logic_not"/>
    <path d="M0,0 L0,20 L20,10 Z" class="cell_$procmux$27_CMP0"/>
    <circle cx="23" cy="10" r="3" class="cell_$procmux$27_CMP0"/>
    <text x="8" y="12" class="nodelabel" style="font-size:6px">NOT</text>
    <g s:x="0" s:y="10" s:pid="A"/>
    <g s:x="25" s:y="10" s:pid="Y"/>
  </g>
  <g s:type="mux" transform="translate(857.3333333333334,414)" s:width="20" s:height="40" id="cell_$procmux$29">
    <s:alias val="$pmux"/>
    <s:alias val="$mux"/>
    <s:alias val="$_MUX_"/>
    <path d="M0,0 L20,10 L20,30 L0,40 Z" class="cell_$procmux$29"/>
    <g s:x="0" s:y="10" s:pid="A"/>
    <g s:x="0" s:y="30" s:pid="B"/>
    <g s:x="10" s:y="35" s:pid="S"/>
    <g s:x="20" s:y="20" s:pid="Y"/>
  </g>
  <g s:type="mux" transform="translate(857.3333333333334,79.5)" s:width="20" s:height="40" id="cell_$procmux$32">
    <s:alias val="$pmux"/>
    <s:alias val="$mux"/>
    <s:alias val="$_MUX_"/>
    <path d="M0,0 L20,10 L20,30 L0,40 Z" class="cell_$procmux$32"/>
    <g s:x="0" s:y="10" s:pid="A"/>
    <g s:x="0" s:y="30" s:pid="B"/>
    <g s:x="10" s:y="35" s:pid="S"/>
    <g s:x="20" s:y="20" s:pid="Y"/>
  </g>
  <g s:type="mux" transform="translate(160.66666666666666,434)" s:width="20" s:height="40" id="cell_$procmux$36">
    <s:alias val="$pmux"/>
    <s:alias val="$mux"/>
    <s:alias val="$_MUX_"/>
    <path d="M0,0 L20,10 L20,30 L0,40 Z" class="cell_$procmux$36"/>
    <g s:x="0" s:y="10" s:pid="A"/>
    <g s:x="0" s:y="30" s:pid="B"/>
    <g s:x="10" s:y="35" s:pid="S"/>
    <g s:x="20" s:y="20" s:pid="Y"/>
  </g>
  <g s:type="mux" transform="translate(225.66666666666666,424)" s:width="20" s:height="40" id="cell_$procmux$38">
    <s:alias val="$pmux"/>
    <s:alias val="$mux"/>
    <s:alias val="$_MUX_"/>
    <path d="M0,0 L20,10 L20,30 L0,40 Z" class="cell_$procmux$38"/>
    <g s:x="0" s:y="10" s:pid="A"/>
    <g s:x="0" s:y="30" s:pid="B"/>
    <g s:x="10" s:y="35" s:pid="S"/>
    <g s:x="20" s:y="20" s:pid="Y"/>
  </g>
  <g s:type="mux" transform="translate(540.6666666666666,662.5)" s:width="20" s:height="40" id="cell_$procmux$41">
    <s:alias val="$pmux"/>
    <s:alias val="$mux"/>
    <s:alias val="$_MUX_"/>
    <path d="M0,0 L20,10 L20,30 L0,40 Z" class="cell_$procmux$41"/>
    <g s:x="0" s:y="10" s:pid="A"/>
    <g s:x="0" s:y="30" s:pid="B"/>
    <g s:x="10" s:y="35" s:pid="S"/>
    <g s:x="20" s:y="20" s:pid="Y"/>
  </g>
  <g s:type="generic" transform="translate(671,672)" s:width="30" s:height="40" id="cell_$shiftx$counter.v:61$12">
    <text x="15" y="-4" class="nodelabel cell_$shiftx$counter.v:61$12" s:attribute="ref">shift</text>
    <rect width="30" height="40" s:generic="body" class="cell_$shiftx$counter.v:61$12"/>
    <g transform="translate(0,10)" s:x="0" s:y="10" s:pid="in0" id="port_$shiftx$counter.v:61$12~A">
      <text x="-3" y="-4" class="inputPortLabel cell_$shiftx$counter.v:61$12">A</text>
    </g>
    <g transform="translate(0,30)" s:x="0" s:y="10" s:pid="in0" id="port_$shiftx$counter.v:61$12~B">
      <text x="-3" y="-4" class="inputPortLabel cell_$shiftx$counter.v:61$12">B</text>
    </g>
    <g transform="translate(30,10)" s:x="30" s:y="10" s:pid="out0" id="port_$shiftx$counter.v:61$12~Y">
      <text x="5" y="-4" style="fill:#000; stroke:none" class="cell_$shiftx$counter.v:61$12">Y</text>
    </g>
  </g>
  <g s:type="inputExt" transform="translate(219,494)" s:width="30" s:height="20" id="cell_clock">
    <text x="15" y="-4" class="nodelabel cell_clock" s:attribute="ref">clock</text>
    <s:alias val="$_inputExt_"/>
    <path d="M0,0 L0,20 L15,20 L30,10 L15,0 Z" class="cell_clock"/>
    <g s:x="28" s:y="10" s:pid="Y"/>
  </g>
  <g s:type="outputExt" transform="translate(944,725)" s:width="30" s:height="20" id="cell_sevenSegments">
    <text x="15" y="-4" class="nodelabel cell_sevenSegments" s:attribute="ref">sevenSegments</text>
    <s:alias val="$_outputExt_"/>
    <path d="M30,0 L30,20 L15,20 L0,10 L15,0 Z" class="cell_sevenSegments"/>
    <g s:x="0" s:y="10" s:pid="A"/>
  </g>
  <g s:type="outputExt" transform="translate(944,219)" s:width="30" s:height="20" id="cell_cableSelect">
    <text x="15" y="-4" class="nodelabel cell_cableSelect" s:attribute="ref">cableSelect</text>
    <s:alias val="$_outputExt_"/>
    <path d="M30,0 L30,20 L15,20 L0,10 L15,0 Z" class="cell_cableSelect"/>
    <g s:x="0" s:y="10" s:pid="A"/>
  </g>
  <g s:type="constant" transform="translate(12,87)" s:width="30" s:height="20" id="cell_1">
    <text x="15" y="-4" class="nodelabel cell_1" s:attribute="ref">1</text>
    <s:alias val="$_constant_"/>
    <rect width="30" height="20" class="cell_1"/>
    <g s:x="30" s:y="10" s:pid="Y"/>
  </g>
  <g s:type="constant" transform="translate(374,754.5)" s:width="30" s:height="20" id="cell_0">
    <text x="15" y="-4" class="nodelabel cell_0" s:attribute="ref">0</text>
    <s:alias val="$_constant_"/>
    <rect width="30" height="20" class="cell_0"/>
    <g s:x="30" s:y="10" s:pid="Y"/>
  </g>
  <g s:type="constant" transform="translate(82,185.5)" s:width="30" s:height="20" id="cell_11000011010011111">
    <text x="15" y="-4" class="nodelabel cell_11000011010011111" s:attribute="ref">0x1869f</text>
    <s:alias val="$_constant_"/>
    <rect width="30" height="20" class="cell_11000011010011111"/>
    <g s:x="30" s:y="10" s:pid="Y"/>
  </g>
  <g s:type="constant" transform="translate(12,22)" s:width="30" s:height="20" id="cell_11">
    <text x="15" y="-4" class="nodelabel cell_11" s:attribute="ref">11</text>
    <s:alias val="$_constant_"/>
    <rect width="30" height="20" class="cell_11"/>
    <g s:x="30" s:y="10" s:pid="Y"/>
  </g>
  <g s:type="constant" transform="translate(284,590)" s:width="30" s:height="20" id="cell_1011111010111100000111">
    <text x="15" y="-4" class="nodelabel cell_1011111010111100000111" s:attribute="ref">0x2faf07</text>
    <s:alias val="$_constant_"/>
    <rect width="30" height="20" class="cell_1011111010111100000111"/>
    <g s:x="30" s:y="10" s:pid="Y"/>
  </g>
  <g s:type="constant" transform="translate(284,840)" s:width="30" s:height="20" id="cell_100">
    <text x="15" y="-4" class="nodelabel cell_100" s:attribute="ref">100</text>
    <s:alias val="$_constant_"/>
    <rect width="30" height="20" class="cell_100"/>
    <g s:x="30" s:y="10" s:pid="Y"/>
  </g>
  <g s:type="constant" transform="translate(671,209)" s:width="30" s:height="20" id="cell_0111">
    <text x="15" y="-4" class="nodelabel cell_0111" s:attribute="ref">0x7</text>
    <s:alias val="$_constant_"/>
    <rect width="30" height="20" class="cell_0111"/>
    <g s:x="30" s:y="10" s:pid="Y"/>
  </g>
  <g s:type="constant" transform="translate(671,274)" s:width="30" s:height="20" id="cell_111011011011">
    <text x="15" y="-4" class="nodelabel cell_111011011011" s:attribute="ref">0xedb</text>
    <s:alias val="$_constant_"/>
    <rect width="30" height="20" class="cell_111011011011"/>
    <g s:x="30" s:y="10" s:pid="Y"/>
  </g>
  <g s:type="constant" transform="translate(534,225)" s:width="30" s:height="20" id="cell_10">
    <text x="15" y="-4" class="nodelabel cell_10" s:attribute="ref">10</text>
    <s:alias val="$_constant_"/>
    <rect width="30" height="20" class="cell_10"/>
    <g s:x="30" s:y="10" s:pid="Y"/>
  </g>
  <g s:type="constant" transform="translate(671,434)" s:width="30" s:height="20" id="cell_00000000000000000000000">
    <text x="15" y="-4" class="nodelabel cell_00000000000000000000000" s:attribute="ref">0x0</text>
    <s:alias val="$_constant_"/>
    <rect width="30" height="20" class="cell_00000000000000000000000"/>
    <g s:x="30" s:y="10" s:pid="Y"/>
  </g>
  <g s:type="constant" transform="translate(671,147)" s:width="30" s:height="20" id="cell_000000000000000000">
    <text x="15" y="-4" class="nodelabel cell_000000000000000000" s:attribute="ref">0x0</text>
    <s:alias val="$_constant_"/>
    <rect width="30" height="20" class="cell_000000000000000000"/>
    <g s:x="30" s:y="10" s:pid="Y"/>
  </g>
  <g s:type="constant" transform="translate(82,454)" s:width="30" s:height="20" id="cell_00">
    <text x="15" y="-4" class="nodelabel cell_00" s:attribute="ref">00</text>
    <s:alias val="$_constant_"/>
    <rect width="30" height="20" class="cell_00"/>
    <g s:x="30" s:y="10" s:pid="Y"/>
  </g>
  <g s:type="join" transform="translate(702.75,329)" s:width="4" s:height="40" id="cell_$join$,209,210,211,">
    <rect width="5" height="60" class="splitjoinBody" s:generic="body"/>
    <s:alias val="$_join_"/>
    <g s:x="5" s:y="20" s:pid="out"/>
    <g transform="translate(0,10)" s:x="0" s:y="10" s:pid="in0">
      <text x="-3" y="-4" class="inputPortLabel">0</text>
    </g>
    <g transform="translate(0,30)" s:x="0" s:y="10" s:pid="in0">
      <text x="-3" y="-4" class="inputPortLabel">1</text>
    </g>
    <g transform="translate(0,50)" s:x="0" s:y="10" s:pid="in0">
      <text x="-3" y="-4" class="inputPortLabel">2</text>
    </g>
  </g>
  <g s:type="join" transform="translate(618,746.5)" s:width="4" s:height="40" id="cell_$join$,137,138,139,140,141,142,218,">
    <rect width="5" height="40" class="splitjoinBody" s:generic="body"/>
    <s:alias val="$_join_"/>
    <g s:x="5" s:y="20" s:pid="out"/>
    <g transform="translate(0,10)" s:x="0" s:y="10" s:pid="in0">
      <text x="-3" y="-4" class="inputPortLabel">0:5</text>
    </g>
    <g transform="translate(0,30)" s:x="0" s:y="10" s:pid="in0">
      <text x="-3" y="-4" class="inputPortLabel">6</text>
    </g>
  </g>
  <line x1="318.5" x2="342" y1="444" y2="444" class="net_14,15"/>
  <line x1="342" x2="342" y1="444" y2="544" class="net_14,15"/>
  <line x1="342" x2="72" y1="544" y2="544" class="net_14,15"/>
  <line x1="72" x2="72" y1="544" y2="514" class="net_14,15"/>
  <line x1="72" x2="92.33333333333333" y1="514" y2="514" class="net_14,15"/>
  <line x1="318.5" x2="342" y1="444" y2="444" class="net_14,15"/>
  <line x1="342" x2="342" y1="444" y2="374" class="net_14,15"/>
  <line x1="342" x2="72" y1="374" y2="374" class="net_14,15"/>
  <line x1="72" x2="72" y1="374" y2="389" class="net_14,15"/>
  <circle cx="342" cy="374" r="2" style="fill:#000" class="net_14,15"/>
  <circle cx="342" cy="444" r="2" style="fill:#000" class="net_14,15"/>
  <line x1="72" x2="92.33333333333333" y1="389" y2="389" class="net_14,15"/>
  <line x1="318.5" x2="342" y1="444" y2="444" class="net_14,15"/>
  <line x1="342" x2="342" y1="444" y2="830" class="net_14,15"/>
  <line x1="342" x2="374" y1="830" y2="830" class="net_14,15"/>
  <line x1="318.5" x2="342" y1="444" y2="444" class="net_14,15"/>
  <line x1="342" x2="342" y1="444" y2="204" class="net_14,15"/>
  <line x1="342" x2="607" y1="204" y2="204" class="net_14,15"/>
  <line x1="318.5" x2="342" y1="444" y2="444" class="net_14,15"/>
  <line x1="342" x2="342" y1="444" y2="204" class="net_14,15"/>
  <line x1="342" x2="504" y1="204" y2="204" class="net_14,15"/>
  <line x1="504" x2="504" y1="204" y2="352" class="net_14,15"/>
  <circle cx="504" cy="204" r="2" style="fill:#000" class="net_14,15"/>
  <line x1="504" x2="607" y1="352" y2="352" class="net_14,15"/>
  <line x1="318.5" x2="599" y1="444" y2="444" class="net_14,15"/>
  <line x1="318.5" x2="342" y1="444" y2="444" class="net_14,15"/>
  <line x1="342" x2="342" y1="444" y2="544" class="net_14,15"/>
  <line x1="342" x2="194" y1="544" y2="544" class="net_14,15"/>
  <line x1="194" x2="194" y1="544" y2="434" class="net_14,15"/>
  <circle cx="194" cy="544" r="2" style="fill:#000" class="net_14,15"/>
  <circle cx="342" cy="544" r="2" style="fill:#000" class="net_14,15"/>
  <line x1="194" x2="225.66666666666666" y1="434" y2="434" class="net_14,15"/>
  <line x1="42" x2="62" y1="97" y2="97" class="net_214"/>
  <line x1="62" x2="62" y1="97" y2="529" class="net_214"/>
  <circle cx="62" cy="97" r="2" style="fill:#000" class="net_214"/>
  <circle cx="62" cy="529" r="2" style="fill:#000" class="net_214"/>
  <line x1="62" x2="92.33333333333333" y1="529" y2="529" class="net_214"/>
  <line x1="42" x2="711" y1="97" y2="97" class="net_214"/>
  <line x1="42" x2="62" y1="97" y2="97" class="net_214"/>
  <line x1="62" x2="62" y1="97" y2="555" class="net_214"/>
  <line x1="62" x2="259" y1="555" y2="555" class="net_214"/>
  <line x1="259" x2="259" y1="555" y2="700" class="net_214"/>
  <circle cx="259" cy="555" r="2" style="fill:#000" class="net_214"/>
  <circle cx="259" cy="700" r="2" style="fill:#000" class="net_214"/>
  <line x1="259" x2="408" y1="700" y2="700" class="net_214"/>
  <line x1="42" x2="62" y1="97" y2="97" class="net_214"/>
  <line x1="62" x2="62" y1="97" y2="555" class="net_214"/>
  <line x1="62" x2="711" y1="555" y2="555" class="net_214"/>
  <line x1="42" x2="62" y1="97" y2="97" class="net_214"/>
  <line x1="62" x2="62" y1="97" y2="555" class="net_214"/>
  <line x1="62" x2="259" y1="555" y2="555" class="net_214"/>
  <line x1="259" x2="259" y1="555" y2="872.5" class="net_214"/>
  <line x1="259" x2="924" y1="872.5" y2="872.5" class="net_214"/>
  <line x1="924" x2="924" y1="872.5" y2="765" class="net_214"/>
  <line x1="924" x2="904" y1="765" y2="765" class="net_214"/>
  <line x1="42" x2="62" y1="97" y2="97" class="net_214"/>
  <line x1="62" x2="62" y1="97" y2="363" class="net_214"/>
  <line x1="62" x2="574" y1="363" y2="363" class="net_214"/>
  <line x1="574" x2="574" y1="363" y2="367" class="net_214"/>
  <circle cx="62" cy="363" r="2" style="fill:#000" class="net_214"/>
  <line x1="574" x2="607" y1="367" y2="367" class="net_214"/>
  <line x1="974" x2="1032" y1="99.5" y2="99.5" class="net_18,19,20,21,22,23,24,25,26,27,28,29,30,31,32,33,34,35"/>
  <line x1="1032" x2="1032" y1="99.5" y2="66" class="net_18,19,20,21,22,23,24,25,26,27,28,29,30,31,32,33,34,35"/>
  <line x1="1032" x2="639" y1="66" y2="66" class="net_18,19,20,21,22,23,24,25,26,27,28,29,30,31,32,33,34,35"/>
  <line x1="639" x2="639" y1="66" y2="82" class="net_18,19,20,21,22,23,24,25,26,27,28,29,30,31,32,33,34,35"/>
  <circle cx="639" cy="66" r="2" style="fill:#000" class="net_18,19,20,21,22,23,24,25,26,27,28,29,30,31,32,33,34,35"/>
  <line x1="639" x2="711" y1="82" y2="82" class="net_18,19,20,21,22,23,24,25,26,27,28,29,30,31,32,33,34,35"/>
  <line x1="974" x2="1032" y1="99.5" y2="99.5" class="net_18,19,20,21,22,23,24,25,26,27,28,29,30,31,32,33,34,35"/>
  <line x1="1032" x2="1032" y1="99.5" y2="66" class="net_18,19,20,21,22,23,24,25,26,27,28,29,30,31,32,33,34,35"/>
  <line x1="1032" x2="144" y1="66" y2="66" class="net_18,19,20,21,22,23,24,25,26,27,28,29,30,31,32,33,34,35"/>
  <line x1="144" x2="144" y1="66" y2="180.5" class="net_18,19,20,21,22,23,24,25,26,27,28,29,30,31,32,33,34,35"/>
  <line x1="144" x2="162" y1="180.5" y2="180.5" class="net_18,19,20,21,22,23,24,25,26,27,28,29,30,31,32,33,34,35"/>
  <line x1="629" x2="639" y1="682.5" y2="682.5" class="net_54,55,56,57,58,59,60,61,62,63,64,65,66,67,68,69"/>
  <line x1="639" x2="639" y1="682.5" y2="733.5" class="net_54,55,56,57,58,59,60,61,62,63,64,65,66,67,68,69"/>
  <line x1="639" x2="352" y1="733.5" y2="733.5" class="net_54,55,56,57,58,59,60,61,62,63,64,65,66,67,68,69"/>
  <line x1="352" x2="352" y1="733.5" y2="685" class="net_54,55,56,57,58,59,60,61,62,63,64,65,66,67,68,69"/>
  <circle cx="639" cy="682.5" r="2" style="fill:#000" class="net_54,55,56,57,58,59,60,61,62,63,64,65,66,67,68,69"/>
  <line x1="352" x2="408" y1="685" y2="685" class="net_54,55,56,57,58,59,60,61,62,63,64,65,66,67,68,69"/>
  <line x1="629" x2="639" y1="682.5" y2="682.5" class="net_54,55,56,57,58,59,60,61,62,63,64,65,66,67,68,69"/>
  <line x1="639" x2="639" y1="682.5" y2="733.5" class="net_54,55,56,57,58,59,60,61,62,63,64,65,66,67,68,69"/>
  <line x1="639" x2="514" y1="733.5" y2="733.5" class="net_54,55,56,57,58,59,60,61,62,63,64,65,66,67,68,69"/>
  <line x1="514" x2="514" y1="733.5" y2="672.5" class="net_54,55,56,57,58,59,60,61,62,63,64,65,66,67,68,69"/>
  <circle cx="514" cy="733.5" r="2" style="fill:#000" class="net_54,55,56,57,58,59,60,61,62,63,64,65,66,67,68,69"/>
  <line x1="514" x2="540.6666666666666" y1="672.5" y2="672.5" class="net_54,55,56,57,58,59,60,61,62,63,64,65,66,67,68,69"/>
  <line x1="629" x2="671" y1="682.5" y2="682.5" class="net_54,55,56,57,58,59,60,61,62,63,64,65,66,67,68,69"/>
  <line x1="974" x2="1032" y1="600" y2="600" class="net_86,87,88,89,90,91,92,93,94,95,96,97,98,99,100,101,102,103,104,105,106,107,108"/>
  <line x1="1032" x2="1032" y1="600" y2="640" class="net_86,87,88,89,90,91,92,93,94,95,96,97,98,99,100,101,102,103,104,105,106,107,108"/>
  <line x1="1032" x2="649" y1="640" y2="640" class="net_86,87,88,89,90,91,92,93,94,95,96,97,98,99,100,101,102,103,104,105,106,107,108"/>
  <line x1="649" x2="649" y1="640" y2="540" class="net_86,87,88,89,90,91,92,93,94,95,96,97,98,99,100,101,102,103,104,105,106,107,108"/>
  <line x1="649" x2="711" y1="540" y2="540" class="net_86,87,88,89,90,91,92,93,94,95,96,97,98,99,100,101,102,103,104,105,106,107,108"/>
  <line x1="974" x2="1032" y1="600" y2="600" class="net_86,87,88,89,90,91,92,93,94,95,96,97,98,99,100,101,102,103,104,105,106,107,108"/>
  <line x1="1032" x2="1032" y1="600" y2="570" class="net_86,87,88,89,90,91,92,93,94,95,96,97,98,99,100,101,102,103,104,105,106,107,108"/>
  <line x1="1032" x2="352" y1="570" y2="570" class="net_86,87,88,89,90,91,92,93,94,95,96,97,98,99,100,101,102,103,104,105,106,107,108"/>
  <line x1="352" x2="352" y1="570" y2="585" class="net_86,87,88,89,90,91,92,93,94,95,96,97,98,99,100,101,102,103,104,105,106,107,108"/>
  <circle cx="1032" cy="600" r="2" style="fill:#000" class="net_86,87,88,89,90,91,92,93,94,95,96,97,98,99,100,101,102,103,104,105,106,107,108"/>
  <line x1="352" x2="408" y1="585" y2="585" class="net_86,87,88,89,90,91,92,93,94,95,96,97,98,99,100,101,102,103,104,105,106,107,108"/>
  <line x1="405" x2="514" y1="830" y2="830" class="net_132,133,134,135,136"/>
  <line x1="514" x2="514" y1="830" y2="749.5" class="net_132,133,134,135,136"/>
  <line x1="514" x2="538.6666666666666" y1="749.5" y2="749.5" class="net_132,133,134,135,136"/>
  <line x1="404" x2="538.6666666666666" y1="764.5" y2="764.5" class="net_218"/>
  <line x1="404" x2="504" y1="764.5" y2="764.5" class="net_218"/>
  <line x1="504" x2="504" y1="764.5" y2="810" class="net_218"/>
  <line x1="504" x2="914" y1="810" y2="810" class="net_218"/>
  <line x1="914" x2="914" y1="810" y2="790" class="net_218"/>
  <circle cx="504" cy="764.5" r="2" style="fill:#000" class="net_218"/>
  <line x1="914" x2="904" y1="790" y2="790" class="net_218"/>
  <line x1="404" x2="504" y1="764.5" y2="764.5" class="net_218"/>
  <line x1="504" x2="504" y1="764.5" y2="651" class="net_218"/>
  <line x1="504" x2="934" y1="651" y2="651" class="net_218"/>
  <line x1="934" x2="934" y1="651" y2="800" class="net_218"/>
  <line x1="934" x2="904" y1="800" y2="800" class="net_218"/>
  <line x1="404" x2="504" y1="764.5" y2="764.5" class="net_218"/>
  <line x1="504" x2="504" y1="764.5" y2="810" class="net_218"/>
  <line x1="504" x2="574" y1="810" y2="810" class="net_218"/>
  <line x1="574" x2="574" y1="810" y2="777" class="net_218"/>
  <circle cx="574" cy="810" r="2" style="fill:#000" class="net_218"/>
  <line x1="574" x2="618" y1="777" y2="777" class="net_218"/>
  <line x1="702" x2="914" y1="682.5" y2="682.5" class="net_143,144,145,146"/>
  <line x1="914" x2="914" y1="682.5" y2="750" class="net_143,144,145,146"/>
  <line x1="914" x2="904" y1="750" y2="750" class="net_143,144,145,146"/>
  <line x1="819" x2="844" y1="750" y2="750" class="net_"/>
  <line x1="819" x2="819" y1="750" y2="780" class="net_"/>
  <circle cx="819" cy="750" r="2" style="fill:#000" class="net_"/>
  <line x1="819" x2="844" y1="780" y2="780" class="net_"/>
  <line x1="819" x2="819" y1="750" y2="735" class="net_"/>
  <line x1="819" x2="844" y1="735" y2="735" class="net_"/>
  <line x1="819" x2="819" y1="750" y2="765" class="net_"/>
  <circle cx="819" cy="765" r="2" style="fill:#000" class="net_"/>
  <line x1="819" x2="844" y1="765" y2="765" class="net_"/>
  <line x1="112" x2="162" y1="195.5" y2="195.5" class="net_222,223,224,225,226,227,228,229,230,231,232,233,234,235,236,237,238"/>
  <line x1="42" x2="52" y1="32" y2="32" class="net_239,240"/>
  <line x1="52" x2="52" y1="32" y2="404" class="net_239,240"/>
  <line x1="52" x2="92.33333333333333" y1="404" y2="404" class="net_239,240"/>
  <line x1="314" x2="408" y1="600" y2="600" class="net_241,242,243,244,245,246,247,248,249,250,251,252,253,254,255,256,257,258,259,260,261,262"/>
  <line x1="314" x2="374" y1="850" y2="850" class="net_263,264,265"/>
  <line x1="247" x2="269" y1="504" y2="504" class="net_2"/>
  <line x1="269" x2="269" y1="504" y2="620" class="net_2"/>
  <circle cx="269" cy="504" r="2" style="fill:#000" class="net_2"/>
  <circle cx="269" cy="620" r="2" style="fill:#000" class="net_2"/>
  <line x1="269" x2="944" y1="620" y2="620" class="net_2"/>
  <line x1="247" x2="269" y1="504" y2="504" class="net_2"/>
  <line x1="269" x2="269" y1="504" y2="177" class="net_2"/>
  <line x1="269" x2="914" y1="177" y2="177" class="net_2"/>
  <line x1="914" x2="914" y1="177" y2="119.5" class="net_2"/>
  <line x1="914" x2="944" y1="119.5" y2="119.5" class="net_2"/>
  <line x1="247" x2="269" y1="504" y2="504" class="net_2"/>
  <line x1="269" x2="269" y1="504" y2="722.5" class="net_2"/>
  <line x1="269" x2="574" y1="722.5" y2="722.5" class="net_2"/>
  <line x1="574" x2="574" y1="722.5" y2="702.5" class="net_2"/>
  <line x1="574" x2="599" y1="702.5" y2="702.5" class="net_2"/>
  <line x1="247" x2="269" y1="504" y2="504" class="net_2"/>
  <line x1="269" x2="269" y1="504" y2="464" class="net_2"/>
  <circle cx="269" cy="464" r="2" style="fill:#000" class="net_2"/>
  <line x1="269" x2="288.5" y1="464" y2="464" class="net_2"/>
  <line x1="877.3333333333334" x2="914" y1="434" y2="434" class="net_150,151,152,153,154,155,156,157,158,159,160,161,162,163,164,165,166,167,168,169,170,171,172"/>
  <line x1="914" x2="914" y1="434" y2="600" class="net_150,151,152,153,154,155,156,157,158,159,160,161,162,163,164,165,166,167,168,169,170,171,172"/>
  <line x1="914" x2="944" y1="600" y2="600" class="net_150,151,152,153,154,155,156,157,158,159,160,161,162,163,164,165,166,167,168,169,170,171,172"/>
  <line x1="877.3333333333334" x2="944" y1="99.5" y2="99.5" class="net_173,174,175,176,177,178,179,180,181,182,183,184,185,186,187,188,189,190"/>
  <line x1="560.6666666666666" x2="599" y1="682.5" y2="682.5" class="net_191,192,193,194,195,196,197,198,199,200,201,202,203,204,205,206"/>
  <line x1="245.66666666666666" x2="288.5" y1="444" y2="444" class="net_207,208"/>
  <line x1="701" x2="857.3333333333334" y1="219" y2="219" class="net_266,267,268,269"/>
  <line x1="701" x2="819" y1="284" y2="284" class="net_270,271,272,273,274,275,276,277,278,279,280,281"/>
  <line x1="819" x2="819" y1="284" y2="239" class="net_270,271,272,273,274,275,276,277,278,279,280,281"/>
  <line x1="819" x2="857.3333333333334" y1="239" y2="239" class="net_270,271,272,273,274,275,276,277,278,279,280,281"/>
  <line x1="708.75" x2="867.3333333333334" y1="349.5" y2="349.5" class="net_209,210,211"/>
  <line x1="867.3333333333334" x2="867.3333333333334" y1="349.5" y2="244" class="net_209,210,211"/>
  <line x1="564" x2="574" y1="235" y2="235" class="net_282,283"/>
  <line x1="574" x2="574" y1="235" y2="219" class="net_282,283"/>
  <line x1="574" x2="607" y1="219" y2="219" class="net_282,283"/>
  <line x1="733" x2="819" y1="547.5" y2="547.5" class="net_109,110,111,112,113,114,115,116,117,118,119,120,121,122,123,124,125,126,127,128,129,130,131"/>
  <line x1="819" x2="819" y1="547.5" y2="424" class="net_109,110,111,112,113,114,115,116,117,118,119,120,121,122,123,124,125,126,127,128,129,130,131"/>
  <line x1="819" x2="857.3333333333334" y1="424" y2="424" class="net_109,110,111,112,113,114,115,116,117,118,119,120,121,122,123,124,125,126,127,128,129,130,131"/>
  <line x1="701" x2="857.3333333333334" y1="444" y2="444" class="net_285,286,287,288,289,290,291,292,293,294,295,296,297,298,299,300,301,302,303,304,305,306,307"/>
  <line x1="430" x2="524" y1="592.5" y2="592.5" class="net_149"/>
  <line x1="524" x2="524" y1="592.5" y2="464" class="net_149"/>
  <line x1="524" x2="867.3333333333334" y1="464" y2="464" class="net_149"/>
  <circle cx="524" cy="592.5" r="2" style="fill:#000" class="net_149"/>
  <line x1="867.3333333333334" x2="867.3333333333334" y1="464" y2="449" class="net_149"/>
  <line x1="430" x2="524" y1="592.5" y2="592.5" class="net_149"/>
  <line x1="524" x2="524" y1="592.5" y2="712.5" class="net_149"/>
  <line x1="524" x2="550.6666666666666" y1="712.5" y2="712.5" class="net_149"/>
  <line x1="550.6666666666666" x2="550.6666666666666" y1="712.5" y2="697.5" class="net_149"/>
  <line x1="733" x2="857.3333333333334" y1="89.5" y2="89.5" class="net_36,37,38,39,40,41,42,43,44,45,46,47,48,49,50,51,52,53"/>
  <line x1="701" x2="819" y1="157" y2="157" class="net_308,309,310,311,312,313,314,315,316,317,318,319,320,321,322,323,324,325"/>
  <line x1="819" x2="819" y1="157" y2="109.5" class="net_308,309,310,311,312,313,314,315,316,317,318,319,320,321,322,323,324,325"/>
  <line x1="819" x2="857.3333333333334" y1="109.5" y2="109.5" class="net_308,309,310,311,312,313,314,315,316,317,318,319,320,321,322,323,324,325"/>
  <line x1="184" x2="867.3333333333334" y1="188" y2="188" class="net_147"/>
  <line x1="867.3333333333334" x2="867.3333333333334" y1="188" y2="114.5" class="net_147"/>
  <line x1="184" x2="204" y1="188" y2="188" class="net_147"/>
  <line x1="204" x2="204" y1="188" y2="474" class="net_147"/>
  <line x1="204" x2="235.66666666666666" y1="474" y2="474" class="net_147"/>
  <circle cx="204" cy="188" r="2" style="fill:#000" class="net_147"/>
  <line x1="235.66666666666666" x2="235.66666666666666" y1="474" y2="459" class="net_147"/>
  <line x1="114.33333333333333" x2="134" y1="521.5" y2="521.5" class="net_16,17"/>
  <line x1="134" x2="134" y1="521.5" y2="444" class="net_16,17"/>
  <line x1="134" x2="160.66666666666666" y1="444" y2="444" class="net_16,17"/>
  <line x1="112" x2="160.66666666666666" y1="464" y2="464" class="net_326,327"/>
  <line x1="114.33333333333333" x2="144" y1="396.5" y2="396.5" class="net_148"/>
  <line x1="144" x2="144" y1="396.5" y2="484" class="net_148"/>
  <line x1="144" x2="170.66666666666666" y1="484" y2="484" class="net_148"/>
  <line x1="170.66666666666666" x2="170.66666666666666" y1="484" y2="469" class="net_148"/>
  <line x1="180.66666666666666" x2="225.66666666666666" y1="454" y2="454" class="net_212,213"/>
  <line x1="430" x2="540.6666666666666" y1="692.5" y2="692.5" class="net_70,71,72,73,74,75,76,77,78,79,80,81,82,83,84,85"/>
  <line x1="624" x2="649" y1="767" y2="767" class="net_137,138,139,140,141,142,218"/>
  <line x1="649" x2="649" y1="767" y2="702.5" class="net_137,138,139,140,141,142,218"/>
  <line x1="649" x2="671" y1="702.5" y2="702.5" class="net_137,138,139,140,141,142,218"/>
  <line x1="904" x2="944" y1="735" y2="735" class="net_3,4,5,6,7,8,9"/>
  <line x1="877.3333333333334" x2="944" y1="229" y2="229" class="net_10,11,12,13"/>
  <line x1="629" x2="639" y1="211.5" y2="211.5" class="net_209"/>
  <line x1="639" x2="639" y1="211.5" y2="339.5" class="net_209"/>
  <line x1="639" x2="702.75" y1="339.5" y2="339.5" class="net_209"/>
  <line x1="629" x2="702.75" y1="359.5" y2="359.5" class="net_210"/>
  <line x1="624" x2="639" y1="444" y2="444" class="net_211"/>
  <line x1="639" x2="639" y1="444" y2="379.5" class="net_211"/>
  <line x1="639" x2="702.75" y1="379.5" y2="379.5" class="net_211"/>
  <line x1="560.6666666666666" x2="618" y1="757" y2="757" class="net_137,138,139,140,141,142"/>
</svg>
