<svg xmlns="http://www.w3.org/2000/svg" xmlns:xlink="http://www.w3.org/1999/xlink" xmlns:s="https://github.com/nturley/netlistsvg" width="596" height="386"><style>svg {
  stroke:#000;
  fill:none;
}
text {
  fill:#000;
  stroke:none;
  font-size:10px;
  font-weight: bold;
  font-family: "Courier New", monospace;
}
line {
    stroke-linecap: round;
}
.nodelabel {
  text-anchor: middle;
}
.inputPortLabel {
  text-anchor: end;
}
.splitjoinBody {
  fill:#000;
}</style><g s:type="add" transform="translate(98.66666666666667,109.5)" s:width="25" s:height="25" id="cell_:12"><s:alias val="$add"/><circle r="12.5" cx="12.5" cy="12.5" fill="#ffffff" class="cell_:12"/><line x1="7.5" x2="17.5" y1="12.5" y2="12.5" fill="#ffffff" class="cell_:12"/><line x1="12.5" x2="12.5" y1="7.5" y2="17.5" fill="#ffffff" class="cell_:12"/><g s:x="2" s:y="5" s:pid="A"/><g s:x="2" s:y="20" s:pid="B"/><g s:x="26" s:y="12.5" s:pid="Y"/></g><g s:type="eq" transform="translate(223.33333333333334,117)" s:width="25" s:height="25" id="cell_:16"><s:alias val="$eq"/><s:alias val="$eqx"/><circle r="12.5" cx="12.5" cy="12.5" fill="#ffffff" class="cell_:16"/><line x1="7.5" x2="17.5" y1="10" y2="10" fill="#ffffff" class="cell_:16"/><line x1="7.5" x2="17.5" y1="15" y2="15" fill="#ffffff" class="cell_:16"/><g s:x="2" s:y="5" s:pid="A"/><g s:x="2" s:y="20" s:pid="B"/><g s:x="25" s:y="12.5" s:pid="Y"/></g><g s:type="mux" transform="translate(293.6666666666667,42)" s:width="20" s:height="40" id="cell_:18"><s:alias val="$pmux"/><s:alias val="$mux"/><s:alias val="$_MUX_"/><path d="M0,0 L20,10 L20,30 L0,40 Z" fill="#ffffff" class="cell_:18"/><text x="5" y="32" class="nodelabel cell_:18" s:attribute="">1</text><text x="5" y="13" class="nodelabel cell_:18" s:attribute="">0</text><g s:x="0" s:y="10" s:pid="A"/><g s:x="0" s:y="30" s:pid="B"/><g s:x="10" s:y="35" s:pid="S"/><g s:x="20" s:y="20" s:pid="Y"/></g><g s:type="mux" transform="translate(357.6666666666667,52)" s:width="20" s:height="40" id="cell_:20"><s:alias val="$pmux"/><s:alias val="$mux"/><s:alias val="$_MUX_"/><path d="M0,0 L20,10 L20,30 L0,40 Z" fill="#ffffff" class="cell_:20"/><text x="5" y="32" class="nodelabel cell_:20" s:attribute="">1</text><text x="5" y="13" class="nodelabel cell_:20" s:attribute="">0</text><g s:x="0" s:y="10" s:pid="A"/><g s:x="0" s:y="30" s:pid="B"/><g s:x="10" s:y="35" s:pid="S"/><g s:x="20" s:y="20" s:pid="Y"/></g><g s:type="mux-bus" transform="translate(223.66666666666666,268)" s:width="24" s:height="40" id="cell_:22"><s:alias val="$pmux-bus"/><s:alias val="$mux-bus"/><s:alias val="$_MUX_-bus"/><path d="M0,0 L20,10 L20,30 L0,40 Z" fill="#ffffff" class="cell_:22"/><path d="M4,2 L4,0 L22,9 L22,31 L4,40 L4,38" fill="#ffffff" class="cell_:22"/><path d="M8,2 L8,0 L24,8 L24,32 L8,40 L8,38" fill="#ffffff" class="cell_:22"/><text x="5" y="32" class="nodelabel cell_:22" s:attribute="">1</text><text x="5" y="13" class="nodelabel cell_:22" s:attribute="">0</text><g s:x="-1" s:y="10" s:pid="A"/><g s:x="-1" s:y="30" s:pid="B"/><g s:x="12" s:y="38" s:pid="S"/><g s:x="24.5" s:y="20" s:pid="Y"/></g><g s:type="dff" transform="translate(424,62)" s:width="30" s:height="40" id="cell_:26"><s:alias val="$dff"/><s:alias val="$_DFF_"/><s:alias val="$_DFF_P_"/><s:alias val="$adff"/><s:alias val="$_DFF_"/><s:alias val="$_DFF_P_"/><s:alias val="$sdff"/><s:alias val="$_DFF_"/><s:alias val="$_DFF_P_"/><rect width="30" height="40" x="0" y="0" fill="#ffffff" class="cell_:26"/><path d="M0,35 L5,30 L0,25" fill="#ffffff" class="cell_:26"/><g s:x="31" s:y="10" s:pid="Q"/><g s:x="-1" s:y="30" s:pid="CLK"/><g s:x="-1" s:y="30" s:pid="C"/><g s:x="-1" s:y="10" s:pid="D"/><g s:x="15" s:y="40" s:pid="ARST"/><g s:x="15" s:y="40" s:pid="SRST"/></g><g s:type="dff-bus" transform="translate(353,278)" s:width="34" s:height="44" id="cell_:27"><s:alias val="$dff-bus"/><s:alias val="$_DFF_-bus"/><s:alias val="$_DFF_P_-bus"/><s:alias val="adff-bus"/><s:alias val="$adff-bus"/><s:alias val="$_DFF_-bus"/><s:alias val="$_DFF_P_-bus"/><s:alias val="sdff-bus"/><s:alias val="$sdff-bus"/><s:alias val="$_DFF_-bus"/><s:alias val="$_DFF_P_-bus"/><rect width="30" height="40" x="0" y="0" fill="#ffffff" class="cell_:27"/><path d="M0,35 L5,30 L0,25" fill="#ffffff" class="cell_:27"/><path d="M30,2 L32,2 L32,42 L2,42 L2,40" fill="#ffffff" class="cell_:27"/><path d="M32,4 L34,4 L34,44 L4,44 L4,42" fill="#ffffff" class="cell_:27"/><g s:x="35" s:y="10" s:pid="Q"/><g s:x="-1" s:y="30" s:pid="CLK"/><g s:x="-1" s:y="30" s:pid="C"/><g s:x="-1" s:y="10" s:pid="D"/><g s:x="17" s:y="44" s:pid="ARST"/><g s:x="17" s:y="44" s:pid="SRST"/></g><g s:type="mux-bus" transform="translate(491,278)" s:width="24" s:height="40" id="cell_:6"><s:alias val="$pmux-bus"/><s:alias val="$mux-bus"/><s:alias val="$_MUX_-bus"/><path d="M0,0 L20,10 L20,30 L0,40 Z" fill="#ffffff" class="cell_:6"/><path d="M4,2 L4,0 L22,9 L22,31 L4,40 L4,38" fill="#ffffff" class="cell_:6"/><path d="M8,2 L8,0 L24,8 L24,32 L8,40 L8,38" fill="#ffffff" class="cell_:6"/><text x="5" y="32" class="nodelabel cell_:6" s:attribute="">1</text><text x="5" y="13" class="nodelabel cell_:6" s:attribute="">0</text><g s:x="-1" s:y="10" s:pid="A"/><g s:x="-1" s:y="30" s:pid="B"/><g s:x="12" s:y="38" s:pid="S"/><g s:x="24.5" s:y="20" s:pid="Y"/></g><g s:type="eq" transform="translate(161,188)" s:width="25" s:height="25" id="cell_:9"><s:alias val="$eq"/><s:alias val="$eqx"/><circle r="12.5" cx="12.5" cy="12.5" fill="#ffffff" class="cell_:9"/><line x1="7.5" x2="17.5" y1="10" y2="10" fill="#ffffff" class="cell_:9"/><line x1="7.5" x2="17.5" y1="15" y2="15" fill="#ffffff" class="cell_:9"/><g s:x="2" s:y="5" s:pid="A"/><g s:x="2" s:y="20" s:pid="B"/><g s:x="25" s:y="12.5" s:pid="Y"/></g><g s:type="inputExt" transform="translate(287,229)" s:width="30" s:height="20" id="cell_clock"><text x="15" y="-4" class="nodelabel cell_clock" s:attribute="ref">clock</text><s:alias val="$_inputExt_"/><path d="M0,0 L0,20 L15,20 L30,10 L15,0 Z" fill="#ffffff" class="cell_clock"/><g s:x="30" s:y="10" s:pid="Y"/></g><g s:type="inputExt" transform="translate(424,354)" s:width="30" s:height="20" id="cell_reset"><text x="15" y="-4" class="nodelabel cell_reset" s:attribute="ref">reset</text><s:alias val="$_inputExt_"/><path d="M0,0 L0,20 L15,20 L30,10 L15,0 Z" fill="#ffffff" class="cell_reset"/><g s:x="30" s:y="10" s:pid="Y"/></g><g s:type="inputExt" transform="translate(12,198)" s:width="30" s:height="20" id="cell_maxLimit"><text x="15" y="-4" class="nodelabel cell_maxLimit" s:attribute="ref">maxLimit</text><s:alias val="$_inputExt_"/><path d="M0,0 L0,20 L15,20 L30,10 L15,0 Z" fill="#ffffff" class="cell_maxLimit"/><g s:x="30" s:y="10" s:pid="Y"/></g><g s:type="outputExt" transform="translate(490,62)" s:width="30" s:height="20" id="cell_timerTriggered"><text x="15" y="-4" class="nodelabel cell_timerTriggered" s:attribute="ref">timerTriggered</text><s:alias val="$_outputExt_"/><path d="M30,0 L30,20 L15,20 L0,10 L15,0 Z" fill="#ffffff" class="cell_timerTriggered"/><g s:x="0" s:y="10" s:pid="A"/></g><g s:type="constant" transform="translate(12,119.5)" s:width="30" s:height="20" id="cell_1"><text x="15" y="-4" class="nodelabel cell_1" s:attribute="ref">1</text><s:alias val="$_constant_"/><rect width="30" height="20" fill="#ffffff" class="cell_1"/><g s:x="31" s:y="10" s:pid="Y"/></g><g s:type="constant" transform="translate(221,62)" s:width="30" s:height="20" id="cell_0"><text x="15" y="-4" class="nodelabel cell_0" s:attribute="ref">0</text><s:alias val="$_constant_"/><rect width="30" height="20" fill="#ffffff" class="cell_0"/><g s:x="31" s:y="10" s:pid="Y"/></g><g s:type="constant" transform="translate(95,288)" s:width="30" s:height="20" id="cell_00000000000000000000000000"><text x="15" y="-4" class="nodelabel cell_00000000000000000000000000" s:attribute="ref">0x0</text><s:alias val="$_constant_"/><rect width="30" height="20" fill="#ffffff" class="cell_00000000000000000000000000"/><g s:x="31" s:y="10" s:pid="Y"/></g><line x1="515.5" x2="584" y1="298" y2="298" class="net_31,32,33,34,35,36,37,38,39,40,41,42,43,44,45,46,47,48,49,50,51,52,53,54,55,56 width_26" style="stroke-width: 2"/><line x1="584" x2="584" y1="298" y2="16" class="net_31,32,33,34,35,36,37,38,39,40,41,42,43,44,45,46,47,48,49,50,51,52,53,54,55,56 width_26" style="stroke-width: 2"/><line x1="584" x2="70" y1="16" y2="16" class="net_31,32,33,34,35,36,37,38,39,40,41,42,43,44,45,46,47,48,49,50,51,52,53,54,55,56 width_26" style="stroke-width: 2"/><line x1="70" x2="70" y1="16" y2="114.5" class="net_31,32,33,34,35,36,37,38,39,40,41,42,43,44,45,46,47,48,49,50,51,52,53,54,55,56 width_26" style="stroke-width: 2"/><line x1="70" x2="100.66666666666667" y1="114.5" y2="114.5" class="net_31,32,33,34,35,36,37,38,39,40,41,42,43,44,45,46,47,48,49,50,51,52,53,54,55,56 width_26" style="stroke-width: 2"/><line x1="515.5" x2="584" y1="298" y2="298" class="net_31,32,33,34,35,36,37,38,39,40,41,42,43,44,45,46,47,48,49,50,51,52,53,54,55,56 width_26" style="stroke-width: 2"/><line x1="584" x2="584" y1="298" y2="251" class="net_31,32,33,34,35,36,37,38,39,40,41,42,43,44,45,46,47,48,49,50,51,52,53,54,55,56 width_26" style="stroke-width: 2"/><line x1="584" x2="337" y1="251" y2="251" class="net_31,32,33,34,35,36,37,38,39,40,41,42,43,44,45,46,47,48,49,50,51,52,53,54,55,56 width_26" style="stroke-width: 2"/><line x1="337" x2="337" y1="251" y2="178" class="net_31,32,33,34,35,36,37,38,39,40,41,42,43,44,45,46,47,48,49,50,51,52,53,54,55,56 width_26" style="stroke-width: 2"/><line x1="337" x2="146" y1="178" y2="178" class="net_31,32,33,34,35,36,37,38,39,40,41,42,43,44,45,46,47,48,49,50,51,52,53,54,55,56 width_26" style="stroke-width: 2"/><line x1="146" x2="146" y1="178" y2="193" class="net_31,32,33,34,35,36,37,38,39,40,41,42,43,44,45,46,47,48,49,50,51,52,53,54,55,56 width_26" style="stroke-width: 2"/><circle cx="584" cy="251" r="3" style="fill:#000" class="net_31,32,33,34,35,36,37,38,39,40,41,42,43,44,45,46,47,48,49,50,51,52,53,54,55,56 width_26"/><line x1="146" x2="163" y1="193" y2="193" class="net_31,32,33,34,35,36,37,38,39,40,41,42,43,44,45,46,47,48,49,50,51,52,53,54,55,56 width_26" style="stroke-width: 2"/><line x1="43" x2="100.66666666666667" y1="129.5" y2="129.5" class="net_139 width_1" style="stroke-width: 1"/><line x1="43" x2="70" y1="129.5" y2="129.5" class="net_139 width_1" style="stroke-width: 1"/><line x1="70" x2="70" y1="129.5" y2="152" class="net_139 width_1" style="stroke-width: 1"/><line x1="70" x2="196" y1="152" y2="152" class="net_139 width_1" style="stroke-width: 1"/><line x1="196" x2="196" y1="152" y2="137" class="net_139 width_1" style="stroke-width: 1"/><circle cx="70" cy="129.5" r="2" style="fill:#000" class="net_139 width_1"/><circle cx="196" cy="152" r="2" style="fill:#000" class="net_139 width_1"/><line x1="196" x2="225.33333333333334" y1="137" y2="137" class="net_139 width_1" style="stroke-width: 1"/><line x1="43" x2="70" y1="129.5" y2="129.5" class="net_139 width_1" style="stroke-width: 1"/><line x1="70" x2="70" y1="129.5" y2="152" class="net_139 width_1" style="stroke-width: 1"/><line x1="70" x2="327" y1="152" y2="152" class="net_139 width_1" style="stroke-width: 1"/><line x1="327" x2="327" y1="152" y2="82" class="net_139 width_1" style="stroke-width: 1"/><line x1="327" x2="357.6666666666667" y1="82" y2="82" class="net_139 width_1" style="stroke-width: 1"/><line x1="124.66666666666667" x2="225.33333333333334" y1="122" y2="122" class="net_57,58,59,60,61,62,63,64,65,66,67,68,69,70,71,72,73,74,75,76,77,78,79,80,81,82 width_26" style="stroke-width: 2"/><line x1="124.66666666666667" x2="136" y1="122" y2="122" class="net_57,58,59,60,61,62,63,64,65,66,67,68,69,70,71,72,73,74,75,76,77,78,79,80,81,82 width_26" style="stroke-width: 2"/><line x1="136" x2="136" y1="122" y2="278" class="net_57,58,59,60,61,62,63,64,65,66,67,68,69,70,71,72,73,74,75,76,77,78,79,80,81,82 width_26" style="stroke-width: 2"/><circle cx="136" cy="122" r="3" style="fill:#000" class="net_57,58,59,60,61,62,63,64,65,66,67,68,69,70,71,72,73,74,75,76,77,78,79,80,81,82 width_26"/><line x1="136" x2="222.66666666666666" y1="278" y2="278" class="net_57,58,59,60,61,62,63,64,65,66,67,68,69,70,71,72,73,74,75,76,77,78,79,80,81,82 width_26" style="stroke-width: 2"/><line x1="455" x2="465" y1="72" y2="72" class="net_30 width_1" style="stroke-width: 1"/><line x1="465" x2="465" y1="72" y2="32" class="net_30 width_1" style="stroke-width: 1"/><line x1="465" x2="262" y1="32" y2="32" class="net_30 width_1" style="stroke-width: 1"/><line x1="262" x2="262" y1="32" y2="52" class="net_30 width_1" style="stroke-width: 1"/><circle cx="465" cy="72" r="2" style="fill:#000" class="net_30 width_1"/><line x1="262" x2="293.6666666666667" y1="52" y2="52" class="net_30 width_1" style="stroke-width: 1"/><line x1="455" x2="490" y1="72" y2="72" class="net_30 width_1" style="stroke-width: 1"/><line x1="252" x2="293.6666666666667" y1="72" y2="72" class="net_141 width_1" style="stroke-width: 1"/><line x1="248.33333333333334" x2="303.6666666666667" y1="129.5" y2="129.5" class="net_83 width_1" style="stroke-width: 1"/><line x1="303.6666666666667" x2="303.6666666666667" y1="129.5" y2="77" class="net_83 width_1" style="stroke-width: 1"/><line x1="313.6666666666667" x2="357.6666666666667" y1="62" y2="62" class="net_84 width_1" style="stroke-width: 1"/><line x1="186" x2="196" y1="200.5" y2="200.5" class="net_85 width_1" style="stroke-width: 1"/><line x1="196" x2="196" y1="200.5" y2="163" class="net_85 width_1" style="stroke-width: 1"/><line x1="196" x2="367.6666666666667" y1="163" y2="163" class="net_85 width_1" style="stroke-width: 1"/><circle cx="196" cy="200.5" r="2" style="fill:#000" class="net_85 width_1"/><line x1="367.6666666666667" x2="367.6666666666667" y1="163" y2="87" class="net_85 width_1" style="stroke-width: 1"/><line x1="186" x2="196" y1="200.5" y2="200.5" class="net_85 width_1" style="stroke-width: 1"/><line x1="196" x2="196" y1="200.5" y2="318" class="net_85 width_1" style="stroke-width: 1"/><line x1="196" x2="235.66666666666666" y1="318" y2="318" class="net_85 width_1" style="stroke-width: 1"/><line x1="235.66666666666666" x2="235.66666666666666" y1="318" y2="306" class="net_85 width_1" style="stroke-width: 1"/><line x1="126" x2="222.66666666666666" y1="298" y2="298" class="net_143,144,145,146,147,148,149,150,151,152,153,154,155,156,157,158,159,160,161,162,163,164,165,166,167,168 width_26" style="stroke-width: 2"/><line x1="126" x2="136" y1="298" y2="298" class="net_143,144,145,146,147,148,149,150,151,152,153,154,155,156,157,158,159,160,161,162,163,164,165,166,167,168 width_26" style="stroke-width: 2"/><line x1="136" x2="136" y1="298" y2="333" class="net_143,144,145,146,147,148,149,150,151,152,153,154,155,156,157,158,159,160,161,162,163,164,165,166,167,168 width_26" style="stroke-width: 2"/><line x1="136" x2="465" y1="333" y2="333" class="net_143,144,145,146,147,148,149,150,151,152,153,154,155,156,157,158,159,160,161,162,163,164,165,166,167,168 width_26" style="stroke-width: 2"/><line x1="465" x2="465" y1="333" y2="308" class="net_143,144,145,146,147,148,149,150,151,152,153,154,155,156,157,158,159,160,161,162,163,164,165,166,167,168 width_26" style="stroke-width: 2"/><circle cx="136" cy="298" r="3" style="fill:#000" class="net_143,144,145,146,147,148,149,150,151,152,153,154,155,156,157,158,159,160,161,162,163,164,165,166,167,168 width_26"/><line x1="465" x2="490" y1="308" y2="308" class="net_143,144,145,146,147,148,149,150,151,152,153,154,155,156,157,158,159,160,161,162,163,164,165,166,167,168 width_26" style="stroke-width: 2"/><line x1="317" x2="398" y1="239" y2="239" class="net_2 width_1" style="stroke-width: 1"/><line x1="398" x2="398" y1="239" y2="92" class="net_2 width_1" style="stroke-width: 1"/><line x1="398" x2="423" y1="92" y2="92" class="net_2 width_1" style="stroke-width: 1"/><line x1="317" x2="327" y1="239" y2="239" class="net_2 width_1" style="stroke-width: 1"/><line x1="327" x2="327" y1="239" y2="308" class="net_2 width_1" style="stroke-width: 1"/><circle cx="327" cy="239" r="2" style="fill:#000" class="net_2 width_1"/><line x1="327" x2="352" y1="308" y2="308" class="net_2 width_1" style="stroke-width: 1"/><line x1="377.6666666666667" x2="423" y1="72" y2="72" class="net_86 width_1" style="stroke-width: 1"/><line x1="248.16666666666666" x2="352" y1="288" y2="288" class="net_87,88,89,90,91,92,93,94,95,96,97,98,99,100,101,102,103,104,105,106,107,108,109,110,111,112 width_26" style="stroke-width: 2"/><line x1="388" x2="490" y1="288" y2="288" class="net_113,114,115,116,117,118,119,120,121,122,123,124,125,126,127,128,129,130,131,132,133,134,135,136,137,138 width_26" style="stroke-width: 2"/><line x1="454" x2="503" y1="364" y2="364" class="net_3 width_1" style="stroke-width: 1"/><line x1="503" x2="503" y1="364" y2="316" class="net_3 width_1" style="stroke-width: 1"/><line x1="42" x2="163" y1="208" y2="208" class="net_4,5,6,7,8,9,10,11,12,13,14,15,16,17,18,19,20,21,22,23,24,25,26,27,28,29 width_26" style="stroke-width: 2"/><rect x="301" y="173" width="22" height="9" class="net_31,32,33,34,35,36,37,38,39,40,41,42,43,44,45,46,47,48,49,50,51,52,53,54,55,56 width_26 busLabel_26" style="fill: white; stroke: none"/><text x="300" y="181" class="net_31,32,33,34,35,36,37,38,39,40,41,42,43,44,45,46,47,48,49,50,51,52,53,54,55,56 width_26 busLabel_26">/26/</text><rect x="301" y="173" width="22" height="9" class="net_31,32,33,34,35,36,37,38,39,40,41,42,43,44,45,46,47,48,49,50,51,52,53,54,55,56 width_26 busLabel_26" style="fill: white; stroke: none"/><text x="300" y="181" class="net_31,32,33,34,35,36,37,38,39,40,41,42,43,44,45,46,47,48,49,50,51,52,53,54,55,56 width_26 busLabel_26">/26/</text><rect x="172.5" y="273" width="22" height="9" class="net_57,58,59,60,61,62,63,64,65,66,67,68,69,70,71,72,73,74,75,76,77,78,79,80,81,82 width_26 busLabel_26" style="fill: white; stroke: none"/><text x="171.5" y="281" class="net_57,58,59,60,61,62,63,64,65,66,67,68,69,70,71,72,73,74,75,76,77,78,79,80,81,82 width_26 busLabel_26">/26/</text><rect x="172.5" y="273" width="22" height="9" class="net_57,58,59,60,61,62,63,64,65,66,67,68,69,70,71,72,73,74,75,76,77,78,79,80,81,82 width_26 busLabel_26" style="fill: white; stroke: none"/><text x="171.5" y="281" class="net_57,58,59,60,61,62,63,64,65,66,67,68,69,70,71,72,73,74,75,76,77,78,79,80,81,82 width_26 busLabel_26">/26/</text><rect x="301" y="328" width="22" height="9" class="net_143,144,145,146,147,148,149,150,151,152,153,154,155,156,157,158,159,160,161,162,163,164,165,166,167,168 width_26 busLabel_26" style="fill: white; stroke: none"/><text x="300" y="336" class="net_143,144,145,146,147,148,149,150,151,152,153,154,155,156,157,158,159,160,161,162,163,164,165,166,167,168 width_26 busLabel_26">/26/</text><rect x="301" y="328" width="22" height="9" class="net_143,144,145,146,147,148,149,150,151,152,153,154,155,156,157,158,159,160,161,162,163,164,165,166,167,168 width_26 busLabel_26" style="fill: white; stroke: none"/><text x="300" y="336" class="net_143,144,145,146,147,148,149,150,151,152,153,154,155,156,157,158,159,160,161,162,163,164,165,166,167,168 width_26 busLabel_26">/26/</text><rect x="301" y="283" width="22" height="9" class="net_87,88,89,90,91,92,93,94,95,96,97,98,99,100,101,102,103,104,105,106,107,108,109,110,111,112 width_26 busLabel_26" style="fill: white; stroke: none"/><text x="300" y="291" class="net_87,88,89,90,91,92,93,94,95,96,97,98,99,100,101,102,103,104,105,106,107,108,109,110,111,112 width_26 busLabel_26">/26/</text><rect x="438" y="283" width="22" height="9" class="net_113,114,115,116,117,118,119,120,121,122,123,124,125,126,127,128,129,130,131,132,133,134,135,136,137,138 width_26 busLabel_26" style="fill: white; stroke: none"/><text x="437" y="291" class="net_113,114,115,116,117,118,119,120,121,122,123,124,125,126,127,128,129,130,131,132,133,134,135,136,137,138 width_26 busLabel_26">/26/</text><rect x="109.5" y="203" width="22" height="9" class="net_4,5,6,7,8,9,10,11,12,13,14,15,16,17,18,19,20,21,22,23,24,25,26,27,28,29 width_26 busLabel_26" style="fill: white; stroke: none"/><text x="108.5" y="211" class="net_4,5,6,7,8,9,10,11,12,13,14,15,16,17,18,19,20,21,22,23,24,25,26,27,28,29 width_26 busLabel_26">/26/</text></svg>