<svg xmlns="http://www.w3.org/2000/svg" xmlns:xlink="http://www.w3.org/1999/xlink" xmlns:s="https://github.com/nturley/netlistsvg" width="353" height="160.5"><style>svg {
  stroke:#000;
  fill:none;
}
text {
  fill:#000;
  stroke:none;
  font-size:10px;
  font-weight: bold;
  font-family: "Courier New", monospace;
}
.nodelabel {
  text-anchor: middle;
}
.inputPortLabel {
  text-anchor: end;
}
.splitjoinBody {
  fill:#000;
}</style><g s:type="add" transform="translate(301,27.5)" s:width="25" s:height="25" id="cell_$add$blink_led_minimal.v:27$8"><s:alias val="$add"/><circle r="12.5" cx="12.5" cy="12.5" class="cell_$add$blink_led_minimal.v:27$8"/><line x1="7.5" x2="17.5" y1="12.5" y2="12.5" class="cell_$add$blink_led_minimal.v:27$8"/><line x1="12.5" x2="12.5" y1="7.5" y2="17.5" class="cell_$add$blink_led_minimal.v:27$8"/><g s:x="3" s:y="5" s:pid="A"/><g s:x="3" s:y="20" s:pid="B"/><g s:x="25" s:y="12.5" s:pid="Y"/></g><g s:type="generic" transform="translate(96,22)" s:width="30" s:height="40" id="cell_$procdff$10"><text x="15" y="-4" class="nodelabel cell_$procdff$10" s:attribute="ref">$dff-bus</text><rect width="30" height="40" s:generic="body" class="cell_$procdff$10"/><g transform="translate(0,10)" s:x="0" s:y="10" s:pid="in0" id="port_$procdff$10~CLK"><text x="-3" y="-4" class="inputPortLabel cell_$procdff$10">CLK</text></g><g transform="translate(0,30)" s:x="0" s:y="10" s:pid="in0" id="port_$procdff$10~D"><text x="-3" y="-4" class="inputPortLabel cell_$procdff$10">D</text></g><g transform="translate(30,10)" s:x="30" s:y="10" s:pid="out0" id="port_$procdff$10~Q"><text x="5" y="-4" style="fill:#000; stroke:none" class="cell_$procdff$10">Q</text></g></g><g s:type="inputExt" transform="translate(12,22.5)" s:width="30" s:height="20" id="cell_clk"><text x="15" y="-4" class="nodelabel cell_clk" s:attribute="ref">clk</text><s:alias val="$_inputExt_"/><path d="M0,0 L0,20 L15,20 L30,10 L15,0 Z" class="cell_clk"/><g s:x="28" s:y="10" s:pid="Y"/></g><g s:type="outputExt" transform="translate(301,109)" s:width="30" s:height="20" id="cell_led"><text x="15" y="-4" class="nodelabel cell_led" s:attribute="ref">led</text><s:alias val="$_outputExt_"/><path d="M30,0 L30,20 L15,20 L0,10 L15,0 Z" class="cell_led"/><g s:x="0" s:y="10" s:pid="A"/></g><g s:type="constant" transform="translate(236,53.5)" s:width="30" s:height="20" id="cell_1"><text x="15" y="-4" class="nodelabel cell_1" s:attribute="ref">1</text><s:alias val="$_constant_"/><rect width="30" height="20" class="cell_1"/><g s:x="30" s:y="10" s:pid="Y"/></g><g s:type="split" transform="translate(248,108.5)" s:width="5" s:height="40" id="cell_$split$,4,5,6,7,8,9,10,11,12,13,14,15,16,17,18,19,20,21,22,23,24,25,26,27,3,"><rect width="5" height="20" class="splitjoinBody" s:generic="body"/><s:alias val="$_split_"/><g s:x="0" s:y="20" s:pid="in"/><g transform="translate(4,10)" s:x="4" s:y="10" s:pid="out0"><text x="5" y="-4">24</text></g></g><line x1="127" x2="304" y1="32.5" y2="32.5" class="net_4,5,6,7,8,9,10,11,12,13,14,15,16,17,18,19,20,21,22,23,24,25,26,27,3 width_25" style="stroke-width: 2"/><line x1="127" x2="172" y1="32.5" y2="32.5" class="net_4,5,6,7,8,9,10,11,12,13,14,15,16,17,18,19,20,21,22,23,24,25,26,27,3 width_25" style="stroke-width: 2"/><line x1="172" x2="172" y1="32.5" y2="119" class="net_4,5,6,7,8,9,10,11,12,13,14,15,16,17,18,19,20,21,22,23,24,25,26,27,3 width_25" style="stroke-width: 2"/><circle cx="172" cy="32.5" r="3" style="fill:#000" class="net_4,5,6,7,8,9,10,11,12,13,14,15,16,17,18,19,20,21,22,23,24,25,26,27,3 width_25"/><line x1="172" x2="248" y1="119" y2="119" class="net_4,5,6,7,8,9,10,11,12,13,14,15,16,17,18,19,20,21,22,23,24,25,26,27,3 width_25" style="stroke-width: 2"/><line x1="266" x2="276" y1="63.5" y2="63.5" class="net_53 width_1" style="stroke-width: 1"/><line x1="276" x2="276" y1="63.5" y2="47.5" class="net_53 width_1" style="stroke-width: 1"/><line x1="276" x2="304" y1="47.5" y2="47.5" class="net_53 width_1" style="stroke-width: 1"/><line x1="40" x2="96" y1="32.5" y2="32.5" class="net_2 width_1" style="stroke-width: 1"/><line x1="326" x2="341" y1="40" y2="40" class="net_28,29,30,31,32,33,34,35,36,37,38,39,40,41,42,43,44,45,46,47,48,49,50,51,52 width_25" style="stroke-width: 2"/><line x1="341" x2="341" y1="40" y2="142.5" class="net_28,29,30,31,32,33,34,35,36,37,38,39,40,41,42,43,44,45,46,47,48,49,50,51,52 width_25" style="stroke-width: 2"/><line x1="341" x2="52" y1="142.5" y2="142.5" class="net_28,29,30,31,32,33,34,35,36,37,38,39,40,41,42,43,44,45,46,47,48,49,50,51,52 width_25" style="stroke-width: 2"/><line x1="52" x2="52" y1="142.5" y2="52.5" class="net_28,29,30,31,32,33,34,35,36,37,38,39,40,41,42,43,44,45,46,47,48,49,50,51,52 width_25" style="stroke-width: 2"/><line x1="52" x2="95" y1="52.5" y2="52.5" class="net_28,29,30,31,32,33,34,35,36,37,38,39,40,41,42,43,44,45,46,47,48,49,50,51,52 width_25" style="stroke-width: 2"/><line x1="253" x2="301" y1="119" y2="119" class="net_3 width_1" style="stroke-width: 1"/><rect x="198" y="114" width="22" height="9" class="net_4,5,6,7,8,9,10,11,12,13,14,15,16,17,18,19,20,21,22,23,24,25,26,27,3 width_25 busLabel_25" style="fill: white; stroke: none"/><text x="197" y="122" class="net_4,5,6,7,8,9,10,11,12,13,14,15,16,17,18,19,20,21,22,23,24,25,26,27,3 width_25 busLabel_25">/25/</text><rect x="198" y="114" width="22" height="9" class="net_4,5,6,7,8,9,10,11,12,13,14,15,16,17,18,19,20,21,22,23,24,25,26,27,3 width_25 busLabel_25" style="fill: white; stroke: none"/><text x="197" y="122" class="net_4,5,6,7,8,9,10,11,12,13,14,15,16,17,18,19,20,21,22,23,24,25,26,27,3 width_25 busLabel_25">/25/</text><rect x="198" y="137.5" width="22" height="9" class="net_28,29,30,31,32,33,34,35,36,37,38,39,40,41,42,43,44,45,46,47,48,49,50,51,52 width_25 busLabel_25" style="fill: white; stroke: none"/><text x="197" y="145.5" class="net_28,29,30,31,32,33,34,35,36,37,38,39,40,41,42,43,44,45,46,47,48,49,50,51,52 width_25 busLabel_25">/25/</text></svg>