<svg xmlns="http://www.w3.org/2000/svg" xmlns:xlink="http://www.w3.org/1999/xlink" xmlns:s="https://github.com/nturley/netlistsvg" width="461" height="294.5"><style>svg {
  stroke:#000;
  fill:none;
}
text {
  fill:#000;
  stroke:none;
  font-size:10px;
  font-weight: bold;
  font-family: "Courier New", monospace;
}
.nodelabel {
  text-anchor: middle;
}
.inputPortLabel {
  text-anchor: end;
}
.splitjoinBody {
  fill:#000;
}</style><g s:type="add" transform="translate(104.33333333333333,26)" s:width="25" s:height="25" id="cell_:11"><s:alias val="$add"/><circle r="12.5" cx="12.5" cy="12.5" class="cell_:11"/><line x1="7.5" x2="17.5" y1="12.5" y2="12.5" class="cell_:11"/><line x1="12.5" x2="12.5" y1="7.5" y2="17.5" class="cell_:11"/><g s:x="3" s:y="5" s:pid="A"/><g s:x="3" s:y="20" s:pid="B"/><g s:x="25" s:y="12.5" s:pid="Y"/></g><g s:type="generic" transform="translate(244,219.5)" s:width="30" s:height="40" id="cell_:15"><text x="15" y="-4" class="nodelabel cell_:15" s:attribute="ref">$mux-bus</text><rect width="30" height="60" s:generic="body" class="cell_:15"/><g transform="translate(0,10)" s:x="0" s:y="10" s:pid="in0" id="port_:15~A"><text x="-3" y="-4" class="inputPortLabel cell_:15">A</text></g><g transform="translate(0,30)" s:x="0" s:y="10" s:pid="in0" id="port_:15~B"><text x="-3" y="-4" class="inputPortLabel cell_:15">B</text></g><g transform="translate(0,50)" s:x="0" s:y="10" s:pid="in0" id="port_:15~S"><text x="-3" y="-4" class="inputPortLabel cell_:15">S</text></g><g transform="translate(30,10)" s:x="30" s:y="10" s:pid="out0" id="port_:15~Y"><text x="5" y="-4" style="fill:#000; stroke:none" class="cell_:15">Y</text></g></g><g s:type="mux" transform="translate(250.66666666666666,62)" s:width="20" s:height="40" id="cell_:19"><s:alias val="$pmux"/><s:alias val="$mux"/><s:alias val="$_MUX_"/><path d="M0,0 L20,10 L20,30 L0,40 Z" class="cell_:19"/><g s:x="0" s:y="10" s:pid="A"/><g s:x="0" s:y="30" s:pid="B"/><g s:x="10" s:y="35" s:pid="S"/><g s:x="20" s:y="20" s:pid="Y"/></g><g s:type="dff" transform="translate(317,72)" s:width="30" s:height="40" id="cell_:20"><s:alias val="$dff"/><s:alias val="$_DFF_"/><s:alias val="$_DFF_P_"/><rect width="30" height="40" x="0" y="0" class="cell_:20"/><path d="M0,35 L5,30 L0,25" class="cell_:20"/><g s:x="30" s:y="10" s:pid="Q"/><g s:x="0" s:y="30" s:pid="CLK"/><g s:x="0" s:y="30" s:pid="C"/><g s:x="0" s:y="10" s:pid="D"/></g><g s:type="generic" transform="translate(401,154)" s:width="30" s:height="40" id="cell_:21"><text x="15" y="-4" class="nodelabel cell_:21" s:attribute="ref">$dff-bus</text><rect width="30" height="40" s:generic="body" class="cell_:21"/><g transform="translate(0,10)" s:x="0" s:y="10" s:pid="in0" id="port_:21~CLK"><text x="-3" y="-4" class="inputPortLabel cell_:21">CLK</text></g><g transform="translate(0,30)" s:x="0" s:y="10" s:pid="in0" id="port_:21~D"><text x="-3" y="-4" class="inputPortLabel cell_:21">D</text></g><g transform="translate(30,10)" s:x="30" s:y="10" s:pid="out0" id="port_:21~Q"><text x="5" y="-4" style="fill:#000; stroke:none" class="cell_:21">Q</text></g></g><g s:type="eq" transform="translate(174.33333333333334,122)" s:width="25" s:height="25" id="cell_:7"><s:alias val="$eq"/><circle r="12.5" cx="12.5" cy="12.5" class="cell_:7"/><line x1="7.5" x2="17.5" y1="10" y2="10" class="cell_:7"/><line x1="7.5" x2="17.5" y1="15" y2="15" class="cell_:7"/><g s:x="3" s:y="5" s:pid="A"/><g s:x="3" s:y="20" s:pid="B"/><g s:x="25" s:y="12.5" s:pid="Y"/></g><g s:type="not" transform="translate(171,82)" s:width="30" s:height="20" id="cell_:8"><s:alias val="$_NOT_"/><s:alias val="$not"/><s:alias val="$logic_not"/><path d="M0,0 L0,20 L20,10 Z" class="cell_:8"/><circle cx="23" cy="10" r="3" class="cell_:8"/><text x="8" y="12" class="nodelabel" style="font-size:6px">NOT</text><g s:x="0" s:y="10" s:pid="A"/><g s:x="25" s:y="10" s:pid="Y"/></g><g s:type="inputExt" transform="translate(244,154.5)" s:width="30" s:height="20" id="cell_clk"><text x="15" y="-4" class="nodelabel cell_clk" s:attribute="ref">clk</text><s:alias val="$_inputExt_"/><path d="M0,0 L0,20 L15,20 L30,10 L15,0 Z" class="cell_clk"/><g s:x="28" s:y="10" s:pid="Y"/></g><g s:type="outputExt" transform="translate(401,72)" s:width="30" s:height="20" id="cell_led"><text x="15" y="-4" class="nodelabel cell_led" s:attribute="ref">led</text><s:alias val="$_outputExt_"/><path d="M30,0 L30,20 L15,20 L0,10 L15,0 Z" class="cell_led"/><g s:x="0" s:y="10" s:pid="A"/></g><g s:type="constant" transform="translate(12,36)" s:width="30" s:height="20" id="cell_1"><text x="15" y="-4" class="nodelabel cell_1" s:attribute="ref">1</text><s:alias val="$_constant_"/><rect width="30" height="20" class="cell_1"/><g s:x="30" s:y="10" s:pid="Y"/></g><g s:type="constant" transform="translate(101,240)" s:width="30" s:height="20" id="cell_00000000000000000000000000"><text x="15" y="-4" class="nodelabel cell_00000000000000000000000000" s:attribute="ref">0x0</text><s:alias val="$_constant_"/><rect width="30" height="20" class="cell_00000000000000000000000000"/><g s:x="30" s:y="10" s:pid="Y"/></g><g s:type="constant" transform="translate(12,132)" s:width="30" s:height="20" id="cell_10111110101111000001111111"><text x="15" y="-4" class="nodelabel cell_10111110101111000001111111" s:attribute="ref">0x2faf07f</text><s:alias val="$_constant_"/><rect width="30" height="20" class="cell_10111110101111000001111111"/><g s:x="30" s:y="10" s:pid="Y"/></g><line x1="432" x2="449" y1="164.5" y2="164.5" class="net_4,5,6,7,8,9,10,11,12,13,14,15,16,17,18,19,20,21,22,23,24,25,26,27,28,29 width_26" style="stroke-width: 2"/><line x1="449" x2="449" y1="164.5" y2="16" class="net_4,5,6,7,8,9,10,11,12,13,14,15,16,17,18,19,20,21,22,23,24,25,26,27,28,29 width_26" style="stroke-width: 2"/><line x1="449" x2="76" y1="16" y2="16" class="net_4,5,6,7,8,9,10,11,12,13,14,15,16,17,18,19,20,21,22,23,24,25,26,27,28,29 width_26" style="stroke-width: 2"/><line x1="76" x2="76" y1="16" y2="31" class="net_4,5,6,7,8,9,10,11,12,13,14,15,16,17,18,19,20,21,22,23,24,25,26,27,28,29 width_26" style="stroke-width: 2"/><line x1="76" x2="107.33333333333333" y1="31" y2="31" class="net_4,5,6,7,8,9,10,11,12,13,14,15,16,17,18,19,20,21,22,23,24,25,26,27,28,29 width_26" style="stroke-width: 2"/><line x1="432" x2="449" y1="164.5" y2="164.5" class="net_4,5,6,7,8,9,10,11,12,13,14,15,16,17,18,19,20,21,22,23,24,25,26,27,28,29 width_26" style="stroke-width: 2"/><line x1="449" x2="449" y1="164.5" y2="16" class="net_4,5,6,7,8,9,10,11,12,13,14,15,16,17,18,19,20,21,22,23,24,25,26,27,28,29 width_26" style="stroke-width: 2"/><line x1="449" x2="292" y1="16" y2="16" class="net_4,5,6,7,8,9,10,11,12,13,14,15,16,17,18,19,20,21,22,23,24,25,26,27,28,29 width_26" style="stroke-width: 2"/><line x1="292" x2="292" y1="16" y2="36" class="net_4,5,6,7,8,9,10,11,12,13,14,15,16,17,18,19,20,21,22,23,24,25,26,27,28,29 width_26" style="stroke-width: 2"/><line x1="292" x2="151" y1="36" y2="36" class="net_4,5,6,7,8,9,10,11,12,13,14,15,16,17,18,19,20,21,22,23,24,25,26,27,28,29 width_26" style="stroke-width: 2"/><line x1="151" x2="151" y1="36" y2="127" class="net_4,5,6,7,8,9,10,11,12,13,14,15,16,17,18,19,20,21,22,23,24,25,26,27,28,29 width_26" style="stroke-width: 2"/><circle cx="292" cy="16" r="3" style="fill:#000" class="net_4,5,6,7,8,9,10,11,12,13,14,15,16,17,18,19,20,21,22,23,24,25,26,27,28,29 width_26"/><line x1="151" x2="177.33333333333334" y1="127" y2="127" class="net_4,5,6,7,8,9,10,11,12,13,14,15,16,17,18,19,20,21,22,23,24,25,26,27,28,29 width_26" style="stroke-width: 2"/><line x1="42" x2="107.33333333333333" y1="46" y2="46" class="net_85 width_1" style="stroke-width: 1"/><line x1="129.33333333333331" x2="141" y1="38.5" y2="38.5" class="net_30,31,32,33,34,35,36,37,38,39,40,41,42,43,44,45,46,47,48,49,50,51,52,53,54,55 width_26" style="stroke-width: 2"/><line x1="141" x2="141" y1="38.5" y2="230" class="net_30,31,32,33,34,35,36,37,38,39,40,41,42,43,44,45,46,47,48,49,50,51,52,53,54,55 width_26" style="stroke-width: 2"/><line x1="141" x2="244" y1="230" y2="230" class="net_30,31,32,33,34,35,36,37,38,39,40,41,42,43,44,45,46,47,48,49,50,51,52,53,54,55 width_26" style="stroke-width: 2"/><line x1="131" x2="243" y1="250" y2="250" class="net_86,87,88,89,90,91,92,93,94,95,96,97,98,99,100,101,102,103,104,105,106,107,108,109,110,111 width_26" style="stroke-width: 2"/><line x1="199.33333333333334" x2="211" y1="134.5" y2="134.5" class="net_56 width_1" style="stroke-width: 1"/><line x1="211" x2="211" y1="134.5" y2="270" class="net_56 width_1" style="stroke-width: 1"/><circle cx="211" cy="134.5" r="2" style="fill:#000" class="net_56 width_1"/><line x1="211" x2="243" y1="270" y2="270" class="net_56 width_1" style="stroke-width: 1"/><line x1="199.33333333333334" x2="260.66666666666663" y1="134.5" y2="134.5" class="net_56 width_1" style="stroke-width: 1"/><line x1="260.66666666666663" x2="260.66666666666663" y1="134.5" y2="97" class="net_56 width_1" style="stroke-width: 1"/><line x1="347" x2="357" y1="82" y2="82" class="net_3 width_1" style="stroke-width: 1"/><line x1="357" x2="357" y1="82" y2="52" class="net_3 width_1" style="stroke-width: 1"/><line x1="357" x2="211" y1="52" y2="52" class="net_3 width_1" style="stroke-width: 1"/><line x1="211" x2="211" y1="52" y2="72" class="net_3 width_1" style="stroke-width: 1"/><circle cx="357" cy="82" r="2" style="fill:#000" class="net_3 width_1"/><line x1="211" x2="250.66666666666666" y1="72" y2="72" class="net_3 width_1" style="stroke-width: 1"/><line x1="347" x2="357" y1="82" y2="82" class="net_3 width_1" style="stroke-width: 1"/><line x1="357" x2="357" y1="82" y2="52" class="net_3 width_1" style="stroke-width: 1"/><line x1="357" x2="292" y1="52" y2="52" class="net_3 width_1" style="stroke-width: 1"/><line x1="292" x2="292" y1="52" y2="112" class="net_3 width_1" style="stroke-width: 1"/><line x1="292" x2="161" y1="112" y2="112" class="net_3 width_1" style="stroke-width: 1"/><line x1="161" x2="161" y1="112" y2="92" class="net_3 width_1" style="stroke-width: 1"/><circle cx="292" cy="52" r="2" style="fill:#000" class="net_3 width_1"/><line x1="161" x2="171" y1="92" y2="92" class="net_3 width_1" style="stroke-width: 1"/><line x1="347" x2="401" y1="82" y2="82" class="net_3 width_1" style="stroke-width: 1"/><line x1="196" x2="250.66666666666666" y1="92" y2="92" class="net_83 width_1" style="stroke-width: 1"/><line x1="272" x2="302" y1="164.5" y2="164.5" class="net_2 width_1" style="stroke-width: 1"/><line x1="302" x2="302" y1="164.5" y2="102" class="net_2 width_1" style="stroke-width: 1"/><circle cx="302" cy="164.5" r="2" style="fill:#000" class="net_2 width_1"/><line x1="302" x2="317" y1="102" y2="102" class="net_2 width_1" style="stroke-width: 1"/><line x1="272" x2="401" y1="164.5" y2="164.5" class="net_2 width_1" style="stroke-width: 1"/><line x1="270.66666666666663" x2="317" y1="82" y2="82" class="net_84 width_1" style="stroke-width: 1"/><line x1="275" x2="357" y1="230" y2="230" class="net_57,58,59,60,61,62,63,64,65,66,67,68,69,70,71,72,73,74,75,76,77,78,79,80,81,82 width_26" style="stroke-width: 2"/><line x1="357" x2="357" y1="230" y2="184.5" class="net_57,58,59,60,61,62,63,64,65,66,67,68,69,70,71,72,73,74,75,76,77,78,79,80,81,82 width_26" style="stroke-width: 2"/><line x1="357" x2="400" y1="184.5" y2="184.5" class="net_57,58,59,60,61,62,63,64,65,66,67,68,69,70,71,72,73,74,75,76,77,78,79,80,81,82 width_26" style="stroke-width: 2"/><line x1="42" x2="177.33333333333334" y1="142" y2="142" class="net_112,113,114,115,116,117,118,119,120,121,122,123,124,125,126,127,128,129,130,131,132,133,134,135,136,137 width_26" style="stroke-width: 2"/><rect x="258" y="31" width="22" height="9" class="net_4,5,6,7,8,9,10,11,12,13,14,15,16,17,18,19,20,21,22,23,24,25,26,27,28,29 width_26 busLabel_26" style="fill: white; stroke: none"/><text x="257" y="39" class="net_4,5,6,7,8,9,10,11,12,13,14,15,16,17,18,19,20,21,22,23,24,25,26,27,28,29 width_26 busLabel_26">/26/</text><rect x="258" y="31" width="22" height="9" class="net_4,5,6,7,8,9,10,11,12,13,14,15,16,17,18,19,20,21,22,23,24,25,26,27,28,29 width_26 busLabel_26" style="fill: white; stroke: none"/><text x="257" y="39" class="net_4,5,6,7,8,9,10,11,12,13,14,15,16,17,18,19,20,21,22,23,24,25,26,27,28,29 width_26 busLabel_26">/26/</text><rect x="185" y="225" width="22" height="9" class="net_30,31,32,33,34,35,36,37,38,39,40,41,42,43,44,45,46,47,48,49,50,51,52,53,54,55 width_26 busLabel_26" style="fill: white; stroke: none"/><text x="184" y="233" class="net_30,31,32,33,34,35,36,37,38,39,40,41,42,43,44,45,46,47,48,49,50,51,52,53,54,55 width_26 busLabel_26">/26/</text><rect x="185" y="245" width="22" height="9" class="net_86,87,88,89,90,91,92,93,94,95,96,97,98,99,100,101,102,103,104,105,106,107,108,109,110,111 width_26 busLabel_26" style="fill: white; stroke: none"/><text x="184" y="253" class="net_86,87,88,89,90,91,92,93,94,95,96,97,98,99,100,101,102,103,104,105,106,107,108,109,110,111 width_26 busLabel_26">/26/</text><rect x="331" y="225" width="22" height="9" class="net_57,58,59,60,61,62,63,64,65,66,67,68,69,70,71,72,73,74,75,76,77,78,79,80,81,82 width_26 busLabel_26" style="fill: white; stroke: none"/><text x="330" y="233" class="net_57,58,59,60,61,62,63,64,65,66,67,68,69,70,71,72,73,74,75,76,77,78,79,80,81,82 width_26 busLabel_26">/26/</text><rect x="115" y="137" width="22" height="9" class="net_112,113,114,115,116,117,118,119,120,121,122,123,124,125,126,127,128,129,130,131,132,133,134,135,136,137 width_26 busLabel_26" style="fill: white; stroke: none"/><text x="114" y="145" class="net_112,113,114,115,116,117,118,119,120,121,122,123,124,125,126,127,128,129,130,131,132,133,134,135,136,137 width_26 busLabel_26">/26/</text></svg>