<svg xmlns="http://www.w3.org/2000/svg" xmlns:xlink="http://www.w3.org/1999/xlink" xmlns:s="https://github.com/nturley/netlistsvg" width="428" height="155.5"><style>svg {
  stroke:#000;
  fill:none;
}
text {
  fill:#000;
  stroke:none;
  font-size:10px;
  font-weight: bold;
  font-family: "Courier New", monospace;
}
.nodelabel {
  text-anchor: middle;
}
.inputPortLabel {
  text-anchor: end;
}
.splitjoinBody {
  fill:#000;
}</style><g s:type="generic" transform="translate(221,66.5)" s:width="30" s:height="40" id="cell_:10"><text x="15" y="-4" class="nodelabel cell_:10" s:attribute="ref">$dff-bus</text><rect width="30" height="40" s:generic="body" class="cell_:10"/><g transform="translate(0,10)" s:x="0" s:y="10" s:pid="in0" id="port_:10~CLK"><text x="-3" y="-4" class="inputPortLabel cell_:10">CLK</text></g><g transform="translate(0,30)" s:x="0" s:y="10" s:pid="in0" id="port_:10~D"><text x="-3" y="-4" class="inputPortLabel cell_:10">D</text></g><g transform="translate(30,10)" s:x="30" s:y="10" s:pid="out0" id="port_:10~Q"><text x="5" y="-4" style="fill:#000; stroke:none" class="cell_:10">Q</text></g></g><g s:type="add" transform="translate(77,113.5)" s:width="25" s:height="25" id="cell_:6"><s:alias val="$add"/><circle r="12.5" cx="12.5" cy="12.5" class="cell_:6"/><line x1="7.5" x2="17.5" y1="12.5" y2="12.5" class="cell_:6"/><line x1="12.5" x2="12.5" y1="7.5" y2="17.5" class="cell_:6"/><g s:x="3" s:y="5" s:pid="A"/><g s:x="3" s:y="20" s:pid="B"/><g s:x="25" s:y="12.5" s:pid="Y"/></g><g s:type="inputExt" transform="translate(137,67)" s:width="30" s:height="20" id="cell_clk"><text x="15" y="-4" class="nodelabel cell_clk" s:attribute="ref">clk</text><s:alias val="$_inputExt_"/><path d="M0,0 L0,20 L15,20 L30,10 L15,0 Z" class="cell_clk"/><g s:x="28" s:y="10" s:pid="Y"/></g><g s:type="outputExt" transform="translate(386,67)" s:width="30" s:height="20" id="cell_led"><text x="15" y="-4" class="nodelabel cell_led" s:attribute="ref">led</text><s:alias val="$_outputExt_"/><path d="M30,0 L30,20 L15,20 L0,10 L15,0 Z" class="cell_led"/><g s:x="0" s:y="10" s:pid="A"/></g><g s:type="constant" transform="translate(12,123.5)" s:width="30" s:height="20" id="cell_1"><text x="15" y="-4" class="nodelabel cell_1" s:attribute="ref">1</text><s:alias val="$_constant_"/><rect width="30" height="20" class="cell_1"/><g s:x="30" s:y="10" s:pid="Y"/></g><g s:type="split" transform="translate(333,66.5)" s:width="5" s:height="40" id="cell_$split$,29,30,31,32,33,34,35,36,37,38,39,40,41,42,43,44,45,46,47,48,49,50,51,52,3,"><rect width="5" height="20" class="splitjoinBody" s:generic="body"/><s:alias val="$_split_"/><g s:x="0" s:y="20" s:pid="in"/><g transform="translate(4,10)" s:x="4" s:y="10" s:pid="out0"><text x="5" y="-4">24</text></g></g><line x1="165" x2="221" y1="77" y2="77" class="net_2 width_1" style="stroke-width: 1"/><line x1="102" x2="177" y1="126" y2="126" class="net_4,5,6,7,8,9,10,11,12,13,14,15,16,17,18,19,20,21,22,23,24,25,26,27,28 width_25" style="stroke-width: 2"/><line x1="177" x2="177" y1="126" y2="97" class="net_4,5,6,7,8,9,10,11,12,13,14,15,16,17,18,19,20,21,22,23,24,25,26,27,28 width_25" style="stroke-width: 2"/><line x1="177" x2="220" y1="97" y2="97" class="net_4,5,6,7,8,9,10,11,12,13,14,15,16,17,18,19,20,21,22,23,24,25,26,27,28 width_25" style="stroke-width: 2"/><line x1="252" x2="269" y1="77" y2="77" class="net_29,30,31,32,33,34,35,36,37,38,39,40,41,42,43,44,45,46,47,48,49,50,51,52,3 width_25" style="stroke-width: 2"/><line x1="269" x2="269" y1="77" y2="16" class="net_29,30,31,32,33,34,35,36,37,38,39,40,41,42,43,44,45,46,47,48,49,50,51,52,3 width_25" style="stroke-width: 2"/><line x1="269" x2="52" y1="16" y2="16" class="net_29,30,31,32,33,34,35,36,37,38,39,40,41,42,43,44,45,46,47,48,49,50,51,52,3 width_25" style="stroke-width: 2"/><line x1="52" x2="52" y1="16" y2="118.5" class="net_29,30,31,32,33,34,35,36,37,38,39,40,41,42,43,44,45,46,47,48,49,50,51,52,3 width_25" style="stroke-width: 2"/><circle cx="269" cy="77" r="3" style="fill:#000" class="net_29,30,31,32,33,34,35,36,37,38,39,40,41,42,43,44,45,46,47,48,49,50,51,52,3 width_25"/><line x1="52" x2="80" y1="118.5" y2="118.5" class="net_29,30,31,32,33,34,35,36,37,38,39,40,41,42,43,44,45,46,47,48,49,50,51,52,3 width_25" style="stroke-width: 2"/><line x1="252" x2="333" y1="77" y2="77" class="net_29,30,31,32,33,34,35,36,37,38,39,40,41,42,43,44,45,46,47,48,49,50,51,52,3 width_25" style="stroke-width: 2"/><line x1="42" x2="80" y1="133.5" y2="133.5" class="net_53 width_1" style="stroke-width: 1"/><line x1="338" x2="386" y1="77" y2="77" class="net_3 width_1" style="stroke-width: 1"/><rect x="151" y="121" width="22" height="9" class="net_4,5,6,7,8,9,10,11,12,13,14,15,16,17,18,19,20,21,22,23,24,25,26,27,28 width_25 busLabel_25" style="fill: white; stroke: none"/><text x="150" y="129" class="net_4,5,6,7,8,9,10,11,12,13,14,15,16,17,18,19,20,21,22,23,24,25,26,27,28 width_25 busLabel_25">/25/</text><rect x="295" y="72" width="22" height="9" class="net_29,30,31,32,33,34,35,36,37,38,39,40,41,42,43,44,45,46,47,48,49,50,51,52,3 width_25 busLabel_25" style="fill: white; stroke: none"/><text x="294" y="80" class="net_29,30,31,32,33,34,35,36,37,38,39,40,41,42,43,44,45,46,47,48,49,50,51,52,3 width_25 busLabel_25">/25/</text><rect x="295" y="72" width="22" height="9" class="net_29,30,31,32,33,34,35,36,37,38,39,40,41,42,43,44,45,46,47,48,49,50,51,52,3 width_25 busLabel_25" style="fill: white; stroke: none"/><text x="294" y="80" class="net_29,30,31,32,33,34,35,36,37,38,39,40,41,42,43,44,45,46,47,48,49,50,51,52,3 width_25 busLabel_25">/25/</text></svg>