<svg xmlns="http://www.w3.org/2000/svg" xmlns:xlink="http://www.w3.org/1999/xlink" xmlns:s="https://github.com/nturley/netlistsvg" width="343" height="564">
  <style>svg {
    stroke:#000;
    fill:none;
  }
  text {
    fill:#000;
    stroke:none;
    font-size:10px;
    font-weight: bold;
    font-family: "Courier New", monospace;
  }
  .nodelabel {
    text-anchor: middle;
  }
  .inputPortLabel {
    text-anchor: end;
  }
  .splitjoinBody {
    fill:#000;
  }</style>
  <g s:type="and" transform="translate(152,322)" s:width="30" s:height="25" id="cell_$and$logic_styles.v:34$1">
    <s:alias val="$and"/>
    <s:alias val="$reduce_and"/>
    <s:alias val="$logic_and"/>
    <s:alias val="$_AND_"/>
    <path d="M0,0 L0,25 L15,25 A15 12.5 0 0 0 15,0 Z" class="cell_$and$logic_styles.v:34$1"/>
    <text x="13" y="15" class="nodelabel" style="font-size:7px">AND</text>
    <g s:x="0" s:y="5" s:pid="A"/>
    <g s:x="0" s:y="20" s:pid="B"/>
    <g s:x="30" s:y="12.5" s:pid="Y"/>
  </g>
  <g s:type="dlatch" transform="translate(152,503)" s:width="30" s:height="40" id="cell_$auto$proc_dlatch.cc:432:proc_dlatch$40">
    <s:alias val="$dlatch"/>
    <s:alias val="$adlatch"/>
    <rect width="30" height="40" x="0" y="0" class="cell_$auto$proc_dlatch.cc:432:proc_dlatch$40"/>
    <text x="15" y="13" class="nodelabel" style="font-size:10px">L</text>
    <text x="15" y="26" class="nodelabel" style="font-size:6px">latch</text>
    <g s:x="30" s:y="10" s:pid="Q"/>
    <g s:x="0" s:y="10" s:pid="D"/>
    <g s:x="0" s:y="30" s:pid="EN"/>
  </g>
  <g s:type="dlatch" transform="translate(152,172)" s:width="30" s:height="40" id="cell_$auto$proc_dlatch.cc:432:proc_dlatch$51">
    <s:alias val="$dlatch"/>
    <s:alias val="$adlatch"/>
    <rect width="30" height="40" x="0" y="0" class="cell_$auto$proc_dlatch.cc:432:proc_dlatch$51"/>
    <text x="15" y="13" class="nodelabel" style="font-size:10px">L</text>
    <text x="15" y="26" class="nodelabel" style="font-size:6px">latch</text>
    <g s:x="30" s:y="10" s:pid="Q"/>
    <g s:x="0" s:y="10" s:pid="D"/>
    <g s:x="0" s:y="30" s:pid="EN"/>
  </g>
  <g s:type="and" transform="translate(82,442)" s:width="30" s:height="25" id="cell_$logic_and$logic_styles.v:38$5">
    <s:alias val="$and"/>
    <s:alias val="$reduce_and"/>
    <s:alias val="$logic_and"/>
    <s:alias val="$_AND_"/>
    <path d="M0,0 L0,25 L15,25 A15 12.5 0 0 0 15,0 Z" class="cell_$logic_and$logic_styles.v:38$5"/>
    <text x="13" y="15" class="nodelabel" style="font-size:7px">AND</text>
    <g s:x="0" s:y="5" s:pid="A"/>
    <g s:x="0" s:y="20" s:pid="B"/>
    <g s:x="30" s:y="12.5" s:pid="Y"/>
  </g>
  <g s:type="dff" transform="translate(152,22)" s:width="30" s:height="40" id="cell_$procdff$52">
    <s:alias val="$dff"/>
    <s:alias val="$_DFF_"/>
    <s:alias val="$_DFF_P_"/>
    <rect width="30" height="40" x="0" y="0" class="cell_$procdff$52"/>
    <path d="M0,35 L5,30 L0,25" class="cell_$procdff$52"/>
    <g s:x="30" s:y="10" s:pid="Q"/>
    <g s:x="0" s:y="30" s:pid="CLK"/>
    <g s:x="0" s:y="30" s:pid="C"/>
    <g s:x="0" s:y="10" s:pid="D"/>
  </g>
  <g s:type="dff" transform="translate(152,97)" s:width="30" s:height="40" id="cell_$procdff$53">
    <s:alias val="$dff"/>
    <s:alias val="$_DFF_"/>
    <s:alias val="$_DFF_P_"/>
    <rect width="30" height="40" x="0" y="0" class="cell_$procdff$53"/>
    <path d="M0,35 L5,30 L0,25" class="cell_$procdff$53"/>
    <g s:x="30" s:y="10" s:pid="Q"/>
    <g s:x="0" s:y="30" s:pid="CLK"/>
    <g s:x="0" s:y="30" s:pid="C"/>
    <g s:x="0" s:y="10" s:pid="D"/>
  </g>
  <g s:type="dff" transform="translate(152,247)" s:width="30" s:height="40" id="cell_$procdff$54">
    <s:alias val="$dff"/>
    <s:alias val="$_DFF_"/>
    <s:alias val="$_DFF_P_"/>
    <rect width="30" height="40" x="0" y="0" class="cell_$procdff$54"/>
    <path d="M0,35 L5,30 L0,25" class="cell_$procdff$54"/>
    <g s:x="30" s:y="10" s:pid="Q"/>
    <g s:x="0" s:y="30" s:pid="CLK"/>
    <g s:x="0" s:y="30" s:pid="C"/>
    <g s:x="0" s:y="10" s:pid="D"/>
  </g>
  <g s:type="mux" transform="translate(85.33333333333333,12)" s:width="20" s:height="40" id="cell_$procmux$22">
    <s:alias val="$pmux"/>
    <s:alias val="$mux"/>
    <s:alias val="$_MUX_"/>
    <path d="M0,0 L20,10 L20,30 L0,40 Z" class="cell_$procmux$22"/>
    <g s:x="0" s:y="10" s:pid="A"/>
    <g s:x="0" s:y="30" s:pid="B"/>
    <g s:x="10" s:y="35" s:pid="S"/>
    <g s:x="20" s:y="20" s:pid="Y"/>
  </g>
  <g s:type="mux" transform="translate(155.33333333333334,382)" s:width="20" s:height="40" id="cell_$procmux$28">
    <s:alias val="$pmux"/>
    <s:alias val="$mux"/>
    <s:alias val="$_MUX_"/>
    <path d="M0,0 L20,10 L20,30 L0,40 Z" class="cell_$procmux$28"/>
    <g s:x="0" s:y="10" s:pid="A"/>
    <g s:x="0" s:y="30" s:pid="B"/>
    <g s:x="10" s:y="35" s:pid="S"/>
    <g s:x="20" s:y="20" s:pid="Y"/>
  </g>
  <g s:type="inputExt" transform="translate(12,467)" s:width="30" s:height="20" id="cell_a">
    <text x="15" y="-4" class="nodelabel cell_a" s:attribute="ref">a</text>
    <s:alias val="$_inputExt_"/>
    <path d="M0,0 L0,20 L15,20 L30,10 L15,0 Z" class="cell_a"/>
    <g s:x="28" s:y="10" s:pid="Y"/>
  </g>
  <g s:type="inputExt" transform="translate(12,532)" s:width="30" s:height="20" id="cell_b">
    <text x="15" y="-4" class="nodelabel cell_b" s:attribute="ref">b</text>
    <s:alias val="$_inputExt_"/>
    <path d="M0,0 L0,20 L15,20 L30,10 L15,0 Z" class="cell_b"/>
    <g s:x="28" s:y="10" s:pid="Y"/>
  </g>
  <g s:type="inputExt" transform="translate(82,117)" s:width="30" s:height="20" id="cell_clk">
    <text x="15" y="-4" class="nodelabel cell_clk" s:attribute="ref">clk</text>
    <s:alias val="$_inputExt_"/>
    <path d="M0,0 L0,20 L15,20 L30,10 L15,0 Z" class="cell_clk"/>
    <g s:x="28" s:y="10" s:pid="Y"/>
  </g>
  <g s:type="inputExt" transform="translate(12,76)" s:width="30" s:height="20" id="cell_rst">
    <text x="15" y="-4" class="nodelabel cell_rst" s:attribute="ref">rst</text>
    <s:alias val="$_inputExt_"/>
    <path d="M0,0 L0,20 L15,20 L30,10 L15,0 Z" class="cell_rst"/>
    <g s:x="28" s:y="10" s:pid="Y"/>
  </g>
  <g s:type="inputExt" transform="translate(82,523)" s:width="30" s:height="20" id="cell_en">
    <text x="15" y="-4" class="nodelabel cell_en" s:attribute="ref">en</text>
    <s:alias val="$_inputExt_"/>
    <path d="M0,0 L0,20 L15,20 L30,10 L15,0 Z" class="cell_en"/>
    <g s:x="28" s:y="10" s:pid="Y"/>
  </g>
  <g s:type="outputExt" transform="translate(217,324.5)" s:width="30" s:height="20" id="cell_comb_op_and">
    <text x="15" y="-4" class="nodelabel cell_comb_op_and" s:attribute="ref">comb_op_and</text>
    <s:alias val="$_outputExt_"/>
    <path d="M30,0 L30,20 L15,20 L0,10 L15,0 Z" class="cell_comb_op_and"/>
    <g s:x="0" s:y="10" s:pid="A"/>
  </g>
  <g s:type="outputExt" transform="translate(217,392)" s:width="30" s:height="20" id="cell_comb_proc_good_and">
    <text x="15" y="-4" class="nodelabel cell_comb_proc_good_and" s:attribute="ref">comb_proc_good_and</text>
    <s:alias val="$_outputExt_"/>
    <path d="M30,0 L30,20 L15,20 L0,10 L15,0 Z" class="cell_comb_proc_good_and"/>
    <g s:x="0" s:y="10" s:pid="A"/>
  </g>
  <g s:type="outputExt" transform="translate(217,172)" s:width="30" s:height="20" id="cell_comb_proc_latch_and">
    <text x="15" y="-4" class="nodelabel cell_comb_proc_latch_and" s:attribute="ref">comb_proc_latch_and</text>
    <s:alias val="$_outputExt_"/>
    <path d="M30,0 L30,20 L15,20 L0,10 L15,0 Z" class="cell_comb_proc_latch_and"/>
    <g s:x="0" s:y="10" s:pid="A"/>
  </g>
  <g s:type="outputExt" transform="translate(217,247)" s:width="30" s:height="20" id="cell_seq_no_init_a">
    <text x="15" y="-4" class="nodelabel cell_seq_no_init_a" s:attribute="ref">seq_no_init_a</text>
    <s:alias val="$_outputExt_"/>
    <path d="M30,0 L30,20 L15,20 L0,10 L15,0 Z" class="cell_seq_no_init_a"/>
    <g s:x="0" s:y="10" s:pid="A"/>
  </g>
  <g s:type="outputExt" transform="translate(217,97)" s:width="30" s:height="20" id="cell_seq_decl_init_a">
    <text x="15" y="-4" class="nodelabel cell_seq_decl_init_a" s:attribute="ref">seq_decl_init_a</text>
    <s:alias val="$_outputExt_"/>
    <path d="M30,0 L30,20 L15,20 L0,10 L15,0 Z" class="cell_seq_decl_init_a"/>
    <g s:x="0" s:y="10" s:pid="A"/>
  </g>
  <g s:type="outputExt" transform="translate(217,22)" s:width="30" s:height="20" id="cell_seq_sync_reset_a">
    <text x="15" y="-4" class="nodelabel cell_seq_sync_reset_a" s:attribute="ref">seq_sync_reset_a</text>
    <s:alias val="$_outputExt_"/>
    <path d="M30,0 L30,20 L15,20 L0,10 L15,0 Z" class="cell_seq_sync_reset_a"/>
    <g s:x="0" s:y="10" s:pid="A"/>
  </g>
  <g s:type="outputExt" transform="translate(217,503)" s:width="30" s:height="20" id="cell_latch_intentional_a">
    <text x="15" y="-4" class="nodelabel cell_latch_intentional_a" s:attribute="ref">latch_intentional_a</text>
    <s:alias val="$_outputExt_"/>
    <path d="M30,0 L30,20 L15,20 L0,10 L15,0 Z" class="cell_latch_intentional_a"/>
    <g s:x="0" s:y="10" s:pid="A"/>
  </g>
  <g s:type="constant" transform="translate(12,402)" s:width="30" s:height="20" id="cell_1">
    <text x="15" y="-4" class="nodelabel cell_1" s:attribute="ref">1</text>
    <s:alias val="$_constant_"/>
    <rect width="30" height="20" class="cell_1"/>
    <g s:x="30" s:y="10" s:pid="Y"/>
  </g>
  <g s:type="constant" transform="translate(82,382)" s:width="30" s:height="20" id="cell_0">
    <text x="15" y="-4" class="nodelabel cell_0" s:attribute="ref">0</text>
    <s:alias val="$_constant_"/>
    <rect width="30" height="20" class="cell_0"/>
    <g s:x="30" s:y="10" s:pid="Y"/>
  </g>
  <line x1="40" x2="62" y1="477" y2="477" class="net_2"/>
  <line x1="62" x2="62" y1="477" y2="257" class="net_2"/>
  <line x1="62" x2="122" y1="257" y2="257" class="net_2"/>
  <line x1="122" x2="122" y1="257" y2="327" class="net_2"/>
  <circle cx="62" cy="477" r="2" style="fill:#000" class="net_2"/>
  <circle cx="62" cy="257" r="2" style="fill:#000" class="net_2"/>
  <line x1="122" x2="152" y1="327" y2="327" class="net_2"/>
  <line x1="40" x2="122" y1="477" y2="477" class="net_2"/>
  <line x1="122" x2="122" y1="477" y2="513" class="net_2"/>
  <line x1="122" x2="152" y1="513" y2="513" class="net_2"/>
  <line x1="40" x2="62" y1="477" y2="477" class="net_2"/>
  <line x1="62" x2="62" y1="477" y2="257" class="net_2"/>
  <line x1="62" x2="122" y1="257" y2="257" class="net_2"/>
  <line x1="122" x2="122" y1="257" y2="202" class="net_2"/>
  <circle cx="122" cy="257" r="2" style="fill:#000" class="net_2"/>
  <line x1="122" x2="152" y1="202" y2="202" class="net_2"/>
  <line x1="40" x2="62" y1="477" y2="477" class="net_2"/>
  <line x1="62" x2="62" y1="477" y2="447" class="net_2"/>
  <circle cx="62" cy="447" r="2" style="fill:#000" class="net_2"/>
  <line x1="62" x2="82" y1="447" y2="447" class="net_2"/>
  <line x1="40" x2="62" y1="477" y2="477" class="net_2"/>
  <line x1="62" x2="62" y1="477" y2="96" class="net_2"/>
  <line x1="62" x2="142" y1="96" y2="96" class="net_2"/>
  <line x1="142" x2="142" y1="96" y2="107" class="net_2"/>
  <circle cx="62" cy="96" r="2" style="fill:#000" class="net_2"/>
  <line x1="142" x2="152" y1="107" y2="107" class="net_2"/>
  <line x1="40" x2="62" y1="477" y2="477" class="net_2"/>
  <line x1="62" x2="62" y1="477" y2="257" class="net_2"/>
  <line x1="62" x2="152" y1="257" y2="257" class="net_2"/>
  <line x1="40" x2="62" y1="477" y2="477" class="net_2"/>
  <line x1="62" x2="62" y1="477" y2="22" class="net_2"/>
  <line x1="62" x2="85.33333333333333" y1="22" y2="22" class="net_2"/>
  <line x1="40" x2="72" y1="542" y2="542" class="net_3"/>
  <line x1="72" x2="72" y1="542" y2="342" class="net_3"/>
  <circle cx="72" cy="342" r="2" style="fill:#000" class="net_3"/>
  <line x1="72" x2="152" y1="342" y2="342" class="net_3"/>
  <line x1="40" x2="72" y1="542" y2="542" class="net_3"/>
  <line x1="72" x2="72" y1="542" y2="182" class="net_3"/>
  <line x1="72" x2="152" y1="182" y2="182" class="net_3"/>
  <line x1="40" x2="72" y1="542" y2="542" class="net_3"/>
  <line x1="72" x2="72" y1="542" y2="462" class="net_3"/>
  <circle cx="72" cy="462" r="2" style="fill:#000" class="net_3"/>
  <line x1="72" x2="82" y1="462" y2="462" class="net_3"/>
  <line x1="110" x2="152" y1="533" y2="533" class="net_6"/>
  <line x1="110" x2="132" y1="127" y2="127" class="net_4"/>
  <line x1="132" x2="132" y1="127" y2="52" class="net_4"/>
  <circle cx="132" cy="127" r="2" style="fill:#000" class="net_4"/>
  <line x1="132" x2="152" y1="52" y2="52" class="net_4"/>
  <line x1="110" x2="152" y1="127" y2="127" class="net_4"/>
  <line x1="110" x2="132" y1="127" y2="127" class="net_4"/>
  <line x1="132" x2="132" y1="127" y2="277" class="net_4"/>
  <line x1="132" x2="152" y1="277" y2="277" class="net_4"/>
  <line x1="105.33333333333333" x2="152" y1="32" y2="32" class="net_15"/>
  <line x1="42" x2="52" y1="412" y2="412" class="net_16"/>
  <line x1="52" x2="52" y1="412" y2="42" class="net_16"/>
  <circle cx="52" cy="412" r="2" style="fill:#000" class="net_16"/>
  <line x1="52" x2="85.33333333333333" y1="42" y2="42" class="net_16"/>
  <line x1="42" x2="155.33333333333334" y1="412" y2="412" class="net_16"/>
  <line x1="40" x2="95.33333333333333" y1="86" y2="86" class="net_5"/>
  <line x1="95.33333333333333" x2="95.33333333333333" y1="86" y2="47" class="net_5"/>
  <line x1="112" x2="155.33333333333334" y1="392" y2="392" class="net_17"/>
  <line x1="112" x2="165.33333333333334" y1="454.5" y2="454.5" class="net_14"/>
  <line x1="165.33333333333334" x2="165.33333333333334" y1="454.5" y2="417" class="net_14"/>
  <line x1="182" x2="217" y1="334.5" y2="334.5" class="net_7"/>
  <line x1="175.33333333333334" x2="217" y1="402" y2="402" class="net_8"/>
  <line x1="182" x2="217" y1="182" y2="182" class="net_9"/>
  <line x1="182" x2="217" y1="257" y2="257" class="net_10"/>
  <line x1="182" x2="217" y1="107" y2="107" class="net_11"/>
  <line x1="182" x2="217" y1="32" y2="32" class="net_12"/>
  <line x1="182" x2="217" y1="513" y2="513" class="net_13"/>
</svg>
