<svg xmlns="http://www.w3.org/2000/svg" xmlns:xlink="http://www.w3.org/1999/xlink" xmlns:s="https://github.com/nturley/netlistsvg" width="457" height="284">
  <style>svg {
    stroke:#000;
    fill:none;
  }
  text {
    fill:#000;
    stroke:none;
    font-size:10px;
    font-weight: bold;
    font-family: "Courier New", monospace;
  }
  .nodelabel {
    text-anchor: middle;
  }
  .inputPortLabel {
    text-anchor: end;
  }
  .splitjoinBody {
    fill:#000;
  }</style>
  <g s:type="mux" transform="translate(283,82)" s:width="20" s:height="40" id="cell_:10">
    <s:alias val="$pmux"/>
    <s:alias val="$mux"/>
    <s:alias val="$_MUX_"/>
    <path d="M0,0 L20,10 L20,30 L0,40 Z" class="cell_:10"/>
    <g s:x="0" s:y="10" s:pid="A"/>
    <g s:x="0" s:y="30" s:pid="B"/>
    <g s:x="10" s:y="35" s:pid="S"/>
    <g s:x="20" s:y="20" s:pid="Y"/>
  </g>
  <g s:type="dff" transform="translate(338,22)" s:width="30" s:height="40" id="cell_:11">
    <s:alias val="$dff"/>
    <s:alias val="$_DFF_"/>
    <s:alias val="$_DFF_P_"/>
    <rect width="30" height="40" x="0" y="0" class="cell_:11"/>
    <path d="M0,35 L5,30 L0,25" class="cell_:11"/>
    <g s:x="30" s:y="10" s:pid="Q"/>
    <g s:x="0" s:y="30" s:pid="CLK"/>
    <g s:x="0" s:y="30" s:pid="C"/>
    <g s:x="0" s:y="10" s:pid="D"/>
  </g>
  <a xlink:href="../building_blocks-shift_register/shift_register.svg"><g s:type="generic" transform="translate(144,101.5)" s:width="30" s:height="40" id="cell_inner">
    <text x="15" y="-4" class="nodelabel cell_inner" s:attribute="ref">shift_register</text>
    <rect width="30" height="80" s:generic="body" class="cell_inner" pointer-events="all"/>
    <g transform="translate(0,10)" s:x="0" s:y="10" s:pid="in0" id="port_inner~clk">
      <text x="-3" y="-4" class="inputPortLabel cell_inner">clk</text>
    </g>
    <g transform="translate(0,30)" s:x="0" s:y="10" s:pid="in0" id="port_inner~load">
      <text x="-3" y="-4" class="inputPortLabel cell_inner">load</text>
    </g>
    <g transform="translate(0,50)" s:x="0" s:y="10" s:pid="in0" id="port_inner~load_data">
      <text x="-3" y="-4" class="inputPortLabel cell_inner">load_data</text>
    </g>
    <g transform="translate(0,70)" s:x="0" s:y="10" s:pid="in0" id="port_inner~serial_in">
      <text x="-3" y="-4" class="inputPortLabel cell_inner">serial_in</text>
    </g>
    <g transform="translate(30,10)" s:x="30" s:y="10" s:pid="out0" id="port_inner~parallel_out">
      <text x="5" y="-4" style="fill:#000; stroke:none" class="cell_inner">parallel_out</text>
    </g>
    <g transform="translate(30,30)" s:x="30" s:y="10" s:pid="out0" id="port_inner~serial_out">
      <text x="5" y="-4" style="fill:#000; stroke:none" class="cell_inner">serial_out</text>
    </g>
  </g></a>
  <g s:type="inputExt" transform="translate(12,42)" s:width="30" s:height="20" id="cell_inClock">
    <text x="15" y="-4" class="nodelabel cell_inClock" s:attribute="ref">inClock</text>
    <s:alias val="$_inputExt_"/>
    <path d="M0,0 L0,20 L15,20 L30,10 L15,0 Z" class="cell_inClock"/>
    <g s:x="28" s:y="10" s:pid="Y"/>
  </g>
  <g s:type="inputExt" transform="translate(12,252)" s:width="30" s:height="20" id="cell_inData">
    <text x="15" y="-4" class="nodelabel cell_inData" s:attribute="ref">inData</text>
    <s:alias val="$_inputExt_"/>
    <path d="M0,0 L0,20 L15,20 L30,10 L15,0 Z" class="cell_inData"/>
    <g s:x="28" s:y="10" s:pid="Y"/>
  </g>
  <g s:type="inputExt" transform="translate(144,229.5)" s:width="30" s:height="20" id="cell_inPrint">
    <text x="15" y="-4" class="nodelabel cell_inPrint" s:attribute="ref">inPrint</text>
    <s:alias val="$_inputExt_"/>
    <path d="M0,0 L0,20 L15,20 L30,10 L15,0 Z" class="cell_inPrint"/>
    <g s:x="28" s:y="10" s:pid="Y"/>
  </g>
  <g s:type="outputExt" transform="translate(403,22)" s:width="30" s:height="20" id="cell_outData">
    <text x="15" y="-4" class="nodelabel cell_outData" s:attribute="ref">outData</text>
    <s:alias val="$_outputExt_"/>
    <path d="M30,0 L30,20 L15,20 L0,10 L15,0 Z" class="cell_outData"/>
    <g s:x="0" s:y="10" s:pid="A"/>
  </g>
  <g s:type="constant" transform="translate(12,122)" s:width="30" s:height="20" id="cell_0">
    <text x="15" y="-4" class="nodelabel cell_0" s:attribute="ref">0</text>
    <s:alias val="$_constant_"/>
    <rect width="30" height="20" class="cell_0"/>
    <g s:x="30" s:y="10" s:pid="Y"/>
  </g>
  <g s:type="constant" transform="translate(12,187)" s:width="30" s:height="20" id="cell_0000000000000000">
    <text x="15" y="-4" class="nodelabel cell_0000000000000000" s:attribute="ref">0x0</text>
    <s:alias val="$_constant_"/>
    <rect width="30" height="20" class="cell_0000000000000000"/>
    <g s:x="30" s:y="10" s:pid="Y"/>
  </g>
  <line x1="368" x2="378" y1="32" y2="32" class="net_5,6,7,8,9,10,11,12,13,14,15,16,17,18,19,20"/>
  <line x1="378" x2="378" y1="32" y2="72" class="net_5,6,7,8,9,10,11,12,13,14,15,16,17,18,19,20"/>
  <line x1="378" x2="258" y1="72" y2="72" class="net_5,6,7,8,9,10,11,12,13,14,15,16,17,18,19,20"/>
  <line x1="258" x2="258" y1="72" y2="92" class="net_5,6,7,8,9,10,11,12,13,14,15,16,17,18,19,20"/>
  <circle cx="378" cy="32" r="2" style="fill:#000" class="net_5,6,7,8,9,10,11,12,13,14,15,16,17,18,19,20"/>
  <line x1="258" x2="283" y1="92" y2="92" class="net_5,6,7,8,9,10,11,12,13,14,15,16,17,18,19,20"/>
  <line x1="368" x2="403" y1="32" y2="32" class="net_5,6,7,8,9,10,11,12,13,14,15,16,17,18,19,20"/>
  <line x1="175" x2="283" y1="112" y2="112" class="net_21,22,23,24,25,26,27,28,29,30,31,32,33,34,35,36"/>
  <line x1="172" x2="293" y1="239.5" y2="239.5" class="net_4"/>
  <line x1="293" x2="293" y1="239.5" y2="117" class="net_4"/>
  <line x1="40" x2="338" y1="52" y2="52" class="net_2"/>
  <line x1="40" x2="64" y1="52" y2="52" class="net_2"/>
  <line x1="64" x2="64" y1="52" y2="112" class="net_2"/>
  <circle cx="64" cy="52" r="2" style="fill:#000" class="net_2"/>
  <line x1="64" x2="144" y1="112" y2="112" class="net_2"/>
  <line x1="303" x2="313" y1="102" y2="102" class="net_37,38,39,40,41,42,43,44,45,46,47,48,49,50,51,52"/>
  <line x1="313" x2="313" y1="102" y2="32" class="net_37,38,39,40,41,42,43,44,45,46,47,48,49,50,51,52"/>
  <line x1="313" x2="338" y1="32" y2="32" class="net_37,38,39,40,41,42,43,44,45,46,47,48,49,50,51,52"/>
  <line x1="42" x2="144" y1="132" y2="132" class="net_54"/>
  <line x1="42" x2="64" y1="197" y2="197" class="net_55,56,57,58,59,60,61,62,63,64,65,66,67,68,69,70"/>
  <line x1="64" x2="64" y1="197" y2="152" class="net_55,56,57,58,59,60,61,62,63,64,65,66,67,68,69,70"/>
  <line x1="64" x2="144" y1="152" y2="152" class="net_55,56,57,58,59,60,61,62,63,64,65,66,67,68,69,70"/>
  <line x1="40" x2="74" y1="262" y2="262" class="net_3"/>
  <line x1="74" x2="74" y1="262" y2="172" class="net_3"/>
  <line x1="74" x2="144" y1="172" y2="172" class="net_3"/>
</svg>
